<?xml version="1.0" encoding="utf-8"?>
<!-- Generator: Adobe Illustrator 22.1.0, SVG Export Plug-In . SVG Version: 6.00 Build 0)  -->
<svg version="1.1" id="Layer_1" xmlns="http://www.w3.org/2000/svg" xmlns:xlink="http://www.w3.org/1999/xlink" x="0px" y="0px"
	 viewBox="0 0 1920 850" style="enable-background:new 0 0 1920 850;" xml:space="preserve">
<style type="text/css">
	.st0{fill:#7E3BEB;}
	.st1{display:none;}
	.st2{display:inline;}
	.st3{fill:#A6D8D7;}
	.st4{fill:#ECA6A9;}
	.st5{fill:#3D1717;}
	.st6{fill:#3C1919;}
	.st7{fill:#E2625C;}
	.st8{fill:#CBC0C0;}
	.st9{fill:#736157;}
	.st10{fill:#726259;}
	.st11{fill:#C99E92;}
	.st12{fill:#7BBDBC;}
	.st13{fill:#D45E6E;}
	.st14{fill:#E7F4F4;}
	.st15{fill:#2ADFDF;}
	.st16{fill:#F5F5F5;}
</style>
<title>contest</title>
<g id="Homepage">
	<g id="_10.-Contest">
		<g id="Background">
			<rect id="path-1-3" x="-14" y="-224.5" class="st0" width="1962.6" height="1091.5"/>
		</g>
		<g class="st1">
			<g id="ghost" class="st2">
				<g id="Group">
					<path id="Fill-4" class="st3" d="M1298.1,213.7c0,0-4.2,0.6-0.7,5.4s9.7,12.2,1.9,12.9s-13.2-15-11.9-22.3s3.6-13.1,14.2-17.5
						c7.8-3.3,24.3-21,8-43.2s-28.4-19.6-39.2-6.7c-5.8,7-35.4,53.1-71.8,23.7s-14.1-54.4-10.2-75.3c4.1-22.4-9-33.3-28-35.7
						s-32.3,24.6-28.1,38.4s18.6,17.2,11.8,23.6c-7.5,7.1-11.2-5.4-12.1-8.1s-2.3-11.5-16.1-8.5s-18.2,11.6-24.8,4.6
						s11.8-8.3,11.8-8.3s13.1-1.4,3.6-6.1s-19.2,5.2-22.9-0.9s4.2-9.3,12.6-7.8s9.7-3.8,2.4-7.1s-19.2-7-11-11.9
						c6.7-4,22.5,16.2,32.8,8.5s4.8-19.2,3.7-30.1s7.6-19.2,18.8-20.8s20.8-1.5,15.5-17.9s-0.5-23.4,13.2-16.5
						c7.7,3.9,14.1-6,21.6-2.7c2.8,1.2,5.4,3.5,8,5.9c6.4,5.7,12.9,11.6,22.9,1.5c9.8-9.8,10.1-16.9,9.4-32.9
						c-0.8-20.4,21.3-17.1,37.1-2.7c11.8,10.8,37.8,13.8,47.3,3.6c8.2-8.7,12-24.3-8.6-21c0,0,16.6-12.8,25.6,4.3
						c9.4,18.1-15.8,26.3-1.4,40.3s26.2,30.4,12.4,48.8c-9.8,13-8.1,17.7-4.5,22c3.1,3.8,9.5,8.4-4.5,19.1s-1.6,15.1,8.2,17.3
						c14.5,3.3,14.2,24.8-5.1,35.9c-14.3,8.2-3.4,16.9,5.5,23.9c3.1,2.4,6,4.7,7.4,6.6c4.6,6.3,7.9,20.4-13.1,28.4
						s-25.2,8.2-25.9,14c-0.5,3.9,4.2,3.7,5.9,3.4c6.5-1.1,11.4,2.2,6.2,6s-11.7-3.8-14.8,1.3s4.3,7.7,7.3,9.9
						c8.4,6.4,5.4,12.6-0.5,10.5c-2.5-0.9-4.4-3.7-6.7-6.7c-3.2-4.3-6.8-9-13.2-9.4L1277.9,51"/>
					<polyline id="Fill-13" class="st4" points="1231.4,29 1232.7,42.2 1220.7,36.8 1231.4,29 					"/>
					<path id="Fill-14" class="st5" d="M1232,41.2l-1.1-11.1l-9.1,6.5L1232,41.2 M1231.8,28.4c0.1,0.1,0.2,0.3,0.2,0.4l1.3,13.3
						c0,0.2-0.1,0.5-0.3,0.6c-0.2,0.1-0.4,0.2-0.6,0.1l-12.2-5.5c-0.2-0.1-0.4-0.3-0.4-0.5s0.1-0.5,0.3-0.6l10.9-7.8
						c0.2-0.1,0.4-0.2,0.6-0.1L1231.8,28.4"/>
					<polyline id="Fill-15" class="st4" points="1234.4,56.1 1233.1,42.9 1245.1,48.3 1234.4,56.1 					"/>
					<path id="Fill-16" class="st5" d="M1234.9,55l9.1-6.5l-10.2-4.6L1234.9,55 M1245.6,47.8c0.1,0.1,0.2,0.3,0.2,0.4
						c0,0.2-0.1,0.4-0.3,0.6l-10.9,7.8c-0.2,0.1-0.4,0.2-0.6,0.1c-0.2-0.1-0.4-0.3-0.4-0.5l-1.3-13.3c0-0.2,0.1-0.5,0.3-0.6
						c0.2-0.1,0.4-0.2,0.6-0.1l12.2,5.5L1245.6,47.8"/>
					<path id="Fill-17" class="st4" d="M1228,46.1c-1.9-2.7-1.3-6.4,1.4-8.4s6.4-1.3,8.4,1.4c1.9,2.7,1.3,6.4-1.3,8.3
						C1233.8,49.4,1230,48.8,1228,46.1L1228,46.1"/>
					<path id="Fill-18" class="st5" d="M1229.4,46.8c2.4,1.9,5.8,1.5,7.7-0.8c0.6-0.7,1-1.6,1.1-2.6c0.5-3-1.5-5.8-4.5-6.3
						s-5.8,1.5-6.3,4.5c-0.2,1.4,0.1,2.9,1,4.1C1228.7,46.2,1229.1,46.5,1229.4,46.8 M1237.1,37.3c0.5,0.4,0.9,0.8,1.2,1.3
						c2.2,3,1.5,7.3-1.5,9.5s-7.3,1.5-9.5-1.5s-1.5-7.3,1.5-9.5C1231.4,35.3,1234.8,35.4,1237.1,37.3"/>
					<polyline id="Fill-19" class="st6" points="1326.2,6.9 1315.1,14.4 1314.5,1.1 1326.2,6.9 					"/>
					<path id="Fill-20" class="st5" d="M1315.6,13.4l9.1-5.8l-9.8-5L1315.6,13.4 M1326.3,7c0.1,0.1,0.2,0.3,0.2,0.4
						c0,0.2-0.1,0.4-0.3,0.6l-10.9,7c-0.2,0.1-0.4,0.1-0.6,0s-0.3-0.3-0.3-0.5l-0.9-13c0-0.2,0.1-0.4,0.3-0.6c0.2-0.1,0.4-0.1,0.6,0
						l11.8,6L1326.3,7"/>
					<polyline id="Fill-21" class="st6" points="1304.2,22.9 1315.3,15.5 1315.9,28.8 1304.2,22.9 					"/>
					<path id="Fill-22" class="st5" d="M1315.1,27.9l-0.8-10.9l-9.1,5.8L1315.1,27.9 M1315.3,15.4c0.1,0.1,0.2,0.3,0.2,0.5l0.9,13
						c0,0.2-0.1,0.4-0.3,0.6c-0.2,0.1-0.4,0.1-0.6,0l-11.8-6c-0.2-0.1-0.3-0.3-0.4-0.5c0-0.2,0.1-0.4,0.3-0.6l10.9-7
						c0.2-0.1,0.4-0.1,0.6,0H1315.3"/>
					<path id="Fill-23" class="st7" d="M1309.6,13c1.5-2.9,5.1-4.1,8.1-2.6s4.1,5.1,2.6,8.1c-1.5,2.9-5.1,4.1-8,2.6
						C1309.3,19.7,1308.1,16.1,1309.6,13C1309.6,13.1,1309.6,13,1309.6,13"/>
					<path id="Fill-24" class="st6" d="M1312,19.4c0.3,0.2,0.6,0.5,1,0.6c2.7,1.4,6,0.2,7.4-2.5s0.2-6-2.5-7.4s-6-0.2-7.4,2.5
						C1309.4,15,1310,17.8,1312,19.4 M1319.7,9.9c2.9,2.4,3.3,6.6,1,9.5c-0.8,1-1.9,1.8-3.1,2.2c-3.5,1.2-7.4-0.8-8.5-4.3
						s0.8-7.4,4.3-8.5c1.7-0.6,3.5-0.4,5.1,0.4C1318.9,9.3,1319.3,9.6,1319.7,9.9"/>
					<path id="Fill-25" class="st7" d="M1244.4,14.6c-1-1.4-0.7-3.4,0.7-4.5c1.4-1,3.4-0.7,4.5,0.7c1,1.4,0.7,3.4-0.7,4.5
						C1247.4,16.4,1245.4,16.1,1244.4,14.6L1244.4,14.6"/>
					<path id="Fill-26" class="st6" d="M1245.6,15.1c0.3,0.3,0.7,0.4,1.1,0.5c0.6,0.1,1.2,0,1.7-0.4c1-0.8,1.3-2.2,0.5-3.2
						s-2.2-1.3-3.2-0.5s-1.3,2.2-0.5,3.2l0,0C1245.2,14.8,1245.4,14.9,1245.6,15.1 M1249.2,10.5c0.2,0.2,0.5,0.4,0.7,0.7
						c0.5,0.8,0.8,1.7,0.6,2.6c-0.1,0.9-0.7,1.8-1.4,2.3c-0.8,0.6-1.7,0.8-2.6,0.6c-1.9-0.3-3.2-2.1-2.9-4l0,0
						c0.3-1.9,2.1-3.3,4.1-2.9C1248.2,9.8,1248.8,10.1,1249.2,10.5"/>
					<path id="Fill-27" class="st7" d="M1313.8,49.7c-1.6-2.2-1.1-5.4,1.1-7s5.4-1.1,7,1.1c1.6,2.2,1.1,5.3-1.1,7
						C1318.5,52.4,1315.4,51.9,1313.8,49.7L1313.8,49.7"/>
					<path id="Fill-28" class="st6" d="M1315,50.2c1.9,1.5,4.7,1.2,6.2-0.7c0.5-0.6,0.8-1.3,0.9-2c0.4-2.4-1.3-4.7-3.7-5
						c-2.4-0.4-4.7,1.3-5,3.7c-0.2,1.1,0.1,2.3,0.7,3.2C1314.4,49.7,1314.6,50,1315,50.2 M1321.3,42.4c0.4,0.3,0.7,0.7,1.1,1.1
						c1.8,2.6,1.2,6.1-1.3,7.9c-2.6,1.8-6.1,1.2-7.9-1.3c-1.8-2.6-1.2-6.1,1.3-7.9c1.2-0.9,2.7-1.2,4.2-1
						C1319.6,41.3,1320.5,41.7,1321.3,42.4"/>
					<path id="Fill-29" class="st3" d="M1330.3-63.9c2,1.7,3.6,3.7,4.7,6.1c9.4,18.1-15.8,26.3-1.4,40.3s26.2,30.4,12.4,48.8
						c-9.8,13-8.1,17.7-4.5,22c2.5,3,7.1,6.6,1.6,13.5c-1.8,2.1-3.8,4-6.1,5.6c-1.6,1.2-3,2.5-4.3,4c-3,3.7-2.2,6.5,0.3,8.6
						c2.8,2.3,7.8,3.7,12.2,4.8c2,0.4,3.9,1.3,5.5,2.6c6.4,5.2,6.5,16.1-0.9,25.2c-2.7,3.3-6,6-9.7,8.1c-1.9,1-3.7,2.4-5.1,4.1
						c-5,6.1,1.3,12.3,8,17.7c0.9,0.7,1.8,1.4,2.6,2.1s1.7,1.4,2.5,2c1.8,1.3,3.4,2.9,4.9,4.6c3.2,4.4,5.8,12.6-0.1,19.9
						c-2.6,3.1-6.7,6.1-13,8.5c-16,6.1-22.2,7.7-24.6,10.6c-0.8,1-1.2,2.2-1.3,3.4c-0.2,1,0.1,2,0.9,2.7c1.4,1.1,3.9,0.9,5,0.8
						c3.2-0.5,6.1,0,7.5,1.2c1.1,0.9,1.3,2.2,0.2,3.6c-0.4,0.5-0.9,0.9-1.4,1.3c-5,3.6-11.2-3.2-14.5,0.8c-0.1,0.2-0.3,0.4-0.4,0.5
						c-1.6,2.7-0.4,4.6,1.6,6.2c1.8,1.5,4.3,2.6,5.7,3.7l0.5,0.4c4.7,3.8,5.4,7.5,4,9.4c-0.9,1.2-2.8,1.6-5,0.8
						c-0.7-0.3-1.4-0.6-1.9-1.1c-1.8-1.7-3.4-3.6-4.7-5.6c-1.6-2.3-3.5-4.4-5.6-6.3c-2.1-1.8-4.8-2.9-7.6-3.1
						c-0.6,0.1-1.2,0.4-1.7,0.9c-0.6,0.8-0.8,2.1,0.9,4.5c2.7,3.8,7.2,9.1,5.2,11.6c-0.9,0.8-2.1,1.3-3.3,1.3
						c-1.7,0.1-3.4-0.5-4.7-1.6c-5.1-4.1-8.1-14.9-7.1-20.7c0.7-4,1.7-7.6,4.2-10.7c2.1-2.6,5.2-4.8,10-6.9c3.4-1.6,6.3-4,8.7-7
						c6.3-7.8,10.6-20.9-0.6-36.2c-3-4.2-6.5-8.1-10.4-11.4c-11.3-9.1-20.4-5.3-28.8,4.7l-0.2,0.3c-1.2,1.5-3.2,4.3-5.9,7.6
						c-11.7,14.4-36.4,39.4-65.6,15.8c-36.4-29.5-14.1-54.4-10.2-75.3c2.4-13.2-1.1-22.4-8.3-28.2c-5-4.1-11.9-6.5-19.7-7.5
						c-8.1-1-15.1,3.2-20.2,9.5c-6.9,8.6-10.3,20.9-7.9,28.8c4,13.2,17.4,16.9,12.6,22.8c-0.2,0.3-0.5,0.5-0.7,0.8
						c-3,2.8-5.3,2.6-7.2,1.1c-2.8-2.3-4.4-7.6-4.9-9.2c-0.4-1.5-1.1-4.7-3.8-6.9c-2.3-1.8-6-2.9-12.3-1.6
						c-12.9,2.8-17.6,10.6-23.6,5.7c-0.4-0.4-0.8-0.7-1.2-1.1c-1.7-1.8-1.7-3.3-0.8-4.4c2.6-3.2,12.7-3.9,12.7-3.9s5.4-0.6,6.8-2.2
						c0.5-0.6,0.4-1.4-0.8-2.4c-0.7-0.6-1.5-1.1-2.4-1.4c-8.8-4.3-17.7,3.7-22,0.3c-0.4-0.3-0.7-0.7-1-1.1c-1.3-2.1-1.2-3.9-0.1-5.3
						c2-2.5,7.3-3.5,12.7-2.5c3.6,0.6,5.8,0.1,6.8-1.1s0.4-2.8-1.4-4.3c-0.9-0.7-1.9-1.3-2.9-1.7c-4-1.8-9.4-3.7-12.1-5.9
						c-1.6-1.3-2.3-2.7-1.1-4.3c0.6-0.7,1.3-1.3,2.2-1.7c6.7-4,22.5,16.2,32.8,8.5c1.1-0.8,2.1-1.8,3-2.8c6.1-7.5,1.7-17.6,0.7-27.3
						c-0.6-4.6,0.7-9.2,3.6-12.8c3.8-4.5,9.2-7.3,15-8c6.6-0.9,12.6-1.3,15.4-4.7c2-2.4,2.3-6.4,0.1-13.2
						c-2.7-8.3-2.8-14.2-0.5-17.1s6.9-2.8,13.7,0.6c7.7,3.9,14.1-6,21.6-2.7c1.7,0.8,3.2,1.8,4.7,3c1.1,0.9,2.2,1.9,3.3,2.9
						s2.2,2,3.3,2.9c5.4,4.4,11.3,6.9,19.6-1.4c1.1-1.1,2.2-2.3,3.2-3.6c6.6-8.2,6.8-15.3,6.2-29.3c-0.2-4.7,0.8-8.1,2.7-10.5
						c5.9-7.3,20.1-3.8,31.9,5.7c0.8,0.7,1.7,1.4,2.5,2.2c0.4,0.3,0.8,0.7,1.2,1c12.3,10,36.9,12.4,46.1,2.6c0.5-0.5,1-1,1.4-1.6
						c4.8-6,7.4-14,2.8-17.8c-2.3-1.9-6.4-2.7-12.8-1.6C1309.4-62.2,1321.2-71.3,1330.3-63.9 M1321.1,12l5.7-3.7
						c0.2-0.1,0.3-0.3,0.3-0.6c0-0.2-0.1-0.3-0.2-0.4l-0.1-0.1L1315,1.3c-0.2-0.1-0.4-0.1-0.6,0s-0.3,0.3-0.3,0.6l0.4,6.8
						c-0.5,0.1-0.9,0.2-1.3,0.3c-3.6,1.2-5.5,5-4.4,8.6c0.1,0.4,0.3,0.9,0.6,1.3l-5.7,3.8c-0.2,0.1-0.3,0.3-0.3,0.6
						c0,0.2,0.1,0.3,0.2,0.5l0.1,0.1l11.8,5.9c0.2,0.1,0.4,0.1,0.6,0s0.3-0.3,0.3-0.6l-0.4-6.8c3.8-0.4,6.5-3.8,6-7.6
						C1321.9,13.8,1321.6,12.9,1321.1,12 M1277.3,20.2l-1.4-13.7c-0.2-2.1-2.1-3.6-4.2-3.4c-2.1,0.2-3.6,2.1-3.4,4.2l1.4,13.7
						l-11.8,1.3c-0.2,0-0.3,0.1-0.4,0.2s-0.2,0.3-0.1,0.5l3.9,37.6c0.9,9,9,15.5,17.9,14.6c0,0,0,0,0.1,0c9-1,15.5-9,14.6-18
						l-3.9-37.6c0-0.2-0.1-0.3-0.2-0.4s-0.3-0.2-0.5-0.1L1277.3,20.2 M1314.3,51.7c2.5,2,6.1,1.6,8-0.9c0.6-0.8,1-1.7,1.2-2.7
						c0.2-1.5-0.1-3-1-4.2c-0.3-0.4-0.6-0.8-1-1.1c-0.8-0.6-1.7-1-2.7-1.2c-3.1-0.5-6.1,1.6-6.6,4.7c-0.3,1.5,0.1,3.1,1,4.3
						C1313.6,51,1313.9,51.4,1314.3,51.7 M1244.9,16.2c0.5,0.4,1.1,0.7,1.7,0.8c1,0.2,1.9-0.1,2.7-0.6c1.6-1.2,2-3.5,0.8-5.1
						c-0.2-0.3-0.4-0.5-0.7-0.7c-1.6-1.3-3.9-1-5.2,0.6c-1,1.3-1.1,3.1-0.1,4.4C1244.5,15.7,1244.7,16,1244.9,16.2 M1232.8,36.3
						l-0.7-6.8c0-0.2-0.1-0.3-0.2-0.4l-0.1-0.1c-0.2-0.1-0.5-0.1-0.6,0.1l-10.7,7.7c-0.2,0.1-0.3,0.4-0.3,0.6c0,0.2,0.1,0.3,0.2,0.4
						l0.1,0.1l6.2,2.8c-1.4,3.5,0.4,7.4,3.9,8.8c0.5,0.2,0.9,0.3,1.4,0.4c0.5,0.1,0.9,0.1,1.4,0.1l0.7,6.8c0,0.2,0.1,0.3,0.2,0.4
						l0.1,0.1c0.2,0.1,0.4,0.1,0.6-0.1l10.7-7.7c0.2-0.1,0.3-0.4,0.3-0.6c0-0.2-0.1-0.3-0.2-0.4l-0.1-0.1l-6.2-2.8
						c0.8-2.2,0.5-4.6-0.8-6.5c-0.4-0.5-0.8-0.9-1.2-1.3C1236.1,36.8,1234.4,36.2,1232.8,36.3"/>
					<path id="Fill-38" class="st8" d="M1230.7,30.2l0.6,5.8c-1.8,0.4-3.4,1.5-4.3,3.1l-5.3-2.4L1230.7,30.2"/>
					<path id="Fill-39" class="st9" d="M1231.8,28.4c0.1,0.1,0.2,0.3,0.2,0.4l0.6,6.8c-0.4,0-0.8,0.1-1.3,0.2l-0.5-5.7l-9,6.6
						l5.2,2.3c-0.2,0.4-0.4,0.8-0.6,1.2l-6.2-2.7l-0.1-0.1c-0.1-0.1-0.2-0.3-0.2-0.4c0-0.2,0.1-0.5,0.3-0.6l10.8-7.9
						c0.2-0.1,0.4-0.2,0.6-0.1L1231.8,28.4"/>
					<path id="Fill-40" class="st8" d="M1244.1,48.5l-9,6.4l-0.6-5.8c1.8-0.4,3.3-1.5,4.3-3.1L1244.1,48.5"/>
					<path id="Fill-41" class="st9" d="M1245.7,47.8c0.1,0.1,0.2,0.3,0.2,0.4c0,0.2-0.1,0.4-0.3,0.6l-10.8,7.9
						c-0.2,0.1-0.4,0.2-0.6,0.1l-0.1-0.1c-0.1-0.1-0.2-0.3-0.2-0.4l-0.6-6.8c0.4,0,0.8-0.1,1.2-0.2l0.5,5.8l9-6.6l-5.2-2.3
						c0.2-0.4,0.4-0.7,0.6-1.2l6.2,2.7L1245.7,47.8"/>
					<path id="Fill-42" class="st8" d="M1236.4,37.6c0.4,0.3,0.7,0.7,1,1.1c1.8,2.6,1.3,6.1-1.3,7.9c-1.2,0.9-2.7,1.2-4.2,1
						c-1-0.2-1.9-0.6-2.7-1.2c-0.4-0.3-0.7-0.7-1-1.1c-1.8-2.5-1.3-6.1,1.2-7.9C1231.6,35.9,1234.4,36,1236.4,37.6"/>
					<path id="Fill-43" class="st9" d="M1237.2,37.3c0.5,0.4,0.9,0.8,1.2,1.3c1.3,1.9,1.6,4.2,0.8,6.4c-0.2,0.4-0.3,0.8-0.6,1.1
						c-0.5,0.8-1.1,1.4-1.8,1.9c-0.7,0.5-1.5,0.9-2.4,1.1c-0.4,0.1-0.8,0.1-1.2,0.2c-0.5,0-0.9,0-1.4-0.1c-1.2-0.2-2.2-0.7-3.2-1.4
						c-0.5-0.4-0.9-0.8-1.2-1.3c-1.3-1.8-1.6-4.2-0.8-6.3c0.1-0.4,0.3-0.8,0.6-1.1c0.5-0.8,1.1-1.5,1.8-2c0.7-0.5,1.5-0.9,2.4-1.1
						c0.4-0.1,0.8-0.2,1.2-0.2C1234.3,35.7,1235.9,36.2,1237.2,37.3 M1229.4,46.8c2.4,1.9,5.8,1.5,7.7-0.8c0.6-0.7,1-1.6,1.1-2.6
						c0.2-1.4-0.1-2.9-1-4.1c-0.3-0.4-0.6-0.8-1-1.1c-2.4-1.9-5.8-1.6-7.7,0.8c-1.6,1.9-1.7,4.7-0.2,6.7
						C1228.7,46.1,1229,46.5,1229.4,46.8"/>
					<path id="Fill-44" class="st10" d="M1324.8,7.6l-4.7,3c-0.3-0.3-0.6-0.6-0.9-0.9c-0.4-0.3-0.8-0.5-1.2-0.8
						c-0.8-0.4-1.7-0.7-2.6-0.7l-0.4-5.6L1324.8,7.6"/>
					<path id="Fill-45" class="st9" d="M1326.8,6.4c0.1,0.1,0.2,0.3,0.2,0.5s-0.1,0.5-0.3,0.6l-5.8,3.9c-0.2-0.4-0.5-0.7-0.7-1.1
						l5-3.3l-9.9-4.9l0.2,5.9c-0.4,0-0.9,0-1.3,0.1l-0.3-6.9c0-0.2,0.1-0.5,0.3-0.6c0.2-0.1,0.4-0.1,0.6-0.1L1326.8,6.4L1326.8,6.4"
						/>
					<path id="Fill-46" class="st10" d="M1314.5,22.1l0.4,5.6l-9.7-5l4.7-3c0.3,0.3,0.5,0.6,0.9,0.8c0.4,0.3,0.8,0.6,1.2,0.8
						C1312.7,21.8,1313.6,22.1,1314.5,22.1"/>
					<path id="Fill-47" class="st9" d="M1316.3,21.8l0.3,7c0,0.2-0.1,0.5-0.3,0.6c-0.2,0.1-0.4,0.1-0.6,0l-11.9-5.9l-0.1-0.1
						c-0.1-0.1-0.2-0.3-0.2-0.5s0.1-0.5,0.3-0.6l5.9-3.9c0.2,0.4,0.5,0.7,0.7,1l-5,3.3l9.9,4.9l-0.2-5.9
						C1315.4,21.8,1315.9,21.8,1316.3,21.8"/>
					<path id="Fill-48" class="st11" d="M1318.6,10.8c2.5,2,2.8,5.5,0.9,8c-1.7,2.1-4.6,2.7-7,1.5c-0.4-0.2-0.7-0.4-1-0.7
						c-2.5-2-2.8-5.5-0.9-8c1.7-2.1,4.6-2.7,7-1.5C1317.9,10.3,1318.2,10.5,1318.6,10.8"/>
					<path id="Fill-49" class="st10" d="M1319.7,9.9c0.6,0.5,1.2,1.2,1.6,1.9c1.9,3.2,0.7,7.4-2.5,9.2c-0.4,0.2-0.8,0.4-1.3,0.6
						c-0.4,0.1-0.9,0.3-1.4,0.3c-1.3,0.1-2.6-0.1-3.8-0.7c-0.8-0.4-1.5-0.9-2.1-1.6c-0.3-0.3-0.5-0.6-0.7-1s-0.4-0.8-0.6-1.3
						c-0.6-1.7-0.4-3.6,0.4-5.2s2.2-2.8,3.9-3.4c0.4-0.1,0.9-0.2,1.3-0.3c0.4,0,0.8,0,1.2,0c0.9,0.1,1.8,0.3,2.6,0.7
						C1319,9.4,1319.4,9.7,1319.7,9.9 M1312,19.4c0.3,0.2,0.6,0.5,1,0.6c2.7,1.4,6,0.3,7.4-2.5c1.2-2.3,0.6-5.1-1.4-6.7
						c-0.3-0.2-0.6-0.5-1-0.6c-2.7-1.4-6-0.3-7.4,2.5C1309.4,15,1310,17.8,1312,19.4"/>
					<path id="Fill-50" class="st11" d="M1248.5,10.8c1.1,0.9,1.2,2.4,0.4,3.5c-0.6,0.7-1.5,1-2.4,0.9c-0.4-0.1-0.8-0.2-1.2-0.5
						c-0.2-0.1-0.3-0.3-0.4-0.5c-0.8-1.1-0.5-2.7,0.6-3.5C1246.4,10.1,1247.6,10.1,1248.5,10.8"/>
					<path id="Fill-51" class="st10" d="M1249.2,10.5c0.2,0.2,0.5,0.4,0.7,0.7c0.5,0.8,0.8,1.7,0.6,2.6c-0.3,1.9-2.1,3.3-4.1,2.9
						c-0.6-0.1-1.2-0.4-1.7-0.7c-1-0.8-1.5-2.1-1.3-3.3c0.3-1.9,2.1-3.3,4.1-2.9C1248.2,9.8,1248.8,10.1,1249.2,10.5 M1245.6,15.1
						c0.3,0.3,0.7,0.4,1.1,0.5c0.6,0.1,1.2,0,1.7-0.4c1-0.8,1.3-2.2,0.5-3.2c-0.1-0.2-0.3-0.3-0.4-0.4c-1-0.8-2.5-0.7-3.3,0.3
						c-0.3,0.3-0.4,0.7-0.5,1.1c-0.1,0.6,0,1.2,0.4,1.7C1245.2,14.8,1245.4,14.9,1245.6,15.1"/>
					<path id="Fill-52" class="st11" d="M1320.5,43.5c0.3,0.2,0.6,0.5,0.8,0.8c1.4,1.9,1,4.6-0.9,6c-1.6,1.2-3.7,1.1-5.2-0.1
						c-0.3-0.2-0.6-0.5-0.8-0.8c-0.7-0.9-0.9-2.1-0.8-3.2c0.4-2.3,2.6-3.9,4.9-3.5C1319.2,42.7,1319.9,43,1320.5,43.5"/>
					<path id="Fill-53" class="st10" d="M1321.4,42.3c0.4,0.3,0.7,0.7,1.1,1.1c1.8,2.6,1.2,6.1-1.3,7.9c-1.2,0.9-2.7,1.2-4.2,1
						c-1-0.2-1.9-0.6-2.7-1.2c-0.4-0.3-0.7-0.7-1-1.1c-1.8-2.6-1.3-6.1,1.3-7.9c1.2-0.9,2.7-1.2,4.2-1
						C1319.7,41.3,1320.6,41.7,1321.4,42.3 M1315,50.2c1.9,1.5,4.7,1.2,6.2-0.7c0.5-0.6,0.8-1.3,0.9-2c0.2-1.2-0.1-2.3-0.8-3.3
						c-0.2-0.3-0.5-0.6-0.8-0.9c-0.6-0.5-1.3-0.8-2.1-0.9c-2.4-0.4-4.7,1.2-5.1,3.7c-0.2,1.2,0.1,2.3,0.8,3.3
						C1314.4,49.7,1314.7,50,1315,50.2"/>
					<path id="Fill-54" class="st12" d="M1209.7,115.8c5.2-6.4,11.4-10,13.8-8s0.2,8.8-5,15.2s-11.4,10-13.8,8
						S1204.5,122.2,1209.7,115.8"/>
					<path id="Fill-55" class="st12" d="M1229.6,131.9c5.2-6.4,11.4-10,13.8-8s0.2,8.8-5,15.2s-11.4,10-13.8,8
						S1224.4,138.3,1229.6,131.9"/>
					<path id="Fill-56" class="st12" d="M1098.8,99.4c3.1-0.6,14-2.4,10.8-6.1c-0.2,2.1-7,2.6-7,2.6s-17.4,1-12.2,7.5
						C1091.2,100.2,1096.4,99.9,1098.8,99.4"/>
					<path id="Fill-57" class="st12" d="M1093.1,83.8c10.1,2.6,14.1-2.6,9.8-6.1c1.3,5.3-5.9,3.8-6.8,3.7
						c-7.8-1.3-15.2,1.5-13.1,6.8C1084.6,85.9,1089.2,82.8,1093.1,83.8"/>
					<path id="Fill-58" class="st12" d="M1333.2,130.7c-10.3,10,11.5,24.1,16.5,30.9c2.9,3.8,4.1,8.7,3.2,13.4
						c5.2-7,2.6-14.9-0.6-19.2C1348.3,150.3,1328.5,141,1333.2,130.7"/>
					<path id="Fill-59" class="st12" d="M1140.2,25.9c8.8-1.3,22.7-2.1,20.2-15.9c-1.6,9.3-11.7,9.2-17.5,10
						c-9.1,1.3-16.5,7-18.5,14.8C1127.9,30.1,1133.6,26.8,1140.2,25.9"/>
					<path id="Fill-60" class="st12" d="M1168.4-8.6c7.8,3.9,14.1-5.8,21.6-2.5c9.7,4.2,17,21.6,30.9,7.6c4.3-4.3,6.8-8.1,8.1-12.4
						c-1.5,2.4-3.4,4.6-5.4,6.6c-14,14-21.3-3.3-30.9-7.6c-7.5-3.3-13.8,6.5-21.6,2.6c-9.6-4.8-14.8-3-15.3,4.1
						C1158.3-12,1162.5-11.6,1168.4-8.6"/>
					<path id="Fill-61" class="st12" d="M1331.8,77c-8,8.6,1.8,16.1,10.7,18.1c8.7,1.9,12.1,10.4,9.2,19.4c6.8-10.8,4.2-23-6.4-25.3
						C1338.8,87.7,1328,85.1,1331.8,77"/>
					<path id="Fill-62" class="st12" d="M1085.7,67.5c0.9-5.8,10.9,0.4,17.1,3.9c5.5,3,10,8.5,14.6,5c2.9-2.1,5-5.2,5.7-8.7
						c-0.9,1.1-1.9,2.1-3,2.9c-10.3,7.7-26.1-12.4-32.8-8.5C1084.1,64.1,1084.1,65.9,1085.7,67.5"/>
					<path id="Fill-64" class="st12" d="M1339,58.6c1.7,2,4.3,4.3,4.1,7.7c5.8-7,1-10.5-1.3-13.6c-5.9-8-0.8-11.3,0.7-16.2
						C1332.5,50.3,1336.1,55,1339,58.6"/>
					<path id="Fill-66" class="st12" d="M1330.6-12.3c12,11.6,22.3,25,17.5,39.7c10.2-17-1.2-32.3-14.8-45.5
						c-4.8-4.7-5.2-8.7-3.9-12.7C1326.1-24.8,1323.5-19.3,1330.6-12.3"/>
					<path id="Fill-67" class="st12" d="M1143.9,60.3c4.6-4.2,10.3-6.7,16.7-5.9c19,2.4,32.1,13.3,28,35.7
						c-3.8,20.6-25.4,45.1,8.5,74c-6.7-12.1-20-19.5-10.9-46.7c11.6-35,26.3-48-0.7-65.7C1165.9,38.9,1144.9,58.8,1143.9,60.3"/>
					<path id="Fill-68" class="st4" d="M1231.4,89.4c0,0,11.6-18.2,19.2-12.8s-4.1,17.1-4.1,17.1s3.6-3.3,6-1.3
						c4.7,3.8-2.4,10.7-2.4,10.7L1231.4,89.4"/>
					<path id="Fill-69" class="st12" d="M1296.7,201.4c0,0,3.4,2,7.1,4s2.7,4.7,2.7,4.7l-2,0.5l-0.4-0.5l-9.2-4l-2.8,0.8l-0.2,2.4
						c-1.8,3.3,0.9,16.4,4.3,16.5s6.1,3.5,6.1,3.5l0.4-1.9c-0.9-2.6-3.6-6-5.4-8.6c-3.5-4.8,0.7-5.4,0.7-5.4
						c4.4,0.3,7.5,2.6,10.1,5.5l5,3.6c0.4,0.4,0.9,0.7,1.4,1l0,0c0.5,0.4,1.2,0.6,1.9,0.4c3.5-1,6.7,2.6,6.7,2.6l0.5-0.9
						c-0.4-1.9-2-4.2-5.1-6.6s-10.4-4.8-7.3-10c0.2-0.3,0.4-0.6,0.7-0.9l0,0c-5.9-4.8-1-5.5,0.4-5.4c2.7,0.3,6.2,2.2,10.3,3
						c1.8,0.4,3.6,0.4,5.4,0c1.4-2.8-2.8-4.9-8.1-4c-1.7,0.3-6.4,0.5-5.9-3.4c0.1-0.4,0.1-0.8,0.2-1.2c-2.2-1.8-5.2-2.3-8.7-3
						c-4.3-0.8-9.5,4.9-9.5,4.9L1296.7,201.4"/>
					<path id="Fill-70" class="st5" d="M1332.3,84.7c-1.2-0.9-2-2.1-2.4-3.5c-0.6-3,1.4-6.2,6.4-10c5.3-4.1,8.1-7.5,8.4-10.6
						c0.3-2.7-1.5-4.7-3.1-6.5c-0.3-0.4-0.6-0.7-0.9-1.1c-3.5-4.2-5.8-9.2,4.5-22.8c13.7-18.2,1.4-34.5-12.4-47.9
						c-7.8-7.5-4.4-13.5-1-19.9c3.2-5.9,6.6-12,2.2-20.5c-2.4-4.6-5.6-7.4-9.6-8.3c-4.9-1.1-9.9,1.1-12.8,2.7
						c7.8-0.7,11,1.9,12.3,4.3c2.7,5-0.9,12.9-5.8,18.1c-4.6,4.9-13.1,7.2-23.3,6.2c-9.8-0.9-19.1-4.6-24.9-9.8
						c-10.3-9.4-23-13.8-30.2-10.5c-4.1,1.9-6.1,6.3-5.9,12.6c0.7,15.8,0.6,23.2-9.5,33.3c-10.4,10.5-17.5,4.1-23.7-1.5
						c-2.6-2.4-5.1-4.6-7.8-5.8c-3.4-1.5-6.6-0.1-9.9,1.4c-3.7,1.6-7.5,3.3-11.7,1.2c-5.8-2.9-10-3.4-12.3-1.4
						c-2.8,2.4-2.8,8.5,0,17.1c2,6.1,2.1,10.2,0.3,13.1c-2.4,3.8-7.7,4.5-13.9,5.3l-2.4,0.3c-11.6,1.6-19.3,10-18.3,20.1
						c0.2,2.4,0.7,4.8,1.2,7.2c1.6,8.5,3.3,17.2-5,23.4c-6.2,4.6-14-0.1-20.9-4.3c-4.8-2.9-9.4-5.7-11.9-4.2c-1.7,1-2.5,2-2.5,2.9
						c0.2,2.3,5.8,4.7,10.4,6.6c1,0.4,2.1,0.9,3,1.3c3.7,1.7,5.7,4,5.1,6.1c-0.5,1.6-2.8,3-7.8,2.2c-5.5-1-10.7,0.1-12.3,2.5
						c-0.8,1.2-0.7,2.6,0.3,4.3c1.5,2.5,4.1,1.9,8.5,0.7c4.1-1.1,9.2-2.5,14.2,0c2.8,1.4,4,2.7,3.8,4c-0.4,2.5-6.4,3.2-7.6,3.3
						c-3.2,0.2-11.5,1.4-12.6,4.2c-0.3,0.8,0.1,1.8,1.2,3c3.8,4,6.6,2.6,11.8,0c3.9-2.1,8.1-3.7,12.4-4.7
						c13.4-2.9,15.8,5.3,16.7,8.4c0.1,0.2,0.1,0.4,0.2,0.6c1.8,5.9,3.9,9.1,6.3,9.7c1.4,0.4,3-0.3,4.7-1.9c0.9-0.7,1.4-1.7,1.6-2.8
						c0-1.8-1.9-3.8-4.3-6.2c-3.3-3.3-7.3-7.5-9.3-13.9c-2.6-8.3,1.1-21.2,8.4-29.9c5.8-6.9,13-10.1,20.3-9.2
						c11.2,1.4,19.6,5.7,24.5,12.3c4.5,6.2,5.9,14.3,4.1,24.1c-1.1,4.9-2.5,9.8-4.4,14.4c-6.4,17.6-13.6,37.5,14.5,60.2
						c9.1,7.4,18.5,10.5,28,9.4c19.6-2.4,34.4-21.9,40.7-30.2c0.9-1.1,1.5-2,2-2.6c5.8-7,11.5-10.3,17.3-10.1
						c7.2,0.2,14.7,5.7,22.9,16.8c6.4,8.7,8.5,17.8,6.1,26.4c-2.7,9.6-10.2,16-14.4,17.7c-9.8,4.1-12.4,9.2-13.8,17
						c-0.8,4.9,1.5,14.2,5.8,18.9c1.8,1.9,3.6,2.8,5.5,2.6c1.7-0.1,2.7-0.6,3-1.4c0.9-2-2.2-6.1-4.4-9.1l-1-1.4
						c-1.3-1.9-1.8-3.4-1.3-4.7c0.5-0.9,1.4-1.6,2.4-1.8h0.1c6.9,0.4,10.7,5.6,14.1,10.1c2.1,2.8,3.9,5.3,6,6s3.9,0.4,4.6-0.9
						c1-1.8-0.1-5.1-4.6-8.5c-0.7-0.5-1.5-1-2.3-1.4c-2.5-1.5-5.3-3.1-5.9-5.6c-0.3-1.3,0-2.6,0.7-3.7c1.9-3,4.8-2.2,7.6-1.4
						c2.5,0.7,5.1,1.5,7.4-0.1c0.9-0.6,2.3-1.9,1.8-3.1c-0.6-1.4-3.6-2.4-7.6-1.8c-0.7,0.1-4,0.6-5.7-1.1c-0.8-0.8-1.1-1.9-0.9-3.1
						c0.7-5.1,3.6-6.2,16.2-10.8c2.8-1,6.2-2.3,10.1-3.8c8.6-3.3,13.9-7.8,15.6-13.5c1.6-5.3-0.4-10.7-2.8-13.9
						c-1.4-1.9-4.2-4.1-7.2-6.5c-6.2-4.9-13.2-10.4-12.7-16.3c0.2-3.2,2.6-6.1,7.2-8.7c11.7-6.7,15.8-17,14.8-24.3
						c-0.6-5.2-4.5-9.4-9.6-10.4C1340.6,88.7,1335.3,87.2,1332.3,84.7z M1330.2-64.9c2,1.7,3.7,3.9,4.9,6.3c4.7,9,1,15.8-2.2,21.7
						c-3.4,6.2-6.3,11.5,0.7,18.4c5.6,5.5,13.5,13.8,16.9,23c3.5,9.3,2,18-4.4,26.6c-9.7,12.9-7.8,17.3-4.5,21.2
						c0.3,0.3,0.6,0.7,0.9,1c1.7,1.9,3.7,4.2,3.4,7.5s-3.2,7.2-8.9,11.5c-4.4,3.4-6.4,6.3-5.9,8.8c1,4.5,10.7,6.7,14,7.5
						c5.6,1.1,9.9,5.8,10.5,11.4c1.1,7.7-3.2,18.6-15.4,25.6c-4.2,2.4-6.4,5-6.6,7.7c-0.4,5.2,6.3,10.5,12.2,15.2
						c3.1,2.4,6,4.7,7.5,6.7c1.2,1.7,5.1,7.8,3,15c-1.8,6.1-7.3,10.9-16.3,14.4c-4,1.5-7.3,2.7-10.2,3.8
						c-12.2,4.5-14.8,5.4-15.3,9.7c-0.2,0.7,0,1.5,0.5,2c1,1,3.4,0.9,4.6,0.8c4.3-0.7,8,0.4,8.9,2.6c0.4,0.9,0.5,2.6-2.2,4.6
						s-5.8,1.1-8.5,0.3c-3-0.9-4.9-1.3-6.2,0.8c-0.6,0.8-0.8,1.8-0.6,2.7c0.5,2,3,3.5,5.3,4.9c0.8,0.5,1.6,1,2.4,1.5
						c5.5,4.2,6.1,8.1,5,10.1c-1,1.9-3.4,2.4-6.1,1.5c-2.5-0.9-4.5-3.6-6.6-6.5c-3.2-4.3-6.8-9.2-13-9.6c-0.6,0.1-1.1,0.5-1.4,1
						c-0.3,0.8,0.1,1.9,1.1,3.4l1,1.3c2.7,3.7,5.7,7.8,4.5,10.4c-0.6,1.2-1.9,1.9-4.1,2.1s-4.5-0.9-6.5-3.1c-4.6-5-7-14.7-6.1-20
						c1.4-8.1,4.2-13.7,14.6-18c3.9-1.6,11.1-7.7,13.6-16.9c2.3-8.2,0.2-17-5.9-25.3c-7.9-10.8-15.1-16.1-21.9-16.3
						c-5.4-0.2-10.7,3-16.3,9.6c-0.5,0.6-1.2,1.5-2,2.6c-6.4,8.5-21.5,28.3-41.6,30.7c-9.8,1.2-19.6-2-29-9.6
						c-28.8-23.3-21.4-43.7-14.9-61.7c1.8-4.6,3.3-9.4,4.4-14.2c1.7-9.5,0.4-17.3-3.9-23.2c-4.6-6.3-12.8-10.4-23.6-11.8
						c-6.9-0.9-13.7,2.2-19.2,8.8c-7.1,8.4-10.6,20.8-8.2,28.7c1.9,6.1,5.8,10.2,9,13.4c2.6,2.7,4.7,4.8,4.6,7.1
						c-0.1,1.5-0.9,2.8-2,3.7c-2,1.9-4,2.7-5.9,2.2c-4.3-1.1-6.5-8.2-7.2-10.5c-0.1-0.3-0.2-0.5-0.2-0.7c-0.9-3.3-2.9-10.1-15.2-7.5
						c-4.2,1-8.3,2.5-12.1,4.6c-5.1,2.6-8.8,4.4-13.3-0.3c-1.4-1.6-1.9-3-1.4-4.3c1.6-4.1,12.4-4.9,13.7-5c3-0.3,6.3-1.3,6.4-2.3
						c0-0.2-0.1-1.1-3.1-2.6c-4.6-2.3-9.2-1-13.3,0.1s-7.8,2.1-9.9-1.3c-1.6-2.6-1.1-4.5-0.3-5.7c2-2.9,7.5-4.2,13.6-3.1
						c3.9,0.7,6-0.1,6.4-1.3s-0.9-3-4.4-4.6l-3-1.3c-5.4-2.3-10.9-4.6-11.2-7.7c-0.1-1.4,0.9-2.8,3.1-4c3.2-1.9,7.9,0.9,13.2,4.2
						c6.6,4,14,8.5,19.5,4.4c7.7-5.8,6.2-13.8,4.6-22.2c-0.5-2.4-0.9-4.9-1.2-7.3c-1.1-10.7,7-19.7,19.3-21.5l2.4-0.3
						c5.8-0.8,10.9-1.4,13-4.7c1.6-2.4,1.4-6.4-0.4-12c-3-9.2-2.9-15.6,0.3-18.4c2.7-2.4,7.5-2,13.8,1.2c3.7,1.9,7,0.4,10.6-1.2
						s7-3.1,11-1.5c2.9,1.3,5.5,3.7,8.1,6c6.4,5.7,12.5,11.2,22,1.6s9.8-17,9.2-32.3c-0.4-8.7,3.4-12.3,6.6-13.8
						c7.6-3.6,20.9,0.9,31.6,10.7c11.1,10.1,36.9,13.8,46.4,3.7c4.5-4.8,8-12.2,5.7-16.7c-1.7-3.3-6.5-4.4-13.7-3.3
						c-0.3,0.1-0.6-0.1-0.7-0.4c-0.1-0.3,0-0.6,0.2-0.8c0.3-0.2,8.1-6.2,16.1-4.4C1326.8-67.1,1328.6-66.2,1330.2-64.9z"/>
					<path id="Fill-71" class="st5" d="M1228.5,131c5.2-6.4,11.4-10,13.8-8s0.2,8.8-5,15.2s-11.4,10-13.8,8S1223.3,137.4,1228.5,131
						"/>
					<path id="Fill-72" class="st5" d="M1208.6,114.9c5.2-6.4,11.4-10,13.8-8s0.2,8.8-5,15.2c-5.2,6.4-11.4,10-13.8,8
						S1203.4,121.3,1208.6,114.9"/>
					<path id="Fill-73" class="st5" d="M1244,123.4c1.5,1.2,1.7,3.8,0.5,7.1c-0.1,0.3-0.5,0.5-0.8,0.4s-0.5-0.5-0.4-0.8l0,0
						c1-2.8,0.9-4.9-0.1-5.7c-1.9-1.5-7.8,1.3-13.1,7.9s-6.9,12.9-5,14.4c0.8,0.6,2.2,0.6,4-0.2c0.3-0.1,0.7,0,0.8,0.3l0,0
						c0.1,0.3,0,0.7-0.3,0.8c-2.3,1-4.1,1-5.3,0.1c-2.8-2.3-0.7-9.4,4.8-16.2S1241.2,121.1,1244,123.4"/>
					<path id="Fill-74" class="st5" d="M1233.6,144.2L1233.6,144.2c0.3,0.4,0.2,0.7-0.1,0.9c-0.4,0.4-0.9,0.7-1.3,1.1
						c-0.2,0.2-0.5,0.2-0.7,0c0,0,0,0,0-0.1c-0.2-0.3-0.1-0.6,0.2-0.8c0.4-0.3,0.8-0.6,1.2-1
						C1233.1,144.1,1233.4,144.1,1233.6,144.2"/>
					<path id="Fill-75" class="st5" d="M1219,122.4c0.3,0.2,0.4,0.6,0.1,0.9c-0.3,0.4-0.7,0.8-1,1.2c-0.2,0.3-0.6,0.3-0.9,0l0,0
						c-0.3-0.2-0.3-0.6-0.1-0.9l0,0c0.3-0.4,0.7-0.8,1-1.2C1218.3,122.2,1218.8,122.1,1219,122.4"/>
					<path id="Fill-76" class="st5" d="M1224.1,107.3c1.8,1.4,1.7,4.7-0.2,8.9c-0.1,0.3-0.5,0.5-0.8,0.3c-0.3-0.1-0.5-0.5-0.3-0.9
						c1.6-3.6,1.8-6.4,0.6-7.4c-1.9-1.6-7.8,1.3-13.1,7.9s-6.9,12.9-5,14.5c1.3,1,4.2,0.1,7.4-2.3c0.3-0.2,0.7-0.1,0.9,0.2
						c0.1,0.2,0.1,0.6-0.1,0.8c-3.9,2.9-7.2,3.7-9,2.3c-2.8-2.3-0.7-9.4,4.8-16.3S1221.2,105,1224.1,107.3"/>
					<path id="Fill-77" class="st5" d="M1306.5,204.2c0.5,0.4,0.8,0.8,1.2,1.3c0.7,1,0.8,2.3,0.3,3.4c-0.3,0.8-0.9,1.4-1.7,1.7
						c-1.9,0.7-4.6-0.8-7.2-2.2c-1.1-0.7-2.3-1.2-3.5-1.7c-1.4-0.5-2.4-0.5-2.7-0.1s-0.1,1.9,0.2,2.5c0.1,0.3,0,0.7-0.3,0.8l0,0
						c-0.3,0.1-0.7,0-0.8-0.3c-0.1-0.3-1.1-2.6,0-3.8c0.7-0.8,2.1-0.9,4-0.3c1.3,0.5,2.5,1.1,3.7,1.8c2.2,1.2,4.8,2.6,6.1,2.1
						c0.4-0.2,0.8-0.5,0.9-1c0.3-0.8,0.3-1.6-0.2-2.3c-1.2-1.9-4.9-3-7.1-3.2s-3.8-1.1-4.2-2.4c-0.3-1,0.1-2.1,1-2.6
						c0.3-0.2,0.7-0.2,0.9,0.1l0,0c0.2,0.3,0.2,0.6,0,0.9l0,0c-0.5,0.4-0.7,0.9-0.6,1.3c0.2,0.7,1.4,1.4,3.1,1.6
						C1302,201.9,1304.4,202.8,1306.5,204.2"/>
					<path id="Fill-78" class="st5" d="M1263.8,106.5c0.2,0.2,0.3,0.5,0.2,0.7c-1.2,2.9,1.4,5.4,1.4,5.4c0.2,0.2,0.2,0.6,0,0.9
						c-0.3,0.2-0.6,0.2-0.9,0c-0.1-0.1-3.3-3.2-1.7-6.8c0.1-0.3,0.5-0.4,0.8-0.3l0,0L1263.8,106.5"/>
					<path id="Fill-79" class="st13" d="M1231.5,89.4l1.3,0.9c0.7-1.2,11.5-17.6,19-12.8c-0.3-0.3-0.6-0.6-1-0.8
						C1243,71.2,1231.5,89.4,1231.5,89.4"/>
					<path id="Fill-80" class="st13" d="M1246.4,94.2c0,0,5.2-2.7,7.7,0.7l-0.3-2.1l-3.1-1.7L1246.4,94.2"/>
					<path id="Fill-81" class="st5" d="M1228,77.5l0.1,0.2c0.2,0.3,0.1,0.7-0.2,0.9c-2.2,1.3-5,1.2-7.1-0.4c-0.3-0.2-0.3-0.6,0-0.9
						c0.2-0.2,0.5-0.3,0.8-0.1c1.6,1.3,3.9,1.4,5.7,0.3C1227.5,77.3,1227.8,77.3,1228,77.5"/>
					<path id="Fill-82" class="st5" d="M1251.4,76.3c1.4,1.1,2.2,2.7,2.4,4.4c0.3,3.7-2.3,7.9-4.4,10.6c1.2-0.4,2.5-0.2,3.5,0.6
						c1.1,0.8,1.8,2.1,1.8,3.4c0.2,3.9-4.1,8-4.3,8.2c-0.3,0.2-0.7,0.2-0.9,0s-0.2-0.7,0-0.9c0,0,4.1-4,3.9-7.2
						c-0.1-1-0.6-1.9-1.3-2.5c-2-1.6-5.2,1.3-5.2,1.3c-0.3,0.2-0.7,0.2-0.9,0s-0.2-0.7,0-0.9l0,0c0.1-0.1,7-7.1,6.5-12.4
						c-0.1-1.5-1-2.9-2.3-3.8c-1.1-0.8-2.5-1.1-3.8-0.8c-6.7,1.2-14.6,13.4-14.6,13.5c-0.2,0.3-0.6,0.4-0.9,0.2s-0.4-0.6-0.2-0.9
						c0.3-0.5,8.2-12.8,15.4-14.1c1.7-0.4,3.4,0,4.8,1L1251.4,76.3"/>
					<path id="Fill-83" class="st5" d="M1218.9,78.4c0.1,0.1,0.2,0.3,0.2,0.4c0.1,0.8,0.7,1.5,1.4,1.7c0.3,0.1,0.6,0.4,0.5,0.7l0,0
						c-0.1,0.4-0.4,0.6-0.8,0.5c-1.3-0.3-2.3-1.5-2.5-2.8c0-0.4,0.2-0.7,0.6-0.8C1218.6,78.2,1218.8,78.3,1218.9,78.4"/>
					<path id="Fill-87" class="st12" d="M1237.7,102.7c0,0-13.5-5.7-15.9-16.5C1221.8,86.2,1221.8,99.9,1237.7,102.7"/>
					<path id="Fill-88" class="st5" d="M1239.9,96.5c-4.5-3.6-8.6-7.6-12.3-12c3.4,8.5,14.2,15.3,23.2,19.7
						C1247.1,101.9,1243.4,99.3,1239.9,96.5z M1264.5,109.8l-0.5,1.2c-6.2-2.1-12.2-4.7-18-7.8c-12.3-6.7-19.2-13.9-20.4-21.5
						l-0.5-2.9l1.6,2.4C1226.8,81.4,1239.1,99,1264.5,109.8L1264.5,109.8z"/>
					<path id="Fill-89" class="st5" d="M1263.8,110.1c0,0-34.9-11.2-38-28.8C1225.8,81.3,1238.1,99,1263.8,110.1"/>
					<path id="Fill-90" class="st14" d="M1262.5,139.3c-2,3.1-4.2,6-6.7,8.7c-2.5,2.9-5.1,5.6-7.9,8.1c-1.5,1.4-3.2,2.8-4.9,4.1
						c-1.8,1.4-3.6,2.6-5.5,3.8c-1.9,1.1-4,2.1-6.1,2.9c-2.1,0.8-4.3,1.2-6.5,1.4c-3.9,0.2-7.8-0.7-11.3-2.5
						c-2.4-1.2-4.6-2.8-6.6-4.7c-0.7-0.7-1.4-1.4-2.1-2.2c0.8,0.7,1.6,1.3,2.4,1.8c2.1,1.5,4.4,2.8,6.8,3.7c1.6,0.6,3.2,1.1,4.9,1.4
						c3.8,0.7,7.8,0.3,11.4-1.2c2-0.8,3.9-1.7,5.7-2.8c1.8-1.1,3.6-2.3,5.3-3.5c1.7-1.3,3.4-2.5,4.9-3.9c3.1-2.6,5.9-5.2,8.3-7.4
						C1259.5,142.5,1262.5,139.3,1262.5,139.3"/>
					<path id="Fill-91" class="st14" d="M1333.5,124.5l0.7-0.5c0.5-0.3,1.1-0.7,1.9-1.2s1.7-1.1,2.6-1.8c0.5-0.3,0.9-0.7,1.4-1.1
						s0.9-0.8,1.4-1.2s0.9-0.8,1.3-1.2s0.9-0.8,1.2-1.2c0.4-0.4,0.7-0.8,1.1-1.2c0.3-0.4,0.7-0.8,0.9-1.2s0.5-0.7,0.7-1
						s0.4-0.6,0.5-0.8c0.3-0.5,0.4-0.7,0.4-0.7s-0.1,0.3-0.2,0.8l-0.3,1c-0.1,0.4-0.3,0.8-0.5,1.2c-0.2,0.5-0.5,0.9-0.7,1.4
						c-0.3,0.5-0.6,1-1,1.4c-0.4,0.5-0.8,1-1.2,1.4c-0.4,0.5-0.9,0.9-1.4,1.3c-0.9,0.8-1.9,1.5-3,2.2c-0.9,0.6-1.9,1.1-2.9,1.5
						C1335.6,124,1334.6,124.3,1333.5,124.5"/>
					<path id="Fill-92" class="st14" d="M1336.2,33.3l0.5-0.7c0.3-0.4,0.7-1.1,1.2-1.9s1-1.7,1.6-2.7c0.3-0.5,0.5-1,0.8-1.5
						s0.6-1.1,0.8-1.6s0.5-1.1,0.7-1.6s0.4-1.1,0.6-1.6s0.4-1,0.5-1.5s0.3-1,0.4-1.4s0.2-0.9,0.3-1.2s0.1-0.7,0.1-1
						c0.1-0.5,0.1-0.9,0.1-0.9s0.1,0.3,0.1,0.9c0,0.3,0.1,0.6,0.1,1s0,0.8,0,1.3s-0.1,1-0.2,1.5c-0.1,0.6-0.2,1.1-0.3,1.7
						c-0.1,0.6-0.3,1.2-0.5,1.8c-0.2,0.6-0.5,1.2-0.7,1.7c-0.5,1.1-1.1,2.2-1.8,3.2c-0.6,0.9-1.3,1.7-2,2.5
						C1337.8,32,1337.1,32.7,1336.2,33.3"/>
					<path id="Fill-93" class="st14" d="M1324.8,186.1l1.2-0.4c0.8-0.2,1.8-0.6,3.1-1.1c0.7-0.2,1.3-0.5,2.1-0.8s1.5-0.6,2.3-1
						s1.6-0.7,2.4-1.1s1.6-0.8,2.4-1.3s1.6-0.9,2.3-1.4s1.5-1,2.2-1.4s1.4-1,2-1.4s1.2-0.9,1.7-1.4l1.5-1.2l1.1-1
						c0.6-0.6,0.9-0.9,0.9-0.9s-0.3,0.4-0.8,1l-0.9,1.1c-0.4,0.4-0.8,0.9-1.3,1.4l-0.8,0.8l-0.9,0.8c-0.6,0.6-1.3,1.1-2,1.6
						s-1.4,1.1-2.2,1.6s-1.6,1-2.4,1.4s-1.7,0.9-2.5,1.3s-1.7,0.7-2.5,1.1c-1.5,0.6-3,1-4.6,1.4c-1.3,0.4-2.5,0.5-3.3,0.6
						S1324.8,186.1,1324.8,186.1"/>
					<path id="Fill-94" class="st14" d="M1278,82.3c0,0,0.4,0.1,1.1,0.3c0.4,0.1,0.8,0.1,1.3,0.2s1.1,0.1,1.7,0.2s1.3,0.1,2,0.1
						s1.4-0.1,2.2-0.1c0.8-0.1,1.5-0.2,2.3-0.4c0.4-0.1,0.8-0.2,1.2-0.3l1.1-0.4c0.4-0.1,0.8-0.3,1.1-0.5l1.1-0.6
						c0.7-0.4,1.3-0.9,2-1.3s1.1-1,1.7-1.4s0.9-1,1.4-1.4c0.4-0.4,0.8-0.8,1.1-1.3l0.8-1c0.4-0.6,0.7-0.9,0.7-0.9s-0.2,0.4-0.5,1
						l-0.6,1.2c-0.3,0.5-0.6,1-1,1.5c-0.4,0.6-0.8,1.1-1.3,1.6s-1,1.1-1.7,1.6s-1.3,1-2,1.5l-1.1,0.6c-0.4,0.2-0.8,0.4-1.2,0.6
						l-1.2,0.4c-0.4,0.1-0.8,0.2-1.3,0.3c-0.8,0.2-1.6,0.3-2.5,0.4c-0.8,0.1-1.6,0.1-2.3,0c-0.7,0-1.4-0.1-2.1-0.3
						c-0.6-0.1-1.1-0.3-1.7-0.4c-0.5-0.2-0.9-0.3-1.3-0.4C1278.7,82.7,1278.4,82.5,1278,82.3"/>
					<path id="Fill-95" class="st14" d="M1287.7,92.9c0.8,0.1,1.6,0.1,2.4,0.1s1.6-0.1,2.3-0.2c0.9-0.1,1.7-0.4,2.6-0.7
						c0.4-0.1,0.8-0.3,1.2-0.5s0.8-0.4,1.2-0.6l1.1-0.7c0.3-0.2,0.6-0.4,0.9-0.6c0.6-0.4,1-0.8,1.4-1l0.5-0.4c0,0-0.1,0.2-0.3,0.6
						c-0.3,0.5-0.7,1-1.1,1.4c-0.3,0.3-0.5,0.6-0.8,0.9s-0.7,0.6-1,0.8s-0.8,0.5-1.2,0.8s-0.9,0.4-1.4,0.6s-1,0.3-1.4,0.4
						c-0.5,0.1-0.9,0.2-1.4,0.2c-0.4,0-0.9,0-1.3,0s-0.8-0.1-1.2-0.2C1289.3,93.7,1288.5,93.4,1287.7,92.9"/>
					<path id="Fill-98" class="st14" d="M1332.1,72.1l1.4-1.2c0.8-0.7,1.9-1.6,2.9-2.6c0.2-0.2,0.5-0.5,0.8-0.7s0.5-0.5,0.7-0.7
						s0.4-0.5,0.6-0.7s0.4-0.4,0.6-0.7c0.3-0.4,0.6-0.8,0.8-1.1l0.3-0.4c0,0,0,0.2-0.1,0.5c-0.1,0.4-0.3,0.9-0.4,1.3
						c-0.1,0.3-0.3,0.6-0.4,0.8c-0.2,0.3-0.3,0.6-0.6,0.9c-0.4,0.6-0.9,1.2-1.5,1.7c-0.5,0.5-1.1,1-1.7,1.4c-0.5,0.4-1.1,0.7-1.6,1
						C1333.2,71.8,1332.7,72,1332.1,72.1"/>
				</g>
			</g>
		</g>
		<g id="WeHo-Logo">
			<g id="Logo---City-of-West-Hollywood">
				<g id="Group-75">
					<g id="Fill-37-Clipped">
						<g>
							<polygon id="Fill-37" class="st15" points="401,670.6 390.5,683.3 403.2,693.8 413.7,681 							"/>
						</g>
					</g>
					<g id="Fill-38-Clipped">
						<g>
							<polygon id="Fill-38-2" class="st15" points="385.3,657.5 374.8,670.2 387.5,680.7 398,668 							"/>
						</g>
					</g>
					<g id="Fill-39-Clipped">
						<g>
							<polygon id="Fill-39-2" class="st15" points="372.4,673.1 361.9,685.8 374.6,696.3 385.1,683.6 							"/>
						</g>
					</g>
					<g id="Fill-40-Clipped">
						<g>
							<polygon id="Fill-40-2" class="st15" points="387.8,685.8 377.3,698.6 390,709 400.5,696.3 							"/>
						</g>
					</g>
					<g id="Fill-41-Clipped">
						<g>
							<polygon id="Fill-41-2" class="st15" points="405.8,727.2 395.3,739.9 408,750.4 418.5,737.7 							"/>
						</g>
					</g>
					<g id="Fill-42-Clipped">
						<g>
							<polygon id="Fill-42-2" class="st15" points="390.3,714.3 379.8,727 392.5,737.5 403,724.8 							"/>
						</g>
					</g>
					<g id="Fill-43-Clipped">
						<g>
							<polygon id="Fill-43-2" class="st15" points="393.2,743 382.7,755.7 395.4,766.2 405.9,753.5 							"/>
						</g>
					</g>
					<g id="Fill-44-Clipped">
						<g>
							<polygon id="Fill-44-2" class="st15" points="374.9,701.5 364.4,714.2 377.1,724.7 387.6,712 							"/>
						</g>
					</g>
					<g id="Fill-45-Clipped">
						<g>
							<polygon id="Fill-45-2" class="st15" points="359.5,688.7 349,701.4 361.7,711.9 372.2,699.2 							"/>
						</g>
					</g>
					<g id="Fill-46-Clipped">
						<g>
							<polygon id="Fill-46-2" class="st15" points="367.1,773.9 356.6,786.6 369.3,797.1 379.8,784.4 							"/>
						</g>
					</g>
					<g id="Fill-47-Clipped">
						<g>
							<polygon id="Fill-47-2" class="st15" points="354.3,789.7 343.8,802.4 356.5,812.8 367,800.1 							"/>
						</g>
					</g>
					<g id="Fill-48-Clipped">
						<g>
							<polygon id="Fill-48-2" class="st15" points="339.1,777 328.6,789.7 341.3,800.2 351.8,787.5 							"/>
						</g>
					</g>
					<g id="Fill-49-Clipped">
						<g>
							<polygon id="Fill-49-2" class="st15" points="326.4,792.5 315.9,805.2 328.6,815.7 339.1,803 							"/>
						</g>
					</g>
					<g id="Fill-50-Clipped">
						<g>
							<polygon id="Fill-50-2" class="st15" points="341.5,804.9 331,817.6 343.7,828.1 354.2,815.4 							"/>
						</g>
					</g>
					<g id="Fill-51-Clipped">
						<g>
							<polygon id="Fill-51-2" class="st15" points="329,820.8 318.5,833.5 331.2,844 341.7,831.3 							"/>
						</g>
					</g>
					<g id="Fill-52-Clipped">
						<g>
							<polygon id="Fill-52-2" class="st15" points="316,836.5 305.5,849.2 318.2,859.6 328.7,846.9 							"/>
						</g>
					</g>
					<g id="Fill-54-Clipped">
						<g>
							<polygon id="Fill-54-2" class="st15" points="411.4,784 400.9,796.8 413.6,807.2 424.1,794.5 							"/>
						</g>
					</g>
					<g id="Fill-55-Clipped">
						<g>
							<polygon id="Fill-55-2" class="st15" points="370.1,802.7 359.6,815.4 372.3,825.9 382.8,813.2 							"/>
						</g>
					</g>
					<g id="Fill-56-Clipped">
						<g>
							<polygon id="Fill-56-2" class="st15" points="357.2,818.3 346.8,831 359.5,841.5 369.9,828.8 							"/>
						</g>
					</g>
					<g id="Fill-57-Clipped">
						<g>
							<polygon id="Fill-57-2" class="st15" points="398.6,799.6 388.1,812.3 400.8,822.8 411.3,810.1 							"/>
						</g>
					</g>
					<g id="Fill-58-Clipped">
						<g>
							<polygon id="Fill-58-2" class="st15" points="344.5,833.7 334,846.4 346.7,856.9 357.2,844.2 							"/>
						</g>
					</g>
					<g id="Fill-59-Clipped">
						<g>
							<polygon id="Fill-59-2" class="st15" points="331.6,849.3 321.1,862 333.9,872.5 344.3,859.8 							"/>
						</g>
					</g>
					<g id="Fill-61-Clipped">
						<g>
							<polygon id="Fill-61-2" class="st15" points="369.5,644.6 359.1,657.3 371.8,667.8 382.2,655.1 							"/>
						</g>
					</g>
					<g id="Fill-62-Clipped">
						<g>
							<polygon id="Fill-62-2" class="st15" points="356.7,660.2 346.2,672.9 359,683.4 369.4,670.7 							"/>
						</g>
					</g>
					<g id="Fill-63-Clipped">
						<g>
							<polygon id="Fill-63" class="st15" points="344,675.6 333.5,688.3 346.2,698.8 356.7,686.1 							"/>
						</g>
					</g>
					<g id="Fill-64-Clipped">
						<g>
							<polygon id="Fill-64-2" class="st15" points="346.7,704.1 336.3,716.8 349,727.3 359.5,714.6 							"/>
						</g>
					</g>
					<g id="Fill-65-Clipped">
						<g>
							<polygon id="Fill-65" class="st15" points="408.9,755.7 398.4,768.4 411.1,778.9 421.6,766.2 							"/>
						</g>
					</g>
					<g id="Fill-66-Clipped">
						<g>
							<polygon id="Fill-66-2" class="st15" points="364.8,745.9 354.3,758.6 367,769 377.5,756.3 							"/>
						</g>
					</g>
					<g id="Fill-67-Clipped">
						<g>
							<polygon id="Fill-67-2" class="st15" points="380.2,758.6 369.8,771.3 382.5,781.8 393,769.1 							"/>
						</g>
					</g>
					<g id="Fill-68-Clipped">
						<g>
							<polygon id="Fill-68-2" class="st15" points="395.9,771.5 385.4,784.2 398.1,794.7 408.6,782 							"/>
						</g>
					</g>
					<g id="Fill-69-Clipped">
						<g>
							<polygon id="Fill-69-2" class="st15" points="383,787.1 372.5,799.8 385.2,810.3 395.7,797.6 							"/>
						</g>
					</g>
					<g id="Fill-70-Clipped">
						<g>
							<polygon id="Fill-70-2" class="st15" points="444.3,680.5 433.8,693.2 446.5,703.7 457,691 							"/>
						</g>
					</g>
					<g id="Fill-71-Clipped">
						<g>
							<polygon id="Fill-71-2" class="st15" points="431.5,695.9 421.1,708.6 433.8,719.1 444.3,706.4 							"/>
						</g>
					</g>
					<g id="Fill-72-Clipped">
						<g>
							<polygon id="Fill-72-2" class="st15" points="416,683 405.5,695.7 418.2,706.2 428.7,693.5 							"/>
						</g>
					</g>
					<g id="Fill-73-Clipped">
						<g>
							<polygon id="Fill-73-2" class="st15" points="403.1,698.6 392.6,711.3 405.4,721.8 415.8,709.1 							"/>
						</g>
					</g>
					<g id="Fill-74-Clipped">
						<polygon id="Fill-74-2" class="st15" points="418.9,711.7 408.4,724.4 421.1,734.8 431.6,722.1 						"/>
					</g>
				</g>
			</g>
		</g>
		<g id="WeHo-Logo_1_">
			<g id="Logo---City-of-West-Hollywood_1_">
				<g id="Group-75_1_">
					<g id="Fill-37-Clipped_1_">
						<g>
							<polygon id="Fill-37_1_" class="st16" points="1423.1,145.5 1426.9,129.5 1410.9,125.6 1407.1,141.7 							"/>
						</g>
					</g>
					<g id="Fill-38-Clipped_1_">
						<g>
							<polygon id="Fill-38-2_1_" class="st16" points="1442.9,150.4 1446.8,134.3 1430.8,130.5 1426.9,146.5 							"/>
						</g>
					</g>
					<g id="Fill-39-Clipped_1_">
						<g>
							<polygon id="Fill-39-2_1_" class="st16" points="1447.7,130.7 1451.5,114.7 1435.5,110.8 1431.7,126.8 							"/>
						</g>
					</g>
					<g id="Fill-40-Clipped_1_">
						<g>
							<polygon id="Fill-40-2_1_" class="st16" points="1428.3,126 1432.1,109.9 1416.1,106.2 1412.2,122.2 							"/>
						</g>
					</g>
					<g id="Fill-41-Clipped_1_">
						<g>
							<polygon id="Fill-41-2_1_" class="st16" points="1393.9,96.7 1397.8,80.7 1381.8,76.9 1377.9,92.9 							"/>
						</g>
					</g>
					<g id="Fill-42-Clipped_1_">
						<g>
							<polygon id="Fill-42-2_1_" class="st16" points="1413.5,101.5 1417.4,85.5 1401.3,81.6 1397.5,97.7 							"/>
						</g>
					</g>
					<g id="Fill-43-Clipped_1_">
						<g>
							<polygon id="Fill-43-2_1_" class="st16" points="1398.3,77 1402.2,61 1386.1,57.1 1382.3,73.2 							"/>
						</g>
					</g>
					<g id="Fill-44-Clipped_1_">
						<g>
							<polygon id="Fill-44-2_1_" class="st16" points="1433,106.3 1436.8,90.2 1420.8,86.4 1416.9,102.4 							"/>
						</g>
					</g>
					<g id="Fill-45-Clipped_1_">
						<g>
							<polygon id="Fill-45-2_1_" class="st16" points="1452.4,111 1456.3,95 1440.3,91.1 1436.4,107.1 							"/>
						</g>
					</g>
					<g id="Fill-46-Clipped_1_">
						<g>
							<polygon id="Fill-46-2_1_" class="st16" points="1408.2,37.8 1412.1,21.8 1396,17.9 1392.2,33.9 							"/>
						</g>
					</g>
					<g id="Fill-47-Clipped_1_">
						<g>
							<polygon id="Fill-47-2_1_" class="st16" points="1412.8,18 1416.6,2 1400.6,-1.8 1396.8,14.2 							"/>
						</g>
					</g>
					<g id="Fill-48-Clipped_1_">
						<g>
							<polygon id="Fill-48-2_1_" class="st16" points="1432,22.7 1435.8,6.7 1419.8,2.8 1416,18.9 							"/>
						</g>
					</g>
					<g id="Fill-49-Clipped_1_">
						<g>
							<polygon id="Fill-49-2_1_" class="st16" points="1436.6,3.2 1440.5,-12.8 1424.4,-16.7 1420.6,-0.6 							"/>
						</g>
					</g>
					<g id="Fill-50-Clipped_1_">
						<g>
							<polygon id="Fill-50-2_1_" class="st16" points="1417.6,-1.3 1421.4,-17.3 1405.4,-21.2 1401.6,-5.2 							"/>
						</g>
					</g>
					<g id="Fill-51-Clipped_1_">
						<g>
							<polygon id="Fill-51-2_1_" class="st16" points="1421.8,-21.1 1425.7,-37.1 1409.7,-41 1405.8,-24.9 							"/>
						</g>
					</g>
					<g id="Fill-52-Clipped_1_">
						<g>
							<polygon id="Fill-52-2_1_" class="st16" points="1426.6,-40.9 1430.5,-56.9 1414.5,-60.7 1410.6,-44.7 							"/>
						</g>
					</g>
					<g id="Fill-54-Clipped_1_">
						<g>
							<polygon id="Fill-54-2_1_" class="st16" points="1364,48.2 1367.8,32.1 1351.8,28.3 1347.9,44.3 							"/>
						</g>
					</g>
					<g id="Fill-55-Clipped_1_">
						<g>
							<polygon id="Fill-55-2_1_" class="st16" points="1392.9,13.2 1396.7,-2.8 1380.7,-6.6 1376.8,9.4 							"/>
						</g>
					</g>
					<g id="Fill-56-Clipped_1_">
						<g>
							<polygon id="Fill-56-2_1_" class="st16" points="1397.6,-6.4 1401.4,-22.4 1385.3,-26.3 1381.6,-10.3 							"/>
						</g>
					</g>
					<g id="Fill-57-Clipped_1_">
						<g>
							<polygon id="Fill-57-2_1_" class="st16" points="1368.6,28.5 1372.5,12.5 1356.4,8.6 1352.6,24.7 							"/>
						</g>
					</g>
					<g id="Fill-58-Clipped_1_">
						<g>
							<polygon id="Fill-58-2_1_" class="st16" points="1402.2,-25.9 1406.1,-41.9 1390.1,-45.7 1386.2,-29.7 							"/>
						</g>
					</g>
					<g id="Fill-59-Clipped_1_">
						<g>
							<polygon id="Fill-59-2_1_" class="st16" points="1407,-45.5 1410.8,-61.6 1394.7,-65.4 1391,-49.4 							"/>
						</g>
					</g>
					<g id="Fill-61-Clipped_1_">
						<g>
							<polygon id="Fill-61-2_1_" class="st16" points="1462.8,155 1466.6,139 1450.5,135.2 1446.8,151.2 							"/>
						</g>
					</g>
					<g id="Fill-62-Clipped_1_">
						<g>
							<polygon id="Fill-62-2_1_" class="st16" points="1467.4,135.4 1471.3,119.4 1455.2,115.6 1451.4,131.5 							"/>
						</g>
					</g>
					<g id="Fill-63-Clipped_1_">
						<g>
							<polygon id="Fill-63_1_" class="st16" points="1472.1,116 1476,100 1459.9,96.1 1456.1,112.1 							"/>
						</g>
					</g>
					<g id="Fill-64-Clipped_1_">
						<g>
							<polygon id="Fill-64-2_1_" class="st16" points="1457.2,91.6 1460.9,75.6 1444.9,71.7 1441.1,87.7 							"/>
						</g>
					</g>
					<g id="Fill-65-Clipped_1_">
						<g>
							<polygon id="Fill-65_1_" class="st16" points="1378.6,72.5 1382.5,56.5 1366.5,52.6 1362.6,68.6 							"/>
						</g>
					</g>
					<g id="Fill-66-Clipped_1_">
						<g>
							<polygon id="Fill-66-2_1_" class="st16" points="1422.5,61.9 1426.4,45.9 1410.4,42.2 1406.6,58.2 							"/>
						</g>
					</g>
					<g id="Fill-67-Clipped_1_">
						<g>
							<polygon id="Fill-67-2_1_" class="st16" points="1403.1,57.3 1406.9,41.3 1390.9,37.5 1387,53.5 							"/>
						</g>
					</g>
					<g id="Fill-68-Clipped_1_">
						<g>
							<polygon id="Fill-68-2_1_" class="st16" points="1383.4,52.6 1387.2,36.6 1371.2,32.7 1367.3,48.7 							"/>
						</g>
					</g>
					<g id="Fill-69-Clipped_1_">
						<g>
							<polygon id="Fill-69-2_1_" class="st16" points="1388.1,32.9 1392,16.9 1375.9,13 1372.1,29.1 							"/>
						</g>
					</g>
					<g id="Fill-70-Clipped_1_">
						<g>
							<polygon id="Fill-70-2_1_" class="st16" points="1379.8,155.6 1383.7,139.6 1367.7,135.7 1363.8,151.7 							"/>
						</g>
					</g>
					<g id="Fill-71-Clipped_1_">
						<g>
							<polygon id="Fill-71-2_1_" class="st16" points="1384.6,136.1 1388.3,120.2 1372.3,116.3 1368.5,132.3 							"/>
						</g>
					</g>
					<g id="Fill-72-Clipped_1_">
						<g>
							<polygon id="Fill-72-2_1_" class="st16" points="1404.2,140.9 1408,124.9 1392,121.1 1388.1,137.1 							"/>
						</g>
					</g>
					<g id="Fill-73-Clipped_1_">
						<g>
							<polygon id="Fill-73-2_1_" class="st16" points="1408.9,121.3 1412.8,105.2 1396.6,101.4 1392.9,117.4 							"/>
						</g>
					</g>
					<g id="Fill-74-Clipped_1_">
						<polygon id="Fill-74-2_1_" class="st16" points="1389,116.4 1392.8,100.4 1376.8,96.6 1373,112.6 						"/>
					</g>
				</g>
			</g>
		</g>
	</g>
</g>
</svg>
