<svg id="Layer_1" data-name="Layer 1" xmlns="http://www.w3.org/2000/svg" xmlns:xlink="http://www.w3.org/1999/xlink" viewBox="0 0 960 860"><defs><style>.cls-1{fill:#fff;}.cls-2{fill:none;}.cls-3{fill:#ee509a;stroke:#000;stroke-miterlimit:10;}.cls-4{fill:#fffffe;}.cls-5{fill:#f3e8e2;}.cls-6{fill:#3d1717;}.cls-7{fill:#f5cac0;}.cls-8{fill:#ec98a0;}.cls-9{mask:url(#mask);}.cls-10,.cls-12{fill:#f8e71c;}.cls-11{clip-path:url(#clip-path);}.cls-12{font-size:24px;font-family:GoboldItalic-Italic, Gobold Italic;font-style:italic;}.cls-13{letter-spacing:-0.02em;}.cls-14{letter-spacing:-0.04em;}</style><mask id="mask" x="647.79" y="207.42" width="420.82" height="417.93" maskUnits="userSpaceOnUse"><g id="mask-2"><polygon id="path-1" class="cls-1" points="885.47 207.42 647.79 404.72 830.94 625.35 1068.62 428.04 885.47 207.42"/></g></mask><clipPath id="clip-path"><rect class="cls-2" x="10.68" y="24.19" width="960" height="820"/></clipPath></defs><title>events</title><rect class="cls-3" x="-9.09" y="-26.38" width="973.13" height="895.2"/><g id="white-raven"><path id="Fill-5" class="cls-4" d="M65.4,284.23s-19-50.05,4.22-105.92c9.39-22.57,19.65-30.9,29.13-31.2,0,0,14.9-23.68,36.36-5.42,6.27,5.33,7.57,11.17,6.58,16.87h0l.1.78,6.79,3.84C157.58,168.27,159,176,159,176c-6.2-5.77-14.34-8.92-19.42-10.45l-.57,1.08h0l-.46,1c9.89,9.32,13.56,18.52,13.56,18.52L135.22,173l-4.72,5.28,0,.08C139.7,202.83,99.42,308,85.66,287.87a28.43,28.43,0,0,1-3.86-10.5L71.58,307.42C64.2,330,63.65,312,65.4,284.22h0"/><path id="Fill-6" class="cls-5" d="M87.91,196.71s-5.78,28.08-7.15,52.53-5.72-15.4-.84-33.34,8-19.19,8-19.19"/><path id="Fill-7" class="cls-5" d="M73.3,200.46l-8,84.87s-2.88-86.08,8-84.87"/><path id="Fill-8" class="cls-5" d="M80.48,256.11l.23,12.55.42,3.29s6.94,8,27.39-45.74,0-76.14,0-76.14l3.75,1.9,6.16,5.76,5.44,7.44-.41-.8c14.09-6.89,10.52-23.59,10.51-23.61l1.14.93c6.27,5.33,7.57,11.17,6.58,16.87h0l.1.78,2.22,1.25c6.57,4.54,14.85,15,14.87,15a3.24,3.24,0,0,1,.09.4c-6.2-5.77-14.34-8.92-19.42-10.45l-.57,1.08h0l-.46,1a64.39,64.39,0,0,1,10.42,12.65c-8.36-7.35-19.44-16.64.4,3.72L135.22,173l-4.72,5.28s0,0,0,.05a0,0,0,0,0,0,0C139.7,202.83,99.42,308,85.66,287.87a28.43,28.43,0,0,1-3.86-10.5L71.58,307.42c-4.71,14.44-6.64,12.29-7,1.64,3.82,11.95,15.86-52.95,15.86-52.95"/><path id="Fill-9" class="cls-5" d="M123,155a4.15,4.15,0,0,0,4.25-4,3.87,3.87,0,0,0-.8-2.34,4,4,0,0,1,1.78,3.28,4.15,4.15,0,0,1-4.25,4,4.34,4.34,0,0,1-3.46-1.69A4.43,4.43,0,0,0,123,155"/><path id="Fill-10" class="cls-6" d="M89.79,290.94a6.28,6.28,0,0,0,2.68-.66c6-2.8,17.15-17.84,28.73-51,7.29-20.86,14.24-49.38,9.84-61.14-5.63-15-17.87-31.33-31.47-31.55h-.3c-11.3,0-21.44,10.6-30.16,31.54C46.05,233.53,64.7,283.9,64.89,284.4a.55.55,0,0,0,.69.31.5.5,0,0,0,.33-.66c-.19-.5-18.69-50.52,4.21-105.55,8.42-20.21,18.5-30.89,29.17-30.89h.26c13.08.21,25,16.15,30.46,30.87,3.55,9.47-.32,33.21-9.84,60.46-9.3,26.63-20.62,46.89-28.18,50.41-2.38,1.11-4.3.53-5.87-1.77-5.22-7.66-6.5-24.79-3.78-50.93a.52.52,0,0,0-.49-.56.54.54,0,0,0-.59.46c-2.74,26.37-1.41,43.73,3.95,51.59a5.52,5.52,0,0,0,4.58,2.79"/><path id="Fill-11" class="cls-6" d="M82.52,230.74a.53.53,0,0,0,.54-.46c.14-1.16.29-2.32.44-3.46a.52.52,0,0,0-.47-.58.56.56,0,0,0-.61.45c-.15,1.15-.29,2.31-.44,3.47a.53.53,0,0,0,.48.58h.06"/><path id="Fill-12" class="cls-6" d="M83.77,221.42a.54.54,0,0,0,.54-.45c.25-1.7.5-3.37.76-5a.52.52,0,0,0-.46-.58.55.55,0,0,0-.62.43c-.25,1.63-.51,3.3-.75,5a.51.51,0,0,0,.46.58h.07"/><path id="Fill-13" class="cls-6" d="M85.82,208.6a.53.53,0,0,0,.53-.43l.3-1.73a.53.53,0,0,0-.44-.6.56.56,0,0,0-.63.43l-.3,1.73a.52.52,0,0,0,.45.6h.09"/><path id="Fill-14" class="cls-6" d="M87,202.13a.54.54,0,0,0,.53-.42c.43-2.34.84-4.44,1.2-6.23a.52.52,0,0,0-.44-.6.54.54,0,0,0-.63.41c-.36,1.8-.76,3.89-1.2,6.24a.53.53,0,0,0,.44.6H87"/><path id="Fill-15" class="cls-6" d="M89.05,191.63a.55.55,0,0,0,.53-.41c.34-1.65.55-2.56.55-2.56a.52.52,0,0,0-.42-.61.56.56,0,0,0-.65.4s-.2.91-.55,2.57a.51.51,0,0,0,.43.6h.11"/><path id="Fill-16" class="cls-6" d="M66.52,318.17c1.13,0,2.64-1.6,5.58-10.59l10.22-30.06a.52.52,0,0,0-.35-.65.57.57,0,0,0-.69.33L71.07,307.27c-3.26,10-4.54,9.87-4.58,9.87-.8-.16-4.33-5.25,4.54-90.85a.52.52,0,0,0-.49-.56.55.55,0,0,0-.59.46c-9.42,90.86-5.1,91.68-3.68,92l.25,0"/><path id="Fill-17" class="cls-6" d="M71.43,217.83a.53.53,0,0,0,.54-.46c.21-2,.42-3.85.61-5.61a.53.53,0,0,0-.48-.57.54.54,0,0,0-.6.46c-.19,1.76-.4,3.64-.61,5.61a.52.52,0,0,0,.49.56h.05"/><path id="Fill-18" class="cls-6" d="M72.72,206.05a.53.53,0,0,0,.54-.46c.7-6.31,1.15-10.15,1.15-10.15a.52.52,0,0,0-.47-.57.53.53,0,0,0-.6.46s-.46,3.84-1.16,10.15a.52.52,0,0,0,.48.57h.06"/><path id="Fill-19" class="cls-6" d="M130.53,178.83a.57.57,0,0,0,.38-.15,42.82,42.82,0,0,0,4.76-5.43.5.5,0,0,0-.14-.72.55.55,0,0,0-.75.13,43.19,43.19,0,0,1-4.63,5.29.48.48,0,0,0,0,.72.53.53,0,0,0,.39.16"/><path id="Fill-20" class="cls-6" d="M138.47,168.13a.56.56,0,0,0,.48-.27l.08-.17a18.26,18.26,0,0,0,1-1.93.51.51,0,0,0-.3-.67.56.56,0,0,0-.71.28,15.94,15.94,0,0,1-.91,1.85l-.09.16a.51.51,0,0,0,.24.7.53.53,0,0,0,.25,0"/><path id="Fill-21" class="cls-6" d="M141.57,159.73a.54.54,0,0,0,.53-.42c1.45-7.08-.71-13-6.63-18-6.42-5.47-12.92-7.77-19.32-6.85-11,1.58-17.59,11.95-17.86,12.39a.49.49,0,0,0,.19.7.56.56,0,0,0,.74-.17c.06-.11,6.66-10.4,17.1-11.9,6.06-.88,12.26,1.34,18.43,6.6,5.6,4.76,7.66,10.34,6.29,17a.52.52,0,0,0,.42.61h.11"/><path id="Fill-22" class="cls-6" d="M159,176.55a.54.54,0,0,0,.25-.06.5.5,0,0,0,.29-.54c-.06-.33-1.54-8.06-10.65-13.21l-7-4a.56.56,0,0,0-.75.18.49.49,0,0,0,.19.7l7,4a21.12,21.12,0,0,1,9.61,10.78c-9.67-8.06-22.93-10.51-23.07-10.53a.53.53,0,0,0-.63.41.52.52,0,0,0,.43.6c.14,0,14.46,2.68,24,11.52a.55.55,0,0,0,.38.15"/><path id="Fill-23" class="cls-6" d="M152.08,186.7a.56.56,0,0,0,.31-.09.5.5,0,0,0,.19-.6c0-.12-4.78-11.75-17.49-22a.56.56,0,0,0-.76.06.48.48,0,0,0,.06.72,62.87,62.87,0,0,1,16.24,19.63l-15.06-11.83a.56.56,0,0,0-.77.06.5.5,0,0,0,.07.73l16.86,13.23a.55.55,0,0,0,.35.12"/><path id="Fill-24" class="cls-6" d="M123,146.55a3.53,3.53,0,1,1-3.72,3.52A3.63,3.63,0,0,1,123,146.55Zm0,8.07a4.56,4.56,0,1,0-4.8-4.55A4.68,4.68,0,0,0,123,154.62Z"/><path id="Fill-25" class="cls-6" d="M119.88,150.07a3.12,3.12,0,1,0,3.11-2.95,3,3,0,0,0-3.11,2.95"/><path id="Fill-26" class="cls-6" d="M184.6,92.64c10.32,3.53,24.07,10.15,24.3,26.74.13,9.38-3.78,18-10.46,23.09-6,4.53-13.47,5.95-21.71,4.11-18.92-4.23-35.48-22.83-36.56-35.42-.35-4,1.79-12.24,9-17.46C157.27,87.83,169.52,87.46,184.6,92.64Zm-1,55.75a25.17,25.17,0,0,0,15.55-5.12c6.94-5.28,11-14.21,10.86-23.9-.26-19.22-18.89-25.6-25-27.7-19.52-6.69-30.6-3-36.46,1.21-7.55,5.47-9.79,14.17-9.42,18.37,1.11,12.92,18,32,37.39,36.33A32.69,32.69,0,0,0,183.57,148.39Z"/><path id="Fill-27" class="cls-6" d="M16.78,319.33a2.55,2.55,0,0,1,.54-2.72c1-1.49,2-2.95,3-4.42.26-.38.63-.82,1.05-.61a1.22,1.22,0,0,1,.39,1.14,14.92,14.92,0,0,1-5,6.61"/><path id="Fill-28" class="cls-6" d="M3.56,335.35Q5.89,332.67,8.3,330a.83.83,0,0,1,.78-.06.79.79,0,0,1,.18.73c-1,2.6-3.35,4-5.52,5.74-.11-.59-.29-1-.18-1.1"/><path id="Fill-29" class="cls-6" d="M81.61,276.26c.06.34.11.69.17,1l-.22-1,0,0"/><path id="Fill-30" class="cls-6" d="M83.9,284.57l-5.54,2.91,3.44-10.11a35.47,35.47,0,0,0,2.1,7.2"/><path id="Fill-31" class="cls-6" d="M124.71,249.24a1,1,0,0,0-.62.82A.79.79,0,0,0,124.71,249.24Zm-9,5.66a29.28,29.28,0,0,1,5.6-6.59c3.81-3.54,7.6-7.11,11.55-10.51a29.7,29.7,0,0,0,5.42-6.13,33.79,33.79,0,0,1,8-8.68,72.84,72.84,0,0,0,6.42-5.89c1.33-1.26,2.55-2.64,3.87-3.91a3.06,3.06,0,0,1,2.24-1.19A51,51,0,0,1,147,224.87a28.15,28.15,0,0,0-7,7.64,40.66,40.66,0,0,1-8.21,9.59,55.68,55.68,0,0,0-7,7,2.86,2.86,0,0,0,2-.58c2.64-1.6,5.38-3.09,7.89-4.85,7.69-5.41,15.18-11.08,23-16.35a74.85,74.85,0,0,0,21.94-22.41,62,62,0,0,1,8-9.95,136.62,136.62,0,0,1,13.26-12c5.17-4.11,10.13-8.46,15.39-12.48,5-3.82,9.92-7.79,14.89-11.66,1.4-1.1,2.68-1.37,2.74-.72.08,1-.75,1.57-1.4,2.19-.44.43-.94.78-1.42,1.17-8.85,7.15-17.64,14.35-26.55,21.42-10.19,8.08-19.31,17-26.16,27.92a41.6,41.6,0,0,1-3.24,4.38A77.29,77.29,0,0,1,159,229.41c-3,2.1-6,4.36-8.92,6.58-.41.3-1.15.61-.45,1.52a25.43,25.43,0,0,0,8.29-3.85,32.28,32.28,0,0,1,10.92-5.09,17.51,17.51,0,0,0,10.4-7.18,26.85,26.85,0,0,1,6.11-6.16,31.32,31.32,0,0,0,7.75-7.74,43.42,43.42,0,0,1,2.84-3.56,17.43,17.43,0,0,1,7.23-5.56,6.3,6.3,0,0,0,2-1.11c4.61-4.09,10.17-7,15-10.78.78-.61,1.57-1.45,2.86-1.29-.37,1.26-1.49,1.87-2.4,2.61-1.66,1.36-3.31,2.76-5.1,4-4.61,3.08-8.4,7.18-13.55,9.6a10.55,10.55,0,0,0-3.8,3.3c-1.1,1.45-2.32,2.82-3.36,4.31a33.39,33.39,0,0,1-6.59,6.95,45.34,45.34,0,0,0-8.4,8.38,15.75,15.75,0,0,1-9.83,6.39,27.94,27.94,0,0,0-10.18,4.49,38.5,38.5,0,0,1-12.22,5.65,16.09,16.09,0,0,0-5.43,2.57c-2.5,1.8-5,3.56-7.49,5.41-8.84,6.66-18.08,12.87-26.25,20.32-.25.22-.52.43-.79.64,1.93-3.7,3.86-7.75,5.73-12A12,12,0,0,0,115.73,254.9Z"/><path id="Fill-32" class="cls-6" d="M16.92,325.29c-.1-.44.45-1.09.83-1.55.67-.82,1.43-1.58,2.16-2.36,4.86-5.28,9.63-10.61,12.41-17.25a9.81,9.81,0,0,1,4.58-5,15.49,15.49,0,0,0,5.41-4.84A9.91,9.91,0,0,1,46.08,291c3.66-1.67,6.94-4,10.84-5.29a10.17,10.17,0,0,0,4.94-3.2l2.73-.64c.18.56.34,1,.47,1.39-.07.77-.13,1.55-.19,2.32l.46-.25c-.2,3.24-.36,6.34-.49,9.25l-.69.36,0,.38-4.24,2.28a2.08,2.08,0,0,0-.42.23c-1.67,1.34-3.37,2.68-4.92,4.15a27.23,27.23,0,0,1-6.83,4.68c-2.77,1.35-5.64,2.67-7.41,5.34a4.27,4.27,0,0,1-1.77,1.42,11.09,11.09,0,0,0-3.33,2.46,29.26,29.26,0,0,1-7.5,5.33c-3.2,1.59-6.21,3.46-8.31,6.41a6.33,6.33,0,0,1-3.92,2.87c.84-1.88,1.89-3.37,1.45-5.2"/><path id="Fill-33" class="cls-6" d="M154.37,157.41h.12A19.77,19.77,0,0,0,170,140.8a.52.52,0,0,0-.5-.55.54.54,0,0,0-.59.47c0,.51-1.26,12.55-14.71,15.68a.52.52,0,0,0-.4.62.53.53,0,0,0,.53.39"/><path id="Fill-34" class="cls-7" d="M81.89,297.77a1.91,1.91,0,0,0,2-1.86v-2.68a2,2,0,0,0-3.93,0v2.68a1.91,1.91,0,0,0,2,1.86"/><path id="Fill-35" class="cls-7" d="M81.89,311.48a1.91,1.91,0,0,0,2-1.86v-3.27a2,2,0,0,0-3.93,0v3.27a1.91,1.91,0,0,0,2,1.86"/><path id="Fill-36" class="cls-7" d="M81.89,329.23a1.91,1.91,0,0,0,2-1.86V315.81a2,2,0,0,0-3.93,0v11.56a1.91,1.91,0,0,0,2,1.86"/><path id="Fill-37" class="cls-8" d="M80.9,296.84a1.91,1.91,0,0,0,2-1.86V292.3a1.77,1.77,0,0,0-.18-.76,1.86,1.86,0,0,1,1.16,1.69v2.68a1.91,1.91,0,0,1-2,1.86,2,2,0,0,1-1.79-1.1,1.94,1.94,0,0,0,.8.17"/><path id="Fill-38" class="cls-8" d="M80.9,310.55a1.92,1.92,0,0,0,2-1.87v-3.27a1.77,1.77,0,0,0-.18-.76,1.86,1.86,0,0,1,1.16,1.7v3.27a1.91,1.91,0,0,1-2,1.86,2,2,0,0,1-1.79-1.1,2.12,2.12,0,0,0,.8.17"/><path id="Fill-39" class="cls-8" d="M80.9,328.3a1.91,1.91,0,0,0,2-1.86V314.88a1.77,1.77,0,0,0-.18-.76,1.86,1.86,0,0,1,1.16,1.69v11.56a1.91,1.91,0,0,1-2,1.86,2,2,0,0,1-1.79-1.1,1.94,1.94,0,0,0,.8.17"/></g><g id="WeHo-Logo"><g id="Logo---City-of-West-Hollywood"><g id="Group-75"><g id="Fill-37-Clipped"><g class="cls-9"><polygon id="Fill-37-2" data-name="Fill-37" class="cls-10" points="942.11 358.97 929.44 369.49 939.96 382.17 952.63 371.65 942.11 358.97"/></g></g><g id="Fill-38-Clipped"><g class="cls-9"><polygon id="Fill-38-2" data-name="Fill-38" class="cls-10" points="929.1 343.21 916.42 353.73 926.95 366.41 939.62 355.89 929.1 343.21"/></g></g><g id="Fill-39-Clipped"><g class="cls-9"><polygon id="Fill-39-2" data-name="Fill-39" class="cls-10" points="913.53 356.13 900.86 366.65 911.38 379.33 924.05 368.81 913.53 356.13"/></g></g><g id="Fill-40-Clipped"><g class="cls-9"><polygon id="Fill-40" class="cls-10" points="926.31 371.53 913.64 382.05 924.16 394.73 936.84 384.21 926.31 371.53"/></g></g><g id="Fill-41-Clipped"><g class="cls-9"><polygon id="Fill-41" class="cls-10" points="936.25 415.54 923.57 426.06 934.1 438.74 946.77 428.22 936.25 415.54"/></g></g><g id="Fill-42-Clipped"><g class="cls-9"><polygon id="Fill-42" class="cls-10" points="923.38 399.97 910.71 410.49 921.24 423.17 933.91 412.65 923.38 399.97"/></g></g><g id="Fill-43-Clipped"><g class="cls-9"><polygon id="Fill-43" class="cls-10" points="920.9 428.65 908.23 439.17 918.75 451.85 931.42 441.33 920.9 428.65"/></g></g><g id="Fill-44-Clipped"><g class="cls-9"><polygon id="Fill-44" class="cls-10" points="910.67 384.45 898 394.97 908.53 407.65 921.2 397.13 910.67 384.45"/></g></g><g id="Fill-45-Clipped"><g class="cls-9"><polygon id="Fill-45" class="cls-10" points="897.96 369.06 885.29 379.58 895.82 392.26 908.49 381.74 897.96 369.06"/></g></g><g id="Fill-46-Clipped"><g class="cls-9"><polygon id="Fill-46" class="cls-10" points="889.46 454.13 876.79 464.65 887.32 477.33 899.99 466.81 889.46 454.13"/></g></g><g id="Fill-47-Clipped"><g class="cls-9"><polygon id="Fill-47" class="cls-10" points="873.98 467.24 861.3 477.76 871.83 490.44 884.5 479.92 873.98 467.24"/></g></g><g id="Fill-48-Clipped"><g class="cls-9"><polygon id="Fill-48" class="cls-10" points="861.38 451.99 848.71 462.51 859.24 475.19 871.91 464.67 861.38 451.99"/></g></g><g id="Fill-49-Clipped"><g class="cls-9"><polygon id="Fill-49" class="cls-10" points="846 464.76 833.33 475.28 843.85 487.96 856.52 477.44 846 464.76"/></g></g><g id="Fill-50-Clipped"><g class="cls-9"><polygon id="Fill-50" class="cls-10" points="858.51 479.83 845.84 490.35 856.36 503.03 869.03 492.51 858.51 479.83"/></g></g><g id="Fill-51-Clipped"><g class="cls-9"><polygon id="Fill-51" class="cls-10" points="843.24 493.12 830.57 503.64 841.1 516.32 853.77 505.8 843.24 493.12"/></g></g><g id="Fill-52-Clipped"><g class="cls-9"><polygon id="Fill-52" class="cls-10" points="827.6 506.04 814.93 516.56 825.46 529.24 838.13 518.72 827.6 506.04"/></g></g><g id="Fill-53-Clipped"><g class="cls-9"><polygon id="Fill-53" class="cls-10" points="811.96 518.78 799.28 529.3 809.81 541.98 822.48 531.46 811.96 518.78"/></g></g><g id="Fill-54-Clipped"><g class="cls-9"><polygon id="Fill-54" class="cls-10" points="931.09 472.39 918.41 482.91 928.94 495.59 941.61 485.07 931.09 472.39"/></g></g><g id="Fill-55-Clipped"><g class="cls-9"><polygon id="Fill-55" class="cls-10" points="887.06 483 874.39 493.51 884.91 506.19 897.58 495.68 887.06 483"/></g></g><g id="Fill-56-Clipped"><g class="cls-9"><polygon id="Fill-56" class="cls-10" points="871.49 495.92 858.82 506.44 869.34 519.12 882.01 508.6 871.49 495.92"/></g></g><g id="Fill-57-Clipped"><g class="cls-9"><polygon id="Fill-57" class="cls-10" points="915.59 485.32 902.91 495.84 913.44 508.52 926.11 498 915.59 485.32"/></g></g><g id="Fill-58-Clipped"><g class="cls-9"><polygon id="Fill-58" class="cls-10" points="856.1 508.69 843.43 519.21 853.96 531.89 866.63 521.37 856.1 508.69"/></g></g><g id="Fill-59-Clipped"><g class="cls-9"><polygon id="Fill-59" class="cls-10" points="840.53 521.62 827.86 532.13 838.39 544.81 851.06 534.29 840.53 521.62"/></g></g><g id="Fill-60-Clipped"><g class="cls-9"><polygon id="Fill-60" class="cls-10" points="824.97 534.54 812.3 545.06 822.82 557.74 835.49 547.22 824.97 534.54"/></g></g><g id="Fill-61-Clipped"><g class="cls-9"><polygon id="Fill-61" class="cls-10" points="916.07 327.6 903.39 338.12 913.92 350.8 926.59 340.28 916.07 327.6"/></g></g><g id="Fill-62-Clipped"><g class="cls-9"><polygon id="Fill-62" class="cls-10" points="900.57 340.52 887.9 351.04 898.42 363.72 911.09 353.2 900.57 340.52"/></g></g><g id="Fill-63-Clipped"><g class="cls-9"><polygon id="Fill-63" class="cls-10" points="885.18 353.3 872.51 363.81 883.04 376.49 895.71 365.98 885.18 353.3"/></g></g><g id="Fill-64-Clipped"><g class="cls-9"><polygon id="Fill-64" class="cls-10" points="882.55 381.8 869.87 392.31 880.4 405 893.07 394.48 882.55 381.8"/></g></g><g id="Fill-65-Clipped"><g class="cls-9"><polygon id="Fill-65" class="cls-10" points="933.94 444.07 921.27 454.59 931.79 467.27 944.47 456.75 933.94 444.07"/></g></g><g id="Fill-66-Clipped"><g class="cls-9"><polygon id="Fill-66" class="cls-10" points="892.48 426.18 879.81 436.69 890.33 449.37 903 438.85 892.48 426.18"/></g></g><g id="Fill-67-Clipped"><g class="cls-9"><polygon id="Fill-67" class="cls-10" points="905.26 441.57 892.59 452.09 903.12 464.77 915.79 454.25 905.26 441.57"/></g></g><g id="Fill-68-Clipped"><g class="cls-9"><polygon id="Fill-68" class="cls-10" points="918.19 457.15 905.52 467.67 916.05 480.35 928.72 469.83 918.19 457.15"/></g></g><g id="Fill-69-Clipped"><g class="cls-9"><polygon id="Fill-69" class="cls-10" points="902.62 470.07 889.95 480.59 900.48 493.27 913.15 482.75 902.62 470.07"/></g></g><g id="Fill-71-Clipped"><g class="cls-9"><polygon id="Fill-71" class="cls-10" points="967.39 389.59 954.72 400.11 965.25 412.79 977.92 402.27 967.39 389.59"/></g></g><g id="Fill-72-Clipped"><g class="cls-9"><polygon id="Fill-72" class="cls-10" points="954.53 374.01 941.86 384.53 952.38 397.21 965.05 386.69 954.53 374.01"/></g></g><g id="Fill-73-Clipped"><g class="cls-9"><polygon id="Fill-73" class="cls-10" points="938.96 386.94 926.29 397.45 936.82 410.13 949.49 399.61 938.96 386.94"/></g></g><g id="Fill-74-Clipped"><polygon id="Fill-74" class="cls-10" points="952.04 402.69 939.37 413.21 949.9 425.89 962.57 415.37 952.04 402.69"/></g></g></g></g><text class="cls-12" transform="translate(170.77 123.93)">pa<tspan class="cls-13" x="24.02" y="0">r</tspan><tspan x="35.71" y="0">t</tspan><tspan class="cls-14" x="46.41" y="0">a</tspan><tspan x="57.81" y="0">yyyyyyyy</tspan></text></svg>