<svg id="Layer_1" data-name="Layer 1" xmlns="http://www.w3.org/2000/svg" viewBox="0 0 960 860"><defs><style>.cls-1{fill:#ee509a;stroke:#000;stroke-miterlimit:10;}.cls-2{fill:#fffffe;}.cls-3{fill:#f3e8e2;}.cls-4{fill:#3d1717;}.cls-5{fill:#f5cac0;}.cls-6{fill:#ec98a0;}.cls-11,.cls-7,.cls-8,.cls-9{isolation:isolate;}.cls-11,.cls-8,.cls-9{font-size:28px;fill:#f8e71c;font-style:italic;}.cls-8{font-family:GoboldHollowBold-Italic, Gobold Hollow Bold;}.cls-9{font-family:GoboldHollowItalic-Italic, Gobold Hollow Italic;}.cls-10{fill:none;}.cls-11{font-family:GoboldCUTS-Italic, Gobold CUTS;}.cls-12{letter-spacing:-0.02em;}.cls-13{letter-spacing:-0.04em;}</style></defs><title>Artboard 1</title><rect class="cls-1" x="-8.93" y="-232.24" width="973.1" height="1125.77"/><g id="white-raven"><path id="Fill-5" class="cls-2" d="M36.1,216.39s-16.4-43.3,3.7-91.7c8.1-19.5,17-26.7,25.2-27,0,0,12.9-20.5,31.5-4.7,5.4,4.6,6.6,9.7,5.7,14.6h0l.1.7,5.9,3.3c7.8,4.4,9,11.1,9,11.1-5.4-5-12.4-7.7-16.8-9l-.5.9h0l-.4.9c8.6,8.1,11.7,16,11.7,16l-14.7-11.3-4.1,4.6v.1c8,21.2-26.9,112.2-38.8,94.8a24.94,24.94,0,0,1-3.3-9.1l-8.8,26c-6.5,19.5-6.9,3.9-5.4-20.2h0"/><path id="Fill-6" class="cls-3" d="M55.6,140.69s-5,24.3-6.2,45.5-5-13.3-.7-28.9,6.9-16.6,6.9-16.6"/><path id="Fill-7" class="cls-3" d="M42.9,143.89,36,217.39s-2.5-74.5,6.9-73.5"/><path id="Fill-8" class="cls-3" d="M49.1,192.09l.2,10.9.4,2.8s6,6.9,23.7-39.6,0-65.9,0-65.9l3.2,1.6,5.3,5,4.7,6.4-.4-.7c12.2-6,9.1-20.4,9.1-20.4l1,.8c5.4,4.6,6.6,9.7,5.7,14.6h0l.1.7,1.9,1.1c5.7,3.9,12.9,13,12.9,13s.1.2.1.3c-5.4-5-12.4-7.7-16.8-9l-.4.9h0l-.4.9a55,55,0,0,1,9,10.9c-7.2-6.4-16.8-14.4.3,3.2l-12.2-9.5-4.1,4.6h0c8,21.2-26.9,112.2-38.8,94.8a24.94,24.94,0,0,1-3.3-9.1l-8.8,26c-4.1,12.5-5.7,10.6-6.1,1.4,3.3,10.5,13.7-45.7,13.7-45.7"/><path id="Fill-9" class="cls-3" d="M85.9,104.59a3.65,3.65,0,0,0,3.7-3.5,3.06,3.06,0,0,0-.7-2,3.22,3.22,0,0,1,1.5,2.8,3.65,3.65,0,0,1-3.7,3.5,3.56,3.56,0,0,1-3-1.5,3.81,3.81,0,0,0,2.2.7"/><path id="Fill-10" class="cls-4" d="M57.2,222.19a4.65,4.65,0,0,0,2.3-.6c5.2-2.4,14.8-15.4,24.9-44.1,6.3-18.1,12.3-42.7,8.5-52.9-4.9-13-15.5-27.1-27.2-27.3h-.3c-9.8,0-18.6,9.2-26.1,27.3-20,47.9-3.8,91.5-3.7,92,.1.2.4.4.6.3s.4-.3.3-.5h0c-.2-.4-16.2-43.7,3.6-91.4,7.3-17.5,16-26.7,25.2-26.7h.2c11.5.1,21.8,13.9,26.5,26.6,3.1,8.2-.3,28.7-8.5,52.3-8,23-17.8,40.6-24.4,43.6-2.1,1-3.7.5-5.1-1.5-4.5-6.6-5.6-21.5-3.3-44.1,0-.2-.2-.5-.4-.5h0c-.2,0-.5.1-.5.4-2.4,22.8-1.2,37.8,3.4,44.7a4.71,4.71,0,0,0,4,2.4"/><path id="Fill-11" class="cls-4" d="M50.9,170.09a.66.66,0,0,0,.5-.4c.1-1,.3-2,.4-3,0-.2-.1-.5-.4-.5h0c-.3,0-.5.1-.5.4-.1,1-.3,2-.4,3-.1.3.1.5.4.5h0"/><path id="Fill-12" class="cls-4" d="M52,162.09a.66.66,0,0,0,.5-.4c.2-1.5.4-2.9.7-4.3,0-.2-.1-.5-.4-.5h0c-.2,0-.5.1-.5.4-.2,1.4-.4,2.9-.6,4.3-.2.2,0,.4.3.5h0"/><path id="Fill-13" class="cls-4" d="M53.8,151a.66.66,0,0,0,.5-.4l.3-1.5c0-.2-.1-.5-.4-.5s-.5.1-.5.4l-.3,1.5c-.2.2,0,.4.4.5h0"/><path id="Fill-14" class="cls-4" d="M54.8,145.39a.51.51,0,0,0,.5-.4c.4-2,.7-3.8,1-5.4,0-.2-.1-.5-.4-.5h0c-.2,0-.5.1-.5.4-.3,1.6-.7,3.4-1,5.4-.1.2,0,.4.4.5h0"/><path id="Fill-15" class="cls-4" d="M56.5,136.29a.51.51,0,0,0,.5-.4c.3-1.4.5-2.2.5-2.2,0-.2-.1-.5-.4-.5h0c-.2-.1-.5.1-.6.3,0,0-.2.8-.5,2.2a.6.6,0,0,0,.5.6h0"/><path id="Fill-16" class="cls-4" d="M37,245.79c1,0,2.3-1.4,4.8-9.2l8.8-26c.1-.2-.1-.5-.3-.6h0c-.2-.1-.5.1-.6.3l-8.8,26c-2.8,8.7-3.9,8.5-4,8.5-.7-.1-3.7-4.5,3.9-78.6,0-.2-.2-.5-.4-.5h0c-.2,0-.5.2-.5.4-8.2,78.6-4.4,79.3-3.2,79.6l.3.1"/><path id="Fill-17" class="cls-4" d="M41.3,159a.66.66,0,0,0,.5-.4c.2-1.7.4-3.3.5-4.9a.45.45,0,1,0-.9-.1h0c-.2,1.5-.3,3.2-.5,4.9-.1.2.1.4.4.5h0"/><path id="Fill-18" class="cls-4" d="M42.4,148.79a.66.66,0,0,0,.5-.4c.6-5.5,1-8.8,1-8.8,0-.2-.2-.5-.4-.5h0c-.3,0-.5.1-.5.4h0s-.4,3.3-1,8.8c-.1.2.1.4.4.5h0"/><path id="Fill-19" class="cls-4" d="M92.4,125.19a.37.37,0,0,0,.3-.1,30.71,30.71,0,0,0,4.1-4.7c.1-.2.1-.5-.1-.6h0c-.2-.1-.5-.1-.6.1a34.7,34.7,0,0,1-4,4.6.37.37,0,0,0,0,.6h0a1,1,0,0,1,.3.1"/><path id="Fill-20" class="cls-4" d="M99.3,116a.52.52,0,0,0,.4-.2l.1-.1c.3-.5.6-1.1.9-1.7a.48.48,0,0,0-.2-.6h0a.48.48,0,0,0-.6.2,8,8,0,0,1-.8,1.6l-.1.1a.59.59,0,0,0,.3.7h0c-.1-.1,0-.1,0,0"/><path id="Fill-21" class="cls-4" d="M102,108.69a.51.51,0,0,0,.5-.4q1.95-9.15-5.7-15.6C91.2,88,85.6,86,80.1,86.79c-9.5,1.4-15.2,10.3-15.5,10.7-.1.2-.1.5.1.6h0c.2.1.5.1.6-.1s5.8-9,14.8-10.3c5.2-.8,10.6,1.2,16,5.7,4.8,4.1,6.6,8.9,5.4,14.7,0,.2.1.5.4.5l.1.1"/><path id="Fill-22" class="cls-4" d="M117.1,123.19c.1,0,.1,0,.2-.1a.55.55,0,0,0,.3-.5c-.1-.3-1.3-7-9.2-11.4l-6.1-3.5a.4.4,0,0,0-.6.2c-.1.2-.1.5.1.6h0l6.1,3.5a18,18,0,0,1,8.3,9.3c-8.4-7-19.8-9.1-20-9.1s-.5.1-.5.4h0c0,.2.1.5.4.5h0c.1,0,12.5,2.3,20.8,10,0,.1.1.1.2.1"/><path id="Fill-23" class="cls-4" d="M111.1,132a.37.37,0,0,0,.3-.1c.2-.1.2-.3.2-.5s-4.1-10.2-15.1-19a.49.49,0,0,0-.7.1.37.37,0,0,0,0,.6h0a53.93,53.93,0,0,1,14.1,17l-13-10.2a.49.49,0,0,0-.7.1.38.38,0,0,0,0,.6h0l14.6,11.5a.37.37,0,0,0,.3.1"/><path id="Fill-24" class="cls-4" d="M85.9,97.29a3.05,3.05,0,1,1-.3,6.1,3.08,3.08,0,0,1-2.9-3.1A3.12,3.12,0,0,1,85.9,97.29Zm0,7a3.91,3.91,0,0,0,3.7-4.1,4,4,0,0,0-4.1-3.7,3.87,3.87,0,0,0-3.7,3.9A4,4,0,0,0,85.9,104.29Z"/><path id="Fill-25" class="cls-4" d="M83.2,100.29a2.7,2.7,0,1,0,2.9-2.6H86a2.76,2.76,0,0,0-2.8,2.6h0"/><path id="Fill-26" class="cls-4" d="M139.2,50.59c8.9,3.1,20.8,8.8,21,23.1.1,8.1-3.3,15.6-9.1,20-5.2,3.9-11.7,5.1-18.8,3.6-16.2-3.7-30.6-19.8-31.5-30.7-.3-3.5,1.5-10.6,7.8-15.1C115.6,46.49,126.2,46.09,139.2,50.59Zm-.8,48.3a21.84,21.84,0,0,0,13.5-4.4c6-4.6,9.5-12.3,9.4-20.7-.2-16.6-16.3-22.2-21.6-24-16.9-5.8-26.5-2.6-31.6,1-6.5,4.7-8.5,12.3-8.2,15.9,1,11.2,15.6,27.7,32.4,31.4a24.27,24.27,0,0,0,6.1.8Z"/><path id="Fill-29" class="cls-4" d="M50.1,209.49a2.77,2.77,0,0,1,.1.9l-.1-.9h0"/><path id="Fill-30" class="cls-4" d="M52.1,216.69l-4.8,2.5,3-8.8a32.64,32.64,0,0,0,1.8,6.3"/><path id="Fill-31" class="cls-4" d="M87.4,186.19a.75.75,0,0,0-.5.7A.75.75,0,0,0,87.4,186.19Zm-7.8,4.9a26.4,26.4,0,0,1,4.8-5.7c3.3-3.1,6.6-6.2,10-9.1a23.83,23.83,0,0,0,4.7-5.3,29,29,0,0,1,6.9-7.5,67.74,67.74,0,0,0,5.6-5.1c1.2-1.1,2.2-2.3,3.3-3.4a2.58,2.58,0,0,1,1.9-1,43.15,43.15,0,0,1-10.2,11.1,25.54,25.54,0,0,0-6.1,6.6,35.13,35.13,0,0,1-7.1,8.3,50.21,50.21,0,0,0-6.1,6.1,2.16,2.16,0,0,0,1.7-.5c2.3-1.4,4.7-2.7,6.8-4.2,6.7-4.7,13.1-9.6,19.9-14.2a66.28,66.28,0,0,0,19-19.4,52,52,0,0,1,6.9-8.6,113.61,113.61,0,0,1,11.5-10.4c4.5-3.6,8.8-7.3,13.3-10.8,4.3-3.3,8.6-6.7,12.9-10.1,1.2-1,2.3-1.2,2.4-.6.1.9-.6,1.4-1.2,1.9a10.59,10.59,0,0,1-1.2,1c-7.7,6.2-15.3,12.4-23,18.5-8.8,7-16.7,14.7-22.6,24.2-.9,1.3-1.8,2.6-2.8,3.8a68.31,68.31,0,0,1-14,12.3c-2.6,1.8-5.2,3.8-7.7,5.7-.4.3-1,.5-.4,1.3a23.56,23.56,0,0,0,7.2-3.3,29.46,29.46,0,0,1,9.5-4.4,15.15,15.15,0,0,0,9-6.2,20.54,20.54,0,0,1,5.3-5.3,26.66,26.66,0,0,0,6.7-6.7A37.62,37.62,0,0,1,149,147a15,15,0,0,1,6.3-4.8,4.25,4.25,0,0,0,1.7-1c4-3.5,8.8-6.1,13-9.3.7-.5,1.4-1.3,2.5-1.1-.3,1.1-1.3,1.6-2.1,2.3-1.4,1.2-2.9,2.4-4.4,3.5-4,2.7-7.3,6.2-11.7,8.3a10.18,10.18,0,0,0-3.3,2.9c-1,1.3-2,2.4-2.9,3.7a29.94,29.94,0,0,1-5.7,6.1,38.82,38.82,0,0,0-7.3,7.3,13.2,13.2,0,0,1-8.5,5.5,23.29,23.29,0,0,0-8.8,3.9,34.15,34.15,0,0,1-10.6,4.9,13.51,13.51,0,0,0-4.7,2.2l-6.5,4.7c-7.7,5.8-15.6,11.1-22.7,17.6-.2.2-.5.4-.7.6,1.7-3.2,3.3-6.7,5-10.4a21.19,21.19,0,0,0,2-2.8Z"/><path id="Fill-32" class="cls-4" d="M-5.9,252c-.1-.4.4-.9.7-1.3a18,18,0,0,1,1.9-2c4.2-4.6,8.3-9.2,10.7-14.9a8.4,8.4,0,0,1,4-4.3,12.66,12.66,0,0,0,4.7-4.2,7.54,7.54,0,0,1,3.3-2.8c3.2-1.4,6-3.5,9.4-4.6a8.32,8.32,0,0,0,4.3-2.8l2.4-.6c.2.5.3.9.4,1.2-.1.7-.1,1.3-.2,2l.4-.2c-.2,2.8-.3,5.5-.4,8l-.6.3v.3l-3.7,2c-.1.1-.3.1-.4.2-1.4,1.2-2.9,2.3-4.3,3.6a27.05,27.05,0,0,1-5.9,4.1c-2.4,1.2-4.9,2.3-6.4,4.6a3.49,3.49,0,0,1-1.5,1.2,8.64,8.64,0,0,0-2.9,2.1,24.73,24.73,0,0,1-6.5,4.6A18.75,18.75,0,0,0-3.7,254a6.12,6.12,0,0,1-3.4,2.5c.7-1.7,1.6-2.9,1.2-4.5"/><path id="Fill-33" class="cls-4" d="M113.1,106.69h0a17,17,0,0,0,13.5-14.4c0-.2-.2-.5-.4-.5h0a.46.46,0,0,0-.5.4,15.91,15.91,0,0,1-12.7,13.6c-.2.1-.4.3-.3.5h0a.37.37,0,0,0,.4.4"/><path id="Fill-34" class="cls-5" d="M50.4,228.19a1.67,1.67,0,0,0,1.7-1.6h0v-2.4a1.77,1.77,0,0,0-2-1.4,1.82,1.82,0,0,0-1.4,1.4v2.3a1.69,1.69,0,0,0,1.7,1.7h0"/><path id="Fill-35" class="cls-5" d="M50.4,240a1.67,1.67,0,0,0,1.7-1.6h0v-2.8a1.77,1.77,0,0,0-2-1.4,1.82,1.82,0,0,0-1.4,1.4v2.8a1.67,1.67,0,0,0,1.7,1.6h0"/><path id="Fill-36" class="cls-5" d="M50.4,255.39a1.67,1.67,0,0,0,1.7-1.6h0v-10a1.77,1.77,0,0,0-2-1.4,1.82,1.82,0,0,0-1.4,1.4v10a1.67,1.67,0,0,0,1.7,1.6h0"/><path id="Fill-37" class="cls-6" d="M49.5,227.39a1.67,1.67,0,0,0,1.7-1.6h0v-2.4a1.85,1.85,0,0,0-.2-.7,1.54,1.54,0,0,1,1,1.5v2.3a1.67,1.67,0,0,1-1.7,1.6h0a1.54,1.54,0,0,1-1.5-1,.91.91,0,0,0,.7.3"/><path id="Fill-38" class="cls-6" d="M49.5,239.19a1.67,1.67,0,0,0,1.7-1.6v-2.9a1.85,1.85,0,0,0-.2-.7,1.54,1.54,0,0,1,1,1.5v2.8a1.67,1.67,0,0,1-1.7,1.6h0a1.54,1.54,0,0,1-1.5-1c.2.3.4.3.7.3"/><path id="Fill-39" class="cls-6" d="M49.5,254.59a1.67,1.67,0,0,0,1.7-1.6h0V243a1.85,1.85,0,0,0-.2-.7,1.54,1.54,0,0,1,1,1.5v10a1.67,1.67,0,0,1-1.7,1.6h0a1.54,1.54,0,0,1-1.5-1,1.45,1.45,0,0,0,.7.2"/></g><g class="cls-7"><text class="cls-8" transform="translate(213.17 82.93)">yyy</text><text class="cls-9" transform="translate(260.97 82.93)">yyyyy</text></g><rect class="cls-10" x="129.95" y="58.88" width="116.8" height="37.7"/><text class="cls-11" transform="translate(129.99 82.37)">pa<tspan class="cls-12" x="28.3" y="0">r</tspan><tspan x="42.05" y="0">t</tspan><tspan class="cls-13" x="54.67" y="0">a</tspan><tspan x="68.11" y="0">y</tspan></text></svg>