<?xml version="1.0" encoding="utf-8"?>
<!-- Generator: Adobe Illustrator 22.1.0, SVG Export Plug-In . SVG Version: 6.00 Build 0)  -->
<svg version="1.1" id="Layer_1" xmlns="http://www.w3.org/2000/svg" xmlns:xlink="http://www.w3.org/1999/xlink" x="0px" y="0px"
	 viewBox="0 0 960 860" style="enable-background:new 0 0 960 860;" xml:space="preserve">
<style type="text/css">
	.st0{fill:#EE509A;stroke:#000000;stroke-miterlimit:10;}
	.st1{fill:#FFFFFE;}
	.st2{fill:#F3E8E2;}
	.st3{fill:#3D1717;}
	.st4{fill:#F5CAC0;}
	.st5{fill:#EC98A0;}
	.st6{fill:#F8E71C;}
	.st7{font-family:'Gobold-Italic';}
	.st8{font-size:20.7722px;}
	.st9{font-family:'GoboldThinLightItalic-Italic';}
</style>
<title>events</title>
<rect x="-9.1" y="-26.4" class="st0" width="973.1" height="895.2"/>
<g id="white-raven">
	<path id="Fill-5" class="st1" d="M36.1,188.8c0,0-16.4-43.3,3.7-91.7c8.1-19.5,17-26.7,25.2-27c0,0,12.9-20.5,31.5-4.7
		c5.4,4.6,6.6,9.7,5.7,14.6l0,0l0.1,0.7l5.9,3.3c7.8,4.4,9,11.1,9,11.1c-5.4-5-12.4-7.7-16.8-9L99.9,87l0,0l-0.4,0.9
		c8.6,8.1,11.7,16,11.7,16L96.5,92.6l-4.1,4.6v0.1c8,21.2-26.9,112.2-38.8,94.8c-1.7-2.8-2.8-5.9-3.3-9.1l-8.8,26
		C35,228.5,34.6,212.9,36.1,188.8L36.1,188.8"/>
	<path id="Fill-6" class="st2" d="M55.6,113.1c0,0-5,24.3-6.2,45.5s-5-13.3-0.7-28.9S55.6,113.1,55.6,113.1"/>
	<path id="Fill-7" class="st2" d="M42.9,116.3L36,189.8C36,189.8,33.5,115.3,42.9,116.3"/>
	<path id="Fill-8" class="st2" d="M49.1,164.5l0.2,10.9l0.4,2.8c0,0,6,6.9,23.7-39.6s0-65.9,0-65.9l3.2,1.6l5.3,5l4.7,6.4L86.2,85
		c12.2-6,9.1-20.4,9.1-20.4l1,0.8c5.4,4.6,6.6,9.7,5.7,14.6l0,0l0.1,0.7l1.9,1.1c5.7,3.9,12.9,13,12.9,13c0,0.1,0.1,0.2,0.1,0.3
		c-5.4-5-12.4-7.7-16.8-9L99.8,87l0,0l-0.4,0.9c3.5,3.3,6.5,6.9,9,10.9c-7.2-6.4-16.8-14.4,0.3,3.2l-12.2-9.5l-4.1,4.6l0,0l0,0
		c8,21.2-26.9,112.2-38.8,94.8c-1.7-2.8-2.8-5.9-3.3-9.1l-8.8,26c-4.1,12.5-5.7,10.6-6.1,1.4C38.7,220.7,49.1,164.5,49.1,164.5"/>
	<path id="Fill-9" class="st2" d="M85.9,77c2,0,3.6-1.5,3.7-3.5c0-0.7-0.2-1.4-0.7-2c1,0.6,1.5,1.7,1.5,2.8c-0.1,2-1.7,3.5-3.7,3.5
		c-1.2,0-2.3-0.5-3-1.5C84.4,76.8,85.2,77,85.9,77"/>
	<path id="Fill-10" class="st3" d="M57.2,194.6c0.8,0,1.6-0.2,2.3-0.6c5.2-2.4,14.8-15.4,24.9-44.1c6.3-18.1,12.3-42.7,8.5-52.9
		C88,84,77.4,69.9,65.7,69.7h-0.3c-9.8,0-18.6,9.2-26.1,27.3c-20,47.9-3.8,91.5-3.7,92c0.1,0.2,0.4,0.4,0.6,0.3
		c0.2-0.1,0.4-0.3,0.3-0.5l0,0l0,0c-0.2-0.4-16.2-43.7,3.6-91.4c7.3-17.5,16-26.7,25.2-26.7h0.2C77,70.8,87.3,84.6,92,97.3
		c3.1,8.2-0.3,28.7-8.5,52.3c-8,23-17.8,40.6-24.4,43.6c-2.1,1-3.7,0.5-5.1-1.5c-4.5-6.6-5.6-21.5-3.3-44.1c0-0.2-0.2-0.5-0.4-0.5
		l0,0l0,0c-0.2,0-0.5,0.1-0.5,0.4c-2.4,22.8-1.2,37.8,3.4,44.7C54.1,193.7,55.6,194.6,57.2,194.6"/>
	<path id="Fill-11" class="st3" d="M50.9,142.5c0.2,0,0.4-0.2,0.5-0.4c0.1-1,0.3-2,0.4-3c0-0.2-0.1-0.5-0.4-0.5l0,0
		c-0.3,0-0.5,0.1-0.5,0.4c-0.1,1-0.3,2-0.4,3C50.4,142.3,50.6,142.5,50.9,142.5L50.9,142.5L50.9,142.5"/>
	<path id="Fill-12" class="st3" d="M52,134.5c0.2,0,0.4-0.2,0.5-0.4c0.2-1.5,0.4-2.9,0.7-4.3c0-0.2-0.1-0.5-0.4-0.5l0,0
		c-0.2,0-0.5,0.1-0.5,0.4c-0.2,1.4-0.4,2.9-0.6,4.3C51.5,134.2,51.7,134.4,52,134.5C51.9,134.5,51.9,134.5,52,134.5L52,134.5"/>
	<path id="Fill-13" class="st3" d="M53.8,123.4c0.2,0,0.4-0.2,0.5-0.4l0.3-1.5c0-0.2-0.1-0.5-0.4-0.5c-0.3,0-0.5,0.1-0.5,0.4
		l-0.3,1.5C53.2,123.1,53.4,123.3,53.8,123.4L53.8,123.4"/>
	<path id="Fill-14" class="st3" d="M54.8,117.8c0.2,0,0.4-0.1,0.5-0.4c0.4-2,0.7-3.8,1-5.4c0-0.2-0.1-0.5-0.4-0.5l0,0l0,0
		c-0.2,0-0.5,0.1-0.5,0.4c-0.3,1.6-0.7,3.4-1,5.4C54.3,117.5,54.4,117.7,54.8,117.8L54.8,117.8"/>
	<path id="Fill-15" class="st3" d="M56.5,108.7c0.2,0,0.4-0.1,0.5-0.4c0.3-1.4,0.5-2.2,0.5-2.2c0-0.2-0.1-0.5-0.4-0.5l0,0
		c-0.2-0.1-0.5,0.1-0.6,0.3c0,0-0.2,0.8-0.5,2.2C56,108.3,56.1,108.6,56.5,108.7L56.5,108.7"/>
	<path id="Fill-16" class="st3" d="M37,218.2c1,0,2.3-1.4,4.8-9.2l8.8-26c0.1-0.2-0.1-0.5-0.3-0.6l0,0l0,0c-0.2-0.1-0.5,0.1-0.6,0.3
		l-8.8,26c-2.8,8.7-3.9,8.5-4,8.5c-0.7-0.1-3.7-4.5,3.9-78.6c0-0.2-0.2-0.5-0.4-0.5l0,0l0,0c-0.2,0-0.5,0.2-0.5,0.4
		c-8.2,78.6-4.4,79.3-3.2,79.6L37,218.2"/>
	<path id="Fill-17" class="st3" d="M41.3,131.4c0.2,0,0.4-0.2,0.5-0.4c0.2-1.7,0.4-3.3,0.5-4.9c0-0.3-0.2-0.5-0.4-0.5
		c-0.3,0-0.5,0.2-0.5,0.4l0,0c-0.2,1.5-0.3,3.2-0.5,4.9C40.8,131.1,41,131.3,41.3,131.4C41.2,131.4,41.2,131.4,41.3,131.4
		L41.3,131.4"/>
	<path id="Fill-18" class="st3" d="M42.4,121.2c0.2,0,0.4-0.2,0.5-0.4c0.6-5.5,1-8.8,1-8.8c0-0.2-0.2-0.5-0.4-0.5l0,0l0,0
		c-0.3,0-0.5,0.1-0.5,0.4l0,0l0,0c0,0-0.4,3.3-1,8.8C41.9,120.9,42.1,121.1,42.4,121.2L42.4,121.2L42.4,121.2"/>
	<path id="Fill-19" class="st3" d="M92.4,97.6c0.1,0,0.2,0,0.3-0.1c1.5-1.4,2.9-3,4.1-4.7c0.1-0.2,0.1-0.5-0.1-0.6l0,0
		c-0.2-0.1-0.5-0.1-0.6,0.1c-1.2,1.6-2.5,3.2-4,4.6c-0.2,0.2-0.2,0.4,0,0.6l0,0l0,0C92.2,97.5,92.4,97.6,92.4,97.6"/>
	<path id="Fill-20" class="st3" d="M99.3,88.4c0.2,0,0.3-0.1,0.4-0.2l0.1-0.1c0.3-0.5,0.6-1.1,0.9-1.7c0.1-0.2,0-0.5-0.2-0.6l0,0
		l0,0c-0.2-0.1-0.5,0-0.6,0.2c-0.2,0.6-0.5,1.1-0.8,1.6L99,87.7C98.9,87.9,99,88.2,99.3,88.4L99.3,88.4L99.3,88.4
		C99.2,88.3,99.3,88.3,99.3,88.4"/>
	<path id="Fill-21" class="st3" d="M102,81.1c0.2,0,0.4-0.1,0.5-0.4c1.3-6.1-0.6-11.3-5.7-15.6c-5.6-4.7-11.2-6.7-16.7-5.9
		c-9.5,1.4-15.2,10.3-15.5,10.7c-0.1,0.2-0.1,0.5,0.1,0.6l0,0l0,0c0.2,0.1,0.5,0.1,0.6-0.1c0.1-0.1,5.8-9,14.8-10.3
		c5.2-0.8,10.6,1.2,16,5.7c4.8,4.1,6.6,8.9,5.4,14.7c0,0.2,0.1,0.5,0.4,0.5L102,81.1"/>
	<path id="Fill-22" class="st3" d="M117.1,95.6c0.1,0,0.1,0,0.2-0.1c0.2-0.1,0.3-0.3,0.3-0.5c-0.1-0.3-1.3-7-9.2-11.4l-6.1-3.5
		c-0.2-0.1-0.5-0.1-0.6,0.2c-0.1,0.2-0.1,0.5,0.1,0.6l0,0l0,0l6.1,3.5c3.8,2,6.7,5.3,8.3,9.3c-8.4-7-19.8-9.1-20-9.1
		c-0.2-0.1-0.5,0.1-0.5,0.4l0,0l0,0c0,0.2,0.1,0.5,0.4,0.5l0,0l0,0c0.1,0,12.5,2.3,20.8,10C116.9,95.6,117,95.6,117.1,95.6"/>
	<path id="Fill-23" class="st3" d="M111.1,104.4c0.1,0,0.2,0,0.3-0.1c0.2-0.1,0.2-0.3,0.2-0.5c0-0.1-4.1-10.2-15.1-19
		c-0.2-0.2-0.5-0.1-0.7,0.1s-0.2,0.4,0,0.6l0,0c5.8,4.6,10.6,10.4,14.1,17l-13-10.2c-0.2-0.2-0.5-0.1-0.7,0.1s-0.2,0.4,0,0.6l0,0
		l0,0l14.6,11.5c0.1,0.1,0.2,0.1,0.3,0.1"/>
	<path id="Fill-24" class="st3" d="M85.9,69.7c1.7,0.1,3,1.5,2.9,3.2s-1.5,3-3.2,2.9c-1.6-0.1-2.9-1.4-2.9-3.1
		C82.8,71,84.2,69.6,85.9,69.7z M85.9,76.7c2.2-0.1,3.8-2,3.7-4.1s-2-3.8-4.1-3.7c-2.1,0.1-3.7,1.8-3.7,3.9
		C81.8,75,83.7,76.7,85.9,76.7z"/>
	<path id="Fill-25" class="st3" d="M83.2,72.7c-0.1,1.5,1.1,2.8,2.6,2.8c1.5,0.1,2.8-1.1,2.8-2.6c0.1-1.5-1.1-2.8-2.5-2.8H86
		C84.5,70.1,83.3,71.2,83.2,72.7L83.2,72.7L83.2,72.7"/>
	<path id="Fill-26" class="st3" d="M139.2,23c8.9,3.1,20.8,8.8,21,23.1c0.1,8.1-3.3,15.6-9.1,20c-5.2,3.9-11.7,5.1-18.8,3.6
		C116.1,66,101.7,49.9,100.8,39c-0.3-3.5,1.5-10.6,7.8-15.1C115.6,18.9,126.2,18.5,139.2,23z M138.4,71.3c4.9,0.1,9.6-1.5,13.5-4.4
		c6-4.6,9.5-12.3,9.4-20.7c-0.2-16.6-16.3-22.2-21.6-24c-16.9-5.8-26.5-2.6-31.6,1c-6.5,4.7-8.5,12.3-8.2,15.9
		c1,11.2,15.6,27.7,32.4,31.4C134.2,71,136.3,71.3,138.4,71.3L138.4,71.3z"/>
	<path id="Fill-27" class="st3" d="M-6,219.2c-0.3-0.8-0.1-1.7,0.5-2.4c0.9-1.3,1.7-2.6,2.6-3.8c0.2-0.3,0.5-0.7,0.9-0.5
		c0.3,0.2,0.4,0.6,0.3,1C-2.6,215.8-4.1,217.8-6,219.2"/>
	<path id="Fill-28" class="st3" d="M-17.4,233.1c1.3-1.5,2.7-3.1,4.1-4.6c0.2-0.1,0.5-0.1,0.7-0.1c0.2,0.2,0.2,0.4,0.2,0.6
		c-0.9,2.3-2.9,3.5-4.8,5C-17.4,233.5-17.5,233.1-17.4,233.1"/>
	<path id="Fill-29" class="st3" d="M50.1,181.9c0.1,0.3,0.1,0.6,0.1,0.9L50.1,181.9L50.1,181.9"/>
	<path id="Fill-30" class="st3" d="M52.1,189.1l-4.8,2.5l3-8.8C50.7,185,51.3,187.1,52.1,189.1"/>
	<path id="Fill-31" class="st3" d="M87.4,158.6c-0.3,0.1-0.5,0.4-0.5,0.7C87.2,159.2,87.4,158.9,87.4,158.6z M79.6,163.5
		c1.3-2.1,3-4.1,4.8-5.7c3.3-3.1,6.6-6.2,10-9.1c1.8-1.5,3.4-3.3,4.7-5.3c1.8-2.9,4.2-5.4,6.9-7.5c2-1.6,3.8-3.3,5.6-5.1
		c1.2-1.1,2.2-2.3,3.3-3.4c0.5-0.6,1.2-1,1.9-1c-2.7,4.3-6.2,8-10.2,11.1c-2.4,1.8-4.5,4.1-6.1,6.6c-1.9,3.1-4.3,5.9-7.1,8.3
		c-2.2,1.8-4.2,3.9-6.1,6.1c0.6,0.1,1.2-0.1,1.7-0.5c2.3-1.4,4.7-2.7,6.8-4.2c6.7-4.7,13.1-9.6,19.9-14.2c7.6-5.1,14.1-11.7,19-19.4
		c2-3.1,4.3-6,6.9-8.6c3.6-3.7,7.4-7.2,11.5-10.4c4.5-3.6,8.8-7.3,13.3-10.8c4.3-3.3,8.6-6.7,12.9-10.1c1.2-1,2.3-1.2,2.4-0.6
		c0.1,0.9-0.6,1.4-1.2,1.9c-0.4,0.4-0.8,0.7-1.2,1c-7.7,6.2-15.3,12.4-23,18.5c-8.8,7-16.7,14.7-22.6,24.2c-0.9,1.3-1.8,2.6-2.8,3.8
		c-4.1,4.7-8.8,8.9-14,12.3c-2.6,1.8-5.2,3.8-7.7,5.7c-0.4,0.3-1,0.5-0.4,1.3c2.6-0.7,5-1.8,7.2-3.3c2.8-2,6.1-3.5,9.5-4.4
		c3.7-0.9,6.9-3.1,9-6.2c1.5-2.1,3.2-3.9,5.3-5.3c2.6-1.8,4.9-4.1,6.7-6.7c0.8-1.1,1.6-2.1,2.5-3.1c1.6-2.1,3.8-3.8,6.3-4.8
		c0.6-0.2,1.2-0.5,1.7-1c4-3.5,8.8-6.1,13-9.3c0.7-0.5,1.4-1.3,2.5-1.1c-0.3,1.1-1.3,1.6-2.1,2.3c-1.4,1.2-2.9,2.4-4.4,3.5
		c-4,2.7-7.3,6.2-11.7,8.3c-1.3,0.7-2.4,1.7-3.3,2.9c-1,1.3-2,2.4-2.9,3.7c-1.6,2.3-3.5,4.3-5.7,6.1c-2.7,2.1-5.2,4.5-7.3,7.3
		c-2,2.9-5.1,4.9-8.5,5.5c-3.2,0.7-6.2,2-8.8,3.9c-3.2,2.2-6.8,3.9-10.6,4.9c-1.7,0.4-3.3,1.2-4.7,2.2c-2.2,1.6-4.3,3.1-6.5,4.7
		c-7.7,5.8-15.6,11.1-22.7,17.6c-0.2,0.2-0.5,0.4-0.7,0.6c1.7-3.2,3.3-6.7,5-10.4C78.4,165.3,79.1,164.4,79.6,163.5L79.6,163.5z"/>
	<path id="Fill-32" class="st3" d="M-5.9,224.4c-0.1-0.4,0.4-0.9,0.7-1.3c0.6-0.7,1.2-1.4,1.9-2c4.2-4.6,8.3-9.2,10.7-14.9
		c0.8-1.9,2.2-3.4,4-4.3c1.9-1,3.5-2.4,4.7-4.2c0.8-1.2,1.9-2.2,3.3-2.8c3.2-1.4,6-3.5,9.4-4.6c1.7-0.5,3.2-1.4,4.3-2.8l2.4-0.6
		c0.2,0.5,0.3,0.9,0.4,1.2c-0.1,0.7-0.1,1.3-0.2,2l0.4-0.2c-0.2,2.8-0.3,5.5-0.4,8l-0.6,0.3v0.3l-3.7,2c-0.1,0.1-0.3,0.1-0.4,0.2
		c-1.4,1.2-2.9,2.3-4.3,3.6c-1.8,1.6-3.7,3-5.9,4.1c-2.4,1.2-4.9,2.3-6.4,4.6c-0.4,0.5-0.9,1-1.5,1.2c-1.1,0.5-2.1,1.2-2.9,2.1
		c-1.9,1.9-4.1,3.4-6.5,4.6c-2.8,1.4-5.4,3-7.2,5.5c-0.8,1.2-2,2.1-3.4,2.5C-6.4,227.2-5.5,226-5.9,224.4"/>
	<path id="Fill-33" class="st3" d="M113.1,79.1L113.1,79.1c7.2-1.5,12.5-7.2,13.5-14.4c0-0.2-0.2-0.5-0.4-0.5l0,0l0,0
		c-0.3,0-0.5,0.2-0.5,0.4c0,0.4-1.1,10.9-12.7,13.6c-0.2,0.1-0.4,0.3-0.3,0.5l0,0l0,0C112.7,78.9,112.8,79.1,113.1,79.1"/>
	<path id="Fill-34" class="st4" d="M50.4,200.6c0.9,0,1.7-0.7,1.7-1.6l0,0v-2.4c-0.2-0.9-1.1-1.6-2-1.4c-0.7,0.1-1.2,0.7-1.4,1.4
		v2.3C48.7,199.9,49.5,200.6,50.4,200.6L50.4,200.6L50.4,200.6"/>
	<path id="Fill-35" class="st4" d="M50.4,212.4c0.9,0,1.7-0.7,1.7-1.6l0,0V208c-0.2-0.9-1.1-1.6-2-1.4c-0.7,0.1-1.2,0.7-1.4,1.4v2.8
		C48.7,211.7,49.5,212.4,50.4,212.4L50.4,212.4L50.4,212.4"/>
	<path id="Fill-36" class="st4" d="M50.4,227.8c0.9,0,1.7-0.7,1.7-1.6l0,0v-10c-0.2-0.9-1.1-1.6-2-1.4c-0.7,0.1-1.2,0.7-1.4,1.4v10
		C48.7,227.1,49.5,227.8,50.4,227.8L50.4,227.8L50.4,227.8"/>
	<path id="Fill-37" class="st5" d="M49.5,199.8c0.9,0,1.7-0.7,1.7-1.6l0,0v-2.4c0-0.2-0.1-0.5-0.2-0.7c0.6,0.2,1,0.8,1,1.5v2.3
		c0,0.9-0.8,1.6-1.7,1.6l0,0l0,0c-0.7,0-1.3-0.4-1.5-1C49,199.7,49.2,199.8,49.5,199.8"/>
	<path id="Fill-38" class="st5" d="M49.5,211.6c0.9,0,1.7-0.7,1.7-1.6v-2.9c0-0.2-0.1-0.5-0.2-0.7c0.6,0.2,1,0.8,1,1.5v2.8
		c0,0.9-0.8,1.6-1.7,1.6l0,0l0,0c-0.7,0-1.3-0.4-1.5-1C49,211.6,49.2,211.6,49.5,211.6"/>
	<path id="Fill-39" class="st5" d="M49.5,227c0.9,0,1.7-0.7,1.7-1.6l0,0v-10c0-0.2-0.1-0.5-0.2-0.7c0.6,0.2,1,0.8,1,1.5v10
		c0,0.9-0.8,1.6-1.7,1.6l0,0l0,0c-0.7,0-1.3-0.4-1.5-1C49,226.9,49.2,227,49.5,227"/>
</g>
<g>
	<text transform="matrix(1 0 0 1 127.2769 50.0972)" class="st6 st7 st8">pa</text>
	<text transform="matrix(1 0 0 1 148.0664 50.0972)" class="st6 st7 st8">r</text>
	<text transform="matrix(1 0 0 1 158.1841 50.0972)" class="st6 st7 st8">t</text>
	<text transform="matrix(1 0 0 1 167.4448 50.0972)" class="st6 st7 st8">a</text>
	<text transform="matrix(1 0 0 1 177.3115 50.0972)" class="st6 st9 st8">yyyyyyyy</text>
</g>
</svg>
