<svg id="Layer_1" data-name="Layer 1" xmlns="http://www.w3.org/2000/svg" viewBox="0 0 960 860"><defs><style>.cls-1{fill:#ee509a;stroke:#000;stroke-miterlimit:10;}.cls-2{fill:#fffffe;}.cls-3{fill:#f3e8e2;}.cls-4{fill:#3d1717;}.cls-5{fill:#f5cac0;}.cls-6{fill:#ec98a0;}.cls-7{isolation:isolate;}.cls-8{fill:#f8e71c;}.cls-9{fill:none;}</style></defs><title>Artboard 1</title><rect class="cls-1" x="-8.93" y="-232.24" width="973.1" height="1125.77"/><g id="white-raven"><path id="Fill-5" class="cls-2" d="M36.1,216.39s-16.4-43.3,3.7-91.7c8.1-19.5,17-26.7,25.2-27,0,0,12.9-20.5,31.5-4.7,5.4,4.6,6.6,9.7,5.7,14.6h0l.1.7,5.9,3.3c7.8,4.4,9,11.1,9,11.1-5.4-5-12.4-7.7-16.8-9l-.5.9h0l-.4.9c8.6,8.1,11.7,16,11.7,16l-14.7-11.3-4.1,4.6v.1c8,21.2-26.9,112.2-38.8,94.8a24.94,24.94,0,0,1-3.3-9.1l-8.8,26c-6.5,19.5-6.9,3.9-5.4-20.2h0"/><path id="Fill-6" class="cls-3" d="M55.6,140.69s-5,24.3-6.2,45.5-5-13.3-.7-28.9,6.9-16.6,6.9-16.6"/><path id="Fill-7" class="cls-3" d="M42.9,143.89,36,217.39s-2.5-74.5,6.9-73.5"/><path id="Fill-8" class="cls-3" d="M49.1,192.09l.2,10.9.4,2.8s6,6.9,23.7-39.6,0-65.9,0-65.9l3.2,1.6,5.3,5,4.7,6.4-.4-.7c12.2-6,9.1-20.4,9.1-20.4l1,.8c5.4,4.6,6.6,9.7,5.7,14.6h0l.1.7,1.9,1.1c5.7,3.9,12.9,13,12.9,13s.1.2.1.3c-5.4-5-12.4-7.7-16.8-9l-.4.9h0l-.4.9a55,55,0,0,1,9,10.9c-7.2-6.4-16.8-14.4.3,3.2l-12.2-9.5-4.1,4.6h0c8,21.2-26.9,112.2-38.8,94.8a24.94,24.94,0,0,1-3.3-9.1l-8.8,26c-4.1,12.5-5.7,10.6-6.1,1.4,3.3,10.5,13.7-45.7,13.7-45.7"/><path id="Fill-9" class="cls-3" d="M85.9,104.59a3.65,3.65,0,0,0,3.7-3.5,3.06,3.06,0,0,0-.7-2,3.22,3.22,0,0,1,1.5,2.8,3.65,3.65,0,0,1-3.7,3.5,3.56,3.56,0,0,1-3-1.5,3.81,3.81,0,0,0,2.2.7"/><path id="Fill-10" class="cls-4" d="M57.2,222.19a4.65,4.65,0,0,0,2.3-.6c5.2-2.4,14.8-15.4,24.9-44.1,6.3-18.1,12.3-42.7,8.5-52.9-4.9-13-15.5-27.1-27.2-27.3h-.3c-9.8,0-18.6,9.2-26.1,27.3-20,47.9-3.8,91.5-3.7,92,.1.2.4.4.6.3s.4-.3.3-.5h0c-.2-.4-16.2-43.7,3.6-91.4,7.3-17.5,16-26.7,25.2-26.7h.2c11.5.1,21.8,13.9,26.5,26.6,3.1,8.2-.3,28.7-8.5,52.3-8,23-17.8,40.6-24.4,43.6-2.1,1-3.7.5-5.1-1.5-4.5-6.6-5.6-21.5-3.3-44.1,0-.2-.2-.5-.4-.5h0c-.2,0-.5.1-.5.4-2.4,22.8-1.2,37.8,3.4,44.7a4.71,4.71,0,0,0,4,2.4"/><path id="Fill-11" class="cls-4" d="M50.9,170.09a.66.66,0,0,0,.5-.4c.1-1,.3-2,.4-3,0-.2-.1-.5-.4-.5h0c-.3,0-.5.1-.5.4-.1,1-.3,2-.4,3-.1.3.1.5.4.5h0"/><path id="Fill-12" class="cls-4" d="M52,162.09a.66.66,0,0,0,.5-.4c.2-1.5.4-2.9.7-4.3,0-.2-.1-.5-.4-.5h0c-.2,0-.5.1-.5.4-.2,1.4-.4,2.9-.6,4.3-.2.2,0,.4.3.5h0"/><path id="Fill-13" class="cls-4" d="M53.8,151a.66.66,0,0,0,.5-.4l.3-1.5c0-.2-.1-.5-.4-.5s-.5.1-.5.4l-.3,1.5c-.2.2,0,.4.4.5h0"/><path id="Fill-14" class="cls-4" d="M54.8,145.39a.51.51,0,0,0,.5-.4c.4-2,.7-3.8,1-5.4,0-.2-.1-.5-.4-.5h0c-.2,0-.5.1-.5.4-.3,1.6-.7,3.4-1,5.4-.1.2,0,.4.4.5h0"/><path id="Fill-15" class="cls-4" d="M56.5,136.29a.51.51,0,0,0,.5-.4c.3-1.4.5-2.2.5-2.2,0-.2-.1-.5-.4-.5h0c-.2-.1-.5.1-.6.3,0,0-.2.8-.5,2.2a.6.6,0,0,0,.5.6h0"/><path id="Fill-16" class="cls-4" d="M37,245.79c1,0,2.3-1.4,4.8-9.2l8.8-26c.1-.2-.1-.5-.3-.6h0c-.2-.1-.5.1-.6.3l-8.8,26c-2.8,8.7-3.9,8.5-4,8.5-.7-.1-3.7-4.5,3.9-78.6,0-.2-.2-.5-.4-.5h0c-.2,0-.5.2-.5.4-8.2,78.6-4.4,79.3-3.2,79.6l.3.1"/><path id="Fill-17" class="cls-4" d="M41.3,159a.66.66,0,0,0,.5-.4c.2-1.7.4-3.3.5-4.9a.45.45,0,1,0-.9-.1h0c-.2,1.5-.3,3.2-.5,4.9-.1.2.1.4.4.5h0"/><path id="Fill-18" class="cls-4" d="M42.4,148.79a.66.66,0,0,0,.5-.4c.6-5.5,1-8.8,1-8.8,0-.2-.2-.5-.4-.5h0c-.3,0-.5.1-.5.4h0s-.4,3.3-1,8.8c-.1.2.1.4.4.5h0"/><path id="Fill-19" class="cls-4" d="M92.4,125.19a.37.37,0,0,0,.3-.1,30.71,30.71,0,0,0,4.1-4.7c.1-.2.1-.5-.1-.6h0c-.2-.1-.5-.1-.6.1a34.7,34.7,0,0,1-4,4.6.37.37,0,0,0,0,.6h0a1,1,0,0,1,.3.1"/><path id="Fill-20" class="cls-4" d="M99.3,116a.52.52,0,0,0,.4-.2l.1-.1c.3-.5.6-1.1.9-1.7a.48.48,0,0,0-.2-.6h0a.48.48,0,0,0-.6.2,8,8,0,0,1-.8,1.6l-.1.1a.59.59,0,0,0,.3.7h0c-.1-.1,0-.1,0,0"/><path id="Fill-21" class="cls-4" d="M102,108.69a.51.51,0,0,0,.5-.4q1.95-9.15-5.7-15.6C91.2,88,85.6,86,80.1,86.79c-9.5,1.4-15.2,10.3-15.5,10.7-.1.2-.1.5.1.6h0c.2.1.5.1.6-.1s5.8-9,14.8-10.3c5.2-.8,10.6,1.2,16,5.7,4.8,4.1,6.6,8.9,5.4,14.7,0,.2.1.5.4.5l.1.1"/><path id="Fill-22" class="cls-4" d="M117.1,123.19c.1,0,.1,0,.2-.1a.55.55,0,0,0,.3-.5c-.1-.3-1.3-7-9.2-11.4l-6.1-3.5a.4.4,0,0,0-.6.2c-.1.2-.1.5.1.6h0l6.1,3.5a18,18,0,0,1,8.3,9.3c-8.4-7-19.8-9.1-20-9.1s-.5.1-.5.4h0c0,.2.1.5.4.5h0c.1,0,12.5,2.3,20.8,10,0,.1.1.1.2.1"/><path id="Fill-23" class="cls-4" d="M111.1,132a.37.37,0,0,0,.3-.1c.2-.1.2-.3.2-.5s-4.1-10.2-15.1-19a.49.49,0,0,0-.7.1.37.37,0,0,0,0,.6h0a53.93,53.93,0,0,1,14.1,17l-13-10.2a.49.49,0,0,0-.7.1.38.38,0,0,0,0,.6h0l14.6,11.5a.37.37,0,0,0,.3.1"/><path id="Fill-24" class="cls-4" d="M85.9,97.29a3.05,3.05,0,1,1-.3,6.1,3.08,3.08,0,0,1-2.9-3.1A3.12,3.12,0,0,1,85.9,97.29Zm0,7a3.91,3.91,0,0,0,3.7-4.1,4,4,0,0,0-4.1-3.7,3.87,3.87,0,0,0-3.7,3.9A4,4,0,0,0,85.9,104.29Z"/><path id="Fill-25" class="cls-4" d="M83.2,100.29a2.7,2.7,0,1,0,2.9-2.6H86a2.76,2.76,0,0,0-2.8,2.6h0"/><path id="Fill-26" class="cls-4" d="M139.2,50.59c8.9,3.1,20.8,8.8,21,23.1.1,8.1-3.3,15.6-9.1,20-5.2,3.9-11.7,5.1-18.8,3.6-16.2-3.7-30.6-19.8-31.5-30.7-.3-3.5,1.5-10.6,7.8-15.1C115.6,46.49,126.2,46.09,139.2,50.59Zm-.8,48.3a21.84,21.84,0,0,0,13.5-4.4c6-4.6,9.5-12.3,9.4-20.7-.2-16.6-16.3-22.2-21.6-24-16.9-5.8-26.5-2.6-31.6,1-6.5,4.7-8.5,12.3-8.2,15.9,1,11.2,15.6,27.7,32.4,31.4a24.27,24.27,0,0,0,6.1.8Z"/><path id="Fill-29" class="cls-4" d="M50.1,209.49a2.77,2.77,0,0,1,.1.9l-.1-.9h0"/><path id="Fill-30" class="cls-4" d="M52.1,216.69l-4.8,2.5,3-8.8a32.64,32.64,0,0,0,1.8,6.3"/><path id="Fill-31" class="cls-4" d="M87.4,186.19a.75.75,0,0,0-.5.7A.75.75,0,0,0,87.4,186.19Zm-7.8,4.9a26.4,26.4,0,0,1,4.8-5.7c3.3-3.1,6.6-6.2,10-9.1a23.83,23.83,0,0,0,4.7-5.3,29,29,0,0,1,6.9-7.5,67.74,67.74,0,0,0,5.6-5.1c1.2-1.1,2.2-2.3,3.3-3.4a2.58,2.58,0,0,1,1.9-1,43.15,43.15,0,0,1-10.2,11.1,25.54,25.54,0,0,0-6.1,6.6,35.13,35.13,0,0,1-7.1,8.3,50.21,50.21,0,0,0-6.1,6.1,2.16,2.16,0,0,0,1.7-.5c2.3-1.4,4.7-2.7,6.8-4.2,6.7-4.7,13.1-9.6,19.9-14.2a66.28,66.28,0,0,0,19-19.4,52,52,0,0,1,6.9-8.6,113.61,113.61,0,0,1,11.5-10.4c4.5-3.6,8.8-7.3,13.3-10.8,4.3-3.3,8.6-6.7,12.9-10.1,1.2-1,2.3-1.2,2.4-.6.1.9-.6,1.4-1.2,1.9a10.59,10.59,0,0,1-1.2,1c-7.7,6.2-15.3,12.4-23,18.5-8.8,7-16.7,14.7-22.6,24.2-.9,1.3-1.8,2.6-2.8,3.8a68.31,68.31,0,0,1-14,12.3c-2.6,1.8-5.2,3.8-7.7,5.7-.4.3-1,.5-.4,1.3a23.56,23.56,0,0,0,7.2-3.3,29.46,29.46,0,0,1,9.5-4.4,15.15,15.15,0,0,0,9-6.2,20.54,20.54,0,0,1,5.3-5.3,26.66,26.66,0,0,0,6.7-6.7A37.62,37.62,0,0,1,149,147a15,15,0,0,1,6.3-4.8,4.25,4.25,0,0,0,1.7-1c4-3.5,8.8-6.1,13-9.3.7-.5,1.4-1.3,2.5-1.1-.3,1.1-1.3,1.6-2.1,2.3-1.4,1.2-2.9,2.4-4.4,3.5-4,2.7-7.3,6.2-11.7,8.3a10.18,10.18,0,0,0-3.3,2.9c-1,1.3-2,2.4-2.9,3.7a29.94,29.94,0,0,1-5.7,6.1,38.82,38.82,0,0,0-7.3,7.3,13.2,13.2,0,0,1-8.5,5.5,23.29,23.29,0,0,0-8.8,3.9,34.15,34.15,0,0,1-10.6,4.9,13.51,13.51,0,0,0-4.7,2.2l-6.5,4.7c-7.7,5.8-15.6,11.1-22.7,17.6-.2.2-.5.4-.7.6,1.7-3.2,3.3-6.7,5-10.4a21.19,21.19,0,0,0,2-2.8Z"/><path id="Fill-32" class="cls-4" d="M-5.9,252c-.1-.4.4-.9.7-1.3a18,18,0,0,1,1.9-2c4.2-4.6,8.3-9.2,10.7-14.9a8.4,8.4,0,0,1,4-4.3,12.66,12.66,0,0,0,4.7-4.2,7.54,7.54,0,0,1,3.3-2.8c3.2-1.4,6-3.5,9.4-4.6a8.32,8.32,0,0,0,4.3-2.8l2.4-.6c.2.5.3.9.4,1.2-.1.7-.1,1.3-.2,2l.4-.2c-.2,2.8-.3,5.5-.4,8l-.6.3v.3l-3.7,2c-.1.1-.3.1-.4.2-1.4,1.2-2.9,2.3-4.3,3.6a27.05,27.05,0,0,1-5.9,4.1c-2.4,1.2-4.9,2.3-6.4,4.6a3.49,3.49,0,0,1-1.5,1.2,8.64,8.64,0,0,0-2.9,2.1,24.73,24.73,0,0,1-6.5,4.6A18.75,18.75,0,0,0-3.7,254a6.12,6.12,0,0,1-3.4,2.5c.7-1.7,1.6-2.9,1.2-4.5"/><path id="Fill-33" class="cls-4" d="M113.1,106.69h0a17,17,0,0,0,13.5-14.4c0-.2-.2-.5-.4-.5h0a.46.46,0,0,0-.5.4,15.91,15.91,0,0,1-12.7,13.6c-.2.1-.4.3-.3.5h0a.37.37,0,0,0,.4.4"/><path id="Fill-34" class="cls-5" d="M50.4,228.19a1.67,1.67,0,0,0,1.7-1.6h0v-2.4a1.77,1.77,0,0,0-2-1.4,1.82,1.82,0,0,0-1.4,1.4v2.3a1.69,1.69,0,0,0,1.7,1.7h0"/><path id="Fill-35" class="cls-5" d="M50.4,240a1.67,1.67,0,0,0,1.7-1.6h0v-2.8a1.77,1.77,0,0,0-2-1.4,1.82,1.82,0,0,0-1.4,1.4v2.8a1.67,1.67,0,0,0,1.7,1.6h0"/><path id="Fill-36" class="cls-5" d="M50.4,255.39a1.67,1.67,0,0,0,1.7-1.6h0v-10a1.77,1.77,0,0,0-2-1.4,1.82,1.82,0,0,0-1.4,1.4v10a1.67,1.67,0,0,0,1.7,1.6h0"/><path id="Fill-37" class="cls-6" d="M49.5,227.39a1.67,1.67,0,0,0,1.7-1.6h0v-2.4a1.85,1.85,0,0,0-.2-.7,1.54,1.54,0,0,1,1,1.5v2.3a1.67,1.67,0,0,1-1.7,1.6h0a1.54,1.54,0,0,1-1.5-1,.91.91,0,0,0,.7.3"/><path id="Fill-38" class="cls-6" d="M49.5,239.19a1.67,1.67,0,0,0,1.7-1.6v-2.9a1.85,1.85,0,0,0-.2-.7,1.54,1.54,0,0,1,1,1.5v2.8a1.67,1.67,0,0,1-1.7,1.6h0a1.54,1.54,0,0,1-1.5-1c.2.3.4.3.7.3"/><path id="Fill-39" class="cls-6" d="M49.5,254.59a1.67,1.67,0,0,0,1.7-1.6h0V243a1.85,1.85,0,0,0-.2-.7,1.54,1.54,0,0,1,1,1.5v10a1.67,1.67,0,0,1-1.7,1.6h0a1.54,1.54,0,0,1-1.5-1,1.45,1.45,0,0,0,.7.2"/></g><g class="cls-7"><g class="cls-7"><path class="cls-8" d="M224,58.81l.57,7.94,4-7.94h5.14l-7.92,14-.12.21L223.45,83.4h-4.82l2.18-10.32,0-.2-1.92-14.07Zm-4,.95,1.75,12.76.07.37-2,9.56h2.91l2-9.55.22-.37,7.18-12.77h-3.06l-5.24,10.46-.76-10.46Z"/><path class="cls-8" d="M239.91,58.81l.58,7.94,4-7.94h5.14l-7.92,14-.12.21L239.38,83.4h-4.83l2.19-10.32,0-.2-1.93-14.07Zm-4,.95,1.75,12.76.07.37-2,9.56h2.92l2-9.55.22-.37,7.18-12.77H245l-5.24,10.46L239,59.76Z"/><path class="cls-8" d="M255.84,58.81l.58,7.94,4-7.94h5.15l-7.92,14-.12.21L255.31,83.4h-4.83l2.19-10.32,0-.2L250.7,58.81Zm-4,.95,1.75,12.76.07.37-2,9.56h2.91l2-9.55.22-.37L264,59.76h-3.07l-5.23,10.46-.77-10.46Z"/></g><g class="cls-7"><path class="cls-8" d="M271.13,59.08l.64,8.67,4.34-8.67h4.54L273,72.77l-.15.26-2.15,10.1h-4.28L268.52,73l-.06-.26-1.87-13.69Zm-4.05.41,1.79,13.14.07.31-2.08,9.78h3.46l2.08-9.78.19-.31L280,59.49h-3.66l-4.87,9.74-.71-9.74Z"/><path class="cls-8" d="M286.28,59.08l.64,8.67,4.34-8.67h4.53L288.1,72.77,288,73l-2.15,10.1h-4.28L283.67,73l-.06-.26-1.87-13.69Zm-4,.41L284,72.63l.07.31L282,82.72h3.46l2.08-9.78.19-.31,7.4-13.14h-3.67l-4.86,9.74-.71-9.74Z"/><path class="cls-8" d="M301.43,59.08l.64,8.67,4.33-8.67h4.54l-7.69,13.69-.15.26L301,83.13h-4.28L298.82,73l-.06-.26-1.87-13.69Zm-4.05.41,1.79,13.14.07.31-2.08,9.78h3.46l2.08-9.78.19-.31,7.4-13.14h-3.67l-4.86,9.74L301,59.49Z"/><path class="cls-8" d="M316.58,59.08l.64,8.67,4.33-8.67h4.54l-7.7,13.69-.15.26-2.14,10.1h-4.28L314,73l0-.26L312,59.08Zm-4.05.41,1.79,13.14.07.31-2.08,9.78h3.46l2.08-9.78.19-.31,7.4-13.14h-3.67l-4.87,9.74-.71-9.74Z"/><path class="cls-8" d="M331.72,59.08l.65,8.67,4.33-8.67h4.54l-7.7,13.69-.15.26-2.14,10.1H327L329.11,73l-.05-.26-1.87-13.69Zm-4,.41,1.79,13.14.07.31-2.08,9.78h3.46L333,72.94l.19-.31,7.39-13.14h-3.66l-4.87,9.74-.71-9.74Z"/></g></g><rect class="cls-9" x="129.95" y="58.88" width="116.8" height="37.7"/><g class="cls-7"><path class="cls-8" d="M132.15,80.54l4.44-2-.34,1.57-4.43,2Zm.56-2.58L137,76.59l-.29,1.35-4.43,2Zm-.24,4.41,3.65-1.64-.35,1.64Zm.73-6.74,4.37-1.73L137.12,76l-4.29,1.36Zm.7-3.28L145.29,69c-.6,1.39-2,2.38-4.13,3a11,11,0,0,1-2.68.26h-.56l-.22,1L133.32,75Zm.61-2.88,4.25-1.16-.13.64h.82a4.62,4.62,0,0,0,1.05-.08,1.93,1.93,0,0,0,1.38-1.55l0,.14,4.26-1.16-.22,1a5.19,5.19,0,0,1-.33,1.1L134,71.78Zm.36-1.71,4.36-1.68-.34,1.65-4.26,1.16Zm.28-1.31L139.68,64l-.31,1.49L135,67.17Zm6.23-4.32h-1.3l-.26,1.23-4.53,2.44.59-2.77,6.15-4.2h.44c1.86,0,3.06.39,3.61,1.14L142,62.19A1.9,1.9,0,0,0,141.38,62.13Zm-4.61-3.3h4.39L136,62.33Zm5.63,6,4.36-1.68-.12.6-.41,1.95L142,66.88Zm.23-1.08a3.86,3.86,0,0,0,.11-.84c0-.27-.06-.43-.19-.49l3.83-2.06a2.74,2.74,0,0,1,.46,1.68c0,.17,0,.35,0,.53l-4.28,1.67Z"/><path class="cls-8" d="M148.36,82.37h-4l4.3-.78ZM144.82,81l4.54-1.42L148.85,81l-4.3.78ZM154,77.37h-3.82L149.58,79,145,80.43l.34-.94,12.89-6.25,0,.81-.14,2.32L154,77.66Zm-7.67-.53,6-2.78h1.87l.08-.9,4.08-1.9-.06,1.41-12.67,6.14Zm.56-1.52L151.75,73l-.37,1.08h-.26l-4.52,2.11Zm.45-1.23.4-1,4.93-2.79-.71,2-4.83,2.34Zm1.54-4,4.79-2.79-.77,2.25L148,72.34Zm5.83-5.89-.81,2.38-4.71,2.76.88-2.25Zm.26-.75-4.6,2.86.48-1.19L158,58.83h.8l-.07,2.34-3.58,2.23,0-.44Zm-2.79-1.72,3.43-2.93h1.61l-6,5.32Zm1.13-2.93h1.54l-2.32,2Zm.37,23.54.13-2.06L158,79.15l-.06.79-3.6,2.43ZM154,78.2l4.13-1.28L158,78.6l-4.13,1.16Zm.45-6.49,4-1.91,0,.9-4.06,1.88Zm.21-2.53L158.49,67l-.08,2.23-4,1.92Zm.22-2.53,3.74-2.19-.06,2-3.85,2.17Zm.23-2.64,3.61-2.24-.07,2.11L154.9,66Zm2.68,18.36h-2.57l2.68-1.81Z"/><path class="cls-8" d="M164.07,82.37h-4l.1-.43,4.18-.82Zm-3.46-2.55,4.23-1-.39,1.77-4.17.82Zm.44-2.09,4.28-1.28L165,78.22l-4.23,1Zm.45-2.12,4.27-1.19-.32,1.46-4.28,1.27ZM167,72h-.73l-.38,1.83L161.62,75l.58-2.66,11.21-3.05a5,5,0,0,1-3.15,2.08l.21,1.16-3.35.93Zm-4.21-2.45L167,68.39l-.11.56h.82a4.62,4.62,0,0,0,1.05-.08,1.8,1.8,0,0,0,1.34-1.34l4.25-1.18-.2,1a5.58,5.58,0,0,1-.45,1.38l-11.42,3.09Zm.34-1.6,4.25-1.14-.22,1L162.91,69Zm.54-2.55L168,64l-.47,2.21-4.25,1.15Zm6-3.28h-1.3l-.29,1.32-4.29,1.38.19-.94,9.54-4.54A2.44,2.44,0,0,1,175,61.24l-4.2,1.34C170.71,62.28,170.32,62.13,169.68,62.13Zm-5.16-.74,4.19-2.56h2.06a6,6,0,0,1,2.16.25l-8.81,4.19Zm.55-2.56h2.69l-3.09,1.89ZM167.17,74l3.39-1,.22,1.25-3.5,1Zm.17,1.86,3.54-1,.35,1.88-3.73.91Zm.2,2.27,3.79-.91.36,1.89-4,.79Zm.19,2.29,4.05-.79.14.79-4.08,1.14Zm4.54,1.94h-4.36l0-.27L172,81ZM170.47,66l4.25-1.16-.2,1L170.26,67Zm.46-2.2a3.09,3.09,0,0,0,.1-.62.78.78,0,0,0,0-.09l4.1-1.32a3,3,0,0,1,0,.44,7.61,7.61,0,0,1-.2,1.59l-.1.46-4.25,1.16Z"/><path class="cls-8" d="M180.35,82.37h-4l.2-1,4.23-1Zm-3.28-3.43,4.38-1.72-.56,2.62-4.21,1Zm0-16.81.29-1.4,2.92-1.9H183l-4.94,3.3Zm.44,14.95,4.47-2.16-.37,1.71-4.37,1.72Zm.26-18.25h1.6l-1.86,1.22Zm.42,15.08,4.23-1.07-.32,1.47-4.45,2.16Zm.49-2.35,4.17-.79-.31,1.51-4.24,1.07ZM179,70l4.48-2.28-.53,2.54-4.17.79Zm1.66-7.83H179l4.93-3.3h2.53l-5.93,4Zm-1.29,6.09L184,65.49l-.34,1.56-4.49,2.28Zm.46-2.21,4.58-2.68-.31,1.49-4.6,2.73Zm4.84-3.88-.12.54L180,65.35l.37-1.77,7-4.75H189l-.3,1.42-3.2,1.88Zm3.62,0h-1.82l2.08-1.22Z"/><path class="cls-8" d="M189.24,82.37h-4l4.3-.78ZM185.7,81l4.54-1.42L189.73,81l-4.3.78Zm9.19-3.66h-3.82L190.46,79l-4.54,1.42.34-.94,12.89-6.25,0,.81L199,76.37l-4.13,1.29Zm-7.67-.53,6-2.78h1.87l.08-.9,4.07-1.9,0,1.41-12.67,6.14Zm.56-1.52L192.63,73l-.37,1.08H192l-4.52,2.11Zm.45-1.23.39-1,4.94-2.79-.71,2L188,74.65Zm1.54-4,4.79-2.79-.77,2.25-4.88,2.76Zm5.83-5.89-.81,2.38-4.72,2.76.89-2.25Zm.26-.75-4.6,2.86.48-1.19,7.11-6.32h.79l-.06,2.34L196,63.4l0-.44Zm-2.79-1.72,3.43-2.93h1.61l-6,5.32Zm1.13-2.93h1.53l-2.31,2Zm.37,23.54.13-2.06,4.12-1.16,0,.79-3.6,2.43Zm.26-4.17L199,76.92l-.09,1.68-4.13,1.16Zm.45-6.49,4-1.91,0,.9-4.06,1.88Zm.21-2.53L199.37,67l-.08,2.23-4,1.92Zm.22-2.53,3.74-2.19-.07,2-3.84,2.17Zm.23-2.64,3.61-2.24-.07,2.11L195.78,66Zm2.68,18.36h-2.57l2.68-1.81Z"/><path class="cls-8" d="M207.45,82.37h-4l.24-1.17,4.16-.71Zm-3.8-23.54h1.59l-1.43,1.22ZM204.16,79l4.37-1.69L208,79.94l-4.16.71Zm-.26-18.39,2.1-1.79h1.86l0,.56-3.75,3ZM208,62.4l-3.6,2.15L204.22,63l3.7-3Zm-3.4,14.38L209,75.14l-.33,1.59-4.37,1.69Zm-.12-11.7L208.05,63l0,1.07-3.51,1.53Zm.14,1,3.47-1.5,0,1-3.41,1.15Zm.46,8.46,4.27-1.24-.26,1.24-4.36,1.64Zm3.15-6.22-3.15,1.15-.3-2.17,3.37-1.14ZM205.18,70l7.28-2.67-1,1.8-6.07,2.24Zm.37,2.46-.05-.3-.06-.29,5.62-2.06-1.33,2.35-.17.29-.06.29L205.24,74Zm3.12-4.28,1.2-2.57,4.39-1.47-1.42,2.51Zm2.23-4.81,5-2.17-1.27,2.27L210.17,65Zm1.38-2.94,2.66-1.6h2.3l-.92,1.64-5.1,2.22Zm.75-1.6h1l-1.33.79Z"/></g></svg>