<svg id="Layer_1" data-name="Layer 1" xmlns="http://www.w3.org/2000/svg" viewBox="0 0 960 860"><defs><style>.cls-1{fill:#ee509a;stroke:#000;stroke-miterlimit:10;}.cls-2{fill:#fffffe;}.cls-3{fill:#f3e8e2;}.cls-4{fill:#3d1717;}.cls-5{fill:#f5cac0;}.cls-6{fill:#ec98a0;}.cls-10,.cls-7,.cls-8,.cls-9{isolation:isolate;}.cls-10,.cls-8,.cls-9{font-size:24px;fill:#f8e71c;font-family:GoboldBoldItalic-Italic, Gobold Bold Italic;font-style:italic;}.cls-9{letter-spacing:-0.04em;}.cls-10{letter-spacing:-0.04em;}</style></defs><title>events</title><rect class="cls-1" x="-9.09" y="-26.38" width="973.13" height="895.2"/><g id="white-raven"><path id="Fill-5" class="cls-2" d="M65.4,284.23s-19-50.05,4.22-105.92c9.39-22.57,19.65-30.9,29.13-31.2,0,0,14.9-23.68,36.36-5.42,6.27,5.33,7.57,11.17,6.58,16.87h0l.1.78,6.79,3.84C157.58,168.27,159,176,159,176c-6.2-5.77-14.34-8.92-19.42-10.45l-.57,1.08h0l-.46,1c9.89,9.32,13.56,18.52,13.56,18.52L135.22,173l-4.72,5.28v.08C139.7,202.83,99.42,308,85.66,287.87a28.45,28.45,0,0,1-3.86-10.5L71.58,307.42C64.2,330,63.65,312,65.4,284.22h0"/><path id="Fill-6" class="cls-3" d="M87.91,196.71s-5.78,28.08-7.15,52.53-5.72-15.4-.84-33.34,8-19.19,8-19.19"/><path id="Fill-7" class="cls-3" d="M73.3,200.46l-8,84.87s-2.88-86.08,8-84.87"/><path id="Fill-8" class="cls-3" d="M80.48,256.11l.23,12.55.42,3.29s6.94,8,27.39-45.74,0-76.14,0-76.14l3.75,1.9,6.16,5.76,5.44,7.44-.41-.8c14.09-6.89,10.52-23.59,10.51-23.61l1.14.93c6.27,5.33,7.57,11.17,6.58,16.87h0l.1.78,2.22,1.25c6.57,4.54,14.85,15,14.87,15a2.59,2.59,0,0,1,.09.4c-6.2-5.77-14.34-8.92-19.42-10.45l-.57,1.08h0l-.46,1a64.53,64.53,0,0,1,10.42,12.65c-8.36-7.35-19.44-16.64.4,3.72l-14.12-11-4.72,5.28v.05h0c9.2,24.5-31.08,129.67-44.84,109.54a28.45,28.45,0,0,1-3.86-10.5L71.58,307.42c-4.71,14.44-6.64,12.29-7,1.64C68.4,321,80.44,256.11,80.44,256.11"/><path id="Fill-9" class="cls-3" d="M123,155a4.15,4.15,0,0,0,4.25-4,3.81,3.81,0,0,0-.8-2.34,4,4,0,0,1,1.78,3.28,4.15,4.15,0,0,1-4.25,4,4.35,4.35,0,0,1-3.46-1.69A4.46,4.46,0,0,0,123,155"/><path id="Fill-10" class="cls-4" d="M89.79,290.94a6.24,6.24,0,0,0,2.68-.66c6-2.8,17.15-17.84,28.73-51,7.29-20.86,14.24-49.38,9.84-61.14-5.63-15-17.87-31.33-31.47-31.55h-.3c-11.3,0-21.44,10.6-30.16,31.54C46.05,233.53,64.7,283.9,64.89,284.4a.54.54,0,0,0,.69.31.49.49,0,0,0,.34-.62.06.06,0,0,0,0,0c-.19-.5-18.69-50.52,4.21-105.55,8.42-20.21,18.5-30.89,29.17-30.89h.26c13.08.21,25,16.15,30.46,30.87,3.55,9.47-.32,33.21-9.84,60.46-9.3,26.63-20.62,46.89-28.18,50.41-2.38,1.11-4.3.53-5.87-1.77-5.22-7.66-6.5-24.79-3.78-50.93a.52.52,0,0,0-.48-.56h0a.54.54,0,0,0-.59.46c-2.74,26.37-1.41,43.73,3.95,51.59a5.52,5.52,0,0,0,4.58,2.79"/><path id="Fill-11" class="cls-4" d="M82.52,230.74a.53.53,0,0,0,.54-.46c.14-1.16.29-2.32.44-3.46a.53.53,0,0,0-.45-.58h0a.56.56,0,0,0-.61.45c-.15,1.15-.29,2.31-.44,3.47a.53.53,0,0,0,.48.58h.06"/><path id="Fill-12" class="cls-4" d="M83.77,221.42a.54.54,0,0,0,.54-.45c.25-1.7.5-3.37.76-5a.53.53,0,0,0-.45-.58h0a.56.56,0,0,0-.62.43c-.25,1.63-.51,3.3-.75,5a.51.51,0,0,0,.43.58h.1"/><path id="Fill-13" class="cls-4" d="M85.82,208.6a.54.54,0,0,0,.53-.43l.3-1.73a.53.53,0,0,0-.44-.6.56.56,0,0,0-.63.43l-.3,1.73a.53.53,0,0,0,.43.6h.11"/><path id="Fill-14" class="cls-4" d="M87,202.13a.54.54,0,0,0,.53-.42c.43-2.34.84-4.44,1.2-6.23a.52.52,0,0,0-.43-.6h0a.54.54,0,0,0-.63.41c-.36,1.8-.76,3.89-1.2,6.24a.53.53,0,0,0,.44.6H87"/><path id="Fill-15" class="cls-4" d="M89.05,191.63a.55.55,0,0,0,.53-.41c.34-1.65.55-2.56.55-2.56a.53.53,0,0,0-.41-.61h0a.56.56,0,0,0-.65.4s-.2.91-.55,2.57a.52.52,0,0,0,.41.6h.13"/><path id="Fill-16" class="cls-4" d="M66.52,318.17c1.13,0,2.64-1.6,5.58-10.59l10.22-30.06a.52.52,0,0,0-.35-.65h0a.57.57,0,0,0-.69.33L71.07,307.27c-3.26,10-4.54,9.87-4.58,9.87-.8-.16-4.33-5.25,4.54-90.85a.52.52,0,0,0-.48-.56h0a.56.56,0,0,0-.59.46c-9.42,90.86-5.1,91.68-3.68,92h.25"/><path id="Fill-17" class="cls-4" d="M71.43,217.83a.53.53,0,0,0,.54-.46c.21-2,.42-3.85.61-5.61a.54.54,0,0,0-1.08-.11c-.19,1.76-.4,3.64-.61,5.61a.52.52,0,0,0,.48.56h.06"/><path id="Fill-18" class="cls-4" d="M72.72,206.05a.53.53,0,0,0,.54-.46c.7-6.31,1.15-10.15,1.15-10.15a.52.52,0,0,0-.47-.57h0a.53.53,0,0,0-.6.45h0s-.46,3.84-1.16,10.15a.52.52,0,0,0,.47.57h.07"/><path id="Fill-19" class="cls-4" d="M130.53,178.83a.54.54,0,0,0,.38-.15,42.36,42.36,0,0,0,4.76-5.43.51.51,0,0,0-.11-.7l0,0a.55.55,0,0,0-.75.13,43.2,43.2,0,0,1-4.63,5.29.48.48,0,0,0,0,.68s0,0,0,0a.55.55,0,0,0,.39.16"/><path id="Fill-20" class="cls-4" d="M138.47,168.13a.55.55,0,0,0,.48-.27l.08-.17a17.63,17.63,0,0,0,1-1.93.5.5,0,0,0-.28-.66h0a.56.56,0,0,0-.71.28,15.86,15.86,0,0,1-.91,1.85l-.09.16a.51.51,0,0,0,.22.69h0a.53.53,0,0,0,.25,0"/><path id="Fill-21" class="cls-4" d="M141.57,159.73a.54.54,0,0,0,.53-.42c1.45-7.08-.71-13-6.63-18-6.42-5.47-12.92-7.77-19.32-6.85-11,1.58-17.59,11.95-17.86,12.39a.49.49,0,0,0,.15.68l0,0a.57.57,0,0,0,.74-.17c.06-.11,6.66-10.4,17.1-11.9,6.06-.88,12.26,1.34,18.43,6.6,5.6,4.76,7.66,10.34,6.29,17a.53.53,0,0,0,.41.61h.12"/><path id="Fill-22" class="cls-4" d="M159,176.55a.54.54,0,0,0,.25-.06.49.49,0,0,0,.29-.54c-.06-.33-1.54-8.06-10.65-13.21l-7-4a.56.56,0,0,0-.75.18.49.49,0,0,0,.15.68l0,0,7,4a21.13,21.13,0,0,1,9.61,10.78c-9.67-8.06-22.93-10.51-23.07-10.53a.53.53,0,0,0-.63.41h0a.52.52,0,0,0,.43.6h0c.14,0,14.46,2.68,24,11.52a.54.54,0,0,0,.38.15"/><path id="Fill-23" class="cls-4" d="M152.08,186.7a.56.56,0,0,0,.31-.09.49.49,0,0,0,.19-.6c0-.12-4.78-11.75-17.49-22a.56.56,0,0,0-.76.06.49.49,0,0,0,0,.68l0,0a62.94,62.94,0,0,1,16.24,19.63l-15.06-11.83a.56.56,0,0,0-.77.06.5.5,0,0,0,0,.71l0,0,16.86,13.23a.55.55,0,0,0,.35.12"/><path id="Fill-24" class="cls-4" d="M123,146.55a3.53,3.53,0,1,1-3.72,3.52A3.63,3.63,0,0,1,123,146.55Zm0,8.07a4.56,4.56,0,1,0-4.8-4.55A4.68,4.68,0,0,0,123,154.62Z"/><path id="Fill-25" class="cls-4" d="M119.88,150.07a3.12,3.12,0,1,0,3.29-2.95H123a3,3,0,0,0-3.11,2.89v.06"/><path id="Fill-26" class="cls-4" d="M184.6,92.64c10.32,3.53,24.07,10.15,24.3,26.74.13,9.38-3.78,18-10.46,23.09-6,4.53-13.47,5.95-21.71,4.11-18.92-4.23-35.48-22.83-36.56-35.42-.35-4,1.79-12.24,9-17.46C157.27,87.83,169.52,87.46,184.6,92.64Zm-1,55.75a25.21,25.21,0,0,0,15.55-5.12c6.94-5.28,11-14.21,10.86-23.9-.26-19.22-18.89-25.6-25-27.7-19.52-6.69-30.6-3-36.46,1.21-7.55,5.47-9.79,14.17-9.42,18.37,1.11,12.92,18,32,37.39,36.33a32.17,32.17,0,0,0,7,.81Z"/><path id="Fill-27" class="cls-4" d="M16.78,319.33a2.56,2.56,0,0,1,.54-2.72c1-1.49,2-2.95,3-4.42.26-.38.63-.82,1.05-.61a1.22,1.22,0,0,1,.39,1.14,14.93,14.93,0,0,1-5,6.61"/><path id="Fill-28" class="cls-4" d="M3.56,335.35Q5.89,332.67,8.3,330a.83.83,0,0,1,.78-.06.78.78,0,0,1,.18.73c-1,2.6-3.35,4-5.52,5.74-.11-.59-.29-1-.18-1.1"/><path id="Fill-29" class="cls-4" d="M81.61,276.26c.06.34.11.69.17,1l-.22-1h0"/><path id="Fill-30" class="cls-4" d="M83.9,284.57l-5.54,2.91,3.44-10.11a35.37,35.37,0,0,0,2.1,7.2"/><path id="Fill-31" class="cls-4" d="M124.71,249.24a1,1,0,0,0-.62.82A.79.79,0,0,0,124.71,249.24Zm-9,5.66a29.44,29.44,0,0,1,5.6-6.59c3.81-3.54,7.6-7.11,11.55-10.51a29.87,29.87,0,0,0,5.42-6.13,33.75,33.75,0,0,1,8-8.68,71.58,71.58,0,0,0,6.42-5.89c1.33-1.26,2.55-2.64,3.87-3.91a3.06,3.06,0,0,1,2.24-1.19A51,51,0,0,1,147,224.87a28,28,0,0,0-7,7.64,40.72,40.72,0,0,1-8.21,9.59,55.11,55.11,0,0,0-7,7,2.87,2.87,0,0,0,2-.58c2.64-1.6,5.38-3.09,7.89-4.85,7.69-5.41,15.18-11.08,23-16.35a74.89,74.89,0,0,0,21.94-22.41,62.29,62.29,0,0,1,8-9.95,135.84,135.84,0,0,1,13.26-12c5.17-4.11,10.13-8.46,15.39-12.48,5-3.82,9.92-7.79,14.89-11.66,1.4-1.1,2.68-1.37,2.74-.72.08,1-.75,1.57-1.4,2.19-.44.43-.94.78-1.42,1.17-8.85,7.15-17.64,14.35-26.55,21.42-10.19,8.08-19.31,17-26.16,27.92a42,42,0,0,1-3.24,4.38A77.56,77.56,0,0,1,159,229.41c-3,2.1-6,4.36-8.92,6.58-.41.3-1.15.61-.45,1.52a25.51,25.51,0,0,0,8.29-3.85,32.28,32.28,0,0,1,10.92-5.09,17.54,17.54,0,0,0,10.4-7.18,26.86,26.86,0,0,1,6.11-6.16,31.15,31.15,0,0,0,7.75-7.74,42.19,42.19,0,0,1,2.84-3.56,17.44,17.44,0,0,1,7.23-5.56,6.14,6.14,0,0,0,2-1.11c4.61-4.09,10.17-7,15-10.78.78-.61,1.57-1.45,2.86-1.29-.37,1.26-1.49,1.87-2.4,2.61-1.66,1.36-3.31,2.76-5.1,4-4.61,3.08-8.4,7.18-13.55,9.6a10.6,10.6,0,0,0-3.8,3.3c-1.1,1.45-2.32,2.82-3.36,4.31a33.42,33.42,0,0,1-6.59,7,45,45,0,0,0-8.4,8.38,15.74,15.74,0,0,1-9.83,6.39,28,28,0,0,0-10.18,4.49,38.44,38.44,0,0,1-12.22,5.65,16.06,16.06,0,0,0-5.43,2.57c-2.5,1.8-5,3.56-7.49,5.41-8.84,6.66-18.08,12.87-26.25,20.32-.25.22-.52.43-.79.64,1.93-3.7,3.86-7.75,5.73-12a12.06,12.06,0,0,0,2.36-2.91Z"/><path id="Fill-32" class="cls-4" d="M16.92,325.29c-.1-.44.45-1.09.83-1.55.67-.82,1.43-1.58,2.16-2.36,4.86-5.28,9.63-10.61,12.41-17.25a9.8,9.8,0,0,1,4.58-5,15.43,15.43,0,0,0,5.41-4.84A9.9,9.9,0,0,1,46.08,291c3.66-1.67,6.94-4,10.84-5.29a10.2,10.2,0,0,0,4.94-3.2l2.73-.64c.18.56.34,1,.47,1.39-.07.77-.13,1.55-.19,2.32l.46-.25c-.2,3.24-.36,6.34-.49,9.25l-.69.36v.38l-4.24,2.28a2.13,2.13,0,0,0-.42.23c-1.67,1.34-3.37,2.68-4.92,4.15a27.08,27.08,0,0,1-6.83,4.68C45,308,42.1,309.33,40.33,312a4.32,4.32,0,0,1-1.77,1.42,11.17,11.17,0,0,0-3.33,2.46,29.15,29.15,0,0,1-7.5,5.33c-3.2,1.59-6.21,3.46-8.31,6.41a6.32,6.32,0,0,1-3.92,2.87c.84-1.88,1.89-3.37,1.45-5.2"/><path id="Fill-33" class="cls-4" d="M154.37,157.41h.12A19.78,19.78,0,0,0,170,140.8a.52.52,0,0,0-.49-.55h0a.54.54,0,0,0-.59.47c0,.51-1.26,12.55-14.71,15.68a.52.52,0,0,0-.4.62h0a.52.52,0,0,0,.53.39"/><path id="Fill-34" class="cls-5" d="M81.89,297.77a1.91,1.91,0,0,0,2-1.82v-2.72a2,2,0,0,0-3.93,0v2.68a1.91,1.91,0,0,0,2,1.86h0"/><path id="Fill-35" class="cls-5" d="M81.89,311.48a1.91,1.91,0,0,0,2-1.82v-3.31a2,2,0,0,0-3.93,0v3.27a1.91,1.91,0,0,0,2,1.86h0"/><path id="Fill-36" class="cls-5" d="M81.89,329.23a1.91,1.91,0,0,0,2-1.82v-11.6a2,2,0,0,0-3.93,0v11.56a1.91,1.91,0,0,0,2,1.86h0"/><path id="Fill-37" class="cls-6" d="M80.9,296.84a1.91,1.91,0,0,0,2-1.82V292.3a1.7,1.7,0,0,0-.18-.76,1.86,1.86,0,0,1,1.16,1.69v2.68a1.91,1.91,0,0,1-2,1.86h0a2,2,0,0,1-1.79-1.1,2,2,0,0,0,.8.17"/><path id="Fill-38" class="cls-6" d="M80.9,310.55a1.93,1.93,0,0,0,2-1.84v-3.3a1.7,1.7,0,0,0-.18-.76,1.86,1.86,0,0,1,1.16,1.7v3.27a1.91,1.91,0,0,1-2,1.86h0a2,2,0,0,1-1.79-1.1,2,2,0,0,0,.8.17"/><path id="Fill-39" class="cls-6" d="M80.9,328.3a1.91,1.91,0,0,0,2-1.82v-11.6a1.7,1.7,0,0,0-.18-.76,1.86,1.86,0,0,1,1.16,1.69v11.56a1.91,1.91,0,0,1-2,1.86h0a2,2,0,0,1-1.79-1.1,2,2,0,0,0,.8.17"/></g><g class="cls-7"><text class="cls-8" transform="translate(170.77 123.93)">pa</text><text class="cls-9" transform="translate(194.79 123.93)">r</text><text class="cls-8" transform="translate(206.48 123.93)">t</text><text class="cls-10" transform="translate(217.18 123.93)">a</text><text class="cls-8" transform="translate(228.58 123.93)">yyyyyyyy</text></g></svg>