<?xml version="1.0" encoding="utf-8"?>
<!-- Generator: Adobe Illustrator 22.1.0, SVG Export Plug-In . SVG Version: 6.00 Build 0)  -->
<svg version="1.1" id="Layer_1" xmlns="http://www.w3.org/2000/svg" xmlns:xlink="http://www.w3.org/1999/xlink" x="0px" y="0px"
	 viewBox="0 0 960 820" style="enable-background:new 0 0 960 820;" xml:space="preserve">
<style type="text/css">
	.st0{fill:#EE509A;}
	.st1{fill:#2ADFDF;}
	.st2{font-family:'IM_FELL_English_Italic';}
	.st3{font-size:54px;}
	.st4{letter-spacing:1;}
</style>
<title>Artboard 1</title>
<g id="Homepage">
	<g id="Group-21">
		<rect id="Image" class="st0" width="960" height="820"/>
		<path id="_" class="st1" d="M533,369.6l-4.1,41h-31.6V527h-47.1V410.6H428v-41h22.2V343c-0.1-7.2,1.1-14.3,3.6-21
			c3.1-8.3,7.8-14.8,14.2-19.4c7.8-5.7,17.6-8.5,29.5-8.5l34.9,0.3v39.9h-25.3c-2.3-0.1-4.6,0.7-6.5,2.1c-2.2,2-3.4,5-3.4,9.1v24.2
			H533V369.6z"/>
		<g id="Group-39">
			<text transform="matrix(1 0 0 1 321.12 194)" class="st1 st2 st3">f</text>
			<text transform="matrix(1 0 0 1 337.97 194)" class="st1 st2 st3 st4">acebook album</text>
			<path id="_2" class="st1" d="M653.1,182.6h32.5v8.7c0,0.6,0.1,0.9,0.4,1s0.6-0.1,1-0.5l10.7-10.7c0.4-0.4,0.6-0.9,0.6-1.4
				c0-0.5-0.2-1.1-0.6-1.4L687,167.4c-0.4-0.4-0.7-0.5-1-0.4s-0.4,0.4-0.4,1v8.7h-32.5c-1.1,0-2.1,0.9-2.1,2c0,0,0,0.1,0,0.1v1.8
				c0,0.5,0.2,1,0.6,1.4C652,182.4,652.5,182.6,653.1,182.6z"/>
		</g>
	</g>
</g>
</svg>
