<?xml version="1.0" encoding="utf-8"?>
<!-- Generator: Adobe Illustrator 22.1.0, SVG Export Plug-In . SVG Version: 6.00 Build 0)  -->
<svg version="1.1" id="Layer_1" xmlns="http://www.w3.org/2000/svg" xmlns:xlink="http://www.w3.org/1999/xlink" x="0px" y="0px"
	 viewBox="0 0 960 820" style="enable-background:new 0 0 960 820;" xml:space="preserve">
<style type="text/css">
	.st0{fill:#EE509A;}
	.st1{fill:#2ADFDF;}
	.st2{font-family:'IM_FELL_English_Italic';}
	.st3{font-size:54px;}
	.st4{fill:#F9D049;}
	.st5{fill:#7E3BEB;}
	.st6{fill:#B3BA4B;}
	.st7{fill:#16110D;}
	.st8{fill:#3D1717;}
	.st9{fill:#A6D8D7;}
</style>
<title>Artboard 1</title>
<g id="Homepage">
	<g id="Group-21">
		<rect id="Image" class="st0" width="960" height="820"/>
		<path id="_" class="st1" d="M533,369.6l-4.1,41h-31.6V527h-47.1V410.6H428v-41h22.2V343c-0.1-7.2,1.1-14.3,3.6-21
			c3.1-8.3,7.8-14.8,14.2-19.4c7.8-5.7,17.6-8.5,29.5-8.5l34.9,0.3v39.9h-25.3c-2.3-0.1-4.6,0.7-6.5,2.1c-2.2,2-3.4,5-3.4,9.1v24.2
			H533V369.6z"/>
		<g id="Group-39">
			<text transform="matrix(1 0 0 1 321.12 194)" class="st1 st2 st3">f</text>
			<text transform="matrix(1 0 0 1 337.97 194)" class="st1 st2 st3">acebook album</text>
			<path id="_2" class="st1" d="M653.1,182.6h32.5v8.7c0,0.6,0.1,0.9,0.4,1s0.6-0.1,1-0.5l10.7-10.7c0.4-0.4,0.6-0.9,0.6-1.4
				s-0.2-1.1-0.6-1.4L687,167.4c-0.4-0.4-0.7-0.5-1-0.4s-0.4,0.4-0.4,1v8.7h-32.5c-1.1,0-2.1,0.9-2.1,2v0.1v1.8c0,0.5,0.2,1,0.6,1.4
				C652,182.4,652.5,182.6,653.1,182.6z"/>
		</g>
	</g>
</g>
<g id="frankenstein">
	<path id="Fill-4" class="st4" d="M-51.2,576.5c-2.3,1.9-20.7-16.9-41.1-42c-20.4-25.1-35-47-32.6-48.8c2.3-1.9,20.7,16.9,41.1,42
		C-63.5,552.7-48.9,574.6-51.2,576.5"/>
	<path id="Fill-5" class="st5" d="M1.6,527.1c-12.3,2.8-18.5,8.5-21.1,15.3l0,0c0,0-2.8,0.3-5.4-4.3c-2.6-4.5,7.1-8.6,3.1-13.6
		c-0.4-0.5-0.9-0.9-1.4-1.3c4.9-4,9.8-8.3,14.3-12.7l0,0c20.7,9.4,46.9,4.1,71.2-9.8l0,0C62.3,500.8,43.4,517.7,1.6,527.1z
		 M-69.1,495.8c-4.3-5.4-4-7.8-1.9-9.4c5.5,0.2,9.5-2,12.4-5.2c0.5-0.4,3.5-4.6,4.5-7.1c2.3-5.2,3.3-10.5,3.9-12.8
		c3.1-11,7-24.8,14.2-37.5c10.1-17.6,25.8-32.7,54.9-45c-1.6,0.9-79.5,45.2-56,101.1l-0.7-1.5c-11.2,8.8-20.4,17.7-26.7,24.8l0,0
		C-65.3,501.2-66.8,498.7-69.1,495.8z M69.6,536.4c43.9-49.9,52.4-96.7,52.4-96.7s-1-14.4-8.3-31.6l0,0c17.1-13,38.1-31,49.2-42.8
		c13.4-14.1-12.7-38-22.2-45.8c-9.1-7.6-34.6-29.9-46.3-12.7C86.6,318.3,67,358.9,67,358.9l-10.9-4.2L43.2,352c0,0-49,8.5-95.7,36.2
		c-23.6,14-52.6,55.2-52.3,67.5c-0.2,0-0.3,0.1-0.5,0.1c-7.7,0.8-17.8-8.2-22-2.3c-4.2,5.9-9.2,18.2,0.4,23s4.9-6.9,8.6-11.9
		c4.1-5.5,10.5-1.2,16.3,1.8c1.3,2.5,3.2,5.1,5.8,7.6c-3.3,2.2-12.6,9.1-12.5,17.2c0.2,9.8,1.7,14.1,8.1,15s7.8-1.7,3.3-12.7
		c-1.5-3.6,4.3-9.6,7.9-14.1c1.1,0.4,8.4,4.4,11.7,5.9c-1.6,4.2-3.6,9.9-1.6,16.2c2.1,6.6,4.6,10.1,6.8,11.7l0,0
		c-5.6,7.7-7.8,12.5-7.8,12.5s-9.9-10.9-15.2-7.7c-5.3,3.3,14,20.5,16.5,20.3s12.8-31.1,45-51.7l-0.1-0.1c0.4,0.8,0.9,1.6,1.4,2.4
		c4.6,7.5,10,13.3,16.1,17.5l-0.1-0.1c-26.8,27.2-54.1,38.9-54.8,41.3s12.2,24.8,16.5,20.3s-5-18.9-5-18.9s11.2-6.5,24.5-16.2
		c0,0.3-0.1,0.5-0.1,0.8c-1.7,12.3,14.5,16.4,14.5,16.4l0,0c-0.3,4.4,0.4,8.8,1.5,12.9c0,0-13.3,1.8-14.1-7.6
		c-1-11.6-7.5-10.1-7.5-10.1s-13.8,3.7-1.3,17c12.6,13.3,25.4,8.2,25.4,8.2c1.9,4.6,3.9,8.2,4.8,9.6c0.2,0.3,0,0.8-0.4,0.8
		c-13.7,2.1-21.4-6.3-28.9-8.6c-7.6-2.4-8.6,17.6,13.7,19.4C-5.4,593.6,25.7,586.3,69.6,536.4z"/>
	<path id="Fill-6" class="st1" d="M-78.9,538.3c0.5,0,1.3-1.3,2.5-3.4c-11.6-3.6-18.2-17.3-18.2-17.3c-0.2,0.1-0.5,0.2-0.7,0.3
		C-100.6,521.2-81.4,538.4-78.9,538.3"/>
	<path id="Fill-7" class="st1" d="M-68.2,545c-1.9,1.2-3.1,2-3.2,2.5c-0.7,2.4,12.2,24.8,16.5,20.3c0.2-0.2,0.4-0.5,0.6-0.8
		C-69.3,554.9-68.2,545-68.2,545"/>
	<path id="Fill-8" class="st1" d="M-27.5,585c16.9,5.4,15.8-2.9,15.4-4.6c0,0.3-0.2,0.5-0.5,0.6c-13.7,2.1-21.4-6.3-28.9-8.6
		c-0.8-0.3-1.6-0.2-2.2,0C-43.5,575-41.1,580.6-27.5,585"/>
	<path id="Fill-9" class="st1" d="M-34.6,529.4c0,0-8.4-2.7-8.6,8.9l7.6-4.7L-34.6,529.4"/>
	<path id="Fill-10" class="st1" d="M100.9,469.5l-13.7,13.6l-20.8,14.5l-5.6,4c0.5-0.3,1-0.5,1.5-0.8l0,0c0,0-7.8,7-24.5,14.5l0,0
		l0,0c-9.3,4.2-21.2,8.5-36.2,11.8c-12.3,2.8-18.5,8.5-21.1,15.3l0,0l0,0c-0.6,2.1-1.1,4.5-1.4,6.7c8-3.4,17.7-6.3,29.6-8.5
		C71.5,529.1,100.9,469.5,100.9,469.5"/>
	<polyline id="Fill-11" class="st6" points="110.5,417.9 109.5,411.2 105.1,414.8 104.3,416 110.5,417.9 	"/>
	<path id="Fill-12" class="st1" d="M-8.8,510.6L-8.8,510.6c10.8,4.9,23.1,5.8,35.9,3.5c-10.3-0.7-23.6-6.7-38.3-25.7
		C-49.3,439.2,27,385.9,27,385.9c8.9,0.9,13.9-6.9,13.9-6.9c-6,2.7-11.6-0.7-11.6-0.7l-3-2.3l-11.9,5.7
		c-16.6,10.6-71.7,50.2-51.5,98.3l-0.7-1.5c-3,2.4-5.9,4.8-8.7,7.1c0.8,2.8,1.8,5.4,3,7.8c3-2.4,6.2-4.7,9.6-6.9l-0.1-0.1
		c0.4,0.8,0.9,1.6,1.4,2.4c4.6,7.5,10,13.3,16.1,17.5l-0.1-0.1c-3.1,3.2-6.2,6.1-9.3,8.9c2.6,2,5.1,3.5,7.2,4.5
		C-15.3,516.7-12,513.7-8.8,510.6"/>
	<path id="Fill-13" class="st6" d="M48,507.8L48,507.8L48,507.8L48,507.8"/>
	<path id="Fill-14" class="st1" d="M-66.4,513.4c-13.8-12.8-10.1-27.8-10.1-27.8l-1.3-0.1c-1.6,4.2-3.4,9.7-1.4,15.9
		c2.1,6.6,4.6,10.1,6.8,11.7l0,0C-69.7,515.1-65.6,514.1-66.4,513.4"/>
	<path id="Fill-15" class="st1" d="M140.7,319.5c-9.1-7.6-34.6-29.9-46.3-12.7C86.6,318.3,67,358.9,67,358.9l-10.9-4.2L43.2,352
		c0,0-49,8.5-95.7,36.2c-23.6,14-52.6,55.2-52.3,67.5c-0.2,0-0.3,0.1-0.5,0.1c-7.7,0.8-17.8-8.2-22-2.3c-4.2,5.9-9.2,18.2,0.4,23
		s4.9-6.9,8.6-11.9c4.1-5.5,10.5-1.2,16.3,1.8c1.3,2.5,3.2,5.1,5.8,7.6c-3.3,2.2-12.6,9.1-12.5,17.2c0.2,9.8,1.7,14.1,8.1,15
		s7.8-1.7,3.3-12.7c-1.5-3.6,4.3-9.6,7.9-14.1c0.5,0.2,2.5,1.3,4.8,2.5c-20-21.7,15.1-57.9,41.8-85.2c26.8-27.3,68.3-36.4,75.3-33.7
		c7,2.7-3.2,12.1-3.2,12.1c8.1,5.2,20.9-3,20.9-3l20.6,14.1c0,0,14.3-35.5,33.8-60.3c19.5-24.7,60.8,24,61,24.1
		C161.6,337.8,147.2,324.9,140.7,319.5"/>
	<path id="Fill-16" class="st6" d="M135.1,374.1c-5.4,6.3-12.3,9.2-15.4,6.5s-1.3-9.9,4.1-16.2c5.4-6.3,12.3-9.2,15.4-6.5
		C142.3,360.6,140.5,367.8,135.1,374.1"/>
	<path id="Fill-17" class="st6" d="M113.3,356.4c-5.4,6.3-12.3,9.2-15.4,6.5s-1.3-9.9,4.1-16.2c5.4-6.3,12.3-9.2,15.4-6.5
		C120.6,342.9,118.7,350.1,113.3,356.4"/>
	<path id="Fill-18" class="st1" d="M30,533.6c0,0,9.3,1.5,30.5-10.2s47.2-47.8,48.5-49.9s6.8-12.6,6.8-12.6l5.6-20.6
		c0,0-9.3,21.7-28.5,37.5s-32.6,23.8-32.6,23.8s-18.1,16.5-50.9,23.6l-4.1,1l-0.2,1C5.1,527.2,20.3,535.8,30,533.6"/>
	<path id="Fill-19" class="st1" d="M19,378.9c0,0-88.2,49.4-51.6,109.9c5.2,8.5,11.5,14.8,18.6,19.1c0,0-0.3-15.8,6.8-24.9
		s16-16.7,31-18.5c0,0,4.7-8.2,5-13.1s-1.2-21-2.5-23.5s1.7-16.8,1.7-16.8s6.8-17.8,2.9-23.6c-3.8-5.8-0.7-5.2-7.2-10.2L19,378.9"/>
	<path id="Fill-20" class="st5" d="M92.9,477.8c-0.5,0.4-1.1,0.9-1.6,1.3l-4,4L74.5,492c-3.1,2.3-5.9,4.2-8.1,5.6l0,0l-5.6,4
		c0.5-0.3,1-0.5,1.5-0.8l0,0c0,0-4.6,4.1-14.3,9.4c-8.6,5.1-21.6,11.3-38.6,15l-1.3,0.3c-0.6,0.1-1.1,0.3-1.7,0.4l-1.1,0.3l-0.2,1
		c0,0,15.2,8.5,25,6.4c0,0,0.7,0.1,2.1,0c41.3-17.2,63.3-54,67.9-62.4C97.8,473.5,95.4,475.7,92.9,477.8"/>
	<path id="Fill-21" class="st7" d="M-14,507.9c0,0-2.8-38.8,41.2-43.9s56,22.3,56,22.3S59.7,506,36.8,511.8
		C13.8,517.7-0.6,515.3-14,507.9"/>
	<path id="Fill-22" class="st5" d="M-21.1,550c0,0-16.2-4.2-14.5-16.4c1.7-12.3,9.8-13.8,13.8-8.9c4,4.9-5.7,9-3.1,13.5
		s5.4,4.3,5.4,4.3"/>
	<path id="Fill-23" class="st5" d="M-17,570.5c0,0-12.8,5.1-25.4-8.2s1.3-17,1.3-17s6.5-1.5,7.5,10.1c0.8,9.4,14.1,7.6,14.1,7.6"/>
	<path id="Fill-24" class="st5" d="M-30.7,491.8c0.2,0.4,0.5,0.7,0.7,1c0.4,0.6,0.8,1.1,1.2,1.7c0.3,0.4,0.6,0.8,1,1.2
		c0.3,0.4,0.7,0.9,1,1.3c0.4,0.4,0.8,0.9,1.2,1.3c0.3,0.3,0.6,0.7,0.9,1c0.4,0.5,0.9,0.9,1.3,1.4c0.2,0.2,0.5,0.5,0.8,0.7
		c0.5,0.5,1,1,1.5,1.4c0.2,0.1,0.3,0.3,0.5,0.4c1.3,1.1,2.7,2.2,4.1,3.1l-0.1-0.1c0.9,0.6,1.7,1.1,2.6,1.7c0,0-0.2-10,3.3-18.7
		c-0.2-0.3-0.4-0.5-0.6-0.8C-49.3,439.2,27,385.9,27,385.9c1.1,0.1,2.1,0.1,3,0c-2.3-4.1-0.4-4.1-6.2-8.6l-0.6,0.2l-8.8,4.2l0,0
		c-0.1,0-0.1,0.1-0.2,0.1c-0.2,0.2-0.5,0.3-0.7,0.5c-0.1,0.1-0.2,0.1-0.3,0.2c-0.2,0.2-0.5,0.3-0.7,0.5c-0.1,0.1-0.2,0.1-0.3,0.2
		c-0.3,0.2-0.6,0.4-0.8,0.6c-0.1,0.1-0.1,0.1-0.2,0.2c-0.8,0.5-1.6,1.1-2.4,1.6c-0.1,0.1-0.2,0.1-0.2,0.2c-0.3,0.2-0.7,0.5-1,0.7
		c-0.1,0.1-0.2,0.2-0.3,0.2c-0.3,0.2-0.7,0.5-1.1,0.8c-0.1,0.1-0.2,0.1-0.3,0.2c-0.9,0.7-1.9,1.4-2.8,2.1c-0.1,0.1-0.2,0.1-0.2,0.2
		c-0.4,0.3-0.8,0.6-1.2,0.9c-0.1,0.1-0.3,0.2-0.4,0.3c-0.4,0.3-0.7,0.6-1.1,0.9c-0.1,0.1-0.3,0.2-0.4,0.3c-0.4,0.3-0.9,0.7-1.3,1
		c-0.1,0.1-0.1,0.1-0.2,0.2c-0.5,0.4-1,0.8-1.6,1.3c-0.1,0.1-0.2,0.1-0.2,0.2c-0.4,0.4-0.9,0.7-1.3,1.1c-0.2,0.1-0.3,0.3-0.5,0.4
		c-0.4,0.3-0.7,0.6-1.1,1c-0.2,0.1-0.3,0.3-0.5,0.4c-0.4,0.3-0.8,0.7-1.2,1c-0.1,0.1-0.3,0.2-0.4,0.4c-0.5,0.5-1.1,1-1.6,1.4
		c-0.1,0.1-0.1,0.1-0.2,0.2c-0.5,0.4-0.9,0.8-1.4,1.3c-0.2,0.2-0.4,0.3-0.5,0.5c-0.3,0.3-0.7,0.7-1,1c-0.2,0.2-0.4,0.4-0.6,0.6
		c-0.3,0.3-0.7,0.7-1,1c-0.2,0.2-0.4,0.4-0.6,0.6c-0.4,0.4-0.8,0.8-1.2,1.3c-0.1,0.1-0.2,0.3-0.4,0.4c-0.5,0.5-1,1-1.4,1.5
		c-0.2,0.2-0.4,0.4-0.6,0.7c-0.3,0.3-0.6,0.7-0.9,1c-0.2,0.3-0.4,0.5-0.7,0.8c-0.3,0.3-0.6,0.6-0.8,1c-0.2,0.3-0.4,0.5-0.7,0.8
		c-0.3,0.3-0.6,0.7-0.8,1c-0.2,0.2-0.4,0.5-0.6,0.7c-0.4,0.6-0.9,1.1-1.3,1.7c-0.2,0.3-0.4,0.6-0.6,0.8c-0.2,0.3-0.5,0.6-0.7,1
		c-0.2,0.3-0.5,0.6-0.7,0.9s-0.4,0.6-0.7,0.9c-0.2,0.3-0.5,0.6-0.7,1c-0.2,0.3-0.4,0.6-0.6,0.9s-0.4,0.7-0.7,1
		c-0.2,0.3-0.4,0.7-0.6,1c-0.4,0.6-0.8,1.2-1.1,1.8c-0.2,0.3-0.4,0.6-0.5,0.9c-0.2,0.4-0.4,0.7-0.6,1.1c-0.2,0.3-0.3,0.6-0.5,0.9
		c-0.2,0.4-0.4,0.8-0.6,1.2c-0.1,0.3-0.3,0.6-0.4,0.8c-0.2,0.4-0.4,0.8-0.6,1.2c-0.1,0.2-0.2,0.5-0.3,0.7c-0.4,0.8-0.8,1.7-1.2,2.6
		c-0.1,0.2-0.2,0.4-0.3,0.6c-0.2,0.4-0.4,0.9-0.5,1.3c-0.1,0.3-0.2,0.5-0.3,0.8c-0.2,0.4-0.3,0.9-0.5,1.3c-0.1,0.3-0.2,0.5-0.3,0.8
		c-0.2,0.5-0.3,0.9-0.5,1.4c-0.1,0.2-0.1,0.4-0.2,0.7c-0.5,1.6-0.9,3.3-1.3,4.9c0,0.2-0.1,0.5-0.1,0.7c-0.1,0.5-0.2,1-0.3,1.5
		c0,0.3-0.1,0.5-0.1,0.8c-0.1,0.5-0.2,1-0.2,1.5c0,0.2-0.1,0.4-0.1,0.7c-0.2,1.7-0.3,3.5-0.4,5.3c0,0.2,0,0.4,0,0.6
		c0,0.5,0,1.1,0,1.6c0,0.2,0,0.5,0,0.7c0,0.5,0,1,0.1,1.6c0,0.2,0,0.5,0.1,0.7c0,0.5,0.1,1.1,0.1,1.6c0,0.1,0,0.2,0,0.2
		c0.1,1.3,0.3,2.5,0.6,3.8c0,0.1,0,0.3,0.1,0.4c0.1,0.5,0.2,1.1,0.4,1.7c0.1,0.3,0.1,0.5,0.2,0.8c0.1,0.5,0.3,1.1,0.4,1.6
		c0.1,0.3,0.2,0.5,0.2,0.8c0.2,0.5,0.3,1.1,0.5,1.6c0.1,0.2,0.1,0.4,0.2,0.6c0.4,1.3,0.9,2.6,1.5,4c0.9,2.1,1.9,4.2,3.1,6.4l0,0
		c0.4,0.8,0.9,1.6,1.4,2.4C-32,489.9-31.3,490.8-30.7,491.8"/>
	<path id="Fill-25" class="st1" d="M-10.5,489.4c-4.1,9.8-3.4,18.5-3.4,18.5c11.2,6.2,23.1,8.8,40.2,6.1
		C16.2,513,3.5,507.1-10.5,489.4"/>
	<path id="Fill-26" class="st1" d="M-21,549.1l1.1-6.7c-0.8-0.1-3-0.6-5.1-4.2c-0.4-0.7-0.5-1.3-0.4-1.9l0,0
		C-25.3,536.2-32.1,541.8-21,549.1"/>
	<path id="Fill-27" class="st1" d="M-19.6,562.9c0,0-10.6,1.5-13.4-4.9c0,0-4,8.4,9.4,11.6c3,0.7,5,0.8,6.4,0.4L-19.6,562.9"/>
	<path id="Fill-28" class="st8" d="M77.2,394.8c-11.4-14.1-16.6-28.7-16.7-28.9c-0.1-0.3,0.1-0.7,0.4-0.8c0.3-0.1,0.7,0.1,0.8,0.4
		c0.1,0.4,15.2,42.7,51,52.4c0.3,0.1,0.6,0.4,0.5,0.8c-0.1,0.3-0.5,0.6-0.8,0.5C97,414.9,85.4,405,77.2,394.8"/>
	<path id="Fill-29" class="st8" d="M62.5,370.7c-0.1-0.2-0.2-0.4-0.1-0.6c3.3-13.5,21.2-48.5,31.5-63.8c2.5-3.7,5.9-5.9,10-6.5
		c12.4-1.7,28.4,11.7,36.2,18.1l1.1,0.9c7.6,6.3,25.4,22.5,26.2,36.1c0.2,4.1-1.1,7.7-3.9,10.7c-13.2,13.9-40.9,37.3-59.2,50.1
		c-0.3,0.2-0.7,0.1-0.9-0.2c-0.2-0.3-0.1-0.7,0.2-0.9c18.3-12.8,45.9-36.1,59-49.9c2.6-2.7,3.8-6,3.5-9.7
		c-0.8-13.1-18.2-29-25.7-35.2l-1.1-0.9c-7.6-6.3-23.4-19.5-35.2-17.9c-3.7,0.5-6.8,2.5-9.1,5.9c-10.2,15-28.1,50.3-31.4,63.4
		c-0.1,0.3-0.4,0.6-0.8,0.5C62.7,370.9,62.6,370.8,62.5,370.7"/>
	<path id="Fill-30" class="st8" d="M112.3,317.6c-0.2-0.2-0.2-0.5,0-0.8c4.9-7.8-1.8-15.1-2.1-15.4c-0.2-0.3-0.2-0.7,0-0.9
		c0.3-0.2,0.7-0.2,0.9,0c0.1,0.1,7.6,8.4,2.2,17c-0.2,0.3-0.6,0.4-0.9,0.2C112.4,317.7,112.3,317.6,112.3,317.6"/>
	<path id="Fill-31" class="st8" d="M121.3,324.4c-0.2-0.2-0.2-0.6,0-0.8c5.9-7.9-1.2-18.2-1.2-18.3c-0.2-0.3-0.1-0.7,0.2-0.9
		c0.3-0.2,0.7-0.1,0.9,0.2c0.1,0.1,7.7,11.2,1.2,19.8c-0.2,0.3-0.6,0.3-0.9,0.1C121.4,324.4,121.3,324.4,121.3,324.4"/>
	<path id="Fill-32" class="st8" d="M130.4,330.3c-0.2-0.3-0.2-0.7,0.1-0.9c7-6.2,3-15,3-15.1c-0.2-0.3,0-0.7,0.3-0.9
		c0.3-0.2,0.7,0,0.9,0.3c0,0.1,4.4,9.8-3.3,16.6C131.1,330.6,130.7,330.5,130.4,330.3C130.5,330.3,130.5,330.3,130.4,330.3"/>
	<path id="Fill-33" class="st8" d="M138.5,336.8C138.5,336.7,138.5,336.7,138.5,336.8c-0.2-0.4-0.1-0.8,0.2-1
		c6.4-3.7,4.7-13.3,4.7-13.4c-0.1-0.4,0.2-0.7,0.5-0.8c0.4-0.1,0.7,0.2,0.8,0.5c0.1,0.4,1.9,10.6-5.3,14.8
		C139.1,337.1,138.7,337,138.5,336.8"/>
	<path id="Fill-34" class="st8" d="M146,344c0,0-0.1-0.1-0.1-0.2c-0.1-0.3,0-0.7,0.4-0.9c7-2.9,5.4-12.6,5.4-12.7
		c-0.1-0.4,0.2-0.7,0.5-0.8c0.4-0.1,0.7,0.2,0.8,0.5c0,0.1,1.7,10.8-6.2,14.1C146.4,344.3,146.1,344.2,146,344"/>
	<path id="Fill-35" class="st8" d="M151.9,351.4c-0.1-0.1-0.1-0.1-0.1-0.2c-0.1-0.3,0.1-0.7,0.4-0.8c6.4-2,6.3-12,6.3-12.1
		c0-0.4,0.3-0.7,0.6-0.7c0.4,0,0.7,0.3,0.7,0.6c0,0.5,0.1,11.1-7.2,13.4C152.4,351.7,152.1,351.6,151.9,351.4"/>
	<path id="Fill-36" class="st8" d="M95.9,361.3c-0.2-0.2-0.2-0.6,0-0.8l19.5-22.7c0.2-0.3,0.6-0.3,0.9-0.1l1.9,1.7
		c1.4,1.2,2,3.2,1.6,5.8c0,0.4-0.4,0.6-0.7,0.6c-0.4,0-0.6-0.4-0.6-0.7c0.2-1.5,0.1-3.5-1.2-4.7l-1.4-1.2l-18.7,21.7l1.4,1.2
		c1.4,1.2,3.4,0.9,4.8,0.5c0.3-0.1,0.7,0.1,0.8,0.4c0.1,0.3-0.1,0.7-0.4,0.8c-2.5,0.7-4.6,0.5-6-0.7L95.9,361.3
		C95.9,361.4,95.9,361.3,95.9,361.3"/>
	<path id="Fill-37" class="st8" d="M111.7,354.4c-5.4,6.3-12.3,9.2-15.4,6.5s-1.3-9.9,4.1-16.2c5.4-6.3,12.3-9.2,15.4-6.5
		C119,340.9,117.1,348.2,111.7,354.4"/>
	<g id="Group-40" transform="translate(121.000000, 54.000000)">
		<g id="Clip-39">
		</g>
		<polyline id="Fill-38" class="st9" points="-19.1,291.5 -13.3,290.9 -16.7,300.8 -9.9,298.8 -12.8,309.4 0.1,304.6 -1.7,313.6 
			4,300.7 -7.4,304.3 -5,294.1 -12.6,296.6 -10.5,288.1 -19.1,291.5 		"/>
	</g>
	<path id="Fill-41" class="st8" d="M115.8,339.1c-0.1-0.1-0.2-0.3-0.4-0.4c-2.8-2.4-9.4,0.5-14.5,6.4s-7,12.9-4.2,15.3
		s9.4-0.5,14.5-6.4C116.1,348.4,118,341.8,115.8,339.1z M95.4,360.8c-2.7-3.3-0.8-10.3,4.6-16.5c5.7-6.6,12.9-9.5,16.3-6.6
		c3.4,3,1.7,10.5-4,17.1s-12.9,9.5-16.3,6.6C95.7,361.2,95.5,361,95.4,360.8z"/>
	<path id="Fill-42" class="st8" d="M117.5,349.7c-0.1-0.2-0.2-0.4-0.1-0.7c0.3-0.7,0.5-1.4,0.7-2c0.1-0.3,0.5-0.5,0.8-0.4
		s0.5,0.5,0.4,0.8c-0.2,0.7-0.5,1.4-0.8,2.2c-0.1,0.3-0.5,0.5-0.9,0.3C117.6,349.9,117.5,349.8,117.5,349.7"/>
	<path id="Fill-43" class="st8" d="M110.2,359.5c-0.2-0.3-0.2-0.7,0.1-0.9c0.3-0.2,0.5-0.5,0.8-0.7s0.7-0.2,0.9,0
		c0.2,0.3,0.2,0.7,0,0.9c-0.3,0.2-0.5,0.5-0.8,0.7C110.8,359.8,110.4,359.8,110.2,359.5L110.2,359.5"/>
	<path id="Fill-44" class="st8" d="M105.6,362.6l-0.1-0.1c-0.2-0.3,0-0.7,0.3-0.9c0.6-0.3,1.3-0.7,1.9-1.1c0.3-0.2,0.7-0.1,0.9,0.2
		c0.2,0.3,0.1,0.7-0.2,0.9c-0.7,0.5-1.4,0.9-2.1,1.2C106.1,363,105.7,362.9,105.6,362.6"/>
	<path id="Fill-45" d="M-97.2,493.4c-1.5-3.6,4.3-9.6,7.9-14.1c1.1,0.4,8.4,4.4,11.7,5.9c-0.2,0.5,6.3,1.6,6.7,1.3
		c5.5,0.2,9.5-2,12.4-5.2c0.5-0.4,3.5-4.6,4.5-7.1c2.3-5.2,3.3-10.5,3.9-12.8c2-7.2,4.4-15.5,7.8-24l-0.1-0.1
		c-27.7-13.8-30.8-31.6-30.9-31.7c-17,17.8-31.6,41.3-31.4,50c-0.2,0-0.3,0.1-0.5,0.1c-7.7,0.8-17.8-8.2-22-2.3
		c-4.2,5.9-9.2,18.2,0.4,23s4.9-6.9,8.6-11.9c4.1-5.5,10.5-1.2,16.3,1.8c1.3,2.5,3.2,5.1,5.8,7.6c-3.3,2.2-12.6,9.1-12.5,17.2
		c0.2,9.8,1.7,14.1,8.1,15C-94.1,507-92.7,504.3-97.2,493.4"/>
	<path id="Fill-46" class="st8" d="M117.6,379c-0.2-0.2-0.2-0.6,0-0.8l19.5-22.7c0.1-0.1,0.3-0.2,0.4-0.2c0.2,0,0.3,0,0.5,0.2
		l1.9,1.7c1.8,1.5,2.2,4.3,1.2,7.8c-0.1,0.3-0.5,0.5-0.8,0.5c-0.3-0.1-0.5-0.5-0.4-0.8c0.8-2.9,0.5-5.3-0.8-6.5l-1.4-1.2L119,378.7
		l1.4,1.2c0.7,0.6,1.6,0.9,2.7,0.8c0.4,0,0.7,0.3,0.7,0.6c0,0.4-0.3,0.7-0.6,0.7c-1.4,0-2.6-0.4-3.6-1.2L117.6,379
		C117.7,379.1,117.7,379,117.6,379"/>
	<path id="Fill-47" class="st8" d="M133.5,372.1c-5.4,6.3-12.3,9.2-15.4,6.5s-1.3-9.9,4.1-16.2c5.4-6.3,12.3-9.2,15.4-6.5
		C140.8,358.6,138.9,365.8,133.5,372.1"/>
	<g id="Group-50" transform="translate(142.000000, 50.000000)">
		<g id="Clip-49">
		</g>
		<polyline id="Fill-48" class="st9" points="-29,303.4 -23.3,302.8 -26.7,312.6 -19.9,310.6 -22.8,321.3 -9.9,316.5 -11.7,325.4 
			-6,312.6 -17.4,316.2 -15,306 -22.5,308.5 -20.5,300 -29,303.4 		"/>
	</g>
	<path id="Fill-51" class="st8" d="M138.1,369.7c-0.2-0.2-0.2-0.5-0.1-0.7c0.4-0.6,0.7-1.3,1-1.9c0.1-0.3,0.5-0.5,0.9-0.3
		c0.3,0.1,0.5,0.5,0.3,0.9c-0.3,0.7-0.6,1.3-1,2c-0.2,0.3-0.6,0.4-0.9,0.2C138.2,369.8,138.2,369.8,138.1,369.7"/>
	<path id="Fill-52" class="st8" d="M130,378.7C129.9,378.7,129.9,378.7,130,378.7c-0.2-0.3-0.2-0.7,0.1-0.9c0.5-0.3,0.9-0.7,1.4-1.1
		c0.3-0.2,0.7-0.2,0.9,0.1l0,0c0.2,0.3,0.2,0.7-0.1,0.9c-0.5,0.4-1,0.8-1.5,1.1C130.6,379.1,130.2,379,130,378.7"/>
	<path id="Fill-53" class="st8" d="M124.7,381.4c-0.1-0.1-0.1-0.2-0.1-0.2c-0.1-0.3,0.1-0.7,0.5-0.8c1-0.3,2-0.7,3-1.2
		c0.3-0.2,0.7,0,0.9,0.3s0.1,0.7-0.3,0.9c-1.1,0.6-2.3,1.1-3.3,1.4C125.1,381.6,124.8,381.5,124.7,381.4"/>
	<path id="Fill-54" class="st8" d="M137.6,356.8c-0.1-0.1-0.3-0.3-0.4-0.4c-1.3-1.1-3.5-1.1-6.2,0c-2.8,1.2-5.8,3.5-8.3,6.4
		c-2.5,3-4.4,6.2-5.1,9.2c-0.7,2.8-0.4,5,0.9,6.1s3.5,1.1,6.2,0c2.8-1.2,5.8-3.5,8.3-6.4c2.5-3,4.4-6.2,5.1-9.2
		C138.8,360,138.6,358,137.6,356.8z M117.1,378.5c-1.2-1.5-1.5-3.9-0.8-6.8c0.8-3.2,2.7-6.6,5.4-9.7c2.7-3.1,5.8-5.5,8.8-6.8
		c3.1-1.3,5.8-1.2,7.5,0.2c1.7,1.5,2.2,4.1,1.3,7.4c-0.8,3.2-2.7,6.6-5.4,9.7s-5.8,5.5-8.8,6.8c-3.1,1.3-5.8,1.3-7.5-0.2
		C117.5,378.9,117.3,378.7,117.1,378.5z"/>
	<path id="Fill-55" class="st8" d="M85.3,328.4l-6.1-5.2l1.1-1.3c1.2-1.4,1-3.4-0.3-4.6c-1.4-1.2-3.4-1-4.6,0.3l-6.4,7.5
		c-1.2,1.4-1,3.4,0.3,4.6c1.4,1.2,3.4,1,4.6-0.3l1.1-1.3l6.1,5.2c1.4,1.2,3.4,1,4.6-0.3C86.8,331.7,86.7,329.6,85.3,328.4"/>
	<path id="Fill-56" class="st8" d="M151.4,395.8l6.4-7.5c1.2-1.4,1-3.4-0.3-4.6c-1.4-1.2-3.4-1-4.6,0.3l-1.1,1.3l-5.1-4.4
		c-1.6,1.4-3.3,2.9-5,4.4l5.8,5l-1.1,1.3c-1.2,1.4-1,3.4,0.3,4.6C148.1,397.3,150.2,397.2,151.4,395.8"/>
	<path id="Fill-57" d="M-89.3,479.2c0.1,0,0.2,0.1,0.3,0.1c0,0,0.1,0,0.1,0.1c0.1,0,0.2,0.1,0.3,0.1c0.1,0,0.1,0.1,0.2,0.1
		c0.1,0.1,0.2,0.1,0.3,0.2c0.1,0,0.2,0.1,0.2,0.1c0.1,0.1,0.3,0.1,0.4,0.2s0.2,0.1,0.3,0.2c0.1,0.1,0.2,0.1,0.4,0.2
		c0.1,0.1,0.3,0.1,0.4,0.2s0.3,0.1,0.4,0.2c0.1,0,0.2,0.1,0.3,0.1c0.4,0.2,0.8,0.4,1.3,0.7c-14.6-15.8,0-39.2,19.4-61.3
		c-7-8.2-8.1-14.7-8.1-14.7l0,0c-0.9,1-1.8,2-2.8,3c-0.2,0.2-0.4,0.4-0.6,0.6c-0.4,0.5-0.8,0.9-1.2,1.4c-0.2,0.2-0.3,0.4-0.5,0.6
		c-0.8,0.9-1.6,1.8-2.3,2.7c-0.1,0.2-0.3,0.3-0.4,0.5c-0.4,0.5-0.8,0.9-1.2,1.4c-0.2,0.2-0.4,0.5-0.6,0.7c-1.2,1.5-2.4,3-3.6,4.5
		c-0.2,0.3-0.4,0.5-0.6,0.8c-0.3,0.4-0.7,0.9-1,1.3c-0.2,0.3-0.4,0.6-0.6,0.9c-0.5,0.7-1,1.4-1.5,2.1c-0.2,0.3-0.5,0.7-0.7,1
		c-0.3,0.4-0.5,0.8-0.8,1.2c-0.2,0.3-0.5,0.7-0.7,1c-0.3,0.4-0.5,0.7-0.7,1.1c-0.4,0.6-0.8,1.3-1.2,1.9c-0.2,0.3-0.4,0.6-0.6,1
		c-0.3,0.4-0.5,0.8-0.8,1.2c-0.2,0.3-0.4,0.6-0.6,0.9c-0.3,0.5-0.6,1-0.9,1.4c-0.2,0.3-0.3,0.6-0.5,0.9c-0.3,0.5-0.6,1.1-0.9,1.6
		c-0.1,0.3-0.3,0.5-0.4,0.8c-0.2,0.4-0.5,0.9-0.7,1.3c-0.1,0.2-0.2,0.4-0.3,0.6c-0.3,0.6-0.6,1.2-0.9,1.8c-0.1,0.2-0.2,0.3-0.2,0.5
		c-0.2,0.5-0.4,0.9-0.6,1.3c-0.1,0.2-0.2,0.4-0.3,0.6c-0.2,0.5-0.5,1.1-0.7,1.6c0,0,0,0.1-0.1,0.1c-0.2,0.5-0.4,1.1-0.6,1.6
		c-0.1,0.2-0.1,0.3-0.2,0.4c-0.1,0.4-0.3,0.8-0.4,1.2c0,0.1-0.1,0.2-0.1,0.3c-0.1,0.5-0.2,0.9-0.3,1.4c0,0.1,0,0.2-0.1,0.3
		c-0.1,0.3-0.1,0.7-0.2,1c0,0.1,0,0.2,0,0.3c0,0.4-0.1,0.8-0.1,1.1c-0.2,0-0.3,0.1-0.5,0.1c-7.7,0.8-17.8-8.2-22-2.3
		c-2.9,4-6.2,11.1-4.8,16.7c0,0,9.8-19.4,18-8.8c0.1,0.2,0.2,0.4,0.4,0.5c3.6-0.2,7.8,2.4,11.7,4.4c1.3,2.5,3.2,5.1,5.8,7.6
		c-3.3,2.2-12.6,9.1-12.5,17.2c0.2,8.8,1.4,13.1,6.2,14.6C-111.6,485.2-89.3,479.2-89.3,479.2"/>
	<path id="Fill-58" class="st8" d="M42.5,352.8c-6.7,1.3-51.9,10.6-94.6,35.9c-23.8,14.1-52.2,55.1-52,66.9c0,0.3-0.2,0.6-0.6,0.7
		h-0.2c-0.1,0-0.2,0-0.4,0.1c-3.3,0.3-6.9-1-10.4-2.3c-4.8-1.8-8.9-3.3-11.1-0.2c-3.2,4.5-5.9,11.3-4.7,16.2
		c0.6,2.6,2.3,4.5,4.8,5.8c2,1,3.5,1.3,4.3,0.8c1.1-0.6,1.4-2.9,1.6-5.2c0.2-2.5,0.5-5.3,1.9-7.3c4-5.4,10-2.2,15.3,0.6
		c0.6,0.3,1.2,0.6,1.8,0.9c0.1,0.1,0.2,0.2,0.3,0.3c1.4,2.6,3.3,5,5.7,7.4c0.1,0.1,0.2,0.3,0.2,0.5s-0.1,0.4-0.3,0.5
		c-2.9,1.9-12.3,8.8-12.2,16.7c0.2,10.4,1.9,13.6,7.5,14.4c2.5,0.4,4,0.1,4.7-0.8c1.1-1.4,0.4-4.9-2.1-11.1
		c-1.4-3.4,2.6-8.3,6.2-12.6c0.6-0.8,1.2-1.5,1.8-2.2c0.2-0.2,0.5-0.3,0.8-0.2c0.6,0.2,2.4,1.2,4.6,2.4c2.5,1.3,5.4,2.8,7.1,3.6
		c0.3,0.1,0.5,0.5,0.3,0.8c-1.8,4.8-3.5,9.9-1.6,15.8c3.5,11.2,8.2,13,10.2,12.4c0.3-0.1,3-1,3.9-3.9c1-3.3-0.7-8-5.1-13.5
		c-2.6-3.3-3.8-5.8-3.5-7.6c0.2-1.1,0.7-1.9,1.8-2.7c0.1-0.1,0.3-0.1,0.4-0.1c4.7,0.2,8.7-1.5,11.9-5c0.5-0.4,3.4-4.4,4.3-6.9
		c1.8-3.9,2.7-8,3.4-10.7c0.2-0.8,0.4-1.6,0.5-2.1c2.9-10.5,7-24.8,14.3-37.6c13.2-23.2,34.8-38.9,69.9-50.8
		C40.2,370.5,42.1,356.4,42.5,352.8z M-130.8,474.1c-0.9-1.1-1.5-2.4-1.9-3.8c-1.4-5.8,1.8-12.9,4.9-17.3c2.8-3.9,7.5-2.1,12.6-0.2
		c3.3,1.2,6.8,2.5,9.8,2.2c0.3-6.3,7-19.1,17.3-32.9c11.5-15.3,24.7-28.2,35.3-34.6c46.3-27.4,95.4-36.2,95.9-36.2
		c0.2,0,0.4,0,0.5,0.2c0.1,0.1,0.2,0.3,0.2,0.5c-0.1,0.8-1.4,19.1-10.1,22c-34.8,11.8-56.1,27.3-69.1,50.2
		c-7.2,12.6-11.2,26.9-14.1,37.3c-0.2,0.5-0.3,1.2-0.5,2.1c-0.7,2.7-1.6,6.8-3.4,10.9c-1,2.6-4,6.8-4.7,7.3
		c-3.3,3.6-7.6,5.5-12.6,5.3c-0.6,0.5-1,1-1,1.7c-0.2,1.5,0.9,3.7,3.2,6.7c4.7,5.9,6.5,10.9,5.3,14.7c-0.8,2.7-3.1,4.3-4.8,4.8
		c-2.6,0.8-8-1.1-11.9-13.3c-2.1-6.5,0-12.4,1.4-16.1c-1.8-0.9-4.3-2.2-6.6-3.4c-1.7-0.9-3.3-1.7-4.1-2.1c-0.5,0.6-1,1.2-1.5,1.8
		c-3.2,3.8-7.1,8.6-6,11.2c2.8,6.8,3.4,10.5,1.9,12.4c-1,1.3-2.8,1.7-5.9,1.2c-7.1-1-8.5-6-8.7-15.7c-0.2-7.8,7.9-14.5,12.1-17.3
		c-2.2-2.2-3.9-4.6-5.2-7c-0.5-0.3-1.1-0.6-1.6-0.8c-5.1-2.7-10.3-5.5-13.7-1c-1.2,1.7-1.5,4.2-1.7,6.6c-0.2,2.7-0.5,5.3-2.2,6.3
		c-1.3,0.7-3,0.4-5.5-0.8C-128.6,476.2-129.8,475.3-130.8,474.1z"/>
	<path id="Fill-59" class="st8" d="M-66.5,419.7c-6.2-7.6-7.3-13.6-7.4-14s0.2-0.7,0.5-0.8c0.4-0.1,0.7,0.2,0.8,0.5
		c0,0.2,3.4,17.8,30.6,31.3c0.3,0.2,0.5,0.5,0.3,0.9c-0.2,0.3-0.5,0.5-0.9,0.3C-54.5,432-61.9,425.4-66.5,419.7"/>
	<path id="Fill-60" class="st8" d="M-76.1,425.5c-0.5-0.6-0.7-1.5-0.5-2.3c2-7.4,11.5-13.6,11.9-13.9c1.2-0.8,2.8-0.4,3.6,0.8
		c0.8,1.2,0.4,2.8-0.8,3.6c-2.3,1.5-8.4,6.3-9.7,10.9c-0.4,1.4-1.8,2.2-3.2,1.8C-75.3,426.2-75.8,425.9-76.1,425.5"/>
	<path id="Fill-61" class="st8" d="M-66.5,431.4c-0.5-0.6-0.7-1.4-0.5-2.2c1.4-6.8,8.3-11.8,8.6-12c1.2-0.8,2.8-0.6,3.6,0.6
		s0.6,2.8-0.6,3.6c-0.1,0.1-5.5,4.1-6.5,8.8c-0.3,1.4-1.7,2.3-3.1,2C-65.6,432.2-66.1,431.8-66.5,431.4"/>
	<path id="Fill-62" class="st8" d="M-54.8,438.9c-0.6-0.7-0.8-1.8-0.3-2.7l3.8-8.2c0.6-1.3,2.2-1.9,3.5-1.3s1.9,2.2,1.3,3.5
		l-3.8,8.2c-0.6,1.3-2.2,1.9-3.5,1.3C-54.3,439.4-54.6,439.2-54.8,438.9"/>
	<path id="Fill-63" class="st8" d="M26.8,376.2c-0.1-0.1-0.1-0.1-0.1-0.2c-0.2-0.3-0.1-0.7,0.1-0.9c0.3-0.2,0.7-0.1,0.9,0.1
		c0.2,0.3,5.8,7.8,15.8,1.7c0.3-0.2,0.7-0.1,0.9,0.2c0.2,0.3,0.1,0.7-0.2,0.9C34,384.4,27.7,377.4,26.8,376.2"/>
	<path id="Fill-64" class="st8" d="M42.7,352.4c-0.1-0.1-0.2-0.3-0.1-0.5c0.1-0.4,0.4-0.6,0.7-0.5c8.5,1.4,16.6,3.7,24,6.9
		c0.3,0.1,0.5,0.5,0.3,0.9c-0.1,0.3-0.5,0.5-0.9,0.3c-7.2-3.2-15.2-5.5-23.6-6.8C42.9,352.6,42.8,352.5,42.7,352.4"/>
	<path id="Fill-65" class="st8" d="M-28.1,496.3c-1.8-2.2-3.5-4.6-5-7.1c-8.7-14.4-11.1-29.4-7.1-44.6
		c10.1-38.5,58.4-65.9,58.9-66.2c0.3-0.2,0.7-0.1,0.9,0.3c0.2,0.3,0.1,0.7-0.3,0.9C18.9,379.8-29,407-39,444.9
		c-3.9,14.8-1.6,29.5,7,43.6c10.7,17.7,27.3,26.7,48.1,26.1c37.3-1.1,83.5-34,105.3-75.1c-0.2-1.7-1.5-15.3-8.2-31.2
		c-0.1-0.3,0-0.7,0.3-0.9c0.3-0.1,0.7,0,0.9,0.3c7.2,17.1,8.3,31.7,8.3,31.8c0,0.1,0,0.2-0.1,0.4c-22,41.5-68.8,74.9-106.5,76
		C-2.1,516.4-17.3,509.7-28.1,496.3"/>
	<path id="Fill-66" class="st8" d="M-14.5,508.3c-0.1-0.1-0.1-0.2-0.1-0.4c0-0.4-2.3-39.5,41.7-44.6c22.9-2.7,37.1,3.6,45,9.4
		c8.6,6.3,11.6,13.1,11.7,13.3c0.1,0.3,0,0.7-0.3,0.9c-0.3,0.1-0.7,0-0.9-0.3c-0.1-0.3-12.4-26.9-55.3-21.9
		c-18,2.1-30.3,10-36.5,23.4c-4.7,10.1-4.1,19.7-4.1,19.8c0,0.4-0.2,0.7-0.6,0.7C-14.1,508.6-14.3,508.5-14.5,508.3"/>
	<path id="Fill-67" class="st8" d="M23.3,464.9c-0.2-0.2-0.2-0.5,0-0.8c6.9-11.2,5.4-19.3,3.8-27.8c-1.5-7.9-3.1-16.1,1.2-27.8
		c8.7-23.6-4.5-30.6-5.1-30.9c-0.3-0.2-0.5-0.6-0.3-0.9s0.6-0.5,0.9-0.3c0.2,0.1,14.9,7.7,5.7,32.5c-4.2,11.4-2.7,19.4-1.2,27.1
		c1.7,8.7,3.3,17-3.9,28.7c-0.2,0.3-0.6,0.4-0.9,0.2C23.4,465,23.3,465,23.3,464.9"/>
	<path id="Fill-68" class="st8" d="M17.9,445c-0.6-0.7-0.8-1.8-0.4-2.7c0.6-1.3,2.1-1.9,3.4-1.3c5.1,2.3,12.1-1.8,12.2-1.9
		c1.2-0.7,2.8-0.3,3.6,0.9c0.7,1.2,0.3,2.8-0.9,3.6c-0.4,0.2-9.4,5.5-17,2.1C18.4,445.6,18.1,445.4,17.9,445"/>
	<path id="Fill-69" class="st8" d="M18.2,417.5c-0.2-0.2-0.3-0.5-0.4-0.7c-0.5-1.3,0.2-2.9,1.5-3.4c1-0.4,9.9-3.5,15.9,0.3
		c1.2,0.8,1.6,2.4,0.8,3.6s-2.4,1.6-3.6,0.8c-3.2-2.1-9.4-0.5-11.3,0.2C20,418.7,18.9,418.3,18.2,417.5"/>
	<path id="Fill-70" class="st8" d="M16.5,389.6c-0.6-0.7-0.8-1.7-0.4-2.6c0.5-1.3,2-2,3.4-1.5l21.8,8.4c1.3,0.5,2,2,1.5,3.4
		c-0.5,1.3-2,2-3.4,1.5l-21.8-8.4C17.1,390.3,16.7,390,16.5,389.6"/>
	<path id="Fill-71" class="st8" d="M8.7,478.6c-0.2-0.2-0.3-0.4-0.4-0.7l-3.8-9.7c-0.5-1.3,0.1-2.9,1.5-3.4c1.3-0.5,2.9,0.1,3.4,1.5
		l3.8,9.7c0.5,1.3-0.1,2.9-1.5,3.4C10.6,479.8,9.4,479.4,8.7,478.6"/>
	<path id="Fill-72" class="st8" d="M43.4,471.6c-0.5-0.6-0.7-1.4-0.5-2.2l3.4-15c0.3-1.4,1.7-2.3,3.1-2c1.4,0.3,2.3,1.7,2,3.1
		l-3.4,15c-0.3,1.4-1.7,2.3-3.1,2C44.3,472.4,43.8,472.1,43.4,471.6"/>
	<path id="Fill-73" class="st8" d="M-44,585.1c-1.2-1.5-1.9-2.9-2.2-3.8c-1.3-3.3-1-6.8,0.7-8.6c1.1-1.2,2.6-1.5,4.2-1
		c2.3,0.7,4.6,2,7.1,3.4c5.7,3.1,12.1,6.7,21.4,5.3c-2.5-4.1-13.4-23.9-7-38.7c3.2-7.5,10.4-12.6,21.4-15.1
		c41.1-9.3,60.2-26,60.4-26.2c0.3-0.2,0.7-0.2,0.9,0.1c0.3,0.3,0.2,0.7-0.1,0.9c-0.2,0.2-19.5,17.1-61,26.5
		c-10.5,2.4-17.4,7.2-20.5,14.3c-6.2,14.4,4.8,33.9,7,37.7c0.2,0.3,0.2,0.8,0.1,1.1c-0.2,0.4-0.5,0.6-0.9,0.7
		c-9.8,1.5-16.7-2.3-22.3-5.4c-2.4-1.3-4.7-2.6-6.9-3.3c-1.2-0.4-2.1-0.1-2.9,0.7c-1.4,1.4-1.5,4.4-0.5,7.2
		c1.1,2.7,4.9,9.2,17.3,10.3c30.8,2.5,61.5-15,96.9-55.2c43.3-49.2,52.2-96,52.3-96.4c0.1-0.4,0.4-0.6,0.8-0.5s0.6,0.4,0.5,0.8
		c-0.1,0.5-9.1,47.6-52.6,97C34.4,577.4,3.3,595-27.8,592.4C-36.7,591.6-41.5,588.2-44,585.1"/>
	<path id="Fill-74" class="st8" d="M-78.1,485.6c-0.2-0.2-0.2-0.5-0.1-0.7c0.2-0.3,0.6-0.4,0.9-0.3c0,0,2.5,1.3,6.6,1.2
		c0.4,0,0.7,0.3,0.7,0.6c0,0.4-0.3,0.7-0.6,0.7c-4.5,0.1-7.2-1.3-7.3-1.4C-78,485.7-78.1,485.7-78.1,485.6"/>
	<path id="Fill-75" class="st8" d="M-33.5,543.2c-2-2.5-3.3-5.7-2.7-9.7c0.9-6.4,3.7-10.7,7.6-11.8c2.7-0.7,5.5,0.3,7.4,2.6
		c2.4,3,0.4,5.7-1.3,8.1c-1.5,2-2.8,3.8-1.8,5.5c2.3,4.1,4.6,3.9,4.7,3.9c0.4,0,0.7,0.2,0.7,0.6c0,0.4-0.2,0.7-0.6,0.7
		c-0.1,0-3.2,0.3-6-4.6c-1.4-2.5,0.3-4.9,1.8-6.9c2-2.7,3-4.5,1.4-6.5s-3.8-2.8-6-2.2c-3.4,0.9-5.8,4.9-6.6,10.8
		c-1.6,11.5,13.8,15.7,14,15.7c0.3,0.1,0.6,0.4,0.5,0.8c-0.1,0.3-0.4,0.6-0.8,0.5C-21.4,550.6-29.1,548.5-33.5,543.2"/>
	<path id="Fill-76" class="st8" d="M-44.6,560.8c-3.1-3.9-4.3-7.3-3.5-10.2c1.2-4.4,6.5-5.9,6.8-5.9c0.1,0,2.2-0.5,4.3,1
		c2.3,1.6,3.6,4.9,4,9.6c0.2,2,1,3.7,2.5,4.8c3.8,3.1,10.8,2.1,10.9,2.1c0.4,0,0.7,0.2,0.7,0.6c0.1,0.4-0.2,0.7-0.6,0.7
		c-0.3,0-7.6,1-11.9-2.4c-1.8-1.4-2.7-3.3-3-5.7c-0.4-4.3-1.6-7.3-3.5-8.7c-1.6-1.2-3.2-0.8-3.2-0.8s-4.8,1.3-5.8,5
		c-0.8,2.9,0.8,6.6,4.9,10.9c12.1,12.8,24.6,8.1,24.7,8c0.3-0.1,0.7,0,0.8,0.4c0.1,0.3,0,0.7-0.4,0.8c-0.1,0.1-13.4,5.2-26.1-8.3
		C-43.5,562.1-44.1,561.4-44.6,560.8"/>
	<path id="Fill-77" class="st8" d="M-63.1,563.9c-4.7-5.8-9.5-14.8-8.9-16.6c0.3-0.9,1.9-2,7.2-5.1c10.1-6.1,29-17.3,47.8-36.4
		c0.3-0.3,0.7-0.3,0.9,0c0.3,0.2,0.3,0.7,0,0.9c-18.9,19.2-37.8,30.6-48,36.6c-3.4,2-6.4,3.8-6.6,4.4c-0.3,1.5,7.8,16.9,13.2,19.7
		c1.3,0.7,1.8,0.3,2.1,0c3.2-3.4-2.6-14.1-5.1-18c-0.1-0.1-0.1-0.3-0.1-0.5s0.2-0.3,0.3-0.4c0.1-0.1,11.2-6.6,24.3-16
		c1.3-7.3,4.7-9.8,6.7-10.5c2.1-0.8,4.3-0.6,6.2,0.6c5.2-4.3,9.9-8.4,13.8-12.4c0.3-0.3,0.7-0.3,0.9,0c0.2,0.2,0.3,0.7,0,0.9
		c-4.1,4.1-8.9,8.4-14.3,12.8c-0.2,0.2-0.6,0.2-0.8,0c-1.6-1.2-3.6-1.5-5.4-0.8c-2.9,1.2-5.1,4.7-5.9,9.8c0,0.2-0.1,0.3-0.3,0.4
		c-11.5,8.4-21.5,14.4-24,15.9c1.7,2.8,8.8,14.7,4.6,19c-0.7,0.7-1.9,1.3-3.9,0.1C-59.8,567.6-61.4,565.9-63.1,563.9"/>
	<path id="Fill-78" class="st8" d="M-93.2,526.8c-1.6-2-2.9-4-3.4-5.5c-0.7-2.2,0.1-3.3,1-3.8c4.9-3,13,4.6,15.3,7.1
		c0.9-1.7,3.1-5.9,7.4-11.7c0.1-0.1,0.3-0.2,0.4-0.3c0.2,0,0.3,0,0.5,0.1c1.3,1,2.6,1.3,3.6,1c1.1-0.4,2.7-1.4,3.6-3.1
		c0.9-1.9,0.8-4.2-0.3-7c-0.1-0.2,0-0.5,0.1-0.7c7.1-8.1,16.6-17,26.8-24.9c0.3-0.2,0.7-0.2,0.9,0.1c0.2,0.3,0.2,0.7-0.1,0.9
		c-9.9,7.8-19.3,16.5-26.3,24.4c1.1,2.9,1.1,5.5,0.1,7.6c-1,2.1-2.9,3.4-4.4,3.8c-1.3,0.4-2.8,0.1-4.3-0.8
		c-5.2,7.2-7.3,11.8-7.3,11.8c-0.1,0.2-0.3,0.3-0.5,0.4c-0.2,0-0.4,0-0.6-0.2c-2.6-2.9-10.4-10-14.4-7.5c-0.4,0.2-0.8,0.7-0.5,2.1
		c1.6,5.9,15,17,16.5,17c0.4-0.2,1.7-2.6,3.1-5.1c5.7-10.1,17.4-31.1,41.6-46.5c0.3-0.2,0.7-0.1,0.9,0.2c0.2,0.3,0.1,0.7-0.2,0.9
		c-23.9,15.3-35.5,36.1-41.1,46.1c-2.5,4.4-3.2,5.7-4.2,5.7C-80.7,539-88.5,532.5-93.2,526.8"/>
	<path id="Fill-79" class="st8" d="M3.6,527c-0.2-0.2-0.2-0.6,0-0.8c0.2-0.3,0.6-0.3,0.9-0.1s26.6,20,62.3-8.6
		c36-28.8,47.1-53.7,47.2-54s0.5-0.5,0.9-0.3c0.3,0.1,0.5,0.5,0.3,0.9c-0.1,0.3-2.8,6.4-10.1,16.3c-6.7,9.1-18.6,23-37.5,38.2
		c-19,15.2-35.4,16.8-45.7,15.4c-11.2-1.5-17.9-6.6-18.2-6.8C3.7,527,3.6,527,3.6,527"/>
	<path id="Fill-80" class="st8" d="M45.1,535.9c-0.4-0.5-0.6-1.2-0.6-1.9l1.5-13.2c0.2-1.4,1.5-2.5,2.9-2.3s2.5,1.5,2.3,2.9
		l-1.5,13.2c-0.2,1.4-1.5,2.5-2.9,2.3C46.1,536.8,45.5,536.4,45.1,535.9"/>
	<path id="Fill-81" class="st8" d="M21.2,539.5C21.2,539.5,21.2,539.4,21.2,539.5c-0.9-1.2-0.7-2.8,0.4-3.7c1.4-1.1,1.8-5.8,1.5-8.7
		c-0.2-1.4,0.9-2.7,2.3-2.9s2.7,0.9,2.9,2.3c0.2,1.6,0.9,10-3.4,13.4C23.7,540.8,22.1,540.6,21.2,539.5"/>
	<path id="Fill-82" class="st8" d="M76.6,514.2c-2.8-3.5-3.8-8.9-4.1-10.3c-0.2-1.4,0.7-2.8,2.2-3c1.4-0.2,2.8,0.7,3,2.2
		c0.7,4,2.6,8.6,4.3,8.9c1.4,0.2,2.4,1.6,2.2,3c-0.2,1.4-1.6,2.4-3,2.2C79.3,516.7,77.7,515.6,76.6,514.2"/>
	<path id="Fill-83" class="st6" d="M48,507.8L48,507.8L48,507.8L48,507.8"/>
	<path id="Fill-84" class="st6" d="M48,507.8L48,507.8L48,507.8L48,507.8"/>
</g>
<rect x="776.5" y="-428.8" class="st5" width="972" height="384"/>
<g id="WeHo-Logo_1_">
	<g id="Logo---City-of-West-Hollywood_1_">
		<g id="Group-75_1_">
			<g id="Fill-37-Clipped_1_">
				<g>
					<polygon id="Fill-37-3_1_" points="764.1,840 759.6,824.1 743.7,828.5 748.2,844.4 					"/>
				</g>
			</g>
			<g id="Fill-38-Clipped_1_">
				<g>
					<polygon id="Fill-38-3_1_" points="783.7,834.5 779.3,818.7 763.5,823.1 767.8,838.9 					"/>
				</g>
			</g>
			<g id="Fill-39-Clipped_1_">
				<g>
					<polygon id="Fill-39-2_1_" points="778.4,815.1 773.9,799.1 758,803.6 762.4,819.5 					"/>
				</g>
			</g>
			<g id="Fill-40-Clipped_1_">
				<g>
					<polygon id="Fill-40-2_1_" points="759,820.4 754.7,804.6 738.8,809 743.2,824.8 					"/>
				</g>
			</g>
			<g id="Fill-41-Clipped_1_">
				<g>
					<polygon id="Fill-41-3_1_" points="714.8,811.5 710.4,795.6 694.6,800 699,815.9 					"/>
				</g>
			</g>
			<g id="Fill-42-Clipped_1_">
				<g>
					<polygon id="Fill-42-2_1_" points="734.4,806.1 729.9,790.2 714,794.6 718.4,810.5 					"/>
				</g>
			</g>
			<g id="Fill-43-Clipped_1_">
				<g>
					<polygon id="Fill-43-2_1_" points="709.2,792.1 704.7,776.2 688.8,780.6 693.3,796.5 					"/>
				</g>
			</g>
			<g id="Fill-44-Clipped_1_">
				<g>
					<polygon id="Fill-44-2_1_" points="753.7,800.9 749.3,785 733.4,789.4 737.8,805.3 					"/>
				</g>
			</g>
			<g id="Fill-45-Clipped_1_">
				<g>
					<polygon id="Fill-45_2_" points="772.9,795.6 768.5,779.7 752.7,784.1 757,800 					"/>
				</g>
			</g>
			<g id="Fill-46-Clipped_1_">
				<g>
					<polygon id="Fill-46-2_1_" points="698.8,753 694.3,737.1 678.5,741.6 682.9,757.4 					"/>
				</g>
			</g>
			<g id="Fill-47-Clipped_1_">
				<g>
					<polygon id="Fill-47-2_1_" points="693.2,733.5 688.8,717.7 672.9,722 677.3,737.9 					"/>
				</g>
			</g>
			<g id="Fill-48-Clipped_1_">
				<g>
					<polygon id="Fill-48-2_1_" points="712.2,728.2 707.8,712.4 691.9,716.8 696.3,732.6 					"/>
				</g>
			</g>
			<g id="Fill-49-Clipped_1_">
				<g>
					<polygon id="Fill-49_2_" points="706.9,709 702.4,693.1 686.6,697.6 691,713.4 					"/>
				</g>
			</g>
			<g id="Fill-50-Clipped_1_">
				<g>
					<polygon id="Fill-50_2_" points="687.9,714.2 683.6,698.4 667.7,702.7 672.1,718.6 					"/>
				</g>
			</g>
			<g id="Fill-51-Clipped_1_">
				<g>
					<polygon id="Fill-51-2_1_" points="682.1,694.9 677.7,679 661.8,683.4 666.2,699.3 					"/>
				</g>
			</g>
			<g id="Fill-54-Clipped_1_">
				<g>
					<polygon id="Fill-54-2_1_" points="665,783.5 660.6,767.6 644.8,772 649.2,787.9 					"/>
				</g>
			</g>
			<g id="Fill-55-Clipped_1_">
				<g>
					<polygon id="Fill-55-2_1_" points="673.4,739 669,723.1 653.1,727.5 657.6,743.4 					"/>
				</g>
			</g>
			<g id="Fill-56-Clipped_1_">
				<g>
					<polygon id="Fill-56-2_1_" points="668,719.5 663.6,703.7 647.7,708.1 652.1,723.9 					"/>
				</g>
			</g>
			<g id="Fill-57-Clipped_1_">
				<g>
					<polygon id="Fill-57_2_" points="659.6,764.1 655.2,748.2 639.4,752.6 643.8,768.5 					"/>
				</g>
			</g>
			<g id="Fill-61-Clipped_1_">
				<g>
					<polygon id="Fill-61_2_" points="803.3,829.1 798.9,813.2 783,817.6 787.5,833.5 					"/>
				</g>
			</g>
			<g id="Fill-62-Clipped_1_">
				<g>
					<polygon id="Fill-62_2_" points="797.9,809.6 793.5,793.8 777.6,798.1 782,814 					"/>
				</g>
			</g>
			<g id="Fill-63-Clipped_1_">
				<g>
					<polygon id="Fill-63-2_1_" points="792.6,790.4 788.1,774.4 772.2,778.9 776.6,794.8 					"/>
				</g>
			</g>
			<g id="Fill-64-Clipped_1_">
				<g>
					<polygon id="Fill-64-2_1_" points="767.5,776.3 763.2,760.4 747.3,764.8 751.7,780.7 					"/>
				</g>
			</g>
			<g id="Fill-65-Clipped_1_">
				<g>
					<polygon id="Fill-65-2_1_" points="689.7,797.7 685.4,781.8 669.4,786.3 673.9,802.1 					"/>
				</g>
			</g>
			<g id="Fill-66-Clipped_1_">
				<g>
					<polygon id="Fill-66_2_" points="723.1,767.1 718.6,751.3 702.7,755.7 707.1,771.6 					"/>
				</g>
			</g>
			<g id="Fill-67-Clipped_1_">
				<g>
					<polygon id="Fill-67-2_1_" points="703.8,772.6 699.3,756.6 683.4,761.1 687.9,777 					"/>
				</g>
			</g>
			<g id="Fill-68-Clipped_1_">
				<g>
					<polygon id="Fill-68_2_" points="684.2,778 679.9,762.1 664,766.5 668.4,782.3 					"/>
				</g>
			</g>
			<g id="Fill-69-Clipped_1_">
				<g>
					<polygon id="Fill-69-2_1_" points="678.8,758.5 674.4,742.6 658.5,747 662.9,762.9 					"/>
				</g>
			</g>
			<g id="Fill-70-Clipped_1_">
				<g>
					<polygon id="Fill-70-2_1_" points="731.1,869.8 726.7,853.9 710.9,858.3 715.2,874.2 					"/>
				</g>
			</g>
			<g id="Fill-71-Clipped_1_">
				<g>
					<polygon id="Fill-71_2_" points="725.7,850.5 721.4,834.6 705.5,839 709.9,854.9 					"/>
				</g>
			</g>
			<g id="Fill-72-Clipped_1_">
				<g>
					<polygon id="Fill-72_2_" points="745.2,845.1 740.8,829.3 725,833.7 729.4,849.5 					"/>
				</g>
			</g>
			<g id="Fill-73-Clipped_1_">
				<g>
					<polygon id="Fill-73-2_1_" points="739.8,825.6 735.4,809.7 719.5,814.2 723.9,830.1 					"/>
				</g>
			</g>
			<g id="Fill-74-Clipped_1_">
				<polygon id="Fill-74_2_" points="720.1,831.1 715.6,815.3 699.8,819.7 704.2,835.5 				"/>
			</g>
		</g>
	</g>
</g>
</svg>
