<svg id="Layer_1" data-name="Layer 1" xmlns="http://www.w3.org/2000/svg" viewBox="0 0 960 365"><defs><style>.cls-1{fill:#f5f5f5;}.cls-12,.cls-2,.cls-4,.cls-5,.cls-6{isolation:isolate;}.cls-2{font-size:36px;fill:#9013fe;font-family:IM_FELL_English_SC, IM FELL English SC;}.cls-3{letter-spacing:0em;}.cls-5{font-size:18px;font-family:GoboldBoldItalic-Italic, Gobold Bold Italic;}.cls-12,.cls-5,.cls-6{font-style:italic;}.cls-6{font-size:28px;font-family:IM_FELL_English_Italic, IM FELL English;}.cls-12,.cls-6{fill:#ee509a;}.cls-7{letter-spacing:-0.02em;}.cls-8{letter-spacing:-0.01em;}.cls-9{letter-spacing:0em;}.cls-10{letter-spacing:0.01em;}.cls-11{letter-spacing:-0.01em;}.cls-12{font-size:36px;font-family:GoboldThinItalic-Italic, Gobold Thin Italic;}.cls-13{letter-spacing:0em;}.cls-14{fill:#4e18af;}</style></defs><title>Artboard 1</title><rect id="Rectangle-5" class="cls-1" x="0.6" y="1.3" width="960" height="365"/><text class="cls-2" transform="matrix(0.99, -0.1, 0.1, 0.99, 366.93, 266.71)">6 - <tspan class="cls-3" x="47.3" y="0">1</tspan><tspan x="60.38" y="0">0:30 pm</tspan></text><g id="Group-12"><g class="cls-4"><path d="M586.81,196.09l-.25-2.78c-.11-1.32.38-2,1.47-2.12a3.81,3.81,0,0,1,.67,0l1.9.2c.7.07,1.33.65,1.89,1.72q.57-1.47,1.62-1.35l1.91.2a2.66,2.66,0,0,1,2.55,2.74l.23,2.65Zm1.05-1.2,4.25.44-.09-1a3,3,0,0,0-.13-.72,1.37,1.37,0,0,0-1.18-.89l-1.9-.2c-.78-.08-1.14.29-1.06,1.11Zm5.41.57,4.25.44-.11-1.24a1.33,1.33,0,0,0-1.28-1.37l-1.9-.19a.85.85,0,0,0-1,.66,2.46,2.46,0,0,0,0,.71Z"/><path d="M591.28,185.84l1.16.12.24,2.79,4.26.45-.29-3.24,1.17.12.4,4.57-12-1.26-.4-4.57,1.17.12.28,3.24,4.25.45Z"/><path d="M585.29,178.79l1.17.13.16,1.9L597.46,182l.11,1.32-10.83-1.14.17,1.92-1.17-.13Z"/><path d="M595.3,171.32l-10.91-2.88-.12-1.34,4.18,1.05,8,2.21.19,2.17-8.31.48,8.55,2.25.19,2.19-7.77.56-4,.17-.12-1.34,10.6-.62-10.9-2.88-.13-1.4Z"/><path d="M589.22,162.39l1.17.12.24,2.8,4.25.44-.28-3.24,1.17.12.4,4.57-12-1.26-.4-4.57,1.16.13.29,3.24,4.25.44Z"/><path d="M588.7,156.39l1.16.13.25,2.79,4.25.44-.28-3.24,1.16.12.4,4.57-12-1.26-.39-4.57,1.16.13.28,3.24,4.25.44Z"/><path d="M583.12,153.94l-.12-1.39,9.51-1.54-9.71-1-.12-1.17,12,1.25.12,1.4L585.48,153l9.53,1,.11,1.26Z"/></g><text class="cls-5" transform="translate(641.54 139.28) rotate(-95)"> </text><text class="cls-6" transform="translate(619.36 162.83) rotate(-5)"><tspan class="cls-7">N</tspan><tspan x="22.59" y="0">orth Dohe</tspan><tspan class="cls-8" x="120.18" y="0">n</tspan><tspan x="133.14" y="0">y Dr</tspan><tspan class="cls-9" x="178.83" y="0">i</tspan><tspan x="186.76" y="0">ve </tspan></text><text class="cls-6" transform="translate(647.58 192.15) rotate(-5)">and <tspan class="cls-10" x="44.62" y="0">L</tspan><tspan x="63.1" y="0">a </tspan><tspan class="cls-11" x="81.43" y="0">C</tspan><tspan x="95.13" y="0">ienega</tspan></text><text class="cls-12" transform="translate(196.15 232.91) rotate(-6)">Santa Monica Bouleva<tspan class="cls-13" x="330.86" y="0">r</tspan><tspan x="348.31" y="0">d</tspan></text></g><g id="WeHo-Logo"><g id="Logo---City-of-West-Hollywood"><g id="Group-75"><g id="Fill-37-Clipped"><polygon id="Fill-37" points="353.7 106.8 365.4 95.3 353.9 83.5 342.1 95 353.7 106.8"/></g><g id="Fill-38-Clipped"><polygon id="Fill-38" points="367.9 121.4 379.7 109.9 368.1 98.1 356.4 109.7 367.9 121.4"/></g><g id="Fill-39-Clipped"><polygon id="Fill-39" points="382.4 107.3 394.1 95.7 382.6 84 370.8 95.5 382.4 107.3"/></g><g id="Fill-40-Clipped"><polygon id="Fill-40" points="368.4 93 380.1 81.5 368.6 69.7 356.8 81.2 368.4 93"/></g><g id="Fill-41-Clipped"><polygon id="Fill-41" points="354.8 49.9 366.6 38.4 355 26.6 343.3 38.2 354.8 49.9"/></g><g id="Fill-42-Clipped"><polygon id="Fill-42" points="368.9 64.4 380.7 52.9 369.1 41.1 357.4 52.6 368.9 64.4"/></g><g id="Fill-43-Clipped"><polygon id="Fill-43" points="369 35.6 380.8 24.1 369.3 12.3 357.5 23.8 369 35.6"/></g><g id="Fill-44-Clipped"><polygon id="Fill-44" points="382.9 78.8 394.6 67.3 383.1 55.5 371.3 67 382.9 78.8"/></g><g id="Fill-45-Clipped"><polygon id="Fill-45" points="396.8 93.1 408.6 81.6 397 69.8 385.3 81.3 396.8 93.1"/></g><g id="Fill-46-Clipped"><polygon id="Fill-46" points="398.3 7.6 410 -3.9 398.5 -15.7 386.7 -4.1 398.3 7.6"/></g><g id="Fill-48-Clipped"><polygon id="Fill-48" points="426.4 7.4 438.2 -4.1 426.6 -15.9 414.9 -4.3 426.4 7.4"/></g><g id="Fill-61-Clipped"><polygon id="Fill-61" points="382.2 135.9 394 124.4 382.4 112.6 370.7 124.2 382.2 135.9"/></g><g id="Fill-62-Clipped"><polygon id="Fill-62" points="396.6 121.8 408.3 110.2 396.8 98.5 385 110 396.6 121.8"/></g><g id="Fill-63-Clipped"><polygon id="Fill-63" points="410.9 107.8 422.6 96.2 411.1 84.5 399.3 96 410.9 107.8"/></g><g id="Fill-64-Clipped"><polygon id="Fill-64" points="411.1 79.1 422.9 67.6 411.3 55.8 399.6 67.4 411.1 79.1"/></g><g id="Fill-65-Clipped"><polygon id="Fill-65" points="354.8 21.3 366.5 9.8 355 -2 343.2 9.6 354.8 21.3"/></g><g id="Fill-66-Clipped"><polygon id="Fill-66" points="397.6 35.7 409.3 24.2 397.8 12.4 386 24 397.6 35.7"/></g><g id="Fill-67-Clipped"><polygon id="Fill-67" points="383.5 21.4 395.3 9.9 383.8 -1.9 372 9.7 383.5 21.4"/></g><g id="Fill-68-Clipped"><polygon id="Fill-68" points="369.4 7 381.1 -4.5 369.6 -16.3 357.8 -4.8 369.4 7"/></g><g id="Fill-70-Clipped"><polygon id="Fill-70" points="311.7 92.4 323.4 80.9 311.9 69.1 300.1 80.6 311.7 92.4"/></g><g id="Fill-71-Clipped"><polygon id="Fill-71" points="325.9 78.4 337.7 66.9 326.1 55.1 314.4 66.6 325.9 78.4"/></g><g id="Fill-72-Clipped"><polygon id="Fill-72" points="340 92.8 351.8 81.3 340.3 69.5 328.5 81.1 340 92.8"/></g><g id="Fill-73-Clipped"><polygon id="Fill-73" points="354.5 78.7 366.2 67.1 354.7 55.4 342.9 66.9 354.5 78.7"/></g><g id="Fill-74-Clipped"><polygon id="Fill-74" points="340.1 64.1 351.9 52.5 340.4 40.8 328.6 52.3 340.1 64.1"/></g></g></g></g><path id="Icon" class="cls-14" d="M145.8,170.3a9.83,9.83,0,0,0-1.6.5c-15.4,5-20.4,27.3-10,41.8l26,38.4a2,2,0,0,0,2.9.5,2.19,2.19,0,0,0,.8-1.4l8.8-46.9c3.8-17.9-9.3-35.8-25.2-33.2Zm7.8,36.3c-5.3,1.3-10.5-2.4-11.7-8.3s2.1-11.6,7.4-12.9,10.5,2.4,11.7,8.3S158.9,205.3,153.6,206.6Z"/></svg>