<?xml version="1.0" encoding="utf-8"?>
<!-- Generator: Adobe Illustrator 22.1.0, SVG Export Plug-In . SVG Version: 6.00 Build 0)  -->
<svg version="1.1" id="Layer_1" xmlns="http://www.w3.org/2000/svg" xmlns:xlink="http://www.w3.org/1999/xlink" x="0px" y="0px"
	 viewBox="0 0 960 365" style="enable-background:new 0 0 960 365;" xml:space="preserve">
<style type="text/css">
	.st0{fill:#F5F5F5;}
	.st1{fill:#9013FE;}
	.st2{font-family:'IM_FELL_English_SC';}
	.st3{font-size:60px;}
	.st4{font-family:'GoboldThinLightItalic-Italic';}
	.st5{font-size:21px;}
	.st6{letter-spacing:1;}
	.st7{font-family:'GoboldBoldItalic-Italic';}
	.st8{font-size:18px;}
	.st9{fill:#EE509A;}
	.st10{font-family:'IM_FELL_English_Italic';}
	.st11{font-size:28px;}
	.st12{font-family:'GoboldThinItalic-Italic';}
	.st13{font-size:48px;}
</style>
<rect id="Rectangle-5" class="st0" width="960" height="365"/>
<text transform="matrix(0.9947 -0.1025 0.1025 0.9947 167.3647 288.5228)" class="st1 st2 st3">6 - 10:30 pm</text>
<g id="Group-12" transform="translate(474.500000, 176.925830) rotate(6.000000) translate(-474.500000, -176.925830) translate(136.000000, 54.925830)">
	<text transform="matrix(-0.1908 -0.9816 0.9816 -0.1908 482.4339 139.7627)" class="st4 st5 st6">between</text>
	<text transform="matrix(-0.1908 -0.9816 0.9816 -0.1908 460.3684 70.95)" class="st7 st8"> </text>
	<text transform="matrix(0.9816 -0.1908 0.1908 0.9816 488.9467 90.1448)" class="st9 st10 st11">North Doheny Drive </text>
	<text transform="matrix(0.9816 -0.1908 0.1908 0.9816 520.0728 116.3537)" class="st9 st10 st11">and La Cienega</text>
	<text transform="matrix(0.9781 -0.2079 0.2079 0.9781 -52.5885 226.4199)" class="st9 st12 st13">Santa Monica Boulevard</text>
</g>
<g>
	<path d="M131.4,82.2c-0.3-0.2-0.7-0.2-1,0.1c0,0,0,0,0,0l-4.2,5l0,0l0,0l-0.4,0.6c-0.1,0.2-0.3,0.4-0.5,0.5l-0.2,0.2
		c-0.1,0.2-0.4,0.3-0.6,0.2c-0.1,0-0.2-0.1-0.2-0.2c0-0.2,0-0.4,0.1-0.5c0,0,0-0.1,0-0.1c0,0,0,0,0,0c0.1-0.4,0.2-1.2,0.3-1.6
		l0.1-0.8c0.1-0.2,0-0.5-0.2-0.6c-0.3-0.2-0.7-0.2-1,0c-0.2,0.1-0.3,0.3-0.3,0.5c0,0.3-0.1,0.6-0.2,1c-0.1,0.3-0.1,0.7-0.2,1.1
		c0,0.2-0.1,0.5-0.1,0.7c-0.5,2.1-1.4,4.4-2.7,4.7c-0.2,0-0.3,0-0.5-0.1c-0.8-0.5-1.4-2.4-1.9-5c2.4-5.6,5-13,4.3-16.8
		c-0.4-1.9-1.4-3-2.7-2.7c-1.1,0.2-1.9,1.3-2.6,3.2c-1.5,4.4-1.5,11-0.7,15.9c-0.4,1.9-1.2,2.6-2.2,2.7c-1,0.1-1.9-1.9-2.5-5.1
		c2.4-5.6,5-13,4.3-16.8c-0.4-1.9-1.4-3-2.7-2.7c-3.5,0.6-4.4,11-3.4,18.2l-0.1,0c-0.4,0.3-0.8,0.4-1.3,0.4c-0.4,0-0.9-0.1-1.3-0.2
		l0,0c-0.1-0.4-0.3-0.8-0.5-1.2c-0.2-0.4-0.5-0.6-0.9-0.7c-0.3-0.1-0.6,0.1-0.7,0.3c-0.2,0.3-0.3,0.6-0.3,0.9c0,0.4,0.1,0.8,0.4,1.2
		c0.2,0.3,0.4,0.6,0.7,0.8c0,0,0.1,0.1,0.1,0.1c0,0.4,0,0.7,0,1.1c0,0.4-0.1,0.8-0.1,1.1c-0.1,0.4-0.1,0.9-0.2,1.3
		c-0.1,0.5-0.3,1-0.5,1.5c-0.2,0.4-0.4,0.8-0.7,1.1c-0.2,0.3-0.6,0.4-0.9,0.3c-0.3-0.1-0.6-0.3-0.8-0.7c-0.2-0.4-0.4-0.8-0.4-1.3
		c-0.1-0.5-0.1-1-0.1-1.5c0-0.4,0-0.9,0-1.3c0-0.4,0.1-0.8,0.1-1.2c0.1-0.4,0.2-0.9,0.3-1.3c0.1-0.4,0.3-0.8,0.4-1.2
		c0.1-0.3,0.4-0.6,0.6-0.9l0,0c0.1-0.1,0.2-0.3,0.3-0.4c0.1-0.2,0.2-0.4,0.1-0.6c0-0.2-0.1-0.4-0.3-0.5c-0.2-0.1-0.3-0.1-0.5-0.1
		c-0.4,0.1-0.7,0.4-0.9,0.7c-0.2,0.4-0.4,0.7-0.6,1.1c-0.2,0.5-0.4,1-0.5,1.5c-0.5,0-0.9,0-1.3,0s-0.9,0-1.3,0c0-0.1,0-0.3,0.1-0.4
		c0-0.2,0.1-0.4,0.1-0.6c0.4-2.1,0.9-4.3,1.3-6.4c0.4-2.1,0.8-4.3,1.3-6.4c0-0.2,0-0.4-0.2-0.6c-0.1-0.1-0.3-0.3-0.5-0.3
		c-0.2-0.1-0.4-0.1-0.5,0c-0.2,0.1-0.3,0.3-0.4,0.5l-2.7,13.4c0,0.2-0.1,0.3-0.1,0.5l-0.1,0.4c-3.4,0-6.9,0.2-10.3,0.5
		c0.4-2.3,0.9-4.7,1.4-7.3c0.5-2.5,1-5,1.4-7.5c0-0.2,0-0.4-0.1-0.6c-0.1-0.2-0.3-0.3-0.5-0.3c-0.2-0.1-0.4,0-0.6,0
		c-0.2,0.1-0.3,0.3-0.4,0.5c-0.5,2.7-1,5.3-1.5,7.7s-1,5-1.5,7.6c-5,0.5-9.9,1.3-14.8,2.4c-0.2,0-0.4,0.2-0.5,0.4
		c-0.1,0.2-0.1,0.4,0,0.6c0.1,0.2,0.2,0.4,0.3,0.5c0.2,0.2,0.4,0.2,0.6,0.1c2.4-0.5,4.8-1,7.2-1.4c2.3-0.4,4.6-0.7,6.9-0.9
		c-0.5,2.9-1.1,5.7-1.6,8.5l-1.7,8.7c0,0.2,0,0.5,0.2,0.6c0.1,0.2,0.3,0.3,0.5,0.3c0.1,0,0.1,0,0.2,0c0.1,0,0.2,0,0.3-0.1
		c0.2-0.1,0.3-0.3,0.3-0.5c0.6-3,1.2-6,1.8-8.9c0.6-2.9,1.1-5.8,1.7-8.8c1.7-0.2,3.5-0.3,5.2-0.4s3.4-0.2,5.1-0.2
		c-0.3,1.6-0.6,3.3-0.9,4.9c-0.3,1.6-0.5,3.4-0.7,5.1c0,0.2,0,0.5,0.2,0.6c0.3,0.3,0.8,0.3,1.1,0c0.2-0.1,0.3-0.3,0.3-0.6
		c0.2-1.7,0.4-3.4,0.7-5.1s0.6-3.3,0.9-5h2.7c-0.1,0.9-0.2,1.8-0.1,2.7c0,0.5,0.1,1,0.1,1.5c0.1,0.5,0.2,1,0.3,1.4
		c0.1,0.4,0.4,0.8,0.6,1.2c0.2,0.3,0.6,0.6,1,0.8c0.2,0.1,0.5,0.2,0.8,0.2c0.2,0,0.3,0,0.5-0.1c0.4-0.1,0.8-0.4,1.1-0.7
		c0.3-0.3,0.6-0.7,0.8-1.1c0.2-0.4,0.4-0.9,0.6-1.4c0.2-0.7,0.4-1.5,0.5-2.2c0.1-0.7,0.2-1.5,0.2-2.3c0.4,0.1,0.8,0.1,1.1,0.1
		c0.4,0,0.8-0.1,1.2-0.3c0.1-0.1,0.3-0.1,0.4-0.2c0.8,4,2.2,6.2,3.9,6.2c1.2,0.1,2.3-0.5,2.9-1.5c0.4,1.6,1,2.8,1.6,3.5
		c0.4,0.5,1.1,0.8,1.7,0.9c0.2,0,0.3,0,0.5-0.1c1.5-0.3,2.5-2,3.1-3.9c0.1,0.1,0.2,0.1,0.4,0.2c0.4,0.1,0.9,0.1,1.3-0.1
		c0.7-0.3,1.2-0.8,1.7-1.5c0.4-0.6,0.9-1.1,1.3-1.7l0.1-0.1l0.8-1c0.2-0.2,0.3-0.4,0.5-0.6c-0.4,2-0.8,4.1-1.1,6.1
		c-0.3,2.2-0.6,4.4-0.8,6.6c-0.2,2.2-0.4,4.4-0.5,6.7c-0.1,0.9-0.1,1.2-0.1,1.3c0,0.2,0,0.2,0,0.9c0,0.2,0.1,0.4,0.2,0.6
		c0.1,0.2,0.4,0.3,0.6,0.3h0c0.4,0,0.8-0.3,0.8-0.8c0.2-3.7,0.4-5.1,0.7-8.2c0.1-0.5,0.1-1.1,0.2-1.8c0.5-4.7,1.2-9.5,2.1-14.4
		C131.8,82.8,131.7,82.4,131.4,82.2z M119.5,69.7h0.1c0.7,0,1,1.4,1.1,1.6c0.6,3.2-1.8,9.9-3.3,13.8C116.5,77.2,117.8,70,119.5,69.7
		z M113.3,66.8c0.7,0,1,1.4,1.1,1.6c0.6,3.2-1.8,9.9-3.3,13.8c-0.8-8,0.5-15.1,2.2-15.5L113.3,66.8z"/>
	<g>
		<path d="M118.3,61.5c0,0.7,0.3,1.5,0.8,2c0.4,0.5,1,0.9,1.6,1.1c0.4,0.1,0.8,0.2,1.3,0.2c0.2,0,0.4,0,0.7-0.1
			c0.9-0.1,1.8-0.5,2.5-1c0.7-0.5,1.4-1.1,2-1.7c0.6-0.5,1.2-1.1,1.7-1.6l0.1-0.1c0,0.1,0.1,0.2,0.2,0.3c0.2,0.4,0.5,0.7,0.8,1
			l0.1,0.1l-0.6,0.5l-0.7,0.6c-0.3,0.2-0.5,0.4-0.8,0.7c-0.3,0.2-0.5,0.5-0.7,0.8c-0.2,0.3-0.4,0.6-0.5,0.9c-0.1,0.4-0.1,0.7,0,1.1
			c0.2,0.6,0.5,1,1,1.3c0.4,0.2,0.9,0.4,1.4,0.4h0.2c0.6,0,1.2-0.2,1.7-0.6c0.5-0.3,1-0.8,1.4-1.3c0.4-0.5,0.6-1.1,0.7-1.7
			c0.1-0.6,0.1-1.3-0.2-1.9c-0.2-0.3-0.4-0.6-0.6-0.8c0.7-0.6,1.4-1.1,2.2-1.5c0.6-0.4,1.3-0.7,2-1c-0.1,1.5-0.3,3.1-0.4,4.6
			c-0.3,4.4-0.5,9-0.5,13.5c0,0.2,0.1,0.4,0.2,0.6c0.3,0.3,0.8,0.3,1.1,0c0.2-0.1,0.2-0.4,0.2-0.6c0-4.5,0.2-9.1,0.5-13.5
			c0.3-4.5,0.8-8.9,1.4-13.4l1.1-0.1l1.7-0.1l2.9-0.2c0.2,0,0.4-0.1,0.6-0.3c0.1-0.2,0.2-0.4,0.2-0.6c0-0.2-0.1-0.4-0.2-0.5
			c-0.2-0.1-0.4-0.2-0.6-0.2l0,0l-2.8,0.2l-2.7,0.2c0.1-1,0.3-2.1,0.5-3.1c0.2-1,0.3-2.1,0.5-3.2c0-0.2,0-0.4-0.2-0.6
			c-0.1-0.2-0.3-0.3-0.5-0.3c-0.2-0.1-0.4,0-0.6,0.1c-0.2,0.1-0.3,0.3-0.3,0.5c-0.2,1.1-0.4,2.3-0.6,3.5c-0.2,1.2-0.3,2.2-0.5,3.3
			c-0.5,0.1-1,0.1-1.5,0.1c-0.5,0-1.1,0.1-1.6,0.1c-0.2,0-0.4,0.1-0.6,0.3c-0.1,0.2-0.2,0.4-0.2,0.6c0,0.2,0.1,0.4,0.2,0.5
			c0.2,0.1,0.4,0.2,0.6,0.2l0,0l1.6-0.1h0.2l1.1-0.1c-0.3,2.3-0.6,4.6-0.8,6.9l0,0c-1,0.4-2,0.8-3,1.4c-0.9,0.6-1.8,1.2-2.6,1.8
			c-0.3-0.2-0.5-0.4-0.7-0.7c-0.2-0.3-0.3-0.8-0.2-1.2c0-0.1,0-0.2,0.1-0.2c0-0.1,0.1-0.2,0.1-0.3c0.1-0.3,0.2-0.5,0.4-0.8
			c0.3-0.4,0.6-0.8,0.9-1.2c0.3-0.3,0.6-0.6,1-0.9c0.2-0.1,0.3-0.3,0.3-0.5c0-0.2-0.1-0.3-0.2-0.5c-0.1-0.2-0.3-0.3-0.5-0.3
			c-0.2,0-0.5,0-0.6,0.2c-0.8,0.7-1.4,1.4-2,2.3c-0.2,0.4-0.4,0.8-0.6,1.2c0,0,0,0,0,0.1c-0.2,0.4-0.5,0.7-0.8,1l-0.9,1l-1.4,1.4
			c-0.5,0.4-1,0.8-1.5,1.2c-0.6,0.4-1.2,0.6-1.8,0.8c-0.6,0.2-1.3,0-1.9-0.3c-0.3-0.1-0.5-0.4-0.6-0.7c-0.1-0.3-0.2-0.6-0.2-0.8
			c0-0.3,0-0.6,0.1-1c0.1-0.3,0.1-0.5,0.2-0.8c0.7,0.4,1.6,0.4,2.4,0c0.9-0.4,1.6-1.1,2.1-2c0.3-0.6,0.6-1.1,0.8-1.8
			c0.2-0.6,0.3-1.3,0.1-1.9c-0.1-0.5-0.4-1-0.9-1.2c-0.5-0.2-1-0.2-1.5,0c-0.7,0.3-1.2,0.6-1.7,1.1c-0.5,0.5-1,1-1.3,1.6
			c-0.4,0.6-0.7,1.2-1,1.9c-0.2,0.6-0.5,1.3-0.6,1.9C118.5,60.1,118.3,60.8,118.3,61.5z M128.6,65.8c0.1-0.3,0.2-0.7,0.5-0.9
			c0.3-0.4,0.6-0.7,1-1c0.4-0.3,0.7-0.5,0.9-0.7c0.1-0.1,0.3-0.2,0.4-0.3c0.1-0.1,0.2-0.1,0.2-0.2c0.2,0.1,0.3,0.3,0.4,0.5
			c0.1,0.2,0.1,0.5,0.1,0.8c-0.1,0.3-0.2,0.6-0.3,0.9c-0.2,0.3-0.4,0.6-0.7,0.8c-0.3,0.2-0.6,0.4-0.9,0.5c-0.3,0.1-0.6,0.1-0.9,0
			C128.5,66.2,128.5,65.9,128.6,65.8L128.6,65.8z M120.7,58.1c0.3-0.6,0.6-1.3,1-1.9c0.1-0.1,0.3-0.3,0.5-0.6
			c0.2-0.3,0.5-0.6,0.8-0.8c0.2-0.2,0.5-0.3,0.8-0.4c0,0,0.1,0,0.1,0c0.1,0.1,0.1,0.2,0.1,0.3c0,0.2,0,0.5-0.1,0.7
			c-0.1,0.3-0.2,0.6-0.3,0.8c-0.1,0.3-0.3,0.5-0.5,0.8c-0.1,0.2-0.3,0.4-0.4,0.6c-0.3,0.3-0.7,0.6-1.1,0.7
			C121.3,58.4,121,58.3,120.7,58.1z"/>
		<path d="M90.8,63.9c0.3,0.8,0.7,1.5,1.3,2c0.6,0.5,1.3,0.8,2.1,0.8c1.2,0,2.4-0.4,3.3-1.2c1.1-0.8,2-1.8,2.8-2.9
			c0.9-1.3,1.7-2.7,2.4-4.1c0.7-1.5,1.5-3.1,2.1-4.7c0.6-1.6,1.2-3.2,1.7-4.7l0.1-0.3c0.1,1,0.1,2.1,0.2,3.2c0.2,1.9,0.5,3.8,1,5.7
			c0.4,1.6,0.9,3,1.7,4.4c0.8,1.3,1.8,2,3,2c1,0,1.9-0.4,2.5-1.2c0.7-0.8,1.3-1.7,1.7-2.8c0.5-1.2,0.9-2.5,1.1-3.8
			c0.3-1.4,0.5-2.9,0.7-4.4c0.2-1.5,0.3-3,0.4-4.5s0.1-2.9,0.1-4.2c0-1,0-1.8-0.1-2.5c-0.1-0.8-0.1-1.4-0.1-1.9
			c0-0.3-0.2-0.6-0.4-0.8c-0.2-0.1-0.5-0.1-0.7,0c-0.4,0.2-0.7,0.6-0.6,1c0,0.5,0.1,1.1,0.1,1.8c0,0.7,0,1.5,0,2.4
			c0,1.2,0,2.6-0.1,4c-0.1,1.4-0.2,2.9-0.3,4.3c-0.2,1.4-0.4,2.8-0.6,4.1c-0.2,1.2-0.6,2.3-1,3.5c-0.3,0.8-0.8,1.6-1.3,2.3
			c-0.3,0.4-0.9,0.7-1.4,0.7c-0.6,0-1.2-0.4-1.7-1.3c-0.7-1.2-1.1-2.6-1.4-3.9c-0.4-1.7-0.7-3.5-0.8-5.3c-0.2-1.9-0.3-3.8-0.3-5.5
			c0-0.7,0-1.4,0-2.1c0-0.7,0.1-1.3,0.1-1.8c0.1-0.4-0.2-0.9-0.6-1l-0.1,0h-0.1c-0.2,0-0.3,0-0.4,0.1c-0.2,0.1-0.4,0.3-0.4,0.6
			c-0.2,1-0.6,2.2-1,3.8c-0.4,1.5-1,3.2-1.6,4.9c-0.6,1.7-1.3,3.5-2,5.2c-0.7,1.6-1.5,3.2-2.5,4.6c-0.8,1.2-1.7,2.3-2.7,3.3
			c-0.7,0.7-1.7,1.1-2.8,1.2c-0.4,0-0.8-0.2-1-0.4c-0.4-0.4-0.7-0.9-0.9-1.4c-0.3-0.8-0.4-1.6-0.5-2.4c-0.1-1-0.2-2.1-0.2-3.1
			c0-2.2,0.2-4.4,0.5-6.5c0.3-2.4,0.8-4.8,1.4-7.1c0.6-2.3,1.3-4.6,2.2-6.8c0.7-1.9,1.7-3.8,2.8-5.5c0.3-0.4,0.3-0.9,0-1.2
			c-0.2-0.2-0.4-0.3-0.6-0.3l0,0c-0.2,0-0.5,0.1-0.6,0.3l-0.1,0.1c-1.2,1.8-2.2,3.8-3,5.8c-0.9,2.3-1.7,4.6-2.3,7
			c-0.6,2.4-1.1,4.9-1.5,7.4c-0.3,2.3-0.5,4.6-0.5,6.9c0,1.2,0.1,2.4,0.2,3.5C90.2,62,90.5,62.9,90.8,63.9z"/>
	</g>
	<path d="M172.4,58.2c-0.3-0.3-0.8-0.3-1.1,0c-0.1,0.1-0.2,0.4-0.2,0.6l-0.1,19.6c0,0.1,0,0.1-0.1,0.2c-0.1,0.1-0.2,0.1-0.3,0
		c-0.5-0.2-1-0.2-1.5,0c-0.1,0-0.1,0-0.2,0.1c-0.7,0.4-1.2,1-1.7,1.6c-0.6,0.8-1.2,1.6-1.6,2.5c-0.4,0.8-0.8,1.8-1,2.7
		c0,0.1,0,0.3-0.1,0.4c-0.8,1.1-1.7,1.8-2.6,1.8c0.3-1.1,0.4-2.3,0.4-3.4c0-1.8-0.5-4.9-2.6-4.9c-0.9,0-1.5,0.6-1.8,1.7
		c-0.1,0.5-0.2,1-0.2,1.5l0,0c-0.1,0-0.3,0.1-0.4,0.1c-0.5,0.5-0.9,1.2-1.1,1.9c-0.4,0.2-0.8,0.3-1.2,0.5c-0.5,0.2-1,0.3-1.5,0.4
		c0-0.7,0-1.4,0-2.1c-0.1-0.8-0.2-1.5-0.5-2.3c-0.2-0.6-0.6-1.1-1.1-1.5c-0.5-0.4-1.3-0.5-1.9-0.2c-0.4,0.2-0.7,0.4-1,0.7
		c-0.3,0.3-0.4,0.7-0.6,1.1c-0.1,0.4-0.2,0.8-0.2,1.2c0,0.4,0,0.7,0,1.1c0.1,0.4,0.2,0.7,0.3,1.1c-0.4,0.3-0.7,0.7-1.1,1
		c-0.4,0.3-0.9,0.4-1.3,0.2c-0.2,0-0.3-0.1-0.5-0.2c0.1-0.4,0.2-0.9,0.3-1.3c0-0.3,0.1-0.8,0.1-1.6c0.1-0.8,0.1-1.7,0-2.5
		c-0.1-0.7-0.2-1.5-0.5-2.1c-0.2-0.5-0.8-0.8-1.3-0.6c0,0-0.1,0-0.1,0c-0.3,0.1-0.6,0.3-0.8,0.6c-0.2,0.3-0.3,0.6-0.4,1
		c-0.1,0.3-0.2,0.7-0.2,1c0,0.3-0.1,0.6-0.1,0.9c-0.1,1.5,0.2,2.9,0.8,4.3c0.1,0.3,0.3,0.6,0.5,0.9c-0.1,0.5-0.3,1-0.5,1.4
		c-0.2,0.5-0.5,1-0.8,1.4c-0.2,0.3-0.4,0.5-0.6,0.8c-0.2,0.2-0.5,0.4-0.8,0.4c-0.3,0-0.6-0.1-0.8-0.4c-0.2-0.3-0.4-0.5-0.6-0.9
		c-0.2-0.6-0.4-1.3-0.4-2c0-0.7-0.1-1.4-0.2-2.1c-0.1-0.3-0.3-0.5-0.6-0.6c-0.3-0.1-0.6,0-0.8,0.2c-0.1,0.2-0.4,0.5-0.8,1.1
		s-0.8,1.1-1.3,1.7c-0.4,0.5-0.8,1-1.3,1.5c-0.5,0.5-0.7,0.4-0.7,0.4c-0.1-0.1-0.2-0.3-0.2-0.4c0-0.3,0-0.5,0-0.8
		c0-0.3,0.1-0.6,0.2-0.9c0-0.2,0.1-0.4,0.2-0.7c0.3-1,0.8-2,1.5-2.8c0.1-0.2,0.2-0.4,0.2-0.6c0-0.2-0.1-0.4-0.2-0.5
		c-0.1-0.1-0.3-0.2-0.5-0.2c-0.2,0-0.4,0.1-0.6,0.3c-1,1.2-1.7,2.6-2.1,4.1c-0.1,0.2-0.1,0.5-0.2,0.9c-0.1,0.3-0.1,0.7-0.1,1
		c0,0.3,0,0.7,0.1,1c0.1,0.3,0.2,0.6,0.4,0.9c0.4,0.4,0.9,0.6,1.5,0.5c0.5-0.1,1-0.4,1.4-0.8c0.5-0.5,1-1,1.4-1.5l1-1.3
		c0,0.5,0.1,0.9,0.1,1.3c0.1,0.6,0.3,1.2,0.6,1.7c0.3,0.5,0.7,0.9,1.3,1.2c0.4,0.2,0.9,0.4,1.3,0.3c0.1,0,0.2,0,0.3,0
		c1-0.2,1.9-0.8,2.4-1.7c0.5-0.9,1-1.8,1.3-2.7c0.1,0.1,0.3,0.1,0.4,0.2c0.2,0,0.4,0.1,0.6,0.2c0.5,0.1,1.1,0,1.5-0.2
		c-0.1,0.4-0.2,0.7-0.2,1.1c-0.1,0.5-0.1,1.1,0,1.6c0,0.5,0.2,1,0.4,1.4c0.3,0.7,0.9,1.2,1.6,1.4c0.2,0.1,0.4,0.1,0.6,0.1
		c0.5,0,1.1-0.2,1.4-0.6c0.7-0.7,1.2-1.6,1.4-2.5c0.2-0.9,0.4-1.8,0.6-2.7c0.6-0.1,1.2-0.2,1.8-0.4c0.2-0.1,0.5-0.2,0.7-0.3
		c-0.1,1,0.1,2,0.4,2.9c0.5,1.3,1.4,2,2.4,2s2-0.8,2.7-2.3c0.1,0,0.3,0,0.4,0l0,0c1.1-0.1,2.1-0.6,2.8-1.4c0,0.1,0,0.1,0.1,0.2
		c0.3,0.7,1,1.2,1.8,1.3c0.7,0,1.4-0.1,2-0.4c0.7-0.4,1.2-0.8,1.7-1.4l0.2-0.2c0.1-0.1,0.2-0.1,0.3-0.1c0.1,0,0.2,0.1,0.2,0.2v7.7
		c0,0.4,0.4,0.8,0.9,0.7c0.4,0,0.7-0.3,0.7-0.7l0.2-36C172.7,58.6,172.6,58.4,172.4,58.2z M166.2,85.8c0.2-0.8,0.5-1.5,0.8-2.2
		c0.4-0.8,0.9-1.5,1.4-2.2c0.4-0.5,0.8-0.9,1.4-1.3c0,0,0.1,0,0.1,0c0,0,0.1,0,0.1,0.1c0.1,0.2,0.3,0.4,0.3,0.6
		c0.2,0.4,0.2,0.8,0.3,1.2c-0.1,0.8-0.2,1.5-0.5,2.2c-0.3,0.7-0.6,1.3-1.1,1.9c-0.4,0.5-0.8,0.9-1.4,1.2c-0.4,0.2-0.9,0.2-1.2-0.2
		C166.1,86.9,166,86.4,166.2,85.8L166.2,85.8z M150.3,86.5c0.3,0.2,0.6,0.3,0.9,0.4c0.2,0.1,0.4,0.1,0.6,0.1
		c-0.2,0.9-0.4,1.7-0.7,2.5c-0.1,0.2-0.2,0.6-0.4,0.9c-0.1,0.3-0.3,0.5-0.5,0.7c-0.3,0.2-0.5,0.3-0.6,0.2c-0.2-0.1-0.3-0.3-0.4-0.4
		c-0.1-0.3-0.2-0.5-0.2-0.8c0-0.2-0.1-0.4-0.1-0.7c0-0.6,0.1-1.2,0.2-1.8c0.1-0.5,0.3-1,0.5-1.5C149.9,86.2,150.1,86.4,150.3,86.5
		L150.3,86.5z M152,85.5c-0.3-0.1-0.6-0.2-0.9-0.3c-0.3-0.2-0.6-0.4-0.8-0.7c-0.3-0.5-0.4-1-0.5-1.6c-0.1-0.6,0.1-1.1,0.4-1.6
		c0.3-0.4,0.4-0.4,0.5-0.4h0.1c0.2,0.1,0.4,0.2,0.4,0.4c0.1,0.3,0.3,0.6,0.3,0.9c0.1,0.3,0.1,0.5,0.2,0.8
		C152,83.8,152,84.7,152,85.5L152,85.5z M144.5,81.8c0,0.4,0,0.8,0,1.2c0,0.2,0,0.4-0.1,0.5c0-0.1,0-0.1-0.1-0.2
		c-0.2-0.6-0.3-1.3-0.3-1.9c0-0.6,0-1.2,0.2-1.8l0,0c0,0.1,0,0.2,0.1,0.2C144.5,80.5,144.5,81.1,144.5,81.8L144.5,81.8z M159.2,81.1
		c0.1-0.3,0.3-0.3,0.4-0.3l0,0c0.8,0,1.2,2.2,1.2,3.8c0,0.8-0.1,1.7-0.2,2.5C159.3,85.4,158.7,82.2,159.2,81.1L159.2,81.1z
		 M158.8,90c-0.4,0-0.7-0.3-1-0.8c-0.6-1.2-0.5-3.6,0-4.9c0.3,1.9,1.2,3.5,2.3,4.3C159.9,89.1,159.5,90,158.8,90z"/>
</g>
</svg>
