<?xml version="1.0" encoding="utf-8"?>
<!-- Generator: Adobe Illustrator 22.1.0, SVG Export Plug-In . SVG Version: 6.00 Build 0)  -->
<svg version="1.1" id="Layer_1" xmlns="http://www.w3.org/2000/svg" xmlns:xlink="http://www.w3.org/1999/xlink" x="0px" y="0px"
	 viewBox="0 0 960 365" style="enable-background:new 0 0 960 365;" xml:space="preserve">
<style type="text/css">
	.st0{fill:#F5F5F5;}
	.st1{fill:#9013FE;}
	.st2{font-family:'IM_FELL_English_SC';}
	.st3{font-size:59.998px;}
	.st4{font-family:'GoboldThinLightItalic-Italic';}
	.st5{font-size:21px;}
	.st6{font-family:'GoboldBoldItalic-Italic';}
	.st7{font-size:18px;}
	.st8{fill:#EE509A;}
	.st9{font-family:'IM_FELL_English_Italic';}
	.st10{font-size:28px;}
	.st11{font-family:'GoboldThinItalic-Italic';}
	.st12{font-size:47.9977px;}
	.st13{fill:#FFFFFF;}
	.st14{fill:none;}
</style>
<rect id="Rectangle-5" x="0.6" y="1.3" class="st0" width="960" height="365"/>
<text transform="matrix(0.9947 -0.1025 0.1025 0.9947 167.9921 289.8309)" class="st1 st2 st3">6 - 10:30 pm</text>
<g id="Group-12" transform="translate(474.500000, 176.925830) rotate(6.000000) translate(-474.500000, -176.925830) translate(136.000000, 54.925830)">
	<text transform="matrix(-0.1908 -0.9816 0.9816 -0.1908 483.1942 140.9972)" class="st4 st5">between</text>
	<text transform="matrix(-0.1908 -0.9816 0.9816 -0.1908 461.129 72.1845)" class="st6 st7"> </text>
	<text transform="matrix(0.9816 -0.1908 0.1908 0.9816 489.7073 91.3795)" class="st8 st9 st10">North Doheny Drive </text>
	<text transform="matrix(0.9816 -0.1908 0.1908 0.9816 520.8334 117.5884)" class="st8 st9 st10">and La Cienega</text>
	<text transform="matrix(0.9781 -0.2079 0.2079 0.9781 -51.828 227.6545)" class="st8 st11 st12">Santa Monica Boulevard</text>
</g>
<rect x="-980.5" y="0" width="959" height="367"/>
<g id="Layer_2_1_">
	<g id="Layer_1-2">
		<path class="st13" d="M-503.9,157.1c0,1.6,0.6,3.1,1.6,4.2c0.9,1.1,2.1,1.9,3.4,2.3c0.9,0.3,1.8,0.4,2.7,0.4c0.5,0,0.9,0,1.4-0.1
			c1.9-0.2,3.7-1,5.3-2.1c1.5-1.1,2.9-2.2,4.3-3.5c1.2-1.1,2.5-2.2,3.6-3.3l0.3-0.3c0.1,0.2,0.2,0.5,0.3,0.7c0.4,0.8,1,1.4,1.6,2
			l0.2,0.2l-1.2,1l-1.5,1.3c-0.5,0.4-1.1,0.9-1.6,1.4s-1,1-1.5,1.6s-0.8,1.2-1,1.9c-0.2,0.8-0.2,1.6,0.1,2.3
			c0.3,1.2,1.1,2.2,2.2,2.8c0.9,0.5,1.9,0.8,3,0.8h0.4c1.3-0.1,2.5-0.5,3.6-1.2s2.1-1.6,2.8-2.7c0.7-1.1,1.3-2.3,1.5-3.5
			c0.3-1.3,0.2-2.6-0.3-3.9c-0.3-0.6-0.8-1.2-1.3-1.7c1.5-1.2,3-2.2,4.5-3.2c1.3-0.8,2.7-1.5,4.1-2c-0.3,3.2-0.6,6.4-0.8,9.6
			c-0.6,9.3-1,18.8-1.2,28.3c0,0.5,0.2,0.9,0.5,1.2c0.7,0.6,1.6,0.6,2.3,0c0.3-0.3,0.5-0.7,0.5-1.2c0.1-9.5,0.4-19,1.1-28.3
			c0.7-9.3,1.7-18.6,3-27.9l2.4-0.2l3.5-0.2l6.1-0.4c0.5,0,0.9-0.2,1.2-0.6c0.3-0.3,0.4-0.7,0.4-1.2c0-0.4-0.2-0.8-0.5-1.1
			s-0.8-0.4-1.2-0.4l0,0l-5.9,0.4l-5.6,0.4c0.3-2.1,0.6-4.3,1-6.5c0.4-2.1,0.7-4.3,1.1-6.8c0.1-0.5,0-0.9-0.3-1.3
			c-0.2-0.3-0.6-0.6-1-0.7s-0.8-0.1-1.2,0.1s-0.7,0.6-0.7,1.1c-0.5,2.4-0.9,4.8-1.3,7.2c-0.4,2.4-0.7,4.7-1.1,7
			c-1,0.1-2.1,0.2-3.1,0.2c-1.1,0-2.3,0.1-3.4,0.2c-0.5,0-0.9,0.2-1.2,0.6c-0.3,0.3-0.4,0.7-0.4,1.2c0,0.4,0.2,0.8,0.5,1.1
			s0.8,0.5,1.2,0.4l0,0l3.3-0.2h0.5l2.3-0.1c-0.6,4.8-1.2,9.6-1.7,14.5l0,0c-2.2,0.8-4.3,1.7-6.2,2.9c-1.9,1.2-3.7,2.5-5.5,3.8
			c-0.5-0.4-1-0.9-1.4-1.4c-0.5-0.7-0.7-1.6-0.5-2.4c0-0.2,0.1-0.3,0.1-0.5c0.1-0.2,0.1-0.4,0.2-0.6c0.2-0.6,0.5-1.1,0.8-1.7
			c0.5-0.9,1.2-1.8,1.9-2.5c0.6-0.7,1.3-1.3,2-1.9c0.4-0.3,0.6-0.7,0.6-1.1c-0.1-0.4-0.2-0.7-0.5-1s-0.7-0.5-1.1-0.6
			c-0.5-0.1-1,0.1-1.3,0.4c-1.6,1.4-3,3-4.1,4.8c-0.5,0.8-0.9,1.6-1.2,2.5l-0.1,0.1c-0.5,0.8-1.1,1.5-1.7,2.2l-1.9,2l-3,2.8
			c-1,0.9-2.1,1.8-3.2,2.5c-1.2,0.7-2.4,1.3-3.8,1.6c-1.4,0.4-2.8,0.1-3.9-0.7c-0.6-0.3-1.1-0.8-1.4-1.4c-0.2-0.6-0.4-1.2-0.4-1.8
			c0-0.7,0.1-1.3,0.2-2c0.1-0.5,0.3-1.1,0.4-1.6c1.6,0.8,3.4,0.8,5,0c1.8-0.9,3.3-2.4,4.3-4.1c0.7-1.2,1.2-2.4,1.7-3.7
			s0.6-2.7,0.3-4.1c-0.1-1.1-0.8-2.1-1.8-2.5s-2.1-0.4-3.1,0c-1.4,0.5-2.6,1.4-3.7,2.4s-2,2.2-2.8,3.4c-0.8,1.3-1.5,2.6-2,4
			c-0.5,1.3-0.9,2.6-1.3,4C-503.7,154.1-503.9,155.6-503.9,157.1z M-482.5,166.1c0.2-0.7,0.5-1.4,1-1.9c0.6-0.7,1.3-1.4,2-2
			c0.9-0.7,1.4-1.1,1.8-1.4c0.3-0.2,0.5-0.4,0.8-0.7c0.1-0.1,0.3-0.3,0.5-0.4c0.3,0.3,0.6,0.7,0.8,1.1c0.2,0.5,0.3,1.1,0.2,1.6
			c-0.2,0.6-0.4,1.3-0.7,1.9c-0.3,0.7-0.8,1.3-1.4,1.8c-0.5,0.5-1.2,0.9-1.8,1.1c-0.6,0.2-1.2,0.3-1.9,0.1
			C-482.7,166.8-482.6,166.3-482.5,166.1L-482.5,166.1z M-498.9,149.9c0.6-1.4,1.3-2.7,2.1-3.9c0.2-0.3,0.5-0.7,1.1-1.3
			c0.5-0.6,1.1-1.2,1.7-1.6c0.5-0.4,1-0.7,1.6-0.9c0.1,0,0.2,0,0.3,0c0.2,0.2,0.3,0.4,0.3,0.7c0.1,0.5,0,1-0.1,1.4
			c-0.2,0.6-0.4,1.2-0.7,1.7c-0.3,0.6-0.6,1.1-1,1.7c-0.3,0.4-0.6,0.9-0.9,1.3c-0.6,0.7-1.4,1.2-2.3,1.5
			C-497.6,150.6-498.4,150.4-498.9,149.9z"/>
		<path class="st13" d="M-476.6,200.5c-0.6-0.5-1.5-0.4-2,0.2l0,0l-8.8,10.4l-0.1,0.1l0,0l-0.9,1.2c-0.3,0.4-0.6,0.8-1,1.1l-0.3,0.4
			c-0.3,0.4-0.8,0.6-1.3,0.5c-0.2,0-0.4-0.2-0.4-0.4c-0.1-0.4,0-0.8,0.1-1.1c0-0.1,0-0.2,0.1-0.3c0,0,0,0,0-0.1
			c0.2-0.9,0.4-2.5,0.6-3.4l0.2-1.7c0.1-0.5-0.1-0.9-0.4-1.2c-0.6-0.5-1.5-0.5-2.1,0c-0.4,0.3-0.6,0.7-0.7,1.1
			c-0.1,0.6-0.2,1.3-0.4,2s-0.3,1.6-0.5,2.4c-0.1,0.5-0.1,1-0.2,1.5c-1.1,4.3-2.9,9.2-5.6,9.8c-0.4,0.1-0.7,0-1-0.2
			c-1.6-1.1-3-4.9-4-10.5c4.9-11.7,10.5-27.2,9-35.1c-0.8-4-3-6.2-5.7-5.7c-2.2,0.4-4.1,2.7-5.4,6.6c-3.1,9.2-3.2,23-1.4,33.4
			c-0.8,4-2.6,5.5-4.6,5.7s-4-4-5.1-10.7c4.9-11.7,10.5-27.2,9-35.1c-0.8-4-2.9-6.2-5.7-5.7c-7.2,1.4-9.2,23-7.2,38l-0.2,0.1
			c-0.8,0.6-1.7,0.9-2.7,0.8c-0.9,0-1.8-0.2-2.7-0.5l0,0c-0.2-0.9-0.6-1.7-1-2.5c-0.3-0.8-1-1.3-1.9-1.5c-0.6-0.1-1.2,0.1-1.5,0.6
			c-0.4,0.5-0.6,1.2-0.6,1.9c0,0.9,0.3,1.7,0.8,2.4c0.4,0.6,0.9,1.2,1.5,1.7c0.1,0.1,0.1,0.1,0.2,0.2c0.1,0.8,0.1,1.5,0,2.3
			c-0.1,0.8-0.2,1.6-0.3,2.3c-0.1,0.9-0.3,1.9-0.5,2.8c-0.3,1.1-0.6,2.1-1,3.1c-0.3,0.9-0.8,1.7-1.5,2.4c-0.5,0.6-1.2,0.8-1.9,0.7
			c-0.7-0.2-1.3-0.7-1.6-1.4c-0.4-0.8-0.7-1.7-0.9-2.7s-0.3-2.1-0.3-3.1c0-0.9,0-1.9,0.1-2.8c0.1-0.8,0.1-1.7,0.3-2.5
			c0.1-0.9,0.3-1.8,0.6-2.7c0.2-0.8,0.5-1.6,0.9-2.4c0.3-0.7,0.8-1.3,1.3-1.8l0,0c0.2-0.3,0.4-0.6,0.7-0.9c0.3-0.4,0.4-0.8,0.3-1.2
			c0-0.5-0.2-0.9-0.6-1.2c-0.3-0.2-0.7-0.3-1.1-0.1c-0.8,0.2-1.5,0.7-1.9,1.5c-0.5,0.7-0.9,1.5-1.3,2.3c-0.5,1-0.8,2.1-1.1,3.2
			c-1,0-1.9,0-2.8,0c-0.9,0-1.8,0-2.8,0c0-0.3,0.1-0.6,0.1-0.9c0.1-0.4,0.2-0.8,0.3-1.2c0.9-4.4,1.8-9,2.6-13.5
			c0.9-4.5,1.7-8.9,2.6-13.5c0.1-0.5,0-0.9-0.3-1.3c-0.3-0.3-0.6-0.5-1-0.6s-0.8-0.1-1.1,0.1c-0.4,0.2-0.7,0.6-0.8,1l-5.6,28
			c-0.1,0.3-0.1,0.7-0.2,1.1l-0.2,0.9c-7.2,0.1-14.4,0.5-21.5,1.1c0.9-4.8,1.9-9.9,3-15.2s2.1-10.5,3-15.6c0.1-0.4,0-0.9-0.3-1.3
			c-0.2-0.3-0.6-0.6-1-0.7c-0.4-0.1-0.8-0.1-1.2,0.1c-0.4,0.2-0.7,0.6-0.8,1c-1.1,5.7-2.2,11.1-3.1,16.1c-0.9,5-2,10.5-3.1,15.9
			c-10.4,1.1-20.8,2.8-31,5.1c-0.5,0-0.9,0.3-1.1,0.8c-0.2,0.4-0.2,0.8-0.1,1.2s0.3,0.7,0.6,1c0.4,0.3,0.9,0.4,1.3,0.2
			c4.9-1.1,10-2.1,15-2.9c4.8-0.8,9.7-1.4,14.5-1.9c-1.1,6-2.3,11.9-3.4,17.7l-3.6,18.2c-0.1,0.5,0,0.9,0.3,1.3
			c0.3,0.3,0.6,0.6,1,0.7c0.1,0,0.3,0.1,0.4,0.1c0.3,0,0.5-0.1,0.7-0.2c0.4-0.2,0.7-0.6,0.7-1.1c1.3-6.3,2.5-12.6,3.7-18.7
			c1.2-6.1,2.4-12.2,3.6-18.4c3.6-0.3,7.2-0.6,10.8-0.8s7.1-0.4,10.7-0.4c-0.7,3.4-1.3,6.8-1.9,10.3c-0.6,3.4-1.1,7.1-1.4,10.7
			c-0.1,0.5,0.1,1,0.4,1.3c0.7,0.6,1.6,0.6,2.3,0c0.4-0.3,0.6-0.7,0.6-1.2c0.3-3.6,0.8-7.2,1.4-10.7s1.2-6.9,1.9-10.4h5.7
			c-0.2,1.9-0.3,3.7-0.3,5.6c0,1,0.1,2,0.3,3.1c0.1,1,0.4,2,0.7,3c0.3,0.9,0.8,1.8,1.3,2.5s1.2,1.3,2,1.6c0.5,0.2,1,0.4,1.6,0.4
			c0.3,0,0.7,0,1-0.1c0.9-0.3,1.6-0.8,2.2-1.4c0.7-0.7,1.2-1.5,1.7-2.3c0.5-0.9,0.9-1.9,1.2-2.9c0.5-1.5,0.8-3,1.1-4.6
			c0.3-1.6,0.4-3.2,0.4-4.8c0.8,0.1,1.6,0.2,2.4,0.2c0.9,0,1.7-0.2,2.5-0.5c0.3-0.1,0.6-0.3,0.8-0.5c1.6,8.4,4.6,13.1,8.2,13.1
			c2.4,0.2,4.8-1.1,6-3.2c0.9,3.3,2,5.9,3.3,7.3c0.9,1.1,2.2,1.8,3.7,1.8c0.3,0,0.7,0,1-0.1c3.1-0.7,5.1-4.2,6.5-8.1
			c0.2,0.2,0.5,0.3,0.8,0.4c0.9,0.2,1.9,0.2,2.8-0.3c1.4-0.7,2.6-1.8,3.5-3.1c0.9-1.2,1.8-2.4,2.8-3.5l0.1-0.2l1.7-2.1
			c0.3-0.4,0.7-0.8,1-1.2c-0.9,4.3-1.7,8.6-2.3,12.8c-0.7,4.6-1.2,9.3-1.6,13.9s-0.8,9.3-1,14c-0.1,1.9-0.1,2.5-0.2,2.8
			c0,0.3,0,0.4-0.1,1.8c0,0.5,0.1,0.9,0.4,1.2s0.7,0.5,1.2,0.5h-0.1c0.9,0,1.6-0.7,1.7-1.6c0.5-7.8,0.8-10.7,1.5-17.1
			c0.1-1.1,0.3-2.3,0.4-3.7c1.1-9.8,2.6-19.9,4.4-30.1C-475.7,201.6-476,200.9-476.6,200.5z M-501.5,174.2h0.2c1.5,0,2.1,3,2.2,3.4
			c1.3,6.8-3.7,20.8-7,28.9C-507.8,189.9-505,174.9-501.5,174.2z M-514.5,168.2c1.5,0,2.1,2.8,2.2,3.4c1.3,6.8-3.7,20.8-7,28.9
			c-1.7-16.7,1-31.7,4.6-32.3L-514.5,168.2z"/>
		<path class="st13" d="M-561.5,162c0.6,1.6,1.5,3.1,2.8,4.2c1.2,1.1,2.8,1.7,4.4,1.7c2.5,0,4.9-0.9,6.9-2.5
			c2.3-1.7,4.2-3.8,5.9-6.2c1.9-2.7,3.6-5.6,5.1-8.6c1.5-3.2,3.1-6.4,4.4-9.8c1.3-3.4,2.5-6.6,3.5-9.9l0.2-0.7
			c0.1,2.1,0.3,4.4,0.5,6.6c0.4,4,1,8,2,11.9c0.7,3.2,1.9,6.4,3.6,9.3c1.6,2.8,3.7,4.2,6.2,4.2c2,0,4-0.9,5.3-2.4
			c1.5-1.7,2.7-3.6,3.5-5.8c1-2.6,1.8-5.3,2.3-8c0.6-3,1.1-6.1,1.5-9.2c0.4-3.1,0.7-6.4,0.8-9.5c0.1-3.1,0.2-6.1,0.2-8.8
			c0-2,0-3.7-0.1-5.3c-0.1-1.6-0.1-2.9-0.3-4c0-0.6-0.3-1.2-0.8-1.6c-0.5-0.3-1-0.3-1.5-0.1c-0.8,0.3-1.4,1.2-1.2,2.1
			c0.1,1,0.2,2.3,0.2,3.8c0.1,1.6,0.1,3.2,0.1,5.1c0,2.6-0.1,5.4-0.2,8.4c-0.1,2.9-0.4,6-0.7,9c-0.3,3-0.8,5.9-1.3,8.7
			c-0.5,2.5-1.2,4.9-2.1,7.2c-0.7,1.8-1.6,3.4-2.8,4.8c-0.7,0.9-1.8,1.5-3,1.5c-1.3,0-2.5-0.9-3.5-2.8c-1.4-2.6-2.4-5.4-3-8.2
			c-0.9-3.6-1.4-7.4-1.7-11.1c-0.4-4-0.5-7.9-0.5-11.4c0-1.5,0-3,0.1-4.4s0.1-2.6,0.3-3.7c0.2-0.9-0.4-1.8-1.3-2.1l-0.2-0.1h-0.2
			c-0.3,0-0.6,0-0.9,0.2c-0.4,0.3-0.8,0.7-0.9,1.2c-0.5,2-1.2,4.7-2.1,7.9c-0.9,3.2-2,6.6-3.3,10.2c-1.3,3.6-2.7,7.2-4.3,10.8
			c-1.4,3.4-3.2,6.6-5.1,9.7c-1.6,2.6-3.5,4.9-5.8,6.9c-1.6,1.5-3.6,2.4-5.8,2.4c-0.8,0-1.6-0.3-2.1-0.9c-0.8-0.9-1.4-1.9-1.8-3
			c-0.5-1.6-0.9-3.3-1.1-5c-0.3-2.2-0.4-4.3-0.4-6.5c0-4.6,0.4-9.1,1.1-13.7c0.7-5,1.7-10,3-14.8c1.2-4.8,2.8-9.5,4.6-14.1
			c1.5-4,3.5-7.8,5.8-11.5c0.6-0.7,0.6-1.8,0-2.5c-0.3-0.4-0.8-0.7-1.4-0.7l0,0c-0.5,0-1,0.2-1.3,0.6l-0.1,0.2
			c-2.5,3.8-4.6,7.9-6.2,12.2c-1.9,4.8-3.5,9.7-4.8,14.7c-1.3,5.1-2.4,10.2-3.1,15.4c-0.7,4.8-1.1,9.6-1.1,14.4
			c0,2.5,0.1,4.9,0.4,7.4C-562.7,158-562.2,160.1-561.5,162z"/>
		<path class="st13" d="M-390.9,150.3c-0.7-0.7-1.7-0.7-2.4,0c-0.3,0.3-0.5,0.7-0.5,1.2l-0.3,41c0,0.2-0.1,0.3-0.2,0.4
			c-0.2,0.1-0.4,0.1-0.5,0.1c-1-0.3-2.1-0.3-3.1,0.1c-0.1,0-0.3,0.1-0.4,0.2c-1.4,0.9-2.6,2-3.6,3.3c-1.3,1.6-2.4,3.4-3.4,5.2
			c-0.9,1.8-1.6,3.7-2.1,5.6c-0.1,0.3-0.1,0.6-0.1,0.8c-1.6,2.4-3.5,3.7-5.4,3.8c0.6-2.3,0.9-4.7,0.8-7.1c0-3.8-1.1-10.3-5.4-10.3
			c-1.8,0-3.1,1.3-3.7,3.6c-0.3,1.1-0.4,2.1-0.4,3.2l0,0c-0.3,0-0.5,0.1-0.7,0.3c-1.1,1.1-1.9,2.4-2.3,3.9c-0.8,0.3-1.6,0.6-2.5,1
			c-1,0.4-2.1,0.6-3.2,0.8c0.1-1.5,0.1-2.9-0.1-4.4c-0.2-1.6-0.5-3.2-1.1-4.7c-0.4-1.3-1.2-2.4-2.3-3.2c-1.1-0.9-2.6-1.1-3.9-0.4
			c-0.8,0.3-1.5,0.9-2,1.6c-0.5,0.7-0.9,1.4-1.2,2.2s-0.5,1.7-0.5,2.5c-0.1,0.8-0.1,1.5,0,2.3s0.3,1.5,0.6,2.3
			c-0.8,0.7-1.6,1.4-2.4,2c-0.8,0.6-1.9,0.8-2.8,0.4c-0.4-0.1-0.7-0.3-1-0.5c0.2-0.9,0.3-1.8,0.6-2.8c0.1-0.6,0.2-1.7,0.3-3.4
			s0.1-3.5,0-5.2c-0.1-1.5-0.5-3-1.1-4.4c-0.4-1.1-1.6-1.7-2.8-1.3c-0.1,0-0.1,0.1-0.2,0.1c-0.7,0.2-1.3,0.7-1.6,1.3
			c-0.4,0.6-0.7,1.3-0.9,2s-0.4,1.4-0.5,2.1c-0.1,0.6-0.1,1.2-0.1,1.8c-0.2,3.1,0.4,6.2,1.7,8.9c0.3,0.7,0.7,1.4,1.1,1.9
			c-0.3,1-0.7,2-1.1,3c-0.5,1-1,2-1.7,2.9c-0.4,0.6-0.8,1.1-1.3,1.6s-1.1,0.7-1.8,0.8c-0.7,0-1.3-0.3-1.7-0.8
			c-0.5-0.5-0.9-1.1-1.2-1.8c-0.5-1.3-0.8-2.7-0.8-4.1c0-1.5-0.1-2.9-0.4-4.3c-0.2-0.6-0.6-1-1.2-1.2c-0.6-0.2-1.2,0-1.6,0.5
			c-0.3,0.3-0.8,1.1-1.6,2.3s-1.7,2.3-2.6,3.5c-0.9,1.1-1.8,2.1-2.7,3.1c-1,1-1.4,0.9-1.5,0.8c-0.3-0.2-0.4-0.5-0.4-0.9
			c-0.1-0.5,0-1.1,0.1-1.6c0.1-0.6,0.2-1.2,0.4-1.8c0.1-0.5,0.2-0.9,0.4-1.4c0.7-2.2,1.8-4.2,3.2-5.9c0.3-0.4,0.5-0.8,0.4-1.3
			c0-0.4-0.2-0.8-0.5-1.1s-0.6-0.5-1-0.5c-0.5,0-0.9,0.2-1.2,0.6c-2.1,2.4-3.6,5.4-4.4,8.5c-0.1,0.5-0.3,1.1-0.4,1.8
			s-0.2,1.4-0.2,2.1c0,0.7,0.1,1.4,0.3,2.1c0.2,0.7,0.5,1.3,0.9,1.8c0.8,0.9,2,1.3,3.1,1s2.1-0.8,2.8-1.6c1.1-1,2.1-2,2.9-3.2
			l2.1-2.8c0.1,1,0.2,1.9,0.3,2.8c0.2,1.3,0.6,2.5,1.4,3.6c0.7,1,1.6,1.9,2.6,2.4c0.8,0.5,1.8,0.7,2.8,0.7c0.2,0,0.5,0,0.7,0
			c2.1-0.4,3.9-1.6,5-3.5c1.1-1.8,2-3.7,2.7-5.7c0.3,0.2,0.5,0.3,0.8,0.3c0.4,0.1,0.8,0.2,1.2,0.4c1.1,0.2,2.2,0,3.2-0.4
			c-0.2,0.8-0.4,1.5-0.5,2.3c-0.2,1.1-0.2,2.2-0.1,3.3c0.1,1,0.3,2.1,0.8,3c0.6,1.4,1.8,2.5,3.3,3c0.4,0.1,0.9,0.2,1.3,0.2
			c1.1,0,2.2-0.5,3-1.3c1.4-1.5,2.4-3.3,2.9-5.3c0.5-1.9,0.9-3.7,1.2-5.6c1.3-0.1,2.5-0.4,3.8-0.8c0.5-0.2,1-0.4,1.5-0.5
			c-0.1,2.1,0.2,4.1,0.9,6.1c1,2.6,2.8,4.1,5,4.1s4.3-1.7,5.7-4.8c0.3,0.1,0.6,0.1,0.9,0.1l0,0c2.3-0.1,4.4-1.2,5.9-3
			c0,0.1,0.1,0.2,0.1,0.3c0.7,1.5,2.1,2.5,3.7,2.6c1.4,0.1,2.9-0.2,4.1-0.9c1.4-0.7,2.6-1.7,3.6-2.9l0.5-0.5
			c0.1-0.2,0.3-0.2,0.5-0.1c0.2,0.1,0.3,0.3,0.3,0.5v16.1c0.1,0.9,0.9,1.6,1.8,1.6c0.8-0.1,1.5-0.7,1.6-1.6l0.3-75.4
			C-390.3,151-390.5,150.6-390.9,150.3z M-403.9,207.9c0.4-1.6,1-3.2,1.8-4.7c0.9-1.6,1.9-3.1,3-4.5c0.8-1,1.7-2,2.8-2.7
			c0.1,0,0.2-0.1,0.2-0.1c0.1,0,0.2,0.1,0.2,0.1c0.3,0.3,0.5,0.8,0.7,1.2c0.3,0.8,0.5,1.7,0.6,2.5c-0.1,1.6-0.5,3.2-1.1,4.7
			c-0.6,1.4-1.3,2.8-2.2,4c-0.8,1-1.7,1.9-2.9,2.6c-0.8,0.5-1.9,0.3-2.6-0.3C-404,210.2-404.2,209.2-403.9,207.9L-403.9,207.9z
			 M-437,209.4c0.6,0.4,1.2,0.6,1.8,0.8c0.4,0.2,0.9,0.3,1.3,0.3c-0.3,1.8-0.8,3.5-1.4,5.2c-0.2,0.5-0.5,1.2-0.8,1.9
			c-0.2,0.6-0.5,1.1-1,1.5s-1,0.6-1.3,0.5c-0.4-0.2-0.7-0.5-0.8-0.9c-0.2-0.5-0.4-1.1-0.5-1.7c-0.1-0.5-0.1-0.9-0.1-1.4
			c0-1.3,0.1-2.6,0.4-3.8c0.2-1.1,0.6-2.2,1-3.2C-437.9,208.8-437.5,209.1-437,209.4L-437,209.4z M-433.6,207.3
			c-0.6-0.1-1.2-0.4-1.8-0.6c-0.7-0.4-1.3-0.9-1.8-1.5c-0.6-1-0.9-2.2-1-3.4s0.2-2.4,0.9-3.3c0.6-0.7,0.9-0.9,1.1-0.9h0.1
			c0.4,0.2,0.8,0.5,0.9,0.9c0.3,0.6,0.6,1.2,0.7,1.9c0.2,0.5,0.3,1.1,0.4,1.7C-433.6,203.7-433.5,205.5-433.6,207.3L-433.6,207.3z
			 M-449.2,199.5c0,0.8,0,1.6-0.1,2.4c0,0.4-0.1,0.8-0.1,1.1c0-0.1-0.1-0.3-0.1-0.4c-0.3-1.3-0.5-2.7-0.6-4s0.1-2.6,0.5-3.8l0,0
			c0,0.2,0.1,0.3,0.2,0.5C-449.3,196.7-449.2,198.1-449.2,199.5L-449.2,199.5z M-418.5,198c0.3-0.6,0.6-0.7,0.8-0.7l0,0
			c1.7,0,2.5,4.7,2.5,7.9c0,1.8-0.2,3.5-0.5,5.3C-418.2,207-419.5,200.4-418.5,198L-418.5,198z M-419.3,216.6c-0.8,0-1.5-0.6-2-1.7
			c-1.2-2.6-1.1-7.5,0.1-10.2c0.7,4,2.5,7.4,4.8,8.9C-416.9,214.8-417.9,216.6-419.3,216.6z"/>
		<rect x="-623.9" y="75.6" class="st14" width="268.3" height="194.8"/>
	</g>
</g>
</svg>
