<?xml version="1.0" encoding="utf-8"?>
<!-- Generator: Adobe Illustrator 22.1.0, SVG Export Plug-In . SVG Version: 6.00 Build 0)  -->
<svg version="1.1" id="Layer_1" xmlns="http://www.w3.org/2000/svg" xmlns:xlink="http://www.w3.org/1999/xlink" x="0px" y="0px"
	 viewBox="0 0 960 365" style="enable-background:new 0 0 960 365;" xml:space="preserve">
<style type="text/css">
	.st0{fill:#F5F5F5;}
	.st1{fill:#9013FE;}
	.st2{font-family:'IM_FELL_English_SC';}
	.st3{font-size:36px;}
	.st4{font-family:'GoboldThinLightItalic-Italic';}
	.st5{font-size:14px;}
	.st6{font-family:'GoboldBoldItalic-Italic';}
	.st7{font-size:18px;}
	.st8{fill:#EE509A;}
	.st9{font-family:'IM_FELL_English_Italic';}
	.st10{font-size:28px;}
	.st11{font-family:'GoboldThinItalic-Italic';}
	.st12{fill:#FFFFFF;}
	.st13{fill:none;}
	.st14{filter:url(#Adobe_OpacityMaskFilter);}
	.st15{mask:url(#mask-2_1_);}
	.st16{filter:url(#Adobe_OpacityMaskFilter_1_);}
	.st17{mask:url(#mask-4_1_);}
	.st18{filter:url(#Adobe_OpacityMaskFilter_2_);}
	.st19{mask:url(#mask-6_1_);}
	.st20{filter:url(#Adobe_OpacityMaskFilter_3_);}
	.st21{mask:url(#mask-8_1_);}
	.st22{filter:url(#Adobe_OpacityMaskFilter_4_);}
	.st23{mask:url(#mask-10_1_);}
	.st24{filter:url(#Adobe_OpacityMaskFilter_5_);}
	.st25{mask:url(#mask-12_1_);}
	.st26{filter:url(#Adobe_OpacityMaskFilter_6_);}
	.st27{mask:url(#mask-14_1_);}
	.st28{filter:url(#Adobe_OpacityMaskFilter_7_);}
	.st29{mask:url(#mask-16_1_);}
	.st30{filter:url(#Adobe_OpacityMaskFilter_8_);}
	.st31{mask:url(#mask-18_1_);}
	.st32{filter:url(#Adobe_OpacityMaskFilter_9_);}
	.st33{mask:url(#mask-20_1_);}
	.st34{filter:url(#Adobe_OpacityMaskFilter_10_);}
	.st35{mask:url(#mask-22_1_);}
	.st36{filter:url(#Adobe_OpacityMaskFilter_11_);}
	.st37{mask:url(#mask-24_1_);}
	.st38{filter:url(#Adobe_OpacityMaskFilter_12_);}
	.st39{mask:url(#mask-26_1_);}
	.st40{filter:url(#Adobe_OpacityMaskFilter_13_);}
	.st41{mask:url(#mask-28_1_);}
	.st42{filter:url(#Adobe_OpacityMaskFilter_14_);}
	.st43{mask:url(#mask-30_1_);}
	.st44{filter:url(#Adobe_OpacityMaskFilter_15_);}
	.st45{mask:url(#mask-32_1_);}
	.st46{filter:url(#Adobe_OpacityMaskFilter_16_);}
	.st47{mask:url(#mask-34_1_);}
	.st48{filter:url(#Adobe_OpacityMaskFilter_17_);}
	.st49{mask:url(#mask-36_1_);}
	.st50{filter:url(#Adobe_OpacityMaskFilter_18_);}
	.st51{mask:url(#mask-38_1_);}
	.st52{filter:url(#Adobe_OpacityMaskFilter_19_);}
	.st53{mask:url(#mask-40_1_);}
	.st54{filter:url(#Adobe_OpacityMaskFilter_20_);}
	.st55{mask:url(#mask-42_1_);}
	.st56{filter:url(#Adobe_OpacityMaskFilter_21_);}
	.st57{mask:url(#mask-44_1_);}
	.st58{filter:url(#Adobe_OpacityMaskFilter_22_);}
	.st59{mask:url(#mask-46_1_);}
	.st60{filter:url(#Adobe_OpacityMaskFilter_23_);}
	.st61{mask:url(#mask-48_1_);}
	.st62{filter:url(#Adobe_OpacityMaskFilter_24_);}
	.st63{mask:url(#mask-50_1_);}
	.st64{filter:url(#Adobe_OpacityMaskFilter_25_);}
	.st65{mask:url(#mask-52_1_);}
	.st66{filter:url(#Adobe_OpacityMaskFilter_26_);}
	.st67{mask:url(#mask-54_1_);}
	.st68{filter:url(#Adobe_OpacityMaskFilter_27_);}
	.st69{mask:url(#mask-56_1_);}
	.st70{filter:url(#Adobe_OpacityMaskFilter_28_);}
	.st71{mask:url(#mask-58_1_);}
	.st72{filter:url(#Adobe_OpacityMaskFilter_29_);}
	.st73{mask:url(#mask-60_1_);}
	.st74{filter:url(#Adobe_OpacityMaskFilter_30_);}
	.st75{mask:url(#mask-62_1_);}
	.st76{filter:url(#Adobe_OpacityMaskFilter_31_);}
	.st77{mask:url(#mask-64_1_);}
	.st78{filter:url(#Adobe_OpacityMaskFilter_32_);}
	.st79{mask:url(#mask-66_1_);}
	.st80{filter:url(#Adobe_OpacityMaskFilter_33_);}
	.st81{mask:url(#mask-68_1_);}
	.st82{filter:url(#Adobe_OpacityMaskFilter_34_);}
	.st83{mask:url(#mask-70_1_);}
	.st84{filter:url(#Adobe_OpacityMaskFilter_35_);}
	.st85{mask:url(#mask-72_1_);}
	.st86{filter:url(#Adobe_OpacityMaskFilter_36_);}
	.st87{mask:url(#mask-74_1_);}
	.st88{fill:#4E18AF;}
</style>
<rect id="Rectangle-5" x="0.6" y="1.3" class="st0" width="960" height="365"/>
<text transform="matrix(0.9947 -0.1025 0.1025 0.9947 366.9307 266.7066)" class="st1 st2 st3">6 - 10:30 pm</text>
<g id="Group-12" transform="translate(474.500000, 176.925830) rotate(6.000000) translate(-474.500000, -176.925830) translate(136.000000, 54.925830)">
	<text transform="matrix(-0.1908 -0.9816 0.9816 -0.1908 464.4055 130.1959)" class="st4 st5">between</text>
	<text transform="matrix(-0.1908 -0.9816 0.9816 -0.1908 500.6946 67.0971)" class="st6 st7"> </text>
	<text transform="matrix(0.9816 -0.1908 0.1908 0.9816 481.0922 92.8361)" class="st8 st9 st10">North Doheny Drive </text>
	<text transform="matrix(0.9816 -0.1908 0.1908 0.9816 512.2183 119.045)" class="st8 st9 st10">and La Cienega</text>
	<text transform="matrix(0.9781 -0.2079 0.2079 0.9781 67.5256 206.7764)" class="st8 st11 st3">Santa Monica Boulevard</text>
</g>
<rect x="-980.5" width="959" height="367"/>
<g id="Layer_2_1_">
	<g id="Layer_1-2">
		<path class="st12" d="M-503.9,157.1c0,1.6,0.6,3.1,1.6,4.2c0.9,1.1,2.1,1.9,3.4,2.3c0.9,0.3,1.8,0.4,2.7,0.4c0.5,0,0.9,0,1.4-0.1
			c1.9-0.2,3.7-1,5.3-2.1c1.5-1.1,2.9-2.2,4.3-3.5c1.2-1.1,2.5-2.2,3.6-3.3l0.3-0.3c0.1,0.2,0.2,0.5,0.3,0.7c0.4,0.8,1,1.4,1.6,2
			l0.2,0.2l-1.2,1l-1.5,1.3c-0.5,0.4-1.1,0.9-1.6,1.4s-1,1-1.5,1.6s-0.8,1.2-1,1.9c-0.2,0.8-0.2,1.6,0.1,2.3
			c0.3,1.2,1.1,2.2,2.2,2.8c0.9,0.5,1.9,0.8,3,0.8h0.4c1.3-0.1,2.5-0.5,3.6-1.2s2.1-1.6,2.8-2.7c0.7-1.1,1.3-2.3,1.5-3.5
			c0.3-1.3,0.2-2.6-0.3-3.9c-0.3-0.6-0.8-1.2-1.3-1.7c1.5-1.2,3-2.2,4.5-3.2c1.3-0.8,2.7-1.5,4.1-2c-0.3,3.2-0.6,6.4-0.8,9.6
			c-0.6,9.3-1,18.8-1.2,28.3c0,0.5,0.2,0.9,0.5,1.2c0.7,0.6,1.6,0.6,2.3,0c0.3-0.3,0.5-0.7,0.5-1.2c0.1-9.5,0.4-19,1.1-28.3
			s1.7-18.6,3-27.9l2.4-0.2l3.5-0.2l6.1-0.4c0.5,0,0.9-0.2,1.2-0.6c0.3-0.3,0.4-0.7,0.4-1.2c0-0.4-0.2-0.8-0.5-1.1s-0.8-0.4-1.2-0.4
			l0,0l-5.9,0.4l-5.6,0.4c0.3-2.1,0.6-4.3,1-6.5c0.4-2.1,0.7-4.3,1.1-6.8c0.1-0.5,0-0.9-0.3-1.3c-0.2-0.3-0.6-0.6-1-0.7
			s-0.8-0.1-1.2,0.1s-0.7,0.6-0.7,1.1c-0.5,2.4-0.9,4.8-1.3,7.2c-0.4,2.4-0.7,4.7-1.1,7c-1,0.1-2.1,0.2-3.1,0.2
			c-1.1,0-2.3,0.1-3.4,0.2c-0.5,0-0.9,0.2-1.2,0.6c-0.3,0.3-0.4,0.7-0.4,1.2c0,0.4,0.2,0.8,0.5,1.1s0.8,0.5,1.2,0.4l0,0l3.3-0.2h0.5
			l2.3-0.1c-0.6,4.8-1.2,9.6-1.7,14.5l0,0c-2.2,0.8-4.3,1.7-6.2,2.9c-1.9,1.2-3.7,2.5-5.5,3.8c-0.5-0.4-1-0.9-1.4-1.4
			c-0.5-0.7-0.7-1.6-0.5-2.4c0-0.2,0.1-0.3,0.1-0.5c0.1-0.2,0.1-0.4,0.2-0.6c0.2-0.6,0.5-1.1,0.8-1.7c0.5-0.9,1.2-1.8,1.9-2.5
			c0.6-0.7,1.3-1.3,2-1.9c0.4-0.3,0.6-0.7,0.6-1.1c-0.1-0.4-0.2-0.7-0.5-1s-0.7-0.5-1.1-0.6c-0.5-0.1-1,0.1-1.3,0.4
			c-1.6,1.4-3,3-4.1,4.8c-0.5,0.8-0.9,1.6-1.2,2.5l-0.1,0.1c-0.5,0.8-1.1,1.5-1.7,2.2l-1.9,2l-3,2.8c-1,0.9-2.1,1.8-3.2,2.5
			c-1.2,0.7-2.4,1.3-3.8,1.6c-1.4,0.4-2.8,0.1-3.9-0.7c-0.6-0.3-1.1-0.8-1.4-1.4c-0.2-0.6-0.4-1.2-0.4-1.8c0-0.7,0.1-1.3,0.2-2
			c0.1-0.5,0.3-1.1,0.4-1.6c1.6,0.8,3.4,0.8,5,0c1.8-0.9,3.3-2.4,4.3-4.1c0.7-1.2,1.2-2.4,1.7-3.7s0.6-2.7,0.3-4.1
			c-0.1-1.1-0.8-2.1-1.8-2.5s-2.1-0.4-3.1,0c-1.4,0.5-2.6,1.4-3.7,2.4s-2,2.2-2.8,3.4c-0.8,1.3-1.5,2.6-2,4c-0.5,1.3-0.9,2.6-1.3,4
			C-503.7,154.1-503.9,155.6-503.9,157.1z M-482.5,166.1c0.2-0.7,0.5-1.4,1-1.9c0.6-0.7,1.3-1.4,2-2c0.9-0.7,1.4-1.1,1.8-1.4
			c0.3-0.2,0.5-0.4,0.8-0.7c0.1-0.1,0.3-0.3,0.5-0.4c0.3,0.3,0.6,0.7,0.8,1.1c0.2,0.5,0.3,1.1,0.2,1.6c-0.2,0.6-0.4,1.3-0.7,1.9
			c-0.3,0.7-0.8,1.3-1.4,1.8c-0.5,0.5-1.2,0.9-1.8,1.1c-0.6,0.2-1.2,0.3-1.9,0.1C-482.7,166.8-482.6,166.3-482.5,166.1L-482.5,166.1
			z M-498.9,149.9c0.6-1.4,1.3-2.7,2.1-3.9c0.2-0.3,0.5-0.7,1.1-1.3c0.5-0.6,1.1-1.2,1.7-1.6c0.5-0.4,1-0.7,1.6-0.9
			c0.1,0,0.2,0,0.3,0c0.2,0.2,0.3,0.4,0.3,0.7c0.1,0.5,0,1-0.1,1.4c-0.2,0.6-0.4,1.2-0.7,1.7c-0.3,0.6-0.6,1.1-1,1.7
			c-0.3,0.4-0.6,0.9-0.9,1.3c-0.6,0.7-1.4,1.2-2.3,1.5C-497.6,150.6-498.4,150.4-498.9,149.9z"/>
		<path class="st12" d="M-476.6,200.5c-0.6-0.5-1.5-0.4-2,0.2l0,0l-8.8,10.4l-0.1,0.1l0,0l-0.9,1.2c-0.3,0.4-0.6,0.8-1,1.1l-0.3,0.4
			c-0.3,0.4-0.8,0.6-1.3,0.5c-0.2,0-0.4-0.2-0.4-0.4c-0.1-0.4,0-0.8,0.1-1.1c0-0.1,0-0.2,0.1-0.3c0,0,0,0,0-0.1
			c0.2-0.9,0.4-2.5,0.6-3.4l0.2-1.7c0.1-0.5-0.1-0.9-0.4-1.2c-0.6-0.5-1.5-0.5-2.1,0c-0.4,0.3-0.6,0.7-0.7,1.1
			c-0.1,0.6-0.2,1.3-0.4,2s-0.3,1.6-0.5,2.4c-0.1,0.5-0.1,1-0.2,1.5c-1.1,4.3-2.9,9.2-5.6,9.8c-0.4,0.1-0.7,0-1-0.2
			c-1.6-1.1-3-4.9-4-10.5c4.9-11.7,10.5-27.2,9-35.1c-0.8-4-3-6.2-5.7-5.7c-2.2,0.4-4.1,2.7-5.4,6.6c-3.1,9.2-3.2,23-1.4,33.4
			c-0.8,4-2.6,5.5-4.6,5.7s-4-4-5.1-10.7c4.9-11.7,10.5-27.2,9-35.1c-0.8-4-2.9-6.2-5.7-5.7c-7.2,1.4-9.2,23-7.2,38l-0.2,0.1
			c-0.8,0.6-1.7,0.9-2.7,0.8c-0.9,0-1.8-0.2-2.7-0.5l0,0c-0.2-0.9-0.6-1.7-1-2.5c-0.3-0.8-1-1.3-1.9-1.5c-0.6-0.1-1.2,0.1-1.5,0.6
			c-0.4,0.5-0.6,1.2-0.6,1.9c0,0.9,0.3,1.7,0.8,2.4c0.4,0.6,0.9,1.2,1.5,1.7c0.1,0.1,0.1,0.1,0.2,0.2c0.1,0.8,0.1,1.5,0,2.3
			s-0.2,1.6-0.3,2.3c-0.1,0.9-0.3,1.9-0.5,2.8c-0.3,1.1-0.6,2.1-1,3.1c-0.3,0.9-0.8,1.7-1.5,2.4c-0.5,0.6-1.2,0.8-1.9,0.7
			c-0.7-0.2-1.3-0.7-1.6-1.4c-0.4-0.8-0.7-1.7-0.9-2.7s-0.3-2.1-0.3-3.1c0-0.9,0-1.9,0.1-2.8c0.1-0.8,0.1-1.7,0.3-2.5
			c0.1-0.9,0.3-1.8,0.6-2.7c0.2-0.8,0.5-1.6,0.9-2.4c0.3-0.7,0.8-1.3,1.3-1.8l0,0c0.2-0.3,0.4-0.6,0.7-0.9c0.3-0.4,0.4-0.8,0.3-1.2
			c0-0.5-0.2-0.9-0.6-1.2c-0.3-0.2-0.7-0.3-1.1-0.1c-0.8,0.2-1.5,0.7-1.9,1.5c-0.5,0.7-0.9,1.5-1.3,2.3c-0.5,1-0.8,2.1-1.1,3.2
			c-1,0-1.9,0-2.8,0c-0.9,0-1.8,0-2.8,0c0-0.3,0.1-0.6,0.1-0.9c0.1-0.4,0.2-0.8,0.3-1.2c0.9-4.4,1.8-9,2.6-13.5
			c0.9-4.5,1.7-8.9,2.6-13.5c0.1-0.5,0-0.9-0.3-1.3c-0.3-0.3-0.6-0.5-1-0.6s-0.8-0.1-1.1,0.1c-0.4,0.2-0.7,0.6-0.8,1l-5.6,28
			c-0.1,0.3-0.1,0.7-0.2,1.1l-0.2,0.9c-7.2,0.1-14.4,0.5-21.5,1.1c0.9-4.8,1.9-9.9,3-15.2s2.1-10.5,3-15.6c0.1-0.4,0-0.9-0.3-1.3
			c-0.2-0.3-0.6-0.6-1-0.7c-0.4-0.1-0.8-0.1-1.2,0.1c-0.4,0.2-0.7,0.6-0.8,1c-1.1,5.7-2.2,11.1-3.1,16.1c-0.9,5-2,10.5-3.1,15.9
			c-10.4,1.1-20.8,2.8-31,5.1c-0.5,0-0.9,0.3-1.1,0.8c-0.2,0.4-0.2,0.8-0.1,1.2s0.3,0.7,0.6,1c0.4,0.3,0.9,0.4,1.3,0.2
			c4.9-1.1,10-2.1,15-2.9c4.8-0.8,9.7-1.4,14.5-1.9c-1.1,6-2.3,11.9-3.4,17.7l-3.6,18.2c-0.1,0.5,0,0.9,0.3,1.3
			c0.3,0.3,0.6,0.6,1,0.7c0.1,0,0.3,0.1,0.4,0.1c0.3,0,0.5-0.1,0.7-0.2c0.4-0.2,0.7-0.6,0.7-1.1c1.3-6.3,2.5-12.6,3.7-18.7
			c1.2-6.1,2.4-12.2,3.6-18.4c3.6-0.3,7.2-0.6,10.8-0.8s7.1-0.4,10.7-0.4c-0.7,3.4-1.3,6.8-1.9,10.3c-0.6,3.4-1.1,7.1-1.4,10.7
			c-0.1,0.5,0.1,1,0.4,1.3c0.7,0.6,1.6,0.6,2.3,0c0.4-0.3,0.6-0.7,0.6-1.2c0.3-3.6,0.8-7.2,1.4-10.7s1.2-6.9,1.9-10.4h5.7
			c-0.2,1.9-0.3,3.7-0.3,5.6c0,1,0.1,2,0.3,3.1c0.1,1,0.4,2,0.7,3c0.3,0.9,0.8,1.8,1.3,2.5s1.2,1.3,2,1.6c0.5,0.2,1,0.4,1.6,0.4
			c0.3,0,0.7,0,1-0.1c0.9-0.3,1.6-0.8,2.2-1.4c0.7-0.7,1.2-1.5,1.7-2.3c0.5-0.9,0.9-1.9,1.2-2.9c0.5-1.5,0.8-3,1.1-4.6
			s0.4-3.2,0.4-4.8c0.8,0.1,1.6,0.2,2.4,0.2c0.9,0,1.7-0.2,2.5-0.5c0.3-0.1,0.6-0.3,0.8-0.5c1.6,8.4,4.6,13.1,8.2,13.1
			c2.4,0.2,4.8-1.1,6-3.2c0.9,3.3,2,5.9,3.3,7.3c0.9,1.1,2.2,1.8,3.7,1.8c0.3,0,0.7,0,1-0.1c3.1-0.7,5.1-4.2,6.5-8.1
			c0.2,0.2,0.5,0.3,0.8,0.4c0.9,0.2,1.9,0.2,2.8-0.3c1.4-0.7,2.6-1.8,3.5-3.1c0.9-1.2,1.8-2.4,2.8-3.5l0.1-0.2l1.7-2.1
			c0.3-0.4,0.7-0.8,1-1.2c-0.9,4.3-1.7,8.6-2.3,12.8c-0.7,4.6-1.2,9.3-1.6,13.9s-0.8,9.3-1,14c-0.1,1.9-0.1,2.5-0.2,2.8
			c0,0.3,0,0.4-0.1,1.8c0,0.5,0.1,0.9,0.4,1.2s0.7,0.5,1.2,0.5h-0.1c0.9,0,1.6-0.7,1.7-1.6c0.5-7.8,0.8-10.7,1.5-17.1
			c0.1-1.1,0.3-2.3,0.4-3.7c1.1-9.8,2.6-19.9,4.4-30.1C-475.7,201.6-476,200.9-476.6,200.5z M-501.5,174.2h0.2c1.5,0,2.1,3,2.2,3.4
			c1.3,6.8-3.7,20.8-7,28.9C-507.8,189.9-505,174.9-501.5,174.2z M-514.5,168.2c1.5,0,2.1,2.8,2.2,3.4c1.3,6.8-3.7,20.8-7,28.9
			c-1.7-16.7,1-31.7,4.6-32.3L-514.5,168.2z"/>
		<path class="st12" d="M-561.5,162c0.6,1.6,1.5,3.1,2.8,4.2c1.2,1.1,2.8,1.7,4.4,1.7c2.5,0,4.9-0.9,6.9-2.5
			c2.3-1.7,4.2-3.8,5.9-6.2c1.9-2.7,3.6-5.6,5.1-8.6c1.5-3.2,3.1-6.4,4.4-9.8c1.3-3.4,2.5-6.6,3.5-9.9l0.2-0.7
			c0.1,2.1,0.3,4.4,0.5,6.6c0.4,4,1,8,2,11.9c0.7,3.2,1.9,6.4,3.6,9.3c1.6,2.8,3.7,4.2,6.2,4.2c2,0,4-0.9,5.3-2.4
			c1.5-1.7,2.7-3.6,3.5-5.8c1-2.6,1.8-5.3,2.3-8c0.6-3,1.1-6.1,1.5-9.2c0.4-3.1,0.7-6.4,0.8-9.5c0.1-3.1,0.2-6.1,0.2-8.8
			c0-2,0-3.7-0.1-5.3c-0.1-1.6-0.1-2.9-0.3-4c0-0.6-0.3-1.2-0.8-1.6c-0.5-0.3-1-0.3-1.5-0.1c-0.8,0.3-1.4,1.2-1.2,2.1
			c0.1,1,0.2,2.3,0.2,3.8c0.1,1.6,0.1,3.2,0.1,5.1c0,2.6-0.1,5.4-0.2,8.4c-0.1,2.9-0.4,6-0.7,9c-0.3,3-0.8,5.9-1.3,8.7
			c-0.5,2.5-1.2,4.9-2.1,7.2c-0.7,1.8-1.6,3.4-2.8,4.8c-0.7,0.9-1.8,1.5-3,1.5c-1.3,0-2.5-0.9-3.5-2.8c-1.4-2.6-2.4-5.4-3-8.2
			c-0.9-3.6-1.4-7.4-1.7-11.1c-0.4-4-0.5-7.9-0.5-11.4c0-1.5,0-3,0.1-4.4s0.1-2.6,0.3-3.7c0.2-0.9-0.4-1.8-1.3-2.1l-0.2-0.1h-0.2
			c-0.3,0-0.6,0-0.9,0.2c-0.4,0.3-0.8,0.7-0.9,1.2c-0.5,2-1.2,4.7-2.1,7.9c-0.9,3.2-2,6.6-3.3,10.2s-2.7,7.2-4.3,10.8
			c-1.4,3.4-3.2,6.6-5.1,9.7c-1.6,2.6-3.5,4.9-5.8,6.9c-1.6,1.5-3.6,2.4-5.8,2.4c-0.8,0-1.6-0.3-2.1-0.9c-0.8-0.9-1.4-1.9-1.8-3
			c-0.5-1.6-0.9-3.3-1.1-5c-0.3-2.2-0.4-4.3-0.4-6.5c0-4.6,0.4-9.1,1.1-13.7c0.7-5,1.7-10,3-14.8c1.2-4.8,2.8-9.5,4.6-14.1
			c1.5-4,3.5-7.8,5.8-11.5c0.6-0.7,0.6-1.8,0-2.5c-0.3-0.4-0.8-0.7-1.4-0.7l0,0c-0.5,0-1,0.2-1.3,0.6l-0.1,0.2
			c-2.5,3.8-4.6,7.9-6.2,12.2c-1.9,4.8-3.5,9.7-4.8,14.7c-1.3,5.1-2.4,10.2-3.1,15.4c-0.7,4.8-1.1,9.6-1.1,14.4
			c0,2.5,0.1,4.9,0.4,7.4C-562.7,158-562.2,160.1-561.5,162z"/>
		<path class="st12" d="M-390.9,150.3c-0.7-0.7-1.7-0.7-2.4,0c-0.3,0.3-0.5,0.7-0.5,1.2l-0.3,41c0,0.2-0.1,0.3-0.2,0.4
			c-0.2,0.1-0.4,0.1-0.5,0.1c-1-0.3-2.1-0.3-3.1,0.1c-0.1,0-0.3,0.1-0.4,0.2c-1.4,0.9-2.6,2-3.6,3.3c-1.3,1.6-2.4,3.4-3.4,5.2
			c-0.9,1.8-1.6,3.7-2.1,5.6c-0.1,0.3-0.1,0.6-0.1,0.8c-1.6,2.4-3.5,3.7-5.4,3.8c0.6-2.3,0.9-4.7,0.8-7.1c0-3.8-1.1-10.3-5.4-10.3
			c-1.8,0-3.1,1.3-3.7,3.6c-0.3,1.1-0.4,2.1-0.4,3.2l0,0c-0.3,0-0.5,0.1-0.7,0.3c-1.1,1.1-1.9,2.4-2.3,3.9c-0.8,0.3-1.6,0.6-2.5,1
			c-1,0.4-2.1,0.6-3.2,0.8c0.1-1.5,0.1-2.9-0.1-4.4c-0.2-1.6-0.5-3.2-1.1-4.7c-0.4-1.3-1.2-2.4-2.3-3.2c-1.1-0.9-2.6-1.1-3.9-0.4
			c-0.8,0.3-1.5,0.9-2,1.6c-0.5,0.7-0.9,1.4-1.2,2.2s-0.5,1.7-0.5,2.5c-0.1,0.8-0.1,1.5,0,2.3s0.3,1.5,0.6,2.3
			c-0.8,0.7-1.6,1.4-2.4,2s-1.9,0.8-2.8,0.4c-0.4-0.1-0.7-0.3-1-0.5c0.2-0.9,0.3-1.8,0.6-2.8c0.1-0.6,0.2-1.7,0.3-3.4s0.1-3.5,0-5.2
			c-0.1-1.5-0.5-3-1.1-4.4c-0.4-1.1-1.6-1.7-2.8-1.3c-0.1,0-0.1,0.1-0.2,0.1c-0.7,0.2-1.3,0.7-1.6,1.3c-0.4,0.6-0.7,1.3-0.9,2
			s-0.4,1.4-0.5,2.1c-0.1,0.6-0.1,1.2-0.1,1.8c-0.2,3.1,0.4,6.2,1.7,8.9c0.3,0.7,0.7,1.4,1.1,1.9c-0.3,1-0.7,2-1.1,3
			c-0.5,1-1,2-1.7,2.9c-0.4,0.6-0.8,1.1-1.3,1.6s-1.1,0.7-1.8,0.8c-0.7,0-1.3-0.3-1.7-0.8c-0.5-0.5-0.9-1.1-1.2-1.8
			c-0.5-1.3-0.8-2.7-0.8-4.1c0-1.5-0.1-2.9-0.4-4.3c-0.2-0.6-0.6-1-1.2-1.2s-1.2,0-1.6,0.5c-0.3,0.3-0.8,1.1-1.6,2.3
			s-1.7,2.3-2.6,3.5c-0.9,1.1-1.8,2.1-2.7,3.1c-1,1-1.4,0.9-1.5,0.8c-0.3-0.2-0.4-0.5-0.4-0.9c-0.1-0.5,0-1.1,0.1-1.6
			c0.1-0.6,0.2-1.2,0.4-1.8c0.1-0.5,0.2-0.9,0.4-1.4c0.7-2.2,1.8-4.2,3.2-5.9c0.3-0.4,0.5-0.8,0.4-1.3c0-0.4-0.2-0.8-0.5-1.1
			s-0.6-0.5-1-0.5c-0.5,0-0.9,0.2-1.2,0.6c-2.1,2.4-3.6,5.4-4.4,8.5c-0.1,0.5-0.3,1.1-0.4,1.8s-0.2,1.4-0.2,2.1
			c0,0.7,0.1,1.4,0.3,2.1c0.2,0.7,0.5,1.3,0.9,1.8c0.8,0.9,2,1.3,3.1,1s2.1-0.8,2.8-1.6c1.1-1,2.1-2,2.9-3.2l2.1-2.8
			c0.1,1,0.2,1.9,0.3,2.8c0.2,1.3,0.6,2.5,1.4,3.6c0.7,1,1.6,1.9,2.6,2.4c0.8,0.5,1.8,0.7,2.8,0.7c0.2,0,0.5,0,0.7,0
			c2.1-0.4,3.9-1.6,5-3.5c1.1-1.8,2-3.7,2.7-5.7c0.3,0.2,0.5,0.3,0.8,0.3c0.4,0.1,0.8,0.2,1.2,0.4c1.1,0.2,2.2,0,3.2-0.4
			c-0.2,0.8-0.4,1.5-0.5,2.3c-0.2,1.1-0.2,2.2-0.1,3.3c0.1,1,0.3,2.1,0.8,3c0.6,1.4,1.8,2.5,3.3,3c0.4,0.1,0.9,0.2,1.3,0.2
			c1.1,0,2.2-0.5,3-1.3c1.4-1.5,2.4-3.3,2.9-5.3c0.5-1.9,0.9-3.7,1.2-5.6c1.3-0.1,2.5-0.4,3.8-0.8c0.5-0.2,1-0.4,1.5-0.5
			c-0.1,2.1,0.2,4.1,0.9,6.1c1,2.6,2.8,4.1,5,4.1s4.3-1.7,5.7-4.8c0.3,0.1,0.6,0.1,0.9,0.1l0,0c2.3-0.1,4.4-1.2,5.9-3
			c0,0.1,0.1,0.2,0.1,0.3c0.7,1.5,2.1,2.5,3.7,2.6c1.4,0.1,2.9-0.2,4.1-0.9c1.4-0.7,2.6-1.7,3.6-2.9l0.5-0.5
			c0.1-0.2,0.3-0.2,0.5-0.1c0.2,0.1,0.3,0.3,0.3,0.5v16.1c0.1,0.9,0.9,1.6,1.8,1.6c0.8-0.1,1.5-0.7,1.6-1.6l0.3-75.4
			C-390.3,151-390.5,150.6-390.9,150.3z M-403.9,207.9c0.4-1.6,1-3.2,1.8-4.7c0.9-1.6,1.9-3.1,3-4.5c0.8-1,1.7-2,2.8-2.7
			c0.1,0,0.2-0.1,0.2-0.1c0.1,0,0.2,0.1,0.2,0.1c0.3,0.3,0.5,0.8,0.7,1.2c0.3,0.8,0.5,1.7,0.6,2.5c-0.1,1.6-0.5,3.2-1.1,4.7
			c-0.6,1.4-1.3,2.8-2.2,4c-0.8,1-1.7,1.9-2.9,2.6c-0.8,0.5-1.9,0.3-2.6-0.3C-404,210.2-404.2,209.2-403.9,207.9L-403.9,207.9z
			 M-437,209.4c0.6,0.4,1.2,0.6,1.8,0.8c0.4,0.2,0.9,0.3,1.3,0.3c-0.3,1.8-0.8,3.5-1.4,5.2c-0.2,0.5-0.5,1.2-0.8,1.9
			c-0.2,0.6-0.5,1.1-1,1.5s-1,0.6-1.3,0.5c-0.4-0.2-0.7-0.5-0.8-0.9c-0.2-0.5-0.4-1.1-0.5-1.7c-0.1-0.5-0.1-0.9-0.1-1.4
			c0-1.3,0.1-2.6,0.4-3.8c0.2-1.1,0.6-2.2,1-3.2C-437.9,208.8-437.5,209.1-437,209.4L-437,209.4z M-433.6,207.3
			c-0.6-0.1-1.2-0.4-1.8-0.6c-0.7-0.4-1.3-0.9-1.8-1.5c-0.6-1-0.9-2.2-1-3.4s0.2-2.4,0.9-3.3c0.6-0.7,0.9-0.9,1.1-0.9h0.1
			c0.4,0.2,0.8,0.5,0.9,0.9c0.3,0.6,0.6,1.2,0.7,1.9c0.2,0.5,0.3,1.1,0.4,1.7C-433.6,203.7-433.5,205.5-433.6,207.3L-433.6,207.3z
			 M-449.2,199.5c0,0.8,0,1.6-0.1,2.4c0,0.4-0.1,0.8-0.1,1.1c0-0.1-0.1-0.3-0.1-0.4c-0.3-1.3-0.5-2.7-0.6-4s0.1-2.6,0.5-3.8l0,0
			c0,0.2,0.1,0.3,0.2,0.5C-449.3,196.7-449.2,198.1-449.2,199.5L-449.2,199.5z M-418.5,198c0.3-0.6,0.6-0.7,0.8-0.7l0,0
			c1.7,0,2.5,4.7,2.5,7.9c0,1.8-0.2,3.5-0.5,5.3C-418.2,207-419.5,200.4-418.5,198L-418.5,198z M-419.3,216.6c-0.8,0-1.5-0.6-2-1.7
			c-1.2-2.6-1.1-7.5,0.1-10.2c0.7,4,2.5,7.4,4.8,8.9C-416.9,214.8-417.9,216.6-419.3,216.6z"/>
		<rect x="-623.9" y="75.6" class="st13" width="268.3" height="194.8"/>
	</g>
</g>
<g id="WeHo-Logo">
	<g id="Logo---City-of-West-Hollywood" transform="translate(4.000000, 6.000000)">
		<g id="Group-75">
			<g id="Fill-37-Clipped">
				<g id="path-1_1_">
				</g>
				<defs>
					<filter id="Adobe_OpacityMaskFilter" filterUnits="userSpaceOnUse" x="338.1" y="77.5" width="23.3" height="23.3">
						<feColorMatrix  type="matrix" values="1 0 0 0 0  0 1 0 0 0  0 0 1 0 0  0 0 0 1 0"/>
					</filter>
				</defs>
				<mask maskUnits="userSpaceOnUse" x="338.1" y="77.5" width="23.3" height="23.3" id="mask-2_1_">
					<g class="st14">
						<polygon id="path-1_74_" class="st12" points="418.6,247.2 639.2,30.9 438.4,-173.8 217.9,42.4 						"/>
					</g>
				</mask>
				<polygon id="Fill-37" class="st15" points="349.7,100.8 361.4,89.3 349.9,77.5 338.1,89 				"/>
			</g>
			<g id="Fill-38-Clipped">
				<g id="path-1_3_">
				</g>
				<defs>
					<filter id="Adobe_OpacityMaskFilter_1_" filterUnits="userSpaceOnUse" x="352.4" y="92.1" width="23.3" height="23.3">
						<feColorMatrix  type="matrix" values="1 0 0 0 0  0 1 0 0 0  0 0 1 0 0  0 0 0 1 0"/>
					</filter>
				</defs>
				<mask maskUnits="userSpaceOnUse" x="352.4" y="92.1" width="23.3" height="23.3" id="mask-4_1_">
					<g class="st16">
						<polygon id="path-3_1_" class="st12" points="418.6,247.2 639.2,30.9 438.4,-173.8 217.9,42.4 						"/>
					</g>
				</mask>
				<polygon id="Fill-38" class="st17" points="363.9,115.4 375.7,103.9 364.1,92.1 352.4,103.7 				"/>
			</g>
			<g id="Fill-39-Clipped">
				<g id="path-1_4_">
				</g>
				<defs>
					<filter id="Adobe_OpacityMaskFilter_2_" filterUnits="userSpaceOnUse" x="366.8" y="78" width="23.3" height="23.3">
						<feColorMatrix  type="matrix" values="1 0 0 0 0  0 1 0 0 0  0 0 1 0 0  0 0 0 1 0"/>
					</filter>
				</defs>
				<mask maskUnits="userSpaceOnUse" x="366.8" y="78" width="23.3" height="23.3" id="mask-6_1_">
					<g class="st18">
						<polygon id="path-5_1_" class="st12" points="418.6,247.2 639.2,30.9 438.4,-173.8 217.9,42.4 						"/>
					</g>
				</mask>
				<polygon id="Fill-39" class="st19" points="378.4,101.3 390.1,89.7 378.6,78 366.8,89.5 				"/>
			</g>
			<g id="Fill-40-Clipped">
				<g id="path-1_5_">
				</g>
				<defs>
					<filter id="Adobe_OpacityMaskFilter_3_" filterUnits="userSpaceOnUse" x="352.8" y="63.7" width="23.3" height="23.3">
						<feColorMatrix  type="matrix" values="1 0 0 0 0  0 1 0 0 0  0 0 1 0 0  0 0 0 1 0"/>
					</filter>
				</defs>
				<mask maskUnits="userSpaceOnUse" x="352.8" y="63.7" width="23.3" height="23.3" id="mask-8_1_">
					<g class="st20">
						<polygon id="path-7_1_" class="st12" points="418.6,247.2 639.2,30.9 438.4,-173.8 217.9,42.4 						"/>
					</g>
				</mask>
				<polygon id="Fill-40" class="st21" points="364.4,87 376.1,75.5 364.6,63.7 352.8,75.2 				"/>
			</g>
			<g id="Fill-41-Clipped">
				<g id="path-1_6_">
				</g>
				<defs>
					<filter id="Adobe_OpacityMaskFilter_4_" filterUnits="userSpaceOnUse" x="339.3" y="20.6" width="23.3" height="23.3">
						<feColorMatrix  type="matrix" values="1 0 0 0 0  0 1 0 0 0  0 0 1 0 0  0 0 0 1 0"/>
					</filter>
				</defs>
				<mask maskUnits="userSpaceOnUse" x="339.3" y="20.6" width="23.3" height="23.3" id="mask-10_1_">
					<g class="st22">
						<polygon id="path-9_1_" class="st12" points="418.6,247.2 639.2,30.9 438.4,-173.8 217.9,42.4 						"/>
					</g>
				</mask>
				<polygon id="Fill-41" class="st23" points="350.8,43.9 362.6,32.4 351,20.6 339.3,32.2 				"/>
			</g>
			<g id="Fill-42-Clipped">
				<g id="path-1_7_">
				</g>
				<defs>
					<filter id="Adobe_OpacityMaskFilter_5_" filterUnits="userSpaceOnUse" x="353.4" y="35.1" width="23.3" height="23.3">
						<feColorMatrix  type="matrix" values="1 0 0 0 0  0 1 0 0 0  0 0 1 0 0  0 0 0 1 0"/>
					</filter>
				</defs>
				<mask maskUnits="userSpaceOnUse" x="353.4" y="35.1" width="23.3" height="23.3" id="mask-12_1_">
					<g class="st24">
						<polygon id="path-11_1_" class="st12" points="418.6,247.2 639.2,30.9 438.4,-173.8 217.9,42.4 						"/>
					</g>
				</mask>
				<polygon id="Fill-42" class="st25" points="364.9,58.4 376.7,46.9 365.1,35.1 353.4,46.6 				"/>
			</g>
			<g id="Fill-43-Clipped">
				<g id="path-1_8_">
				</g>
				<defs>
					<filter id="Adobe_OpacityMaskFilter_6_" filterUnits="userSpaceOnUse" x="353.5" y="6.3" width="23.3" height="23.3">
						<feColorMatrix  type="matrix" values="1 0 0 0 0  0 1 0 0 0  0 0 1 0 0  0 0 0 1 0"/>
					</filter>
				</defs>
				<mask maskUnits="userSpaceOnUse" x="353.5" y="6.3" width="23.3" height="23.3" id="mask-14_1_">
					<g class="st26">
						<polygon id="path-13_1_" class="st12" points="418.6,247.2 639.2,30.9 438.4,-173.8 217.9,42.4 						"/>
					</g>
				</mask>
				<polygon id="Fill-43" class="st27" points="365,29.6 376.8,18.1 365.3,6.3 353.5,17.8 				"/>
			</g>
			<g id="Fill-44-Clipped">
				<g id="path-1_9_">
				</g>
				<defs>
					<filter id="Adobe_OpacityMaskFilter_7_" filterUnits="userSpaceOnUse" x="367.3" y="49.5" width="23.3" height="23.3">
						<feColorMatrix  type="matrix" values="1 0 0 0 0  0 1 0 0 0  0 0 1 0 0  0 0 0 1 0"/>
					</filter>
				</defs>
				<mask maskUnits="userSpaceOnUse" x="367.3" y="49.5" width="23.3" height="23.3" id="mask-16_1_">
					<g class="st28">
						<polygon id="path-15_1_" class="st12" points="418.6,247.2 639.2,30.9 438.4,-173.8 217.9,42.4 						"/>
					</g>
				</mask>
				<polygon id="Fill-44" class="st29" points="378.9,72.8 390.6,61.3 379.1,49.5 367.3,61 				"/>
			</g>
			<g id="Fill-45-Clipped">
				<g id="path-1_10_">
				</g>
				<defs>
					<filter id="Adobe_OpacityMaskFilter_8_" filterUnits="userSpaceOnUse" x="381.3" y="63.8" width="23.3" height="23.3">
						<feColorMatrix  type="matrix" values="1 0 0 0 0  0 1 0 0 0  0 0 1 0 0  0 0 0 1 0"/>
					</filter>
				</defs>
				<mask maskUnits="userSpaceOnUse" x="381.3" y="63.8" width="23.3" height="23.3" id="mask-18_1_">
					<g class="st30">
						<polygon id="path-17_1_" class="st12" points="418.6,247.2 639.2,30.9 438.4,-173.8 217.9,42.4 						"/>
					</g>
				</mask>
				<polygon id="Fill-45" class="st31" points="392.8,87.1 404.6,75.6 393,63.8 381.3,75.3 				"/>
			</g>
			<g id="Fill-46-Clipped">
				<g id="path-1_11_">
				</g>
				<defs>
					<filter id="Adobe_OpacityMaskFilter_9_" filterUnits="userSpaceOnUse" x="382.7" y="-21.7" width="23.3" height="23.3">
						<feColorMatrix  type="matrix" values="1 0 0 0 0  0 1 0 0 0  0 0 1 0 0  0 0 0 1 0"/>
					</filter>
				</defs>
				<mask maskUnits="userSpaceOnUse" x="382.7" y="-21.7" width="23.3" height="23.3" id="mask-20_1_">
					<g class="st32">
						<polygon id="path-19_1_" class="st12" points="418.6,247.2 639.2,30.9 438.4,-173.8 217.9,42.4 						"/>
					</g>
				</mask>
				<polygon id="Fill-46" class="st33" points="394.3,1.6 406,-9.9 394.5,-21.7 382.7,-10.1 				"/>
			</g>
			<g id="Fill-47-Clipped">
				<g id="path-1_12_">
				</g>
				<defs>
					<filter id="Adobe_OpacityMaskFilter_10_" filterUnits="userSpaceOnUse" x="397.1" y="-36" width="23.3" height="23.3">
						<feColorMatrix  type="matrix" values="1 0 0 0 0  0 1 0 0 0  0 0 1 0 0  0 0 0 1 0"/>
					</filter>
				</defs>
				<mask maskUnits="userSpaceOnUse" x="397.1" y="-36" width="23.3" height="23.3" id="mask-22_1_">
					<g class="st34">
						<polygon id="path-21_1_" class="st12" points="418.6,247.2 639.2,30.9 438.4,-173.8 217.9,42.4 						"/>
					</g>
				</mask>
				<polygon id="Fill-47" class="st35" points="408.6,-12.7 420.4,-24.3 408.8,-36 397.1,-24.5 				"/>
			</g>
			<g id="Fill-48-Clipped">
				<g id="path-1_13_">
				</g>
				<defs>
					<filter id="Adobe_OpacityMaskFilter_11_" filterUnits="userSpaceOnUse" x="410.9" y="-21.9" width="23.3" height="23.3">
						<feColorMatrix  type="matrix" values="1 0 0 0 0  0 1 0 0 0  0 0 1 0 0  0 0 0 1 0"/>
					</filter>
				</defs>
				<mask maskUnits="userSpaceOnUse" x="410.9" y="-21.9" width="23.3" height="23.3" id="mask-24_1_">
					<g class="st36">
						<polygon id="path-23_1_" class="st12" points="418.6,247.2 639.2,30.9 438.4,-173.8 217.9,42.4 						"/>
					</g>
				</mask>
				<polygon id="Fill-48" class="st37" points="422.4,1.4 434.2,-10.1 422.6,-21.9 410.9,-10.3 				"/>
			</g>
			<g id="Fill-49-Clipped">
				<g id="path-1_14_">
				</g>
				<defs>
					<filter id="Adobe_OpacityMaskFilter_12_" filterUnits="userSpaceOnUse" x="425.2" y="-35.9" width="23.3" height="23.3">
						<feColorMatrix  type="matrix" values="1 0 0 0 0  0 1 0 0 0  0 0 1 0 0  0 0 0 1 0"/>
					</filter>
				</defs>
				<mask maskUnits="userSpaceOnUse" x="425.2" y="-35.9" width="23.3" height="23.3" id="mask-26_1_">
					<g class="st38">
						<polygon id="path-25_1_" class="st12" points="418.6,247.2 639.2,30.9 438.4,-173.8 217.9,42.4 						"/>
					</g>
				</mask>
				<polygon id="Fill-49" class="st39" points="436.7,-12.6 448.4,-24.1 436.9,-35.9 425.2,-24.3 				"/>
			</g>
			<g id="Fill-50-Clipped">
				<g id="path-1_15_">
				</g>
				<defs>
					<filter id="Adobe_OpacityMaskFilter_13_" filterUnits="userSpaceOnUse" x="411.4" y="-49.8" width="23.3" height="23.3">
						<feColorMatrix  type="matrix" values="1 0 0 0 0  0 1 0 0 0  0 0 1 0 0  0 0 0 1 0"/>
					</filter>
				</defs>
				<mask maskUnits="userSpaceOnUse" x="411.4" y="-49.8" width="23.3" height="23.3" id="mask-28_1_">
					<g class="st40">
						<polygon id="path-27_1_" class="st12" points="418.6,247.2 639.2,30.9 438.4,-173.8 217.9,42.4 						"/>
					</g>
				</mask>
				<polygon id="Fill-50" class="st41" points="423,-26.6 434.7,-38.1 423.2,-49.8 411.4,-38.3 				"/>
			</g>
			<g id="Fill-51-Clipped">
				<g id="path-1_16_">
				</g>
				<defs>
					<filter id="Adobe_OpacityMaskFilter_14_" filterUnits="userSpaceOnUse" x="425.6" y="-64.3" width="23.3" height="23.3">
						<feColorMatrix  type="matrix" values="1 0 0 0 0  0 1 0 0 0  0 0 1 0 0  0 0 0 1 0"/>
					</filter>
				</defs>
				<mask maskUnits="userSpaceOnUse" x="425.6" y="-64.3" width="23.3" height="23.3" id="mask-30_1_">
					<g class="st42">
						<polygon id="path-29_1_" class="st12" points="418.6,247.2 639.2,30.9 438.4,-173.8 217.9,42.4 						"/>
					</g>
				</mask>
				<polygon id="Fill-51" class="st43" points="437.1,-41.1 448.9,-52.6 437.3,-64.3 425.6,-52.8 				"/>
			</g>
			<g id="Fill-52-Clipped">
				<g id="path-1_17_">
				</g>
				<defs>
					<filter id="Adobe_OpacityMaskFilter_15_" filterUnits="userSpaceOnUse" x="440.1" y="-78.5" width="23.3" height="23.3">
						<feColorMatrix  type="matrix" values="1 0 0 0 0  0 1 0 0 0  0 0 1 0 0  0 0 0 1 0"/>
					</filter>
				</defs>
				<mask maskUnits="userSpaceOnUse" x="440.1" y="-78.5" width="23.3" height="23.3" id="mask-32_1_">
					<g class="st44">
						<polygon id="path-31_1_" class="st12" points="418.6,247.2 639.2,30.9 438.4,-173.8 217.9,42.4 						"/>
					</g>
				</mask>
				<polygon id="Fill-52" class="st45" points="451.6,-55.2 463.4,-66.8 451.8,-78.5 440.1,-67 				"/>
			</g>
			<g id="Fill-53-Clipped">
				<g id="path-1_18_">
				</g>
				<defs>
					<filter id="Adobe_OpacityMaskFilter_16_" filterUnits="userSpaceOnUse" x="454.6" y="-92.5" width="23.3" height="23.3">
						<feColorMatrix  type="matrix" values="1 0 0 0 0  0 1 0 0 0  0 0 1 0 0  0 0 0 1 0"/>
					</filter>
				</defs>
				<mask maskUnits="userSpaceOnUse" x="454.6" y="-92.5" width="23.3" height="23.3" id="mask-34_1_">
					<g class="st46">
						<polygon id="path-33_1_" class="st12" points="418.6,247.2 639.2,30.9 438.4,-173.8 217.9,42.4 						"/>
					</g>
				</mask>
				<polygon id="Fill-53" class="st47" points="466.2,-69.2 477.9,-80.7 466.4,-92.5 454.6,-81 				"/>
			</g>
			<g id="Fill-54-Clipped">
				<g id="path-1_19_">
				</g>
				<defs>
					<filter id="Adobe_OpacityMaskFilter_17_" filterUnits="userSpaceOnUse" x="339.7" y="-36.4" width="23.3" height="23.3">
						<feColorMatrix  type="matrix" values="1 0 0 0 0  0 1 0 0 0  0 0 1 0 0  0 0 0 1 0"/>
					</filter>
				</defs>
				<mask maskUnits="userSpaceOnUse" x="339.7" y="-36.4" width="23.3" height="23.3" id="mask-36_1_">
					<g class="st48">
						<polygon id="path-35_1_" class="st12" points="418.6,247.2 639.2,30.9 438.4,-173.8 217.9,42.4 						"/>
					</g>
				</mask>
				<polygon id="Fill-54" class="st49" points="351.3,-13.1 363,-24.7 351.5,-36.4 339.7,-24.9 				"/>
			</g>
			<g id="Fill-55-Clipped">
				<g id="path-1_20_">
				</g>
				<defs>
					<filter id="Adobe_OpacityMaskFilter_18_" filterUnits="userSpaceOnUse" x="382.7" y="-50.6" width="23.3" height="23.3">
						<feColorMatrix  type="matrix" values="1 0 0 0 0  0 1 0 0 0  0 0 1 0 0  0 0 0 1 0"/>
					</filter>
				</defs>
				<mask maskUnits="userSpaceOnUse" x="382.7" y="-50.6" width="23.3" height="23.3" id="mask-38_1_">
					<g class="st50">
						<polygon id="path-37_1_" class="st12" points="418.6,247.2 639.2,30.9 438.4,-173.8 217.9,42.4 						"/>
					</g>
				</mask>
				<polygon id="Fill-55" class="st51" points="394.3,-27.3 406,-38.9 394.5,-50.6 382.7,-39.1 				"/>
			</g>
			<g id="Fill-56-Clipped">
				<g id="path-1_21_">
				</g>
				<defs>
					<filter id="Adobe_OpacityMaskFilter_19_" filterUnits="userSpaceOnUse" x="397.2" y="-64.8" width="23.3" height="23.3">
						<feColorMatrix  type="matrix" values="1 0 0 0 0  0 1 0 0 0  0 0 1 0 0  0 0 0 1 0"/>
					</filter>
				</defs>
				<mask maskUnits="userSpaceOnUse" x="397.2" y="-64.8" width="23.3" height="23.3" id="mask-40_1_">
					<g class="st52">
						<polygon id="path-39_1_" class="st12" points="418.6,247.2 639.2,30.9 438.4,-173.8 217.9,42.4 						"/>
					</g>
				</mask>
				<polygon id="Fill-56" class="st53" points="408.7,-41.5 420.5,-53 408.9,-64.8 397.2,-53.3 				"/>
			</g>
			<g id="Fill-57-Clipped">
				<g id="path-1_22_">
				</g>
				<defs>
					<filter id="Adobe_OpacityMaskFilter_20_" filterUnits="userSpaceOnUse" x="354.1" y="-50.6" width="23.3" height="23.3">
						<feColorMatrix  type="matrix" values="1 0 0 0 0  0 1 0 0 0  0 0 1 0 0  0 0 0 1 0"/>
					</filter>
				</defs>
				<mask maskUnits="userSpaceOnUse" x="354.1" y="-50.6" width="23.3" height="23.3" id="mask-42_1_">
					<g class="st54">
						<polygon id="path-41_1_" class="st12" points="418.6,247.2 639.2,30.9 438.4,-173.8 217.9,42.4 						"/>
					</g>
				</mask>
				<polygon id="Fill-57" class="st55" points="365.6,-27.3 377.4,-38.8 365.9,-50.6 354.1,-39.1 				"/>
			</g>
			<g id="Fill-58-Clipped">
				<g id="path-1_23_">
				</g>
				<defs>
					<filter id="Adobe_OpacityMaskFilter_21_" filterUnits="userSpaceOnUse" x="411.5" y="-78.8" width="23.3" height="23.3">
						<feColorMatrix  type="matrix" values="1 0 0 0 0  0 1 0 0 0  0 0 1 0 0  0 0 0 1 0"/>
					</filter>
				</defs>
				<mask maskUnits="userSpaceOnUse" x="411.5" y="-78.8" width="23.3" height="23.3" id="mask-44_1_">
					<g class="st56">
						<polygon id="path-43_1_" class="st12" points="418.6,247.2 639.2,30.9 438.4,-173.8 217.9,42.4 						"/>
					</g>
				</mask>
				<polygon id="Fill-58" class="st57" points="423,-55.5 434.7,-67 423.2,-78.8 411.5,-67.3 				"/>
			</g>
			<g id="Fill-59-Clipped">
				<g id="path-1_24_">
				</g>
				<defs>
					<filter id="Adobe_OpacityMaskFilter_22_" filterUnits="userSpaceOnUse" x="425.9" y="-93" width="23.3" height="23.3">
						<feColorMatrix  type="matrix" values="1 0 0 0 0  0 1 0 0 0  0 0 1 0 0  0 0 0 1 0"/>
					</filter>
				</defs>
				<mask maskUnits="userSpaceOnUse" x="425.9" y="-93" width="23.3" height="23.3" id="mask-46_1_">
					<g class="st58">
						<polygon id="path-45_1_" class="st12" points="418.6,247.2 639.2,30.9 438.4,-173.8 217.9,42.4 						"/>
					</g>
				</mask>
				<polygon id="Fill-59" class="st59" points="437.4,-69.7 449.2,-81.2 437.7,-93 425.9,-81.4 				"/>
			</g>
			<g id="Fill-60-Clipped">
				<g id="path-1_25_">
				</g>
				<defs>
					<filter id="Adobe_OpacityMaskFilter_23_" filterUnits="userSpaceOnUse" x="440.3" y="-107.1" width="23.3" height="23.3">
						<feColorMatrix  type="matrix" values="1 0 0 0 0  0 1 0 0 0  0 0 1 0 0  0 0 0 1 0"/>
					</filter>
				</defs>
				<mask maskUnits="userSpaceOnUse" x="440.3" y="-107.1" width="23.3" height="23.3" id="mask-48_1_">
					<g class="st60">
						<polygon id="path-47_1_" class="st12" points="418.6,247.2 639.2,30.9 438.4,-173.8 217.9,42.4 						"/>
					</g>
				</mask>
				<polygon id="Fill-60" class="st61" points="451.9,-83.8 463.6,-95.4 452.1,-107.1 440.3,-95.6 				"/>
			</g>
			<g id="Fill-61-Clipped">
				<g id="path-1_26_">
				</g>
				<defs>
					<filter id="Adobe_OpacityMaskFilter_24_" filterUnits="userSpaceOnUse" x="366.7" y="106.6" width="23.3" height="23.3">
						<feColorMatrix  type="matrix" values="1 0 0 0 0  0 1 0 0 0  0 0 1 0 0  0 0 0 1 0"/>
					</filter>
				</defs>
				<mask maskUnits="userSpaceOnUse" x="366.7" y="106.6" width="23.3" height="23.3" id="mask-50_1_">
					<g class="st62">
						<polygon id="path-49_1_" class="st12" points="418.6,247.2 639.2,30.9 438.4,-173.8 217.9,42.4 						"/>
					</g>
				</mask>
				<polygon id="Fill-61" class="st63" points="378.2,129.9 390,118.4 378.4,106.6 366.7,118.2 				"/>
			</g>
			<g id="Fill-62-Clipped">
				<g id="path-1_27_">
				</g>
				<defs>
					<filter id="Adobe_OpacityMaskFilter_25_" filterUnits="userSpaceOnUse" x="381" y="92.5" width="23.3" height="23.3">
						<feColorMatrix  type="matrix" values="1 0 0 0 0  0 1 0 0 0  0 0 1 0 0  0 0 0 1 0"/>
					</filter>
				</defs>
				<mask maskUnits="userSpaceOnUse" x="381" y="92.5" width="23.3" height="23.3" id="mask-52_1_">
					<g class="st64">
						<polygon id="path-51_1_" class="st12" points="418.6,247.2 639.2,30.9 438.4,-173.8 217.9,42.4 						"/>
					</g>
				</mask>
				<polygon id="Fill-62" class="st65" points="392.6,115.8 404.3,104.2 392.8,92.5 381,104 				"/>
			</g>
			<g id="Fill-63-Clipped">
				<g id="path-1_28_">
				</g>
				<defs>
					<filter id="Adobe_OpacityMaskFilter_26_" filterUnits="userSpaceOnUse" x="395.3" y="78.5" width="23.3" height="23.3">
						<feColorMatrix  type="matrix" values="1 0 0 0 0  0 1 0 0 0  0 0 1 0 0  0 0 0 1 0"/>
					</filter>
				</defs>
				<mask maskUnits="userSpaceOnUse" x="395.3" y="78.5" width="23.3" height="23.3" id="mask-54_1_">
					<g class="st66">
						<polygon id="path-53_1_" class="st12" points="418.6,247.2 639.2,30.9 438.4,-173.8 217.9,42.4 						"/>
					</g>
				</mask>
				<polygon id="Fill-63" class="st67" points="406.9,101.8 418.6,90.2 407.1,78.5 395.3,90 				"/>
			</g>
			<g id="Fill-64-Clipped">
				<g id="path-1_29_">
				</g>
				<defs>
					<filter id="Adobe_OpacityMaskFilter_27_" filterUnits="userSpaceOnUse" x="395.6" y="49.8" width="23.3" height="23.3">
						<feColorMatrix  type="matrix" values="1 0 0 0 0  0 1 0 0 0  0 0 1 0 0  0 0 0 1 0"/>
					</filter>
				</defs>
				<mask maskUnits="userSpaceOnUse" x="395.6" y="49.8" width="23.3" height="23.3" id="mask-56_1_">
					<g class="st68">
						<polygon id="path-55_1_" class="st12" points="418.6,247.2 639.2,30.9 438.4,-173.8 217.9,42.4 						"/>
					</g>
				</mask>
				<polygon id="Fill-64" class="st69" points="407.1,73.1 418.9,61.6 407.3,49.8 395.6,61.4 				"/>
			</g>
			<g id="Fill-65-Clipped">
				<g id="path-1_30_">
				</g>
				<defs>
					<filter id="Adobe_OpacityMaskFilter_28_" filterUnits="userSpaceOnUse" x="339.2" y="-8" width="23.3" height="23.3">
						<feColorMatrix  type="matrix" values="1 0 0 0 0  0 1 0 0 0  0 0 1 0 0  0 0 0 1 0"/>
					</filter>
				</defs>
				<mask maskUnits="userSpaceOnUse" x="339.2" y="-8" width="23.3" height="23.3" id="mask-58_1_">
					<g class="st70">
						<polygon id="path-57_1_" class="st12" points="418.6,247.2 639.2,30.9 438.4,-173.8 217.9,42.4 						"/>
					</g>
				</mask>
				<polygon id="Fill-65" class="st71" points="350.8,15.3 362.5,3.8 351,-8 339.2,3.6 				"/>
			</g>
			<g id="Fill-66-Clipped">
				<g id="path-1_31_">
				</g>
				<defs>
					<filter id="Adobe_OpacityMaskFilter_29_" filterUnits="userSpaceOnUse" x="382" y="6.4" width="23.3" height="23.3">
						<feColorMatrix  type="matrix" values="1 0 0 0 0  0 1 0 0 0  0 0 1 0 0  0 0 0 1 0"/>
					</filter>
				</defs>
				<mask maskUnits="userSpaceOnUse" x="382" y="6.4" width="23.3" height="23.3" id="mask-60_1_">
					<g class="st72">
						<polygon id="path-59_1_" class="st12" points="418.6,247.2 639.2,30.9 438.4,-173.8 217.9,42.4 						"/>
					</g>
				</mask>
				<polygon id="Fill-66" class="st73" points="393.6,29.7 405.3,18.2 393.8,6.4 382,18 				"/>
			</g>
			<g id="Fill-67-Clipped">
				<g id="path-1_32_">
				</g>
				<defs>
					<filter id="Adobe_OpacityMaskFilter_30_" filterUnits="userSpaceOnUse" x="368" y="-7.9" width="23.3" height="23.3">
						<feColorMatrix  type="matrix" values="1 0 0 0 0  0 1 0 0 0  0 0 1 0 0  0 0 0 1 0"/>
					</filter>
				</defs>
				<mask maskUnits="userSpaceOnUse" x="368" y="-7.9" width="23.3" height="23.3" id="mask-62_1_">
					<g class="st74">
						<polygon id="path-61_1_" class="st12" points="418.6,247.2 639.2,30.9 438.4,-173.8 217.9,42.4 						"/>
					</g>
				</mask>
				<polygon id="Fill-67" class="st75" points="379.5,15.4 391.3,3.9 379.8,-7.9 368,3.7 				"/>
			</g>
			<g id="Fill-68-Clipped">
				<g id="path-1_33_">
				</g>
				<defs>
					<filter id="Adobe_OpacityMaskFilter_31_" filterUnits="userSpaceOnUse" x="353.8" y="-22.3" width="23.3" height="23.3">
						<feColorMatrix  type="matrix" values="1 0 0 0 0  0 1 0 0 0  0 0 1 0 0  0 0 0 1 0"/>
					</filter>
				</defs>
				<mask maskUnits="userSpaceOnUse" x="353.8" y="-22.3" width="23.3" height="23.3" id="mask-64_1_">
					<g class="st76">
						<polygon id="path-63_1_" class="st12" points="418.6,247.2 639.2,30.9 438.4,-173.8 217.9,42.4 						"/>
					</g>
				</mask>
				<polygon id="Fill-68" class="st77" points="365.4,1 377.1,-10.5 365.6,-22.3 353.8,-10.8 				"/>
			</g>
			<g id="Fill-69-Clipped">
				<g id="path-1_34_">
				</g>
				<defs>
					<filter id="Adobe_OpacityMaskFilter_32_" filterUnits="userSpaceOnUse" x="368.3" y="-36.5" width="23.3" height="23.3">
						<feColorMatrix  type="matrix" values="1 0 0 0 0  0 1 0 0 0  0 0 1 0 0  0 0 0 1 0"/>
					</filter>
				</defs>
				<mask maskUnits="userSpaceOnUse" x="368.3" y="-36.5" width="23.3" height="23.3" id="mask-66_1_">
					<g class="st78">
						<polygon id="path-65_1_" class="st12" points="418.6,247.2 639.2,30.9 438.4,-173.8 217.9,42.4 						"/>
					</g>
				</mask>
				<polygon id="Fill-69" class="st79" points="379.8,-13.2 391.6,-24.7 380,-36.5 368.3,-24.9 				"/>
			</g>
			<g id="Fill-70-Clipped">
				<g id="path-1_35_">
				</g>
				<defs>
					<filter id="Adobe_OpacityMaskFilter_33_" filterUnits="userSpaceOnUse" x="296.1" y="63.1" width="23.3" height="23.3">
						<feColorMatrix  type="matrix" values="1 0 0 0 0  0 1 0 0 0  0 0 1 0 0  0 0 0 1 0"/>
					</filter>
				</defs>
				<mask maskUnits="userSpaceOnUse" x="296.1" y="63.1" width="23.3" height="23.3" id="mask-68_1_">
					<g class="st80">
						<polygon id="path-67_1_" class="st12" points="418.6,247.2 639.2,30.9 438.4,-173.8 217.9,42.4 						"/>
					</g>
				</mask>
				<polygon id="Fill-70" class="st81" points="307.7,86.4 319.4,74.9 307.9,63.1 296.1,74.6 				"/>
			</g>
			<g id="Fill-71-Clipped">
				<g id="path-1_36_">
				</g>
				<defs>
					<filter id="Adobe_OpacityMaskFilter_34_" filterUnits="userSpaceOnUse" x="310.4" y="49.1" width="23.3" height="23.3">
						<feColorMatrix  type="matrix" values="1 0 0 0 0  0 1 0 0 0  0 0 1 0 0  0 0 0 1 0"/>
					</filter>
				</defs>
				<mask maskUnits="userSpaceOnUse" x="310.4" y="49.1" width="23.3" height="23.3" id="mask-70_1_">
					<g class="st82">
						<polygon id="path-69_1_" class="st12" points="418.6,247.2 639.2,30.9 438.4,-173.8 217.9,42.4 						"/>
					</g>
				</mask>
				<polygon id="Fill-71" class="st83" points="321.9,72.4 333.7,60.9 322.1,49.1 310.4,60.6 				"/>
			</g>
			<g id="Fill-72-Clipped">
				<g id="path-1_37_">
				</g>
				<defs>
					<filter id="Adobe_OpacityMaskFilter_35_" filterUnits="userSpaceOnUse" x="324.5" y="63.5" width="23.3" height="23.3">
						<feColorMatrix  type="matrix" values="1 0 0 0 0  0 1 0 0 0  0 0 1 0 0  0 0 0 1 0"/>
					</filter>
				</defs>
				<mask maskUnits="userSpaceOnUse" x="324.5" y="63.5" width="23.3" height="23.3" id="mask-72_1_">
					<g class="st84">
						<polygon id="path-71_1_" class="st12" points="418.6,247.2 639.2,30.9 438.4,-173.8 217.9,42.4 						"/>
					</g>
				</mask>
				<polygon id="Fill-72" class="st85" points="336,86.8 347.8,75.3 336.3,63.5 324.5,75.1 				"/>
			</g>
			<g id="Fill-73-Clipped">
				<g id="path-1_38_">
				</g>
				<defs>
					<filter id="Adobe_OpacityMaskFilter_36_" filterUnits="userSpaceOnUse" x="338.9" y="49.4" width="23.3" height="23.3">
						<feColorMatrix  type="matrix" values="1 0 0 0 0  0 1 0 0 0  0 0 1 0 0  0 0 0 1 0"/>
					</filter>
				</defs>
				<mask maskUnits="userSpaceOnUse" x="338.9" y="49.4" width="23.3" height="23.3" id="mask-74_1_">
					<g class="st86">
						<polygon id="path-73_1_" class="st12" points="418.6,247.2 639.2,30.9 438.4,-173.8 217.9,42.4 						"/>
					</g>
				</mask>
				<polygon id="Fill-73" class="st87" points="350.5,72.7 362.2,61.1 350.7,49.4 338.9,60.9 				"/>
			</g>
			<g id="Fill-74-Clipped" transform="translate(73.000000, 77.000000)">
				<polygon id="Fill-74" points="263.1,-18.9 274.9,-30.5 263.4,-42.2 251.6,-30.7 				"/>
			</g>
		</g>
	</g>
</g>
<path id="Icon" class="st88" d="M145.8,170.3c-0.5,0.1-1.1,0.3-1.6,0.5c-15.4,5-20.4,27.3-10,41.8l26,38.4c0.7,1,2,1.2,2.9,0.5
	c0.4-0.3,0.7-0.8,0.8-1.4l8.8-46.9c3.8-17.9-9.3-35.8-25.2-33.2C146.9,170.1,146.4,170.2,145.8,170.3z M153.6,206.6
	c-5.3,1.3-10.5-2.4-11.7-8.3s2.1-11.6,7.4-12.9c5.3-1.3,10.5,2.4,11.7,8.3C162.2,199.5,158.9,205.3,153.6,206.6z"/>
</svg>
