<svg id="Layer_1" data-name="Layer 1" xmlns="http://www.w3.org/2000/svg" viewBox="0 0 960 365"><defs><style>.cls-1{fill:#fff;}.cls-2{fill:none;}</style></defs><title>footer-right-section</title><rect x="-0.5" width="959" height="367"/><g id="Layer_2" data-name="Layer 2"><g id="Layer_1-2" data-name="Layer 1-2"><path class="cls-1" d="M476.05,157.09a6.06,6.06,0,0,0,1.63,4.22,7.71,7.71,0,0,0,3.45,2.3,9,9,0,0,0,2.68.42,10.25,10.25,0,0,0,1.36-.11,11.48,11.48,0,0,0,5.3-2.11,52.85,52.85,0,0,0,4.27-3.46c1.25-1.11,2.46-2.22,3.6-3.3l.3-.3c.1.23.2.45.32.67a8.34,8.34,0,0,0,1.65,2l.19.18-1.17,1-1.48,1.28c-.53.4-1.08.87-1.63,1.37a17.45,17.45,0,0,0-1.47,1.62,5.63,5.63,0,0,0-1,1.91,3.66,3.66,0,0,0,.09,2.29,4.58,4.58,0,0,0,2.16,2.75,6.2,6.2,0,0,0,3,.8h.37a7.39,7.39,0,0,0,3.62-1.2,10.37,10.37,0,0,0,2.84-2.68,9.55,9.55,0,0,0,1.55-3.53,6.6,6.6,0,0,0-.33-3.88,6.89,6.89,0,0,0-1.3-1.73c1.49-1.16,3-2.25,4.55-3.23a19.21,19.21,0,0,1,4.1-2c-.29,3.22-.56,6.42-.78,9.61-.63,9.3-1,18.83-1.15,28.32a1.64,1.64,0,0,0,.5,1.21,1.72,1.72,0,0,0,2.29,0,1.56,1.56,0,0,0,.49-1.2c.07-9.5.44-19,1.1-28.33s1.65-18.65,3-27.95l2.37-.16,3.49-.23,6.13-.4a1.45,1.45,0,0,0,1.21-.58,1.79,1.79,0,0,0,.43-1.16,1.45,1.45,0,0,0-.46-1.09,1.6,1.6,0,0,0-1.22-.41h0l-5.89.4-5.57.37c.31-2.13.64-4.31,1-6.46s.71-4.29,1.15-6.79a1.62,1.62,0,0,0-.32-1.31,1.93,1.93,0,0,0-1-.72,1.42,1.42,0,0,0-1.17.13,1.44,1.44,0,0,0-.73,1.08c-.46,2.39-.9,4.83-1.3,7.25s-.73,4.66-1.06,7c-1,.11-2.07.19-3.15.22s-2.34.12-3.43.25a1.47,1.47,0,0,0-1.22.58,1.91,1.91,0,0,0-.42,1.16,1.54,1.54,0,0,0,.45,1.09,1.66,1.66,0,0,0,1.21.45h0l3.25-.2h.48l2.34-.14c-.64,4.8-1.19,9.64-1.67,14.46h0a32,32,0,0,0-6.21,2.93,51.65,51.65,0,0,0-5.46,3.85,6.64,6.64,0,0,1-1.4-1.45,3.31,3.31,0,0,1-.5-2.45,4.37,4.37,0,0,1,.12-.52,1.86,1.86,0,0,0,.17-.6,9,9,0,0,1,.77-1.66,16.32,16.32,0,0,1,1.9-2.54,16.7,16.7,0,0,1,2-1.86,1.28,1.28,0,0,0,.58-1.15,1.89,1.89,0,0,0-.49-1,1.74,1.74,0,0,0-1.09-.61,1.62,1.62,0,0,0-1.33.37,19.65,19.65,0,0,0-4.12,4.78,12.27,12.27,0,0,0-1.19,2.54,1.2,1.2,0,0,0-.1.15,16.81,16.81,0,0,1-1.71,2.15l-1.93,2-3,2.84a22.26,22.26,0,0,1-3.2,2.51,12.33,12.33,0,0,1-3.79,1.6,4.77,4.77,0,0,1-3.93-.71,3,3,0,0,1-1.35-1.39,4.48,4.48,0,0,1-.37-1.76,8.36,8.36,0,0,1,.24-2q.19-.81.42-1.62a5.33,5.33,0,0,0,5,0,10.47,10.47,0,0,0,4.34-4.13,19,19,0,0,0,1.68-3.67,7.59,7.59,0,0,0,.31-4.06,3.2,3.2,0,0,0-1.8-2.55,3.71,3.71,0,0,0-3.06,0,11.3,11.3,0,0,0-3.66,2.37,19.21,19.21,0,0,0-2.79,3.42,23.35,23.35,0,0,0-2,4c-.5,1.31-.94,2.64-1.31,4A18.92,18.92,0,0,0,476.05,157.09Zm21.4,9a4.26,4.26,0,0,1,1-1.93,13.51,13.51,0,0,1,2-2c.86-.68,1.43-1.14,1.79-1.44A7.31,7.31,0,0,0,503,160c.15-.15.32-.3.49-.44a3.65,3.65,0,0,1,.81,1.06,2.42,2.42,0,0,1,.17,1.61,8,8,0,0,1-.72,1.86,5.94,5.94,0,0,1-1.37,1.75,5.61,5.61,0,0,1-1.84,1.13,2.86,2.86,0,0,1-1.85.09c-1.37-.28-1.29-.8-1.27-1Zm-16.4-16.19a24,24,0,0,1,2.06-3.88c.19-.26.55-.71,1.08-1.33a11.53,11.53,0,0,1,1.7-1.65,4.52,4.52,0,0,1,1.62-.89.32.32,0,0,1,.27,0,1.09,1.09,0,0,1,.3.7,3.41,3.41,0,0,1-.14,1.45,9.92,9.92,0,0,1-.67,1.74,13.94,13.94,0,0,1-1,1.65,15.56,15.56,0,0,1-.92,1.26,4.73,4.73,0,0,1-2.27,1.5A2.42,2.42,0,0,1,481.05,149.9Z"/><path class="cls-1" d="M503.4,200.46a1.45,1.45,0,0,0-2,.21l0,0-8.77,10.37-.06.07h0l-.92,1.22a13,13,0,0,1-1,1.11l-.33.35a1.28,1.28,0,0,1-1.27.46.57.57,0,0,1-.44-.41,2.44,2.44,0,0,1,.12-1.14,1.43,1.43,0,0,1,.07-.28v-.07c.16-.94.43-2.47.6-3.42l.18-1.68a1.16,1.16,0,0,0-.43-1.23,1.77,1.77,0,0,0-2.14,0,1.62,1.62,0,0,0-.7,1.15,20.18,20.18,0,0,1-.35,2c-.16.72-.31,1.55-.45,2.36-.08.51-.13,1-.17,1.51-1.11,4.31-2.87,9.24-5.57,9.83a1.29,1.29,0,0,1-1-.24c-1.6-1.09-3-4.92-4-10.51,4.94-11.67,10.51-27.22,9-35.11-.78-4-3-6.24-5.67-5.74-2.24.42-4.06,2.65-5.42,6.64-3.11,9.17-3.17,23-1.41,33.35-.84,4-2.56,5.5-4.57,5.67s-4-4-5.13-10.73c4.94-11.67,10.51-27.23,9-35.11-.78-4-2.94-6.25-5.67-5.74-7.25,1.35-9.24,23-7.2,38l-.15.09a4.28,4.28,0,0,1-2.68.84,8.88,8.88,0,0,1-2.7-.49h0a10.06,10.06,0,0,0-1-2.5,2.62,2.62,0,0,0-1.85-1.48,1.47,1.47,0,0,0-1.52.59,3,3,0,0,0-.59,1.87,4.31,4.31,0,0,0,.78,2.43,7.25,7.25,0,0,0,1.51,1.71.55.55,0,0,0,.22.18,14.72,14.72,0,0,1,0,2.3c-.07.79-.16,1.58-.29,2.34a22,22,0,0,1-.49,2.79,20.11,20.11,0,0,1-1,3.11,7.35,7.35,0,0,1-1.47,2.38,2,2,0,0,1-1.94.66,2.47,2.47,0,0,1-1.65-1.37,9.39,9.39,0,0,1-.89-2.68,19.53,19.53,0,0,1-.31-3.14,25.92,25.92,0,0,1,.09-2.79c.06-.84.15-1.68.28-2.5a26.24,26.24,0,0,1,.59-2.66,14.53,14.53,0,0,1,.9-2.41,5.58,5.58,0,0,1,1.3-1.81h0c.21-.28.43-.57.66-.91a1.74,1.74,0,0,0,.3-1.25,1.31,1.31,0,0,0-.63-1.15,1.29,1.29,0,0,0-1.1-.14,3.14,3.14,0,0,0-1.9,1.47,16.2,16.2,0,0,0-1.26,2.32,21.14,21.14,0,0,0-1.12,3.22h-5.61c.05-.31.09-.62.14-.93a8.05,8.05,0,0,1,.3-1.22c.91-4.45,1.8-9,2.65-13.49s1.7-8.9,2.64-13.48a1.47,1.47,0,0,0-.33-1.29,2,2,0,0,0-1-.64,1.5,1.5,0,0,0-1.14.06,1.32,1.32,0,0,0-.75,1l-5.59,28c-.07.33-.14.7-.2,1.1l-.16.92c-7.18.07-14.43.46-21.54,1.15.92-4.77,1.91-9.88,3-15.17s2.06-10.52,3-15.63a1.57,1.57,0,0,0-.26-1.26,1.79,1.79,0,0,0-1-.68,1.61,1.61,0,0,0-1.18.07,1.32,1.32,0,0,0-.75,1c-1.12,5.67-2.18,11.1-3.15,16.12s-2,10.47-3.09,15.87a266.62,266.62,0,0,0-31,5.07,1.31,1.31,0,0,0-1.06.75,1.74,1.74,0,0,0-.07,1.19,2.29,2.29,0,0,0,.65,1,1.29,1.29,0,0,0,1.3.23c5-1.12,10-2.09,15-2.89,4.81-.77,9.69-1.42,14.49-1.94-1.11,6-2.26,11.92-3.4,17.71L398,245.2a1.63,1.63,0,0,0,.32,1.31,2.24,2.24,0,0,0,1,.72,2.36,2.36,0,0,0,.44.07,1.66,1.66,0,0,0,.73-.2,1.44,1.44,0,0,0,.72-1.08c1.28-6.31,2.52-12.59,3.7-18.67s2.38-12.17,3.64-18.42c3.61-.32,7.24-.59,10.82-.82s7.12-.37,10.73-.44c-.68,3.38-1.32,6.84-1.91,10.27s-1.07,7.12-1.4,10.68a1.35,1.35,0,0,0,.41,1.27,1.75,1.75,0,0,0,2.29,0,1.45,1.45,0,0,0,.58-1.19c.33-3.57.8-7.16,1.39-10.66s1.24-6.92,1.94-10.39h5.7a34.78,34.78,0,0,0-.26,5.59,23.82,23.82,0,0,0,.28,3.07,16.41,16.41,0,0,0,.73,3,9.66,9.66,0,0,0,1.33,2.52,5.05,5.05,0,0,0,2,1.61,4.05,4.05,0,0,0,1.6.36,3.37,3.37,0,0,0,1-.15,5.49,5.49,0,0,0,2.25-1.4,10.13,10.13,0,0,0,1.68-2.34A19.47,19.47,0,0,0,451,217a34.82,34.82,0,0,0,1.1-4.59,27.07,27.07,0,0,0,.43-4.75,11.27,11.27,0,0,0,2.39.17,7.48,7.48,0,0,0,2.52-.54,5.4,5.4,0,0,0,.81-.48c1.63,8.45,4.56,13.07,8.24,13.07a6.38,6.38,0,0,0,6-3.18c.91,3.3,2,5.89,3.33,7.33a4.94,4.94,0,0,0,3.66,1.82,4.71,4.71,0,0,0,1-.11c3.12-.68,5.13-4.17,6.51-8.07a2.79,2.79,0,0,0,.8.38,4,4,0,0,0,2.79-.27,9.63,9.63,0,0,0,3.52-3.06c.87-1.22,1.8-2.4,2.78-3.52l.14-.18,1.71-2.07c.33-.41.69-.83,1.05-1.25-.93,4.28-1.71,8.57-2.31,12.76-.66,4.59-1.22,9.27-1.65,13.9s-.78,9.27-1,14c-.11,1.88-.14,2.46-.16,2.79s0,.43-.1,1.78a1.74,1.74,0,0,0,.44,1.23,1.7,1.7,0,0,0,1.19.54h-.09a1.68,1.68,0,0,0,1.67-1.58c.47-7.77.8-10.68,1.52-17.06.13-1.12.27-2.34.42-3.72,1.09-9.79,2.59-19.9,4.44-30.06A1.7,1.7,0,0,0,503.4,200.46Zm-24.86-26.24h.23c1.53,0,2.13,3,2.2,3.4,1.3,6.78-3.74,20.81-7,28.94C472.21,189.86,475,174.89,478.54,174.22Zm-13-6c1.49,0,2.09,2.83,2.2,3.4,1.3,6.78-3.73,20.81-7,28.94-1.74-16.67,1-31.65,4.59-32.32Z"/><path class="cls-1" d="M418.5,162a11.18,11.18,0,0,0,2.75,4.25,6.35,6.35,0,0,0,4.38,1.69,11.55,11.55,0,0,0,6.91-2.46,27.89,27.89,0,0,0,5.88-6.15,61,61,0,0,0,5.09-8.55c1.54-3.18,3.05-6.45,4.38-9.78s2.52-6.65,3.54-9.87l.21-.68c.11,2.15.27,4.37.48,6.59a83.08,83.08,0,0,0,2,11.92,35.18,35.18,0,0,0,3.57,9.27c1.64,2.78,3.74,4.2,6.24,4.2a7.16,7.16,0,0,0,5.31-2.41,18.59,18.59,0,0,0,3.55-5.77,44.7,44.7,0,0,0,2.34-8c.61-3,1.11-6.05,1.5-9.18s.66-6.36.8-9.48.22-6.06.22-8.78c0-2,0-3.74-.11-5.33s-.15-2.87-.26-4a1.89,1.89,0,0,0-.85-1.58,1.6,1.6,0,0,0-1.49-.1,2,2,0,0,0-1.24,2.12c.09,1,.17,2.29.25,3.85s.1,3.21.1,5.06c0,2.61-.07,5.42-.21,8.36s-.38,6-.72,9-.77,5.91-1.32,8.67a40.65,40.65,0,0,1-2.06,7.24,16.63,16.63,0,0,1-2.8,4.84,4,4,0,0,1-3,1.52c-1.34,0-2.49-.9-3.53-2.75a32.38,32.38,0,0,1-3-8.25,77.05,77.05,0,0,1-1.74-11.09c-.36-4-.54-7.88-.54-11.42,0-1.5,0-3,.07-4.42s.14-2.62.28-3.72a1.82,1.82,0,0,0-1.29-2.07l-.2-.06h-.25a1.68,1.68,0,0,0-.93.19,1.85,1.85,0,0,0-.88,1.19c-.47,2-1.17,4.66-2.08,7.86s-2,6.6-3.27,10.15-2.69,7.22-4.26,10.85a67.44,67.44,0,0,1-5.14,9.68,31.13,31.13,0,0,1-5.75,6.89,8.78,8.78,0,0,1-5.8,2.44,3,3,0,0,1-2.14-.89,7.9,7.9,0,0,1-1.78-3,25.28,25.28,0,0,1-1.12-5,50.51,50.51,0,0,1-.39-6.5,97.49,97.49,0,0,1,1.07-13.66,138.44,138.44,0,0,1,3-14.85,122.2,122.2,0,0,1,4.61-14.14,63.59,63.59,0,0,1,5.81-11.46,2,2,0,0,0,0-2.52,1.72,1.72,0,0,0-1.35-.72h0a1.77,1.77,0,0,0-1.33.62l-.11.15a68,68,0,0,0-6.23,12.16,127.39,127.39,0,0,0-4.82,14.65,137,137,0,0,0-3.1,15.44,104.94,104.94,0,0,0-1.14,14.39,58.82,58.82,0,0,0,.44,7.38A26.7,26.7,0,0,0,418.5,162Z"/><path class="cls-1" d="M589.13,150.26a1.67,1.67,0,0,0-2.37,0,1.74,1.74,0,0,0-.5,1.18l-.27,41a.45.45,0,0,1-.2.39.55.55,0,0,1-.53.06,4.65,4.65,0,0,0-3.1.05,1.59,1.59,0,0,0-.4.18,14,14,0,0,0-3.6,3.32,29.08,29.08,0,0,0-3.35,5.21,24.23,24.23,0,0,0-2.07,5.61c-.07.29-.09.56-.13.83-1.59,2.36-3.48,3.72-5.42,3.77a24.93,24.93,0,0,0,.78-7.14c0-3.82-1.14-10.28-5.44-10.28-1.81,0-3.14,1.28-3.74,3.61a13.1,13.1,0,0,0-.37,3.24h0a1.11,1.11,0,0,0-.74.3,9.1,9.1,0,0,0-2.33,3.94c-.77.32-1.59.63-2.47,1a15.74,15.74,0,0,1-3.2.78,24.64,24.64,0,0,0-.08-4.38,19.56,19.56,0,0,0-1.06-4.72,6.75,6.75,0,0,0-2.26-3.2,3.49,3.49,0,0,0-3.9-.4,5.14,5.14,0,0,0-2,1.55,7.28,7.28,0,0,0-1.2,2.25,10.94,10.94,0,0,0-.52,2.53,12.84,12.84,0,0,0,0,2.32,10.45,10.45,0,0,0,.62,2.27,25.56,25.56,0,0,1-2.39,2,2.81,2.81,0,0,1-2.82.38,3,3,0,0,1-1-.51c.17-.9.35-1.84.56-2.8.07-.55.17-1.7.3-3.41a30.68,30.68,0,0,0,0-5.25,13.63,13.63,0,0,0-1.08-4.45,2.17,2.17,0,0,0-2.78-1.33l-.22.09a3.1,3.1,0,0,0-1.63,1.29,8.89,8.89,0,0,0-.93,2,13.06,13.06,0,0,0-.67,3.93,18.05,18.05,0,0,0,1.72,8.94,8,8,0,0,0,1.14,1.94,25.26,25.26,0,0,1-1.13,3,16.45,16.45,0,0,1-1.68,2.9,7.75,7.75,0,0,1-1.34,1.58,2.51,2.51,0,0,1-1.76.75,2.25,2.25,0,0,1-1.74-.78,8.82,8.82,0,0,1-1.23-1.8,10.94,10.94,0,0,1-.77-4.11,21.08,21.08,0,0,0-.42-4.34,1.68,1.68,0,0,0-1.17-1.18,1.41,1.41,0,0,0-1.63.46c-.27.34-.81,1.11-1.61,2.27s-1.68,2.34-2.63,3.52a39.51,39.51,0,0,1-2.72,3.07c-1,1-1.36.92-1.48.84a1.16,1.16,0,0,1-.43-.89,6.07,6.07,0,0,1,.05-1.65c.1-.62.22-1.2.35-1.78a10.27,10.27,0,0,1,.39-1.37,16.32,16.32,0,0,1,3.23-5.87,1.83,1.83,0,0,0,.43-1.3,1.74,1.74,0,0,0-.51-1.11,1.6,1.6,0,0,0-1-.5,1.31,1.31,0,0,0-1.2.57,20,20,0,0,0-4.36,8.53c-.13.51-.26,1.1-.41,1.81a12.36,12.36,0,0,0-.2,2.11,8.73,8.73,0,0,0,.26,2.09,4.52,4.52,0,0,0,.93,1.79,3,3,0,0,0,3.13,1,6,6,0,0,0,2.84-1.57,19.8,19.8,0,0,0,2.94-3.2l2.08-2.82c.1,1,.2,1.89.3,2.8a8,8,0,0,0,1.35,3.55,7.78,7.78,0,0,0,2.62,2.45,5.59,5.59,0,0,0,2.79.73c.25,0,.49,0,.73,0a7.18,7.18,0,0,0,5-3.5,25.71,25.71,0,0,0,2.7-5.68,3.65,3.65,0,0,0,.82.34c.37.09.76.21,1.24.36a6.45,6.45,0,0,0,3.23-.38c-.19.76-.36,1.53-.48,2.33a13.74,13.74,0,0,0-.1,3.33,9.24,9.24,0,0,0,.78,3,5.51,5.51,0,0,0,3.34,3,4.63,4.63,0,0,0,1.33.22,4.28,4.28,0,0,0,3-1.31,11.6,11.6,0,0,0,2.93-5.29,51.63,51.63,0,0,0,1.22-5.62,19,19,0,0,0,3.75-.83c.51-.17,1-.36,1.51-.54a14.92,14.92,0,0,0,.86,6.07c1,2.65,2.84,4.11,5,4.11s4.26-1.67,5.65-4.81a4.2,4.2,0,0,0,.86.1h0a8.47,8.47,0,0,0,5.93-3c0,.11.08.22.13.33a4.76,4.76,0,0,0,3.69,2.65,7.56,7.56,0,0,0,4.12-.93,14,14,0,0,0,3.65-2.87l.46-.51a.47.47,0,0,1,.54-.14.47.47,0,0,1,.33.48v16.1a1.7,1.7,0,0,0,1.82,1.55,1.68,1.68,0,0,0,1.55-1.55l.33-75.38A1.61,1.61,0,0,0,589.13,150.26Zm-13,57.64a17.58,17.58,0,0,1,1.77-4.67,28.41,28.41,0,0,1,3-4.5,11.05,11.05,0,0,1,2.83-2.67A.49.49,0,0,1,584,196a.31.31,0,0,1,.25.13,3.25,3.25,0,0,1,.68,1.2,7.81,7.81,0,0,1,.56,2.53,15.76,15.76,0,0,1-1.11,4.67,17,17,0,0,1-2.25,4,9.22,9.22,0,0,1-2.88,2.57,2.15,2.15,0,0,1-2.57-.32c-.67-.6-.83-1.53-.54-2.88ZM543,209.39a7.59,7.59,0,0,0,1.84.83,4.44,4.44,0,0,0,1.33.31,31.56,31.56,0,0,1-1.41,5.23c-.22.5-.49,1.19-.75,1.85a3.12,3.12,0,0,1-1,1.5c-.54.44-1,.6-1.28.46a1.76,1.76,0,0,1-.83-.93,6.86,6.86,0,0,1-.48-1.66,13.09,13.09,0,0,1-.14-1.39,17.48,17.48,0,0,1,.44-3.82,22.77,22.77,0,0,1,1-3.23,12.46,12.46,0,0,0,1.25.85Zm3.45-2.1a8.37,8.37,0,0,1-1.82-.64,5,5,0,0,1-1.76-1.53,6.9,6.9,0,0,1-1-3.37,4.9,4.9,0,0,1,.93-3.32c.56-.74.92-.89,1.12-.89h.12a1.57,1.57,0,0,1,.94.88,7.78,7.78,0,0,1,.72,1.88,11.77,11.77,0,0,1,.39,1.66,23.21,23.21,0,0,1,.28,5.33Zm-15.6-7.77a19.67,19.67,0,0,1-.1,2.42,9.33,9.33,0,0,1-.11,1.14,2.1,2.1,0,0,0-.11-.45,25.83,25.83,0,0,1-.64-4,9.23,9.23,0,0,1,.52-3.76h0a2,2,0,0,0,.16.47,29.14,29.14,0,0,1,.25,4.18Zm30.7-1.51c.26-.64.59-.73.84-.73h0c1.71,0,2.51,4.69,2.51,7.86a26.76,26.76,0,0,1-.5,5.28c-2.58-3.45-3.86-10-2.88-12.41Zm-.84,18.59c-.82,0-1.5-.6-2-1.72-1.18-2.55-1.11-7.46.1-10.25.73,4,2.53,7.35,4.77,8.9C563.05,214.77,562.14,216.6,560.67,216.6Z"/><rect class="cls-2" x="356.05" y="75.6" width="268.28" height="194.79"/></g></g></svg>