<svg id="Layer_1" data-name="Layer 1" xmlns="http://www.w3.org/2000/svg" viewBox="0 0 525 525"><defs><style>.cls-1{fill:#ee509a;}.cls-11,.cls-2,.cls-8{fill:#2adfdf;}.cls-21,.cls-22,.cls-3{fill:#fff;}.cls-4{fill:none;}.cls-10,.cls-5,.cls-6,.cls-7,.cls-8,.cls-9{isolation:isolate;}.cls-6,.cls-7,.cls-8{font-size:64px;}.cls-15,.cls-6,.cls-9{fill:#f8e71c;}.cls-6,.cls-7{font-family:GoboldBoldItalic-Italic, Gobold Bold Italic;}.cls-10,.cls-21,.cls-22,.cls-23,.cls-6,.cls-7,.cls-8,.cls-9{font-style:italic;}.cls-10,.cls-12,.cls-7{fill:#7e3beb;}.cls-8{font-family:GoboldHollow-Italic, Gobold Hollow;}.cls-10,.cls-9{font-size:85px;}.cls-9{font-family:Gobold-Italic, Gobold;}.cls-10{font-family:GoboldCUTS-Italic, Gobold CUTS;}.cls-11{stroke:#000;}.cls-11,.cls-24{stroke-miterlimit:10;}.cls-13{fill:#3d1717;}.cls-14{fill:#c06539;}.cls-16{fill:#f6de5e;}.cls-17{fill:#cfaf31;}.cls-18{fill:#9b4b2c;}.cls-19{fill:#f2beba;}.cls-20{fill:#eb958e;}.cls-21{font-size:48px;}.cls-21,.cls-22,.cls-23{font-family:IM_FELL_English_Italic, IM FELL English;}.cls-22{font-size:18px;}.cls-23{font-size:24px;}.cls-23,.cls-24{fill:#960e65;}.cls-24{stroke:#960e65;}</style></defs><title>Artboard 1</title><g id="Image"><rect id="path-1" class="cls-1" x="-1.21" y="-6.32" width="534.76" height="535.55"/></g><rect class="cls-2" x="-8.41" y="408.13" width="39.48" height="74.31"/><g id="Layer_1-2" data-name="Layer 1-2"><path class="cls-3" d="M121,44.09A3.18,3.18,0,0,0,122.11,46a4,4,0,0,0,1.86.87,4.55,4.55,0,0,0,1.33,0,2.14,2.14,0,0,0,.64-.19,6.68,6.68,0,0,0,2.42-1.46,24.51,24.51,0,0,0,1.8-2c.48-.67,1-1.29,1.46-1.88l.12-.17c.09.13.1.2.2.33a5.36,5.36,0,0,0,1,.88l.08.06-.49.6-.6.77c-.25.27-.43.52-.68.79a4,4,0,0,0-.59.92,4.08,4.08,0,0,0-.34,1,1.87,1.87,0,0,0,.26,1.07,2.08,2.08,0,0,0,1.32,1.18,3.3,3.3,0,0,0,1.5.11l.22,0a3.59,3.59,0,0,0,1.63-.88,5.92,5.92,0,0,0,1.14-1.54,3.65,3.65,0,0,0,.42-1.85,3.33,3.33,0,0,0-.46-1.85,3.64,3.64,0,0,0-.8-.75,24.28,24.28,0,0,1,2-2,10.18,10.18,0,0,1,1.84-1.36c.13,1.61.25,3.15.45,4.74.5,4.59,1.08,9.25,1.81,13.87a.84.84,0,0,0,.32.54.79.79,0,0,0,1.08-.19.81.81,0,0,0,.11-.61c-.8-4.61-1.38-9.27-1.88-13.86s-.78-9.22-.92-13.87l1.14-.27,1.71-.44,2.92-.73a.66.66,0,0,0,.52-.39.83.83,0,0,0,.12-.62.7.7,0,0,0-.3-.46.83.83,0,0,0-.62-.12h0l-2.84.72-2.71.69c0-1-.07-2.14,0-3.26s0-2.15,0-3.42a.71.71,0,0,0-.26-.62,1.18,1.18,0,0,0-.56-.27.55.55,0,0,0-.57.17.63.63,0,0,0-.27.57c0,1.19,0,2.45,0,3.64s0,2.3.09,3.48a11.51,11.51,0,0,1-1.5.33,13.18,13.18,0,0,0-1.64.43.66.66,0,0,0-.52.39.81.81,0,0,0-.12.61.66.66,0,0,0,.3.47.88.88,0,0,0,.62.12h0l1.77-.46.22,0,1.14-.27c.11,2.36.24,4.79.43,7.2h0a14.58,14.58,0,0,0-2.77,2c-.84.74-1.59,1.54-2.35,2.33a2,2,0,0,1-.77-.6,1.83,1.83,0,0,1-.43-1.19.66.66,0,0,1,0-.3.46.46,0,0,0,0-.3,2.59,2.59,0,0,1,.22-.86,8.7,8.7,0,0,1,.72-1.39,6.53,6.53,0,0,1,.85-1.11.65.65,0,0,0,.19-.62,1.08,1.08,0,0,0-.31-.47.7.7,0,0,0-.55-.2.59.59,0,0,0-.61.33A10.53,10.53,0,0,0,131.9,37a6.83,6.83,0,0,0-.36,1.33.07.07,0,0,1-.06.08,5.84,5.84,0,0,1-.68,1.23L130,40.81l-1.21,1.61a13.84,13.84,0,0,1-1.37,1.5A6,6,0,0,1,125.72,45a2.39,2.39,0,0,1-2,0,1.42,1.42,0,0,1-.76-.54,3.94,3.94,0,0,1-.36-.82,4.51,4.51,0,0,1,0-1c0-.3,0-.53.08-.83a2.5,2.5,0,0,0,2.45-.42A5.28,5.28,0,0,0,126.83,39a8.61,8.61,0,0,0,.48-1.94,3.65,3.65,0,0,0-.2-2A1.55,1.55,0,0,0,126,34a1.89,1.89,0,0,0-1.52.26,6.06,6.06,0,0,0-1.6,1.47,14.66,14.66,0,0,0-1.08,1.89c-.25.71-.5,1.43-.67,2.12s-.21,1.38-.31,2.06A12.44,12.44,0,0,0,121,44.09Zm11.22,2.58a1.73,1.73,0,0,1,.34-1c.23-.41.54-.76.83-1.19s.62-.7.74-.87a.8.8,0,0,0,.3-.42l.18-.25a1.26,1.26,0,0,1,.45.44,1,1,0,0,1,.21.78,5.21,5.21,0,0,1-.2,1,2.54,2.54,0,0,1-.5,1,6.34,6.34,0,0,1-.76.72,1.39,1.39,0,0,1-.93.24c-.68-.11-.72-.32-.66-.41Zm-9.38-6.54a9.34,9.34,0,0,1,.69-2.05,5.63,5.63,0,0,1,.39-.73,4.08,4.08,0,0,1,.65-.93,1.73,1.73,0,0,1,.72-.57l.15,0a.55.55,0,0,1,.2.34,2.52,2.52,0,0,1,.06.73,5.6,5.6,0,0,1-.21.93,3.28,3.28,0,0,1-.37.88l-.32.72a2.28,2.28,0,0,1-1,.91A1.22,1.22,0,0,1,122.79,40.13Z"/><path class="cls-3" d="M138,62.89a.79.79,0,0,0-1,.25h0l-3.38,5.78h0l-.33.66a3.14,3.14,0,0,1-.4.66l-.12.17a.56.56,0,0,1-.61.33.25.25,0,0,1-.26-.18,1.67,1.67,0,0,1,0-.59l0-.14h0V68.12l-.06-.81a.5.5,0,0,0-.32-.54.88.88,0,0,0-1,.18,1,1,0,0,0-.26.64c0,.37,0,.66,0,1s0,.75,0,1.19a2.62,2.62,0,0,0,.06.74c-.22,2.19-.6,4.7-1.92,5.23a.72.72,0,0,1-.53-.06c-.88-.37-1.85-2.13-2.83-4.78,1.39-6.11,2.82-14.15,1.44-17.84-.7-1.89-2-2.78-3.23-2.34-1,.4-1.72,1.63-2.1,3.71-.74,4.73.42,11.43,2.09,16.34-.1,2-.77,2.88-1.76,3.12s-2.29-1.6-3.44-4.82c1.39-6.11,2.82-14.15,1.44-17.84-.7-1.89-2-2.78-3.23-2.34-3.42,1.26-2.53,12-.32,19.13l-.06.09a2.23,2.23,0,0,1-1.22.66,4.62,4.62,0,0,1-1.34,0h0a3.71,3.71,0,0,0-.71-1.14,1.25,1.25,0,0,0-1.07-.56.7.7,0,0,0-.67.41,1.47,1.47,0,0,0-.12,1,2,2,0,0,0,.56,1.09,7.32,7.32,0,0,0,.87.74.07.07,0,0,0,.08.06l.2,1.15a5.8,5.8,0,0,1,.06,1.18c0,.45,0,1,0,1.41a12.89,12.89,0,0,1-.24,1.6,4.06,4.06,0,0,1-.52,1.28.93.93,0,0,1-.89.45,1.26,1.26,0,0,1-.91-.51,4.57,4.57,0,0,1-.65-1.23,11.22,11.22,0,0,1-.41-1.48,9.25,9.25,0,0,1-.16-1.39,6.47,6.47,0,0,1-.07-1.25,7.56,7.56,0,0,1,.06-1.34c.07-.46.15-.85.23-1.23a2,2,0,0,1,.5-1h0c0-.16.17-.33.22-.48a.82.82,0,0,0,0-.6.91.91,0,0,0-.39-.53.63.63,0,0,0-.52,0,1.57,1.57,0,0,0-.81.88c-.15.4-.31.79-.45,1.26a11.24,11.24,0,0,0-.3,1.69l-2.74.47c0-.14,0-.3,0-.44a1.43,1.43,0,0,1,0-.6c.06-2.24.11-4.55.16-6.79s0-4.46.16-6.78a.72.72,0,0,0-.25-.62.74.74,0,0,0-.56-.2.76.76,0,0,0-.57.1.55.55,0,0,0-.28.56l-.37,14.1c0,.14,0,.37,0,.52v.44a103,103,0,0,0-10.42,2.4c0-2.38.1-5,.16-7.67s.12-5.29.11-7.89a.75.75,0,0,0-.25-.63,1.51,1.51,0,0,0-.57-.27.84.84,0,0,0-.58.1.55.55,0,0,0-.27.57c-.1,2.84-.14,5.59-.15,8.12s-.12,5.29-.18,8A136.87,136.87,0,0,0,76,78.83a.55.55,0,0,0-.44.45.84.84,0,0,0,.1.58,1.2,1.2,0,0,0,.38.45.69.69,0,0,0,.67,0c2.35-1,4.73-1.85,7-2.7s4.56-1.53,6.9-2.16c-.06,3.06-.07,6-.16,8.94l-.26,9.17a.74.74,0,0,0,.25.63,1.26,1.26,0,0,0,.57.27l.22,0c.14,0,.2-.11.34-.13a.84.84,0,0,0,.28-.57c.11-3.21.16-6.34.22-9.39s.13-6.11.26-9.25l5.18-1.35c1.71-.44,3.43-.81,5.23-1.12-.07,1.72-.08,3.42-.08,5.13s.1,3.55.25,5.3a.63.63,0,0,0,.33.61.79.79,0,0,0,1.08-.18.64.64,0,0,0,.19-.63c-.15-1.75-.24-3.52-.25-5.3s0-3.49.06-5.21l2.82-.49a16,16,0,0,0,.33,2.77,10.28,10.28,0,0,0,.4,1.49,8.71,8.71,0,0,0,.61,1.38,4.19,4.19,0,0,0,.86,1.11,2.41,2.41,0,0,0,1.15.62,1.52,1.52,0,0,0,.82,0,1.13,1.13,0,0,0,.49-.16,2.73,2.73,0,0,0,1-.83,4.17,4.17,0,0,0,.59-1.29c.14-.47.27-1,.4-1.56a17.61,17.61,0,0,0-.07-4.66,6.45,6.45,0,0,0,1.17-.13,2.49,2.49,0,0,0,1.18-.5,1.92,1.92,0,0,0,.32-.28c1.5,4,3.33,6,5.13,5.64a3.29,3.29,0,0,0,2.7-2,9.43,9.43,0,0,0,2.28,3.31,2.46,2.46,0,0,0,1.95.56,1.41,1.41,0,0,0,.49-.16c1.45-.63,2.18-2.46,2.49-4.52.15,0,.24.11.4.16a1.81,1.81,0,0,0,1.34-.39,4.44,4.44,0,0,0,1.47-1.81c.33-.65.66-1.3,1.07-2l.06-.08.69-1.16a3.72,3.72,0,0,1,.4-.66c-.07,2.16-.14,4.33-.08,6.39.1,2.29.21,4.65.38,6.92s.43,4.6.69,6.93c.09,1,.14,1.24.16,1.38a5.86,5.86,0,0,1,.08.88.84.84,0,0,0,.32.54A.88.88,0,0,0,139,90h-.07a.82.82,0,0,0,.66-.93c-.45-3.86-.54-5.25-.72-8.41,0-.59-.06-1.18-.1-1.84-.32-4.85-.37-9.89-.37-15A.82.82,0,0,0,138,62.89ZM123.63,52.24l.14,0c.72-.12,1.26,1.27,1.37,1.47,1.22,3.2,0,10.48-.94,14.72-2.36-8.06-2.25-15.58-.57-16.16Zm-6.86-1.86c.72-.13,1.25,1.19,1.37,1.47,1.23,3.2,0,10.48-.94,14.71-2.27-8-2.17-15.51-.49-16.1Z"/><path class="cls-3" d="M93.33,51.33a5.11,5.11,0,0,0,1.73,1.85,3,3,0,0,0,2.3.42,5.58,5.58,0,0,0,3.18-1.82,14.43,14.43,0,0,0,2.35-3.52,24.21,24.21,0,0,0,1.73-4.61c.46-1.64,1-3.43,1.34-5.13s.66-3.46.89-5.13V33l.78,3.2a41.7,41.7,0,0,0,2,5.67,17.4,17.4,0,0,0,2.52,4.24,3.49,3.49,0,0,0,3.37,1.49A3.55,3.55,0,0,0,118,46a10.55,10.55,0,0,0,1.24-3.11,24.42,24.42,0,0,0,.48-4.09c0-1.5.06-3.06,0-4.6s-.25-3.15-.44-4.67-.44-3-.67-4.27c-.17-1-.31-1.8-.52-2.58s-.31-1.36-.48-1.92a1,1,0,0,0-.57-.72.87.87,0,0,0-.74.05.91.91,0,0,0-.4,1.11c.16.49.26,1.07.47,1.85s.35,1.57.5,2.44c.22,1.3.46,2.67.63,4s.29,3,.4,4.46a42.53,42.53,0,0,1,.09,4.36,20.85,20.85,0,0,1-.4,3.71,8.07,8.07,0,0,1-1,2.61,1.9,1.9,0,0,1-1.31,1c-.65.11-1.3-.22-2-1.07a16.44,16.44,0,0,1-2.14-3.79,34.39,34.39,0,0,1-1.8-5.26c-.49-1.92-1-3.77-1.25-5.5l-.38-2.16a13.8,13.8,0,0,1-.17-1.83.94.94,0,0,0-.82-.89h-.07l-.15,0a1,1,0,0,0-.42.14,1.13,1.13,0,0,0-.33.65c0,1-.19,2.34-.35,4s-.44,3.42-.72,5.25S104,39,103.47,40.88A26.54,26.54,0,0,1,101.76,46a18.46,18.46,0,0,1-2.22,3.88,4.35,4.35,0,0,1-2.61,1.64,1.35,1.35,0,0,1-1.09-.26A4.36,4.36,0,0,1,94.73,50a13,13,0,0,1-1-2.35A22.83,22.83,0,0,1,93,44.48a51.12,51.12,0,0,1-.65-6.71c-.06-2.52,0-5,.2-7.46a64.88,64.88,0,0,1,1-7.31,32,32,0,0,1,1.85-6,1,1,0,0,0-.21-1.22.77.77,0,0,0-.71-.25h0a1.09,1.09,0,0,0-.6.4l-.06.09a30.73,30.73,0,0,0-2,6.43A60.81,60.81,0,0,0,90.66,30a66.86,66.86,0,0,0-.21,7.76,57.65,57.65,0,0,0,.64,7.09,29.35,29.35,0,0,0,.84,3.57A27.22,27.22,0,0,0,93.33,51.33Z"/><path class="cls-3" d="M175.45,31.23a.9.9,0,0,0-1.16.2h0a.8.8,0,0,0-.11.61l3.31,20a.24.24,0,0,1,0,.23c-.06.08-.13.1-.29.05a2.71,2.71,0,0,0-1.51.26c-.07,0-.13.1-.21.11A7.57,7.57,0,0,0,174,54.57a18.36,18.36,0,0,0-1.22,2.81,13.21,13.21,0,0,0-.54,2.91c0,.15,0,.3,0,.45A3.54,3.54,0,0,1,169.89,63a11.49,11.49,0,0,0-.24-3.52c-.32-1.88-1.44-4.88-3.53-4.51-.86.15-1.4.91-1.5,2a6.24,6.24,0,0,0,.06,1.62h0a.53.53,0,0,0-.33.21,4.86,4.86,0,0,0-.82,2.14c-.34.21-.74.43-1.14.72a5.56,5.56,0,0,1-1.52.64,7.17,7.17,0,0,0-.45-2.15,8.48,8.48,0,0,0-.9-2.22,3.52,3.52,0,0,0-1.36-1.4,1.78,1.78,0,0,0-1.91.11,3.24,3.24,0,0,0-.88.89,3.85,3.85,0,0,0-.39,1.19A7.81,7.81,0,0,0,154.9,60l.2,1.15a5.71,5.71,0,0,0,.48,1c-.3.42-.61.77-1,1.2a1.57,1.57,0,0,1-1.33.46c-.16-.05-.39-.08-.55-.13,0-.45,0-.89.05-1.42-.05-.29-.06-.81-.14-1.68a15.16,15.16,0,0,0-.44-2.53,7,7,0,0,0-.88-2.07,1.05,1.05,0,0,0-1.48-.41h0l-.06.08a1.85,1.85,0,0,0-.68.79,2.64,2.64,0,0,0-.26,1.08,9.67,9.67,0,0,0,0,2,8.89,8.89,0,0,0,1.62,4.18,3.93,3.93,0,0,0,.74.83,9.12,9.12,0,0,1-.33,1.54,14,14,0,0,1-.54,1.58,8.43,8.43,0,0,1-.52.91,1.19,1.19,0,0,1-.8.51,1.23,1.23,0,0,1-.93-.21,5.73,5.73,0,0,1-.72-.77,4.78,4.78,0,0,1-.71-2,10,10,0,0,0-.58-2,.79.79,0,0,0-.68-.48.68.68,0,0,0-.75.35c-.12.17-.26.64-.61,1.22a13.46,13.46,0,0,1-1,2L142,69c-.42.6-.57.55-.65.56a.55.55,0,0,1-.29-.39l-.14-.8c0-.3,0-.59,0-.89l.1-.68a7.69,7.69,0,0,1,1.09-3.16,1,1,0,0,0,.1-.69,1,1,0,0,0-.31-.54.66.66,0,0,0-.55-.12.63.63,0,0,0-.52.38,10.15,10.15,0,0,0-1.37,4.55q0,.35-.06.9a5,5,0,0,0,.1,1,4.18,4.18,0,0,0,.32,1,1.92,1.92,0,0,0,.58.79,1.53,1.53,0,0,0,1.6.25,2.74,2.74,0,0,0,1.23-1,10.31,10.31,0,0,0,1.17-1.84l.77-1.54c.16.49.24.92.38,1.34a3.67,3.67,0,0,0,.95,1.62,5.3,5.3,0,0,0,1.51,1,3,3,0,0,0,1.43.12l.36-.06a3.4,3.4,0,0,0,2.15-2.16,10.66,10.66,0,0,0,.83-3,1,1,0,0,0,.45.07c.23,0,.38,0,.61,0a3,3,0,0,0,1.54-.49c0,.38,0,.75,0,1.19a11.38,11.38,0,0,0,.21,1.67,4.67,4.67,0,0,0,.61,1.38,2.6,2.6,0,0,0,1.91,1.16,2.4,2.4,0,0,0,.66,0,1.84,1.84,0,0,0,1.33-.9,5.8,5.8,0,0,0,1-2.85c.07-.9.12-1.87.11-2.84a7.15,7.15,0,0,0,1.72-.74,2.94,2.94,0,0,0,.67-.41,7.16,7.16,0,0,0,.95,2.88,2.73,2.73,0,0,0,2.8,1.59c1.08-.19,1.95-1.15,2.33-2.85.14,0,.3,0,.44,0h0a4.05,4.05,0,0,0,2.63-1.94c0,.08.09.06.1.13a2.28,2.28,0,0,0,2,1,4,4,0,0,0,1.94-.78,8.88,8.88,0,0,0,1.57-1.68l.17-.26c.06-.08.14-.1.28-.12s.17.12.18.19l1.36,7.86a.81.81,0,0,0,1,.57.74.74,0,0,0,.6-.85L175.7,31.85A.45.45,0,0,0,175.45,31.23ZM174,60.36a7,7,0,0,1,.47-2.45,14.75,14.75,0,0,1,1.07-2.41A5.92,5.92,0,0,1,176.64,54l.14,0c.08,0,.08,0,.16,0a1.55,1.55,0,0,1,.46.52,5.42,5.42,0,0,1,.5,1.17,6.86,6.86,0,0,1-.17,2.41,8.94,8.94,0,0,1-.75,2.13,4.43,4.43,0,0,1-1.16,1.47,1.09,1.09,0,0,1-1.25.06c-.48-.21-.64-.7-.61-1.38Zm-16,3.52.94.29a2.23,2.23,0,0,0,.68,0,10.26,10.26,0,0,1-.29,2.65c0,.22-.11.61-.19,1a1.78,1.78,0,0,1-.38.81c-.25.27-.46.38-.62.33a.8.8,0,0,1-.5-.36,1.58,1.58,0,0,1-.36-.75c0-.22-.14-.42-.18-.64a8.68,8.68,0,0,1-.11-1.91,14,14,0,0,1,.23-1.67,6.27,6.27,0,0,0,.78.23Zm1.56-1.31a4.34,4.34,0,0,1-.92-.13,2.28,2.28,0,0,1-1-.57,3.58,3.58,0,0,1-.79-1.58,2.48,2.48,0,0,1,.16-1.66c.23-.41.36-.5.5-.53h.07a.64.64,0,0,1,.51.36,3.52,3.52,0,0,1,.52.87c.13.28.24.48.36.76.21.78.43,1.63.58,2.49Zm-8.29-2.42a6.45,6.45,0,0,1,.13,1.17,1.66,1.66,0,0,1,0,.59.25.25,0,0,0-.11-.21,9.5,9.5,0,0,1-.62-1.89,3.78,3.78,0,0,1,0-1.86h0c0,.08.09.14.1.21a9.35,9.35,0,0,1,.5,2Zm14.85-3.39c.1-.31.23-.41.37-.44h0c.87-.15,1.63,2.1,1.89,3.61a15.4,15.4,0,0,1,.23,2.63c-1.58-1.43-2.78-4.49-2.49-5.8Zm1.15,9.16c-.44.07-.78-.17-1.16-.69a7,7,0,0,1-.79-5,6.89,6.89,0,0,0,3.05,3.93c-.1.68-.38,1.62-1.1,1.75Z"/><rect class="cls-4" x="62.86" y="2.47" width="132.63" height="96.27" transform="translate(-6.75 22.8) rotate(-9.83)"/></g><g id="carnaval"><g class="cls-5"><text class="cls-6" transform="matrix(0.98, -0.17, 0.17, 0.98, 200.42, 253.13)">carnaval</text></g><g class="cls-5"><text class="cls-6" transform="matrix(0.98, -0.17, 0.17, 0.98, 200.42, 253.13)">carnaval</text></g></g><g id="carnaval-2" data-name="carnaval"><g class="cls-5"><text class="cls-7" transform="matrix(0.98, -0.17, 0.17, 0.98, 198.3, 260.55)">carnaval</text></g><g class="cls-5"><text class="cls-8" transform="matrix(0.98, -0.17, 0.17, 0.98, 200.67, 260.55)">carnaval</text></g></g><g id="Halloween"><g class="cls-5"><text class="cls-9" transform="matrix(0.98, -0.17, 0.17, 0.98, 77.59, 204.32)">Halloween</text></g></g><g id="Halloween-2" data-name="Halloween"><g class="cls-5"><text class="cls-10" transform="matrix(0.98, -0.17, 0.17, 0.98, 80.32, 207.27)">Halloween</text></g></g><path id="Fill-4" class="cls-11" d="M-31.72,599.3c-12.77-10.23-16.37-31.69-8-47.95L29.43,416.59c8.35-16.26,25.46-21.13,38.23-10.91s16.36,31.69,8,48L6.51,588.39C-1.84,604.66-19,609.53-31.72,599.3"/><path id="Fill-5" class="cls-12" d="M195.32,308.52a11.61,11.61,0,0,1,6.38-14L191,297.78A11.58,11.58,0,0,1,183.32,276a11.58,11.58,0,0,1-6-22.36L188,250.3a11.56,11.56,0,0,1-12.43-16.51,77.51,77.51,0,0,0-10-6.3C128.07,207.71,70.76,216.49,51,254L92.26,494.07l19,1.53,86.44-163.9a73.55,73.55,0,0,0,6-15.26,11.81,11.81,0,0,1-8.37-7.92"/><path id="Fill-6" class="cls-13" d="M51.49,253.47,93.27,493l18.22,1.47L197.69,331a73.63,73.63,0,0,0,5.82-14.46,12.31,12.31,0,0,1-8.28-8.1,12.18,12.18,0,0,1,3.13-12.37l-6.71,2A12.33,12.33,0,0,1,176.26,290a12,12,0,0,1,4.5-13.46,12.53,12.53,0,0,1-11.4-8.61,12.15,12.15,0,0,1,.82-9.28,12,12,0,0,1,7.2-5.93l6.71-2a12.42,12.42,0,0,1-9.66-8.49,11.91,11.91,0,0,1,.5-8.44,70.16,70.16,0,0,0-9.63-6C129.22,208.54,71.63,215.71,51.49,253.47Zm41,240.61a.79.79,0,0,1-.35-.41L50.23,253.49c0-.14,0-.22.1-.4,20.34-38.57,79-46,115.76-26.57a80.89,80.89,0,0,1,10.2,6.39.57.57,0,0,1,.16.77,10.69,10.69,0,0,0-.62,8,11.11,11.11,0,0,0,12.49,7.61.64.64,0,0,1,.75.51.74.74,0,0,1-.42.8L178,253.93a10.79,10.79,0,0,0-6.47,5.41,11,11,0,0,0,12.09,15.87.74.74,0,0,1,.8.42.61.61,0,0,1-.38.71,11,11,0,0,0,7.38,20.73l10.68-3.3a.74.74,0,0,1,.79.42.73.73,0,0,1-.33.84,10.92,10.92,0,0,0,2,20.62,1,1,0,0,1,.39.32,1.34,1.34,0,0,1,.08.5A75.48,75.48,0,0,1,199,331.81L112.58,495.63a.53.53,0,0,1-.63.34L92.88,494.4A1.19,1.19,0,0,0,92.49,494.08Z"/><path id="Fill-7" class="cls-14" d="M196,308.67a11.63,11.63,0,0,1,6.34-14l-10.63,3.22a12.2,12.2,0,0,1-14.59-7.7,11.56,11.56,0,0,1,6.79-14.16c-.13,0-.22,0-.36,0a11.84,11.84,0,0,1-13.33-7.94,11.48,11.48,0,0,1,6.34-14c.45-.21.85-.34,1.31-.55l10.62-3.22h0c-5.7.95-10.81-2.65-13.2-8-1.75-4,.63-8.48.63-8.48l-27.07,4.38a11.56,11.56,0,0,0,5.6,22.4L143.85,264a11.54,11.54,0,0,0-7.6,14.42,11.7,11.7,0,0,0,13.7,7.9,11.58,11.58,0,0,0-6.8,14.17,11.77,11.77,0,0,0,14.6,7.69l10.63-3.21A11.48,11.48,0,0,0,162,318.89a11.77,11.77,0,0,0,14.59,7.7l27.86-10.18c0,.09-6.63-1.57-8.46-7.74"/><path id="Fill-8" class="cls-2" d="M158.77,314.57a11.5,11.5,0,0,1,6.34-13.95l-10.67,3.3a11.58,11.58,0,0,1-7.71-21.82,11.58,11.58,0,0,1-6-22.36l10.67-3.3A11.57,11.57,0,0,1,146,234L158.59,232a95.29,95.29,0,0,0-14.71-10.25,77.23,77.23,0,0,0-104,32.19l-86.3,163.64L89.77,489.37l86.3-163.64c.84-1.6,1.63-3.32,2.39-5l-5.14,1.59A11.88,11.88,0,0,1,158.77,314.57Z"/><path id="Fill-9" class="cls-13" d="M159,234.1h0c-2.11-1.56-4.27-3-6.39-4.38a.57.57,0,0,1-.25-.81c.14-.27.58-.26.85-.12,2.21,1.39,4.37,2.87,6.39,4.39.31.27.39.54.16.76a.55.55,0,0,1-.76.16"/><path id="Fill-10" class="cls-13" d="M119.64,316.54c-4.69-2.47-14.6,6.67-21.59,19.93s-8.94,26.6-4.26,29.08,14.6-6.67,21.59-19.93S124.32,319,119.64,316.54ZM93.19,366.7c-5.49-2.9-3.81-16.37,3.79-30.79s17.78-23.41,23.26-20.52,3.81,16.37-3.8,30.79S98.67,369.59,93.19,366.7Z"/><path id="Fill-11" class="cls-13" d="M86,298.82c-4.69-2.48-14.59,6.66-21.59,19.93s-8.94,26.6-4.25,29.07,14.59-6.66,21.59-19.93S90.71,301.29,86,298.82ZM59.57,349c-5.48-2.89-3.8-16.36,3.8-30.78s17.78-23.41,23.26-20.52,3.81,16.36-3.8,30.78S65.06,351.86,59.57,349Z"/><path id="Fill-12" class="cls-15" d="M92.06,365c-5.93-3.12-4.73-17,2.59-30.85s18.07-22.69,24-19.57l1.68.89L93.74,365.86,92.06,365"/><path id="Fill-13" class="cls-15" d="M58.45,347.25c-5.93-3.13-4.73-17,2.59-30.86s18.07-22.69,24-19.56l1.68.88L60.13,348.13l-1.68-.88"/><path id="Fill-14" class="cls-13" d="M102.83,322l-.18-.09a.58.58,0,0,1-.11-.86,11,11,0,0,1,1.5-1.35.75.75,0,0,1,1,.07c.3.27.34.63,0,.8l-1.37,1.31a.63.63,0,0,1-.85.12"/><path id="Fill-15" class="cls-13" d="M99.44,325.9h0c-.22-.23-.3-.5-.08-.72s.37-.48.51-.74a.39.39,0,0,1,.63-.13.51.51,0,0,1,0,.68c-.14.26-.37.48-.51.74a.42.42,0,0,1-.54.17"/><path id="Fill-16" class="cls-13" d="M89.51,346.67a.56.56,0,0,1-.3-.73c.29-1.2.72-2.44,1.15-3.68a.75.75,0,0,1,.77-.39c.27.14.53.5.39.77-.43,1.24-.86,2.49-1.16,3.69,0,.31-.37.48-.77.38l-.08,0"/><path id="Fill-17" class="cls-13" d="M93.54,366.88,91.86,366c-3.8-2-5.11-7.67-3.6-15.69a.63.63,0,0,1,1.25.2c-1.36,7.31-.23,12.66,3,14.34l1.06.56,25.89-49.1-1.06-.56c-2.57-1.35-6.31-.27-10.54,3a.6.6,0,1,1-.74-1c4.64-3.66,8.83-4.73,11.92-3.1l1.68.89a.64.64,0,0,1,.25.81L94.49,366.59c-.33.4-.6.48-.95.29"/><path id="Fill-18" class="cls-13" d="M69.64,305.66l-.18-.09a.62.62,0,0,1,0-.89,21,21,0,0,1,2-2,.67.67,0,0,1,.89,0,.68.68,0,0,1,0,.9c-.68.65-1.28,1.35-2,2a.79.79,0,0,1-.71.07"/><path id="Fill-19" class="cls-13" d="M67.18,307.76h0a.57.57,0,0,1,0-.81l.46-.66c.14-.26.55-.39.68-.21a.61.61,0,0,1-.07.76l-.41.57c-.19.36-.46.44-.63.35"/><path id="Fill-20" class="cls-13" d="M57,325c-.17-.09-.26-.36-.07-.71l.24-.67c.18-.35.41-.57.68-.43a.56.56,0,0,1,.16.76l-.24.67c-.14.26-.5.52-.77.38h0"/><path id="Fill-21" class="cls-13" d="M55.84,331.18a.65.65,0,0,1-.29-.73c.29-1.2.63-2.49,1.06-3.73a.59.59,0,0,1,.77-.39c.31.06.44.46.39.77-.43,1.25-.73,2.45-1,3.65a.69.69,0,0,1-.73.52l-.18-.09"/><path id="Fill-22" class="cls-13" d="M59.93,349.16l-1.68-.89c-3.63-1.91-5.12-7.22-4.12-14.49a.69.69,0,0,1,.73-.52.68.68,0,0,1,.52.72c-1,6.74.38,11.51,3.47,13.14l1.15.61,25.89-49.09L84.74,298c-2.39-1.26-5.8-.57-9.57,2.07a.76.76,0,0,1-.94-.15.67.67,0,0,1,.11-.85c4.22-2.86,8.13-3.63,11-2.13l1.68.88a.57.57,0,0,1,.25.81L60.79,348.82c-.24.44-.51.52-.86.34"/><path id="Fill-23" class="cls-13" d="M119.64,316.54c-4.69-2.47-14.6,6.67-21.59,19.93s-8.94,26.6-4.26,29.08,14.6-6.67,21.59-19.93S124.32,319,119.64,316.54ZM93.19,366.7c-5.49-2.9-3.81-16.37,3.79-30.79s17.78-23.41,23.26-20.52,3.81,16.37-3.8,30.79S98.67,369.59,93.19,366.7Z"/><path id="Fill-24" class="cls-13" d="M86,298.82c-4.69-2.48-14.59,6.66-21.59,19.93s-8.94,26.6-4.25,29.07,14.59-6.66,21.59-19.93S90.71,301.29,86,298.82ZM59.57,349c-5.48-2.89-3.8-16.36,3.8-30.78s17.78-23.41,23.26-20.52,3.81,16.36-3.8,30.78S65.06,351.86,59.57,349Z"/><path id="Fill-25" class="cls-13" d="M116.68,345.73c-7.33,13.89-17.45,23-22.58,20.31s-3.32-16.22,4-30.1,17.45-23,22.58-20.31,3.32,16.22-4,30.1"/><path id="Fill-26" class="cls-13" d="M83.07,328c-7.33,13.89-17.46,23-22.59,20.31s-3.36-16.13,4-30.11,17.45-23,22.58-20.31,3.32,16.22-4,30.11"/><path id="Fill-27" class="cls-13" d="M93,494.36-43.82,422.2a.65.65,0,0,1-.25-.82l86.2-163.46c20-37.86,67.11-52.22,105.15-32.17a.65.65,0,0,1,.25.81.64.64,0,0,1-.81.26c-37.42-19.74-83.8-5.53-103.44,31.71L-42.64,421.46l135.78,71.6,19.26-36.53a.65.65,0,0,1,.81-.25.64.64,0,0,1,.25.81L93.92,494.15a.67.67,0,0,1-.9.21"/><path id="Fill-28" class="cls-13" d="M198.41,295.57l-6.75,2.09c-.41.12-.9.2-1.44.37l-20.49,6.27a10.68,10.68,0,0,0-6.42,5.32,10.55,10.55,0,0,0-.76,8.3,11.11,11.11,0,0,0,13.8,7.28l26.19-9.59a12.33,12.33,0,0,1-7.26-7.67A12.1,12.1,0,0,1,198.41,295.57Zm-31.15,29.92a12.4,12.4,0,0,1-6-7.24,12.22,12.22,0,0,1,.83-9.29,12.05,12.05,0,0,1,7.2-5.93l20.62-6.3a11.69,11.69,0,0,0,1.39-.29l10.68-3.3a.74.74,0,0,1,.79.42.73.73,0,0,1-.33.84,11.13,11.13,0,0,0-6,13.25c1.71,5.76,7.94,7.46,8,7.37.31.05.39.32.47.59a.61.61,0,0,1-.41.58l-27.87,10.17A12.29,12.29,0,0,1,167.26,325.49Z"/><path id="Fill-29" class="cls-13" d="M179.43,277.76l-28.68,8.73a10.81,10.81,0,0,0-7.19,13.62,11.12,11.12,0,0,0,13.72,7.23L186,298.61a12.33,12.33,0,0,1-9.79-8.44A11.91,11.91,0,0,1,179.43,277.76Zm-31,29.88a12.27,12.27,0,0,1-6-7.11,12,12,0,0,1,8-15.13l33-10a.6.6,0,0,1,.71.37.62.62,0,0,1-.37.71,10.81,10.81,0,0,0-6.33,13.28A11.11,11.11,0,0,0,191.09,297l10.63-3.21a.73.73,0,0,1,.79.42.66.66,0,0,1,0,.44.49.49,0,0,1-.36.26l-44.4,13.45A11.47,11.47,0,0,1,148.41,307.64Z"/><path id="Fill-30" class="cls-13" d="M177.22,253.87a.52.52,0,0,1-.26-.37.74.74,0,0,1,.42-.79l10.54-3.26a.65.65,0,0,1,.44,0,.49.49,0,0,1,.26.36.61.61,0,0,1-.37.71h0l-10.54,3.26a.38.38,0,0,1-.49.08"/><path id="Fill-31" class="cls-13" d="M172.57,255.82,144,264.73a11.19,11.19,0,0,0-6.42,5.32,10.91,10.91,0,0,0,4.55,14.73,10.76,10.76,0,0,0,8.31.76L179,276.63a11.94,11.94,0,0,1-9.71-8.4,12.12,12.12,0,0,1,.92-9.24A13.44,13.44,0,0,1,172.57,255.82Zm-31,30.11a12.13,12.13,0,0,1-5-16.44,12.56,12.56,0,0,1,7.11-6L177.24,253a.77.77,0,0,1,.8.42.84.84,0,0,1,0,.45.52.52,0,0,1-.37.26,11.15,11.15,0,0,0-6.42,5.32,10.55,10.55,0,0,0-.76,8.3,10.8,10.8,0,0,0,12.72,7.39.57.57,0,0,1,.34,1.08l-.32.17-32.43,10.48A11.89,11.89,0,0,1,141.55,285.93Z"/><path id="Fill-32" class="cls-13" d="M174.56,234.26l-25.86,4.45a10.91,10.91,0,0,0-6.38,5.46,10.6,10.6,0,0,0-.81,8.39,10.74,10.74,0,0,0,5.32,6.42,10.55,10.55,0,0,0,8.3.76l20.63-6.53c.45-.21.86-.34,1.31-.55l6.8-2.18a13.58,13.58,0,0,1-9.62-8.35C173,239.19,173.89,236,174.56,234.26Zm-28.34,25.87a12,12,0,0,1-5.93-7.2,12.33,12.33,0,0,1,8.12-15.39l27-4.74a.82.82,0,0,1,.66.24.59.59,0,0,1,0,.67s-2.24,4.47-.71,8c2.39,5.55,7.38,8.52,12.41,7.55a.66.66,0,0,1,.75.51.77.77,0,0,1-.42.8L177.4,254a9.11,9.11,0,0,0-1.27.47l-20.67,6.62A11.8,11.8,0,0,1,146.22,260.13Z"/><path id="Fill-33" class="cls-13" d="M65.14,381.3c8.58,4.52,15.82,10.72,20.07,17,3.34,5,4.31,9.62,2.77,12.54s-5.87,4.7-11.91,4.79c-7.52.11-16.81-2.42-25.39-6.94S34.85,398,30.6,391.69c-3.33-5-4.31-9.62-2.77-12.54s5.87-4.71,11.92-4.8c7.6-.06,16.81,2.42,25.39,6.95"/><path id="Fill-34" class="cls-15" d="M64.4,394.48a4.57,4.57,0,0,1-1.83-6.17l2.71-5.13a4.5,4.5,0,1,1,8,4.2l-2.71,5.13a4.51,4.51,0,0,1-6.13,2"/><path id="Fill-35" class="cls-15" d="M53.79,388.88A4.57,4.57,0,0,1,52,382.71l2.7-5.13a4.5,4.5,0,1,1,8,4.2l-2.7,5.13a4.51,4.51,0,0,1-6.13,2"/><path id="Fill-36" class="cls-15" d="M43.18,383.28a4.56,4.56,0,0,1-1.84-6.17L44.05,372a4.5,4.5,0,1,1,8,4.2l-2.71,5.13a4.49,4.49,0,0,1-6.12,2"/><path id="Fill-37" class="cls-16" d="M33,376.8a4.51,4.51,0,0,1-1.84-6.17l.89-1.68a4.58,4.58,0,0,1,6.13-2A4.51,4.51,0,0,1,40,373.15l-.93,1.77A4.48,4.48,0,0,1,33,376.8"/><path id="Fill-38" class="cls-15" d="M75,400.08a4.58,4.58,0,0,1-1.84-6.17l2.71-5.13a4.5,4.5,0,1,1,8,4.2l-2.7,5.13a4.52,4.52,0,0,1-6.13,2"/><path id="Fill-39" class="cls-16" d="M86.1,404.79a4.5,4.5,0,0,1-1.83-6.17l.88-1.68a4.57,4.57,0,0,1,6.13-2,4.5,4.5,0,0,1,1.83,6.17l-.93,1.77a4.49,4.49,0,0,1-6.08,1.88"/><path id="Fill-40" class="cls-13" d="M155.66,373.64c-.18-.09-.21-.45-.07-.72l2.7-5.13c.14-.26.46-.44.64-.34s.21.45.07.72l-2.7,5.13c-.19.35-.46.43-.64.34"/><path id="Fill-41" class="cls-13" d="M151,382.49c-.18-.1-.22-.46-.08-.72l2.2-4.16c.18-.35.45-.44.63-.34s.21.45.07.71l-2.19,4.16c-.14.27-.46.44-.63.35"/><path id="Fill-42" class="cls-13" d="M139.34,404.6c-.18-.09-.22-.45-.08-.72L147.1,389c.14-.26.45-.44.63-.34s.22.45.08.71L140,404.25c-.19.36-.46.44-.63.35"/><path id="Fill-43" class="cls-13" d="M132.34,417.87c-.18-.1-.22-.46-.08-.72l4.11-7.78c.14-.27.46-.44.63-.35s.22.45.08.72L133,417.52c-.18.36-.45.44-.63.35"/><path id="Fill-44" class="cls-13" d="M119.74,441.75c-.17-.09-.21-.45-.07-.72l5.92-11.23c.14-.27.46-.44.64-.35s.21.46.07.72l-5.92,11.24c-.19.35-.46.43-.64.34"/><path id="Fill-45" class="cls-15" d="M54.61,413.05a4.57,4.57,0,0,1-1.84-6.16l2.71-5.13a4.5,4.5,0,1,1,8,4.19l-2.7,5.13a4.51,4.51,0,0,1-6.13,2"/><path id="Fill-46" class="cls-15" d="M44,407.46a4.57,4.57,0,0,1-1.83-6.17l2.71-5.13a4.5,4.5,0,1,1,8,4.2l-2.71,5.13a4.51,4.51,0,0,1-6.13,2"/><path id="Fill-47" class="cls-15" d="M33.38,401.86a4.57,4.57,0,0,1-1.83-6.17l2.7-5.13a4.5,4.5,0,1,1,8,4.2l-2.7,5.13a4.52,4.52,0,0,1-6.13,2"/><path id="Fill-48" class="cls-15" d="M24.16,393.61a4.49,4.49,0,0,1-1.88-6.08l1.4-2.66A4.55,4.55,0,0,1,29.76,383a4.48,4.48,0,0,1,1.88,6.08l-1.44,2.74a4.47,4.47,0,0,1-6,1.8"/><path id="Fill-49" class="cls-15" d="M65.22,418.65a4.57,4.57,0,0,1-1.83-6.17l2.7-5.13a4.51,4.51,0,1,1,8,4.2l-2.71,5.13a4.5,4.5,0,0,1-6.13,2"/><path id="Fill-50" class="cls-15" d="M75.84,424.25A4.58,4.58,0,0,1,74,418.08L76.71,413a4.5,4.5,0,1,1,8,4.2L82,422.28a4.5,4.5,0,0,1-6.12,2"/><path id="Fill-51" class="cls-17" d="M71.31,381.16a5.24,5.24,0,0,0-1.24-.43,4.73,4.73,0,0,1,1,5.48l-2.71,5.13a4.59,4.59,0,0,1-5.06,2.31,6.15,6.15,0,0,0,1.06.78,4.67,4.67,0,0,0,6.3-1.88l2.7-5.13a4.81,4.81,0,0,0-2-6.26"/><path id="Fill-52" class="cls-17" d="M60.7,375.57a4.48,4.48,0,0,0-1.24-.43,4.7,4.7,0,0,1,.95,5.47l-2.7,5.13a4.6,4.6,0,0,1-5.06,2.31,5.2,5.2,0,0,0,1.05.78A4.66,4.66,0,0,0,60,387l2.71-5.13a4.8,4.8,0,0,0-2-6.26"/><path id="Fill-53" class="cls-17" d="M50.08,370a4.83,4.83,0,0,0-1.24-.43,4.72,4.72,0,0,1,1,5.48l-2.71,5.13a4.59,4.59,0,0,1-5.06,2.3,5.73,5.73,0,0,0,1.06.79,4.68,4.68,0,0,0,6.3-1.88l2.71-5.13a4.81,4.81,0,0,0-2-6.26"/><path id="Fill-54" class="cls-17" d="M38.07,367a5.24,5.24,0,0,0-1.24-.43,4.7,4.7,0,0,1,1,5.39l-.93,1.77a4.4,4.4,0,0,1-5,2.22,5.56,5.56,0,0,0,1.06.78,4.6,4.6,0,0,0,6.3-1.87l.89-1.68A4.81,4.81,0,0,0,38.07,367"/><path id="Fill-55" class="cls-17" d="M81.93,386.76a5.16,5.16,0,0,0-1.25-.43,4.7,4.7,0,0,1,1,5.48l-2.71,5.13a4.59,4.59,0,0,1-5.06,2.31,6.57,6.57,0,0,0,1.06.78,4.67,4.67,0,0,0,6.3-1.88L83.94,393a4.81,4.81,0,0,0-2-6.26"/><path id="Fill-56" class="cls-17" d="M91.14,395a5.24,5.24,0,0,0-1.24-.43,4.7,4.7,0,0,1,1,5.39L90,401.74A4.39,4.39,0,0,1,85,404a5.61,5.61,0,0,0,1.05.78,4.61,4.61,0,0,0,6.3-1.87l.89-1.69A4.8,4.8,0,0,0,91.14,395"/><path id="Fill-57" class="cls-17" d="M61.52,399.74a5.31,5.31,0,0,0-1.25-.43,4.7,4.7,0,0,1,1,5.48l-2.71,5.13a4.59,4.59,0,0,1-5.06,2.3,6.08,6.08,0,0,0,1.06.79,4.67,4.67,0,0,0,6.3-1.88L63.53,406a4.8,4.8,0,0,0-2-6.26"/><path id="Fill-58" class="cls-17" d="M50.9,394.14a5.24,5.24,0,0,0-1.24-.43,4.71,4.71,0,0,1,1,5.48l-2.7,5.13a4.59,4.59,0,0,1-5.06,2.31,6.15,6.15,0,0,0,1.06.78,4.68,4.68,0,0,0,6.3-1.88l2.7-5.13a4.81,4.81,0,0,0-2-6.26"/><path id="Fill-59" class="cls-17" d="M40.29,388.54a5.24,5.24,0,0,0-1.24-.43,4.71,4.71,0,0,1,1,5.48l-2.71,5.13a4.58,4.58,0,0,1-5,2.31,5.61,5.61,0,0,0,1,.78,4.67,4.67,0,0,0,6.3-1.87l2.71-5.14a4.81,4.81,0,0,0-2-6.26"/><path id="Fill-60" class="cls-17" d="M29.67,383a4.48,4.48,0,0,0-1.24-.43,4.5,4.5,0,0,1,1,5.39L28,390.65a4.58,4.58,0,0,1-5,2.22,6.57,6.57,0,0,0,1.06.78,4.6,4.6,0,0,0,6.26-1.79l1.44-2.74A4.71,4.71,0,0,0,29.67,383"/><path id="Fill-61" class="cls-17" d="M72.13,405.34a4.48,4.48,0,0,0-1.24-.43,4.7,4.7,0,0,1,1,5.47l-2.7,5.13a4.59,4.59,0,0,1-5.06,2.31,5.26,5.26,0,0,0,1.06.78,4.67,4.67,0,0,0,6.3-1.87l2.7-5.13a4.8,4.8,0,0,0-2-6.26"/><path id="Fill-62" class="cls-17" d="M82.75,410.93a5.47,5.47,0,0,0-1.25-.43,4.72,4.72,0,0,1,1,5.48l-2.71,5.13a4.59,4.59,0,0,1-5.06,2.31,6,6,0,0,0,1.06.78,4.67,4.67,0,0,0,6.3-1.87l2.71-5.14a4.81,4.81,0,0,0-2-6.26"/><path id="Fill-63" class="cls-13" d="M70.82,381.24a3.82,3.82,0,0,0-5.18,1.68L63,388a3.88,3.88,0,0,0,1.54,5.22,3.82,3.82,0,0,0,5.18-1.67l2.66-5.05A3.81,3.81,0,0,0,70.82,381.24Zm-6.86,13a5.05,5.05,0,0,1-2-6.93l2.65-5A5.13,5.13,0,0,1,71.47,380a5.07,5.07,0,0,1,2,6.94l-2.66,5A5.06,5.06,0,0,1,64,394.24Z"/><path id="Fill-64" class="cls-15" d="M60.21,375.64A3.84,3.84,0,0,0,55,377.32l-2.65,5a3.89,3.89,0,0,0,1.54,5.23,3.83,3.83,0,0,0,5.18-1.68l2.66-5A3.84,3.84,0,0,0,60.21,375.64Zm-6.86,13a5.06,5.06,0,0,1-2-6.93L54,376.67a5.13,5.13,0,0,1,6.85-2.26,5.06,5.06,0,0,1,2,6.93l-2.66,5A5.07,5.07,0,0,1,53.35,388.65Z"/><path id="Fill-65" class="cls-13" d="M49.59,370.05a3.82,3.82,0,0,0-5.18,1.67l-2.66,5A3.89,3.89,0,0,0,43.29,382a3.82,3.82,0,0,0,5.18-1.68l2.66-5A3.81,3.81,0,0,0,49.59,370.05Zm-6.86,13a5.06,5.06,0,0,1-2-6.93l2.66-5a5,5,0,1,1,8.84,4.66l-2.66,5A5.05,5.05,0,0,1,42.73,383.05Z"/><path id="Fill-66" class="cls-13" d="M38,368.45A3.8,3.8,0,0,0,32.86,370L32,371.63a3.8,3.8,0,1,0,6.72,3.55l.84-1.59A3.8,3.8,0,0,0,38,368.45Zm-5,9.47a5,5,0,0,1-2-6.84l.84-1.6a5,5,0,1,1,8.84,4.67l-.83,1.59A5,5,0,0,1,33,377.92Z"/><path id="Fill-67" class="cls-13" d="M81.43,386.84a3.82,3.82,0,0,0-5.18,1.68l-2.66,5a3.89,3.89,0,0,0,1.55,5.22,3.82,3.82,0,0,0,5.18-1.68l2.66-5A3.83,3.83,0,0,0,81.43,386.84Zm-6.85,13a5.06,5.06,0,0,1-2-6.93l2.66-5a5.13,5.13,0,0,1,6.85-2.27,5.06,5.06,0,0,1,2,6.93l-2.65,5A5.06,5.06,0,0,1,74.58,399.84Z"/><path id="Fill-68" class="cls-13" d="M90.18,396a3.8,3.8,0,0,0-5.13,1.58l-.84,1.6a3.8,3.8,0,1,0,6.72,3.54l.84-1.59A3.79,3.79,0,0,0,90.18,396Zm-5,9.46a5,5,0,0,1-2-6.84L84,397a5,5,0,1,1,8.84,4.67L92,403.26A5,5,0,0,1,85.19,405.44Z"/><path id="Fill-69" class="cls-13" d="M60.56,400.7a3.82,3.82,0,0,0-5.18,1.68l-2.66,5a3.88,3.88,0,0,0,1.54,5.22A3.82,3.82,0,0,0,59.44,411l2.66-5.05A3.82,3.82,0,0,0,60.56,400.7Zm-6.86,13a5.06,5.06,0,0,1-2-6.93l2.66-5a5.13,5.13,0,0,1,6.85-2.27,5.07,5.07,0,0,1,2,6.94l-2.66,5A5.06,5.06,0,0,1,53.7,413.7Z"/><path id="Fill-70" class="cls-13" d="M49.94,395.1a3.83,3.83,0,0,0-5.18,1.68l-2.66,5a3.89,3.89,0,0,0,1.55,5.23,3.83,3.83,0,0,0,5.18-1.68l2.65-5A3.82,3.82,0,0,0,49.94,395.1Zm-6.85,13a5.06,5.06,0,0,1-2-6.93l2.66-5.05a5.12,5.12,0,0,1,6.85-2.26,5.05,5.05,0,0,1,2,6.93l-2.66,5A5.06,5.06,0,0,1,43.09,408.11Z"/><path id="Fill-71" class="cls-13" d="M39.33,389.51a3.82,3.82,0,0,0-5.18,1.67l-2.66,5.05A3.88,3.88,0,0,0,33,401.45a3.82,3.82,0,0,0,5.18-1.68l2.66-5A3.81,3.81,0,0,0,39.33,389.51Zm-6.86,13a5.06,5.06,0,0,1-2-6.93l2.66-5A5.12,5.12,0,0,1,40,388.27a5.06,5.06,0,0,1,2,6.93l-2.66,5A5.05,5.05,0,0,1,32.47,402.51Z"/><path id="Fill-72" class="cls-13" d="M29.6,384.38A3.81,3.81,0,0,0,24.46,386l-1.39,2.66a3.8,3.8,0,1,0,6.72,3.54l1.4-2.65A3.73,3.73,0,0,0,29.6,384.38Zm-5.46,10.34A4.94,4.94,0,0,1,22.05,388l1.4-2.65a5,5,0,0,1,6.75-2.09A5,5,0,0,1,32.3,390l-1.4,2.65A5,5,0,0,1,24.14,394.72Z"/><path id="Fill-73" class="cls-13" d="M71.17,406.3A3.82,3.82,0,0,0,66,408l-2.66,5a3.89,3.89,0,0,0,1.54,5.22,3.83,3.83,0,0,0,5.19-1.68l2.65-5A3.81,3.81,0,0,0,71.17,406.3Zm-6.86,13a5.06,5.06,0,0,1-2-6.93l2.66-5A5,5,0,1,1,73.82,412l-2.66,5A5.05,5.05,0,0,1,64.31,419.3Z"/><path id="Fill-74" class="cls-13" d="M81.79,411.9a3.82,3.82,0,0,0-5.18,1.67L74,418.62a3.88,3.88,0,0,0,1.54,5.22,3.82,3.82,0,0,0,5.18-1.68l2.66-5A3.83,3.83,0,0,0,81.79,411.9Zm-6.86,13a5.06,5.06,0,0,1-2-6.93l2.66-5a5.12,5.12,0,0,1,6.85-2.27,5.06,5.06,0,0,1,2,6.93l-2.66,5A5.06,5.06,0,0,1,74.93,424.9Z"/><path id="Fill-75" class="cls-14" d="M68,374.87c-20.79-11-42.49-10.53-48.55,1S25.25,405.48,46,416.45s42.49,10.53,48.55-1S88.75,385.83,68,374.87Zm-3.68,7c8.49,4.48,15.73,10.67,19.89,16.94,3.34,5,4.31,9.62,2.73,12.63s-5.92,4.79-12,4.88c-7.52.11-16.73-2.37-25.22-6.85S34,398.78,29.82,392.52c-3.33-5-4.3-9.62-2.72-12.63s5.92-4.79,12-4.88C46.58,374.9,55.78,377.38,64.28,381.86Z"/><path id="Fill-76" class="cls-18" d="M39.3,374.12c7.21-.16,15.93,2.18,24,6.33l-1.15-.6c-8.49-4.48-17.7-7-25.21-6.86-6,.1-10.38,1.88-11.92,4.8s-.56,7.5,2.77,12.54c4.16,6.26,11.41,12.46,19.9,16.94l1.15.6c-8-4.46-14.81-10.29-18.79-16.24-3.34-5-4.31-9.62-2.77-12.54s6.05-4.83,12-5"/><path id="Fill-77" class="cls-18" d="M67.78,374.78l-1.15-.61C86.79,385.26,98.35,403,92.38,414.32s-27.14,11.8-47.67,1.43l1.15.6c20.87,11,42.67,10.63,48.73-.87s-5.93-29.69-26.81-40.7"/><path id="Fill-78" class="cls-13" d="M64.18,382c-8.49-4.48-17.65-7.05-25.08-6.9-5.81.1-10,1.76-11.41,4.5s-.47,7.1,2.74,12c4.07,6.21,11.36,12.32,19.85,16.8s17.65,7,25.08,6.89c5.82-.1,10-1.75,11.42-4.49s.46-7.11-2.74-12C79.92,392.71,72.67,386.52,64.18,382Zm-14.5,27.51C41,405,33.58,398.69,29.38,392.29c-3.46-5.22-4.52-10.07-2.84-13.26s6.28-5,12.54-5.14c7.66-.15,17,2.43,25.71,7s16.09,10.86,20.29,17.26c3.47,5.22,4.52,10.07,2.85,13.25s-6.29,5.06-12.55,5.14C67.73,416.69,58.34,414.12,49.68,409.55Zm18.14-34.41c-20.61-10.87-42.09-10.66-48,.48s6.08,29,26.69,39.85,42.09,10.67,48-.48S88.43,386,67.82,375.14ZM46,416.45c-21.23-11.2-33.44-29.85-27.29-41.52S47.2,362.79,68.43,374s33.44,29.84,27.28,41.52S67.27,427.64,46,416.45Z"/><path id="Fill-79" class="cls-19" d="M83.36,426.07a9,9,0,0,0-2.57-11.42,23.24,23.24,0,0,1-5.08.83l-1-.51,1.31-2.48.18-.36-2.65-1.39-.19.35-1.3,2.48-7.87-4.16,1.3-2.47.19-.36-2.66-1.4-.18.36L61.56,408l-7.87-4.15L55,401.39l.18-.36-2.65-1.4-.19.36L51,402.46l-7.88-4.15,1.31-2.47.19-.36L42,394.08l-.18.36-1.31,2.47-7.87-4.15,1.3-2.48.14-.26A9.59,9.59,0,0,0,31,389.5l-1,1.86-2.3-1.21a9.18,9.18,0,0,0-4.56,4.15l-.23.44-.24.44L-.48,439.06a10.08,10.08,0,0,0,11,14.59L2.82,468.16a10.1,10.1,0,1,0,17.87,9.42l18.1-34.32a10.44,10.44,0,0,0,4.59,5A10.13,10.13,0,0,0,57,444.06l1.59-3a9.87,9.87,0,0,0,3.47,3.07,10.12,10.12,0,0,0,13.64-4.22l6.86-13,.23-.44c.41-.13.46-.22.55-.39"/><path id="Fill-80" class="cls-20" d="M62.88,407.24l2.56,1.35.75-1.41.18-.36-2.65-1.4-.19.36-.65,1.46"/><path id="Fill-81" class="cls-20" d="M41.65,396l2.56,1.36L45,396l.19-.35-2.66-1.4-.18.35L41.56,396"/><path id="Fill-82" class="cls-20" d="M52.26,401.64,54.83,403l.74-1.41.19-.36-2.65-1.4-.19.36-.75,1.41"/><path id="Fill-83" class="cls-20" d="M73.49,412.84l.62.32c.89,0,1.75-.09,2.55-.12l.14-.27.19-.35L74.34,411l-.19.35-.66,1.47"/><path id="Fill-84" class="cls-20" d="M56.91,439.14,55,442.68a10.25,10.25,0,0,1-13.86,4,4.76,4.76,0,0,1-1-.65,10,10,0,0,0,3.61,3,10.25,10.25,0,0,0,13.86-4l1.87-3.54a7.47,7.47,0,0,1-2.59-2.38"/><path id="Fill-85" class="cls-20" d="M33.6,391.8l.79-1.51.14-.26a12.7,12.7,0,0,0-3.07-.6l-.52,1,2.66,1.4"/><path id="Fill-86" class="cls-20" d="M84.29,426.44A9.22,9.22,0,0,0,81.5,414.8c-.09-.05-.14,0-.22,0a9,9,0,0,1,.38,9.14l-.23.44-.24.44-6.85,13a10.36,10.36,0,0,1-14,4.18,5.5,5.5,0,0,1-1-.65,10.36,10.36,0,0,0,17.52-1.06l6.81-12.91.23-.44a1.25,1.25,0,0,0,.37-.49"/><path id="Fill-87" class="cls-20" d="M38.09,440.52l-19,36.09a10.36,10.36,0,0,1-14,4.17,4.7,4.7,0,0,1-1-.65,10.06,10.06,0,0,0,3.55,3.12,10.36,10.36,0,0,0,14-4.17l18.61-35.29a10.38,10.38,0,0,1-2.12-3.27"/><path id="Fill-88" class="cls-20" d="M13.06,452.19c-2.3.49-9.12-.29-11.42-1.5a4.76,4.76,0,0,1-1-.65,10.28,10.28,0,0,0,3.6,3c1,.51,6.46,1.26,7.58,1.51l1.26-2.39"/><path id="Fill-89" class="cls-13" d="M10.9,454.56a.34.34,0,0,1,.22.23.66.66,0,0,1,.08.71L3.5,470.1A9.5,9.5,0,1,0,20.3,479l18.29-34.67a.62.62,0,0,1,.63-.35.64.64,0,0,1,.58.42,9.38,9.38,0,0,0,4.28,4.74A9.57,9.57,0,0,0,57,445L58.59,442a.56.56,0,0,1,.5-.31.66.66,0,0,1,.53.28,8.61,8.61,0,0,0,3.25,2.85,9.58,9.58,0,0,0,12.88-4.06l6.86-13,.14-.27.09-.18.09-.17.19-.36A8.55,8.55,0,0,0,81,416.22,21.09,21.09,0,0,1,76,417a.36.36,0,0,1-.31-.06l-1-.51a.65.65,0,0,1-.25-.81l1.22-2.3-1.51-.79L73,414.84a.65.65,0,0,1-.81.25l-7.87-4.15a.64.64,0,0,1-.25-.81l1.21-2.3-1.5-.8-1.22,2.3a.64.64,0,0,1-.81.25l-7.87-4.15a.64.64,0,0,1-.25-.81l1.21-2.3-1.5-.79-1.22,2.3a.65.65,0,0,1-.81.25l-7.87-4.15a.65.65,0,0,1-.25-.81l1.21-2.3L42.9,396l-1.21,2.3a.65.65,0,0,1-.81.25L33,394.42a.65.65,0,0,1-.25-.81l1.08-2a11.35,11.35,0,0,0-1.79-.26l-.79,1.5a.64.64,0,0,1-.81.25l-2-1a8.15,8.15,0,0,0-4,3.76l-.14.26-.1.18-.09.17-.14.27L.69,440.92a9.5,9.5,0,0,0,3.92,12.92,9.38,9.38,0,0,0,6.33.85C10.64,454.42,10.73,454.46,10.9,454.56ZM6.82,484A10.79,10.79,0,0,1,2.4,469.4l7.13-13.53a10.64,10.64,0,0,1-5.92-1.2A10.81,10.81,0,0,1-.82,440.12L22.51,395.9l.18-.36.09-.17,0-.09.19-.36a9.8,9.8,0,0,1,5-4.5.81.81,0,0,1,.54.06l1.68.89.7-1.33a.82.82,0,0,1,.54-.39,11,11,0,0,1,3.35.52c.17.09.35.19.35.41a.78.78,0,0,1-.06.53l-.09.18-1.08,2,6.81,3.59,1-1.95.09-.17.1-.18c.09-.18.18-.36.41-.35a.73.73,0,0,1,.53.06l2.66,1.39c.17.1.21.23.34.42a.72.72,0,0,1,0,.53l-.09.18-.1.17-1,2,6.81,3.59,1-1.94.1-.18.09-.18c.09-.17.19-.35.41-.35a.81.81,0,0,1,.54.06l2.65,1.4c.18.09.22.23.35.41a.78.78,0,0,1-.06.53l-.09.18-.1.18-1,1.94,6.81,3.6,1-1.95.09-.18.09-.17c.1-.18.19-.36.41-.35a.8.8,0,0,1,.54.05L67,407a.79.79,0,0,1,.35.41.75.75,0,0,1-.06.54l-.09.18-.09.17-1,1.95,6.81,3.59,1-2,.09-.17.1-.18c.09-.18.18-.35.41-.35a.73.73,0,0,1,.53.06l2.65,1.4c.18.09.22.23.35.41a.72.72,0,0,1,0,.53l-.1.18-.09.18-1,1.94L77,416a24.29,24.29,0,0,0,4.8-.74.8.8,0,0,1,.54.05A9.77,9.77,0,0,1,85,427.62l-.23.45-.05.08,0,.09-.19.36-6.86,13a10.73,10.73,0,0,1-14.5,4.56,9.94,9.94,0,0,1-3-2.39L59,446a10.73,10.73,0,0,1-14.5,4.56,10.85,10.85,0,0,1-4.34-4.21L22.43,479.86C18.53,484.69,12,486.7,6.82,484Z"/><path id="Fill-90" class="cls-19" d="M193.38,296.76h0a75.54,75.54,0,0,0-1.1-15.5c2.86-10.14-3.58-12.07-3.58-12.07,4.45-9.3-4-13-4-13,.22-6-5.17-11-5.17-11-10.24-10.6-15.14-3.24-15.14-3.24l.26.37-10.19,1.74a12.64,12.64,0,0,0,.45,4.08,10.56,10.56,0,0,0,2.41,4.22,31.73,31.73,0,0,0-1.91,7.69l.18.1a11.56,11.56,0,0,0-5.8,13.78,11.44,11.44,0,0,0,13.52,7.81,11.57,11.57,0,0,0-6.8,14.17,11.41,11.41,0,0,0,11,8.15s2.79-.34,3.46-.55l4.78,2.52a11.62,11.62,0,0,0,1.44,12.06l11.41-4.27c3.4-4.53,4.57-11,4.84-17.11"/><path id="Fill-91" class="cls-20" d="M177.33,252.8a20.82,20.82,0,0,1,0,2.37,51.54,51.54,0,0,0,.35,8.32c.08.5.16,1,.65,1.14.18.09.36,0,.58,0a5.32,5.32,0,0,0,2.4-1.11,6.57,6.57,0,0,0,1.11-1.67c.46-.89.89-1.91,1.26-2.84-1.36-1.06-1.86-2.9-2.45-4.57a20.23,20.23,0,0,0-1-2.79,6.86,6.86,0,0,0-1.16-2.09,4.53,4.53,0,0,0-1.94-1.25,17.79,17.79,0,0,0-3.87-1.24,7.43,7.43,0,0,1,4.08,5.77"/><path id="Fill-93" class="cls-20" d="M176.76,293.76l-2.5,2L169.34,304l4.15,2.19s2-3.14,4.61-8.09c2.47-4.91-1.34-4.32-1.34-4.32"/><path id="Fill-94" class="cls-20" d="M191.56,308.35l2.17-9-.37-12.17-.72-5.92-3,5.66-2.11,2.28-2.83.65.74,2.88-1.14,3v.22l-2.7,2.54-2.57,2.94-.06.76,1.29.34s3.85-.23,4.92-2l-.94,2-.23.45s-4.66,12.69,5,10.75l2.57-5.31"/><path id="Fill-95" class="cls-20" d="M192.89,274.11c-.7-4.89-4.2-4.7-4.2-4.7l-.14,10.78c-.09-.05,5-1.1,4.34-6.08"/><path id="Fill-96" class="cls-20" d="M182.36,276.93s-10.27-9.26-11.19-16.53-3.89-2-3.89-2l.11,3.45,2.93,4.93,12,10.2"/><path id="Fill-97" class="cls-20" d="M183.28,279.67l-4,2.29-6.68.66-8.33-3.49S167.6,291,175.06,289.7s8.22-10,8.22-10"/><path id="Fill-98" class="cls-13" d="M179.21,265.09a.38.38,0,0,1-.22-.23.66.66,0,0,1,.11-.84c3.27-2.35,5-5,5.23-8,.26-5.63-5.05-10.57-5.09-10.71-3.85-3.84-7.35-5.79-10.3-5.54a5.2,5.2,0,0,0-3.94,2.1.58.58,0,0,1-.85.12.67.67,0,0,1-.21-.9,6.43,6.43,0,0,1,4.89-2.62c3.41-.24,7.12,1.72,11.23,5.92.22.23,5.84,5.45,5.52,11.62-.2,3.39-2.15,6.44-5.74,9a.44.44,0,0,1-.63.12"/><path id="Fill-99" class="cls-13" d="M155.14,261.44a.62.62,0,0,1-.35-.63c.11-.63,1.44-14.73,9.75-14.2l1.88.09c6.79.42,11.3.65,11.56,7.23l.07,3.09c0,3.75,0,7.69,1.42,8.66.48.37,1.2.29,2.1-.13a.64.64,0,1,1,.52,1.17,3.41,3.41,0,0,1-3.27,0c-1.94-1.25-2-5.24-2-9.67l-.06-3.08c-.16-5.29-3.15-5.62-10.39-6l-1.87-.09c-7.1-.47-8.42,13-8.47,13.06-.05.31-.33.62-.64.57-.05.08-.13,0-.22,0"/><path id="Fill-100" class="cls-13" d="M166.7,281.1a22.16,22.16,0,0,1-4.14-2.86.63.63,0,1,1,.91-.87c.09,0,7.1,6.68,15,3.72,2.39-.89,3.71-1.66,3.86-2.38.25-1.11-2.26-3-5.39-5.44-1.45-1.1-3-2.39-4.79-3.77-3.69-3.07-5.59-6.11-5.75-9.25a6.54,6.54,0,0,1,1.77-5.06.63.63,0,0,1,.89,0,.68.68,0,0,1,0,.9,5.85,5.85,0,0,0-1.39,4.13c.17,2.68,1.94,5.54,5.32,8.34,1.72,1.47,3.35,2.67,4.8,3.77,4,3.13,6.2,4.74,5.89,6.62-.2,1.24-1.52,2.25-4.63,3.43a15.32,15.32,0,0,1-12.32-1.3"/><path id="Fill-101" class="cls-13" d="M179.12,302.35a1.89,1.89,0,0,1-.52-.5c-.52-1,.4-2.27,3.05-4.5,2.09-1.83,3.25-3.59,3.28-5.16a3.25,3.25,0,0,0-.93-2.3.61.61,0,0,1,.56-1.06,3.43,3.43,0,0,0,2.74-.48c1.9-1,3.48-3.59,4.54-7.33,2.66-9.33-3.07-11.11-3.16-11.16s-.35-.19-.39-.32a.8.8,0,0,1,.05-.54,9.46,9.46,0,0,0,.83-7.36,9.36,9.36,0,0,0-4.5-4.75.73.73,0,0,1-.34-.86c.1-.4.46-.43.86-.34a10.36,10.36,0,0,1,5.16,5.44,10.06,10.06,0,0,1-.57,7.73l.09,0c1.68.89,5.59,4,3.31,12.38-1.21,4.22-3,6.91-5.19,8.11a4.72,4.72,0,0,1-2.16.67,4.17,4.17,0,0,1,.54,2c0,2-1.25,4.09-3.71,6.18-2.69,2.32-2.71,3-2.75,3.08a4.05,4.05,0,0,0,1.43-.15.64.64,0,0,1,.24,1.26,4.14,4.14,0,0,1-2.46-.06"/><path id="Fill-102" class="cls-13" d="M187.09,281.68a.68.68,0,0,1-.35-.63c0-.09,2.19-14.23-.29-19.83a.64.64,0,0,1,1.18-.51c2.6,6,.5,20.05.45,20.59a.69.69,0,0,1-.73.52l-.26-.14"/><path id="Fill-103" class="cls-13" d="M169.87,304.26a.58.58,0,0,1-.25-.82.65.65,0,0,1,.81-.25l6.45,3.41c.09,0,2.58.9,6-3.41s.79-7.27.7-7.32a.63.63,0,1,1,.91-.87s3.45,3.74-.64,8.93-7.33,3.82-7.51,3.73l-6.45-3.4"/><path id="Fill-104" class="cls-13" d="M166.7,306a.57.57,0,0,1-.25-.81c.14-.27.5-.53.77-.39,0,0,2.13.45,5.13-5.66,3.56-7.39,7.56-6.41,7.7-6.45a.52.52,0,0,1,.38.76.67.67,0,0,1-.72.53c-.09,0-3.21-.57-6.3,5.72-3.51,7.3-6.36,6.48-6.71,6.3h0"/><path id="Fill-105" class="cls-13" d="M188.51,315.22h0a.6.6,0,0,1-.21-.9c7.62-11,3.16-32.37,3.17-32.59a.64.64,0,1,1,1.26-.24c.2.9,4.66,22-3.32,33.52a.73.73,0,0,1-.9.21"/><path id="Fill-106" class="cls-13" d="M185,314.51a.56.56,0,0,1-.3-.49c-.43-2.83,0-5.19,1.4-6.95a8.22,8.22,0,0,1,4.4-2.77c-2.63-2.52-1.54-5.22-.59-7.66a21.72,21.72,0,0,0,.86-2.49c.83-3.29-2.43-5.91-2.51-6-.22-.23-.35-.63-.12-.85s.63-.34.85-.12,3.87,3.17,2.89,7.18a26.2,26.2,0,0,1-.95,2.66c-1.09,2.71-1.85,4.79,1.14,7.05a.47.47,0,0,1,.21.68c-.05.31-.32.39-.59.47a7.72,7.72,0,0,0-4.84,2.54,7.84,7.84,0,0,0-1.2,5.92.75.75,0,0,1-.51.75c.13.18,0,.09-.14,0"/><path id="Fill-107" class="cls-13" d="M171.55,302.77l4.87,2.57a.65.65,0,0,1,.25.81,10.6,10.6,0,0,0-.43,7.68,9.25,9.25,0,0,0,1.76,3.3l10.91-4c2.68-4,4.14-9.58,4.34-16.82h0A69.93,69.93,0,0,0,192,281a.33.33,0,0,1,.05-.31c2.66-9.34-3.2-11.3-3.25-11.21-.18-.09-.35-.19-.39-.32a.74.74,0,0,1,.05-.54c1.31-2.7,1.64-5.24.74-7.41a9.54,9.54,0,0,0-4.59-4.79.6.6,0,0,1-.39-.55c.17-5.68-5-10.44-5-10.57-3.81-3.93-7.34-5.8-10.3-5.55a6,6,0,0,0-3.8,1.84h0a.53.53,0,0,1,0,.58.72.72,0,0,1-.41.35L155,244.08a10.62,10.62,0,0,0,2.75,7.44.67.67,0,0,1,.12.63,30.58,30.58,0,0,0-1.77,7.21.22.22,0,0,1,.09.27.49.49,0,0,1-.33.62,10.93,10.93,0,0,0-5.52,13,11.19,11.19,0,0,0,13,7.53.75.75,0,0,1,.8.42.62.62,0,0,1-.38.71,10.94,10.94,0,0,0-6.37,13.37,11.08,11.08,0,0,0,10.48,7.78,24.57,24.57,0,0,0,3.32-.51C171.24,302.72,171.47,302.72,171.55,302.77Zm6,15.7c-.09-.05-.18-.1-.13-.19a11.57,11.57,0,0,1-2.24-4.11,12,12,0,0,1,.31-8.09l-4.15-2.2c-.9.21-3.05.43-3.32.51a12.42,12.42,0,0,1-11.8-8.71,12,12,0,0,1,4.49-13.45,12.54,12.54,0,0,1-11.4-8.61,12,12,0,0,1,5.68-14.2,32.11,32.11,0,0,1,1.72-7.34,12,12,0,0,1-2.32-4.16,11.68,11.68,0,0,1-.54-4.36.78.78,0,0,1,.55-.61l9.39-1.5c0-.09,0-.22.14-.26a6.66,6.66,0,0,1,4.93-2.71c3.41-.24,7.21,1.76,11.32,6,.22.23,5.35,5.08,5.49,11h0c1.68.89,8,4.87,4.32,13,1.6.84,5.82,4,3.45,12.33a80.11,80.11,0,0,1,1.28,15.37.42.42,0,0,1-.05.32c-.3,7.41-1.81,13.29-4.67,17.43-.05.09-.19.13-.32.17l-11.5,4.23C177.79,318.61,177.7,318.56,177.52,318.47Z"/><text class="cls-21" transform="translate(262.47 312.7) rotate(-5)">October 31</text><text class="cls-22" transform="translate(436.2 283.54)">st</text><text class="cls-23" transform="translate(318.2 334.5) rotate(2.93)"><tspan xml:space="preserve">6pm            10:30pm</tspan></text><line class="cls-24" x1="363.23" y1="330.73" x2="409.62" y2="335.04"/></svg>