<svg id="Layer_1" data-name="Layer 1" xmlns="http://www.w3.org/2000/svg" xmlns:xlink="http://www.w3.org/1999/xlink" viewBox="0 0 1920 525"><defs><style>.cls-1{fill:#fff;}.cls-2{fill:#2adfdf;stroke:#979797;}.cls-3{fill:#d1de6c;}.cls-4{fill:#b3ba4b;}.cls-5{fill:#9d8974;}.cls-6{fill:#e8aa6b;}.cls-7{fill:#7c6653;}.cls-8{fill:#c0824c;}.cls-9{fill:#3d1717;}.cls-10{mask:url(#mask);}.cls-11{fill:#a6d8d7;}.cls-12{mask:url(#mask-2-2);}.cls-13{fill:#867a75;}.cls-14{fill:#6c615b;}.cls-15{fill:#fffbef;}.cls-16{fill:#d9d1c4;}.cls-17{mask:url(#mask-3);}.cls-18{fill:#7e3beb;}.cls-19{mask:url(#mask-35);}.cls-20{mask:url(#mask-65);}.cls-21{mask:url(#mask-102);}.cls-22{mask:url(#mask-139);}.cls-23{mask:url(#mask-160);}</style><mask id="mask" x="163" y="299.18" width="32.27" height="32.89" maskUnits="userSpaceOnUse"><g id="mask-2"><path id="path-1" class="cls-1" d="M179.33,314.88c.82,9.07-2.13,16.76-6.6,17.17s-8.76-6.6-9.59-15.67,2.13-16.77,6.6-17.18,8.76,6.61,9.59,15.68"/></g></mask><mask id="mask-2-2" x="179.22" y="294.79" width="30.56" height="32.82" maskUnits="userSpaceOnUse"><g id="mask-4"><path id="path-3" class="cls-1" d="M209.64,310.46c.82,9.05-2.13,16.73-6.6,17.14S194.28,321,193.45,312s2.13-16.73,6.6-17.14,8.76,6.59,9.59,15.65"/></g></mask><mask id="mask-3" x="-116.53" y="-54.26" width="386.8" height="373.29" maskUnits="userSpaceOnUse"><g id="mask-2-3" data-name="mask-2"><polygon id="path-1-2" data-name="path-1" class="cls-1" points="270.27 48.7 -20.97 -54.26 -116.53 216.08 174.71 319.04 270.27 48.7"/></g></mask><mask id="mask-35" x="287.76" y="-141.92" width="420.41" height="421.47" maskUnits="userSpaceOnUse"><g id="mask-2-4" data-name="mask-2"><polygon id="path-1-3" data-name="path-1" class="cls-1" points="497.22 279.55 708.17 53.89 498.7 -141.92 287.75 83.74 497.22 279.55"/></g></mask><mask id="mask-65" x="344.93" y="292.18" width="421.46" height="420.05" maskUnits="userSpaceOnUse"><g id="mask-2-5" data-name="mask-2"><polygon id="path-1-4" data-name="path-1" class="cls-1" points="344.93 503.82 572.93 712.23 766.38 500.59 538.38 292.18 344.93 503.82"/></g></mask><mask id="mask-102" x="571.53" y="135.93" width="309.21" height="287.06" maskUnits="userSpaceOnUse"><g id="mask-2-6" data-name="mask-2"><polygon id="path-1-5" data-name="path-1" class="cls-1" points="571.83 422.99 880.73 422.66 880.43 135.93 571.53 136.26 571.83 422.99"/></g></mask><mask id="mask-139" x="752.04" y="-220.86" width="406.93" height="413.96" maskUnits="userSpaceOnUse"><g id="mask-14-6" data-name="mask-14"><polygon id="path-13-5" data-name="path-13" class="cls-1" points="915.91 -220.86 752.04 40.99 995.11 193.1 1158.97 -68.76 915.91 -220.86"/></g></mask><mask id="mask-160" x="1156.79" y="197.33" width="315.54" height="293.9" maskUnits="userSpaceOnUse"><g id="mask-2-7" data-name="mask-2"><polygon id="path-1-6" data-name="path-1" class="cls-1" points="1465.61 197.33 1156.79 204.57 1163.52 491.23 1472.33 483.98 1465.61 197.33"/></g></mask></defs><title>header-left</title><g id="Homepage"><g id="_1.-Header" data-name="1.-Header"><g id="header-left"><g id="header"><rect id="Rectangle-2" class="cls-2" x="-20.24" y="-12.9" width="1945.28" height="572.69"/></g><g id="frankenstein"><path id="Fill-5" class="cls-3" d="M229.9,533.26c-7.12,11.8-7.3,21.11-4,28.38h0s-1.87,2.4-7.4,1-1.36-12.21-8.22-12.82a8.79,8.79,0,0,0-2.06.07,208.05,208.05,0,0,0,.84-21H209c23-9.15,38.69-33.83,46.24-63.65h0S254.14,493.07,229.9,533.26Zm-78,31.9c-7.41-.72-9.18-2.81-8.74-5.69a16.83,16.83,0,0,0,5.37-13.76,32.45,32.45,0,0,0-2.16-8.92c-2.3-5.78-5.77-10.64-7.07-12.91-6.26-10.81-14.14-24.49-18.57-39.8-6.17-21.4-6-45.34,6.39-77.65-.5,1.93-24.74,97.25,36.63,121.4l-1.72-.57a225.57,225.57,0,0,0-.79,40h0A32.94,32.94,0,0,0,151.91,565.16ZM288.58,486.7c-5.78-72.74-36-115.24-36-115.24a121.06,121.06,0,0,0-31-17.6h0c2.79-23.38,4.55-53.77,3.79-71.48-.91-21.37-39.34-18.95-52.66-17.48-12.8,1.41-49.61,4.46-45,26.85,3.09,14.94,20,61.42,20,61.42l-11.58,5.38-11.82,8.15S94,411.81,80.25,469.8c-6.92,29.34,3.4,83.63,13.21,92.78-.11.16-.2.31-.32.47-5.25,6.69-19.82,7.78-18.42,15.58S82,599.8,93,595.89s-1.66-9.18-2.75-15.9c-1.19-7.38,7.05-9.21,13.68-11.48a33.58,33.58,0,0,0,10.29,1.21c-.77,4.22-2.43,16.94,4,23,7.84,7.33,12.32,9.47,17.89,5.07s4.57-7.5-7.46-12.29c-4-1.57-4.26-10.72-5.08-17,1.19-.54,9.84-3.3,13.53-4.72,2.07,4.48,5,10.39,11.5,13.67,6.73,3.39,11.36,4.08,14.34,3.58h0a85.58,85.58,0,0,0,3.87,15.65s-16-.55-17.47,6.13,26.57,4.62,28.31,2.5-14.62-33.87-6.38-75l-.16-.06c1,.27,2,.52,3,.76a60.27,60.27,0,0,0,25.89.6l-.18,0c1,41.94-10.54,72.39-9.19,74.78s28.58,9.33,28.31,2.5-18.54-10.36-18.54-10.36,3.35-13.79,5.89-31.75c.16.22.32.45.5.68,8.29,10.73,23.79,1.15,23.79,1.15h0a44.23,44.23,0,0,0,11.29,8.67s-8.6,11.87-16.57,5.32c-9.82-8.08-13.56-1.78-13.56-1.78s-7.53,13.75,12.39,14S249.7,581.05,249.7,581a80.69,80.69,0,0,0,11.16,3.58.62.62,0,0,1,.35,1c-8.73,12.41-21.14,12.08-28.62,16.21s7.24,20.18,25.59,4S294.37,559.44,288.58,486.7Z"/><path id="Fill-10" class="cls-4" d="M261.9,411.55l.29,21.15-4.39,27.49-1.11,7.5c.16-.59.32-1.17.46-1.77h0s-.45,11.51-7.25,30.39h0a209.63,209.63,0,0,1-18.2,37.56c-7.16,11.8-7.34,21.11-4,28.39v0l0,0a70.82,70.82,0,0,0,4.17,6.21,155.39,155.39,0,0,1,15.85-29.85c38.83-58.37,14.23-127.1,14.23-127.1"/><polyline id="Fill-11" class="cls-4" points="227 363.67 221.37 359.79 220.88 365.45 221.23 366.8 227 363.67"/><path id="Fill-12" class="cls-4" d="M211.49,529.75l-.06,0c12.14-4.82,22.26-13.92,30.25-25.79-8.44,7.6-23.32,13.63-49.54,10.68-68-7.65-51.73-109.09-51.73-109.09,7.54-6.35,5.22-16.34,5.22-16.34-2.39,6.84-9.44,8.65-9.44,8.65l-4.07.58-4.6,13.85c-4.32,21.27-15.13,95.39,38.29,116.35l-1.74-.58q-.66,6.38-1,12.35a64.65,64.65,0,0,0,8.44,3.67,119.12,119.12,0,0,1,1.86-13l-.16,0c1,.27,2,.52,3,.76a61,61,0,0,0,26.12.61l-.18.06c.12,4.9.07,9.65-.11,14.22a62.38,62.38,0,0,0,9.06-2.21c.31-5,.46-9.94.38-14.79"/><path id="Fill-15" class="cls-4" d="M172.72,264.9c-12.79,1.42-49.59,4.47-45,26.89,3.09,15,20,61.49,20,61.49l-11.58,5.39-11.82,8.16S93.93,412,80.23,470.06C73.3,499.44,83.61,553.8,93.43,563c-.12.16-.21.31-.33.47-5.25,6.7-19.81,7.8-18.42,15.61s7.26,21.19,18.24,17.27-1.67-9.19-2.75-15.92c-1.19-7.38,7-9.21,13.67-11.49a33.33,33.33,0,0,0,10.29,1.2c-.77,4.24-2.43,17,4,23,7.84,7.33,12.32,9.47,17.88,5.07s4.57-7.51-7.45-12.3c-3.95-1.57-4.26-10.74-5.08-17,.57-.26,2.91-1,5.57-1.94-32.09-.73-33.84-56.16-34.93-98.18s23.25-81.79,30.64-85.26,7,11.81,7,11.81c10.14-2.4,13.5-18.8,13.5-18.8L171.93,371s-17-38.41-21.58-72.75,64.77-29.77,65-29.75c-12.55-6.1-33.51-4.64-42.65-3.63"/><path id="Fill-16" class="cls-4" d="M212.18,310.81c.8,9.18-2.14,17-6.57,17.4s-8.66-6.67-9.46-15.85,2.14-17,6.57-17.4,8.66,6.67,9.46,15.85"/><path id="Fill-17" class="cls-4" d="M182,314.17c.8,9.18-2.14,17-6.57,17.4s-8.66-6.67-9.45-15.85,2.14-17,6.56-17.4,8.67,6.67,9.46,15.85"/><path id="Fill-18" class="cls-5" d="M258,516.76s8.29-6.16,15.16-31.78-1.77-73.6-2.4-76.22S266,393.81,266,393.81l-11.95-20.09s10,23.85,7.81,51-6.07,43.83-6.07,43.83-.76,26.83-20.09,58.06l-2.3,4,.61.89s18.27-5.45,24-14.8"/><path id="Fill-19" class="cls-6" d="M128.76,406.83s-28.07,107.61,46.78,124.91a58.88,58.88,0,0,0,28.92-.13s-12.61-11.87-14.32-24.45-.89-25.45,9-38.65c0,0-2.8-10-6.45-14s-17.28-15.12-20.15-16-11.82-14.25-11.82-14.25-8.8-19-16.21-20.39-4.61-3.45-13.38-2.11l-2.36,5,22.73-83.42,2.67-30.8"/><path id="Fill-20" class="cls-7" d="M261.62,423.22c-.07.78-.13,1.55-.2,2.31l.08,6.17-2.68,16.89c-.6,4.23-1.18,7.82-1.68,10.68h0L256,466.79c.16-.59.32-1.18.46-1.78h0s-.28,6.83-3.44,18.57a145.41,145.41,0,0,1-17.3,42l-.73,1.3c-.31.57-.63,1.13-1,1.7l-.59,1,.6.89s17.93-5.51,23.57-14.91a13.32,13.32,0,0,0,1.61-1.64c17.63-45.81,5.68-91.4,2.64-101.45.08,3.46,0,7-.28,10.66"/><path id="Fill-24" class="cls-8" d="M179.23,532.5c.45.08.9.14,1.36.21.74.12,1.48.23,2.22.32.57.07,1.13.12,1.69.17l1.78.15c.63,0,1.27.07,1.9.09l1.44,0c.7,0,1.39,0,2.08,0l1.13,0c.76,0,1.52-.08,2.27-.15l.73-.07a52.8,52.8,0,0,0,5.54-.84l-.17.06c1.1-.23,2.18-.48,3.26-.77,0,0-8-7.52-12.11-16.93l-1-.1c-67.21-7.57-51.07-108.68-51.07-108.68a14.92,14.92,0,0,0,2.26-2.41c-4.94-1.32-3.52-2.85-11.37-1.65l-.28.58-3.37,10.21a.08.08,0,0,1,0,0c0,.07,0,.15,0,.23-.06.31-.13.63-.19,1,0,.13,0,.26-.08.39-.05.3-.11.61-.17.92,0,.14,0,.28-.08.43-.07.35-.13.72-.2,1.1,0,.1,0,.19,0,.29-.18,1-.36,2.05-.54,3.16l0,.32c-.07.45-.14.9-.21,1.37l-.06.44q-.11.69-.21,1.41l-.06.39c-.17,1.23-.34,2.52-.5,3.84l0,.32c-.06.55-.13,1.1-.19,1.66l-.06.55c-.06.51-.11,1-.16,1.56l-.06.55c-.06.6-.11,1.21-.17,1.83l0,.3q-.09,1.09-.18,2.22c0,.11,0,.22,0,.33,0,.62-.09,1.25-.13,1.88,0,.22,0,.44,0,.66l-.09,1.62c0,.25,0,.49,0,.74,0,.57,0,1.14-.07,1.72l0,.61c0,.78,0,1.57-.07,2.36v.3c0,.68,0,1.37,0,2.06V450c0,.53,0,1.06,0,1.6,0,.3,0,.6,0,.91,0,.53,0,1.05,0,1.58,0,.3,0,.6,0,.9,0,.64,0,1.29.07,1.94,0,.2,0,.39,0,.59l.12,2.31c0,.33,0,.66.07,1,0,.5.07,1,.1,1.5l.09,1.1c0,.47.09.93.13,1.4s.07.76.11,1.13.11,1,.17,1.46.07.71.12,1.05c.09.78.19,1.56.31,2.33,0,.38.11.76.17,1.15l.21,1.33c.07.41.14.83.22,1.25s.14.82.22,1.23l.24,1.28c.08.4.17.8.25,1.2s.18.86.28,1.29.2.85.3,1.28q.27,1.14.57,2.28c.1.36.19.72.29,1.08l.39,1.36c.1.35.2.7.31,1.05s.28.91.43,1.37l.33,1,.48,1.4c.1.27.2.53.29.8.36,1,.73,1.92,1.12,2.86l.29.72c.2.47.41.94.62,1.42l.38.84c.22.47.44.94.67,1.4.13.27.27.54.4.82l.72,1.4c.12.22.24.44.37.66.88,1.63,1.84,3.23,2.86,4.78l.43.65c.31.45.62.9.94,1.34l.49.67c.33.44.65.88,1,1.32l.47.57a56.33,56.33,0,0,0,3.84,4.35l.44.45c.4.41.82.8,1.24,1.2l.59.55c.42.39.85.77,1.28,1.14l.61.51c.46.38.92.77,1.39,1.14l.21.16c1.09.85,2.22,1.66,3.39,2.44l.36.25,1.56,1,.74.45c.51.3,1,.6,1.57.89.26.15.53.29.8.43.55.29,1.09.58,1.65.86l.66.31c1.36.66,2.76,1.28,4.22,1.85a68.61,68.61,0,0,0,7.34,2.43h0c1,.27,1.95.52,3,.76,1.24.29,2.47.53,3.69.74"/><path id="Fill-28" class="cls-9" d="M184.11,372.55a120.55,120.55,0,0,1-35.26-8.72.69.69,0,0,1-.35-.92.72.72,0,0,1,.95-.33c.44.2,44.94,20.12,79.5,0a.72.72,0,0,1,1,.24.68.68,0,0,1-.25,1c-14.78,8.6-31.32,10-45.57,8.76"/><path id="Fill-29" class="cls-9" d="M153.05,365.79a.69.69,0,0,1-.54-.33c-8-13-21.83-53.9-25.91-73.8a15.81,15.81,0,0,1,2.47-12.89c8-11.12,30.61-13.57,41.48-14.75l1.56-.17c10.66-1.19,36.67-2.89,47.91,6.9A15.29,15.29,0,0,1,225.43,282c.89,21.06-1.76,60.91-5.67,85.28a.73.73,0,0,1-.81.59.71.71,0,0,1-.58-.82c3.89-24.29,6.53-64,5.65-85a13.9,13.9,0,0,0-4.92-10.26c-10.82-9.42-36.36-7.73-46.84-6.56l-1.56.17C160,266.6,137.84,269,130.22,279.62A14.35,14.35,0,0,0,128,291.36c4,19.56,18,60.79,25.72,73.34a.72.72,0,0,1-.22,1,.7.7,0,0,1-.44.1"/><path id="Fill-30" class="cls-9" d="M150.41,286.26a.72.72,0,0,1-.63-.55c-2.43-9.93-13.38-10.3-13.84-10.31a.73.73,0,1,1,0-1.45c.13,0,12.52.39,15.21,11.41a.73.73,0,0,1-.53.88.65.65,0,0,1-.24,0"/><path id="Fill-31" class="cls-9" d="M162.6,283.32a.73.73,0,0,1-.66-.58c-1.78-10.24-15.56-12.52-15.69-12.54a.69.69,0,1,1,.22-1.35c.15,0,14.95,2.48,16.91,13.69a.69.69,0,0,1-.6.78h-.18"/><path id="Fill-32" class="cls-9" d="M173.73,281.29a.75.75,0,0,1-.66-.79c.51-10.87-9.56-14.64-9.66-14.68a.76.76,0,0,1-.44-1,.7.7,0,0,1,.92-.47c.11,0,11.18,4.18,10.63,16.17a.75.75,0,0,1-.76.73h0"/><path id="Fill-33" class="cls-9" d="M184.57,281.25l-.12,0a.74.74,0,0,1-.5-.9c2-8.18-6.71-14.34-6.8-14.4a.77.77,0,0,1-.19-1,.7.7,0,0,1,1-.21c.39.27,9.6,6.81,7.37,16a.72.72,0,0,1-.74.56"/><path id="Fill-34" class="cls-9" d="M195.56,279.21a.48.48,0,0,1-.17,0,.75.75,0,0,1-.34-.94c2.71-7.88-4.78-14.11-4.85-14.18a.81.81,0,0,1-.15-1,.57.57,0,0,1,.86-.2c.08.07,8.36,6.94,5.28,15.91a.65.65,0,0,1-.63.47"/><path id="Fill-35" class="cls-9" d="M207.11,280.23a.57.57,0,0,1-.25-.08.71.71,0,0,1-.3-1c3.22-6.57-4.47-14.11-4.55-14.19a.74.74,0,0,1,0-1,.68.68,0,0,1,1,0c.35.34,8.52,8.36,4.83,15.89a.68.68,0,0,1-.67.39"/><path id="Fill-36" class="cls-9" d="M172.43,332.37a.7.7,0,0,1-.63-.64l-2.88-32.4a.71.71,0,0,1,.63-.77l2.69-.26c2-.18,3.94.89,5.67,3.11a.72.72,0,0,1-.11,1,.69.69,0,0,1-1-.12c-1-1.27-2.57-2.76-4.46-2.57l-2,.19,2.75,31,2-.18c1.9-.18,3.2-2,3.95-3.42a.7.7,0,0,1,.94-.3.72.72,0,0,1,.29,1c-1.31,2.54-3.06,4-5.06,4.17l-2.69.25h-.12"/><path id="Fill-37" class="cls-9" d="M179.07,313.91c.8,9.18-2.14,17-6.57,17.4s-8.66-6.67-9.46-15.85,2.15-17,6.57-17.4,8.66,6.67,9.46,15.85"/><g id="Group-40"><g class="cls-10"><polyline id="Fill-38" class="cls-11" points="164.78 315.8 168.66 310.79 173.83 321.04 177.4 314.12 183.58 324.58 189.63 310.69 195.27 318.99 189.5 304.59 183.69 316.38 177.5 306.66 173.73 314.57 168.56 306.41 164.78 315.8"/></g></g><path id="Fill-41" class="cls-9" d="M170.16,299.48h-.63c-4.08.37-6.85,7.86-6,16.37s4.91,15.39,9,15,6.85-7.86,6-16.37C177.78,306.44,174,299.83,170.16,299.48Zm1.58,32.83c-4.68-.41-8.85-7.29-9.7-16.33-.91-9.6,2.32-17.48,7.36-17.93s9.68,6.73,10.59,16.33-2.32,17.48-7.36,17.93A4.41,4.41,0,0,1,171.74,332.31Z"/><path id="Fill-42" class="cls-9" d="M180.38,307a.86.86,0,0,1-.67-.39,16.44,16.44,0,0,0-1.18-1.83.53.53,0,0,1,.28-.83,1,1,0,0,1,1.08.26,17.38,17.38,0,0,1,1.27,2,.54.54,0,0,1-.4.79,1,1,0,0,1-.38,0"/><path id="Fill-43" class="cls-9" d="M181.55,320.13c-.25,0-.43-.39-.4-.84s0-.87.07-1.31.25-.83.52-.84.46.35.44.81-.05.92-.08,1.37-.27.82-.53.81h0"/><path id="Fill-44" class="cls-9" d="M180.91,326.1l-.09,0c-.2-.1-.3-.5-.22-.89.16-.76.3-1.58.42-2.43.06-.4.27-.67.48-.61s.34.42.28.82c-.13.91-.28,1.78-.45,2.6-.07.34-.25.55-.42.54"/><path id="Fill-46" class="cls-9" d="M202.78,328a.71.71,0,0,1-.64-.64l-3-32.41a.69.69,0,0,1,.16-.52.65.65,0,0,1,.48-.25l2.74-.25c2.55-.24,5,1.52,7,5a.71.71,0,1,1-1.22.71c-1.68-2.88-3.75-4.43-5.68-4.25l-2,.19,2.86,31,2-.18a4.21,4.21,0,0,0,2.68-1.46.71.71,0,1,1,1,1,5.58,5.58,0,0,1-3.59,1.9l-2.74.25h-.13"/><path id="Fill-47" class="cls-9" d="M209.21,310.55c.8,9.18-2.14,17-6.56,17.4s-8.67-6.67-9.46-15.85,2.14-17,6.57-17.4,8.66,6.67,9.45,15.85"/><g id="Group-50"><g class="cls-12"><polyline id="Fill-48" class="cls-11" points="179.22 312.37 183.1 307.37 188.27 317.6 191.84 310.69 198.02 321.13 204.07 307.27 209.71 315.55 203.93 301.18 198.13 312.95 191.94 303.25 188.17 311.14 183 303 179.22 312.37"/></g></g><path id="Fill-51" class="cls-9" d="M211.25,305.69a.88.88,0,0,1-.78-.58c-.29-.85-.61-1.67-1-2.44a.75.75,0,0,1,.49-1,.93.93,0,0,1,1.15.45,27.34,27.34,0,0,1,1,2.59.75.75,0,0,1-.59,1,.89.89,0,0,1-.32,0"/><path id="Fill-52" class="cls-9" d="M211.57,317.76h0a.6.6,0,0,1-.38-.71c.08-.54.14-1.11.19-1.68,0-.35.26-.61.52-.59h0a.57.57,0,0,1,.42.67c-.06.6-.12,1.2-.2,1.77,0,.33-.28.57-.52.54"/><path id="Fill-53" class="cls-9" d="M210.17,326.67a.83.83,0,0,1-.34-.1.85.85,0,0,1-.32-1.16,17.76,17.76,0,0,0,1.57-4,.85.85,0,1,1,1.63.46,20.13,20.13,0,0,1-1.73,4.35.84.84,0,0,1-.81.43"/><path id="Fill-54" class="cls-9" d="M200.3,296.13a3.31,3.31,0,0,0-.63,0c-1.91.17-3.61,1.9-4.77,4.87A28.42,28.42,0,0,0,197,323.57c1.69,2.72,3.68,4.12,5.6,3.95s3.61-1.9,4.78-4.87a28.52,28.52,0,0,0-2.14-22.57C203.77,297.65,202,296.28,200.3,296.13ZM201.88,329c-2.18-.19-4.31-1.8-6.08-4.62a30,30,0,0,1-2.26-23.85c1.37-3.51,3.5-5.56,6-5.79s5,1.42,7,4.63A27.48,27.48,0,0,1,210.14,311a27.18,27.18,0,0,1-1.37,12.14c-1.37,3.51-3.5,5.56-6,5.78A4.51,4.51,0,0,1,201.88,329Z"/><path id="Fill-55" class="cls-9" d="M138.41,316.36l-8.53.74-.17-1.74a3.51,3.51,0,0,0-3.81-3.11,3.44,3.44,0,0,0-3.16,3.71l1,10.29a3.52,3.52,0,0,0,3.82,3.11,3.44,3.44,0,0,0,3.15-3.71l-.17-1.74,8.53-.74a3.44,3.44,0,0,0,3.16-3.71,3.51,3.51,0,0,0-3.82-3.1"/><path id="Fill-56" class="cls-9" d="M241.18,314.33l-1-10.29a3.56,3.56,0,0,0-3.87-3.11,3.43,3.43,0,0,0-3.2,3.7l.17,1.75L226,307q-.14,3.39-.3,6.89l8.28-.69.17,1.74A3.57,3.57,0,0,0,238,318a3.43,3.43,0,0,0,3.19-3.71"/><path id="Fill-58" class="cls-9" d="M125.06,367.22C121,373.45,94.2,416.11,81.71,469c-6.94,29.43,3.57,83.12,13,91.86a.73.73,0,0,1,.09,1l-.11.16c-.08.11-.15.22-.24.33-2.25,2.87-6,4.7-9.67,6.46-5,2.4-9.26,4.48-8.53,8.51,1.06,6,4.29,13.24,9.1,16.06a9.29,9.29,0,0,0,8.14.61c2.33-.83,3.64-1.76,3.91-2.77.37-1.39-1.22-3.25-2.9-5.22s-3.79-4.45-4.22-7.09c-1.16-7.21,5.86-9.52,12.06-11.56l2-.68a.75.75,0,0,1,.42,0,32.35,32.35,0,0,0,10,1.18.69.69,0,0,1,.56.25.74.74,0,0,1,.16.59c-.69,3.75-2.43,16.45,3.81,22.29,8.26,7.72,12,8.85,16.91,5,2.18-1.72,3.12-3.08,2.95-4.27-.28-2-3.52-4.09-10.21-6.76-3.71-1.47-4.47-8.36-5.14-14.43-.12-1.08-.24-2.13-.37-3.11a.72.72,0,0,1,.42-.75c.58-.26,2.68-1,5.33-1.86,2.93-1,6.24-2.11,8.19-2.86a.71.71,0,0,1,.89.37c2.33,5.06,5.12,10.26,11.14,13.29,11.43,5.77,16.37,3.45,17.39,1.42a6.84,6.84,0,0,0-.12-6c-1.83-3.35-6.79-5.51-14.36-6.25-4.58-.45-7.31-1.43-8.58-3.09a4.23,4.23,0,0,1-.76-3.41.77.77,0,0,1,.21-.41,16.17,16.17,0,0,0,5.14-13.16,32.3,32.3,0,0,0-2.09-8.64,66.91,66.91,0,0,0-5.77-10.79c-.51-.8-.94-1.49-1.25-2-5.95-10.29-14.1-24.38-18.56-39.86-8.1-28.09-4.06-57,13.13-93.67C137.16,382.51,127.6,370.27,125.06,367.22ZM89,596a10.47,10.47,0,0,1-4.36-1.42c-5.56-3.26-8.74-11.22-9.79-17-.91-5.11,4.06-7.51,9.32-10.06,3.48-1.68,7.07-3.42,9.13-6-4.72-5-9.63-20-12.61-38.68-3.3-20.69-3.42-40.92-.3-54.11,13.52-57.3,43.76-102.62,44.06-103.07a.73.73,0,0,1,.54-.31.71.71,0,0,1,.58.23c.56.64,13.8,15.69,9.57,24.7-17,36.35-21,64.93-13,92.66,4.41,15.31,12.51,29.32,18.42,39.54.31.53.73,1.2,1.23,2a67.93,67.93,0,0,1,5.87,11,31.82,31.82,0,0,1,2.19,9.26,17.39,17.39,0,0,1-5.38,14,2.77,2.77,0,0,0,.5,2.09c1,1.28,3.55,2.14,7.61,2.54,8.17.8,13.37,3.15,15.45,7a8.19,8.19,0,0,1,.15,7.38c-1.33,2.66-6.88,5.48-19.29-.78-6.61-3.33-9.67-9.41-11.51-13.37-2,.75-5,1.75-7.62,2.64-1.95.66-3.81,1.28-4.72,1.62.1.83.2,1.7.29,2.59.6,5.39,1.34,12.1,4.26,13.26,7.4,2.95,10.72,5.31,11.09,7.89.26,1.77-.82,3.5-3.48,5.6-6.09,4.81-11.1,2.06-18.74-5.09-6.24-5.84-5.29-17.26-4.39-22.74a33.39,33.39,0,0,1-9.4-1.18l-1.85.61c-5.93,1.95-12.07,4-11.1,10,.36,2.24,2.16,4.35,3.89,6.38,1.93,2.27,3.75,4.41,3.19,6.53-.4,1.53-1.93,2.72-4.8,3.74A11.66,11.66,0,0,1,89,596Z"/><path id="Fill-63" class="cls-9" d="M130.35,397.92l-.2,0a.71.71,0,0,1-.58-.79.72.72,0,0,1,.78-.6c.42.06,10.15,1.32,12.78-10.9a.69.69,0,1,1,1.34.29c-2.69,12.52-12.58,12.15-14.12,12"/><path id="Fill-64" class="cls-9" d="M125,367.33a.79.79,0,0,1-.54-.29.7.7,0,0,1,.15-1,113.33,113.33,0,0,1,24.71-13.54.76.76,0,0,1,1,.39.71.71,0,0,1-.4.94,112.09,112.09,0,0,0-24.38,13.37.81.81,0,0,1-.51.14"/><path id="Fill-65" class="cls-9" d="M183.4,534.11A66.94,66.94,0,0,1,174,532.6c-17.83-4.11-31.35-13.7-40.19-28.48-22.36-37.44-7.29-96.58-7.14-97.17a.72.72,0,0,1,.87-.51.7.7,0,0,1,.5.87c-.15.59-15.06,59.16,7,96.07,8.63,14.44,21.84,23.8,39.28,27.83,21.88,5,41.48-1.19,56.69-18,27.32-30.28,36.51-92,21-140.63a122.2,122.2,0,0,0-30.55-17.37.71.71,0,0,1-.4-.93.7.7,0,0,1,.91-.4,122.44,122.44,0,0,1,31.1,17.73.63.63,0,0,1,.22.33c15.78,49.1,6.47,111.57-21.2,142.23-13.37,14.81-30.05,21.61-48.68,20"/><path id="Fill-67" class="cls-9" d="M198.23,469.17a.72.72,0,0,1-.63-.54c-3.54-14.15-11-19.09-18.81-24.33-7.33-4.88-14.9-9.92-20.76-22.34-11.83-25.08-27.26-19.92-27.9-19.69a.72.72,0,0,1-.91-.44.74.74,0,0,1,.43-.92c.18-.06,17.25-5.88,29.66,20.43,5.69,12.05,13.09,17,20.26,21.76,8.09,5.39,15.73,10.48,19.4,25.17a.72.72,0,0,1-.51.88.93.93,0,0,1-.23,0"/><path id="Fill-69" class="cls-9" d="M157,436.41a2.88,2.88,0,0,1-.94-.23,2.78,2.78,0,0,1-1.57-3.72c.48-1,4.93-10.32,12.85-12a3,3,0,0,1,3.62,2.11,2.78,2.78,0,0,1-2.2,3.38c-4.28.94-7.85,6.85-8.77,8.85a3,3,0,0,1-3,1.66"/><path id="Fill-70" class="cls-9" d="M133.48,418.27a2.73,2.73,0,0,1-2.25-1.67,3.05,3.05,0,0,1,1.35-3.91l22.33-11.2a2.64,2.64,0,0,1,3.64,1.4,3.05,3.05,0,0,1-1.35,3.91L134.87,418a2.55,2.55,0,0,1-1.39.27"/><path id="Fill-73" class="cls-9" d="M241.49,613.53a15.72,15.72,0,0,1-4.74-1.16c-3.58-1.52-6.09-4.39-6.23-7.13a4.31,4.31,0,0,1,2.43-4.1,43.59,43.59,0,0,1,8.08-3c6.79-2.08,14.49-4.44,20.48-12.82-5.15-1.22-29.12-7.72-36-24-3.5-8.32-2-17.88,4.38-28.4,24.05-39.53,25.39-67.38,25.4-67.66a.72.72,0,0,1,.74-.69.7.7,0,0,1,.69.75c0,.28-1.35,28.47-25.61,68.34-6.15,10.11-7.59,19.23-4.28,27.11,6.66,15.84,30.44,22.13,35.14,23.24a1.33,1.33,0,0,1,.78,2.07c-6.29,8.86-14.62,11.41-21.32,13.47a42.9,42.9,0,0,0-7.81,2.93,2.88,2.88,0,0,0-1.68,2.77c.11,2.17,2.31,4.59,5.35,5.89s11,3.23,21.36-5.8C284.14,583,293.78,545.36,289,486.74c-5.82-71.75-36-114.54-36.3-115a.71.71,0,0,1,.16-1,.72.72,0,0,1,1,.16c.31.43,30.72,43.55,36.57,115.69,4.79,59.11-5,97.15-30.85,119.71-7.4,6.46-13.77,7.57-18.12,7.19"/><path id="Fill-79" class="cls-9" d="M232,531.38a.72.72,0,0,1,0-1.42c.35-.05,35.05-5.82,39.71-55.74,4.71-50.35-6.13-78.09-6.24-78.37a.71.71,0,0,1,.38-.93.69.69,0,0,1,.91.38c.11.29,2.82,7.13,5,20.35,2,12.16,3.83,32.23,1.36,58.71-2.49,26.65-13.45,40.73-22.21,47.85-9.52,7.73-18.33,9.11-18.7,9.17H232"/></g><g id="Group"><path id="Fill-12-2" data-name="Fill-12" class="cls-13" d="M1133.65,210.56a35.33,35.33,0,0,0,18.54,10.61c12.51,2.76,25.5-1.11,35.51-9.36,5.55,5.16,23.9,20.56,45.62,21.07a.67.67,0,0,0,.72-.57c0-.37,2.67-35.68-30.27-45.65a46.25,46.25,0,0,0,1.38-8.16c11.19-.56,20.93-2.57,24.36-7.47,10.42-14.87,1.27-59.73-10.75-96.75-18-55.5-56.64-77.81-61.49-79-1.75-.44-3-.29-3.7.45-1.45,1.54.37,4.85.75,5.5a.76.76,0,0,0,.86.3.61.61,0,0,0,.46-.7c-.54-2.48-.21-2.87-.19-2.89a1.87,1.87,0,0,1,.79.15c.67.22,2.91,1.27,3.6,5.92.8,5.3-2.15,9.91-3.45,11.63-11-14.9-20.25-22.74-26.84-22.74-4,.19-5.33,2.6-5.39,2.7a.56.56,0,0,0,.21.75.78.78,0,0,0,.89,0c1.3-1,3.15-2,4.6-1.33,2.22,1,3.12,5.6,2.25,11.37-1.34,8.88-10.77,12.23-10.87,12.26a.6.6,0,0,0-.41.76c10.44,28.86,1.92,88.38-17.87,124.89-4.38,8.07-4.49,14.77-.35,19.91,4.36,5.41,12.84,8.41,21.93,10a44.82,44.82,0,0,0-.87,6c-42.63,10.35-42.45,38.6-42.45,38.89a.62.62,0,0,0,.42.54,2.67,2.67,0,0,1,1.09.6c-.13.34-1.7.94-3.25,1.24a.63.63,0,0,0-.55.62.64.64,0,0,0,.6.58C1107.39,226.38,1128.82,213.72,1133.65,210.56Z"/><path id="Fill-13" class="cls-14" d="M1141.14,181.44c1-2,7.19-2.54,23.64-.88,10.74,1.09,14.6,2.86,15.87,4.27l.58,0s-1.68-6.47-18.76-6.89-20.44.33-21.47,3.44h.14"/><path id="Fill-14" class="cls-14" d="M1194,159.88s8.83-40.94-.12-78.81-27.36-62.5-27.36-62.5,33.67,36.48,42.27,72.2c0,0-9.24-50-50.3-89.89h0a11.8,11.8,0,0,1,.85,3.07c.79,5.32-2.14,9.94-3.43,11.66,31.72,42.42,38.59,91.26,39.08,121.21a96.28,96.28,0,0,1-1,23.06"/><path id="Fill-16-2" data-name="Fill-16" class="cls-14" d="M1102.67,164.77c4.41,5.43,13,8.44,22.16,10.07-.1.48-.17.95-.26,1.42h0l-.67,4.61s-13.14,6.75-13.85,19.13,21.81,7.25,21.81,7.25l2.61,4.59A35.81,35.81,0,0,0,1152.76,222a39.09,39.09,0,0,0,15.83.14l-3.52-.72s-17.41-2.62-24.56-25.78a14.08,14.08,0,0,0,7-1.27s-4-.6-7.6-1a78,78,0,0,1-2.37-20s-12-3-14-1.33c-8.56-3.66,12.45-12.24,12.45-12.24-27.47,4.93-11.55-24-5.36-53.43s2.19-69.87,2.19-69.87c20.76,39.25,21.84,95.77,21.84,95.77C1169.84,86.41,1132.76.88,1132.76.88a25.54,25.54,0,0,1-.29,5.45c-1.35,8.91-10.88,12.27-11,12.3a.6.6,0,0,0-.42.76c10.54,29,1.94,88.74-18.06,125.39-4.42,8.1-4.54,14.83-.35,20"/><path id="Fill-17-2" data-name="Fill-17" class="cls-15" d="M1152.49,194.77s-12.79,6.69-21.63-.89c0,0-2.51,7.48,9.92,8s11.71-7.09,11.71-7.09"/><path id="Fill-18-2" data-name="Fill-18" class="cls-16" d="M1135.37,196c0-.11,0-.21,0-.32a14,14,0,0,1-4.53-2.83s-1.91,6.12,5.89,8l2-.14s-3.92-1.35-3.33-4.71"/><path id="Fill-19-2" data-name="Fill-19" class="cls-15" d="M1185.83,197.84s-9.87,5.12-19.38-1c0,0-2,6.28,8.32,7s11.06-6,11.06-6"/><path id="Fill-20-2" data-name="Fill-20" class="cls-15" d="M1149,178.3s-1-4-4-5.42c0,0-2.38,1.76-2.87,6"/><path id="Fill-21" class="cls-15" d="M1178.54,182.88a9.56,9.56,0,0,0-.65-7,7.38,7.38,0,0,0-3.56,5.49"/><path id="Fill-22" class="cls-9" d="M1177.85,200.88a21.29,21.29,0,0,1-10.15-2.49,4,4,0,0,0,1.06,3c1.29,1.38,3.7,2.2,7.16,2.41,7.45.45,9.78-2.66,10.5-4.38A25.91,25.91,0,0,1,1177.85,200.88Zm-10.69-4a.82.82,0,0,1,.43.12c9.43,5.7,19.05,1.12,19.46.92a.91.91,0,0,1,.74,0,.51.51,0,0,1,.33.51c0,.07-1,7.11-12.32,6.41-3.9-.24-6.65-1.21-8.19-2.87a4.84,4.84,0,0,1-1.13-4.68.64.64,0,0,1,.45-.37A.85.85,0,0,1,1167.16,196.88Z"/><path id="Fill-23" class="cls-9" d="M1141.19,197a13.89,13.89,0,0,1-9.25-3.29,5.8,5.8,0,0,0,1.08,3.86c1.39,1.83,4,2.85,7.83,3s6.72-.61,8.48-2.34a6.59,6.59,0,0,0,1.84-3.78A23.44,23.44,0,0,1,1141.19,197Zm-9.71-5.16a.66.66,0,0,1,.46.19c7.87,7.86,19.1,1.17,19.57.88a.63.63,0,0,1,.62,0,.58.58,0,0,1,.35.49,7.7,7.7,0,0,1-2.23,5.72c-2,2-5.2,2.92-9.46,2.72s-7.18-1.38-8.8-3.54a7.3,7.3,0,0,1-1.12-6,.63.63,0,0,1,.46-.43Z"/><path id="Fill-24-2" data-name="Fill-24" class="cls-9" d="M1137.8,195.88l.22,0c.48.08.77.43.65.77L1137,201.4a1,1,0,0,1-1.09.46c-.48-.08-.77-.43-.65-.77l1.65-4.73a.89.89,0,0,1,.87-.48"/><path id="Fill-25" class="cls-9" d="M1172.29,197.88l.23,0c.47.09.76.45.63.8l-1.66,4.69a.94.94,0,0,1-1.09.47c-.47-.1-.76-.45-.64-.81l1.67-4.68a.89.89,0,0,1,.86-.49"/><path id="Fill-26" class="cls-9" d="M1149.14,177.88c3.59,0,8.64.26,15.8.92,10.36.94,16.17,2.6,17.26,4.92a1.77,1.77,0,0,1-.27,1.95.76.76,0,0,1-1,.08.54.54,0,0,1-.09-.82.72.72,0,0,0,0-.8c-.43-.85-2.85-3-16.15-4.18-5.29-.48-21.41-1.94-23.42.34-.14.16-.3.45,0,1.05a.56.56,0,0,1-.39.75.71.71,0,0,1-.87-.33,1.91,1.91,0,0,1,.21-2.18c.82-.92,2.66-1.7,8.84-1.7"/><path id="Fill-27" class="cls-9" d="M1144.47,173.88a.9.9,0,0,1,.36.08c3.08,1.52,4.15,5.48,4.2,5.65a.59.59,0,0,1-.55.69.72.72,0,0,1-.84-.44s-.87-3.18-3.06-4.61a8.89,8.89,0,0,0-2.16,5.1.74.74,0,0,1-.78.53.64.64,0,0,1-.64-.64,9.15,9.15,0,0,1,3-6.21.81.81,0,0,1,.48-.15"/><path id="Fill-28-2" data-name="Fill-28" class="cls-9" d="M1177,176.88a.68.68,0,0,1,.57.28,8.19,8.19,0,0,1,.84,7.35.69.69,0,0,1-.83.34.52.52,0,0,1-.4-.69,7.53,7.53,0,0,0-.43-5.95c-1,.61-3.16,2.16-3.42,4.68a.64.64,0,0,1-.71.5.58.58,0,0,1-.59-.59c.4-3.94,4.49-5.78,4.66-5.86a.85.85,0,0,1,.31-.06"/><path id="Fill-29-2" data-name="Fill-29" class="cls-9" d="M1111.59,184.88a.7.7,0,0,1,.46.16.52.52,0,0,1,0,.81c-9.95,9.28-5.6,21.15-5.56,21.27a.56.56,0,0,1-.42.73.69.69,0,0,1-.84-.37c0-.12-4.64-12.64,5.84-22.41a.69.69,0,0,1,.49-.19"/><path id="Fill-30-2" data-name="Fill-30" class="cls-9" d="M1103.5,188.88a.86.86,0,0,1,.47.14.51.51,0,0,1,.07.82c-10.68,10.1-9.89,24.29-9.88,24.43a.64.64,0,0,1-.67.61.67.67,0,0,1-.75-.55c0-.15-.84-14.79,10.23-25.25a.78.78,0,0,1,.53-.2"/><path id="Fill-31-2" data-name="Fill-31" class="cls-9" d="M1211.64,191.88a.53.53,0,0,1,.46.3c7.62,15.24.88,22.26.59,22.55a.5.5,0,0,1-.74,0,.62.62,0,0,1,0-.81,10.65,10.65,0,0,0,2.33-5.08c.66-3.17.65-8.53-3.13-16.09a.6.6,0,0,1,.21-.77.45.45,0,0,1,.25-.07"/><path id="Fill-32-2" data-name="Fill-32" class="cls-9" d="M1215.25,197.88a.74.74,0,0,1,.59.26c9.44,12.28,4.15,23.28,4.09,23.39a.73.73,0,0,1-.89.31.53.53,0,0,1-.38-.74c0-.11,5.07-10.59-4-22.35a.51.51,0,0,1,.22-.78.77.77,0,0,1,.36-.09"/><path id="Fill-33-2" data-name="Fill-33" class="cls-9" d="M1177.85,200.88a21.29,21.29,0,0,1-10.15-2.49,4,4,0,0,0,1.06,3c1.29,1.38,3.7,2.2,7.16,2.41,7.45.45,9.78-2.66,10.5-4.38A25.91,25.91,0,0,1,1177.85,200.88Zm-10.69-4a.82.82,0,0,1,.43.12c9.43,5.7,19.05,1.12,19.46.92a.91.91,0,0,1,.74,0,.51.51,0,0,1,.33.51c0,.07-1,7.11-12.32,6.41-3.9-.24-6.65-1.21-8.19-2.87a4.84,4.84,0,0,1-1.13-4.68.64.64,0,0,1,.45-.37A.85.85,0,0,1,1167.16,196.88Z"/><path id="Fill-34-2" data-name="Fill-34" class="cls-9" d="M1155.82,16.76h0a.67.67,0,0,1-.55-.27C1141.57-2.07,1133.43-6,1129-6h-.37a5.3,5.3,0,0,0-4.42,2.36c2.15-1.53,4-2,5.41-1.35,2.49,1.15,3.51,5.85,2.58,11.94-1.38,9.15-11.16,12.68-11.26,12.71,10.44,29,1.92,88.69-17.91,125.28-4.26,7.87-4.4,14.37-.4,19.33,3.71,4.61,10.94,7.9,21.5,9.79a.58.58,0,0,1,.51.67,48.34,48.34,0,0,0-.81,5.27,1.58,1.58,0,0,1-1.26,1.34c-41.22,10.33-41.19,37.84-41.19,38.12a3.77,3.77,0,0,1,1.32.75l.06.06a.53.53,0,0,1,.1.52c-.36.95-3.7,1.61-3.73,1.62l-.1.65.1-.57c27.85,3.72,49.5-9.34,53.56-12a.73.73,0,0,1,.92.1,34.81,34.81,0,0,0,18.16,10.41c11.87,2.61,24.57-.74,34.85-9.22a.91.91,0,0,1,.48-.15.7.7,0,0,1,.46.18c5.13,4.76,23.53,20.36,45.11,20.87.07-.39,2.71-35.25-29.76-45.08a.55.55,0,0,1-.42-.67,46,46,0,0,0,1.36-8.06.62.62,0,0,1,.62-.53c12.91-.65,20.92-3.07,23.81-7.2,10.29-14.7,1.16-59.35-10.82-96.23-17.93-55.22-56.15-77.37-61-78.58-1.47-.36-2.48-.27-3,.27-1,1,0,3.55.83,4.86-.51-2.71-.13-3.19,0-3.35a.67.67,0,0,1,.34-.22,2.14,2.14,0,0,1,1.22.17c1,.31,3.31,1.55,4,6.37.82,5.49-2.21,10.23-3.55,12A.69.69,0,0,1,1155.82,16.76ZM1129-7.12c6.69,0,16,7.68,26.79,22.22,1.38-2,3.48-6,2.81-10.47s-2.76-5.31-3.18-5.44h0a11.8,11.8,0,0,0,.31,2.1,1.17,1.17,0,0,1-.9,1.34,1.44,1.44,0,0,1-1.66-.58c-.58-1-2.35-4.36-.67-6.12.89-.93,2.36-1.15,4.38-.64,4.9,1.23,43.78,23.65,61.88,79.37,12,37.11,21.18,82.12,10.67,97.14-3.08,4.41-11.25,7-24.28,7.71a46.62,46.62,0,0,1-1.23,7.24c32.84,10.34,30.16,45.68,30.13,46a1.3,1.3,0,0,1-1.36,1.1c-21.53-.51-39.84-15.54-45.62-20.82-10.53,8.47-23.48,11.78-35.61,9.1A36.14,36.14,0,0,1,1133,211.79c-6.45,4.12-27.14,15.47-54,11.87a1.25,1.25,0,0,1-1.16-1.13,1.23,1.23,0,0,1,1.06-1.2,12.2,12.2,0,0,0,2.26-.66l-.21-.09a1.19,1.19,0,0,1-.82-1.06c0-.29-.16-28.64,42.14-39.24a.42.42,0,0,0,.32-.33,42.79,42.79,0,0,1,.71-4.84c-10.55-2-17.85-5.38-21.69-10.14-4.28-5.32-4.18-12.21.3-20.48,19.71-36.37,28.2-95.66,17.81-124.39a1.16,1.16,0,0,1,.81-1.46c.08,0,9.15-3.33,10.43-11.8.92-6.07-.26-10-1.9-10.78-1.17-.55-2.91.55-3.84,1.26a1.52,1.52,0,0,1-1.73,0,1.1,1.1,0,0,1-.4-1.46,6.69,6.69,0,0,1,5.54-3Z"/><path id="Fill-35-2" data-name="Fill-35" class="cls-9" d="M1155.34,14.88a.69.69,0,0,1,.55.26c49.13,65.6,38.12,145.54,38,146.34-1.48,10.12-24.25,11.08-43.08,10.1a.61.61,0,0,1-.62-.61.63.63,0,0,1,.7-.54c15,.78,40.27.63,41.69-9.1.12-.79,11.08-80.31-37.79-145.56a.54.54,0,0,1,.19-.8.77.77,0,0,1,.36-.09"/><path id="Fill-36-2" data-name="Fill-36" class="cls-9" d="M1137.13,170.88h.08c1.61.09,3.44.19,5.43.28.4,0,.69.2.65.4s-.4.33-.79.32l-5.45-.28c-.4,0-.69-.21-.65-.4s.36-.32.73-.32"/><path id="Fill-37-2" data-name="Fill-37" class="cls-9" d="M1131.34,168.88h.11l2,.18c.38,0,.65.24.59.46s-.4.39-.77.35l-2.08-.17c-.38,0-.64-.25-.58-.47s.35-.35.68-.35"/><path id="Fill-38-2" data-name="Fill-38" class="cls-14" d="M1203.41,190.88s-5.64,13-10.69,17.91c0,0,14.08,11.45,17.66,0s-7-17.91-7-17.91"/><path id="Fill-39" class="cls-14" d="M1183.53,194.75s-6.93,5.18-12.65-.62c0,0,8.54-.86,12.65.62"/><path id="Fill-40" class="cls-9" d="M1165.88,207.88a.77.77,0,0,1,.68.35,4.51,4.51,0,0,0,3,2.36c3.1.71,7-1.28,7-1.3a.88.88,0,0,1,1,.15.49.49,0,0,1-.19.79c-.18.1-4.51,2.32-8.28,1.45a5.87,5.87,0,0,1-4-3,.54.54,0,0,1,.4-.75.92.92,0,0,1,.29,0"/><path id="Fill-41-2" data-name="Fill-41" class="cls-9" d="M1150.61,207.88a1,1,0,0,1,.3.05.55.55,0,0,1,.37.77,5.94,5.94,0,0,1-4.08,3c-3.79.82-8-1.56-8.19-1.66a.5.5,0,0,1-.17-.81.87.87,0,0,1,1-.14s3.84,2.15,7,1.48a4.56,4.56,0,0,0,3.11-2.36.8.8,0,0,1,.68-.34"/></g><g id="WeHo-Logo"><g id="Logo---City-of-West-Hollywood"><g id="Group-75"><g id="Fill-37-Clipped"><g class="cls-17"><polygon id="Fill-37-3" data-name="Fill-37" class="cls-18" points="169.17 175 153.64 169.52 148.15 185.05 163.68 190.54 169.17 175"/></g></g><g id="Fill-38-Clipped"><g class="cls-17"><polygon id="Fill-38-3" data-name="Fill-38" class="cls-18" points="176.03 155.76 160.5 150.27 155.01 165.8 170.54 171.29 176.03 155.76"/></g></g><g id="Fill-39-Clipped"><g class="cls-17"><polygon id="Fill-39-2" data-name="Fill-39" class="cls-18" points="156.96 149.01 141.43 143.52 135.94 159.06 151.46 164.55 156.96 149.01"/></g></g><g id="Fill-40-Clipped"><g class="cls-17"><polygon id="Fill-40-2" data-name="Fill-40" class="cls-18" points="150.29 167.88 134.76 162.39 129.27 177.93 144.79 183.41 150.29 167.88"/></g></g><g id="Fill-41-Clipped"><g class="cls-17"><polygon id="Fill-41-3" data-name="Fill-41" class="cls-18" points="117.59 198.97 102.06 193.48 96.57 209.02 112.09 214.5 117.59 198.97"/></g></g><g id="Fill-42-Clipped"><g class="cls-17"><polygon id="Fill-42-2" data-name="Fill-42" class="cls-18" points="124.37 179.94 108.84 174.45 103.35 189.99 118.88 195.48 124.37 179.94"/></g></g><g id="Fill-43-Clipped"><g class="cls-17"><polygon id="Fill-43-2" data-name="Fill-43" class="cls-18" points="98.47 192.51 82.94 187.02 77.45 202.56 92.97 208.04 98.47 192.51"/></g></g><g id="Fill-44-Clipped"><g class="cls-17"><polygon id="Fill-44-2" data-name="Fill-44" class="cls-18" points="131.18 161.07 115.65 155.59 110.16 171.12 125.68 176.61 131.18 161.07"/></g></g><g id="Fill-45-Clipped"><g class="cls-17"><polygon id="Fill-45" class="cls-18" points="137.88 142.27 122.35 136.78 116.86 152.32 132.39 157.81 137.88 142.27"/></g></g><g id="Fill-46-Clipped"><g class="cls-17"><polygon id="Fill-46-2" data-name="Fill-46" class="cls-18" points="60.47 178.58 44.94 173.09 39.45 188.62 54.98 194.11 60.47 178.58"/></g></g><g id="Fill-47-Clipped"><g class="cls-17"><polygon id="Fill-47-2" data-name="Fill-47" class="cls-18" points="41.28 171.99 25.76 166.5 20.26 182.04 35.79 187.53 41.28 171.99"/></g></g><g id="Fill-48-Clipped"><g class="cls-17"><polygon id="Fill-48-2" data-name="Fill-48" class="cls-18" points="47.92 153.37 32.4 147.88 26.9 163.41 42.43 168.9 47.92 153.37"/></g></g><g id="Fill-49-Clipped"><g class="cls-17"><polygon id="Fill-49" class="cls-18" points="29.07 146.7 13.54 141.21 8.05 156.75 23.58 162.24 29.07 146.7"/></g></g><g id="Fill-50-Clipped"><g class="cls-17"><polygon id="Fill-50" class="cls-18" points="22.54 165.17 7.01 159.68 1.52 175.22 17.05 180.71 22.54 165.17"/></g></g><g id="Fill-51-Clipped"><g class="cls-17"><polygon id="Fill-51-2" data-name="Fill-51" class="cls-18" points="3.31 158.87 -12.22 153.38 -17.71 168.92 -2.18 174.41 3.31 158.87"/></g></g><g id="Fill-54-Clipped"><g class="cls-17"><polygon id="Fill-54-2" data-name="Fill-54" class="cls-18" points="66.13 223.68 50.6 218.19 45.11 233.72 60.64 239.21 66.13 223.68"/></g></g><g id="Fill-55-Clipped"><g class="cls-17"><polygon id="Fill-55-2" data-name="Fill-55" class="cls-18" points="34.46 191.3 18.93 185.81 13.44 201.35 28.96 206.84 34.46 191.3"/></g></g><g id="Fill-56-Clipped"><g class="cls-17"><polygon id="Fill-56-2" data-name="Fill-56" class="cls-18" points="15.38 184.56 -0.14 179.07 -5.64 194.61 9.89 200.1 15.38 184.56"/></g></g><g id="Fill-57-Clipped"><g class="cls-17"><polygon id="Fill-57" class="cls-18" points="47.09 216.99 31.56 211.5 26.07 227.04 41.59 232.53 47.09 216.99"/></g></g><g id="Fill-61-Clipped"><g class="cls-17"><polygon id="Fill-61" class="cls-18" points="182.76 136.56 167.23 131.07 161.74 146.61 177.27 152.1 182.76 136.56"/></g></g><g id="Fill-62-Clipped"><g class="cls-17"><polygon id="Fill-62" class="cls-18" points="163.72 129.88 148.19 124.39 142.7 139.93 158.23 145.42 163.72 129.88"/></g></g><g id="Fill-63-Clipped"><g class="cls-17"><polygon id="Fill-63-2" data-name="Fill-63" class="cls-18" points="144.86 123.22 129.34 117.73 123.84 133.26 139.37 138.75 144.86 123.22"/></g></g><g id="Fill-64-Clipped"><g class="cls-17"><polygon id="Fill-64-2" data-name="Fill-64" class="cls-18" points="119.04 135.56 103.51 130.07 98.02 145.61 113.55 151.1 119.04 135.56"/></g></g><g id="Fill-65-Clipped"><g class="cls-17"><polygon id="Fill-65-2" data-name="Fill-65" class="cls-18" points="91.91 211.61 76.38 206.12 70.89 221.66 86.41 227.15 91.91 211.61"/></g></g><g id="Fill-66-Clipped"><g class="cls-17"><polygon id="Fill-66" class="cls-18" points="86.03 166.84 70.5 161.35 65.01 176.88 80.53 182.37 86.03 166.84"/></g></g><g id="Fill-67-Clipped"><g class="cls-17"><polygon id="Fill-67-2" data-name="Fill-67" class="cls-18" points="79.36 185.7 63.83 180.21 58.34 195.75 73.86 201.24 79.36 185.7"/></g></g><g id="Fill-68-Clipped"><g class="cls-17"><polygon id="Fill-68" class="cls-18" points="72.61 204.79 57.08 199.3 51.59 214.84 67.12 220.33 72.61 204.79"/></g></g><g id="Fill-69-Clipped"><g class="cls-17"><polygon id="Fill-69-2" data-name="Fill-69" class="cls-18" points="53.53 198.05 38.01 192.56 32.51 208.09 48.04 213.58 53.53 198.05"/></g></g><g id="Fill-70-Clipped"><g class="cls-17"><polygon id="Fill-70-2" data-name="Fill-70" class="cls-18" points="174.69 219.07 159.17 213.58 153.67 229.12 169.2 234.61 174.69 219.07"/></g></g><g id="Fill-71-Clipped"><g class="cls-17"><polygon id="Fill-71" class="cls-18" points="155.84 212.41 140.31 206.92 134.82 222.45 150.35 227.94 155.84 212.41"/></g></g><g id="Fill-72-Clipped"><g class="cls-17"><polygon id="Fill-72" class="cls-18" points="162.62 193.38 147.09 187.89 141.6 203.43 157.13 208.92 162.62 193.38"/></g></g><g id="Fill-73-Clipped"><g class="cls-17"><polygon id="Fill-73-2" data-name="Fill-73" class="cls-18" points="143.54 186.64 128.02 181.15 122.53 196.68 138.05 202.17 143.54 186.64"/></g></g><g id="Fill-74-Clipped"><polygon id="Fill-74" class="cls-18" points="136.72 205.95 121.19 200.46 115.7 215.99 131.23 221.48 136.72 205.95"/></g></g></g></g><g id="WeHo-Logo-2" data-name="WeHo-Logo"><g id="Logo---City-of-West-Hollywood-2" data-name="Logo---City-of-West-Hollywood"><g id="Group-75-2" data-name="Group-75"><g id="Fill-37-Clipped-2" data-name="Fill-37-Clipped"><g class="cls-19"><polygon id="Fill-37-4" data-name="Fill-37" class="cls-18" points="421.95 136.33 433.2 124.3 421.16 113.05 409.91 125.08 421.95 136.33"/></g></g><g id="Fill-38-Clipped-2" data-name="Fill-38-Clipped"><g class="cls-19"><polygon id="Fill-38-4" data-name="Fill-38" class="cls-18" points="436.85 150.33 448.09 138.3 436.05 127.04 424.81 139.07 436.85 150.33"/></g></g><g id="Fill-39-Clipped-2" data-name="Fill-39-Clipped"><g class="cls-19"><polygon id="Fill-39-3" data-name="Fill-39" class="cls-18" points="450.66 135.55 461.91 123.52 449.87 112.26 438.62 124.29 450.66 135.55"/></g></g><g id="Fill-40-Clipped-2" data-name="Fill-40-Clipped"><g class="cls-19"><polygon id="Fill-40-3" data-name="Fill-40" class="cls-18" points="436.04 121.88 447.29 109.85 435.25 98.6 424.01 110.63 436.04 121.88"/></g></g><g id="Fill-41-Clipped-2" data-name="Fill-41-Clipped"><g class="cls-19"><polygon id="Fill-41-4" data-name="Fill-41" class="cls-18" points="420.65 79.47 431.89 67.44 419.86 56.19 408.61 68.22 420.65 79.47"/></g></g><g id="Fill-42-Clipped-2" data-name="Fill-42-Clipped"><g class="cls-19"><polygon id="Fill-42-3" data-name="Fill-42" class="cls-18" points="435.37 93.3 446.62 81.27 434.58 70.02 423.33 82.05 435.37 93.3"/></g></g><g id="Fill-43-Clipped-2" data-name="Fill-43-Clipped"><g class="cls-19"><polygon id="Fill-43-3" data-name="Fill-43" class="cls-18" points="434.22 64.54 445.47 52.51 433.43 41.25 422.19 53.28 434.22 64.54"/></g></g><g id="Fill-44-Clipped-2" data-name="Fill-44-Clipped"><g class="cls-19"><polygon id="Fill-44-3" data-name="Fill-44" class="cls-18" points="449.93 107.09 461.18 95.06 449.14 83.81 437.89 95.84 449.93 107.09"/></g></g><g id="Fill-45-Clipped-2" data-name="Fill-45-Clipped"><g class="cls-19"><polygon id="Fill-45-2" data-name="Fill-45" class="cls-18" points="464.48 120.77 475.73 108.74 463.69 97.48 452.44 109.51 464.48 120.77"/></g></g><g id="Fill-46-Clipped-2" data-name="Fill-46-Clipped"><g class="cls-19"><polygon id="Fill-46-3" data-name="Fill-46" class="cls-18" points="462.2 35.3 473.45 23.27 461.41 12.01 450.16 24.04 462.2 35.3"/></g></g><g id="Fill-47-Clipped-2" data-name="Fill-47-Clipped"><g class="cls-19"><polygon id="Fill-47-3" data-name="Fill-47" class="cls-18" points="475.92 20.35 487.16 8.32 475.12 -2.93 463.88 9.1 475.92 20.35"/></g></g><g id="Fill-48-Clipped-2" data-name="Fill-48-Clipped"><g class="cls-19"><polygon id="Fill-48-3" data-name="Fill-48" class="cls-18" points="490.33 33.89 501.57 21.86 489.53 10.61 478.29 22.64 490.33 33.89"/></g></g><g id="Fill-49-Clipped-2" data-name="Fill-49-Clipped"><g class="cls-19"><polygon id="Fill-49-2" data-name="Fill-49" class="cls-18" points="503.98 19.28 515.23 7.25 503.19 -4 491.94 8.03 503.98 19.28"/></g></g><g id="Fill-50-Clipped-2" data-name="Fill-50-Clipped"><g class="cls-19"><polygon id="Fill-50-2" data-name="Fill-50" class="cls-18" points="489.67 5.91 500.92 -6.12 488.88 -17.38 477.64 -5.34 489.67 5.91"/></g></g><g id="Fill-54-Clipped-2" data-name="Fill-54-Clipped"><g class="cls-19"><polygon id="Fill-54-3" data-name="Fill-54" class="cls-18" points="418.61 22.42 429.86 10.39 417.82 -0.86 406.57 11.17 418.61 22.42"/></g></g><g id="Fill-55-Clipped-2" data-name="Fill-55-Clipped"><g class="cls-19"><polygon id="Fill-55-3" data-name="Fill-55" class="cls-18" points="460.95 6.36 472.2 -5.67 460.16 -16.92 448.92 -4.89 460.95 6.36"/></g></g><g id="Fill-57-Clipped-2" data-name="Fill-57-Clipped"><g class="cls-19"><polygon id="Fill-57-2" data-name="Fill-57" class="cls-18" points="432.36 7.65 443.61 -4.38 431.57 -15.63 420.32 -3.6 432.36 7.65"/></g></g><g id="Fill-61-Clipped-2" data-name="Fill-61-Clipped"><g class="cls-19"><polygon id="Fill-61-2" data-name="Fill-61" class="cls-18" points="451.74 164.18 462.98 152.15 450.95 140.89 439.7 152.92 451.74 164.18"/></g></g><g id="Fill-62-Clipped-2" data-name="Fill-62-Clipped"><g class="cls-19"><polygon id="Fill-62-2" data-name="Fill-62" class="cls-18" points="465.49 149.4 476.73 137.37 464.69 126.12 453.45 138.15 465.49 149.4"/></g></g><g id="Fill-63-Clipped-2" data-name="Fill-63-Clipped"><g class="cls-19"><polygon id="Fill-63-3" data-name="Fill-63" class="cls-18" points="479.14 134.8 490.39 122.77 478.35 111.51 467.1 123.54 479.14 134.8"/></g></g><g id="Fill-64-Clipped-2" data-name="Fill-64-Clipped"><g class="cls-19"><polygon id="Fill-64-3" data-name="Fill-64" class="cls-18" points="478.17 106.19 489.42 94.16 477.38 82.91 466.13 94.94 478.17 106.19"/></g></g><g id="Fill-65-Clipped-2" data-name="Fill-65-Clipped"><g class="cls-19"><polygon id="Fill-65-3" data-name="Fill-65" class="cls-18" points="419.34 50.88 430.59 38.85 418.55 27.59 407.3 39.62 419.34 50.88"/></g></g><g id="Fill-66-Clipped-2" data-name="Fill-66-Clipped"><g class="cls-19"><polygon id="Fill-66-2" data-name="Fill-66" class="cls-18" points="462.73 63.41 473.97 51.38 461.94 40.13 450.69 52.16 462.73 63.41"/></g></g><g id="Fill-67-Clipped-2" data-name="Fill-67-Clipped"><g class="cls-19"><polygon id="Fill-67-3" data-name="Fill-67" class="cls-18" points="448.11 49.75 459.36 37.72 447.32 26.47 436.07 38.5 448.11 49.75"/></g></g><g id="Fill-68-Clipped-2" data-name="Fill-68-Clipped"><g class="cls-19"><polygon id="Fill-68-2" data-name="Fill-68" class="cls-18" points="433.32 35.92 444.57 23.89 432.53 12.64 421.28 24.67 433.32 35.92"/></g></g><g id="Fill-69-Clipped-2" data-name="Fill-69-Clipped"><g class="cls-19"><polygon id="Fill-69-3" data-name="Fill-69" class="cls-18" points="447.14 21.14 458.38 9.11 446.35 -2.14 435.1 9.89 447.14 21.14"/></g></g><g id="Fill-70-Clipped-2" data-name="Fill-70-Clipped"><g class="cls-19"><polygon id="Fill-70-3" data-name="Fill-70" class="cls-18" points="379.36 123.75 390.61 111.72 378.57 100.47 367.32 112.5 379.36 123.75"/></g></g><g id="Fill-71-Clipped-2" data-name="Fill-71-Clipped"><g class="cls-19"><polygon id="Fill-71-2" data-name="Fill-71" class="cls-18" points="393.02 109.14 404.26 97.11 392.23 85.86 380.98 97.89 393.02 109.14"/></g></g><g id="Fill-72-Clipped-2" data-name="Fill-72-Clipped"><g class="cls-19"><polygon id="Fill-72-2" data-name="Fill-72" class="cls-18" points="407.74 122.97 418.99 110.94 406.95 99.69 395.7 111.72 407.74 122.97"/></g></g><g id="Fill-73-Clipped-2" data-name="Fill-73-Clipped"><g class="cls-19"><polygon id="Fill-73-3" data-name="Fill-73" class="cls-18" points="421.56 108.19 432.8 96.16 420.76 84.91 409.52 96.94 421.56 108.19"/></g></g><g id="Fill-74-Clipped-2" data-name="Fill-74-Clipped"><polygon id="Fill-74-2" data-name="Fill-74" class="cls-18" points="406.59 94.21 417.84 82.18 405.8 70.92 394.56 82.95 406.59 94.21"/></g></g></g></g><g id="WeHo-Logo-3" data-name="WeHo-Logo"><g id="Logo---City-of-West-Hollywood-3" data-name="Logo---City-of-West-Hollywood"><g id="Group-75-3" data-name="Group-75"><g id="Fill-37-Clipped-3" data-name="Fill-37-Clipped"><g class="cls-20"><polygon id="Fill-37-5" data-name="Fill-37" class="cls-18" points="487.29 426.96 499.45 438.07 510.56 425.91 498.41 414.8 487.29 426.96"/></g></g><g id="Fill-38-Clipped-3" data-name="Fill-38-Clipped"><g class="cls-20"><polygon id="Fill-38-5" data-name="Fill-38" class="cls-18" points="473.47 442.01 485.62 453.12 496.74 440.95 484.58 429.84 473.47 442.01"/></g></g><g id="Fill-39-Clipped-3" data-name="Fill-39-Clipped"><g class="cls-20"><polygon id="Fill-39-4" data-name="Fill-39" class="cls-18" points="488.4 455.66 500.56 466.77 511.67 454.61 499.52 443.5 488.4 455.66"/></g></g><g id="Fill-40-Clipped-3" data-name="Fill-40-Clipped"><g class="cls-20"><polygon id="Fill-40-4" data-name="Fill-40" class="cls-18" points="501.9 440.89 514.06 452 525.17 439.84 513.02 428.73 501.9 440.89"/></g></g><g id="Fill-41-Clipped-3" data-name="Fill-41-Clipped"><g class="cls-20"><polygon id="Fill-41-5" data-name="Fill-41" class="cls-18" points="544.14 425.02 556.29 436.13 567.41 423.97 555.25 412.86 544.14 425.02"/></g></g><g id="Fill-42-Clipped-3" data-name="Fill-42-Clipped"><g class="cls-20"><polygon id="Fill-42-4" data-name="Fill-42" class="cls-18" points="530.47 439.89 542.63 451 553.74 438.84 541.59 427.73 530.47 439.89"/></g></g><g id="Fill-43-Clipped-3" data-name="Fill-43-Clipped"><g class="cls-20"><polygon id="Fill-43-4" data-name="Fill-43" class="cls-18" points="559.22 438.43 571.38 449.54 582.5 437.37 570.34 426.26 559.22 438.43"/></g></g><g id="Fill-44-Clipped-3" data-name="Fill-44-Clipped"><g class="cls-20"><polygon id="Fill-44-4" data-name="Fill-44" class="cls-18" points="516.84 454.61 529 465.72 540.12 453.56 527.96 442.44 516.84 454.61"/></g></g><g id="Fill-45-Clipped-3" data-name="Fill-45-Clipped"><g class="cls-20"><polygon id="Fill-45-3" data-name="Fill-45" class="cls-18" points="503.33 469.31 515.49 480.42 526.61 468.26 514.45 457.14 503.33 469.31"/></g></g><g id="Fill-46-Clipped-3" data-name="Fill-46-Clipped"><g class="cls-20"><polygon id="Fill-46-4" data-name="Fill-46" class="cls-18" points="588.77 466.07 600.93 477.19 612.05 465.02 599.89 453.91 588.77 466.07"/></g></g><g id="Fill-47-Clipped-3" data-name="Fill-47-Clipped"><g class="cls-20"><polygon id="Fill-47-4" data-name="Fill-47" class="cls-18" points="603.87 479.62 616.03 490.73 627.15 478.57 614.99 467.46 603.87 479.62"/></g></g><g id="Fill-48-Clipped-3" data-name="Fill-48-Clipped"><g class="cls-20"><polygon id="Fill-48-4" data-name="Fill-48" class="cls-18" points="590.49 494.18 602.65 505.29 613.77 493.13 601.61 482.02 590.49 494.18"/></g></g><g id="Fill-49-Clipped-3" data-name="Fill-49-Clipped"><g class="cls-20"><polygon id="Fill-49-3" data-name="Fill-49" class="cls-18" points="605.25 507.67 617.41 518.78 628.53 506.62 616.37 495.51 605.25 507.67"/></g></g><g id="Fill-50-Clipped-3" data-name="Fill-50-Clipped"><g class="cls-20"><polygon id="Fill-50-3" data-name="Fill-50" class="cls-18" points="618.47 493.22 630.62 504.33 641.74 492.17 629.59 481.05 618.47 493.22"/></g></g><g id="Fill-51-Clipped-2" data-name="Fill-51-Clipped"><g class="cls-20"><polygon id="Fill-51-3" data-name="Fill-51" class="cls-18" points="633.72 506.52 645.87 517.63 656.99 505.47 644.84 494.36 633.72 506.52"/></g></g><g id="Fill-52-Clipped"><g class="cls-20"><polygon id="Fill-52-2" data-name="Fill-52" class="cls-18" points="648.66 520.24 660.82 531.35 671.93 519.19 659.78 508.08 648.66 520.24"/></g></g><g id="Fill-53-Clipped"><g class="cls-20"><polygon id="Fill-53-2" data-name="Fill-53" class="cls-18" points="663.43 534 675.58 545.11 686.7 532.94 674.54 521.83 663.43 534"/></g></g><g id="Fill-54-Clipped-3" data-name="Fill-54-Clipped"><g class="cls-20"><polygon id="Fill-54-4" data-name="Fill-54" class="cls-18" points="601.16 422.34 613.31 433.45 624.43 421.29 612.27 410.18 601.16 422.34"/></g></g><g id="Fill-55-Clipped-3" data-name="Fill-55-Clipped"><g class="cls-20"><polygon id="Fill-55-4" data-name="Fill-55" class="cls-18" points="617.69 464.5 629.85 475.62 640.96 463.45 628.81 452.34 617.69 464.5"/></g></g><g id="Fill-56-Clipped-2" data-name="Fill-56-Clipped"><g class="cls-20"><polygon id="Fill-56-3" data-name="Fill-56" class="cls-18" points="632.62 478.15 644.78 489.27 655.9 477.1 643.74 465.99 632.62 478.15"/></g></g><g id="Fill-57-Clipped-3" data-name="Fill-57-Clipped"><g class="cls-20"><polygon id="Fill-57-3" data-name="Fill-57" class="cls-18" points="616.08 435.93 628.24 447.04 639.36 434.87 627.2 423.76 616.08 435.93"/></g></g><g id="Fill-58-Clipped"><g class="cls-20"><polygon id="Fill-58-2" data-name="Fill-58" class="cls-18" points="647.38 491.65 659.54 502.76 670.66 490.59 658.5 479.48 647.38 491.65"/></g></g><g id="Fill-59-Clipped"><g class="cls-20"><polygon id="Fill-59" class="cls-18" points="662.32 505.3 674.47 516.41 685.59 504.25 673.44 493.13 662.32 505.3"/></g></g><g id="Fill-60-Clipped"><g class="cls-20"><polygon id="Fill-60" class="cls-18" points="677.25 518.95 689.41 530.06 700.53 517.89 688.37 506.78 677.25 518.95"/></g></g><g id="Fill-61-Clipped-3" data-name="Fill-61-Clipped"><g class="cls-20"><polygon id="Fill-61-3" data-name="Fill-61" class="cls-18" points="459.78 457.05 471.94 468.17 483.06 456 470.9 444.89 459.78 457.05"/></g></g><g id="Fill-62-Clipped-3" data-name="Fill-62-Clipped"><g class="cls-20"><polygon id="Fill-62-3" data-name="Fill-62" class="cls-18" points="474.71 470.63 486.87 481.75 497.98 469.58 485.83 458.47 474.71 470.63"/></g></g><g id="Fill-63-Clipped-3" data-name="Fill-63-Clipped"><g class="cls-20"><polygon id="Fill-63-4" data-name="Fill-63" class="cls-18" points="489.47 484.13 501.63 495.24 512.74 483.07 500.59 471.96 489.47 484.13"/></g></g><g id="Fill-64-Clipped-3" data-name="Fill-64-Clipped"><g class="cls-20"><polygon id="Fill-64-4" data-name="Fill-64" class="cls-18" points="518.06 482.83 530.22 493.94 541.34 481.78 529.18 470.67 518.06 482.83"/></g></g><g id="Fill-65-Clipped-3" data-name="Fill-65-Clipped"><g class="cls-20"><polygon id="Fill-65-4" data-name="Fill-65" class="cls-18" points="572.72 423.39 584.87 434.5 595.99 422.34 583.83 411.23 572.72 423.39"/></g></g><g id="Fill-66-Clipped-3" data-name="Fill-66-Clipped"><g class="cls-20"><polygon id="Fill-66-3" data-name="Fill-66" class="cls-18" points="560.66 466.92 572.82 478.03 583.94 465.86 571.78 454.75 560.66 466.92"/></g></g><g id="Fill-67-Clipped-3" data-name="Fill-67-Clipped"><g class="cls-20"><polygon id="Fill-67-4" data-name="Fill-67" class="cls-18" points="574.16 452.15 586.32 463.26 597.44 451.09 585.28 439.98 574.16 452.15"/></g></g><g id="Fill-68-Clipped-3" data-name="Fill-68-Clipped"><g class="cls-20"><polygon id="Fill-68-3" data-name="Fill-68" class="cls-18" points="587.82 437.2 599.98 448.31 611.1 436.15 598.94 425.04 587.82 437.2"/></g></g><g id="Fill-69-Clipped-3" data-name="Fill-69-Clipped"><g class="cls-20"><polygon id="Fill-69-4" data-name="Fill-69" class="cls-18" points="602.76 450.85 614.91 461.96 626.03 449.8 613.88 438.69 602.76 450.85"/></g></g><g id="Fill-70-Clipped-3" data-name="Fill-70-Clipped"><g class="cls-20"><polygon id="Fill-70-4" data-name="Fill-70" class="cls-18" points="499.4 384.23 511.55 395.34 522.67 383.18 510.52 372.07 499.4 384.23"/></g></g><g id="Fill-71-Clipped-3" data-name="Fill-71-Clipped"><g class="cls-20"><polygon id="Fill-71-3" data-name="Fill-71" class="cls-18" points="514.16 397.72 526.31 408.83 537.43 396.67 525.28 385.56 514.16 397.72"/></g></g><g id="Fill-72-Clipped-3" data-name="Fill-72-Clipped"><g class="cls-20"><polygon id="Fill-72-3" data-name="Fill-72" class="cls-18" points="500.49 412.6 512.65 423.71 523.76 411.54 511.61 400.43 500.49 412.6"/></g></g><g id="Fill-73-Clipped-3" data-name="Fill-73-Clipped"><g class="cls-20"><polygon id="Fill-73-4" data-name="Fill-73" class="cls-18" points="515.43 426.25 527.58 437.36 538.7 425.19 526.54 414.08 515.43 426.25"/></g></g><g id="Fill-74-Clipped-3" data-name="Fill-74-Clipped"><polygon id="Fill-74-3" data-name="Fill-74" class="cls-18" points="529.24 411.13 541.4 422.24 552.52 410.08 540.36 398.97 529.24 411.13"/></g></g></g></g><g id="WeHo-Logo-4" data-name="WeHo-Logo"><g id="Logo---City-of-West-Hollywood-4" data-name="Logo---City-of-West-Hollywood"><g id="Group-75-4" data-name="Group-75"><g id="Fill-37-Clipped-4" data-name="Fill-37-Clipped"><g class="cls-21"><polygon id="Fill-37-6" data-name="Fill-37" class="cls-18" points="624.89 270.15 641.36 270.13 641.34 253.65 624.87 253.67 624.89 270.15"/></g></g><g id="Fill-38-Clipped-4" data-name="Fill-38-Clipped"><g class="cls-21"><polygon id="Fill-38-6" data-name="Fill-38" class="cls-18" points="624.86 290.58 641.33 290.57 641.31 274.09 624.84 274.11 624.86 290.58"/></g></g><g id="Fill-39-Clipped-4" data-name="Fill-39-Clipped"><g class="cls-21"><polygon id="Fill-39-5" data-name="Fill-39" class="cls-18" points="645.09 290.56 661.56 290.55 661.54 274.07 645.08 274.08 645.09 290.56"/></g></g><g id="Fill-40-Clipped-4" data-name="Fill-40-Clipped"><g class="cls-21"><polygon id="Fill-40-5" data-name="Fill-40" class="cls-18" points="645.07 270.55 661.54 270.54 661.52 254.06 645.05 254.07 645.07 270.55"/></g></g><g id="Fill-41-Clipped-4" data-name="Fill-41-Clipped"><g class="cls-21"><polygon id="Fill-41-6" data-name="Fill-41" class="cls-18" points="665.5 230.32 681.97 230.3 681.95 213.82 665.48 213.84 665.5 230.32"/></g></g><g id="Fill-42-Clipped-4" data-name="Fill-42-Clipped"><g class="cls-21"><polygon id="Fill-42-5" data-name="Fill-42" class="cls-18" points="665.47 250.52 681.93 250.5 681.92 234.03 665.45 234.04 665.47 250.52"/></g></g><g id="Fill-43-Clipped-4" data-name="Fill-43-Clipped"><g class="cls-21"><polygon id="Fill-43-5" data-name="Fill-43" class="cls-18" points="685.68 230.02 702.15 230 702.13 213.52 685.66 213.54 685.68 230.02"/></g></g><g id="Fill-44-Clipped-4" data-name="Fill-44-Clipped"><g class="cls-21"><polygon id="Fill-44-5" data-name="Fill-44" class="cls-18" points="665.36 270.58 681.83 270.56 681.81 254.08 665.34 254.1 665.36 270.58"/></g></g><g id="Fill-45-Clipped-4" data-name="Fill-45-Clipped"><g class="cls-21"><polygon id="Fill-45-4" data-name="Fill-45" class="cls-18" points="665.33 290.54 681.79 290.52 681.78 274.05 665.31 274.06 665.33 290.54"/></g></g><g id="Fill-46-Clipped-4" data-name="Fill-46-Clipped"><g class="cls-21"><polygon id="Fill-46-5" data-name="Fill-46" class="cls-18" points="726.14 230.45 742.61 230.43 742.59 213.95 726.13 213.97 726.14 230.45"/></g></g><g id="Fill-47-Clipped-4" data-name="Fill-47-Clipped"><g class="cls-21"><polygon id="Fill-47-5" data-name="Fill-47" class="cls-18" points="746.43 230.24 762.9 230.22 762.88 213.74 746.41 213.76 746.43 230.24"/></g></g><g id="Fill-48-Clipped-4" data-name="Fill-48-Clipped"><g class="cls-21"><polygon id="Fill-48-5" data-name="Fill-48" class="cls-18" points="746.4 250.01 762.87 249.99 762.85 233.51 746.38 233.53 746.4 250.01"/></g></g><g id="Fill-49-Clipped-4" data-name="Fill-49-Clipped"><g class="cls-21"><polygon id="Fill-49-4" data-name="Fill-49" class="cls-18" points="766.39 249.99 782.86 249.97 782.85 233.49 766.38 233.51 766.39 249.99"/></g></g><g id="Fill-50-Clipped-4" data-name="Fill-50-Clipped"><g class="cls-21"><polygon id="Fill-50-4" data-name="Fill-50" class="cls-18" points="766.37 230.4 782.84 230.39 782.82 213.91 766.36 213.93 766.37 230.4"/></g></g><g id="Fill-51-Clipped-3" data-name="Fill-51-Clipped"><g class="cls-21"><polygon id="Fill-51-4" data-name="Fill-51" class="cls-18" points="786.61 229.91 803.07 229.89 803.06 213.41 786.59 213.43 786.61 229.91"/></g></g><g id="Fill-52-Clipped-2" data-name="Fill-52-Clipped"><g class="cls-21"><polygon id="Fill-52-3" data-name="Fill-52" class="cls-18" points="806.89 229.94 823.36 229.92 823.34 213.44 806.87 213.46 806.89 229.94"/></g></g><g id="Fill-53-Clipped-2" data-name="Fill-53-Clipped"><g class="cls-21"><polygon id="Fill-53-3" data-name="Fill-53" class="cls-18" points="827.07 230.1 843.54 230.09 843.52 213.61 827.05 213.62 827.07 230.1"/></g></g><g id="Fill-54-Clipped-4" data-name="Fill-54-Clipped"><g class="cls-21"><polygon id="Fill-54-5" data-name="Fill-54" class="cls-18" points="705.74 189.83 722.2 189.82 722.19 173.34 705.72 173.35 705.74 189.83"/></g></g><g id="Fill-55-Clipped-4" data-name="Fill-55-Clipped"><g class="cls-21"><polygon id="Fill-55-5" data-name="Fill-55" class="cls-18" points="746.4 209.75 762.87 209.74 762.86 193.26 746.39 193.28 746.4 209.75"/></g></g><g id="Fill-56-Clipped-3" data-name="Fill-56-Clipped"><g class="cls-21"><polygon id="Fill-56-4" data-name="Fill-56" class="cls-18" points="766.64 209.73 783.11 209.72 783.09 193.24 766.62 193.25 766.64 209.73"/></g></g><g id="Fill-57-Clipped-4" data-name="Fill-57-Clipped"><g class="cls-21"><polygon id="Fill-57-4" data-name="Fill-57" class="cls-18" points="725.92 189.77 742.38 189.75 742.37 173.27 725.9 173.29 725.92 189.77"/></g></g><g id="Fill-58-Clipped-2" data-name="Fill-58-Clipped"><g class="cls-21"><polygon id="Fill-58-3" data-name="Fill-58" class="cls-18" points="786.63 209.71 803.1 209.69 803.09 193.22 786.62 193.23 786.63 209.71"/></g></g><g id="Fill-59-Clipped-2" data-name="Fill-59-Clipped"><g class="cls-21"><polygon id="Fill-59-2" data-name="Fill-59" class="cls-18" points="806.87 209.69 823.34 209.67 823.32 193.19 806.85 193.21 806.87 209.69"/></g></g><g id="Fill-60-Clipped-2" data-name="Fill-60-Clipped"><g class="cls-21"><polygon id="Fill-60-2" data-name="Fill-60" class="cls-18" points="827.1 209.67 843.57 209.65 843.55 193.17 827.08 193.19 827.1 209.67"/></g></g><g id="Fill-61-Clipped-4" data-name="Fill-61-Clipped"><g class="cls-21"><polygon id="Fill-61-4" data-name="Fill-61" class="cls-18" points="624.93 310.92 641.4 310.9 641.38 294.43 624.92 294.44 624.93 310.92"/></g></g><g id="Fill-62-Clipped-4" data-name="Fill-62-Clipped"><g class="cls-21"><polygon id="Fill-62-4" data-name="Fill-62" class="cls-18" points="645.12 310.86 661.58 310.84 661.57 294.36 645.1 294.38 645.12 310.86"/></g></g><g id="Fill-63-Clipped-4" data-name="Fill-63-Clipped"><g class="cls-21"><polygon id="Fill-63-5" data-name="Fill-63" class="cls-18" points="665.11 310.83 681.58 310.82 681.56 294.34 665.1 294.36 665.11 310.83"/></g></g><g id="Fill-64-Clipped-4" data-name="Fill-64-Clipped"><g class="cls-21"><polygon id="Fill-64-5" data-name="Fill-64" class="cls-18" points="685.32 290.57 701.79 290.55 701.77 274.07 685.31 274.09 685.32 290.57"/></g></g><g id="Fill-65-Clipped-4" data-name="Fill-65-Clipped"><g class="cls-21"><polygon id="Fill-65-5" data-name="Fill-65" class="cls-18" points="685.47 209.82 701.94 209.8 701.92 193.32 685.46 193.34 685.47 209.82"/></g></g><g id="Fill-66-Clipped-4" data-name="Fill-66-Clipped"><g class="cls-21"><polygon id="Fill-66-4" data-name="Fill-66" class="cls-18" points="705.98 250.05 722.45 250.04 722.43 233.56 705.97 233.57 705.98 250.05"/></g></g><g id="Fill-67-Clipped-4" data-name="Fill-67-Clipped"><g class="cls-21"><polygon id="Fill-67-5" data-name="Fill-67" class="cls-18" points="705.96 230.04 722.43 230.03 722.41 213.55 705.94 213.56 705.96 230.04"/></g></g><g id="Fill-68-Clipped-4" data-name="Fill-68-Clipped"><g class="cls-21"><polygon id="Fill-68-4" data-name="Fill-68" class="cls-18" points="705.94 209.8 722.41 209.78 722.39 193.3 705.92 193.32 705.94 209.8"/></g></g><g id="Fill-69-Clipped-4" data-name="Fill-69-Clipped"><g class="cls-21"><polygon id="Fill-69-5" data-name="Fill-69" class="cls-18" points="726.17 209.78 742.64 209.76 742.62 193.28 726.15 193.3 726.17 209.78"/></g></g><g id="Fill-70-Clipped-4" data-name="Fill-70-Clipped"><g class="cls-21"><polygon id="Fill-70-5" data-name="Fill-70" class="cls-18" points="604.96 230.47 621.42 230.45 621.41 213.97 604.94 213.99 604.96 230.47"/></g></g><g id="Fill-71-Clipped-4" data-name="Fill-71-Clipped"><g class="cls-21"><polygon id="Fill-71-4" data-name="Fill-71" class="cls-18" points="624.95 230.44 641.42 230.43 641.4 213.95 624.94 213.97 624.95 230.44"/></g></g><g id="Fill-72-Clipped-4" data-name="Fill-72-Clipped"><g class="cls-21"><polygon id="Fill-72-4" data-name="Fill-72" class="cls-18" points="624.92 250.64 641.39 250.63 641.37 234.15 624.9 234.16 624.92 250.64"/></g></g><g id="Fill-73-Clipped-4" data-name="Fill-73-Clipped"><g class="cls-21"><polygon id="Fill-73-5" data-name="Fill-73" class="cls-18" points="645.15 250.62 661.62 250.6 661.61 234.13 645.14 234.14 645.15 250.62"/></g></g><g id="Fill-74-Clipped-4" data-name="Fill-74-Clipped"><polygon id="Fill-74-4" data-name="Fill-74" class="cls-18" points="645.13 230.14 661.6 230.12 661.58 213.64 645.12 213.66 645.13 230.14"/></g></g></g></g><g id="WeHo-Logo-5" data-name="WeHo-Logo"><g id="Logo---City-of-West-Hollywood-5" data-name="Logo---City-of-West-Hollywood"><g id="Group-75-5" data-name="Group-75"><g id="Fill-43-Clipped-5" data-name="Fill-43-Clipped"><g class="cls-22"><polygon id="Fill-43-6" data-name="Fill-43" class="cls-18" points="1018.88 -21.88 1010.15 -7.92 1024.12 0.82 1032.86 -13.14 1018.88 -21.88"/></g></g><g id="Fill-46-Clipped-5" data-name="Fill-46-Clipped"><g class="cls-22"><polygon id="Fill-46-6" data-name="Fill-46" class="cls-18" points="997.02 12.17 988.28 26.13 1002.25 34.88 1010.99 20.92 997.02 12.17"/></g></g><g id="Fill-47-Clipped-5" data-name="Fill-47-Clipped"><g class="cls-22"><polygon id="Fill-47-6" data-name="Fill-47" class="cls-18" points="986.42 29.47 977.68 43.43 991.65 52.17 1000.39 38.21 986.42 29.47"/></g></g><g id="Fill-48-Clipped-5" data-name="Fill-48-Clipped"><g class="cls-22"><polygon id="Fill-48-6" data-name="Fill-48" class="cls-18" points="969.68 18.93 960.95 32.9 974.92 41.64 983.65 27.68 969.68 18.93"/></g></g><g id="Fill-49-Clipped-5" data-name="Fill-49-Clipped"><g class="cls-22"><polygon id="Fill-49-5" data-name="Fill-49" class="cls-18" points="959.08 35.89 950.34 49.85 964.31 58.59 973.05 44.63 959.08 35.89"/></g></g><g id="Fill-50-Clipped-5" data-name="Fill-50-Clipped"><g class="cls-22"><polygon id="Fill-50-5" data-name="Fill-50" class="cls-18" points="975.68 46.28 966.94 60.24 980.91 68.98 989.65 55.02 975.68 46.28"/></g></g><g id="Fill-51-Clipped-4" data-name="Fill-51-Clipped"><g class="cls-22"><polygon id="Fill-51-5" data-name="Fill-51" class="cls-18" points="965.35 63.68 956.61 77.64 970.58 86.38 979.31 72.42 965.35 63.68"/></g></g><g id="Fill-52-Clipped-3" data-name="Fill-52-Clipped"><g class="cls-22"><polygon id="Fill-52-4" data-name="Fill-52" class="cls-18" points="954.55 80.85 945.81 94.81 959.78 103.55 968.51 89.59 954.55 80.85"/></g></g><g id="Fill-53-Clipped-3" data-name="Fill-53-Clipped"><g class="cls-22"><polygon id="Fill-53-4" data-name="Fill-53" class="cls-18" points="943.68 97.86 934.94 111.81 948.91 120.56 957.65 106.6 943.68 97.86"/></g></g><g id="Fill-54-Clipped-5" data-name="Fill-54-Clipped"><g class="cls-22"><polygon id="Fill-54-6" data-name="Fill-54" class="cls-18" points="1042.27 16.47 1033.53 30.43 1047.5 39.17 1056.24 25.21 1042.27 16.47"/></g></g><g id="Fill-55-Clipped-5" data-name="Fill-55-Clipped"><g class="cls-22"><polygon id="Fill-55-6" data-name="Fill-55" class="cls-18" points="1003.78 40.33 995.05 54.29 1009.01 63.04 1017.75 49.08 1003.78 40.33"/></g></g><g id="Fill-56-Clipped-4" data-name="Fill-56-Clipped"><g class="cls-22"><polygon id="Fill-56-5" data-name="Fill-56" class="cls-18" points="993.05 57.48 984.31 71.44 998.28 80.19 1007.02 66.23 993.05 57.48"/></g></g><g id="Fill-57-Clipped-5" data-name="Fill-57-Clipped"><g class="cls-22"><polygon id="Fill-57-5" data-name="Fill-57" class="cls-18" points="1031.6 33.6 1022.87 47.56 1036.84 56.3 1045.57 42.34 1031.6 33.6"/></g></g><g id="Fill-58-Clipped-3" data-name="Fill-58-Clipped"><g class="cls-22"><polygon id="Fill-58-4" data-name="Fill-58" class="cls-18" points="982.44 74.44 973.7 88.4 987.67 97.14 996.41 83.18 982.44 74.44"/></g></g><g id="Fill-59-Clipped-3" data-name="Fill-59-Clipped"><g class="cls-22"><polygon id="Fill-59-3" data-name="Fill-59" class="cls-18" points="971.71 91.59 962.97 105.55 976.94 114.29 985.68 100.33 971.71 91.59"/></g></g><g id="Fill-60-Clipped-3" data-name="Fill-60-Clipped"><g class="cls-22"><polygon id="Fill-60-3" data-name="Fill-60" class="cls-18" points="960.98 108.74 952.24 122.7 966.21 131.44 974.94 117.48 960.98 108.74"/></g></g><g id="Fill-65-Clipped-5" data-name="Fill-65-Clipped"><g class="cls-22"><polygon id="Fill-65-6" data-name="Fill-65" class="cls-18" points="1036.11 -11.32 1027.37 2.64 1041.34 11.38 1050.08 -2.58 1036.11 -11.32"/></g></g><g id="Fill-66-Clipped-5" data-name="Fill-66-Clipped"><g class="cls-22"><polygon id="Fill-66-5" data-name="Fill-66" class="cls-18" points="991.12 -15.32 982.39 -1.36 996.36 7.38 1005.09 -6.58 991.12 -15.32"/></g></g><g id="Fill-67-Clipped-5" data-name="Fill-67-Clipped"><g class="cls-22"><polygon id="Fill-67-6" data-name="Fill-67" class="cls-18" points="1008.09 -4.71 999.35 9.25 1013.32 17.99 1022.05 4.03 1008.09 -4.71"/></g></g><g id="Fill-68-Clipped-5" data-name="Fill-68-Clipped"><g class="cls-22"><polygon id="Fill-68-5" data-name="Fill-68" class="cls-18" points="1025.25 6.03 1016.51 19.99 1030.48 28.73 1039.22 14.77 1025.25 6.03"/></g></g><g id="Fill-69-Clipped-5" data-name="Fill-69-Clipped"><g class="cls-22"><polygon id="Fill-69-6" data-name="Fill-69" class="cls-18" points="1014.51 23.18 1005.78 37.14 1019.75 45.88 1028.48 31.93 1014.51 23.18"/></g></g></g></g></g><g id="WeHo-Logo-6" data-name="WeHo-Logo"><g id="Logo---City-of-West-Hollywood-6" data-name="Logo---City-of-West-Hollywood"><g id="Group-75-6" data-name="Group-75"><g id="Fill-37-Clipped-5" data-name="Fill-37-Clipped"><g class="cls-23"><polygon id="Fill-37-7" data-name="Fill-37" class="cls-18" points="1415.98 351.32 1399.52 351.7 1399.91 368.18 1416.37 367.79 1415.98 351.32"/></g></g><g id="Fill-38-Clipped-5" data-name="Fill-38-Clipped"><g class="cls-23"><polygon id="Fill-38-7" data-name="Fill-38" class="cls-18" points="1415.56 330.89 1399.09 331.27 1399.48 347.75 1415.94 347.36 1415.56 330.89"/></g></g><g id="Fill-39-Clipped-5" data-name="Fill-39-Clipped"><g class="cls-23"><polygon id="Fill-39-6" data-name="Fill-39" class="cls-18" points="1395.33 331.36 1378.87 331.75 1379.25 348.22 1395.71 347.83 1395.33 331.36"/></g></g><g id="Fill-40-Clipped-5" data-name="Fill-40-Clipped"><g class="cls-23"><polygon id="Fill-40-6" data-name="Fill-40" class="cls-18" points="1395.8 351.37 1379.33 351.75 1379.72 368.23 1396.18 367.84 1395.8 351.37"/></g></g><g id="Fill-41-Clipped-5" data-name="Fill-41-Clipped"><g class="cls-23"><polygon id="Fill-41-7" data-name="Fill-41" class="cls-18" points="1376.28 392.05 1359.82 392.43 1360.2 408.9 1376.67 408.52 1376.28 392.05"/></g></g><g id="Fill-42-Clipped-5" data-name="Fill-42-Clipped"><g class="cls-23"><polygon id="Fill-42-6" data-name="Fill-42" class="cls-18" points="1375.86 371.85 1359.39 372.24 1359.78 388.71 1376.24 388.32 1375.86 371.85"/></g></g><g id="Fill-43-Clipped-6" data-name="Fill-43-Clipped"><g class="cls-23"><polygon id="Fill-43-7" data-name="Fill-43" class="cls-18" points="1356.11 392.8 1339.65 393.19 1340.03 409.66 1356.5 409.27 1356.11 392.8"/></g></g><g id="Fill-44-Clipped-5" data-name="Fill-44-Clipped"><g class="cls-23"><polygon id="Fill-44-6" data-name="Fill-44" class="cls-18" points="1375.52 351.8 1359.05 352.18 1359.44 368.66 1375.9 368.27 1375.52 351.8"/></g></g><g id="Fill-45-Clipped-5" data-name="Fill-45-Clipped"><g class="cls-23"><polygon id="Fill-45-5" data-name="Fill-45" class="cls-18" points="1375.1 331.84 1358.64 332.22 1359.02 348.7 1375.49 348.31 1375.1 331.84"/></g></g><g id="Fill-46-Clipped-6" data-name="Fill-46-Clipped"><g class="cls-23"><polygon id="Fill-46-7" data-name="Fill-46" class="cls-18" points="1315.64 393.28 1299.18 393.67 1299.57 410.14 1316.03 409.75 1315.64 393.28"/></g></g><g id="Fill-47-Clipped-6" data-name="Fill-47-Clipped"><g class="cls-23"><polygon id="Fill-47-7" data-name="Fill-47" class="cls-18" points="1295.37 393.94 1278.91 394.33 1279.29 410.8 1295.76 410.42 1295.37 393.94"/></g></g><g id="Fill-48-Clipped-6" data-name="Fill-48-Clipped"><g class="cls-23"><polygon id="Fill-48-7" data-name="Fill-48" class="cls-18" points="1294.96 374.17 1278.49 374.56 1278.88 391.03 1295.35 390.65 1294.96 374.17"/></g></g><g id="Fill-49-Clipped-6" data-name="Fill-49-Clipped"><g class="cls-23"><polygon id="Fill-49-6" data-name="Fill-49" class="cls-18" points="1274.97 374.64 1258.5 375.03 1258.89 391.5 1275.35 391.12 1274.97 374.64"/></g></g><g id="Fill-50-Clipped-6" data-name="Fill-50-Clipped"><g class="cls-23"><polygon id="Fill-50-6" data-name="Fill-50" class="cls-18" points="1275.43 394.22 1258.96 394.61 1259.35 411.08 1275.81 410.7 1275.43 394.22"/></g></g><g id="Fill-51-Clipped-5" data-name="Fill-51-Clipped"><g class="cls-23"><polygon id="Fill-51-6" data-name="Fill-51" class="cls-18" points="1255.21 395.17 1238.75 395.55 1239.13 412.03 1255.6 411.64 1255.21 395.17"/></g></g><g id="Fill-52-Clipped-4" data-name="Fill-52-Clipped"><g class="cls-23"><polygon id="Fill-52-5" data-name="Fill-52" class="cls-18" points="1234.93 395.6 1218.47 395.98 1218.85 412.46 1235.32 412.07 1234.93 395.6"/></g></g><g id="Fill-53-Clipped-4" data-name="Fill-53-Clipped"><g class="cls-23"><polygon id="Fill-53-5" data-name="Fill-53" class="cls-18" points="1214.75 395.88 1198.29 396.27 1198.67 412.74 1215.14 412.36 1214.75 395.88"/></g></g><g id="Fill-54-Clipped-6" data-name="Fill-54-Clipped"><g class="cls-23"><polygon id="Fill-54-7" data-name="Fill-54" class="cls-18" points="1336.96 433.42 1320.49 433.81 1320.88 450.29 1337.34 449.9 1336.96 433.42"/></g></g><g id="Fill-55-Clipped-6" data-name="Fill-55-Clipped"><g class="cls-23"><polygon id="Fill-55-7" data-name="Fill-55" class="cls-18" points="1295.85 414.42 1279.39 414.81 1279.77 431.28 1296.24 430.89 1295.85 414.42"/></g></g><g id="Fill-56-Clipped-5" data-name="Fill-56-Clipped"><g class="cls-23"><polygon id="Fill-56-6" data-name="Fill-56" class="cls-18" points="1275.63 414.89 1259.16 415.28 1259.55 431.75 1276.01 431.37 1275.63 414.89"/></g></g><g id="Fill-57-Clipped-6" data-name="Fill-57-Clipped"><g class="cls-23"><polygon id="Fill-57-6" data-name="Fill-57" class="cls-18" points="1316.78 433.94 1300.32 434.33 1300.71 450.8 1317.17 450.42 1316.78 433.94"/></g></g><g id="Fill-58-Clipped-4" data-name="Fill-58-Clipped"><g class="cls-23"><polygon id="Fill-58-5" data-name="Fill-58" class="cls-18" points="1255.63 415.36 1239.17 415.75 1239.56 432.22 1256.02 431.84 1255.63 415.36"/></g></g><g id="Fill-59-Clipped-4" data-name="Fill-59-Clipped"><g class="cls-23"><polygon id="Fill-59-4" data-name="Fill-59" class="cls-18" points="1235.41 415.84 1218.94 416.22 1219.33 432.7 1235.79 432.31 1235.41 415.84"/></g></g><g id="Fill-60-Clipped-4" data-name="Fill-60-Clipped"><g class="cls-23"><polygon id="Fill-60-4" data-name="Fill-60" class="cls-18" points="1215.18 416.31 1198.71 416.7 1199.1 433.17 1215.57 432.79 1215.18 416.31"/></g></g><g id="Fill-61-Clipped-5" data-name="Fill-61-Clipped"><g class="cls-23"><polygon id="Fill-61-5" data-name="Fill-61" class="cls-18" points="1415.03 310.56 1398.56 310.94 1398.95 327.42 1415.41 327.03 1415.03 310.56"/></g></g><g id="Fill-62-Clipped-5" data-name="Fill-62-Clipped"><g class="cls-23"><polygon id="Fill-62-5" data-name="Fill-62" class="cls-18" points="1394.85 311.07 1378.39 311.46 1378.78 327.94 1395.24 327.55 1394.85 311.07"/></g></g><g id="Fill-63-Clipped-5" data-name="Fill-63-Clipped"><g class="cls-23"><polygon id="Fill-63-6" data-name="Fill-63" class="cls-18" points="1374.86 311.54 1358.4 311.93 1358.78 328.4 1375.25 328.02 1374.86 311.54"/></g></g><g id="Fill-64-Clipped-5" data-name="Fill-64-Clipped"><g class="cls-23"><polygon id="Fill-64-6" data-name="Fill-64" class="cls-18" points="1355.11 332.26 1338.64 332.64 1339.03 349.12 1355.49 348.73 1355.11 332.26"/></g></g><g id="Fill-65-Clipped-6" data-name="Fill-65-Clipped"><g class="cls-23"><polygon id="Fill-65-7" data-name="Fill-65" class="cls-18" points="1356.77 412.99 1340.3 413.38 1340.69 429.85 1357.15 429.46 1356.77 412.99"/></g></g><g id="Fill-66-Clipped-6" data-name="Fill-66-Clipped"><g class="cls-23"><polygon id="Fill-66-6" data-name="Fill-66" class="cls-18" points="1335.36 373.23 1318.9 373.61 1319.28 390.09 1335.75 389.7 1335.36 373.23"/></g></g><g id="Fill-67-Clipped-6" data-name="Fill-67-Clipped"><g class="cls-23"><polygon id="Fill-67-7" data-name="Fill-67" class="cls-18" points="1335.83 393.23 1319.37 393.62 1319.75 410.09 1336.22 409.7 1335.83 393.23"/></g></g><g id="Fill-68-Clipped-6" data-name="Fill-68-Clipped"><g class="cls-23"><polygon id="Fill-68-6" data-name="Fill-68" class="cls-18" points="1336.31 413.47 1319.84 413.86 1320.23 430.33 1336.69 429.94 1336.31 413.47"/></g></g><g id="Fill-69-Clipped-6" data-name="Fill-69-Clipped"><g class="cls-23"><polygon id="Fill-69-7" data-name="Fill-69" class="cls-18" points="1316.08 413.94 1299.62 414.33 1300 430.81 1316.46 430.42 1316.08 413.94"/></g></g><g id="Fill-70-Clipped-5" data-name="Fill-70-Clipped"><g class="cls-23"><polygon id="Fill-70-6" data-name="Fill-70" class="cls-18" points="1436.8 390.55 1420.34 390.93 1420.72 407.41 1437.19 407.02 1436.8 390.55"/></g></g><g id="Fill-71-Clipped-5" data-name="Fill-71-Clipped"><g class="cls-23"><polygon id="Fill-71-5" data-name="Fill-71" class="cls-18" points="1416.81 391.01 1400.35 391.4 1400.73 407.88 1417.2 407.49 1416.81 391.01"/></g></g><g id="Fill-72-Clipped-5" data-name="Fill-72-Clipped"><g class="cls-23"><polygon id="Fill-72-5" data-name="Fill-72" class="cls-18" points="1416.39 370.82 1399.92 371.21 1400.31 387.68 1416.78 387.29 1416.39 370.82"/></g></g><g id="Fill-73-Clipped-5" data-name="Fill-73-Clipped"><g class="cls-23"><polygon id="Fill-73-6" data-name="Fill-73" class="cls-18" points="1396.16 371.29 1379.7 371.68 1380.08 388.15 1396.55 387.77 1396.16 371.29"/></g></g><g id="Fill-74-Clipped-5" data-name="Fill-74-Clipped"><polygon id="Fill-74-5" data-name="Fill-74" class="cls-18" points="1396.64 391.77 1380.18 392.16 1380.56 408.63 1397.03 408.24 1396.64 391.77"/></g></g></g></g></g></g></g></svg>