<?xml version="1.0" encoding="utf-8"?>
<!-- Generator: Adobe Illustrator 22.1.0, SVG Export Plug-In . SVG Version: 6.00 Build 0)  -->
<svg version="1.1" id="Layer_1" xmlns="http://www.w3.org/2000/svg" xmlns:xlink="http://www.w3.org/1999/xlink" x="0px" y="0px"
	 viewBox="0 0 1920 525" style="enable-background:new 0 0 1920 525;" xml:space="preserve">
<style type="text/css">
	.st0{fill:#2ADFDF;stroke:#979797;}
	.st1{fill:#D1DE6C;}
	.st2{fill:#B3BA4B;}
	.st3{fill:#9D8974;}
	.st4{fill:#E8AA6B;}
	.st5{fill:#7C6653;}
	.st6{fill:#C0824C;}
	.st7{fill:#3D1717;}
	.st8{fill:#A6D8D7;}
	.st9{fill:#867A75;}
	.st10{fill:#6C615B;}
	.st11{fill:#FFFBEF;}
	.st12{fill:#D9D1C4;}
	.st13{fill:#7E3BEB;}
	.st14{display:none;}
	.st15{display:inline;}
</style>
<title>header-left</title>
<g id="Homepage">
	<g id="_1.-Header">
		<g id="header-left">
			<g id="header">
				<rect id="Rectangle-2" x="-20.2" y="-12.9" class="st0" width="1945.3" height="572.7"/>
			</g>
			<g id="frankenstein">
				<path id="Fill-5" class="st1" d="M229.9,533.3c-7.1,11.8-7.3,21.1-4,28.4l0,0c0,0-1.9,2.4-7.4,1s-1.4-12.2-8.2-12.8
					c-0.7-0.1-1.4,0-2.1,0.1c0.6-7,0.9-14,0.8-21H209c23-9.2,38.7-33.8,46.2-63.6l0,0C255.2,465.2,254.1,493.1,229.9,533.3z
					 M151.9,565.2c-7.4-0.7-9.2-2.8-8.7-5.7c3.8-3.5,5.8-8.6,5.4-13.8c-0.3-3.1-1-6.1-2.2-8.9c-2.3-5.8-5.8-10.6-7.1-12.9
					c-6.3-10.8-14.1-24.5-18.6-39.8c-6.2-21.4-6-45.3,6.4-77.6c-0.5,1.9-24.7,97.2,36.6,121.4l-1.7-0.6c-1.4,13.3-1.7,26.7-0.8,40
					l0,0C158.2,566.1,155.1,565.4,151.9,565.2L151.9,565.2z M288.6,486.7c-5.8-72.7-36-115.2-36-115.2c-9.4-7.4-19.9-13.3-31-17.6
					l0,0c2.8-23.4,4.6-53.8,3.8-71.5c-0.9-21.4-39.3-19-52.7-17.5c-12.8,1.4-49.6,4.5-45,26.9c3.1,14.9,20,61.4,20,61.4l-11.6,5.4
					l-11.8,8.1c0,0-30.3,45.1-44.1,103.1c-6.9,29.3,3.4,83.6,13.2,92.8c-0.1,0.2-0.2,0.3-0.3,0.5c-5.2,6.7-19.8,7.8-18.4,15.6
					S82,599.8,93,595.9s-1.7-9.2-2.8-15.9c-1.2-7.4,7.1-9.2,13.7-11.5c3.3,0.9,6.8,1.3,10.3,1.2c-0.8,4.2-2.4,16.9,4,23
					c7.8,7.3,12.3,9.5,17.9,5.1s4.6-7.5-7.5-12.3c-4-1.6-4.3-10.7-5.1-17c1.2-0.5,9.8-3.3,13.5-4.7c2.1,4.5,5,10.4,11.5,13.7
					c6.7,3.4,11.4,4.1,14.3,3.6l0,0c0.8,5.3,2.1,10.6,3.9,15.7c0,0-16-0.5-17.5,6.1s26.6,4.6,28.3,2.5s-14.6-33.9-6.4-75l-0.2-0.1
					c1,0.3,2,0.5,3,0.8c8.5,2.1,17.3,2.3,25.9,0.6h-0.2c1,41.9-10.5,72.4-9.2,74.8s28.6,9.3,28.3,2.5s-18.5-10.4-18.5-10.4
					s3.4-13.8,5.9-31.8c0.2,0.2,0.3,0.5,0.5,0.7c8.3,10.7,23.8,1.2,23.8,1.2l0,0c3.3,3.5,7.1,6.4,11.3,8.7c0,0-8.6,11.9-16.6,5.3
					c-9.8-8.1-13.6-1.8-13.6-1.8s-7.5,13.8,12.4,14s25.6-13.8,25.6-13.8c3.6,1.5,7.4,2.7,11.2,3.6c0.3,0.1,0.5,0.4,0.5,0.7
					c0,0.1-0.1,0.2-0.1,0.3c-8.7,12.4-21.1,12.1-28.6,16.2s7.2,20.2,25.6,4S294.4,559.4,288.6,486.7z"/>
				<path id="Fill-10" class="st2" d="M261.9,411.5l0.3,21.1l-4.4,27.5l-1.1,7.5c0.2-0.6,0.3-1.2,0.5-1.8l0,0c0,0-0.5,11.5-7.2,30.4
					l0,0c-4.8,13.1-10.9,25.7-18.2,37.6c-7.2,11.8-7.3,21.1-4,28.4l0,0l0,0c1.3,2.1,2.7,4.2,4.2,6.2c4.2-10.5,9.5-20.5,15.9-29.8
					C286.5,480.3,262,411.5,261.9,411.5"/>
				<polyline id="Fill-11" class="st2" points="227,363.7 221.4,359.8 220.9,365.5 221.2,366.8 227,363.7 				"/>
				<path id="Fill-12" class="st2" d="M211.5,529.8L211.5,529.8c12.1-4.8,22.2-13.9,30.2-25.8c-8.4,7.6-23.3,13.6-49.5,10.7
					c-68-7.6-51.7-109.1-51.7-109.1c7.5-6.4,5.2-16.3,5.2-16.3c-2.4,6.8-9.4,8.6-9.4,8.6l-4.1,0.6l-4.6,13.9
					c-4.3,21.3-15.1,95.4,38.3,116.4l-1.7-0.6c-0.4,4.3-0.8,8.4-1,12.3c2.7,1.4,5.5,2.6,8.4,3.7c0.4-4.4,1-8.7,1.9-13h-0.2
					c1,0.3,2,0.5,3,0.8c8.6,2.1,17.5,2.3,26.1,0.6l-0.2,0.1c0.1,4.9,0.1,9.7-0.1,14.2c3.1-0.5,6.1-1.2,9.1-2.2
					C211.4,539.5,211.6,534.6,211.5,529.8"/>
				<path id="Fill-15" class="st2" d="M172.7,264.9c-12.8,1.4-49.6,4.5-45,26.9c3.1,15,20,61.5,20,61.5l-11.6,5.4l-11.8,8.2
					c0,0-30.4,45.2-44.1,103.2c-6.9,29.4,3.4,83.7,13.2,92.9c-0.1,0.2-0.2,0.3-0.3,0.5c-5.2,6.7-19.8,7.8-18.4,15.6
					s7.3,21.2,18.2,17.3s-1.7-9.2-2.8-15.9c-1.2-7.4,7-9.2,13.7-11.5c3.3,0.9,6.8,1.3,10.3,1.2c-0.8,4.2-2.4,17,4,23
					c7.8,7.3,12.3,9.5,17.9,5.1s4.6-7.5-7.4-12.3c-3.9-1.6-4.3-10.7-5.1-17c0.6-0.3,2.9-1,5.6-1.9c-32.1-0.7-33.8-56.2-34.9-98.2
					s23.2-81.8,30.6-85.3c7.4-3.5,7,11.8,7,11.8c10.1-2.4,13.5-18.8,13.5-18.8l26.7-5.5c0,0-17-38.4-21.6-72.8s64.8-29.8,65-29.8
					C202.8,262.4,181.8,263.9,172.7,264.9"/>
				<path id="Fill-16" class="st2" d="M212.2,310.8c0.8,9.2-2.1,17-6.6,17.4s-8.7-6.7-9.5-15.9s2.1-17,6.6-17.4
					S211.4,301.6,212.2,310.8"/>
				<path id="Fill-17" class="st2" d="M182,314.2c0.8,9.2-2.1,17-6.6,17.4s-8.7-6.7-9.4-15.9s2.1-17,6.6-17.4S181.2,305,182,314.2"
					/>
				<path id="Fill-18" class="st3" d="M258,516.8c0,0,8.3-6.2,15.2-31.8s-1.8-73.6-2.4-76.2s-4.8-15-4.8-15l-11.9-20.1
					c0,0,10,23.9,7.8,51s-6.1,43.8-6.1,43.8s-0.8,26.8-20.1,58.1l-2.3,4l0.6,0.9C234,531.5,252.3,526,258,516.8"/>
				<path id="Fill-19" class="st4" d="M128.8,406.8c0,0-28.1,107.6,46.8,124.9c9.5,2.4,19.4,2.3,28.9-0.1c0,0-12.6-11.9-14.3-24.5
					s-0.9-25.5,9-38.6c0,0-2.8-10-6.4-14s-17.3-15.1-20.1-16s-11.8-14.2-11.8-14.2s-8.8-19-16.2-20.4s-4.6-3.5-13.4-2.1L128.8,406.8
					l22.7-83.5l2.7-30.8"/>
				<path id="Fill-20" class="st5" d="M261.6,423.2c-0.1,0.8-0.1,1.5-0.2,2.3l0.1,6.2l-2.7,16.9c-0.6,4.2-1.2,7.8-1.7,10.7l0,0
					l-1.1,7.5c0.2-0.6,0.3-1.2,0.5-1.8l0,0c0,0-0.3,6.8-3.4,18.6c-3.5,14.8-9.4,29-17.3,42l-0.7,1.3c-0.3,0.6-0.6,1.1-1,1.7l-0.6,1
					l0.6,0.9c0,0,17.9-5.5,23.6-14.9c0.6-0.5,1.1-1,1.6-1.6c17.6-45.8,5.7-91.4,2.6-101.5C261.9,415.9,261.8,419.5,261.6,423.2"/>
				<path id="Fill-24" class="st6" d="M179.2,532.5c0.4,0.1,0.9,0.1,1.4,0.2c0.7,0.1,1.5,0.2,2.2,0.3c0.6,0.1,1.1,0.1,1.7,0.2
					l1.8,0.2c0.6,0,1.3,0.1,1.9,0.1h1.4c0.7,0,1.4,0,2.1,0h1.1c0.8,0,1.5-0.1,2.3-0.2l0.7-0.1c1.9-0.2,3.7-0.5,5.5-0.8l-0.2,0.1
					c1.1-0.2,2.2-0.5,3.3-0.8c0,0-8-7.5-12.1-16.9l-1-0.1c-67.2-7.6-51.1-108.7-51.1-108.7c0.8-0.7,1.6-1.5,2.3-2.4
					c-4.9-1.3-3.5-2.9-11.4-1.6l-0.3,0.6l-3.4,10.2l0,0c0,0.1,0,0.1,0,0.2c-0.1,0.3-0.1,0.6-0.2,1c0,0.1,0,0.3-0.1,0.4
					c-0.1,0.3-0.1,0.6-0.2,0.9c0,0.1,0,0.3-0.1,0.4c-0.1,0.4-0.1,0.7-0.2,1.1c0,0.1,0,0.2,0,0.3c-0.2,1-0.4,2-0.5,3.2v0.3
					c-0.1,0.5-0.1,0.9-0.2,1.4l-0.1,0.4c-0.1,0.5-0.1,0.9-0.2,1.4l-0.1,0.4c-0.2,1.2-0.3,2.5-0.5,3.8v0.3c-0.1,0.5-0.1,1.1-0.2,1.7
					l-0.1,0.5c-0.1,0.5-0.1,1-0.2,1.6l-0.1,0.5c-0.1,0.6-0.1,1.2-0.2,1.8v0.3c-0.1,0.7-0.1,1.5-0.2,2.2c0,0.1,0,0.2,0,0.3
					c0,0.6-0.1,1.2-0.1,1.9c0,0.2,0,0.4,0,0.7l-0.1,1.6c0,0.2,0,0.5,0,0.7c0,0.6,0,1.1-0.1,1.7v0.6c0,0.8,0,1.6-0.1,2.4v0.3
					c0,0.7,0,1.4,0,2.1v0.8c0,0.5,0,1.1,0,1.6c0,0.3,0,0.6,0,0.9c0,0.5,0,1,0,1.6c0,0.3,0,0.6,0,0.9c0,0.6,0,1.3,0.1,1.9
					c0,0.2,0,0.4,0,0.6l0.1,2.3c0,0.3,0,0.7,0.1,1c0,0.5,0.1,1,0.1,1.5l0.1,1.1c0,0.5,0.1,0.9,0.1,1.4s0.1,0.8,0.1,1.1
					s0.1,1,0.2,1.5s0.1,0.7,0.1,1c0.1,0.8,0.2,1.6,0.3,2.3c0,0.4,0.1,0.8,0.2,1.1l0.2,1.3c0.1,0.4,0.1,0.8,0.2,1.2s0.1,0.8,0.2,1.2
					l0.2,1.3c0.1,0.4,0.2,0.8,0.2,1.2s0.2,0.9,0.3,1.3s0.2,0.9,0.3,1.3c0.2,0.8,0.4,1.5,0.6,2.3c0.1,0.4,0.2,0.7,0.3,1.1l0.4,1.4
					c0.1,0.4,0.2,0.7,0.3,1s0.3,0.9,0.4,1.4l0.3,1l0.5,1.4c0.1,0.3,0.2,0.5,0.3,0.8c0.4,1,0.7,1.9,1.1,2.9l0.3,0.7
					c0.2,0.5,0.4,0.9,0.6,1.4l0.4,0.8c0.2,0.5,0.4,0.9,0.7,1.4c0.1,0.3,0.3,0.5,0.4,0.8l0.7,1.4c0.1,0.2,0.2,0.4,0.4,0.7
					c0.9,1.6,1.8,3.2,2.9,4.8l0.4,0.6c0.3,0.5,0.6,0.9,0.9,1.3l0.5,0.7c0.3,0.4,0.6,0.9,1,1.3l0.5,0.6c1.2,1.5,2.5,3,3.8,4.3
					l0.4,0.5c0.4,0.4,0.8,0.8,1.2,1.2l0.6,0.5c0.4,0.4,0.9,0.8,1.3,1.1l0.6,0.5c0.5,0.4,0.9,0.8,1.4,1.1l0.2,0.2
					c1.1,0.8,2.2,1.7,3.4,2.4l0.4,0.2l1.6,1l0.7,0.5c0.5,0.3,1,0.6,1.6,0.9c0.3,0.2,0.5,0.3,0.8,0.4c0.6,0.3,1.1,0.6,1.6,0.9
					l0.7,0.3c1.4,0.7,2.8,1.3,4.2,1.8c2.4,0.9,4.8,1.8,7.3,2.4l0,0c1,0.3,1.9,0.5,3,0.8c1.2,0.3,2.5,0.5,3.7,0.7"/>
				<path id="Fill-28" class="st7" d="M184.1,372.5c-12.1-1.1-24-4-35.3-8.7c-0.3-0.2-0.5-0.6-0.4-0.9c0,0,0,0,0,0
					c0.2-0.3,0.6-0.5,0.9-0.3c0.4,0.2,44.9,20.1,79.5,0c0.3-0.2,0.8-0.1,1,0.2c0,0,0,0,0,0c0.2,0.3,0.1,0.7-0.2,0.9
					c0,0-0.1,0-0.1,0.1C214.9,372.4,198.4,373.8,184.1,372.5"/>
				<path id="Fill-29" class="st7" d="M153.1,365.8c-0.2,0-0.4-0.1-0.5-0.3c-8-13-21.8-53.9-25.9-73.8c-1.1-4.5-0.2-9.2,2.5-12.9
					c8-11.1,30.6-13.6,41.5-14.8l1.6-0.2c10.7-1.2,36.7-2.9,47.9,6.9c3.3,2.8,5.3,6.9,5.4,11.2c0.9,21.1-1.8,60.9-5.7,85.3
					c-0.1,0.4-0.4,0.6-0.8,0.6c-0.4-0.1-0.6-0.4-0.6-0.8c0,0,0,0,0,0c3.9-24.3,6.5-64,5.6-85c-0.1-4-1.9-7.7-4.9-10.3
					c-10.8-9.4-36.4-7.7-46.8-6.6l-1.6,0.2c-10.7,1.2-32.9,3.6-40.5,14.2c-2.4,3.4-3.2,7.7-2.2,11.7c4,19.6,18,60.8,25.7,73.3
					c0.2,0.3,0.1,0.8-0.2,1c0,0,0,0,0,0C153.4,365.8,153.2,365.8,153.1,365.8"/>
				<path id="Fill-30" class="st7" d="M150.4,286.3c-0.3,0-0.6-0.3-0.6-0.5c-2.4-9.9-13.4-10.3-13.8-10.3c-0.4,0-0.8-0.2-0.8-0.6
					c0-0.4,0.2-0.8,0.6-0.8c0.1,0,0.1,0,0.2,0c0.1,0,12.5,0.4,15.2,11.4c0.1,0.4-0.1,0.8-0.5,0.9
					C150.5,286.3,150.5,286.3,150.4,286.3"/>
				<path id="Fill-31" class="st7" d="M162.6,283.3c-0.3,0-0.6-0.3-0.7-0.6c-1.8-10.2-15.6-12.5-15.7-12.5c-0.4,0-0.7-0.3-0.7-0.7
					s0.3-0.7,0.7-0.7c0.1,0,0.1,0,0.2,0c0.1,0,14.9,2.5,16.9,13.7c0.1,0.4-0.2,0.7-0.6,0.8c0,0,0,0,0,0H162.6"/>
				<path id="Fill-32" class="st7" d="M173.7,281.3c-0.4,0-0.7-0.4-0.7-0.8c0.5-10.9-9.6-14.6-9.7-14.7c-0.4-0.1-0.6-0.6-0.4-1
					c0,0,0,0,0,0c0.1-0.4,0.5-0.6,0.9-0.5c0,0,0,0,0.1,0c0.1,0,11.2,4.2,10.6,16.2C174.5,280.9,174.2,281.3,173.7,281.3L173.7,281.3
					"/>
				<path id="Fill-33" class="st7" d="M184.6,281.2h-0.1c-0.4-0.1-0.6-0.5-0.5-0.9c2-8.2-6.7-14.3-6.8-14.4c-0.3-0.2-0.4-0.7-0.2-1
					c0.2-0.3,0.6-0.4,1-0.2c0,0,0,0,0,0c0.4,0.3,9.6,6.8,7.4,16C185.3,281.1,184.9,281.3,184.6,281.2"/>
				<path id="Fill-34" class="st7" d="M195.6,279.2c-0.1,0-0.1,0-0.2,0c-0.3-0.2-0.5-0.6-0.3-0.9c2.7-7.9-4.8-14.1-4.9-14.2
					c-0.3-0.3-0.3-0.7-0.1-1c0.1-0.3,0.5-0.4,0.8-0.3c0,0,0.1,0,0.1,0.1c0.1,0.1,8.4,6.9,5.3,15.9
					C196.1,279.1,195.9,279.3,195.6,279.2"/>
				<path id="Fill-35" class="st7" d="M207.1,280.2c-0.1,0-0.2,0-0.2-0.1c-0.4-0.2-0.5-0.6-0.3-0.9c0,0,0,0,0-0.1
					c3.2-6.6-4.5-14.1-4.6-14.2c-0.3-0.3-0.3-0.7,0-1c0.3-0.3,0.7-0.3,1,0c0,0,0,0,0,0c0.4,0.3,8.5,8.4,4.8,15.9
					C207.7,280.1,207.5,280.3,207.1,280.2"/>
				<path id="Fill-36" class="st7" d="M172.4,332.4c-0.3,0-0.6-0.3-0.6-0.6l-2.9-32.4c0-0.4,0.2-0.7,0.6-0.8l2.7-0.3
					c2-0.2,3.9,0.9,5.7,3.1c0.2,0.3,0.2,0.8-0.1,1c-0.3,0.2-0.7,0.2-1-0.1c0,0,0,0,0,0c-1-1.3-2.6-2.8-4.5-2.6l-2,0.2l2.8,31l2-0.2
					c1.9-0.2,3.2-2,3.9-3.4c0.2-0.3,0.6-0.5,0.9-0.3c0.4,0.2,0.5,0.6,0.3,1c0,0,0,0,0,0c-1.3,2.5-3.1,4-5.1,4.2L172.4,332.4
					L172.4,332.4"/>
				<path id="Fill-37" class="st7" d="M179.1,313.9c0.8,9.2-2.1,17-6.6,17.4s-8.7-6.7-9.5-15.9s2.1-17,6.6-17.4
					S178.3,304.7,179.1,313.9"/>
				<g id="Group-40">
					<g>
						<polyline id="Fill-38" class="st8" points="164.8,315.8 168.7,310.8 173.8,321 177.4,314.1 183.6,324.6 189.6,310.7 
							195.3,319 189.5,304.6 183.7,316.4 177.5,306.7 173.7,314.6 168.6,306.4 164.8,315.8 						"/>
					</g>
				</g>
				<path id="Fill-41" class="st7" d="M170.2,299.5h-0.6c-4.1,0.4-6.9,7.9-6,16.4s4.9,15.4,9,15s6.9-7.9,6-16.4
					C177.8,306.4,174,299.8,170.2,299.5z M171.7,332.3c-4.7-0.4-8.9-7.3-9.7-16.3c-0.9-9.6,2.3-17.5,7.4-17.9s9.7,6.7,10.6,16.3
					s-2.3,17.5-7.4,17.9C172.3,332.3,172,332.3,171.7,332.3z"/>
				<path id="Fill-42" class="st7" d="M180.4,307c-0.3,0-0.5-0.2-0.7-0.4c-0.4-0.6-0.7-1.2-1.2-1.8c-0.2-0.2-0.1-0.6,0.1-0.7
					c0.1,0,0.1-0.1,0.2-0.1c0.4-0.1,0.8,0,1.1,0.3c0.5,0.6,0.9,1.3,1.3,2c0.1,0.3,0,0.6-0.2,0.7c-0.1,0-0.1,0-0.2,0.1
					C180.6,307,180.5,307,180.4,307"/>
				<path id="Fill-43" class="st7" d="M181.6,320.1c-0.2,0-0.4-0.4-0.4-0.8s0-0.9,0.1-1.3s0.2-0.8,0.5-0.8s0.5,0.4,0.4,0.8
					s-0.1,0.9-0.1,1.4S181.8,320.1,181.6,320.1L181.6,320.1"/>
				<path id="Fill-44" class="st7" d="M180.9,326.1L180.9,326.1c-0.3-0.1-0.4-0.5-0.3-0.9c0.2-0.8,0.3-1.6,0.4-2.4
					c0.1-0.4,0.3-0.7,0.5-0.6s0.3,0.4,0.3,0.8c-0.1,0.9-0.3,1.8-0.4,2.6C181.3,325.9,181.1,326.1,180.9,326.1"/>
				<path id="Fill-46" class="st7" d="M202.8,328c-0.3,0-0.6-0.3-0.6-0.6l-3-32.4c0-0.2,0-0.4,0.2-0.5c0.1-0.1,0.3-0.2,0.5-0.2
					l2.7-0.2c2.6-0.2,5,1.5,7,5c0.2,0.3,0.2,0.8-0.1,1c-0.3,0.2-0.8,0.2-1-0.1c0,0-0.1-0.1-0.1-0.1c-1.7-2.9-3.8-4.4-5.7-4.2l-2,0.2
					l2.9,31l2-0.2c1-0.1,2-0.7,2.7-1.5c0.3-0.3,0.7-0.3,1-0.1c0.3,0.3,0.3,0.7,0.1,1c0,0-0.1,0.1-0.1,0.1c-0.9,1.1-2.2,1.7-3.6,1.9
					L202.8,328L202.8,328"/>
				<path id="Fill-47" class="st7" d="M209.2,310.5c0.8,9.2-2.1,17-6.6,17.4s-8.7-6.7-9.5-15.9s2.1-17,6.6-17.4
					S208.4,301.4,209.2,310.5"/>
				<g id="Group-50">
					<g>
						<polyline id="Fill-48" class="st8" points="179.2,312.4 183.1,307.4 188.3,317.6 191.8,310.7 198,321.1 204.1,307.3 
							209.7,315.5 203.9,301.2 198.1,313 191.9,303.2 188.2,311.1 183,303 179.2,312.4 						"/>
					</g>
				</g>
				<path id="Fill-51" class="st7" d="M211.2,305.7c-0.4,0-0.7-0.2-0.8-0.6c-0.3-0.9-0.6-1.7-1-2.4c-0.2-0.4,0-0.8,0.4-1
					c0,0,0,0,0.1,0c0.4-0.2,0.9,0,1.1,0.5c0.4,0.8,0.7,1.7,1,2.6c0.1,0.4-0.1,0.8-0.4,1c0,0-0.1,0-0.1,0
					C211.4,305.7,211.3,305.7,211.2,305.7"/>
				<path id="Fill-52" class="st7" d="M211.6,317.8L211.6,317.8c-0.3-0.1-0.5-0.4-0.4-0.7c0.1-0.5,0.1-1.1,0.2-1.7
					c0-0.4,0.3-0.6,0.5-0.6l0,0c0.3,0.1,0.5,0.4,0.4,0.7c-0.1,0.6-0.1,1.2-0.2,1.8C212.1,317.6,211.8,317.8,211.6,317.8"/>
				<path id="Fill-53" class="st7" d="M210.2,326.7c-0.1,0-0.2,0-0.3-0.1c-0.4-0.2-0.6-0.7-0.3-1.2c0,0,0,0,0,0
					c0.7-1.3,1.2-2.6,1.6-4c0.1-0.5,0.5-0.8,1-0.7c0.5,0.1,0.8,0.5,0.7,1c0,0,0,0.1,0,0.1c-0.4,1.5-1,3-1.7,4.4
					C210.8,326.5,210.5,326.7,210.2,326.7"/>
				<path id="Fill-54" class="st7" d="M200.3,296.1c-0.2,0-0.4,0-0.6,0c-1.9,0.2-3.6,1.9-4.8,4.9c-2.5,7.5-1.7,15.7,2.1,22.6
					c1.7,2.7,3.7,4.1,5.6,4s3.6-1.9,4.8-4.9c2.4-7.5,1.7-15.7-2.1-22.6C203.8,297.6,202,296.3,200.3,296.1z M201.9,329
					c-2.2-0.2-4.3-1.8-6.1-4.6c-4-7.3-4.9-15.9-2.3-23.9c1.4-3.5,3.5-5.6,6-5.8s5,1.4,7,4.6c2.1,3.6,3.3,7.5,3.6,11.6
					c0.5,4.1,0,8.2-1.4,12.1c-1.4,3.5-3.5,5.6-6,5.8C202.5,329,202.2,329,201.9,329z"/>
				<path id="Fill-55" class="st7" d="M138.4,316.4l-8.5,0.7l-0.2-1.7c-0.2-1.9-1.9-3.3-3.8-3.1c-1.9,0.1-3.3,1.8-3.2,3.7
					c0,0,0,0,0,0l1,10.3c0.2,1.9,1.9,3.3,3.8,3.1c1.9-0.2,3.3-1.8,3.2-3.7c0,0,0,0,0,0l-0.2-1.7l8.5-0.7c1.9-0.1,3.3-1.8,3.2-3.7
					c0,0,0,0,0,0C142,317.6,140.3,316.2,138.4,316.4"/>
				<path id="Fill-56" class="st7" d="M241.2,314.3l-1-10.3c-0.2-1.9-2-3.3-3.9-3.1c-1.9,0.1-3.3,1.8-3.2,3.6c0,0,0,0,0,0.1l0.2,1.8
					L226,307c-0.1,2.3-0.2,4.6-0.3,6.9l8.3-0.7l0.2,1.7c0.3,1.9,2,3.2,3.9,3.1C239.9,317.9,241.3,316.2,241.2,314.3
					C241.2,314.3,241.2,314.3,241.2,314.3"/>
				<path id="Fill-58" class="st7" d="M125.1,367.2c-4.1,6.2-30.9,48.9-43.3,101.8c-6.9,29.4,3.6,83.1,13,91.9
					c0.3,0.3,0.3,0.7,0.1,1l-0.1,0.2c-0.1,0.1-0.2,0.2-0.2,0.3c-2.2,2.9-6,4.7-9.7,6.5c-5,2.4-9.3,4.5-8.5,8.5
					c1.1,6,4.3,13.2,9.1,16.1c2.5,1.4,5.5,1.7,8.1,0.6c2.3-0.8,3.6-1.8,3.9-2.8c0.4-1.4-1.2-3.2-2.9-5.2s-3.8-4.5-4.2-7.1
					c-1.2-7.2,5.9-9.5,12.1-11.6l2-0.7c0.1,0,0.3,0,0.4,0c3.3,0.9,6.6,1.3,10,1.2c0.2,0,0.4,0.1,0.6,0.2c0.1,0.2,0.2,0.4,0.2,0.6
					c-0.7,3.8-2.4,16.5,3.8,22.3c8.3,7.7,12,8.8,16.9,5c2.2-1.7,3.1-3.1,2.9-4.3c-0.3-2-3.5-4.1-10.2-6.8c-3.7-1.5-4.5-8.4-5.1-14.4
					c-0.1-1.1-0.2-2.1-0.4-3.1c0-0.3,0.1-0.6,0.4-0.8c0.6-0.3,2.7-1,5.3-1.9c2.9-1,6.2-2.1,8.2-2.9c0.3-0.1,0.7,0,0.9,0.4
					c2.3,5.1,5.1,10.3,11.1,13.3c11.4,5.8,16.4,3.5,17.4,1.4c0.9-1.9,0.8-4.1-0.1-6c-1.8-3.3-6.8-5.5-14.4-6.2
					c-4.6-0.5-7.3-1.4-8.6-3.1c-0.7-1-1-2.2-0.8-3.4c0-0.2,0.1-0.3,0.2-0.4c3.6-3.4,5.5-8.2,5.1-13.2c-0.3-3-1-5.9-2.1-8.6
					c-1.6-3.8-3.5-7.4-5.8-10.8c-0.5-0.8-0.9-1.5-1.2-2c-5.9-10.3-14.1-24.4-18.6-39.9c-8.1-28.1-4.1-57,13.1-93.7
					C137.2,382.5,127.6,370.3,125.1,367.2z M89,596c-1.5-0.1-3-0.6-4.4-1.4c-5.6-3.3-8.7-11.2-9.8-17c-0.9-5.1,4.1-7.5,9.3-10.1
					c3.5-1.7,7.1-3.4,9.1-6c-4.7-5-9.6-20-12.6-38.7c-3.3-20.7-3.4-40.9-0.3-54.1c13.5-57.3,43.8-102.6,44.1-103.1
					c0.1-0.2,0.3-0.3,0.5-0.3c0.2,0,0.4,0.1,0.6,0.2c0.6,0.6,13.8,15.7,9.6,24.7c-17,36.4-21,64.9-13,92.7
					c4.4,15.3,12.5,29.3,18.4,39.5c0.3,0.5,0.7,1.2,1.2,2c2.3,3.5,4.3,7.2,5.9,11c1.2,3,1.9,6.1,2.2,9.3c0.4,5.2-1.6,10.4-5.4,14
					c-0.1,0.7,0.1,1.5,0.5,2.1c1,1.3,3.6,2.1,7.6,2.5c8.2,0.8,13.4,3.2,15.4,7c1.2,2.3,1.3,5,0.1,7.4c-1.3,2.7-6.9,5.5-19.3-0.8
					c-6.6-3.3-9.7-9.4-11.5-13.4c-2,0.8-5,1.8-7.6,2.6c-1.9,0.7-3.8,1.3-4.7,1.6c0.1,0.8,0.2,1.7,0.3,2.6c0.6,5.4,1.3,12.1,4.3,13.3
					c7.4,3,10.7,5.3,11.1,7.9c0.3,1.8-0.8,3.5-3.5,5.6c-6.1,4.8-11.1,2.1-18.7-5.1c-6.2-5.8-5.3-17.3-4.4-22.7
					c-3.2,0.1-6.3-0.3-9.4-1.2l-1.8,0.6c-5.9,2-12.1,4-11.1,10c0.4,2.2,2.2,4.3,3.9,6.4c1.9,2.3,3.8,4.4,3.2,6.5
					c-0.4,1.5-1.9,2.7-4.8,3.7C92.4,596,90.7,596.2,89,596z"/>
				<path id="Fill-63" class="st7" d="M130.4,397.9h-0.2c-0.4-0.1-0.6-0.4-0.6-0.8c0.1-0.4,0.4-0.6,0.8-0.6
					c0.4,0.1,10.1,1.3,12.8-10.9c0-0.4,0.4-0.7,0.8-0.6s0.7,0.4,0.6,0.8c0,0.1,0,0.1,0,0.2C141.8,398.4,131.9,398.1,130.4,397.9"/>
				<path id="Fill-64" class="st7" d="M125,367.3c-0.2,0-0.4-0.1-0.5-0.3c-0.2-0.3-0.2-0.7,0.1-1c0,0,0,0,0,0
					c7.6-5.5,15.9-10.1,24.7-13.5c0.4-0.2,0.8,0,1,0.4c0.2,0.4,0,0.8-0.4,0.9c0,0,0,0,0,0c-8.7,3.4-16.8,7.9-24.4,13.4
					C125.4,367.3,125.2,367.4,125,367.3"/>
				<path id="Fill-65" class="st7" d="M183.4,534.1c-3.2-0.3-6.3-0.8-9.4-1.5c-17.8-4.1-31.4-13.7-40.2-28.5
					c-22.4-37.4-7.3-96.6-7.1-97.2c0.1-0.4,0.5-0.6,0.9-0.5c0.4,0.1,0.6,0.5,0.5,0.9c0,0,0,0,0,0c-0.2,0.6-15.1,59.2,7,96.1
					c8.6,14.4,21.8,23.8,39.3,27.8c21.9,5,41.5-1.2,56.7-18c27.3-30.3,36.5-92,21-140.6c-9.3-7.2-19.6-13.1-30.6-17.4
					c-0.4-0.1-0.5-0.6-0.4-0.9c0,0,0,0,0,0c0.1-0.4,0.5-0.5,0.9-0.4c0,0,0,0,0,0c11.2,4.4,21.7,10.3,31.1,17.7
					c0.1,0.1,0.2,0.2,0.2,0.3c15.8,49.1,6.5,111.6-21.2,142.2C218.7,529,202,535.8,183.4,534.1"/>
				<path id="Fill-67" class="st7" d="M198.2,469.2c-0.3,0-0.6-0.2-0.6-0.5c-3.5-14.1-11-19.1-18.8-24.3
					c-7.3-4.9-14.9-9.9-20.8-22.3c-11.8-25.1-27.3-19.9-27.9-19.7c-0.4,0.1-0.8-0.1-0.9-0.4c-0.1-0.4,0.1-0.8,0.4-0.9
					c0.2-0.1,17.2-5.9,29.7,20.4c5.7,12,13.1,17,20.3,21.8c8.1,5.4,15.7,10.5,19.4,25.2c0.1,0.4-0.1,0.8-0.5,0.9
					C198.4,469.2,198.3,469.2,198.2,469.2"/>
				<path id="Fill-69" class="st7" d="M157,436.4c-0.3,0-0.6-0.1-0.9-0.2c-1.4-0.5-2.2-2.1-1.6-3.6c0,0,0-0.1,0.1-0.1
					c0.5-1,4.9-10.3,12.9-12c1.6-0.4,3.2,0.5,3.6,2.1c0.4,1.5-0.6,3-2.1,3.3c0,0-0.1,0-0.1,0c-4.3,0.9-7.9,6.9-8.8,8.9
					C159.4,435.9,158.2,436.6,157,436.4"/>
				<path id="Fill-70" class="st7" d="M133.5,418.3c-1-0.1-1.9-0.7-2.2-1.7c-0.6-1.5-0.1-3.2,1.4-3.9l22.3-11.2
					c1.3-0.7,2.9-0.1,3.5,1.2c0,0.1,0.1,0.1,0.1,0.2c0.6,1.5,0.1,3.2-1.4,3.9L134.9,418C134.4,418.2,134,418.3,133.5,418.3"/>
				<path id="Fill-73" class="st7" d="M241.5,613.5c-1.6-0.1-3.2-0.5-4.7-1.2c-3.6-1.5-6.1-4.4-6.2-7.1c-0.1-1.7,0.9-3.3,2.4-4.1
					c2.6-1.3,5.3-2.3,8.1-3c6.8-2.1,14.5-4.4,20.5-12.8c-5.1-1.2-29.1-7.7-36-24c-3.5-8.3-2-17.9,4.4-28.4
					c24.1-39.5,25.4-67.4,25.4-67.7c0-0.4,0.3-0.7,0.7-0.7c0.4,0,0.7,0.3,0.7,0.7c0,0,0,0,0,0c0,0.3-1.4,28.5-25.6,68.3
					c-6.1,10.1-7.6,19.2-4.3,27.1c6.7,15.8,30.4,22.1,35.1,23.2c0.7,0.2,1.2,0.9,1,1.6c0,0.2-0.1,0.3-0.2,0.5
					c-6.3,8.9-14.6,11.4-21.3,13.5c-2.7,0.7-5.3,1.7-7.8,2.9c-1.1,0.5-1.7,1.6-1.7,2.8c0.1,2.2,2.3,4.6,5.4,5.9s11,3.2,21.4-5.8
					c25.5-22.3,35.1-60,30.3-118.6c-5.8-71.8-36-114.5-36.3-115c-0.2-0.3-0.2-0.8,0.2-1c0,0,0,0,0,0c0.3-0.2,0.8-0.2,1,0.2
					c0.3,0.4,30.7,43.5,36.6,115.7c4.8,59.1-5,97.1-30.9,119.7C252.2,612.8,245.8,613.9,241.5,613.5"/>
				<path id="Fill-79" class="st7" d="M232,531.4c-0.4-0.1-0.7-0.4-0.6-0.8c0.1-0.3,0.3-0.5,0.6-0.6c0.4,0,35-5.8,39.7-55.7
					c4.7-50.4-6.1-78.1-6.2-78.4c-0.2-0.4,0-0.8,0.4-0.9c0,0,0,0,0,0c0.4-0.1,0.8,0,0.9,0.4c0,0,0,0,0,0c0.1,0.3,2.8,7.1,5,20.4
					c2,12.2,3.8,32.2,1.4,58.7c-2.5,26.6-13.5,40.7-22.2,47.8c-9.5,7.7-18.3,9.1-18.7,9.2H232"/>
			</g>
			<g id="Group">
				<path id="Fill-12-2" class="st9" d="M1133.7,210.6c4.9,5.4,11.4,9.1,18.5,10.6c12.5,2.8,25.5-1.1,35.5-9.4
					c5.6,5.2,23.9,20.6,45.6,21.1c0.4,0,0.7-0.2,0.7-0.6c0-0.4,2.7-35.7-30.3-45.6c0.7-2.7,1.2-5.4,1.4-8.2
					c11.2-0.6,20.9-2.6,24.4-7.5c10.4-14.9,1.3-59.7-10.8-96.8c-18-55.5-56.6-77.8-61.5-79c-1.8-0.4-3-0.3-3.7,0.4
					c-1.4,1.5,0.4,4.8,0.8,5.5c0.2,0.3,0.5,0.4,0.9,0.3c0.3-0.1,0.5-0.4,0.5-0.7c-0.5-2.5-0.2-2.9-0.2-2.9c0.3,0,0.5,0,0.8,0.1
					c0.7,0.2,2.9,1.3,3.6,5.9c0.8,5.3-2.2,9.9-3.4,11.6c-11-14.9-20.2-22.7-26.8-22.7c-4,0.2-5.3,2.6-5.4,2.7
					c-0.1,0.3-0.1,0.6,0.2,0.8c0.3,0.2,0.6,0.2,0.9,0c1.3-1,3.2-2,4.6-1.3c2.2,1,3.1,5.6,2.2,11.4c-1.3,8.9-10.8,12.2-10.9,12.3
					c-0.3,0.1-0.5,0.4-0.4,0.7c0,0,0,0,0,0c10.4,28.9,1.9,88.4-17.9,124.9c-4.4,8.1-4.5,14.8-0.3,19.9c4.4,5.4,12.8,8.4,21.9,10
					c-0.4,2-0.7,4-0.9,6c-42.6,10.4-42.4,38.6-42.4,38.9c0,0.2,0.2,0.5,0.4,0.5c0.4,0.1,0.8,0.3,1.1,0.6c-0.1,0.3-1.7,0.9-3.2,1.2
					c-0.3,0-0.5,0.3-0.6,0.6c0,0.3,0.3,0.6,0.6,0.6C1107.4,226.4,1128.8,213.7,1133.7,210.6z"/>
				<path id="Fill-13" class="st10" d="M1141.1,181.4c1-2,7.2-2.5,23.6-0.9c10.7,1.1,14.6,2.9,15.9,4.3h0.6c0,0-1.7-6.5-18.8-6.9
					s-20.4,0.3-21.5,3.4L1141.1,181.4"/>
				<path id="Fill-14" class="st10" d="M1194,159.9c0,0,8.8-40.9-0.1-78.8s-27.4-62.5-27.4-62.5s33.7,36.5,42.3,72.2
					c0,0-9.2-50-50.3-89.9l0,0c0.4,1,0.7,2,0.8,3.1c0.8,5.3-2.1,9.9-3.4,11.7c31.7,42.4,38.6,91.3,39.1,121.2
					C1195.6,144.5,1195.2,152.3,1194,159.9"/>
				<path id="Fill-16-2" class="st10" d="M1102.7,164.8c4.4,5.4,13,8.4,22.2,10.1c-0.1,0.5-0.2,0.9-0.3,1.4l0,0l-0.7,4.6
					c0,0-13.1,6.8-13.8,19.1s21.8,7.2,21.8,7.2l2.6,4.6c4.9,5.1,11.3,8.7,18.3,10.2c5.2,1.1,10.6,1.2,15.8,0.1l-3.5-0.7
					c0,0-17.4-2.6-24.6-25.8c2.4,0.2,4.8-0.3,7-1.3c0,0-4-0.6-7.6-1c-1.7-6.5-2.4-13.3-2.4-20c0,0-12-3-14-1.3
					c-8.6-3.7,12.4-12.2,12.4-12.2c-27.5,4.9-11.6-24-5.4-53.4s2.2-69.9,2.2-69.9c20.8,39.2,21.8,95.8,21.8,95.8
					c15.2-45.9-21.9-131.4-21.9-131.4c0.1,1.8,0,3.6-0.3,5.4c-1.3,8.9-10.9,12.3-11,12.3c-0.3,0.1-0.5,0.4-0.4,0.7c0,0,0,0,0,0
					c10.5,29,1.9,88.7-18.1,125.4C1098.6,152.9,1098.4,159.6,1102.7,164.8"/>
				<path id="Fill-17-2" class="st11" d="M1152.5,194.8c0,0-12.8,6.7-21.6-0.9c0,0-2.5,7.5,9.9,8S1152.5,194.8,1152.5,194.8"/>
				<path id="Fill-18-2" class="st12" d="M1135.4,196c0-0.1,0-0.2,0-0.3c-1.7-0.6-3.2-1.6-4.5-2.8c0,0-1.9,6.1,5.9,8l2-0.1
					C1138.7,200.7,1134.8,199.4,1135.4,196"/>
				<path id="Fill-19-2" class="st11" d="M1185.8,197.8c0,0-9.9,5.1-19.4-1c0,0-2,6.3,8.3,7S1185.8,197.8,1185.8,197.8"/>
				<path id="Fill-20-2" class="st11" d="M1149,178.3c0,0-1-4-4-5.4c0,0-2.4,1.8-2.9,6"/>
				<path id="Fill-21" class="st11" d="M1178.5,182.9c0.7-2.3,0.4-4.8-0.7-7c-2,1.2-3.3,3.2-3.6,5.5"/>
				<path id="Fill-22" class="st7" d="M1177.8,200.9c-3.5,0-7-0.8-10.2-2.5c-0.1,1.1,0.3,2.2,1.1,3c1.3,1.4,3.7,2.2,7.2,2.4
					c7.4,0.4,9.8-2.7,10.5-4.4C1183.7,200.4,1180.8,200.9,1177.8,200.9z M1167.2,196.9c0.2,0,0.3,0,0.4,0.1
					c9.4,5.7,19.1,1.1,19.5,0.9c0.2-0.1,0.5-0.1,0.7,0c0.2,0.1,0.3,0.3,0.3,0.5c0,0.1-1,7.1-12.3,6.4c-3.9-0.2-6.7-1.2-8.2-2.9
					c-1.2-1.2-1.6-3-1.1-4.7c0.1-0.2,0.2-0.3,0.4-0.4C1167,196.9,1167.1,196.9,1167.2,196.9z"/>
				<path id="Fill-23" class="st7" d="M1141.2,197c-3.4,0.1-6.7-1.1-9.2-3.3c-0.1,1.4,0.3,2.7,1.1,3.9c1.4,1.8,4,2.9,7.8,3
					s6.7-0.6,8.5-2.3c1-1,1.7-2.4,1.8-3.8C1148.1,196,1144.7,196.9,1141.2,197z M1131.5,191.8c0.2,0,0.3,0.1,0.5,0.2
					c7.9,7.9,19.1,1.2,19.6,0.9c0.2-0.1,0.4-0.1,0.6,0c0.2,0.1,0.3,0.3,0.3,0.5c0.1,2.1-0.7,4.2-2.2,5.7c-2,2-5.2,2.9-9.5,2.7
					s-7.2-1.4-8.8-3.5c-1.2-1.7-1.6-3.9-1.1-6c0.1-0.2,0.2-0.4,0.5-0.4L1131.5,191.8z"/>
				<path id="Fill-24-2" class="st7" d="M1137.8,195.9h0.2c0.5,0.1,0.8,0.4,0.7,0.8l-1.7,4.7c-0.2,0.4-0.7,0.6-1.1,0.5
					c-0.5-0.1-0.8-0.4-0.7-0.8l1.7-4.7C1137.1,196,1137.4,195.8,1137.8,195.9"/>
				<path id="Fill-25" class="st7" d="M1172.3,197.9h0.2c0.5,0.1,0.8,0.4,0.6,0.8l-1.7,4.7c-0.2,0.4-0.7,0.6-1.1,0.5
					c-0.5-0.1-0.8-0.4-0.6-0.8l1.7-4.7C1171.6,198,1171.9,197.8,1172.3,197.9"/>
				<path id="Fill-26" class="st7" d="M1149.1,177.9c3.6,0,8.6,0.3,15.8,0.9c10.4,0.9,16.2,2.6,17.3,4.9c0.3,0.6,0.2,1.4-0.3,1.9
					c-0.3,0.3-0.7,0.3-1,0.1c-0.2-0.2-0.3-0.5-0.1-0.7c0,0,0,0,0.1-0.1c0.2-0.2,0.2-0.6,0-0.8c-0.4-0.9-2.8-3-16.2-4.2
					c-5.3-0.5-21.4-1.9-23.4,0.3c-0.1,0.2-0.3,0.4,0,1.1c0.1,0.3,0,0.6-0.3,0.7c0,0,0,0-0.1,0c-0.3,0.1-0.7,0-0.9-0.3
					c-0.4-0.7-0.3-1.6,0.2-2.2C1141,178.7,1142.9,177.9,1149.1,177.9"/>
				<path id="Fill-27" class="st7" d="M1144.5,173.9c0.1,0,0.2,0,0.4,0.1c3.1,1.5,4.2,5.5,4.2,5.6c0.1,0.3-0.2,0.6-0.5,0.7
					c0,0,0,0-0.1,0c-0.4,0.1-0.7-0.1-0.8-0.4c0,0-0.9-3.2-3.1-4.6c-1.2,1.4-2,3.2-2.2,5.1c-0.1,0.3-0.4,0.6-0.8,0.5
					c-0.4,0-0.6-0.3-0.6-0.6v0c0.2-2.4,1.2-4.6,3-6.2C1144.1,173.9,1144.3,173.9,1144.5,173.9"/>
				<path id="Fill-28-2" class="st7" d="M1177,176.9c0.2,0,0.4,0.1,0.6,0.3c1.4,2.2,1.7,4.9,0.8,7.4c-0.2,0.3-0.5,0.4-0.8,0.3
					c-0.3,0-0.5-0.3-0.4-0.6c0,0,0-0.1,0-0.1c0.7-2,0.5-4.1-0.4-5.9c-1,0.6-3.2,2.2-3.4,4.7c-0.1,0.3-0.4,0.5-0.7,0.5
					c-0.3,0-0.6-0.2-0.6-0.6c0,0,0,0,0,0c0.4-3.9,4.5-5.8,4.7-5.9C1176.8,176.9,1176.9,176.9,1177,176.9"/>
				<path id="Fill-29-2" class="st7" d="M1111.6,184.9c0.2,0,0.3,0.1,0.5,0.2c0.2,0.2,0.3,0.5,0.1,0.7c0,0,0,0.1-0.1,0.1
					c-9.9,9.3-5.6,21.1-5.6,21.3c0.1,0.3-0.1,0.6-0.3,0.7c0,0,0,0-0.1,0c-0.3,0.1-0.7-0.1-0.8-0.4c0-0.1-4.6-12.6,5.8-22.4
					C1111.2,184.9,1111.4,184.9,1111.6,184.9"/>
				<path id="Fill-30-2" class="st7" d="M1103.5,188.9c0.2,0,0.3,0,0.5,0.1c0.2,0.1,0.3,0.5,0.2,0.7c0,0-0.1,0.1-0.1,0.1
					c-10.7,10.1-9.9,24.3-9.9,24.4c0,0.4-0.3,0.6-0.7,0.6c0,0,0,0,0,0c-0.4,0-0.7-0.2-0.8-0.6c0-0.1-0.8-14.8,10.2-25.2
					C1103.1,188.9,1103.3,188.9,1103.5,188.9"/>
				<path id="Fill-31-2" class="st7" d="M1211.6,191.9c0.2,0,0.4,0.1,0.5,0.3c7.6,15.2,0.9,22.3,0.6,22.6c-0.2,0.2-0.5,0.2-0.7,0
					c0,0,0,0,0,0c-0.2-0.2-0.2-0.6,0-0.8c1.2-1.5,2-3.2,2.3-5.1c0.7-3.2,0.7-8.5-3.1-16.1c-0.1-0.3,0-0.6,0.2-0.8
					C1211.4,191.9,1211.5,191.9,1211.6,191.9"/>
				<path id="Fill-32-2" class="st7" d="M1215.2,197.9c0.2,0,0.4,0.1,0.6,0.3c9.4,12.3,4.2,23.3,4.1,23.4c-0.2,0.3-0.6,0.4-0.9,0.3
					c-0.3-0.1-0.5-0.3-0.4-0.6c0,0,0-0.1,0-0.1c0-0.1,5.1-10.6-4-22.4c-0.2-0.2-0.1-0.5,0.1-0.7c0,0,0.1,0,0.1-0.1
					C1215,197.9,1215.1,197.9,1215.2,197.9"/>
				<path id="Fill-33-2" class="st7" d="M1177.8,200.9c-3.5,0-7-0.8-10.2-2.5c-0.1,1.1,0.3,2.2,1.1,3c1.3,1.4,3.7,2.2,7.2,2.4
					c7.4,0.4,9.8-2.7,10.5-4.4C1183.7,200.4,1180.8,200.9,1177.8,200.9z M1167.2,196.9c0.2,0,0.3,0,0.4,0.1
					c9.4,5.7,19.1,1.1,19.5,0.9c0.2-0.1,0.5-0.1,0.7,0c0.2,0.1,0.3,0.3,0.3,0.5c0,0.1-1,7.1-12.3,6.4c-3.9-0.2-6.7-1.2-8.2-2.9
					c-1.2-1.2-1.6-3-1.1-4.7c0.1-0.2,0.2-0.3,0.4-0.4C1167,196.9,1167.1,196.9,1167.2,196.9z"/>
				<path id="Fill-34-2" class="st7" d="M1155.8,16.8L1155.8,16.8c-0.2,0-0.4-0.1-0.6-0.3C1141.6-2.1,1133.4-6,1129-6h-0.4
					c-1.8,0-3.4,0.9-4.4,2.4c2.2-1.5,4-2,5.4-1.4c2.5,1.2,3.5,5.8,2.6,11.9c-1.4,9.1-11.2,12.7-11.3,12.7
					c10.4,29,1.9,88.7-17.9,125.3c-4.3,7.9-4.4,14.4-0.4,19.3c3.7,4.6,10.9,7.9,21.5,9.8c0.3,0,0.5,0.3,0.5,0.6c0,0,0,0,0,0
					c-0.4,1.7-0.6,3.5-0.8,5.3c-0.1,0.7-0.6,1.2-1.3,1.3c-41.2,10.3-41.2,37.8-41.2,38.1c0.5,0.2,0.9,0.4,1.3,0.8l0.1,0.1
					c0.1,0.1,0.2,0.3,0.1,0.5c-0.4,0.9-3.7,1.6-3.7,1.6l-0.1,0.6l0.1-0.6c27.8,3.7,49.5-9.3,53.6-12c0.3-0.2,0.7-0.1,0.9,0.1
					c4.8,5.3,11.2,8.9,18.2,10.4c11.9,2.6,24.6-0.7,34.8-9.2c0.1-0.1,0.3-0.1,0.5-0.1c0.2,0,0.3,0.1,0.5,0.2
					c5.1,4.8,23.5,20.4,45.1,20.9c0.1-0.4,2.7-35.2-29.8-45.1c-0.3-0.1-0.5-0.4-0.4-0.7c0,0,0,0,0,0c0.7-2.6,1.1-5.3,1.4-8.1
					c0-0.3,0.3-0.5,0.6-0.5c12.9-0.6,20.9-3.1,23.8-7.2c10.3-14.7,1.2-59.3-10.8-96.2c-17.9-55.2-56.2-77.4-61-78.6
					c-1.5-0.4-2.5-0.3-3,0.3c-1,1,0,3.5,0.8,4.9c-0.5-2.7-0.1-3.2,0-3.3c0.1-0.1,0.2-0.2,0.3-0.2c0.4-0.1,0.8,0,1.2,0.2
					c1,0.3,3.3,1.5,4,6.4c0.8,5.5-2.2,10.2-3.6,12C1156.2,16.6,1156,16.7,1155.8,16.8z M1129-7.1c6.7,0,16,7.7,26.8,22.2
					c1.4-2,3.5-6,2.8-10.5s-2.8-5.3-3.2-5.4l0,0c0,0.7,0.1,1.4,0.3,2.1c0.1,0.6-0.3,1.2-0.9,1.3c-0.6,0.2-1.3,0-1.7-0.6
					c-0.6-1-2.3-4.4-0.7-6.1c0.9-0.9,2.4-1.2,4.4-0.6c4.9,1.2,43.8,23.6,61.9,79.4c12,37.1,21.2,82.1,10.7,97.1
					c-3.1,4.4-11.2,7-24.3,7.7c-0.2,2.4-0.6,4.9-1.2,7.2c32.8,10.3,30.2,45.7,30.1,46c-0.1,0.7-0.7,1.1-1.4,1.1
					c-21.5-0.5-39.8-15.5-45.6-20.8c-10.5,8.5-23.5,11.8-35.6,9.1c-7-1.5-13.5-5.1-18.5-10.3c-6.4,4.1-27.1,15.5-54,11.9
					c-0.6,0-1.1-0.5-1.2-1.1c0-0.6,0.5-1.1,1.1-1.2c0.8-0.1,1.5-0.4,2.3-0.7l-0.2-0.1c-0.5-0.2-0.8-0.6-0.8-1.1
					c0-0.3-0.2-28.6,42.1-39.2c0.2,0,0.3-0.2,0.3-0.3c0.1-1.6,0.4-3.2,0.7-4.8c-10.6-2-17.8-5.4-21.7-10.1
					c-4.3-5.3-4.2-12.2,0.3-20.5c19.7-36.4,28.2-95.7,17.8-124.4c-0.2-0.6,0.2-1.3,0.8-1.4c0,0,0,0,0,0c0.1,0,9.2-3.3,10.4-11.8
					c0.9-6.1-0.3-10-1.9-10.8c-1.2-0.6-2.9,0.5-3.8,1.3c-0.5,0.4-1.2,0.4-1.7,0c-0.5-0.3-0.7-0.9-0.4-1.5c1.2-1.9,3.3-3,5.5-3
					L1129-7.1z"/>
				<path id="Fill-35-2" class="st7" d="M1155.3,14.9c0.2,0,0.4,0.1,0.6,0.3c49.1,65.6,38.1,145.5,38,146.3
					c-1.5,10.1-24.2,11.1-43.1,10.1c-0.3,0-0.6-0.3-0.6-0.6c0,0,0,0,0,0c0-0.3,0.4-0.6,0.7-0.5c15,0.8,40.3,0.6,41.7-9.1
					c0.1-0.8,11.1-80.3-37.8-145.6c-0.2-0.2-0.1-0.6,0.1-0.8c0,0,0,0,0.1,0C1155.1,14.9,1155.2,14.9,1155.3,14.9"/>
				<path id="Fill-36-2" class="st7" d="M1137.1,170.9L1137.1,170.9c1.7,0.1,3.5,0.2,5.5,0.3c0.4,0,0.7,0.2,0.7,0.4
					s-0.4,0.3-0.8,0.3l-5.4-0.3c-0.4,0-0.7-0.2-0.7-0.4S1136.8,170.9,1137.1,170.9"/>
				<path id="Fill-37-2" class="st7" d="M1131.3,168.9h0.1l2,0.2c0.4,0,0.7,0.2,0.6,0.5s-0.4,0.4-0.8,0.4l-2.1-0.2
					c-0.4,0-0.6-0.2-0.6-0.5S1131,168.9,1131.3,168.9"/>
				<path id="Fill-38-2" class="st10" d="M1203.4,190.9c0,0-5.6,13-10.7,17.9c0,0,14.1,11.4,17.7,0S1203.4,190.9,1203.4,190.9"/>
				<path id="Fill-39" class="st10" d="M1183.5,194.8c0,0-6.9,5.2-12.7-0.6C1170.9,194.1,1179.4,193.3,1183.5,194.8"/>
				<path id="Fill-40" class="st7" d="M1165.9,207.9c0.3,0,0.5,0.1,0.7,0.4c0.6,1.2,1.7,2.1,3,2.4c3.1,0.7,7-1.3,7-1.3
					c0.3-0.2,0.7-0.1,1,0.1c0.2,0.2,0.2,0.5,0,0.7c0,0-0.1,0.1-0.2,0.1c-0.2,0.1-4.5,2.3-8.3,1.4c-1.7-0.4-3.2-1.5-4-3
					c-0.1-0.3,0-0.6,0.3-0.7c0,0,0.1,0,0.1,0C1165.6,207.9,1165.7,207.9,1165.9,207.9"/>
				<path id="Fill-41-2" class="st7" d="M1150.6,207.9c0.1,0,0.2,0,0.3,0.1c0.3,0.1,0.5,0.4,0.4,0.7c0,0,0,0.1,0,0.1
					c-0.8,1.6-2.3,2.7-4.1,3c-3.8,0.8-8-1.6-8.2-1.7c-0.3-0.1-0.4-0.4-0.3-0.7c0-0.1,0.1-0.1,0.1-0.2c0.3-0.3,0.7-0.3,1-0.1
					c0,0,3.8,2.1,7,1.5c1.3-0.3,2.5-1.1,3.1-2.4C1150.1,208,1150.4,207.9,1150.6,207.9"/>
			</g>
			<g id="WeHo-Logo">
				<g id="Logo---City-of-West-Hollywood">
					<g id="Group-75">
						<g id="Fill-37-Clipped">
							<g>
								<polygon id="Fill-37-3" class="st13" points="169.2,175 153.6,169.5 148.1,185.1 163.7,190.5 								"/>
							</g>
						</g>
						<g id="Fill-38-Clipped">
							<g>
								<polygon id="Fill-38-3" class="st13" points="176,155.8 160.5,150.3 155,165.8 170.5,171.3 								"/>
							</g>
						</g>
						<g id="Fill-39-Clipped">
							<g>
								<polygon id="Fill-39-2" class="st13" points="157,149 141.4,143.5 135.9,159.1 151.5,164.6 								"/>
							</g>
						</g>
						<g id="Fill-40-Clipped">
							<g>
								<polygon id="Fill-40-2" class="st13" points="150.3,167.9 134.8,162.4 129.3,177.9 144.8,183.4 								"/>
							</g>
						</g>
						<g id="Fill-41-Clipped">
							<g>
								<polygon id="Fill-41-3" class="st13" points="117.6,199 102.1,193.5 96.6,209 112.1,214.5 								"/>
							</g>
						</g>
						<g id="Fill-42-Clipped">
							<g>
								<polygon id="Fill-42-2" class="st13" points="124.4,179.9 108.8,174.4 103.3,190 118.9,195.5 								"/>
							</g>
						</g>
						<g id="Fill-43-Clipped">
							<g>
								<polygon id="Fill-43-2" class="st13" points="98.5,192.5 82.9,187 77.4,202.6 93,208 								"/>
							</g>
						</g>
						<g id="Fill-44-Clipped">
							<g>
								<polygon id="Fill-44-2" class="st13" points="131.2,161.1 115.7,155.6 110.2,171.1 125.7,176.6 								"/>
							</g>
						</g>
						<g id="Fill-45-Clipped">
							<g>
								<polygon id="Fill-45" class="st13" points="137.9,142.3 122.3,136.8 116.9,152.3 132.4,157.8 								"/>
							</g>
						</g>
						<g id="Fill-46-Clipped">
							<g>
								<polygon id="Fill-46-2" class="st13" points="60.5,178.6 44.9,173.1 39.5,188.6 55,194.1 								"/>
							</g>
						</g>
						<g id="Fill-47-Clipped">
							<g>
								<polygon id="Fill-47-2" class="st13" points="41.3,172 25.8,166.5 20.3,182 35.8,187.5 								"/>
							</g>
						</g>
						<g id="Fill-48-Clipped">
							<g>
								<polygon id="Fill-48-2" class="st13" points="47.9,153.4 32.4,147.9 26.9,163.4 42.4,168.9 								"/>
							</g>
						</g>
						<g id="Fill-49-Clipped">
							<g>
								<polygon id="Fill-49" class="st13" points="29.1,146.7 13.5,141.2 8.1,156.8 23.6,162.2 								"/>
							</g>
						</g>
						<g id="Fill-50-Clipped">
							<g>
								<polygon id="Fill-50" class="st13" points="22.5,165.2 7,159.7 1.5,175.2 17,180.7 								"/>
							</g>
						</g>
						<g id="Fill-51-Clipped">
							<g>
								<polygon id="Fill-51-2" class="st13" points="3.3,158.9 -12.2,153.4 -17.7,168.9 -2.2,174.4 								"/>
							</g>
						</g>
						<g id="Fill-54-Clipped">
							<g>
								<polygon id="Fill-54-2" class="st13" points="66.1,223.7 50.6,218.2 45.1,233.7 60.6,239.2 								"/>
							</g>
						</g>
						<g id="Fill-55-Clipped">
							<g>
								<polygon id="Fill-55-2" class="st13" points="34.5,191.3 18.9,185.8 13.4,201.4 29,206.8 								"/>
							</g>
						</g>
						<g id="Fill-56-Clipped">
							<g>
								<polygon id="Fill-56-2" class="st13" points="15.4,184.6 -0.1,179.1 -5.6,194.6 9.9,200.1 								"/>
							</g>
						</g>
						<g id="Fill-57-Clipped">
							<g>
								<polygon id="Fill-57" class="st13" points="47.1,217 31.6,211.5 26.1,227 41.6,232.5 								"/>
							</g>
						</g>
						<g id="Fill-61-Clipped">
							<g>
								<polygon id="Fill-61" class="st13" points="182.8,136.6 167.2,131.1 161.7,146.6 177.3,152.1 								"/>
							</g>
						</g>
						<g id="Fill-62-Clipped">
							<g>
								<polygon id="Fill-62" class="st13" points="163.7,129.9 148.2,124.4 142.7,139.9 158.2,145.4 								"/>
							</g>
						</g>
						<g id="Fill-63-Clipped">
							<g>
								<polygon id="Fill-63-2" class="st13" points="144.9,123.2 129.3,117.7 123.8,133.3 139.4,138.8 								"/>
							</g>
						</g>
						<g id="Fill-64-Clipped">
							<g>
								<polygon id="Fill-64-2" class="st13" points="119,135.6 103.5,130.1 98,145.6 113.6,151.1 								"/>
							</g>
						</g>
						<g id="Fill-65-Clipped">
							<g>
								<polygon id="Fill-65-2" class="st13" points="91.9,211.6 76.4,206.1 70.9,221.7 86.4,227.1 								"/>
							</g>
						</g>
						<g id="Fill-66-Clipped">
							<g>
								<polygon id="Fill-66" class="st13" points="86,166.8 70.5,161.4 65,176.9 80.5,182.4 								"/>
							</g>
						</g>
						<g id="Fill-67-Clipped">
							<g>
								<polygon id="Fill-67-2" class="st13" points="79.4,185.7 63.8,180.2 58.3,195.8 73.9,201.2 								"/>
							</g>
						</g>
						<g id="Fill-68-Clipped">
							<g>
								<polygon id="Fill-68" class="st13" points="72.6,204.8 57.1,199.3 51.6,214.8 67.1,220.3 								"/>
							</g>
						</g>
						<g id="Fill-69-Clipped">
							<g>
								<polygon id="Fill-69-2" class="st13" points="53.5,198.1 38,192.6 32.5,208.1 48,213.6 								"/>
							</g>
						</g>
						<g id="Fill-70-Clipped">
							<g>
								<polygon id="Fill-70-2" class="st13" points="174.7,219.1 159.2,213.6 153.7,229.1 169.2,234.6 								"/>
							</g>
						</g>
						<g id="Fill-71-Clipped">
							<g>
								<polygon id="Fill-71" class="st13" points="155.8,212.4 140.3,206.9 134.8,222.4 150.4,227.9 								"/>
							</g>
						</g>
						<g id="Fill-72-Clipped">
							<g>
								<polygon id="Fill-72" class="st13" points="162.6,193.4 147.1,187.9 141.6,203.4 157.1,208.9 								"/>
							</g>
						</g>
						<g id="Fill-73-Clipped">
							<g>
								<polygon id="Fill-73-2" class="st13" points="143.5,186.6 128,181.1 122.5,196.7 138.1,202.2 								"/>
							</g>
						</g>
						<g id="Fill-74-Clipped">
							<polygon id="Fill-74" class="st13" points="136.7,205.9 121.2,200.5 115.7,216 131.2,221.5 							"/>
						</g>
					</g>
				</g>
			</g>
			<g id="WeHo-Logo-2" class="st14">
				<g id="Logo---City-of-West-Hollywood-2" class="st15">
					<g id="Group-75-2">
						<g id="Fill-37-Clipped-2">
							<g>
								<polygon id="Fill-37-4" class="st13" points="422,136.3 433.2,124.3 421.2,113.1 409.9,125.1 								"/>
							</g>
						</g>
						<g id="Fill-38-Clipped-2">
							<g>
								<polygon id="Fill-38-4" class="st13" points="436.9,150.3 448.1,138.3 436,127 424.8,139.1 								"/>
							</g>
						</g>
						<g id="Fill-39-Clipped-2">
							<g>
								<polygon id="Fill-39-3" class="st13" points="450.7,135.6 461.9,123.5 449.9,112.3 438.6,124.3 								"/>
							</g>
						</g>
						<g id="Fill-40-Clipped-2">
							<g>
								<polygon id="Fill-40-3" class="st13" points="436,121.9 447.3,109.8 435.2,98.6 424,110.6 								"/>
							</g>
						</g>
						<g id="Fill-41-Clipped-2">
							<g>
								<polygon id="Fill-41-4" class="st13" points="420.6,79.5 431.9,67.4 419.9,56.2 408.6,68.2 								"/>
							</g>
						</g>
						<g id="Fill-42-Clipped-2">
							<g>
								<polygon id="Fill-42-3" class="st13" points="435.4,93.3 446.6,81.3 434.6,70 423.3,82.1 								"/>
							</g>
						</g>
						<g id="Fill-43-Clipped-2">
							<g>
								<polygon id="Fill-43-3" class="st13" points="434.2,64.5 445.5,52.5 433.4,41.2 422.2,53.3 								"/>
							</g>
						</g>
						<g id="Fill-44-Clipped-2">
							<g>
								<polygon id="Fill-44-3" class="st13" points="449.9,107.1 461.2,95.1 449.1,83.8 437.9,95.8 								"/>
							</g>
						</g>
						<g id="Fill-45-Clipped-2">
							<g>
								<polygon id="Fill-45-2" class="st13" points="464.5,120.8 475.7,108.7 463.7,97.5 452.4,109.5 								"/>
							</g>
						</g>
						<g id="Fill-46-Clipped-2">
							<g>
								<polygon id="Fill-46-3" class="st13" points="462.2,35.3 473.5,23.3 461.4,12 450.2,24 								"/>
							</g>
						</g>
						<g id="Fill-47-Clipped-2">
							<g>
								<polygon id="Fill-47-3" class="st13" points="475.9,20.4 487.2,8.3 475.1,-2.9 463.9,9.1 								"/>
							</g>
						</g>
						<g id="Fill-48-Clipped-2">
							<g>
								<polygon id="Fill-48-3" class="st13" points="490.3,33.9 501.6,21.9 489.5,10.6 478.3,22.6 								"/>
							</g>
						</g>
						<g id="Fill-49-Clipped-2">
							<g>
								<polygon id="Fill-49-2" class="st13" points="504,19.3 515.2,7.2 503.2,-4 491.9,8 								"/>
							</g>
						</g>
						<g id="Fill-50-Clipped-2">
							<g>
								<polygon id="Fill-50-2" class="st13" points="489.7,5.9 500.9,-6.1 488.9,-17.4 477.6,-5.3 								"/>
							</g>
						</g>
						<g id="Fill-54-Clipped-2">
							<g>
								<polygon id="Fill-54-3" class="st13" points="418.6,22.4 429.9,10.4 417.8,-0.9 406.6,11.2 								"/>
							</g>
						</g>
						<g id="Fill-55-Clipped-2">
							<g>
								<polygon id="Fill-55-3" class="st13" points="461,6.4 472.2,-5.7 460.2,-16.9 448.9,-4.9 								"/>
							</g>
						</g>
						<g id="Fill-57-Clipped-2">
							<g>
								<polygon id="Fill-57-2" class="st13" points="432.4,7.7 443.6,-4.4 431.6,-15.6 420.3,-3.6 								"/>
							</g>
						</g>
						<g id="Fill-61-Clipped-2">
							<g>
								<polygon id="Fill-61-2" class="st13" points="451.7,164.2 463,152.1 451,140.9 439.7,152.9 								"/>
							</g>
						</g>
						<g id="Fill-62-Clipped-2">
							<g>
								<polygon id="Fill-62-2" class="st13" points="465.5,149.4 476.7,137.4 464.7,126.1 453.5,138.1 								"/>
							</g>
						</g>
						<g id="Fill-63-Clipped-2">
							<g>
								<polygon id="Fill-63-3" class="st13" points="479.1,134.8 490.4,122.8 478.4,111.5 467.1,123.5 								"/>
							</g>
						</g>
						<g id="Fill-64-Clipped-2">
							<g>
								<polygon id="Fill-64-3" class="st13" points="478.2,106.2 489.4,94.2 477.4,82.9 466.1,94.9 								"/>
							</g>
						</g>
						<g id="Fill-65-Clipped-2">
							<g>
								<polygon id="Fill-65-3" class="st13" points="419.3,50.9 430.6,38.8 418.5,27.6 407.3,39.6 								"/>
							</g>
						</g>
						<g id="Fill-66-Clipped-2">
							<g>
								<polygon id="Fill-66-2" class="st13" points="462.7,63.4 474,51.4 461.9,40.1 450.7,52.2 								"/>
							</g>
						</g>
						<g id="Fill-67-Clipped-2">
							<g>
								<polygon id="Fill-67-3" class="st13" points="448.1,49.8 459.4,37.7 447.3,26.5 436.1,38.5 								"/>
							</g>
						</g>
						<g id="Fill-68-Clipped-2">
							<g>
								<polygon id="Fill-68-2" class="st13" points="433.3,35.9 444.6,23.9 432.5,12.6 421.3,24.7 								"/>
							</g>
						</g>
						<g id="Fill-69-Clipped-2">
							<g>
								<polygon id="Fill-69-3" class="st13" points="447.1,21.1 458.4,9.1 446.4,-2.1 435.1,9.9 								"/>
							</g>
						</g>
						<g id="Fill-70-Clipped-2">
							<g>
								<polygon id="Fill-70-3" class="st13" points="379.4,123.8 390.6,111.7 378.6,100.5 367.3,112.5 								"/>
							</g>
						</g>
						<g id="Fill-71-Clipped-2">
							<g>
								<polygon id="Fill-71-2" class="st13" points="393,109.1 404.3,97.1 392.2,85.9 381,97.9 								"/>
							</g>
						</g>
						<g id="Fill-72-Clipped-2">
							<g>
								<polygon id="Fill-72-2" class="st13" points="407.7,123 419,110.9 407,99.7 395.7,111.7 								"/>
							</g>
						</g>
						<g id="Fill-73-Clipped-2">
							<g>
								<polygon id="Fill-73-3" class="st13" points="421.6,108.2 432.8,96.2 420.8,84.9 409.5,96.9 								"/>
							</g>
						</g>
						<g id="Fill-74-Clipped-2">
							<polygon id="Fill-74-2" class="st13" points="406.6,94.2 417.8,82.2 405.8,70.9 394.6,82.9 							"/>
						</g>
					</g>
				</g>
			</g>
			<g id="WeHo-Logo-3" class="st14">
				<g id="Logo---City-of-West-Hollywood-3" class="st15">
					<g id="Group-75-3">
						<g id="Fill-37-Clipped-3">
							<g>
								<polygon id="Fill-37-5" class="st13" points="487.3,427 499.5,438.1 510.6,425.9 498.4,414.8 								"/>
							</g>
						</g>
						<g id="Fill-38-Clipped-3">
							<g>
								<polygon id="Fill-38-5" class="st13" points="473.5,442 485.6,453.1 496.7,441 484.6,429.8 								"/>
							</g>
						</g>
						<g id="Fill-39-Clipped-3">
							<g>
								<polygon id="Fill-39-4" class="st13" points="488.4,455.7 500.6,466.8 511.7,454.6 499.5,443.5 								"/>
							</g>
						</g>
						<g id="Fill-40-Clipped-3">
							<g>
								<polygon id="Fill-40-4" class="st13" points="501.9,440.9 514.1,452 525.2,439.8 513,428.7 								"/>
							</g>
						</g>
						<g id="Fill-41-Clipped-3">
							<g>
								<polygon id="Fill-41-5" class="st13" points="544.1,425 556.3,436.1 567.4,424 555.2,412.9 								"/>
							</g>
						</g>
						<g id="Fill-42-Clipped-3">
							<g>
								<polygon id="Fill-42-4" class="st13" points="530.5,439.9 542.6,451 553.7,438.8 541.6,427.7 								"/>
							</g>
						</g>
						<g id="Fill-43-Clipped-3">
							<g>
								<polygon id="Fill-43-4" class="st13" points="559.2,438.4 571.4,449.5 582.5,437.4 570.3,426.3 								"/>
							</g>
						</g>
						<g id="Fill-44-Clipped-3">
							<g>
								<polygon id="Fill-44-4" class="st13" points="516.8,454.6 529,465.7 540.1,453.6 528,442.4 								"/>
							</g>
						</g>
						<g id="Fill-45-Clipped-3">
							<g>
								<polygon id="Fill-45-3" class="st13" points="503.3,469.3 515.5,480.4 526.6,468.3 514.5,457.1 								"/>
							</g>
						</g>
						<g id="Fill-46-Clipped-3">
							<g>
								<polygon id="Fill-46-4" class="st13" points="588.8,466.1 600.9,477.2 612,465 599.9,453.9 								"/>
							</g>
						</g>
						<g id="Fill-47-Clipped-3">
							<g>
								<polygon id="Fill-47-4" class="st13" points="603.9,479.6 616,490.7 627.2,478.6 615,467.5 								"/>
							</g>
						</g>
						<g id="Fill-48-Clipped-3">
							<g>
								<polygon id="Fill-48-4" class="st13" points="590.5,494.2 602.7,505.3 613.8,493.1 601.6,482 								"/>
							</g>
						</g>
						<g id="Fill-49-Clipped-3">
							<g>
								<polygon id="Fill-49-3" class="st13" points="605.2,507.7 617.4,518.8 628.5,506.6 616.4,495.5 								"/>
							</g>
						</g>
						<g id="Fill-50-Clipped-3">
							<g>
								<polygon id="Fill-50-3" class="st13" points="618.5,493.2 630.6,504.3 641.7,492.2 629.6,481 								"/>
							</g>
						</g>
						<g id="Fill-51-Clipped-2">
							<g>
								<polygon id="Fill-51-3" class="st13" points="633.7,506.5 645.9,517.6 657,505.5 644.8,494.4 								"/>
							</g>
						</g>
						<g id="Fill-52-Clipped">
							<g>
								<polygon id="Fill-52-2" class="st13" points="648.7,520.2 660.8,531.3 671.9,519.2 659.8,508.1 								"/>
							</g>
						</g>
						<g id="Fill-53-Clipped">
							<g>
								<polygon id="Fill-53-2" class="st13" points="663.4,534 675.6,545.1 686.7,532.9 674.5,521.8 								"/>
							</g>
						</g>
						<g id="Fill-54-Clipped-3">
							<g>
								<polygon id="Fill-54-4" class="st13" points="601.2,422.3 613.3,433.5 624.4,421.3 612.3,410.2 								"/>
							</g>
						</g>
						<g id="Fill-55-Clipped-3">
							<g>
								<polygon id="Fill-55-4" class="st13" points="617.7,464.5 629.8,475.6 641,463.5 628.8,452.3 								"/>
							</g>
						</g>
						<g id="Fill-56-Clipped-2">
							<g>
								<polygon id="Fill-56-3" class="st13" points="632.6,478.1 644.8,489.3 655.9,477.1 643.7,466 								"/>
							</g>
						</g>
						<g id="Fill-57-Clipped-3">
							<g>
								<polygon id="Fill-57-3" class="st13" points="616.1,435.9 628.2,447 639.4,434.9 627.2,423.8 								"/>
							</g>
						</g>
						<g id="Fill-58-Clipped">
							<g>
								<polygon id="Fill-58-2" class="st13" points="647.4,491.6 659.5,502.8 670.7,490.6 658.5,479.5 								"/>
							</g>
						</g>
						<g id="Fill-59-Clipped">
							<g>
								<polygon id="Fill-59" class="st13" points="662.3,505.3 674.5,516.4 685.6,504.2 673.4,493.1 								"/>
							</g>
						</g>
						<g id="Fill-60-Clipped">
							<g>
								<polygon id="Fill-60" class="st13" points="677.2,519 689.4,530.1 700.5,517.9 688.4,506.8 								"/>
							</g>
						</g>
						<g id="Fill-61-Clipped-3">
							<g>
								<polygon id="Fill-61-3" class="st13" points="459.8,457 471.9,468.2 483.1,456 470.9,444.9 								"/>
							</g>
						</g>
						<g id="Fill-62-Clipped-3">
							<g>
								<polygon id="Fill-62-3" class="st13" points="474.7,470.6 486.9,481.8 498,469.6 485.8,458.5 								"/>
							</g>
						</g>
						<g id="Fill-63-Clipped-3">
							<g>
								<polygon id="Fill-63-4" class="st13" points="489.5,484.1 501.6,495.2 512.7,483.1 500.6,472 								"/>
							</g>
						</g>
						<g id="Fill-64-Clipped-3">
							<g>
								<polygon id="Fill-64-4" class="st13" points="518.1,482.8 530.2,493.9 541.3,481.8 529.2,470.7 								"/>
							</g>
						</g>
						<g id="Fill-65-Clipped-3">
							<g>
								<polygon id="Fill-65-4" class="st13" points="572.7,423.4 584.9,434.5 596,422.3 583.8,411.2 								"/>
							</g>
						</g>
						<g id="Fill-66-Clipped-3">
							<g>
								<polygon id="Fill-66-3" class="st13" points="560.7,466.9 572.8,478 583.9,465.9 571.8,454.8 								"/>
							</g>
						</g>
						<g id="Fill-67-Clipped-3">
							<g>
								<polygon id="Fill-67-4" class="st13" points="574.2,452.1 586.3,463.3 597.4,451.1 585.3,440 								"/>
							</g>
						</g>
						<g id="Fill-68-Clipped-3">
							<g>
								<polygon id="Fill-68-3" class="st13" points="587.8,437.2 600,448.3 611.1,436.1 598.9,425 								"/>
							</g>
						</g>
						<g id="Fill-69-Clipped-3">
							<g>
								<polygon id="Fill-69-4" class="st13" points="602.8,450.9 614.9,462 626,449.8 613.9,438.7 								"/>
							</g>
						</g>
						<g id="Fill-70-Clipped-3">
							<g>
								<polygon id="Fill-70-4" class="st13" points="499.4,384.2 511.5,395.3 522.7,383.2 510.5,372.1 								"/>
							</g>
						</g>
						<g id="Fill-71-Clipped-3">
							<g>
								<polygon id="Fill-71-3" class="st13" points="514.2,397.7 526.3,408.8 537.4,396.7 525.3,385.6 								"/>
							</g>
						</g>
						<g id="Fill-72-Clipped-3">
							<g>
								<polygon id="Fill-72-3" class="st13" points="500.5,412.6 512.7,423.7 523.8,411.5 511.6,400.4 								"/>
							</g>
						</g>
						<g id="Fill-73-Clipped-3">
							<g>
								<polygon id="Fill-73-4" class="st13" points="515.4,426.2 527.6,437.4 538.7,425.2 526.5,414.1 								"/>
							</g>
						</g>
						<g id="Fill-74-Clipped-3">
							<polygon id="Fill-74-3" class="st13" points="529.2,411.1 541.4,422.2 552.5,410.1 540.4,399 							"/>
						</g>
					</g>
				</g>
			</g>
			<g id="WeHo-Logo-4" class="st14">
				<g id="Logo---City-of-West-Hollywood-4" class="st15">
					<g id="Group-75-4">
						<g id="Fill-37-Clipped-4">
							<g>
								<polygon id="Fill-37-6" class="st13" points="624.9,270.1 641.4,270.1 641.3,253.6 624.9,253.7 								"/>
							</g>
						</g>
						<g id="Fill-38-Clipped-4">
							<g>
								<polygon id="Fill-38-6" class="st13" points="624.9,290.6 641.3,290.6 641.3,274.1 624.8,274.1 								"/>
							</g>
						</g>
						<g id="Fill-39-Clipped-4">
							<g>
								<polygon id="Fill-39-5" class="st13" points="645.1,290.6 661.6,290.5 661.5,274.1 645.1,274.1 								"/>
							</g>
						</g>
						<g id="Fill-40-Clipped-4">
							<g>
								<polygon id="Fill-40-5" class="st13" points="645.1,270.5 661.5,270.5 661.5,254.1 645,254.1 								"/>
							</g>
						</g>
						<g id="Fill-41-Clipped-4">
							<g>
								<polygon id="Fill-41-6" class="st13" points="665.5,230.3 682,230.3 682,213.8 665.5,213.8 								"/>
							</g>
						</g>
						<g id="Fill-42-Clipped-4">
							<g>
								<polygon id="Fill-42-5" class="st13" points="665.5,250.5 681.9,250.5 681.9,234 665.5,234 								"/>
							</g>
						</g>
						<g id="Fill-43-Clipped-4">
							<g>
								<polygon id="Fill-43-5" class="st13" points="685.7,230 702.2,230 702.1,213.5 685.7,213.5 								"/>
							</g>
						</g>
						<g id="Fill-44-Clipped-4">
							<g>
								<polygon id="Fill-44-5" class="st13" points="665.4,270.6 681.8,270.6 681.8,254.1 665.3,254.1 								"/>
							</g>
						</g>
						<g id="Fill-45-Clipped-4">
							<g>
								<polygon id="Fill-45-4" class="st13" points="665.3,290.5 681.8,290.5 681.8,274 665.3,274.1 								"/>
							</g>
						</g>
						<g id="Fill-46-Clipped-4">
							<g>
								<polygon id="Fill-46-5" class="st13" points="726.1,230.4 742.6,230.4 742.6,213.9 726.1,214 								"/>
							</g>
						</g>
						<g id="Fill-47-Clipped-4">
							<g>
								<polygon id="Fill-47-5" class="st13" points="746.4,230.2 762.9,230.2 762.9,213.7 746.4,213.8 								"/>
							</g>
						</g>
						<g id="Fill-48-Clipped-4">
							<g>
								<polygon id="Fill-48-5" class="st13" points="746.4,250 762.9,250 762.8,233.5 746.4,233.5 								"/>
							</g>
						</g>
						<g id="Fill-49-Clipped-4">
							<g>
								<polygon id="Fill-49-4" class="st13" points="766.4,250 782.9,250 782.8,233.5 766.4,233.5 								"/>
							</g>
						</g>
						<g id="Fill-50-Clipped-4">
							<g>
								<polygon id="Fill-50-4" class="st13" points="766.4,230.4 782.8,230.4 782.8,213.9 766.4,213.9 								"/>
							</g>
						</g>
						<g id="Fill-51-Clipped-3">
							<g>
								<polygon id="Fill-51-4" class="st13" points="786.6,229.9 803.1,229.9 803.1,213.4 786.6,213.4 								"/>
							</g>
						</g>
						<g id="Fill-52-Clipped-2">
							<g>
								<polygon id="Fill-52-3" class="st13" points="806.9,229.9 823.4,229.9 823.3,213.4 806.9,213.5 								"/>
							</g>
						</g>
						<g id="Fill-53-Clipped-2">
							<g>
								<polygon id="Fill-53-3" class="st13" points="827.1,230.1 843.5,230.1 843.5,213.6 827,213.6 								"/>
							</g>
						</g>
						<g id="Fill-54-Clipped-4">
							<g>
								<polygon id="Fill-54-5" class="st13" points="705.7,189.8 722.2,189.8 722.2,173.3 705.7,173.4 								"/>
							</g>
						</g>
						<g id="Fill-55-Clipped-4">
							<g>
								<polygon id="Fill-55-5" class="st13" points="746.4,209.8 762.9,209.7 762.9,193.3 746.4,193.3 								"/>
							</g>
						</g>
						<g id="Fill-56-Clipped-3">
							<g>
								<polygon id="Fill-56-4" class="st13" points="766.6,209.7 783.1,209.7 783.1,193.2 766.6,193.2 								"/>
							</g>
						</g>
						<g id="Fill-57-Clipped-4">
							<g>
								<polygon id="Fill-57-4" class="st13" points="725.9,189.8 742.4,189.8 742.4,173.3 725.9,173.3 								"/>
							</g>
						</g>
						<g id="Fill-58-Clipped-2">
							<g>
								<polygon id="Fill-58-3" class="st13" points="786.6,209.7 803.1,209.7 803.1,193.2 786.6,193.2 								"/>
							</g>
						</g>
						<g id="Fill-59-Clipped-2">
							<g>
								<polygon id="Fill-59-2" class="st13" points="806.9,209.7 823.3,209.7 823.3,193.2 806.8,193.2 								"/>
							</g>
						</g>
						<g id="Fill-60-Clipped-2">
							<g>
								<polygon id="Fill-60-2" class="st13" points="827.1,209.7 843.6,209.6 843.5,193.2 827.1,193.2 								"/>
							</g>
						</g>
						<g id="Fill-61-Clipped-4">
							<g>
								<polygon id="Fill-61-4" class="st13" points="624.9,310.9 641.4,310.9 641.4,294.4 624.9,294.4 								"/>
							</g>
						</g>
						<g id="Fill-62-Clipped-4">
							<g>
								<polygon id="Fill-62-4" class="st13" points="645.1,310.9 661.6,310.8 661.6,294.4 645.1,294.4 								"/>
							</g>
						</g>
						<g id="Fill-63-Clipped-4">
							<g>
								<polygon id="Fill-63-5" class="st13" points="665.1,310.8 681.6,310.8 681.6,294.3 665.1,294.4 								"/>
							</g>
						</g>
						<g id="Fill-64-Clipped-4">
							<g>
								<polygon id="Fill-64-5" class="st13" points="685.3,290.6 701.8,290.5 701.8,274.1 685.3,274.1 								"/>
							</g>
						</g>
						<g id="Fill-65-Clipped-4">
							<g>
								<polygon id="Fill-65-5" class="st13" points="685.5,209.8 701.9,209.8 701.9,193.3 685.5,193.3 								"/>
							</g>
						</g>
						<g id="Fill-66-Clipped-4">
							<g>
								<polygon id="Fill-66-4" class="st13" points="706,250.1 722.5,250 722.4,233.6 706,233.6 								"/>
							</g>
						</g>
						<g id="Fill-67-Clipped-4">
							<g>
								<polygon id="Fill-67-5" class="st13" points="706,230 722.4,230 722.4,213.6 705.9,213.6 								"/>
							</g>
						</g>
						<g id="Fill-68-Clipped-4">
							<g>
								<polygon id="Fill-68-4" class="st13" points="705.9,209.8 722.4,209.8 722.4,193.3 705.9,193.3 								"/>
							</g>
						</g>
						<g id="Fill-69-Clipped-4">
							<g>
								<polygon id="Fill-69-5" class="st13" points="726.2,209.8 742.6,209.8 742.6,193.3 726.2,193.3 								"/>
							</g>
						</g>
						<g id="Fill-70-Clipped-4">
							<g>
								<polygon id="Fill-70-5" class="st13" points="605,230.5 621.4,230.4 621.4,214 604.9,214 								"/>
							</g>
						</g>
						<g id="Fill-71-Clipped-4">
							<g>
								<polygon id="Fill-71-4" class="st13" points="625,230.4 641.4,230.4 641.4,213.9 624.9,214 								"/>
							</g>
						</g>
						<g id="Fill-72-Clipped-4">
							<g>
								<polygon id="Fill-72-4" class="st13" points="624.9,250.6 641.4,250.6 641.4,234.1 624.9,234.2 								"/>
							</g>
						</g>
						<g id="Fill-73-Clipped-4">
							<g>
								<polygon id="Fill-73-5" class="st13" points="645.2,250.6 661.6,250.6 661.6,234.1 645.1,234.1 								"/>
							</g>
						</g>
						<g id="Fill-74-Clipped-4">
							<polygon id="Fill-74-4" class="st13" points="645.1,230.1 661.6,230.1 661.6,213.6 645.1,213.7 							"/>
						</g>
					</g>
				</g>
			</g>
			<g id="WeHo-Logo-5" class="st14">
				<g id="Logo---City-of-West-Hollywood-5" class="st15">
					<g id="Group-75-5">
						<g id="Fill-43-Clipped-5">
							<g>
								<polygon id="Fill-43-6" class="st13" points="1018.9,-21.9 1010.2,-7.9 1024.1,0.8 1032.9,-13.1 								"/>
							</g>
						</g>
						<g id="Fill-46-Clipped-5">
							<g>
								<polygon id="Fill-46-6" class="st13" points="997,12.2 988.3,26.1 1002.2,34.9 1011,20.9 								"/>
							</g>
						</g>
						<g id="Fill-47-Clipped-5">
							<g>
								<polygon id="Fill-47-6" class="st13" points="986.4,29.5 977.7,43.4 991.7,52.2 1000.4,38.2 								"/>
							</g>
						</g>
						<g id="Fill-48-Clipped-5">
							<g>
								<polygon id="Fill-48-6" class="st13" points="969.7,18.9 961,32.9 974.9,41.6 983.7,27.7 								"/>
							</g>
						</g>
						<g id="Fill-49-Clipped-5">
							<g>
								<polygon id="Fill-49-5" class="st13" points="959.1,35.9 950.3,49.8 964.3,58.6 973,44.6 								"/>
							</g>
						</g>
						<g id="Fill-50-Clipped-5">
							<g>
								<polygon id="Fill-50-5" class="st13" points="975.7,46.3 966.9,60.2 980.9,69 989.7,55 								"/>
							</g>
						</g>
						<g id="Fill-51-Clipped-4">
							<g>
								<polygon id="Fill-51-5" class="st13" points="965.3,63.7 956.6,77.6 970.6,86.4 979.3,72.4 								"/>
							</g>
						</g>
						<g id="Fill-52-Clipped-3">
							<g>
								<polygon id="Fill-52-4" class="st13" points="954.5,80.8 945.8,94.8 959.8,103.6 968.5,89.6 								"/>
							</g>
						</g>
						<g id="Fill-53-Clipped-3">
							<g>
								<polygon id="Fill-53-4" class="st13" points="943.7,97.9 934.9,111.8 948.9,120.6 957.7,106.6 								"/>
							</g>
						</g>
						<g id="Fill-54-Clipped-5">
							<g>
								<polygon id="Fill-54-6" class="st13" points="1042.3,16.5 1033.5,30.4 1047.5,39.2 1056.2,25.2 								"/>
							</g>
						</g>
						<g id="Fill-55-Clipped-5">
							<g>
								<polygon id="Fill-55-6" class="st13" points="1003.8,40.3 995,54.3 1009,63 1017.8,49.1 								"/>
							</g>
						</g>
						<g id="Fill-56-Clipped-4">
							<g>
								<polygon id="Fill-56-5" class="st13" points="993,57.5 984.3,71.4 998.3,80.2 1007,66.2 								"/>
							</g>
						</g>
						<g id="Fill-57-Clipped-5">
							<g>
								<polygon id="Fill-57-5" class="st13" points="1031.6,33.6 1022.9,47.6 1036.8,56.3 1045.6,42.3 								"/>
							</g>
						</g>
						<g id="Fill-58-Clipped-3">
							<g>
								<polygon id="Fill-58-4" class="st13" points="982.4,74.4 973.7,88.4 987.7,97.1 996.4,83.2 								"/>
							</g>
						</g>
						<g id="Fill-59-Clipped-3">
							<g>
								<polygon id="Fill-59-3" class="st13" points="971.7,91.6 963,105.6 976.9,114.3 985.7,100.3 								"/>
							</g>
						</g>
						<g id="Fill-60-Clipped-3">
							<g>
								<polygon id="Fill-60-3" class="st13" points="961,108.7 952.2,122.7 966.2,131.4 974.9,117.5 								"/>
							</g>
						</g>
						<g id="Fill-65-Clipped-5">
							<g>
								<polygon id="Fill-65-6" class="st13" points="1036.1,-11.3 1027.4,2.6 1041.3,11.4 1050.1,-2.6 								"/>
							</g>
						</g>
						<g id="Fill-66-Clipped-5">
							<g>
								<polygon id="Fill-66-5" class="st13" points="991.1,-15.3 982.4,-1.4 996.4,7.4 1005.1,-6.6 								"/>
							</g>
						</g>
						<g id="Fill-67-Clipped-5">
							<g>
								<polygon id="Fill-67-6" class="st13" points="1008.1,-4.7 999.3,9.2 1013.3,18 1022,4 								"/>
							</g>
						</g>
						<g id="Fill-68-Clipped-5">
							<g>
								<polygon id="Fill-68-5" class="st13" points="1025.2,6 1016.5,20 1030.5,28.7 1039.2,14.8 								"/>
							</g>
						</g>
						<g id="Fill-69-Clipped-5">
							<g>
								<polygon id="Fill-69-6" class="st13" points="1014.5,23.2 1005.8,37.1 1019.8,45.9 1028.5,31.9 								"/>
							</g>
						</g>
					</g>
				</g>
			</g>
			<g id="WeHo-Logo-6" class="st14">
				<g id="Logo---City-of-West-Hollywood-6" class="st15">
					<g id="Group-75-6">
						<g id="Fill-37-Clipped-5">
							<g>
								<polygon id="Fill-37-7" class="st13" points="1416,351.3 1399.5,351.7 1399.9,368.2 1416.4,367.8 								"/>
							</g>
						</g>
						<g id="Fill-38-Clipped-5">
							<g>
								<polygon id="Fill-38-7" class="st13" points="1415.6,330.9 1399.1,331.3 1399.5,347.8 1415.9,347.4 								"/>
							</g>
						</g>
						<g id="Fill-39-Clipped-5">
							<g>
								<polygon id="Fill-39-6" class="st13" points="1395.3,331.4 1378.9,331.8 1379.2,348.2 1395.7,347.8 								"/>
							</g>
						</g>
						<g id="Fill-40-Clipped-5">
							<g>
								<polygon id="Fill-40-6" class="st13" points="1395.8,351.4 1379.3,351.8 1379.7,368.2 1396.2,367.8 								"/>
							</g>
						</g>
						<g id="Fill-41-Clipped-5">
							<g>
								<polygon id="Fill-41-7" class="st13" points="1376.3,392 1359.8,392.4 1360.2,408.9 1376.7,408.5 								"/>
							</g>
						</g>
						<g id="Fill-42-Clipped-5">
							<g>
								<polygon id="Fill-42-6" class="st13" points="1375.9,371.9 1359.4,372.2 1359.8,388.7 1376.2,388.3 								"/>
							</g>
						</g>
						<g id="Fill-43-Clipped-6">
							<g>
								<polygon id="Fill-43-7" class="st13" points="1356.1,392.8 1339.7,393.2 1340,409.7 1356.5,409.3 								"/>
							</g>
						</g>
						<g id="Fill-44-Clipped-5">
							<g>
								<polygon id="Fill-44-6" class="st13" points="1375.5,351.8 1359.1,352.2 1359.4,368.7 1375.9,368.3 								"/>
							</g>
						</g>
						<g id="Fill-45-Clipped-5">
							<g>
								<polygon id="Fill-45-5" class="st13" points="1375.1,331.8 1358.6,332.2 1359,348.7 1375.5,348.3 								"/>
							</g>
						</g>
						<g id="Fill-46-Clipped-6">
							<g>
								<polygon id="Fill-46-7" class="st13" points="1315.6,393.3 1299.2,393.7 1299.6,410.1 1316,409.8 								"/>
							</g>
						</g>
						<g id="Fill-47-Clipped-6">
							<g>
								<polygon id="Fill-47-7" class="st13" points="1295.4,393.9 1278.9,394.3 1279.3,410.8 1295.8,410.4 								"/>
							</g>
						</g>
						<g id="Fill-48-Clipped-6">
							<g>
								<polygon id="Fill-48-7" class="st13" points="1295,374.2 1278.5,374.6 1278.9,391 1295.3,390.6 								"/>
							</g>
						</g>
						<g id="Fill-49-Clipped-6">
							<g>
								<polygon id="Fill-49-6" class="st13" points="1275,374.6 1258.5,375 1258.9,391.5 1275.3,391.1 								"/>
							</g>
						</g>
						<g id="Fill-50-Clipped-6">
							<g>
								<polygon id="Fill-50-6" class="st13" points="1275.4,394.2 1259,394.6 1259.3,411.1 1275.8,410.7 								"/>
							</g>
						</g>
						<g id="Fill-51-Clipped-5">
							<g>
								<polygon id="Fill-51-6" class="st13" points="1255.2,395.2 1238.8,395.5 1239.1,412 1255.6,411.6 								"/>
							</g>
						</g>
						<g id="Fill-52-Clipped-4">
							<g>
								<polygon id="Fill-52-5" class="st13" points="1234.9,395.6 1218.5,396 1218.8,412.5 1235.3,412.1 								"/>
							</g>
						</g>
						<g id="Fill-53-Clipped-4">
							<g>
								<polygon id="Fill-53-5" class="st13" points="1214.8,395.9 1198.3,396.3 1198.7,412.7 1215.1,412.4 								"/>
							</g>
						</g>
						<g id="Fill-54-Clipped-6">
							<g>
								<polygon id="Fill-54-7" class="st13" points="1337,433.4 1320.5,433.8 1320.9,450.3 1337.3,449.9 								"/>
							</g>
						</g>
						<g id="Fill-55-Clipped-6">
							<g>
								<polygon id="Fill-55-7" class="st13" points="1295.8,414.4 1279.4,414.8 1279.8,431.3 1296.2,430.9 								"/>
							</g>
						</g>
						<g id="Fill-56-Clipped-5">
							<g>
								<polygon id="Fill-56-6" class="st13" points="1275.6,414.9 1259.2,415.3 1259.6,431.8 1276,431.4 								"/>
							</g>
						</g>
						<g id="Fill-57-Clipped-6">
							<g>
								<polygon id="Fill-57-6" class="st13" points="1316.8,433.9 1300.3,434.3 1300.7,450.8 1317.2,450.4 								"/>
							</g>
						</g>
						<g id="Fill-58-Clipped-4">
							<g>
								<polygon id="Fill-58-5" class="st13" points="1255.6,415.4 1239.2,415.8 1239.6,432.2 1256,431.8 								"/>
							</g>
						</g>
						<g id="Fill-59-Clipped-4">
							<g>
								<polygon id="Fill-59-4" class="st13" points="1235.4,415.8 1218.9,416.2 1219.3,432.7 1235.8,432.3 								"/>
							</g>
						</g>
						<g id="Fill-60-Clipped-4">
							<g>
								<polygon id="Fill-60-4" class="st13" points="1215.2,416.3 1198.7,416.7 1199.1,433.2 1215.6,432.8 								"/>
							</g>
						</g>
						<g id="Fill-61-Clipped-5">
							<g>
								<polygon id="Fill-61-5" class="st13" points="1415,310.6 1398.6,310.9 1398.9,327.4 1415.4,327 								"/>
							</g>
						</g>
						<g id="Fill-62-Clipped-5">
							<g>
								<polygon id="Fill-62-5" class="st13" points="1394.8,311.1 1378.4,311.5 1378.8,327.9 1395.2,327.5 								"/>
							</g>
						</g>
						<g id="Fill-63-Clipped-5">
							<g>
								<polygon id="Fill-63-6" class="st13" points="1374.9,311.5 1358.4,311.9 1358.8,328.4 1375.2,328 								"/>
							</g>
						</g>
						<g id="Fill-64-Clipped-5">
							<g>
								<polygon id="Fill-64-6" class="st13" points="1355.1,332.3 1338.6,332.6 1339,349.1 1355.5,348.7 								"/>
							</g>
						</g>
						<g id="Fill-65-Clipped-6">
							<g>
								<polygon id="Fill-65-7" class="st13" points="1356.8,413 1340.3,413.4 1340.7,429.9 1357.2,429.5 								"/>
							</g>
						</g>
						<g id="Fill-66-Clipped-6">
							<g>
								<polygon id="Fill-66-6" class="st13" points="1335.4,373.2 1318.9,373.6 1319.3,390.1 1335.8,389.7 								"/>
							</g>
						</g>
						<g id="Fill-67-Clipped-6">
							<g>
								<polygon id="Fill-67-7" class="st13" points="1335.8,393.2 1319.4,393.6 1319.8,410.1 1336.2,409.7 								"/>
							</g>
						</g>
						<g id="Fill-68-Clipped-6">
							<g>
								<polygon id="Fill-68-6" class="st13" points="1336.3,413.5 1319.8,413.9 1320.2,430.3 1336.7,429.9 								"/>
							</g>
						</g>
						<g id="Fill-69-Clipped-6">
							<g>
								<polygon id="Fill-69-7" class="st13" points="1316.1,413.9 1299.6,414.3 1300,430.8 1316.5,430.4 								"/>
							</g>
						</g>
						<g id="Fill-70-Clipped-5">
							<g>
								<polygon id="Fill-70-6" class="st13" points="1436.8,390.5 1420.3,390.9 1420.7,407.4 1437.2,407 								"/>
							</g>
						</g>
						<g id="Fill-71-Clipped-5">
							<g>
								<polygon id="Fill-71-5" class="st13" points="1416.8,391 1400.3,391.4 1400.7,407.9 1417.2,407.5 								"/>
							</g>
						</g>
						<g id="Fill-72-Clipped-5">
							<g>
								<polygon id="Fill-72-5" class="st13" points="1416.4,370.8 1399.9,371.2 1400.3,387.7 1416.8,387.3 								"/>
							</g>
						</g>
						<g id="Fill-73-Clipped-5">
							<g>
								<polygon id="Fill-73-6" class="st13" points="1396.2,371.3 1379.7,371.7 1380.1,388.1 1396.6,387.8 								"/>
							</g>
						</g>
						<g id="Fill-74-Clipped-5">
							<polygon id="Fill-74-5" class="st13" points="1396.6,391.8 1380.2,392.2 1380.6,408.6 1397,408.2 							"/>
						</g>
					</g>
				</g>
			</g>
		</g>
	</g>
</g>
</svg>
