<?xml version="1.0" encoding="utf-8"?>
<!-- Generator: Adobe Illustrator 22.1.0, SVG Export Plug-In . SVG Version: 6.00 Build 0)  -->
<svg version="1.1" id="Layer_1" xmlns="http://www.w3.org/2000/svg" xmlns:xlink="http://www.w3.org/1999/xlink" x="0px" y="0px"
	 viewBox="0 0 1920 525" style="enable-background:new 0 0 1920 525;" xml:space="preserve">
<style type="text/css">
	.st0{fill:#2ADFDF;}
	.st1{fill:#EE509A;}
	.st2{display:none;}
	.st3{display:inline;}
	.st4{fill:#7E3BEB;}
	.st5{display:inline;fill:#A0BBBE;}
	.st6{display:inline;fill:#DB4049;}
	.st7{display:inline;fill:#B63F43;}
	.st8{display:inline;fill:#D1DE6C;}
	.st9{display:inline;fill:#B0B838;}
	.st10{display:inline;fill:#F9D049;}
	.st11{display:inline;fill:#3D1717;}
	.st12{display:inline;fill:#FFFFFE;}
	.st13{fill:#111111;}
</style>
<title>header-left</title>
<g id="Homepage">
	<g id="header-left">
		<g id="header">
			<rect id="Rectangle-2" x="-15.9" y="-20" class="st0" width="2047.5" height="572.7"/>
		</g>
		<g id="WeHo-Logo">
			<g id="Logo---City-of-West-Hollywood">
				<g id="Group-75">
					<g id="Fill-37-Clipped">
						<g>
							<polygon id="Fill-37-3" class="st1" points="516.6,448.3 501,442.8 495.5,458.4 511.1,463.8 							"/>
						</g>
					</g>
					<g id="Fill-38-Clipped">
						<g>
							<polygon id="Fill-38-3" class="st1" points="523.4,429.1 507.9,423.6 502.4,439.1 517.9,444.6 							"/>
						</g>
					</g>
					<g id="Fill-39-Clipped">
						<g>
							<polygon id="Fill-39-2" class="st1" points="504.4,422.3 488.8,416.8 483.3,432.4 498.9,437.9 							"/>
						</g>
					</g>
					<g id="Fill-40-Clipped">
						<g>
							<polygon id="Fill-40-2" class="st1" points="497.7,441.2 482.2,435.7 476.7,451.2 492.2,456.7 							"/>
						</g>
					</g>
					<g id="Fill-41-Clipped">
						<g>
							<polygon id="Fill-41-3" class="st1" points="465,472.3 449.5,466.8 444,482.3 459.5,487.8 							"/>
						</g>
					</g>
					<g id="Fill-42-Clipped">
						<g>
							<polygon id="Fill-42-2" class="st1" points="471.8,453.2 456.2,447.7 450.7,463.3 466.3,468.8 							"/>
						</g>
					</g>
					<g id="Fill-43-Clipped">
						<g>
							<polygon id="Fill-43-2" class="st1" points="445.9,465.8 430.3,460.3 424.8,475.9 440.4,481.3 							"/>
						</g>
					</g>
					<g id="Fill-44-Clipped">
						<g>
							<polygon id="Fill-44-2" class="st1" points="478.6,434.4 463.1,428.9 457.6,444.4 473.1,449.9 							"/>
						</g>
					</g>
					<g id="Fill-45-Clipped">
						<g>
							<polygon id="Fill-45" class="st1" points="485.3,415.6 469.7,410.1 464.3,425.6 479.8,431.1 							"/>
						</g>
					</g>
					<g id="Fill-46-Clipped">
						<g>
							<polygon id="Fill-46-2" class="st1" points="407.9,451.9 392.3,446.4 386.9,461.9 402.4,467.4 							"/>
						</g>
					</g>
					<g id="Fill-47-Clipped">
						<g>
							<polygon id="Fill-47-2" class="st1" points="388.7,445.3 373.2,439.8 367.7,455.3 383.2,460.8 							"/>
						</g>
					</g>
					<g id="Fill-48-Clipped">
						<g>
							<polygon id="Fill-48-2" class="st1" points="395.3,426.7 379.8,421.2 374.3,436.7 389.8,442.2 							"/>
						</g>
					</g>
					<g id="Fill-49-Clipped">
						<g>
							<polygon id="Fill-49" class="st1" points="376.5,420 360.9,414.5 355.5,430.1 371,435.5 							"/>
						</g>
					</g>
					<g id="Fill-50-Clipped">
						<g>
							<polygon id="Fill-50" class="st1" points="369.9,438.5 354.4,433 348.9,448.5 364.4,454 							"/>
						</g>
					</g>
					<g id="Fill-51-Clipped">
						<g>
							<polygon id="Fill-51-2" class="st1" points="350.7,432.2 335.2,426.7 329.7,442.2 345.2,447.7 							"/>
						</g>
					</g>
					<g id="Fill-54-Clipped">
						<g>
							<polygon id="Fill-54-2" class="st1" points="413.5,497 398,491.5 392.5,507 408,512.5 							"/>
						</g>
					</g>
					<g id="Fill-55-Clipped">
						<g>
							<polygon id="Fill-55-2" class="st1" points="381.9,464.6 366.3,459.1 360.8,474.7 376.4,480.1 							"/>
						</g>
					</g>
					<g id="Fill-56-Clipped">
						<g>
							<polygon id="Fill-56-2" class="st1" points="362.8,457.9 347.3,452.4 341.8,467.9 357.3,473.4 							"/>
						</g>
					</g>
					<g id="Fill-57-Clipped">
						<g>
							<polygon id="Fill-57" class="st1" points="394.5,490.3 379,484.8 373.5,500.3 389,505.8 							"/>
						</g>
					</g>
					<g id="Fill-61-Clipped">
						<g>
							<polygon id="Fill-61" class="st1" points="530.2,409.9 514.6,404.4 509.1,419.9 524.7,425.4 							"/>
						</g>
					</g>
					<g id="Fill-62-Clipped">
						<g>
							<polygon id="Fill-62" class="st1" points="511.1,403.2 495.6,397.7 490.1,413.2 505.6,418.7 							"/>
						</g>
					</g>
					<g id="Fill-63-Clipped">
						<g>
							<polygon id="Fill-63-2" class="st1" points="492.3,396.5 476.7,391 471.2,406.6 486.8,412.1 							"/>
						</g>
					</g>
					<g id="Fill-64-Clipped">
						<g>
							<polygon id="Fill-64-2" class="st1" points="466.4,408.9 450.9,403.4 445.4,418.9 461,424.4 							"/>
						</g>
					</g>
					<g id="Fill-65-Clipped">
						<g>
							<polygon id="Fill-65-2" class="st1" points="439.3,484.9 423.8,479.4 418.3,495 433.8,500.4 							"/>
						</g>
					</g>
					<g id="Fill-66-Clipped">
						<g>
							<polygon id="Fill-66" class="st1" points="433.4,440.1 417.9,434.7 412.4,450.2 427.9,455.7 							"/>
						</g>
					</g>
					<g id="Fill-67-Clipped">
						<g>
							<polygon id="Fill-67-2" class="st1" points="426.8,459 411.2,453.5 405.7,469.1 421.3,474.5 							"/>
						</g>
					</g>
					<g id="Fill-68-Clipped">
						<g>
							<polygon id="Fill-68" class="st1" points="420,478.1 404.5,472.6 399,488.1 414.5,493.6 							"/>
						</g>
					</g>
					<g id="Fill-69-Clipped">
						<g>
							<polygon id="Fill-69-2" class="st1" points="400.9,471.4 385.4,465.9 379.9,481.4 395.4,486.9 							"/>
						</g>
					</g>
					<g id="Fill-70-Clipped">
						<g>
							<polygon id="Fill-70-2" class="st1" points="522.1,492.4 506.6,486.9 501.1,502.4 516.6,507.9 							"/>
						</g>
					</g>
					<g id="Fill-71-Clipped">
						<g>
							<polygon id="Fill-71" class="st1" points="503.2,485.7 487.7,480.2 482.2,495.7 497.8,501.2 							"/>
						</g>
					</g>
					<g id="Fill-72-Clipped">
						<g>
							<polygon id="Fill-72" class="st1" points="510,466.7 494.5,461.2 489,476.7 504.5,482.2 							"/>
						</g>
					</g>
					<g id="Fill-73-Clipped">
						<g>
							<polygon id="Fill-73-2" class="st1" points="490.9,459.9 475.4,454.4 469.9,470 485.5,475.5 							"/>
						</g>
					</g>
					<g id="Fill-74-Clipped">
						<polygon id="Fill-74" class="st1" points="484.1,479.2 468.6,473.8 463.1,489.3 478.6,494.8 						"/>
					</g>
				</g>
			</g>
		</g>
		<g id="WeHo-Logo-2" class="st2">
			<g id="Logo---City-of-West-Hollywood-2" class="st3">
				<g id="Group-75-2">
					<g id="Fill-37-Clipped-2">
						<g>
							<polygon id="Fill-37-4" class="st4" points="183.2,136.6 194.4,124.6 182.4,113.4 171.1,125.4 							"/>
						</g>
					</g>
					<g id="Fill-38-Clipped-2">
						<g>
							<polygon id="Fill-38-4" class="st4" points="198.1,150.6 209.3,138.6 197.2,127.3 186,139.4 							"/>
						</g>
					</g>
					<g id="Fill-39-Clipped-2">
						<g>
							<polygon id="Fill-39-3" class="st4" points="211.9,135.9 223.1,123.8 211.1,112.6 199.8,124.6 							"/>
						</g>
					</g>
					<g id="Fill-40-Clipped-2">
						<g>
							<polygon id="Fill-40-3" class="st4" points="197.2,122.2 208.5,110.1 196.4,98.9 185.2,110.9 							"/>
						</g>
					</g>
					<g id="Fill-41-Clipped-2">
						<g>
							<polygon id="Fill-41-4" class="st4" points="181.8,79.8 193.1,67.7 181.1,56.5 169.8,68.5 							"/>
						</g>
					</g>
					<g id="Fill-42-Clipped-2">
						<g>
							<polygon id="Fill-42-3" class="st4" points="196.6,93.6 207.8,81.6 195.8,70.3 184.5,82.4 							"/>
						</g>
					</g>
					<g id="Fill-43-Clipped-2">
						<g>
							<polygon id="Fill-43-3" class="st4" points="195.4,64.8 206.7,52.8 194.6,41.5 183.4,53.6 							"/>
						</g>
					</g>
					<g id="Fill-44-Clipped-2">
						<g>
							<polygon id="Fill-44-3" class="st4" points="211.1,107.4 222.4,95.4 210.3,84.1 199.1,96.1 							"/>
						</g>
					</g>
					<g id="Fill-45-Clipped-2">
						<g>
							<polygon id="Fill-45-2" class="st4" points="225.7,121.1 236.9,109 224.9,97.8 213.6,109.8 							"/>
						</g>
					</g>
					<g id="Fill-46-Clipped-2">
						<g>
							<polygon id="Fill-46-3" class="st4" points="223.4,35.6 234.7,23.6 222.6,12.3 211.4,24.3 							"/>
						</g>
					</g>
					<g id="Fill-47-Clipped-2">
						<g>
							<polygon id="Fill-47-3" class="st4" points="237.1,20.7 248.4,8.6 236.3,-2.6 225.1,9.4 							"/>
						</g>
					</g>
					<g id="Fill-48-Clipped-2">
						<g>
							<polygon id="Fill-48-3" class="st4" points="251.5,34.2 262.8,22.2 250.7,10.9 239.5,22.9 							"/>
						</g>
					</g>
					<g id="Fill-49-Clipped-2">
						<g>
							<polygon id="Fill-49-2" class="st4" points="265.2,19.6 276.4,7.5 264.4,-3.7 253.1,8.3 							"/>
						</g>
					</g>
					<g id="Fill-50-Clipped-2">
						<g>
							<polygon id="Fill-50-2" class="st4" points="250.9,6.2 262.1,-5.8 250.1,-17.1 238.8,-5 							"/>
						</g>
					</g>
					<g id="Fill-54-Clipped-2">
						<g>
							<polygon id="Fill-54-3" class="st4" points="179.8,22.7 191.1,10.7 179,-0.6 167.8,11.5 							"/>
						</g>
					</g>
					<g id="Fill-55-Clipped-2">
						<g>
							<polygon id="Fill-55-3" class="st4" points="222.2,6.7 233.4,-5.4 221.4,-16.6 210.1,-4.6 							"/>
						</g>
					</g>
					<g id="Fill-57-Clipped-2">
						<g>
							<polygon id="Fill-57-2" class="st4" points="193.6,8 204.8,-4.1 192.8,-15.3 181.5,-3.3 							"/>
						</g>
					</g>
					<g id="Fill-61-Clipped-2">
						<g>
							<polygon id="Fill-61-2" class="st4" points="212.9,164.5 224.2,152.4 212.2,141.2 200.9,153.2 							"/>
						</g>
					</g>
					<g id="Fill-62-Clipped-2">
						<g>
							<polygon id="Fill-62-2" class="st4" points="226.7,149.7 237.9,137.7 225.9,126.4 214.7,138.4 							"/>
						</g>
					</g>
					<g id="Fill-63-Clipped-2">
						<g>
							<polygon id="Fill-63-3" class="st4" points="240.3,135.1 251.6,123.1 239.6,111.8 228.3,123.8 							"/>
						</g>
					</g>
					<g id="Fill-64-Clipped-2">
						<g>
							<polygon id="Fill-64-3" class="st4" points="239.4,106.5 250.6,94.5 238.6,83.2 227.3,95.2 							"/>
						</g>
					</g>
					<g id="Fill-65-Clipped-2">
						<g>
							<polygon id="Fill-65-3" class="st4" points="180.5,51.2 191.8,39.1 179.7,27.9 168.5,39.9 							"/>
						</g>
					</g>
					<g id="Fill-66-Clipped-2">
						<g>
							<polygon id="Fill-66-2" class="st4" points="223.9,63.7 235.2,51.7 223.1,40.4 211.9,52.5 							"/>
						</g>
					</g>
					<g id="Fill-67-Clipped-2">
						<g>
							<polygon id="Fill-67-3" class="st4" points="209.3,50.1 220.6,38 208.5,26.8 197.3,38.8 							"/>
						</g>
					</g>
					<g id="Fill-68-Clipped-2">
						<g>
							<polygon id="Fill-68-2" class="st4" points="194.5,36.2 205.8,24.2 193.7,12.9 182.5,25 							"/>
						</g>
					</g>
					<g id="Fill-69-Clipped-2">
						<g>
							<polygon id="Fill-69-3" class="st4" points="208.3,21.4 219.6,9.4 207.6,-1.8 196.3,10.2 							"/>
						</g>
					</g>
					<g id="Fill-70-Clipped-2">
						<g>
							<polygon id="Fill-70-3" class="st4" points="140.6,124.1 151.8,112 139.8,100.8 128.5,112.8 							"/>
						</g>
					</g>
					<g id="Fill-71-Clipped-2">
						<g>
							<polygon id="Fill-71-2" class="st4" points="154.2,109.4 165.5,97.4 153.4,86.2 142.2,98.2 							"/>
						</g>
					</g>
					<g id="Fill-72-Clipped-2">
						<g>
							<polygon id="Fill-72-2" class="st4" points="168.9,123.3 180.2,111.2 168.2,100 156.9,112 							"/>
						</g>
					</g>
					<g id="Fill-73-Clipped-2">
						<g>
							<polygon id="Fill-73-3" class="st4" points="182.8,108.5 194,96.5 182,85.2 170.7,97.2 							"/>
						</g>
					</g>
					<g id="Fill-74-Clipped-2">
						<polygon id="Fill-74-2" class="st4" points="167.8,94.5 179,82.5 167,71.2 155.8,83.2 						"/>
					</g>
				</g>
			</g>
		</g>
		<g id="WeHo-Logo-3" class="st2">
			<g id="Logo---City-of-West-Hollywood-3" class="st3">
				<g id="Group-75-3">
					<g id="Fill-37-Clipped-3">
						<g>
							<polygon id="Fill-37-5" class="st4" points="248.5,427.3 260.7,438.4 271.8,426.2 259.6,415.1 							"/>
						</g>
					</g>
					<g id="Fill-38-Clipped-3">
						<g>
							<polygon id="Fill-38-5" class="st4" points="234.7,442.3 246.8,453.4 257.9,441.3 245.8,430.1 							"/>
						</g>
					</g>
					<g id="Fill-39-Clipped-3">
						<g>
							<polygon id="Fill-39-4" class="st4" points="249.6,456 261.8,467.1 272.9,454.9 260.7,443.8 							"/>
						</g>
					</g>
					<g id="Fill-40-Clipped-3">
						<g>
							<polygon id="Fill-40-4" class="st4" points="263.1,441.2 275.3,452.3 286.4,440.1 274.2,429 							"/>
						</g>
					</g>
					<g id="Fill-41-Clipped-3">
						<g>
							<polygon id="Fill-41-5" class="st4" points="305.3,425.3 317.5,436.4 328.6,424.3 316.4,413.2 							"/>
						</g>
					</g>
					<g id="Fill-42-Clipped-3">
						<g>
							<polygon id="Fill-42-4" class="st4" points="291.7,440.2 303.8,451.3 314.9,439.1 302.8,428 							"/>
						</g>
					</g>
					<g id="Fill-43-Clipped-3">
						<g>
							<polygon id="Fill-43-4" class="st4" points="320.4,438.7 332.6,449.8 343.7,437.7 331.5,426.6 							"/>
						</g>
					</g>
					<g id="Fill-44-Clipped-3">
						<g>
							<polygon id="Fill-44-4" class="st4" points="278,454.9 290.2,466 301.3,453.9 289.2,442.7 							"/>
						</g>
					</g>
					<g id="Fill-45-Clipped-3">
						<g>
							<polygon id="Fill-45-3" class="st4" points="264.5,469.6 276.7,480.7 287.8,468.6 275.7,457.4 							"/>
						</g>
					</g>
					<g id="Fill-46-Clipped-3">
						<g>
							<polygon id="Fill-46-4" class="st4" points="350,466.4 362.1,477.5 373.2,465.3 361.1,454.2 							"/>
						</g>
					</g>
					<g id="Fill-47-Clipped-3">
						<g>
							<polygon id="Fill-47-4" class="st4" points="365.1,479.9 377.2,491 388.4,478.9 376.2,467.8 							"/>
						</g>
					</g>
					<g id="Fill-48-Clipped-3">
						<g>
							<polygon id="Fill-48-4" class="st4" points="351.7,494.5 363.9,505.6 375,493.4 362.8,482.3 							"/>
						</g>
					</g>
					<g id="Fill-49-Clipped-3">
						<g>
							<polygon id="Fill-49-3" class="st4" points="366.4,508 378.6,519.1 389.7,506.9 377.6,495.8 							"/>
						</g>
					</g>
					<g id="Fill-50-Clipped-3">
						<g>
							<polygon id="Fill-50-3" class="st4" points="379.7,493.5 391.8,504.6 402.9,492.5 390.8,481.3 							"/>
						</g>
					</g>
					<g id="Fill-51-Clipped-2">
						<g>
							<polygon id="Fill-51-3" class="st4" points="394.9,506.8 407.1,517.9 418.2,505.8 406,494.7 							"/>
						</g>
					</g>
					<g id="Fill-52-Clipped">
						<g>
							<polygon id="Fill-52-2" class="st4" points="409.9,520.5 422,531.6 433.1,519.5 421,508.4 							"/>
						</g>
					</g>
					<g id="Fill-53-Clipped">
						<g>
							<polygon id="Fill-53-2" class="st4" points="424.6,534.3 436.8,545.4 447.9,533.2 435.7,522.1 							"/>
						</g>
					</g>
					<g id="Fill-54-Clipped-3">
						<g>
							<polygon id="Fill-54-4" class="st4" points="362.4,422.6 374.5,433.8 385.6,421.6 373.5,410.5 							"/>
						</g>
					</g>
					<g id="Fill-55-Clipped-3">
						<g>
							<polygon id="Fill-55-4" class="st4" points="378.9,464.8 391,475.9 402.2,463.8 390,452.6 							"/>
						</g>
					</g>
					<g id="Fill-56-Clipped-2">
						<g>
							<polygon id="Fill-56-3" class="st4" points="393.8,478.4 406,489.6 417.1,477.4 404.9,466.3 							"/>
						</g>
					</g>
					<g id="Fill-57-Clipped-3">
						<g>
							<polygon id="Fill-57-3" class="st4" points="377.3,436.2 389.4,447.3 400.6,435.2 388.4,424.1 							"/>
						</g>
					</g>
					<g id="Fill-58-Clipped">
						<g>
							<polygon id="Fill-58-2" class="st4" points="408.6,491.9 420.7,503.1 431.9,490.9 419.7,479.8 							"/>
						</g>
					</g>
					<g id="Fill-59-Clipped">
						<g>
							<polygon id="Fill-59" class="st4" points="423.5,505.6 435.7,516.7 446.8,504.5 434.6,493.4 							"/>
						</g>
					</g>
					<g id="Fill-60-Clipped">
						<g>
							<polygon id="Fill-60" class="st4" points="438.4,519.3 450.6,530.4 461.7,518.2 449.6,507.1 							"/>
						</g>
					</g>
					<g id="Fill-61-Clipped-3">
						<g>
							<polygon id="Fill-61-3" class="st4" points="221,457.3 233.1,468.5 244.3,456.3 232.1,445.2 							"/>
						</g>
					</g>
					<g id="Fill-62-Clipped-3">
						<g>
							<polygon id="Fill-62-3" class="st4" points="235.9,470.9 248.1,482.1 259.2,469.9 247,458.8 							"/>
						</g>
					</g>
					<g id="Fill-63-Clipped-3">
						<g>
							<polygon id="Fill-63-4" class="st4" points="250.7,484.4 262.8,495.5 273.9,483.4 261.8,472.3 							"/>
						</g>
					</g>
					<g id="Fill-64-Clipped-3">
						<g>
							<polygon id="Fill-64-4" class="st4" points="279.3,483.1 291.4,494.2 302.5,482.1 290.4,471 							"/>
						</g>
					</g>
					<g id="Fill-65-Clipped-3">
						<g>
							<polygon id="Fill-65-4" class="st4" points="333.9,423.7 346.1,434.8 357.2,422.6 345,411.5 							"/>
						</g>
					</g>
					<g id="Fill-66-Clipped-3">
						<g>
							<polygon id="Fill-66-3" class="st4" points="321.9,467.2 334,478.3 345.1,466.2 333,455.1 							"/>
						</g>
					</g>
					<g id="Fill-67-Clipped-3">
						<g>
							<polygon id="Fill-67-4" class="st4" points="335.4,452.4 347.5,463.6 358.6,451.4 346.5,440.3 							"/>
						</g>
					</g>
					<g id="Fill-68-Clipped-3">
						<g>
							<polygon id="Fill-68-3" class="st4" points="349,437.5 361.2,448.6 372.3,436.4 360.1,425.3 							"/>
						</g>
					</g>
					<g id="Fill-69-Clipped-3">
						<g>
							<polygon id="Fill-69-4" class="st4" points="364,451.2 376.1,462.3 387.2,450.1 375.1,439 							"/>
						</g>
					</g>
					<g id="Fill-70-Clipped-3">
						<g>
							<polygon id="Fill-70-4" class="st4" points="260.6,384.5 272.7,395.6 283.9,383.5 271.7,372.4 							"/>
						</g>
					</g>
					<g id="Fill-71-Clipped-3">
						<g>
							<polygon id="Fill-71-3" class="st4" points="275.4,398 287.5,409.1 298.6,397 286.5,385.9 							"/>
						</g>
					</g>
					<g id="Fill-72-Clipped-3">
						<g>
							<polygon id="Fill-72-3" class="st4" points="261.7,412.9 273.9,424 285,411.8 272.8,400.7 							"/>
						</g>
					</g>
					<g id="Fill-73-Clipped-3">
						<g>
							<polygon id="Fill-73-4" class="st4" points="276.6,426.5 288.8,437.7 299.9,425.5 287.7,414.4 							"/>
						</g>
					</g>
					<g id="Fill-74-Clipped-3">
						<polygon id="Fill-74-3" class="st4" points="290.4,411.4 302.6,422.5 313.7,410.4 301.6,399.3 						"/>
					</g>
				</g>
			</g>
		</g>
		<g id="WeHo-Logo-4" class="st2">
			<g id="Logo---City-of-West-Hollywood-4" class="st3">
				<g id="Group-75-4">
					<g id="Fill-37-Clipped-4">
						<g>
							<polygon id="Fill-37-6" class="st4" points="386.1,270.4 402.6,270.4 402.5,253.9 386.1,254 							"/>
						</g>
					</g>
					<g id="Fill-38-Clipped-4">
						<g>
							<polygon id="Fill-38-6" class="st4" points="386.1,290.9 402.5,290.9 402.5,274.4 386,274.4 							"/>
						</g>
					</g>
					<g id="Fill-39-Clipped-4">
						<g>
							<polygon id="Fill-39-5" class="st4" points="406.3,290.9 422.8,290.8 422.7,274.4 406.3,274.4 							"/>
						</g>
					</g>
					<g id="Fill-40-Clipped-4">
						<g>
							<polygon id="Fill-40-5" class="st4" points="406.3,270.8 422.7,270.8 422.7,254.4 406.2,254.4 							"/>
						</g>
					</g>
					<g id="Fill-41-Clipped-4">
						<g>
							<polygon id="Fill-41-6" class="st4" points="426.7,230.6 443.2,230.6 443.2,214.1 426.7,214.1 							"/>
						</g>
					</g>
					<g id="Fill-42-Clipped-4">
						<g>
							<polygon id="Fill-42-5" class="st4" points="426.7,250.8 443.1,250.8 443.1,234.3 426.7,234.3 							"/>
						</g>
					</g>
					<g id="Fill-43-Clipped-4">
						<g>
							<polygon id="Fill-43-5" class="st4" points="446.9,230.3 463.4,230.3 463.3,213.8 446.9,213.8 							"/>
						</g>
					</g>
					<g id="Fill-44-Clipped-4">
						<g>
							<polygon id="Fill-44-5" class="st4" points="426.6,270.9 443,270.9 443,254.4 426.5,254.4 							"/>
						</g>
					</g>
					<g id="Fill-45-Clipped-4">
						<g>
							<polygon id="Fill-45-4" class="st4" points="426.5,290.8 443,290.8 443,274.3 426.5,274.4 							"/>
						</g>
					</g>
					<g id="Fill-46-Clipped-4">
						<g>
							<polygon id="Fill-46-5" class="st4" points="487.3,230.7 503.8,230.7 503.8,214.2 487.3,214.3 							"/>
						</g>
					</g>
					<g id="Fill-47-Clipped-4">
						<g>
							<polygon id="Fill-47-5" class="st4" points="507.6,230.5 524.1,230.5 524.1,214 507.6,214.1 							"/>
						</g>
					</g>
					<g id="Fill-48-Clipped-4">
						<g>
							<polygon id="Fill-48-5" class="st4" points="507.6,250.3 524.1,250.3 524,233.8 507.6,233.8 							"/>
						</g>
					</g>
					<g id="Fill-49-Clipped-4">
						<g>
							<polygon id="Fill-49-4" class="st4" points="527.6,250.3 544.1,250.3 544,233.8 527.6,233.8 							"/>
						</g>
					</g>
					<g id="Fill-50-Clipped-4">
						<g>
							<polygon id="Fill-50-4" class="st4" points="527.6,230.7 544,230.7 544,214.2 527.6,214.2 							"/>
						</g>
					</g>
					<g id="Fill-51-Clipped-3">
						<g>
							<polygon id="Fill-51-4" class="st4" points="547.8,230.2 564.3,230.2 564.3,213.7 547.8,213.7 							"/>
						</g>
					</g>
					<g id="Fill-52-Clipped-2">
						<g>
							<polygon id="Fill-52-3" class="st4" points="568.1,230.2 584.6,230.2 584.5,213.7 568.1,213.8 							"/>
						</g>
					</g>
					<g id="Fill-53-Clipped-2">
						<g>
							<polygon id="Fill-53-3" class="st4" points="588.3,230.4 604.7,230.4 604.7,213.9 588.2,213.9 							"/>
						</g>
					</g>
					<g id="Fill-54-Clipped-4">
						<g>
							<polygon id="Fill-54-5" class="st4" points="466.9,190.1 483.4,190.1 483.4,173.6 466.9,173.7 							"/>
						</g>
					</g>
					<g id="Fill-55-Clipped-4">
						<g>
							<polygon id="Fill-55-5" class="st4" points="507.6,210.1 524.1,210 524.1,193.6 507.6,193.6 							"/>
						</g>
					</g>
					<g id="Fill-56-Clipped-3">
						<g>
							<polygon id="Fill-56-4" class="st4" points="527.8,210 544.3,210 544.3,193.5 527.8,193.5 							"/>
						</g>
					</g>
					<g id="Fill-57-Clipped-4">
						<g>
							<polygon id="Fill-57-4" class="st4" points="487.1,190.1 503.6,190.1 503.6,173.6 487.1,173.6 							"/>
						</g>
					</g>
					<g id="Fill-58-Clipped-2">
						<g>
							<polygon id="Fill-58-3" class="st4" points="547.8,210 564.3,210 564.3,193.5 547.8,193.5 							"/>
						</g>
					</g>
					<g id="Fill-59-Clipped-2">
						<g>
							<polygon id="Fill-59-2" class="st4" points="568.1,210 584.5,210 584.5,193.5 568,193.5 							"/>
						</g>
					</g>
					<g id="Fill-60-Clipped-2">
						<g>
							<polygon id="Fill-60-2" class="st4" points="588.3,210 604.8,209.9 604.7,193.5 588.3,193.5 							"/>
						</g>
					</g>
					<g id="Fill-61-Clipped-4">
						<g>
							<polygon id="Fill-61-4" class="st4" points="386.1,311.2 402.6,311.2 402.6,294.7 386.1,294.7 							"/>
						</g>
					</g>
					<g id="Fill-62-Clipped-4">
						<g>
							<polygon id="Fill-62-4" class="st4" points="406.3,311.2 422.8,311.1 422.8,294.7 406.3,294.7 							"/>
						</g>
					</g>
					<g id="Fill-63-Clipped-4">
						<g>
							<polygon id="Fill-63-5" class="st4" points="426.3,311.1 442.8,311.1 442.8,294.6 426.3,294.7 							"/>
						</g>
					</g>
					<g id="Fill-64-Clipped-4">
						<g>
							<polygon id="Fill-64-5" class="st4" points="446.5,290.9 463,290.8 463,274.4 446.5,274.4 							"/>
						</g>
					</g>
					<g id="Fill-65-Clipped-4">
						<g>
							<polygon id="Fill-65-5" class="st4" points="446.7,210.1 463.1,210.1 463.1,193.6 446.7,193.6 							"/>
						</g>
					</g>
					<g id="Fill-66-Clipped-4">
						<g>
							<polygon id="Fill-66-4" class="st4" points="467.2,250.4 483.7,250.3 483.6,233.9 467.2,233.9 							"/>
						</g>
					</g>
					<g id="Fill-67-Clipped-4">
						<g>
							<polygon id="Fill-67-5" class="st4" points="467.2,230.3 483.6,230.3 483.6,213.9 467.1,213.9 							"/>
						</g>
					</g>
					<g id="Fill-68-Clipped-4">
						<g>
							<polygon id="Fill-68-4" class="st4" points="467.1,210.1 483.6,210.1 483.6,193.6 467.1,193.6 							"/>
						</g>
					</g>
					<g id="Fill-69-Clipped-4">
						<g>
							<polygon id="Fill-69-5" class="st4" points="487.4,210.1 503.8,210.1 503.8,193.6 487.4,193.6 							"/>
						</g>
					</g>
					<g id="Fill-70-Clipped-4">
						<g>
							<polygon id="Fill-70-5" class="st4" points="366.2,230.8 382.6,230.7 382.6,214.3 366.1,214.3 							"/>
						</g>
					</g>
					<g id="Fill-71-Clipped-4">
						<g>
							<polygon id="Fill-71-4" class="st4" points="386.2,230.7 402.6,230.7 402.6,214.2 386.1,214.3 							"/>
						</g>
					</g>
					<g id="Fill-72-Clipped-4">
						<g>
							<polygon id="Fill-72-4" class="st4" points="386.1,250.9 402.6,250.9 402.6,234.4 386.1,234.5 							"/>
						</g>
					</g>
					<g id="Fill-73-Clipped-4">
						<g>
							<polygon id="Fill-73-5" class="st4" points="406.4,250.9 422.8,250.9 422.8,234.4 406.3,234.4 							"/>
						</g>
					</g>
					<g id="Fill-74-Clipped-4">
						<polygon id="Fill-74-4" class="st4" points="406.3,230.4 422.8,230.4 422.8,213.9 406.3,214 						"/>
					</g>
				</g>
			</g>
		</g>
		<g id="WeHo-Logo-5" class="st2">
			<g id="Logo---City-of-West-Hollywood-5" class="st3">
				<g id="Group-75-5">
					<g id="Fill-43-Clipped-5">
						<g>
							<polygon id="Fill-43-6" class="st4" points="780.1,-21.6 771.4,-7.6 785.3,1.1 794.1,-12.8 							"/>
						</g>
					</g>
					<g id="Fill-46-Clipped-5">
						<g>
							<polygon id="Fill-46-6" class="st4" points="758.2,12.5 749.5,26.4 763.4,35.2 772.2,21.2 							"/>
						</g>
					</g>
					<g id="Fill-47-Clipped-5">
						<g>
							<polygon id="Fill-47-6" class="st4" points="747.6,29.8 738.9,43.7 752.9,52.5 761.6,38.5 							"/>
						</g>
					</g>
					<g id="Fill-48-Clipped-5">
						<g>
							<polygon id="Fill-48-6" class="st4" points="730.9,19.2 722.2,33.2 736.1,41.9 744.9,28 							"/>
						</g>
					</g>
					<g id="Fill-49-Clipped-5">
						<g>
							<polygon id="Fill-49-5" class="st4" points="720.3,36.2 711.5,50.1 725.5,58.9 734.2,44.9 							"/>
						</g>
					</g>
					<g id="Fill-50-Clipped-5">
						<g>
							<polygon id="Fill-50-5" class="st4" points="736.9,46.6 728.1,60.5 742.1,69.3 750.9,55.3 							"/>
						</g>
					</g>
					<g id="Fill-51-Clipped-4">
						<g>
							<polygon id="Fill-51-5" class="st4" points="726.5,64 717.8,77.9 731.8,86.7 740.5,72.7 							"/>
						</g>
					</g>
					<g id="Fill-52-Clipped-3">
						<g>
							<polygon id="Fill-52-4" class="st4" points="715.7,81.1 707,95.1 721,103.9 729.7,89.9 							"/>
						</g>
					</g>
					<g id="Fill-53-Clipped-3">
						<g>
							<polygon id="Fill-53-4" class="st4" points="704.9,98.2 696.1,112.1 710.1,120.9 718.9,106.9 							"/>
						</g>
					</g>
					<g id="Fill-54-Clipped-5">
						<g>
							<polygon id="Fill-54-6" class="st4" points="803.5,16.8 794.7,30.7 808.7,39.5 817.4,25.5 							"/>
						</g>
					</g>
					<g id="Fill-55-Clipped-5">
						<g>
							<polygon id="Fill-55-6" class="st4" points="765,40.6 756.2,54.6 770.2,63.3 779,49.4 							"/>
						</g>
					</g>
					<g id="Fill-56-Clipped-4">
						<g>
							<polygon id="Fill-56-5" class="st4" points="754.2,57.8 745.5,71.7 759.5,80.5 768.2,66.5 							"/>
						</g>
					</g>
					<g id="Fill-57-Clipped-5">
						<g>
							<polygon id="Fill-57-5" class="st4" points="792.8,33.9 784.1,47.9 798,56.6 806.8,42.6 							"/>
						</g>
					</g>
					<g id="Fill-58-Clipped-3">
						<g>
							<polygon id="Fill-58-4" class="st4" points="743.6,74.7 734.9,88.7 748.9,97.4 757.6,83.5 							"/>
						</g>
					</g>
					<g id="Fill-59-Clipped-3">
						<g>
							<polygon id="Fill-59-3" class="st4" points="732.9,91.9 724.2,105.9 738.1,114.6 746.9,100.6 							"/>
						</g>
					</g>
					<g id="Fill-60-Clipped-3">
						<g>
							<polygon id="Fill-60-3" class="st4" points="722.2,109 713.4,123 727.4,131.7 736.1,117.8 							"/>
						</g>
					</g>
					<g id="Fill-65-Clipped-5">
						<g>
							<polygon id="Fill-65-6" class="st4" points="797.3,-11 788.6,2.9 802.5,11.7 811.3,-2.3 							"/>
						</g>
					</g>
					<g id="Fill-66-Clipped-5">
						<g>
							<polygon id="Fill-66-5" class="st4" points="752.3,-15 743.6,-1.1 757.6,7.7 766.3,-6.3 							"/>
						</g>
					</g>
					<g id="Fill-67-Clipped-5">
						<g>
							<polygon id="Fill-67-6" class="st4" points="769.3,-4.4 760.5,9.5 774.5,18.3 783.2,4.3 							"/>
						</g>
					</g>
					<g id="Fill-68-Clipped-5">
						<g>
							<polygon id="Fill-68-5" class="st4" points="786.4,6.3 777.7,20.3 791.7,29 800.4,15.1 							"/>
						</g>
					</g>
					<g id="Fill-69-Clipped-5">
						<g>
							<polygon id="Fill-69-6" class="st4" points="775.7,23.5 767,37.4 781,46.2 789.7,32.2 							"/>
						</g>
					</g>
				</g>
			</g>
		</g>
		<g id="WeHo-Logo-6" class="st2">
			<g id="Logo---City-of-West-Hollywood-6" class="st3">
				<g id="Group-75-6">
					<g id="Fill-37-Clipped-5">
						<g>
							<polygon id="Fill-37-7" class="st4" points="1177.2,351.6 1160.7,352 1161.1,368.5 1177.6,368.1 							"/>
						</g>
					</g>
					<g id="Fill-38-Clipped-5">
						<g>
							<polygon id="Fill-38-7" class="st4" points="1176.8,331.2 1160.3,331.6 1160.7,348.1 1177.1,347.7 							"/>
						</g>
					</g>
					<g id="Fill-39-Clipped-5">
						<g>
							<polygon id="Fill-39-6" class="st4" points="1156.5,331.7 1140.1,332.1 1140.4,348.5 1156.9,348.1 							"/>
						</g>
					</g>
					<g id="Fill-40-Clipped-5">
						<g>
							<polygon id="Fill-40-6" class="st4" points="1157,351.7 1140.5,352.1 1140.9,368.5 1157.4,368.1 							"/>
						</g>
					</g>
					<g id="Fill-41-Clipped-5">
						<g>
							<polygon id="Fill-41-7" class="st4" points="1137.5,392.3 1121,392.7 1121.4,409.2 1137.9,408.8 							"/>
						</g>
					</g>
					<g id="Fill-42-Clipped-5">
						<g>
							<polygon id="Fill-42-6" class="st4" points="1137.1,372.2 1120.6,372.5 1121,389 1137.4,388.6 							"/>
						</g>
					</g>
					<g id="Fill-43-Clipped-6">
						<g>
							<polygon id="Fill-43-7" class="st4" points="1117.3,393.1 1100.9,393.5 1101.2,410 1117.7,409.6 							"/>
						</g>
					</g>
					<g id="Fill-44-Clipped-5">
						<g>
							<polygon id="Fill-44-6" class="st4" points="1136.7,352.1 1120.3,352.5 1120.6,369 1137.1,368.6 							"/>
						</g>
					</g>
					<g id="Fill-45-Clipped-5">
						<g>
							<polygon id="Fill-45-5" class="st4" points="1136.3,332.1 1119.8,332.5 1120.2,349 1136.7,348.6 							"/>
						</g>
					</g>
					<g id="Fill-46-Clipped-6">
						<g>
							<polygon id="Fill-46-7" class="st4" points="1076.8,393.6 1060.4,394 1060.8,410.4 1077.2,410.1 							"/>
						</g>
					</g>
					<g id="Fill-47-Clipped-6">
						<g>
							<polygon id="Fill-47-7" class="st4" points="1056.6,394.2 1040.1,394.6 1040.5,411.1 1057,410.7 							"/>
						</g>
					</g>
					<g id="Fill-48-Clipped-6">
						<g>
							<polygon id="Fill-48-7" class="st4" points="1056.2,374.5 1039.7,374.9 1040.1,391.3 1056.5,390.9 							"/>
						</g>
					</g>
					<g id="Fill-49-Clipped-6">
						<g>
							<polygon id="Fill-49-6" class="st4" points="1036.2,374.9 1019.7,375.3 1020.1,391.8 1036.5,391.4 							"/>
						</g>
					</g>
					<g id="Fill-50-Clipped-6">
						<g>
							<polygon id="Fill-50-6" class="st4" points="1036.6,394.5 1020.2,394.9 1020.5,411.4 1037,411 							"/>
						</g>
					</g>
					<g id="Fill-51-Clipped-5">
						<g>
							<polygon id="Fill-51-6" class="st4" points="1016.4,395.5 1000,395.8 1000.3,412.3 1016.8,411.9 							"/>
						</g>
					</g>
					<g id="Fill-52-Clipped-4">
						<g>
							<polygon id="Fill-52-5" class="st4" points="996.1,395.9 979.7,396.3 980,412.8 996.5,412.4 							"/>
						</g>
					</g>
					<g id="Fill-53-Clipped-4">
						<g>
							<polygon id="Fill-53-5" class="st4" points="976,396.2 959.5,396.6 959.9,413 976.3,412.7 							"/>
						</g>
					</g>
					<g id="Fill-54-Clipped-6">
						<g>
							<polygon id="Fill-54-7" class="st4" points="1098.2,433.7 1081.7,434.1 1082.1,450.6 1098.5,450.2 							"/>
						</g>
					</g>
					<g id="Fill-55-Clipped-6">
						<g>
							<polygon id="Fill-55-7" class="st4" points="1057,414.7 1040.6,415.1 1041,431.6 1057.4,431.2 							"/>
						</g>
					</g>
					<g id="Fill-56-Clipped-5">
						<g>
							<polygon id="Fill-56-6" class="st4" points="1036.8,415.2 1020.4,415.6 1020.8,432.1 1037.2,431.7 							"/>
						</g>
					</g>
					<g id="Fill-57-Clipped-6">
						<g>
							<polygon id="Fill-57-6" class="st4" points="1078,434.2 1061.5,434.6 1061.9,451.1 1078.4,450.7 							"/>
						</g>
					</g>
					<g id="Fill-58-Clipped-4">
						<g>
							<polygon id="Fill-58-5" class="st4" points="1016.8,415.7 1000.4,416.1 1000.8,432.5 1017.2,432.1 							"/>
						</g>
					</g>
					<g id="Fill-59-Clipped-4">
						<g>
							<polygon id="Fill-59-4" class="st4" points="996.6,416.1 980.1,416.5 980.5,433 997,432.6 							"/>
						</g>
					</g>
					<g id="Fill-60-Clipped-4">
						<g>
							<polygon id="Fill-60-4" class="st4" points="976.4,416.6 959.9,417 960.3,433.5 976.8,433.1 							"/>
						</g>
					</g>
					<g id="Fill-61-Clipped-5">
						<g>
							<polygon id="Fill-61-5" class="st4" points="1176.2,310.9 1159.8,311.2 1160.1,327.7 1176.6,327.3 							"/>
						</g>
					</g>
					<g id="Fill-62-Clipped-5">
						<g>
							<polygon id="Fill-62-5" class="st4" points="1156,311.4 1139.6,311.8 1140,328.2 1156.4,327.8 							"/>
						</g>
					</g>
					<g id="Fill-63-Clipped-5">
						<g>
							<polygon id="Fill-63-6" class="st4" points="1136.1,311.8 1119.6,312.2 1120,328.7 1136.4,328.3 							"/>
						</g>
					</g>
					<g id="Fill-64-Clipped-5">
						<g>
							<polygon id="Fill-64-6" class="st4" points="1116.3,332.6 1099.8,332.9 1100.2,349.4 1116.7,349 							"/>
						</g>
					</g>
					<g id="Fill-65-Clipped-6">
						<g>
							<polygon id="Fill-65-7" class="st4" points="1118,413.3 1101.5,413.7 1101.9,430.2 1118.4,429.8 							"/>
						</g>
					</g>
					<g id="Fill-66-Clipped-6">
						<g>
							<polygon id="Fill-66-6" class="st4" points="1096.6,373.5 1080.1,373.9 1080.5,390.4 1097,390 							"/>
						</g>
					</g>
					<g id="Fill-67-Clipped-6">
						<g>
							<polygon id="Fill-67-7" class="st4" points="1097,393.5 1080.6,393.9 1081,410.4 1097.4,410 							"/>
						</g>
					</g>
					<g id="Fill-68-Clipped-6">
						<g>
							<polygon id="Fill-68-6" class="st4" points="1097.5,413.8 1081,414.2 1081.4,430.6 1097.9,430.2 							"/>
						</g>
					</g>
					<g id="Fill-69-Clipped-6">
						<g>
							<polygon id="Fill-69-7" class="st4" points="1077.3,414.2 1060.8,414.6 1061.2,431.1 1077.7,430.7 							"/>
						</g>
					</g>
					<g id="Fill-70-Clipped-5">
						<g>
							<polygon id="Fill-70-6" class="st4" points="1198,390.8 1181.5,391.2 1181.9,407.7 1198.4,407.3 							"/>
						</g>
					</g>
					<g id="Fill-71-Clipped-5">
						<g>
							<polygon id="Fill-71-5" class="st4" points="1178,391.3 1161.5,391.7 1161.9,408.2 1178.4,407.8 							"/>
						</g>
					</g>
					<g id="Fill-72-Clipped-5">
						<g>
							<polygon id="Fill-72-5" class="st4" points="1177.6,371.1 1161.1,371.5 1161.5,388 1178,387.6 							"/>
						</g>
					</g>
					<g id="Fill-73-Clipped-5">
						<g>
							<polygon id="Fill-73-6" class="st4" points="1157.4,371.6 1140.9,372 1141.3,388.4 1157.8,388.1 							"/>
						</g>
					</g>
					<g id="Fill-74-Clipped-5">
						<polygon id="Fill-74-5" class="st4" points="1157.8,392.1 1141.4,392.5 1141.8,408.9 1158.2,408.5 						"/>
					</g>
				</g>
			</g>
		</g>
		<g id="devil" class="st2">
			<path id="Fill-5_1_" class="st5" d="M1138.1,442.7c0,1.1-25,1.9-55.9,1.9c-30.9,0-55.9-0.9-55.9-1.9c0-1.1,25-1.9,55.9-1.9
				C1113.1,440.8,1138.1,441.6,1138.1,442.7"/>
			<path id="Fill-6" class="st6" d="M1094.9,435.5c-13-5.2-30.9-17.1-43.3-44.2c0.1,2.5,0.2,4.9,0.3,7.3
				c0.6,1.8,10.8,28.7,45.2,37.7C1096.4,436,1095.7,435.8,1094.9,435.5"/>
			<path id="Fill-7" class="st6" d="M1051.3,246.5c2.3,2.6,8.6,2.5,11.8,1.8c0,0,0,0,0.1,0c0.4-0.1,0.8-0.2,1.1-0.4
				c3.7-1.5,9.5-5.9,6.5-18.9c-0.1,0-0.2,0-0.3,0c-2.6,0-12.8,0.7-18.5,10.4C1050.2,242.6,1049.9,245,1051.3,246.5"/>
			<path id="Fill-8" class="st6" d="M1015.3,295.8c-0.3,0-0.5-0.1-0.6-0.4c0-0.1-0.1-0.6,0.3-1.1c0.4-0.5,1-0.8,1.9-0.9
				c0.9-0.1,8.3-0.2,13.5,0.6c0,0,0,0,0,0c1.4,0.2,2.7,0.5,3.7,0.9c0,0,0.1,0,0.1,0c0.1,0,0.2,0.1,0.3,0.2c0.7,0.3,1.2,0.7,1.3,1.2
				c0.1,0.3-0.1,0.6-0.4,0.7c0,0-0.1,0-0.1,0c-0.2,0-0.4-0.1-0.5-0.4c0,0-0.1-0.2-0.3-0.3c-0.6,1.5-2,2.5-2.1,2.5l-0.3,0.2l-0.3-0.3
				c-1.1-1-1.6-2.9-1.8-3.7c-0.9-0.1-2-0.3-3.3-0.4c-4.3-0.3-8.6-0.3-9.4-0.2c-1,0.2-1.3,0.6-1.3,0.8
				C1015.8,295.5,1015.6,295.8,1015.3,295.8z M1006.7,260.6c0-0.2,0.2-0.4,0.4-0.4c0.2-0.1,0.4,0,0.5,0.1c0.1,0.1,5,4.7,14.2,3.3
				c0,0,0.1,0,0.1,0c0,0,0.1,0,0.1,0c0,0,0.1,0,0.1,0.1c0,0,0,0,0.1,0c0,0,0,0,0,0c0,0,0.1,0.1,0.1,0.1c0,0,0,0,0,0c0,0,0,0.1,0,0.1
				c0,0,0,0.1,0,0.1c0,0,0,0,0,0c0,0,0,0.1,0,0.1c0,0,0,0.1,0,0.1c0,0,0,0.1,0,0.1c0,0,0,0.1,0,0.1c-0.1,0.1-6.1,9.5-5.5,22.6
				c0.8,0.4,3.7,1.4,8.2-0.1c0,0,0,0,0,0c0,0,0.1,0,0.1,0c0,0,0.1,0,0.1,0c0,0,0.1,0,0.1,0c0,0,0.1,0,0.1,0c0,0,0,0,0,0
				c0,0,0,0,0.1,0.1c0,0,0.1,0,0.1,0.1c0,0,0,0.1,0.1,0.1c0,0,0,0,0,0.1c0,0,0,0,0,0c0,0,0,0.1,0,0.1c0,0,0,0.1,0,0.1
				c0,0,0,0.1,0,0.1c0,0,0,0.1,0,0.1c0,0,0,0,0,0c-1.7,2.7-5.4,3.3-5.6,3.4c0,0-0.1,0-0.1,0c-0.1,0-0.1,0-0.2,0
				c-2.9-0.9-3.9-3.4-4-3.5c0,0,0-0.1,0-0.1c0,0,0,0,0-0.1c-0.4-7.5,1.3-13.9,3-18.1c-0.9,0.6-2.2,1-3.8,1c-0.6,0-1.2-0.1-1.9-0.2
				C1005.6,268.6,1006.7,260.7,1006.7,260.6z M1029.6,266.1c0.1-0.1,0.3-0.1,0.5-0.1c0.1,0,9.9,3.2,17.7,3.2c0.1,0,0.1,0,0.2,0
				c0.2,0,0.3,0.1,0.4,0.2c0.1,0.1,0.1,0.3,0.1,0.4c0,0.1-0.3,3.3-2.6,5.1c-1,0.8-2.2,1.2-3.7,1.2c-0.4,0-0.7,0-1.1-0.1
				c-10.8-1.5-11.7-9.4-11.7-9.5C1029.4,266.4,1029.5,266.3,1029.6,266.1z M1030.6,259.2l3.9-8.3c0.1-0.2,0.4-0.4,0.6-0.3l15.8,3.9
				c0.2,0,0.3,0.1,0.4,0.3c0.1,0.2,0.1,0.3,0,0.4l-3.4,8.1c-0.1,0.2-0.3,0.3-0.4,0.3c-0.1,0-1.1,0.1-2.6,0.1c-3.8,0-10.6-0.5-14.2-4
				C1030.6,259.6,1030.6,259.4,1030.6,259.2z M1053.2,255.9c0.3,0.1,0.4,0.4,0.3,0.7l-3,7.2c-0.1,0.2-0.3,0.3-0.5,0.3
				c-0.1,0-0.1,0-0.2,0c-0.3-0.1-0.4-0.4-0.3-0.7l3-7.2C1052.7,255.9,1053,255.7,1053.2,255.9z M1054.7,258.2
				c0.3,0.1,0.4,0.4,0.3,0.7l-1.9,4.8c-0.1,0.2-0.3,0.3-0.5,0.3c-0.1,0-0.1,0-0.2,0c-0.3-0.1-0.4-0.4-0.3-0.7l1.9-4.8
				C1054.1,258.2,1054.5,258.1,1054.7,258.2z M1068.4,271.5c0.1,0.3,0,0.6-0.3,0.7c-0.2,0.1-0.9,0.5-1,0.9c0,0.2,0.1,0.5,0.4,0.8
				c0.2,0.2,1.8,1.8,1.5,3.4c-0.1,0.8-0.7,1.4-1.6,1.8c-0.1,0-0.1,0-0.2,0c-0.2,0-0.4-0.1-0.5-0.3c-0.1-0.3,0-0.6,0.3-0.7
				c0.6-0.3,0.9-0.6,1-1c0.2-0.8-0.6-1.9-1.2-2.4c-0.7-0.7-0.8-1.4-0.7-1.8c0.2-1.1,1.5-1.6,1.6-1.7
				C1068,271.1,1068.3,271.3,1068.4,271.5z M1071.8,277.7c2.5-1.6,1.6-4.8,1.6-5c-0.1-0.3,0.1-0.6,0.4-0.6c0.3-0.1,0.6,0.1,0.7,0.4
				c0.3,1.2,0.4,3.5-0.9,5.2c-0.3,0.4-0.7,0.7-1.1,1c-0.1,0.1-0.2,0.1-0.3,0.1c-0.2,0-0.3-0.1-0.4-0.2
				C1071.5,278.2,1071.5,277.8,1071.8,277.7z M1076,277.5c1.9-0.6,2.2-2.9,2.2-2.9c0-0.3,0.3-0.5,0.5-0.5c0,0,0,0,0,0c0,0,0,0,0,0
				c0.3,0,0.5,0.3,0.5,0.6c0,0.1-0.4,3-3,3.8c-0.1,0-0.1,0-0.2,0c-0.2,0-0.4-0.1-0.5-0.4c-0.1-0.2,0-0.3,0.1-0.5
				C1075.8,277.6,1075.9,277.6,1076,277.5z M1022.7,310.7c1.4,0,12.7-0.2,28.4-13c-1-0.3-1.8-0.9-2.4-1.6c-3.4-4.1-0.1-13.2,0-13.6
				c0.1-0.3,0.4-0.4,0.7-0.3c0.3,0.1,0.4,0.4,0.4,0.6c0,0-1,4.1,0.7,6.6c0.7,1,1.8,1.6,3.2,1.8c5.3,0.7,8.6-7.3,9.3-8.9
				c-1.5-0.6-2-1.4-2.1-1.5c-0.2-0.3-0.1-0.6,0.2-0.7c0.2-0.1,0.6-0.1,0.7,0.2c0,0,1.2,1.7,5.5,1.5c1,0,2.2-0.2,3.7-0.5
				c0.5-0.1,1-0.2,1.4-0.2c3.8-0.4,5.9,0.9,7.6,1.9l0.4,0.2c0.5,0.3,1.1,0.6,1.7,0.4c0.6-0.2,1.1-1,1.5-2.4c0.6-2.1,0.2-4.8-1.1-7.3
				c0,0,0-0.1-0.1-0.1c-0.4-0.7-0.8-1.4-1.4-2c-0.9-1-2-2-3.3-2.6c-4.1-2.1-6.8-2.2-7.5-2.2c-1.6,1.7-3.4,3.3-5.3,3.9
				c-0.6,0.2-1.1,0.2-1.7,0.2c-1.8-0.2-3.4-1.5-4.6-4.1c-3.7-7.5,1.1-14.7,3.3-17.5c-1,0.1-2.2,0.2-3.3,0.2c-3.1,0-6.5-0.6-8.1-2.6
				c-1.7-1.9-1.4-4.7,0.7-8.3c0.7-1.2,1.4-2.2,2.2-3.1c-2.9-0.9-14.1-3.2-22.4,9.6l0,0c0,0.1-0.1,0.1-0.1,0.1c0,0,0,0-0.1,0
				c-0.1,0-0.1,0.1-0.2,0.1c0,0,0,0,0,0c0,0,0,0,0,0v0c0,0,0,0-0.1,0c-0.1,0-0.1,0-0.2-0.1c0,0,0,0,0,0c-0.1,0-0.1-0.1-0.2-0.2
				c0,0,0,0,0,0c-0.1-0.2-2.6-4.6-3.3-10.6c-0.1-1.2-0.2-2.5-0.1-3.8c-2.1,0.9-9.3,4.6-15.1,14.4l12.6,1.9c0.2,0,0.3,0.1,0.4,0.3
				c0.1,0.1,0.1,0.3,0,0.5l-3.9,8.3c-0.1,0.1-0.2,0.2-0.3,0.3c-0.1,0-1,0.3-2.5,0.3c-2.2,0-5.8-0.6-10.1-3.1c-1.1,2.9-2,6.2-2.7,9.9
				C999.4,293.2,1016.8,306.3,1022.7,310.7z"/>
			<path id="Fill-9" class="st6" d="M1050.9,398.6c-0.1-3.3-0.3-6.7-0.4-10c0,0,0-0.1,0-0.1c-0.1-3.7-0.2-7.4-0.2-10.9
				c0-3.6,0.1-7.2,0.2-10.5h0c0.1-2.7,0.3-5.2,0.5-7.6c-5.7-1.9-22.6-7.5-32.3-12.4c-0.1,6.4,0.1,47.9,13.2,93.8l1.6-3.5
				c0.1-0.2,0.2-0.3,0.4-0.3c0.2,0,0.4,0.1,0.5,0.2l1.9,2.4c-0.9-6.8-3.5-29.6-2.1-41.9c-0.7-0.9-1.2-1.9-1.6-2.7
				c-0.1,0.1-0.3,0.1-0.4,0c-0.1-0.1-3.4-1.2-3.3-8.4c0-2.2,0.6-3.6,1.8-4.2c0.6-0.3,1.2-0.3,1.8-0.2c-0.5-0.6-0.8-1.1-0.9-1.6
				c-0.1-0.7,0.2-1.1,0.4-1.3c0.4-0.5,1-0.5,1-0.5c0.3,0,0.5,0.2,0.6,0.5c0,0.3-0.2,0.5-0.5,0.6c0,0-0.2,0-0.3,0.1
				c-0.1,0.1-0.1,0.3-0.1,0.5c0.1,0.5,1.2,1.7,2.3,2.7c0.3-0.8,0.6-1.8,0.3-2.4c-0.1-0.3,0-0.6,0.3-0.7c0.3-0.1,0.6,0,0.7,0.3
				c0.1,0.4,0.2,0.8,0.2,1.2c1.3-1.3,2.6-1.9,3.8-1.6c1.9,0.5,2.8,2.8,3.1,4.9c0.4,3-1.2,5.8-1.2,5.9c-0.1,0.2-0.3,0.3-0.5,0.3
				c0,0-0.1,0-0.1,0c0.3,2.6,0,4.6-0.5,6.1c0.2,2.1,2.5,28.6,8.7,43.8l0.7-3.1c0-0.2,0.2-0.4,0.4-0.4c0.2,0,0.4,0,0.5,0.2l2.4,2.8
				c-0.5-5.4-2.1-23-3-41.9C1050.9,398.7,1050.9,398.6,1050.9,398.6"/>
			<path id="Fill-10_1_" class="st6" d="M1031.6,218.5l-0.9-1.1c-9.4,5.3-11.6,14.4-12.1,17.6c4-3.6,7.4-4.9,8.1-5.2
				C1027.1,226.2,1028.4,222.2,1031.6,218.5"/>
			<path id="Fill-11_1_" class="st6" d="M1017.7,346.4c-0.7-0.4-1.3-0.7-1.8-1c0.3,2,0.5,5.8-1.5,8.3c-0.3,2.1-2.6,22.5-3.7,25
				c-1,2.3-3.1,3.1-3.9,3.3c-0.2,0.4-0.5,1.2-1,2.2l1.5,0.9c0.7-1,1.7-1.9,2.8-2.5c0.3-0.1,0.6-0.1,0.7,0.2c0.1,0.3,0.1,0.6-0.2,0.7
				c-1.7,0.9-2.9,2.4-3.2,3.9c-0.1,0.5-0.1,1.2,0.3,1.8c0.1,0.1,0.2,0.2,0.5,0.2c1.2-0.1,3.4-2.1,5.1-4.8c0.2-0.4,0.5-0.8,0.7-1.2
				c2-3.8,3.7-28,3.8-28.3c0,0,0,0,0,0C1017.6,350.4,1017.7,347.4,1017.7,346.4"/>
			<path id="Fill-12_1_" class="st6" d="M1015.1,343.8c0.1,0,0.2,0,0.3,0.1c8.6,5.6,33.3,13.7,37.3,15c0.1-0.8,0.4-2.4,0.8-4.5
				c1.1-6.9,2.8-19.4,2.1-28.2c-0.1-0.9-0.2-3.3-0.3-4.3c-0.6,0.1-1.2,0.1-1.8,0.1c-4,0-7.2-1.8-9.4-5.4c-2.5-3.9-1.7-7.2,0.5-10
				l0.4-3.1c-3.5,2.3-6.7,4-9.5,5.2c0.1,1.5,0.2,6.4-1.2,8.4c-0.7,0.9-2.6,1.5-5.1,2.1c-3.7,1-8.3,2.2-9.8,5.2
				c-0.1,0.1-2.1,3.3-3.7,15.2c0.5,0.3,1,0.6,1.5,0.8c0.2,0.1,0.5,0.3,0.7,0.4c0.1,0.1,0.3,0.1,0.4,0.2c0-1.5,0.2-9.9,2.4-14.4
				c0.1-0.3,0.4-0.4,0.7-0.2c0.3,0.1,0.4,0.4,0.2,0.7c-2.3,4.6-2.3,14.1-2.3,14.2c0,0.1,0,0.2-0.1,0.3c7,3.4,20.3,8.1,25.7,8.6
				c1.2,0.1,2.2,0.3,3,0.6c0.4-1.9,1.9-9.1,1.7-19.1c0-0.3,0.2-0.5,0.5-0.5c0.3,0,0.5,0.2,0.5,0.5c0.2,10.4-1.3,17.7-1.7,19.5
				c2.7,1.2,2.9,2.9,2.9,3c0,0,0,0,0,0.1c0,0.3-0.2,0.5-0.5,0.5c0,0,0,0-0.1,0c-0.3,0-0.5-0.2-0.5-0.5c0-0.1-0.5-2.5-6-3
				c-6.1-0.6-20.9-5.9-27.6-9.5c-0.2-0.1-0.5-0.3-0.7-0.4c-0.5-0.3-1.1-0.6-1.7-0.9c0,0,0,0,0,0c-1.8-0.8-3.8-1.2-5.8,0.6
				c-3.8,3.5-5.4,5.9-4.9,7.6c0.5-1.3,1.3-2.3,1.3-2.4c0.2-0.2,0.5-0.3,0.7-0.1c0.2,0.2,0.3,0.5,0.1,0.7c0,0-1.8,2.3-1.3,4.1
				c0.3,0.9,1,1.5,2.2,1.9c0.4-1.9,1.7-3.4,1.8-3.5c0.2-0.2,0.5-0.2,0.8,0c0.2,0.2,0.2,0.5,0,0.8c0,0-2.2,2.5-1.5,4.8
				c0.4,1.5,1.9,2.6,4.4,3.4c0.1-0.5,0.1-1,0.2-1.5c-0.1,0-0.1,0-0.2,0c-0.1,0-0.9-0.2-1.1-1c-0.1-0.6,0.2-1.3,1.1-2
				c3.4-2.7,1.8-9.3,1.8-9.3c-0.1-0.2,0-0.4,0.2-0.6C1014.9,343.8,1015,343.8,1015.1,343.8"/>
			<path id="Fill-13_1_" class="st6" d="M1011.7,392.1c-0.4-0.2-1.2,0.1-1.8,0.3c0.1,1-0.3,2.1-1.2,3.4c-0.1,0.1-0.2,0.2-0.2,0.3
				c0.9-0.1,2.2-0.3,2.9-1.1c0.5-0.6,0.7-1.4,0.5-2.4C1011.9,392.2,1011.7,392.2,1011.7,392.1"/>
			<path id="Fill-14_1_" class="st6" d="M1008.8,392.2C1008.8,392.2,1008.8,392.2,1008.8,392.2c-0.3,0.9-0.9,1.7-1.2,2.1
				c-0.8,1.1-2,1.9-3.2,2.3c0.4,0.1,0.8,0.2,1.3,0.1c0.8-0.1,1.5-0.6,2.2-1.6C1008.7,394,1009,393,1008.8,392.2"/>
			<path id="Fill-15_1_" class="st6" d="M1006.8,393.6c0.7-0.9,1.3-2.1,1.1-2.7c0-0.1-0.1-0.4-0.7-0.5c-1.9-0.5-4.1,1.1-4.6,2
				c-0.1,0.3-0.5,0.4-0.7,0.2c-0.3-0.1-0.4-0.5-0.2-0.7c0.2-0.3,0.4-0.6,0.8-1l-0.8-0.5c-0.2,0.3-0.5,0.5-0.7,0.7
				c0,0.1-1.9,2.6-0.6,4c0.6,0.6,1.4,0.7,2,0.7C1003.9,395.9,1005.7,395,1006.8,393.6"/>
			<path id="Fill-16_1_" class="st7" d="M1052.8,358.9c2.4-18.7,0.4-37.3,0.4-37.3l-4.7-1.4c0,0-4.8-3.3-5.6-7.1
				c-0.8-3.8,2.1-6.2,2.1-6.2l0.5-4.3l-10.3,5.6v4.5l-1.2,4.1l-1.8,1.5c0,0-7.1-0.2-10.5,7.1l0,0c-4.8,3.7-4.4,15-4.4,15l1.5,1.2
				l0.4-6.3l0.9-3.2c-0.3,3-0.4,6.7-0.3,10.6l3.8,1.7l15.3,4.8l8,1.6l3,1.3c0,0,5.4,2.9-2.6,1.9c-5.7-0.7-19.8-6.4-27.5-9.5
				c0,0.1,0,0.1,0,0.2l-5.1-2.3l-0.6-0.3l0.7,1.8l5.1,2.5c0.4,11.6,1.6,23.4,1.6,23.4s11.7,78.3,10.7,57.3
				c-1.1-22.5-0.6-32.5-0.6-32.5c2.3-13.7,8.5-6.3,8.5-6.3s0.5,4.3,6.8,32.2c6.3,27.9,4.3-1.1,2.3-20.4c-2-19.3,0-41.3,0-41.3
				H1052.8"/>
			<path id="Fill-17_1_" class="st7" d="M1011,353.6c-3.7,1.6,1.7,4.7,1.7,4.7l1.2-1.1c0,0,4.2,0.1,4.2-4.3s0-6.9,0-6.9l-3.5-1.5
				C1014.6,344.5,1014.8,352,1011,353.6"/>
			<path id="Fill-18_1_" class="st7" d="M1009.1,349.3c-4.9-0.3-1.8,4-1.8,4L1009.1,349.3"/>
			<path id="Fill-19_1_" class="st7" d="M1009.7,383.5c-2.4-2-4-0.5-4-0.5l-1.4,2.3l2.2,1.4L1009.7,383.5"/>
			<path id="Fill-20_1_" class="st7" d="M1006.6,388.8l-3.6-0.9l-3.1,3.5l-0.6,3l1,1.6l1.5-0.1c-0.6-3.3,5.7-6,5.7-6h2.2l2.3-2.6
				l2.1-3l1.1-3.2C1012.3,387.1,1006.6,388.8,1006.6,388.8"/>
			<path id="Fill-21_1_" class="st7" d="M1051.6,393.8c6,15.5,26.9,33.6,26.9,33.6c-20.8-13.5-26.9-29.9-26.9-29.9V393.8"/>
			<path id="Fill-22_1_" class="st8" d="M1006.4,381.6l-2.2-5.3c0,0-18-17.3-25.4-16.2c-4.4,0.7-10.9,9.2-11.4,13.6
				c-0.2,1.7,0.9,5.1,1.9,6.4c2.5,3.3,8.3,7.3,8.2,14.4c-0.1,6.1-1.8,24.6,4.1,22.8c5.9-1.8,7.5-26.5,14.5-24.9
				C1001.5,393.9,1006.4,381.6,1006.4,381.6"/>
			<path id="Fill-24_1_" class="st9" d="M969.5,380.6c0,0,7-15.4,12.3-14.6c6.8,1,20.7,13.5,20.7,13.5l3.2,2
				C1005.8,381.6,984,398.4,969.5,380.6"/>
			<path id="Fill-27_1_" class="st10" d="M1167.4,378.7c1.1,1.7,1.4,3.5,1.1,5.5c-0.8,5.1-6,10.2-10.4,13.8
				C1161.5,393.5,1166.9,385.4,1167.4,378.7"/>
			<path id="Fill-28_1_" class="st10" d="M1114.4,372c0-0.3-0.2-0.6-0.5-0.6c-16.7-2.2-18.4-10.3-18.6-12.4c0.4,0,0.7,0,1.1,0
				c4.3,0,9-0.9,14-2.6c0.3-0.1,0.4-0.4,0.3-0.7c-0.1-0.3-0.4-0.4-0.7-0.3c-5.5,1.9-10.6,2.8-15.3,2.5c0,0,0,0,0,0s0,0,0,0
				c-3.6-0.2-6.9-1-10-2.5c-9.9-4.9-13.3-15.1-13.3-15.2c-0.1-0.3-0.4-0.4-0.7-0.3c-0.3,0.1-0.4,0.4-0.4,0.7
				c0.1,0.4,3.6,10.7,13.9,15.8c3,1.5,6.4,2.4,9.9,2.6c0.1,2.3,1.8,11.2,19.5,13.5c0,0,0.1,0,0.1,0
				C1114.2,372.4,1114.4,372.3,1114.4,372z M1163.9,371.9c8.7,7.6-8.3,27.6-9.3,28.8c-1,0.7-1.8,1.2-2.4,1.6
				c0.6-2.9,0.1-6.1-1.3-8.7c-2.5-4.5-7.7-6.8-14.8-6.6c-6.9,0.2-9.7,3.6-12.3,6.8c-2.4,2.9-4.8,6-10.5,7.1c-3.6,0.7-6.6,0.3-9-1.4
				c-3.4-2.3-4.4-6.4-4.5-7c-0.1-3.2-1.8-6.5-4.9-9.4c-6.9-6.5-12.8-4.9-18.4-3.3c-2.2,0.6-4.6,1.3-6.9,1.4
				c-16.5,0.9-17.9-13.2-18-14.2c0.1-2.5,0.2-5,0.4-7.3c0.5,0.1,0.8,0.3,0.9,0.3c0.1,0,0.1,0,0.2,0c0.1,0,0.2,0,0.3-0.1
				c0.1-0.1,0.2-0.2,0.2-0.4c0-0.2,4.1-20.8,3-33.5c-0.1-1-0.2-3.4-0.3-4.4c2.2-0.4,4.7-1.4,7.3-2.8c0.3-0.1,0.4-0.5,0.2-0.7
				c-0.1-0.3-0.5-0.4-0.7-0.2c-8.2,4.5-14.5,3.9-18.1-1.9c-2.9-4.7-1.2-8.7,5.9-13.6c6-4.1,10-10.7,10.2-11c0.2-0.2,0.1-0.6-0.2-0.7
				c-0.2-0.1-0.4-0.1-0.5,0l-1.4-0.3c2.9-2.5,4.6-6.7,5-7.8c1.6,0.4,3.9,0.5,7.2-0.2c4.3-0.9,6.4,0.4,8.3,1.6l0.4,0.2
				c0.3,0.2,1,0.6,1.8,0.6c0.3,0,0.5,0,0.8-0.1c0.9-0.4,1.6-1.4,2.1-3.1c0.7-2.3,0.2-5.3-1.2-8c-0.2-8.7-1.7-13.6-4.5-14.6
				c-2.2-0.7-4.6,1.2-6.1,3.2l-0.3,0.4c-0.7,0.9-1.7,2.3-2.8,3.5c0,0,0,0,0,0c-1.9,2.1-4.2,4-6.3,3.8c-1.4-0.1-2.7-1.3-3.8-3.5
				c-4-8.3,3.1-16.3,4.1-17.3c0.4-0.1,0.8-0.2,1.1-0.3c4.1-1.6,10.4-6.4,7-20.5c-0.1-0.2-0.2-0.4-0.5-0.4c-0.1,0-10-0.7-17.1,6.9
				c-1-0.3-4.1-1.2-8.1-0.8c-4,0.4-9.5,2.3-14.3,8.5c0.6-2.1,1.7-5.2,3.7-8.3c4.5-7.1,11.1-10.5,19.6-10
				c12.5,0.6,15.3-5.4,17.8-10.7c1.8-3.8,3.5-7.5,8.5-8.6c0.7-0.1,1.5-0.2,2.3-0.2c1.9,0,4.1,0.5,6.8,1.6c4.4,1.8,4.9,5.5,5.3,9.1
				c0.4,2.9,0.7,5.7,3.4,6.7c2.3,0.8,7.8,0.3,11-2.2c1.8-1.4,2.6-3.3,2.3-5.4c-0.3-2.4-1.2-4.1-2.8-4.9c-1.4-0.8-2.9-0.8-4.2-0.6
				c1.3-0.8,3-1.6,4.7-1.4c1.7,0.2,3.1,1.3,4.3,3.3c4,6.9-0.6,14.4-1.4,15.6c-6.5-1.3-12.6,0.2-12.7,0.3c-0.3,0.1-0.5,0.4-0.4,0.7
				c0.1,0.3,0.4,0.4,0.7,0.4c0.1,0,5.1-1.3,10.8-0.5c7.6,1.1,12.6,5.2,15,12.3c1.5,4.4,1.9,8.1,1.7,11.1c0,0.1,0,0.2,0,0.2
				c-0.7,8.6-6.3,12.1-6.7,12.3c-0.2,0.2-0.3,0.5-0.2,0.7c0.1,0.2,0.3,0.3,0.5,0.3c0.1,0,0.2,0,0.3-0.1c0.1-0.1,6.1-3.7,7.1-12.5
				c1.3,0.6,4.4,2.3,5.3,5.2c0.6,2,0.1,4.1-1.5,6.5c-2.9,4.2-3.4,8.8-1.5,12.6c1.6,3.2,4.7,5.3,8.2,5.5c0.2,0,0.3,0,0.5,0
				c0.3,0,0.6,0,0.9-0.1c0.9,0.3,7.2,2.5,9,7.9c1.3,4-0.1,8.8-4.1,14.3c-0.6-1.7-1.7-3.5-3.4-5c-4.8-4-13-4.1-24.5-0.4
				c-0.3,0.1-0.4,0.4-0.3,0.7c0.1,0.3,0.4,0.4,0.7,0.4c11.1-3.6,19-3.6,23.5,0.1c3.6,3,3.9,7.5,3.9,9.4c-1.9-1.2-7.2-4.3-16.4-6.1
				c-0.3-0.1-0.6,0.1-0.6,0.4c-0.1,0.3,0.1,0.6,0.4,0.6c11.1,2.3,16.6,6.3,16.8,6.5c3.3,2.9,5.1,6.2,5.3,9.9
				c0.6,9.6-8.6,20-14.8,26.9c-1.2,1.3-2.1,2.4-3,3.4c-8.8,10.6-8.4,15.8-6.5,18.3c2.9,3.8,10.6,3.2,14.8,1.3l0.4-0.2
				C1147.2,367.6,1155,364.1,1163.9,371.9z"/>
			<path id="Fill-29_1_" class="st9" d="M1157,391.3c0.7-9.5-6.8-12.5-6.8-12.5c8.8,7.1,3.6,15.3,3.6,15.3s-2.1-12.8-13.4-17.3
				s-21.2,0.8-21.2,0.8c-5.9-5.6-12-7.4-12-7.4l-6.3-2.3l-3.5-3l-2.5-3.7l-0.6-3.3l-1.2,0.4l-6.2-1.7l-6.2-3.5l-5.3-4.3
				c0,0-3.8-5-8.4-7.7c-4.5-2.7-6-8.7-6-8.7c-0.5,2.5,1.6,7.3,1.6,7.3c-2.9-2.8-4.6-6.9-5.5-10c0.2,12.7-3.2,29.7-3.2,29.9
				c0,0.1-0.1,0.3-0.2,0.4c-0.1,0.1-0.2,0.1-0.3,0.1c-0.1,0-0.1,0-0.2,0c-0.1,0-0.4-0.1-0.9-0.3c-0.2,2.3-0.3,4.7-0.4,7.3
				c0,0.3,0.1,1.4,0.6,2.9c1.7,2.3,7,8.4,17.1,7.5c0,0-5.7,1.8-9.6,0.1c0,0,6.4,3.7,17.4,2.2c5.5-1.5,11.2-2.9,17.9,3.4
				c1.9,1.8,3.3,3.7,4.1,5.7c1.9,2.5,6.4,6.8,13.4,4.7c0,0-3.9,4.1-8.1,1.8c0,0,3.8,5.9,13.9,1.3c1.8-0.8,3.5-1.5,5.1-2.2
				c0.2-0.2,0.4-0.4,0.5-0.7c2.6-3.3,5.4-6.6,12.3-6.8c7.1-0.2,12.3,2.2,14.8,6.6c1.4,2.5,1.9,5.7,1.3,8.7c0.6-0.4,1.4-0.9,2.4-1.6
				c0.7-0.8,7.9-9.3,10.6-17.2C1162.5,386.7,1157,391.3,1157,391.3"/>
			<path id="Fill-30_1_" class="st11" d="M1114,371.4c0.3,0,0.5,0.3,0.5,0.6c0,0.3-0.3,0.5-0.5,0.5c0,0-0.1,0-0.1,0
				c-17.7-2.4-19.4-11.3-19.5-13.5c-3.6-0.3-6.9-1.1-9.9-2.6c-10.3-5.1-13.7-15.4-13.9-15.8c-0.1-0.3,0.1-0.6,0.4-0.7
				c0.3-0.1,0.6,0.1,0.7,0.3c0,0.1,3.5,10.3,13.3,15.2c3,1.5,6.4,2.4,10,2.5c0,0,0,0,0,0s0,0,0,0c4.7,0.2,9.8-0.6,15.3-2.5
				c0.3-0.1,0.6,0.1,0.7,0.3c0.1,0.3-0.1,0.6-0.3,0.7c-5,1.8-9.7,2.6-14,2.6c-0.4,0-0.8,0-1.1,0
				C1095.6,361.1,1097.3,369.2,1114,371.4"/>
			<path id="Fill-31_1_" class="st9" d="M1078.6,260.1c1.2,0.4,3.3,2.5,3.7,11.7c-1.1-1.4-2.4-2.6-4-3.5c-3.3-1.7-5.7-2.2-7-2.3
				c0.8-1,1.5-1.9,2.1-2.7l0.3-0.4C1074.9,261.3,1076.9,259.6,1078.6,260.1"/>
			<path id="Fill-32_1_" class="st7" d="M1067.2,272.2c0,0,3-1.1,4,2.2c0,0-0.8-0.7-2-0.7c0,0,2.7,2.4-1,4.6l0.4-2.5l-1.9-2.4
				L1067.2,272.2"/>
			<path id="Fill-33_1_" class="st11" d="M1078.8,274.2c0.3,0,0.5,0.3,0.5,0.6c0,0.1-0.4,3-3,3.8c-0.1,0-0.1,0-0.2,0
				c-0.2,0-0.4-0.1-0.5-0.4c-0.1-0.2,0-0.3,0.1-0.5c0.1-0.1,0.2-0.2,0.3-0.2c1.9-0.6,2.2-2.9,2.2-2.9
				C1078.3,274.4,1078.5,274.2,1078.8,274.2C1078.8,274.2,1078.8,274.2,1078.8,274.2C1078.8,274.2,1078.8,274.2,1078.8,274.2"/>
			<path id="Fill-34_1_" class="st11" d="M1074.4,272.4c0.3,1.2,0.4,3.5-0.9,5.2c-0.3,0.4-0.7,0.7-1.1,1c-0.1,0.1-0.2,0.1-0.3,0.1
				c-0.2,0-0.3-0.1-0.4-0.2c-0.2-0.2-0.1-0.6,0.1-0.7c2.5-1.6,1.6-4.8,1.6-5c-0.1-0.3,0.1-0.6,0.4-0.6
				C1074,272,1074.3,272.1,1074.4,272.4"/>
			<path id="Fill-35_1_" class="st10" d="M1072.7,210.7c0.2-0.2,0.4-0.4,0.7-0.6c-0.6,1-1.1,2.1-1.5,3.1c-2.4,5.3-5,10.7-16.8,10.1
				c-18-0.9-23.5,15.2-24.7,20.3c-2-4.3-6.9-18.1,5.7-27.7c11.5-8.8,17.4-8.6,19.8-7.8c1.7,0.6,2.8,1.8,3.2,3.5
				c0.1,0.2,0.1,0.5,0.2,0.8c0.3,1.5,0.7,3.6,2.5,4.3c1.4,0.6,3.4,0,6.1-1.8C1069.6,213.7,1071.2,212.2,1072.7,210.7"/>
			<path id="Fill-36_1_" class="st11" d="M1067.5,273.9c0.2,0.2,1.8,1.8,1.5,3.4c-0.1,0.8-0.7,1.4-1.6,1.8c-0.1,0-0.1,0-0.2,0
				c-0.2,0-0.4-0.1-0.5-0.3c-0.1-0.3,0-0.6,0.3-0.7c0.6-0.3,0.9-0.6,1-1c0.2-0.8-0.6-1.9-1.2-2.4c-0.7-0.7-0.8-1.4-0.7-1.8
				c0.2-1.1,1.5-1.6,1.6-1.7c0.3-0.1,0.6,0,0.7,0.3c0.1,0.3,0,0.6-0.3,0.7c-0.2,0.1-0.9,0.5-1,0.9
				C1067.1,273.4,1067.2,273.7,1067.5,273.9"/>
			<path id="Fill-37_1_" class="st10" d="M1059,290.4l1.4,0.3c-0.1,0.1-0.2,0.1-0.2,0.2c0,0-1.8,2.9-4.6,6c-0.1,0-0.1,0-0.2,0
				c-2.8,0.4-4.7,0-5.9-1.4c-1.6-1.9-1.5-5.3-1-8.1c0.2,0.9,0.5,1.9,1,2.7c0.9,1.3,2.2,2,3.9,2.3
				C1055.7,292.6,1057.5,291.7,1059,290.4"/>
			<path id="Fill-38_1_" class="st7" d="M1070.8,229.1c0,0-20.2,9.2-15.7,17.3C1059.6,254.4,1071.7,236.6,1070.8,229.1"/>
			<path id="Fill-39_1_" class="st11" d="M1054.7,258.2c0.3,0.1,0.4,0.4,0.3,0.7l-1.9,4.8c-0.1,0.2-0.3,0.3-0.5,0.3
				c-0.1,0-0.1,0-0.2,0c-0.3-0.1-0.4-0.4-0.3-0.7l1.9-4.8C1054.1,258.2,1054.5,258.1,1054.7,258.2"/>
			<path id="Fill-40_1_" class="st9" d="M1053.5,298.1c0.3,0,0.6,0,1-0.1c-1.2,1.3-2.6,2.5-4.2,3.5c-1.5,1.1-3.1,2.3-4.4,3.6
				l0.3-2.5c2-1.4,4-2.9,6.2-4.7C1052.8,298,1053.1,298.1,1053.5,298.1"/>
			<path id="Fill-41_1_" class="st11" d="M1053.2,255.9c0.3,0.1,0.4,0.4,0.3,0.7l-3,7.2c-0.1,0.2-0.3,0.3-0.5,0.3
				c-0.1,0-0.1,0-0.2,0c-0.3-0.1-0.4-0.4-0.3-0.7l3-7.2C1052.7,255.9,1053,255.7,1053.2,255.9"/>
			<path id="Fill-42_1_" class="st7" d="M1012.5,251.1c0,0-7.2,10.1-5.9,25.8c1.3,15.7,7.7,19.2,7.7,19.2s0.6,0.8,0.9-0.3
				c0.3-1.1,12.7,0.6,12.7,0.6s-10.8-0.1-11.9,2.3c0,0,6.8-1.1,14.9-0.7c8.1,0.4,5.9-1.6,4.6-4c0,0,1.3-0.3,2.7,1.6
				c0,0,6.3-8.9,4.9-19.5c-1.4-10.6,5.2-18.9,5.2-18.9l-34.4-9.1L1012.5,251.1"/>
			<path id="Fill-43_1_" class="st12" d="M1048.3,269.4c0.1,0.1,0.1,0.3,0.1,0.4c0,0.1-0.3,3.3-2.6,5.1c-1,0.8-2.2,1.2-3.7,1.2
				c-0.4,0-0.7,0-1.1-0.1c-10.8-1.5-11.7-9.4-11.7-9.5c0-0.2,0.1-0.4,0.2-0.5c0.1-0.1,0.3-0.1,0.5-0.1c0.1,0,9.9,3.2,17.7,3.2
				c0.1,0,0.1,0,0.2,0C1048.1,269.3,1048.2,269.3,1048.3,269.4"/>
			<path id="Fill-44_1_" class="st12" d="M1032,297.9c0.5-0.4,1.3-1.3,1.7-2.3c-0.7-0.2-1.7-0.5-3.1-0.8
				C1030.9,295.8,1031.3,297,1032,297.9"/>
			<path id="Fill-45_1_" class="st11" d="M1037.2,272c0.2-1.2,1-2.1,2.2-2.5c-3.9-0.7-7.3-1.7-8.8-2.1c0.4,1.6,2,5.2,7.3,6.9
				C1037.4,273.6,1037.1,272.8,1037.2,272z M1048.3,269.4c0.1,0.1,0.1,0.3,0.1,0.4c0,0.1-0.3,3.3-2.6,5.1c-1,0.8-2.2,1.2-3.7,1.2
				c-0.4,0-0.7,0-1.1-0.1c-10.8-1.5-11.7-9.4-11.7-9.5c0-0.2,0.1-0.4,0.2-0.5c0.1-0.1,0.3-0.1,0.5-0.1c0.1,0,9.9,3.2,17.7,3.2
				c0.1,0,0.1,0,0.2,0C1048.1,269.3,1048.2,269.3,1048.3,269.4z M1043.4,275c0.7-0.2,1.2-0.4,1.8-0.8c1.4-1.1,1.9-2.9,2.1-3.8
				c-1.3,0-2.7-0.1-4-0.3c0.9,0.7,1.5,1.8,1.4,2.9C1044.5,273.8,1044.1,274.5,1043.4,275z"/>
			<path id="Fill-46_1_" class="st10" d="M1042.5,385.1c0.2,1.5-0.2,3.1-0.6,4.1c-0.4-0.8-0.9-1.3-0.9-1.4c-0.2-0.2-0.4-0.2-0.7-0.1
				c-0.2,0.1-0.3,0.4-0.3,0.6c1,3.9,0.7,6.7,0.1,8.6c0,0,0,0.1,0,0.1c-0.6,1.6-1.4,2.6-1.8,3c-4.5-2.6-5.5-7.8-5.5-7.9
				c0-0.2-0.2-0.4-0.5-0.4c0,0,0,0,0,0c-0.2,0-0.4,0.2-0.5,0.4c-0.1,0.4-0.1,0.7-0.1,1.1c-0.7-0.9-1.6-2.8-1.6-6.6
				c0-1.2,0.2-2.8,1.2-3.2c1.2-0.6,3.1,0.6,3.8,1.1c0.1,0.1,0.2,0.1,0.3,0.1c0,0,0,0,0,0c0,0,0,0,0.1,0c0,0,0,0,0,0s0,0,0,0
				c0,0,0,0,0.1,0c0,0,0.1,0,0.1-0.1c0,0,0,0,0.1-0.1c0,0,0,0,0.1-0.1c1.7-2.4,3.2-3.6,4.4-3.3
				C1041.5,381.5,1042.2,383.4,1042.5,385.1"/>
			<path id="Fill-47_1_" class="st9" d="M1031.7,394.1c0,0-1.2-6,0.4-8.1c0,0-3.1,2.4-1.7,6.2L1031.7,394.1"/>
			<path id="Fill-48_1_" class="st9" d="M1038.3,400.1c0,0,1.5-7.2-1.6-12.7c0,0,3.8,3,3.9,9.9L1038.3,400.1"/>
			<path id="Fill-49_1_" class="st12" d="M1018.1,264.9C1018.1,264.9,1018.1,264.9,1018.1,264.9c-0.4,0-0.7,0-1,0c0,0,0,0,0,0
				c-2.9-0.2-5.4-1-6.4-1.5c-1.6-0.7-2.8-1.7-3.6-2.3c0,2,0.5,6.3,4.8,7.8c1.6,1.2,5.4,0.2,5.4,0.2c2-0.7,2.9-2,2.9-2.1c0,0,0,0,0,0
				c0.4-1,0.8-1.7,1.1-2.3C1020.2,264.9,1019.1,264.9,1018.1,264.9"/>
			<path id="Fill-50_1_" class="st11" d="M1032,297.5c0.4-0.3,1-1,1.3-1.8c-0.5-0.2-1.3-0.4-2.4-0.6
				C1031.1,295.9,1031.5,296.9,1032,297.5z M1035.7,296.2c0.1,0.3-0.1,0.6-0.4,0.7c0,0-0.1,0-0.1,0c-0.2,0-0.4-0.1-0.5-0.4
				c0,0-0.1-0.2-0.3-0.3c-0.6,1.5-2,2.5-2.1,2.5l-0.3,0.2l-0.3-0.3c-1.1-1-1.6-2.9-1.8-3.7c-0.9-0.1-2-0.3-3.3-0.4
				c-4.3-0.3-8.6-0.3-9.4-0.2c-1,0.2-1.3,0.6-1.3,0.8c0,0.3-0.2,0.6-0.4,0.6c-0.3,0-0.5-0.1-0.6-0.4c0-0.1-0.1-0.6,0.3-1.1
				c0.4-0.5,1-0.8,1.9-0.9c0.9-0.1,8.3-0.2,13.5,0.6c0,0,0,0,0,0c1.4,0.2,2.7,0.5,3.7,0.9C1034.8,295.2,1035.5,295.7,1035.7,296.2z"
				/>
			<path id="Fill-51_1_" class="st10" d="M1034.5,309.1c0.1,2.1,0,5.9-1.1,7.3c-0.5,0.7-2.4,1.2-4.5,1.7c-3.9,1-8.8,2.3-10.4,5.7
				c0,0.1-0.6,0.9-1.3,3.2l-0.9-0.1c0.1-0.3,0.2-0.7,0.2-1c0.4-2.3-0.7-4.9-2.9-6.8c-1.6-1.4-3.6-1.2-5.5-1.1
				c-3.1,0.2-6,0.5-8.3-4.9c-3.6-8.5,5.3-13.3,6-13.6c1.5-0.3,2.7-0.9,3.3-1.3c4.5,7.1,10.1,11.3,13,13.4c0.1,0.1,0.2,0.1,0.3,0.1
				c0.1,0,0.2,0,0.5,0C1024.4,311.8,1028.5,311.5,1034.5,309.1"/>
			<path id="Fill-52_1_" class="st11" d="M1011.2,266.4c0.1-1,0.8-1.8,1.8-2.2c-2.6-0.7-4.4-1.8-5.3-2.5c0,1.8,0.4,5.5,4.4,6.9
				C1011.4,268.1,1011.1,267.3,1011.2,266.4z M1018,288.8c-0.1-0.1-0.2-0.2-0.3-0.4C1017.7,288.6,1017.8,288.7,1018,288.8z
				 M1019.7,266.9c0.4-0.9,0.8-1.6,1.1-2.1c-1.4,0.2-2.7,0.2-3.9,0.1c0.7,0.6,1.1,1.5,1,2.4c-0.1,0.6-0.4,1.1-0.8,1.5
				C1018.8,268.2,1019.7,267,1019.7,266.9C1019.7,266.9,1019.7,266.9,1019.7,266.9z M1025.7,287.4c0,0,0,0.1,0,0.1c0,0,0,0.1,0,0.1
				c0,0,0,0.1,0,0.1c0,0,0,0,0,0c-1.7,2.7-5.4,3.3-5.6,3.4c0,0-0.1,0-0.1,0c-0.1,0-0.1,0-0.2,0c-2.9-0.9-3.9-3.4-4-3.5
				c0,0,0-0.1,0-0.1c0,0,0,0,0-0.1c-0.4-7.5,1.3-13.9,3-18.1c-0.9,0.6-2.2,1-3.8,1c-0.6,0-1.2-0.1-1.9-0.2c-7.5-1.5-6.3-9.4-6.3-9.5
				c0-0.2,0.2-0.4,0.4-0.4c0.2-0.1,0.4,0,0.5,0.1c0.1,0.1,5,4.7,14.2,3.3c0,0,0.1,0,0.1,0c0,0,0.1,0,0.1,0c0,0,0.1,0,0.1,0.1
				c0,0,0,0,0.1,0c0,0,0,0,0,0c0,0,0.1,0.1,0.1,0.1c0,0,0,0,0,0c0,0,0,0.1,0,0.1c0,0,0,0.1,0,0.1c0,0,0,0,0,0c0,0,0,0.1,0,0.1
				c0,0,0,0.1,0,0.1c0,0,0,0.1,0,0.1c0,0,0,0.1,0,0.1c-0.1,0.1-6.1,9.5-5.5,22.6c0.8,0.4,3.7,1.4,8.2-0.1c0,0,0,0,0,0
				c0,0,0.1,0,0.1,0c0,0,0.1,0,0.1,0c0,0,0.1,0,0.1,0c0,0,0.1,0,0.1,0c0,0,0,0,0,0c0,0,0,0,0.1,0.1c0,0,0.1,0,0.1,0.1
				c0,0,0,0.1,0.1,0.1c0,0,0,0,0,0.1C1025.7,287.3,1025.7,287.3,1025.7,287.4C1025.7,287.3,1025.7,287.4,1025.7,287.4z"/>
			<path id="Fill-53_1_" class="st11" d="M1168.5,384.2c-0.8,5.1-6,10.2-10.4,13.8c3.4-4.5,8.8-12.6,9.3-19.3
				C1168.4,380.4,1168.8,382.2,1168.5,384.2z M1152.2,402.3c0.6-2.9,0.1-6.1-1.3-8.7c-2.5-4.5-7.7-6.8-14.8-6.6
				c-6.9,0.2-9.7,3.6-12.3,6.8c-2.4,2.9-4.8,6-10.5,7.1c-3.6,0.7-6.6,0.3-9-1.4c-3.4-2.3-4.4-6.4-4.5-7c-0.1-3.2-1.8-6.5-4.9-9.4
				c-6.9-6.5-12.8-4.9-18.4-3.3c-2.2,0.6-4.6,1.3-6.9,1.4c-16.5,0.9-17.9-13.2-18-14.2c0.1-2.5,0.2-5,0.4-7.3
				c0.5,0.1,0.8,0.3,0.9,0.3c0.1,0,0.1,0,0.2,0c0.1,0,0.2,0,0.3-0.1c0.1-0.1,0.2-0.2,0.2-0.4c0-0.2,4.1-20.8,3-33.5
				c-0.1-1-0.2-3.4-0.3-4.4c2.2-0.4,4.7-1.4,7.3-2.8c0.3-0.1,0.4-0.5,0.2-0.7c-0.1-0.3-0.5-0.4-0.7-0.2c-8.2,4.5-14.5,3.9-18.1-1.9
				c-2.9-4.7-1.2-8.7,5.9-13.6c6-4.1,10-10.7,10.2-11c0.2-0.2,0.1-0.6-0.2-0.7c-0.2-0.1-0.4-0.1-0.5,0c-0.1,0.1-0.2,0.1-0.2,0.2
				c0,0-1.8,2.9-4.6,6c-0.1,0-0.1,0-0.2,0c-2.8,0.4-4.7,0-5.9-1.4c-1.6-1.9-1.5-5.3-1-8.1c0.2,0.9,0.5,1.9,1,2.7
				c0.9,1.3,2.2,2,3.9,2.3c2.1,0.3,4-0.6,5.5-1.9c2.9-2.5,4.6-6.7,5-7.8c1.6,0.4,3.9,0.5,7.2-0.2c4.3-0.9,6.4,0.4,8.3,1.6l0.4,0.2
				c0.3,0.2,1,0.6,1.8,0.6c0.3,0,0.5,0,0.8-0.1c0.9-0.4,1.6-1.4,2.1-3.1c0.7-2.3,0.2-5.3-1.2-8c-0.2-8.7-1.7-13.6-4.5-14.6
				c-2.2-0.7-4.6,1.2-6.1,3.2l-0.3,0.4c-0.7,0.9-1.7,2.3-2.8,3.5c0,0,0,0,0,0c-1.9,2.1-4.2,4-6.3,3.8c-1.4-0.1-2.7-1.3-3.8-3.5
				c-4-8.3,3.1-16.3,4.1-17.3c0.4-0.1,0.8-0.2,1.1-0.3c4.1-1.6,10.4-6.4,7-20.5c-0.1-0.2-0.2-0.4-0.5-0.4c-0.1,0-10-0.7-17.1,6.9
				c-1-0.3-4.1-1.2-8.1-0.8c-4,0.4-9.5,2.3-14.3,8.5c0.6-2.1,1.7-5.2,3.7-8.3c4.5-7.1,11.1-10.5,19.6-10
				c12.5,0.6,15.3-5.4,17.8-10.7c1.8-3.8,3.5-7.5,8.5-8.6c0.7-0.1,1.5-0.2,2.3-0.2c1.9,0,4.1,0.5,6.8,1.6c4.4,1.8,4.9,5.5,5.3,9.1
				c0.4,2.9,0.7,5.7,3.4,6.7c2.3,0.8,7.8,0.3,11-2.2c1.8-1.4,2.6-3.3,2.3-5.4c-0.3-2.4-1.2-4.1-2.8-4.9c-1.4-0.8-2.9-0.8-4.2-0.6
				c1.3-0.8,3-1.6,4.7-1.4c1.7,0.2,3.1,1.3,4.3,3.3c4,6.9-0.6,14.4-1.4,15.6c-6.5-1.3-12.6,0.2-12.7,0.3c-0.3,0.1-0.5,0.4-0.4,0.7
				c0.1,0.3,0.4,0.4,0.7,0.4c0.1,0,5.1-1.3,10.8-0.5c7.6,1.1,12.6,5.2,15,12.3c1.5,4.4,1.9,8.1,1.7,11.1c0,0.1,0,0.2,0,0.2
				c-0.7,8.6-6.3,12.1-6.7,12.3c-0.2,0.2-0.3,0.5-0.2,0.7c0.1,0.2,0.3,0.3,0.5,0.3c0.1,0,0.2,0,0.3-0.1c0.1-0.1,6.1-3.7,7.1-12.5
				c1.3,0.6,4.4,2.3,5.3,5.2c0.6,2,0.1,4.1-1.5,6.5c-2.9,4.2-3.4,8.8-1.5,12.6c1.6,3.2,4.7,5.3,8.2,5.5c0.2,0,0.3,0,0.5,0
				c0.3,0,0.6,0,0.9-0.1c0.9,0.3,7.2,2.5,9,7.9c1.3,4-0.1,8.8-4.1,14.3c-0.6-1.7-1.7-3.5-3.4-5c-4.8-4-13-4.1-24.5-0.4
				c-0.3,0.1-0.4,0.4-0.3,0.7c0.1,0.3,0.4,0.4,0.7,0.4c11.1-3.6,19-3.6,23.5,0.1c3.6,3,3.9,7.5,3.9,9.4c-1.9-1.2-7.2-4.3-16.4-6.1
				c-0.3-0.1-0.6,0.1-0.6,0.4c-0.1,0.3,0.1,0.6,0.4,0.6c11.1,2.3,16.6,6.3,16.8,6.5c3.3,2.9,5.1,6.2,5.3,9.9
				c0.6,9.6-8.6,20-14.8,26.9c-1.2,1.3-2.1,2.4-3,3.4c-8.8,10.6-8.4,15.8-6.5,18.3c2.9,3.8,10.6,3.2,14.8,1.3l0.4-0.2
				c5.2-2.3,13-5.9,21.9,1.9c8.7,7.6-8.3,27.6-9.3,28.8C1153.6,401.4,1152.8,401.9,1152.2,402.3z M1015.4,343.9
				c-0.1-0.1-0.2-0.1-0.3-0.1c-0.1,0-0.2,0-0.3,0.1c-0.2,0.1-0.3,0.4-0.2,0.6c0,0.1,1.6,6.6-1.8,9.3c-0.9,0.7-1.3,1.4-1.1,2
				c0.2,0.7,1,1,1.1,1c0.1,0,0.1,0,0.2,0c-0.1,0.5-0.1,1-0.2,1.5c-2.5-0.8-4-1.9-4.4-3.4c-0.7-2.3,1.5-4.8,1.5-4.8
				c0.2-0.2,0.2-0.6,0-0.8c-0.2-0.2-0.6-0.2-0.8,0c-0.1,0.1-1.4,1.6-1.8,3.5c-1.2-0.4-2-1.1-2.2-1.9c-0.5-1.8,1.3-4.1,1.3-4.1
				c0.2-0.2,0.1-0.6-0.1-0.7c-0.2-0.2-0.6-0.1-0.7,0.1c-0.1,0.1-0.9,1.1-1.3,2.4c-0.5-1.7,1.1-4.1,4.9-7.6c2-1.8,4.1-1.4,5.8-0.6
				c0,0,0,0,0,0c0.6,0.3,1.2,0.6,1.7,0.9c0.3,0.1,0.5,0.3,0.7,0.4c6.6,3.6,21.5,8.9,27.6,9.5c5.5,0.5,6,2.9,6,3
				c0,0.3,0.3,0.5,0.5,0.5c0,0,0,0,0.1,0c0.3,0,0.5-0.3,0.5-0.5c0,0,0,0,0-0.1c0-0.1-0.3-1.9-2.9-3c0.4-1.8,2-9.1,1.7-19.5
				c0-0.3-0.2-0.5-0.5-0.5c-0.3,0-0.5,0.2-0.5,0.5c0.2,10.1-1.2,17.2-1.7,19.1c-0.8-0.3-1.8-0.4-3-0.6c-5.5-0.5-18.8-5.2-25.7-8.6
				c0-0.1,0.1-0.2,0.1-0.3c0-0.1,0-9.5,2.3-14.2c0.1-0.3,0-0.6-0.2-0.7c-0.3-0.1-0.6,0-0.7,0.2c-2.2,4.5-2.4,12.9-2.4,14.4
				c-0.1-0.1-0.3-0.1-0.4-0.2c-0.2-0.1-0.5-0.3-0.7-0.4c-0.4-0.2-0.9-0.5-1.5-0.8c1.6-11.9,3.6-15.1,3.7-15.2
				c1.5-3.1,6.1-4.3,9.8-5.2c2.5-0.6,4.4-1.1,5.1-2.1c1.5-2,1.3-6.9,1.2-8.4c2.8-1.2,6-2.9,9.5-5.2l-0.4,3.1
				c-2.1,2.8-2.9,6.1-0.5,10c2.2,3.6,5.5,5.4,9.4,5.4c0.6,0,1.2-0.1,1.8-0.1c0.1,1.1,0.2,3.4,0.3,4.3c0.7,8.7-1,21.3-2.1,28.2
				c-0.4,2.1-0.6,3.7-0.8,4.5C1048.7,357.5,1024,349.5,1015.4,343.9z M1053.9,440.6l-2.4-2.8c-0.1-0.2-0.3-0.2-0.5-0.2
				c-0.2,0.1-0.4,0.2-0.4,0.4l-0.7,3.1c-6.1-15.2-8.5-41.7-8.7-43.8c0.5-1.5,0.8-3.5,0.5-6.1c0,0,0.1,0,0.1,0c0.2,0,0.4-0.1,0.5-0.3
				c0.1-0.1,1.6-3,1.2-5.9c-0.2-2-1.2-4.4-3.1-4.9c-1.2-0.3-2.5,0.2-3.8,1.6c0-0.4,0-0.8-0.2-1.2c-0.1-0.3-0.4-0.4-0.7-0.3
				c-0.3,0.1-0.4,0.4-0.3,0.7c0.2,0.6,0,1.6-0.3,2.4c-1.2-1-2.2-2.1-2.3-2.7c0-0.2,0-0.4,0.1-0.5c0.1-0.1,0.3-0.1,0.3-0.1
				c0.3,0,0.5-0.3,0.5-0.6c0-0.3-0.3-0.5-0.6-0.5c-0.1,0-0.6,0-1,0.5c-0.2,0.2-0.4,0.6-0.4,1.3c0,0.5,0.4,1,0.9,1.6
				c-0.6-0.1-1.3-0.1-1.8,0.2c-1.2,0.6-1.7,2-1.8,4.2c-0.1,7.2,3.1,8.4,3.3,8.4c0.1,0,0.3,0,0.4,0c0.4,0.8,0.9,1.8,1.6,2.7
				c-1.4,12.2,1.3,35.1,2.1,41.9l-1.9-2.4c-0.1-0.1-0.3-0.2-0.5-0.2c-0.2,0-0.3,0.1-0.4,0.3l-1.6,3.5c-13-45.9-13.2-87.4-13.2-93.8
				c9.7,4.9,26.6,10.6,32.3,12.4c-0.2,2.4-0.4,4.9-0.5,7.6h0c-0.1,3.3-0.2,6.9-0.2,10.5c0,3.6,0.1,7.2,0.2,10.9c0,0,0,0.1,0,0.1
				c0.1,3.3,0.2,6.7,0.4,10c0,0,0,0.1,0,0.1C1051.7,417.6,1053.3,435.2,1053.9,440.6z M1094.9,435.5c0.7,0.3,1.4,0.6,2.2,0.8
				c-34.4-9-44.5-35.9-45.2-37.7c-0.1-2.4-0.2-4.9-0.3-7.3C1064,418.3,1081.9,430.2,1094.9,435.5z M1040.1,397c0,0,0,0.1,0,0.1
				c-0.6,1.6-1.4,2.6-1.8,3c-4.5-2.6-5.5-7.8-5.5-7.9c0-0.2-0.2-0.4-0.5-0.4c0,0,0,0,0,0c-0.2,0-0.4,0.2-0.5,0.4
				c-0.1,0.4-0.1,0.7-0.1,1.1c-0.7-0.9-1.6-2.8-1.6-6.6c0-1.2,0.2-2.8,1.2-3.2c1.2-0.6,3.1,0.6,3.8,1.1c0.1,0.1,0.2,0.1,0.3,0.1
				c0,0,0,0,0,0c0,0,0,0,0.1,0c0,0,0,0,0,0s0,0,0,0c0,0,0,0,0.1,0c0,0,0.1,0,0.1-0.1c0,0,0,0,0.1-0.1c0,0,0,0,0.1-0.1
				c1.7-2.4,3.2-3.6,4.4-3.3c1.3,0.3,2,2.2,2.2,4c0.2,1.5-0.2,3.1-0.6,4.1c-0.4-0.8-0.9-1.3-0.9-1.4c-0.2-0.2-0.4-0.2-0.7-0.1
				c-0.2,0.1-0.3,0.4-0.3,0.6C1041,392.3,1040.8,395.1,1040.1,397z M1013,355.7c-0.1,0-0.3-0.1-0.3-0.2c0,0,0-0.2,0.4-0.6
				C1013.1,355.2,1013.1,355.4,1013,355.7C1013,355.7,1013,355.7,1013,355.7z M1017.8,355.1c0,0.2-1.8,24.4-3.8,28.3
				c-0.2,0.4-0.4,0.8-0.7,1.2c-1.7,2.8-3.9,4.7-5.1,4.8c-0.3,0-0.5-0.1-0.5-0.2c-0.5-0.6-0.4-1.3-0.3-1.8c0.3-1.5,1.5-3,3.2-3.9
				c0.3-0.1,0.4-0.5,0.2-0.7c-0.1-0.3-0.5-0.4-0.7-0.2c-1.2,0.6-2.1,1.5-2.8,2.5l-1.5-0.9c0.5-1,0.8-1.8,1-2.2
				c0.8-0.2,3-0.9,3.9-3.3c1-2.5,3.4-22.9,3.7-25c2-2.5,1.8-6.4,1.5-8.3c0.6,0.3,1.2,0.7,1.8,1
				C1017.7,347.4,1017.6,350.4,1017.8,355.1C1017.8,355.1,1017.8,355.1,1017.8,355.1z M1011.4,395c-0.7,0.8-2,1-2.9,1.1
				c0.1-0.1,0.2-0.2,0.2-0.3c0.9-1.3,1.2-2.4,1.2-3.4c0.5-0.2,1.3-0.5,1.8-0.3c0.1,0,0.2,0.1,0.3,0.5
				C1012.1,393.7,1012,394.5,1011.4,395z M1007.8,395.2c-0.7,0.9-1.4,1.5-2.2,1.6c-0.5,0.1-0.9,0-1.3-0.1c1.2-0.5,2.4-1.3,3.2-2.3
				c0.3-0.3,0.9-1.2,1.2-2.1c0,0,0,0,0,0C1009,393,1008.7,394,1007.8,395.2z M1002.4,396c-0.6,0-1.4-0.1-2-0.7c-1.3-1.4,0.5-4,0.6-4
				c0.2-0.2,0.5-0.5,0.7-0.7l0.8,0.5c-0.4,0.3-0.6,0.6-0.8,1c-0.1,0.3,0,0.6,0.2,0.7c0.3,0.1,0.6,0,0.7-0.2c0.5-1,2.7-2.5,4.6-2
				c0.6,0.1,0.7,0.4,0.7,0.5c0.2,0.6-0.4,1.8-1.1,2.7C1005.7,395,1003.9,395.9,1002.4,396z M996.1,392.1c-4.2-1-6.5,6.1-8.7,13
				c-1.7,5.4-3.6,11.1-6,11.8c-0.6,0.2-1.1,0.1-1.5-0.2c-2.7-2.1-2.2-13-2-18.8c0.1-1.3,0.1-2.4,0.1-3.3c0.1-5.7-3.4-9.4-6.2-12.4
				c-0.8-0.8-1.5-1.6-2.1-2.4c-1-1.3-2-4.6-1.8-6c0.4-4.2,6.8-12.5,11-13.1c0.2,0,0.5-0.1,0.7-0.1c0,0,0,0,0.1,0
				c7.3,0.1,22.9,14.8,24.1,16l0.9,2l1.3,2.9c-0.4,1.1-2.7,6.2-5.5,8.9c-0.1,0-0.1,0.1-0.1,0.1C998.9,391.7,997.5,392.4,996.1,392.1
				z M1008.8,335c0.3-2.3,2.9-3.7,2.9-3.7c1.8-0.7,2.9-1.7,3.6-2.6c0.5-0.6,0.8-1.2,0.9-1.7c0.1-0.3,0.2-0.7,0.2-1
				c0.4-2.3-0.7-4.9-2.9-6.8c-1.6-1.4-3.6-1.2-5.5-1.1c-3.1,0.2-6,0.5-8.3-4.9c-3.6-8.5,5.3-13.3,6-13.6c1.5-0.3,2.7-0.9,3.3-1.3
				c4.5,7.1,10.1,11.3,13,13.4c0.1,0.1,0.2,0.1,0.3,0.1c0.1,0,0.2,0,0.5,0c1.4,0,5.5-0.2,11.6-2.7c0.1,2.1,0,5.9-1.1,7.3
				c-0.5,0.7-2.4,1.2-4.5,1.7c-3.9,1-8.8,2.3-10.4,5.7c0,0.1-0.6,0.9-1.3,3.2c-0.7,2.3-1.7,6.1-2.5,12.1c-1.3-0.5-2.8-0.8-4.3-0.3
				C1009.2,337.6,1008.6,336.3,1008.8,335z M996.6,293.6c0.9,0.7,2.1,1.2,3.5,1.3c0.6,0.1,1.2,0.1,1.7,0.1c2.5,0,4.2-0.8,5.1-1.2
				c0.6,1.2,1.2,2.3,1.8,3.4c-0.9,0.5-3,1.5-5.1,1.4C998.8,298.4,997.2,295.5,996.6,293.6z M995,283.5c0.7,3,2.1,5.1,4.1,6.4
				c2.6,1.7,5.5,1.4,6.6,1.1c0.2,0.6,0.5,1.3,0.8,1.9c-0.8,0.4-3,1.4-6.2,1c-1.9-0.3-3.4-1.1-4.3-2.6
				C994.5,289.1,994.6,285.8,995,283.5z M1052.4,298c0.4,0.1,0.7,0.1,1.1,0.1c0.3,0,0.6,0,1-0.1c-1.2,1.3-2.6,2.5-4.2,3.5
				c-1.5,1.1-3.1,2.3-4.4,3.6l0.3-2.5C1048.2,301.3,1050.3,299.8,1052.4,298z M1071.2,266.1c0.8-1,1.5-1.9,2.1-2.7l0.3-0.4
				c1.2-1.7,3.3-3.4,4.9-2.8c1.2,0.4,3.3,2.5,3.7,11.7c-1.1-1.4-2.4-2.6-4-3.5C1075,266.7,1072.6,266.2,1071.2,266.1z M1070.5,229.1
				c0.1,0,0.2,0,0.3,0c3,13-2.8,17.4-6.5,18.9c-0.3,0.1-0.7,0.2-1.1,0.4c0,0,0,0-0.1,0c-3.3,0.8-9.6,0.9-11.8-1.8
				c-1.3-1.6-1.1-3.9,0.8-7.1C1057.8,229.7,1067.9,229.1,1070.5,229.1z M1004.9,263.6c0.7-3.7,1.6-7,2.7-9.9
				c4.3,2.6,7.8,3.1,10.1,3.1c1.5,0,2.5-0.3,2.5-0.3c0.1,0,0.3-0.1,0.3-0.3l3.9-8.3c0.1-0.2,0.1-0.3,0-0.5c-0.1-0.1-0.2-0.3-0.4-0.3
				l-12.6-1.9c5.8-9.8,13.1-13.5,15.1-14.4c-0.1,1.4,0,2.6,0.1,3.8c0.7,6,3.2,10.4,3.3,10.6c0,0,0,0,0,0c0,0.1,0.1,0.1,0.2,0.2
				c0,0,0,0,0,0c0,0,0.1,0.1,0.2,0.1c0,0,0,0,0.1,0v0c0,0,0,0,0,0c0,0,0,0,0,0c0.1,0,0.1,0,0.2-0.1c0,0,0,0,0.1,0
				c0.1,0,0.1-0.1,0.1-0.1l0,0c8.2-12.8,19.4-10.5,22.4-9.6c-0.8,0.9-1.5,2-2.2,3.1c-2.1,3.6-2.3,6.4-0.7,8.3c1.7,2,5.1,2.6,8.1,2.6
				c1.2,0,2.3-0.1,3.3-0.2c-2.2,2.8-7,10-3.3,17.5c1.2,2.5,2.8,3.9,4.6,4.1c0.6,0.1,1.2,0,1.7-0.2c1.9-0.5,3.8-2.1,5.3-3.9
				c0.7,0,3.3,0.1,7.5,2.2c1.3,0.7,2.4,1.6,3.3,2.6c0.5,0.6,1,1.3,1.4,2c0,0,0,0.1,0.1,0.1c1.3,2.4,1.7,5.2,1.1,7.3
				c-0.4,1.3-0.9,2.1-1.5,2.4c-0.5,0.2-1.2-0.1-1.7-0.4l-0.4-0.2c-1.7-1.1-3.9-2.4-7.6-1.9c-0.4,0.1-0.9,0.1-1.4,0.2
				c-1.4,0.3-2.6,0.4-3.7,0.5c-4.3,0.2-5.5-1.5-5.5-1.5c-0.1-0.3-0.5-0.3-0.7-0.2c-0.3,0.1-0.4,0.5-0.2,0.7c0,0.1,0.5,0.9,2.1,1.5
				c-0.6,1.6-4,9.6-9.3,8.9c-1.4-0.2-2.5-0.8-3.2-1.8c-1.7-2.5-0.7-6.5-0.7-6.6c0.1-0.3-0.1-0.6-0.4-0.6c-0.3-0.1-0.6,0.1-0.7,0.3
				c-0.1,0.4-3.4,9.4,0,13.6c0.6,0.7,1.4,1.3,2.4,1.6c-15.7,12.8-27,13-28.4,13C1016.8,306.3,999.4,293.2,1004.9,263.6z M1001.2,272
				c-0.9-0.4-1.8-0.5-2.5-0.6c-2.4-0.4-3.9-0.7-3.7-5.8c0.2-3,1.2-5.4,3.1-7c2.6-2.3,6.2-2.6,7.7-2.6c-0.7,2.3-1.3,4.8-1.8,7.5
				c-0.6,3.5-1,6.7-1,9.7C1002.4,272.7,1001.9,272.3,1001.2,272z M1030.7,217.4l0.9,1.1c-3.2,3.7-4.5,7.7-4.9,11.3
				c-0.7,0.3-4.1,1.6-8.1,5.2C1019.1,231.7,1021.3,222.7,1030.7,217.4z M1036,215.9c11.5-8.8,17.4-8.6,19.8-7.8
				c1.7,0.6,2.8,1.8,3.2,3.5c0.1,0.2,0.1,0.5,0.2,0.8c0.3,1.5,0.7,3.6,2.5,4.3c1.4,0.6,3.4,0,6.1-1.8c1.8-1.3,3.4-2.8,4.9-4.3
				c0.2-0.2,0.4-0.4,0.7-0.6c-0.6,1-1.1,2.1-1.5,3.1c-2.4,5.3-5,10.7-16.8,10.1c-18-0.9-23.5,15.2-24.7,20.3
				C1028.4,239.3,1023.4,225.5,1036,215.9z M1167.4,376.9c-0.2-2.2-1-4.2-2.8-5.8c-9.4-8.3-17.6-4.6-23-2.1l-0.4,0.2
				c-4,1.8-11,2.3-13.5-1c-1.7-2.2-1.9-6.9,6.5-16.9c0.8-1,1.8-2.1,2.9-3.4c6.2-7,15.7-17.6,15-27.7c-0.3-4-2.1-7.5-5.5-10.5
				c0.1-0.7,0.1-2.6-0.4-4.8c4.6-6.1,6.2-11.4,4.7-15.9c-1.5-4.5-5.6-6.9-8-7.9c2.6-0.8,5.8-2.7,8.8-7.5c0.2-0.2,0.1-0.6-0.2-0.7
				c-0.2-0.1-0.6-0.1-0.7,0.2c-3.5,5.6-7.3,7.1-9.9,7.3c0,0,0,0-0.1,0c-0.5,0.1-0.9,0.1-1.3,0c-3.1-0.2-5.9-2-7.3-4.9
				c-1.7-3.5-1.2-7.7,1.4-11.5c1.8-2.6,2.3-5.1,1.6-7.4c-1.1-3.6-5-5.5-6.2-6c0.2-3.1-0.2-6.9-1.7-11.3c-2.6-7.8-8-11.2-13.3-12.5
				c1.3-2,5.3-9.4,1.2-16.4c-1.3-2.3-3-3.6-5.1-3.8c-3.9-0.5-7.5,3.2-7.6,3.3c-0.2,0.2-0.2,0.5-0.1,0.7c0.2,0.2,0.4,0.3,0.7,0.2
				c0,0,3.5-1.6,5.9-0.2c1.2,0.7,2,2.1,2.2,4.1c0.2,1.8-0.4,3.3-1.9,4.4c-2.8,2.3-7.9,2.8-10,2.1c-2.1-0.7-2.4-3-2.7-5.8
				c-0.4-3.5-1-7.9-5.9-10c-9.9-4.1-14.2,0.1-18.8,4.6c-1.5,1.5-3,2.9-4.8,4.1c-2.3,1.6-4,2.1-5.1,1.7c-1.2-0.5-1.5-2.2-1.8-3.6
				c-0.1-0.3-0.1-0.6-0.2-0.9c-0.5-2-1.9-3.6-3.9-4.3c-3.3-1.1-9.6-0.7-20.8,7.9c-1.1,0.9-2.1,1.8-3,2.7l-1.1-1.4
				c-0.2-0.2-0.4-0.3-0.7-0.1c-12.1,6.5-13.1,18.9-13.1,19.8c-0.1,0.1-0.1,0.1-0.2,0.2c-3.6,3.5-8.1,9.4-11.2,18.7
				c-1.3,0-5.6,0.1-8.8,2.9c-2.1,1.8-3.3,4.4-3.4,7.8c-0.3,6.1,2,6.5,4.5,6.9c0.8,0.1,1.6,0.3,2.3,0.6c2,0.8,2,2.8,2,2.9
				c0,0.1,0,0.1,0,0.2c0.1,5.3,1.1,9.9,2.5,13.9c-1,0.2-3.5,0.4-5.7-1c-2.2-1.5-3.6-4.3-4.1-8.3l-0.3-2.5l-0.7,2.4
				c-0.1,0.3-2.1,7.1,0.5,11.3c0.1,0.1,0.2,0.2,0.2,0.3c0.1,1.1,0.9,7,8.3,7.5c0,0,0,0,0.1,0c-2.8,2.1-7.6,6.8-4.6,13.8
				c2.6,6.1,6.3,5.8,9.4,5.5c1.8-0.1,3.4-0.3,4.7,0.8c1.9,1.7,2.8,3.9,2.5,5.9c-0.3,1.9-1.8,3.5-4.2,4.5c-1.3,0.6-2.4,0.6-3.3,0.3
				c-1.1-0.5-1.4-1.5-1.4-1.5c-0.1-0.3-0.4-0.4-0.7-0.3c-0.3,0.1-0.4,0.4-0.3,0.7c0,0.1,0.5,1.5,2,2.2c0.5,0.2,1.1,0.3,1.6,0.3
				c0,0,0.1,0,0.1,0c-0.7,0.8-1.4,1.8-1.5,3c-0.2,1.5,0.4,3,1.7,4.5c-0.4,0.2-0.7,0.5-1.1,0.8c-3.5,3.1-7.1,7.1-4.5,10
				c0,0.4,0,0.7,0.1,1.1c0.4,1.3,1.4,2.2,3.1,2.7c0,0,0,0,0,0c0,0.4,0,0.8,0.2,1.2c0.5,1.9,2.3,3.3,5.3,4.2
				c-1,7.8-2.3,17.5-2.9,19.1c-0.7,1.7-2.3,2.4-3,2.6l-2.1-4.8c0-0.1-0.1-0.1-0.1-0.2c-0.7-0.7-18.3-17.5-25.9-16.3
				c-4.7,0.7-11.4,9.4-11.9,14.1c-0.2,1.9,1,5.4,2,6.8c0.6,0.8,1.4,1.6,2.2,2.4c2.7,2.8,6,6.4,5.9,11.7c0,0.9-0.1,2-0.1,3.2
				c-0.4,8.8-0.5,17.5,2.4,19.7c0.5,0.4,1,0.5,1.5,0.5c0.3,0,0.6-0.1,0.9-0.1c3-0.9,4.8-6.5,6.7-12.5c2.1-6.4,4.2-13.1,7.5-12.3
				c1.1,0.3,2.2,0,3.2-0.5c-0.3,1.1-0.4,2.4,0.5,3.4c0.6,0.7,1.5,1,2.6,1c0.1,0,0.1,0,0.2,0c0.1,0,0.3,0,0.4,0
				c0.4,0.3,1.3,0.9,2.5,0.9c0.1,0,0.3,0,0.4,0c0.6-0.1,1.1-0.3,1.6-0.7c0.1,0,0.3,0,0.6,0c0.8,0,2.2-0.1,3.3-0.7l1.2,0.8
				c0.5,0.3,1,0.5,1.5,0.5c1.4,0.2,2.9-0.4,3.7-1.7c1.1-1.7,0.6-4.1-1.2-5.1l-4.4-2.7c1.2-1.2,2.2-2.8,3-4.2
				c1.3-2.5,2.5-12.9,3.2-20.4c1,17.9,4,47.4,13.1,79c0.1,0.2,0.2,0.4,0.5,0.4c0,0,0,0,0,0c0.2,0,0.4-0.1,0.5-0.3l1.9-3.9l2.5,3.3
				c0.2,0.2,0.4,0.3,0.6,0.2c0.2-0.1,0.4-0.3,0.3-0.6c0-0.3-3.8-27.9-2.5-42.5c0.8,0.9,1.8,1.7,3,2.3c0.1,0,0.2,0.1,0.2,0.1
				c0.1,0,0.2,0,0.3-0.1c0.1-0.1,0.8-0.6,1.5-1.9c0.7,7,3.4,30.6,9.2,43.7c0.1,0.2,0.3,0.3,0.5,0.3c0,0,0,0,0.1,0
				c0.2,0,0.4-0.2,0.5-0.4l0.8-3.6l2.8,3.3c0.2,0.2,0.4,0.2,0.6,0.1c0.2-0.1,0.4-0.3,0.3-0.5c0-0.3-2-19.2-3-40.5
				c1.8,3.8,5.7,10.9,12.8,17.9c8.6,8.4,23.5,18.3,47.4,20.3c1.3,0.1,2.5,0.3,3.5,0.3l-2,2.7c-0.1,0.2-0.1,0.4,0,0.6
				c0.1,0.2,0.3,0.3,0.5,0.3c0,0,0.1,0,0.1,0l18.3-3.1c0.2,0,0.4-0.2,0.4-0.5c0-0.2-0.1-0.5-0.3-0.6l-18.3-8.4
				c-0.2-0.1-0.4,0-0.6,0.1c-0.2,0.1-0.2,0.4-0.1,0.6l2.7,7.1c-1.4-0.1-2.7-0.1-4-0.2c-4.6-0.6-10.5-1.8-17.1-4.4
				c-13.2-5.3-31.5-17.6-43.7-46c-0.2-6-0.2-11.9-0.1-17.4c1.7,4.7,6.2,11.9,18.2,11.3c2.5-0.1,4.9-0.8,7.2-1.5
				c5.6-1.6,10.9-3.1,17.4,3c4.2,3.9,5.6,8.6,3.8,12.5c-1.3,2.8-4.1,4.6-6.8,4.3c-0.3,0-0.6,0.2-0.6,0.5c0,0.3,0.2,0.6,0.5,0.6
				c0.2,0,0.5,0,0.7,0c2.9,0,5.8-1.9,7.2-4.9c0.2-0.5,0.4-1.1,0.6-1.6c0.7,1.6,2,3.8,4.2,5.3c2.6,1.8,5.9,2.3,9.8,1.5
				c6-1.2,8.6-4.4,11.1-7.5c2.6-3.2,5.1-6.3,11.5-6.4c8.4-0.2,12.2,3.2,13.8,6.1c2.3,4.1,1.5,9-0.3,11.8c-1.3,2.1-3.3,3.3-5.3,3.1
				c-0.3,0-0.5,0.2-0.6,0.5c0,0.3,0.2,0.5,0.5,0.6c0.1,0,0.3,0,0.4,0c2.2,0,4.4-1.3,5.8-3.6c0.5-0.8,0.9-1.8,1.2-2.8h0
				c0.7-0.4,16.1-9.8,17.7-19.4C1170,381.6,1169.3,379.1,1167.4,376.9z"/>
			<path id="Fill-54_1_" class="st11" d="M1044.9,263.7c1.5,0,2.5-0.1,2.6-0.1c0.2,0,0.4-0.1,0.4-0.3l3.4-8.1c0.1-0.1,0.1-0.3,0-0.4
				c-0.1-0.1-0.2-0.2-0.4-0.3l-15.8-3.9c-0.2-0.1-0.5,0.1-0.6,0.3l-3.9,8.3c-0.1,0.2-0.1,0.4,0.1,0.6
				C1034.3,263.2,1041.1,263.7,1044.9,263.7"/>
			<path id="Fill-55_1_" class="st10" d="M1016.3,326.9l0.9,0.1c-0.7,2.3-1.7,6.1-2.5,12.1c-1.3-0.5-2.8-0.8-4.3-0.3
				c-1.3-1.3-1.8-2.6-1.7-3.8c0.3-2.3,2.9-3.7,2.9-3.7c1.8-0.7,2.9-1.7,3.6-2.6C1015.8,328.1,1016.1,327.5,1016.3,326.9"/>
			<path id="Fill-56_1_" class="st7" d="M1021.6,232.6c2.6-1.9,4.6-2.7,5.2-2.9c0.4-3.6,1.7-7.6,4.9-11.3l-0.9-1.1
				C1030.7,217.4,1022.3,224,1021.6,232.6"/>
			<path id="Fill-57_1_" class="st10" d="M1006.9,293.9c0.6,1.2,1.2,2.3,1.8,3.4c-0.9,0.5-3,1.5-5.1,1.4c-4.8-0.3-6.4-3.2-7-5.1
				c0.9,0.7,2.1,1.2,3.5,1.3c0.6,0.1,1.2,0.1,1.7,0.1C1004.3,295.1,1006,294.3,1006.9,293.9"/>
			<path id="Fill-58_1_" class="st10" d="M1005.7,291.1c0.2,0.6,0.5,1.3,0.8,1.9c-0.8,0.4-3,1.4-6.2,1c-1.9-0.3-3.4-1.1-4.3-2.6
				c-1.5-2.3-1.3-5.6-1-7.8c0.7,3,2.1,5.1,4.1,6.4C1001.7,291.7,1004.6,291.3,1005.7,291.1"/>
			<path id="Fill-59_1_" class="st10" d="M1005.7,256c-0.7,2.3-1.3,4.8-1.8,7.5c-0.6,3.5-1,6.7-1,9.7c-0.4-0.5-0.9-0.9-1.7-1.2
				c-0.9-0.4-1.8-0.5-2.5-0.6c-2.4-0.4-3.9-0.7-3.7-5.8c0.2-3,1.2-5.4,3.1-7C1000.6,256.3,1004.2,256,1005.7,256"/>
			<path id="Fill-60_1_" class="st11" d="M1003,379.3c0.1,0.2,0,0.4-0.1,0.6c-0.1,0.1-0.2,0.2-0.4,0.2c-0.1,0-0.3,0-0.4-0.1
				c-0.2-0.1-15.5-14.6-21.6-13.5c-2.5,0.4-6.5,7.5-7.9,10.2c-0.1,0.3-0.4,0.4-0.7,0.2c-0.3-0.1-0.4-0.4-0.2-0.7
				c0.5-1,5.2-10.2,8.7-10.8c6.6-1.1,21.8,13.2,22.5,13.8C1002.9,379.2,1002.9,379.3,1003,379.3"/>
			<path id="Fill-61_1_" class="st11" d="M980.8,363.7c0.1,0.3,0,0.6-0.3,0.7c-0.1,0-0.1,0-0.2,0c-0.2,0-0.4-0.1-0.5-0.3L979,362
				c-0.1-0.3,0-0.6,0.3-0.7c0.1,0,0.1,0,0.2,0c0.2,0,0.4,0.1,0.5,0.3L980.8,363.7"/>
			<path id="Fill-62_1_" class="st11" d="M1042.3,336.5c-0.6-0.1-1.2,0.9-1.4,2.2c-0.2,1.3,0.2,2.4,0.8,2.5c0.6,0.1,1.2-0.9,1.4-2.2
				C1043.2,337.7,1042.9,336.5,1042.3,336.5"/>
			<path id="Fill-63_1_" class="st11" d="M1026,335.8c-0.5-0.1-1,0.7-1.1,1.8c-0.1,1.1,0.1,2,0.6,2c0.5,0.1,1-0.7,1.2-1.8
				C1026.8,336.8,1026.5,335.9,1026,335.8"/>
			<path id="Fill-64_1_" class="st11" d="M1060.6,246.1c-5.5,0-10.3-2-10.7-2.1c-0.3-0.1-0.4-0.4-0.3-0.7c0.1-0.3,0.4-0.4,0.7-0.3
				c0.1,0.1,12.8,5.2,20.3-1.3c0.2-0.2,0.6-0.2,0.8,0.1c0.2,0.2,0.2,0.6,0,0.8C1068.1,245.2,1064.2,246.1,1060.6,246.1"/>
			<path id="Fill-65_1_" class="st11" d="M1063.5,240.2c-5.9,0-10-2.4-10.2-2.6c-0.3-0.1-0.3-0.5-0.2-0.7c0.2-0.3,0.5-0.3,0.7-0.2
				c0.1,0,8.2,4.8,17.6,0.8c0.3-0.1,0.6,0,0.7,0.3c0.1,0.3,0,0.6-0.3,0.7C1068.9,239.8,1066,240.2,1063.5,240.2"/>
			<path id="Fill-66_1_" class="st11" d="M1068.1,234.6c-5.7,0-8.6-2.1-8.8-2.2c-0.2-0.2-0.3-0.5-0.1-0.7c0.2-0.2,0.5-0.3,0.7-0.1
				c0,0,3.9,2.8,11.5,1.7c0.3,0,0.6,0.2,0.6,0.5c0,0.3-0.2,0.6-0.5,0.6C1070.3,234.5,1069.1,234.6,1068.1,234.6"/>
			<path id="Fill-67_1_" class="st11" d="M1020.1,231.8c-0.4,0-0.7-0.1-0.9-0.2c-0.4-0.2-0.5-0.4-0.6-0.5c-0.1-0.3,0.1-0.6,0.3-0.7
				c0.2-0.1,0.5,0,0.6,0.2c0.2,0.1,1.4,0.5,7-2.1c0.3-0.1,0.6,0,0.7,0.3c0.1,0.3,0,0.6-0.3,0.7
				C1023.9,231.1,1021.5,231.8,1020.1,231.8"/>
			<path id="Fill-68_1_" class="st11" d="M1024.5,227.4c-2.4,0-3.3-1.4-3.4-1.5c-0.2-0.3-0.1-0.6,0.2-0.7c0.2-0.2,0.6-0.1,0.7,0.2
				c0.1,0.1,1.4,2,5.5,0.3c0.3-0.1,0.6,0,0.7,0.3c0.1,0.3,0,0.6-0.3,0.7C1026.5,227.2,1025.4,227.4,1024.5,227.4"/>
			<path id="Fill-69_1_" class="st11" d="M1028,223.6c-3.1,0-3.8-1.8-3.8-1.9c-0.1-0.3,0-0.6,0.3-0.7c0.3-0.1,0.6,0,0.7,0.3
				c0,0.1,0.6,1.3,3.3,1.1c0.3,0,0.5,0.2,0.6,0.5c0,0.3-0.2,0.6-0.5,0.6C1028.4,223.6,1028.2,223.6,1028,223.6"/>
			<path id="Fill-70_1_" class="st11" d="M1030.5,219.9c-2.4,0-2.9-0.8-2.9-1.1c-0.1-0.3,0.1-0.6,0.4-0.6c0.3-0.1,0.5,0.1,0.6,0.3
				c0.1,0.1,0.5,0.5,2.4,0.4c0,0,0,0,0,0c0.3,0,0.5,0.2,0.5,0.5c0,0.3-0.2,0.5-0.5,0.6C1030.8,219.9,1030.6,219.9,1030.5,219.9"/>
			<path id="Fill-71_1_" class="st9" d="M1072.7,210.7c-1.5,1.5-3.1,3-4.9,4.3c-0.8,0.5-1.5,1-2.2,1.3l0,0c0,0-1,1.6-17.9,3.8
				s-18.3,15.9-18.3,15.9c1.7-3.6,6.1-5.4,6.1-5.4c-4,3.3-4.9,8.6-5,11.9c1.7-6,7.6-20.1,24.4-19.2c11.8,0.6,14.3-4.8,16.8-10.1
				c0.5-1,1-2.1,1.5-3.1C1073.1,210.3,1072.9,210.5,1072.7,210.7"/>
			<path id="Fill-72_1_" class="st9" d="M1093,279.5c0,0,9.7,0.6,23.4-12.7C1116.4,266.8,1111.2,285.1,1093,279.5"/>
			<path id="Fill-73_1_" class="st9" d="M1099.6,284.9c0,0,7.1-0.2,15.3-7.5C1114.9,277.5,1111.4,287.9,1099.6,284.9"/>
			<path id="Fill-74_1_" class="st9" d="M1142.3,298.7c1.8,1.5,2.8,3.3,3.4,5c1.3-1.7,2.3-3.4,3-5c-16.3-12.9-30.9-0.3-30.9-0.3
				C1129.3,294.6,1137.6,294.7,1142.3,298.7"/>
			<path id="Fill-75" class="st9" d="M1071,315.5c0,0-0.5,15.4,15.7,22C1086.7,337.5,1069.9,348.4,1071,315.5"/>
			<path id="Fill-76" class="st9" d="M1080.9,328.7c0,0,4.1,10,17,12C1097.9,340.6,1081.6,348.7,1080.9,328.7"/>
			<path id="Fill-77" class="st9" d="M1092.5,336c0,0,3.6,4.2,9.6,4.8C1102.1,340.8,1094.2,344.7,1092.5,336"/>
			<path id="Fill-78" class="st9" d="M1129.8,320.7c0,0,11.5,7.7-0.8,20.1C1129,340.7,1135.5,330.9,1129.8,320.7"/>
			<path id="Fill-79_1_" class="st9" d="M1125,338.2c0,0-0.5,5.7-5.4,8.6C1119.6,346.9,1127.5,346.5,1125,338.2"/>
			<path id="Fill-80" class="st9" d="M1128.2,335.5c0,0,1.2,6.2-4.8,8.7C1123.4,344.1,1133.7,343.9,1128.2,335.5"/>
			<path id="Fill-81" class="st7" d="M1023,302.6c0,0,1.6-3.6,5.1,0C1028,302.6,1024.5,301.8,1023,302.6"/>
			<path id="Fill-82" class="st7" d="M1048.7,296.1c-1.1-1.4-1.5-3.3-1.5-5.3c0-0.5,0-1.1,0.1-1.7c0,0-4.9,7-0.4,11.7
				c1.4-1,2.8-2,4.2-3.2C1050.1,297.4,1049.3,296.8,1048.7,296.1"/>
			<path id="Fill-83" class="st9" d="M1023,311.8c-0.3,0-0.5,0-0.5,0c-0.1,0-0.2,0-0.3-0.1c-2.2-1.6-6.1-4.5-9.8-9.1h0
				c0,0-9.7,5-2.3,10.7c0,0-1.8-3-0.2-5.4c0,0,0,6.2,7,6.7c5.1,0.3,7,3.2,7.7,4.8c1.5-0.5,3-0.9,4.5-1.3c2.1-0.5,4-1,4.5-1.7
				c1-1.4,1.1-5.2,1.1-7.3C1028.5,311.5,1024.4,311.8,1023,311.8"/>
			<path id="Fill-84" class="st9" d="M979.2,391.2c0,0,1.2,6,0.7,8.8C980,400,982.4,396.3,979.2,391.2"/>
			<path id="Fill-85" class="st9" d="M984.6,394.5c0,0,0.3,0.7,0.4,1.9c0.1,1.2,0.1,2.7-0.1,4.3c-0.1,0.4-0.1,0.8-0.2,1.1
				c-0.1,0.4-0.2,0.7-0.3,1.1c-0.1,0.4-0.2,0.7-0.3,1c-0.1,0.3-0.2,0.6-0.4,0.9c-0.2,0.5-0.5,1-0.6,1.3c-0.2,0.3-0.3,0.5-0.3,0.5
				s0-0.2,0.1-0.5c0.1-0.3,0.1-0.8,0.3-1.4c0.2-1.1,0.5-2.6,0.7-4.1c0.1-0.7,0.2-1.5,0.3-2.2c0.1-0.7,0.2-1.4,0.2-1.9
				C984.5,395.3,984.6,394.5,984.6,394.5"/>
		</g>
		<g id="WeHo-Logo_1_">
			<g id="Logo---City-of-West-Hollywood_1_">
				<g id="Group-75_1_">
					<g id="Fill-37-Clipped_1_">
						<g>
							<polygon id="Fill-37-3_1_" class="st13" points="1037.3,418.3 1027.7,431.7 1041.2,441.3 1050.7,427.9 							"/>
						</g>
					</g>
					<g id="Fill-38-Clipped_1_">
						<g>
							<polygon id="Fill-38-3_1_" class="st13" points="1020.8,406.4 1011.2,419.7 1024.5,429.3 1034.1,416 							"/>
						</g>
					</g>
					<g id="Fill-39-Clipped_1_">
						<g>
							<polygon id="Fill-39-2_1_" class="st13" points="1009,422.7 999.3,436.2 1012.8,445.8 1022.4,432.4 							"/>
						</g>
					</g>
					<g id="Fill-40-Clipped_1_">
						<g>
							<polygon id="Fill-40-2_1_" class="st13" points="1025.2,434.4 1015.6,447.8 1029,457.4 1038.6,444 							"/>
						</g>
					</g>
					<g id="Fill-41-Clipped_1_">
						<g>
							<polygon id="Fill-41-3_1_" class="st13" points="1046,474.5 1036.4,487.9 1049.7,497.5 1059.4,484.1 							"/>
						</g>
					</g>
					<g id="Fill-42-Clipped_1_">
						<g>
							<polygon id="Fill-42-2_1_" class="st13" points="1029.6,462.7 1019.9,476.1 1033.4,485.7 1043,472.3 							"/>
						</g>
					</g>
					<g id="Fill-43-Clipped_1_">
						<g>
							<polygon id="Fill-43-2_1_" class="st13" points="1034.4,491 1024.8,504.5 1038.3,514.1 1047.8,500.6 							"/>
						</g>
					</g>
					<g id="Fill-44-Clipped_1_">
						<g>
							<polygon id="Fill-44-2_1_" class="st13" points="1013.4,450.9 1003.8,464.2 1017.1,473.8 1026.7,460.5 							"/>
						</g>
					</g>
					<g id="Fill-45-Clipped_1_">
						<g>
							<polygon id="Fill-45_2_" class="st13" points="997.2,439.2 987.6,452.7 1001,462.2 1010.6,448.8 							"/>
						</g>
					</g>
					<g id="Fill-46-Clipped_1_">
						<g>
							<polygon id="Fill-46-2_1_" class="st13" points="1010.5,523.7 1000.9,537.1 1014.2,546.6 1023.8,533.3 							"/>
						</g>
					</g>
					<g id="Fill-47-Clipped_1_">
						<g>
							<polygon id="Fill-47-2_1_" class="st13" points="998.8,540.3 989.2,553.6 1002.5,563.2 1012.2,549.9 							"/>
						</g>
					</g>
					<g id="Fill-48-Clipped_1_">
						<g>
							<polygon id="Fill-48-2_1_" class="st13" points="982.8,528.7 973.2,542.1 986.5,551.7 996.1,538.3 							"/>
						</g>
					</g>
					<g id="Fill-49-Clipped_1_">
						<g>
							<polygon id="Fill-49_2_" class="st13" points="971.1,544.9 961.5,558.4 974.9,567.9 984.5,554.5 							"/>
						</g>
					</g>
					<g id="Fill-50-Clipped_1_">
						<g>
							<polygon id="Fill-50_2_" class="st13" points="987,556.4 977.4,569.8 990.8,579.4 1000.4,566 							"/>
						</g>
					</g>
					<g id="Fill-51-Clipped_1_">
						<g>
							<polygon id="Fill-51-2_1_" class="st13" points="975.6,573.1 966,586.4 979.4,596.1 989,582.7 							"/>
						</g>
					</g>
					<g id="Fill-54-Clipped_1_">
						<g>
							<polygon id="Fill-54-2_1_" class="st13" points="1055.4,530.8 1045.8,544.2 1059.1,553.8 1068.7,540.5 							"/>
						</g>
					</g>
					<g id="Fill-55-Clipped_1_">
						<g>
							<polygon id="Fill-55-2_1_" class="st13" points="1015.4,552.2 1005.8,565.6 1019.3,575.2 1028.8,561.8 							"/>
						</g>
					</g>
					<g id="Fill-56-Clipped_1_">
						<g>
							<polygon id="Fill-56-2_1_" class="st13" points="1003.7,568.6 994.1,582 1007.4,591.6 1017,578.2 							"/>
						</g>
					</g>
					<g id="Fill-57-Clipped_1_">
						<g>
							<polygon id="Fill-57_2_" class="st13" points="1043.6,547.2 1034,560.6 1047.4,570.2 1057,556.8 							"/>
						</g>
					</g>
					<g id="Fill-61-Clipped_1_">
						<g>
							<polygon id="Fill-61_2_" class="st13" points="1004.2,394.5 994.6,407.9 1008,417.5 1017.6,404.1 							"/>
						</g>
					</g>
					<g id="Fill-62-Clipped_1_">
						<g>
							<polygon id="Fill-62_2_" class="st13" points="992.5,411 982.9,424.3 996.2,433.9 1005.8,420.6 							"/>
						</g>
					</g>
					<g id="Fill-63-Clipped_1_">
						<g>
							<polygon id="Fill-63-2_1_" class="st13" points="980.8,427.2 971.2,440.6 984.6,450.2 994.3,436.8 							"/>
						</g>
					</g>
					<g id="Fill-64-Clipped_1_">
						<g>
							<polygon id="Fill-64-2_1_" class="st13" points="985.5,455.5 975.9,468.8 989.3,478.4 998.9,465 							"/>
						</g>
					</g>
					<g id="Fill-65-Clipped_1_">
						<g>
							<polygon id="Fill-65-2_1_" class="st13" points="1050.9,502.7 1041.3,516.1 1054.8,525.7 1064.3,512.3 							"/>
						</g>
					</g>
					<g id="Fill-66-Clipped_1_">
						<g>
							<polygon id="Fill-66_2_" class="st13" points="1006.3,495.9 996.8,509.3 1010.1,518.9 1019.7,505.5 							"/>
						</g>
					</g>
					<g id="Fill-67-Clipped_1_">
						<g>
							<polygon id="Fill-67-2_1_" class="st13" points="1022.6,507.5 1012.9,520.9 1026.4,530.6 1035.9,517.1 							"/>
						</g>
					</g>
					<g id="Fill-68-Clipped_1_">
						<g>
							<polygon id="Fill-68_2_" class="st13" points="1039,519.3 1029.4,532.7 1042.8,542.3 1052.4,528.9 							"/>
						</g>
					</g>
					<g id="Fill-69-Clipped_1_">
						<g>
							<polygon id="Fill-69-2_1_" class="st13" points="1027.3,535.8 1017.7,549.2 1031,558.8 1040.6,545.4 							"/>
						</g>
					</g>
					<g id="Fill-70-Clipped_1_">
						<g>
							<polygon id="Fill-70-2_1_" class="st13" points="1081.2,425.3 1071.6,438.6 1085,448.2 1094.6,434.9 							"/>
						</g>
					</g>
					<g id="Fill-71-Clipped_1_">
						<g>
							<polygon id="Fill-71_2_" class="st13" points="1069.5,441.6 1059.9,454.9 1073.3,464.5 1082.9,451.1 							"/>
						</g>
					</g>
					<g id="Fill-72-Clipped_1_">
						<g>
							<polygon id="Fill-72_2_" class="st13" points="1053.2,429.7 1043.6,443.1 1056.9,452.7 1066.5,439.3 							"/>
						</g>
					</g>
					<g id="Fill-73-Clipped_1_">
						<g>
							<polygon id="Fill-73-2_1_" class="st13" points="1041.3,446.2 1031.7,459.5 1045.2,469.2 1054.8,455.7 							"/>
						</g>
					</g>
					<g id="Fill-74-Clipped_1_">
						<polygon id="Fill-74_2_" class="st13" points="1058,458.1 1048.4,471.5 1061.8,481.1 1071.4,467.7 						"/>
					</g>
				</g>
			</g>
		</g>
		<g id="WeHo-Logo_2_">
			<g id="Logo---City-of-West-Hollywood_2_">
				<g id="Group-75_2_">
					<g id="Fill-37-Clipped_2_">
						<g>
							<polygon id="Fill-37-3_2_" class="st1" points="40.5,97.3 56.1,103 61.7,87.4 46.2,81.9 							"/>
						</g>
					</g>
					<g id="Fill-38-Clipped_2_">
						<g>
							<polygon id="Fill-38-3_2_" class="st1" points="33.6,116.5 49,122.1 54.7,106.6 39.2,101 							"/>
						</g>
					</g>
					<g id="Fill-39-Clipped_2_">
						<g>
							<polygon id="Fill-39-2_2_" class="st1" points="52.5,123.4 68,129.1 73.7,113.5 58.1,107.9 							"/>
						</g>
					</g>
					<g id="Fill-40-Clipped_2_">
						<g>
							<polygon id="Fill-40-2_2_" class="st1" points="59.4,104.6 74.8,110.2 80.5,94.8 65,89.1 							"/>
						</g>
					</g>
					<g id="Fill-41-Clipped_2_">
						<g>
							<polygon id="Fill-41-3_2_" class="st1" points="92.4,73.8 107.8,79.4 113.4,64 98,58.3 							"/>
						</g>
					</g>
					<g id="Fill-42-Clipped_2_">
						<g>
							<polygon id="Fill-42-2_2_" class="st1" points="85.4,92.8 100.9,98.5 106.6,82.9 91,77.3 							"/>
						</g>
					</g>
					<g id="Fill-43-Clipped_2_">
						<g>
							<polygon id="Fill-43-2_2_" class="st1" points="111.4,80.5 126.9,86.1 132.6,70.6 117,65 							"/>
						</g>
					</g>
					<g id="Fill-44-Clipped_2_">
						<g>
							<polygon id="Fill-44-2_2_" class="st1" points="78.4,111.6 93.9,117.2 99.5,101.8 84.1,96.1 							"/>
						</g>
					</g>
					<g id="Fill-45-Clipped_2_">
						<g>
							<polygon id="Fill-45_3_" class="st1" points="71.5,130.3 87.1,135.9 92.6,120.5 77.2,114.9 							"/>
						</g>
					</g>
					<g id="Fill-46-Clipped_2_">
						<g>
							<polygon id="Fill-46-2_2_" class="st1" points="149.3,94.7 164.8,100.4 170.4,84.9 154.9,79.3 							"/>
						</g>
					</g>
					<g id="Fill-47-Clipped_2_">
						<g>
							<polygon id="Fill-47-2_2_" class="st1" points="168.4,101.5 183.9,107.1 189.5,91.7 174,86 							"/>
						</g>
					</g>
					<g id="Fill-48-Clipped_2_">
						<g>
							<polygon id="Fill-48-2_2_" class="st1" points="161.6,120 177.1,125.7 182.7,110.2 167.3,104.6 							"/>
						</g>
					</g>
					<g id="Fill-49-Clipped_2_">
						<g>
							<polygon id="Fill-49_3_" class="st1" points="180.4,126.9 195.9,132.5 201.5,117 186,111.5 							"/>
						</g>
					</g>
					<g id="Fill-50-Clipped_2_">
						<g>
							<polygon id="Fill-50_3_" class="st1" points="187.1,108.5 202.6,114.1 208.2,98.7 192.8,93 							"/>
						</g>
					</g>
					<g id="Fill-51-Clipped_2_">
						<g>
							<polygon id="Fill-51-2_2_" class="st1" points="206.3,114.9 221.7,120.6 227.4,105.1 211.9,99.5 							"/>
						</g>
					</g>
					<g id="Fill-54-Clipped_2_">
						<g>
							<polygon id="Fill-54-2_2_" class="st1" points="144.1,49.6 159.5,55.2 165.2,39.8 149.7,34.1 							"/>
						</g>
					</g>
					<g id="Fill-55-Clipped_2_">
						<g>
							<polygon id="Fill-55-2_2_" class="st1" points="175.4,82.3 190.9,87.9 196.6,72.4 181,66.8 							"/>
						</g>
					</g>
					<g id="Fill-56-Clipped_2_">
						<g>
							<polygon id="Fill-56-2_2_" class="st1" points="194.4,89.1 209.9,94.8 215.5,79.3 200.1,73.7 							"/>
						</g>
					</g>
					<g id="Fill-57-Clipped_2_">
						<g>
							<polygon id="Fill-57_3_" class="st1" points="163,56.4 178.5,62.1 184.1,46.6 168.7,41 							"/>
						</g>
					</g>
					<g id="Fill-61-Clipped_2_">
						<g>
							<polygon id="Fill-61_3_" class="st1" points="26.6,135.6 42.1,141.2 47.8,125.8 32.2,120.1 							"/>
						</g>
					</g>
					<g id="Fill-62-Clipped_2_">
						<g>
							<polygon id="Fill-62_3_" class="st1" points="45.6,142.5 61.1,148.1 66.7,132.7 51.3,127 							"/>
						</g>
					</g>
					<g id="Fill-63-Clipped_2_">
						<g>
							<polygon id="Fill-63-2_2_" class="st1" points="64.4,149.3 79.9,155 85.6,139.4 70,133.8 							"/>
						</g>
					</g>
					<g id="Fill-64-Clipped_2_">
						<g>
							<polygon id="Fill-64-2_2_" class="st1" points="90.4,137.2 105.8,142.8 111.5,127.4 95.9,121.7 							"/>
						</g>
					</g>
					<g id="Fill-65-Clipped_2_">
						<g>
							<polygon id="Fill-65-2_2_" class="st1" points="118.2,61.4 133.6,67.1 139.3,51.5 123.8,46 							"/>
						</g>
					</g>
					<g id="Fill-66-Clipped_2_">
						<g>
							<polygon id="Fill-66_3_" class="st1" points="123.7,106.3 139.1,111.8 144.8,96.4 129.3,90.7 							"/>
						</g>
					</g>
					<g id="Fill-67-Clipped_2_">
						<g>
							<polygon id="Fill-67-2_2_" class="st1" points="130.4,87.4 146,93.1 151.6,77.5 136.1,72 							"/>
						</g>
					</g>
					<g id="Fill-68-Clipped_2_">
						<g>
							<polygon id="Fill-68_3_" class="st1" points="137.4,68.4 152.9,74 158.5,58.6 143.1,53 							"/>
						</g>
					</g>
					<g id="Fill-69-Clipped_2_">
						<g>
							<polygon id="Fill-69-2_2_" class="st1" points="156.4,75.3 171.9,80.9 177.5,65.5 162.1,59.8 							"/>
						</g>
					</g>
					<g id="Fill-70-Clipped_2_">
						<g>
							<polygon id="Fill-70-2_2_" class="st1" points="35.4,53.2 50.9,58.8 56.5,43.4 41.1,37.7 							"/>
						</g>
					</g>
					<g id="Fill-71-Clipped_2_">
						<g>
							<polygon id="Fill-71_3_" class="st1" points="54.3,60 69.7,65.7 75.4,50.2 59.8,44.6 							"/>
						</g>
					</g>
					<g id="Fill-72-Clipped_2_">
						<g>
							<polygon id="Fill-72_3_" class="st1" points="47.3,79 62.8,84.6 68.4,69.2 53,63.5 							"/>
						</g>
					</g>
					<g id="Fill-73-Clipped_2_">
						<g>
							<polygon id="Fill-73-2_2_" class="st1" points="66.3,86 81.8,91.6 87.4,76 71.9,70.4 							"/>
						</g>
					</g>
					<g id="Fill-74-Clipped_2_">
						<polygon id="Fill-74_3_" class="st1" points="73.3,66.7 88.8,72.3 94.4,56.8 79,51.2 						"/>
					</g>
				</g>
			</g>
		</g>
		<g id="WeHo-Logo_3_">
			<g id="Logo---City-of-West-Hollywood_3_">
				<g id="Group-75_3_">
					<g id="Fill-37-Clipped_3_">
						<g>
							<polygon id="Fill-37-3_3_" class="st1" points="1259.5,141.7 1274.7,135.1 1268,119.9 1252.9,126.7 							"/>
						</g>
					</g>
					<g id="Fill-38-Clipped_3_">
						<g>
							<polygon id="Fill-38-3_3_" class="st1" points="1267.7,160.4 1282.8,153.8 1276.2,138.7 1261.1,145.3 							"/>
						</g>
					</g>
					<g id="Fill-39-Clipped_3_">
						<g>
							<polygon id="Fill-39-2_3_" class="st1" points="1286.2,152.3 1301.4,145.6 1294.7,130.5 1279.5,137.2 							"/>
						</g>
					</g>
					<g id="Fill-40-Clipped_3_">
						<g>
							<polygon id="Fill-40-2_3_" class="st1" points="1278.2,134 1293.2,127.3 1286.6,112.3 1271.5,118.9 							"/>
						</g>
					</g>
					<g id="Fill-41-Clipped_3_">
						<g>
							<polygon id="Fill-41-3_3_" class="st1" points="1280.7,88.9 1295.7,82.3 1289.1,67.2 1274,73.8 							"/>
						</g>
					</g>
					<g id="Fill-42-Clipped_3_">
						<g>
							<polygon id="Fill-42-2_3_" class="st1" points="1288.8,107.5 1303.9,100.8 1297.2,85.7 1282.1,92.3 							"/>
						</g>
					</g>
					<g id="Fill-43-Clipped_3_">
						<g>
							<polygon id="Fill-43-2_3_" class="st1" points="1299,80.5 1314.1,73.9 1307.5,58.7 1292.4,65.5 							"/>
						</g>
					</g>
					<g id="Fill-44-Clipped_3_">
						<g>
							<polygon id="Fill-44-2_3_" class="st1" points="1296.7,125.8 1311.8,119.2 1305.2,104.2 1290.1,110.8 							"/>
						</g>
					</g>
					<g id="Fill-45-Clipped_3_">
						<g>
							<polygon id="Fill-45_4_" class="st1" points="1304.7,144.1 1319.9,137.4 1313.2,122.4 1298.1,129.1 							"/>
						</g>
					</g>
					<g id="Fill-46-Clipped_3_">
						<g>
							<polygon id="Fill-46-2_3_" class="st1" points="1336.2,64.6 1351.3,57.9 1344.7,43 1329.6,49.6 							"/>
						</g>
					</g>
					<g id="Fill-47-Clipped_3_">
						<g>
							<polygon id="Fill-47-2_3_" class="st1" points="1354.7,56.3 1369.8,49.7 1363.2,34.6 1348.1,41.2 							"/>
						</g>
					</g>
					<g id="Fill-48-Clipped_3_">
						<g>
							<polygon id="Fill-48-2_3_" class="st1" points="1362.7,74.3 1377.7,67.7 1371.1,52.7 1356,59.3 							"/>
						</g>
					</g>
					<g id="Fill-49-Clipped_3_">
						<g>
							<polygon id="Fill-49_4_" class="st1" points="1380.9,66.3 1396.1,59.7 1389.3,44.6 1374.3,51.3 							"/>
						</g>
					</g>
					<g id="Fill-50-Clipped_3_">
						<g>
							<polygon id="Fill-50_4_" class="st1" points="1373.1,48.3 1388.1,41.7 1381.5,26.7 1366.5,33.3 							"/>
						</g>
					</g>
					<g id="Fill-51-Clipped_3_">
						<g>
							<polygon id="Fill-51-2_3_" class="st1" points="1391.4,39.8 1406.4,33.2 1399.8,18.1 1384.8,24.7 							"/>
						</g>
					</g>
					<g id="Fill-54-Clipped_3_">
						<g>
							<polygon id="Fill-54-2_3_" class="st1" points="1301.2,35.6 1316.3,29 1309.7,13.9 1294.6,20.6 							"/>
						</g>
					</g>
					<g id="Fill-55-Clipped_3_">
						<g>
							<polygon id="Fill-55-2_3_" class="st1" points="1346.4,37.6 1361.6,30.9 1354.9,15.7 1339.8,22.5 							"/>
						</g>
					</g>
					<g id="Fill-56-Clipped_3_">
						<g>
							<polygon id="Fill-56-2_3_" class="st1" points="1364.9,29.3 1380,22.7 1373.4,7.7 1358.3,14.3 							"/>
						</g>
					</g>
					<g id="Fill-57-Clipped_3_">
						<g>
							<polygon id="Fill-57_4_" class="st1" points="1319.7,27.5 1334.7,20.9 1328.1,5.8 1313,12.4 							"/>
						</g>
					</g>
					<g id="Fill-61-Clipped_3_">
						<g>
							<polygon id="Fill-61_4_" class="st1" points="1275.9,179 1291.1,172.3 1284.5,157.3 1269.3,164 							"/>
						</g>
					</g>
					<g id="Fill-62-Clipped_3_">
						<g>
							<polygon id="Fill-62_4_" class="st1" points="1294.4,170.8 1309.5,164.2 1302.9,149.1 1287.8,155.8 							"/>
						</g>
					</g>
					<g id="Fill-63-Clipped_3_">
						<g>
							<polygon id="Fill-63-2_3_" class="st1" points="1312.7,162.8 1327.9,156.1 1321.2,141 1306,147.7 							"/>
						</g>
					</g>
					<g id="Fill-64-Clipped_3_">
						<g>
							<polygon id="Fill-64-2_3_" class="st1" points="1323.1,136 1338.1,129.4 1331.5,114.4 1316.4,121 							"/>
						</g>
					</g>
					<g id="Fill-65-Clipped_3_">
						<g>
							<polygon id="Fill-65-2_3_" class="st1" points="1290.7,62.1 1305.8,55.5 1299.1,40.4 1284.1,47.1 							"/>
						</g>
					</g>
					<g id="Fill-66-Clipped_3_">
						<g>
							<polygon id="Fill-66_4_" class="st1" points="1325.7,90.7 1340.7,84 1334.1,69 1319,75.6 							"/>
						</g>
					</g>
					<g id="Fill-67-Clipped_3_">
						<g>
							<polygon id="Fill-67-2_3_" class="st1" points="1317.6,72.4 1332.7,65.7 1326,50.6 1311,57.4 							"/>
						</g>
					</g>
					<g id="Fill-68-Clipped_3_">
						<g>
							<polygon id="Fill-68_4_" class="st1" points="1309.5,53.8 1324.5,47.2 1317.9,32.2 1302.8,38.8 							"/>
						</g>
					</g>
					<g id="Fill-69-Clipped_3_">
						<g>
							<polygon id="Fill-69-2_3_" class="st1" points="1328,45.6 1343,39 1336.4,24 1321.3,30.6 							"/>
						</g>
					</g>
					<g id="Fill-70-Clipped_3_">
						<g>
							<polygon id="Fill-70-2_3_" class="st1" points="1225.3,113.4 1240.4,106.8 1233.7,91.7 1218.7,98.3 							"/>
						</g>
					</g>
					<g id="Fill-71-Clipped_3_">
						<g>
							<polygon id="Fill-71_4_" class="st1" points="1243.7,105.3 1258.7,98.7 1252.1,83.7 1237,90.3 							"/>
						</g>
					</g>
					<g id="Fill-72-Clipped_3_">
						<g>
							<polygon id="Fill-72_4_" class="st1" points="1251.7,123.8 1266.8,117.2 1260.2,102.2 1245.1,108.8 							"/>
						</g>
					</g>
					<g id="Fill-73-Clipped_3_">
						<g>
							<polygon id="Fill-73-2_3_" class="st1" points="1270.3,115.7 1285.4,109.1 1278.7,93.9 1263.5,100.6 							"/>
						</g>
					</g>
					<g id="Fill-74-Clipped_3_">
						<polygon id="Fill-74_4_" class="st1" points="1262,97 1277,90.3 1270.4,75.2 1255.3,81.8 						"/>
					</g>
				</g>
			</g>
		</g>
	</g>
</g>
</svg>
