<?xml version="1.0" encoding="utf-8"?>
<!-- Generator: Adobe Illustrator 22.1.0, SVG Export Plug-In . SVG Version: 6.00 Build 0)  -->
<svg version="1.1" id="Layer_1" xmlns="http://www.w3.org/2000/svg" xmlns:xlink="http://www.w3.org/1999/xlink" x="0px" y="0px"
	 viewBox="0 0 525 525" style="enable-background:new 0 0 525 525;" xml:space="preserve">
<style type="text/css">
	.st0{enable-background:new    ;}
	.st1{fill:#3D1717;}
	.st2{fill:#A5CD6F;}
	.st3{fill:#C06539;}
	.st4{fill:#F0F2C3;}
	.st5{fill:#F6DE5E;}
	.st6{fill:#CFAF31;}
	.st7{fill:#9B4B2C;}
	.st8{fill:#F2BEBA;}
	.st9{fill:#EB958E;}
	.st10{fill:#EE509A;}
	.st11{fill:#2ADFDF;}
	.st12{fill:#FFFFFF;}
	.st13{fill:none;}
	.st14{fill:#F8E71C;}
	.st15{font-family:'GoboldBoldItalic-Italic';}
	.st16{font-size:64px;}
	.st17{fill:#7E3BEB;}
	.st18{font-family:'Gobold-Italic';}
	.st19{font-size:85px;}
	.st20{fill:#2ADFDF;stroke:#000000;stroke-miterlimit:10;}
	.st21{font-family:'IM_FELL_Double_Pica_Roman';}
	.st22{letter-spacing:-2;}
	.st23{fill:#911677;}
	.st24{font-family:'IM_FELL_English_Italic';}
	.st25{font-size:48px;}
	.st26{font-size:21px;}
	.st27{font-size:24px;}
	.st28{fill:#960E65;stroke:#960E65;stroke-miterlimit:10;}
	.st29{font-family:'IM_FELL_Double_Pica_Italic';}
	.st30{font-size:14px;}
	.st31{font-size:32px;}
	.st32{fill:#7F1163;}
	.st33{font-family:'IM_FELL_French_Canon_Italic';}
</style>
<title>header-right</title>
<desc>Created with Sketch.</desc>
<g>
	<text transform="matrix(-5.237369e-02 -0.9986 0.9986 -5.237369e-02 901.4512 374.5262)" class="st11 st15 st27"> </text>
</g>
<g id="Group" transform="translate(301.335433, 309.479136) rotate(-55.000000) translate(-301.335433, -309.479136) translate(64.835433, 107.979136)">
	<g class="st0">
		<text transform="matrix(0.788 -0.6157 0.6157 0.788 564.1818 458.1114)" class="st11 st15 st27">October </text>
	</g>
	<g class="st0">
		<text transform="matrix(0.788 -0.6157 0.6157 0.788 633.8195 403.7051)" class="st11 st15" style="font-size:30px;">31</text>
	</g>
	<g>
		<text transform="matrix(0.788 -0.6157 0.6157 0.788 659.7453 383.4493)" class="st11 st15 st27"> </text>
	</g>
	<g class="st0">
		<text transform="matrix(0.788 -0.6157 0.6157 0.788 658.5909 384.3512)" class="st11 st15 st30">st</text>
	</g>
	<path id="Fill-4" class="st1" d="M882.3,664.4c-12.7,0-23-10.2-23-22.8l0-104.4c0-12.6,10.3-22.8,23-22.8s23,10.2,23,22.8l0,104.4
		C905.3,654.2,895,664.4,882.3,664.4"/>
	<path id="Fill-5" class="st2" d="M965.5,372.3c-4.2-4.2-4.5-10.8-0.9-15.4l-7.9,7.9c-4.5,4.5-11.9,4.5-16.4,0
		c-4.3-4.3-4.5-11.2-0.6-15.7c-4.5,3.9-11.4,3.7-15.7-0.6c-4.5-4.5-4.5-11.9,0-16.4l7.9-7.9c-4.5,3.6-11.2,3.3-15.3-0.9
		c-2.2-2.2-3.3-5-3.4-7.9c-3.9-0.6-7.8-0.9-11.8-0.9c-42.4,0-89,34.5-89,76.9l148.5,193.1l17.5-7.5l0-185.3c0-5.6-0.6-11-1.8-16.3
		C972.7,376.3,968.5,375.3,965.5,372.3"/>
	<path id="Fill-6" class="st1" d="M812.6,390.7l148.7,192.4l16.8-7.2l0-184.8c0-5.2-0.5-10.4-1.6-15.5c-4,0.8-8.2-0.4-11.1-3.3
		c-3.3-3.3-4.4-8.1-3-12.4l-5,4.9c-4.8,4.8-12.6,4.8-17.4,0c-3.8-3.7-4.6-9.4-2.3-14c-4.6,2.2-10.3,1.4-14.1-2.3
		c-2.3-2.3-3.6-5.4-3.6-8.6c0-3.3,1.3-6.3,3.6-8.6l5-4.9c-4.3,1.4-9.1,0.3-12.5-3c-2.1-2.1-3.3-4.8-3.5-7.7
		c-3.7-0.6-7.5-0.8-11.3-0.8C860.4,314.7,812.8,347.9,812.6,390.7z M961.1,584.4c-0.2,0-0.4-0.1-0.5-0.2L811.5,391.3
		c-0.1-0.1-0.1-0.2-0.1-0.4c0-43.6,48.4-77.5,90-77.5c4,0,8,0.3,12,0.9c0.3,0,0.5,0.3,0.5,0.6c0.1,2.8,1.2,5.5,3.2,7.4
		c3.9,3.9,10.2,4.3,14.6,0.9c0.3-0.2,0.6-0.2,0.9,0.1c0.2,0.2,0.2,0.6,0,0.9l-7.9,7.9c-2.1,2.1-3.2,4.8-3.2,7.8
		c0,2.9,1.1,5.7,3.2,7.8c4,4,10.6,4.3,14.9,0.6c0.2-0.2,0.6-0.2,0.9,0c0.2,0.2,0.2,0.6,0,0.8c-3.7,4.3-3.4,10.9,0.6,14.9
		c4.3,4.3,11.3,4.3,15.6,0l7.9-7.9c0.2-0.2,0.6-0.2,0.9,0c0.2,0.2,0.3,0.6,0.1,0.9c-3.4,4.4-3,10.6,0.9,14.5
		c2.7,2.7,6.8,3.8,10.5,2.8c0.2,0,0.3,0,0.5,0.1c0.1,0.1,0.2,0.2,0.3,0.4c1.2,5.4,1.8,10.9,1.8,16.4l0,185.2c0,0.3-0.1,0.5-0.4,0.6
		l-17.6,7.5C961.3,584.4,961.2,584.4,961.1,584.4z"/>
	<path id="Fill-7" class="st3" d="M966.2,372.1c-4.1-4.3-4.5-10.8-0.9-15.3l-7.9,7.8c-0.3,0.3-0.7,0.6-1.1,0.9
		c-4.6,3.5-11.2,3.2-15.4-0.9c-4.3-4.3-4.5-11.1-0.6-15.7c-0.1,0.1-0.2,0.1-0.3,0.2c-4.6,3.6-11.3,3.3-15.5-0.8
		c-4.2-4.2-4.5-10.8-0.9-15.3c0.3-0.4,0.6-0.7,0.9-1.1l7.9-7.8l0,0c-4.6,3.5-10.8,2.7-15.4-0.9c-3.4-2.7-3.4-7.8-3.4-7.8l-21.9,16.5
		c-4.5,4.5-4.5,11.8,0,16.3c4.2,4.2,10.9,4.5,15.4,0.9l-7.9,7.8c-4.5,4.5-4.5,11.8,0,16.3c4.3,4.3,11.2,4.5,15.8,0.6
		c-3.9,4.5-3.7,11.4,0.6,15.7c4.5,4.5,11.9,4.5,16.5,0l7.9-7.8c-3.6,4.5-3.3,11.1,0.9,15.3c4.5,4.5,12,4.5,16.5,0l19.9-22
		C977.3,375.1,970.7,376.7,966.2,372.1"/>
	<path id="Fill-8" class="st4" d="M936,394.7c-4.2-4.2-4.5-10.8-0.9-15.3l-7.9,7.9c-4.5,4.5-11.9,4.5-16.4,0
		c-4.3-4.3-4.5-11.2-0.6-15.7c-4.5,3.9-11.4,3.7-15.7-0.6c-4.5-4.5-4.5-11.9,0-16.4l7.9-7.9c-4.5,3.5-11.2,3.2-15.3-0.9
		c-4.5-4.5-4.5-11.9,0-16.4l10.2-7.7c-5.1-1.1-12.4-2.2-17.8-2.2c-42.3,0-77,34.6-77,77l0,185l154,0l0-185c0-1.8-0.1-3.7-0.2-5.5
		l-3.8,3.8C947.9,399.2,940.5,399.2,936,394.7z"/>
	<path id="Fill-9" class="st1" d="M898.7,323.4L898.7,323.4c-2.6-0.4-5.2-0.7-7.7-0.9c-0.4,0-0.6-0.3-0.6-0.6c0-0.3,0.4-0.5,0.7-0.5
		c2.6,0.2,5.2,0.5,7.7,0.9c0.4,0.1,0.6,0.3,0.5,0.6C899.3,323.2,899,323.4,898.7,323.4"/>
	<path id="Fill-10" class="st1" d="M902.3,414.7c-5.3,0-9.8,12.7-9.8,27.7c0,15,4.5,27.7,9.8,27.7s9.8-12.7,9.8-27.7
		C912.1,427.4,907.6,414.7,902.3,414.7z M902.3,471.4c-6.2,0-11-12.7-11-29c0-16.3,4.8-29,11-29s11,12.7,11,29
		C913.3,458.7,908.5,471.4,902.3,471.4z"/>
	<path id="Fill-11" class="st1" d="M864.3,414.7c-5.3,0-9.8,12.7-9.8,27.7s4.5,27.7,9.8,27.7s9.8-12.7,9.8-27.7
		C874.1,427.4,869.6,414.7,864.3,414.7z M864.3,471.4c-6.2,0-11-12.7-11-29c0-16.3,4.8-29,11-29c6.2,0,11,12.7,11,29
		C875.3,458.7,870.5,471.4,864.3,471.4z"/>
	<path id="Fill-12" class="st2" d="M900.5,470.4c-6.7,0-12.1-12.8-12.1-28.5c0-15.7,5.4-28.5,12.1-28.5h1.9l0,57H900.5"/>
	<path id="Fill-13" class="st2" d="M862.5,470.4c-6.7,0-12.1-12.8-12.1-28.5s5.4-28.5,12.1-28.5h1.9v57H862.5"/>
	<path id="Fill-14" class="st1" d="M890,427.4c-0.1,0-0.1,0-0.2,0c-0.4-0.1-0.6-0.4-0.5-0.7c0.2-0.7,0.4-1.3,0.7-1.9
		c0.1-0.3,0.5-0.5,0.9-0.4s0.6,0.4,0.4,0.7c-0.2,0.6-0.4,1.2-0.6,1.8C890.6,427.3,890.3,427.4,890,427.4"/>
	<path id="Fill-15" class="st1" d="M888.8,432.4C888.7,432.4,888.7,432.4,888.8,432.4c-0.3-0.1-0.5-0.3-0.4-0.6
		c0-0.3,0.1-0.6,0.1-0.9c0-0.3,0.3-0.5,0.5-0.4s0.4,0.3,0.3,0.6c0,0.3-0.1,0.6-0.1,0.9C889.2,432.2,889,432.4,888.8,432.4"/>
	<path id="Fill-16" class="st1" d="M889.7,455.4c-0.3,0-0.6-0.2-0.6-0.5c-0.3-1.2-0.5-2.5-0.7-3.8c0-0.3,0.2-0.6,0.5-0.7
		c0.3,0,0.7,0.2,0.7,0.5c0.2,1.3,0.4,2.6,0.7,3.8c0.1,0.3-0.1,0.6-0.5,0.7C889.8,455.4,889.7,455.4,889.7,455.4"/>
	<path id="Fill-17" class="st1" d="M902.7,471.4h-1.9c-4.3,0-8.1-4.4-10.5-12.2c-0.1-0.3,0.1-0.7,0.4-0.8c0.3-0.1,0.7,0.1,0.8,0.4
		c2.2,7.1,5.7,11.3,9.3,11.3h1.2l0-55.5h-1.2c-2.9,0-5.7,2.7-7.9,7.6c-0.1,0.3-0.5,0.5-0.8,0.3c-0.3-0.1-0.5-0.5-0.3-0.8
		c2.4-5.4,5.6-8.3,9.1-8.3h1.9c0.3,0,0.6,0.3,0.6,0.6l0,56.7C903.3,471.2,903.1,471.4,902.7,471.4"/>
	<path id="Fill-18" class="st1" d="M853,428.4c-0.1,0-0.1,0-0.2,0c-0.3-0.1-0.5-0.4-0.4-0.8c0.2-0.9,0.5-1.9,0.8-2.7
		c0.1-0.3,0.5-0.5,0.8-0.4c0.3,0.1,0.5,0.5,0.4,0.8c-0.3,0.9-0.5,1.8-0.8,2.7C853.5,428.2,853.2,428.4,853,428.4"/>
	<path id="Fill-19" class="st1" d="M851.8,431.4C851.7,431.4,851.7,431.4,851.8,431.4c-0.3-0.1-0.5-0.4-0.4-0.7l0.1-0.8
		c0-0.3,0.3-0.6,0.5-0.5s0.4,0.4,0.3,0.7l-0.1,0.7C852.2,431.2,852,431.4,851.8,431.4"/>
	<path id="Fill-20" class="st1" d="M850.8,451.4c-0.2,0-0.4-0.2-0.4-0.6l-0.1-0.7c0-0.4,0.1-0.7,0.4-0.7c0.2,0,0.5,0.2,0.5,0.6
		l0.1,0.7C851.3,451,851.1,451.4,850.8,451.4C850.9,451.4,850.9,451.4,850.8,451.4"/>
	<path id="Fill-21" class="st1" d="M852.7,457.4c-0.3,0-0.5-0.2-0.6-0.5c-0.3-1.2-0.6-2.5-0.8-3.8c-0.1-0.3,0.2-0.7,0.5-0.7
		c0.3-0.1,0.6,0.2,0.7,0.5c0.2,1.3,0.5,2.5,0.8,3.7c0.1,0.3-0.1,0.7-0.4,0.8C852.8,457.4,852.8,457.4,852.7,457.4"/>
	<path id="Fill-22" class="st1" d="M864.7,471.4h-1.9c-4.1,0-7.9-4-10.4-10.9c-0.1-0.3,0.1-0.7,0.4-0.8c0.3-0.1,0.7,0.1,0.8,0.4
		c2.3,6.4,5.7,10,9.2,10h1.3v-55.5h-1.3c-2.7,0-5.4,2.2-7.5,6.3c-0.2,0.3-0.5,0.4-0.9,0.3c-0.3-0.2-0.4-0.5-0.3-0.8
		c2.4-4.5,5.5-7,8.7-7h1.9c0.4,0,0.6,0.3,0.6,0.6v56.7C865.3,471.2,865.1,471.4,864.7,471.4"/>
	<path id="Fill-23" class="st1" d="M902.3,414.7c-5.3,0-9.8,12.7-9.8,27.7c0,15,4.5,27.7,9.8,27.7s9.8-12.7,9.8-27.7
		C912.1,427.4,907.6,414.7,902.3,414.7z M902.3,471.4c-6.2,0-11-12.7-11-29c0-16.3,4.8-29,11-29s11,12.7,11,29
		C913.3,458.7,908.5,471.4,902.3,471.4z"/>
	<path id="Fill-24" class="st1" d="M864.3,414.7c-5.3,0-9.8,12.7-9.8,27.7s4.5,27.7,9.8,27.7s9.8-12.7,9.8-27.7
		C874.1,427.4,869.6,414.7,864.3,414.7z M864.3,471.4c-6.2,0-11-12.7-11-29c0-16.3,4.8-29,11-29c6.2,0,11,12.7,11,29
		C875.3,458.7,870.5,471.4,864.3,471.4z"/>
	<path id="Fill-25" class="st1" d="M913.3,441.9c0,15.7-4.7,28.5-10.5,28.5s-10.5-12.8-10.5-28.5c0-15.7,4.7-28.5,10.5-28.5
		S913.3,426.2,913.3,441.9"/>
	<path id="Fill-26" class="st1" d="M875.3,441.9c0,15.7-4.7,28.5-10.5,28.5c-5.8,0-10.5-12.7-10.5-28.5c0-15.8,4.7-28.5,10.5-28.5
		C870.6,413.4,875.3,426.2,875.3,441.9"/>
	<path id="Fill-27" class="st1" d="M961.7,584.4l-154.7,0c-0.3,0-0.6-0.3-0.6-0.6l0-184.8c0-42.8,35-77.5,78-77.5
		c0.3,0,0.6,0.3,0.6,0.6c0,0.3-0.3,0.6-0.6,0.6c-42.3,0-76.7,34.2-76.7,76.3l0,184.2l153.5,0v-41.3c0-0.3,0.3-0.6,0.6-0.6
		s0.6,0.3,0.6,0.6v41.9C962.3,584.2,962.1,584.4,961.7,584.4"/>
	<path id="Fill-28" class="st1" d="M962.2,359.4l-5,5c-0.3,0.3-0.7,0.6-1.1,1l-15.2,15.1c-2.1,2.1-3.2,4.8-3.2,7.7s1.1,5.7,3.2,7.7
		c2.1,2.1,4.8,3.2,7.8,3.2s5.7-1.1,7.8-3.2l18.7-20.7c-2.4,0.2-6.7,0-10-3.4C961.8,368.4,960.8,363.6,962.2,359.4z M948.6,400.4
		c-3.1,0-6.3-1.2-8.7-3.6c-2.3-2.3-3.6-5.4-3.6-8.6c0-3.3,1.3-6.3,3.6-8.6l15.3-15.2c0.5-0.4,0.8-0.6,1.1-0.9l7.9-7.9
		c0.2-0.2,0.6-0.2,0.9,0c0.2,0.2,0.3,0.6,0.1,0.9c-3.3,4.3-3,10.5,0.9,14.5c4.2,4.3,10.5,2.9,10.5,2.8c0.3-0.1,0.5,0.1,0.7,0.3
		c0.1,0.2,0.1,0.5-0.1,0.7l-19.9,22C954.9,399.2,951.7,400.4,948.6,400.4z"/>
	<path id="Fill-29" class="st1" d="M937.1,352.5l-21.3,21.1c-4.3,4.2-4.3,11.1,0,15.4c4.3,4.2,11.2,4.2,15.5,0l21.3-21.1
		c-4.3,1.4-9.2,0.5-12.6-2.9C936.6,361.7,935.6,356.8,937.1,352.5z M923.6,393.4c-3.1,0-6.3-1.2-8.6-3.5c-4.8-4.7-4.8-12.4,0-17.1
		l24.5-24.2c0.2-0.2,0.6-0.2,0.8,0c0.2,0.2,0.2,0.6,0,0.8c-3.7,4.3-3.4,10.7,0.6,14.7c4.3,4.2,11.2,4.2,15.5,0l7.9-7.8
		c0.2-0.2,0.6-0.2,0.9,0c0.1,0.1,0.2,0.3,0.2,0.4c0,0.2-0.1,0.3-0.2,0.4l-33,32.6C929.8,392.3,926.7,393.4,923.6,393.4z"/>
	<path id="Fill-30" class="st1" d="M924,332.4c-0.2,0-0.3-0.1-0.4-0.2c-0.2-0.2-0.2-0.6,0-0.9l7.8-7.8c0.1-0.1,0.3-0.2,0.4-0.2
		c0.2,0,0.3,0.1,0.4,0.2c0.2,0.2,0.2,0.6,0,0.8l0,0l-7.8,7.8C924.3,332.4,924.1,332.4,924,332.4"/>
	<path id="Fill-31" class="st1" d="M920.8,336.3l-21.1,21.2c-2,2.1-3.2,4.8-3.2,7.7s1.1,5.7,3.2,7.7c2,2.1,4.8,3.2,7.7,3.2
		s5.6-1.1,7.7-3.2l21.1-21.2c-4.3,1.5-9.2,0.5-12.5-2.9c-2.3-2.3-3.5-5.4-3.5-8.6C920.2,338.9,920.4,337.6,920.8,336.3z
		 M907.4,377.4c-3.2,0-6.3-1.3-8.6-3.6s-3.5-5.4-3.5-8.6c0-3.2,1.3-6.3,3.5-8.6l24.8-25c0.2-0.2,0.6-0.2,0.9,0
		c0.1,0.1,0.2,0.3,0.2,0.4c0,0.2-0.1,0.3-0.2,0.4c-2,2.1-3.2,4.8-3.2,7.7s1.1,5.7,3.2,7.7c4,4,10.4,4.3,14.7,0.6
		c0.2-0.2,0.6-0.2,0.8,0c0.2,0.2,0.2,0.6,0,0.8l-0.2,0.3L916,373.9C913.7,376.2,910.7,377.4,907.4,377.4z"/>
	<path id="Fill-32" class="st1" d="M912.5,316.3l-20.8,16c-2,2-3.1,4.8-3.1,7.8s1.1,5.8,3.2,7.8c2.1,2.1,4.8,3.2,7.7,3.2
		s5.7-1.1,7.7-3.2l15.2-15.4c0.3-0.4,0.6-0.7,0.9-1.1l5-5.1c-4,1.2-8.6,0.2-12.4-2.9C913.4,321.4,912.7,318.1,912.5,316.3z
		 M899.5,352.4c-3.3,0-6.3-1.3-8.6-3.6c-2.3-2.3-3.6-5.4-3.6-8.7c0-3.3,1.3-6.4,3.6-8.7l21.7-16.8c0.2-0.1,0.4-0.2,0.7-0.1
		c0.2,0.1,0.3,0.3,0.3,0.6c0,0,0.1,5,3.1,7.4c4.7,3.8,10.5,4.1,14.5,0.9c0.3-0.2,0.6-0.2,0.9,0.1c0.2,0.3,0.2,0.6,0,0.9l-7.9,8
		c-0.3,0.3-0.6,0.6-0.9,1l-15.2,15.5C905.9,351.2,902.8,352.4,899.5,352.4z"/>
	<path id="Fill-33" class="st1" d="M884.3,497.4c9.7,0,19,2.1,25.7,5.7c5.3,2.9,8.3,6.5,8.3,9.8s-3,6.9-8.3,9.8
		c-6.6,3.6-16,5.7-25.7,5.7s-19-2.1-25.7-5.7c-5.3-2.9-8.3-6.5-8.3-9.8c0-3.3,3-6.9,8.3-9.8C865.3,499.5,874.6,497.4,884.3,497.4"/>
	<path id="Fill-34" class="st5" d="M889.8,509.4c-2.5,0-4.5-2.1-4.5-4.6V499c0-2.5,2-4.6,4.5-4.6s4.5,2.1,4.5,4.6v5.8
		C894.3,507.4,892.3,509.4,889.8,509.4"/>
	<path id="Fill-35" class="st5" d="M877.8,509.4c-2.5,0-4.5-2.1-4.5-4.6V499c0-2.5,2-4.6,4.5-4.6s4.5,2.1,4.5,4.6v5.8
		C882.3,507.4,880.3,509.4,877.8,509.4"/>
	<path id="Fill-36" class="st5" d="M865.8,509.4c-2.5,0-4.5-2.1-4.5-4.6V499c0-2.5,2-4.6,4.5-4.6s4.5,2.1,4.5,4.6v5.8
		C870.3,507.4,868.3,509.4,865.8,509.4"/>
	<path id="Fill-37" class="st5" d="M853.8,508.4c-2.5,0-4.5-2-4.5-4.6v-1.9c0-2.5,2-4.6,4.5-4.6s4.5,2,4.5,4.6v2
		C858.3,506.4,856.3,508.4,853.8,508.4"/>
	<path id="Fill-38" class="st5" d="M901.8,509.4c-2.5,0-4.5-2.1-4.5-4.6V499c0-2.5,2-4.6,4.5-4.6s4.5,2.1,4.5,4.6v5.8
		C906.3,507.4,904.3,509.4,901.8,509.4"/>
	<path id="Fill-39" class="st5" d="M913.8,508.4c-2.5,0-4.5-2-4.5-4.6v-1.9c0-2.5,2-4.6,4.5-4.6s4.5,2,4.5,4.6v2
		C918.3,506.4,916.3,508.4,913.8,508.4"/>
	<path id="Fill-40" class="st1" d="M960.8,448.4c-0.2,0-0.4-0.3-0.4-0.6V442c0-0.3,0.2-0.6,0.4-0.6s0.4,0.3,0.4,0.6v5.8
		C961.2,448.2,961,448.4,960.8,448.4"/>
	<path id="Fill-41" class="st1" d="M960.8,458.4c-0.2,0-0.4-0.3-0.4-0.6v-4.7c0-0.4,0.2-0.6,0.4-0.6s0.4,0.3,0.4,0.6v4.7
		C961.2,458.1,961,458.4,960.8,458.4"/>
	<path id="Fill-42" class="st1" d="M960.8,483.4c-0.2,0-0.4-0.3-0.4-0.6V466c0-0.3,0.2-0.6,0.4-0.6s0.4,0.3,0.4,0.6v16.8
		C961.2,483.2,961,483.4,960.8,483.4"/>
	<path id="Fill-43" class="st1" d="M960.8,498.4c-0.2,0-0.4-0.3-0.4-0.6l0-8.8c0-0.3,0.2-0.6,0.4-0.6s0.4,0.3,0.4,0.6v8.8
		C961.2,498.2,961,498.4,960.8,498.4"/>
	<path id="Fill-44" class="st1" d="M960.8,525.4c-0.2,0-0.4-0.3-0.4-0.6v-12.7c0-0.3,0.2-0.6,0.4-0.6s0.4,0.3,0.4,0.6v12.7
		C961.2,525.2,961,525.4,960.8,525.4"/>
	<path id="Fill-45" class="st5" d="M889.8,530.4c-2.5,0-4.5-2.1-4.5-4.6V520c0-2.5,2-4.6,4.5-4.6s4.5,2.1,4.5,4.6v5.8
		C894.3,528.4,892.3,530.4,889.8,530.4"/>
	<path id="Fill-46" class="st5" d="M877.8,530.4c-2.5,0-4.5-2.1-4.5-4.6V520c0-2.5,2-4.6,4.5-4.6s4.5,2.1,4.5,4.6v5.8
		C882.3,528.4,880.3,530.4,877.8,530.4"/>
	<path id="Fill-47" class="st5" d="M865.8,530.4c-2.5,0-4.5-2.1-4.5-4.6V520c0-2.5,2-4.6,4.5-4.6s4.5,2.1,4.5,4.6v5.8
		C870.3,528.4,868.3,530.4,865.8,530.4"/>
	<path id="Fill-48" class="st5" d="M853.8,527.4c-2.5,0-4.5-2-4.5-4.5v-3c0-2.4,2-4.5,4.5-4.5s4.5,2,4.5,4.5v3.1
		C858.3,525.4,856.3,527.4,853.8,527.4"/>
	<path id="Fill-49" class="st5" d="M901.8,530.4c-2.5,0-4.5-2.1-4.5-4.6V520c0-2.5,2-4.6,4.5-4.6s4.5,2.1,4.5,4.6v5.8
		C906.3,528.4,904.3,530.4,901.8,530.4"/>
	<path id="Fill-50" class="st5" d="M913.8,530.4c-2.5,0-4.5-2.1-4.5-4.6V520c0-2.5,2-4.6,4.5-4.6s4.5,2.1,4.5,4.6v5.8
		C918.3,528.4,916.3,530.4,913.8,530.4"/>
	<path id="Fill-51" class="st6" d="M889.7,494.4c-0.5,0-0.9,0.1-1.3,0.2c1.9,0.6,3.4,2.3,3.4,4.4v5.8c0,2.1-1.4,3.8-3.4,4.4
		c0.4,0.1,0.9,0.2,1.3,0.2c2.6,0,4.7-2.1,4.7-4.6V499C894.3,496.5,892.2,494.4,889.7,494.4"/>
	<path id="Fill-52" class="st6" d="M877.7,494.4c-0.5,0-0.9,0.1-1.3,0.2c1.9,0.6,3.4,2.3,3.4,4.4v5.8c0,2.1-1.4,3.8-3.4,4.4
		c0.4,0.1,0.9,0.2,1.3,0.2c2.6,0,4.7-2.1,4.7-4.6V499C882.3,496.5,880.2,494.4,877.7,494.4"/>
	<path id="Fill-53" class="st6" d="M865.7,494.4c-0.5,0-0.9,0.1-1.3,0.2c1.9,0.6,3.4,2.3,3.4,4.4l0,5.8c0,2.1-1.4,3.8-3.4,4.4
		c0.4,0.1,0.9,0.2,1.3,0.2c2.6,0,4.7-2.1,4.7-4.6V499C870.3,496.5,868.2,494.4,865.7,494.4"/>
	<path id="Fill-54" class="st6" d="M853.7,497.4c-0.5,0-0.9,0.1-1.3,0.2c1.9,0.6,3.4,2.3,3.4,4.3v2c0,2.1-1.4,3.8-3.4,4.3
		c0.4,0.1,0.9,0.2,1.3,0.2c2.6,0,4.7-2,4.7-4.6v-1.9C858.3,499.5,856.2,497.4,853.7,497.4"/>
	<path id="Fill-55" class="st6" d="M901.7,494.4c-0.5,0-0.9,0.1-1.3,0.2c1.9,0.6,3.4,2.3,3.4,4.4v5.8c0,2.1-1.4,3.8-3.4,4.4
		c0.4,0.1,0.9,0.2,1.3,0.2c2.6,0,4.7-2.1,4.7-4.6V499C906.3,496.5,904.2,494.4,901.7,494.4"/>
	<path id="Fill-56" class="st6" d="M913.7,497.4c-0.5,0-0.9,0.1-1.3,0.2c1.9,0.6,3.4,2.3,3.4,4.3v2c0,2.1-1.4,3.8-3.4,4.3
		c0.4,0.1,0.9,0.2,1.3,0.2c2.6,0,4.7-2,4.7-4.6v-1.9C918.3,499.5,916.2,497.4,913.7,497.4"/>
	<path id="Fill-57" class="st6" d="M889.7,515.4c-0.5,0-0.9,0.1-1.3,0.2c1.9,0.6,3.4,2.3,3.4,4.4v5.8c0,2.1-1.4,3.8-3.4,4.4
		c0.4,0.1,0.9,0.2,1.3,0.2c2.6,0,4.7-2.1,4.7-4.6V520C894.3,517.5,892.2,515.4,889.7,515.4"/>
	<path id="Fill-58" class="st6" d="M877.7,515.4c-0.5,0-0.9,0.1-1.3,0.2c1.9,0.6,3.4,2.3,3.4,4.4v5.8c0,2.1-1.4,3.8-3.4,4.4
		c0.4,0.1,0.9,0.2,1.3,0.2c2.6,0,4.7-2.1,4.7-4.6V520C882.3,517.5,880.2,515.4,877.7,515.4"/>
	<path id="Fill-59" class="st6" d="M865.7,515.4c-0.5,0-0.9,0.1-1.3,0.2c1.9,0.6,3.4,2.3,3.4,4.4v5.8c0,2.1-1.4,3.8-3.4,4.4
		c0.4,0.1,0.9,0.2,1.3,0.2c2.6,0,4.7-2.1,4.7-4.6V520C870.3,517.5,868.2,515.4,865.7,515.4"/>
	<path id="Fill-60" class="st6" d="M853.7,515.4c-0.5,0-0.9,0.1-1.3,0.2c1.9,0.5,3.4,2.2,3.4,4.3v3.1c0,2-1.4,3.7-3.4,4.3
		c0.4,0.1,0.9,0.2,1.3,0.2c2.6,0,4.7-2,4.7-4.5v-3.1C858.3,517.4,856.2,515.4,853.7,515.4"/>
	<path id="Fill-61" class="st6" d="M901.7,515.4c-0.5,0-0.9,0.1-1.3,0.2c1.9,0.6,3.4,2.3,3.4,4.4v5.8c0,2.1-1.4,3.8-3.4,4.4
		c0.4,0.1,0.9,0.2,1.3,0.2c2.6,0,4.7-2.1,4.7-4.6V520C906.3,517.5,904.2,515.4,901.7,515.4"/>
	<path id="Fill-62" class="st6" d="M913.7,515.4c-0.5,0-0.9,0.1-1.3,0.2c1.9,0.6,3.4,2.3,3.4,4.4v5.8c0,2.1-1.4,3.8-3.4,4.4
		c0.4,0.1,0.9,0.2,1.3,0.2c2.6,0,4.7-2.1,4.7-4.6V520C918.3,517.5,916.2,515.4,913.7,515.4"/>
	<path id="Fill-63" class="st1" d="M889.3,494.7c-2.1,0-3.8,1.7-3.8,3.9v5.7c0,2.1,1.7,3.9,3.8,3.9s3.8-1.7,3.8-3.9v-5.7
		C893.1,496.4,891.4,494.7,889.3,494.7z M889.3,509.4c-2.8,0-5-2.3-5-5.2v-5.7c0-2.8,2.2-5.2,5-5.2s5,2.3,5,5.2v5.7
		C894.3,507.1,892.1,509.4,889.3,509.4z"/>
	<path id="Fill-64" class="st1" d="M877.3,494.7c-2.1,0-3.8,1.7-3.8,3.9v5.7c0,2.1,1.7,3.9,3.8,3.9c2.1,0,3.8-1.7,3.8-3.9v-5.7
		C881.1,496.4,879.4,494.7,877.3,494.7z M877.3,509.4c-2.8,0-5-2.3-5-5.2v-5.7c0-2.8,2.2-5.2,5-5.2s5,2.3,5,5.2v5.7
		C882.3,507.1,880.1,509.4,877.3,509.4z"/>
	<path id="Fill-65" class="st1" d="M865.3,494.7c-2.1,0-3.8,1.7-3.8,3.9v5.7c0,2.1,1.7,3.9,3.8,3.9s3.8-1.7,3.8-3.9v-5.7
		C869.1,496.4,867.4,494.7,865.3,494.7z M865.3,509.4c-2.8,0-5-2.3-5-5.2v-5.7c0-2.8,2.2-5.2,5-5.2s5,2.3,5,5.2v5.7
		C870.3,507.1,868.1,509.4,865.3,509.4z"/>
	<path id="Fill-66" class="st1" d="M854.3,498.7c-2.1,0-3.8,1.7-3.8,3.8v1.8c0,2.1,1.7,3.8,3.8,3.8s3.8-1.7,3.8-3.8v-1.8
		C858.1,500.4,856.4,498.7,854.3,498.7z M854.3,509.4c-2.8,0-5-2.3-5-5.1v-1.8c0-2.8,2.2-5.1,5-5.1s5,2.3,5,5.1v1.8
		C859.3,507.2,857.1,509.4,854.3,509.4z"/>
	<path id="Fill-67" class="st1" d="M901.3,494.7c-2.1,0-3.8,1.7-3.8,3.9v5.7c0,2.1,1.7,3.9,3.8,3.9s3.8-1.7,3.8-3.9v-5.7
		C905.1,496.4,903.4,494.7,901.3,494.7z M901.3,509.4c-2.8,0-5-2.3-5-5.2v-5.7c0-2.8,2.2-5.2,5-5.2s5,2.3,5,5.2v5.7
		C906.3,507.1,904.1,509.4,901.3,509.4z"/>
	<path id="Fill-68" class="st1" d="M913.3,498.7c-2.1,0-3.8,1.7-3.8,3.8v1.8c0,2.1,1.7,3.8,3.8,3.8s3.8-1.7,3.8-3.8v-1.8
		C917.1,500.4,915.4,498.7,913.3,498.7z M913.3,509.4c-2.8,0-5-2.3-5-5.1v-1.8c0-2.8,2.2-5.1,5-5.1s5,2.3,5,5.1v1.8
		C918.3,507.2,916.1,509.4,913.3,509.4z"/>
	<path id="Fill-69" class="st1" d="M889.3,516.7c-2.1,0-3.8,1.7-3.8,3.9v5.7c0,2.1,1.7,3.9,3.8,3.9s3.8-1.7,3.8-3.9v-5.7
		C893.1,518.4,891.4,516.7,889.3,516.7z M889.3,531.4c-2.8,0-5-2.3-5-5.2v-5.7c0-2.8,2.2-5.2,5-5.2s5,2.3,5,5.2v5.7
		C894.3,529.1,892.1,531.4,889.3,531.4z"/>
	<path id="Fill-70" class="st1" d="M877.3,516.7c-2.1,0-3.8,1.7-3.8,3.9v5.7c0,2.1,1.7,3.9,3.8,3.9s3.8-1.7,3.8-3.9v-5.7
		C881.1,518.4,879.4,516.7,877.3,516.7z M877.3,531.4c-2.8,0-5-2.3-5-5.2v-5.7c0-2.8,2.2-5.2,5-5.2s5,2.3,5,5.2v5.7
		C882.3,529.1,880.1,531.4,877.3,531.4z"/>
	<path id="Fill-71" class="st1" d="M865.3,516.7c-2.1,0-3.8,1.7-3.8,3.9v5.7c0,2.1,1.7,3.9,3.8,3.9s3.8-1.7,3.8-3.9v-5.7
		C869.1,518.4,867.4,516.7,865.3,516.7z M865.3,531.4c-2.8,0-5-2.3-5-5.2v-5.7c0-2.8,2.2-5.2,5-5.2s5,2.3,5,5.2v5.7
		C870.3,529.1,868.1,531.4,865.3,531.4z"/>
	<path id="Fill-72" class="st1" d="M854.3,516.7c-2.1,0-3.8,1.7-3.8,3.8v3c0,2.1,1.7,3.8,3.8,3.8s3.8-1.7,3.8-3.8v-3
		C858.1,518.3,856.4,516.7,854.3,516.7z M854.3,528.4c-2.8,0-5-2.2-5-5v-3c0-2.7,2.2-5,5-5s5,2.2,5,5v3
		C859.3,526.2,857.1,528.4,854.3,528.4z"/>
	<path id="Fill-73" class="st1" d="M901.3,516.7c-2.1,0-3.8,1.7-3.8,3.9v5.7c0,2.1,1.7,3.9,3.8,3.9s3.8-1.7,3.8-3.9v-5.7
		C905.1,518.4,903.4,516.7,901.3,516.7z M901.3,531.4c-2.8,0-5-2.3-5-5.2v-5.7c0-2.8,2.2-5.2,5-5.2s5,2.3,5,5.2v5.7
		C906.3,529.1,904.1,531.4,901.3,531.4z"/>
	<path id="Fill-74" class="st1" d="M913.3,516.7c-2.1,0-3.8,1.7-3.8,3.9v5.7c0,2.1,1.7,3.9,3.8,3.9s3.8-1.7,3.8-3.9v-5.7
		C917.1,518.4,915.4,516.7,913.3,516.7z M913.3,531.4c-2.8,0-5-2.3-5-5.2v-5.7c0-2.8,2.2-5.2,5-5.2s5,2.3,5,5.2v5.7
		C918.3,529.1,916.1,531.4,913.3,531.4z"/>
	<path id="Fill-75" class="st3" d="M883.8,490.4c-23.5,0-42.5,10.5-42.5,23.5s19,23.5,42.5,23.5s42.5-10.5,42.5-23.5
		C926.3,501,907.3,490.4,883.8,490.4z M883.8,498.3c9.6,0,18.9,2.1,25.5,5.7c5.3,2.9,8.3,6.5,8.3,9.9c0,3.4-3,7-8.3,9.9
		c-6.6,3.6-15.9,5.7-25.5,5.7c-9.6,0-18.9-2.1-25.5-5.7c-5.3-2.9-8.3-6.5-8.3-9.9s3-7,8.3-9.9C864.9,500.4,874.2,498.3,883.8,498.3z
		"/>
	<path id="Fill-76" class="st7" d="M858.1,503.1c6.3-3.5,15.1-5.5,24.2-5.6c-0.4,0-0.8,0-1.3,0c-9.6,0-18.9,2.1-25.5,5.7
		c-5.3,2.9-8.3,6.5-8.3,9.8s3,6.9,8.3,9.8c6.6,3.6,15.9,5.7,25.5,5.7c0.4,0,0.8,0,1.3,0c-9.2-0.2-17.9-2.2-24.2-5.6
		c-5.3-2.9-8.3-6.5-8.3-9.8C849.8,509.8,852.9,506,858.1,503.1"/>
	<path id="Fill-77" class="st7" d="M883.6,490.4c-0.4,0-0.8,0-1.3,0c23,0.4,41.5,10.7,41.5,23.5c0,12.7-18.5,23.1-41.5,23.5
		c0.4,0,0.8,0,1.3,0c23.6,0,42.7-10.5,42.7-23.5C926.3,501,907.2,490.4,883.6,490.4"/>
	<path id="Fill-78" class="st1" d="M883.8,498.5c-9.6,0-18.9,2-25.4,5.6c-5.1,2.8-8,6.2-8,9.3c0,3.1,2.9,6.5,8,9.3
		c6.5,3.6,15.8,5.6,25.4,5.6c9.6,0,18.9-2,25.4-5.6c5.1-2.8,8-6.2,8-9.3c0-3.1-2.9-6.5-8-9.3C902.7,500.6,893.4,498.5,883.8,498.5z
		 M883.8,529.6c-9.8,0-19.3-2.1-26-5.8c-5.5-3-8.7-6.8-8.7-10.4c0-3.6,3.2-7.4,8.7-10.4c6.7-3.7,16.2-5.8,26-5.8s19.3,2.1,26,5.8
		c5.5,3,8.7,6.8,8.7,10.4c0,3.6-3.2,7.4-8.7,10.4C903.1,527.5,893.6,529.6,883.8,529.6z M883.8,490.7c-23.3,0-42.2,10.2-42.2,22.8
		c0,12.6,18.9,22.8,42.2,22.8c23.3,0,42.2-10.2,42.2-22.8C926,500.9,907.1,490.7,883.8,490.7z M883.8,537.4c-24,0-43.5-10.8-43.5-24
		s19.5-24,43.5-24s43.5,10.8,43.5,24C927.3,526.7,907.8,537.4,883.8,537.4z"/>
	<path id="Fill-79" class="st8" d="M921.3,528.5c0-4.5-3.3-8.2-7.6-8.9c-1.1,1.1-2.5,2.1-4.1,3.1h-1.1v-2.8c0-0.1,0-0.3,0-0.4h-3
		c0,0.1,0,0.3,0,0.4v2.8h-8.9v-2.8c0-0.1,0-0.3,0-0.4h-3c0,0.1,0,0.3,0,0.4v2.8h-8.9v-2.8c0-0.1,0-0.3,0-0.4h-3c0,0.1,0,0.3,0,0.4
		v2.8h-8.9v-2.8c0-0.1,0-0.3,0-0.4h-3c0,0.1,0,0.3,0,0.4v2.8h-8.9v-2.8c0-0.1,0-0.2,0-0.3c-1.1,0.2-2.1,0.5-3,1v2.1h-2.6
		c-1.3,1.6-2.1,3.6-2.1,5.8c0,0.2,0,0.4,0,0.5c0,0.2,0,0.4,0,0.5v49.6c0,5.6,4.6,10.1,10.1,10.1c2.4,0,4.7-0.9,6.4-2.3v16.4
		c0,5.6,4.6,10.1,10.1,10.1c5.5,0,10.1-4.6,10.1-10.1v-38.8c1.8,1.4,4,2.3,6.4,2.3c5.6,0,10.1-4.6,10.1-10.1v-3.4
		c1.4,0.7,2.9,1.1,4.5,1.1c5.6,0,10.1-4.6,10.1-10.1v-14.7c0-0.2,0-0.4,0-0.5C921.3,528.8,921.3,528.7,921.3,528.5"/>
	<path id="Fill-80" class="st9" d="M894.4,521.4h2.9v-1.6c0-0.1,0-0.2,0-0.4h-3c0,0.1,0,0.2,0,0.4L894.4,521.4"/>
	<path id="Fill-81" class="st9" d="M870.4,521.4h2.9v-1.6c0-0.1,0-0.2,0-0.4h-3c0,0.1,0,0.2,0,0.4L870.4,521.4"/>
	<path id="Fill-82" class="st9" d="M882.4,521.4h2.9v-1.6c0-0.1,0-0.2,0-0.4h-3c0,0.1,0,0.2,0,0.4L882.4,521.4"/>
	<path id="Fill-83" class="st9" d="M906.4,521.4h0.7c0.8-0.4,1.5-0.9,2.2-1.3v-0.3c0-0.1,0-0.2,0-0.4h-3c0,0.1,0,0.2,0,0.4
		L906.4,521.4"/>
	<path id="Fill-84" class="st9" d="M904,552.4v4c0,5.5-4.7,10-10.4,10c-0.4,0-0.8,0-1.2-0.1c1.4,0.7,2.9,1,4.6,1
		c5.7,0,10.4-4.5,10.4-10v-4C906.1,553.3,905,552.9,904,552.4"/>
	<path id="Fill-85" class="st9" d="M861.3,521.4v-1.7c0-0.1,0-0.2,0-0.3c-1.1,0.2-2.1,0.5-3,0.9v1.1H861.3"/>
	<path id="Fill-86" class="st9" d="M922.3,528.4c0-4.5-3.4-8.3-7.9-9c-0.1,0-0.1,0.1-0.2,0.1c2.8,1.6,4.6,4.5,4.6,7.9
		c0,0.2,0,0.4,0,0.5c0,0.2,0,0.4,0,0.5v14.7c0,5.6-4.7,10.2-10.4,10.2c-0.4,0-0.8,0-1.2-0.1c1.4,0.7,2.9,1.1,4.6,1.1
		c5.7,0,10.4-4.6,10.4-10.2v-14.6c0-0.2,0-0.4,0-0.5C922.3,528.8,922.3,528.6,922.3,528.4"/>
	<path id="Fill-87" class="st9" d="M888,562.4v40.8c0,5.6-4.7,10.2-10.4,10.2c-0.4,0-0.8,0-1.2-0.1c1.4,0.7,2.9,1.1,4.6,1.1
		c5.7,0,10.4-4.6,10.4-10.2v-39.9C890.1,563.9,889,563.2,888,562.4"/>
	<path id="Fill-88" class="st9" d="M871.3,584.4c-1.8,1.5-8.2,4-10.8,4c-0.4,0-0.8,0-1.2-0.1c1.4,0.7,3,1,4.6,1
		c1.1,0,6.3-1.9,7.4-2.2V584.4"/>
	<path id="Fill-89" class="st1" d="M870.5,587.5c0.1,0,0.2,0,0.3,0.1c0.2,0.1,0.4,0.3,0.4,0.6v16.5c0,5.3,4.2,9.6,9.5,9.6
		s9.5-4.3,9.5-9.6v-39.2c0-0.2,0.1-0.5,0.4-0.6c0.2-0.1,0.5-0.1,0.7,0.1c1.7,1.4,3.8,2.2,6,2.2c5.2,0,9.5-4.3,9.5-9.6v-3.5
		c0-0.2,0.1-0.4,0.3-0.5c0.2-0.1,0.4-0.1,0.6,0c1.3,0.7,2.7,1,4.2,1c5.2,0,9.5-4.3,9.5-9.6v-14.7c0-0.1,0-0.2,0-0.3v-0.2v-0.2
		c0-0.1,0-0.2,0-0.4c0-4-2.9-7.5-6.8-8.3c-1.1,1.1-2.5,2.1-4,3c-0.1,0.1-0.2,0.1-0.3,0.1h-1.1c-0.3,0-0.6-0.3-0.6-0.6v-2.6h-1.7v2.6
		c0,0.3-0.3,0.6-0.6,0.6h-8.9c-0.3,0-0.6-0.3-0.6-0.6v-2.6h-1.7v2.6c0,0.3-0.3,0.6-0.6,0.6l-8.9,0c-0.3,0-0.6-0.3-0.6-0.6v-2.6h-1.7
		v2.6c0,0.3-0.3,0.6-0.6,0.6h-8.9c-0.3,0-0.6-0.3-0.6-0.6v-2.6h-1.7v2.6c0,0.3-0.3,0.6-0.6,0.6H862c-0.3,0-0.6-0.3-0.6-0.6v-2.3
		c-0.6,0.1-1.1,0.4-1.7,0.6v1.7c0,0.3-0.3,0.6-0.6,0.6h-2.2c-1.2,1.5-1.8,3.3-1.8,5.2c0,0.1,0,0.2,0,0.3v0.2v0.2c0,0.1,0,0.2,0,0.3
		v50c0,5.3,4.2,9.6,9.5,9.6C866.8,589.8,868.9,589,870.5,587.5C870.2,587.5,870.3,587.5,870.5,587.5z M880.6,615.4
		c-5.9,0-10.7-4.9-10.7-10.8v-15.3c-1.7,1.1-3.7,1.7-5.8,1.7c-5.9,0-10.7-4.9-10.7-10.8v-50c0-0.1,0-0.3,0-0.4v-0.2v-0.1
		c0-0.1,0-0.3,0-0.4c0-2.3,0.8-4.5,2.3-6.3c0.1-0.1,0.3-0.2,0.5-0.2h1.9v-1.5c0-0.2,0.1-0.4,0.3-0.6c1-0.5,2-0.9,3.2-1.1
		c0.2,0,0.4,0,0.5,0.2c0.1,0.1,0.2,0.3,0.2,0.5v0.2v2.3h7.7v-2.2c0-0.1,0-0.1,0-0.2V520c0-0.2,0-0.4,0.2-0.5
		c0.1-0.1,0.3-0.2,0.5-0.2h3c0.2,0,0.3,0.1,0.5,0.2c0.1,0.1,0.2,0.3,0.2,0.5v0.2c0,0.1,0,0.1,0,0.2v2.2h7.7v-2.2c0-0.1,0-0.1,0-0.2
		V520c0-0.2,0-0.4,0.2-0.5c0.1-0.1,0.3-0.2,0.5-0.2h3c0.2,0,0.3,0.1,0.5,0.2c0.1,0.1,0.2,0.3,0.2,0.5v0.2c0,0.1,0,0.1,0,0.2v2.2h7.7
		v-2.2c0-0.1,0-0.1,0-0.2V520c0-0.2,0-0.4,0.2-0.5c0.1-0.1,0.3-0.2,0.5-0.2h3c0.2,0,0.4,0.1,0.5,0.2c0.1,0.1,0.2,0.3,0.2,0.5v0.2
		c0,0.1,0,0.1,0,0.2v2.2h7.7v-2.2c0-0.1,0-0.1,0-0.2V520c0-0.2,0-0.4,0.2-0.5c0.1-0.1,0.3-0.2,0.5-0.2h3c0.2,0,0.3,0.1,0.5,0.2
		c0.1,0.1,0.2,0.3,0.2,0.5v0.2c0,0.1,0,0.1,0,0.2v2.2h0.3c1.5-0.9,2.8-1.9,3.9-2.9c0.1-0.1,0.3-0.2,0.5-0.2c4.6,0.7,8.1,4.9,8.1,9.6
		c0,0.2,0,0.3,0,0.5v0.1v0.1c0,0.1,0,0.3,0,0.4v14.7c0,6-4.8,10.8-10.7,10.8c-1.3,0-2.6-0.2-3.8-0.7v2.5c0,6-4.8,10.8-10.7,10.8
		c-2,0-4.1-0.6-5.8-1.7v37.9C891.3,610.6,886.5,615.4,880.6,615.4z"/>
	<path id="Fill-90" class="st8" d="M958.3,362.8L958.3,362.8L958.3,362.8c-3.6-7.5-8.2-13.2-8.2-13.2c-2.2-10.3-8.8-9-8.8-9
		c-0.4-10.3-9.6-9.6-9.6-9.6c-2.6-5.4-9.7-7.3-9.7-7.3c-14-4.6-14.9,4.2-14.9,4.2l0.4,0.2l-8.2,6.3c0.6,1.2,1.3,2.4,2.3,3.4
		c1.2,1.2,2.6,2.1,4.1,2.6c0.4,4,1.9,7.7,1.9,7.7h0.2c-3.2,4.5-2.8,10.9,1.3,14.9c4.3,4.3,11.1,4.5,15.6,0.6
		c-3.9,4.6-3.7,11.4,0.6,15.7c3.6,3.7,9.1,4.4,13.5,2.1c0,0,2.3-1.6,2.8-2.1h5.4c0.2,2.7,1.3,5.4,3.3,7.5c1.1,1.1,2.3,1.9,3.6,2.5
		l8.1-9.1C962.9,374.6,960.9,368.3,958.3,362.8"/>
	<path id="Fill-91" class="st9" d="M923.6,331.4c0.4,0.7,0.8,1.4,1.1,2.1c1.2,2.5,2.6,4.9,4.2,7.2c0.3,0.4,0.6,0.8,1.1,0.7
		c0.2,0,0.3-0.2,0.5-0.3c0.7-0.6,1.3-1.3,1.6-2.1c0.2-0.6,0.2-1.3,0.2-2c0-1-0.1-2.1-0.2-3.1c-1.7-0.3-3-1.7-4.3-2.9
		c-0.7-0.7-1.4-1.4-2.2-2c-0.6-0.5-1.2-1-2-1.3c-0.7-0.3-1.5-0.3-2.3-0.2c-1.4,0.1-2.7,0.3-4,0.7
		C919.8,328.1,922.2,329.4,923.6,331.4"/>
	<path id="Fill-92" class="st9" d="M917.4,328.4L917.4,328.4L917.4,328.4L917.4,328.4"/>
	<path id="Fill-93" class="st9" d="M942.2,367.9l-1.3,2.9l-0.5,9.6h4.7c0,0,0.3-3.7,0.3-9.3C945.3,365.6,942.2,367.9,942.2,367.9"/>
	<path id="Fill-94" class="st9" d="M962.1,373.9l-2.3-9l-6-10.6l-3.4-4.9v6.4l-0.8,3l-2.2,1.9l2,2.2l0.4,3.2l0.1,0.2l-1.2,3.5
		l-0.9,3.8l0.3,0.7l1.3-0.3c0,0,3.3-2,3.4-4.1l0.1,2.2v0.5c0,0,1.8,13.4,9.4,7.2L962.1,373.9"/>
	<path id="Fill-95" class="st9" d="M947.3,343c-2.9-4-5.9-2.2-5.9-2.2l4.9,9.6C946.2,350.4,950.2,347.1,947.3,343"/>
	<path id="Fill-96" class="st9" d="M939.3,350.4c0,0-13.4-3.4-17.6-9.4c-4.2-6-4.4,0-4.4,0l1.7,3l4.9,3L939.3,350.4"/>
	<path id="Fill-97" class="st9" d="M941.4,352.4l-2.5,3.9l-5.6,3.7l-9,0.8c0,0,8.5,8.9,14.5,4.3
		C944.7,360.6,941.4,352.4,941.4,352.4"/>
	<path id="Fill-98" class="st1" d="M931,341.4c-0.1,0-0.2,0-0.3-0.1c-0.3-0.2-0.4-0.5-0.3-0.8c1.8-3.6,2.1-6.8,0.9-9.5
		c-2.4-5.1-9.4-7-9.5-7.1c-5.2-1.6-9.2-1.7-11.7-0.1c-2.3,1.4-2.5,3.7-2.5,3.7c0,0.3-0.4,0.6-0.7,0.5c-0.3,0-0.6-0.3-0.6-0.7
		c0-0.1,0.3-2.9,3.1-4.6c2.9-1.8,7.1-1.8,12.7,0c0.3,0.1,7.7,2.1,10.3,7.7c1.4,3.1,1.1,6.7-0.9,10.6
		C931.5,341.3,931.2,341.4,931,341.4"/>
	<path id="Fill-99" class="st1" d="M908,349.4c-0.2,0-0.5-0.1-0.6-0.4c-0.2-0.6-5.6-13.7,2-17.1l1.7-0.8c6.2-2.8,10.3-4.7,13.6,1
		c0.5,0.9,1,1.8,1.5,2.7c1.8,3.3,3.6,6.8,5.3,7c0.6,0.1,1.2-0.3,1.8-1.1c0.2-0.3,0.6-0.3,0.9-0.1c0.3,0.2,0.3,0.6,0.1,0.9
		c-0.9,1.1-1.9,1.6-2.9,1.5c-2.3-0.2-4.2-3.7-6.3-7.6c-0.5-0.9-1-1.8-1.5-2.7c-2.6-4.6-5.4-3.5-12-0.5l-1.7,0.8
		c-6.5,2.9-1.4,15.4-1.4,15.5c0.1,0.3,0,0.7-0.3,0.8C908.2,349.4,908.1,349.4,908,349.4"/>
	<path id="Fill-100" class="st1" d="M927.4,361.4c-2.8,0-4.8-0.6-5-0.6c-0.3-0.1-0.5-0.4-0.4-0.8c0.1-0.3,0.4-0.5,0.8-0.4
		c0.1,0,9.4,2.6,15-3.7c1.7-1.9,2.5-3.2,2.3-3.9c-0.3-1.1-3.4-1.6-7.3-2.3c-1.8-0.3-3.8-0.7-6-1.1c-4.7-1-7.8-2.8-9.4-5.5
		c-1.6-2.7-0.9-5.2-0.8-5.3c0.1-0.3,0.4-0.5,0.8-0.4c0.3,0.1,0.5,0.5,0.4,0.8c0,0.1-0.6,2.1,0.7,4.3c1.4,2.3,4.3,4,8.6,4.9
		c2.2,0.5,4.2,0.8,6,1.1c5,0.9,7.7,1.3,8.3,3.1c0.4,1.2-0.3,2.7-2.5,5.2C935.3,360.6,930.8,361.4,927.4,361.4"/>
	<path id="Fill-101" class="st1" d="M948.3,374.4c-0.2,0-0.5-0.1-0.7-0.2c-0.9-0.6-0.7-2.2,0.6-5.4c1-2.6,1.2-4.7,0.5-6.1
		c-0.7-1.3-1.9-1.6-1.9-1.6c-0.3-0.1-0.5-0.3-0.5-0.6c0-0.3,0.2-0.5,0.5-0.6c0,0,1.3-0.2,2.2-1.7c1.2-1.8,1.4-4.8,0.6-8.6
		c-2-9.5-7.9-8.4-8-8.4c-0.2,0-0.4,0-0.5-0.1s-0.2-0.3-0.2-0.5c-0.1-3-1-5.3-2.7-6.9c-2.6-2.3-6.1-2.1-6.2-2.1
		c-0.3,0-0.6-0.2-0.7-0.6c-0.1-0.4,0.2-0.6,0.6-0.7c0.2,0,4.1-0.3,7.1,2.4c1.8,1.6,2.9,4,3.1,7.1c0,0,0,0,0.1,0
		c1.9,0,6.8,0.9,8.7,9.4c0.9,4.3,0.6,7.5-0.8,9.6c-0.5,0.8-1.1,1.3-1.6,1.6c0.5,0.3,1,0.8,1.4,1.5c0.9,1.8,0.8,4.2-0.4,7.2
		c-1.3,3.3-1,3.9-1,4c0.1,0,0.8-0.4,1.2-0.8c0.3-0.2,0.7-0.2,0.9,0.1c0.2,0.3,0.2,0.7-0.1,0.9C950,373.7,949.1,374.4,948.3,374.4"/>
	<path id="Fill-102" class="st1" d="M945.7,352.4c-0.3,0-0.5-0.2-0.6-0.4c0-0.1-4.7-13.6-9.5-17.4c-0.3-0.2-0.3-0.6-0.1-0.9
		s0.6-0.3,0.9-0.1c5.1,4.1,9.8,17.5,10,18c0.1,0.3-0.1,0.7-0.4,0.8C945.9,352.4,945.8,352.4,945.7,352.4"/>
	<path id="Fill-103" class="st1" d="M941,380.4c-0.4,0-0.6-0.3-0.6-0.6c0-0.3,0.3-0.6,0.6-0.6h7.3c0.1,0,2.7-0.4,3.7-5.8
		c1-5.4-2.7-6.8-2.8-6.8c-0.3-0.1-0.5-0.5-0.4-0.8c0.1-0.3,0.5-0.5,0.8-0.4c0,0,4.8,1.7,3.6,8.2c-1.2,6.4-4.7,6.8-4.9,6.8H941"/>
	<path id="Fill-104" class="st1" d="M939,383.4c-0.3,0-0.6-0.2-0.6-0.6c0-0.3,0.2-0.7,0.5-0.7c0,0,2.1-0.6,1.9-7.4
		c-0.3-8.2,3.7-9.2,3.8-9.3c0.3-0.1,0.7,0.1,0.7,0.5c0.1,0.3-0.1,0.7-0.4,0.8c-0.1,0-3.1,1-2.9,8C942.3,382.8,939.4,383.4,939,383.4
		L939,383.4"/>
	<path id="Fill-105" class="st1" d="M962.6,381.4C962.5,381.4,962.5,381.4,962.6,381.4c-0.4,0-0.7-0.4-0.6-0.7
		c1.6-13.3-12.3-30.1-12.4-30.3c-0.2-0.3-0.2-0.7,0.1-0.9c0.3-0.2,0.7-0.2,0.9,0.1c0.6,0.7,14.4,17.3,12.7,31.2
		C963.2,381.2,962.9,381.4,962.6,381.4"/>
	<path id="Fill-106" class="st1" d="M959.2,382.4c-0.2,0-0.4-0.1-0.5-0.3c-1.7-2.3-2.4-4.6-2-6.8c0.4-2.1,1.6-3.6,2.6-4.5
		c-3.5-1-3.8-3.9-4.1-6.5c-0.1-0.9-0.2-1.8-0.4-2.6c-0.8-3.3-4.9-4.1-5-4.1c-0.3-0.1-0.6-0.4-0.5-0.7c0.1-0.3,0.4-0.6,0.7-0.5
		c0.2,0,4.9,1,5.9,5c0.2,0.9,0.3,1.9,0.4,2.8c0.3,2.9,0.6,5.1,4.3,5.7c0.3,0,0.5,0.2,0.5,0.5c0.1,0.3-0.1,0.5-0.3,0.7
		c0,0-2.6,1.7-3.1,4.5c-0.3,1.9,0.3,3.8,1.7,5.8c0.2,0.3,0.1,0.7-0.1,0.9C959.5,382.4,959.3,382.4,959.2,382.4"/>
	<path id="Fill-107" class="st1" d="M941.8,378.3h5.5c0.3,0,0.6,0.3,0.6,0.6c0.2,2.7,1.3,5.2,3.2,7c0.9,0.9,1.9,1.6,3.1,2.1l7.8-8.6
		c0.5-4.8-0.8-10.4-4-16.9l0,0c-3.6-7.3-8.2-13-8.3-13c-0.1-0.1-0.1-0.2-0.1-0.3c-2-9.5-8.1-8.5-8.1-8.4c-0.2,0-0.4,0-0.5-0.1
		c-0.1-0.1-0.2-0.3-0.2-0.5c-0.1-3-1-5.4-2.8-6.9c-2.6-2.3-6.2-2.1-6.3-2.1c-0.3,0-0.5-0.1-0.6-0.3c-2.5-5.1-9.3-6.9-9.4-7
		c-5.2-1.7-9.2-1.7-11.7-0.1c-1.7,1.1-2.3,2.7-2.5,3.4l0,0c0.2,0.1,0.3,0.3,0.3,0.5c0,0.2-0.1,0.4-0.2,0.5l-7.8,5.9
		c0.5,1,1.2,2,2,2.8c1.1,1.1,2.4,1.9,3.9,2.5c0.2,0.1,0.4,0.3,0.4,0.5c0.3,3.1,1.4,6.1,1.8,7.2c0.1,0,0.2,0.1,0.2,0.2
		c0.2,0.2,0.2,0.5,0,0.7c-3.1,4.4-2.6,10.3,1.2,14.1c4,4,10.6,4.3,15,0.6c0.2-0.2,0.6-0.2,0.9,0c0.2,0.2,0.2,0.6,0,0.8
		c-3.7,4.3-3.4,10.8,0.6,14.8c3.4,3.4,8.6,4.2,12.9,2c0.8-0.6,2.4-1.6,2.7-2C941.5,378.4,941.7,378.3,941.8,378.3z M954.4,389.4
		c-0.1,0-0.2,0-0.2-0.1c-1.5-0.6-2.8-1.5-3.9-2.6c-2-2-3.2-4.5-3.5-7.3h-4.7c-0.7,0.6-2.5,1.8-2.7,2c-4.9,2.5-10.6,1.6-14.5-2.2
		c-3.8-3.7-4.6-9.4-2.3-14c-4.6,2.2-10.4,1.4-14.1-2.3c-4.1-4.1-4.8-10.4-1.6-15.2c-0.3-0.8-1.5-3.9-1.9-7.3c-1.5-0.6-2.9-1.5-4-2.6
		c-1-1-1.9-2.2-2.5-3.6c-0.1-0.3,0-0.6,0.2-0.8l7.6-5.7c0-0.1-0.1-0.2,0-0.3c0-0.1,0.3-2.9,3.1-4.7c2.9-1.8,7.2-1.8,12.8,0
		c0.3,0.1,7.1,2,10,7.2l0,0c1.9,0,9.3,0.6,9.9,9.5c1.8,0,7,0.8,8.8,9.3c0.7,0.9,4.9,6.2,8.3,13c0.1,0.1,0.1,0.2,0.1,0.3
		c3.2,6.7,4.6,12.6,4,17.6c0,0.1-0.1,0.2-0.2,0.3l-8.2,9.1C954.7,389.4,954.6,389.4,954.4,389.4z"/>
</g>
<g id="Image">
	<rect id="path-1_1_" x="-1.2" y="-6.3" class="st10" width="534.8" height="535.6"/>
</g>
<g>
	<rect x="-8.4" y="408.1" class="st11" width="39.5" height="98.4"/>
	<g>
		<g id="Layer_1-2">
			<path class="st12" d="M184.1,66.1c0.1,0.7,0.4,1.3,0.9,1.7c0.4,0.4,1,0.7,1.6,0.8c0.4,0.1,0.8,0.1,1.1,0c0.2,0,0.4,0,0.6-0.1
				c0.8-0.2,1.5-0.6,2.1-1.2c0.6-0.5,1.1-1.1,1.6-1.7c0.4-0.6,0.9-1.1,1.3-1.6l0.1-0.1c0.1,0.1,0.1,0.2,0.2,0.3
				c0.2,0.3,0.5,0.6,0.8,0.8l0.1,0.1l-0.4,0.5l-0.6,0.6c-0.2,0.2-0.4,0.4-0.6,0.6c-0.2,0.2-0.4,0.5-0.5,0.8
				c-0.2,0.3-0.2,0.5-0.3,0.9c0,0.3,0,0.7,0.2,0.9c0.2,0.5,0.6,0.9,1.1,1.1c0.4,0.1,0.8,0.2,1.3,0.2l0.2,0c0.6-0.1,1-0.3,1.4-0.7
				c0.4-0.4,0.8-0.8,1-1.3c0.3-0.5,0.4-1,0.4-1.6c0.1-0.6-0.1-1.1-0.3-1.6c-0.2-0.2-0.4-0.5-0.7-0.7c0.6-0.6,1.1-1.1,1.8-1.6
				c0.5-0.4,1-0.8,1.6-1.1c0,1.4,0.1,2.7,0.2,4.1c0.2,3.9,0.6,7.9,1,11.9c0,0.2,0.1,0.4,0.2,0.5c0.3,0.2,0.7,0.2,0.9-0.1
				c0.1-0.1,0.1-0.3,0.1-0.5c-0.5-4-0.8-8-1.1-11.9c-0.2-3.9-0.3-7.9-0.2-11.9l1-0.2l1.5-0.3l2.5-0.5c0.2,0,0.4-0.1,0.5-0.3
				c0.1-0.1,0.1-0.3,0.1-0.5c0-0.2-0.1-0.3-0.2-0.4s-0.3-0.1-0.5-0.1l0,0l-2.5,0.5l-2.3,0.5c0-0.9,0-1.8,0.1-2.8
				c0-0.9,0.1-1.8,0.1-2.9c0-0.2,0-0.4-0.2-0.5c-0.1-0.1-0.3-0.2-0.5-0.3c-0.2,0-0.4,0-0.5,0.1c-0.2,0.1-0.3,0.3-0.3,0.5
				c-0.1,1-0.1,2.1-0.2,3.1c-0.1,1-0.1,2-0.1,3c-0.4,0.1-0.9,0.2-1.3,0.2c-0.4,0.1-1,0.2-1.4,0.3c-0.2,0-0.4,0.1-0.5,0.3
				c-0.1,0.1-0.1,0.3-0.1,0.5c0,0.2,0.1,0.3,0.2,0.4c0.1,0.1,0.3,0.1,0.5,0.1l0,0l1.5-0.3l0.2,0l1-0.2c0,2,0,4.1,0.1,6.2l0,0
				c-0.9,0.4-1.7,1-2.4,1.6c-0.7,0.6-1.4,1.3-2.1,1.9c-0.3-0.2-0.5-0.3-0.6-0.6c-0.2-0.3-0.3-0.7-0.3-1c0-0.1,0-0.1,0-0.3
				c0.1-0.1,0-0.2,0-0.3c0-0.3,0.1-0.5,0.2-0.7c0.2-0.4,0.4-0.8,0.7-1.2c0.2-0.3,0.5-0.6,0.8-0.9c0.2-0.1,0.2-0.3,0.2-0.5
				c0-0.2-0.2-0.3-0.2-0.4c-0.1-0.1-0.3-0.2-0.5-0.2c-0.2,0-0.4,0.1-0.5,0.3c-0.6,0.6-1.1,1.4-1.5,2.2c-0.1,0.3-0.3,0.7-0.4,1.1
				c0,0,0,0.1-0.1,0.1c-0.1,0.3-0.4,0.7-0.6,1l-0.7,1l-1.1,1.3c-0.4,0.4-0.8,0.9-1.2,1.2c-0.5,0.4-1,0.7-1.5,0.9
				c-0.5,0.2-1.2,0.2-1.7-0.1c-0.3-0.1-0.5-0.3-0.6-0.5c-0.2-0.2-0.2-0.5-0.3-0.7c0-0.3,0-0.6,0-0.9c0-0.3,0.1-0.4,0.1-0.7
				c0.7,0.3,1.5,0.2,2.1-0.3c0.7-0.5,1.2-1.2,1.6-2c0.2-0.5,0.4-1.1,0.5-1.6c0.1-0.6,0.1-1.1-0.1-1.7c-0.1-0.4-0.4-0.8-0.9-1
				c-0.5-0.1-0.9-0.1-1.3,0.2c-0.5,0.3-1,0.7-1.4,1.2c-0.4,0.5-0.7,1-1,1.6c-0.2,0.6-0.5,1.2-0.7,1.8c-0.1,0.6-0.2,1.2-0.3,1.7
				C184.1,64.8,184.1,65.5,184.1,66.1z M193.6,68.7c0-0.3,0.1-0.6,0.3-0.9c0.2-0.3,0.5-0.6,0.8-1c0.3-0.4,0.6-0.6,0.7-0.7
				c0.1-0.1,0.2-0.2,0.3-0.3c0.1-0.1,0.1-0.1,0.2-0.2c0.1,0.1,0.3,0.2,0.4,0.4c0.1,0.2,0.2,0.4,0.1,0.7c0,0.3-0.1,0.6-0.2,0.8
				s-0.2,0.6-0.5,0.8c-0.2,0.2-0.4,0.4-0.7,0.6c-0.2,0.2-0.5,0.2-0.8,0.2C193.6,69,193.6,68.8,193.6,68.7L193.6,68.7z M185.9,62.8
				c0.2-0.6,0.4-1.2,0.7-1.7c0-0.1,0.2-0.3,0.4-0.6c0.2-0.3,0.4-0.6,0.6-0.8c0.2-0.2,0.4-0.4,0.6-0.5c0.1,0,0.1,0,0.1,0
				c0.1,0.1,0.1,0.2,0.2,0.3c0,0.2,0.1,0.4,0,0.6c0,0.3-0.1,0.5-0.2,0.8c-0.1,0.3-0.2,0.5-0.3,0.7c-0.1,0.2-0.2,0.4-0.3,0.6
				c-0.2,0.3-0.5,0.6-0.9,0.7C186.5,63,186.1,63,185.9,62.8z"/>
			<path class="st12" d="M197.9,82.8c-0.3-0.2-0.6-0.1-0.9,0.2l0,0l-3.1,4.8l0,0l0,0l-0.3,0.5c-0.1,0.2-0.2,0.3-0.4,0.6l-0.1,0.1
				c-0.1,0.2-0.3,0.3-0.5,0.3c-0.1,0-0.2,0-0.2-0.2c0-0.2,0-0.3,0-0.5c0-0.1,0-0.1,0-0.1l0,0c0-0.4,0.1-1.1,0.1-1.5l0-0.7
				c0-0.2,0-0.4-0.2-0.5c-0.3-0.2-0.6-0.1-0.9,0.1c-0.2,0.1-0.2,0.3-0.2,0.5c0,0.3,0,0.6,0,0.9c0,0.3,0,0.6-0.1,1c0,0.2,0,0.4,0,0.6
				c-0.3,1.9-0.7,4-1.8,4.4c-0.1,0-0.3,0-0.4-0.1c-0.7-0.3-1.5-1.9-2.2-4.2c1.4-5.2,3-12,1.9-15.2c-0.5-1.6-1.6-2.4-2.7-2.1
				c-0.9,0.3-1.5,1.3-1.9,3.1c-0.8,4-0.1,9.8,1.1,14c-0.2,1.7-0.8,2.4-1.6,2.6c-0.9,0.2-1.9-1.5-2.7-4.3c1.4-5.2,3-12,1.9-15.2
				c-0.5-1.6-1.6-2.4-2.7-2.1c-3,0.9-2.6,10.1-1,16.3l-0.1,0.1c-0.3,0.3-0.7,0.5-1.1,0.5c-0.4,0-0.8,0-1.1,0l0,0
				c-0.1-0.4-0.3-0.7-0.6-1c-0.2-0.3-0.5-0.5-0.9-0.5c-0.3,0-0.5,0.1-0.6,0.3c-0.2,0.3-0.2,0.5-0.1,0.8c0,0.4,0.2,0.7,0.4,1
				s0.4,0.4,0.7,0.7c0,0.1,0.1,0.1,0.1,0.1c0,0.3,0.1,0.6,0.1,1c0,0.3,0,0.7,0,1c0,0.4,0,0.8,0,1.2c-0.1,0.4-0.1,0.9-0.3,1.4
				c-0.1,0.4-0.3,0.7-0.5,1.1c-0.2,0.3-0.5,0.4-0.8,0.3c-0.3,0-0.6-0.2-0.8-0.5c-0.2-0.3-0.4-0.7-0.5-1.1c-0.1-0.4-0.2-0.9-0.3-1.3
				c0-0.4-0.1-0.8-0.1-1.2c0-0.4,0-0.7,0-1.1c0-0.4,0-0.8,0.1-1.1c0.1-0.4,0.2-0.7,0.2-1c0.1-0.3,0.2-0.6,0.5-0.8l0,0
				c0-0.1,0.2-0.3,0.2-0.4c0.1-0.1,0.1-0.3,0.1-0.5c0-0.2-0.2-0.4-0.3-0.5c-0.1,0-0.3-0.1-0.4,0c-0.3,0.1-0.6,0.4-0.7,0.7
				c-0.1,0.3-0.3,0.7-0.4,1.1c-0.1,0.5-0.3,0.9-0.3,1.4l-2.4,0.3c0-0.1,0-0.3,0-0.4c0-0.2,0-0.4,0.1-0.5c0.1-1.9,0.3-3.9,0.4-5.8
				s0.2-3.8,0.4-5.8c0-0.2,0-0.4-0.2-0.5c-0.1-0.1-0.3-0.2-0.5-0.2c-0.2,0-0.3,0-0.5,0.1c-0.2,0.1-0.3,0.3-0.3,0.5l-0.9,12
				c0,0.1,0,0.3,0,0.4l0,0.4c-3,0.4-6.1,1-9,1.6c0.1-2,0.3-4.3,0.4-6.5s0.3-4.5,0.4-6.7c0-0.2,0-0.4-0.2-0.5
				c-0.1-0.1-0.3-0.2-0.5-0.3c-0.2,0-0.3,0-0.5,0.1s-0.3,0.3-0.3,0.5c-0.2,2.4-0.3,4.8-0.4,6.9c-0.2,2.2-0.3,4.5-0.5,6.8
				c-4.3,1-8.5,2.3-12.7,3.7c-0.2,0-0.4,0.2-0.4,0.4c0,0.2,0,0.3,0.1,0.5s0.2,0.3,0.3,0.4c0.1,0.1,0.4,0.1,0.6,0.1
				c2-0.8,4.1-1.4,6.1-2c2-0.6,4-1.1,6-1.6c-0.2,2.6-0.3,5.1-0.5,7.6l-0.6,7.8c0,0.2,0,0.4,0.2,0.5c0.1,0.1,0.3,0.2,0.5,0.3
				c0.1,0,0.1,0,0.2,0c0.1,0,0.2-0.1,0.3-0.1c0.2-0.1,0.2-0.3,0.3-0.5c0.2-2.7,0.4-5.4,0.6-8c0.2-2.6,0.4-5.2,0.6-7.9
				c1.5-0.3,3-0.6,4.5-0.9c1.5-0.3,3-0.6,4.5-0.8c-0.1,1.5-0.2,2.9-0.3,4.4c-0.1,1.5-0.1,3,0,4.5c0,0.2,0,0.4,0.3,0.5
				c0.3,0.2,0.7,0.2,0.9-0.1c0.2-0.1,0.2-0.3,0.2-0.5c-0.1-1.5-0.1-3,0-4.5s0.1-3,0.3-4.4l2.4-0.3c0,0.8,0.1,1.6,0.2,2.4
				c0.1,0.4,0.2,0.9,0.3,1.3c0.1,0.4,0.3,0.8,0.5,1.2c0.2,0.4,0.4,0.7,0.7,1c0.2,0.3,0.6,0.4,1,0.6c0.2,0.1,0.4,0.1,0.7,0
				c0.1,0,0.3,0,0.4-0.1c0.4-0.2,0.6-0.4,0.9-0.7c0.3-0.3,0.4-0.7,0.6-1.1c0.1-0.4,0.3-0.9,0.4-1.3c0.1-0.6,0.2-1.3,0.2-2
				c0-0.7,0-1.3-0.1-2c0.3,0,0.7,0,1-0.1c0.4,0,0.7-0.2,1-0.4c0.1-0.1,0.2-0.2,0.3-0.2c1.1,3.5,2.6,5.2,4.2,5
				c1.1-0.1,1.9-0.7,2.4-1.6c0.5,1.3,1.2,2.4,1.8,2.9c0.4,0.4,1,0.6,1.6,0.5c0.1,0,0.3,0,0.4-0.1c1.3-0.5,2-2,2.3-3.8
				c0.1,0,0.2,0.1,0.3,0.1c0.4,0.1,0.8,0,1.2-0.3c0.6-0.4,1-0.9,1.3-1.5c0.3-0.5,0.6-1.1,1-1.6l0.1-0.1l0.6-1
				c0.1-0.2,0.3-0.4,0.4-0.6c-0.1,1.8-0.3,3.7-0.3,5.5c0,2,0,4,0.1,5.9c0.1,1.9,0.2,3.9,0.3,5.9c0,0.8,0.1,1.1,0.1,1.2
				c0,0.1,0,0.2,0,0.8c0,0.2,0.1,0.4,0.2,0.5c0.1,0.1,0.3,0.2,0.5,0.2l-0.1,0c0.4,0,0.6-0.4,0.6-0.8c-0.2-3.3-0.3-4.5-0.3-7.2
				c0-0.5,0-1,0-1.6c-0.1-4.1,0.1-8.5,0.3-12.8C198.4,83.3,198.2,83,197.9,82.8z M186.1,73.2l0.1,0c0.6-0.1,1,1.1,1.1,1.3
				c0.9,2.8-0.4,8.9-1.4,12.5C184.3,80,184.7,73.6,186.1,73.2L186.1,73.2z M180.3,71.3c0.6-0.1,1,1.1,1.1,1.3
				c0.9,2.8-0.4,8.9-1.4,12.5C178.4,78.2,178.8,71.8,180.3,71.3L180.3,71.3z"/>
			<path class="st12" d="M160.3,71.2c0.3,0.7,0.8,1.2,1.4,1.7c0.6,0.4,1.3,0.6,1.9,0.4c1.1-0.1,2-0.6,2.8-1.4
				c0.8-0.9,1.6-1.8,2.2-2.9c0.7-1.2,1.3-2.6,1.7-3.9c0.5-1.4,1-2.9,1.3-4.3c0.4-1.5,0.7-2.9,1-4.3l0-0.3c0.2,0.9,0.4,1.8,0.5,2.8
				c0.4,1.7,0.9,3.3,1.5,4.9c0.5,1.3,1.1,2.6,2,3.7c0.8,1.1,1.8,1.5,2.8,1.4c0.9-0.1,1.6-0.6,2.1-1.3c0.5-0.8,0.9-1.7,1.2-2.6
				c0.3-1.1,0.5-2.3,0.6-3.5c0.1-1.3,0.2-2.6,0.1-3.9c0-1.3-0.1-2.7-0.2-4c-0.1-1.3-0.3-2.6-0.4-3.7c-0.1-0.9-0.2-1.6-0.3-2.2
				c-0.1-0.7-0.2-1.2-0.3-1.7c0-0.2-0.2-0.5-0.5-0.6c-0.2-0.1-0.4-0.1-0.6,0c-0.4,0.2-0.5,0.6-0.4,0.9c0.1,0.4,0.2,0.9,0.3,1.6
				c0.1,0.7,0.2,1.4,0.3,2.1c0.1,1.1,0.3,2.3,0.4,3.5c0.1,1.2,0.1,2.6,0.2,3.8c0,1.3,0,2.5-0.1,3.7c-0.1,1.1-0.2,2.1-0.5,3.1
				c-0.2,0.8-0.5,1.5-0.9,2.2c-0.3,0.4-0.7,0.7-1.2,0.8c-0.6,0.1-1.1-0.2-1.6-1c-0.7-1-1.3-2.1-1.7-3.3c-0.6-1.5-1-3-1.3-4.6
				c-0.3-1.7-0.7-3.3-0.9-4.7c-0.1-0.6-0.2-1.2-0.2-1.9s-0.1-1.1-0.1-1.6c0-0.4-0.3-0.7-0.7-0.8l-0.1,0l-0.1,0c-0.1,0-0.2,0-0.4,0.1
				c-0.2,0.1-0.3,0.3-0.3,0.5c-0.1,0.9-0.3,2-0.5,3.4c-0.2,1.4-0.5,2.9-0.8,4.5c-0.4,1.6-0.7,3.2-1.2,4.8c-0.4,1.5-1,3-1.7,4.3
				c-0.5,1.1-1.2,2.2-2.1,3.2c-0.6,0.7-1.4,1.2-2.3,1.3c-0.3,0-0.7,0-0.9-0.3c-0.4-0.3-0.7-0.7-0.9-1.1c-0.3-0.7-0.5-1.3-0.8-2
				c-0.2-0.9-0.4-1.8-0.5-2.7c-0.2-1.9-0.3-3.9-0.3-5.8c0-2.1,0.2-4.3,0.5-6.4c0.2-2,0.7-4.1,1.2-6.2c0.4-1.8,1.1-3.5,1.8-5.1
				c0.2-0.3,0.2-0.8-0.1-1.1c-0.1-0.2-0.3-0.3-0.6-0.2l0,0c-0.2,0-0.4,0.2-0.5,0.3l-0.1,0.1c-0.9,1.7-1.5,3.5-2,5.4
				c-0.6,2.1-1,4.2-1.3,6.4c-0.3,2.2-0.5,4.4-0.5,6.6c-0.1,2,0.1,4.1,0.3,6.1c0.1,1.1,0.3,2,0.6,3.1
				C159.6,69.6,159.9,70.4,160.3,71.2z"/>
			<path class="st12" d="M231.2,57.3c-0.3-0.2-0.8-0.2-1,0.1l0,0c-0.1,0.1-0.1,0.3-0.1,0.5l2,17.2c0,0.1,0,0.1,0,0.2
				c-0.1,0.1-0.1,0.1-0.2,0c-0.4-0.1-0.9,0-1.3,0.2c-0.1,0-0.1,0.1-0.2,0.1c-0.5,0.4-1,1-1.3,1.6c-0.5,0.8-0.8,1.6-1.2,2.4
				c-0.3,0.8-0.5,1.6-0.6,2.5c0,0.1,0,0.3,0,0.4c-0.6,1.1-1.3,1.7-2.1,1.8c0.1-1,0.1-2-0.1-3c-0.2-1.6-1-4.2-2.8-4
				c-0.7,0.1-1.2,0.7-1.4,1.7c-0.1,0.4-0.1,1,0,1.4l0,0c-0.1,0-0.2,0.1-0.3,0.2c-0.4,0.5-0.7,1.2-0.8,1.8c-0.3,0.2-0.7,0.3-1,0.6
				c-0.4,0.2-0.8,0.4-1.3,0.5c0-0.6-0.1-1.2-0.3-1.9c-0.1-0.7-0.4-1.3-0.7-1.9c-0.3-0.5-0.6-0.9-1.1-1.2s-1.2-0.3-1.6,0
				c-0.3,0.2-0.6,0.5-0.8,0.7c-0.2,0.3-0.3,0.7-0.4,1c-0.1,0.4-0.1,0.7-0.1,1.1c0,0.3,0.1,0.6,0.1,1c0.1,0.3,0.2,0.6,0.4,0.9
				c-0.3,0.3-0.6,0.6-0.9,1c-0.3,0.3-0.8,0.4-1.2,0.3c-0.1,0-0.3-0.1-0.5-0.1c0-0.4,0-0.8,0.1-1.2c0-0.2,0-0.7-0.1-1.4
				c0-0.8-0.1-1.5-0.3-2.2c-0.1-0.6-0.4-1.3-0.7-1.8c-0.2-0.5-0.8-0.7-1.2-0.4l0,0l-0.1,0.1c-0.3,0.2-0.5,0.4-0.6,0.6
				s-0.2,0.6-0.3,0.9c-0.1,0.6-0.1,1.1-0.1,1.7c0.1,1.3,0.5,2.6,1.2,3.6c0.2,0.3,0.4,0.5,0.6,0.7c-0.1,0.4-0.2,0.9-0.3,1.3
				c-0.1,0.5-0.3,0.9-0.5,1.3c-0.2,0.3-0.3,0.5-0.5,0.8c-0.2,0.2-0.4,0.4-0.7,0.4c-0.3,0-0.6-0.1-0.8-0.2c-0.2-0.2-0.4-0.4-0.6-0.7
				c-0.3-0.5-0.5-1.1-0.5-1.7c-0.1-0.6-0.2-1.2-0.4-1.8c-0.1-0.2-0.3-0.4-0.6-0.4c-0.3-0.1-0.5,0.1-0.7,0.3c-0.1,0.1-0.2,0.5-0.6,1
				c-0.2,0.5-0.6,1.1-0.9,1.6c-0.3,0.5-0.6,1-1,1.4c-0.4,0.5-0.5,0.4-0.6,0.5c-0.1,0-0.2-0.2-0.2-0.3c0-0.2-0.1-0.4-0.1-0.7
				c0-0.3,0-0.5,0-0.8c0-0.2,0.1-0.4,0.1-0.6c0.1-1,0.5-1.8,1.1-2.7c0.1-0.1,0.1-0.4,0.1-0.6s-0.1-0.3-0.2-0.5
				c-0.1-0.1-0.3-0.2-0.5-0.1c-0.2,0-0.4,0.1-0.5,0.3c-0.7,1.2-1.2,2.4-1.3,3.8c0,0.2-0.1,0.4-0.1,0.8c0,0.3,0,0.6,0,0.9
				c0,0.3,0.1,0.6,0.2,0.9c0.1,0.2,0.3,0.5,0.5,0.7c0.4,0.3,0.9,0.5,1.4,0.3c0.4-0.2,0.8-0.4,1.1-0.8c0.4-0.4,0.8-1,1.1-1.5l0.7-1.3
				c0.1,0.4,0.2,0.8,0.3,1.2c0.1,0.6,0.4,1,0.7,1.4c0.4,0.4,0.8,0.7,1.2,0.9c0.4,0.1,0.8,0.2,1.2,0.2c0.1,0,0.2,0,0.3,0
				c0.9-0.2,1.6-0.9,1.9-1.8c0.4-0.8,0.7-1.7,0.8-2.5c0.1,0,0.3,0.1,0.4,0.1c0.2,0,0.3,0,0.5,0.1c0.4,0,0.9-0.1,1.3-0.4
				c0,0.3,0,0.6-0.1,1c0,0.4,0.1,0.9,0.1,1.4c0.1,0.4,0.2,0.9,0.5,1.2c0.3,0.6,0.9,1,1.6,1.1c0.2,0,0.4,0,0.6,0
				c0.5-0.1,0.9-0.3,1.2-0.7c0.5-0.7,0.8-1.5,1-2.4c0.1-0.8,0.2-1.6,0.2-2.4c0.6-0.1,1-0.3,1.5-0.6c0.2-0.1,0.4-0.2,0.6-0.3
				c0,0.9,0.3,1.7,0.7,2.5c0.6,1.1,1.4,1.6,2.3,1.5c0.9-0.1,1.7-0.9,2.1-2.3c0.1,0,0.3,0,0.4,0l0,0c1-0.2,1.8-0.7,2.3-1.6
				c0,0.1,0.1,0.1,0.1,0.1c0.4,0.6,1,0.9,1.7,0.9c0.6,0,1.2-0.3,1.7-0.6c0.5-0.4,1-0.9,1.4-1.4l0.2-0.2c0.1-0.1,0.1-0.1,0.2-0.1
				c0.1,0,0.1,0.1,0.1,0.2l0.9,6.8c0.1,0.4,0.5,0.6,0.8,0.5c0.4,0,0.6-0.4,0.5-0.7l-3.9-31.6C231.5,57.5,231.4,57.4,231.2,57.3z
				 M228.8,82.1c0-0.7,0.2-1.4,0.5-2.1c0.3-0.7,0.6-1.4,1-2c0.3-0.5,0.6-0.9,1-1.3c0.1,0,0.1,0,0.1,0c0.1,0,0.1,0,0.1,0
				c0.1,0.1,0.3,0.3,0.4,0.5c0.2,0.3,0.3,0.7,0.4,1c0,0.7,0,1.3-0.2,2c-0.2,0.7-0.4,1.2-0.7,1.8c-0.3,0.5-0.6,0.9-1,1.2
				c-0.3,0.2-0.8,0.2-1.1,0C228.8,83.1,228.7,82.7,228.8,82.1L228.8,82.1z M215,84.5c0.3,0.1,0.5,0.2,0.8,0.3c0.2,0,0.4,0.1,0.6,0.1
				c0,0.8-0.1,1.5-0.3,2.2c0,0.2-0.1,0.5-0.2,0.8c0,0.3-0.2,0.5-0.4,0.7c-0.2,0.2-0.4,0.3-0.5,0.3c-0.2,0-0.3-0.2-0.4-0.3
				c-0.2-0.2-0.2-0.4-0.3-0.7c0-0.2-0.1-0.4-0.1-0.6c-0.1-0.6-0.1-1.1,0-1.6c0.1-0.4,0.1-1,0.3-1.4C214.6,84.3,214.8,84.4,215,84.5
				L215,84.5z M216.3,83.4c-0.3,0-0.5-0.1-0.8-0.2c-0.3-0.1-0.6-0.3-0.8-0.5c-0.3-0.4-0.6-0.9-0.6-1.4c-0.1-0.5,0-1,0.2-1.4
				c0.2-0.3,0.3-0.4,0.4-0.4l0.1,0c0.2,0,0.3,0.1,0.4,0.3c0.2,0.2,0.3,0.5,0.4,0.8c0.1,0.2,0.2,0.4,0.3,0.7
				C216.1,81.9,216.2,82.7,216.3,83.4L216.3,83.4z M209.4,81c0,0.3,0.1,0.7,0.1,1c0,0.2,0,0.3,0,0.5c0-0.1,0-0.1-0.1-0.2
				c-0.2-0.5-0.4-1.1-0.5-1.6c-0.1-0.6-0.1-1.1,0.1-1.6l0,0c0,0.1,0.1,0.1,0.1,0.2C209.2,79.8,209.3,80.4,209.4,81L209.4,81z
				 M222.2,78.7c0.1-0.3,0.2-0.3,0.3-0.4l0,0c0.7-0.1,1.3,1.9,1.5,3.2c0.1,0.7,0.1,1.5,0.1,2.3C222.8,82.5,221.9,79.8,222.2,78.7
				L222.2,78.7z M222.8,86.6c-0.4,0-0.7-0.2-1-0.6c-0.6-1-0.9-3-0.5-4.3c0.5,1.6,1.4,3,2.5,3.5C223.7,85.7,223.4,86.5,222.8,86.6
				L222.8,86.6z"/>
			
				<rect x="134.2" y="30.8" transform="matrix(0.9921 -0.1252 0.1252 0.9921 -7.5075 24.4592)" class="st13" width="113.4" height="82.3"/>
		</g>
		<g id="carnaval" transform="translate(315.171710, 278.643164) rotate(-10.000000) translate(-315.171710, -278.643164) ">
			<g>
				<g class="st0">
					<text transform="matrix(1 0 0 1 227.3962 242.3316)" class="st14 st15 st16">carnaval</text>
				</g>
			</g>
			<g>
				<g class="st0">
					<text transform="matrix(1 0 0 1 227.3962 242.3316)" class="st14 st15 st16">carnaval</text>
				</g>
			</g>
		</g>
		<g id="carnaval_1_" transform="translate(315.171710, 278.643164) rotate(-10.000000) translate(-315.171710, -278.643164) ">
			<g>
				<g class="st0">
					<text transform="matrix(1 0 0 1 229.8082 245.221)" class="st17 st15 st16">carnaval</text>
				</g>
			</g>
		</g>
		<g id="Halloween" transform="translate(201.171710, 223.643164) rotate(-10.000000) translate(-201.171710, -223.643164) ">
			<g>
				<g class="st0">
					<text transform="matrix(1 0 0 1 101.5027 190.4352)" class="st14 st18 st19">Halloween</text>
				</g>
			</g>
		</g>
		<g>
			<g id="Halloween_1_" transform="translate(201.171710, 223.643164) rotate(-10.000000) translate(-201.171710, -223.643164) ">
				<g>
					<g class="st0">
						<text transform="matrix(1 0 0 1 106.007 192.1123)" class="st17 st18 st19">Halloween</text>
					</g>
				</g>
			</g>
			<g>
				<path id="Fill-4_1_" class="st20" d="M-10.2,602.9c-13.9-9.8-19.1-31.8-11.5-49.3L41.1,409c7.6-17.4,25-23.7,39-13.9
					s19.1,31.8,11.5,49.3L28.8,589C21.2,606.4,3.8,612.6-10.2,602.9"/>
				<path id="Fill-5_2_" class="st17" d="M206.2,285.7c-2.2-5.8,0.3-12.2,5.7-15l-10.9,4.1c-6.2,2.4-13.2-0.8-15.6-7
					c-2.3-5.9,0.5-12.6,6.1-15.2c-5.9,1.8-12.4-1.3-14.7-7.2c-2.4-6.2,0.8-13.2,7-15.6l10.9-4.1c-5.8,1.5-12-1.6-14.1-7.4
					c-1.2-3-1-6.2,0.1-8.9c-3.4-2.2-7-4.2-10.8-5.9c-40.3-18-99.2-5.1-117.2,35.2l58.9,246.6l19.8,0.3l78.8-176
					c2.4-5.3,4.1-10.7,5.2-16.2C211.3,292.6,207.7,289.8,206.2,285.7"/>
				<path id="Fill-6_1_" class="st1" d="M53.1,238.2l59.4,246l19,0.3l78.6-175.5c2.2-4.9,3.9-10.1,5.1-15.4
					c-4.1-0.9-7.6-3.9-9.1-7.9c-1.7-4.5-0.7-9.6,2.4-13.1l-6.8,2.5c-6.6,2.5-14-0.8-16.5-7.4c-2-5.1-0.4-10.9,3.8-14.3
					c-5.3,0.1-10.4-3.1-12.4-8.2c-1.2-3.2-1.1-6.7,0.2-9.7c1.4-3.1,3.9-5.4,7.1-6.6l6.8-2.5c-4.7-0.5-8.8-3.6-10.6-8.2
					c-1.1-2.9-1.1-6,0-8.8c-3.3-2.1-6.8-3.9-10.4-5.6C130.8,186.3,71.5,197.6,53.1,238.2z M111.8,485.3c-0.2-0.1-0.3-0.3-0.4-0.4
					L51.8,238.3c-0.1-0.1,0-0.2,0.1-0.4c18.5-41.4,78.9-53,118.4-35.3c3.8,1.7,7.5,3.7,11,6c0.3,0.1,0.3,0.5,0.2,0.8
					c-1.1,2.7-1.2,5.7-0.1,8.4c2,5.4,7.9,8.4,13.5,7.1c0.4-0.1,0.7,0.1,0.8,0.5c0.1,0.3-0.1,0.7-0.4,0.9l-10.9,4.1
					c-2.9,1.1-5.1,3.2-6.4,6c-1.2,2.8-1.4,5.9-0.3,8.8c2.1,5.5,8.2,8.6,13.9,6.9c0.3-0.1,0.7,0.1,0.9,0.4c0.1,0.3-0.1,0.7-0.3,0.8
					c-5.3,2.5-7.9,8.9-5.8,14.4c2.3,5.9,8.9,8.9,14.8,6.6l10.9-4.1c0.3-0.1,0.7,0.1,0.9,0.4c0.1,0.3,0,0.7-0.3,0.9
					c-5.1,2.7-7.4,8.8-5.3,14.2c1.4,3.7,4.8,6.5,8.8,7.1c0.2,0.1,0.3,0.1,0.4,0.3c0.1,0.1,0.1,0.3,0.1,0.5
					c-1.2,5.6-2.9,11.1-5.3,16.3l-78.8,175.9c-0.1,0.3-0.3,0.4-0.6,0.4l-19.9-0.4C112,485.4,111.9,485.3,111.8,485.3z"/>
				<path id="Fill-7_1_" class="st3" d="M206.9,285.8c-2.1-5.8,0.3-12.2,5.7-14.9l-10.8,4c-0.4,0.2-0.9,0.3-1.4,0.4
					c-5.9,1.4-12-1.7-14.2-7.4c-2.3-5.9,0.4-12.5,6.1-15.2c-0.1,0.1-0.2,0-0.4,0.1c-5.9,1.5-12.1-1.7-14.4-7.4
					c-2.2-5.8,0.3-12.2,5.7-14.9c0.5-0.3,0.9-0.4,1.3-0.7l10.8-4l0,0c-5.9,1.4-11.4-2-14.2-7.4c-2.1-4,0.1-8.9,0.1-8.9l-27.8,6.4
					c-6.2,2.4-9.3,9.3-6.9,15.5c2.2,5.8,8.4,8.9,14.2,7.4l-10.8,4c-6.2,2.4-9.3,9.3-6.9,15.5c2.3,5.9,8.7,9,14.8,7.3
					c-5.6,2.6-8.4,9.3-6.1,15.2c2.4,6.2,9.4,9.3,15.7,7l10.8-4c-5.3,2.7-7.9,9.1-5.7,14.9c2.4,6.2,9.5,9.4,15.7,7l28.3-12.4
					C216.2,293.4,209.2,292.1,206.9,285.8"/>
				<path id="Fill-8_1_" class="st11" d="M168.6,294.4c-2.2-5.8,0.3-12.2,5.7-14.9l-10.9,4.1c-6.2,2.4-13.2-0.8-15.6-7
					c-2.3-5.9,0.5-12.6,6.1-15.2c-5.9,1.8-12.4-1.3-14.7-7.2c-2.4-6.2,0.8-13.2,7-15.6l10.9-4.1c-5.8,1.4-12-1.7-14.1-7.4
					c-2.4-6.2,0.8-13.2,7-15.6l13-3c-4.4-3.2-10.8-7.4-16-9.7c-40.2-18-87.8,0.1-105.9,40.4l-78.7,175.7l146.3,65.5l78.7-175.7
					c0.8-1.7,1.5-3.6,2.1-5.3l-5.2,2C178,303.8,171,300.6,168.6,294.4z"/>
				<path id="Fill-9_1_" class="st1" d="M163.5,210.9L163.5,210.9c-2.3-1.5-4.6-2.9-6.9-4.1c-0.4-0.2-0.4-0.5-0.3-0.8
					s0.6-0.3,0.9-0.2c2.4,1.3,4.7,2.7,6.9,4.1c0.3,0.3,0.4,0.5,0.2,0.8C164.2,210.9,163.8,211,163.5,210.9"/>
				<path id="Fill-10_2_" class="st1" d="M128.1,299.1c-5-2.3-14.7,7.9-21.1,22.1s-7.5,28.2-2.5,30.5c5,2.3,14.7-7.9,21.1-22.1
					C132,315.3,133.1,301.4,128.1,299.1z M104,353c-5.9-2.6-5-16.7,1.9-32.2s16.9-25.5,22.8-22.9c5.9,2.6,5,16.7-1.9,32.2
					C119.8,345.6,109.9,355.6,104,353z"/>
				<path id="Fill-11_2_" class="st1" d="M92,282.9c-5-2.3-14.7,7.9-21.1,22.1s-7.5,28.2-2.5,30.5c5,2.3,14.7-7.9,21.1-22.1
					C95.9,299.2,97,285.2,92,282.9z M67.9,336.8c-5.9-2.6-5-16.7,1.9-32.2c6.9-15.5,16.9-25.5,22.8-22.9s5,16.7-1.9,32.2
					C83.7,329.4,73.8,339.4,67.9,336.8z"/>
				<path id="Fill-12_2_" class="st14" d="M102.7,351.2c-6.4-2.8-6-17.3,0.6-32.2c6.7-14.9,17.2-24.8,23.6-21.9l1.8,0.8L104.5,352
					L102.7,351.2"/>
				<path id="Fill-13_1_" class="st14" d="M66.6,335.1c-6.4-2.8-6-17.3,0.6-32.2c6.7-14.9,17.2-24.8,23.6-21.9l1.8,0.8l-24.2,54.1
					L66.6,335.1"/>
				<path id="Fill-14_1_" class="st1" d="M111,305.9c-0.1,0-0.1,0-0.2-0.1c-0.3-0.3-0.4-0.6-0.2-0.9c0.5-0.6,0.9-1.1,1.5-1.5
					c0.2-0.2,0.7-0.3,1,0c0.3,0.3,0.4,0.6,0.1,0.8c-0.4,0.5-0.9,1-1.3,1.5C111.6,306.1,111.3,306.1,111,305.9"/>
				<path id="Fill-15_2_" class="st1" d="M107.7,310.2C107.7,310.1,107.7,310.1,107.7,310.2c-0.2-0.2-0.3-0.5-0.1-0.7
					c0.1-0.3,0.4-0.5,0.5-0.8c0.1-0.3,0.5-0.3,0.6-0.2c0.1,0.2,0.3,0.5,0,0.7c-0.1,0.3-0.4,0.5-0.5,0.8
					C108.2,310.1,107.9,310.3,107.7,310.2"/>
				<path id="Fill-16_2_" class="st1" d="M98.8,332.4c-0.3-0.1-0.5-0.4-0.4-0.7c0.2-1.3,0.6-2.6,1-3.9c0.1-0.3,0.4-0.5,0.8-0.5
					c0.3,0.1,0.6,0.5,0.5,0.8c-0.4,1.3-0.7,2.6-1,3.9C99.7,332.3,99.3,332.5,98.8,332.4C98.9,332.4,98.8,332.4,98.8,332.4"/>
				<path id="Fill-17_2_" class="st1" d="M104.4,353.1l-1.8-0.8c-4.1-1.8-5.8-7.6-4.8-16.1c0-0.3,0.4-0.6,0.7-0.6
					c0.3,0,0.6,0.4,0.6,0.7c-0.9,7.7,0.6,13.2,4,14.7l1.1,0.5l23.6-52.7l-1.1-0.5c-2.8-1.2-6.6,0.1-10.7,3.9
					c-0.2,0.2-0.7,0.3-0.9-0.1c-0.2-0.2-0.3-0.7,0.1-0.9c4.6-4.1,8.8-5.5,12.2-4l1.8,0.8c0.3,0.1,0.4,0.5,0.3,0.8l-24.1,53.9
					C105,353.2,104.7,353.3,104.4,353.1"/>
				<path id="Fill-18_2_" class="st1" d="M75.4,291.1c-0.1,0-0.1,0-0.2-0.1c-0.2-0.2-0.3-0.6,0-0.9c0.6-0.8,1.3-1.6,1.9-2.2
					c0.2-0.2,0.7-0.3,0.9,0s0.3,0.7,0,0.9c-0.7,0.7-1.2,1.5-1.9,2.2C76,291.2,75.6,291.2,75.4,291.1"/>
				<path id="Fill-19_2_" class="st1" d="M73,293.5C72.9,293.4,72.9,293.4,73,293.5c-0.2-0.2-0.3-0.6-0.1-0.8l0.4-0.7
					c0.1-0.3,0.5-0.4,0.7-0.3s0.2,0.6,0,0.8l-0.4,0.6C73.5,293.5,73.2,293.6,73,293.5"/>
				<path id="Fill-20_2_" class="st1" d="M63.6,312.1c-0.2-0.1-0.3-0.4-0.1-0.7l0.2-0.7c0.2-0.4,0.4-0.6,0.7-0.5
					c0.2,0.1,0.4,0.4,0.2,0.8l-0.2,0.7C64.2,311.9,63.9,312.2,63.6,312.1C63.7,312.1,63.7,312.1,63.6,312.1"/>
				<path id="Fill-21_1_" class="st1" d="M62.8,318.6c-0.3-0.1-0.4-0.4-0.4-0.7c0.2-1.3,0.5-2.6,0.9-3.9c0-0.3,0.5-0.6,0.8-0.5
					c0.3,0,0.5,0.4,0.5,0.8c-0.4,1.3-0.6,2.6-0.8,3.9c0,0.3-0.4,0.6-0.7,0.6C62.9,318.6,62.9,318.6,62.8,318.6"/>
				<path id="Fill-22_1_" class="st1" d="M68.3,337l-1.8-0.8c-3.9-1.7-5.8-7.2-5.2-14.8c0-0.3,0.4-0.6,0.7-0.6
					c0.3,0,0.6,0.4,0.6,0.7c-0.5,7.1,1.2,11.9,4.5,13.4l1.2,0.6l23.6-52.7l-1.2-0.6c-2.6-1.1-6.1-0.2-9.8,2.8
					c-0.3,0.2-0.6,0.2-1-0.1c-0.2-0.3-0.2-0.6,0.1-0.9c4.2-3.3,8.2-4.3,11.2-2.9l1.8,0.8c0.4,0.2,0.4,0.5,0.3,0.8l-24.1,53.9
					C68.9,337,68.7,337.1,68.3,337"/>
				<path id="Fill-23_1_" class="st1" d="M128.1,299.1c-5-2.3-14.7,7.9-21.1,22.1s-7.5,28.2-2.5,30.5c5,2.3,14.7-7.9,21.1-22.1
					C132,315.3,133.1,301.4,128.1,299.1z M104,353c-5.9-2.6-5-16.7,1.9-32.2s16.9-25.5,22.8-22.9c5.9,2.6,5,16.7-1.9,32.2
					C119.8,345.6,109.9,355.6,104,353z"/>
				<path id="Fill-24_2_" class="st1" d="M92,282.9c-5-2.3-14.7,7.9-21.1,22.1s-7.5,28.2-2.5,30.5c5,2.3,14.7-7.9,21.1-22.1
					C95.9,299.2,97,285.2,92,282.9z M67.9,336.8c-5.9-2.6-5-16.7,1.9-32.2c6.9-15.5,16.9-25.5,22.8-22.9s5,16.7-1.9,32.2
					C83.7,329.4,73.8,339.4,67.9,336.8z"/>
				<path id="Fill-25_1_" class="st1" d="M127,329.6c-6.7,14.9-16.6,25.1-22.1,22.6c-5.5-2.5-4.5-16.6,2.1-31.5
					c6.7-14.9,16.6-25.1,22.1-22.6C134.6,300.5,133.7,314.7,127,329.6"/>
				<path id="Fill-26_1_" class="st1" d="M90.9,313.4c-6.7,14.9-16.6,25.1-22.1,22.6c-5.5-2.5-4.6-16.5,2.1-31.5
					c6.7-15,16.6-25.1,22.1-22.6C98.5,284.4,97.6,298.5,90.9,313.4"/>
				<path id="Fill-27_1_" class="st1" d="M112.3,485.5l-146.9-65.8c-0.3-0.1-0.4-0.5-0.3-0.8l78.6-175.5
					c18.2-40.7,66.2-58.7,107-40.4c0.3,0.1,0.4,0.5,0.3,0.8c-0.1,0.3-0.5,0.4-0.8,0.3C110,186.1,62.8,204,44.9,244l-78.3,175
					l145.8,65.3l17.6-39.2c0.1-0.3,0.5-0.4,0.8-0.3c0.3,0.1,0.4,0.5,0.3,0.8l-17.8,39.8C113,485.6,112.7,485.7,112.3,485.5"/>
				<path id="Fill-28_2_" class="st1" d="M208.5,272l-6.9,2.6c-0.4,0.2-0.9,0.3-1.5,0.5l-20.9,7.9c-2.9,1.1-5.1,3.2-6.3,6
					c-1.2,2.8-1.4,5.9-0.2,8.7c1.1,2.9,3.2,5.1,6,6.4c2.8,1.3,5.9,1.4,8.8,0.3l26.6-11.7c-2.4-0.8-6.4-2.8-8.1-7.5
					C204.3,280.4,205.4,275.4,208.5,272z M178.2,305.2c-2.9-1.3-5.5-3.8-6.7-7.1c-1.2-3.2-1.1-6.7,0.2-9.7c1.4-3.1,3.9-5.4,7.1-6.6
					l21-7.9c0.6-0.2,1-0.2,1.4-0.4l10.9-4.1c0.3-0.1,0.7,0.1,0.9,0.4c0.1,0.3,0,0.7-0.3,0.9c-5,2.7-7.3,8.7-5.3,14.2
					c2.2,5.9,8.7,7.2,8.8,7.1c0.3,0,0.4,0.3,0.5,0.6c0,0.2-0.1,0.5-0.4,0.6l-28.3,12.4C184.6,306.7,181.1,306.5,178.2,305.2z"/>
				<path id="Fill-29_2_" class="st1" d="M187.6,254.8l-29.2,11c-5.9,2.2-8.8,8.7-6.5,14.6c2.3,5.8,8.9,8.8,14.7,6.6l29.2-11
					c-4.7-0.5-9-3.4-10.7-8.1C183.2,263.3,184.3,258.3,187.6,254.8z M157.4,287.9c-2.9-1.3-5.5-3.8-6.7-7
					c-2.6-6.5,0.7-13.8,7.3-16.2l33.6-12.6c0.3-0.1,0.7,0.1,0.8,0.3s-0.1,0.7-0.3,0.8c-5.3,2.5-7.8,8.7-5.7,14.2
					c2.3,5.8,8.9,8.8,14.7,6.6l10.8-4c0.3-0.1,0.7,0.1,0.9,0.4c0.1,0.1,0.1,0.4,0,0.5c-0.1,0.2-0.2,0.2-0.4,0.3l-45.2,16.9
					C163.7,289.5,160.3,289.2,157.4,287.9z"/>
				<path id="Fill-30_2_" class="st1" d="M183.7,230.2c-0.2-0.1-0.2-0.2-0.3-0.4c-0.1-0.3,0.1-0.7,0.4-0.9l10.7-4.1
					c0.1-0.1,0.4-0.1,0.5,0c0.2,0.1,0.2,0.2,0.3,0.4c0.1,0.3-0.1,0.7-0.3,0.8l0,0l-10.7,4.1C184,230.3,183.8,230.2,183.7,230.2"/>
				<path id="Fill-31_2_" class="st1" d="M179,232.5L150,243.7c-2.8,1.1-5.1,3.2-6.3,6c-1.2,2.8-1.4,5.9-0.2,8.7
					c1,2.8,3.2,5.1,6,6.3c2.8,1.2,5.8,1.3,8.7,0.2l29.1-11.2c-4.7-0.4-9-3.4-10.6-8.1c-1.2-3.2-1-6.6,0.3-9.7
					C177.3,234.7,178.1,233.6,179,232.5z M148.8,265.8c-3-1.4-5.4-3.9-6.6-7.1s-1-6.6,0.3-9.7c1.4-3,3.9-5.4,7-6.7l34.2-13.2
					c0.3-0.1,0.7,0.1,0.9,0.4c0.1,0.1,0.1,0.4,0,0.5c-0.1,0.2-0.2,0.2-0.4,0.3c-2.8,1.1-5.1,3.2-6.3,6c-1.2,2.8-1.4,5.9-0.2,8.7
					c2.1,5.5,8,8.5,13.7,6.8c0.3-0.1,0.7,0.1,0.8,0.3c0.1,0.3-0.1,0.7-0.3,0.8l-0.3,0.2l-33,13.1
					C155.3,267.4,151.9,267.2,148.8,265.8z"/>
				<path id="Fill-32_2_" class="st1" d="M179.6,210l-26.6,6.4c-2.8,1-5,3.2-6.3,6.1c-1.3,2.8-1.4,6-0.3,8.8c1.1,2.9,3.2,5.1,6,6.3
					c2.8,1.2,5.9,1.4,8.7,0.2l21-8.2c0.5-0.3,0.9-0.4,1.3-0.7l6.9-2.7c-4.3-0.6-8.3-3.5-10.5-8C178.3,215.2,179.1,211.8,179.6,210z
					 M151.9,238.7c-3.1-1.4-5.4-3.9-6.6-7.1c-1.2-3.2-1.1-6.7,0.3-9.8c1.4-3.1,4-5.5,7.1-6.7l27.8-6.7c0.2,0,0.5,0,0.7,0.2
					c0.1,0.2,0.2,0.4,0,0.7c0,0-2,4.8-0.2,8.3c2.8,5.6,8.2,8.4,13.4,7c0.4-0.1,0.7,0.1,0.8,0.5c0.1,0.4-0.1,0.7-0.4,0.9l-10.9,4.2
					c-0.4,0.2-0.8,0.3-1.3,0.6l-21,8.3C158.5,240.3,155.1,240.1,151.9,238.7z"/>
				<path id="Fill-33_2_" class="st1" d="M75.8,370c9.2,4.1,17.2,10.1,22,16.3c3.8,5,5.1,9.7,3.7,12.8c-1.4,3.1-5.8,5.3-12.1,5.8
					c-7.8,0.6-17.6-1.4-26.8-5.5s-17.2-10.1-22-16.3c-3.8-5-5.1-9.7-3.7-12.8s5.8-5.3,12.1-5.8C56.9,363.9,66.6,365.9,75.8,370"/>
				<path id="Fill-34_2_" class="st14" d="M76,383.7c-2.4-1.1-3.4-3.9-2.3-6.3l2.5-5.5c1.1-2.4,3.9-3.5,6.2-2.5
					c2.4,1.1,3.4,3.9,2.3,6.3l-2.5,5.5C81.1,383.7,78.3,384.8,76,383.7"/>
				<path id="Fill-35_2_" class="st14" d="M64.6,378.6c-2.4-1.1-3.4-3.9-2.3-6.3l2.5-5.5c1.1-2.4,3.9-3.5,6.2-2.5
					c2.4,1.1,3.4,3.9,2.3,6.3l-2.5,5.5C69.7,378.6,66.9,379.7,64.6,378.6"/>
				<path id="Fill-36_2_" class="st14" d="M53.2,373.5c-2.4-1.1-3.4-3.9-2.3-6.3l2.5-5.5c1.1-2.4,3.9-3.5,6.2-2.5
					c2.4,1.1,3.4,3.9,2.3,6.3l-2.5,5.5C58.3,373.5,55.5,374.6,53.2,373.5"/>
				<path id="Fill-37_2_" class="st5" d="M42.2,367.5c-2.4-1.1-3.4-3.8-2.3-6.3l0.8-1.8c1.1-2.4,3.9-3.5,6.2-2.5
					c2.4,1.1,3.4,3.8,2.3,6.3l-0.9,1.9C47.3,367.5,44.6,368.5,42.2,367.5"/>
				<path id="Fill-38_2_" class="st14" d="M87.4,388.8c-2.4-1.1-3.4-3.9-2.3-6.3l2.5-5.5c1.1-2.4,3.9-3.5,6.2-2.5
					c2.4,1.1,3.4,3.9,2.3,6.3l-2.5,5.5C92.5,388.8,89.7,389.9,87.4,388.8"/>
				<path id="Fill-39_1_" class="st5" d="M99.2,393c-2.4-1.1-3.4-3.8-2.3-6.3l0.8-1.8c1.1-2.4,3.9-3.5,6.2-2.5
					c2.4,1.1,3.4,3.8,2.3,6.3l-0.9,1.9C104.3,393,101.5,394,99.2,393"/>
				<path id="Fill-40_1_" class="st1" d="M169.3,356c-0.2-0.1-0.3-0.5-0.1-0.7l2.5-5.5c0.1-0.3,0.4-0.5,0.6-0.4s0.3,0.5,0.1,0.7
					l-2.5,5.5C169.8,356,169.5,356.1,169.3,356"/>
				<path id="Fill-41_2_" class="st1" d="M165.1,365.5c-0.2-0.1-0.3-0.5-0.1-0.7l2-4.5c0.2-0.4,0.4-0.5,0.6-0.4
					c0.2,0.1,0.3,0.5,0.1,0.7l-2,4.5C165.6,365.4,165.3,365.6,165.1,365.5"/>
				<path id="Fill-42_2_" class="st1" d="M154.4,389.2c-0.2-0.1-0.3-0.5-0.1-0.7l7.1-16c0.1-0.3,0.4-0.5,0.6-0.4s0.3,0.5,0.1,0.7
					l-7.1,16C154.9,389.2,154.6,389.3,154.4,389.2"/>
				<path id="Fill-43_2_" class="st1" d="M148.1,403.5c-0.2-0.1-0.3-0.5-0.1-0.7l3.7-8.4c0.1-0.3,0.4-0.5,0.6-0.4
					c0.2,0.1,0.3,0.5,0.1,0.7l-3.7,8.4C148.5,403.5,148.3,403.6,148.1,403.5"/>
				<path id="Fill-44_2_" class="st1" d="M136.6,429.1c-0.2-0.1-0.3-0.5-0.1-0.7l5.4-12.1c0.1-0.3,0.4-0.5,0.6-0.4
					c0.2,0.1,0.3,0.5,0.1,0.7l-5.4,12.1C137,429.1,136.8,429.2,136.6,429.1"/>
				<path id="Fill-45_4_" class="st14" d="M67,403.7c-2.4-1.1-3.4-3.9-2.3-6.3l2.5-5.5c1.1-2.4,3.9-3.5,6.2-2.5
					c2.4,1.1,3.4,3.9,2.3,6.3l-2.5,5.5C72.1,403.7,69.4,404.7,67,403.7"/>
				<path id="Fill-46_2_" class="st14" d="M55.6,398.6c-2.4-1.1-3.4-3.9-2.3-6.3l2.5-5.5c1.1-2.4,3.9-3.5,6.2-2.5
					c2.4,1.1,3.4,3.9,2.3,6.3l-2.5,5.5C60.7,398.6,58,399.6,55.6,398.6"/>
				<path id="Fill-47_2_" class="st14" d="M44.2,393.5c-2.4-1.1-3.4-3.9-2.3-6.3l2.5-5.5c1.1-2.4,3.9-3.5,6.2-2.5
					c2.4,1.1,3.4,3.9,2.3,6.3l-2.5,5.5C49.4,393.5,46.6,394.5,44.2,393.5"/>
				<path id="Fill-48_2_" class="st14" d="M34.1,385.5c-2.4-1.1-3.4-3.8-2.4-6.2l1.3-2.8c1-2.3,3.8-3.4,6.2-2.4
					c2.4,1.1,3.4,3.8,2.4,6.2l-1.3,2.9C39.2,385.5,36.5,386.6,34.1,385.5"/>
				<path id="Fill-49_4_" class="st14" d="M78.4,408.8c-2.4-1.1-3.4-3.9-2.3-6.3l2.5-5.5c1.1-2.4,3.9-3.5,6.2-2.5
					c2.4,1.1,3.4,3.9,2.3,6.3l-2.5,5.5C83.5,408.8,80.8,409.8,78.4,408.8"/>
				<path id="Fill-50_4_" class="st14" d="M89.8,413.9c-2.4-1.1-3.4-3.9-2.3-6.3l2.5-5.5c1.1-2.4,3.9-3.5,6.2-2.5
					c2.4,1.1,3.4,3.9,2.3,6.3l-2.5,5.5C94.9,413.9,92.2,414.9,89.8,413.9"/>
				<path id="Fill-51_2_" class="st6" d="M82.2,369.4c-0.5-0.2-0.9-0.3-1.3-0.4c1.5,1.4,2.3,3.6,1.4,5.6l-2.5,5.5
					c-0.9,2-2.9,3-5.1,2.7c0.3,0.3,0.8,0.6,1.1,0.7c2.5,1.1,5.4,0,6.4-2.4l2.5-5.5C85.7,373.4,84.6,370.5,82.2,369.4"/>
				<path id="Fill-52_2_" class="st6" d="M70.8,364.3c-0.5-0.2-0.9-0.3-1.3-0.4c1.5,1.4,2.3,3.6,1.4,5.6l-2.5,5.5
					c-0.9,2-2.9,3-5.1,2.7c0.3,0.3,0.8,0.6,1.1,0.7c2.5,1.1,5.4,0,6.4-2.4l2.5-5.5C74.3,368.3,73.2,365.4,70.8,364.3"/>
				<path id="Fill-53_2_" class="st6" d="M59.4,359.2c-0.5-0.2-0.9-0.3-1.3-0.4c1.5,1.4,2.3,3.6,1.4,5.6L57,370
					c-0.9,2-2.9,3-5.1,2.7c0.3,0.3,0.8,0.6,1.1,0.7c2.5,1.1,5.4,0,6.4-2.4l2.5-5.5C62.9,363.2,61.8,360.3,59.4,359.2"/>
				<path id="Fill-54_2_" class="st6" d="M46.8,357c-0.5-0.2-0.9-0.3-1.3-0.4c1.5,1.4,2.3,3.6,1.4,5.5L46,364c-0.9,2-2.9,3-5.1,2.6
					c0.3,0.3,0.8,0.6,1.1,0.7c2.5,1.1,5.3,0.1,6.4-2.4l0.8-1.8C50.2,360.9,49.1,358,46.8,357"/>
				<path id="Fill-55_2_" class="st6" d="M93.6,374.5c-0.5-0.2-0.9-0.3-1.3-0.4c1.5,1.4,2.3,3.6,1.4,5.6l-2.5,5.5
					c-0.9,2-2.9,3-5.1,2.7c0.3,0.3,0.8,0.6,1.1,0.7c2.5,1.1,5.4,0,6.4-2.4l2.5-5.5C97.1,378.5,96,375.6,93.6,374.5"/>
				<path id="Fill-56_2_" class="st6" d="M103.8,382.5c-0.5-0.2-0.9-0.3-1.3-0.4c1.5,1.4,2.3,3.6,1.4,5.5l-0.9,1.9
					c-0.9,2-2.9,3-5.1,2.6c0.3,0.3,0.8,0.6,1.1,0.7c2.5,1.1,5.3,0.1,6.4-2.4l0.8-1.8C107.2,386.4,106.1,383.6,103.8,382.5"/>
				<path id="Fill-57_4_" class="st6" d="M73.3,389.4c-0.5-0.2-0.9-0.3-1.3-0.4c1.5,1.4,2.3,3.6,1.4,5.6l-2.5,5.5
					c-0.9,2-2.9,3-5.1,2.7c0.3,0.3,0.8,0.6,1.1,0.7c2.5,1.1,5.4,0,6.4-2.4l2.5-5.5C76.8,393.3,75.7,390.4,73.3,389.4"/>
				<path id="Fill-58_2_" class="st6" d="M61.9,384.3c-0.5-0.2-0.9-0.3-1.3-0.4c1.5,1.4,2.3,3.6,1.4,5.6l-2.5,5.5
					c-0.9,2-2.9,3-5.1,2.7c0.3,0.3,0.8,0.6,1.1,0.7c2.5,1.1,5.4,0,6.4-2.4l2.5-5.5C65.4,388.2,64.3,385.3,61.9,384.3"/>
				<path id="Fill-59_2_" class="st6" d="M50.5,379.2c-0.5-0.2-0.9-0.3-1.3-0.4c1.5,1.4,2.3,3.6,1.4,5.6l-2.5,5.5
					c-0.9,2-2.9,3-5.1,2.7c0.3,0.3,0.8,0.6,1.1,0.7c2.5,1.1,5.4,0,6.4-2.4l2.5-5.5C54,383.1,52.9,380.2,50.5,379.2"/>
				<path id="Fill-60_2_" class="st6" d="M39.1,374.1c-0.5-0.2-0.9-0.3-1.3-0.4c1.6,1.3,2.3,3.5,1.4,5.5l-1.3,2.9
					c-0.9,1.9-2.9,2.9-5.1,2.6c0.3,0.3,0.8,0.6,1.1,0.7c2.5,1.1,5.3,0.1,6.4-2.3l1.3-2.9C42.6,377.9,41.5,375.1,39.1,374.1"/>
				<path id="Fill-61_4_" class="st6" d="M84.7,394.5c-0.5-0.2-0.9-0.3-1.3-0.4c1.5,1.4,2.3,3.6,1.4,5.6l-2.5,5.5
					c-0.9,2-2.9,3-5.1,2.7c0.3,0.3,0.8,0.6,1.1,0.7c2.5,1.1,5.4,0,6.4-2.4l2.5-5.5C88.2,398.4,87.1,395.5,84.7,394.5"/>
				<path id="Fill-62_4_" class="st6" d="M96.1,399.6c-0.5-0.2-0.9-0.3-1.3-0.4c1.5,1.4,2.3,3.6,1.4,5.6l-2.5,5.5
					c-0.9,2-2.9,3-5.1,2.7c0.3,0.3,0.8,0.6,1.1,0.7c2.5,1.1,5.4,0,6.4-2.4l2.5-5.5C99.6,403.5,98.5,400.7,96.1,399.6"/>
				<path id="Fill-63_2_" class="st1" d="M81.7,369.6c-2-0.9-4.3,0-5.3,2.1l-2.4,5.4c-0.9,2,0,4.4,2,5.3s4.3,0,5.3-2.1l2.4-5.4
					C84.6,372.8,83.7,370.4,81.7,369.6z M75.5,383.5c-2.7-1.2-3.8-4.3-2.5-7.1l2.4-5.4c1.2-2.7,4.3-4,7-2.8c2.7,1.2,3.8,4.3,2.5,7.1
					l-2.4,5.4C81.2,383.5,78.1,384.7,75.5,383.5z"/>
				<path id="Fill-64_2_" class="st14" d="M70.3,364.4c-2-0.9-4.3,0-5.3,2.1l-2.4,5.4c-0.9,2,0,4.4,2,5.3c2,0.9,4.3,0,5.3-2.1
					l2.4-5.4C73.2,367.7,72.3,365.3,70.3,364.4z M64.1,378.4c-2.7-1.2-3.8-4.3-2.5-7.1l2.4-5.4c1.2-2.7,4.3-4,7-2.8
					c2.7,1.2,3.8,4.3,2.5,7.1l-2.4,5.4C69.8,378.4,66.7,379.6,64.1,378.4z"/>
				<path id="Fill-65_2_" class="st1" d="M58.9,359.3c-2-0.9-4.3,0-5.3,2.1l-2.4,5.4c-0.9,2,0,4.4,2,5.3c2,0.9,4.3,0,5.3-2.1
					l2.4-5.4C61.8,362.6,60.9,360.2,58.9,359.3z M52.7,373.3c-2.7-1.2-3.8-4.3-2.5-7.1l2.4-5.4c1.2-2.7,4.3-4,7-2.8
					c2.7,1.2,3.8,4.3,2.5,7.1l-2.4,5.4C58.4,373.2,55.3,374.5,52.7,373.3z"/>
				<path id="Fill-66_4_" class="st1" d="M46.8,358.5c-2-0.9-4.3,0-5.2,2l-0.8,1.7c-0.9,2,0,4.3,2,5.2c2,0.9,4.3,0,5.2-2l0.8-1.7
					C49.7,361.7,48.8,359.4,46.8,358.5z M42.2,368.6c-2.7-1.2-3.8-4.3-2.6-7l0.8-1.7c1.2-2.7,4.3-3.9,6.9-2.7c2.7,1.2,3.8,4.3,2.6,7
					l-0.8,1.7C47.9,368.7,44.9,369.8,42.2,368.6z"/>
				<path id="Fill-67_2_" class="st1" d="M93.1,374.7c-2-0.9-4.3,0-5.3,2.1l-2.4,5.4c-0.9,2,0,4.4,2,5.3s4.3,0,5.3-2.1l2.4-5.4
					C96,377.9,95.1,375.5,93.1,374.7z M86.9,388.6c-2.7-1.2-3.8-4.3-2.5-7.1l2.4-5.4c1.2-2.7,4.3-4,7-2.8s3.8,4.3,2.5,7.1l-2.4,5.4
					C92.6,388.6,89.5,389.8,86.9,388.6z"/>
				<path id="Fill-68_4_" class="st1" d="M102.8,383.6c-2-0.9-4.3,0-5.2,2l-0.8,1.7c-0.9,2,0,4.3,2,5.2s4.3,0,5.2-2l0.8-1.7
					C105.7,386.8,104.8,384.5,102.8,383.6z M98.3,393.7c-2.7-1.2-3.8-4.3-2.6-7l0.8-1.7c1.2-2.7,4.3-3.9,6.9-2.7
					c2.7,1.2,3.8,4.3,2.6,7l-0.8,1.7C104,393.8,100.9,394.9,98.3,393.7z"/>
				<path id="Fill-69_2_" class="st1" d="M72.4,390.4c-2-0.9-4.3,0-5.3,2.1l-2.4,5.4c-0.9,2,0,4.4,2,5.3c2,0.9,4.3,0,5.3-2.1
					l2.4-5.4C75.3,393.7,74.4,391.3,72.4,390.4z M66.1,404.4c-2.7-1.2-3.8-4.3-2.5-7.1l2.4-5.4c1.2-2.7,4.3-4,7-2.8s3.8,4.3,2.5,7.1
					l-2.4,5.4C71.8,404.4,68.8,405.6,66.1,404.4z"/>
				<path id="Fill-70_2_" class="st1" d="M61,385.3c-2-0.9-4.3,0-5.3,2.1l-2.4,5.4c-0.9,2,0,4.4,2,5.3c2,0.9,4.3,0,5.3-2.1l2.4-5.4
					C63.9,388.6,63,386.2,61,385.3z M54.7,399.3c-2.7-1.2-3.8-4.3-2.5-7.1l2.4-5.4c1.2-2.7,4.3-4,7-2.8c2.7,1.2,3.8,4.3,2.5,7.1
					l-2.4,5.4C60.5,399.2,57.4,400.5,54.7,399.3z"/>
				<path id="Fill-71_4_" class="st1" d="M49.6,380.2c-2-0.9-4.3,0-5.3,2.1l-2.4,5.4c-0.9,2,0,4.4,2,5.3c2,0.9,4.3,0,5.3-2.1
					l2.4-5.4C52.5,383.5,51.6,381.1,49.6,380.2z M43.3,394.2c-2.7-1.2-3.8-4.3-2.5-7.1l2.4-5.4c1.2-2.7,4.3-4,7-2.8
					c2.7,1.2,3.8,4.3,2.5,7.1l-2.4,5.4C49.1,394.1,46,395.4,43.3,394.2z"/>
				<path id="Fill-72_4_" class="st1" d="M39.1,375.6c-2-0.9-4.3,0-5.2,2l-1.3,2.8c-0.9,2,0,4.3,2,5.2c2,0.9,4.3,0,5.2-2l1.3-2.8
					C42.1,378.7,41.1,376.5,39.1,375.6z M34.2,386.7c-2.7-1.2-3.8-4.2-2.6-6.9l1.3-2.8c1.1-2.6,4.2-3.8,6.9-2.6
					c2.7,1.2,3.8,4.2,2.6,6.9l-1.3,2.8C39.8,386.7,36.8,387.9,34.2,386.7z"/>
				<path id="Fill-73_2_" class="st1" d="M83.8,395.6c-2-0.9-4.3,0-5.3,2.1l-2.4,5.4c-0.9,2,0,4.4,2,5.3c2,0.9,4.3,0,5.3-2.1
					l2.4-5.4C86.7,398.8,85.8,396.4,83.8,395.6z M77.5,409.5c-2.7-1.2-3.8-4.3-2.5-7.1l2.4-5.4c1.2-2.7,4.3-4,7-2.8
					c2.7,1.2,3.8,4.3,2.5,7.1l-2.4,5.4C83.2,409.5,80.2,410.7,77.5,409.5z"/>
				<path id="Fill-74_4_" class="st1" d="M95.2,400.7c-2-0.9-4.3,0-5.3,2.1l-2.4,5.4c-0.9,2,0,4.4,2,5.3c2,0.9,4.3,0,5.3-2.1
					l2.4-5.4C98.1,403.9,97.2,401.5,95.2,400.7z M88.9,414.6c-2.7-1.2-3.8-4.3-2.5-7.1l2.4-5.4c1.2-2.7,4.3-4,7-2.8
					c2.7,1.2,3.8,4.3,2.5,7.1l-2.4,5.4C94.6,414.6,91.6,415.8,88.9,414.6z"/>
				<path id="Fill-75_1_" class="st3" d="M78.3,363.1c-22.3-10-44.8-8.1-50.4,4.2s8.1,30.4,30.4,40.4c22.3,10,44.8,8.1,50.4-4.2
					C114.2,391.3,100.7,373.1,78.3,363.1z M75,370.6c9.1,4.1,17.1,10,21.8,16.3c3.8,5,5.1,9.7,3.7,12.9s-5.8,5.4-12.1,5.9
					c-7.8,0.6-17.5-1.3-26.6-5.4c-9.1-4.1-17.1-10-21.8-16.3c-3.8-5-5.1-9.7-3.7-12.9c1.4-3.2,5.8-5.4,12.1-5.9
					C56.1,364.6,65.9,366.6,75,370.6z"/>
				<path id="Fill-76_1_" class="st7" d="M48.5,364.3c7.5-0.6,16.7,1.2,25.4,5c-0.4-0.2-0.8-0.3-1.2-0.6c-9.1-4.1-18.8-6-26.6-5.4
					c-6.3,0.5-10.6,2.6-12.1,5.8c-1.4,3.1-0.1,7.8,3.7,12.8c4.7,6.2,12.7,12.2,21.8,16.3c0.4,0.2,0.8,0.3,1.2,0.6
					c-8.7-4.1-16.1-9.7-20.6-15.6c-3.8-5-5.1-9.7-3.7-12.8C37.8,367.1,42.4,364.8,48.5,364.3"/>
				<path id="Fill-77_1_" class="st7" d="M78.1,363c-0.4-0.2-0.8-0.3-1.2-0.6c21.7,10.2,34.9,27.8,29.4,40
					c-5.4,12.1-27.4,14.1-49.4,4.7c0.4,0.2,0.8,0.3,1.2,0.6c22.4,10,45,8.2,50.5-4.2C114.2,391.3,100.6,373.1,78.1,363"/>
				<path id="Fill-78_1_" class="st1" d="M74.9,370.8c-9.1-4.1-18.8-6.1-26.5-5.5c-6,0.5-10.2,2.5-11.6,5.4s0,7.4,3.6,12.2
					c4.6,6.2,12.6,12,21.7,16.1c9.1,4.1,18.8,6.1,26.5,5.5c6-0.5,10.2-2.5,11.6-5.4c1.3-2.9,0-7.4-3.6-12.2
					C91.9,380.9,84,374.9,74.9,370.8z M61.7,400.4c-9.3-4.2-17.4-10.2-22.2-16.6c-3.9-5.2-5.4-10.2-3.8-13.6
					c1.5-3.4,6.2-5.7,12.7-6.2c7.9-0.7,17.9,1.4,27.2,5.5c9.3,4.2,17.4,10.2,22.2,16.6c3.9,5.2,5.4,10.2,3.8,13.6
					c-1.5,3.4-6.2,5.7-12.7,6.2C80.9,406.6,71,404.5,61.7,400.4z M78.2,363.4c-22.1-9.9-44.4-8.3-49.8,3.7
					c-5.4,12,8.3,29.7,30.4,39.6c22.1,9.9,44.4,8.3,49.8-3.7C113.9,391,100.3,373.3,78.2,363.4z M58.3,407.8
					c-22.8-10.2-36.7-28.8-31.1-41.3c5.6-12.5,28.7-14.5,51.5-4.3c22.8,10.2,36.7,28.8,31.1,41.3C104.2,416.1,81.1,418,58.3,407.8z"
					/>
				<path id="Fill-79_2_" class="st8" d="M97.7,415.3c1.9-4.3,0.4-9.2-3.4-11.7c-1.5,0.6-3.3,0.9-5.2,1.2l-1-0.5l1.2-2.7
					c0-0.1,0.1-0.3,0.2-0.4l-2.8-1.3c0,0.1-0.1,0.3-0.2,0.4l-1.2,2.7l-8.5-3.8l1.2-2.7c0-0.1,0.1-0.3,0.2-0.4l-2.8-1.3
					c0,0.1-0.1,0.3-0.2,0.4l-1.2,2.7l-8.5-3.8l1.2-2.7c0-0.1,0.1-0.3,0.2-0.4l-2.8-1.3c0,0.1-0.1,0.3-0.2,0.4l-1.2,2.7l-8.5-3.8
					l1.2-2.7c0-0.1,0.1-0.3,0.2-0.4l-2.8-1.3c0,0.1-0.1,0.3-0.2,0.4l-1.2,2.7l-8.5-3.8l1.2-2.7c0-0.1,0.1-0.2,0.1-0.3
					c-1.1-0.3-2.2-0.4-3.3-0.3l-0.9,2l-2.5-1.1c-1.9,1-3.5,2.5-4.5,4.6c-0.1,0.2-0.2,0.4-0.2,0.5c-0.1,0.2-0.2,0.4-0.2,0.5
					l-21.1,47.1c-2.4,5.3,0.1,11.5,5.3,13.9c2.3,1,4.8,1.1,7.1,0.5l-7,15.6c-2.4,5.3,0.1,11.5,5.3,13.9c5.2,2.3,11.5-0.1,13.9-5.3
					l16.5-36.9c1.1,2.1,2.8,3.9,5.1,4.9c5.3,2.4,11.5-0.1,13.9-5.3l1.4-3.2c1,1.3,2.3,2.3,3.8,3c5.3,2.4,11.5-0.1,13.9-5.3l6.3-14
					c0.1-0.2,0.2-0.4,0.2-0.5C97.6,415.5,97.7,415.5,97.7,415.3"/>
				<path id="Fill-80_1_" class="st9" d="M75.2,397.1l2.8,1.2l0.7-1.5c0-0.1,0.1-0.2,0.2-0.4l-2.8-1.3c0,0.1-0.1,0.2-0.2,0.4
					L75.2,397.1"/>
				<path id="Fill-81_1_" class="st9" d="M52.4,386.9l2.8,1.2l0.7-1.5c0-0.1,0.1-0.2,0.2-0.4l-2.8-1.3c0,0.1-0.1,0.2-0.2,0.4
					L52.4,386.9"/>
				<path id="Fill-82_1_" class="st9" d="M63.8,392l2.8,1.2l0.7-1.5c0-0.1,0.1-0.2,0.2-0.4l-2.8-1.3c0,0.1-0.1,0.2-0.2,0.4L63.8,392
					"/>
				<path id="Fill-83_1_" class="st9" d="M86.6,402.2l0.7,0.3c0.9,0,1.8-0.2,2.6-0.3l0.1-0.3c0-0.1,0.1-0.2,0.2-0.4l-2.8-1.3
					c0,0.1-0.1,0.2-0.2,0.4L86.6,402.2"/>
				<path id="Fill-84_1_" class="st9" d="M71.2,430.6l-1.7,3.8c-2.3,5.2-8.7,7.5-14.1,5.1c-0.4-0.2-0.8-0.3-1.1-0.6
					c1,1.3,2.3,2.2,3.9,2.9c5.4,2.4,11.8,0.1,14.1-5.1l1.7-3.8C72.8,432.4,71.9,431.5,71.2,430.6"/>
				<path id="Fill-85_1_" class="st9" d="M43.8,383l0.7-1.6c0-0.1,0.1-0.2,0.1-0.3c-1.1-0.3-2.2-0.4-3.2-0.4l-0.5,1L43.8,383"/>
				<path id="Fill-86_1_" class="st9" d="M98.7,415.6c1.9-4.3,0.3-9.3-3.7-11.9c-0.1,0-0.1,0.1-0.2,0c2,2.7,2.5,6.2,1,9.5
					c-0.1,0.2-0.2,0.4-0.2,0.5c-0.1,0.2-0.2,0.4-0.2,0.5l-6.3,14c-2.4,5.3-8.8,7.7-14.2,5.3c-0.4-0.2-0.8-0.3-1.1-0.6
					c1,1.3,2.3,2.3,3.9,3c5.4,2.4,11.8,0.1,14.2-5.3l6.2-13.9c0.1-0.2,0.2-0.4,0.2-0.5C98.6,416,98.7,415.8,98.7,415.6"/>
				<path id="Fill-87_1_" class="st9" d="M51.7,433.3l-17.4,38.8c-2.4,5.3-8.8,7.7-14.2,5.3c-0.4-0.2-0.8-0.3-1.1-0.6
					c1,1.3,2.3,2.3,3.9,3c5.4,2.4,11.8,0.1,14.2-5.3l17-37.9C53.1,435.6,52.3,434.5,51.7,433.3"/>
				<path id="Fill-88_1_" class="st9" d="M26.5,447.1c-2.3,0.7-9.5,0.3-12-0.8c-0.4-0.2-0.8-0.3-1.1-0.6c1,1.3,2.4,2.2,3.9,2.9
					c1,0.5,6.8,0.9,8,1.1L26.5,447.1"/>
				<path id="Fill-89_1_" class="st1" d="M24.4,449.7c0.1,0,0.2,0.1,0.2,0.2c0.1,0.2,0.3,0.5,0.1,0.7l-7,15.7
					c-2.3,5-0.1,10.9,4.9,13.2c5,2.3,10.9,0,13.1-5.1l16.7-37.2c0.1-0.2,0.3-0.4,0.6-0.4c0.2,0,0.5,0.1,0.6,0.4
					c1,2.1,2.7,3.7,4.8,4.6c4.9,2.2,10.9,0,13.1-5.1l1.5-3.3c0.1-0.2,0.3-0.3,0.5-0.3c0.2,0,0.4,0.1,0.6,0.3
					c0.9,1.2,2.1,2.1,3.6,2.7c4.9,2.2,10.9,0,13.1-5.1l6.3-14c0-0.1,0.1-0.2,0.1-0.3l0.1-0.2l0.1-0.2c0-0.1,0.1-0.2,0.2-0.4
					c1.7-3.8,0.4-8.4-2.9-10.8c-1.5,0.6-3.3,0.9-5.1,1.1c-0.1,0.1-0.2,0-0.3,0l-1-0.5c-0.3-0.1-0.4-0.5-0.3-0.8l1.1-2.5l-1.6-0.7
					l-1.1,2.5c-0.1,0.3-0.5,0.4-0.8,0.3l-8.5-3.8c-0.3-0.1-0.4-0.5-0.3-0.8l1.1-2.5l-1.6-0.7l-1.1,2.5c-0.1,0.3-0.5,0.4-0.8,0.3
					l-8.5-3.8c-0.3-0.1-0.4-0.5-0.3-0.8l1.1-2.5l-1.6-0.7l-1.1,2.5c-0.1,0.3-0.5,0.4-0.8,0.3l-8.5-3.8c-0.3-0.1-0.4-0.5-0.3-0.8
					l1.1-2.5l-1.6-0.7l-1.1,2.5c-0.1,0.3-0.5,0.4-0.8,0.3l-8.5-3.8c-0.3-0.1-0.4-0.5-0.3-0.8l1-2.2c-0.6-0.2-1.2-0.1-1.9-0.2
					l-0.7,1.6c-0.1,0.3-0.5,0.4-0.8,0.3l-2.1-0.9c-1.8,0.9-3.1,2.4-3.9,4.2c0,0.1-0.1,0.2-0.1,0.3l-0.1,0.2l-0.1,0.2
					c0,0.1-0.1,0.2-0.1,0.3l-21.3,47.5c-2.3,5-0.1,10.9,4.9,13.2c2.1,0.9,4.4,1.1,6.6,0.5C24.1,449.6,24.2,449.6,24.4,449.7z
					 M22.1,480.5c-5.6-2.5-8.1-9.2-5.6-14.8l6.5-14.5c-2.1,0.3-4.2,0-6.2-0.9c-5.6-2.5-8.1-9.2-5.6-14.8L32.5,388
					c0-0.1,0.1-0.3,0.2-0.4l0.1-0.2l0-0.1c0-0.1,0.1-0.3,0.2-0.4c1-2.2,2.7-3.9,4.9-5c0.1-0.1,0.4-0.1,0.6,0l1.8,0.8l0.6-1.4
					c0.1-0.2,0.3-0.3,0.5-0.4c1.2,0,2.3,0,3.5,0.3c0.2,0.1,0.4,0.2,0.4,0.4c0.1,0.1,0.1,0.4,0,0.6l-0.1,0.2l-1,2.2l7.3,3.3l0.9-2.1
					c0-0.1,0-0.1,0.1-0.2l0.1-0.2c0.1-0.2,0.2-0.4,0.4-0.4c0.1-0.1,0.4-0.1,0.6,0l2.8,1.3c0.2,0.1,0.2,0.2,0.4,0.4
					c0.1,0.1,0.1,0.4,0,0.6l-0.1,0.2c0,0.1,0,0.1-0.1,0.2l-0.9,2.1L63,393l0.9-2.1c0-0.1,0-0.1,0.1-0.2l0.1-0.2
					c0.1-0.2,0.2-0.4,0.4-0.4c0.1-0.1,0.4-0.1,0.6,0l2.8,1.3c0.2,0.1,0.2,0.2,0.4,0.4c0.1,0.1,0.1,0.4,0,0.6l-0.1,0.2
					c0,0.1,0,0.1-0.1,0.2l-0.9,2.1l7.3,3.3l0.9-2.1c0-0.1,0-0.1,0.1-0.2l0.1-0.2c0.1-0.2,0.2-0.4,0.4-0.4c0.1-0.1,0.4-0.1,0.6,0
					l2.8,1.3c0.2,0.1,0.3,0.3,0.4,0.4c0.1,0.1,0.1,0.4,0,0.6l-0.1,0.2c0,0.1,0,0.1-0.1,0.2l-0.9,2.1l7.3,3.3l0.9-2.1
					c0-0.1,0-0.1,0.1-0.2l0.1-0.2c0.1-0.2,0.2-0.4,0.4-0.4c0.1-0.1,0.4-0.1,0.6,0l2.8,1.3c0.2,0.1,0.2,0.2,0.4,0.4
					c0.1,0.1,0.1,0.4,0,0.6l-0.1,0.2c0,0.1,0,0.1-0.1,0.2l-0.9,2.1l0.3,0.1c1.8-0.2,3.5-0.6,4.9-1.1c0.1-0.1,0.4-0.1,0.6,0
					c4.1,2.6,5.6,8.1,3.6,12.6c-0.1,0.2-0.1,0.3-0.2,0.5l0,0.1l0,0.1c0,0.1-0.1,0.3-0.2,0.4l-6.3,14c-2.6,5.7-9.2,8.2-14.8,5.7
					c-1.2-0.6-2.4-1.3-3.3-2.3l-1.1,2.4c-2.6,5.7-9.2,8.2-14.8,5.7c-1.9-0.9-3.6-2.3-4.8-4.1l-16.1,36
					C34.3,480.5,27.7,483,22.1,480.5z"/>
				<path id="Fill-90_1_" class="st8" d="M203.4,273.6L203.4,273.6L203.4,273.6c-0.2-8.7-2.2-16-2.2-16c2.3-10.7-4.5-12.3-4.5-12.3
					c4-10-5-13.2-5-13.2c-0.2-6.2-6.1-11.1-6.1-11.1c-11.3-10.3-15.9-2.3-15.9-2.3l0.3,0.4l-10.5,2.5c0.1,1.4,0.2,2.8,0.7,4.2
					c0.6,1.7,1.6,3.1,2.8,4.2c-1.3,4-1.5,8.1-1.5,8.1l0.2,0.1c-5,2.9-7.3,9.2-5.1,14.7c2.3,5.9,8.6,9,14.6,7.2
					c-5.7,2.7-8.4,9.3-6.1,15.2c1.8,5,6.8,8,11.9,7.7c0,0,2.9-0.5,3.6-0.8l5.1,2.3c-1,2.6-1.1,5.7-0.1,8.5c0.6,1.5,1.4,2.8,2.4,3.9
					l11.6-5.2C202.7,286.8,203.5,279.9,203.4,273.6"/>
				<path id="Fill-91_1_" class="st9" d="M183.7,229c0.1,0.8,0.2,1.7,0.2,2.5c0.1,2.9,0.4,5.8,0.9,8.6c0.1,0.5,0.2,1,0.7,1.1
					c0.2,0.1,0.4-0.1,0.6-0.1c0.9-0.3,1.8-0.7,2.4-1.3c0.4-0.5,0.7-1.1,1-1.8c0.4-0.9,0.8-2,1.1-3c-1.5-1-2.1-2.9-2.9-4.6
					c-0.4-1-0.7-1.9-1.2-2.8c-0.4-0.7-0.7-1.5-1.3-2.1c-0.5-0.6-1.3-0.9-2.1-1.2c-1.4-0.5-2.7-0.9-4.1-1
					C181.5,224.3,183.3,226.5,183.7,229"/>
				<path id="Fill-92_1_" class="st9" d="M179.1,223.6L179.1,223.6L179.1,223.6L179.1,223.6"/>
				<path id="Fill-93_1_" class="st9" d="M185.9,271.6l-2.5,2.2l-4.6,8.9l4.5,2c0,0,1.9-3.4,4.2-8.7
					C189.8,270.7,185.9,271.6,185.9,271.6"/>
				<path id="Fill-94_1_" class="st9" d="M202.2,285.8l1.6-9.5l-1.2-12.6l-1.1-6.1l-2.7,6.1l-2,2.5l-2.9,0.9l1,2.9l-1,3.2l0,0.2
					l-2.6,2.8l-2.5,3.2l0,0.8l1.4,0.3c0,0,4-0.5,5-2.4l-0.8,2.1l-0.2,0.5c0,0-4,13.5,5.9,10.8L202.2,285.8"/>
				<path id="Fill-95_1_" class="st9" d="M201.3,250.1c-1.1-5-4.7-4.6-4.7-4.6l0.6,11.2C197.1,256.7,202.3,255.3,201.3,250.1"/>
				<path id="Fill-96_1_" class="st9" d="M190.6,253.8c0,0-11.3-8.9-12.7-16.4c-1.4-7.5-4.2-1.9-4.2-1.9l0.3,3.6l3.4,4.9
					L190.6,253.8"/>
				<path id="Fill-97_1_" class="st9" d="M191.7,256.6l-4,2.6l-6.9,1.1l-8.9-3.1c0,0,4.3,12.1,11.9,10.3
					C191.4,265.7,191.7,256.6,191.7,256.6"/>
				<path id="Fill-98_1_" class="st1" d="M186.5,241.7c-0.1,0-0.2-0.1-0.2-0.2c-0.2-0.3-0.2-0.6,0.1-0.9c3.2-2.7,4.9-5.6,4.9-8.6
					c-0.1-5.9-6-10.6-6-10.8c-4.3-3.7-8-5.5-11.1-5.1c-2.8,0.4-3.9,2.5-3.9,2.5c-0.1,0.3-0.6,0.4-0.9,0.2c-0.3-0.1-0.4-0.5-0.3-0.9
					c0-0.1,1.5-2.6,4.9-3.1c3.5-0.5,7.5,1.3,12.1,5.4c0.2,0.2,6.4,5.3,6.5,11.7c0,3.5-1.8,6.8-5.4,9.7
					C187,241.8,186.7,241.8,186.5,241.7"/>
				<path id="Fill-99_1_" class="st1" d="M161.3,239.5c-0.2-0.1-0.4-0.3-0.4-0.6c0.1-0.7,0.5-15.4,9.2-15.4l2,0
					c7.1,0,11.8-0.1,12.5,6.7c0.1,1.1,0.2,2.1,0.3,3.2c0.3,3.9,0.5,8,2.1,8.9c0.5,0.4,1.3,0.2,2.2-0.3c0.3-0.2,0.7,0,0.9,0.3
					c0.2,0.3,0,0.7-0.3,0.9c-1.3,0.7-2.5,0.7-3.4,0.2c-2.1-1.2-2.4-5.3-2.8-9.9c-0.1-1.1-0.2-2.1-0.3-3.2c-0.5-5.5-3.6-5.6-11.2-5.6
					l-2,0c-7.4,0-7.9,14-7.9,14.1c0,0.3-0.3,0.7-0.6,0.6C161.5,239.6,161.4,239.5,161.3,239.5"/>
				<path id="Fill-100_1_" class="st1" d="M174.6,259.1c-2.7-1.2-4.3-2.6-4.5-2.7c-0.2-0.2-0.3-0.6,0-0.9c0.2-0.2,0.6-0.3,0.9,0
					c0.1,0,7.8,6.5,15.8,2.9c2.4-1.1,3.7-2,3.8-2.7c0.2-1.2-2.5-3-6-5.3c-1.6-1.1-3.3-2.3-5.2-3.6c-4-2.9-6.2-6-6.6-9.2
					c-0.4-3.2,1.4-5.3,1.5-5.4c0.2-0.2,0.6-0.3,0.9,0c0.2,0.2,0.3,0.7,0,0.9c0,0.1-1.5,1.7-1.2,4.4c0.4,2.8,2.4,5.6,6.1,8.3
					c1.9,1.4,3.6,2.5,5.2,3.6c4.4,3,6.8,4.5,6.6,6.5c-0.1,1.3-1.4,2.4-4.6,3.9C182.4,261.7,177.8,260.6,174.6,259.1"/>
				<path id="Fill-101_1_" class="st1" d="M188.9,280.4c-0.2-0.1-0.4-0.3-0.6-0.5c-0.6-1,0.3-2.4,2.9-4.9c2.1-2,3.1-4,3.1-5.6
					c-0.1-1.5-1.1-2.3-1.1-2.3c-0.2-0.2-0.3-0.5-0.2-0.8c0.1-0.3,0.4-0.4,0.7-0.4c0,0,1.3,0.4,2.8-0.7c1.9-1.2,3.4-4,4.2-7.9
					c2.1-9.9-3.9-11.3-4-11.4c-0.2-0.1-0.4-0.2-0.4-0.3s-0.1-0.4,0-0.6c1.2-2.9,1.3-5.5,0.4-7.7c-1.5-3.3-4.9-4.6-5-4.6
					c-0.3-0.1-0.5-0.4-0.4-0.9c0.1-0.4,0.4-0.5,0.9-0.4c0.2,0.1,4,1.5,5.7,5.3c1,2.3,1.1,5-0.1,8.1c0,0,0,0,0.1,0
					c1.8,0.8,6.1,3.7,4.3,12.6c-1,4.5-2.6,7.4-4.8,8.8c-0.8,0.5-1.6,0.8-2.2,0.8c0.3,0.5,0.6,1.2,0.7,2c0.1,2.1-1,4.3-3.4,6.7
					c-2.6,2.6-2.6,3.3-2.7,3.4c0.1,0,0.9,0,1.5-0.2c0.4-0.1,0.7,0.1,0.8,0.5c0.1,0.4-0.1,0.7-0.5,0.8
					C190.8,280.4,189.7,280.7,188.9,280.4"/>
				<path id="Fill-102_1_" class="st1" d="M195.8,258.4c-0.3-0.1-0.4-0.4-0.4-0.6c0-0.1,1.3-14.9-1.6-20.6c-0.2-0.3,0-0.7,0.3-0.9
					c0.3-0.2,0.7,0,0.9,0.3c3.1,6.1,1.9,20.8,1.8,21.3c0,0.3-0.4,0.6-0.7,0.6C196,258.5,195.9,258.4,195.8,258.4"/>
				<path id="Fill-103_1_" class="st1" d="M179.4,283c-0.4-0.2-0.4-0.5-0.3-0.8c0.1-0.3,0.5-0.4,0.8-0.3l6.9,3.1
					c0.1,0,2.7,0.8,6-3.9c3.2-4.7,0.3-7.6,0.2-7.6c-0.2-0.2-0.3-0.7,0-0.9s0.7-0.3,0.9,0c0,0,3.8,3.7-0.1,9.3
					c-3.9,5.6-7.4,4.5-7.5,4.4L179.4,283"/>
				<path id="Fill-104_1_" class="st1" d="M176.3,285c-0.3-0.1-0.5-0.4-0.3-0.8c0.1-0.3,0.5-0.6,0.8-0.5c0,0,2.2,0.3,5-6.2
					c3.2-7.9,7.4-7.2,7.6-7.2c0.3,0,0.6,0.4,0.5,0.8c0,0.3-0.4,0.6-0.7,0.6c-0.1,0-3.4-0.4-6.2,6.4
					C179.7,285.8,176.6,285.1,176.3,285L176.3,285"/>
				<path id="Fill-105_1_" class="st1" d="M199.5,293.1C199.4,293.1,199.4,293.1,199.5,293.1c-0.4-0.2-0.5-0.7-0.3-0.9
					c7.2-12,1.1-33.8,1.1-34.1c-0.1-0.4,0.1-0.7,0.5-0.8c0.4-0.1,0.7,0.1,0.8,0.5c0.3,0.9,6.3,22.6-1.2,35
					C200.2,293.2,199.8,293.2,199.5,293.1"/>
				<path id="Fill-106_1_" class="st1" d="M195.9,292.6c-0.2-0.1-0.3-0.3-0.3-0.5c-0.6-2.9-0.3-5.4,1-7.3c1.3-1.8,3.1-2.7,4.4-3.2
					c-2.9-2.4-2-5.3-1.1-7.9c0.3-0.9,0.6-1.8,0.7-2.6c0.6-3.5-2.9-6-3-6c-0.2-0.2-0.4-0.6-0.2-0.9c0.2-0.2,0.6-0.4,0.9-0.2
					c0.2,0.1,4.2,3,3.5,7.3c-0.2,0.9-0.5,1.9-0.8,2.8c-0.9,2.9-1.6,5.1,1.7,7.2c0.3,0.1,0.4,0.4,0.3,0.7c0,0.3-0.3,0.4-0.6,0.5
					c0,0-3.2,0.5-4.9,3c-1.1,1.7-1.3,3.7-0.9,6.2c0.1,0.4-0.2,0.7-0.5,0.8C196.2,292.7,196,292.7,195.9,292.6"/>
				<path id="Fill-107_1_" class="st1" d="M181.1,281.3l5.2,2.3c0.3,0.1,0.4,0.5,0.3,0.8c-1,2.6-1,5.5,0.1,8
					c0.5,1.2,1.1,2.3,2.1,3.3l11.1-4.9c2.5-4.3,3.7-10.2,3.4-17.8l0,0c-0.3-8.5-2.3-15.8-2.4-15.9c-0.1-0.1,0-0.2,0-0.3
					c2.1-9.9-4.1-11.5-4.1-11.4c-0.2-0.1-0.4-0.2-0.4-0.3s-0.1-0.4,0-0.6c1.2-2.9,1.3-5.6,0.3-7.7c-1.5-3.3-5-4.6-5.1-4.7
					c-0.3-0.1-0.4-0.3-0.4-0.5c-0.2-5.9-5.9-10.5-6-10.6c-4.2-3.8-8-5.5-11.1-5.1c-2.1,0.3-3.3,1.6-3.8,2.2l0,0
					c0.1,0.2,0.2,0.4,0.1,0.6c-0.1,0.2-0.3,0.3-0.4,0.4l-9.9,2.3c0,1.2,0.3,2.4,0.7,3.5c0.6,1.5,1.5,2.8,2.6,4
					c0.1,0.2,0.3,0.5,0.2,0.6c-1,3.1-1.3,6.4-1.4,7.6c0.1,0,0.1,0.2,0.1,0.3c0.1,0.3,0,0.6-0.3,0.7c-4.8,2.9-6.8,8.7-4.9,13.9
					c2.1,5.5,8.2,8.6,14,6.9c0.3-0.1,0.7,0.1,0.9,0.4c0.1,0.3-0.1,0.7-0.3,0.8c-5.3,2.5-7.8,8.8-5.7,14.3c1.8,4.7,6.4,7.6,11.4,7.4
					c1-0.2,3-0.5,3.4-0.8C180.8,281.3,181,281.3,181.1,281.3z M188.3,297.2c-0.1,0-0.2-0.1-0.1-0.2c-1.2-1.2-2-2.6-2.6-4.1
					c-1-2.8-1.1-5.6-0.2-8.4l-4.5-2c-0.9,0.3-3.1,0.6-3.4,0.8c-5.7,0.3-10.7-3-12.8-8.3c-2-5.1-0.4-10.9,3.8-14.3
					c-5.3,0.1-10.5-3.1-12.4-8.2c-2.2-5.6-0.1-11.9,4.9-15.1c0.1-0.9,0.2-4.3,1.3-7.7c-1.2-1.2-2.1-2.7-2.7-4.2
					c-0.5-1.4-0.9-2.9-0.8-4.5c0-0.3,0.3-0.6,0.5-0.7l9.6-2.2c0-0.1,0-0.2,0.1-0.3c0-0.1,1.5-2.6,4.9-3.1c3.5-0.5,7.6,1.4,12.2,5.4
					c0.2,0.2,5.9,4.9,6.4,11.1l0,0c1.8,0.8,8.6,4.5,5.4,13.2c1.7,0.8,6.3,3.7,4.4,12.6c0.3,1.2,2,8,2.4,15.9c0.1,0.1,0,0.2,0,0.3
					c0.2,7.7-1,13.9-3.7,18.4c0,0.1-0.2,0.1-0.3,0.2l-11.7,5.2C188.6,297.4,188.5,297.3,188.3,297.2z"/>
			</g>
		</g>
	</g>
</g>
<text transform="matrix(0.987 -0.1603 0.1603 0.987 310.77 322.6702)" class="st12 st21 st19 st22">31</text>
<g>
	<text transform="matrix(0.98 -0.199 0.199 0.98 402.1343 290.706)"><tspan x="0" y="0" class="st23 st24 st25">6</tspan><tspan x="20.5" y="0" class="st23 st24 st26">pm</tspan><tspan x="43.2" y="0" class="st23 st24 st27">            </tspan><tspan x="0" y="28" class="st23 st24 st27"> 10:30pm</tspan></text>
	<line class="st28" x1="449.6" y1="274.1" x2="489.8" y2="265.5"/>
</g>
<text transform="matrix(0.9693 -0.2459 0.2459 0.9693 366.991 280.4118)" class="st12 st29 st30">st</text>
<text transform="matrix(0.9735 -0.2288 0.2288 0.9735 260.4459 321.2659)" class="st12 st29 st31">Oct.</text>
<text transform="matrix(0.9835 -0.181 0.181 0.9835 247.8752 80.8698)" class="st32 st33 st30">presnts the annual... </text>
</svg>
