<?xml version="1.0" encoding="utf-8"?>
<!-- Generator: Adobe Illustrator 22.1.0, SVG Export Plug-In . SVG Version: 6.00 Build 0)  -->
<svg version="1.1" id="Layer_1" xmlns="http://www.w3.org/2000/svg" xmlns:xlink="http://www.w3.org/1999/xlink" x="0px" y="0px"
	 viewBox="0 0 450 525" style="enable-background:new 0 0 450 525;" xml:space="preserve">
<style type="text/css">
	.st0{fill:#EE509A;}
	.st1{enable-background:new    ;}
	.st2{fill:#FFFFFF;}
	.st3{font-family:'Gobold';}
	.st4{font-size:31.9986px;}
	.st5{font-family:'Roboto-Regular';}
	.st6{font-size:13.9994px;}
	.st7{fill:#2ADFDF;}
	.st8{font-family:'GoboldBoldItalic-Italic';}
	.st9{font-size:24px;}
	.st10{font-size:30px;}
	.st11{font-size:14px;}
	.st12{fill:#3D1717;}
	.st13{fill:#A5CD6F;}
	.st14{fill:#C06539;}
	.st15{fill:#F0F2C3;}
	.st16{fill:#F6DE5E;}
	.st17{fill:#CFAF31;}
	.st18{fill:#9B4B2C;}
	.st19{fill:#F2BEBA;}
	.st20{fill:#EB958E;}
	.st21{fill:#F8E71C;}
	.st22{font-size:64px;}
	.st23{font-size:60px;}
</style>
<title>header-right</title>
<desc>Created with Sketch.</desc>
<g id="Homepage">
	<g id="_x31_.-Header" transform="translate(-1395.000000, 0.000000)">
		<g id="header-right" transform="translate(1409.000000, 198.000000)">
			<g id="Image">
				<rect id="path-1_1_" x="-14.5" y="-198" class="st0" width="451" height="525"/>
			</g>
			
				<image style="overflow:visible;enable-background:new    ;" width="627" height="626" xlink:href="9270C1DCC4636DB7.png"  transform="matrix(0.7209 0 0 0.7209 118.2401 188.1005)">
			</image>
			<g transform="translate(395.740088, 611.740088) rotate(56.000000) translate(-395.740088, -611.740088) ">
			</g>
			<g id="Time_1_">
				
					<g transform="translate(276.736904, 342.347239) rotate(-9.000000) translate(-276.736904, -342.347239) translate(190.236904, 306.847239)">
					<g id="Time" transform="translate(0.000000, 1.000000)">
						<g class="st1">
							<text transform="matrix(0.9999 -1.068584e-02 1.068584e-02 0.9999 12.7741 -180.7737)" class="st2 st3 st4">17</text>
						</g>
						<g class="st1">
							<text transform="matrix(0.9999 -1.068584e-02 1.068584e-02 0.9999 12.9339 -165.774)" class="st2 st5 st6">Days</text>
						</g>
					</g>
					<g id="Hours" transform="translate(61.000000, 1.000000)">
						<g class="st1">
							<text transform="matrix(0.9999 -1.068584e-02 1.068584e-02 0.9999 12.7701 -181.425)" class="st2 st3 st4">21</text>
						</g>
						<g class="st1">
							<text transform="matrix(0.9999 -1.068584e-02 1.068584e-02 0.9999 12.9304 -166.4259)" class="st2 st5 st6">Hours</text>
						</g>
					</g>
					<g id="Minutes" transform="translate(122.000000, 0.000000)">
						<g class="st1">
							<text transform="matrix(0.9999 -1.068584e-02 1.068584e-02 0.9999 12.7565 -182.0768)" class="st2 st3 st4">45</text>
						</g>
						<g class="st1">
							<text transform="matrix(0.9999 -1.068584e-02 1.068584e-02 0.9999 12.927 -166.0777)" class="st2 st5 st6">Minutes</text>
						</g>
					</g>
				</g>
			</g>
			<g id="Group-41">
				<g transform="translate(-7.000000, -30.000000)">
					<g id="Group-42" transform="translate(51.000000, 0.000000)">
						
							<g id="Group" transform="translate(301.335433, 309.479136) rotate(-55.000000) translate(-301.335433, -309.479136) translate(64.835433, 107.979136)">
							<g class="st1">
								<text transform="matrix(0.788 -0.6157 0.6157 0.788 189.15 -20.7971)" class="st7 st8 st9">October </text>
							</g>
							<g class="st1">
								<text transform="matrix(0.788 -0.6157 0.6157 0.788 258.7876 -75.2036)" class="st7 st8 st10">31</text>
							</g>
							<g>
								<text transform="matrix(0.788 -0.6157 0.6157 0.788 284.7134 -95.4594)" class="st7 st8 st9"> </text>
							</g>
							<g class="st1">
								<text transform="matrix(0.788 -0.6157 0.6157 0.788 283.5592 -94.5574)" class="st7 st8 st11">st</text>
							</g>
							<path id="Fill-4" class="st12" d="M507.3,185.5c-12.7,0-23-10.2-23-22.8l0-104.4c0-12.6,10.3-22.8,23-22.8
								c12.7,0,23,10.2,23,22.8v104.4C530.3,175.3,520,185.5,507.3,185.5"/>
							<path id="Fill-5" class="st13" d="M590.5-106.6c-4.2-4.2-4.5-10.8-0.9-15.4l-7.9,7.9c-4.5,4.5-11.9,4.5-16.4,0
								c-4.3-4.3-4.5-11.2-0.6-15.7c-4.5,3.9-11.4,3.7-15.7-0.6c-4.5-4.5-4.5-11.9,0-16.4l7.9-7.9c-4.5,3.6-11.2,3.3-15.3-0.9
								c-2.2-2.2-3.3-5-3.4-7.9c-3.9-0.6-7.8-0.9-11.8-0.9c-42.4,0-89,34.5-89,76.9l148.5,193.1l17.5-7.5l0-185.3
								c0-5.6-0.6-11-1.8-16.3C597.7-102.6,593.5-103.6,590.5-106.6"/>
							<path id="Fill-6" class="st12" d="M437.6-88.2l148.7,192.4l16.8-7.2l0-184.8c0-5.2-0.5-10.4-1.6-15.5
								c-4,0.8-8.2-0.4-11.1-3.3c-3.3-3.3-4.4-8.1-3-12.4l-5,4.9c-4.8,4.8-12.6,4.8-17.4,0c-3.8-3.7-4.6-9.4-2.3-14
								c-4.6,2.2-10.3,1.4-14.1-2.3c-2.3-2.3-3.6-5.4-3.6-8.6c0-3.3,1.3-6.3,3.6-8.6l5-4.9c-4.3,1.4-9.1,0.3-12.5-3
								c-2.1-2.1-3.3-4.8-3.5-7.7c-3.7-0.6-7.5-0.8-11.3-0.8C485.4-164.2,437.8-131,437.6-88.2z M586.1,105.5
								c-0.2,0-0.4-0.1-0.5-0.2L436.5-87.6c-0.1-0.1-0.1-0.2-0.1-0.4c0-43.6,48.4-77.5,90-77.5c4,0,8,0.3,12,0.9
								c0.3,0,0.5,0.3,0.5,0.6c0.1,2.8,1.2,5.5,3.2,7.4c3.9,3.9,10.2,4.3,14.6,0.9c0.3-0.2,0.6-0.2,0.9,0.1c0.2,0.2,0.2,0.6,0,0.9
								l-7.9,7.9c-2.1,2.1-3.2,4.8-3.2,7.8c0,2.9,1.1,5.7,3.2,7.8c4,4,10.6,4.3,14.9,0.6c0.2-0.2,0.6-0.2,0.9,0
								c0.2,0.2,0.2,0.6,0,0.8c-3.7,4.3-3.4,10.9,0.6,14.9c4.3,4.3,11.3,4.3,15.6,0l7.9-7.9c0.2-0.2,0.6-0.2,0.9,0
								c0.2,0.2,0.3,0.6,0.1,0.9c-3.4,4.4-3,10.6,0.9,14.5c2.7,2.7,6.8,3.8,10.5,2.8c0.2,0,0.3,0,0.5,0.1c0.1,0.1,0.2,0.2,0.3,0.4
								c1.2,5.4,1.8,10.9,1.8,16.4l0,185.2c0,0.3-0.1,0.5-0.4,0.6l-17.6,7.5C586.3,105.5,586.2,105.5,586.1,105.5z"/>
							<path id="Fill-7" class="st14" d="M591.2-106.8c-4.1-4.3-4.5-10.8-0.9-15.3l-7.9,7.8c-0.3,0.3-0.7,0.6-1.1,0.9
								c-4.6,3.5-11.2,3.2-15.4-0.9c-4.3-4.3-4.5-11.1-0.6-15.7c-0.1,0.1-0.2,0.1-0.3,0.2c-4.6,3.6-11.3,3.3-15.5-0.8
								c-4.2-4.2-4.5-10.8-0.9-15.3c0.3-0.4,0.6-0.7,0.9-1.1l7.9-7.8l0,0c-4.6,3.5-10.8,2.7-15.4-0.9c-3.4-2.7-3.4-7.8-3.4-7.8
								L516.7-147c-4.5,4.5-4.5,11.8,0,16.3c4.2,4.2,10.9,4.5,15.4,0.9l-7.9,7.8c-4.5,4.5-4.5,11.8,0,16.3
								c4.3,4.3,11.2,4.5,15.8,0.6c-3.9,4.5-3.7,11.4,0.6,15.7c4.5,4.5,11.9,4.5,16.5,0l7.9-7.8c-3.6,4.5-3.3,11.1,0.9,15.3
								c4.5,4.5,12,4.5,16.5,0l19.9-22C602.3-103.8,595.7-102.2,591.2-106.8"/>
							<path id="Fill-8" class="st15" d="M561-84.2c-4.2-4.2-4.5-10.8-0.9-15.3l-7.9,7.9c-4.5,4.5-11.9,4.5-16.4,0
								c-4.3-4.3-4.5-11.2-0.6-15.7c-4.5,3.9-11.4,3.7-15.7-0.6c-4.5-4.5-4.5-11.9,0-16.4l7.9-7.9c-4.5,3.5-11.2,3.2-15.3-0.9
								c-4.5-4.5-4.5-11.9,0-16.4l10.2-7.7c-5.1-1.1-12.4-2.2-17.8-2.2c-42.3,0-77,34.6-77,77l0,185l154,0l0-185
								c0-1.8-0.1-3.7-0.2-5.5l-3.8,3.8C572.9-79.7,565.5-79.7,561-84.2z"/>
							<path id="Fill-9" class="st12" d="M523.7-155.5L523.7-155.5c-2.6-0.4-5.2-0.7-7.7-0.9c-0.4,0-0.6-0.3-0.6-0.6
								s0.4-0.5,0.7-0.5c2.6,0.2,5.2,0.5,7.7,0.9c0.4,0.1,0.6,0.3,0.5,0.6C524.3-155.7,524-155.5,523.7-155.5"/>
							<path id="Fill-10" class="st12" d="M527.3-64.2c-5.3,0-9.8,12.7-9.8,27.7s4.5,27.7,9.8,27.7s9.8-12.7,9.8-27.7
								S532.6-64.2,527.3-64.2z M527.3-7.5c-6.2,0-11-12.7-11-29s4.8-29,11-29c6.2,0,11,12.7,11,29S533.5-7.5,527.3-7.5z"/>
							<path id="Fill-11" class="st12" d="M489.3-64.2c-5.3,0-9.8,12.7-9.8,27.7s4.5,27.7,9.8,27.7s9.8-12.7,9.8-27.7
								C499.1-51.5,494.6-64.2,489.3-64.2z M489.3-7.5c-6.2,0-11-12.7-11-29s4.8-29,11-29s11,12.7,11,29
								C500.3-20.2,495.5-7.5,489.3-7.5z"/>
							<path id="Fill-12" class="st13" d="M525.5-8.5c-6.7,0-12.1-12.8-12.1-28.5s5.4-28.5,12.1-28.5h1.9v57H525.5"/>
							<path id="Fill-13" class="st13" d="M487.5-8.5c-6.7,0-12.1-12.8-12.1-28.5s5.4-28.5,12.1-28.5h1.9l0,57L487.5-8.5"/>
							<path id="Fill-14" class="st12" d="M515-51.5c-0.1,0-0.1,0-0.2,0c-0.4-0.1-0.6-0.4-0.5-0.7c0.2-0.7,0.4-1.3,0.7-1.9
								c0.1-0.3,0.5-0.5,0.9-0.4s0.6,0.4,0.4,0.7c-0.2,0.6-0.4,1.2-0.6,1.8C515.6-51.6,515.3-51.5,515-51.5"/>
							<path id="Fill-15" class="st12" d="M513.8-46.5C513.7-46.5,513.7-46.5,513.8-46.5c-0.3-0.1-0.5-0.3-0.4-0.6
								c0-0.3,0.1-0.6,0.1-0.9c0-0.3,0.3-0.5,0.5-0.4s0.4,0.3,0.3,0.6c0,0.3-0.1,0.6-0.1,0.9C514.2-46.7,514-46.5,513.8-46.5"/>
							<path id="Fill-16" class="st12" d="M514.7-23.5c-0.3,0-0.6-0.2-0.6-0.5c-0.3-1.2-0.5-2.5-0.7-3.8c0-0.3,0.2-0.6,0.5-0.7
								c0.3,0,0.7,0.2,0.7,0.5c0.2,1.3,0.4,2.6,0.7,3.8c0.1,0.3-0.1,0.6-0.5,0.7C514.8-23.5,514.7-23.5,514.7-23.5"/>
							<path id="Fill-17" class="st12" d="M527.7-7.5l-1.9,0c-4.3,0-8.1-4.4-10.5-12.2c-0.1-0.3,0.1-0.7,0.4-0.8
								c0.3-0.1,0.7,0.1,0.8,0.4c2.2,7.1,5.7,11.3,9.3,11.3h1.2v-55.5h-1.2c-2.9,0-5.7,2.7-7.9,7.6c-0.1,0.3-0.5,0.5-0.8,0.3
								c-0.3-0.1-0.5-0.5-0.3-0.8c2.4-5.4,5.6-8.3,9.1-8.3h1.9c0.3,0,0.6,0.3,0.6,0.6v56.7C528.3-7.7,528.1-7.5,527.7-7.5"/>
							<path id="Fill-18" class="st12" d="M478-50.5c-0.1,0-0.1,0-0.2,0c-0.3-0.1-0.5-0.4-0.4-0.8c0.2-0.9,0.5-1.9,0.8-2.7
								c0.1-0.3,0.5-0.5,0.8-0.4s0.5,0.5,0.4,0.8c-0.3,0.9-0.5,1.8-0.8,2.7C478.5-50.7,478.2-50.5,478-50.5"/>
							<path id="Fill-19" class="st12" d="M476.8-47.5C476.7-47.5,476.7-47.5,476.8-47.5c-0.3-0.1-0.5-0.4-0.4-0.7l0.1-0.8
								c0-0.3,0.3-0.6,0.5-0.5s0.4,0.4,0.3,0.7l-0.1,0.7C477.2-47.7,477-47.5,476.8-47.5"/>
							<path id="Fill-20" class="st12" d="M475.8-27.5c-0.2,0-0.4-0.2-0.4-0.6l-0.1-0.7c0-0.4,0.1-0.7,0.4-0.7
								c0.2,0,0.5,0.2,0.5,0.6l0.1,0.7C476.3-27.9,476.1-27.5,475.8-27.5C475.9-27.5,475.9-27.5,475.8-27.5"/>
							<path id="Fill-21" class="st12" d="M477.7-21.5c-0.3,0-0.5-0.2-0.6-0.5c-0.3-1.2-0.6-2.5-0.8-3.8c-0.1-0.3,0.2-0.7,0.5-0.7
								c0.3-0.1,0.6,0.2,0.7,0.5c0.2,1.3,0.5,2.5,0.8,3.7c0.1,0.3-0.1,0.7-0.4,0.8C477.8-21.5,477.8-21.5,477.7-21.5"/>
							<path id="Fill-22" class="st12" d="M489.7-7.5l-1.9,0c-4.1,0-7.9-4-10.4-10.9c-0.1-0.3,0.1-0.7,0.4-0.8
								c0.3-0.1,0.7,0.1,0.8,0.4c2.3,6.4,5.7,10,9.2,10l1.3,0l0-55.5h-1.3c-2.7,0-5.4,2.2-7.5,6.3c-0.2,0.3-0.5,0.4-0.9,0.3
								c-0.3-0.2-0.4-0.5-0.3-0.8c2.4-4.5,5.5-7,8.7-7h1.9c0.4,0,0.6,0.3,0.6,0.6l0,56.7C490.3-7.7,490.1-7.5,489.7-7.5"/>
							<path id="Fill-23" class="st12" d="M527.3-64.2c-5.3,0-9.8,12.7-9.8,27.7s4.5,27.7,9.8,27.7s9.8-12.7,9.8-27.7
								S532.6-64.2,527.3-64.2z M527.3-7.5c-6.2,0-11-12.7-11-29s4.8-29,11-29c6.2,0,11,12.7,11,29S533.5-7.5,527.3-7.5z"/>
							<path id="Fill-24" class="st12" d="M489.3-64.2c-5.3,0-9.8,12.7-9.8,27.7s4.5,27.7,9.8,27.7s9.8-12.7,9.8-27.7
								C499.1-51.5,494.6-64.2,489.3-64.2z M489.3-7.5c-6.2,0-11-12.7-11-29s4.8-29,11-29s11,12.7,11,29
								C500.3-20.2,495.5-7.5,489.3-7.5z"/>
							<path id="Fill-25" class="st12" d="M538.3-37c0,15.7-4.7,28.5-10.5,28.5S517.3-21.3,517.3-37s4.7-28.5,10.5-28.5
								C533.6-65.5,538.3-52.7,538.3-37"/>
							<path id="Fill-26" class="st12" d="M500.3-37c0,15.7-4.7,28.5-10.5,28.5S479.3-21.2,479.3-37s4.7-28.5,10.5-28.5
								C495.6-65.5,500.3-52.7,500.3-37"/>
							<path id="Fill-27" class="st12" d="M586.7,105.5l-154.7,0c-0.3,0-0.6-0.3-0.6-0.6l0-184.8c0-42.8,35-77.5,78-77.5
								c0.3,0,0.6,0.3,0.6,0.6s-0.3,0.6-0.6,0.6c-42.3,0-76.7,34.2-76.7,76.3l0,184.2l153.5,0l0-41.3c0-0.3,0.3-0.6,0.6-0.6
								s0.6,0.3,0.6,0.6l0,41.9C587.3,105.3,587.1,105.5,586.7,105.5"/>
							<path id="Fill-28" class="st12" d="M587.2-119.5l-5,5c-0.3,0.3-0.7,0.6-1.1,1l-15.2,15.1c-2.1,2.1-3.2,4.8-3.2,7.7
								c0,2.9,1.1,5.7,3.2,7.7c2.1,2.1,4.8,3.2,7.8,3.2s5.7-1.1,7.8-3.2l18.7-20.7c-2.4,0.2-6.7,0-10-3.4
								C586.8-110.5,585.8-115.3,587.2-119.5z M573.6-78.5c-3.1,0-6.3-1.2-8.7-3.6c-2.3-2.3-3.6-5.4-3.6-8.6c0-3.3,1.3-6.3,3.6-8.6
								l15.3-15.2c0.5-0.4,0.8-0.6,1.1-0.9l7.9-7.9c0.2-0.2,0.6-0.2,0.9,0c0.2,0.2,0.3,0.6,0.1,0.9c-3.3,4.3-3,10.5,0.9,14.5
								c4.2,4.3,10.5,2.9,10.5,2.8c0.3-0.1,0.5,0.1,0.7,0.3c0.1,0.2,0.1,0.5-0.1,0.7l-19.9,22C579.9-79.7,576.7-78.5,573.6-78.5z"/>
							<path id="Fill-29" class="st12" d="M562.1-126.4l-21.3,21.1c-4.3,4.2-4.3,11.1,0,15.4c4.3,4.2,11.2,4.2,15.5,0l21.3-21.1
								c-4.3,1.4-9.2,0.5-12.6-2.9C561.6-117.2,560.6-122.1,562.1-126.4z M548.6-85.5c-3.1,0-6.3-1.2-8.6-3.5
								c-4.8-4.7-4.8-12.4,0-17.1l24.5-24.2c0.2-0.2,0.6-0.2,0.8,0s0.2,0.6,0,0.8c-3.7,4.3-3.4,10.7,0.6,14.7
								c4.3,4.2,11.2,4.2,15.5,0l7.9-7.8c0.2-0.2,0.6-0.2,0.9,0c0.1,0.1,0.2,0.3,0.2,0.4c0,0.2-0.1,0.3-0.2,0.4l-33,32.6
								C554.8-86.6,551.7-85.5,548.6-85.5z"/>
							<path id="Fill-30" class="st12" d="M549-146.5c-0.2,0-0.3-0.1-0.4-0.2c-0.2-0.2-0.2-0.6,0-0.9l7.8-7.8
								c0.1-0.1,0.3-0.2,0.4-0.2c0.2,0,0.3,0.1,0.4,0.2c0.2,0.2,0.2,0.6,0,0.8l0,0l-7.8,7.8C549.3-146.5,549.1-146.5,549-146.5"/>
							<path id="Fill-31" class="st12" d="M545.8-142.6l-21.1,21.2c-2,2.1-3.2,4.8-3.2,7.7c0,2.9,1.1,5.7,3.2,7.7
								c2,2.1,4.8,3.2,7.7,3.2s5.6-1.1,7.7-3.2l21.1-21.2c-4.3,1.5-9.2,0.5-12.5-2.9c-2.3-2.3-3.5-5.4-3.5-8.6
								C545.2-140,545.4-141.3,545.8-142.6z M532.4-101.5c-3.2,0-6.3-1.3-8.6-3.6c-2.3-2.3-3.5-5.4-3.5-8.6c0-3.2,1.3-6.3,3.5-8.6
								l24.8-25c0.2-0.2,0.6-0.2,0.9,0c0.1,0.1,0.2,0.3,0.2,0.4c0,0.2-0.1,0.3-0.2,0.4c-2,2.1-3.2,4.8-3.2,7.7
								c0,2.9,1.1,5.7,3.2,7.7c4,4,10.4,4.3,14.7,0.6c0.2-0.2,0.6-0.2,0.8,0s0.2,0.6,0,0.8l-0.2,0.3L541-105
								C538.7-102.7,535.7-101.5,532.4-101.5z"/>
							<path id="Fill-32" class="st12" d="M537.5-162.6l-20.8,16c-2,2-3.1,4.8-3.1,7.8c0,3,1.1,5.8,3.2,7.8c2.1,2.1,4.8,3.2,7.7,3.2
								s5.7-1.1,7.7-3.2l15.2-15.4c0.3-0.4,0.6-0.7,0.9-1.1l5-5.1c-4,1.2-8.6,0.2-12.4-2.9C538.4-157.5,537.7-160.8,537.5-162.6z
								 M524.5-126.5c-3.3,0-6.3-1.3-8.6-3.6s-3.6-5.4-3.6-8.7c0-3.3,1.3-6.4,3.6-8.7l21.7-16.8c0.2-0.1,0.4-0.2,0.7-0.1
								c0.2,0.1,0.3,0.3,0.3,0.6c0,0,0.1,5,3.1,7.4c4.7,3.8,10.5,4.1,14.5,0.9c0.3-0.2,0.6-0.2,0.9,0.1c0.2,0.3,0.2,0.6,0,0.9
								l-7.9,8c-0.3,0.3-0.6,0.6-0.9,1L533.1-130C530.9-127.7,527.8-126.5,524.5-126.5z"/>
							<path id="Fill-33" class="st12" d="M509.3,18.5c9.7,0,19,2.1,25.7,5.7c5.3,2.9,8.3,6.5,8.3,9.8s-3,6.9-8.3,9.8
								c-6.6,3.6-16,5.7-25.7,5.7c-9.7,0-19-2.1-25.7-5.7c-5.3-2.9-8.3-6.5-8.3-9.8s3-6.9,8.3-9.8C490.3,20.6,499.6,18.5,509.3,18.5
								"/>
							<path id="Fill-34" class="st16" d="M514.8,30.5c-2.5,0-4.5-2.1-4.5-4.6v-5.8c0-2.5,2-4.6,4.5-4.6c2.5,0,4.5,2.1,4.5,4.6v5.8
								C519.3,28.5,517.3,30.5,514.8,30.5"/>
							<path id="Fill-35" class="st16" d="M502.8,30.5c-2.5,0-4.5-2.1-4.5-4.6v-5.8c0-2.5,2-4.6,4.5-4.6s4.5,2.1,4.5,4.6v5.8
								C507.3,28.5,505.3,30.5,502.8,30.5"/>
							<path id="Fill-36" class="st16" d="M490.8,30.5c-2.5,0-4.5-2.1-4.5-4.6v-5.8c0-2.5,2-4.6,4.5-4.6s4.5,2.1,4.5,4.6v5.8
								C495.3,28.5,493.3,30.5,490.8,30.5"/>
							<path id="Fill-37" class="st16" d="M478.8,29.5c-2.5,0-4.5-2-4.5-4.6l0-1.9c0-2.5,2-4.6,4.5-4.6c2.5,0,4.5,2,4.5,4.6v2
								C483.3,27.5,481.3,29.5,478.8,29.5"/>
							<path id="Fill-38" class="st16" d="M526.8,30.5c-2.5,0-4.5-2.1-4.5-4.6l0-5.8c0-2.5,2-4.6,4.5-4.6s4.5,2.1,4.5,4.6v5.8
								C531.3,28.5,529.3,30.5,526.8,30.5"/>
							<path id="Fill-39" class="st16" d="M538.8,29.5c-2.5,0-4.5-2-4.5-4.6V23c0-2.5,2-4.6,4.5-4.6c2.5,0,4.5,2,4.5,4.6v2
								C543.3,27.5,541.3,29.5,538.8,29.5"/>
							<path id="Fill-40" class="st12" d="M585.8-30.5c-0.2,0-0.4-0.3-0.4-0.6v-5.8c0-0.3,0.2-0.6,0.4-0.6s0.4,0.3,0.4,0.6v5.8
								C586.2-30.7,586-30.5,585.8-30.5"/>
							<path id="Fill-41" class="st12" d="M585.8-20.5c-0.2,0-0.4-0.3-0.4-0.6v-4.7c0-0.4,0.2-0.6,0.4-0.6s0.4,0.3,0.4,0.6v4.7
								C586.2-20.8,586-20.5,585.8-20.5"/>
							<path id="Fill-42" class="st12" d="M585.8,4.5c-0.2,0-0.4-0.3-0.4-0.6v-16.8c0-0.3,0.2-0.6,0.4-0.6s0.4,0.3,0.4,0.6V3.9
								C586.2,4.3,586,4.5,585.8,4.5"/>
							<path id="Fill-43" class="st12" d="M585.8,19.5c-0.2,0-0.4-0.3-0.4-0.6v-8.8c0-0.3,0.2-0.6,0.4-0.6s0.4,0.3,0.4,0.6v8.8
								C586.2,19.3,586,19.5,585.8,19.5"/>
							<path id="Fill-44" class="st12" d="M585.8,46.5c-0.2,0-0.4-0.3-0.4-0.6V33.2c0-0.3,0.2-0.6,0.4-0.6s0.4,0.3,0.4,0.6v12.7
								C586.2,46.3,586,46.5,585.8,46.5"/>
							<path id="Fill-45" class="st16" d="M514.8,51.5c-2.5,0-4.5-2.1-4.5-4.6v-5.8c0-2.5,2-4.6,4.5-4.6c2.5,0,4.5,2.1,4.5,4.6v5.8
								C519.3,49.5,517.3,51.5,514.8,51.5"/>
							<path id="Fill-46" class="st16" d="M502.8,51.5c-2.5,0-4.5-2.1-4.5-4.6l0-5.8c0-2.5,2-4.6,4.5-4.6s4.5,2.1,4.5,4.6v5.8
								C507.3,49.5,505.3,51.5,502.8,51.5"/>
							<path id="Fill-47" class="st16" d="M490.8,51.5c-2.5,0-4.5-2.1-4.5-4.6v-5.8c0-2.5,2-4.6,4.5-4.6c2.5,0,4.5,2.1,4.5,4.6
								l0,5.8C495.3,49.5,493.3,51.5,490.8,51.5"/>
							<path id="Fill-48" class="st16" d="M478.8,48.5c-2.5,0-4.5-2-4.5-4.5v-3c0-2.4,2-4.5,4.5-4.5s4.5,2,4.5,4.5v3.1
								C483.3,46.5,481.3,48.5,478.8,48.5"/>
							<path id="Fill-49" class="st16" d="M526.8,51.5c-2.5,0-4.5-2.1-4.5-4.6v-5.8c0-2.5,2-4.6,4.5-4.6c2.5,0,4.5,2.1,4.5,4.6v5.8
								C531.3,49.5,529.3,51.5,526.8,51.5"/>
							<path id="Fill-50" class="st16" d="M538.8,51.5c-2.5,0-4.5-2.1-4.5-4.6v-5.8c0-2.5,2-4.6,4.5-4.6c2.5,0,4.5,2.1,4.5,4.6v5.8
								C543.3,49.5,541.3,51.5,538.8,51.5"/>
							<path id="Fill-51" class="st17" d="M514.7,15.5c-0.5,0-0.9,0.1-1.3,0.2c1.9,0.6,3.4,2.3,3.4,4.4v5.8c0,2.1-1.4,3.8-3.4,4.4
								c0.4,0.1,0.9,0.2,1.3,0.2c2.6,0,4.7-2.1,4.7-4.6v-5.8C519.3,17.6,517.2,15.5,514.7,15.5"/>
							<path id="Fill-52" class="st17" d="M502.7,15.5c-0.5,0-0.9,0.1-1.3,0.2c1.9,0.6,3.4,2.3,3.4,4.4v5.8c0,2.1-1.4,3.8-3.4,4.4
								c0.4,0.1,0.9,0.2,1.3,0.2c2.6,0,4.7-2.1,4.7-4.6v-5.8C507.3,17.6,505.2,15.5,502.7,15.5"/>
							<path id="Fill-53" class="st17" d="M490.7,15.5c-0.5,0-0.9,0.1-1.3,0.2c1.9,0.6,3.4,2.3,3.4,4.4v5.8c0,2.1-1.4,3.8-3.4,4.4
								c0.4,0.1,0.9,0.2,1.3,0.2c2.6,0,4.7-2.1,4.7-4.6v-5.8C495.3,17.6,493.2,15.5,490.7,15.5"/>
							<path id="Fill-54" class="st17" d="M478.7,18.5c-0.5,0-0.9,0.1-1.3,0.2c1.9,0.6,3.4,2.3,3.4,4.3v2c0,2.1-1.4,3.8-3.4,4.3
								c0.4,0.1,0.9,0.2,1.3,0.2c2.6,0,4.7-2,4.7-4.6V23C483.3,20.6,481.2,18.5,478.7,18.5"/>
							<path id="Fill-55" class="st17" d="M526.7,15.5c-0.5,0-0.9,0.1-1.3,0.2c1.9,0.6,3.4,2.3,3.4,4.4v5.8c0,2.1-1.4,3.8-3.4,4.4
								c0.4,0.1,0.9,0.2,1.3,0.2c2.6,0,4.7-2.1,4.7-4.6v-5.8C531.3,17.6,529.2,15.5,526.7,15.5"/>
							<path id="Fill-56" class="st17" d="M538.7,18.5c-0.5,0-0.9,0.1-1.3,0.2c1.9,0.6,3.4,2.3,3.4,4.3v2c0,2.1-1.4,3.8-3.4,4.3
								c0.4,0.1,0.9,0.2,1.3,0.2c2.6,0,4.7-2,4.7-4.6V23C543.3,20.6,541.2,18.5,538.7,18.5"/>
							<path id="Fill-57" class="st17" d="M514.7,36.5c-0.5,0-0.9,0.1-1.3,0.2c1.9,0.6,3.4,2.3,3.4,4.4v5.8c0,2.1-1.4,3.8-3.4,4.4
								c0.4,0.1,0.9,0.2,1.3,0.2c2.6,0,4.7-2.1,4.7-4.6v-5.8C519.3,38.6,517.2,36.5,514.7,36.5"/>
							<path id="Fill-58" class="st17" d="M502.7,36.5c-0.5,0-0.9,0.1-1.3,0.2c1.9,0.6,3.4,2.3,3.4,4.4v5.8c0,2.1-1.4,3.8-3.4,4.4
								c0.4,0.1,0.9,0.2,1.3,0.2c2.6,0,4.7-2.1,4.7-4.6v-5.8C507.3,38.6,505.2,36.5,502.7,36.5"/>
							<path id="Fill-59" class="st17" d="M490.7,36.5c-0.5,0-0.9,0.1-1.3,0.2c1.9,0.6,3.4,2.3,3.4,4.4v5.8c0,2.1-1.4,3.8-3.4,4.4
								c0.4,0.1,0.9,0.2,1.3,0.2c2.6,0,4.7-2.1,4.7-4.6l0-5.8C495.3,38.6,493.2,36.5,490.7,36.5"/>
							<path id="Fill-60" class="st17" d="M478.7,36.5c-0.5,0-0.9,0.1-1.3,0.2c1.9,0.5,3.4,2.2,3.4,4.3v3.1c0,2-1.4,3.7-3.4,4.3
								c0.4,0.1,0.9,0.2,1.3,0.2c2.6,0,4.7-2,4.7-4.5V41C483.3,38.5,481.2,36.5,478.7,36.5"/>
							<path id="Fill-61" class="st17" d="M526.7,36.5c-0.5,0-0.9,0.1-1.3,0.2c1.9,0.6,3.4,2.3,3.4,4.4v5.8c0,2.1-1.4,3.8-3.4,4.4
								c0.4,0.1,0.9,0.2,1.3,0.2c2.6,0,4.7-2.1,4.7-4.6v-5.8C531.3,38.6,529.2,36.5,526.7,36.5"/>
							<path id="Fill-62" class="st17" d="M538.7,36.5c-0.5,0-0.9,0.1-1.3,0.2c1.9,0.6,3.4,2.3,3.4,4.4v5.8c0,2.1-1.4,3.8-3.4,4.4
								c0.4,0.1,0.9,0.2,1.3,0.2c2.6,0,4.7-2.1,4.7-4.6v-5.8C543.3,38.6,541.2,36.5,538.7,36.5"/>
							<path id="Fill-63" class="st12" d="M514.3,15.8c-2.1,0-3.8,1.7-3.8,3.9v5.7c0,2.1,1.7,3.9,3.8,3.9c2.1,0,3.8-1.7,3.8-3.9
								v-5.7C518.1,17.5,516.4,15.8,514.3,15.8z M514.3,30.5c-2.8,0-5-2.3-5-5.2v-5.7c0-2.8,2.2-5.2,5-5.2c2.8,0,5,2.3,5,5.2v5.7
								C519.3,28.2,517.1,30.5,514.3,30.5z"/>
							<path id="Fill-64" class="st12" d="M502.3,15.8c-2.1,0-3.8,1.7-3.8,3.9v5.7c0,2.1,1.7,3.9,3.8,3.9c2.1,0,3.8-1.7,3.8-3.9
								v-5.7C506.1,17.5,504.4,15.8,502.3,15.8z M502.3,30.5c-2.8,0-5-2.3-5-5.2v-5.7c0-2.8,2.2-5.2,5-5.2s5,2.3,5,5.2v5.7
								C507.3,28.2,505.1,30.5,502.3,30.5z"/>
							<path id="Fill-65" class="st12" d="M490.3,15.8c-2.1,0-3.8,1.7-3.8,3.9v5.7c0,2.1,1.7,3.9,3.8,3.9c2.1,0,3.8-1.7,3.8-3.9
								v-5.7C494.1,17.5,492.4,15.8,490.3,15.8z M490.3,30.5c-2.8,0-5-2.3-5-5.2v-5.7c0-2.8,2.2-5.2,5-5.2c2.8,0,5,2.3,5,5.2v5.7
								C495.3,28.2,493.1,30.5,490.3,30.5z"/>
							<path id="Fill-66" class="st12" d="M479.3,19.8c-2.1,0-3.8,1.7-3.8,3.8l0,1.8c0,2.1,1.7,3.8,3.8,3.8c2.1,0,3.8-1.7,3.8-3.8
								v-1.8C483.1,21.5,481.4,19.8,479.3,19.8z M479.3,30.5c-2.8,0-5-2.3-5-5.1l0-1.8c0-2.8,2.2-5.1,5-5.1c2.8,0,5,2.3,5,5.1v1.8
								C484.3,28.3,482.1,30.5,479.3,30.5z"/>
							<path id="Fill-67" class="st12" d="M526.3,15.8c-2.1,0-3.8,1.7-3.8,3.9l0,5.7c0,2.1,1.7,3.9,3.8,3.9c2.1,0,3.8-1.7,3.8-3.9
								v-5.7C530.1,17.5,528.4,15.8,526.3,15.8z M526.3,30.5c-2.8,0-5-2.3-5-5.2l0-5.7c0-2.8,2.2-5.2,5-5.2s5,2.3,5,5.2v5.7
								C531.3,28.2,529.1,30.5,526.3,30.5z"/>
							<path id="Fill-68" class="st12" d="M538.3,19.8c-2.1,0-3.8,1.7-3.8,3.8v1.8c0,2.1,1.7,3.8,3.8,3.8c2.1,0,3.8-1.7,3.8-3.8
								v-1.8C542.1,21.5,540.4,19.8,538.3,19.8z M538.3,30.5c-2.8,0-5-2.3-5-5.1v-1.8c0-2.8,2.2-5.1,5-5.1c2.8,0,5,2.3,5,5.1v1.8
								C543.3,28.3,541.1,30.5,538.3,30.5z"/>
							<path id="Fill-69" class="st12" d="M514.3,37.8c-2.1,0-3.8,1.7-3.8,3.9v5.7c0,2.1,1.7,3.9,3.8,3.9c2.1,0,3.8-1.7,3.8-3.9
								v-5.7C518.1,39.5,516.4,37.8,514.3,37.8z M514.3,52.5c-2.8,0-5-2.3-5-5.2v-5.7c0-2.8,2.2-5.2,5-5.2c2.8,0,5,2.3,5,5.2v5.7
								C519.3,50.2,517.1,52.5,514.3,52.5z"/>
							<path id="Fill-70" class="st12" d="M502.3,37.8c-2.1,0-3.8,1.7-3.8,3.9l0,5.7c0,2.1,1.7,3.9,3.8,3.9c2.1,0,3.8-1.7,3.8-3.9
								v-5.7C506.1,39.5,504.4,37.8,502.3,37.8z M502.3,52.5c-2.8,0-5-2.3-5-5.2l0-5.7c0-2.8,2.2-5.2,5-5.2s5,2.3,5,5.2v5.7
								C507.3,50.2,505.1,52.5,502.3,52.5z"/>
							<path id="Fill-71" class="st12" d="M490.3,37.8c-2.1,0-3.8,1.7-3.8,3.9v5.7c0,2.1,1.7,3.9,3.8,3.9c2.1,0,3.8-1.7,3.8-3.9
								l0-5.7C494.1,39.5,492.4,37.8,490.3,37.8z M490.3,52.5c-2.8,0-5-2.3-5-5.2v-5.7c0-2.8,2.2-5.2,5-5.2c2.8,0,5,2.3,5,5.2l0,5.7
								C495.3,50.2,493.1,52.5,490.3,52.5z"/>
							<path id="Fill-72" class="st12" d="M479.3,37.8c-2.1,0-3.8,1.7-3.8,3.8v3c0,2.1,1.7,3.8,3.8,3.8c2.1,0,3.8-1.7,3.8-3.8v-3
								C483.1,39.4,481.4,37.8,479.3,37.8z M479.3,49.5c-2.8,0-5-2.2-5-5v-3c0-2.7,2.2-5,5-5s5,2.2,5,5v3
								C484.3,47.3,482.1,49.5,479.3,49.5z"/>
							<path id="Fill-73" class="st12" d="M526.3,37.8c-2.1,0-3.8,1.7-3.8,3.9v5.7c0,2.1,1.7,3.9,3.8,3.9c2.1,0,3.8-1.7,3.8-3.9
								v-5.7C530.1,39.5,528.4,37.8,526.3,37.8z M526.3,52.5c-2.8,0-5-2.3-5-5.2v-5.7c0-2.8,2.2-5.2,5-5.2c2.8,0,5,2.3,5,5.2v5.7
								C531.3,50.2,529.1,52.5,526.3,52.5z"/>
							<path id="Fill-74" class="st12" d="M538.3,37.8c-2.1,0-3.8,1.7-3.8,3.9v5.7c0,2.1,1.7,3.9,3.8,3.9c2.1,0,3.8-1.7,3.8-3.9
								v-5.7C542.1,39.5,540.4,37.8,538.3,37.8z M538.3,52.5c-2.8,0-5-2.3-5-5.2v-5.7c0-2.8,2.2-5.2,5-5.2c2.8,0,5,2.3,5,5.2v5.7
								C543.3,50.2,541.1,52.5,538.3,52.5z"/>
							<path id="Fill-75" class="st14" d="M508.8,11.5c-23.5,0-42.5,10.5-42.5,23.5s19,23.5,42.5,23.5c23.5,0,42.5-10.5,42.5-23.5
								C551.3,22.1,532.3,11.5,508.8,11.5z M508.8,19.4c9.6,0,18.9,2.1,25.5,5.7c5.3,2.9,8.3,6.5,8.3,9.9s-3,7-8.3,9.9
								c-6.6,3.6-15.9,5.7-25.5,5.7c-9.6,0-18.9-2.1-25.5-5.7C478,42,475,38.4,475,35s3-7,8.3-9.9C489.9,21.5,499.2,19.4,508.8,19.4
								z"/>
							<path id="Fill-76" class="st18" d="M483.1,24.2c6.3-3.5,15.1-5.5,24.2-5.6c-0.4,0-0.8,0-1.3,0c-9.6,0-18.9,2.1-25.5,5.7
								c-5.3,2.9-8.3,6.5-8.3,9.8c0,3.3,3,6.9,8.3,9.8c6.6,3.6,15.9,5.7,25.5,5.7c0.4,0,0.8,0,1.3,0c-9.2-0.2-17.9-2.2-24.2-5.6
								c-5.3-2.9-8.3-6.5-8.3-9.8S477.9,27.1,483.1,24.2"/>
							<path id="Fill-77" class="st18" d="M508.6,11.5c-0.4,0-0.8,0-1.3,0c23,0.4,41.5,10.7,41.5,23.5c0,12.7-18.5,23.1-41.5,23.5
								c0.4,0,0.8,0,1.3,0c23.6,0,42.7-10.5,42.7-23.5C551.3,22.1,532.2,11.5,508.6,11.5"/>
							<path id="Fill-78" class="st12" d="M508.8,19.6c-9.6,0-18.9,2-25.4,5.6c-5.1,2.8-8,6.2-8,9.3s2.9,6.5,8,9.3
								c6.5,3.6,15.8,5.6,25.4,5.6c9.6,0,18.9-2,25.4-5.6c5.1-2.8,8-6.2,8-9.3c0-3.1-2.9-6.5-8-9.3
								C527.7,21.7,518.4,19.6,508.8,19.6z M508.8,50.7c-9.8,0-19.3-2.1-26-5.8c-5.5-3-8.7-6.8-8.7-10.4s3.2-7.4,8.7-10.4
								c6.7-3.7,16.2-5.8,26-5.8c9.8,0,19.3,2.1,26,5.8c5.5,3,8.7,6.8,8.7,10.4c0,3.6-3.2,7.4-8.7,10.4
								C528.1,48.6,518.6,50.7,508.8,50.7z M508.8,11.8c-23.3,0-42.2,10.2-42.2,22.8s18.9,22.8,42.2,22.8
								c23.3,0,42.2-10.2,42.2-22.8S532.1,11.8,508.8,11.8z M508.8,58.5c-24,0-43.5-10.8-43.5-24s19.5-24,43.5-24
								c24,0,43.5,10.8,43.5,24C552.3,47.8,532.8,58.5,508.8,58.5z"/>
							<path id="Fill-79" class="st19" d="M546.3,49.6c0-4.5-3.3-8.2-7.6-8.9c-1.1,1.1-2.5,2.1-4.1,3.1h-1.1V41c0-0.1,0-0.3,0-0.4
								h-3c0,0.1,0,0.3,0,0.4v2.8l-8.9,0V41c0-0.1,0-0.3,0-0.4h-3c0,0.1,0,0.3,0,0.4v2.8l-8.9,0V41c0-0.1,0-0.3,0-0.4h-3
								c0,0.1,0,0.3,0,0.4v2.8l-8.9,0V41c0-0.1,0-0.3,0-0.4h-3c0,0.1,0,0.3,0,0.4l0,2.8l-8.9,0V41c0-0.1,0-0.2,0-0.3
								c-1.1,0.2-2.1,0.5-3,1v2.1h-2.6c-1.3,1.6-2.1,3.6-2.1,5.8c0,0.2,0,0.4,0,0.5c0,0.2,0,0.4,0,0.5v49.6
								c0,5.6,4.6,10.1,10.1,10.1c2.4,0,4.7-0.9,6.4-2.3v16.4c0,5.6,4.6,10.1,10.1,10.1s10.1-4.6,10.1-10.1V85.6
								c1.8,1.4,4,2.3,6.4,2.3c5.6,0,10.1-4.6,10.1-10.1v-3.4c1.4,0.7,2.9,1.1,4.5,1.1c5.6,0,10.1-4.6,10.1-10.1V50.7
								c0-0.2,0-0.4,0-0.5C546.3,49.9,546.3,49.8,546.3,49.6"/>
							<path id="Fill-80" class="st20" d="M519.4,42.5h2.9v-1.6c0-0.1,0-0.2,0-0.4h-3c0,0.1,0,0.2,0,0.4L519.4,42.5"/>
							<path id="Fill-81" class="st20" d="M495.4,42.5h2.9v-1.6c0-0.1,0-0.2,0-0.4h-3c0,0.1,0,0.2,0,0.4v1.6"/>
							<path id="Fill-82" class="st20" d="M507.4,42.5h2.9v-1.6c0-0.1,0-0.2,0-0.4h-3c0,0.1,0,0.2,0,0.4v1.6"/>
							<path id="Fill-83" class="st20" d="M531.4,42.5h0.7c0.8-0.4,1.5-0.9,2.2-1.3v-0.3c0-0.1,0-0.2,0-0.4h-3c0,0.1,0,0.2,0,0.4
								L531.4,42.5"/>
							<path id="Fill-84" class="st20" d="M529,73.5v4c0,5.5-4.7,10-10.4,10c-0.4,0-0.8,0-1.2-0.1c1.4,0.7,2.9,1,4.6,1
								c5.7,0,10.4-4.5,10.4-10v-4C531.1,74.4,530,74,529,73.5"/>
							<path id="Fill-85" class="st20" d="M486.3,42.5v-1.7c0-0.1,0-0.2,0-0.3c-1.1,0.2-2.1,0.5-3,0.9v1.1H486.3"/>
							<path id="Fill-86" class="st20" d="M547.3,49.5c0-4.5-3.4-8.3-7.9-9c-0.1,0-0.1,0.1-0.2,0.1c2.8,1.6,4.6,4.5,4.6,7.9
								c0,0.2,0,0.4,0,0.5c0,0.2,0,0.4,0,0.5v14.7c0,5.6-4.7,10.2-10.4,10.2c-0.4,0-0.8,0-1.2-0.1c1.4,0.7,2.9,1.1,4.6,1.1
								c5.7,0,10.4-4.6,10.4-10.2V50.6c0-0.2,0-0.4,0-0.5C547.3,49.9,547.3,49.7,547.3,49.5"/>
							<path id="Fill-87" class="st20" d="M513,83.5v40.8c0,5.6-4.7,10.2-10.4,10.2c-0.4,0-0.8,0-1.2-0.1c1.4,0.7,2.9,1.1,4.6,1.1
								c5.7,0,10.4-4.6,10.4-10.2V85.4C515.1,85,514,84.3,513,83.5"/>
							<path id="Fill-88" class="st20" d="M496.3,105.5c-1.8,1.5-8.2,4-10.8,4c-0.4,0-0.8,0-1.2-0.1c1.4,0.7,3,1,4.6,1
								c1.1,0,6.3-1.9,7.4-2.2V105.5"/>
							<path id="Fill-89" class="st12" d="M495.5,108.6c0.1,0,0.2,0,0.3,0.1c0.2,0.1,0.4,0.3,0.4,0.6v16.5c0,5.3,4.2,9.6,9.5,9.6
								s9.5-4.3,9.5-9.6V86.6c0-0.2,0.1-0.5,0.4-0.6c0.2-0.1,0.5-0.1,0.7,0.1c1.7,1.4,3.8,2.2,6,2.2c5.2,0,9.5-4.3,9.5-9.6v-3.5
								c0-0.2,0.1-0.4,0.3-0.5s0.4-0.1,0.6,0c1.3,0.7,2.7,1,4.2,1c5.2,0,9.5-4.3,9.5-9.6V51.4c0-0.1,0-0.2,0-0.3v-0.2v-0.2
								c0-0.1,0-0.2,0-0.4c0-4-2.9-7.5-6.8-8.3c-1.1,1.1-2.5,2.1-4,3c-0.1,0.1-0.2,0.1-0.3,0.1h-1.1c-0.3,0-0.6-0.3-0.6-0.6v-2.6
								h-1.7v2.6c0,0.3-0.3,0.6-0.6,0.6h-8.9c-0.3,0-0.6-0.3-0.6-0.6v-2.6h-1.7v2.6c0,0.3-0.3,0.6-0.6,0.6h-8.9
								c-0.3,0-0.6-0.3-0.6-0.6v-2.6h-1.7v2.6c0,0.3-0.3,0.6-0.6,0.6h-8.9c-0.3,0-0.6-0.3-0.6-0.6v-2.6h-1.7l0,2.6
								c0,0.3-0.3,0.6-0.6,0.6H487c-0.3,0-0.6-0.3-0.6-0.6v-2.3c-0.6,0.1-1.1,0.4-1.7,0.6v1.7c0,0.3-0.3,0.6-0.6,0.6h-2.2
								c-1.2,1.5-1.8,3.3-1.8,5.2c0,0.1,0,0.2,0,0.3v0.2V51c0,0.1,0,0.2,0,0.3v50c0,5.3,4.2,9.6,9.5,9.6c2.2,0,4.3-0.8,6-2.2
								C495.2,108.6,495.3,108.6,495.5,108.6z M505.6,136.5c-5.9,0-10.7-4.9-10.7-10.8v-15.3c-1.7,1.1-3.7,1.7-5.8,1.7
								c-5.9,0-10.7-4.9-10.7-10.8v-50c0-0.1,0-0.3,0-0.4v-0.2v-0.1c0-0.1,0-0.3,0-0.4c0-2.3,0.8-4.5,2.3-6.3
								c0.1-0.1,0.3-0.2,0.5-0.2h1.9v-1.5c0-0.2,0.1-0.4,0.3-0.6c1-0.5,2-0.9,3.2-1.1c0.2,0,0.4,0,0.5,0.2c0.1,0.1,0.2,0.3,0.2,0.5
								v0.2v2.3l7.7,0l0-2.2c0-0.1,0-0.1,0-0.2v-0.2c0-0.2,0-0.4,0.2-0.5c0.1-0.1,0.3-0.2,0.5-0.2h3c0.2,0,0.3,0.1,0.5,0.2
								c0.1,0.1,0.2,0.3,0.2,0.5v0.2c0,0.1,0,0.1,0,0.2v2.2h7.7v-2.2c0-0.1,0-0.1,0-0.2v-0.2c0-0.2,0-0.4,0.2-0.5
								c0.1-0.1,0.3-0.2,0.5-0.2h3c0.2,0,0.3,0.1,0.5,0.2c0.1,0.1,0.2,0.3,0.2,0.5v0.2c0,0.1,0,0.1,0,0.2v2.2h7.7v-2.2
								c0-0.1,0-0.1,0-0.2v-0.2c0-0.2,0-0.4,0.2-0.5c0.1-0.1,0.3-0.2,0.5-0.2h3c0.2,0,0.4,0.1,0.5,0.2c0.1,0.1,0.2,0.3,0.2,0.5v0.2
								c0,0.1,0,0.1,0,0.2v2.2h7.7v-2.2c0-0.1,0-0.1,0-0.2v-0.2c0-0.2,0-0.4,0.2-0.5c0.1-0.1,0.3-0.2,0.5-0.2h3
								c0.2,0,0.3,0.1,0.5,0.2c0.1,0.1,0.2,0.3,0.2,0.5v0.2c0,0.1,0,0.1,0,0.2v2.2h0.3c1.5-0.9,2.8-1.9,3.9-2.9
								c0.1-0.1,0.3-0.2,0.5-0.2c4.6,0.7,8.1,4.9,8.1,9.6c0,0.2,0,0.3,0,0.5v0.1v0.1c0,0.1,0,0.3,0,0.4V66c0,6-4.8,10.8-10.7,10.8
								c-1.3,0-2.6-0.2-3.8-0.7v2.5c0,6-4.8,10.8-10.7,10.8c-2,0-4.1-0.6-5.8-1.7v37.9C516.3,131.7,511.5,136.5,505.6,136.5z"/>
							<path id="Fill-90" class="st19" d="M583.3-116.1L583.3-116.1L583.3-116.1c-3.6-7.5-8.2-13.2-8.2-13.2c-2.2-10.3-8.8-9-8.8-9
								c-0.4-10.3-9.6-9.6-9.6-9.6c-2.6-5.4-9.7-7.3-9.7-7.3c-14-4.6-14.9,4.2-14.9,4.2l0.4,0.2l-8.2,6.3c0.6,1.2,1.3,2.4,2.3,3.4
								c1.2,1.2,2.6,2.1,4.1,2.6c0.4,4,1.9,7.7,1.9,7.7h0.2c-3.2,4.5-2.8,10.9,1.3,14.9c4.3,4.3,11.1,4.5,15.6,0.6
								c-3.9,4.6-3.7,11.4,0.6,15.7c3.6,3.7,9.1,4.4,13.5,2.1c0,0,2.3-1.6,2.8-2.1h5.4c0.2,2.7,1.3,5.4,3.3,7.5
								c1.1,1.1,2.3,1.9,3.6,2.5l8.1-9.1C587.9-104.3,585.9-110.6,583.3-116.1"/>
							<path id="Fill-91" class="st20" d="M548.6-147.5c0.4,0.7,0.8,1.4,1.1,2.1c1.2,2.5,2.6,4.9,4.2,7.2c0.3,0.4,0.6,0.8,1.1,0.7
								c0.2,0,0.3-0.2,0.5-0.3c0.7-0.6,1.3-1.3,1.6-2.1c0.2-0.6,0.2-1.3,0.2-2c0-1-0.1-2.1-0.2-3.1c-1.7-0.3-3-1.7-4.3-2.9
								c-0.7-0.7-1.4-1.4-2.2-2c-0.6-0.5-1.2-1-2-1.3c-0.7-0.3-1.5-0.3-2.3-0.2c-1.4,0.1-2.7,0.3-4,0.7
								C544.8-150.8,547.2-149.5,548.6-147.5"/>
							<path id="Fill-92" class="st20" d="M542.4-150.5L542.4-150.5L542.4-150.5L542.4-150.5"/>
							<path id="Fill-93" class="st20" d="M567.2-111l-1.3,2.9l-0.5,9.6h4.7c0,0,0.3-3.7,0.3-9.3C570.3-113.3,567.2-111,567.2-111"
								/>
							<path id="Fill-94" class="st20" d="M587.1-105l-2.3-9l-6-10.6l-3.4-4.9v6.4l-0.8,3l-2.2,1.9l2,2.2l0.4,3.2l0.1,0.2l-1.2,3.5
								l-0.9,3.8l0.3,0.7l1.3-0.3c0,0,3.3-2,3.4-4.1l0.1,2.2v0.5c0,0,1.8,13.4,9.4,7.2L587.1-105"/>
							<path id="Fill-95" class="st20" d="M572.3-135.9c-2.9-4-5.9-2.2-5.9-2.2l4.9,9.6C571.2-128.5,575.2-131.8,572.3-135.9"/>
							<path id="Fill-96" class="st20" d="M564.3-128.5c0,0-13.4-3.4-17.6-9.4c-4.2-6-4.4,0-4.4,0l1.7,3l4.9,3L564.3-128.5"/>
							<path id="Fill-97" class="st20" d="M566.4-126.5l-2.5,3.9l-5.6,3.7l-9,0.8c0,0,8.5,8.9,14.5,4.3
								C569.7-118.3,566.4-126.5,566.4-126.5"/>
							<path id="Fill-98" class="st12" d="M556-137.5c-0.1,0-0.2,0-0.3-0.1c-0.3-0.2-0.4-0.5-0.3-0.8c1.8-3.6,2.1-6.8,0.9-9.5
								c-2.4-5.1-9.4-7-9.5-7.1c-5.2-1.6-9.2-1.7-11.7-0.1c-2.3,1.4-2.5,3.7-2.5,3.7c0,0.3-0.4,0.6-0.7,0.5c-0.3,0-0.6-0.3-0.6-0.7
								c0-0.1,0.3-2.9,3.1-4.6c2.9-1.8,7.1-1.8,12.7,0c0.3,0.1,7.7,2.1,10.3,7.7c1.4,3.1,1.1,6.7-0.9,10.6
								C556.5-137.6,556.2-137.5,556-137.5"/>
							<path id="Fill-99" class="st12" d="M533-129.5c-0.2,0-0.5-0.1-0.6-0.4c-0.2-0.6-5.6-13.7,2-17.1l1.7-0.8
								c6.2-2.8,10.3-4.7,13.6,1c0.5,0.9,1,1.8,1.5,2.7c1.8,3.3,3.6,6.8,5.3,7c0.6,0.1,1.2-0.3,1.8-1.1c0.2-0.3,0.6-0.3,0.9-0.1
								c0.3,0.2,0.3,0.6,0.1,0.9c-0.9,1.1-1.9,1.6-2.9,1.5c-2.3-0.2-4.2-3.7-6.3-7.6c-0.5-0.9-1-1.8-1.5-2.7
								c-2.6-4.6-5.4-3.5-12-0.5l-1.7,0.8c-6.5,2.9-1.4,15.4-1.4,15.5c0.1,0.3,0,0.7-0.3,0.8C533.2-129.5,533.1-129.5,533-129.5"/>
							<path id="Fill-100" class="st12" d="M552.4-117.5c-2.8,0-4.8-0.6-5-0.6c-0.3-0.1-0.5-0.4-0.4-0.8c0.1-0.3,0.4-0.5,0.8-0.4
								c0.1,0,9.4,2.6,15-3.7c1.7-1.9,2.5-3.2,2.3-3.9c-0.3-1.1-3.4-1.6-7.3-2.3c-1.8-0.3-3.8-0.7-6-1.1c-4.7-1-7.8-2.8-9.4-5.5
								c-1.6-2.7-0.9-5.2-0.8-5.3c0.1-0.3,0.4-0.5,0.8-0.4c0.3,0.1,0.5,0.5,0.4,0.8c0,0.1-0.6,2.1,0.7,4.3c1.4,2.3,4.3,4,8.6,4.9
								c2.2,0.5,4.2,0.8,6,1.1c5,0.9,7.7,1.3,8.3,3.1c0.4,1.2-0.3,2.7-2.5,5.2C560.3-118.3,555.8-117.5,552.4-117.5"/>
							<path id="Fill-101" class="st12" d="M573.3-104.5c-0.2,0-0.5-0.1-0.7-0.2c-0.9-0.6-0.7-2.2,0.6-5.4c1-2.6,1.2-4.7,0.5-6.1
								c-0.7-1.3-1.9-1.6-1.9-1.6c-0.3-0.1-0.5-0.3-0.5-0.6c0-0.3,0.2-0.5,0.5-0.6c0,0,1.3-0.2,2.2-1.7c1.2-1.8,1.4-4.8,0.6-8.6
								c-2-9.5-7.9-8.4-8-8.4c-0.2,0-0.4,0-0.5-0.1s-0.2-0.3-0.2-0.5c-0.1-3-1-5.3-2.7-6.9c-2.6-2.3-6.1-2.1-6.2-2.1
								c-0.3,0-0.6-0.2-0.7-0.6s0.2-0.6,0.6-0.7c0.2,0,4.1-0.3,7.1,2.4c1.8,1.6,2.9,4,3.1,7.1c0,0,0,0,0.1,0c1.9,0,6.8,0.9,8.7,9.4
								c0.9,4.3,0.6,7.5-0.8,9.6c-0.5,0.8-1.1,1.3-1.6,1.6c0.5,0.3,1,0.8,1.4,1.5c0.9,1.8,0.8,4.2-0.4,7.2c-1.3,3.3-1,3.9-1,4
								c0.1,0,0.8-0.4,1.2-0.8c0.3-0.2,0.7-0.2,0.9,0.1c0.2,0.3,0.2,0.7-0.1,0.9C575-105.2,574.1-104.5,573.3-104.5"/>
							<path id="Fill-102" class="st12" d="M570.7-126.5c-0.3,0-0.5-0.2-0.6-0.4c0-0.1-4.7-13.6-9.5-17.4c-0.3-0.2-0.3-0.6-0.1-0.9
								c0.2-0.3,0.6-0.3,0.9-0.1c5.1,4.1,9.8,17.5,10,18c0.1,0.3-0.1,0.7-0.4,0.8C570.9-126.5,570.8-126.5,570.7-126.5"/>
							<path id="Fill-103" class="st12" d="M566-98.5c-0.4,0-0.6-0.3-0.6-0.6c0-0.3,0.3-0.6,0.6-0.6h7.3c0.1,0,2.7-0.4,3.7-5.8
								c1-5.4-2.7-6.8-2.8-6.8c-0.3-0.1-0.5-0.5-0.4-0.8c0.1-0.3,0.5-0.5,0.8-0.4c0,0,4.8,1.7,3.6,8.2c-1.2,6.4-4.7,6.8-4.9,6.8
								L566-98.5"/>
							<path id="Fill-104" class="st12" d="M564-95.5c-0.3,0-0.6-0.2-0.6-0.6c0-0.3,0.2-0.7,0.5-0.7c0,0,2.1-0.6,1.9-7.4
								c-0.3-8.2,3.7-9.2,3.8-9.3c0.3-0.1,0.7,0.1,0.7,0.5c0.1,0.3-0.1,0.7-0.4,0.8c-0.1,0-3.1,1-2.9,8
								C567.3-96.1,564.4-95.5,564-95.5L564-95.5"/>
							<path id="Fill-105" class="st12" d="M587.6-97.5C587.5-97.5,587.5-97.5,587.6-97.5c-0.4,0-0.7-0.4-0.6-0.7
								c1.6-13.3-12.3-30.1-12.4-30.3c-0.2-0.3-0.2-0.7,0.1-0.9s0.7-0.2,0.9,0.1c0.6,0.7,14.4,17.3,12.7,31.2
								C588.2-97.7,587.9-97.5,587.6-97.5"/>
							<path id="Fill-106" class="st12" d="M584.2-96.5c-0.2,0-0.4-0.1-0.5-0.3c-1.7-2.3-2.4-4.6-2-6.8c0.4-2.1,1.6-3.6,2.6-4.5
								c-3.5-1-3.8-3.9-4.1-6.5c-0.1-0.9-0.2-1.8-0.4-2.6c-0.8-3.3-4.9-4.1-5-4.1c-0.3-0.1-0.6-0.4-0.5-0.7s0.4-0.6,0.7-0.5
								c0.2,0,4.9,1,5.9,5c0.2,0.9,0.3,1.9,0.4,2.8c0.3,2.9,0.6,5.1,4.3,5.7c0.3,0,0.5,0.2,0.5,0.5c0.1,0.3-0.1,0.5-0.3,0.7
								c0,0-2.6,1.7-3.1,4.5c-0.3,1.9,0.3,3.8,1.7,5.8c0.2,0.3,0.1,0.7-0.1,0.9C584.5-96.5,584.3-96.5,584.2-96.5"/>
							<path id="Fill-107" class="st12" d="M566.8-100.6h5.5c0.3,0,0.6,0.3,0.6,0.6c0.2,2.7,1.3,5.2,3.2,7c0.9,0.9,1.9,1.6,3.1,2.1
								l7.8-8.6c0.5-4.8-0.8-10.4-4-16.9l0,0c-3.6-7.3-8.2-13-8.3-13c-0.1-0.1-0.1-0.2-0.1-0.3c-2-9.5-8.1-8.5-8.1-8.4
								c-0.2,0-0.4,0-0.5-0.1s-0.2-0.3-0.2-0.5c-0.1-3-1-5.4-2.8-6.9c-2.6-2.3-6.2-2.1-6.3-2.1c-0.3,0-0.5-0.1-0.6-0.3
								c-2.5-5.1-9.3-6.9-9.4-7c-5.2-1.7-9.2-1.7-11.7-0.1c-1.7,1.1-2.3,2.7-2.5,3.4l0,0c0.2,0.1,0.3,0.3,0.3,0.5s-0.1,0.4-0.2,0.5
								l-7.8,5.9c0.5,1,1.2,2,2,2.8c1.1,1.1,2.4,1.9,3.9,2.5c0.2,0.1,0.4,0.3,0.4,0.5c0.3,3.1,1.4,6.1,1.8,7.2
								c0.1,0,0.2,0.1,0.2,0.2c0.2,0.2,0.2,0.5,0,0.7c-3.1,4.4-2.6,10.3,1.2,14.1c4,4,10.6,4.3,15,0.6c0.2-0.2,0.6-0.2,0.9,0
								c0.2,0.2,0.2,0.6,0,0.8c-3.7,4.3-3.4,10.8,0.6,14.8c3.4,3.4,8.6,4.2,12.9,2c0.8-0.6,2.4-1.6,2.7-2
								C566.5-100.5,566.7-100.6,566.8-100.6z M579.4-89.5c-0.1,0-0.2,0-0.2-0.1c-1.5-0.6-2.8-1.5-3.9-2.6c-2-2-3.2-4.5-3.5-7.3
								h-4.7c-0.7,0.6-2.5,1.8-2.7,2c-4.9,2.5-10.6,1.6-14.5-2.2c-3.8-3.7-4.6-9.4-2.3-14c-4.6,2.2-10.4,1.4-14.1-2.3
								c-4.1-4.1-4.8-10.4-1.6-15.2c-0.3-0.8-1.5-3.9-1.9-7.3c-1.5-0.6-2.9-1.5-4-2.6c-1-1-1.9-2.2-2.5-3.6c-0.1-0.3,0-0.6,0.2-0.8
								l7.6-5.7c0-0.1-0.1-0.2,0-0.3c0-0.1,0.3-2.9,3.1-4.7c2.9-1.8,7.2-1.8,12.8,0c0.3,0.1,7.1,2,10,7.2l0,0c1.9,0,9.3,0.6,9.9,9.5
								c1.8,0,7,0.8,8.8,9.3c0.7,0.9,4.9,6.2,8.3,13c0.1,0.1,0.1,0.2,0.1,0.3c3.2,6.7,4.6,12.6,4,17.6c0,0.1-0.1,0.2-0.2,0.3
								l-8.2,9.1C579.7-89.5,579.6-89.5,579.4-89.5z"/>
						</g>
					</g>
					<g id="carnaval" transform="translate(315.171710, 278.643164) rotate(-10.000000) translate(-315.171710, -278.643164) ">
						<g>
							<g class="st1">
								<text transform="matrix(1 0 0 1 174.8765 101.6715)" class="st21 st8 st22">carnaval</text>
							</g>
						</g>
						<g>
							<g class="st1">
								<text transform="matrix(1 0 0 1 174.8765 101.6715)" class="st21 st8 st22">carnaval</text>
							</g>
						</g>
					</g>
					<g id="Halloween" transform="translate(201.171710, 223.643164) rotate(-10.000000) translate(-201.171710, -223.643164) ">
						<g>
							<g class="st1">
								<text transform="matrix(1 0 0 1 48.5328 50.087)" class="st21 st8 st23">Halloween</text>
							</g>
						</g>
					</g>
				</g>
			</g>
		</g>
	</g>
</g>
</svg>
