<svg id="Layer_1" data-name="Layer 1" xmlns="http://www.w3.org/2000/svg" viewBox="0 0 525 525"><defs><style>.cls-1{fill:#ee509a;}.cls-10,.cls-2{fill:#2adfdf;}.cls-20,.cls-25,.cls-26,.cls-3{fill:#fff;}.cls-24,.cls-4{fill:none;}.cls-20,.cls-21,.cls-22,.cls-23,.cls-25,.cls-26,.cls-27,.cls-5,.cls-6,.cls-7,.cls-8,.cls-9{isolation:isolate;}.cls-6,.cls-7{font-size:64px;font-family:GoboldBoldItalic-Italic, Gobold Bold Italic;}.cls-14,.cls-6,.cls-8{fill:#f8e71c;}.cls-21,.cls-22,.cls-23,.cls-25,.cls-26,.cls-27,.cls-6,.cls-7,.cls-8,.cls-9{font-style:italic;}.cls-11,.cls-7,.cls-9{fill:#7e3beb;}.cls-8,.cls-9{font-size:85px;font-family:Gobold-Italic, Gobold;}.cls-10,.cls-24{stroke:#000;stroke-miterlimit:10;}.cls-12{fill:#3d1717;}.cls-13{fill:#c06539;}.cls-15{fill:#f6de5e;}.cls-16{fill:#cfaf31;}.cls-17{fill:#9b4b2c;}.cls-18{fill:#f2beba;}.cls-19{fill:#eb958e;}.cls-20{font-size:84.99px;font-family:IM_FELL_Double_Pica_Roman, IM FELL Double Pica;letter-spacing:-0.02em;}.cls-21{font-size:48px;}.cls-21,.cls-22,.cls-23{font-family:IM_FELL_English_Italic, IM FELL English;}.cls-22{font-size:21px;}.cls-23{font-size:24px;}.cls-25,.cls-27{font-size:14px;}.cls-25,.cls-26{font-family:IM_FELL_Double_Pica_Italic, IM FELL Double Pica;}.cls-26{font-size:32px;}.cls-27{font-family:IM_FELL_French_Canon_Italic, IM FELL French Canon;}.cls-28{letter-spacing:0em;}.cls-29{fill:#231f20;}</style></defs><title>Artboard 1</title><g id="Image"><rect id="path-1" class="cls-1" x="-1.2" y="-6.3" width="534.8" height="535.6"/></g><rect class="cls-2" x="-8.4" y="408.1" width="39.5" height="98.4"/><g id="Layer_1-2" data-name="Layer 1-2"><path class="cls-3" d="M184.1,66.1a2.59,2.59,0,0,0,.9,1.7,3,3,0,0,0,1.6.8,2,2,0,0,0,1.1,0,1.27,1.27,0,0,0,.6-.1,4.45,4.45,0,0,0,2.1-1.2,12.88,12.88,0,0,0,1.6-1.7c.4-.6.9-1.1,1.3-1.6l.1-.1c.1.1.1.2.2.3a3,3,0,0,0,.8.8l.1.1-.4.5-.6.6-.6.6a2.18,2.18,0,0,0-.5.8,2.39,2.39,0,0,0-.3.9,1.34,1.34,0,0,0,.2.9,2,2,0,0,0,1.1,1.1,5.07,5.07,0,0,0,1.3.2h.2a2.35,2.35,0,0,0,1.4-.7,4.12,4.12,0,0,0,1-1.3,2.93,2.93,0,0,0,.4-1.6,2.88,2.88,0,0,0-.3-1.6,4.62,4.62,0,0,0-.7-.7,13.72,13.72,0,0,1,1.8-1.6,9.06,9.06,0,0,1,1.6-1.1c0,1.4.1,2.7.2,4.1.2,3.9.6,7.9,1,11.9a.76.76,0,0,0,.2.5.63.63,0,0,0,.9-.1.75.75,0,0,0,.1-.5c-.5-4-.8-8-1.1-11.9s-.3-7.9-.2-11.9l1-.2,1.5-.3,2.5-.5a.55.55,0,0,0,.5-.3.75.75,0,0,0,.1-.5.52.52,0,0,0-.2-.4.75.75,0,0,0-.5-.1h0l-2.5.5-2.3.5a27.15,27.15,0,0,1,.1-2.8c0-.9.1-1.8.1-2.9,0-.2,0-.4-.2-.5a2.19,2.19,0,0,0-.5-.3.75.75,0,0,0-.5.1.55.55,0,0,0-.3.5c-.1,1-.1,2.1-.2,3.1s-.1,2-.1,3a5.85,5.85,0,0,1-1.3.2c-.4.1-1,.2-1.4.3a.55.55,0,0,0-.5.3.75.75,0,0,0-.1.5.52.52,0,0,0,.2.4.75.75,0,0,0,.5.1h0l1.5-.3h.2l1-.2c0,2,0,4.1.1,6.2h0a10,10,0,0,0-2.4,1.6c-.7.6-1.4,1.3-2.1,1.9-.3-.2-.5-.3-.6-.6a1.93,1.93,0,0,1-.3-1v-.3c.1-.1,0-.2,0-.3a1.45,1.45,0,0,1,.2-.7,7.46,7.46,0,0,1,.7-1.2,6.47,6.47,0,0,1,.8-.9c.2-.1.2-.3.2-.5s-.2-.3-.2-.4a.76.76,0,0,0-.5-.2.55.55,0,0,0-.5.3,8.55,8.55,0,0,0-1.5,2.2c-.1.3-.3.7-.4,1.1a.1.1,0,0,1-.1.1,5.3,5.3,0,0,1-.6,1l-.7,1L190.8,65a13.58,13.58,0,0,1-1.2,1.2,6,6,0,0,1-1.5.9,2,2,0,0,1-1.7-.1,1,1,0,0,1-.6-.5c-.2-.2-.2-.5-.3-.7v-.9c0-.3.1-.4.1-.7a2,2,0,0,0,2.1-.3,5.26,5.26,0,0,0,1.6-2,9.83,9.83,0,0,0,.5-1.6,3.28,3.28,0,0,0-.1-1.7,1.4,1.4,0,0,0-2.2-.8,5.26,5.26,0,0,0-1.4,1.2,8.64,8.64,0,0,0-1,1.6c-.2.6-.5,1.2-.7,1.8s-.2,1.2-.3,1.7Zm9.5,2.6a1.61,1.61,0,0,1,.3-.9c.2-.3.5-.6.8-1a4.3,4.3,0,0,1,.7-.7l.3-.3.2-.2c.1.1.3.2.4.4a.82.82,0,0,1,.1.7,1.88,1.88,0,0,1-.2.8,1.77,1.77,0,0,1-.5.8,4.35,4.35,0,0,1-.7.6,1.08,1.08,0,0,1-.8.2c-.6-.1-.6-.3-.6-.4Zm-7.7-5.9a8.65,8.65,0,0,1,.7-1.7c0-.1.2-.3.4-.6a5.55,5.55,0,0,1,.6-.8,2.65,2.65,0,0,1,.6-.5h.1c.1.1.1.2.2.3s.1.4,0,.6a2.35,2.35,0,0,1-.2.8,4.88,4.88,0,0,1-.3.7l-.3.6a1.6,1.6,0,0,1-.9.7A.94.94,0,0,1,185.9,62.8Z"/><path class="cls-3" d="M197.9,82.8c-.3-.2-.6-.1-.9.2h0l-3.1,4.8h0l-.3.5a6.13,6.13,0,0,1-.4.6l-.1.1a.55.55,0,0,1-.5.3c-.1,0-.2,0-.2-.2v-.6h0c0-.4.1-1.1.1-1.5v-.7c0-.2,0-.4-.2-.5a.76.76,0,0,0-.9.1c-.2.1-.2.3-.2.5v.9a3.75,3.75,0,0,1-.1,1v.6c-.3,1.9-.7,4-1.8,4.4a.6.6,0,0,1-.4-.1c-.7-.3-1.5-1.9-2.2-4.2,1.4-5.2,3-12,1.9-15.2-.5-1.6-1.6-2.4-2.7-2.1-.9.3-1.5,1.3-1.9,3.1-.8,4-.1,9.8,1.1,14-.2,1.7-.8,2.4-1.6,2.6s-1.9-1.5-2.7-4.3c1.4-5.2,3-12,1.9-15.2-.5-1.6-1.6-2.4-2.7-2.1-3,.9-2.6,10.1-1,16.3l-.1.1a1.61,1.61,0,0,1-1.1.5h-1.1a2.07,2.07,0,0,0-.6-1,1.05,1.05,0,0,0-.9-.5.6.6,0,0,0-.6.3.78.78,0,0,0-.1.8,1.78,1.78,0,0,0,.4,1,4.62,4.62,0,0,0,.7.7.1.1,0,0,0,.1.1c0,.3.1.6.1,1v2.2a8.87,8.87,0,0,1-.3,1.4,5.36,5.36,0,0,1-.5,1.1.67.67,0,0,1-.8.3,1,1,0,0,1-.8-.5,3.7,3.7,0,0,1-.5-1.1c-.1-.4-.2-.9-.3-1.3s-.1-.8-.1-1.2V88.9a3.75,3.75,0,0,1,.1-1.1,4.4,4.4,0,0,0,.2-1,1.37,1.37,0,0,1,.5-.8h0c0-.1.2-.3.2-.4a.75.75,0,0,0,.1-.5.85.85,0,0,0-.3-.5c-.1,0-.3-.1-.4,0a1.21,1.21,0,0,0-.7.7c-.1.3-.3.7-.4,1.1a7,7,0,0,0-.3,1.4l-2.4.3v-.4a.75.75,0,0,1,.1-.5c.1-1.9.3-3.9.4-5.8s.2-3.8.4-5.8c0-.2,0-.4-.2-.5a.76.76,0,0,0-.5-.2.9.9,0,0,0-.5.1.55.55,0,0,0-.3.5l-.9,12v.8c-3,.4-6.1,1-9,1.6.1-2,.3-4.3.4-6.5s.3-4.5.4-6.7c0-.2,0-.4-.2-.5a2.19,2.19,0,0,0-.5-.3.9.9,0,0,0-.5.1.55.55,0,0,0-.3.5c-.2,2.4-.3,4.8-.4,6.9s-.3,4.5-.5,6.8c-4.3,1-8.5,2.3-12.7,3.7a.43.43,0,0,0-.4.4.9.9,0,0,0,.1.5,1.38,1.38,0,0,0,.3.4c.1.1.4.1.6.1,2-.8,4.1-1.4,6.1-2s4-1.1,6-1.6c-.2,2.6-.3,5.1-.5,7.6l-.6,7.8c0,.2,0,.4.2.5a2.19,2.19,0,0,0,.5.3h.2c.1,0,.2-.1.3-.1s.2-.3.3-.5c.2-2.7.4-5.4.6-8s.4-5.2.6-7.9l4.5-.9c1.5-.3,3-.6,4.5-.8-.1,1.5-.2,2.9-.3,4.4a33.79,33.79,0,0,0,0,4.5c0,.2,0,.4.3.5a.63.63,0,0,0,.9-.1c.2-.1.2-.3.2-.5a33.79,33.79,0,0,1,0-4.5c.1-1.5.1-3,.3-4.4l2.4-.3a19.42,19.42,0,0,0,.2,2.4c.1.4.2.9.3,1.3a6.12,6.12,0,0,0,.5,1.2,3.59,3.59,0,0,0,.7,1c.2.3.6.4,1,.6a.85.85,0,0,0,.7,0,.6.6,0,0,0,.4-.1,3.11,3.11,0,0,0,.9-.7,3.88,3.88,0,0,0,.6-1.1c.1-.4.3-.9.4-1.3a12.31,12.31,0,0,0,.2-2,13.4,13.4,0,0,0-.1-2,3.4,3.4,0,0,0,1-.1,1.78,1.78,0,0,0,1-.4c.1-.1.2-.2.3-.2,1.1,3.5,2.6,5.2,4.2,5a3,3,0,0,0,2.4-1.6,7.61,7.61,0,0,0,1.8,2.9,1.84,1.84,0,0,0,1.6.5.6.6,0,0,0,.4-.1c1.3-.5,2-2,2.3-3.8.1,0,.2.1.3.1a1.38,1.38,0,0,0,1.2-.3,3.74,3.74,0,0,0,1.3-1.5,14,14,0,0,1,1-1.6l.1-.1.6-1c.1-.2.3-.4.4-.6-.1,1.8-.3,3.7-.3,5.5,0,2,0,4,.1,5.9s.2,3.9.3,5.9a6.76,6.76,0,0,0,.1,1.2v.8a.68.68,0,0,0,.7.7h-.1c.4,0,.6-.4.6-.8-.2-3.3-.3-4.5-.3-7.2V96.2c-.1-4.1.1-8.5.3-12.8A3.29,3.29,0,0,0,197.9,82.8Zm-11.8-9.6h.1c.6-.1,1,1.1,1.1,1.3.9,2.8-.4,8.9-1.4,12.5-1.6-7-1.2-13.4.2-13.8Zm-5.8-1.9c.6-.1,1,1.1,1.1,1.3.9,2.8-.4,8.9-1.4,12.5-1.6-6.9-1.2-13.3.3-13.8Z"/><path class="cls-3" d="M160.3,71.2a4.57,4.57,0,0,0,1.4,1.7,2.25,2.25,0,0,0,1.9.4,4.44,4.44,0,0,0,2.8-1.4,15.81,15.81,0,0,0,2.2-2.9,19.21,19.21,0,0,0,1.7-3.9,35.17,35.17,0,0,0,1.3-4.3c.4-1.5.7-2.9,1-4.3v-.3a23.25,23.25,0,0,1,.5,2.8,39.74,39.74,0,0,0,1.5,4.9,13.28,13.28,0,0,0,2,3.7,3,3,0,0,0,2.8,1.4,3,3,0,0,0,2.1-1.3,12.27,12.27,0,0,0,1.2-2.6,19.68,19.68,0,0,0,.6-3.5,25.41,25.41,0,0,0,.1-3.9c0-1.3-.1-2.7-.2-4s-.3-2.6-.4-3.7c-.1-.9-.2-1.6-.3-2.2s-.2-1.2-.3-1.7a.74.74,0,0,0-.5-.6.64.64,0,0,0-.6,0,.74.74,0,0,0-.4.9A15.69,15.69,0,0,1,181,48l.3,2.1c.1,1.1.3,2.3.4,3.5s.1,2.6.2,3.8,0,2.5-.1,3.7a15.44,15.44,0,0,1-.5,3.1,8.49,8.49,0,0,1-.9,2.2,2,2,0,0,1-1.2.8c-.6.1-1.1-.2-1.6-1a12.89,12.89,0,0,1-1.7-3.3,24.17,24.17,0,0,1-1.3-4.6c-.3-1.7-.7-3.3-.9-4.7a11.08,11.08,0,0,1-.2-1.9c0-.7-.1-1.1-.1-1.6a.85.85,0,0,0-.7-.8h-.2a.76.76,0,0,0-.4.1.55.55,0,0,0-.3.5c-.1.9-.3,2-.5,3.4s-.5,2.9-.8,4.5-.7,3.2-1.2,4.8a20.28,20.28,0,0,1-1.7,4.3,12.61,12.61,0,0,1-2.1,3.2,3.6,3.6,0,0,1-2.3,1.3c-.3,0-.7,0-.9-.3a3.13,3.13,0,0,1-.9-1.1c-.3-.7-.5-1.3-.8-2a25.58,25.58,0,0,1-.5-2.7,56.33,56.33,0,0,1-.3-5.8,46,46,0,0,1,.5-6.4,48.28,48.28,0,0,1,1.2-6.2,28,28,0,0,1,1.8-5.1.91.91,0,0,0-.1-1.1.45.45,0,0,0-.6-.2h0a.85.85,0,0,0-.5.3l-.1.1a25,25,0,0,0-2,5.4,45.35,45.35,0,0,0-1.3,6.4,48.87,48.87,0,0,0-.5,6.6,41.55,41.55,0,0,0,.3,6.1,17,17,0,0,0,.6,3.1C159.6,69.6,159.9,70.4,160.3,71.2Z"/><path class="cls-3" d="M231.2,57.3a.76.76,0,0,0-1,.1h0a.75.75,0,0,0-.1.5l2,17.2v.2c-.1.1-.1.1-.2,0a2,2,0,0,0-1.3.2c-.1,0-.1.1-.2.1a5.09,5.09,0,0,0-1.3,1.6c-.5.8-.8,1.6-1.2,2.4a10.15,10.15,0,0,0-.6,2.5v.4a3,3,0,0,1-2.1,1.8,10.07,10.07,0,0,0-.1-3c-.2-1.6-1-4.2-2.8-4-.7.1-1.2.7-1.4,1.7a3.3,3.3,0,0,0,0,1.4h0c-.1,0-.2.1-.3.2a4.17,4.17,0,0,0-.8,1.8,5.3,5.3,0,0,0-1,.6,5,5,0,0,1-1.3.5,6.8,6.8,0,0,0-.3-1.9,6.19,6.19,0,0,0-.7-1.9,3.18,3.18,0,0,0-1.1-1.2,1.53,1.53,0,0,0-1.6,0,5.72,5.72,0,0,0-.8.7,4.18,4.18,0,0,0-.4,1,4.1,4.1,0,0,0-.1,1.1c0,.3.1.6.1,1a3.55,3.55,0,0,0,.4.9,9,9,0,0,0-.9,1,1.31,1.31,0,0,1-1.2.3,4.33,4.33,0,0,0-.5-.1,4.87,4.87,0,0,1,.1-1.2,9.51,9.51,0,0,0-.1-1.4,7.8,7.8,0,0,0-.3-2.2,5.63,5.63,0,0,0-.7-1.8.8.8,0,0,0-1.2-.4h0l-.1.1a1.7,1.7,0,0,0-.6.6,9.44,9.44,0,0,0-.3.9,9.7,9.7,0,0,0-.1,1.7,7.35,7.35,0,0,0,1.2,3.6,4.35,4.35,0,0,0,.6.7c-.1.4-.2.9-.3,1.3a5,5,0,0,1-.5,1.3c-.2.3-.3.5-.5.8a1,1,0,0,1-.7.4,1.88,1.88,0,0,1-.8-.2,4.35,4.35,0,0,1-.6-.7,3.37,3.37,0,0,1-.5-1.7,11.63,11.63,0,0,0-.4-1.8.68.68,0,0,0-.6-.4c-.3-.1-.5.1-.7.3a7.92,7.92,0,0,1-.6,1,12.9,12.9,0,0,1-.9,1.6,7.1,7.1,0,0,1-1,1.4,1.41,1.41,0,0,1-.6.5c-.1,0-.2-.2-.2-.3s-.1-.4-.1-.7V87c0-.2.1-.4.1-.6a5.75,5.75,0,0,1,1.1-2.7c.1-.1.1-.4.1-.6s-.1-.3-.2-.5a.44.44,0,0,0-.5-.1.55.55,0,0,0-.5.3,8.62,8.62,0,0,0-1.3,3.8c0,.2-.1.4-.1.8v.9a2.92,2.92,0,0,0,.2.9,3,3,0,0,0,.5.7,1.44,1.44,0,0,0,1.4.3,2.84,2.84,0,0,0,1.1-.8,8.28,8.28,0,0,0,1.1-1.5l.7-1.3.3,1.2a3.09,3.09,0,0,0,.7,1.4,4.7,4.7,0,0,0,1.2.9,5,5,0,0,0,1.2.2h.3a2.65,2.65,0,0,0,1.9-1.8A8.09,8.09,0,0,0,210,86c.1,0,.3.1.4.1a.9.9,0,0,1,.5.1,2.2,2.2,0,0,0,1.3-.4,3.75,3.75,0,0,1-.1,1c0,.4.1.9.1,1.4a2.57,2.57,0,0,0,.5,1.2,2.09,2.09,0,0,0,1.6,1.1h.6a1.85,1.85,0,0,0,1.2-.7,6.43,6.43,0,0,0,1-2.4,19.42,19.42,0,0,0,.2-2.4,4,4,0,0,0,1.5-.6l.6-.3a5.53,5.53,0,0,0,.7,2.5,2.35,2.35,0,0,0,2.3,1.5c.9-.1,1.7-.9,2.1-2.3h.4a3.2,3.2,0,0,0,2.3-1.6.1.1,0,0,0,.1.1,2,2,0,0,0,1.7.9,3.49,3.49,0,0,0,1.7-.6,9.27,9.27,0,0,0,1.4-1.4l.2-.2c.1-.1.1-.1.2-.1s.1.1.1.2l.9,6.8a.66.66,0,0,0,.8.5.53.53,0,0,0,.5-.7l-3.9-31.6C231.5,57.5,231.4,57.4,231.2,57.3Zm-2.4,24.8a5.37,5.37,0,0,1,.5-2.1,12.44,12.44,0,0,1,1-2,6.42,6.42,0,0,1,1-1.3h.2a2.18,2.18,0,0,1,.4.5,4.18,4.18,0,0,1,.4,1,6.8,6.8,0,0,1-.2,2,9.62,9.62,0,0,1-.7,1.8,4,4,0,0,1-1,1.2,1.08,1.08,0,0,1-1.1,0c-.5-.1-.6-.5-.5-1.1ZM215,84.5c.3.1.5.2.8.3s.4.1.6.1a7.8,7.8,0,0,1-.3,2.2,3.09,3.09,0,0,1-.2.8,1,1,0,0,1-.4.7.91.91,0,0,1-.5.3c-.2,0-.3-.2-.4-.3s-.2-.4-.3-.7-.1-.4-.1-.6a4.29,4.29,0,0,1,0-1.6,7,7,0,0,1,.3-1.4,1.69,1.69,0,0,1,.5.2Zm1.3-1.1a2.35,2.35,0,0,1-.8-.2,2.18,2.18,0,0,1-.8-.5,2.51,2.51,0,0,1-.6-1.4,2.2,2.2,0,0,1,.2-1.4c.2-.3.3-.4.4-.4h.1c.2,0,.3.1.4.3a2,2,0,0,1,.4.8,4.88,4.88,0,0,1,.3.7,13,13,0,0,1,.4,2.1ZM209.4,81c0,.3.1.7.1,1v.5c0-.1,0-.1-.1-.2a9.83,9.83,0,0,1-.5-1.6,2.86,2.86,0,0,1,.1-1.6h0c0,.1.1.1.1.2.1.5.2,1.1.3,1.7Zm12.8-2.3a.68.68,0,0,1,.3-.4h0c.7-.1,1.3,1.9,1.5,3.2a17,17,0,0,1,.1,2.3c-1.3-1.3-2.2-4-1.9-5.1Zm.6,7.9a1.22,1.22,0,0,1-1-.6,6.26,6.26,0,0,1-.5-4.3,5.63,5.63,0,0,0,2.5,3.5c-.1.5-.4,1.3-1,1.4Z"/><rect class="cls-4" x="134.19" y="30.79" width="113.4" height="82.3" transform="translate(-7.51 24.47) rotate(-7.19)"/></g><g id="carnaval"><g class="cls-5"><text class="cls-6" transform="matrix(0.98, -0.17, 0.17, 0.98, 222.42, 258.13)">carnaval</text></g><g class="cls-5"><text class="cls-6" transform="matrix(0.98, -0.17, 0.17, 0.98, 222.42, 258.13)">carnaval</text></g></g><g id="carnaval-2" data-name="carnaval"><g class="cls-5"><text class="cls-7" transform="matrix(0.98, -0.17, 0.17, 0.98, 225.3, 260.55)">carnaval</text></g></g><g id="Halloween"><g class="cls-5"><text class="cls-8" transform="matrix(0.98, -0.17, 0.17, 0.98, 97.25, 208.25)">Halloween</text></g></g><g id="Halloween-2" data-name="Halloween"><g class="cls-5"><text class="cls-9" transform="matrix(0.98, -0.17, 0.17, 0.98, 101.98, 209.12)">Halloween</text></g></g><path id="Fill-4" class="cls-10" d="M-10.2,602.9c-13.9-9.8-19.1-31.8-11.5-49.3L41.1,409c7.6-17.4,25-23.7,39-13.9s19.1,31.8,11.5,49.3L28.8,589c-7.6,17.4-25,23.6-39,13.9"/><path id="Fill-5" class="cls-11" d="M206.2,285.7a12,12,0,0,1,5.7-15L201,274.8a12.08,12.08,0,0,1-9.5-22.2,12,12,0,0,1-7.7-22.8l10.9-4.1a12.06,12.06,0,0,1-14-16.3,80.18,80.18,0,0,0-10.8-5.9c-40.3-18-99.2-5.1-117.2,35.2l58.9,246.6,19.8.3,78.8-176a74.52,74.52,0,0,0,5.2-16.2,12.21,12.21,0,0,1-9.2-7.7"/><path id="Fill-6" class="cls-12" d="M53.1,238.2l59.4,246,19,.3L210.1,309a81.8,81.8,0,0,0,5.1-15.4,12.72,12.72,0,0,1-9.1-7.9,13,13,0,0,1,2.4-13.1l-6.8,2.5a12.79,12.79,0,0,1-16.5-7.4,12.56,12.56,0,0,1,3.8-14.3,12.81,12.81,0,0,1-12.2-17.9,12.46,12.46,0,0,1,7.1-6.6l6.8-2.5a12.87,12.87,0,0,1-10.6-8.2,12.15,12.15,0,0,1,0-8.8,94.15,94.15,0,0,0-10.4-5.6C130.8,186.3,71.5,197.6,53.1,238.2Zm58.7,247.1c-.2-.1-.3-.3-.4-.4L51.8,238.3c-.1-.1,0-.2.1-.4,18.5-41.4,78.9-53,118.4-35.3a78.19,78.19,0,0,1,11,6c.3.1.3.5.2.8a11.11,11.11,0,0,0-.1,8.4,11.62,11.62,0,0,0,13.5,7.1.62.62,0,0,1,.8.5.87.87,0,0,1-.4.9l-10.9,4.1a11.43,11.43,0,0,0-6.4,6,11.66,11.66,0,0,0-.3,8.8,11.48,11.48,0,0,0,13.9,6.9.87.87,0,0,1,.9.4.76.76,0,0,1-.3.8,11.43,11.43,0,0,0,9,21l10.9-4.1a.87.87,0,0,1,.9.4.81.81,0,0,1-.3.9,11.38,11.38,0,0,0,3.5,21.3c.2.1.3.1.4.3a.75.75,0,0,1,.1.5,77.66,77.66,0,0,1-5.3,16.3L132.6,485.8a.55.55,0,0,1-.6.4l-19.9-.4C112,485.4,111.9,485.3,111.8,485.3Z"/><path id="Fill-7" class="cls-13" d="M206.9,285.8a12,12,0,0,1,5.7-14.9l-10.8,4a5.73,5.73,0,0,1-1.4.4,12.18,12.18,0,0,1-14.2-7.4,12,12,0,0,1,6.1-15.2c-.1.1-.2,0-.4.1a12.36,12.36,0,0,1-14.4-7.4,11.88,11.88,0,0,1,5.7-14.9c.5-.3.9-.4,1.3-.7l10.8-4h0c-5.9,1.4-11.4-2-14.2-7.4-2.1-4,.1-8.9.1-8.9l-27.8,6.4a12,12,0,0,0,7.3,22.9l-10.8,4a12,12,0,0,0-6.9,15.5,12.28,12.28,0,0,0,14.8,7.3,12,12,0,0,0-6.1,15.2,12.29,12.29,0,0,0,15.7,7l10.8-4a12,12,0,0,0-5.7,14.9,12.24,12.24,0,0,0,15.7,7l28.3-12.4c-.3.1-7.3-1.2-9.6-7.5"/><path id="Fill-8" class="cls-2" d="M168.6,294.4a11.88,11.88,0,0,1,5.7-14.9l-10.9,4.1a12.08,12.08,0,0,1-9.5-22.2,12,12,0,0,1-7.7-22.8l10.9-4.1a12.06,12.06,0,0,1-7.1-23l13-3a98.75,98.75,0,0,0-16-9.7A80.37,80.37,0,0,0,41.1,239.2L-37.6,414.9l146.3,65.5,78.7-175.7c.8-1.7,1.5-3.6,2.1-5.3l-5.2,2A12.2,12.2,0,0,1,168.6,294.4Z"/><path id="Fill-9" class="cls-12" d="M163.5,210.9h0c-2.3-1.5-4.6-2.9-6.9-4.1a.58.58,0,0,1-.3-.8c.1-.3.6-.3.9-.2,2.4,1.3,4.7,2.7,6.9,4.1.3.3.4.5.2.8a.72.72,0,0,1-.8.2"/><path id="Fill-10" class="cls-12" d="M128.1,299.1c-5-2.3-14.7,7.9-21.1,22.1s-7.5,28.2-2.5,30.5,14.7-7.9,21.1-22.1S133.1,301.4,128.1,299.1ZM104,353c-5.9-2.6-5-16.7,1.9-32.2s16.9-25.5,22.8-22.9,5,16.7-1.9,32.2S109.9,355.6,104,353Z"/><path id="Fill-11" class="cls-12" d="M92,282.9c-5-2.3-14.7,7.9-21.1,22.1s-7.5,28.2-2.5,30.5,14.7-7.9,21.1-22.1S97,285.2,92,282.9ZM67.9,336.8c-5.9-2.6-5-16.7,1.9-32.2s16.9-25.5,22.8-22.9,5,16.7-1.9,32.2S73.8,339.4,67.9,336.8Z"/><path id="Fill-12" class="cls-14" d="M102.7,351.2c-6.4-2.8-6-17.3.6-32.2s17.2-24.8,23.6-21.9l1.8.8L104.5,352l-1.8-.8"/><path id="Fill-13" class="cls-14" d="M66.6,335.1c-6.4-2.8-6-17.3.6-32.2S84.4,278.1,90.8,281l1.8.8L68.4,335.9l-1.8-.8"/><path id="Fill-14" class="cls-12" d="M111,305.9c-.1,0-.1,0-.2-.1-.3-.3-.4-.6-.2-.9a7.11,7.11,0,0,1,1.5-1.5.76.76,0,0,1,1,0c.3.3.4.6.1.8-.4.5-.9,1-1.3,1.5a.59.59,0,0,1-.9.2"/><path id="Fill-15" class="cls-12" d="M107.7,310.2h0a.49.49,0,0,1-.1-.7c.1-.3.4-.5.5-.8a.42.42,0,0,1,.6-.2c.1.2.3.5,0,.7-.1.3-.4.5-.5.8a.41.41,0,0,1-.5.2"/><path id="Fill-16" class="cls-12" d="M98.8,332.4a.57.57,0,0,1-.4-.7,27.92,27.92,0,0,1,1-3.9.79.79,0,0,1,.8-.5.75.75,0,0,1,.5.8c-.4,1.3-.7,2.6-1,3.9,0,.3-.4.5-.9.4h0"/><path id="Fill-17" class="cls-12" d="M104.4,353.1l-1.8-.8c-4.1-1.8-5.8-7.6-4.8-16.1,0-.3.4-.6.7-.6s.6.4.6.7c-.9,7.7.6,13.2,4,14.7l1.1.5,23.6-52.7-1.1-.5c-2.8-1.2-6.6.1-10.7,3.9a.64.64,0,1,1-.8-1c4.6-4.1,8.8-5.5,12.2-4l1.8.8a.63.63,0,0,1,.3.8l-24.1,53.9c-.4.5-.7.6-1,.4"/><path id="Fill-18" class="cls-12" d="M75.4,291.1c-.1,0-.1,0-.2-.1a.63.63,0,0,1,0-.9,21.54,21.54,0,0,1,1.9-2.2c.2-.2.7-.3.9,0s.3.7,0,.9c-.7.7-1.2,1.5-1.9,2.2-.1.2-.5.2-.7.1"/><path id="Fill-19" class="cls-12" d="M73,293.5h0a.62.62,0,0,1-.1-.8l.4-.7a.55.55,0,0,1,.7-.3c.2.1.2.6,0,.8l-.4.6c-.1.4-.4.5-.6.4"/><path id="Fill-20" class="cls-12" d="M63.6,312.1a.47.47,0,0,1-.1-.7l.2-.7c.2-.4.4-.6.7-.5a.57.57,0,0,1,.2.8l-.2.7c-.2.2-.5.5-.8.4h0"/><path id="Fill-21" class="cls-12" d="M62.8,318.6a.67.67,0,0,1-.4-.7,27.44,27.44,0,0,1,.9-3.9c0-.3.5-.6.8-.5s.5.4.5.8a27,27,0,0,0-.8,3.9c0,.3-.4.6-.7.6-.2-.2-.2-.2-.3-.2"/><path id="Fill-22" class="cls-12" d="M68.3,337l-1.8-.8c-3.9-1.7-5.8-7.2-5.2-14.8,0-.3.4-.6.7-.6s.6.4.6.7c-.5,7.1,1.2,11.9,4.5,13.4l1.2.6,23.6-52.7-1.2-.6c-2.6-1.1-6.1-.2-9.8,2.8a.78.78,0,0,1-1-.1.64.64,0,0,1,.1-.9c4.2-3.3,8.2-4.3,11.2-2.9l1.8.8a.58.58,0,0,1,.3.8L69.2,336.6c-.3.4-.5.5-.9.4"/><path id="Fill-23" class="cls-12" d="M128.1,299.1c-5-2.3-14.7,7.9-21.1,22.1s-7.5,28.2-2.5,30.5,14.7-7.9,21.1-22.1S133.1,301.4,128.1,299.1ZM104,353c-5.9-2.6-5-16.7,1.9-32.2s16.9-25.5,22.8-22.9,5,16.7-1.9,32.2S109.9,355.6,104,353Z"/><path id="Fill-24" class="cls-12" d="M92,282.9c-5-2.3-14.7,7.9-21.1,22.1s-7.5,28.2-2.5,30.5,14.7-7.9,21.1-22.1S97,285.2,92,282.9ZM67.9,336.8c-5.9-2.6-5-16.7,1.9-32.2s16.9-25.5,22.8-22.9,5,16.7-1.9,32.2S73.8,339.4,67.9,336.8Z"/><path id="Fill-25" class="cls-12" d="M127,329.6c-6.7,14.9-16.6,25.1-22.1,22.6s-4.5-16.6,2.1-31.5,16.6-25.1,22.1-22.6,4.6,16.6-2.1,31.5"/><path id="Fill-26" class="cls-12" d="M90.9,313.4c-6.7,14.9-16.6,25.1-22.1,22.6s-4.6-16.5,2.1-31.5S87.5,279.4,93,281.9s4.6,16.6-2.1,31.5"/><path id="Fill-27" class="cls-12" d="M112.3,485.5-34.6,419.7a.63.63,0,0,1-.3-.8L43.7,243.4c18.2-40.7,66.2-58.7,107-40.4a.6.6,0,1,1-.5,1.1C110,186.1,62.8,204,44.9,244L-33.4,419l145.8,65.3L130,445.1a.6.6,0,1,1,1.1.5l-17.8,39.8a.9.9,0,0,1-1,.1"/><path id="Fill-28" class="cls-12" d="M208.5,272l-6.9,2.6a13.08,13.08,0,0,1-1.5.5L179.2,283a11.35,11.35,0,0,0-6.5,14.7,11.43,11.43,0,0,0,6,6.4,11.21,11.21,0,0,0,8.8.3l26.6-11.7a12.57,12.57,0,0,1-8.1-7.5A13,13,0,0,1,208.5,272Zm-30.3,33.2a12.66,12.66,0,0,1-6.7-7.1,13,13,0,0,1,.2-9.7,12.46,12.46,0,0,1,7.1-6.6l21-7.9a12.75,12.75,0,0,0,1.4-.4l10.9-4.1a.87.87,0,0,1,.9.4.81.81,0,0,1-.3.9,11.57,11.57,0,0,0-5.3,14.2c2.2,5.9,8.7,7.2,8.8,7.1.3,0,.4.3.5.6a.62.62,0,0,1-.4.6L188,305.6A13.7,13.7,0,0,1,178.2,305.2Z"/><path id="Fill-29" class="cls-12" d="M187.6,254.8l-29.2,11a11.15,11.15,0,0,0-6.5,14.6,11.55,11.55,0,0,0,14.7,6.6l29.2-11a12.6,12.6,0,0,1-10.7-8.1A12.15,12.15,0,0,1,187.6,254.8Zm-30.2,33.1a12.79,12.79,0,0,1-6.7-7,12.34,12.34,0,0,1,7.3-16.2l33.6-12.6a.76.76,0,0,1,.8.3.83.83,0,0,1-.3.8,11.27,11.27,0,0,0-5.7,14.2,11.55,11.55,0,0,0,14.7,6.6l10.8-4a.87.87,0,0,1,.9.4.45.45,0,0,1,0,.5c-.1.2-.2.2-.4.3l-45.2,16.9A12.3,12.3,0,0,1,157.4,287.9Z"/><path id="Fill-30" class="cls-12" d="M183.7,230.2c-.2-.1-.2-.2-.3-.4a.87.87,0,0,1,.4-.9l10.7-4.1a.45.45,0,0,1,.5,0c.2.1.2.2.3.4a.76.76,0,0,1-.3.8h0l-10.7,4.1a.73.73,0,0,1-.6.1"/><path id="Fill-31" class="cls-12" d="M179,232.5l-29,11.2a11.25,11.25,0,0,0-6.3,6,11.39,11.39,0,0,0,5.8,15,11.4,11.4,0,0,0,8.7.2l29.1-11.2a12.19,12.19,0,0,1-10.6-8.1,13,13,0,0,1,.3-9.7A9.22,9.22,0,0,1,179,232.5Zm-30.2,33.3a12.79,12.79,0,0,1-6.6-7.1,13,13,0,0,1,.3-9.7,13.47,13.47,0,0,1,7-6.7l34.2-13.2a.87.87,0,0,1,.9.4.45.45,0,0,1,0,.5c-.1.2-.2.2-.4.3a11.25,11.25,0,0,0-6.3,6,11,11,0,0,0-.2,8.7,11.2,11.2,0,0,0,13.7,6.8.6.6,0,1,1,.5,1.1l-.3.2-33,13.1A12.79,12.79,0,0,1,148.8,265.8Z"/><path id="Fill-32" class="cls-12" d="M179.6,210,153,216.4a11.09,11.09,0,0,0-6.3,6.1,11.22,11.22,0,0,0-.3,8.8,11.35,11.35,0,0,0,14.7,6.5l21-8.2c.5-.3.9-.4,1.3-.7l6.9-2.7a14.08,14.08,0,0,1-10.5-8C178.3,215.2,179.1,211.8,179.6,210Zm-27.7,28.7a12.46,12.46,0,0,1-6.6-7.1,12.8,12.8,0,0,1,.3-9.8,12.94,12.94,0,0,1,7.1-6.7l27.8-6.7a1,1,0,0,1,.7.2.6.6,0,0,1,0,.7s-2,4.8-.2,8.3c2.8,5.6,8.2,8.4,13.4,7a.62.62,0,0,1,.8.5.81.81,0,0,1-.4.9l-10.9,4.2a13.92,13.92,0,0,0-1.3.6l-21,8.3A12.6,12.6,0,0,1,151.9,238.7Z"/><path id="Fill-33" class="cls-12" d="M75.8,370c9.2,4.1,17.2,10.1,22,16.3,3.8,5,5.1,9.7,3.7,12.8s-5.8,5.3-12.1,5.8c-7.8.6-17.6-1.4-26.8-5.5s-17.2-10.1-22-16.3c-3.8-5-5.1-9.7-3.7-12.8s5.8-5.3,12.1-5.8c7.9-.6,17.6,1.4,26.8,5.5"/><path id="Fill-34" class="cls-14" d="M76,383.7a4.72,4.72,0,0,1-2.3-6.3l2.5-5.5a4.81,4.81,0,0,1,6.2-2.5,4.72,4.72,0,0,1,2.3,6.3l-2.5,5.5a4.64,4.64,0,0,1-6.2,2.5"/><path id="Fill-35" class="cls-14" d="M64.6,378.6a4.72,4.72,0,0,1-2.3-6.3l2.5-5.5a4.81,4.81,0,0,1,6.2-2.5,4.72,4.72,0,0,1,2.3,6.3l-2.5,5.5a4.64,4.64,0,0,1-6.2,2.5"/><path id="Fill-36" class="cls-14" d="M53.2,373.5a4.72,4.72,0,0,1-2.3-6.3l2.5-5.5a4.81,4.81,0,0,1,6.2-2.5,4.72,4.72,0,0,1,2.3,6.3L59.4,371a4.64,4.64,0,0,1-6.2,2.5"/><path id="Fill-37" class="cls-15" d="M42.2,367.5a4.69,4.69,0,0,1-2.3-6.3l.8-1.8a4.81,4.81,0,0,1,6.2-2.5,4.69,4.69,0,0,1,2.3,6.3l-.9,1.9a4.59,4.59,0,0,1-6.1,2.4"/><path id="Fill-38" class="cls-14" d="M87.4,388.8a4.72,4.72,0,0,1-2.3-6.3l2.5-5.5a4.81,4.81,0,0,1,6.2-2.5,4.72,4.72,0,0,1,2.3,6.3l-2.5,5.5a4.64,4.64,0,0,1-6.2,2.5"/><path id="Fill-39" class="cls-15" d="M99.2,393a4.69,4.69,0,0,1-2.3-6.3l.8-1.8a4.81,4.81,0,0,1,6.2-2.5,4.69,4.69,0,0,1,2.3,6.3l-.9,1.9a4.62,4.62,0,0,1-6.1,2.4"/><path id="Fill-40" class="cls-12" d="M169.3,356a.48.48,0,0,1-.1-.7l2.5-5.5c.1-.3.4-.5.6-.4a.48.48,0,0,1,.1.7l-2.5,5.5c-.1.4-.4.5-.6.4"/><path id="Fill-41" class="cls-12" d="M165.1,365.5a.48.48,0,0,1-.1-.7l2-4.5c.2-.4.4-.5.6-.4a.48.48,0,0,1,.1.7l-2,4.5c-.1.3-.4.5-.6.4"/><path id="Fill-42" class="cls-12" d="M154.4,389.2a.48.48,0,0,1-.1-.7l7.1-16c.1-.3.4-.5.6-.4a.48.48,0,0,1,.1.7l-7.1,16c-.1.4-.4.5-.6.4"/><path id="Fill-43" class="cls-12" d="M148.1,403.5a.48.48,0,0,1-.1-.7l3.7-8.4c.1-.3.4-.5.6-.4a.48.48,0,0,1,.1.7l-3.7,8.4c-.2.4-.4.5-.6.4"/><path id="Fill-44" class="cls-12" d="M136.6,429.1a.48.48,0,0,1-.1-.7l5.4-12.1c.1-.3.4-.5.6-.4a.48.48,0,0,1,.1.7l-5.4,12.1c-.2.4-.4.5-.6.4"/><path id="Fill-45" class="cls-14" d="M67,403.7a4.72,4.72,0,0,1-2.3-6.3l2.5-5.5a4.81,4.81,0,0,1,6.2-2.5,4.72,4.72,0,0,1,2.3,6.3l-2.5,5.5a4.69,4.69,0,0,1-6.2,2.5"/><path id="Fill-46" class="cls-14" d="M55.6,398.6a4.72,4.72,0,0,1-2.3-6.3l2.5-5.5a4.81,4.81,0,0,1,6.2-2.5,4.72,4.72,0,0,1,2.3,6.3l-2.5,5.5a4.69,4.69,0,0,1-6.2,2.5"/><path id="Fill-47" class="cls-14" d="M44.2,393.5a4.72,4.72,0,0,1-2.3-6.3l2.5-5.5a4.81,4.81,0,0,1,6.2-2.5,4.72,4.72,0,0,1,2.3,6.3L50.4,391a4.66,4.66,0,0,1-6.2,2.5"/><path id="Fill-48" class="cls-14" d="M34.1,385.5a4.73,4.73,0,0,1-2.4-6.2l1.3-2.8a4.78,4.78,0,0,1,6.2-2.4,4.73,4.73,0,0,1,2.4,6.2l-1.3,2.9a4.69,4.69,0,0,1-6.2,2.3"/><path id="Fill-49" class="cls-14" d="M78.4,408.8a4.72,4.72,0,0,1-2.3-6.3l2.5-5.5a4.81,4.81,0,0,1,6.2-2.5,4.72,4.72,0,0,1,2.3,6.3l-2.5,5.5a4.69,4.69,0,0,1-6.2,2.5"/><path id="Fill-50" class="cls-14" d="M89.8,413.9a4.72,4.72,0,0,1-2.3-6.3l2.5-5.5a4.81,4.81,0,0,1,6.2-2.5,4.72,4.72,0,0,1,2.3,6.3L96,411.4a4.69,4.69,0,0,1-6.2,2.5"/><path id="Fill-51" class="cls-16" d="M82.2,369.4a9.29,9.29,0,0,0-1.3-.4,5,5,0,0,1,1.4,5.6l-2.5,5.5a4.7,4.7,0,0,1-5.1,2.7,3.38,3.38,0,0,0,1.1.7,4.81,4.81,0,0,0,6.4-2.4l2.5-5.5a4.84,4.84,0,0,0-2.5-6.2"/><path id="Fill-52" class="cls-16" d="M70.8,364.3a9.29,9.29,0,0,0-1.3-.4,5,5,0,0,1,1.4,5.6L68.4,375a4.7,4.7,0,0,1-5.1,2.7,3.38,3.38,0,0,0,1.1.7,4.81,4.81,0,0,0,6.4-2.4l2.5-5.5a4.84,4.84,0,0,0-2.5-6.2"/><path id="Fill-53" class="cls-16" d="M59.4,359.2a9.29,9.29,0,0,0-1.3-.4,5,5,0,0,1,1.4,5.6L57,370a4.7,4.7,0,0,1-5.1,2.7,3.38,3.38,0,0,0,1.1.7,4.81,4.81,0,0,0,6.4-2.4l2.5-5.5a4.93,4.93,0,0,0-2.5-6.3"/><path id="Fill-54" class="cls-16" d="M46.8,357a9.29,9.29,0,0,0-1.3-.4,4.84,4.84,0,0,1,1.4,5.5L46,364a4.51,4.51,0,0,1-5.1,2.6,3.38,3.38,0,0,0,1.1.7,4.76,4.76,0,0,0,6.4-2.4l.8-1.8a4.74,4.74,0,0,0-2.4-6.1"/><path id="Fill-55" class="cls-16" d="M93.6,374.5a9.29,9.29,0,0,0-1.3-.4,5,5,0,0,1,1.4,5.6l-2.5,5.5a4.7,4.7,0,0,1-5.1,2.7,3.38,3.38,0,0,0,1.1.7,4.81,4.81,0,0,0,6.4-2.4l2.5-5.5a4.84,4.84,0,0,0-2.5-6.2"/><path id="Fill-56" class="cls-16" d="M103.8,382.5a9.29,9.29,0,0,0-1.3-.4,4.84,4.84,0,0,1,1.4,5.5l-.9,1.9a4.51,4.51,0,0,1-5.1,2.6,3.38,3.38,0,0,0,1.1.7,4.76,4.76,0,0,0,6.4-2.4l.8-1.8a4.77,4.77,0,0,0-2.4-6.1"/><path id="Fill-57" class="cls-16" d="M73.3,389.4A9.29,9.29,0,0,0,72,389a5,5,0,0,1,1.4,5.6l-2.5,5.5a4.7,4.7,0,0,1-5.1,2.7,3.38,3.38,0,0,0,1.1.7,4.81,4.81,0,0,0,6.4-2.4l2.5-5.5a4.78,4.78,0,0,0-2.5-6.2"/><path id="Fill-58" class="cls-16" d="M61.9,384.3a9.29,9.29,0,0,0-1.3-.4,5,5,0,0,1,1.4,5.6L59.5,395a4.7,4.7,0,0,1-5.1,2.7,3.38,3.38,0,0,0,1.1.7,4.81,4.81,0,0,0,6.4-2.4l2.5-5.5a4.78,4.78,0,0,0-2.5-6.2"/><path id="Fill-59" class="cls-16" d="M50.5,379.2a9.29,9.29,0,0,0-1.3-.4,5,5,0,0,1,1.4,5.6l-2.5,5.5a4.7,4.7,0,0,1-5.1,2.7,3.38,3.38,0,0,0,1.1.7,4.81,4.81,0,0,0,6.4-2.4l2.5-5.5a4.78,4.78,0,0,0-2.5-6.2"/><path id="Fill-60" class="cls-16" d="M39.1,374.1a9.29,9.29,0,0,0-1.3-.4,4.62,4.62,0,0,1,1.4,5.5l-1.3,2.9a4.76,4.76,0,0,1-5.1,2.6,3.38,3.38,0,0,0,1.1.7,4.8,4.8,0,0,0,6.4-2.3l1.3-2.9a4.66,4.66,0,0,0-2.5-6.1"/><path id="Fill-61" class="cls-16" d="M84.7,394.5a9.29,9.29,0,0,0-1.3-.4,5,5,0,0,1,1.4,5.6l-2.5,5.5a4.7,4.7,0,0,1-5.1,2.7,3.38,3.38,0,0,0,1.1.7,4.81,4.81,0,0,0,6.4-2.4l2.5-5.5a4.78,4.78,0,0,0-2.5-6.2"/><path id="Fill-62" class="cls-16" d="M96.1,399.6a9.29,9.29,0,0,0-1.3-.4,5,5,0,0,1,1.4,5.6l-2.5,5.5a4.7,4.7,0,0,1-5.1,2.7,3.38,3.38,0,0,0,1.1.7,4.81,4.81,0,0,0,6.4-2.4l2.5-5.5a4.81,4.81,0,0,0-2.5-6.2"/><path id="Fill-63" class="cls-12" d="M81.7,369.6a4,4,0,0,0-5.3,2.1L74,377.1a4,4,0,1,0,7.3,3.2l2.4-5.4A4,4,0,0,0,81.7,369.6Zm-6.2,13.9a5.19,5.19,0,0,1-2.5-7.1l2.4-5.4a5.32,5.32,0,0,1,7-2.8,5.19,5.19,0,0,1,2.5,7.1l-2.4,5.4A5.3,5.3,0,0,1,75.5,383.5Z"/><path id="Fill-64" class="cls-14" d="M70.3,364.4a4,4,0,0,0-5.3,2.1l-2.4,5.4a4,4,0,1,0,7.3,3.2l2.4-5.4A4,4,0,0,0,70.3,364.4Zm-6.2,14a5.19,5.19,0,0,1-2.5-7.1l2.4-5.4a5.32,5.32,0,0,1,7-2.8,5.19,5.19,0,0,1,2.5,7.1l-2.4,5.4A5.3,5.3,0,0,1,64.1,378.4Z"/><path id="Fill-65" class="cls-12" d="M58.9,359.3a4,4,0,0,0-5.3,2.1l-2.4,5.4a4,4,0,1,0,7.3,3.2l2.4-5.4A4,4,0,0,0,58.9,359.3Zm-6.2,14a5.19,5.19,0,0,1-2.5-7.1l2.4-5.4a5.32,5.32,0,0,1,7-2.8,5.19,5.19,0,0,1,2.5,7.1l-2.4,5.4A5.38,5.38,0,0,1,52.7,373.3Z"/><path id="Fill-66" class="cls-12" d="M46.8,358.5a3.92,3.92,0,0,0-5.2,2l-.8,1.7a3.94,3.94,0,1,0,7.2,3.2l.8-1.7A3.92,3.92,0,0,0,46.8,358.5Zm-4.6,10.1a5.23,5.23,0,0,1-2.6-7l.8-1.7a5.21,5.21,0,1,1,9.5,4.3l-.8,1.7A5.08,5.08,0,0,1,42.2,368.6Z"/><path id="Fill-67" class="cls-12" d="M93.1,374.7a4,4,0,0,0-5.3,2.1l-2.4,5.4a4,4,0,1,0,7.3,3.2l2.4-5.4A4,4,0,0,0,93.1,374.7Zm-6.2,13.9a5.19,5.19,0,0,1-2.5-7.1l2.4-5.4a5.32,5.32,0,0,1,7-2.8,5.19,5.19,0,0,1,2.5,7.1l-2.4,5.4A5.3,5.3,0,0,1,86.9,388.6Z"/><path id="Fill-68" class="cls-12" d="M102.8,383.6a3.92,3.92,0,0,0-5.2,2l-.8,1.7a3.94,3.94,0,1,0,7.2,3.2l.8-1.7A3.92,3.92,0,0,0,102.8,383.6Zm-4.5,10.1a5.23,5.23,0,0,1-2.6-7l.8-1.7a5.21,5.21,0,1,1,9.5,4.3l-.8,1.7A5.11,5.11,0,0,1,98.3,393.7Z"/><path id="Fill-69" class="cls-12" d="M72.4,390.4a4,4,0,0,0-5.3,2.1l-2.4,5.4a4,4,0,1,0,7.3,3.2l2.4-5.4A4,4,0,0,0,72.4,390.4Zm-6.3,14a5.19,5.19,0,0,1-2.5-7.1l2.4-5.4a5.32,5.32,0,0,1,7-2.8,5.19,5.19,0,0,1,2.5,7.1l-2.4,5.4A5.27,5.27,0,0,1,66.1,404.4Z"/><path id="Fill-70" class="cls-12" d="M61,385.3a4,4,0,0,0-5.3,2.1l-2.4,5.4a4,4,0,1,0,7.3,3.2l2.4-5.4A4,4,0,0,0,61,385.3Zm-6.3,14a5.19,5.19,0,0,1-2.5-7.1l2.4-5.4a5.32,5.32,0,0,1,7-2.8,5.19,5.19,0,0,1,2.5,7.1l-2.4,5.4A5.32,5.32,0,0,1,54.7,399.3Z"/><path id="Fill-71" class="cls-12" d="M49.6,380.2a4,4,0,0,0-5.3,2.1l-2.4,5.4a4,4,0,1,0,7.3,3.2l2.4-5.4A4,4,0,0,0,49.6,380.2Zm-6.3,14a5.19,5.19,0,0,1-2.5-7.1l2.4-5.4a5.32,5.32,0,0,1,7-2.8,5.19,5.19,0,0,1,2.5,7.1l-2.4,5.4A5.32,5.32,0,0,1,43.3,394.2Z"/><path id="Fill-72" class="cls-12" d="M39.1,375.6a3.92,3.92,0,0,0-5.2,2l-1.3,2.8a3.94,3.94,0,1,0,7.2,3.2l1.3-2.8A3.81,3.81,0,0,0,39.1,375.6Zm-4.9,11.1a5.12,5.12,0,0,1-2.6-6.9l1.3-2.8a5.21,5.21,0,0,1,9.5,4.3l-1.3,2.8A5.27,5.27,0,0,1,34.2,386.7Z"/><path id="Fill-73" class="cls-12" d="M83.8,395.6a4,4,0,0,0-5.3,2.1l-2.4,5.4a4,4,0,1,0,7.3,3.2l2.4-5.4A4,4,0,0,0,83.8,395.6Zm-6.3,13.9a5.19,5.19,0,0,1-2.5-7.1l2.4-5.4a5.32,5.32,0,0,1,7-2.8,5.19,5.19,0,0,1,2.5,7.1l-2.4,5.4A5.27,5.27,0,0,1,77.5,409.5Z"/><path id="Fill-74" class="cls-12" d="M95.2,400.7a4,4,0,0,0-5.3,2.1l-2.4,5.4a4,4,0,1,0,7.3,3.2l2.4-5.4A4,4,0,0,0,95.2,400.7Zm-6.3,13.9a5.19,5.19,0,0,1-2.5-7.1l2.4-5.4a5.32,5.32,0,0,1,7-2.8,5.19,5.19,0,0,1,2.5,7.1l-2.4,5.4A5.27,5.27,0,0,1,88.9,414.6Z"/><path id="Fill-75" class="cls-13" d="M78.3,363.1c-22.3-10-44.8-8.1-50.4,4.2s8.1,30.4,30.4,40.4,44.8,8.1,50.4-4.2S100.7,373.1,78.3,363.1ZM75,370.6c9.1,4.1,17.1,10,21.8,16.3,3.8,5,5.1,9.7,3.7,12.9s-5.8,5.4-12.1,5.9c-7.8.6-17.5-1.3-26.6-5.4S44.7,390.3,40,384c-3.8-5-5.1-9.7-3.7-12.9s5.8-5.4,12.1-5.9C56.1,364.6,65.9,366.6,75,370.6Z"/><path id="Fill-76" class="cls-17" d="M48.5,364.3c7.5-.6,16.7,1.2,25.4,5a6.72,6.72,0,0,1-1.2-.6c-9.1-4.1-18.8-6-26.6-5.4-6.3.5-10.6,2.6-12.1,5.8s-.1,7.8,3.7,12.8c4.7,6.2,12.7,12.2,21.8,16.3a6.72,6.72,0,0,1,1.2.6c-8.7-4.1-16.1-9.7-20.6-15.6-3.8-5-5.1-9.7-3.7-12.8,1.4-3.3,6-5.6,12.1-6.1"/><path id="Fill-77" class="cls-17" d="M78.1,363a6.72,6.72,0,0,1-1.2-.6c21.7,10.2,34.9,27.8,29.4,40s-27.4,14.1-49.4,4.7a6.72,6.72,0,0,1,1.2.6c22.4,10,45,8.2,50.5-4.2,5.6-12.2-8-30.4-30.5-40.5"/><path id="Fill-78" class="cls-12" d="M74.9,370.8c-9.1-4.1-18.8-6.1-26.5-5.5-6,.5-10.2,2.5-11.6,5.4s0,7.4,3.6,12.2c4.6,6.2,12.6,12,21.7,16.1s18.8,6.1,26.5,5.5c6-.5,10.2-2.5,11.6-5.4s0-7.4-3.6-12.2C91.9,380.9,84,374.9,74.9,370.8ZM61.7,400.4c-9.3-4.2-17.4-10.2-22.2-16.6-3.9-5.2-5.4-10.2-3.8-13.6s6.2-5.7,12.7-6.2c7.9-.7,17.9,1.4,27.2,5.5S93,379.7,97.8,386.1c3.9,5.2,5.4,10.2,3.8,13.6s-6.2,5.7-12.7,6.2C80.9,406.6,71,404.5,61.7,400.4Zm16.5-37c-22.1-9.9-44.4-8.3-49.8,3.7s8.3,29.7,30.4,39.6,44.4,8.3,49.8-3.7S100.3,373.3,78.2,363.4ZM58.3,407.8C35.5,397.6,21.6,379,27.2,366.5s28.7-14.5,51.5-4.3,36.7,28.8,31.1,41.3S81.1,418,58.3,407.8Z"/><path id="Fill-79" class="cls-18" d="M97.7,415.3a9.4,9.4,0,0,0-3.4-11.7,24.86,24.86,0,0,1-5.2,1.2l-1-.5,1.2-2.7a.76.76,0,0,1,.2-.4l-2.8-1.3a.76.76,0,0,1-.2.4L85.3,403l-8.5-3.8,1.2-2.7a.76.76,0,0,1,.2-.4l-2.8-1.3a.76.76,0,0,1-.2.4L74,397.9l-8.5-3.8,1.2-2.7a.76.76,0,0,1,.2-.4l-2.8-1.3a.76.76,0,0,1-.2.4l-1.2,2.7L54.2,389l1.2-2.7a.76.76,0,0,1,.2-.4l-2.8-1.3a.76.76,0,0,1-.2.4l-1.2,2.7-8.5-3.8,1.2-2.7c0-.1.1-.2.1-.3a9.26,9.26,0,0,0-3.3-.3l-.9,2-2.5-1.1a10,10,0,0,0-4.5,4.6,1.69,1.69,0,0,0-.2.5,1.69,1.69,0,0,0-.2.5L11.5,434.2a10.59,10.59,0,0,0,5.3,13.9,10.88,10.88,0,0,0,7.1.5l-7,15.6a10.59,10.59,0,0,0,5.3,13.9,10.72,10.72,0,0,0,13.9-5.3l16.5-36.9a10.51,10.51,0,0,0,19-.4l1.4-3.2a10.15,10.15,0,0,0,3.8,3A10.59,10.59,0,0,0,90.7,430L97,416a1.69,1.69,0,0,0,.2-.5c.4,0,.5,0,.5-.2"/><path id="Fill-80" class="cls-19" d="M75.2,397.1l2.8,1.2.7-1.5c0-.1.1-.2.2-.4l-2.8-1.3c0,.1-.1.2-.2.4l-.7,1.6"/><path id="Fill-81" class="cls-19" d="M52.4,386.9l2.8,1.2.7-1.5c0-.1.1-.2.2-.4l-2.8-1.3c0,.1-.1.2-.2.4l-.7,1.6"/><path id="Fill-82" class="cls-19" d="M63.8,392l2.8,1.2.7-1.5c0-.1.1-.2.2-.4L64.7,390c0,.1-.1.2-.2.4l-.7,1.6"/><path id="Fill-83" class="cls-19" d="M86.6,402.2l.7.3a20.61,20.61,0,0,0,2.6-.3l.1-.3c0-.1.1-.2.2-.4l-2.8-1.3c0,.1-.1.2-.2.4l-.6,1.6"/><path id="Fill-84" class="cls-19" d="M71.2,430.6l-1.7,3.8a10.67,10.67,0,0,1-14.1,5.1,3.88,3.88,0,0,1-1.1-.6,9.53,9.53,0,0,0,3.9,2.9,10.67,10.67,0,0,0,14.1-5.1l1.7-3.8a7.1,7.1,0,0,1-2.8-2.3"/><path id="Fill-85" class="cls-19" d="M43.8,383l.7-1.6c0-.1.1-.2.1-.3a12.19,12.19,0,0,0-3.2-.4l-.5,1,2.9,1.3"/><path id="Fill-86" class="cls-19" d="M98.7,415.6A9.58,9.58,0,0,0,95,403.7c-.1,0-.1.1-.2,0a9.25,9.25,0,0,1,1,9.5,10989471255314.82,10989471255314.82,0,0,0-.4,1l-6.3,14a10.82,10.82,0,0,1-14.2,5.3,3.88,3.88,0,0,1-1.1-.6,9.75,9.75,0,0,0,3.9,3,10.73,10.73,0,0,0,14.2-5.3l6.2-13.9a1.69,1.69,0,0,0,.2-.5.72.72,0,0,0,.4-.6"/><path id="Fill-87" class="cls-19" d="M51.7,433.3,34.3,472.1a10.82,10.82,0,0,1-14.2,5.3,3.88,3.88,0,0,1-1.1-.6,9.75,9.75,0,0,0,3.9,3,10.73,10.73,0,0,0,14.2-5.3l17-37.9a12.66,12.66,0,0,1-2.4-3.3"/><path id="Fill-88" class="cls-19" d="M26.5,447.1c-2.3.7-9.5.3-12-.8a3.88,3.88,0,0,1-1.1-.6,10.24,10.24,0,0,0,3.9,2.9c1,.5,6.8.9,8,1.1l1.2-2.6"/><path id="Fill-89" class="cls-12" d="M24.4,449.7a.22.22,0,0,1,.2.2c.1.2.3.5.1.7l-7,15.7a10,10,0,0,0,4.9,13.2,9.81,9.81,0,0,0,13.1-5.1l16.7-37.2a.68.68,0,0,1,.6-.4.62.62,0,0,1,.6.4,9.36,9.36,0,0,0,4.8,4.6,9.92,9.92,0,0,0,13.1-5.1l1.5-3.3a.55.55,0,0,1,.5-.3.86.86,0,0,1,.6.3,8.19,8.19,0,0,0,3.6,2.7A9.92,9.92,0,0,0,90.8,431l6.3-14c0-.1.1-.2.1-.3l.1-.2.1-.2c0-.1.1-.2.2-.4a9,9,0,0,0-2.9-10.8,20,20,0,0,1-5.1,1.1c-.1.1-.2,0-.3,0l-1-.5a.63.63,0,0,1-.3-.8l1.1-2.5-1.6-.7-1.1,2.5a.63.63,0,0,1-.8.3l-8.5-3.8a.63.63,0,0,1-.3-.8l1.1-2.5-1.6-.7-1.1,2.5a.63.63,0,0,1-.8.3l-8.5-3.8a.63.63,0,0,1-.3-.8l1.1-2.5-1.6-.7L64,394.2a.63.63,0,0,1-.8.3l-8.5-3.8a.63.63,0,0,1-.3-.8l1.1-2.5-1.6-.7-1.1,2.5a.63.63,0,0,1-.8.3l-8.5-3.8a.63.63,0,0,1-.3-.8l1-2.2a11.08,11.08,0,0,0-1.9-.2l-.7,1.6a.63.63,0,0,1-.8.3l-2.1-.9a8.39,8.39,0,0,0-3.9,4.2c0,.1-.1.2-.1.3l-.1.2-.1.2c0,.1-.1.2-.1.3L13.1,436.2a9.84,9.84,0,0,0,11.5,13.7C24.1,449.6,24.2,449.6,24.4,449.7Zm-2.3,30.8a11.25,11.25,0,0,1-5.6-14.8L23,451.2a11.11,11.11,0,0,1-6.2-.9,11.25,11.25,0,0,1-5.6-14.8L32.5,388a.76.76,0,0,1,.2-.4l.1-.2v-.1a.76.76,0,0,1,.2-.4,10.35,10.35,0,0,1,4.9-5,.63.63,0,0,1,.6,0l1.8.8.6-1.4a1,1,0,0,1,.5-.4,13.82,13.82,0,0,1,3.5.3c.2.1.4.2.4.4a.63.63,0,0,1,0,.6l-.1.2-1,2.2,7.3,3.3.9-2.1c0-.1,0-.1.1-.2l.1-.2c.1-.2.2-.4.4-.4a.63.63,0,0,1,.6,0l2.8,1.3c.2.1.2.2.4.4a.63.63,0,0,1,0,.6l-.1.2c0,.1,0,.1-.1.2l-.9,2.1L63,393l.9-2.1c0-.1,0-.1.1-.2l.1-.2c.1-.2.2-.4.4-.4a.63.63,0,0,1,.6,0l2.8,1.3c.2.1.2.2.4.4a.63.63,0,0,1,0,.6l-.1.2c0,.1,0,.1-.1.2l-.9,2.1,7.3,3.3.9-2.1c0-.1,0-.1.1-.2l.1-.2c.1-.2.2-.4.4-.4a.63.63,0,0,1,.6,0l2.8,1.3c.2.1.3.3.4.4a.63.63,0,0,1,0,.6l-.1.2c0,.1,0,.1-.1.2l-.9,2.1,7.3,3.3.9-2.1c0-.1,0-.1.1-.2l.1-.2c.1-.2.2-.4.4-.4a.63.63,0,0,1,.6,0l2.8,1.3c.2.1.2.2.4.4a.63.63,0,0,1,0,.6l-.1.2c0,.1,0,.1-.1.2l-.9,2.1.3.1a22.12,22.12,0,0,0,4.9-1.1.63.63,0,0,1,.6,0,10.16,10.16,0,0,1,3.6,12.6c-.1.2-.1.3-.2.5v.2a.76.76,0,0,1-.2.4l-6.3,14a11.24,11.24,0,0,1-14.8,5.7,10.89,10.89,0,0,1-3.3-2.3l-1.1,2.4a11.24,11.24,0,0,1-14.8,5.7,11.88,11.88,0,0,1-4.8-4.1L38,475.4C34.3,480.5,27.7,483,22.1,480.5Z"/><path id="Fill-90" class="cls-18" d="M203.4,273.6h0a74.15,74.15,0,0,0-2.2-16c2.3-10.7-4.5-12.3-4.5-12.3,4-10-5-13.2-5-13.2-.2-6.2-6.1-11.1-6.1-11.1-11.3-10.3-15.9-2.3-15.9-2.3l.3.4-10.5,2.5a15.39,15.39,0,0,0,.7,4.2A10.36,10.36,0,0,0,163,230a35.34,35.34,0,0,0-1.5,8.1l.2.1a12,12,0,0,0,9.5,21.9A12,12,0,0,0,177,283a31.43,31.43,0,0,0,3.6-.8l5.1,2.3a12.4,12.4,0,0,0-.1,8.5,12.8,12.8,0,0,0,2.4,3.9l11.6-5.2c3.1-4.9,3.9-11.8,3.8-18.1"/><path id="Fill-91" class="cls-19" d="M183.7,229a21.05,21.05,0,0,1,.2,2.5,61.13,61.13,0,0,0,.9,8.6c.1.5.2,1,.7,1.1.2.1.4-.1.6-.1a6.18,6.18,0,0,0,2.4-1.3,7.68,7.68,0,0,0,1-1.8,26.54,26.54,0,0,0,1.1-3c-1.5-1-2.1-2.9-2.9-4.6a23.58,23.58,0,0,0-1.2-2.8,9.17,9.17,0,0,0-1.3-2.1,4.84,4.84,0,0,0-2.1-1.2,15.35,15.35,0,0,0-4.1-1,7.55,7.55,0,0,1,4.7,5.7"/><path id="Fill-93" class="cls-19" d="M185.9,271.6l-2.5,2.2-4.6,8.9,4.5,2s1.9-3.4,4.2-8.7-1.6-4.4-1.6-4.4"/><path id="Fill-94" class="cls-19" d="M202.2,285.8l1.6-9.5-1.2-12.6-1.1-6.1-2.7,6.1-2,2.5-2.9.9,1,2.9-1,3.2v.2l-2.6,2.8-2.5,3.2v.8l1.4.3s4-.5,5-2.4l-.8,2.1-.2.5s-4,13.5,5.9,10.8l2.1-5.7"/><path id="Fill-95" class="cls-19" d="M201.3,250.1c-1.1-5-4.7-4.6-4.7-4.6l.6,11.2c-.1,0,5.1-1.4,4.1-6.6"/><path id="Fill-96" class="cls-19" d="M190.6,253.8s-11.3-8.9-12.7-16.4-4.2-1.9-4.2-1.9l.3,3.6,3.4,4.9,13.2,9.8"/><path id="Fill-97" class="cls-19" d="M191.7,256.6l-4,2.6-6.9,1.1-8.9-3.1s4.3,12.1,11.9,10.3,7.9-10.9,7.9-10.9"/><path id="Fill-98" class="cls-12" d="M186.5,241.7a.22.22,0,0,1-.2-.2.64.64,0,0,1,.1-.9c3.2-2.7,4.9-5.6,4.9-8.6-.1-5.9-6-10.6-6-10.8-4.3-3.7-8-5.5-11.1-5.1a5.34,5.34,0,0,0-3.9,2.5.63.63,0,0,1-.9.2c-.3-.1-.4-.5-.3-.9a6.74,6.74,0,0,1,4.9-3.1c3.5-.5,7.5,1.3,12.1,5.4.2.2,6.4,5.3,6.5,11.7,0,3.5-1.8,6.8-5.4,9.7a.62.62,0,0,1-.7.1"/><path id="Fill-99" class="cls-12" d="M161.3,239.5a.68.68,0,0,1-.4-.6c.1-.7.5-15.4,9.2-15.4h2c7.1,0,11.8-.1,12.5,6.7.1,1.1.2,2.1.3,3.2.3,3.9.5,8,2.1,8.9.5.4,1.3.2,2.2-.3a.67.67,0,1,1,.6,1.2,3.48,3.48,0,0,1-3.4.2c-2.1-1.2-2.4-5.3-2.8-9.9-.1-1.1-.2-2.1-.3-3.2-.5-5.5-3.6-5.6-11.2-5.6h-2c-7.4,0-7.9,14-7.9,14.1,0,.3-.3.7-.6.6-.1.2-.2.1-.3.1"/><path id="Fill-100" class="cls-12" d="M174.6,259.1a22.84,22.84,0,0,1-4.5-2.7.64.64,0,0,1,.9-.9c.1,0,7.8,6.5,15.8,2.9,2.4-1.1,3.7-2,3.8-2.7.2-1.2-2.5-3-6-5.3-1.6-1.1-3.3-2.3-5.2-3.6-4-2.9-6.2-6-6.6-9.2a7.15,7.15,0,0,1,1.5-5.4.63.63,0,0,1,.9,0c.2.2.3.7,0,.9a6.23,6.23,0,0,0-1.2,4.4c.4,2.8,2.4,5.6,6.1,8.3,1.9,1.4,3.6,2.5,5.2,3.6,4.4,3,6.8,4.5,6.6,6.5-.1,1.3-1.4,2.4-4.6,3.9a16,16,0,0,1-12.7-.7"/><path id="Fill-101" class="cls-12" d="M188.9,280.4a2.65,2.65,0,0,1-.6-.5c-.6-1,.3-2.4,2.9-4.9,2.1-2,3.1-4,3.1-5.6a3.38,3.38,0,0,0-1.1-2.3.78.78,0,0,1-.2-.8.67.67,0,0,1,.7-.4,3.35,3.35,0,0,0,2.8-.7c1.9-1.2,3.4-4,4.2-7.9,2.1-9.9-3.9-11.3-4-11.4s-.4-.2-.4-.3-.1-.4,0-.6a10,10,0,0,0,.4-7.7,9.4,9.4,0,0,0-5-4.6c-.3-.1-.5-.4-.4-.9s.4-.5.9-.4a10.91,10.91,0,0,1,5.7,5.3,10.34,10.34,0,0,1-.1,8.1h.1c1.8.8,6.1,3.7,4.3,12.6-1,4.5-2.6,7.4-4.8,8.8a4.57,4.57,0,0,1-2.2.8,5.22,5.22,0,0,1,.7,2c.1,2.1-1,4.3-3.4,6.7-2.6,2.6-2.6,3.3-2.7,3.4a5.42,5.42,0,0,0,1.5-.2.67.67,0,0,1,.3,1.3,5,5,0,0,1-2.7.2"/><path id="Fill-102" class="cls-12" d="M195.8,258.4a.62.62,0,0,1-.4-.6c0-.1,1.3-14.9-1.6-20.6a.67.67,0,1,1,1.2-.6c3.1,6.1,1.9,20.8,1.8,21.3,0,.3-.4.6-.7.6-.1,0-.2-.1-.3-.1"/><path id="Fill-103" class="cls-12" d="M179.4,283a.58.58,0,0,1-.3-.8.63.63,0,0,1,.8-.3l6.9,3.1c.1,0,2.7.8,6-3.9s.3-7.6.2-7.6c-.2-.2-.3-.7,0-.9s.7-.3.9,0c0,0,3.8,3.7-.1,9.3s-7.4,4.5-7.5,4.4l-6.9-3.3"/><path id="Fill-104" class="cls-12" d="M176.3,285a.53.53,0,0,1-.3-.8.75.75,0,0,1,.8-.5s2.2.3,5-6.2c3.2-7.9,7.4-7.2,7.6-7.2a.64.64,0,0,1,.5.8c0,.3-.4.6-.7.6-.1,0-3.4-.4-6.2,6.4-3.3,7.7-6.4,7-6.7,6.9h0"/><path id="Fill-105" class="cls-12" d="M199.5,293.1h0c-.4-.2-.5-.7-.3-.9,7.2-12,1.1-33.8,1.1-34.1a.67.67,0,0,1,1.3-.3c.3.9,6.3,22.6-1.2,35a.69.69,0,0,1-.9.3"/><path id="Fill-106" class="cls-12" d="M195.9,292.6a.55.55,0,0,1-.3-.5c-.6-2.9-.3-5.4,1-7.3a9.48,9.48,0,0,1,4.4-3.2c-2.9-2.4-2-5.3-1.1-7.9a14.47,14.47,0,0,0,.7-2.6c.6-3.5-2.9-6-3-6a.65.65,0,1,1,.7-1.1c.2.1,4.2,3,3.5,7.3-.2.9-.5,1.9-.8,2.8-.9,2.9-1.6,5.1,1.7,7.2a.52.52,0,0,1,.3.7c0,.3-.3.4-.6.5a8,8,0,0,0-4.9,3c-1.1,1.7-1.3,3.7-.9,6.2a.69.69,0,0,1-.5.8c.1.2-.1.2-.2.1"/><path id="Fill-107" class="cls-12" d="M181.1,281.3l5.2,2.3a.63.63,0,0,1,.3.8,10.55,10.55,0,0,0,.1,8,9.73,9.73,0,0,0,2.1,3.3l11.1-4.9c2.5-4.3,3.7-10.2,3.4-17.8h0a69.55,69.55,0,0,0-2.4-15.9c-.1-.1,0-.2,0-.3,2.1-9.9-4.1-11.5-4.1-11.4-.2-.1-.4-.2-.4-.3s-.1-.4,0-.6c1.2-2.9,1.3-5.6.3-7.7a10.38,10.38,0,0,0-5.1-4.7.51.51,0,0,1-.4-.5c-.2-5.9-5.9-10.5-6-10.6-4.2-3.8-8-5.5-11.1-5.1a6,6,0,0,0-3.8,2.2h0a.66.66,0,0,1,.1.6c-.1.2-.3.3-.4.4l-9.9,2.3a10.39,10.39,0,0,0,.7,3.5,13.13,13.13,0,0,0,2.6,4c.1.2.3.5.2.6a35.48,35.48,0,0,0-1.4,7.6c.1,0,.1.2.1.3a.52.52,0,0,1-.3.7,11.43,11.43,0,0,0,9.1,20.8.87.87,0,0,1,.9.4.76.76,0,0,1-.3.8,11.39,11.39,0,0,0-5.7,14.3,11.62,11.62,0,0,0,11.4,7.4,17.12,17.12,0,0,0,3.4-.8C180.8,281.3,181,281.3,181.1,281.3Zm7.2,15.9c-.1,0-.2-.1-.1-.2a11.9,11.9,0,0,1-2.6-4.1,12.75,12.75,0,0,1-.2-8.4l-4.5-2c-.9.3-3.1.6-3.4.8a12.9,12.9,0,0,1-12.8-8.3,12.56,12.56,0,0,1,3.8-14.3,13,13,0,0,1-12.4-8.2,12.49,12.49,0,0,1,4.9-15.1,33.51,33.51,0,0,1,1.3-7.7,12.58,12.58,0,0,1-2.7-4.2,11.24,11.24,0,0,1-.8-4.5.94.94,0,0,1,.5-.7l9.6-2.2a.37.37,0,0,1,.1-.3,6.74,6.74,0,0,1,4.9-3.1c3.5-.5,7.6,1.4,12.2,5.4.2.2,5.9,4.9,6.4,11.1h0c1.8.8,8.6,4.5,5.4,13.2,1.7.8,6.3,3.7,4.4,12.6a86.68,86.68,0,0,1,2.4,15.9c.1.1,0,.2,0,.3.2,7.7-1,13.9-3.7,18.4,0,.1-.2.1-.3.2L189,297C188.6,297.4,188.5,297.3,188.3,297.2Z"/><text class="cls-20" transform="translate(310.77 322.67) rotate(-9.22)">31</text><g class="cls-5"><text class="cls-21" transform="translate(402.13 290.71) rotate(-11.48)">6</text><text class="cls-22" transform="translate(422.22 286.63) rotate(-11.48)">pm</text><text class="cls-23" transform="translate(444.47 282.11) rotate(-11.48)"><tspan xml:space="preserve">            </tspan></text><text class="cls-23" transform="translate(407.71 318.15) rotate(-11.48)"><tspan xml:space="preserve"> 10:30pm</tspan></text></g><line class="cls-24" x1="449.6" y1="274.1" x2="489.8" y2="265.5"/><text class="cls-25" transform="matrix(0.97, -0.25, 0.25, 0.97, 366.99, 280.41)">st</text><text class="cls-26" transform="translate(260.45 321.27) rotate(-13.23)">Oct.</text><text class="cls-27" transform="translate(247.88 80.87) rotate(-10.43)"><tspan class="cls-28">p</tspan><tspan x="7.29" y="0">resents the annual... </tspan></text><polygon class="cls-29" points="298.1 391.2 305.9 783.4 253.5 784.5 245.6 392.2 271.1 354.7 298.1 391.2"/><polygon class="cls-29" points="363.5 392.5 371.3 784.9 318.9 786 311 393.6 336.5 356.1 363.5 392.5"/><polygon class="cls-29" points="425.7 399.1 433.5 789.1 381.1 790.1 373.3 400.2 398.7 362.7 425.7 399.1"/><polygon class="cls-29" points="497.3 401.7 505.1 794.1 452.7 795.1 444.8 402.7 470.3 365.2 497.3 401.7"/><polygon class="cls-29" points="305.3 389.9 312.9 773.1 260.5 774.1 252.8 390.9 255.8 386.5 256.7 385.3 278.3 353.4 305.3 389.9"/><polygon class="cls-29" points="369.9 391.2 377.5 774.6 325.1 775.7 317.4 392.3 320.2 388.1 321.2 386.7 342.9 354.8 369.9 391.2"/><polygon class="cls-29" points="432.1 394.4 439.7 775.3 387.2 776.3 379.6 395.4 382.6 391 383.4 389.8 405.1 357.9 432.1 394.4"/><polygon class="cls-29" points="488.4 405.6 496.1 788.9 443.6 790 436 406.6 439.2 401.8 439.8 401 461.4 369.1 488.4 405.6"/><path class="cls-2" d="M275.3,406.2a16.5,16.5,0,1,0,16.5,16.5A16.52,16.52,0,0,0,275.3,406.2Zm6,23-.5.5a1.09,1.09,0,0,1-1.5,0l-6.2-5.4a2.84,2.84,0,0,1-.7-1.7l.6-9.8a1,1,0,0,1,1.1-1h.7a1.1,1.1,0,0,1,1.1,1l.5,8.2a3.59,3.59,0,0,0,.7,1.8l4.3,5A1.08,1.08,0,0,1,281.3,429.2Z"/></svg>