<?xml version="1.0" encoding="utf-8"?>
<!-- Generator: Adobe Illustrator 22.1.0, SVG Export Plug-In . SVG Version: 6.00 Build 0)  -->
<svg version="1.1" id="Layer_1" xmlns="http://www.w3.org/2000/svg" xmlns:xlink="http://www.w3.org/1999/xlink" x="0px" y="0px"
	 viewBox="0 0 525 525" style="enable-background:new 0 0 525 525;" xml:space="preserve">
<style type="text/css">
	.st0{enable-background:new    ;}
	.st1{fill:#3D1717;}
	.st2{fill:#A5CD6F;}
	.st3{fill:#C06539;}
	.st4{fill:#F0F2C3;}
	.st5{fill:#F6DE5E;}
	.st6{fill:#CFAF31;}
	.st7{fill:#9B4B2C;}
	.st8{fill:#F2BEBA;}
	.st9{fill:#EB958E;}
	.st10{fill:#EE509A;}
	.st11{fill:#2ADFDF;}
	.st12{fill:#FFFFFF;}
	.st13{fill:none;}
	.st14{fill:#F8E71C;}
	.st15{font-family:'GoboldBoldItalic-Italic';}
	.st16{font-size:64px;}
	.st17{fill:#7E3BEB;}
	.st18{font-family:'GoboldHollow-Italic';}
	.st19{font-family:'Gobold-Italic';}
	.st20{font-size:85px;}
	.st21{font-family:'GoboldCUTS-Italic';}
	.st22{fill:#2ADFDF;stroke:#000000;stroke-miterlimit:10;}
	.st23{font-family:'IM_FELL_English_Italic';}
	.st24{font-size:60px;}
	.st25{fill:#960E65;}
	.st26{font-size:24px;}
	.st27{fill:#960E65;stroke:#960E65;stroke-miterlimit:10;}
</style>
<title>header-right</title>
<desc>Created with Sketch.</desc>
<g>
	<text transform="matrix(-5.237369e-02 -0.9986 0.9986 -5.237369e-02 901.4512 374.5262)" class="st11 st15 st26"> </text>
</g>
<g id="Group" transform="translate(301.335433, 309.479136) rotate(-55.000000) translate(-301.335433, -309.479136) translate(64.835433, 107.979136)">
	<g class="st0">
		<text transform="matrix(0.788 -0.6157 0.6157 0.788 564.1818 458.1114)" class="st11 st15 st26">October </text>
	</g>
	<g class="st0">
		<text transform="matrix(0.788 -0.6157 0.6157 0.788 633.8195 403.7051)" class="st11 st15" style="font-size:30px;">31</text>
	</g>
	<g>
		<text transform="matrix(0.788 -0.6157 0.6157 0.788 659.7453 383.4493)" class="st11 st15 st26"> </text>
	</g>
	<g class="st0">
		<text transform="matrix(0.788 -0.6157 0.6157 0.788 658.5909 384.3512)" class="st11 st15" style="font-size:14px;">st</text>
	</g>
	<path id="Fill-4" class="st1" d="M882.3,664.4c-12.7,0-23-10.2-23-22.8l0-104.4c0-12.6,10.3-22.8,23-22.8s23,10.2,23,22.8l0,104.4
		C905.3,654.2,895,664.4,882.3,664.4"/>
	<path id="Fill-5" class="st2" d="M965.5,372.3c-4.2-4.2-4.5-10.8-0.9-15.4l-7.9,7.9c-4.5,4.5-11.9,4.5-16.4,0
		c-4.3-4.3-4.5-11.2-0.6-15.7c-4.5,3.9-11.4,3.7-15.7-0.6c-4.5-4.5-4.5-11.9,0-16.4l7.9-7.9c-4.5,3.6-11.2,3.3-15.3-0.9
		c-2.2-2.2-3.3-5-3.4-7.9c-3.9-0.6-7.8-0.9-11.8-0.9c-42.4,0-89,34.5-89,76.9l148.5,193.1l17.5-7.5l0-185.3c0-5.6-0.6-11-1.8-16.3
		C972.7,376.3,968.5,375.3,965.5,372.3"/>
	<path id="Fill-6" class="st1" d="M812.6,390.7l148.7,192.4l16.8-7.2l0-184.8c0-5.2-0.5-10.4-1.6-15.5c-4,0.8-8.2-0.4-11.1-3.3
		c-3.3-3.3-4.4-8.1-3-12.4l-5,4.9c-4.8,4.8-12.6,4.8-17.4,0c-3.8-3.7-4.6-9.4-2.3-14c-4.6,2.2-10.3,1.4-14.1-2.3
		c-2.3-2.3-3.6-5.4-3.6-8.6c0-3.3,1.3-6.3,3.6-8.6l5-4.9c-4.3,1.4-9.1,0.3-12.5-3c-2.1-2.1-3.3-4.8-3.5-7.7
		c-3.7-0.6-7.5-0.8-11.3-0.8C860.4,314.7,812.8,347.9,812.6,390.7z M961.1,584.4c-0.2,0-0.4-0.1-0.5-0.2L811.5,391.3
		c-0.1-0.1-0.1-0.2-0.1-0.4c0-43.6,48.4-77.5,90-77.5c4,0,8,0.3,12,0.9c0.3,0,0.5,0.3,0.5,0.6c0.1,2.8,1.2,5.5,3.2,7.4
		c3.9,3.9,10.2,4.3,14.6,0.9c0.3-0.2,0.6-0.2,0.9,0.1c0.2,0.2,0.2,0.6,0,0.9l-7.9,7.9c-2.1,2.1-3.2,4.8-3.2,7.8
		c0,2.9,1.1,5.7,3.2,7.8c4,4,10.6,4.3,14.9,0.6c0.2-0.2,0.6-0.2,0.9,0c0.2,0.2,0.2,0.6,0,0.8c-3.7,4.3-3.4,10.9,0.6,14.9
		c4.3,4.3,11.3,4.3,15.6,0l7.9-7.9c0.2-0.2,0.6-0.2,0.9,0c0.2,0.2,0.3,0.6,0.1,0.9c-3.4,4.4-3,10.6,0.9,14.5
		c2.7,2.7,6.8,3.8,10.5,2.8c0.2,0,0.3,0,0.5,0.1c0.1,0.1,0.2,0.2,0.3,0.4c1.2,5.4,1.8,10.9,1.8,16.4l0,185.2c0,0.3-0.1,0.5-0.4,0.6
		l-17.6,7.5C961.3,584.4,961.2,584.4,961.1,584.4z"/>
	<path id="Fill-7" class="st3" d="M966.2,372.1c-4.1-4.3-4.5-10.8-0.9-15.3l-7.9,7.8c-0.3,0.3-0.7,0.6-1.1,0.9
		c-4.6,3.5-11.2,3.2-15.4-0.9c-4.3-4.3-4.5-11.1-0.6-15.7c-0.1,0.1-0.2,0.1-0.3,0.2c-4.6,3.6-11.3,3.3-15.5-0.8
		c-4.2-4.2-4.5-10.8-0.9-15.3c0.3-0.4,0.6-0.7,0.9-1.1l7.9-7.8l0,0c-4.6,3.5-10.8,2.7-15.4-0.9c-3.4-2.7-3.4-7.8-3.4-7.8l-21.9,16.5
		c-4.5,4.5-4.5,11.8,0,16.3c4.2,4.2,10.9,4.5,15.4,0.9l-7.9,7.8c-4.5,4.5-4.5,11.8,0,16.3c4.3,4.3,11.2,4.5,15.8,0.6
		c-3.9,4.5-3.7,11.4,0.6,15.7c4.5,4.5,11.9,4.5,16.5,0l7.9-7.8c-3.6,4.5-3.3,11.1,0.9,15.3c4.5,4.5,12,4.5,16.5,0l19.9-22
		C977.3,375.1,970.7,376.7,966.2,372.1"/>
	<path id="Fill-8" class="st4" d="M936,394.7c-4.2-4.2-4.5-10.8-0.9-15.3l-7.9,7.9c-4.5,4.5-11.9,4.5-16.4,0
		c-4.3-4.3-4.5-11.2-0.6-15.7c-4.5,3.9-11.4,3.7-15.7-0.6c-4.5-4.5-4.5-11.9,0-16.4l7.9-7.9c-4.5,3.5-11.2,3.2-15.3-0.9
		c-4.5-4.5-4.5-11.9,0-16.4l10.2-7.7c-5.1-1.1-12.4-2.2-17.8-2.2c-42.3,0-77,34.6-77,77l0,185l154,0l0-185c0-1.8-0.1-3.7-0.2-5.5
		l-3.8,3.8C947.9,399.2,940.5,399.2,936,394.7z"/>
	<path id="Fill-9" class="st1" d="M898.7,323.4L898.7,323.4c-2.6-0.4-5.2-0.7-7.7-0.9c-0.4,0-0.6-0.3-0.6-0.6c0-0.3,0.4-0.5,0.7-0.5
		c2.6,0.2,5.2,0.5,7.7,0.9c0.4,0.1,0.6,0.3,0.5,0.6C899.3,323.2,899,323.4,898.7,323.4"/>
	<path id="Fill-10" class="st1" d="M902.3,414.7c-5.3,0-9.8,12.7-9.8,27.7c0,15,4.5,27.7,9.8,27.7s9.8-12.7,9.8-27.7
		C912.1,427.4,907.6,414.7,902.3,414.7z M902.3,471.4c-6.2,0-11-12.7-11-29c0-16.3,4.8-29,11-29s11,12.7,11,29
		C913.3,458.7,908.5,471.4,902.3,471.4z"/>
	<path id="Fill-11" class="st1" d="M864.3,414.7c-5.3,0-9.8,12.7-9.8,27.7s4.5,27.7,9.8,27.7s9.8-12.7,9.8-27.7
		C874.1,427.4,869.6,414.7,864.3,414.7z M864.3,471.4c-6.2,0-11-12.7-11-29c0-16.3,4.8-29,11-29c6.2,0,11,12.7,11,29
		C875.3,458.7,870.5,471.4,864.3,471.4z"/>
	<path id="Fill-12" class="st2" d="M900.5,470.4c-6.7,0-12.1-12.8-12.1-28.5c0-15.7,5.4-28.5,12.1-28.5h1.9l0,57H900.5"/>
	<path id="Fill-13" class="st2" d="M862.5,470.4c-6.7,0-12.1-12.8-12.1-28.5s5.4-28.5,12.1-28.5h1.9v57H862.5"/>
	<path id="Fill-14" class="st1" d="M890,427.4c-0.1,0-0.1,0-0.2,0c-0.4-0.1-0.6-0.4-0.5-0.7c0.2-0.7,0.4-1.3,0.7-1.9
		c0.1-0.3,0.5-0.5,0.9-0.4s0.6,0.4,0.4,0.7c-0.2,0.6-0.4,1.2-0.6,1.8C890.6,427.3,890.3,427.4,890,427.4"/>
	<path id="Fill-15" class="st1" d="M888.8,432.4C888.7,432.4,888.7,432.4,888.8,432.4c-0.3-0.1-0.5-0.3-0.4-0.6
		c0-0.3,0.1-0.6,0.1-0.9c0-0.3,0.3-0.5,0.5-0.4s0.4,0.3,0.3,0.6c0,0.3-0.1,0.6-0.1,0.9C889.2,432.2,889,432.4,888.8,432.4"/>
	<path id="Fill-16" class="st1" d="M889.7,455.4c-0.3,0-0.6-0.2-0.6-0.5c-0.3-1.2-0.5-2.5-0.7-3.8c0-0.3,0.2-0.6,0.5-0.7
		c0.3,0,0.7,0.2,0.7,0.5c0.2,1.3,0.4,2.6,0.7,3.8c0.1,0.3-0.1,0.6-0.5,0.7C889.8,455.4,889.7,455.4,889.7,455.4"/>
	<path id="Fill-17" class="st1" d="M902.7,471.4h-1.9c-4.3,0-8.1-4.4-10.5-12.2c-0.1-0.3,0.1-0.7,0.4-0.8c0.3-0.1,0.7,0.1,0.8,0.4
		c2.2,7.1,5.7,11.3,9.3,11.3h1.2l0-55.5h-1.2c-2.9,0-5.7,2.7-7.9,7.6c-0.1,0.3-0.5,0.5-0.8,0.3c-0.3-0.1-0.5-0.5-0.3-0.8
		c2.4-5.4,5.6-8.3,9.1-8.3h1.9c0.3,0,0.6,0.3,0.6,0.6l0,56.7C903.3,471.2,903.1,471.4,902.7,471.4"/>
	<path id="Fill-18" class="st1" d="M853,428.4c-0.1,0-0.1,0-0.2,0c-0.3-0.1-0.5-0.4-0.4-0.8c0.2-0.9,0.5-1.9,0.8-2.7
		c0.1-0.3,0.5-0.5,0.8-0.4c0.3,0.1,0.5,0.5,0.4,0.8c-0.3,0.9-0.5,1.8-0.8,2.7C853.5,428.2,853.2,428.4,853,428.4"/>
	<path id="Fill-19" class="st1" d="M851.8,431.4C851.7,431.4,851.7,431.4,851.8,431.4c-0.3-0.1-0.5-0.4-0.4-0.7l0.1-0.8
		c0-0.3,0.3-0.6,0.5-0.5s0.4,0.4,0.3,0.7l-0.1,0.7C852.2,431.2,852,431.4,851.8,431.4"/>
	<path id="Fill-20" class="st1" d="M850.8,451.4c-0.2,0-0.4-0.2-0.4-0.6l-0.1-0.7c0-0.4,0.1-0.7,0.4-0.7c0.2,0,0.5,0.2,0.5,0.6
		l0.1,0.7C851.3,451,851.1,451.4,850.8,451.4C850.9,451.4,850.9,451.4,850.8,451.4"/>
	<path id="Fill-21" class="st1" d="M852.7,457.4c-0.3,0-0.5-0.2-0.6-0.5c-0.3-1.2-0.6-2.5-0.8-3.8c-0.1-0.3,0.2-0.7,0.5-0.7
		c0.3-0.1,0.6,0.2,0.7,0.5c0.2,1.3,0.5,2.5,0.8,3.7c0.1,0.3-0.1,0.7-0.4,0.8C852.8,457.4,852.8,457.4,852.7,457.4"/>
	<path id="Fill-22" class="st1" d="M864.7,471.4h-1.9c-4.1,0-7.9-4-10.4-10.9c-0.1-0.3,0.1-0.7,0.4-0.8c0.3-0.1,0.7,0.1,0.8,0.4
		c2.3,6.4,5.7,10,9.2,10h1.3v-55.5h-1.3c-2.7,0-5.4,2.2-7.5,6.3c-0.2,0.3-0.5,0.4-0.9,0.3c-0.3-0.2-0.4-0.5-0.3-0.8
		c2.4-4.5,5.5-7,8.7-7h1.9c0.4,0,0.6,0.3,0.6,0.6v56.7C865.3,471.2,865.1,471.4,864.7,471.4"/>
	<path id="Fill-23" class="st1" d="M902.3,414.7c-5.3,0-9.8,12.7-9.8,27.7c0,15,4.5,27.7,9.8,27.7s9.8-12.7,9.8-27.7
		C912.1,427.4,907.6,414.7,902.3,414.7z M902.3,471.4c-6.2,0-11-12.7-11-29c0-16.3,4.8-29,11-29s11,12.7,11,29
		C913.3,458.7,908.5,471.4,902.3,471.4z"/>
	<path id="Fill-24" class="st1" d="M864.3,414.7c-5.3,0-9.8,12.7-9.8,27.7s4.5,27.7,9.8,27.7s9.8-12.7,9.8-27.7
		C874.1,427.4,869.6,414.7,864.3,414.7z M864.3,471.4c-6.2,0-11-12.7-11-29c0-16.3,4.8-29,11-29c6.2,0,11,12.7,11,29
		C875.3,458.7,870.5,471.4,864.3,471.4z"/>
	<path id="Fill-25" class="st1" d="M913.3,441.9c0,15.7-4.7,28.5-10.5,28.5s-10.5-12.8-10.5-28.5c0-15.7,4.7-28.5,10.5-28.5
		S913.3,426.2,913.3,441.9"/>
	<path id="Fill-26" class="st1" d="M875.3,441.9c0,15.7-4.7,28.5-10.5,28.5c-5.8,0-10.5-12.7-10.5-28.5c0-15.8,4.7-28.5,10.5-28.5
		C870.6,413.4,875.3,426.2,875.3,441.9"/>
	<path id="Fill-27" class="st1" d="M961.7,584.4l-154.7,0c-0.3,0-0.6-0.3-0.6-0.6l0-184.8c0-42.8,35-77.5,78-77.5
		c0.3,0,0.6,0.3,0.6,0.6c0,0.3-0.3,0.6-0.6,0.6c-42.3,0-76.7,34.2-76.7,76.3l0,184.2l153.5,0v-41.3c0-0.3,0.3-0.6,0.6-0.6
		s0.6,0.3,0.6,0.6v41.9C962.3,584.2,962.1,584.4,961.7,584.4"/>
	<path id="Fill-28" class="st1" d="M962.2,359.4l-5,5c-0.3,0.3-0.7,0.6-1.1,1l-15.2,15.1c-2.1,2.1-3.2,4.8-3.2,7.7s1.1,5.7,3.2,7.7
		c2.1,2.1,4.8,3.2,7.8,3.2s5.7-1.1,7.8-3.2l18.7-20.7c-2.4,0.2-6.7,0-10-3.4C961.8,368.4,960.8,363.6,962.2,359.4z M948.6,400.4
		c-3.1,0-6.3-1.2-8.7-3.6c-2.3-2.3-3.6-5.4-3.6-8.6c0-3.3,1.3-6.3,3.6-8.6l15.3-15.2c0.5-0.4,0.8-0.6,1.1-0.9l7.9-7.9
		c0.2-0.2,0.6-0.2,0.9,0c0.2,0.2,0.3,0.6,0.1,0.9c-3.3,4.3-3,10.5,0.9,14.5c4.2,4.3,10.5,2.9,10.5,2.8c0.3-0.1,0.5,0.1,0.7,0.3
		c0.1,0.2,0.1,0.5-0.1,0.7l-19.9,22C954.9,399.2,951.7,400.4,948.6,400.4z"/>
	<path id="Fill-29" class="st1" d="M937.1,352.5l-21.3,21.1c-4.3,4.2-4.3,11.1,0,15.4c4.3,4.2,11.2,4.2,15.5,0l21.3-21.1
		c-4.3,1.4-9.2,0.5-12.6-2.9C936.6,361.7,935.6,356.8,937.1,352.5z M923.6,393.4c-3.1,0-6.3-1.2-8.6-3.5c-4.8-4.7-4.8-12.4,0-17.1
		l24.5-24.2c0.2-0.2,0.6-0.2,0.8,0c0.2,0.2,0.2,0.6,0,0.8c-3.7,4.3-3.4,10.7,0.6,14.7c4.3,4.2,11.2,4.2,15.5,0l7.9-7.8
		c0.2-0.2,0.6-0.2,0.9,0c0.1,0.1,0.2,0.3,0.2,0.4c0,0.2-0.1,0.3-0.2,0.4l-33,32.6C929.8,392.3,926.7,393.4,923.6,393.4z"/>
	<path id="Fill-30" class="st1" d="M924,332.4c-0.2,0-0.3-0.1-0.4-0.2c-0.2-0.2-0.2-0.6,0-0.9l7.8-7.8c0.1-0.1,0.3-0.2,0.4-0.2
		c0.2,0,0.3,0.1,0.4,0.2c0.2,0.2,0.2,0.6,0,0.8l0,0l-7.8,7.8C924.3,332.4,924.1,332.4,924,332.4"/>
	<path id="Fill-31" class="st1" d="M920.8,336.3l-21.1,21.2c-2,2.1-3.2,4.8-3.2,7.7s1.1,5.7,3.2,7.7c2,2.1,4.8,3.2,7.7,3.2
		s5.6-1.1,7.7-3.2l21.1-21.2c-4.3,1.5-9.2,0.5-12.5-2.9c-2.3-2.3-3.5-5.4-3.5-8.6C920.2,338.9,920.4,337.6,920.8,336.3z
		 M907.4,377.4c-3.2,0-6.3-1.3-8.6-3.6s-3.5-5.4-3.5-8.6c0-3.2,1.3-6.3,3.5-8.6l24.8-25c0.2-0.2,0.6-0.2,0.9,0
		c0.1,0.1,0.2,0.3,0.2,0.4c0,0.2-0.1,0.3-0.2,0.4c-2,2.1-3.2,4.8-3.2,7.7s1.1,5.7,3.2,7.7c4,4,10.4,4.3,14.7,0.6
		c0.2-0.2,0.6-0.2,0.8,0c0.2,0.2,0.2,0.6,0,0.8l-0.2,0.3L916,373.9C913.7,376.2,910.7,377.4,907.4,377.4z"/>
	<path id="Fill-32" class="st1" d="M912.5,316.3l-20.8,16c-2,2-3.1,4.8-3.1,7.8s1.1,5.8,3.2,7.8c2.1,2.1,4.8,3.2,7.7,3.2
		s5.7-1.1,7.7-3.2l15.2-15.4c0.3-0.4,0.6-0.7,0.9-1.1l5-5.1c-4,1.2-8.6,0.2-12.4-2.9C913.4,321.4,912.7,318.1,912.5,316.3z
		 M899.5,352.4c-3.3,0-6.3-1.3-8.6-3.6c-2.3-2.3-3.6-5.4-3.6-8.7c0-3.3,1.3-6.4,3.6-8.7l21.7-16.8c0.2-0.1,0.4-0.2,0.7-0.1
		c0.2,0.1,0.3,0.3,0.3,0.6c0,0,0.1,5,3.1,7.4c4.7,3.8,10.5,4.1,14.5,0.9c0.3-0.2,0.6-0.2,0.9,0.1c0.2,0.3,0.2,0.6,0,0.9l-7.9,8
		c-0.3,0.3-0.6,0.6-0.9,1l-15.2,15.5C905.9,351.2,902.8,352.4,899.5,352.4z"/>
	<path id="Fill-33" class="st1" d="M884.3,497.4c9.7,0,19,2.1,25.7,5.7c5.3,2.9,8.3,6.5,8.3,9.8s-3,6.9-8.3,9.8
		c-6.6,3.6-16,5.7-25.7,5.7s-19-2.1-25.7-5.7c-5.3-2.9-8.3-6.5-8.3-9.8c0-3.3,3-6.9,8.3-9.8C865.3,499.5,874.6,497.4,884.3,497.4"/>
	<path id="Fill-34" class="st5" d="M889.8,509.4c-2.5,0-4.5-2.1-4.5-4.6V499c0-2.5,2-4.6,4.5-4.6s4.5,2.1,4.5,4.6v5.8
		C894.3,507.4,892.3,509.4,889.8,509.4"/>
	<path id="Fill-35" class="st5" d="M877.8,509.4c-2.5,0-4.5-2.1-4.5-4.6V499c0-2.5,2-4.6,4.5-4.6s4.5,2.1,4.5,4.6v5.8
		C882.3,507.4,880.3,509.4,877.8,509.4"/>
	<path id="Fill-36" class="st5" d="M865.8,509.4c-2.5,0-4.5-2.1-4.5-4.6V499c0-2.5,2-4.6,4.5-4.6s4.5,2.1,4.5,4.6v5.8
		C870.3,507.4,868.3,509.4,865.8,509.4"/>
	<path id="Fill-37" class="st5" d="M853.8,508.4c-2.5,0-4.5-2-4.5-4.6v-1.9c0-2.5,2-4.6,4.5-4.6s4.5,2,4.5,4.6v2
		C858.3,506.4,856.3,508.4,853.8,508.4"/>
	<path id="Fill-38" class="st5" d="M901.8,509.4c-2.5,0-4.5-2.1-4.5-4.6V499c0-2.5,2-4.6,4.5-4.6s4.5,2.1,4.5,4.6v5.8
		C906.3,507.4,904.3,509.4,901.8,509.4"/>
	<path id="Fill-39" class="st5" d="M913.8,508.4c-2.5,0-4.5-2-4.5-4.6v-1.9c0-2.5,2-4.6,4.5-4.6s4.5,2,4.5,4.6v2
		C918.3,506.4,916.3,508.4,913.8,508.4"/>
	<path id="Fill-40" class="st1" d="M960.8,448.4c-0.2,0-0.4-0.3-0.4-0.6V442c0-0.3,0.2-0.6,0.4-0.6s0.4,0.3,0.4,0.6v5.8
		C961.2,448.2,961,448.4,960.8,448.4"/>
	<path id="Fill-41" class="st1" d="M960.8,458.4c-0.2,0-0.4-0.3-0.4-0.6v-4.7c0-0.4,0.2-0.6,0.4-0.6s0.4,0.3,0.4,0.6v4.7
		C961.2,458.1,961,458.4,960.8,458.4"/>
	<path id="Fill-42" class="st1" d="M960.8,483.4c-0.2,0-0.4-0.3-0.4-0.6V466c0-0.3,0.2-0.6,0.4-0.6s0.4,0.3,0.4,0.6v16.8
		C961.2,483.2,961,483.4,960.8,483.4"/>
	<path id="Fill-43" class="st1" d="M960.8,498.4c-0.2,0-0.4-0.3-0.4-0.6l0-8.8c0-0.3,0.2-0.6,0.4-0.6s0.4,0.3,0.4,0.6v8.8
		C961.2,498.2,961,498.4,960.8,498.4"/>
	<path id="Fill-44" class="st1" d="M960.8,525.4c-0.2,0-0.4-0.3-0.4-0.6v-12.7c0-0.3,0.2-0.6,0.4-0.6s0.4,0.3,0.4,0.6v12.7
		C961.2,525.2,961,525.4,960.8,525.4"/>
	<path id="Fill-45" class="st5" d="M889.8,530.4c-2.5,0-4.5-2.1-4.5-4.6V520c0-2.5,2-4.6,4.5-4.6s4.5,2.1,4.5,4.6v5.8
		C894.3,528.4,892.3,530.4,889.8,530.4"/>
	<path id="Fill-46" class="st5" d="M877.8,530.4c-2.5,0-4.5-2.1-4.5-4.6V520c0-2.5,2-4.6,4.5-4.6s4.5,2.1,4.5,4.6v5.8
		C882.3,528.4,880.3,530.4,877.8,530.4"/>
	<path id="Fill-47" class="st5" d="M865.8,530.4c-2.5,0-4.5-2.1-4.5-4.6V520c0-2.5,2-4.6,4.5-4.6s4.5,2.1,4.5,4.6v5.8
		C870.3,528.4,868.3,530.4,865.8,530.4"/>
	<path id="Fill-48" class="st5" d="M853.8,527.4c-2.5,0-4.5-2-4.5-4.5v-3c0-2.4,2-4.5,4.5-4.5s4.5,2,4.5,4.5v3.1
		C858.3,525.4,856.3,527.4,853.8,527.4"/>
	<path id="Fill-49" class="st5" d="M901.8,530.4c-2.5,0-4.5-2.1-4.5-4.6V520c0-2.5,2-4.6,4.5-4.6s4.5,2.1,4.5,4.6v5.8
		C906.3,528.4,904.3,530.4,901.8,530.4"/>
	<path id="Fill-50" class="st5" d="M913.8,530.4c-2.5,0-4.5-2.1-4.5-4.6V520c0-2.5,2-4.6,4.5-4.6s4.5,2.1,4.5,4.6v5.8
		C918.3,528.4,916.3,530.4,913.8,530.4"/>
	<path id="Fill-51" class="st6" d="M889.7,494.4c-0.5,0-0.9,0.1-1.3,0.2c1.9,0.6,3.4,2.3,3.4,4.4v5.8c0,2.1-1.4,3.8-3.4,4.4
		c0.4,0.1,0.9,0.2,1.3,0.2c2.6,0,4.7-2.1,4.7-4.6V499C894.3,496.5,892.2,494.4,889.7,494.4"/>
	<path id="Fill-52" class="st6" d="M877.7,494.4c-0.5,0-0.9,0.1-1.3,0.2c1.9,0.6,3.4,2.3,3.4,4.4v5.8c0,2.1-1.4,3.8-3.4,4.4
		c0.4,0.1,0.9,0.2,1.3,0.2c2.6,0,4.7-2.1,4.7-4.6V499C882.3,496.5,880.2,494.4,877.7,494.4"/>
	<path id="Fill-53" class="st6" d="M865.7,494.4c-0.5,0-0.9,0.1-1.3,0.2c1.9,0.6,3.4,2.3,3.4,4.4l0,5.8c0,2.1-1.4,3.8-3.4,4.4
		c0.4,0.1,0.9,0.2,1.3,0.2c2.6,0,4.7-2.1,4.7-4.6V499C870.3,496.5,868.2,494.4,865.7,494.4"/>
	<path id="Fill-54" class="st6" d="M853.7,497.4c-0.5,0-0.9,0.1-1.3,0.2c1.9,0.6,3.4,2.3,3.4,4.3v2c0,2.1-1.4,3.8-3.4,4.3
		c0.4,0.1,0.9,0.2,1.3,0.2c2.6,0,4.7-2,4.7-4.6v-1.9C858.3,499.5,856.2,497.4,853.7,497.4"/>
	<path id="Fill-55" class="st6" d="M901.7,494.4c-0.5,0-0.9,0.1-1.3,0.2c1.9,0.6,3.4,2.3,3.4,4.4v5.8c0,2.1-1.4,3.8-3.4,4.4
		c0.4,0.1,0.9,0.2,1.3,0.2c2.6,0,4.7-2.1,4.7-4.6V499C906.3,496.5,904.2,494.4,901.7,494.4"/>
	<path id="Fill-56" class="st6" d="M913.7,497.4c-0.5,0-0.9,0.1-1.3,0.2c1.9,0.6,3.4,2.3,3.4,4.3v2c0,2.1-1.4,3.8-3.4,4.3
		c0.4,0.1,0.9,0.2,1.3,0.2c2.6,0,4.7-2,4.7-4.6v-1.9C918.3,499.5,916.2,497.4,913.7,497.4"/>
	<path id="Fill-57" class="st6" d="M889.7,515.4c-0.5,0-0.9,0.1-1.3,0.2c1.9,0.6,3.4,2.3,3.4,4.4v5.8c0,2.1-1.4,3.8-3.4,4.4
		c0.4,0.1,0.9,0.2,1.3,0.2c2.6,0,4.7-2.1,4.7-4.6V520C894.3,517.5,892.2,515.4,889.7,515.4"/>
	<path id="Fill-58" class="st6" d="M877.7,515.4c-0.5,0-0.9,0.1-1.3,0.2c1.9,0.6,3.4,2.3,3.4,4.4v5.8c0,2.1-1.4,3.8-3.4,4.4
		c0.4,0.1,0.9,0.2,1.3,0.2c2.6,0,4.7-2.1,4.7-4.6V520C882.3,517.5,880.2,515.4,877.7,515.4"/>
	<path id="Fill-59" class="st6" d="M865.7,515.4c-0.5,0-0.9,0.1-1.3,0.2c1.9,0.6,3.4,2.3,3.4,4.4v5.8c0,2.1-1.4,3.8-3.4,4.4
		c0.4,0.1,0.9,0.2,1.3,0.2c2.6,0,4.7-2.1,4.7-4.6V520C870.3,517.5,868.2,515.4,865.7,515.4"/>
	<path id="Fill-60" class="st6" d="M853.7,515.4c-0.5,0-0.9,0.1-1.3,0.2c1.9,0.5,3.4,2.2,3.4,4.3v3.1c0,2-1.4,3.7-3.4,4.3
		c0.4,0.1,0.9,0.2,1.3,0.2c2.6,0,4.7-2,4.7-4.5v-3.1C858.3,517.4,856.2,515.4,853.7,515.4"/>
	<path id="Fill-61" class="st6" d="M901.7,515.4c-0.5,0-0.9,0.1-1.3,0.2c1.9,0.6,3.4,2.3,3.4,4.4v5.8c0,2.1-1.4,3.8-3.4,4.4
		c0.4,0.1,0.9,0.2,1.3,0.2c2.6,0,4.7-2.1,4.7-4.6V520C906.3,517.5,904.2,515.4,901.7,515.4"/>
	<path id="Fill-62" class="st6" d="M913.7,515.4c-0.5,0-0.9,0.1-1.3,0.2c1.9,0.6,3.4,2.3,3.4,4.4v5.8c0,2.1-1.4,3.8-3.4,4.4
		c0.4,0.1,0.9,0.2,1.3,0.2c2.6,0,4.7-2.1,4.7-4.6V520C918.3,517.5,916.2,515.4,913.7,515.4"/>
	<path id="Fill-63" class="st1" d="M889.3,494.7c-2.1,0-3.8,1.7-3.8,3.9v5.7c0,2.1,1.7,3.9,3.8,3.9s3.8-1.7,3.8-3.9v-5.7
		C893.1,496.4,891.4,494.7,889.3,494.7z M889.3,509.4c-2.8,0-5-2.3-5-5.2v-5.7c0-2.8,2.2-5.2,5-5.2s5,2.3,5,5.2v5.7
		C894.3,507.1,892.1,509.4,889.3,509.4z"/>
	<path id="Fill-64" class="st1" d="M877.3,494.7c-2.1,0-3.8,1.7-3.8,3.9v5.7c0,2.1,1.7,3.9,3.8,3.9c2.1,0,3.8-1.7,3.8-3.9v-5.7
		C881.1,496.4,879.4,494.7,877.3,494.7z M877.3,509.4c-2.8,0-5-2.3-5-5.2v-5.7c0-2.8,2.2-5.2,5-5.2s5,2.3,5,5.2v5.7
		C882.3,507.1,880.1,509.4,877.3,509.4z"/>
	<path id="Fill-65" class="st1" d="M865.3,494.7c-2.1,0-3.8,1.7-3.8,3.9v5.7c0,2.1,1.7,3.9,3.8,3.9s3.8-1.7,3.8-3.9v-5.7
		C869.1,496.4,867.4,494.7,865.3,494.7z M865.3,509.4c-2.8,0-5-2.3-5-5.2v-5.7c0-2.8,2.2-5.2,5-5.2s5,2.3,5,5.2v5.7
		C870.3,507.1,868.1,509.4,865.3,509.4z"/>
	<path id="Fill-66" class="st1" d="M854.3,498.7c-2.1,0-3.8,1.7-3.8,3.8v1.8c0,2.1,1.7,3.8,3.8,3.8s3.8-1.7,3.8-3.8v-1.8
		C858.1,500.4,856.4,498.7,854.3,498.7z M854.3,509.4c-2.8,0-5-2.3-5-5.1v-1.8c0-2.8,2.2-5.1,5-5.1s5,2.3,5,5.1v1.8
		C859.3,507.2,857.1,509.4,854.3,509.4z"/>
	<path id="Fill-67" class="st1" d="M901.3,494.7c-2.1,0-3.8,1.7-3.8,3.9v5.7c0,2.1,1.7,3.9,3.8,3.9s3.8-1.7,3.8-3.9v-5.7
		C905.1,496.4,903.4,494.7,901.3,494.7z M901.3,509.4c-2.8,0-5-2.3-5-5.2v-5.7c0-2.8,2.2-5.2,5-5.2s5,2.3,5,5.2v5.7
		C906.3,507.1,904.1,509.4,901.3,509.4z"/>
	<path id="Fill-68" class="st1" d="M913.3,498.7c-2.1,0-3.8,1.7-3.8,3.8v1.8c0,2.1,1.7,3.8,3.8,3.8s3.8-1.7,3.8-3.8v-1.8
		C917.1,500.4,915.4,498.7,913.3,498.7z M913.3,509.4c-2.8,0-5-2.3-5-5.1v-1.8c0-2.8,2.2-5.1,5-5.1s5,2.3,5,5.1v1.8
		C918.3,507.2,916.1,509.4,913.3,509.4z"/>
	<path id="Fill-69" class="st1" d="M889.3,516.7c-2.1,0-3.8,1.7-3.8,3.9v5.7c0,2.1,1.7,3.9,3.8,3.9s3.8-1.7,3.8-3.9v-5.7
		C893.1,518.4,891.4,516.7,889.3,516.7z M889.3,531.4c-2.8,0-5-2.3-5-5.2v-5.7c0-2.8,2.2-5.2,5-5.2s5,2.3,5,5.2v5.7
		C894.3,529.1,892.1,531.4,889.3,531.4z"/>
	<path id="Fill-70" class="st1" d="M877.3,516.7c-2.1,0-3.8,1.7-3.8,3.9v5.7c0,2.1,1.7,3.9,3.8,3.9s3.8-1.7,3.8-3.9v-5.7
		C881.1,518.4,879.4,516.7,877.3,516.7z M877.3,531.4c-2.8,0-5-2.3-5-5.2v-5.7c0-2.8,2.2-5.2,5-5.2s5,2.3,5,5.2v5.7
		C882.3,529.1,880.1,531.4,877.3,531.4z"/>
	<path id="Fill-71" class="st1" d="M865.3,516.7c-2.1,0-3.8,1.7-3.8,3.9v5.7c0,2.1,1.7,3.9,3.8,3.9s3.8-1.7,3.8-3.9v-5.7
		C869.1,518.4,867.4,516.7,865.3,516.7z M865.3,531.4c-2.8,0-5-2.3-5-5.2v-5.7c0-2.8,2.2-5.2,5-5.2s5,2.3,5,5.2v5.7
		C870.3,529.1,868.1,531.4,865.3,531.4z"/>
	<path id="Fill-72" class="st1" d="M854.3,516.7c-2.1,0-3.8,1.7-3.8,3.8v3c0,2.1,1.7,3.8,3.8,3.8s3.8-1.7,3.8-3.8v-3
		C858.1,518.3,856.4,516.7,854.3,516.7z M854.3,528.4c-2.8,0-5-2.2-5-5v-3c0-2.7,2.2-5,5-5s5,2.2,5,5v3
		C859.3,526.2,857.1,528.4,854.3,528.4z"/>
	<path id="Fill-73" class="st1" d="M901.3,516.7c-2.1,0-3.8,1.7-3.8,3.9v5.7c0,2.1,1.7,3.9,3.8,3.9s3.8-1.7,3.8-3.9v-5.7
		C905.1,518.4,903.4,516.7,901.3,516.7z M901.3,531.4c-2.8,0-5-2.3-5-5.2v-5.7c0-2.8,2.2-5.2,5-5.2s5,2.3,5,5.2v5.7
		C906.3,529.1,904.1,531.4,901.3,531.4z"/>
	<path id="Fill-74" class="st1" d="M913.3,516.7c-2.1,0-3.8,1.7-3.8,3.9v5.7c0,2.1,1.7,3.9,3.8,3.9s3.8-1.7,3.8-3.9v-5.7
		C917.1,518.4,915.4,516.7,913.3,516.7z M913.3,531.4c-2.8,0-5-2.3-5-5.2v-5.7c0-2.8,2.2-5.2,5-5.2s5,2.3,5,5.2v5.7
		C918.3,529.1,916.1,531.4,913.3,531.4z"/>
	<path id="Fill-75" class="st3" d="M883.8,490.4c-23.5,0-42.5,10.5-42.5,23.5s19,23.5,42.5,23.5s42.5-10.5,42.5-23.5
		C926.3,501,907.3,490.4,883.8,490.4z M883.8,498.3c9.6,0,18.9,2.1,25.5,5.7c5.3,2.9,8.3,6.5,8.3,9.9c0,3.4-3,7-8.3,9.9
		c-6.6,3.6-15.9,5.7-25.5,5.7c-9.6,0-18.9-2.1-25.5-5.7c-5.3-2.9-8.3-6.5-8.3-9.9s3-7,8.3-9.9C864.9,500.4,874.2,498.3,883.8,498.3z
		"/>
	<path id="Fill-76" class="st7" d="M858.1,503.1c6.3-3.5,15.1-5.5,24.2-5.6c-0.4,0-0.8,0-1.3,0c-9.6,0-18.9,2.1-25.5,5.7
		c-5.3,2.9-8.3,6.5-8.3,9.8s3,6.9,8.3,9.8c6.6,3.6,15.9,5.7,25.5,5.7c0.4,0,0.8,0,1.3,0c-9.2-0.2-17.9-2.2-24.2-5.6
		c-5.3-2.9-8.3-6.5-8.3-9.8C849.8,509.8,852.9,506,858.1,503.1"/>
	<path id="Fill-77" class="st7" d="M883.6,490.4c-0.4,0-0.8,0-1.3,0c23,0.4,41.5,10.7,41.5,23.5c0,12.7-18.5,23.1-41.5,23.5
		c0.4,0,0.8,0,1.3,0c23.6,0,42.7-10.5,42.7-23.5C926.3,501,907.2,490.4,883.6,490.4"/>
	<path id="Fill-78" class="st1" d="M883.8,498.5c-9.6,0-18.9,2-25.4,5.6c-5.1,2.8-8,6.2-8,9.3c0,3.1,2.9,6.5,8,9.3
		c6.5,3.6,15.8,5.6,25.4,5.6c9.6,0,18.9-2,25.4-5.6c5.1-2.8,8-6.2,8-9.3c0-3.1-2.9-6.5-8-9.3C902.7,500.6,893.4,498.5,883.8,498.5z
		 M883.8,529.6c-9.8,0-19.3-2.1-26-5.8c-5.5-3-8.7-6.8-8.7-10.4c0-3.6,3.2-7.4,8.7-10.4c6.7-3.7,16.2-5.8,26-5.8s19.3,2.1,26,5.8
		c5.5,3,8.7,6.8,8.7,10.4c0,3.6-3.2,7.4-8.7,10.4C903.1,527.5,893.6,529.6,883.8,529.6z M883.8,490.7c-23.3,0-42.2,10.2-42.2,22.8
		c0,12.6,18.9,22.8,42.2,22.8c23.3,0,42.2-10.2,42.2-22.8C926,500.9,907.1,490.7,883.8,490.7z M883.8,537.4c-24,0-43.5-10.8-43.5-24
		s19.5-24,43.5-24s43.5,10.8,43.5,24C927.3,526.7,907.8,537.4,883.8,537.4z"/>
	<path id="Fill-79" class="st8" d="M921.3,528.5c0-4.5-3.3-8.2-7.6-8.9c-1.1,1.1-2.5,2.1-4.1,3.1h-1.1v-2.8c0-0.1,0-0.3,0-0.4h-3
		c0,0.1,0,0.3,0,0.4v2.8h-8.9v-2.8c0-0.1,0-0.3,0-0.4h-3c0,0.1,0,0.3,0,0.4v2.8h-8.9v-2.8c0-0.1,0-0.3,0-0.4h-3c0,0.1,0,0.3,0,0.4
		v2.8h-8.9v-2.8c0-0.1,0-0.3,0-0.4h-3c0,0.1,0,0.3,0,0.4v2.8h-8.9v-2.8c0-0.1,0-0.2,0-0.3c-1.1,0.2-2.1,0.5-3,1v2.1h-2.6
		c-1.3,1.6-2.1,3.6-2.1,5.8c0,0.2,0,0.4,0,0.5c0,0.2,0,0.4,0,0.5v49.6c0,5.6,4.6,10.1,10.1,10.1c2.4,0,4.7-0.9,6.4-2.3v16.4
		c0,5.6,4.6,10.1,10.1,10.1c5.5,0,10.1-4.6,10.1-10.1v-38.8c1.8,1.4,4,2.3,6.4,2.3c5.6,0,10.1-4.6,10.1-10.1v-3.4
		c1.4,0.7,2.9,1.1,4.5,1.1c5.6,0,10.1-4.6,10.1-10.1v-14.7c0-0.2,0-0.4,0-0.5C921.3,528.8,921.3,528.7,921.3,528.5"/>
	<path id="Fill-80" class="st9" d="M894.4,521.4h2.9v-1.6c0-0.1,0-0.2,0-0.4h-3c0,0.1,0,0.2,0,0.4L894.4,521.4"/>
	<path id="Fill-81" class="st9" d="M870.4,521.4h2.9v-1.6c0-0.1,0-0.2,0-0.4h-3c0,0.1,0,0.2,0,0.4L870.4,521.4"/>
	<path id="Fill-82" class="st9" d="M882.4,521.4h2.9v-1.6c0-0.1,0-0.2,0-0.4h-3c0,0.1,0,0.2,0,0.4L882.4,521.4"/>
	<path id="Fill-83" class="st9" d="M906.4,521.4h0.7c0.8-0.4,1.5-0.9,2.2-1.3v-0.3c0-0.1,0-0.2,0-0.4h-3c0,0.1,0,0.2,0,0.4
		L906.4,521.4"/>
	<path id="Fill-84" class="st9" d="M904,552.4v4c0,5.5-4.7,10-10.4,10c-0.4,0-0.8,0-1.2-0.1c1.4,0.7,2.9,1,4.6,1
		c5.7,0,10.4-4.5,10.4-10v-4C906.1,553.3,905,552.9,904,552.4"/>
	<path id="Fill-85" class="st9" d="M861.3,521.4v-1.7c0-0.1,0-0.2,0-0.3c-1.1,0.2-2.1,0.5-3,0.9v1.1H861.3"/>
	<path id="Fill-86" class="st9" d="M922.3,528.4c0-4.5-3.4-8.3-7.9-9c-0.1,0-0.1,0.1-0.2,0.1c2.8,1.6,4.6,4.5,4.6,7.9
		c0,0.2,0,0.4,0,0.5c0,0.2,0,0.4,0,0.5v14.7c0,5.6-4.7,10.2-10.4,10.2c-0.4,0-0.8,0-1.2-0.1c1.4,0.7,2.9,1.1,4.6,1.1
		c5.7,0,10.4-4.6,10.4-10.2v-14.6c0-0.2,0-0.4,0-0.5C922.3,528.8,922.3,528.6,922.3,528.4"/>
	<path id="Fill-87" class="st9" d="M888,562.4v40.8c0,5.6-4.7,10.2-10.4,10.2c-0.4,0-0.8,0-1.2-0.1c1.4,0.7,2.9,1.1,4.6,1.1
		c5.7,0,10.4-4.6,10.4-10.2v-39.9C890.1,563.9,889,563.2,888,562.4"/>
	<path id="Fill-88" class="st9" d="M871.3,584.4c-1.8,1.5-8.2,4-10.8,4c-0.4,0-0.8,0-1.2-0.1c1.4,0.7,3,1,4.6,1
		c1.1,0,6.3-1.9,7.4-2.2V584.4"/>
	<path id="Fill-89" class="st1" d="M870.5,587.5c0.1,0,0.2,0,0.3,0.1c0.2,0.1,0.4,0.3,0.4,0.6v16.5c0,5.3,4.2,9.6,9.5,9.6
		s9.5-4.3,9.5-9.6v-39.2c0-0.2,0.1-0.5,0.4-0.6c0.2-0.1,0.5-0.1,0.7,0.1c1.7,1.4,3.8,2.2,6,2.2c5.2,0,9.5-4.3,9.5-9.6v-3.5
		c0-0.2,0.1-0.4,0.3-0.5c0.2-0.1,0.4-0.1,0.6,0c1.3,0.7,2.7,1,4.2,1c5.2,0,9.5-4.3,9.5-9.6v-14.7c0-0.1,0-0.2,0-0.3v-0.2v-0.2
		c0-0.1,0-0.2,0-0.4c0-4-2.9-7.5-6.8-8.3c-1.1,1.1-2.5,2.1-4,3c-0.1,0.1-0.2,0.1-0.3,0.1h-1.1c-0.3,0-0.6-0.3-0.6-0.6v-2.6h-1.7v2.6
		c0,0.3-0.3,0.6-0.6,0.6h-8.9c-0.3,0-0.6-0.3-0.6-0.6v-2.6h-1.7v2.6c0,0.3-0.3,0.6-0.6,0.6l-8.9,0c-0.3,0-0.6-0.3-0.6-0.6v-2.6h-1.7
		v2.6c0,0.3-0.3,0.6-0.6,0.6h-8.9c-0.3,0-0.6-0.3-0.6-0.6v-2.6h-1.7v2.6c0,0.3-0.3,0.6-0.6,0.6H862c-0.3,0-0.6-0.3-0.6-0.6v-2.3
		c-0.6,0.1-1.1,0.4-1.7,0.6v1.7c0,0.3-0.3,0.6-0.6,0.6h-2.2c-1.2,1.5-1.8,3.3-1.8,5.2c0,0.1,0,0.2,0,0.3v0.2v0.2c0,0.1,0,0.2,0,0.3
		v50c0,5.3,4.2,9.6,9.5,9.6C866.8,589.8,868.9,589,870.5,587.5C870.2,587.5,870.3,587.5,870.5,587.5z M880.6,615.4
		c-5.9,0-10.7-4.9-10.7-10.8v-15.3c-1.7,1.1-3.7,1.7-5.8,1.7c-5.9,0-10.7-4.9-10.7-10.8v-50c0-0.1,0-0.3,0-0.4v-0.2v-0.1
		c0-0.1,0-0.3,0-0.4c0-2.3,0.8-4.5,2.3-6.3c0.1-0.1,0.3-0.2,0.5-0.2h1.9v-1.5c0-0.2,0.1-0.4,0.3-0.6c1-0.5,2-0.9,3.2-1.1
		c0.2,0,0.4,0,0.5,0.2c0.1,0.1,0.2,0.3,0.2,0.5v0.2v2.3h7.7v-2.2c0-0.1,0-0.1,0-0.2V520c0-0.2,0-0.4,0.2-0.5
		c0.1-0.1,0.3-0.2,0.5-0.2h3c0.2,0,0.3,0.1,0.5,0.2c0.1,0.1,0.2,0.3,0.2,0.5v0.2c0,0.1,0,0.1,0,0.2v2.2h7.7v-2.2c0-0.1,0-0.1,0-0.2
		V520c0-0.2,0-0.4,0.2-0.5c0.1-0.1,0.3-0.2,0.5-0.2h3c0.2,0,0.3,0.1,0.5,0.2c0.1,0.1,0.2,0.3,0.2,0.5v0.2c0,0.1,0,0.1,0,0.2v2.2h7.7
		v-2.2c0-0.1,0-0.1,0-0.2V520c0-0.2,0-0.4,0.2-0.5c0.1-0.1,0.3-0.2,0.5-0.2h3c0.2,0,0.4,0.1,0.5,0.2c0.1,0.1,0.2,0.3,0.2,0.5v0.2
		c0,0.1,0,0.1,0,0.2v2.2h7.7v-2.2c0-0.1,0-0.1,0-0.2V520c0-0.2,0-0.4,0.2-0.5c0.1-0.1,0.3-0.2,0.5-0.2h3c0.2,0,0.3,0.1,0.5,0.2
		c0.1,0.1,0.2,0.3,0.2,0.5v0.2c0,0.1,0,0.1,0,0.2v2.2h0.3c1.5-0.9,2.8-1.9,3.9-2.9c0.1-0.1,0.3-0.2,0.5-0.2c4.6,0.7,8.1,4.9,8.1,9.6
		c0,0.2,0,0.3,0,0.5v0.1v0.1c0,0.1,0,0.3,0,0.4v14.7c0,6-4.8,10.8-10.7,10.8c-1.3,0-2.6-0.2-3.8-0.7v2.5c0,6-4.8,10.8-10.7,10.8
		c-2,0-4.1-0.6-5.8-1.7v37.9C891.3,610.6,886.5,615.4,880.6,615.4z"/>
	<path id="Fill-90" class="st8" d="M958.3,362.8L958.3,362.8L958.3,362.8c-3.6-7.5-8.2-13.2-8.2-13.2c-2.2-10.3-8.8-9-8.8-9
		c-0.4-10.3-9.6-9.6-9.6-9.6c-2.6-5.4-9.7-7.3-9.7-7.3c-14-4.6-14.9,4.2-14.9,4.2l0.4,0.2l-8.2,6.3c0.6,1.2,1.3,2.4,2.3,3.4
		c1.2,1.2,2.6,2.1,4.1,2.6c0.4,4,1.9,7.7,1.9,7.7h0.2c-3.2,4.5-2.8,10.9,1.3,14.9c4.3,4.3,11.1,4.5,15.6,0.6
		c-3.9,4.6-3.7,11.4,0.6,15.7c3.6,3.7,9.1,4.4,13.5,2.1c0,0,2.3-1.6,2.8-2.1h5.4c0.2,2.7,1.3,5.4,3.3,7.5c1.1,1.1,2.3,1.9,3.6,2.5
		l8.1-9.1C962.9,374.6,960.9,368.3,958.3,362.8"/>
	<path id="Fill-91" class="st9" d="M923.6,331.4c0.4,0.7,0.8,1.4,1.1,2.1c1.2,2.5,2.6,4.9,4.2,7.2c0.3,0.4,0.6,0.8,1.1,0.7
		c0.2,0,0.3-0.2,0.5-0.3c0.7-0.6,1.3-1.3,1.6-2.1c0.2-0.6,0.2-1.3,0.2-2c0-1-0.1-2.1-0.2-3.1c-1.7-0.3-3-1.7-4.3-2.9
		c-0.7-0.7-1.4-1.4-2.2-2c-0.6-0.5-1.2-1-2-1.3c-0.7-0.3-1.5-0.3-2.3-0.2c-1.4,0.1-2.7,0.3-4,0.7
		C919.8,328.1,922.2,329.4,923.6,331.4"/>
	<path id="Fill-92" class="st9" d="M917.4,328.4L917.4,328.4L917.4,328.4L917.4,328.4"/>
	<path id="Fill-93" class="st9" d="M942.2,367.9l-1.3,2.9l-0.5,9.6h4.7c0,0,0.3-3.7,0.3-9.3C945.3,365.6,942.2,367.9,942.2,367.9"/>
	<path id="Fill-94" class="st9" d="M962.1,373.9l-2.3-9l-6-10.6l-3.4-4.9v6.4l-0.8,3l-2.2,1.9l2,2.2l0.4,3.2l0.1,0.2l-1.2,3.5
		l-0.9,3.8l0.3,0.7l1.3-0.3c0,0,3.3-2,3.4-4.1l0.1,2.2v0.5c0,0,1.8,13.4,9.4,7.2L962.1,373.9"/>
	<path id="Fill-95" class="st9" d="M947.3,343c-2.9-4-5.9-2.2-5.9-2.2l4.9,9.6C946.2,350.4,950.2,347.1,947.3,343"/>
	<path id="Fill-96" class="st9" d="M939.3,350.4c0,0-13.4-3.4-17.6-9.4c-4.2-6-4.4,0-4.4,0l1.7,3l4.9,3L939.3,350.4"/>
	<path id="Fill-97" class="st9" d="M941.4,352.4l-2.5,3.9l-5.6,3.7l-9,0.8c0,0,8.5,8.9,14.5,4.3
		C944.7,360.6,941.4,352.4,941.4,352.4"/>
	<path id="Fill-98" class="st1" d="M931,341.4c-0.1,0-0.2,0-0.3-0.1c-0.3-0.2-0.4-0.5-0.3-0.8c1.8-3.6,2.1-6.8,0.9-9.5
		c-2.4-5.1-9.4-7-9.5-7.1c-5.2-1.6-9.2-1.7-11.7-0.1c-2.3,1.4-2.5,3.7-2.5,3.7c0,0.3-0.4,0.6-0.7,0.5c-0.3,0-0.6-0.3-0.6-0.7
		c0-0.1,0.3-2.9,3.1-4.6c2.9-1.8,7.1-1.8,12.7,0c0.3,0.1,7.7,2.1,10.3,7.7c1.4,3.1,1.1,6.7-0.9,10.6
		C931.5,341.3,931.2,341.4,931,341.4"/>
	<path id="Fill-99" class="st1" d="M908,349.4c-0.2,0-0.5-0.1-0.6-0.4c-0.2-0.6-5.6-13.7,2-17.1l1.7-0.8c6.2-2.8,10.3-4.7,13.6,1
		c0.5,0.9,1,1.8,1.5,2.7c1.8,3.3,3.6,6.8,5.3,7c0.6,0.1,1.2-0.3,1.8-1.1c0.2-0.3,0.6-0.3,0.9-0.1c0.3,0.2,0.3,0.6,0.1,0.9
		c-0.9,1.1-1.9,1.6-2.9,1.5c-2.3-0.2-4.2-3.7-6.3-7.6c-0.5-0.9-1-1.8-1.5-2.7c-2.6-4.6-5.4-3.5-12-0.5l-1.7,0.8
		c-6.5,2.9-1.4,15.4-1.4,15.5c0.1,0.3,0,0.7-0.3,0.8C908.2,349.4,908.1,349.4,908,349.4"/>
	<path id="Fill-100" class="st1" d="M927.4,361.4c-2.8,0-4.8-0.6-5-0.6c-0.3-0.1-0.5-0.4-0.4-0.8c0.1-0.3,0.4-0.5,0.8-0.4
		c0.1,0,9.4,2.6,15-3.7c1.7-1.9,2.5-3.2,2.3-3.9c-0.3-1.1-3.4-1.6-7.3-2.3c-1.8-0.3-3.8-0.7-6-1.1c-4.7-1-7.8-2.8-9.4-5.5
		c-1.6-2.7-0.9-5.2-0.8-5.3c0.1-0.3,0.4-0.5,0.8-0.4c0.3,0.1,0.5,0.5,0.4,0.8c0,0.1-0.6,2.1,0.7,4.3c1.4,2.3,4.3,4,8.6,4.9
		c2.2,0.5,4.2,0.8,6,1.1c5,0.9,7.7,1.3,8.3,3.1c0.4,1.2-0.3,2.7-2.5,5.2C935.3,360.6,930.8,361.4,927.4,361.4"/>
	<path id="Fill-101" class="st1" d="M948.3,374.4c-0.2,0-0.5-0.1-0.7-0.2c-0.9-0.6-0.7-2.2,0.6-5.4c1-2.6,1.2-4.7,0.5-6.1
		c-0.7-1.3-1.9-1.6-1.9-1.6c-0.3-0.1-0.5-0.3-0.5-0.6c0-0.3,0.2-0.5,0.5-0.6c0,0,1.3-0.2,2.2-1.7c1.2-1.8,1.4-4.8,0.6-8.6
		c-2-9.5-7.9-8.4-8-8.4c-0.2,0-0.4,0-0.5-0.1s-0.2-0.3-0.2-0.5c-0.1-3-1-5.3-2.7-6.9c-2.6-2.3-6.1-2.1-6.2-2.1
		c-0.3,0-0.6-0.2-0.7-0.6c-0.1-0.4,0.2-0.6,0.6-0.7c0.2,0,4.1-0.3,7.1,2.4c1.8,1.6,2.9,4,3.1,7.1c0,0,0,0,0.1,0
		c1.9,0,6.8,0.9,8.7,9.4c0.9,4.3,0.6,7.5-0.8,9.6c-0.5,0.8-1.1,1.3-1.6,1.6c0.5,0.3,1,0.8,1.4,1.5c0.9,1.8,0.8,4.2-0.4,7.2
		c-1.3,3.3-1,3.9-1,4c0.1,0,0.8-0.4,1.2-0.8c0.3-0.2,0.7-0.2,0.9,0.1c0.2,0.3,0.2,0.7-0.1,0.9C950,373.7,949.1,374.4,948.3,374.4"/>
	<path id="Fill-102" class="st1" d="M945.7,352.4c-0.3,0-0.5-0.2-0.6-0.4c0-0.1-4.7-13.6-9.5-17.4c-0.3-0.2-0.3-0.6-0.1-0.9
		s0.6-0.3,0.9-0.1c5.1,4.1,9.8,17.5,10,18c0.1,0.3-0.1,0.7-0.4,0.8C945.9,352.4,945.8,352.4,945.7,352.4"/>
	<path id="Fill-103" class="st1" d="M941,380.4c-0.4,0-0.6-0.3-0.6-0.6c0-0.3,0.3-0.6,0.6-0.6h7.3c0.1,0,2.7-0.4,3.7-5.8
		c1-5.4-2.7-6.8-2.8-6.8c-0.3-0.1-0.5-0.5-0.4-0.8c0.1-0.3,0.5-0.5,0.8-0.4c0,0,4.8,1.7,3.6,8.2c-1.2,6.4-4.7,6.8-4.9,6.8H941"/>
	<path id="Fill-104" class="st1" d="M939,383.4c-0.3,0-0.6-0.2-0.6-0.6c0-0.3,0.2-0.7,0.5-0.7c0,0,2.1-0.6,1.9-7.4
		c-0.3-8.2,3.7-9.2,3.8-9.3c0.3-0.1,0.7,0.1,0.7,0.5c0.1,0.3-0.1,0.7-0.4,0.8c-0.1,0-3.1,1-2.9,8C942.3,382.8,939.4,383.4,939,383.4
		L939,383.4"/>
	<path id="Fill-105" class="st1" d="M962.6,381.4C962.5,381.4,962.5,381.4,962.6,381.4c-0.4,0-0.7-0.4-0.6-0.7
		c1.6-13.3-12.3-30.1-12.4-30.3c-0.2-0.3-0.2-0.7,0.1-0.9c0.3-0.2,0.7-0.2,0.9,0.1c0.6,0.7,14.4,17.3,12.7,31.2
		C963.2,381.2,962.9,381.4,962.6,381.4"/>
	<path id="Fill-106" class="st1" d="M959.2,382.4c-0.2,0-0.4-0.1-0.5-0.3c-1.7-2.3-2.4-4.6-2-6.8c0.4-2.1,1.6-3.6,2.6-4.5
		c-3.5-1-3.8-3.9-4.1-6.5c-0.1-0.9-0.2-1.8-0.4-2.6c-0.8-3.3-4.9-4.1-5-4.1c-0.3-0.1-0.6-0.4-0.5-0.7c0.1-0.3,0.4-0.6,0.7-0.5
		c0.2,0,4.9,1,5.9,5c0.2,0.9,0.3,1.9,0.4,2.8c0.3,2.9,0.6,5.1,4.3,5.7c0.3,0,0.5,0.2,0.5,0.5c0.1,0.3-0.1,0.5-0.3,0.7
		c0,0-2.6,1.7-3.1,4.5c-0.3,1.9,0.3,3.8,1.7,5.8c0.2,0.3,0.1,0.7-0.1,0.9C959.5,382.4,959.3,382.4,959.2,382.4"/>
	<path id="Fill-107" class="st1" d="M941.8,378.3h5.5c0.3,0,0.6,0.3,0.6,0.6c0.2,2.7,1.3,5.2,3.2,7c0.9,0.9,1.9,1.6,3.1,2.1l7.8-8.6
		c0.5-4.8-0.8-10.4-4-16.9l0,0c-3.6-7.3-8.2-13-8.3-13c-0.1-0.1-0.1-0.2-0.1-0.3c-2-9.5-8.1-8.5-8.1-8.4c-0.2,0-0.4,0-0.5-0.1
		c-0.1-0.1-0.2-0.3-0.2-0.5c-0.1-3-1-5.4-2.8-6.9c-2.6-2.3-6.2-2.1-6.3-2.1c-0.3,0-0.5-0.1-0.6-0.3c-2.5-5.1-9.3-6.9-9.4-7
		c-5.2-1.7-9.2-1.7-11.7-0.1c-1.7,1.1-2.3,2.7-2.5,3.4l0,0c0.2,0.1,0.3,0.3,0.3,0.5c0,0.2-0.1,0.4-0.2,0.5l-7.8,5.9
		c0.5,1,1.2,2,2,2.8c1.1,1.1,2.4,1.9,3.9,2.5c0.2,0.1,0.4,0.3,0.4,0.5c0.3,3.1,1.4,6.1,1.8,7.2c0.1,0,0.2,0.1,0.2,0.2
		c0.2,0.2,0.2,0.5,0,0.7c-3.1,4.4-2.6,10.3,1.2,14.1c4,4,10.6,4.3,15,0.6c0.2-0.2,0.6-0.2,0.9,0c0.2,0.2,0.2,0.6,0,0.8
		c-3.7,4.3-3.4,10.8,0.6,14.8c3.4,3.4,8.6,4.2,12.9,2c0.8-0.6,2.4-1.6,2.7-2C941.5,378.4,941.7,378.3,941.8,378.3z M954.4,389.4
		c-0.1,0-0.2,0-0.2-0.1c-1.5-0.6-2.8-1.5-3.9-2.6c-2-2-3.2-4.5-3.5-7.3h-4.7c-0.7,0.6-2.5,1.8-2.7,2c-4.9,2.5-10.6,1.6-14.5-2.2
		c-3.8-3.7-4.6-9.4-2.3-14c-4.6,2.2-10.4,1.4-14.1-2.3c-4.1-4.1-4.8-10.4-1.6-15.2c-0.3-0.8-1.5-3.9-1.9-7.3c-1.5-0.6-2.9-1.5-4-2.6
		c-1-1-1.9-2.2-2.5-3.6c-0.1-0.3,0-0.6,0.2-0.8l7.6-5.7c0-0.1-0.1-0.2,0-0.3c0-0.1,0.3-2.9,3.1-4.7c2.9-1.8,7.2-1.8,12.8,0
		c0.3,0.1,7.1,2,10,7.2l0,0c1.9,0,9.3,0.6,9.9,9.5c1.8,0,7,0.8,8.8,9.3c0.7,0.9,4.9,6.2,8.3,13c0.1,0.1,0.1,0.2,0.1,0.3
		c3.2,6.7,4.6,12.6,4,17.6c0,0.1-0.1,0.2-0.2,0.3l-8.2,9.1C954.7,389.4,954.6,389.4,954.4,389.4z"/>
</g>
<g id="Image">
	<rect id="path-1_1_" x="-1.2" y="-6.3" class="st10" width="534.8" height="535.6"/>
</g>
<g>
	<rect x="-8.4" y="408.1" class="st11" width="39.5" height="74.3"/>
	<g>
		<g id="Layer_1-2">
			<path class="st12" d="M121,44.1c0.1,0.8,0.6,1.5,1.2,2c0.5,0.4,1.2,0.8,1.9,0.9c0.5,0.1,0.9,0.1,1.3,0c0.2,0,0.4-0.1,0.6-0.2
				c0.9-0.3,1.7-0.8,2.4-1.5c0.6-0.6,1.3-1.3,1.8-2c0.5-0.7,1-1.3,1.5-1.9l0.1-0.2c0.1,0.1,0.1,0.2,0.2,0.3c0.3,0.3,0.6,0.6,1,0.9
				l0.1,0.1l-0.5,0.6l-0.6,0.8c-0.3,0.3-0.4,0.5-0.7,0.8c-0.3,0.3-0.4,0.6-0.6,0.9c-0.2,0.3-0.3,0.6-0.3,1c0,0.4,0.1,0.8,0.3,1.1
				c0.2,0.6,0.7,1,1.3,1.2c0.5,0.1,1,0.2,1.5,0.1l0.2,0c0.6-0.2,1.2-0.4,1.6-0.9c0.4-0.4,0.9-1,1.1-1.5s0.5-1.2,0.4-1.9
				c0-0.7-0.2-1.3-0.5-1.8c-0.2-0.3-0.5-0.5-0.8-0.8c0.6-0.7,1.3-1.3,2-2c0.6-0.5,1.2-0.9,1.8-1.4c0.1,1.6,0.2,3.1,0.5,4.7
				c0.5,4.6,1.1,9.2,1.8,13.9c0,0.2,0.1,0.4,0.3,0.5c0.3,0.2,0.8,0.2,1.1-0.2c0.1-0.2,0.2-0.4,0.1-0.6c-0.8-4.6-1.4-9.3-1.9-13.9
				s-0.8-9.2-0.9-13.9l1.1-0.3l1.7-0.4l2.9-0.7c0.2,0,0.4-0.1,0.5-0.4c0.1-0.2,0.2-0.4,0.1-0.6s-0.1-0.3-0.3-0.5
				c-0.2-0.1-0.4-0.2-0.6-0.1l0,0l-2.8,0.7l-2.7,0.7c0-1-0.1-2.1,0-3.3c0-1.1,0-2.2,0-3.4c0-0.2-0.1-0.4-0.3-0.6
				c-0.2-0.1-0.3-0.2-0.6-0.3s-0.4,0-0.6,0.2c-0.2,0.2-0.3,0.4-0.3,0.6c0,1.2,0,2.5,0,3.6c0,1.2,0,2.3,0.1,3.5
				c-0.5,0.2-1,0.2-1.5,0.3c-0.5,0.1-1.1,0.3-1.6,0.4c-0.2,0-0.4,0.1-0.5,0.4c-0.1,0.2-0.2,0.4-0.1,0.6c0,0.2,0.1,0.3,0.3,0.5
				c0.2,0.1,0.4,0.2,0.6,0.1l0,0l1.8-0.5l0.2,0l1.1-0.3c0.1,2.4,0.2,4.8,0.4,7.2l0,0c-1,0.5-1.9,1.2-2.8,2c-0.8,0.7-1.6,1.5-2.3,2.3
				c-0.3-0.2-0.6-0.3-0.8-0.6c-0.3-0.3-0.4-0.7-0.4-1.2c0-0.1,0-0.1,0-0.3c0.1-0.1,0-0.2,0-0.3c0-0.3,0.1-0.6,0.2-0.9
				c0.2-0.5,0.4-1,0.7-1.4c0.2-0.4,0.5-0.8,0.8-1.1c0.2-0.2,0.2-0.4,0.2-0.6c0-0.2-0.2-0.3-0.3-0.5c-0.2-0.1-0.3-0.2-0.6-0.2
				c-0.2,0-0.5,0.1-0.6,0.3c-0.7,0.8-1.2,1.7-1.6,2.7c-0.2,0.4-0.3,0.9-0.4,1.3c0,0,0,0.1-0.1,0.1c-0.2,0.4-0.4,0.8-0.7,1.2
				l-0.8,1.2l-1.2,1.6c-0.4,0.5-0.9,1-1.4,1.5c-0.5,0.5-1.1,0.9-1.7,1.1c-0.6,0.3-1.4,0.3-2,0c-0.3-0.1-0.6-0.3-0.8-0.5
				c-0.2-0.3-0.2-0.6-0.4-0.8c-0.1-0.4,0-0.7,0-1c0-0.3,0.1-0.5,0.1-0.8c0.9,0.3,1.7,0.1,2.5-0.4c0.8-0.6,1.4-1.4,1.7-2.4
				c0.3-0.6,0.4-1.3,0.5-1.9c0.1-0.7,0.1-1.3-0.2-2c-0.2-0.5-0.5-0.9-1.1-1.1c-0.5-0.1-1,0-1.5,0.3c-0.6,0.4-1.2,0.9-1.6,1.5
				s-0.7,1.2-1.1,1.9c-0.2,0.7-0.5,1.4-0.7,2.1c-0.1,0.7-0.2,1.4-0.3,2.1C120.8,42.5,120.8,43.4,121,44.1z M132.2,46.7
				c0-0.4,0.1-0.7,0.3-1c0.2-0.4,0.5-0.8,0.8-1.2c0.4-0.4,0.6-0.7,0.7-0.9c0.1-0.1,0.3-0.3,0.3-0.4c0.1-0.1,0.1-0.2,0.2-0.3
				c0.2,0.1,0.3,0.2,0.4,0.4c0.2,0.2,0.2,0.5,0.2,0.8c0,0.3-0.1,0.7-0.2,1c-0.1,0.3-0.2,0.7-0.5,1c-0.3,0.3-0.5,0.5-0.8,0.7
				c-0.3,0.2-0.6,0.2-0.9,0.2C132.1,47,132.1,46.8,132.2,46.7L132.2,46.7z M122.8,40.1c0.2-0.7,0.4-1.4,0.7-2c0-0.2,0.2-0.4,0.4-0.7
				c0.2-0.3,0.4-0.7,0.7-0.9c0.2-0.3,0.4-0.4,0.7-0.6c0.1,0,0.1,0,0.1,0c0.1,0.1,0.2,0.2,0.2,0.3c0,0.2,0.1,0.5,0.1,0.7
				c0,0.3-0.1,0.6-0.2,0.9c-0.1,0.3-0.2,0.6-0.4,0.9c-0.1,0.2-0.2,0.5-0.3,0.7c-0.2,0.4-0.5,0.7-1,0.9
				C123.5,40.4,123.1,40.4,122.8,40.1z"/>
			<path class="st12" d="M137.9,62.9c-0.3-0.2-0.8-0.1-1,0.2l0,0l-3.4,5.8l0,0l0,0l-0.3,0.7c-0.1,0.2-0.2,0.4-0.4,0.7l-0.1,0.2
				c-0.1,0.2-0.3,0.4-0.6,0.3c-0.1,0-0.2,0-0.3-0.2c0-0.2-0.1-0.4,0-0.6c0-0.1,0-0.1,0-0.1l0,0c0-0.4,0-1.3,0-1.7l-0.1-0.8
				c0-0.2-0.1-0.4-0.3-0.5c-0.3-0.2-0.8-0.1-1,0.2c-0.2,0.2-0.2,0.4-0.3,0.6c0,0.4,0,0.7,0,1c0,0.4,0,0.7,0,1.2c0,0.2,0,0.5,0.1,0.7
				c-0.2,2.2-0.6,4.7-1.9,5.2c-0.1,0-0.4,0.1-0.5-0.1c-0.9-0.4-1.9-2.1-2.8-4.8c1.4-6.1,2.8-14.1,1.4-17.8c-0.7-1.9-2-2.8-3.2-2.3
				c-1,0.4-1.7,1.6-2.1,3.7c-0.7,4.7,0.4,11.4,2.1,16.3c-0.1,2-0.8,2.9-1.8,3.1c-1,0.2-2.3-1.6-3.4-4.8c1.4-6.1,2.8-14.1,1.4-17.8
				c-0.7-1.9-2-2.8-3.2-2.3c-3.4,1.3-2.5,11.9-0.3,19.1l-0.1,0.1c-0.3,0.4-0.8,0.6-1.2,0.7c-0.4,0.1-0.9,0.1-1.3,0l0,0
				c-0.1-0.4-0.4-0.8-0.7-1.1c-0.2-0.3-0.6-0.6-1.1-0.6c-0.3,0-0.6,0.2-0.7,0.4c-0.2,0.3-0.2,0.6-0.1,1c0.1,0.4,0.3,0.8,0.6,1.1
				c0.3,0.3,0.5,0.5,0.9,0.7c0,0.1,0.1,0.1,0.1,0.1c0.1,0.4,0.1,0.7,0.2,1.2c0.1,0.4,0.1,0.8,0.1,1.2c0,0.4,0,1,0,1.4
				c-0.1,0.5-0.1,1.1-0.2,1.6c-0.1,0.5-0.3,0.9-0.5,1.3c-0.2,0.3-0.5,0.5-0.9,0.5c-0.4,0-0.7-0.2-0.9-0.5c-0.3-0.4-0.5-0.8-0.7-1.2
				c-0.2-0.5-0.3-1-0.4-1.5c-0.1-0.4-0.2-0.9-0.2-1.4c-0.1-0.4-0.1-0.8-0.1-1.3c0-0.4,0-0.9,0.1-1.3c0.1-0.5,0.2-0.8,0.2-1.2
				c0.1-0.4,0.2-0.7,0.5-1l0,0c0-0.2,0.2-0.3,0.2-0.5c0.1-0.2,0.1-0.4,0-0.6c0-0.2-0.2-0.4-0.4-0.5c-0.2,0-0.4-0.1-0.5,0
				c-0.3,0.1-0.7,0.5-0.8,0.9c-0.2,0.4-0.3,0.8-0.4,1.3c-0.1,0.5-0.3,1.1-0.3,1.7l-2.7,0.5c0-0.1,0-0.3,0-0.4c0-0.2,0-0.4,0-0.6
				c0.1-2.2,0.1-4.5,0.2-6.8s0-4.5,0.2-6.8c0-0.2-0.1-0.4-0.3-0.6c-0.2-0.1-0.3-0.2-0.6-0.2c-0.2,0-0.4,0-0.6,0.1
				c-0.2,0.1-0.3,0.4-0.3,0.6l-0.4,14.1c0,0.1,0,0.4,0,0.5l0,0.4c-3.5,0.6-7,1.4-10.4,2.4c0-2.4,0.1-5,0.2-7.7
				c0.1-2.7,0.1-5.3,0.1-7.9c0-0.2-0.1-0.4-0.3-0.6C92.2,57.2,92,57,91.8,57c-0.2,0-0.4,0-0.6,0.1c-0.2,0.1-0.3,0.4-0.3,0.6
				c-0.1,2.8-0.1,5.6-0.2,8.1c-0.1,2.5-0.1,5.3-0.2,8c-5,1.4-9.9,3.1-14.6,5.1c-0.2,0-0.4,0.2-0.4,0.4c0,0.2,0,0.4,0.1,0.6
				c0.1,0.2,0.2,0.3,0.4,0.5c0.2,0.1,0.5,0.1,0.7,0c2.4-1,4.7-1.9,7-2.7c2.3-0.8,4.6-1.5,6.9-2.2c-0.1,3.1-0.1,6-0.2,8.9l-0.3,9.2
				c0,0.2,0.1,0.4,0.3,0.6c0.2,0.1,0.3,0.2,0.6,0.3c0.1,0,0.1,0,0.2,0c0.1,0,0.2-0.1,0.3-0.1c0.2-0.2,0.2-0.3,0.3-0.6
				c0.1-3.2,0.2-6.3,0.2-9.4c0.1-3.1,0.1-6.1,0.3-9.2c1.7-0.4,3.5-0.9,5.2-1.3c1.7-0.4,3.4-0.8,5.2-1.1c-0.1,1.7-0.1,3.4-0.1,5.1
				c0,1.7,0.1,3.5,0.3,5.3c0,0.2,0.1,0.4,0.3,0.6c0.3,0.2,0.8,0.2,1.1-0.2c0.2-0.2,0.2-0.4,0.2-0.6c-0.2-1.8-0.2-3.5-0.3-5.3
				s0-3.5,0.1-5.2l2.8-0.5c0,1,0.2,1.8,0.3,2.8c0.1,0.5,0.2,1,0.4,1.5c0.2,0.5,0.4,1,0.6,1.4c0.2,0.4,0.5,0.8,0.9,1.1
				c0.3,0.3,0.7,0.5,1.1,0.6c0.2,0.1,0.5,0.1,0.8,0c0.1,0,0.4-0.1,0.5-0.2c0.4-0.2,0.7-0.5,1-0.8c0.3-0.4,0.5-0.8,0.6-1.3
				c0.1-0.5,0.3-1,0.4-1.6c0.1-0.8,0.2-1.6,0.1-2.3c0-0.8,0-1.6-0.2-2.3c0.4,0,0.8-0.1,1.2-0.1c0.4-0.1,0.9-0.2,1.2-0.5
				c0.1-0.1,0.3-0.2,0.3-0.3c1.5,4,3.3,6,5.1,5.6c1.2-0.1,2.2-0.9,2.7-2c0.7,1.5,1.5,2.7,2.3,3.3c0.5,0.4,1.2,0.7,2,0.6
				c0.1,0,0.4-0.1,0.5-0.2c1.5-0.6,2.2-2.5,2.5-4.5c0.2,0,0.2,0.1,0.4,0.2c0.5,0.1,0.9-0.1,1.3-0.4c0.7-0.5,1.1-1.1,1.5-1.8
				c0.3-0.7,0.7-1.3,1.1-2l0.1-0.1l0.7-1.2c0.1-0.2,0.3-0.5,0.4-0.7c-0.1,2.2-0.1,4.3-0.1,6.4c0.1,2.3,0.2,4.6,0.4,6.9
				c0.2,2.3,0.4,4.6,0.7,6.9c0.1,0.9,0.1,1.2,0.2,1.4c0,0.1,0,0.2,0.1,0.9c0,0.2,0.1,0.4,0.3,0.5c0.2,0.1,0.4,0.2,0.6,0.2l-0.1,0
				c0.4-0.1,0.7-0.5,0.7-0.9c-0.4-3.9-0.5-5.3-0.7-8.4c0-0.6-0.1-1.2-0.1-1.8c-0.3-4.8-0.4-9.9-0.4-15
				C138.5,63.4,138.3,63.1,137.9,62.9z M123.6,52.2l0.1,0c0.7-0.1,1.3,1.3,1.4,1.5c1.2,3.2,0,10.5-0.9,14.7
				C121.8,60.3,121.9,52.8,123.6,52.2L123.6,52.2z M116.8,50.4c0.7-0.1,1.2,1.2,1.4,1.5c1.2,3.2,0,10.5-0.9,14.7
				C114.9,58.6,115,51.1,116.8,50.4L116.8,50.4z"/>
			<path class="st12" d="M93.3,51.3c0.4,0.7,1,1.4,1.7,1.9c0.7,0.4,1.5,0.6,2.3,0.4c1.2-0.2,2.3-0.8,3.2-1.8
				c0.9-1.1,1.8-2.2,2.4-3.5c0.7-1.5,1.3-3.1,1.7-4.6c0.5-1.6,1-3.4,1.3-5.1c0.4-1.8,0.7-3.5,0.9-5.1l0-0.4c0.3,1.1,0.5,2.1,0.8,3.2
				c0.6,1.9,1.2,3.8,2,5.7c0.6,1.5,1.5,2.9,2.5,4.2c1,1.2,2.2,1.7,3.4,1.5c1-0.2,1.9-0.8,2.4-1.6c0.6-0.9,1-2,1.2-3.1
				c0.3-1.3,0.4-2.7,0.5-4.1c0-1.5,0.1-3.1-0.1-4.6c-0.1-1.5-0.2-3.1-0.4-4.7c-0.2-1.5-0.4-3-0.7-4.3c-0.2-1-0.3-1.8-0.5-2.6
				s-0.3-1.4-0.5-1.9c0-0.3-0.2-0.6-0.6-0.7c-0.2-0.1-0.5-0.1-0.7,0.1c-0.4,0.2-0.5,0.7-0.4,1.1c0.2,0.5,0.3,1.1,0.5,1.8
				c0.2,0.8,0.3,1.6,0.5,2.4c0.2,1.3,0.5,2.7,0.6,4c0.2,1.5,0.3,3,0.4,4.5c0.1,1.5,0.1,2.9,0.1,4.4c0,1.3-0.2,2.5-0.4,3.7
				c-0.1,0.9-0.5,1.8-1,2.6c-0.3,0.5-0.7,0.9-1.3,1c-0.6,0.1-1.3-0.2-2-1.1c-0.9-1.2-1.6-2.4-2.1-3.8c-0.7-1.7-1.3-3.5-1.8-5.3
				c-0.5-1.9-1-3.8-1.3-5.5c-0.1-0.7-0.2-1.4-0.4-2.2c-0.1-0.7-0.2-1.3-0.2-1.8c0-0.4-0.4-0.8-0.8-0.9l-0.1,0l-0.1,0
				c-0.1,0-0.3,0-0.4,0.1c-0.2,0.2-0.3,0.4-0.3,0.7c0,1-0.2,2.3-0.3,4c-0.2,1.7-0.4,3.4-0.7,5.2c-0.3,1.8-0.7,3.8-1.2,5.6
				c-0.4,1.8-1,3.5-1.7,5.1c-0.6,1.4-1.3,2.7-2.2,3.9c-0.7,0.9-1.6,1.5-2.6,1.6c-0.4,0.1-0.8,0-1.1-0.3c-0.4-0.4-0.9-0.8-1.1-1.3
				c-0.4-0.7-0.7-1.5-1-2.4c-0.3-1.1-0.6-2.1-0.8-3.1c-0.4-2.2-0.6-4.5-0.6-6.7c-0.1-2.5,0-5,0.2-7.5c0.2-2.4,0.6-4.9,1-7.3
				c0.4-2.1,1.1-4.1,1.8-6c0.2-0.4,0.1-0.9-0.2-1.2c-0.2-0.2-0.4-0.3-0.7-0.2l0,0c-0.2,0-0.5,0.2-0.6,0.4L93.8,16
				c-0.9,2.1-1.6,4.2-2,6.4c-0.5,2.5-0.9,5-1.1,7.5c-0.2,2.6-0.3,5.2-0.2,7.8c0,2.4,0.3,4.8,0.6,7.1c0.2,1.2,0.5,2.4,0.8,3.6
				C92.4,49.5,92.8,50.5,93.3,51.3z"/>
			<path class="st12" d="M175.4,31.2c-0.3-0.2-0.9-0.1-1.2,0.2l0,0c-0.1,0.2-0.2,0.4-0.1,0.6l3.3,20c0,0.1,0,0.1,0,0.2
				c-0.1,0.1-0.1,0.1-0.3,0c-0.5-0.1-1,0-1.5,0.3c-0.1,0-0.1,0.1-0.2,0.1c-0.6,0.5-1.1,1.2-1.5,1.9c-0.5,0.9-0.9,1.9-1.2,2.8
				c-0.3,0.9-0.5,1.9-0.5,2.9c0,0.1,0,0.3,0,0.4c-0.6,1.3-1.4,2.1-2.4,2.3c0.1-1.2,0-2.4-0.2-3.5c-0.3-1.9-1.4-4.9-3.5-4.5
				c-0.9,0.1-1.4,0.9-1.5,2c-0.1,0.5,0,1.1,0.1,1.6l0,0c-0.1,0-0.3,0.1-0.3,0.2c-0.4,0.6-0.7,1.4-0.8,2.1c-0.3,0.2-0.7,0.4-1.1,0.7
				c-0.5,0.3-1,0.5-1.5,0.6c-0.1-0.7-0.2-1.5-0.4-2.1c-0.2-0.8-0.5-1.5-0.9-2.2c-0.3-0.6-0.8-1.1-1.4-1.4c-0.6-0.3-1.4-0.3-1.9,0.1
				c-0.3,0.2-0.6,0.6-0.9,0.9c-0.2,0.4-0.3,0.8-0.4,1.2c-0.1,0.5-0.1,0.8-0.1,1.3c0.1,0.4,0.1,0.7,0.2,1.2c0.1,0.3,0.3,0.7,0.5,1
				c-0.3,0.4-0.6,0.8-1,1.2c-0.3,0.4-0.9,0.5-1.3,0.5c-0.2,0-0.4-0.1-0.5-0.1c0-0.4,0-0.9,0.1-1.4c0-0.3-0.1-0.8-0.1-1.7
				c-0.1-0.9-0.2-1.7-0.4-2.5c-0.2-0.7-0.5-1.5-0.9-2.1c-0.3-0.5-0.9-0.7-1.5-0.4l0,0l-0.1,0.1c-0.3,0.2-0.5,0.5-0.7,0.8
				c-0.2,0.3-0.2,0.7-0.3,1.1c-0.1,0.7-0.1,1.3,0,2c0.2,1.5,0.7,3,1.6,4.2c0.2,0.3,0.5,0.6,0.7,0.8c-0.1,0.5-0.2,1.1-0.3,1.5
				c-0.1,0.5-0.3,1-0.5,1.6c-0.2,0.3-0.3,0.7-0.5,0.9c-0.2,0.3-0.4,0.4-0.8,0.5c-0.4,0.1-0.7,0-0.9-0.2c-0.3-0.3-0.5-0.5-0.7-0.8
				c-0.4-0.6-0.6-1.2-0.7-2c-0.1-0.7-0.3-1.4-0.6-2.1c-0.1-0.3-0.4-0.5-0.7-0.5c-0.3-0.1-0.6,0.1-0.8,0.4c-0.1,0.2-0.3,0.6-0.6,1.2
				c-0.3,0.6-0.6,1.3-1,2c-0.3,0.6-0.7,1.2-1,1.7c-0.4,0.6-0.6,0.5-0.6,0.6c-0.2,0-0.3-0.3-0.3-0.4c0-0.3-0.1-0.5-0.1-0.8
				c0-0.3,0-0.6,0-0.9c0-0.2,0.1-0.5,0.1-0.7c0.1-1.1,0.5-2.2,1.1-3.2c0.1-0.2,0.1-0.5,0.1-0.7c0-0.2-0.1-0.3-0.3-0.5
				c-0.2-0.1-0.3-0.2-0.5-0.1c-0.2,0-0.4,0.1-0.5,0.4c-0.8,1.4-1.3,2.9-1.4,4.5c0,0.2-0.1,0.5-0.1,0.9s0,0.7,0.1,1s0.2,0.7,0.3,1
				c0.1,0.3,0.3,0.6,0.6,0.8c0.4,0.4,1,0.5,1.6,0.2c0.5-0.2,0.9-0.5,1.2-1c0.4-0.5,0.8-1.2,1.2-1.8l0.8-1.5c0.2,0.5,0.2,0.9,0.4,1.3
				c0.2,0.6,0.5,1.2,0.9,1.6c0.4,0.4,0.9,0.7,1.5,1c0.5,0.1,0.9,0.2,1.4,0.1c0.1,0,0.2,0,0.4-0.1c1-0.3,1.8-1.1,2.2-2.2
				c0.4-1,0.7-2,0.8-3c0.2,0,0.3,0.1,0.5,0.1c0.2,0,0.4,0,0.6,0c0.5,0,1.1-0.2,1.5-0.5c0,0.4,0,0.7,0,1.2c0,0.5,0.1,1.1,0.2,1.7
				c0.2,0.5,0.3,1,0.6,1.4c0.4,0.7,1.1,1.1,1.9,1.2c0.2,0,0.4,0,0.7,0c0.6-0.1,1-0.4,1.3-0.9c0.6-0.8,0.9-1.8,1-2.8
				c0.1-0.9,0.1-1.9,0.1-2.8c0.6-0.2,1.2-0.4,1.7-0.7c0.2-0.1,0.5-0.2,0.7-0.4c0.1,1,0.4,2,0.9,2.9c0.7,1.2,1.7,1.8,2.8,1.6
				c1.1-0.2,2-1.2,2.3-2.9c0.1,0,0.3,0,0.4,0l0,0c1.1-0.3,2.1-1,2.6-1.9c0,0.1,0.1,0.1,0.1,0.1c0.5,0.7,1.2,1.1,2,1
				c0.7-0.1,1.3-0.4,1.9-0.8c0.6-0.5,1.1-1.1,1.6-1.7l0.2-0.3c0.1-0.1,0.1-0.1,0.3-0.1c0.1,0,0.2,0.1,0.2,0.2l1.4,7.9
				c0.1,0.4,0.6,0.7,1,0.6c0.4-0.1,0.7-0.5,0.6-0.8l-6.2-36.7C175.8,31.5,175.7,31.3,175.4,31.2z M174,60.4c0-0.8,0.2-1.7,0.5-2.5
				c0.3-0.9,0.7-1.7,1.1-2.4c0.3-0.6,0.7-1.1,1.1-1.5c0.1,0,0.1,0,0.1,0c0.1,0,0.1,0,0.2,0c0.2,0.1,0.4,0.3,0.5,0.5
				c0.2,0.3,0.4,0.8,0.5,1.2c0.1,0.8,0,1.6-0.2,2.4c-0.2,0.8-0.4,1.5-0.7,2.1c-0.3,0.6-0.7,1.1-1.2,1.5c-0.4,0.3-0.9,0.3-1.3,0.1
				C174.1,61.5,173.9,61,174,60.4L174,60.4z M157.9,63.9c0.3,0.1,0.6,0.2,0.9,0.3c0.2,0,0.5,0.1,0.7,0c0,0.9-0.1,1.8-0.3,2.6
				c0,0.2-0.1,0.6-0.2,1c0,0.3-0.2,0.6-0.4,0.8c-0.3,0.3-0.5,0.4-0.6,0.3c-0.2,0-0.4-0.2-0.5-0.4c-0.2-0.3-0.3-0.5-0.4-0.8
				c0-0.2-0.1-0.4-0.2-0.6c-0.1-0.6-0.1-1.2-0.1-1.9c0.1-0.5,0.1-1.1,0.2-1.7C157.5,63.7,157.7,63.8,157.9,63.9L157.9,63.9z
				 M159.5,62.6c-0.3,0-0.6,0-0.9-0.1c-0.4-0.1-0.7-0.3-1-0.6c-0.4-0.5-0.7-1-0.8-1.6c-0.2-0.6-0.1-1.2,0.2-1.7
				c0.2-0.4,0.4-0.5,0.5-0.5l0.1,0c0.2,0,0.4,0.2,0.5,0.4c0.2,0.3,0.4,0.5,0.5,0.9c0.1,0.3,0.2,0.5,0.4,0.8
				C159.1,60.9,159.3,61.7,159.5,62.6L159.5,62.6z M151.2,60.2c0.1,0.4,0.1,0.8,0.1,1.2c0,0.2,0.1,0.4,0,0.6c0-0.1,0-0.1-0.1-0.2
				c-0.3-0.6-0.5-1.2-0.6-1.9c-0.2-0.6-0.1-1.2,0-1.9l0,0c0,0.1,0.1,0.1,0.1,0.2C151,58.8,151.1,59.4,151.2,60.2L151.2,60.2z
				 M166.1,56.8c0.1-0.3,0.2-0.4,0.4-0.4l0,0c0.9-0.1,1.6,2.1,1.9,3.6c0.1,0.9,0.2,1.7,0.2,2.6C167,61.1,165.8,58.1,166.1,56.8
				L166.1,56.8z M167.2,65.9c-0.4,0.1-0.8-0.2-1.2-0.7c-0.8-1.1-1.2-3.5-0.8-5c0.7,1.9,1.8,3.4,3.1,3.9
				C168.2,64.9,167.9,65.8,167.2,65.9L167.2,65.9z"/>
			
				<rect x="62.9" y="2.5" transform="matrix(0.9853 -0.1708 0.1708 0.9853 -6.745 22.8046)" class="st13" width="132.6" height="96.3"/>
		</g>
		<g id="carnaval" transform="translate(315.171710, 278.643164) rotate(-10.000000) translate(-315.171710, -278.643164) ">
			<g>
				<g class="st0">
					<text transform="matrix(1 0 0 1 206.5986 233.5874)" class="st14 st15 st16">carnaval</text>
				</g>
			</g>
			<g>
				<g class="st0">
					<text transform="matrix(1 0 0 1 206.5986 233.5874)" class="st14 st15 st16">carnaval</text>
				</g>
			</g>
		</g>
		<g id="carnaval_1_" transform="translate(315.171710, 278.643164) rotate(-10.000000) translate(-315.171710, -278.643164) ">
			<g>
				<g class="st0">
					<text transform="matrix(1 0 0 1 203.2184 240.5325)" class="st17 st15 st16">carnaval</text>
				</g>
			</g>
			<g>
				<g class="st0">
					<text transform="matrix(1 0 0 1 205.5481 240.9432)" class="st11 st18 st16">carnaval</text>
				</g>
			</g>
		</g>
		<g id="Halloween" transform="translate(201.171710, 223.643164) rotate(-10.000000) translate(-201.171710, -223.643164) ">
			<g>
				<g class="st0">
					<text transform="matrix(1 0 0 1 82.8261 183.1497)" class="st14 st19 st20">Halloween</text>
				</g>
			</g>
		</g>
		<g>
			<g id="Halloween_1_" transform="translate(201.171710, 223.643164) rotate(-10.000000) translate(-201.171710, -223.643164) ">
				<g>
					<g class="st0">
						<text transform="matrix(1 0 0 1 84.9961 186.5342)" class="st17 st21 st20">Halloween</text>
					</g>
				</g>
			</g>
			<g>
				<path id="Fill-4_1_" class="st22" d="M-31.7,599.3c-12.8-10.2-16.4-31.7-8-48l69.2-134.8c8.3-16.3,25.5-21.1,38.2-10.9
					s16.4,31.7,8,48L6.5,588.4C-1.8,604.7-19,609.5-31.7,599.3"/>
				<path id="Fill-5_2_" class="st17" d="M195.3,308.5c-1.8-5.7,1.1-11.7,6.4-14l-10.7,3.3c-6.1,1.9-12.6-1.6-14.5-7.6
					c-1.8-5.8,1.2-12,6.8-14.2c-5.8,1.4-11.8-2-13.6-7.9c-1.9-6.1,1.6-12.6,7.6-14.5l10.7-3.3c-5.7,1.1-11.4-2.3-13.1-7.9
					c-0.9-3-0.6-6,0.7-8.6c-3.2-2.3-6.5-4.4-10-6.3c-37.5-19.8-94.8-11-114.6,26.5l41.3,240.1l19,1.5l86.4-163.9
					c2.6-5,4.6-10,6-15.3C199.8,315.4,196.6,312.6,195.3,308.5"/>
				<path id="Fill-6_1_" class="st1" d="M51.5,253.5L93.3,493l18.2,1.5L197.7,331c2.4-4.6,4.4-9.4,5.8-14.5
					c-3.9-1.2-7.1-4.2-8.3-8.1c-1.4-4.5-0.1-9.2,3.1-12.4l-6.7,2c-6.5,2-13.4-1.6-15.4-8.1c-1.6-5,0.3-10.5,4.5-13.5
					c-5.1-0.2-9.8-3.6-11.4-8.6c-1-3.1-0.7-6.5,0.8-9.3c1.5-2.9,4.1-5,7.2-5.9l6.7-2c-4.5-0.8-8.2-4-9.7-8.5
					c-0.9-2.8-0.7-5.8,0.5-8.4c-3-2.3-6.3-4.2-9.6-6C129.2,208.5,71.6,215.7,51.5,253.5z M92.5,494.1c-0.2-0.1-0.3-0.3-0.3-0.4
					L50.2,253.5c0-0.1,0-0.2,0.1-0.4c20.3-38.6,79-46,115.8-26.6c3.5,1.9,6.9,4,10.2,6.4c0.3,0.1,0.3,0.5,0.2,0.8
					c-1.2,2.5-1.5,5.4-0.6,8c1.6,5.3,7,8.6,12.5,7.6c0.4,0,0.6,0.1,0.7,0.5c0.1,0.3-0.1,0.6-0.4,0.8l-10.7,3.3
					c-2.8,0.9-5.1,2.8-6.5,5.4c-1.4,2.6-1.7,5.6-0.8,8.4c1.7,5.4,7.4,8.7,12.9,7.5c0.3-0.1,0.6,0.1,0.8,0.4c0.1,0.3-0.1,0.6-0.4,0.7
					c-5.3,2.1-8.1,8.1-6.4,13.5c1.8,5.8,8,9.1,13.8,7.3l10.7-3.3c0.3-0.1,0.6,0.1,0.8,0.4c0.1,0.3,0,0.7-0.3,0.8
					c-5.1,2.3-7.6,8-6,13.2c1.1,3.6,4.2,6.5,8,7.4c0.2,0.1,0.3,0.1,0.4,0.3c0,0.1,0.1,0.3,0.1,0.5c-1.5,5.3-3.5,10.5-6.1,15.3
					l-86.4,163.8c-0.1,0.3-0.3,0.4-0.6,0.3l-19.1-1.6C92.7,494.2,92.6,494.1,92.5,494.1z"/>
				<path id="Fill-7_1_" class="st3" d="M196,308.7c-1.6-5.7,1.1-11.7,6.3-14l-10.6,3.2c-0.4,0.1-0.9,0.2-1.4,0.3
					c-5.7,1-11.4-2.4-13.2-8c-1.8-5.8,1.2-11.9,6.8-14.2c-0.1,0-0.2,0-0.4,0c-5.7,1-11.5-2.4-13.3-7.9c-1.8-5.7,1.1-11.7,6.3-14
					c0.5-0.2,0.9-0.3,1.3-0.6l10.6-3.2l0,0c-5.7,1-10.8-2.6-13.2-8c-1.7-4,0.6-8.5,0.6-8.5l-27.1,4.4c-6.1,1.9-9.5,8.3-7.6,14.4
					c1.8,5.7,7.5,9.1,13.2,8l-10.6,3.2c-6.1,1.9-9.5,8.3-7.6,14.4c1.8,5.8,7.8,9.2,13.7,7.9c-5.5,2.2-8.6,8.4-6.8,14.2
					c1.9,6.1,8.4,9.5,14.6,7.7l10.6-3.2c-5.3,2.3-8.1,8.3-6.3,14c1.9,6.1,8.5,9.6,14.6,7.7l27.9-10.2
					C204.4,316.5,197.9,314.8,196,308.7"/>
				<path id="Fill-8_1_" class="st11" d="M158.8,314.6c-1.8-5.7,1.1-11.7,6.3-14l-10.7,3.3c-6.1,1.9-12.6-1.6-14.5-7.6
					c-1.8-5.8,1.2-12,6.8-14.2c-5.8,1.4-11.8-2-13.6-7.9c-1.9-6.1,1.6-12.6,7.6-14.5l10.7-3.3c-5.6,1-11.4-2.4-13.1-7.9
					c-1.9-6.1,1.6-12.6,7.6-14.5l12.6-2.1c-4-3.4-9.9-7.7-14.7-10.2c-37.4-19.7-84.2-5.3-104,32.2l-86.3,163.6l136.2,71.8
					l86.3-163.6c0.8-1.6,1.6-3.3,2.4-5l-5.1,1.6C167.2,324.1,160.7,320.7,158.8,314.6z"/>
				<path id="Fill-9_1_" class="st1" d="M159,234.1L159,234.1c-2.1-1.6-4.3-3-6.4-4.4c-0.4-0.2-0.4-0.5-0.3-0.8s0.6-0.3,0.9-0.1
					c2.2,1.4,4.4,2.9,6.4,4.4c0.3,0.3,0.4,0.5,0.2,0.8C159.7,234.2,159.3,234.2,159,234.1"/>
				<path id="Fill-10_2_" class="st1" d="M119.6,316.5c-4.7-2.5-14.6,6.7-21.6,19.9c-7,13.3-8.9,26.6-4.3,29.1
					c4.7,2.5,14.6-6.7,21.6-19.9C122.4,332.3,124.3,319,119.6,316.5z M93.2,366.7c-5.5-2.9-3.8-16.4,3.8-30.8
					c7.6-14.4,17.8-23.4,23.3-20.5s3.8,16.4-3.8,30.8C108.8,360.6,98.7,369.6,93.2,366.7z"/>
				<path id="Fill-11_2_" class="st1" d="M86,298.8c-4.7-2.5-14.6,6.7-21.6,19.9s-8.9,26.6-4.3,29.1c4.7,2.5,14.6-6.7,21.6-19.9
					C88.8,314.6,90.7,301.3,86,298.8z M59.6,349c-5.5-2.9-3.8-16.4,3.8-30.8c7.6-14.4,17.8-23.4,23.3-20.5
					c5.5,2.9,3.8,16.4-3.8,30.8C75.2,342.9,65.1,351.9,59.6,349z"/>
				<path id="Fill-12_2_" class="st14" d="M92.1,365c-5.9-3.1-4.7-17,2.6-30.9c7.3-13.9,18.1-22.7,24-19.6l1.7,0.9l-26.6,50.4
					L92.1,365"/>
				<path id="Fill-13_1_" class="st14" d="M58.4,347.2c-5.9-3.1-4.7-17,2.6-30.9s18.1-22.7,24-19.6l1.7,0.9l-26.6,50.4L58.4,347.2"
					/>
				<path id="Fill-14_1_" class="st1" d="M102.8,322c-0.1,0-0.1,0-0.2-0.1c-0.3-0.3-0.3-0.6-0.1-0.9c0.5-0.5,1-1,1.5-1.4
					c0.2-0.2,0.7-0.2,1,0.1c0.3,0.3,0.3,0.6,0,0.8c-0.5,0.4-0.9,0.9-1.4,1.3C103.4,322.2,103.1,322.2,102.8,322"/>
				<path id="Fill-15_2_" class="st1" d="M99.4,325.9C99.3,325.9,99.3,325.9,99.4,325.9c-0.2-0.2-0.3-0.5-0.1-0.7
					c0.1-0.3,0.4-0.5,0.5-0.7c0.1-0.3,0.5-0.3,0.6-0.1c0.1,0.2,0.2,0.5,0,0.7c-0.1,0.3-0.4,0.5-0.5,0.7
					C99.9,325.9,99.6,326,99.4,325.9"/>
				<path id="Fill-16_2_" class="st1" d="M89.5,346.7c-0.3-0.1-0.4-0.5-0.3-0.7c0.3-1.2,0.7-2.4,1.2-3.7c0.1-0.3,0.5-0.4,0.8-0.4
					c0.3,0.1,0.5,0.5,0.4,0.8c-0.4,1.2-0.9,2.5-1.2,3.7C90.3,346.6,90,346.8,89.5,346.7C89.6,346.7,89.5,346.7,89.5,346.7"/>
				<path id="Fill-17_2_" class="st1" d="M93.5,366.9l-1.7-0.9c-3.8-2-5.1-7.7-3.6-15.7c0.1-0.3,0.4-0.6,0.7-0.5
					c0.3,0.1,0.6,0.4,0.5,0.7c-1.4,7.3-0.2,12.7,3,14.3l1.1,0.6l25.9-49.1l-1.1-0.6c-2.6-1.4-6.3-0.3-10.5,3
					c-0.2,0.2-0.7,0.2-0.8-0.1c-0.2-0.2-0.2-0.7,0.1-0.8c4.6-3.7,8.8-4.7,11.9-3.1l1.7,0.9c0.3,0.1,0.4,0.5,0.3,0.8l-26.4,50.2
					C94.2,367,93.9,367.1,93.5,366.9"/>
				<path id="Fill-18_2_" class="st1" d="M69.6,305.7c-0.1,0-0.1,0-0.2-0.1c-0.2-0.2-0.3-0.6,0-0.9c0.6-0.7,1.3-1.4,2-2
					c0.2-0.2,0.7-0.2,0.9,0c0.2,0.2,0.2,0.7,0,0.9c-0.7,0.7-1.3,1.4-2,2C70.2,305.7,69.8,305.8,69.6,305.7"/>
				<path id="Fill-19_2_" class="st1" d="M67.2,307.8C67.1,307.7,67.1,307.7,67.2,307.8c-0.2-0.2-0.3-0.6,0-0.8l0.5-0.7
					c0.1-0.3,0.5-0.4,0.7-0.2c0.1,0.2,0.2,0.5-0.1,0.8l-0.4,0.6C67.6,307.8,67.4,307.9,67.2,307.8"/>
				<path id="Fill-20_2_" class="st1" d="M57,325c-0.2-0.1-0.3-0.4-0.1-0.7l0.2-0.7c0.2-0.4,0.4-0.6,0.7-0.4
					c0.2,0.1,0.3,0.4,0.2,0.8l-0.2,0.7C57.6,324.9,57.2,325.1,57,325C57.1,325,57.1,325,57,325"/>
				<path id="Fill-21_1_" class="st1" d="M55.8,331.2c-0.3-0.1-0.3-0.4-0.3-0.7c0.3-1.2,0.6-2.5,1.1-3.7c0.1-0.3,0.5-0.5,0.8-0.4
					c0.3,0.1,0.4,0.5,0.4,0.8c-0.4,1.2-0.7,2.4-1,3.6c-0.1,0.3-0.4,0.6-0.7,0.5C55.9,331.2,55.9,331.2,55.8,331.2"/>
				<path id="Fill-22_1_" class="st1" d="M59.9,349.2l-1.7-0.9c-3.6-1.9-5.1-7.2-4.1-14.5c0.1-0.3,0.4-0.6,0.7-0.5
					c0.3,0.1,0.6,0.4,0.5,0.7c-1,6.7,0.4,11.5,3.5,13.1l1.1,0.6l25.9-49.1l-1.1-0.6c-2.4-1.3-5.8-0.6-9.6,2.1
					c-0.3,0.2-0.6,0.1-0.9-0.2c-0.2-0.3-0.1-0.6,0.1-0.8c4.2-2.9,8.1-3.6,11-2.1l1.7,0.9c0.4,0.2,0.4,0.5,0.3,0.8l-26.4,50.2
					C60.6,349.3,60.3,349.3,59.9,349.2"/>
				<path id="Fill-23_1_" class="st1" d="M119.6,316.5c-4.7-2.5-14.6,6.7-21.6,19.9c-7,13.3-8.9,26.6-4.3,29.1
					c4.7,2.5,14.6-6.7,21.6-19.9C122.4,332.3,124.3,319,119.6,316.5z M93.2,366.7c-5.5-2.9-3.8-16.4,3.8-30.8
					c7.6-14.4,17.8-23.4,23.3-20.5s3.8,16.4-3.8,30.8C108.8,360.6,98.7,369.6,93.2,366.7z"/>
				<path id="Fill-24_2_" class="st1" d="M86,298.8c-4.7-2.5-14.6,6.7-21.6,19.9s-8.9,26.6-4.3,29.1c4.7,2.5,14.6-6.7,21.6-19.9
					C88.8,314.6,90.7,301.3,86,298.8z M59.6,349c-5.5-2.9-3.8-16.4,3.8-30.8c7.6-14.4,17.8-23.4,23.3-20.5
					c5.5,2.9,3.8,16.4-3.8,30.8C75.2,342.9,65.1,351.9,59.6,349z"/>
				<path id="Fill-25_1_" class="st1" d="M116.7,345.7c-7.3,13.9-17.5,23-22.6,20.3c-5.1-2.7-3.3-16.2,4-30.1
					c7.3-13.9,17.5-23,22.6-20.3C125.8,318.3,124,331.8,116.7,345.7"/>
				<path id="Fill-26_1_" class="st1" d="M83.1,328c-7.3,13.9-17.5,23-22.6,20.3s-3.4-16.1,4-30.1c7.4-14,17.5-23,22.6-20.3
					C92.2,300.6,90.4,314.1,83.1,328"/>
				<path id="Fill-27_1_" class="st1" d="M93,494.4l-136.8-72.2c-0.3-0.1-0.4-0.5-0.3-0.8l86.2-163.5c20-37.9,67.1-52.2,105.1-32.2
					c0.3,0.1,0.4,0.5,0.3,0.8s-0.5,0.4-0.8,0.3c-37.4-19.7-83.8-5.5-103.4,31.7l-85.9,162.9l135.8,71.6l19.3-36.5
					c0.1-0.3,0.5-0.4,0.8-0.3s0.4,0.5,0.3,0.8l-19.5,37.1C93.6,494.5,93.4,494.5,93,494.4"/>
				<path id="Fill-28_2_" class="st1" d="M198.4,295.6l-6.8,2.1c-0.4,0.1-0.9,0.2-1.4,0.4l-20.5,6.3c-2.8,0.9-5.1,2.8-6.4,5.3
					c-1.4,2.6-1.7,5.6-0.8,8.3c0.9,2.8,2.8,5.1,5.4,6.5c2.7,1.4,5.6,1.7,8.4,0.8l26.2-9.6c-2.2-0.9-5.9-3.1-7.3-7.7
					C193.9,303.3,195.2,298.6,198.4,295.6z M167.3,325.5c-2.7-1.4-5-4-6-7.2c-1-3.1-0.7-6.5,0.8-9.3c1.5-2.9,4.1-5,7.2-5.9l20.6-6.3
					c0.6-0.1,1-0.2,1.4-0.3l10.7-3.3c0.3-0.1,0.6,0.1,0.8,0.4c0.1,0.3,0,0.7-0.3,0.8c-4.9,2.3-7.6,7.9-6,13.2c1.7,5.8,7.9,7.5,8,7.4
					c0.3,0.1,0.4,0.3,0.5,0.6c0,0.2-0.1,0.5-0.4,0.6l-27.9,10.2C173.4,327.4,170,326.9,167.3,325.5z"/>
				<path id="Fill-29_2_" class="st1" d="M179.4,277.8l-28.7,8.7c-5.8,1.7-9,7.8-7.2,13.6c1.8,5.7,7.9,8.9,13.7,7.2l28.7-8.7
					c-4.5-0.8-8.4-3.8-9.8-8.4C174.7,285.7,176.1,280.9,179.4,277.8z M148.4,307.6c-2.7-1.4-5-4-6-7.1c-2.1-6.4,1.5-13.2,8-15.1
					l33-10c0.3-0.1,0.6,0.1,0.7,0.4s-0.1,0.6-0.4,0.7c-5.3,2.1-8,7.9-6.3,13.3c1.8,5.7,7.9,8.9,13.7,7.2l10.6-3.2
					c0.3-0.1,0.6,0.1,0.8,0.4c0,0.1,0,0.4,0,0.4c-0.1,0.2-0.2,0.2-0.4,0.3l-44.4,13.4C154.4,309.6,151.2,309.1,148.4,307.6z"/>
				<path id="Fill-30_2_" class="st1" d="M177.2,253.9c-0.2-0.1-0.2-0.2-0.3-0.4c-0.1-0.3,0.1-0.6,0.4-0.8l10.5-3.3
					c0.1,0,0.4,0,0.4,0c0.2,0.1,0.2,0.2,0.3,0.4c0.1,0.3-0.1,0.6-0.4,0.7l0,0l-10.5,3.3C177.5,254,177.3,253.9,177.2,253.9"/>
				<path id="Fill-31_2_" class="st1" d="M172.6,255.8l-28.6,8.9c-2.7,0.9-5.1,2.8-6.4,5.3c-1.4,2.6-1.7,5.6-0.8,8.3
					c0.8,2.8,2.8,5.1,5.3,6.4c2.6,1.4,5.5,1.6,8.3,0.8l28.6-8.9c-4.5-0.7-8.4-3.8-9.7-8.4c-1-3.1-0.6-6.4,0.9-9.2
					C170.8,257.8,171.6,256.8,172.6,255.8z M141.5,285.9c-2.8-1.5-5-4.1-5.9-7.2c-1-3.1-0.6-6.4,0.9-9.2c1.5-2.8,4.1-5,7.1-6
					l33.6-10.5c0.3-0.1,0.6,0.1,0.8,0.4c0,0.1,0,0.4,0,0.4c-0.1,0.2-0.2,0.2-0.4,0.3c-2.7,0.9-5.1,2.8-6.4,5.3
					c-1.4,2.6-1.7,5.6-0.8,8.3c1.7,5.4,7.2,8.7,12.7,7.4c0.3-0.1,0.6,0.1,0.7,0.4c0.1,0.3-0.1,0.6-0.4,0.7l-0.3,0.2l-32.4,10.5
					C147.7,287.8,144.5,287.5,141.5,285.9z"/>
				<path id="Fill-32_2_" class="st1" d="M174.6,234.3l-25.9,4.5c-2.7,0.8-5,2.8-6.4,5.5c-1.4,2.7-1.7,5.6-0.8,8.4
					c0.9,2.8,2.8,5.1,5.3,6.4c2.6,1.4,5.6,1.7,8.3,0.8l20.6-6.5c0.5-0.2,0.9-0.3,1.3-0.6l6.8-2.2c-4.1-0.8-7.7-3.8-9.6-8.3
					C173,239.2,173.9,235.9,174.6,234.3z M146.2,260.1c-2.9-1.5-5-4.1-5.9-7.2c-1-3.1-0.7-6.5,0.9-9.4s4.1-5.1,7.2-6l27-4.7
					c0.2,0,0.4,0,0.7,0.2c0.1,0.2,0.1,0.4,0,0.7c0,0-2.2,4.5-0.7,8c2.4,5.6,7.4,8.5,12.4,7.6c0.4,0,0.6,0.1,0.7,0.5
					c0,0.4-0.1,0.6-0.4,0.8l-10.7,3.4c-0.4,0.1-0.8,0.3-1.3,0.5l-20.7,6.6C152.4,262.1,149.1,261.7,146.2,260.1z"/>
				<path id="Fill-33_2_" class="st1" d="M65.1,381.3c8.6,4.5,15.8,10.7,20.1,17c3.3,5,4.3,9.6,2.8,12.5s-5.9,4.7-11.9,4.8
					c-7.5,0.1-16.8-2.4-25.4-6.9s-15.8-10.7-20.1-17c-3.3-5-4.3-9.6-2.8-12.5c1.5-2.9,5.9-4.7,11.9-4.8
					C47.4,374.3,56.6,376.8,65.1,381.3"/>
				<path id="Fill-34_2_" class="st14" d="M64.4,394.5c-2.2-1.2-3-4-1.8-6.2l2.7-5.1c1.2-2.2,3.9-3.1,6.1-2c2.2,1.2,3,4,1.8,6.2
					l-2.7,5.1C69.3,394.8,66.6,395.6,64.4,394.5"/>
				<path id="Fill-35_2_" class="st14" d="M53.8,388.9c-2.2-1.2-3-4-1.8-6.2l2.7-5.1c1.2-2.2,3.9-3.1,6.1-2c2.2,1.2,3,4,1.8,6.2
					l-2.7,5.1C58.7,389.2,56,390,53.8,388.9"/>
				<path id="Fill-36_2_" class="st14" d="M43.2,383.3c-2.2-1.2-3-4-1.8-6.2L44,372c1.2-2.2,3.9-3.1,6.1-2c2.2,1.2,3,4,1.8,6.2
					l-2.7,5.1C48.1,383.6,45.4,384.4,43.2,383.3"/>
				<path id="Fill-37_2_" class="st5" d="M33,376.8c-2.2-1.2-3-3.9-1.8-6.2l0.9-1.7c1.2-2.2,3.9-3.1,6.1-2c2.2,1.2,3,3.9,1.8,6.2
					l-0.9,1.8C37.9,377.1,35.2,378,33,376.8"/>
				<path id="Fill-38_2_" class="st14" d="M75,400.1c-2.2-1.2-3-4-1.8-6.2l2.7-5.1c1.2-2.2,3.9-3.1,6.1-2c2.2,1.2,3,4,1.8,6.2
					l-2.7,5.1C79.9,400.4,77.2,401.2,75,400.1"/>
				<path id="Fill-39_1_" class="st5" d="M86.1,404.8c-2.2-1.2-3-3.9-1.8-6.2l0.9-1.7c1.2-2.2,3.9-3.1,6.1-2c2.2,1.2,3,3.9,1.8,6.2
					l-0.9,1.8C91,405.1,88.3,406,86.1,404.8"/>
				<path id="Fill-40_1_" class="st1" d="M155.7,373.6c-0.2-0.1-0.2-0.5-0.1-0.7l2.7-5.1c0.1-0.3,0.5-0.4,0.6-0.3
					c0.2,0.1,0.2,0.5,0.1,0.7l-2.7,5.1C156.1,373.6,155.8,373.7,155.7,373.6"/>
				<path id="Fill-41_2_" class="st1" d="M151,382.5c-0.2-0.1-0.2-0.5-0.1-0.7l2.2-4.2c0.2-0.4,0.5-0.4,0.6-0.3
					c0.2,0.1,0.2,0.5,0.1,0.7l-2.2,4.2C151.5,382.4,151.2,382.6,151,382.5"/>
				<path id="Fill-42_2_" class="st1" d="M139.3,404.6c-0.2-0.1-0.2-0.5-0.1-0.7l7.8-14.9c0.1-0.3,0.5-0.4,0.6-0.3
					c0.2,0.1,0.2,0.5,0.1,0.7l-7.8,14.9C139.8,404.6,139.5,404.7,139.3,404.6"/>
				<path id="Fill-43_2_" class="st1" d="M132.3,417.9c-0.2-0.1-0.2-0.5-0.1-0.7l4.1-7.8c0.1-0.3,0.5-0.4,0.6-0.3
					c0.2,0.1,0.2,0.5,0.1,0.7l-4.1,7.8C132.8,417.9,132.5,418,132.3,417.9"/>
				<path id="Fill-44_2_" class="st1" d="M119.7,441.7c-0.2-0.1-0.2-0.5-0.1-0.7l5.9-11.2c0.1-0.3,0.5-0.4,0.6-0.3s0.2,0.5,0.1,0.7
					l-5.9,11.2C120.2,441.8,119.9,441.8,119.7,441.7"/>
				<path id="Fill-45_4_" class="st14" d="M54.6,413.1c-2.2-1.2-3-4-1.8-6.2l2.7-5.1c1.2-2.2,3.9-3.1,6.1-2c2.2,1.2,3,4,1.8,6.2
					l-2.7,5.1C59.5,413.4,56.8,414.2,54.6,413.1"/>
				<path id="Fill-46_2_" class="st14" d="M44,407.5c-2.2-1.2-3-4-1.8-6.2l2.7-5.1c1.2-2.2,3.9-3.1,6.1-2c2.2,1.2,3,4,1.8,6.2
					l-2.7,5.1C48.9,407.8,46.2,408.6,44,407.5"/>
				<path id="Fill-47_2_" class="st14" d="M33.4,401.9c-2.2-1.2-3-4-1.8-6.2l2.7-5.1c1.2-2.2,3.9-3.1,6.1-2s3,4,1.8,6.2l-2.7,5.1
					C38.3,402.2,35.6,403,33.4,401.9"/>
				<path id="Fill-48_2_" class="st14" d="M24.2,393.6c-2.2-1.2-3-3.9-1.9-6.1l1.4-2.7c1.1-2.1,3.9-3,6.1-1.9c2.2,1.2,3,3.9,1.9,6.1
					l-1.4,2.7C29.1,393.9,26.4,394.8,24.2,393.6"/>
				<path id="Fill-49_4_" class="st14" d="M65.2,418.7c-2.2-1.2-3-4-1.8-6.2l2.7-5.1c1.2-2.2,3.9-3.1,6.1-2c2.2,1.2,3,4,1.8,6.2
					l-2.7,5.1C70.1,419,67.4,419.8,65.2,418.7"/>
				<path id="Fill-50_4_" class="st14" d="M75.8,424.2c-2.2-1.2-3-4-1.8-6.2l2.7-5.1c1.2-2.2,3.9-3.1,6.1-2c2.2,1.2,3,4,1.8,6.2
					l-2.7,5.1C80.8,424.6,78,425.4,75.8,424.2"/>
				<path id="Fill-51_2_" class="st6" d="M71.3,381.2c-0.4-0.2-0.8-0.3-1.2-0.4c1.4,1.4,1.9,3.6,1,5.5l-2.7,5.1
					c-1,1.9-3,2.7-5.1,2.3c0.3,0.3,0.7,0.6,1.1,0.8c2.3,1.2,5.1,0.3,6.3-1.9l2.7-5.1C74.4,385.2,73.5,382.3,71.3,381.2"/>
				<path id="Fill-52_2_" class="st6" d="M60.7,375.6c-0.4-0.2-0.8-0.3-1.2-0.4c1.4,1.4,1.9,3.6,1,5.5l-2.7,5.1
					c-1,1.9-3,2.7-5.1,2.3c0.3,0.3,0.7,0.6,1.1,0.8c2.3,1.2,5.1,0.3,6.3-1.9l2.7-5.1C63.8,379.6,62.9,376.7,60.7,375.6"/>
				<path id="Fill-53_2_" class="st6" d="M50.1,370c-0.4-0.2-0.8-0.3-1.2-0.4c1.4,1.4,1.9,3.6,1,5.5l-2.7,5.1c-1,1.9-3,2.7-5.1,2.3
					c0.3,0.3,0.7,0.6,1.1,0.8c2.3,1.2,5.1,0.3,6.3-1.9l2.7-5.1C53.2,374,52.3,371.1,50.1,370"/>
				<path id="Fill-54_2_" class="st6" d="M38.1,367c-0.4-0.2-0.8-0.3-1.2-0.4c1.4,1.4,1.9,3.6,1,5.4l-0.9,1.8c-1,1.9-3,2.7-5,2.2
					c0.3,0.3,0.7,0.6,1.1,0.8c2.3,1.2,5.1,0.4,6.3-1.9l0.9-1.7C41.2,371,40.3,368.2,38.1,367"/>
				<path id="Fill-55_2_" class="st6" d="M81.9,386.8c-0.4-0.2-0.8-0.3-1.2-0.4c1.4,1.4,1.9,3.6,1,5.5l-2.7,5.1
					c-1,1.9-3,2.7-5.1,2.3c0.3,0.3,0.7,0.6,1.1,0.8c2.3,1.2,5.1,0.3,6.3-1.9l2.7-5.1C85,390.8,84.1,387.9,81.9,386.8"/>
				<path id="Fill-56_2_" class="st6" d="M91.1,395c-0.4-0.2-0.8-0.3-1.2-0.4c1.4,1.4,1.9,3.6,1,5.4l-0.9,1.8c-1,1.9-3,2.7-5,2.2
					c0.3,0.3,0.7,0.6,1.1,0.8c2.3,1.2,5.1,0.4,6.3-1.9l0.9-1.7C94.2,399,93.4,396.2,91.1,395"/>
				<path id="Fill-57_4_" class="st6" d="M61.5,399.7c-0.4-0.2-0.8-0.3-1.2-0.4c1.4,1.4,1.9,3.6,1,5.5l-2.7,5.1
					c-1,1.9-3,2.7-5.1,2.3c0.3,0.3,0.7,0.6,1.1,0.8c2.3,1.2,5.1,0.3,6.3-1.9l2.7-5.1C64.6,403.7,63.7,400.9,61.5,399.7"/>
				<path id="Fill-58_2_" class="st6" d="M50.9,394.1c-0.4-0.2-0.8-0.3-1.2-0.4c1.4,1.4,1.9,3.6,1,5.5l-2.7,5.1
					c-1,1.9-3,2.7-5.1,2.3c0.3,0.3,0.7,0.6,1.1,0.8c2.3,1.2,5.1,0.3,6.3-1.9l2.7-5.1C54,398.1,53.1,395.3,50.9,394.1"/>
				<path id="Fill-59_2_" class="st6" d="M40.3,388.5c-0.4-0.2-0.8-0.3-1.2-0.4c1.4,1.4,1.9,3.6,1,5.5l-2.7,5.1
					c-1,1.9-3,2.7-5.1,2.3c0.3,0.3,0.7,0.6,1.1,0.8c2.3,1.2,5.1,0.3,6.3-1.9l2.7-5.1C43.4,392.5,42.5,389.7,40.3,388.5"/>
				<path id="Fill-60_2_" class="st6" d="M29.7,382.9c-0.4-0.2-0.8-0.3-1.2-0.4c1.4,1.3,2,3.5,1,5.4l-1.4,2.7c-0.9,1.8-3,2.6-5,2.2
					c0.3,0.3,0.7,0.6,1.1,0.8c2.3,1.2,5.1,0.4,6.3-1.8l1.4-2.7C32.8,386.9,31.9,384.1,29.7,382.9"/>
				<path id="Fill-61_4_" class="st6" d="M72.1,405.3c-0.4-0.2-0.8-0.3-1.2-0.4c1.4,1.4,1.9,3.6,1,5.5l-2.7,5.1
					c-1,1.9-3,2.7-5.1,2.3c0.3,0.3,0.7,0.6,1.1,0.8c2.3,1.2,5.1,0.3,6.3-1.9l2.7-5.1C75.2,409.3,74.3,406.5,72.1,405.3"/>
				<path id="Fill-62_4_" class="st6" d="M82.7,410.9c-0.4-0.2-0.8-0.3-1.2-0.4c1.4,1.4,1.9,3.6,1,5.5l-2.7,5.1
					c-1,1.9-3,2.7-5.1,2.3c0.3,0.3,0.7,0.6,1.1,0.8c2.3,1.2,5.1,0.3,6.3-1.9l2.7-5.1C85.8,414.9,85,412.1,82.7,410.9"/>
				<path id="Fill-63_2_" class="st1" d="M70.8,381.2c-1.9-1-4.2-0.3-5.2,1.7l-2.7,5c-1,1.9-0.3,4.2,1.5,5.2c1.9,1,4.2,0.3,5.2-1.7
					l2.7-5C73.4,384.5,72.7,382.2,70.8,381.2z M64,394.2c-2.5-1.3-3.3-4.4-2-6.9l2.7-5c1.3-2.5,4.4-3.6,6.8-2.3
					c2.5,1.3,3.3,4.4,2,6.9l-2.7,5C69.5,394.5,66.4,395.6,64,394.2z"/>
				<path id="Fill-64_2_" class="st14" d="M60.2,375.6c-1.9-1-4.2-0.3-5.2,1.7l-2.7,5c-1,1.9-0.3,4.2,1.5,5.2c1.9,1,4.2,0.3,5.2-1.7
					l2.7-5C62.8,378.9,62.1,376.6,60.2,375.6z M53.3,388.6c-2.5-1.3-3.3-4.4-2-6.9l2.7-5c1.3-2.5,4.4-3.6,6.8-2.3s3.3,4.4,2,6.9
					l-2.7,5C58.8,388.9,55.8,390,53.3,388.6z"/>
				<path id="Fill-65_2_" class="st1" d="M49.6,370c-1.9-1-4.2-0.3-5.2,1.7l-2.7,5c-1,1.9-0.3,4.2,1.5,5.2c1.9,1,4.2,0.3,5.2-1.7
					l2.7-5C52.2,373.3,51.4,371,49.6,370z M42.7,383c-2.5-1.3-3.3-4.4-2-6.9l2.7-5c1.3-2.5,4.4-3.6,6.8-2.3c2.5,1.3,3.3,4.4,2,6.9
					l-2.7,5C48.2,383.3,45.2,384.4,42.7,383z"/>
				<path id="Fill-66_4_" class="st1" d="M38,368.5c-1.9-1-4.2-0.3-5.1,1.6l-0.8,1.6c-1,1.9-0.3,4.2,1.6,5.1c1.9,1,4.2,0.3,5.1-1.6
					l0.8-1.6C40.6,371.7,39.9,369.4,38,368.5z M33,377.9c-2.5-1.3-3.3-4.4-2-6.8l0.8-1.6c1.3-2.5,4.3-3.5,6.8-2.2
					c2.5,1.3,3.3,4.4,2,6.8l-0.8,1.6C38.5,378.3,35.5,379.2,33,377.9z"/>
				<path id="Fill-67_2_" class="st1" d="M81.4,386.8c-1.9-1-4.2-0.3-5.2,1.7l-2.7,5c-1,1.9-0.3,4.2,1.5,5.2s4.2,0.3,5.2-1.7l2.7-5
					C84,390.1,83.3,387.8,81.4,386.8z M74.6,399.8c-2.5-1.3-3.3-4.4-2-6.9l2.7-5c1.3-2.5,4.4-3.6,6.8-2.3c2.5,1.3,3.3,4.4,2,6.9
					l-2.7,5C80.1,400.1,77.1,401.1,74.6,399.8z"/>
				<path id="Fill-68_4_" class="st1" d="M90.2,396c-1.9-1-4.2-0.3-5.1,1.6l-0.8,1.6c-1,1.9-0.3,4.2,1.6,5.1c1.9,1,4.2,0.3,5.1-1.6
					l0.8-1.6C92.8,399.3,92,397,90.2,396z M85.2,405.4c-2.5-1.3-3.3-4.4-2-6.8L84,397c1.3-2.5,4.3-3.5,6.8-2.2
					c2.5,1.3,3.3,4.4,2,6.8l-0.8,1.6C90.6,405.8,87.7,406.7,85.2,405.4z"/>
				<path id="Fill-69_2_" class="st1" d="M60.6,400.7c-1.9-1-4.2-0.3-5.2,1.7l-2.7,5c-1,1.9-0.3,4.2,1.5,5.2c1.9,1,4.2,0.3,5.2-1.7
					l2.7-5C63.1,404,62.4,401.7,60.6,400.7z M53.7,413.7c-2.5-1.3-3.3-4.4-2-6.9l2.7-5c1.3-2.5,4.4-3.6,6.8-2.3
					c2.5,1.3,3.3,4.4,2,6.9l-2.7,5C59.2,414,56.2,415,53.7,413.7z"/>
				<path id="Fill-70_2_" class="st1" d="M49.9,395.1c-1.9-1-4.2-0.3-5.2,1.7l-2.7,5c-1,1.9-0.3,4.2,1.5,5.2c1.9,1,4.2,0.3,5.2-1.7
					l2.7-5C52.5,398.4,51.8,396.1,49.9,395.1z M43.1,408.1c-2.5-1.3-3.3-4.4-2-6.9l2.7-5c1.3-2.5,4.4-3.6,6.8-2.3
					c2.5,1.3,3.3,4.4,2,6.9l-2.7,5C48.6,408.4,45.6,409.4,43.1,408.1z"/>
				<path id="Fill-71_4_" class="st1" d="M39.3,389.5c-1.9-1-4.2-0.3-5.2,1.7l-2.7,5c-1,1.9-0.3,4.2,1.5,5.2c1.9,1,4.2,0.3,5.2-1.7
					l2.7-5C41.9,392.8,41.2,390.5,39.3,389.5z M32.5,402.5c-2.5-1.3-3.3-4.4-2-6.9l2.7-5c1.3-2.5,4.4-3.6,6.8-2.3
					c2.5,1.3,3.3,4.4,2,6.9l-2.7,5C38,402.8,34.9,403.8,32.5,402.5z"/>
				<path id="Fill-72_4_" class="st1" d="M29.6,384.4c-1.9-1-4.2-0.3-5.1,1.6l-1.4,2.7c-1,1.9-0.3,4.2,1.6,5.1
					c1.9,1,4.2,0.3,5.1-1.6l1.4-2.7C32.2,387.6,31.5,385.4,29.6,384.4z M24.1,394.7c-2.5-1.3-3.4-4.3-2.1-6.8l1.4-2.7
					c1.3-2.4,4.3-3.4,6.8-2.1s3.4,4.3,2.1,6.8l-1.4,2.7C29.6,395.1,26.6,396,24.1,394.7z"/>
				<path id="Fill-73_2_" class="st1" d="M71.2,406.3c-1.9-1-4.2-0.3-5.2,1.7l-2.7,5c-1,1.9-0.3,4.2,1.5,5.2c1.9,1,4.2,0.3,5.2-1.7
					l2.7-5C73.7,409.6,73,407.3,71.2,406.3z M64.3,419.3c-2.5-1.3-3.3-4.4-2-6.9l2.7-5c1.3-2.5,4.4-3.6,6.8-2.3
					c2.5,1.3,3.3,4.4,2,6.9l-2.7,5C69.8,419.6,66.8,420.6,64.3,419.3z"/>
				<path id="Fill-74_4_" class="st1" d="M81.8,411.9c-1.9-1-4.2-0.3-5.2,1.7l-2.7,5c-1,1.9-0.3,4.2,1.5,5.2c1.9,1,4.2,0.3,5.2-1.7
					l2.7-5C84.4,415.2,83.6,412.9,81.8,411.9z M74.9,424.9c-2.5-1.3-3.3-4.4-2-6.9l2.7-5c1.3-2.5,4.4-3.6,6.8-2.3
					c2.5,1.3,3.3,4.4,2,6.9l-2.7,5C80.4,425.2,77.4,426.2,74.9,424.9z"/>
				<path id="Fill-75_1_" class="st3" d="M68,374.9c-20.8-11-42.5-10.5-48.6,1c-6.1,11.5,5.8,29.6,26.6,40.6s42.5,10.5,48.6-1
					C100.6,404.1,88.7,385.8,68,374.9z M64.3,381.9c8.5,4.5,15.7,10.7,19.9,16.9c3.3,5,4.3,9.6,2.7,12.6c-1.6,3-5.9,4.8-12,4.9
					c-7.5,0.1-16.7-2.4-25.2-6.9c-8.5-4.5-15.7-10.7-19.9-16.9c-3.3-5-4.3-9.6-2.7-12.6c1.6-3,5.9-4.8,12-4.9
					C46.6,374.9,55.8,377.4,64.3,381.9z"/>
				<path id="Fill-76_1_" class="st7" d="M39.3,374.1c7.2-0.2,15.9,2.2,24,6.3c-0.4-0.2-0.7-0.4-1.1-0.6c-8.5-4.5-17.7-7-25.2-6.9
					c-6,0.1-10.4,1.9-11.9,4.8s-0.6,7.5,2.8,12.5c4.2,6.3,11.4,12.5,19.9,16.9c0.4,0.2,0.7,0.4,1.1,0.6c-8-4.5-14.8-10.3-18.8-16.2
					c-3.3-5-4.3-9.6-2.8-12.5C28.8,376.2,33.4,374.3,39.3,374.1"/>
				<path id="Fill-77_1_" class="st7" d="M67.8,374.8c-0.4-0.2-0.7-0.4-1.1-0.6c20.2,11.1,31.7,28.8,25.7,40.1
					c-5.9,11.2-27.1,11.8-47.7,1.4c0.4,0.2,0.7,0.4,1.1,0.6c20.9,11,42.7,10.6,48.7-0.9C100.6,404.1,88.7,385.8,67.8,374.8"/>
				<path id="Fill-78_1_" class="st1" d="M64.2,382c-8.5-4.5-17.7-7-25.1-6.9c-5.8,0.1-10,1.8-11.4,4.5c-1.4,2.7-0.5,7.1,2.7,12
					c4.1,6.2,11.4,12.3,19.9,16.8c8.5,4.5,17.7,7,25.1,6.9c5.8-0.1,10-1.8,11.4-4.5s0.5-7.1-2.7-12C79.9,392.7,72.7,386.5,64.2,382z
					 M49.7,409.5c-8.7-4.6-16.1-10.9-20.3-17.3c-3.5-5.2-4.5-10.1-2.8-13.3c1.7-3.2,6.3-5.1,12.5-5.1c7.7-0.1,17,2.4,25.7,7
					c8.7,4.6,16.1,10.9,20.3,17.3c3.5,5.2,4.5,10.1,2.8,13.3c-1.7,3.2-6.3,5.1-12.5,5.1C67.7,416.7,58.3,414.1,49.7,409.5z
					 M67.8,375.1c-20.6-10.9-42.1-10.7-48,0.5c-5.9,11.1,6.1,29,26.7,39.9c20.6,10.9,42.1,10.7,48-0.5
					C100.4,403.8,88.4,386,67.8,375.1z M46,416.4c-21.2-11.2-33.4-29.8-27.3-41.5c6.2-11.7,28.4-12.1,49.7-0.9
					c21.2,11.2,33.4,29.8,27.3,41.5C89.5,427.3,67.3,427.6,46,416.4z"/>
				<path id="Fill-79_2_" class="st8" d="M83.4,426.1c2.1-4,0.9-8.8-2.6-11.4c-1.5,0.5-3.2,0.7-5.1,0.8l-1-0.5l1.3-2.5
					c0-0.1,0.1-0.3,0.2-0.4l-2.7-1.4c0,0.1-0.1,0.3-0.2,0.4l-1.3,2.5l-7.9-4.2l1.3-2.5c0-0.1,0.1-0.3,0.2-0.4l-2.7-1.4
					c0,0.1-0.1,0.3-0.2,0.4l-1.3,2.5l-7.9-4.2l1.3-2.5c0-0.1,0.1-0.3,0.2-0.4l-2.7-1.4c0,0.1-0.1,0.3-0.2,0.4l-1.3,2.5l-7.9-4.2
					l1.3-2.5c0-0.1,0.1-0.3,0.2-0.4l-2.7-1.4c0,0.1-0.1,0.3-0.2,0.4l-1.3,2.5l-7.9-4.2l1.3-2.5c0-0.1,0.1-0.2,0.1-0.3
					c-1.1-0.3-2.1-0.5-3.1-0.5l-1,1.9l-2.3-1.2c-1.9,0.8-3.5,2.2-4.6,4.2c-0.1,0.2-0.2,0.4-0.2,0.4c-0.1,0.2-0.2,0.4-0.2,0.4
					l-23.1,43.9c-2.6,5-0.6,11.1,4.2,13.6c2.1,1.1,4.6,1.4,6.7,1l-7.6,14.5c-2.6,5-0.6,11.1,4.2,13.6c4.9,2.6,11.1,0.6,13.6-4.2
					l18.1-34.3c0.9,2.1,2.5,3.9,4.6,5c5,2.6,11.1,0.6,13.6-4.2l1.6-3c0.9,1.3,2.1,2.3,3.5,3.1c5,2.6,11.1,0.6,13.6-4.2l6.9-13
					c0.1-0.2,0.2-0.4,0.2-0.4C83.2,426.3,83.3,426.2,83.4,426.1"/>
				<path id="Fill-80_1_" class="st9" d="M62.9,407.2l2.6,1.4l0.7-1.4c0-0.1,0.1-0.2,0.2-0.4l-2.7-1.4c0,0.1-0.1,0.2-0.2,0.4
					L62.9,407.2"/>
				<path id="Fill-81_1_" class="st9" d="M41.6,396l2.6,1.4L45,396c0-0.1,0.1-0.2,0.2-0.4l-2.7-1.4c0,0.1-0.1,0.2-0.2,0.4L41.6,396"
					/>
				<path id="Fill-82_1_" class="st9" d="M52.3,401.6l2.6,1.4l0.7-1.4c0-0.1,0.1-0.2,0.2-0.4l-2.7-1.4c0,0.1-0.1,0.2-0.2,0.4
					L52.3,401.6"/>
				<path id="Fill-83_1_" class="st9" d="M73.5,412.8l0.6,0.3c0.9,0,1.7-0.1,2.6-0.1l0.1-0.3c0-0.1,0.1-0.2,0.2-0.4l-2.7-1.4
					c0,0.1-0.1,0.2-0.2,0.4L73.5,412.8"/>
				<path id="Fill-84_1_" class="st9" d="M56.9,439.1l-1.9,3.5c-2.6,4.9-8.8,6.7-13.9,4c-0.4-0.2-0.7-0.4-1-0.6
					c0.9,1.3,2.1,2.2,3.6,3c5,2.7,11.3,0.9,13.9-4l1.9-3.5C58.3,440.9,57.6,440,56.9,439.1"/>
				<path id="Fill-85_1_" class="st9" d="M33.6,391.8l0.8-1.5c0-0.1,0.1-0.2,0.1-0.3c-1.1-0.3-2.1-0.5-3.1-0.6l-0.5,1L33.6,391.8"/>
				<path id="Fill-86_1_" class="st9" d="M84.3,426.4c2.1-4,0.9-8.9-2.8-11.6c-0.1,0-0.1,0-0.2,0c1.7,2.7,2,6.1,0.4,9.1
					c-0.1,0.2-0.2,0.4-0.2,0.4c-0.1,0.2-0.2,0.4-0.2,0.4l-6.9,13c-2.6,5-8.9,6.8-14,4.2c-0.4-0.2-0.7-0.4-1-0.6
					c0.9,1.3,2.1,2.3,3.6,3.1c5,2.7,11.3,0.8,14-4.2l6.8-12.9c0.1-0.2,0.2-0.4,0.2-0.4C84.1,426.8,84.2,426.6,84.3,426.4"/>
				<path id="Fill-87_1_" class="st9" d="M38.1,440.5l-19,36.1c-2.6,5-8.9,6.8-14,4.2c-0.4-0.2-0.7-0.4-1-0.6
					c0.9,1.3,2.1,2.3,3.6,3.1c5,2.7,11.3,0.8,14-4.2l18.6-35.3C39.2,442.8,38.6,441.7,38.1,440.5"/>
				<path id="Fill-88_1_" class="st9" d="M13.1,452.2c-2.3,0.5-9.1-0.3-11.4-1.5c-0.4-0.2-0.7-0.4-1-0.6c0.9,1.3,2.2,2.3,3.6,3
					c1,0.5,6.5,1.3,7.6,1.5L13.1,452.2"/>
				<path id="Fill-89_1_" class="st1" d="M10.9,454.6c0.1,0,0.2,0.1,0.2,0.2c0.1,0.2,0.2,0.5,0.1,0.7l-7.7,14.6
					C1,474.8,2.7,480.5,7.4,483c4.7,2.5,10.4,0.6,12.9-4.1l18.3-34.7c0.1-0.2,0.3-0.4,0.6-0.3c0.2,0,0.5,0.1,0.6,0.4
					c0.9,2,2.3,3.7,4.3,4.7c4.6,2.4,10.4,0.6,12.9-4.1l1.6-3.1c0.1-0.2,0.3-0.3,0.5-0.3c0.2,0,0.4,0.1,0.5,0.3
					c0.8,1.2,1.9,2.1,3.2,2.8c4.6,2.4,10.4,0.6,12.9-4.1l6.9-13c0-0.1,0.1-0.2,0.1-0.3l0.1-0.2l0.1-0.2c0-0.1,0.1-0.2,0.2-0.4
					c1.9-3.5,0.9-8-2.1-10.5c-1.5,0.5-3.2,0.7-4.9,0.8c-0.1,0-0.2,0-0.3-0.1l-1-0.5c-0.3-0.1-0.4-0.5-0.3-0.8l1.2-2.3l-1.5-0.8
					l-1.2,2.3c-0.1,0.3-0.5,0.4-0.8,0.3l-7.9-4.2c-0.3-0.1-0.4-0.5-0.3-0.8l1.2-2.3l-1.5-0.8l-1.2,2.3c-0.1,0.3-0.5,0.4-0.8,0.3
					l-7.9-4.2c-0.3-0.1-0.4-0.5-0.3-0.8l1.2-2.3l-1.5-0.8l-1.2,2.3c-0.1,0.3-0.5,0.4-0.8,0.3l-7.9-4.2c-0.3-0.1-0.4-0.5-0.3-0.8
					l1.2-2.3l-1.5-0.8l-1.2,2.3c-0.1,0.3-0.5,0.4-0.8,0.3l-7.9-4.2c-0.3-0.1-0.4-0.5-0.3-0.8l1.1-2c-0.6-0.2-1.2-0.2-1.8-0.3
					l-0.8,1.5c-0.1,0.3-0.5,0.4-0.8,0.3l-1.9-1c-1.8,0.8-3.1,2.1-4,3.8c0,0.1-0.1,0.2-0.1,0.3l-0.1,0.2l-0.1,0.2
					c0,0.1-0.1,0.2-0.1,0.3L0.7,440.9c-2.5,4.7-0.8,10.5,3.9,12.9c1.9,1,4.2,1.3,6.3,0.9C10.6,454.4,10.7,454.5,10.9,454.6z
					 M6.8,483.9c-5.2-2.8-7.2-9.3-4.4-14.5l7.1-13.5c-2,0.2-4.1-0.2-5.9-1.2c-5.2-2.8-7.2-9.3-4.4-14.5l23.3-44.2
					c0-0.1,0.1-0.3,0.2-0.4l0.1-0.2l0-0.1c0-0.1,0.1-0.3,0.2-0.4c1.1-2,2.8-3.6,5-4.5c0.1,0,0.4,0,0.5,0.1l1.7,0.9l0.7-1.3
					c0.1-0.2,0.3-0.3,0.5-0.4c1.1,0,2.2,0.1,3.3,0.5c0.2,0.1,0.4,0.2,0.3,0.4c0,0.1,0,0.4-0.1,0.5l-0.1,0.2l-1.1,2l6.8,3.6l1-1.9
					c0-0.1,0-0.1,0.1-0.2l0.1-0.2c0.1-0.2,0.2-0.4,0.4-0.3c0.1,0,0.4,0,0.5,0.1l2.7,1.4c0.2,0.1,0.2,0.2,0.3,0.4
					c0,0.1,0,0.4-0.1,0.5l-0.1,0.2c0,0.1,0,0.1-0.1,0.2l-1,1.9l6.8,3.6l1-1.9c0-0.1,0-0.1,0.1-0.2l0.1-0.2c0.1-0.2,0.2-0.4,0.4-0.3
					c0.1,0,0.4,0,0.5,0.1l2.7,1.4c0.2,0.1,0.2,0.2,0.3,0.4c0,0.1,0,0.4-0.1,0.5l-0.1,0.2c0,0.1,0,0.1-0.1,0.2l-1,1.9l6.8,3.6l1-1.9
					c0-0.1,0-0.1,0.1-0.2l0.1-0.2c0.1-0.2,0.2-0.4,0.4-0.3c0.1,0,0.4,0,0.5,0.1L67,407c0.2,0.1,0.3,0.3,0.3,0.4c0,0.1,0,0.4-0.1,0.5
					l-0.1,0.2c0,0.1,0,0.1-0.1,0.2l-1,1.9l6.8,3.6l1-1.9c0-0.1,0-0.1,0.1-0.2l0.1-0.2c0.1-0.2,0.2-0.4,0.4-0.3c0.1,0,0.4,0,0.5,0.1
					l2.7,1.4c0.2,0.1,0.2,0.2,0.3,0.4c0,0.1,0,0.4-0.1,0.5l-0.1,0.2c0,0.1,0,0.1-0.1,0.2l-1,1.9L77,416c1.7-0.1,3.4-0.4,4.8-0.7
					c0.1,0,0.4,0,0.5,0.1c3.7,2.8,4.9,8.1,2.7,12.3c-0.1,0.2-0.1,0.3-0.2,0.4l0,0.1l0,0.1c0,0.1-0.1,0.3-0.2,0.4l-6.9,13
					c-2.8,5.3-9.3,7.3-14.5,4.6c-1.1-0.6-2.2-1.4-3-2.4L59,446c-2.8,5.3-9.3,7.3-14.5,4.6c-1.8-0.9-3.3-2.4-4.3-4.2l-17.7,33.5
					C18.5,484.7,12,486.7,6.8,483.9z"/>
				<path id="Fill-90_1_" class="st8" d="M193.4,296.8L193.4,296.8L193.4,296.8c0.3-8.3-1.1-15.5-1.1-15.5
					c2.9-10.1-3.6-12.1-3.6-12.1c4.5-9.3-4-13-4-13c0.2-6-5.2-11-5.2-11c-10.2-10.6-15.1-3.2-15.1-3.2l0.3,0.4l-10.2,1.7
					c0,1.3,0,2.7,0.4,4.1c0.5,1.6,1.3,3.1,2.4,4.2c-1.5,3.7-1.9,7.7-1.9,7.7l0.2,0.1c-4.9,2.5-7.6,8.3-5.8,13.8
					c1.8,5.8,7.7,9.2,13.5,7.8c-5.6,2.2-8.6,8.4-6.8,14.2c1.5,5,6,8.1,11,8.2c0,0,2.8-0.3,3.5-0.6l4.8,2.5c-1.1,2.5-1.4,5.4-0.6,8.2
					c0.5,1.5,1.1,2.8,2,3.9l11.4-4.3C191.9,309.3,193.1,302.8,193.4,296.8"/>
				<path id="Fill-91_1_" class="st9" d="M177.3,252.8c0,0.8,0.1,1.6,0,2.4c-0.1,2.8,0,5.5,0.4,8.3c0.1,0.5,0.2,1,0.6,1.1
					c0.2,0.1,0.4,0,0.6,0c0.9-0.2,1.8-0.5,2.4-1.1c0.5-0.4,0.8-1.1,1.1-1.7c0.5-0.9,0.9-1.9,1.3-2.8c-1.4-1.1-1.9-2.9-2.5-4.6
					c-0.3-0.9-0.6-1.9-1-2.8c-0.3-0.7-0.6-1.4-1.2-2.1c-0.5-0.6-1.2-1-1.9-1.2c-1.3-0.6-2.5-1-3.9-1.2
					C175.5,248.1,177,250.4,177.3,252.8"/>
				<path id="Fill-92_1_" class="st9" d="M173.2,247.3L173.2,247.3L173.2,247.3L173.2,247.3"/>
				<path id="Fill-93_1_" class="st9" d="M176.8,293.8l-2.5,2l-4.9,8.3l4.2,2.2c0,0,2-3.1,4.6-8.1
					C180.6,293.2,176.8,293.8,176.8,293.8"/>
				<path id="Fill-94_1_" class="st9" d="M191.6,308.3l2.2-9l-0.4-12.2l-0.7-5.9l-3,5.7l-2.1,2.3l-2.8,0.7l0.7,2.9l-1.1,3l0,0.2
					l-2.7,2.5l-2.6,2.9l-0.1,0.8l1.3,0.3c0,0,3.9-0.2,4.9-2l-0.9,2l-0.2,0.4c0,0-4.7,12.7,5,10.8L191.6,308.3"/>
				<path id="Fill-95_1_" class="st9" d="M192.9,274.1c-0.7-4.9-4.2-4.7-4.2-4.7l-0.1,10.8C188.5,280.1,193.5,279.1,192.9,274.1"/>
				<path id="Fill-96_1_" class="st9" d="M182.4,276.9c0,0-10.3-9.3-11.2-16.5c-0.9-7.3-3.9-2.1-3.9-2.1l0.1,3.4l2.9,4.9
					L182.4,276.9"/>
				<path id="Fill-97_1_" class="st9" d="M183.3,279.7l-4,2.3l-6.7,0.7l-8.3-3.5c0,0,3.4,11.8,10.8,10.6
					C182.4,288.5,183.3,279.7,183.3,279.7"/>
				<path id="Fill-98_1_" class="st1" d="M179.2,265.1c-0.1,0-0.2-0.1-0.2-0.2c-0.2-0.3-0.1-0.6,0.1-0.8c3.3-2.3,5-5,5.2-8
					c0.3-5.6-5-10.6-5.1-10.7c-3.9-3.8-7.3-5.8-10.3-5.5c-2.7,0.2-3.9,2.1-3.9,2.1c-0.1,0.3-0.6,0.3-0.9,0.1
					c-0.3-0.1-0.4-0.5-0.2-0.9c0-0.1,1.6-2.4,4.9-2.6c3.4-0.2,7.1,1.7,11.2,5.9c0.2,0.2,5.8,5.4,5.5,11.6c-0.2,3.4-2.2,6.4-5.7,9
					C179.7,265.2,179.4,265.2,179.2,265.1"/>
				<path id="Fill-99_1_" class="st1" d="M155.1,261.4c-0.2-0.1-0.4-0.3-0.3-0.6c0.1-0.6,1.4-14.7,9.7-14.2l1.9,0.1
					c6.8,0.4,11.3,0.6,11.6,7.2c0,1,0,2.1,0.1,3.1c0.1,3.8,0,7.7,1.4,8.7c0.5,0.4,1.2,0.3,2.1-0.1c0.3-0.2,0.7,0,0.8,0.3
					c0.2,0.3,0,0.7-0.3,0.8c-1.3,0.6-2.4,0.5-3.3,0c-1.9-1.2-2-5.2-2-9.7c0-1,0-2.1-0.1-3.1c-0.2-5.3-3.1-5.6-10.4-6l-1.9-0.1
					c-7.1-0.5-8.4,13-8.5,13.1c-0.1,0.3-0.3,0.6-0.6,0.6C155.3,261.5,155.2,261.5,155.1,261.4"/>
				<path id="Fill-100_1_" class="st1" d="M166.7,281.1c-2.5-1.3-4-2.8-4.1-2.9c-0.2-0.2-0.3-0.6,0-0.9c0.2-0.2,0.6-0.3,0.9,0
					c0.1,0,7.1,6.7,15,3.7c2.4-0.9,3.7-1.7,3.9-2.4c0.2-1.1-2.3-3-5.4-5.4c-1.5-1.1-3-2.4-4.8-3.8c-3.7-3.1-5.6-6.1-5.7-9.2
					c-0.2-3.1,1.6-5,1.8-5.1c0.2-0.2,0.6-0.3,0.9,0c0.2,0.2,0.2,0.7,0,0.9c0,0.1-1.5,1.6-1.4,4.1c0.2,2.7,1.9,5.5,5.3,8.3
					c1.7,1.5,3.3,2.7,4.8,3.8c4,3.1,6.2,4.7,5.9,6.6c-0.2,1.2-1.5,2.2-4.6,3.4C174.1,284.1,169.7,282.7,166.7,281.1"/>
				<path id="Fill-101_1_" class="st1" d="M179.1,302.4c-0.2-0.1-0.4-0.3-0.5-0.5c-0.5-1,0.4-2.3,3-4.5c2.1-1.8,3.3-3.6,3.3-5.2
					c0-1.5-0.9-2.3-0.9-2.3c-0.2-0.2-0.3-0.5-0.2-0.8s0.4-0.3,0.7-0.3c0,0,1.2,0.4,2.7-0.5c1.9-1,3.5-3.6,4.5-7.3
					c2.7-9.3-3.1-11.1-3.2-11.2c-0.2-0.1-0.4-0.2-0.4-0.3s0-0.4,0.1-0.5c1.3-2.7,1.6-5.2,0.8-7.4c-1.2-3.2-4.4-4.7-4.5-4.7
					c-0.3-0.1-0.4-0.5-0.3-0.9c0.1-0.4,0.5-0.4,0.9-0.3c0.2,0.1,3.8,1.6,5.2,5.4c0.8,2.3,0.7,4.9-0.6,7.7c0,0,0,0,0.1,0
					c1.7,0.9,5.6,4,3.3,12.4c-1.2,4.2-3,6.9-5.2,8.1c-0.8,0.5-1.6,0.6-2.2,0.7c0.3,0.5,0.5,1.2,0.5,2c0,2-1.3,4.1-3.7,6.2
					c-2.7,2.3-2.7,3-2.8,3.1c0.1,0,0.9,0,1.4-0.1c0.4,0,0.7,0.1,0.7,0.5c0,0.4-0.1,0.7-0.5,0.7C181,302.5,179.8,302.7,179.1,302.4"
					/>
				<path id="Fill-102_1_" class="st1" d="M187.1,281.7c-0.3-0.1-0.3-0.4-0.3-0.6c0-0.1,2.2-14.2-0.3-19.8c-0.2-0.3,0-0.7,0.3-0.8
					c0.3-0.2,0.7,0,0.8,0.3c2.6,6,0.5,20.1,0.4,20.6c-0.1,0.3-0.4,0.6-0.7,0.5C187.3,281.8,187.2,281.7,187.1,281.7"/>
				<path id="Fill-103_1_" class="st1" d="M169.9,304.3c-0.4-0.2-0.4-0.5-0.3-0.8c0.1-0.3,0.5-0.4,0.8-0.3l6.5,3.4
					c0.1,0,2.6,0.9,6-3.4c3.4-4.3,0.8-7.3,0.7-7.3c-0.2-0.2-0.2-0.7,0-0.9c0.2-0.2,0.7-0.2,0.9,0c0,0,3.5,3.7-0.6,8.9
					c-4,5.1-7.3,3.8-7.5,3.7L169.9,304.3"/>
				<path id="Fill-104_1_" class="st1" d="M166.7,306c-0.3-0.1-0.4-0.5-0.3-0.8c0.1-0.3,0.5-0.5,0.8-0.4c0,0,2.1,0.4,5.1-5.7
					c3.6-7.4,7.6-6.4,7.7-6.5c0.3,0.1,0.6,0.4,0.4,0.8c-0.1,0.3-0.4,0.6-0.7,0.5c-0.1,0-3.2-0.6-6.3,5.7
					C169.9,307,167.1,306.2,166.7,306L166.7,306"/>
				<path id="Fill-105_1_" class="st1" d="M188.5,315.2C188.4,315.2,188.4,315.2,188.5,315.2c-0.4-0.2-0.4-0.7-0.2-0.9
					c7.6-11,3.2-32.4,3.2-32.6c0-0.4,0.1-0.7,0.5-0.7c0.4,0,0.7,0.1,0.7,0.5c0.2,0.9,4.7,22-3.3,33.5
					C189.1,315.3,188.8,315.4,188.5,315.2"/>
				<path id="Fill-106_1_" class="st1" d="M185,314.5c-0.2-0.1-0.3-0.3-0.3-0.5c-0.4-2.8,0-5.2,1.4-6.9c1.3-1.7,3.1-2.4,4.4-2.8
					c-2.6-2.5-1.5-5.2-0.6-7.7c0.3-0.8,0.7-1.7,0.9-2.5c0.8-3.3-2.4-5.9-2.5-6c-0.2-0.2-0.3-0.6-0.1-0.9c0.2-0.2,0.6-0.3,0.9-0.1
					c0.2,0.1,3.9,3.2,2.9,7.2c-0.2,0.9-0.6,1.8-1,2.7c-1.1,2.7-1.8,4.8,1.1,7c0.3,0.1,0.3,0.4,0.2,0.7c-0.1,0.3-0.3,0.4-0.6,0.5
					c0,0-3.1,0.3-4.8,2.5c-1.2,1.5-1.5,3.5-1.2,5.9c0,0.4-0.2,0.7-0.5,0.7C185.3,314.7,185.1,314.6,185,314.5"/>
				<path id="Fill-107_1_" class="st1" d="M171.6,302.8l4.9,2.6c0.3,0.1,0.4,0.5,0.3,0.8c-1.1,2.5-1.3,5.2-0.4,7.7
					c0.4,1.2,0.9,2.3,1.8,3.3l10.9-4c2.7-4,4.1-9.6,4.3-16.8l0,0c0.2-8.1-1.2-15.3-1.3-15.4c0-0.1,0-0.2,0.1-0.3
					c2.7-9.3-3.2-11.3-3.2-11.2c-0.2-0.1-0.4-0.2-0.4-0.3c0-0.1,0-0.4,0.1-0.5c1.3-2.7,1.6-5.2,0.7-7.4c-1.2-3.2-4.5-4.7-4.6-4.8
					c-0.3-0.1-0.4-0.3-0.4-0.5c0.2-5.7-5-10.4-5-10.6c-3.8-3.9-7.3-5.8-10.3-5.5c-2,0.2-3.3,1.3-3.8,1.8l0,0c0.1,0.2,0.1,0.4,0,0.6
					c-0.1,0.2-0.3,0.3-0.4,0.3l-9.7,1.6c0,1.1,0.1,2.3,0.5,3.4c0.5,1.5,1.2,2.8,2.3,4c0.1,0.2,0.2,0.5,0.1,0.6
					c-1.2,2.9-1.6,6-1.8,7.2c0.1,0,0.1,0.2,0.1,0.3c0.1,0.3-0.1,0.5-0.3,0.6c-4.8,2.4-7.1,7.9-5.5,13c1.7,5.4,7.4,8.7,13,7.5
					c0.3-0.1,0.6,0.1,0.8,0.4c0.1,0.3-0.1,0.6-0.4,0.7c-5.3,2.1-8,8-6.4,13.4c1.4,4.6,5.6,7.7,10.5,7.8c1-0.2,2.9-0.3,3.3-0.5
					C171.2,302.7,171.5,302.7,171.6,302.8z M177.5,318.5c-0.1,0-0.2-0.1-0.1-0.2c-1-1.2-1.8-2.6-2.2-4.1c-0.8-2.7-0.7-5.5,0.3-8.1
					l-4.2-2.2c-0.9,0.2-3.1,0.4-3.3,0.5c-5.5-0.1-10.1-3.5-11.8-8.7c-1.6-5,0.3-10.5,4.5-13.5c-5.1-0.2-9.9-3.6-11.4-8.6
					c-1.7-5.5,0.6-11.4,5.7-14.2c0.1-0.8,0.5-4.1,1.7-7.3c-1-1.2-1.9-2.7-2.3-4.2c-0.4-1.4-0.7-2.8-0.5-4.4c0.1-0.3,0.3-0.5,0.6-0.6
					l9.4-1.5c0-0.1,0-0.2,0.1-0.3c0-0.1,1.6-2.4,4.9-2.7c3.4-0.2,7.2,1.8,11.3,6c0.2,0.2,5.3,5.1,5.5,11l0,0c1.7,0.9,7.9,4.9,4.3,13
					c1.6,0.8,5.8,4,3.4,12.3c0.2,1.1,1.4,7.8,1.3,15.4c0,0.1,0,0.2-0.1,0.3c-0.3,7.4-1.8,13.3-4.7,17.4c0,0.1-0.2,0.1-0.3,0.2
					l-11.5,4.2C177.8,318.6,177.7,318.6,177.5,318.5z"/>
			</g>
		</g>
	</g>
</g>
<text transform="matrix(0.9962 -8.714963e-02 8.714963e-02 0.9962 248.9563 336.2777)" class="st12 st23 st24">October 31</text>
<text transform="matrix(0.9962 -8.714963e-02 8.714963e-02 0.9962 272.5123 375.4796)" class="st25 st23 st26">6pm            10:30pm</text>
<text transform="matrix(1 0 0 1 464.0718 298.6753)" class="st12 st23 st26">st</text>
<line class="st27" x1="315.4" y1="365.2" x2="362" y2="363.1"/>
</svg>
