<?xml version="1.0" encoding="utf-8"?>
<!-- Generator: Adobe Illustrator 22.1.0, SVG Export Plug-In . SVG Version: 6.00 Build 0)  -->
<svg version="1.1" id="Layer_1" xmlns="http://www.w3.org/2000/svg" xmlns:xlink="http://www.w3.org/1999/xlink" x="0px" y="0px"
	 viewBox="0 0 525 525" style="enable-background:new 0 0 525 525;" xml:space="preserve">
<style type="text/css">
	.st0{fill:#7E3BEB;}
	.st1{display:none;}
	.st2{display:inline;}
	.st3{enable-background:new    ;}
	.st4{fill:#FFFFFF;}
	.st5{font-family:'Gobold';}
	.st6{font-size:31.9972px;}
	.st7{font-family:'Roboto-Regular';}
	.st8{font-size:13.9988px;}
	.st9{fill:#2ADFDF;}
	.st10{font-family:'GoboldBoldItalic-Italic';}
	.st11{font-size:24px;}
	.st12{font-size:30px;}
	.st13{font-size:14px;}
	.st14{fill:#3D1717;}
	.st15{fill:#A5CD6F;}
	.st16{fill:#C06539;}
	.st17{fill:#F0F2C3;}
	.st18{fill:#F6DE5E;}
	.st19{fill:#CFAF31;}
	.st20{fill:#9B4B2C;}
	.st21{fill:#F2BEBA;}
	.st22{fill:#EB958E;}
	.st23{fill:#F8E71C;}
	.st24{font-size:64px;}
	.st25{font-family:'GoboldCUTS-Italic';}
	.st26{font-size:60px;}
</style>
<title>header-right</title>
<desc>Created with Sketch.</desc>
<g id="Homepage">
	<g id="_x31_.-Header" transform="translate(-1395.000000, 0.000000)">
		<g id="header-right" transform="translate(1409.000000, 198.000000)">
			<g id="Image">
				<rect id="path-1_1_" x="-15.1" y="-198" class="st0" width="531.4" height="525"/>
			</g>
			<g transform="translate(395.740088, 611.740088) rotate(56.000000) translate(-395.740088, -611.740088) ">
			</g>
			<g id="Time_1_" class="st1">
				
					<g transform="translate(276.736904, 342.347239) rotate(-9.000000) translate(-276.736904, -342.347239) translate(190.236904, 306.847239)" class="st2">
					<g id="Time" transform="translate(0.000000, 1.000000)">
						<g class="st3">
							<text transform="matrix(0.9999 -1.068671e-02 1.068671e-02 0.9999 49.8122 -174.9081)" class="st4 st5 st6">17</text>
						</g>
						<g class="st3">
							<text transform="matrix(0.9999 -1.068671e-02 1.068671e-02 0.9999 49.972 -159.9085)" class="st4 st7 st8">Days</text>
						</g>
					</g>
					<g id="Hours" transform="translate(61.000000, 1.000000)">
						<g class="st3">
							<text transform="matrix(0.9999 -1.068671e-02 1.068671e-02 0.9999 49.8082 -175.5595)" class="st4 st5 st6">21</text>
						</g>
						<g class="st3">
							<text transform="matrix(0.9999 -1.068671e-02 1.068671e-02 0.9999 49.9685 -160.5603)" class="st4 st7 st8">Hours</text>
						</g>
					</g>
					<g id="Minutes" transform="translate(122.000000, 0.000000)">
						<g class="st3">
							<text transform="matrix(0.9999 -1.068671e-02 1.068671e-02 0.9999 49.7946 -176.2113)" class="st4 st5 st6">45</text>
						</g>
						<g class="st3">
							<text transform="matrix(0.9999 -1.068671e-02 1.068671e-02 0.9999 49.9651 -160.2122)" class="st4 st7 st8">Minutes</text>
						</g>
					</g>
				</g>
			</g>
			<g id="Group-41">
				<g transform="translate(-7.000000, -30.000000)">
					<g id="Group-42" transform="translate(51.000000, 0.000000)">
						
							<g id="Group" transform="translate(301.335433, 309.479136) rotate(-55.000000) translate(-301.335433, -309.479136) translate(64.835433, 107.979136)">
							<g class="st3">
								<text transform="matrix(0.788 -0.6157 0.6157 0.788 210.6593 9.9213)" class="st9 st10 st11">October </text>
							</g>
							<g class="st3">
								<text transform="matrix(0.788 -0.6157 0.6157 0.788 280.297 -44.485)" class="st9 st10 st12">31</text>
							</g>
							<g>
								<text transform="matrix(0.788 -0.6157 0.6157 0.788 306.2228 -64.7408)" class="st9 st10 st11"> </text>
							</g>
							<g class="st3">
								<text transform="matrix(0.788 -0.6157 0.6157 0.788 305.0685 -63.8389)" class="st9 st10 st13">st</text>
							</g>
							<path id="Fill-4" class="st14" d="M528.8,216.2c-12.7,0-23-10.2-23-22.8l0-104.4c0-12.6,10.3-22.8,23-22.8
								c12.7,0,23,10.2,23,22.8l0,104.4C551.8,206,541.5,216.2,528.8,216.2"/>
							<path id="Fill-5" class="st15" d="M612-75.9c-4.2-4.2-4.5-10.8-0.9-15.4l-7.9,7.9c-4.5,4.5-11.9,4.5-16.4,0
								c-4.3-4.3-4.5-11.2-0.6-15.7c-4.5,3.9-11.4,3.7-15.7-0.6c-4.5-4.5-4.5-11.9,0-16.4l7.9-7.9c-4.5,3.6-11.2,3.3-15.3-0.9
								c-2.2-2.2-3.3-5-3.4-7.9c-3.9-0.6-7.8-0.9-11.8-0.9c-42.4,0-89,34.5-89,76.9l148.5,193.1l17.5-7.5l0-185.3
								c0-5.6-0.6-11-1.8-16.3C619.2-71.9,615-72.9,612-75.9"/>
							<path id="Fill-6" class="st14" d="M459.1-57.5l148.7,192.4l16.8-7.2l0-184.8c0-5.2-0.5-10.4-1.6-15.5
								c-4,0.8-8.2-0.4-11.1-3.3c-3.3-3.3-4.4-8.1-3-12.4l-5,4.9c-4.8,4.8-12.6,4.8-17.4,0c-3.8-3.7-4.6-9.4-2.3-14
								c-4.6,2.2-10.3,1.4-14.1-2.3c-2.3-2.3-3.6-5.4-3.6-8.6c0-3.3,1.3-6.3,3.6-8.6l5-4.9c-4.3,1.4-9.1,0.3-12.5-3
								c-2.1-2.1-3.3-4.8-3.5-7.7c-3.7-0.6-7.5-0.8-11.3-0.8C506.9-133.5,459.3-100.3,459.1-57.5z M607.6,136.2
								c-0.2,0-0.4-0.1-0.5-0.2L458-56.9c-0.1-0.1-0.1-0.2-0.1-0.4c0-43.6,48.4-77.5,90-77.5c4,0,8,0.3,12,0.9
								c0.3,0,0.5,0.3,0.5,0.6c0.1,2.8,1.2,5.5,3.2,7.4c3.9,3.9,10.2,4.3,14.6,0.9c0.3-0.2,0.6-0.2,0.9,0.1c0.2,0.2,0.2,0.6,0,0.9
								l-7.9,7.9c-2.1,2.1-3.2,4.8-3.2,7.8c0,2.9,1.1,5.7,3.2,7.8c4,4,10.6,4.3,14.9,0.6c0.2-0.2,0.6-0.2,0.9,0
								c0.2,0.2,0.2,0.6,0,0.8c-3.7,4.3-3.4,10.9,0.6,14.9c4.3,4.3,11.3,4.3,15.6,0l7.9-7.9c0.2-0.2,0.6-0.2,0.9,0
								c0.2,0.2,0.3,0.6,0.1,0.9c-3.4,4.4-3,10.6,0.9,14.5c2.7,2.7,6.8,3.8,10.5,2.8c0.2,0,0.3,0,0.5,0.1c0.1,0.1,0.2,0.2,0.3,0.4
								c1.2,5.4,1.8,10.9,1.8,16.4l0,185.2c0,0.3-0.1,0.5-0.4,0.6l-17.6,7.5C607.8,136.2,607.7,136.2,607.6,136.2z"/>
							<path id="Fill-7" class="st16" d="M612.7-76.1c-4.1-4.3-4.5-10.8-0.9-15.3l-7.9,7.8c-0.3,0.3-0.7,0.6-1.1,0.9
								c-4.6,3.5-11.2,3.2-15.4-0.9c-4.3-4.3-4.5-11.1-0.6-15.7c-0.1,0.1-0.2,0.1-0.3,0.2c-4.6,3.6-11.3,3.3-15.5-0.8
								c-4.2-4.2-4.5-10.8-0.9-15.3c0.3-0.4,0.6-0.7,0.9-1.1l7.9-7.8l0,0c-4.6,3.5-10.8,2.7-15.4-0.9c-3.4-2.7-3.4-7.8-3.4-7.8
								l-21.9,16.5c-4.5,4.5-4.5,11.8,0,16.3c4.2,4.2,10.9,4.5,15.4,0.9l-7.9,7.8c-4.5,4.5-4.5,11.8,0,16.3
								c4.3,4.3,11.2,4.5,15.8,0.6c-3.9,4.5-3.7,11.4,0.6,15.7c4.5,4.5,11.9,4.5,16.5,0l7.9-7.8c-3.6,4.5-3.3,11.1,0.9,15.3
								c4.5,4.5,12,4.5,16.5,0l19.9-22C623.8-73.1,617.2-71.5,612.7-76.1"/>
							<path id="Fill-8" class="st17" d="M582.5-53.5c-4.2-4.2-4.5-10.8-0.9-15.3l-7.9,7.9c-4.5,4.5-11.9,4.5-16.4,0
								c-4.3-4.3-4.5-11.2-0.6-15.7c-4.5,3.9-11.4,3.7-15.7-0.6c-4.5-4.5-4.5-11.9,0-16.4l7.9-7.9c-4.5,3.5-11.2,3.2-15.3-0.9
								c-4.5-4.5-4.5-11.9,0-16.4l10.2-7.7c-5.1-1.1-12.4-2.2-17.8-2.2c-42.3,0-77,34.6-77,77l0,185l154,0l0-185
								c0-1.8-0.1-3.7-0.2-5.5l-3.8,3.8C594.4-49,587-49,582.5-53.5z"/>
							<path id="Fill-9" class="st14" d="M545.2-124.8L545.2-124.8c-2.6-0.4-5.2-0.7-7.7-0.9c-0.4,0-0.6-0.3-0.6-0.6
								s0.4-0.5,0.7-0.5c2.6,0.2,5.2,0.5,7.7,0.9c0.4,0.1,0.6,0.3,0.5,0.6C545.8-125,545.5-124.8,545.2-124.8"/>
							<path id="Fill-10" class="st14" d="M548.8-33.5c-5.3,0-9.8,12.7-9.8,27.7s4.5,27.7,9.8,27.7s9.8-12.7,9.8-27.7
								S554.1-33.5,548.8-33.5z M548.8,23.2c-6.2,0-11-12.7-11-29s4.8-29,11-29c6.2,0,11,12.7,11,29S555,23.2,548.8,23.2z"/>
							<path id="Fill-11" class="st14" d="M510.8-33.5c-5.3,0-9.8,12.7-9.8,27.7s4.5,27.7,9.8,27.7s9.8-12.7,9.8-27.7
								C520.6-20.8,516.1-33.5,510.8-33.5z M510.8,23.2c-6.2,0-11-12.7-11-29s4.8-29,11-29c6.2,0,11,12.7,11,29S517,23.2,510.8,23.2
								z"/>
							<path id="Fill-12" class="st15" d="M547,22.2c-6.7,0-12.1-12.8-12.1-28.5s5.4-28.5,12.1-28.5h1.9v57H547"/>
							<path id="Fill-13" class="st15" d="M509,22.2c-6.7,0-12.1-12.8-12.1-28.5s5.4-28.5,12.1-28.5h1.9v57L509,22.2"/>
							<path id="Fill-14" class="st14" d="M536.5-20.8c-0.1,0-0.1,0-0.2,0c-0.4-0.1-0.6-0.4-0.5-0.7c0.2-0.7,0.4-1.3,0.7-1.9
								c0.1-0.3,0.5-0.5,0.9-0.4s0.6,0.4,0.4,0.7c-0.2,0.6-0.4,1.2-0.6,1.8C537.1-20.9,536.8-20.8,536.5-20.8"/>
							<path id="Fill-15" class="st14" d="M535.3-15.8C535.2-15.8,535.2-15.8,535.3-15.8c-0.3-0.1-0.5-0.3-0.4-0.6
								c0-0.3,0.1-0.6,0.1-0.9c0-0.3,0.3-0.5,0.5-0.4s0.4,0.3,0.3,0.6c0,0.3-0.1,0.6-0.1,0.9C535.7-16,535.5-15.8,535.3-15.8"/>
							<path id="Fill-16" class="st14" d="M536.2,7.2c-0.3,0-0.6-0.2-0.6-0.5c-0.3-1.2-0.5-2.5-0.7-3.8c0-0.3,0.2-0.6,0.5-0.7
								c0.3,0,0.7,0.2,0.7,0.5c0.2,1.3,0.4,2.6,0.7,3.8c0.1,0.3-0.1,0.6-0.5,0.7C536.3,7.2,536.2,7.2,536.2,7.2"/>
							<path id="Fill-17" class="st14" d="M549.2,23.2l-1.9,0c-4.3,0-8.1-4.4-10.5-12.2c-0.1-0.3,0.1-0.7,0.4-0.8
								c0.3-0.1,0.7,0.1,0.8,0.4c2.2,7.1,5.7,11.3,9.3,11.3h1.2v-55.5h-1.2c-2.9,0-5.7,2.7-7.9,7.6c-0.1,0.3-0.5,0.5-0.8,0.3
								c-0.3-0.1-0.5-0.5-0.3-0.8c2.4-5.4,5.6-8.3,9.1-8.3h1.9c0.3,0,0.6,0.3,0.6,0.6v56.7C549.8,23,549.6,23.2,549.2,23.2"/>
							<path id="Fill-18" class="st14" d="M499.5-19.8c-0.1,0-0.1,0-0.2,0c-0.3-0.1-0.5-0.4-0.4-0.8c0.2-0.9,0.5-1.9,0.8-2.7
								c0.1-0.3,0.5-0.5,0.8-0.4s0.5,0.5,0.4,0.8c-0.3,0.9-0.5,1.8-0.8,2.7C500-20,499.7-19.8,499.5-19.8"/>
							<path id="Fill-19" class="st14" d="M498.3-16.8C498.2-16.8,498.2-16.8,498.3-16.8c-0.3-0.1-0.5-0.4-0.4-0.7l0.1-0.8
								c0-0.3,0.3-0.6,0.5-0.5s0.4,0.4,0.3,0.7l-0.1,0.7C498.7-17,498.5-16.8,498.3-16.8"/>
							<path id="Fill-20" class="st14" d="M497.3,3.2c-0.2,0-0.4-0.2-0.4-0.6l-0.1-0.7c0-0.4,0.1-0.7,0.4-0.7c0.2,0,0.5,0.2,0.5,0.6
								l0.1,0.7C497.8,2.8,497.6,3.2,497.3,3.2C497.4,3.2,497.4,3.2,497.3,3.2"/>
							<path id="Fill-21" class="st14" d="M499.2,9.2c-0.3,0-0.5-0.2-0.6-0.5c-0.3-1.2-0.6-2.5-0.8-3.8c-0.1-0.3,0.2-0.7,0.5-0.7
								c0.3-0.1,0.6,0.2,0.7,0.5c0.2,1.3,0.5,2.5,0.8,3.7c0.1,0.3-0.1,0.7-0.4,0.8C499.3,9.2,499.3,9.2,499.2,9.2"/>
							<path id="Fill-22" class="st14" d="M511.2,23.2h-1.9c-4.1,0-7.9-4-10.4-10.9c-0.1-0.3,0.1-0.7,0.4-0.8
								c0.3-0.1,0.7,0.1,0.8,0.4c2.3,6.4,5.7,10,9.2,10l1.3,0v-55.5h-1.3c-2.7,0-5.4,2.2-7.5,6.3c-0.2,0.3-0.5,0.4-0.9,0.3
								c-0.3-0.2-0.4-0.5-0.3-0.8c2.4-4.5,5.5-7,8.7-7h1.9c0.4,0,0.6,0.3,0.6,0.6v56.7C511.8,23,511.6,23.2,511.2,23.2"/>
							<path id="Fill-23" class="st14" d="M548.8-33.5c-5.3,0-9.8,12.7-9.8,27.7s4.5,27.7,9.8,27.7s9.8-12.7,9.8-27.7
								S554.1-33.5,548.8-33.5z M548.8,23.2c-6.2,0-11-12.7-11-29s4.8-29,11-29c6.2,0,11,12.7,11,29S555,23.2,548.8,23.2z"/>
							<path id="Fill-24" class="st14" d="M510.8-33.5c-5.3,0-9.8,12.7-9.8,27.7s4.5,27.7,9.8,27.7s9.8-12.7,9.8-27.7
								C520.6-20.8,516.1-33.5,510.8-33.5z M510.8,23.2c-6.2,0-11-12.7-11-29s4.8-29,11-29c6.2,0,11,12.7,11,29S517,23.2,510.8,23.2
								z"/>
							<path id="Fill-25" class="st14" d="M559.8-6.3c0,15.7-4.7,28.5-10.5,28.5S538.8,9.4,538.8-6.3s4.7-28.5,10.5-28.5
								C555.1-34.8,559.8-22,559.8-6.3"/>
							<path id="Fill-26" class="st14" d="M521.8-6.3c0,15.7-4.7,28.5-10.5,28.5S500.8,9.5,500.8-6.3s4.7-28.5,10.5-28.5
								C517.1-34.8,521.8-22,521.8-6.3"/>
							<path id="Fill-27" class="st14" d="M608.2,136.2l-154.7,0c-0.3,0-0.6-0.3-0.6-0.6l0-184.8c0-42.8,35-77.5,78-77.5
								c0.3,0,0.6,0.3,0.6,0.6s-0.3,0.6-0.6,0.6c-42.3,0-76.7,34.2-76.7,76.3l0,184.2l153.5,0V93.7c0-0.3,0.3-0.6,0.6-0.6
								s0.6,0.3,0.6,0.6v41.9C608.8,136,608.6,136.2,608.2,136.2"/>
							<path id="Fill-28" class="st14" d="M608.7-88.8l-5,5c-0.3,0.3-0.7,0.6-1.1,1l-15.2,15.1c-2.1,2.1-3.2,4.8-3.2,7.7
								c0,2.9,1.1,5.7,3.2,7.7c2.1,2.1,4.8,3.2,7.8,3.2c3,0,5.7-1.1,7.8-3.2L621.7-73c-2.4,0.2-6.7,0-10-3.4
								C608.3-79.8,607.3-84.6,608.7-88.8z M595.1-47.8c-3.1,0-6.3-1.2-8.7-3.6c-2.3-2.3-3.6-5.4-3.6-8.6c0-3.3,1.3-6.3,3.6-8.6
								l15.3-15.2c0.5-0.4,0.8-0.6,1.1-0.9l7.9-7.9c0.2-0.2,0.6-0.2,0.9,0c0.2,0.2,0.3,0.6,0.1,0.9c-3.3,4.3-3,10.5,0.9,14.5
								c4.2,4.3,10.5,2.9,10.5,2.8c0.3-0.1,0.5,0.1,0.7,0.3c0.1,0.2,0.1,0.5-0.1,0.7l-19.9,22C601.4-49,598.2-47.8,595.1-47.8z"/>
							<path id="Fill-29" class="st14" d="M583.6-95.7l-21.3,21.1c-4.3,4.2-4.3,11.1,0,15.4c4.3,4.2,11.2,4.2,15.5,0l21.3-21.1
								c-4.3,1.4-9.2,0.5-12.6-2.9C583.1-86.5,582.1-91.4,583.6-95.7z M570.1-54.8c-3.1,0-6.3-1.2-8.6-3.5c-4.8-4.7-4.8-12.4,0-17.1
								L586-99.6c0.2-0.2,0.6-0.2,0.8,0s0.2,0.6,0,0.8c-3.7,4.3-3.4,10.7,0.6,14.7c4.3,4.2,11.2,4.2,15.5,0l7.9-7.8
								c0.2-0.2,0.6-0.2,0.9,0c0.1,0.1,0.2,0.3,0.2,0.4c0,0.2-0.1,0.3-0.2,0.4l-33,32.6C576.3-55.9,573.2-54.8,570.1-54.8z"/>
							<path id="Fill-30" class="st14" d="M570.5-115.8c-0.2,0-0.3-0.1-0.4-0.2c-0.2-0.2-0.2-0.6,0-0.9l7.8-7.8
								c0.1-0.1,0.3-0.2,0.4-0.2c0.2,0,0.3,0.1,0.4,0.2c0.2,0.2,0.2,0.6,0,0.8l0,0l-7.8,7.8C570.8-115.8,570.6-115.8,570.5-115.8"/>
							<path id="Fill-31" class="st14" d="M567.3-111.9l-21.1,21.2c-2,2.1-3.2,4.8-3.2,7.7c0,2.9,1.1,5.7,3.2,7.7
								c2,2.1,4.8,3.2,7.7,3.2c2.9,0,5.6-1.1,7.7-3.2l21.1-21.2c-4.3,1.5-9.2,0.5-12.5-2.9c-2.3-2.3-3.5-5.4-3.5-8.6
								C566.7-109.3,566.9-110.6,567.3-111.9z M553.9-70.8c-3.2,0-6.3-1.3-8.6-3.6c-2.3-2.3-3.5-5.4-3.5-8.6c0-3.2,1.3-6.3,3.5-8.6
								l24.8-25c0.2-0.2,0.6-0.2,0.9,0c0.1,0.1,0.2,0.3,0.2,0.4c0,0.2-0.1,0.3-0.2,0.4c-2,2.1-3.2,4.8-3.2,7.7s1.1,5.7,3.2,7.7
								c4,4,10.4,4.3,14.7,0.6c0.2-0.2,0.6-0.2,0.8,0s0.2,0.6,0,0.8l-0.2,0.3l-23.8,24.4C560.2-72,557.2-70.8,553.9-70.8z"/>
							<path id="Fill-32" class="st14" d="M559-131.9l-20.8,16c-2,2-3.1,4.8-3.1,7.8s1.1,5.8,3.2,7.8c2.1,2.1,4.8,3.2,7.7,3.2
								s5.7-1.1,7.7-3.2l15.2-15.4c0.3-0.4,0.6-0.7,0.9-1.1l5-5.1c-4,1.2-8.6,0.2-12.4-2.9C559.9-126.8,559.2-130.1,559-131.9z
								 M546-95.8c-3.3,0-6.3-1.3-8.6-3.6s-3.6-5.4-3.6-8.7s1.3-6.4,3.6-8.7l21.7-16.8c0.2-0.1,0.4-0.2,0.7-0.1
								c0.2,0.1,0.3,0.3,0.3,0.6c0,0,0.1,5,3.1,7.4c4.7,3.8,10.5,4.1,14.5,0.9c0.3-0.2,0.6-0.2,0.9,0.1c0.2,0.3,0.2,0.6,0,0.9
								l-7.9,8c-0.3,0.3-0.6,0.6-0.9,1l-15.2,15.5C552.4-97,549.3-95.8,546-95.8z"/>
							<path id="Fill-33" class="st14" d="M530.8,49.2c9.7,0,19,2.1,25.7,5.7c5.3,2.9,8.3,6.5,8.3,9.8c0,3.3-3,6.9-8.3,9.8
								c-6.6,3.6-16,5.7-25.7,5.7c-9.7,0-19-2.1-25.7-5.7c-5.3-2.9-8.3-6.5-8.3-9.8c0-3.3,3-6.9,8.3-9.8
								C511.8,51.3,521.1,49.2,530.8,49.2"/>
							<path id="Fill-34" class="st18" d="M536.3,61.2c-2.5,0-4.5-2.1-4.5-4.6v-5.8c0-2.5,2-4.6,4.5-4.6c2.5,0,4.5,2.1,4.5,4.6v5.8
								C540.8,59.2,538.8,61.2,536.3,61.2"/>
							<path id="Fill-35" class="st18" d="M524.3,61.2c-2.5,0-4.5-2.1-4.5-4.6v-5.8c0-2.5,2-4.6,4.5-4.6c2.5,0,4.5,2.1,4.5,4.6v5.8
								C528.8,59.2,526.8,61.2,524.3,61.2"/>
							<path id="Fill-36" class="st18" d="M512.3,61.2c-2.5,0-4.5-2.1-4.5-4.6v-5.8c0-2.5,2-4.6,4.5-4.6c2.5,0,4.5,2.1,4.5,4.6v5.8
								C516.8,59.2,514.8,61.2,512.3,61.2"/>
							<path id="Fill-37" class="st18" d="M500.3,60.2c-2.5,0-4.5-2-4.5-4.6v-1.9c0-2.5,2-4.6,4.5-4.6c2.5,0,4.5,2,4.5,4.6v2
								C504.8,58.2,502.8,60.2,500.3,60.2"/>
							<path id="Fill-38" class="st18" d="M548.3,61.2c-2.5,0-4.5-2.1-4.5-4.6v-5.8c0-2.5,2-4.6,4.5-4.6c2.5,0,4.5,2.1,4.5,4.6v5.8
								C552.8,59.2,550.8,61.2,548.3,61.2"/>
							<path id="Fill-39" class="st18" d="M560.3,60.2c-2.5,0-4.5-2-4.5-4.6v-1.9c0-2.5,2-4.6,4.5-4.6s4.5,2,4.5,4.6v2
								C564.8,58.2,562.8,60.2,560.3,60.2"/>
							<path id="Fill-40" class="st14" d="M607.3,0.2c-0.2,0-0.4-0.3-0.4-0.6v-5.8c0-0.3,0.2-0.6,0.4-0.6c0.2,0,0.4,0.3,0.4,0.6v5.8
								C607.7,0,607.5,0.2,607.3,0.2"/>
							<path id="Fill-41" class="st14" d="M607.3,10.2c-0.2,0-0.4-0.3-0.4-0.6V4.9c0-0.4,0.2-0.6,0.4-0.6s0.4,0.3,0.4,0.6v4.7
								C607.7,9.9,607.5,10.2,607.3,10.2"/>
							<path id="Fill-42" class="st14" d="M607.3,35.2c-0.2,0-0.4-0.3-0.4-0.6V17.8c0-0.3,0.2-0.6,0.4-0.6s0.4,0.3,0.4,0.6v16.8
								C607.7,35,607.5,35.2,607.3,35.2"/>
							<path id="Fill-43" class="st14" d="M607.3,50.2c-0.2,0-0.4-0.3-0.4-0.6v-8.8c0-0.3,0.2-0.6,0.4-0.6s0.4,0.3,0.4,0.6v8.8
								C607.7,50,607.5,50.2,607.3,50.2"/>
							<path id="Fill-44" class="st14" d="M607.3,77.2c-0.2,0-0.4-0.3-0.4-0.6V63.9c0-0.3,0.2-0.6,0.4-0.6s0.4,0.3,0.4,0.6v12.7
								C607.7,77,607.5,77.2,607.3,77.2"/>
							<path id="Fill-45" class="st18" d="M536.3,82.2c-2.5,0-4.5-2.1-4.5-4.6v-5.8c0-2.5,2-4.6,4.5-4.6s4.5,2.1,4.5,4.6v5.8
								C540.8,80.2,538.8,82.2,536.3,82.2"/>
							<path id="Fill-46" class="st18" d="M524.3,82.2c-2.5,0-4.5-2.1-4.5-4.6v-5.8c0-2.5,2-4.6,4.5-4.6s4.5,2.1,4.5,4.6v5.8
								C528.8,80.2,526.8,82.2,524.3,82.2"/>
							<path id="Fill-47" class="st18" d="M512.3,82.2c-2.5,0-4.5-2.1-4.5-4.6v-5.8c0-2.5,2-4.6,4.5-4.6c2.5,0,4.5,2.1,4.5,4.6v5.8
								C516.8,80.2,514.8,82.2,512.3,82.2"/>
							<path id="Fill-48" class="st18" d="M500.3,79.2c-2.5,0-4.5-2-4.5-4.5v-3c0-2.4,2-4.5,4.5-4.5s4.5,2,4.5,4.5v3.1
								C504.8,77.2,502.8,79.2,500.3,79.2"/>
							<path id="Fill-49" class="st18" d="M548.3,82.2c-2.5,0-4.5-2.1-4.5-4.6v-5.8c0-2.5,2-4.6,4.5-4.6c2.5,0,4.5,2.1,4.5,4.6v5.8
								C552.8,80.2,550.8,82.2,548.3,82.2"/>
							<path id="Fill-50" class="st18" d="M560.3,82.2c-2.5,0-4.5-2.1-4.5-4.6v-5.8c0-2.5,2-4.6,4.5-4.6s4.5,2.1,4.5,4.6v5.8
								C564.8,80.2,562.8,82.2,560.3,82.2"/>
							<path id="Fill-51" class="st19" d="M536.2,46.2c-0.5,0-0.9,0.1-1.3,0.2c1.9,0.6,3.4,2.3,3.4,4.4v5.8c0,2.1-1.4,3.8-3.4,4.4
								c0.4,0.1,0.9,0.2,1.3,0.2c2.6,0,4.7-2.1,4.7-4.6v-5.8C540.8,48.3,538.7,46.2,536.2,46.2"/>
							<path id="Fill-52" class="st19" d="M524.2,46.2c-0.5,0-0.9,0.1-1.3,0.2c1.9,0.6,3.4,2.3,3.4,4.4v5.8c0,2.1-1.4,3.8-3.4,4.4
								c0.4,0.1,0.9,0.2,1.3,0.2c2.6,0,4.7-2.1,4.7-4.6v-5.8C528.8,48.3,526.7,46.2,524.2,46.2"/>
							<path id="Fill-53" class="st19" d="M512.2,46.2c-0.5,0-0.9,0.1-1.3,0.2c1.9,0.6,3.4,2.3,3.4,4.4v5.8c0,2.1-1.4,3.8-3.4,4.4
								c0.4,0.1,0.9,0.2,1.3,0.2c2.6,0,4.7-2.1,4.7-4.6v-5.8C516.8,48.3,514.7,46.2,512.2,46.2"/>
							<path id="Fill-54" class="st19" d="M500.2,49.2c-0.5,0-0.9,0.1-1.3,0.2c1.9,0.6,3.4,2.3,3.4,4.3v2c0,2.1-1.4,3.8-3.4,4.3
								c0.4,0.1,0.9,0.2,1.3,0.2c2.6,0,4.7-2,4.7-4.6v-1.9C504.8,51.3,502.7,49.2,500.2,49.2"/>
							<path id="Fill-55" class="st19" d="M548.2,46.2c-0.5,0-0.9,0.1-1.3,0.2c1.9,0.6,3.4,2.3,3.4,4.4v5.8c0,2.1-1.4,3.8-3.4,4.4
								c0.4,0.1,0.9,0.2,1.3,0.2c2.6,0,4.7-2.1,4.7-4.6v-5.8C552.8,48.3,550.7,46.2,548.2,46.2"/>
							<path id="Fill-56" class="st19" d="M560.2,49.2c-0.5,0-0.9,0.1-1.3,0.2c1.9,0.6,3.4,2.3,3.4,4.3v2c0,2.1-1.4,3.8-3.4,4.3
								c0.4,0.1,0.9,0.2,1.3,0.2c2.6,0,4.7-2,4.7-4.6v-1.9C564.8,51.3,562.7,49.2,560.2,49.2"/>
							<path id="Fill-57" class="st19" d="M536.2,67.2c-0.5,0-0.9,0.1-1.3,0.2c1.9,0.6,3.4,2.3,3.4,4.4v5.8c0,2.1-1.4,3.8-3.4,4.4
								c0.4,0.1,0.9,0.2,1.3,0.2c2.6,0,4.7-2.1,4.7-4.6v-5.8C540.8,69.3,538.7,67.2,536.2,67.2"/>
							<path id="Fill-58" class="st19" d="M524.2,67.2c-0.5,0-0.9,0.1-1.3,0.2c1.9,0.6,3.4,2.3,3.4,4.4v5.8c0,2.1-1.4,3.8-3.4,4.4
								c0.4,0.1,0.9,0.2,1.3,0.2c2.6,0,4.7-2.1,4.7-4.6v-5.8C528.8,69.3,526.7,67.2,524.2,67.2"/>
							<path id="Fill-59" class="st19" d="M512.2,67.2c-0.5,0-0.9,0.1-1.3,0.2c1.9,0.6,3.4,2.3,3.4,4.4v5.8c0,2.1-1.4,3.8-3.4,4.4
								c0.4,0.1,0.9,0.2,1.3,0.2c2.6,0,4.7-2.1,4.7-4.6v-5.8C516.8,69.3,514.7,67.2,512.2,67.2"/>
							<path id="Fill-60" class="st19" d="M500.2,67.2c-0.5,0-0.9,0.1-1.3,0.2c1.9,0.5,3.4,2.2,3.4,4.3v3.1c0,2-1.4,3.7-3.4,4.3
								c0.4,0.1,0.9,0.2,1.3,0.2c2.6,0,4.7-2,4.7-4.5v-3.1C504.8,69.2,502.7,67.2,500.2,67.2"/>
							<path id="Fill-61" class="st19" d="M548.2,67.2c-0.5,0-0.9,0.1-1.3,0.2c1.9,0.6,3.4,2.3,3.4,4.4v5.8c0,2.1-1.4,3.8-3.4,4.4
								c0.4,0.1,0.9,0.2,1.3,0.2c2.6,0,4.7-2.1,4.7-4.6v-5.8C552.8,69.3,550.7,67.2,548.2,67.2"/>
							<path id="Fill-62" class="st19" d="M560.2,67.2c-0.5,0-0.9,0.1-1.3,0.2c1.9,0.6,3.4,2.3,3.4,4.4v5.8c0,2.1-1.4,3.8-3.4,4.4
								c0.4,0.1,0.9,0.2,1.3,0.2c2.6,0,4.7-2.1,4.7-4.6v-5.8C564.8,69.3,562.7,67.2,560.2,67.2"/>
							<path id="Fill-63" class="st14" d="M535.8,46.5c-2.1,0-3.8,1.7-3.8,3.9v5.7c0,2.1,1.7,3.9,3.8,3.9c2.1,0,3.8-1.7,3.8-3.9
								v-5.7C539.6,48.2,537.9,46.5,535.8,46.5z M535.8,61.2c-2.8,0-5-2.3-5-5.2v-5.7c0-2.8,2.2-5.2,5-5.2s5,2.3,5,5.2V56
								C540.8,58.9,538.6,61.2,535.8,61.2z"/>
							<path id="Fill-64" class="st14" d="M523.8,46.5c-2.1,0-3.8,1.7-3.8,3.9v5.7c0,2.1,1.7,3.9,3.8,3.9c2.1,0,3.8-1.7,3.8-3.9
								v-5.7C527.6,48.2,525.9,46.5,523.8,46.5z M523.8,61.2c-2.8,0-5-2.3-5-5.2v-5.7c0-2.8,2.2-5.2,5-5.2s5,2.3,5,5.2V56
								C528.8,58.9,526.6,61.2,523.8,61.2z"/>
							<path id="Fill-65" class="st14" d="M511.8,46.5c-2.1,0-3.8,1.7-3.8,3.9v5.7c0,2.1,1.7,3.9,3.8,3.9c2.1,0,3.8-1.7,3.8-3.9
								v-5.7C515.6,48.2,513.9,46.5,511.8,46.5z M511.8,61.2c-2.8,0-5-2.3-5-5.2v-5.7c0-2.8,2.2-5.2,5-5.2c2.8,0,5,2.3,5,5.2V56
								C516.8,58.9,514.6,61.2,511.8,61.2z"/>
							<path id="Fill-66" class="st14" d="M500.8,50.5c-2.1,0-3.8,1.7-3.8,3.8v1.8c0,2.1,1.7,3.8,3.8,3.8c2.1,0,3.8-1.7,3.8-3.8
								v-1.8C504.6,52.2,502.9,50.5,500.8,50.5z M500.8,61.2c-2.8,0-5-2.3-5-5.1v-1.8c0-2.8,2.2-5.1,5-5.1s5,2.3,5,5.1v1.8
								C505.8,59,503.6,61.2,500.8,61.2z"/>
							<path id="Fill-67" class="st14" d="M547.8,46.5c-2.1,0-3.8,1.7-3.8,3.9v5.7c0,2.1,1.7,3.9,3.8,3.9c2.1,0,3.8-1.7,3.8-3.9
								v-5.7C551.6,48.2,549.9,46.5,547.8,46.5z M547.8,61.2c-2.8,0-5-2.3-5-5.2v-5.7c0-2.8,2.2-5.2,5-5.2s5,2.3,5,5.2V56
								C552.8,58.9,550.6,61.2,547.8,61.2z"/>
							<path id="Fill-68" class="st14" d="M559.8,50.5c-2.1,0-3.8,1.7-3.8,3.8v1.8c0,2.1,1.7,3.8,3.8,3.8s3.8-1.7,3.8-3.8v-1.8
								C563.6,52.2,561.9,50.5,559.8,50.5z M559.8,61.2c-2.8,0-5-2.3-5-5.1v-1.8c0-2.8,2.2-5.1,5-5.1c2.8,0,5,2.3,5,5.1v1.8
								C564.8,59,562.6,61.2,559.8,61.2z"/>
							<path id="Fill-69" class="st14" d="M535.8,68.5c-2.1,0-3.8,1.7-3.8,3.9v5.7c0,2.1,1.7,3.9,3.8,3.9s3.8-1.7,3.8-3.9v-5.7
								C539.6,70.2,537.9,68.5,535.8,68.5z M535.8,83.2c-2.8,0-5-2.3-5-5.2v-5.7c0-2.8,2.2-5.2,5-5.2s5,2.3,5,5.2V78
								C540.8,80.9,538.6,83.2,535.8,83.2z"/>
							<path id="Fill-70" class="st14" d="M523.8,68.5c-2.1,0-3.8,1.7-3.8,3.9v5.7c0,2.1,1.7,3.9,3.8,3.9c2.1,0,3.8-1.7,3.8-3.9
								v-5.7C527.6,70.2,525.9,68.5,523.8,68.5z M523.8,83.2c-2.8,0-5-2.3-5-5.2v-5.7c0-2.8,2.2-5.2,5-5.2s5,2.3,5,5.2V78
								C528.8,80.9,526.6,83.2,523.8,83.2z"/>
							<path id="Fill-71" class="st14" d="M511.8,68.5c-2.1,0-3.8,1.7-3.8,3.9v5.7c0,2.1,1.7,3.9,3.8,3.9c2.1,0,3.8-1.7,3.8-3.9
								v-5.7C515.6,70.2,513.9,68.5,511.8,68.5z M511.8,83.2c-2.8,0-5-2.3-5-5.2v-5.7c0-2.8,2.2-5.2,5-5.2c2.8,0,5,2.3,5,5.2V78
								C516.8,80.9,514.6,83.2,511.8,83.2z"/>
							<path id="Fill-72" class="st14" d="M500.8,68.5c-2.1,0-3.8,1.7-3.8,3.8v3c0,2.1,1.7,3.8,3.8,3.8c2.1,0,3.8-1.7,3.8-3.8v-3
								C504.6,70.1,502.9,68.5,500.8,68.5z M500.8,80.2c-2.8,0-5-2.2-5-5v-3c0-2.7,2.2-5,5-5s5,2.2,5,5v3
								C505.8,78,503.6,80.2,500.8,80.2z"/>
							<path id="Fill-73" class="st14" d="M547.8,68.5c-2.1,0-3.8,1.7-3.8,3.9v5.7c0,2.1,1.7,3.9,3.8,3.9c2.1,0,3.8-1.7,3.8-3.9
								v-5.7C551.6,70.2,549.9,68.5,547.8,68.5z M547.8,83.2c-2.8,0-5-2.3-5-5.2v-5.7c0-2.8,2.2-5.2,5-5.2s5,2.3,5,5.2V78
								C552.8,80.9,550.6,83.2,547.8,83.2z"/>
							<path id="Fill-74" class="st14" d="M559.8,68.5c-2.1,0-3.8,1.7-3.8,3.9v5.7c0,2.1,1.7,3.9,3.8,3.9s3.8-1.7,3.8-3.9v-5.7
								C563.6,70.2,561.9,68.5,559.8,68.5z M559.8,83.2c-2.8,0-5-2.3-5-5.2v-5.7c0-2.8,2.2-5.2,5-5.2s5,2.3,5,5.2V78
								C564.8,80.9,562.6,83.2,559.8,83.2z"/>
							<path id="Fill-75" class="st16" d="M530.3,42.2c-23.5,0-42.5,10.5-42.5,23.5s19,23.5,42.5,23.5c23.5,0,42.5-10.5,42.5-23.5
								C572.8,52.8,553.8,42.2,530.3,42.2z M530.3,50.1c9.6,0,18.9,2.1,25.5,5.7c5.3,2.9,8.3,6.5,8.3,9.9c0,3.4-3,7-8.3,9.9
								c-6.6,3.6-15.9,5.7-25.5,5.7c-9.6,0-18.9-2.1-25.5-5.7c-5.3-2.9-8.3-6.5-8.3-9.9c0-3.4,3-7,8.3-9.9
								C511.4,52.2,520.7,50.1,530.3,50.1z"/>
							<path id="Fill-76" class="st20" d="M504.6,54.9c6.3-3.5,15.1-5.5,24.2-5.6c-0.4,0-0.8,0-1.3,0c-9.6,0-18.9,2.1-25.5,5.7
								c-5.3,2.9-8.3,6.5-8.3,9.8c0,3.3,3,6.9,8.3,9.8c6.6,3.6,15.9,5.7,25.5,5.7c0.4,0,0.8,0,1.3,0c-9.2-0.2-17.9-2.2-24.2-5.6
								c-5.3-2.9-8.3-6.5-8.3-9.8C496.3,61.6,499.4,57.8,504.6,54.9"/>
							<path id="Fill-77" class="st20" d="M530.1,42.2c-0.4,0-0.8,0-1.3,0c23,0.4,41.5,10.7,41.5,23.5c0,12.7-18.5,23.1-41.5,23.5
								c0.4,0,0.8,0,1.3,0c23.6,0,42.7-10.5,42.7-23.5C572.8,52.8,553.7,42.2,530.1,42.2"/>
							<path id="Fill-78" class="st14" d="M530.3,50.3c-9.6,0-18.9,2-25.4,5.6c-5.1,2.8-8,6.2-8,9.3c0,3.1,2.9,6.5,8,9.3
								c6.5,3.6,15.8,5.6,25.4,5.6c9.6,0,18.9-2,25.4-5.6c5.1-2.8,8-6.2,8-9.3c0-3.1-2.9-6.5-8-9.3
								C549.2,52.4,539.9,50.3,530.3,50.3z M530.3,81.4c-9.8,0-19.3-2.1-26-5.8c-5.5-3-8.7-6.8-8.7-10.4c0-3.6,3.2-7.4,8.7-10.4
								c6.7-3.7,16.2-5.8,26-5.8s19.3,2.1,26,5.8c5.5,3,8.7,6.8,8.7,10.4c0,3.6-3.2,7.4-8.7,10.4C549.6,79.3,540.1,81.4,530.3,81.4z
								 M530.3,42.5c-23.3,0-42.2,10.2-42.2,22.8s18.9,22.8,42.2,22.8c23.3,0,42.2-10.2,42.2-22.8S553.6,42.5,530.3,42.5z
								 M530.3,89.2c-24,0-43.5-10.8-43.5-24s19.5-24,43.5-24c24,0,43.5,10.8,43.5,24C573.8,78.5,554.3,89.2,530.3,89.2z"/>
							<path id="Fill-79" class="st21" d="M567.8,80.3c0-4.5-3.3-8.2-7.6-8.9c-1.1,1.1-2.5,2.1-4.1,3.1l-1.1,0v-2.8
								c0-0.1,0-0.3,0-0.4h-3c0,0.1,0,0.3,0,0.4v2.8l-8.9,0v-2.8c0-0.1,0-0.3,0-0.4h-3c0,0.1,0,0.3,0,0.4v2.8h-8.9v-2.8
								c0-0.1,0-0.3,0-0.4h-3c0,0.1,0,0.3,0,0.4v2.8l-8.9,0v-2.8c0-0.1,0-0.3,0-0.4h-3c0,0.1,0,0.3,0,0.4v2.8h-8.9v-2.8
								c0-0.1,0-0.2,0-0.3c-1.1,0.2-2.1,0.5-3,1v2.1h-2.6c-1.3,1.6-2.1,3.6-2.1,5.8c0,0.2,0,0.4,0,0.5c0,0.2,0,0.4,0,0.5l0,49.6
								c0,5.6,4.6,10.1,10.1,10.1c2.4,0,4.7-0.9,6.4-2.3v16.4c0,5.6,4.6,10.1,10.1,10.1s10.1-4.6,10.1-10.1v-38.8
								c1.8,1.4,4,2.3,6.4,2.3c5.6,0,10.1-4.6,10.1-10.1v-3.4c1.4,0.7,2.9,1.1,4.5,1.1c5.6,0,10.1-4.6,10.1-10.1V81.4
								c0-0.2,0-0.4,0-0.5C567.8,80.6,567.8,80.5,567.8,80.3"/>
							<path id="Fill-80" class="st22" d="M540.9,73.2h2.9v-1.6c0-0.1,0-0.2,0-0.4h-3c0,0.1,0,0.2,0,0.4L540.9,73.2"/>
							<path id="Fill-81" class="st22" d="M516.9,73.2h2.9v-1.6c0-0.1,0-0.2,0-0.4h-3c0,0.1,0,0.2,0,0.4L516.9,73.2"/>
							<path id="Fill-82" class="st22" d="M528.9,73.2h2.9v-1.6c0-0.1,0-0.2,0-0.4h-3c0,0.1,0,0.2,0,0.4L528.9,73.2"/>
							<path id="Fill-83" class="st22" d="M552.9,73.2h0.7c0.8-0.4,1.5-0.9,2.2-1.3v-0.3c0-0.1,0-0.2,0-0.4h-3c0,0.1,0,0.2,0,0.4
								L552.9,73.2"/>
							<path id="Fill-84" class="st22" d="M550.5,104.2v4c0,5.5-4.7,10-10.4,10c-0.4,0-0.8,0-1.2-0.1c1.4,0.7,2.9,1,4.6,1
								c5.7,0,10.4-4.5,10.4-10v-4C552.6,105.1,551.5,104.7,550.5,104.2"/>
							<path id="Fill-85" class="st22" d="M507.8,73.2v-1.7c0-0.1,0-0.2,0-0.3c-1.1,0.2-2.1,0.5-3,0.9v1.1H507.8"/>
							<path id="Fill-86" class="st22" d="M568.8,80.2c0-4.5-3.4-8.3-7.9-9c-0.1,0-0.1,0.1-0.2,0.1c2.8,1.6,4.6,4.5,4.6,7.9
								c0,0.2,0,0.4,0,0.5c0,0.2,0,0.4,0,0.5v14.7c0,5.6-4.7,10.2-10.4,10.2c-0.4,0-0.8,0-1.2-0.1c1.4,0.7,2.9,1.1,4.6,1.1
								c5.7,0,10.4-4.6,10.4-10.2V81.3c0-0.2,0-0.4,0-0.5C568.8,80.6,568.8,80.4,568.8,80.2"/>
							<path id="Fill-87" class="st22" d="M534.5,114.2V155c0,5.6-4.7,10.2-10.4,10.2c-0.4,0-0.8,0-1.2-0.1c1.4,0.7,2.9,1.1,4.6,1.1
								c5.7,0,10.4-4.6,10.4-10.2v-39.9C536.6,115.7,535.5,115,534.5,114.2"/>
							<path id="Fill-88" class="st22" d="M517.8,136.2c-1.8,1.5-8.2,4-10.8,4c-0.4,0-0.8,0-1.2-0.1c1.4,0.7,3,1,4.6,1
								c1.1,0,6.3-1.9,7.4-2.2V136.2"/>
							<path id="Fill-89" class="st14" d="M517,139.3c0.1,0,0.2,0,0.3,0.1c0.2,0.1,0.4,0.3,0.4,0.6v16.5c0,5.3,4.2,9.6,9.5,9.6
								s9.5-4.3,9.5-9.6v-39.2c0-0.2,0.1-0.5,0.4-0.6c0.2-0.1,0.5-0.1,0.7,0.1c1.7,1.4,3.8,2.2,6,2.2c5.2,0,9.5-4.3,9.5-9.6v-3.5
								c0-0.2,0.1-0.4,0.3-0.5s0.4-0.1,0.6,0c1.3,0.7,2.7,1,4.2,1c5.2,0,9.5-4.3,9.5-9.6V82.1c0-0.1,0-0.2,0-0.3v-0.2v-0.2
								c0-0.1,0-0.2,0-0.4c0-4-2.9-7.5-6.8-8.3c-1.1,1.1-2.5,2.1-4,3c-0.1,0.1-0.2,0.1-0.3,0.1h-1.1c-0.3,0-0.6-0.3-0.6-0.6v-2.6
								h-1.7v2.6c0,0.3-0.3,0.6-0.6,0.6h-8.9c-0.3,0-0.6-0.3-0.6-0.6v-2.6h-1.7v2.6c0,0.3-0.3,0.6-0.6,0.6h-8.9
								c-0.3,0-0.6-0.3-0.6-0.6v-2.6h-1.7v2.6c0,0.3-0.3,0.6-0.6,0.6h-8.9c-0.3,0-0.6-0.3-0.6-0.6v-2.6H518v2.6
								c0,0.3-0.3,0.6-0.6,0.6l-8.9,0c-0.3,0-0.6-0.3-0.6-0.6v-2.3c-0.6,0.1-1.1,0.4-1.7,0.6v1.7c0,0.3-0.3,0.6-0.6,0.6h-2.2
								c-1.2,1.5-1.8,3.3-1.8,5.2c0,0.1,0,0.2,0,0.3v0.2v0.2c0,0.1,0,0.2,0,0.3l0,50c0,5.3,4.2,9.6,9.5,9.6c2.2,0,4.3-0.8,6-2.2
								C516.7,139.3,516.8,139.3,517,139.3z M527.1,167.2c-5.9,0-10.7-4.9-10.7-10.8v-15.3c-1.7,1.1-3.7,1.7-5.8,1.7
								c-5.9,0-10.7-4.9-10.7-10.8l0-50c0-0.1,0-0.3,0-0.4v-0.2v-0.1c0-0.1,0-0.3,0-0.4c0-2.3,0.8-4.5,2.3-6.3
								c0.1-0.1,0.3-0.2,0.5-0.2h1.9v-1.5c0-0.2,0.1-0.4,0.3-0.6c1-0.5,2-0.9,3.2-1.1c0.2,0,0.4,0,0.5,0.2c0.1,0.1,0.2,0.3,0.2,0.5
								v0.2v2.3l7.7,0v-2.2c0-0.1,0-0.1,0-0.2v-0.2c0-0.2,0-0.4,0.2-0.5c0.1-0.1,0.3-0.2,0.5-0.2h3c0.2,0,0.3,0.1,0.5,0.2
								c0.1,0.1,0.2,0.3,0.2,0.5V72c0,0.1,0,0.1,0,0.2v2.2h7.7v-2.2c0-0.1,0-0.1,0-0.2v-0.2c0-0.2,0-0.4,0.2-0.5
								c0.1-0.1,0.3-0.2,0.5-0.2h3c0.2,0,0.3,0.1,0.5,0.2c0.1,0.1,0.2,0.3,0.2,0.5V72c0,0.1,0,0.1,0,0.2v2.2h7.7v-2.2
								c0-0.1,0-0.1,0-0.2v-0.2c0-0.2,0-0.4,0.2-0.5c0.1-0.1,0.3-0.2,0.5-0.2h3c0.2,0,0.4,0.1,0.5,0.2s0.2,0.3,0.2,0.5V72
								c0,0.1,0,0.1,0,0.2v2.2h7.7v-2.2c0-0.1,0-0.1,0-0.2v-0.2c0-0.2,0-0.4,0.2-0.5c0.1-0.1,0.3-0.2,0.5-0.2h3
								c0.2,0,0.3,0.1,0.5,0.2c0.1,0.1,0.2,0.3,0.2,0.5V72c0,0.1,0,0.1,0,0.2v2.2h0.3c1.5-0.9,2.8-1.9,3.9-2.9
								c0.1-0.1,0.3-0.2,0.5-0.2c4.6,0.7,8.1,4.9,8.1,9.6c0,0.2,0,0.3,0,0.5v0.1v0.1c0,0.1,0,0.3,0,0.4v14.7c0,6-4.8,10.8-10.7,10.8
								c-1.3,0-2.6-0.2-3.8-0.7v2.5c0,6-4.8,10.8-10.7,10.8c-2,0-4.1-0.6-5.8-1.7v37.9C537.8,162.4,533,167.2,527.1,167.2z"/>
							<path id="Fill-90" class="st21" d="M604.8-85.4L604.8-85.4L604.8-85.4c-3.6-7.5-8.2-13.2-8.2-13.2c-2.2-10.3-8.8-9-8.8-9
								c-0.4-10.3-9.6-9.6-9.6-9.6c-2.6-5.4-9.7-7.3-9.7-7.3c-14-4.6-14.9,4.2-14.9,4.2l0.4,0.2l-8.2,6.3c0.6,1.2,1.3,2.4,2.3,3.4
								c1.2,1.2,2.6,2.1,4.1,2.6c0.4,4,1.9,7.7,1.9,7.7h0.2c-3.2,4.5-2.8,10.9,1.3,14.9c4.3,4.3,11.1,4.5,15.6,0.6
								c-3.9,4.6-3.7,11.4,0.6,15.7c3.6,3.7,9.1,4.4,13.5,2.1c0,0,2.3-1.6,2.8-2.1h5.4c0.2,2.7,1.3,5.4,3.3,7.5
								c1.1,1.1,2.3,1.9,3.6,2.5l8.1-9.1C609.4-73.6,607.4-79.9,604.8-85.4"/>
							<path id="Fill-91" class="st22" d="M570.1-116.8c0.4,0.7,0.8,1.4,1.1,2.1c1.2,2.5,2.6,4.9,4.2,7.2c0.3,0.4,0.6,0.8,1.1,0.7
								c0.2,0,0.3-0.2,0.5-0.3c0.7-0.6,1.3-1.3,1.6-2.1c0.2-0.6,0.2-1.3,0.2-2c0-1-0.1-2.1-0.2-3.1c-1.7-0.3-3-1.7-4.3-2.9
								c-0.7-0.7-1.4-1.4-2.2-2c-0.6-0.5-1.2-1-2-1.3c-0.7-0.3-1.5-0.3-2.3-0.2c-1.4,0.1-2.7,0.3-4,0.7
								C566.3-120.1,568.7-118.8,570.1-116.8"/>
							<path id="Fill-92" class="st22" d="M563.9-119.8L563.9-119.8L563.9-119.8L563.9-119.8"/>
							<path id="Fill-93" class="st22" d="M588.7-80.3l-1.3,2.9l-0.5,9.6h4.7c0,0,0.3-3.7,0.3-9.3C591.8-82.6,588.7-80.3,588.7-80.3
								"/>
							<path id="Fill-94" class="st22" d="M608.6-74.3l-2.3-9l-6-10.6l-3.4-4.9v6.4l-0.8,3l-2.2,1.9l2,2.2l0.4,3.2l0.1,0.2l-1.2,3.5
								l-0.9,3.8l0.3,0.7l1.3-0.3c0,0,3.3-2,3.4-4.1l0.1,2.2v0.5c0,0,1.8,13.4,9.4,7.2L608.6-74.3"/>
							<path id="Fill-95" class="st22" d="M593.8-105.2c-2.9-4-5.9-2.2-5.9-2.2l4.9,9.6C592.7-97.8,596.7-101.1,593.8-105.2"/>
							<path id="Fill-96" class="st22" d="M585.8-97.8c0,0-13.4-3.4-17.6-9.4c-4.2-6-4.4,0-4.4,0l1.7,3l4.9,3L585.8-97.8"/>
							<path id="Fill-97" class="st22" d="M587.9-95.8l-2.5,3.9l-5.6,3.7l-9,0.8c0,0,8.5,8.9,14.5,4.3
								C591.2-87.6,587.9-95.8,587.9-95.8"/>
							<path id="Fill-98" class="st14" d="M577.5-106.8c-0.1,0-0.2,0-0.3-0.1c-0.3-0.2-0.4-0.5-0.3-0.8c1.8-3.6,2.1-6.8,0.9-9.5
								c-2.4-5.1-9.4-7-9.5-7.1c-5.2-1.6-9.2-1.7-11.7-0.1c-2.3,1.4-2.5,3.7-2.5,3.7c0,0.3-0.4,0.6-0.7,0.5c-0.3,0-0.6-0.3-0.6-0.7
								c0-0.1,0.3-2.9,3.1-4.6c2.9-1.8,7.1-1.8,12.7,0c0.3,0.1,7.7,2.1,10.3,7.7c1.4,3.1,1.1,6.7-0.9,10.6
								C578-106.9,577.7-106.8,577.5-106.8"/>
							<path id="Fill-99" class="st14" d="M554.5-98.8c-0.2,0-0.5-0.1-0.6-0.4c-0.2-0.6-5.6-13.7,2-17.1l1.7-0.8
								c6.2-2.8,10.3-4.7,13.6,1c0.5,0.9,1,1.8,1.5,2.7c1.8,3.3,3.6,6.8,5.3,7c0.6,0.1,1.2-0.3,1.8-1.1c0.2-0.3,0.6-0.3,0.9-0.1
								c0.3,0.2,0.3,0.6,0.1,0.9c-0.9,1.1-1.9,1.6-2.9,1.5c-2.3-0.2-4.2-3.7-6.3-7.6c-0.5-0.9-1-1.8-1.5-2.7
								c-2.6-4.6-5.4-3.5-12-0.5l-1.7,0.8c-6.5,2.9-1.4,15.4-1.4,15.5c0.1,0.3,0,0.7-0.3,0.8C554.7-98.8,554.6-98.8,554.5-98.8"/>
							<path id="Fill-100" class="st14" d="M573.9-86.8c-2.8,0-4.8-0.6-5-0.6c-0.3-0.1-0.5-0.4-0.4-0.8c0.1-0.3,0.4-0.5,0.8-0.4
								c0.1,0,9.4,2.6,15-3.7c1.7-1.9,2.5-3.2,2.3-3.9c-0.3-1.1-3.4-1.6-7.3-2.3c-1.8-0.3-3.8-0.7-6-1.1c-4.7-1-7.8-2.8-9.4-5.5
								c-1.6-2.7-0.9-5.2-0.8-5.3c0.1-0.3,0.4-0.5,0.8-0.4c0.3,0.1,0.5,0.5,0.4,0.8c0,0.1-0.6,2.1,0.7,4.3c1.4,2.3,4.3,4,8.6,4.9
								c2.2,0.5,4.2,0.8,6,1.1c5,0.9,7.7,1.3,8.3,3.1c0.4,1.2-0.3,2.7-2.5,5.2C581.8-87.6,577.3-86.8,573.9-86.8"/>
							<path id="Fill-101" class="st14" d="M594.8-73.8c-0.2,0-0.5-0.1-0.7-0.2c-0.9-0.6-0.7-2.2,0.6-5.4c1-2.6,1.2-4.7,0.5-6.1
								c-0.7-1.3-1.9-1.6-1.9-1.6c-0.3-0.1-0.5-0.3-0.5-0.6c0-0.3,0.2-0.5,0.5-0.6c0,0,1.3-0.2,2.2-1.7c1.2-1.8,1.4-4.8,0.6-8.6
								c-2-9.5-7.9-8.4-8-8.4c-0.2,0-0.4,0-0.5-0.1s-0.2-0.3-0.2-0.5c-0.1-3-1-5.3-2.7-6.9c-2.6-2.3-6.1-2.1-6.2-2.1
								c-0.3,0-0.6-0.2-0.7-0.6s0.2-0.6,0.6-0.7c0.2,0,4.1-0.3,7.1,2.4c1.8,1.6,2.9,4,3.1,7.1c0,0,0,0,0.1,0c1.9,0,6.8,0.9,8.7,9.4
								c0.9,4.3,0.6,7.5-0.8,9.6c-0.5,0.8-1.1,1.3-1.6,1.6c0.5,0.3,1,0.8,1.4,1.5c0.9,1.8,0.8,4.2-0.4,7.2c-1.3,3.3-1,3.9-1,4
								c0.1,0,0.8-0.4,1.2-0.8c0.3-0.2,0.7-0.2,0.9,0.1c0.2,0.3,0.2,0.7-0.1,0.9C596.5-74.5,595.6-73.8,594.8-73.8"/>
							<path id="Fill-102" class="st14" d="M592.2-95.8c-0.3,0-0.5-0.2-0.6-0.4c0-0.1-4.7-13.6-9.5-17.4c-0.3-0.2-0.3-0.6-0.1-0.9
								c0.2-0.3,0.6-0.3,0.9-0.1c5.1,4.1,9.8,17.5,10,18c0.1,0.3-0.1,0.7-0.4,0.8C592.4-95.8,592.3-95.8,592.2-95.8"/>
							<path id="Fill-103" class="st14" d="M587.5-67.8c-0.4,0-0.6-0.3-0.6-0.6c0-0.3,0.3-0.6,0.6-0.6h7.3c0.1,0,2.7-0.4,3.7-5.8
								c1-5.4-2.7-6.8-2.8-6.8c-0.3-0.1-0.5-0.5-0.4-0.8s0.5-0.5,0.8-0.4c0,0,4.8,1.7,3.6,8.2c-1.2,6.4-4.7,6.8-4.9,6.8H587.5"/>
							<path id="Fill-104" class="st14" d="M585.5-64.8c-0.3,0-0.6-0.2-0.6-0.6c0-0.3,0.2-0.7,0.5-0.7c0,0,2.1-0.6,1.9-7.4
								c-0.3-8.2,3.7-9.2,3.8-9.3c0.3-0.1,0.7,0.1,0.7,0.5c0.1,0.3-0.1,0.7-0.4,0.8c-0.1,0-3.1,1-2.9,8
								C588.8-65.4,585.9-64.8,585.5-64.8L585.5-64.8"/>
							<path id="Fill-105" class="st14" d="M609.1-66.8C609-66.8,609-66.8,609.1-66.8c-0.4,0-0.7-0.4-0.6-0.7
								c1.6-13.3-12.3-30.1-12.4-30.3c-0.2-0.3-0.2-0.7,0.1-0.9s0.7-0.2,0.9,0.1c0.6,0.7,14.4,17.3,12.7,31.2
								C609.7-67,609.4-66.8,609.1-66.8"/>
							<path id="Fill-106" class="st14" d="M605.7-65.8c-0.2,0-0.4-0.1-0.5-0.3c-1.7-2.3-2.4-4.6-2-6.8c0.4-2.1,1.6-3.6,2.6-4.5
								c-3.5-1-3.8-3.9-4.1-6.5c-0.1-0.9-0.2-1.8-0.4-2.6c-0.8-3.3-4.9-4.1-5-4.1c-0.3-0.1-0.6-0.4-0.5-0.7s0.4-0.6,0.7-0.5
								c0.2,0,4.9,1,5.9,5c0.2,0.9,0.3,1.9,0.4,2.8c0.3,2.9,0.6,5.1,4.3,5.7c0.3,0,0.5,0.2,0.5,0.5c0.1,0.3-0.1,0.5-0.3,0.7
								c0,0-2.6,1.7-3.1,4.5c-0.3,1.9,0.3,3.8,1.7,5.8c0.2,0.3,0.1,0.7-0.1,0.9C606-65.8,605.8-65.8,605.7-65.8"/>
							<path id="Fill-107" class="st14" d="M588.3-69.9h5.5c0.3,0,0.6,0.3,0.6,0.6c0.2,2.7,1.3,5.2,3.2,7c0.9,0.9,1.9,1.6,3.1,2.1
								l7.8-8.6c0.5-4.8-0.8-10.4-4-16.9l0,0c-3.6-7.3-8.2-13-8.3-13c-0.1-0.1-0.1-0.2-0.1-0.3c-2-9.5-8.1-8.5-8.1-8.4
								c-0.2,0-0.4,0-0.5-0.1s-0.2-0.3-0.2-0.5c-0.1-3-1-5.4-2.8-6.9c-2.6-2.3-6.2-2.1-6.3-2.1c-0.3,0-0.5-0.1-0.6-0.3
								c-2.5-5.1-9.3-6.9-9.4-7c-5.2-1.7-9.2-1.7-11.7-0.1c-1.7,1.1-2.3,2.7-2.5,3.4l0,0c0.2,0.1,0.3,0.3,0.3,0.5s-0.1,0.4-0.2,0.5
								l-7.8,5.9c0.5,1,1.2,2,2,2.8c1.1,1.1,2.4,1.9,3.9,2.5c0.2,0.1,0.4,0.3,0.4,0.5c0.3,3.1,1.4,6.1,1.8,7.2
								c0.1,0,0.2,0.1,0.2,0.2c0.2,0.2,0.2,0.5,0,0.7c-3.1,4.4-2.6,10.3,1.2,14.1c4,4,10.6,4.3,15,0.6c0.2-0.2,0.6-0.2,0.9,0
								c0.2,0.2,0.2,0.6,0,0.8c-3.7,4.3-3.4,10.8,0.6,14.8c3.4,3.4,8.6,4.2,12.9,2c0.8-0.6,2.4-1.6,2.7-2
								C588-69.8,588.2-69.9,588.3-69.9z M600.9-58.8c-0.1,0-0.2,0-0.2-0.1c-1.5-0.6-2.8-1.5-3.9-2.6c-2-2-3.2-4.5-3.5-7.3h-4.7
								c-0.7,0.6-2.5,1.8-2.7,2c-4.9,2.5-10.6,1.6-14.5-2.2c-3.8-3.7-4.6-9.4-2.3-14c-4.6,2.2-10.4,1.4-14.1-2.3
								c-4.1-4.1-4.8-10.4-1.6-15.2c-0.3-0.8-1.5-3.9-1.9-7.3c-1.5-0.6-2.9-1.5-4-2.6c-1-1-1.9-2.2-2.5-3.6c-0.1-0.3,0-0.6,0.2-0.8
								l7.6-5.7c0-0.1-0.1-0.2,0-0.3c0-0.1,0.3-2.9,3.1-4.7c2.9-1.8,7.2-1.8,12.8,0c0.3,0.1,7.1,2,10,7.2l0,0c1.9,0,9.3,0.6,9.9,9.5
								c1.8,0,7,0.8,8.8,9.3c0.7,0.9,4.9,6.2,8.3,13c0.1,0.1,0.1,0.2,0.1,0.3c3.2,6.7,4.6,12.6,4,17.6c0,0.1-0.1,0.2-0.2,0.3
								l-8.2,9.1C601.2-58.8,601.1-58.8,600.9-58.8z"/>
						</g>
					</g>
					<g id="carnaval" transform="translate(315.171710, 278.643164) rotate(-10.000000) translate(-315.171710, -278.643164) ">
						<g>
							<g class="st3">
								<text transform="matrix(1 0 0 1 211.8067 108.1833)" class="st23 st10 st24">carnaval</text>
							</g>
						</g>
						<g>
							<g class="st3">
								<text transform="matrix(1 0 0 1 211.8067 108.1833)" class="st23 st10 st24">carnaval</text>
							</g>
						</g>
					</g>
					<g id="Halloween" transform="translate(201.171710, 223.643164) rotate(-10.000000) translate(-201.171710, -223.643164) ">
						<g>
							<g class="st3">
								<text transform="matrix(1 0 0 1 85.4631 56.5988)" class="st23 st25 st26">Halloween</text>
							</g>
						</g>
					</g>
				</g>
			</g>
			<title>disco_ball</title>
			<desc>Created with Sketch.</desc>
			<g id="disco_ball">
				
					<image style="overflow:visible;enable-background:new    ;" width="627" height="626" xlink:href="6DF7E36E2C515D63.png"  transform="matrix(0.6498 0.3122 -0.3122 0.6498 -115.4404 76.4398)">
				</image>
			</g>
		</g>
	</g>
</g>
</svg>
