<?xml version="1.0" encoding="utf-8"?>
<!-- Generator: Adobe Illustrator 22.1.0, SVG Export Plug-In . SVG Version: 6.00 Build 0)  -->
<svg version="1.1" id="Layer_1" xmlns="http://www.w3.org/2000/svg" xmlns:xlink="http://www.w3.org/1999/xlink" x="0px" y="0px"
	 viewBox="0 0 525 525" style="enable-background:new 0 0 525 525;" xml:space="preserve">
<style type="text/css">
	.st0{fill:#EE509A;}
	.st1{display:none;}
	.st2{display:inline;}
	.st3{enable-background:new    ;}
	.st4{fill:#FFFFFF;}
	.st5{font-family:'Gobold';}
	.st6{font-size:31.9972px;}
	.st7{font-family:'Roboto-Regular';}
	.st8{font-size:13.9988px;}
	.st9{fill:#3D1717;}
	.st10{fill:#A5CD6F;}
	.st11{fill:#C06539;}
	.st12{fill:#F0F2C3;}
	.st13{fill:#F6DE5E;}
	.st14{fill:#CFAF31;}
	.st15{fill:#9B4B2C;}
	.st16{fill:#F2BEBA;}
	.st17{fill:#EB958E;}
	.st18{fill:#F8E71C;}
	.st19{font-family:'GoboldBoldItalic-Italic';}
	.st20{font-size:64px;}
	.st21{font-family:'GoboldCUTS-Italic';}
	.st22{font-size:60px;}
	.st23{fill:#7E3BEB;}
	.st24{fill:#2ADFDF;}
</style>
<title>header-right</title>
<desc>Created with Sketch.</desc>
<g id="_x31_.-Header" transform="translate(-1395.000000, 0.000000)">
	<g id="header-right" transform="translate(1409.000000, 198.000000)">
		<g id="Image">
			<rect id="path-1_1_" x="-15.1" y="-198" class="st0" width="531.4" height="525"/>
		</g>
		<g transform="translate(395.740088, 611.740088) rotate(56.000000) translate(-395.740088, -611.740088) ">
		</g>
		<g id="Time_1_" class="st1">
			
				<g transform="translate(276.736904, 342.347239) rotate(-9.000000) translate(-276.736904, -342.347239) translate(190.236904, 306.847239)" class="st2">
				<g id="Time" transform="translate(0.000000, 1.000000)">
					<g class="st3">
						<text transform="matrix(0.9999 -1.068671e-02 1.068671e-02 0.9999 49.8122 -174.9081)" class="st4 st5 st6">17</text>
					</g>
					<g class="st3">
						<text transform="matrix(0.9999 -1.068671e-02 1.068671e-02 0.9999 49.972 -159.9085)" class="st4 st7 st8">Days</text>
					</g>
				</g>
				<g id="Hours" transform="translate(61.000000, 1.000000)">
					<g class="st3">
						<text transform="matrix(0.9999 -1.068671e-02 1.068671e-02 0.9999 49.8082 -175.5595)" class="st4 st5 st6">21</text>
					</g>
					<g class="st3">
						<text transform="matrix(0.9999 -1.068671e-02 1.068671e-02 0.9999 49.9685 -160.5603)" class="st4 st7 st8">Hours</text>
					</g>
				</g>
				<g id="Minutes" transform="translate(122.000000, 0.000000)">
					<g class="st3">
						<text transform="matrix(0.9999 -1.068671e-02 1.068671e-02 0.9999 49.7946 -176.2113)" class="st4 st5 st6">45</text>
					</g>
					<g class="st3">
						<text transform="matrix(0.9999 -1.068671e-02 1.068671e-02 0.9999 49.9651 -160.2122)" class="st4 st7 st8">Minutes</text>
					</g>
				</g>
			</g>
		</g>
		<g transform="translate(-7.000000, -30.000000)">
			<g id="Group-42" transform="translate(51.000000, 0.000000)">
				
					<g id="Group" transform="translate(301.335433, 309.479136) rotate(-55.000000) translate(-301.335433, -309.479136) translate(64.835433, 107.979136)">
					<g class="st3">
						<text transform="matrix(0.788 -0.6157 0.6157 0.788 656.0588 323.8072)" class="st24 st19" style="font-size:24px;">October </text>
					</g>
					<g class="st3">
						<text transform="matrix(0.788 -0.6157 0.6157 0.788 725.6965 269.4009)" class="st24 st19" style="font-size:30px;">31</text>
					</g>
					<g>
						<text transform="matrix(0.788 -0.6157 0.6157 0.788 751.6223 249.1451)" class="st24 st19" style="font-size:24px;"> </text>
					</g>
					<g class="st3">
						<text transform="matrix(0.788 -0.6157 0.6157 0.788 750.468 250.0469)" class="st24 st19" style="font-size:14px;">st</text>
					</g>
					<path id="Fill-4" class="st9" d="M974.2,530.1c-12.7,0-23-10.2-23-22.8V402.9c0-12.6,10.3-22.8,23-22.8s23,10.2,23,22.8v104.4
						C997.2,519.9,986.9,530.1,974.2,530.1"/>
					<path id="Fill-5" class="st10" d="M1057.4,238c-4.2-4.2-4.5-10.8-0.9-15.4l-7.9,7.9c-4.5,4.5-11.9,4.5-16.4,0
						c-4.3-4.3-4.5-11.2-0.6-15.7c-4.5,3.9-11.4,3.7-15.7-0.6c-4.5-4.5-4.5-11.9,0-16.4l7.9-7.9c-4.5,3.6-11.2,3.3-15.3-0.9
						c-2.2-2.2-3.3-5-3.4-7.9c-3.9-0.6-7.8-0.9-11.8-0.9c-42.4,0-89,34.5-89,76.9l148.5,193.1l17.5-7.5V257.4c0-5.6-0.6-11-1.8-16.3
						C1064.6,242,1060.4,241,1057.4,238"/>
					<path id="Fill-6" class="st9" d="M904.5,256.4l148.7,192.4l16.8-7.2l0-184.8c0-5.2-0.5-10.4-1.6-15.5c-4,0.8-8.2-0.4-11.1-3.3
						c-3.3-3.3-4.4-8.1-3-12.4l-5,4.9c-4.8,4.8-12.6,4.8-17.4,0c-3.8-3.7-4.6-9.4-2.3-14c-4.6,2.2-10.3,1.4-14.1-2.3
						c-2.3-2.3-3.6-5.4-3.6-8.6c0-3.3,1.3-6.3,3.6-8.6l5-4.9c-4.3,1.4-9.1,0.3-12.5-3c-2.1-2.1-3.3-4.8-3.5-7.7
						c-3.7-0.6-7.5-0.8-11.3-0.8C952.3,180.4,904.7,213.6,904.5,256.4z M1053,450.1c-0.2,0-0.4-0.1-0.5-0.2L903.4,257
						c-0.1-0.1-0.1-0.2-0.1-0.4c0-43.6,48.4-77.5,90-77.5c4,0,8,0.3,12,0.9c0.3,0,0.5,0.3,0.5,0.6c0.1,2.8,1.2,5.5,3.2,7.4
						c3.9,3.9,10.2,4.3,14.6,0.9c0.3-0.2,0.6-0.2,0.9,0.1c0.2,0.2,0.2,0.6,0,0.9l-7.9,7.9c-2.1,2.1-3.2,4.8-3.2,7.8
						c0,2.9,1.1,5.7,3.2,7.8c4,4,10.6,4.3,14.9,0.6c0.2-0.2,0.6-0.2,0.9,0c0.2,0.2,0.2,0.6,0,0.8c-3.7,4.3-3.4,10.9,0.6,14.9
						c4.3,4.3,11.3,4.3,15.6,0l7.9-7.9c0.2-0.2,0.6-0.2,0.9,0c0.2,0.2,0.3,0.6,0.1,0.9c-3.4,4.4-3,10.6,0.9,14.5
						c2.7,2.7,6.8,3.8,10.5,2.8c0.2,0,0.3,0,0.5,0.1c0.1,0.1,0.2,0.2,0.3,0.4c1.2,5.4,1.8,10.9,1.8,16.4v185.2
						c0,0.3-0.1,0.5-0.4,0.6l-17.6,7.5C1053.2,450.1,1053.1,450.1,1053,450.1z"/>
					<path id="Fill-7" class="st11" d="M1058.1,237.8c-4.1-4.3-4.5-10.8-0.9-15.3l-7.9,7.8c-0.3,0.3-0.7,0.6-1.1,0.9
						c-4.6,3.5-11.2,3.2-15.4-0.9c-4.3-4.3-4.5-11.1-0.6-15.7c-0.1,0.1-0.2,0.1-0.3,0.2c-4.6,3.6-11.3,3.3-15.5-0.8
						c-4.2-4.2-4.5-10.8-0.9-15.3c0.3-0.4,0.6-0.7,0.9-1.1l7.9-7.8l0,0c-4.6,3.5-10.8,2.7-15.4-0.9c-3.4-2.7-3.4-7.8-3.4-7.8
						l-21.9,16.5c-4.5,4.5-4.5,11.8,0,16.3c4.2,4.2,10.9,4.5,15.4,0.9l-7.9,7.8c-4.5,4.5-4.5,11.8,0,16.3c4.3,4.3,11.2,4.5,15.8,0.6
						c-3.9,4.5-3.7,11.4,0.6,15.7c4.5,4.5,11.9,4.5,16.5,0l7.9-7.8c-3.6,4.5-3.3,11.1,0.9,15.3c4.5,4.5,12,4.5,16.5,0l19.9-22
						C1069.2,240.8,1062.6,242.4,1058.1,237.8"/>
					<path id="Fill-8" class="st12" d="M1027.9,260.4c-4.2-4.2-4.5-10.8-0.9-15.3l-7.9,7.9c-4.5,4.5-11.9,4.5-16.4,0
						c-4.3-4.3-4.5-11.2-0.6-15.7c-4.5,3.9-11.4,3.7-15.7-0.6c-4.5-4.5-4.5-11.9,0-16.4l7.9-7.9c-4.5,3.5-11.2,3.2-15.3-0.9
						c-4.5-4.5-4.5-11.9,0-16.4l10.2-7.7c-5.1-1.1-12.4-2.2-17.8-2.2c-42.3,0-77,34.6-77,77l0,185l154,0l0-185
						c0-1.8-0.1-3.7-0.2-5.5l-3.8,3.8C1039.8,264.9,1032.4,264.9,1027.9,260.4z"/>
					<path id="Fill-9" class="st9" d="M990.6,189.1L990.6,189.1c-2.6-0.4-5.2-0.7-7.7-0.9c-0.4,0-0.6-0.3-0.6-0.6s0.4-0.5,0.7-0.5
						c2.6,0.2,5.2,0.5,7.7,0.9c0.4,0.1,0.6,0.3,0.5,0.6C991.2,188.9,990.9,189.1,990.6,189.1"/>
					<path id="Fill-10" class="st9" d="M994.2,280.4c-5.3,0-9.8,12.7-9.8,27.7s4.5,27.7,9.8,27.7s9.8-12.7,9.8-27.7
						C1004,293.1,999.5,280.4,994.2,280.4z M994.2,337.1c-6.2,0-11-12.7-11-29c0-16.3,4.8-29,11-29s11,12.7,11,29
						C1005.2,324.4,1000.4,337.1,994.2,337.1z"/>
					<path id="Fill-11" class="st9" d="M956.2,280.4c-5.3,0-9.8,12.7-9.8,27.7s4.5,27.7,9.8,27.7s9.8-12.7,9.8-27.7
						S961.5,280.4,956.2,280.4z M956.2,337.1c-6.2,0-11-12.7-11-29c0-16.3,4.8-29,11-29s11,12.7,11,29S962.4,337.1,956.2,337.1z"/>
					<path id="Fill-12" class="st10" d="M992.4,336.1c-6.7,0-12.1-12.8-12.1-28.5s5.4-28.5,12.1-28.5h1.9v57H992.4"/>
					<path id="Fill-13" class="st10" d="M954.4,336.1c-6.7,0-12.1-12.8-12.1-28.5c0-15.7,5.4-28.5,12.1-28.5h1.9v57H954.4"/>
					<path id="Fill-14" class="st9" d="M981.9,293.1c-0.1,0-0.1,0-0.2,0c-0.4-0.1-0.6-0.4-0.5-0.7c0.2-0.7,0.4-1.3,0.7-1.9
						c0.1-0.3,0.5-0.5,0.9-0.4s0.6,0.4,0.4,0.7c-0.2,0.6-0.4,1.2-0.6,1.8C982.5,293,982.2,293.1,981.9,293.1"/>
					<path id="Fill-15" class="st9" d="M980.7,298.1C980.6,298.1,980.6,298.1,980.7,298.1c-0.3-0.1-0.5-0.3-0.4-0.6
						c0-0.3,0.1-0.6,0.1-0.9c0-0.3,0.3-0.5,0.5-0.4s0.4,0.3,0.3,0.6c0,0.3-0.1,0.6-0.1,0.9C981.1,297.9,980.9,298.1,980.7,298.1"/>
					<path id="Fill-16" class="st9" d="M981.6,321.1c-0.3,0-0.6-0.2-0.6-0.5c-0.3-1.2-0.5-2.5-0.7-3.8c0-0.3,0.2-0.6,0.5-0.7
						c0.3,0,0.7,0.2,0.7,0.5c0.2,1.3,0.4,2.6,0.7,3.8c0.1,0.3-0.1,0.6-0.5,0.7C981.7,321.1,981.6,321.1,981.6,321.1"/>
					<path id="Fill-17" class="st9" d="M994.6,337.1h-1.9c-4.3,0-8.1-4.4-10.5-12.2c-0.1-0.3,0.1-0.7,0.4-0.8
						c0.3-0.1,0.7,0.1,0.8,0.4c2.2,7.1,5.7,11.3,9.3,11.3h1.2v-55.5l-1.2,0c-2.9,0-5.7,2.7-7.9,7.6c-0.1,0.3-0.5,0.5-0.8,0.3
						c-0.3-0.1-0.5-0.5-0.3-0.8c2.4-5.4,5.6-8.3,9.1-8.3h1.9c0.3,0,0.6,0.3,0.6,0.6v56.7C995.2,336.9,995,337.1,994.6,337.1"/>
					<path id="Fill-18" class="st9" d="M944.9,294.1c-0.1,0-0.1,0-0.2,0c-0.3-0.1-0.5-0.4-0.4-0.8c0.2-0.9,0.5-1.9,0.8-2.7
						c0.1-0.3,0.5-0.5,0.8-0.4c0.3,0.1,0.5,0.5,0.4,0.8c-0.3,0.9-0.5,1.8-0.8,2.7C945.4,293.9,945.1,294.1,944.9,294.1"/>
					<path id="Fill-19" class="st9" d="M943.7,297.1C943.6,297.1,943.6,297.1,943.7,297.1c-0.3-0.1-0.5-0.4-0.4-0.7l0.1-0.8
						c0-0.3,0.3-0.6,0.5-0.5c0.2,0.1,0.4,0.4,0.3,0.7l-0.1,0.7C944.1,296.9,943.9,297.1,943.7,297.1"/>
					<path id="Fill-20" class="st9" d="M942.7,317.1c-0.2,0-0.4-0.2-0.4-0.6l-0.1-0.7c0-0.4,0.1-0.7,0.4-0.7c0.2,0,0.5,0.2,0.5,0.6
						l0.1,0.7C943.2,316.7,943,317.1,942.7,317.1C942.8,317.1,942.8,317.1,942.7,317.1"/>
					<path id="Fill-21" class="st9" d="M944.6,323.1c-0.3,0-0.5-0.2-0.6-0.5c-0.3-1.2-0.6-2.5-0.8-3.8c-0.1-0.3,0.2-0.7,0.5-0.7
						c0.3-0.1,0.6,0.2,0.7,0.5c0.2,1.3,0.5,2.5,0.8,3.7c0.1,0.3-0.1,0.7-0.4,0.8C944.7,323.1,944.7,323.1,944.6,323.1"/>
					<path id="Fill-22" class="st9" d="M956.6,337.1h-1.9c-4.1,0-7.9-4-10.4-10.9c-0.1-0.3,0.1-0.7,0.4-0.8c0.3-0.1,0.7,0.1,0.8,0.4
						c2.3,6.4,5.7,10,9.2,10h1.3v-55.5h-1.3c-2.7,0-5.4,2.2-7.5,6.3c-0.2,0.3-0.5,0.4-0.9,0.3c-0.3-0.2-0.4-0.5-0.3-0.8
						c2.4-4.5,5.5-7,8.7-7h1.9c0.4,0,0.6,0.3,0.6,0.6v56.7C957.2,336.9,957,337.1,956.6,337.1"/>
					<path id="Fill-23" class="st9" d="M994.2,280.4c-5.3,0-9.8,12.7-9.8,27.7s4.5,27.7,9.8,27.7s9.8-12.7,9.8-27.7
						C1004,293.1,999.5,280.4,994.2,280.4z M994.2,337.1c-6.2,0-11-12.7-11-29c0-16.3,4.8-29,11-29s11,12.7,11,29
						C1005.2,324.4,1000.4,337.1,994.2,337.1z"/>
					<path id="Fill-24" class="st9" d="M956.2,280.4c-5.3,0-9.8,12.7-9.8,27.7s4.5,27.7,9.8,27.7s9.8-12.7,9.8-27.7
						S961.5,280.4,956.2,280.4z M956.2,337.1c-6.2,0-11-12.7-11-29c0-16.3,4.8-29,11-29s11,12.7,11,29S962.4,337.1,956.2,337.1z"/>
					<path id="Fill-25" class="st9" d="M1005.2,307.6c0,15.7-4.7,28.5-10.5,28.5s-10.5-12.8-10.5-28.5s4.7-28.5,10.5-28.5
						S1005.2,291.9,1005.2,307.6"/>
					<path id="Fill-26" class="st9" d="M967.2,307.6c0,15.7-4.7,28.5-10.5,28.5s-10.5-12.7-10.5-28.5c0-15.8,4.7-28.5,10.5-28.5
						S967.2,291.9,967.2,307.6"/>
					<path id="Fill-27" class="st9" d="M1053.6,450.1l-154.7,0c-0.3,0-0.6-0.3-0.6-0.6l0-184.8c0-42.8,35-77.5,78-77.5
						c0.3,0,0.6,0.3,0.6,0.6s-0.3,0.6-0.6,0.6c-42.3,0-76.7,34.2-76.7,76.3l0,184.2l153.5,0v-41.3c0-0.3,0.3-0.6,0.6-0.6
						c0.3,0,0.6,0.3,0.6,0.6v41.9C1054.2,449.9,1054,450.1,1053.6,450.1"/>
					<path id="Fill-28" class="st9" d="M1054.1,225.1l-5,5c-0.3,0.3-0.7,0.6-1.1,1l-15.2,15.1c-2.1,2.1-3.2,4.8-3.2,7.7
						c0,2.9,1.1,5.7,3.2,7.7c2.1,2.1,4.8,3.2,7.8,3.2s5.7-1.1,7.8-3.2l18.7-20.7c-2.4,0.2-6.7,0-10-3.4
						C1053.7,234.1,1052.7,229.3,1054.1,225.1z M1040.5,266.1c-3.1,0-6.3-1.2-8.7-3.6c-2.3-2.3-3.6-5.4-3.6-8.6
						c0-3.3,1.3-6.3,3.6-8.6l15.3-15.2c0.5-0.4,0.8-0.6,1.1-0.9l7.9-7.9c0.2-0.2,0.6-0.2,0.9,0c0.2,0.2,0.3,0.6,0.1,0.9
						c-3.3,4.3-3,10.5,0.9,14.5c4.2,4.3,10.5,2.9,10.5,2.8c0.3-0.1,0.5,0.1,0.7,0.3c0.1,0.2,0.1,0.5-0.1,0.7l-19.9,22
						C1046.8,264.9,1043.6,266.1,1040.5,266.1z"/>
					<path id="Fill-29" class="st9" d="M1029,218.2l-21.3,21.1c-4.3,4.2-4.3,11.1,0,15.4c4.3,4.2,11.2,4.2,15.5,0l21.3-21.1
						c-4.3,1.4-9.2,0.5-12.6-2.9C1028.5,227.4,1027.5,222.5,1029,218.2z M1015.5,259.1c-3.1,0-6.3-1.2-8.6-3.5
						c-4.8-4.7-4.8-12.4,0-17.1l24.5-24.2c0.2-0.2,0.6-0.2,0.8,0c0.2,0.2,0.2,0.6,0,0.8c-3.7,4.3-3.4,10.7,0.6,14.7
						c4.3,4.2,11.2,4.2,15.5,0l7.9-7.8c0.2-0.2,0.6-0.2,0.9,0c0.1,0.1,0.2,0.3,0.2,0.4c0,0.2-0.1,0.3-0.2,0.4l-33,32.6
						C1021.7,258,1018.6,259.1,1015.5,259.1z"/>
					<path id="Fill-30" class="st9" d="M1015.9,198.1c-0.2,0-0.3-0.1-0.4-0.2c-0.2-0.2-0.2-0.6,0-0.9l7.8-7.8
						c0.1-0.1,0.3-0.2,0.4-0.2c0.2,0,0.3,0.1,0.4,0.2c0.2,0.2,0.2,0.6,0,0.8l0,0l-7.8,7.8C1016.2,198.1,1016,198.1,1015.9,198.1"/>
					<path id="Fill-31" class="st9" d="M1012.7,202l-21.1,21.2c-2,2.1-3.2,4.8-3.2,7.7s1.1,5.7,3.2,7.7c2,2.1,4.8,3.2,7.7,3.2
						s5.6-1.1,7.7-3.2l21.1-21.2c-4.3,1.5-9.2,0.5-12.5-2.9c-2.3-2.3-3.5-5.4-3.5-8.6C1012.1,204.6,1012.3,203.3,1012.7,202z
						 M999.3,243.1c-3.2,0-6.3-1.3-8.6-3.6c-2.3-2.3-3.5-5.4-3.5-8.6s1.3-6.3,3.5-8.6l24.8-25c0.2-0.2,0.6-0.2,0.9,0
						c0.1,0.1,0.2,0.3,0.2,0.4c0,0.2-0.1,0.3-0.2,0.4c-2,2.1-3.2,4.8-3.2,7.7s1.1,5.7,3.2,7.7c4,4,10.4,4.3,14.7,0.6
						c0.2-0.2,0.6-0.2,0.8,0c0.2,0.2,0.2,0.6,0,0.8l-0.2,0.3l-23.8,24.4C1005.6,241.9,1002.6,243.1,999.3,243.1z"/>
					<path id="Fill-32" class="st9" d="M1004.4,182l-20.8,16c-2,2-3.1,4.8-3.1,7.8s1.1,5.8,3.2,7.8c2.1,2.1,4.8,3.2,7.7,3.2
						s5.7-1.1,7.7-3.2l15.2-15.4c0.3-0.4,0.6-0.7,0.9-1.1l5-5.1c-4,1.2-8.6,0.2-12.4-2.9C1005.3,187.1,1004.6,183.8,1004.4,182z
						 M991.4,218.1c-3.3,0-6.3-1.3-8.6-3.6c-2.3-2.3-3.6-5.4-3.6-8.7s1.3-6.4,3.6-8.7l21.7-16.8c0.2-0.1,0.4-0.2,0.7-0.1
						c0.2,0.1,0.3,0.3,0.3,0.6c0,0,0.1,5,3.1,7.4c4.7,3.8,10.5,4.1,14.5,0.9c0.3-0.2,0.6-0.2,0.9,0.1c0.2,0.3,0.2,0.6,0,0.9l-7.9,8
						c-0.3,0.3-0.6,0.6-0.9,1l-15.2,15.5C997.8,216.9,994.7,218.1,991.4,218.1z"/>
					<path id="Fill-33" class="st9" d="M976.2,363.1c9.7,0,19,2.1,25.7,5.7c5.3,2.9,8.3,6.5,8.3,9.8c0,3.3-3,6.9-8.3,9.8
						c-6.6,3.6-16,5.7-25.7,5.7s-19-2.1-25.7-5.7c-5.3-2.9-8.3-6.5-8.3-9.8c0-3.3,3-6.9,8.3-9.8
						C957.2,365.2,966.5,363.1,976.2,363.1"/>
					<path id="Fill-34" class="st13" d="M981.7,375.1c-2.5,0-4.5-2.1-4.5-4.6v-5.8c0-2.5,2-4.6,4.5-4.6s4.5,2.1,4.5,4.6l0,5.8
						C986.2,373.1,984.2,375.1,981.7,375.1"/>
					<path id="Fill-35" class="st13" d="M969.7,375.1c-2.5,0-4.5-2.1-4.5-4.6v-5.8c0-2.5,2-4.6,4.5-4.6s4.5,2.1,4.5,4.6v5.8
						C974.2,373.1,972.2,375.1,969.7,375.1"/>
					<path id="Fill-36" class="st13" d="M957.7,375.1c-2.5,0-4.5-2.1-4.5-4.6v-5.8c0-2.5,2-4.6,4.5-4.6s4.5,2.1,4.5,4.6v5.8
						C962.2,373.1,960.2,375.1,957.7,375.1"/>
					<path id="Fill-37" class="st13" d="M945.7,374.1c-2.5,0-4.5-2-4.5-4.6v-1.9c0-2.5,2-4.6,4.5-4.6c2.5,0,4.5,2,4.5,4.6v2
						C950.2,372.1,948.2,374.1,945.7,374.1"/>
					<path id="Fill-38" class="st13" d="M993.7,375.1c-2.5,0-4.5-2.1-4.5-4.6v-5.8c0-2.5,2-4.6,4.5-4.6s4.5,2.1,4.5,4.6v5.8
						C998.2,373.1,996.2,375.1,993.7,375.1"/>
					<path id="Fill-39" class="st13" d="M1005.7,374.1c-2.5,0-4.5-2-4.5-4.6v-1.9c0-2.5,2-4.6,4.5-4.6s4.5,2,4.5,4.6v2
						C1010.2,372.1,1008.2,374.1,1005.7,374.1"/>
					<path id="Fill-40" class="st9" d="M1052.7,314.1c-0.2,0-0.4-0.3-0.4-0.6v-5.8c0-0.3,0.2-0.6,0.4-0.6c0.2,0,0.4,0.3,0.4,0.6v5.8
						C1053.1,313.9,1052.9,314.1,1052.7,314.1"/>
					<path id="Fill-41" class="st9" d="M1052.7,324.1c-0.2,0-0.4-0.3-0.4-0.6v-4.7c0-0.4,0.2-0.6,0.4-0.6c0.2,0,0.4,0.3,0.4,0.6v4.7
						C1053.1,323.8,1052.9,324.1,1052.7,324.1"/>
					<path id="Fill-42" class="st9" d="M1052.7,349.1c-0.2,0-0.4-0.3-0.4-0.6v-16.8c0-0.3,0.2-0.6,0.4-0.6c0.2,0,0.4,0.3,0.4,0.6
						v16.8C1053.1,348.9,1052.9,349.1,1052.7,349.1"/>
					<path id="Fill-43" class="st9" d="M1052.7,364.1c-0.2,0-0.4-0.3-0.4-0.6v-8.8c0-0.3,0.2-0.6,0.4-0.6c0.2,0,0.4,0.3,0.4,0.6v8.8
						C1053.1,363.9,1052.9,364.1,1052.7,364.1"/>
					<path id="Fill-44" class="st9" d="M1052.7,391.1c-0.2,0-0.4-0.3-0.4-0.6v-12.7c0-0.3,0.2-0.6,0.4-0.6c0.2,0,0.4,0.3,0.4,0.6
						v12.7C1053.1,390.9,1052.9,391.1,1052.7,391.1"/>
					<path id="Fill-45" class="st13" d="M981.7,396.1c-2.5,0-4.5-2.1-4.5-4.6v-5.8c0-2.5,2-4.6,4.5-4.6s4.5,2.1,4.5,4.6v5.8
						C986.2,394.1,984.2,396.1,981.7,396.1"/>
					<path id="Fill-46" class="st13" d="M969.7,396.1c-2.5,0-4.5-2.1-4.5-4.6v-5.8c0-2.5,2-4.6,4.5-4.6s4.5,2.1,4.5,4.6v5.8
						C974.2,394.1,972.2,396.1,969.7,396.1"/>
					<path id="Fill-47" class="st13" d="M957.7,396.1c-2.5,0-4.5-2.1-4.5-4.6v-5.8c0-2.5,2-4.6,4.5-4.6s4.5,2.1,4.5,4.6v5.8
						C962.2,394.1,960.2,396.1,957.7,396.1"/>
					<path id="Fill-48" class="st13" d="M945.7,393.1c-2.5,0-4.5-2-4.5-4.5v-3c0-2.4,2-4.5,4.5-4.5c2.5,0,4.5,2,4.5,4.5v3.1
						C950.2,391.1,948.2,393.1,945.7,393.1"/>
					<path id="Fill-49" class="st13" d="M993.7,396.1c-2.5,0-4.5-2.1-4.5-4.6v-5.8c0-2.5,2-4.6,4.5-4.6s4.5,2.1,4.5,4.6v5.8
						C998.2,394.1,996.2,396.1,993.7,396.1"/>
					<path id="Fill-50" class="st13" d="M1005.7,396.1c-2.5,0-4.5-2.1-4.5-4.6v-5.8c0-2.5,2-4.6,4.5-4.6s4.5,2.1,4.5,4.6l0,5.8
						C1010.2,394.1,1008.2,396.1,1005.7,396.1"/>
					<path id="Fill-51" class="st14" d="M981.6,360.1c-0.5,0-0.9,0.1-1.3,0.2c1.9,0.6,3.4,2.3,3.4,4.4l0,5.8c0,2.1-1.4,3.8-3.4,4.4
						c0.4,0.1,0.9,0.2,1.3,0.2c2.6,0,4.7-2.1,4.7-4.6l0-5.8C986.2,362.2,984.1,360.1,981.6,360.1"/>
					<path id="Fill-52" class="st14" d="M969.6,360.1c-0.5,0-0.9,0.1-1.3,0.2c1.9,0.6,3.4,2.3,3.4,4.4v5.8c0,2.1-1.4,3.8-3.4,4.4
						c0.4,0.1,0.9,0.2,1.3,0.2c2.6,0,4.7-2.1,4.7-4.6v-5.8C974.2,362.2,972.1,360.1,969.6,360.1"/>
					<path id="Fill-53" class="st14" d="M957.6,360.1c-0.5,0-0.9,0.1-1.3,0.2c1.9,0.6,3.4,2.3,3.4,4.4v5.8c0,2.1-1.4,3.8-3.4,4.4
						c0.4,0.1,0.9,0.2,1.3,0.2c2.6,0,4.7-2.1,4.7-4.6v-5.8C962.2,362.2,960.1,360.1,957.6,360.1"/>
					<path id="Fill-54" class="st14" d="M945.6,363.1c-0.5,0-0.9,0.1-1.3,0.2c1.9,0.6,3.4,2.3,3.4,4.3v2c0,2.1-1.4,3.8-3.4,4.3
						c0.4,0.1,0.9,0.2,1.3,0.2c2.6,0,4.7-2,4.7-4.6v-1.9C950.2,365.2,948.1,363.1,945.6,363.1"/>
					<path id="Fill-55" class="st14" d="M993.6,360.1c-0.5,0-0.9,0.1-1.3,0.2c1.9,0.6,3.4,2.3,3.4,4.4v5.8c0,2.1-1.4,3.8-3.4,4.4
						c0.4,0.1,0.9,0.2,1.3,0.2c2.6,0,4.7-2.1,4.7-4.6v-5.8C998.2,362.2,996.1,360.1,993.6,360.1"/>
					<path id="Fill-56" class="st14" d="M1005.6,363.1c-0.5,0-0.9,0.1-1.3,0.2c1.9,0.6,3.4,2.3,3.4,4.3v2c0,2.1-1.4,3.8-3.4,4.3
						c0.4,0.1,0.9,0.2,1.3,0.2c2.6,0,4.7-2,4.7-4.6v-1.9C1010.2,365.2,1008.1,363.1,1005.6,363.1"/>
					<path id="Fill-57" class="st14" d="M981.6,381.1c-0.5,0-0.9,0.1-1.3,0.2c1.9,0.6,3.4,2.3,3.4,4.4v5.8c0,2.1-1.4,3.8-3.4,4.4
						c0.4,0.1,0.9,0.2,1.3,0.2c2.6,0,4.7-2.1,4.7-4.6v-5.8C986.2,383.2,984.1,381.1,981.6,381.1"/>
					<path id="Fill-58" class="st14" d="M969.6,381.1c-0.5,0-0.9,0.1-1.3,0.2c1.9,0.6,3.4,2.3,3.4,4.4v5.8c0,2.1-1.4,3.8-3.4,4.4
						c0.4,0.1,0.9,0.2,1.3,0.2c2.6,0,4.7-2.1,4.7-4.6v-5.8C974.2,383.2,972.1,381.1,969.6,381.1"/>
					<path id="Fill-59" class="st14" d="M957.6,381.1c-0.5,0-0.9,0.1-1.3,0.2c1.9,0.6,3.4,2.3,3.4,4.4v5.8c0,2.1-1.4,3.8-3.4,4.4
						c0.4,0.1,0.9,0.2,1.3,0.2c2.6,0,4.7-2.1,4.7-4.6v-5.8C962.2,383.2,960.1,381.1,957.6,381.1"/>
					<path id="Fill-60" class="st14" d="M945.6,381.1c-0.5,0-0.9,0.1-1.3,0.2c1.9,0.5,3.4,2.2,3.4,4.3v3.1c0,2-1.4,3.7-3.4,4.3
						c0.4,0.1,0.9,0.2,1.3,0.2c2.6,0,4.7-2,4.7-4.5v-3.1C950.2,383.1,948.1,381.1,945.6,381.1"/>
					<path id="Fill-61" class="st14" d="M993.6,381.1c-0.5,0-0.9,0.1-1.3,0.2c1.9,0.6,3.4,2.3,3.4,4.4v5.8c0,2.1-1.4,3.8-3.4,4.4
						c0.4,0.1,0.9,0.2,1.3,0.2c2.6,0,4.7-2.1,4.7-4.6v-5.8C998.2,383.2,996.1,381.1,993.6,381.1"/>
					<path id="Fill-62" class="st14" d="M1005.6,381.1c-0.5,0-0.9,0.1-1.3,0.2c1.9,0.6,3.4,2.3,3.4,4.4l0,5.8c0,2.1-1.4,3.8-3.4,4.4
						c0.4,0.1,0.9,0.2,1.3,0.2c2.6,0,4.7-2.1,4.7-4.6l0-5.8C1010.2,383.2,1008.1,381.1,1005.6,381.1"/>
					<path id="Fill-63" class="st9" d="M981.2,360.4c-2.1,0-3.8,1.7-3.8,3.9v5.7c0,2.1,1.7,3.9,3.8,3.9s3.8-1.7,3.8-3.9l0-5.7
						C985,362.1,983.3,360.4,981.2,360.4z M981.2,375.1c-2.8,0-5-2.3-5-5.2v-5.7c0-2.8,2.2-5.2,5-5.2s5,2.3,5,5.2l0,5.7
						C986.2,372.8,984,375.1,981.2,375.1z"/>
					<path id="Fill-64" class="st9" d="M969.2,360.4c-2.1,0-3.8,1.7-3.8,3.9v5.7c0,2.1,1.7,3.9,3.8,3.9c2.1,0,3.8-1.7,3.8-3.9v-5.7
						C973,362.1,971.3,360.4,969.2,360.4z M969.2,375.1c-2.8,0-5-2.3-5-5.2v-5.7c0-2.8,2.2-5.2,5-5.2s5,2.3,5,5.2v5.7
						C974.2,372.8,972,375.1,969.2,375.1z"/>
					<path id="Fill-65" class="st9" d="M957.2,360.4c-2.1,0-3.8,1.7-3.8,3.9v5.7c0,2.1,1.7,3.9,3.8,3.9c2.1,0,3.8-1.7,3.8-3.9v-5.7
						C961,362.1,959.3,360.4,957.2,360.4z M957.2,375.1c-2.8,0-5-2.3-5-5.2v-5.7c0-2.8,2.2-5.2,5-5.2s5,2.3,5,5.2v5.7
						C962.2,372.8,960,375.1,957.2,375.1z"/>
					<path id="Fill-66" class="st9" d="M946.2,364.4c-2.1,0-3.8,1.7-3.8,3.8v1.8c0,2.1,1.7,3.8,3.8,3.8c2.1,0,3.8-1.7,3.8-3.8v-1.8
						C950,366.1,948.3,364.4,946.2,364.4z M946.2,375.1c-2.8,0-5-2.3-5-5.1v-1.8c0-2.8,2.2-5.1,5-5.1s5,2.3,5,5.1v1.8
						C951.2,372.9,949,375.1,946.2,375.1z"/>
					<path id="Fill-67" class="st9" d="M993.2,360.4c-2.1,0-3.8,1.7-3.8,3.9v5.7c0,2.1,1.7,3.9,3.8,3.9c2.1,0,3.8-1.7,3.8-3.9v-5.7
						C997,362.1,995.3,360.4,993.2,360.4z M993.2,375.1c-2.8,0-5-2.3-5-5.2v-5.7c0-2.8,2.2-5.2,5-5.2s5,2.3,5,5.2v5.7
						C998.2,372.8,996,375.1,993.2,375.1z"/>
					<path id="Fill-68" class="st9" d="M1005.2,364.4c-2.1,0-3.8,1.7-3.8,3.8v1.8c0,2.1,1.7,3.8,3.8,3.8s3.8-1.7,3.8-3.8v-1.8
						C1009,366.1,1007.3,364.4,1005.2,364.4z M1005.2,375.1c-2.8,0-5-2.3-5-5.1v-1.8c0-2.8,2.2-5.1,5-5.1s5,2.3,5,5.1v1.8
						C1010.2,372.9,1008,375.1,1005.2,375.1z"/>
					<path id="Fill-69" class="st9" d="M981.2,382.4c-2.1,0-3.8,1.7-3.8,3.9v5.7c0,2.1,1.7,3.9,3.8,3.9c2.1,0,3.8-1.7,3.8-3.9v-5.7
						C985,384.1,983.3,382.4,981.2,382.4z M981.2,397.1c-2.8,0-5-2.3-5-5.2v-5.7c0-2.8,2.2-5.2,5-5.2s5,2.3,5,5.2v5.7
						C986.2,394.8,984,397.1,981.2,397.1z"/>
					<path id="Fill-70" class="st9" d="M969.2,382.4c-2.1,0-3.8,1.7-3.8,3.9v5.7c0,2.1,1.7,3.9,3.8,3.9c2.1,0,3.8-1.7,3.8-3.9v-5.7
						C973,384.1,971.3,382.4,969.2,382.4z M969.2,397.1c-2.8,0-5-2.3-5-5.2v-5.7c0-2.8,2.2-5.2,5-5.2s5,2.3,5,5.2v5.7
						C974.2,394.8,972,397.1,969.2,397.1z"/>
					<path id="Fill-71" class="st9" d="M957.2,382.4c-2.1,0-3.8,1.7-3.8,3.9v5.7c0,2.1,1.7,3.9,3.8,3.9c2.1,0,3.8-1.7,3.8-3.9v-5.7
						C961,384.1,959.3,382.4,957.2,382.4z M957.2,397.1c-2.8,0-5-2.3-5-5.2v-5.7c0-2.8,2.2-5.2,5-5.2s5,2.3,5,5.2v5.7
						C962.2,394.8,960,397.1,957.2,397.1z"/>
					<path id="Fill-72" class="st9" d="M946.2,382.4c-2.1,0-3.8,1.7-3.8,3.8v3c0,2.1,1.7,3.8,3.8,3.8c2.1,0,3.8-1.7,3.8-3.8v-3
						C950,384,948.3,382.4,946.2,382.4z M946.2,394.1c-2.8,0-5-2.2-5-5v-3c0-2.7,2.2-5,5-5c2.8,0,5,2.2,5,5v3
						C951.2,391.9,949,394.1,946.2,394.1z"/>
					<path id="Fill-73" class="st9" d="M993.2,382.4c-2.1,0-3.8,1.7-3.8,3.9v5.7c0,2.1,1.7,3.9,3.8,3.9s3.8-1.7,3.8-3.9v-5.7
						C997,384.1,995.3,382.4,993.2,382.4z M993.2,397.1c-2.8,0-5-2.3-5-5.2v-5.7c0-2.8,2.2-5.2,5-5.2s5,2.3,5,5.2v5.7
						C998.2,394.8,996,397.1,993.2,397.1z"/>
					<path id="Fill-74" class="st9" d="M1005.2,382.4c-2.1,0-3.8,1.7-3.8,3.9v5.7c0,2.1,1.7,3.9,3.8,3.9s3.8-1.7,3.8-3.9l0-5.7
						C1009,384.1,1007.3,382.4,1005.2,382.4z M1005.2,397.1c-2.8,0-5-2.3-5-5.2v-5.7c0-2.8,2.2-5.2,5-5.2s5,2.3,5,5.2l0,5.7
						C1010.2,394.8,1008,397.1,1005.2,397.1z"/>
					<path id="Fill-75" class="st11" d="M975.7,356.1c-23.5,0-42.5,10.5-42.5,23.5s19,23.5,42.5,23.5s42.5-10.5,42.5-23.5
						C1018.2,366.7,999.2,356.1,975.7,356.1z M975.7,364c9.6,0,18.9,2.1,25.5,5.7c5.3,2.9,8.3,6.5,8.3,9.9s-3,7-8.3,9.9
						c-6.6,3.6-15.9,5.7-25.5,5.7s-18.9-2.1-25.5-5.7c-5.3-2.9-8.3-6.5-8.3-9.9c0-3.4,3-7,8.3-9.9C956.8,366.1,966.1,364,975.7,364z
						"/>
					<path id="Fill-76" class="st15" d="M950,368.8c6.3-3.5,15.1-5.5,24.2-5.6c-0.4,0-0.8,0-1.3,0c-9.6,0-18.9,2.1-25.5,5.7
						c-5.3,2.9-8.3,6.5-8.3,9.8c0,3.3,3,6.9,8.3,9.8c6.6,3.6,15.9,5.7,25.5,5.7c0.4,0,0.8,0,1.3,0c-9.2-0.2-17.9-2.2-24.2-5.6
						c-5.3-2.9-8.3-6.5-8.3-9.8S944.8,371.7,950,368.8"/>
					<path id="Fill-77" class="st15" d="M975.5,356.1c-0.4,0-0.8,0-1.3,0c23,0.4,41.5,10.7,41.5,23.5c0,12.7-18.5,23.1-41.5,23.5
						c0.4,0,0.8,0,1.3,0c23.6,0,42.7-10.5,42.7-23.5C1018.2,366.7,999.1,356.1,975.5,356.1"/>
					<path id="Fill-78" class="st9" d="M975.7,364.2c-9.6,0-18.9,2-25.4,5.6c-5.1,2.8-8,6.2-8,9.3c0,3.1,2.9,6.5,8,9.3
						c6.5,3.6,15.8,5.6,25.4,5.6s18.9-2,25.4-5.6c5.1-2.8,8-6.2,8-9.3s-2.9-6.5-8-9.3C994.6,366.3,985.3,364.2,975.7,364.2z
						 M975.7,395.3c-9.8,0-19.3-2.1-26-5.8c-5.5-3-8.7-6.8-8.7-10.4s3.2-7.4,8.7-10.4c6.7-3.7,16.2-5.8,26-5.8
						c9.8,0,19.3,2.1,26,5.8c5.5,3,8.7,6.8,8.7,10.4s-3.2,7.4-8.7,10.4C995,393.2,985.5,395.3,975.7,395.3z M975.7,356.4
						c-23.3,0-42.2,10.2-42.2,22.8s18.9,22.8,42.2,22.8s42.2-10.2,42.2-22.8S999,356.4,975.7,356.4z M975.7,403.1
						c-24,0-43.5-10.8-43.5-24c0-13.2,19.5-24,43.5-24c24,0,43.5,10.8,43.5,24C1019.2,392.4,999.7,403.1,975.7,403.1z"/>
					<path id="Fill-79" class="st16" d="M1013.2,394.2c0-4.5-3.3-8.2-7.6-8.9c-1.1,1.1-2.5,2.1-4.1,3.1h-1.1v-2.8c0-0.1,0-0.3,0-0.4
						h-3c0,0.1,0,0.3,0,0.4v2.8h-8.9v-2.8c0-0.1,0-0.3,0-0.4h-3c0,0.1,0,0.3,0,0.4v2.8h-8.9v-2.8c0-0.1,0-0.3,0-0.4h-3
						c0,0.1,0,0.3,0,0.4v2.8h-8.9v-2.8c0-0.1,0-0.3,0-0.4h-3c0,0.1,0,0.3,0,0.4v2.8h-8.9v-2.8c0-0.1,0-0.2,0-0.3
						c-1.1,0.2-2.1,0.5-3,1v2.1h-2.6c-1.3,1.6-2.1,3.6-2.1,5.8c0,0.2,0,0.4,0,0.5c0,0.2,0,0.4,0,0.5l0,49.6
						c0,5.6,4.6,10.1,10.1,10.1c2.4,0,4.7-0.9,6.4-2.3V469c0,5.6,4.6,10.1,10.1,10.1s10.1-4.6,10.1-10.1v-38.8
						c1.8,1.4,4,2.3,6.4,2.3c5.6,0,10.1-4.6,10.1-10.1V419c1.4,0.7,2.9,1.1,4.5,1.1c5.6,0,10.1-4.6,10.1-10.1v-14.7
						c0-0.2,0-0.4,0-0.5C1013.2,394.5,1013.2,394.4,1013.2,394.2"/>
					<path id="Fill-80" class="st17" d="M986.3,387.1h2.9v-1.6c0-0.1,0-0.2,0-0.4h-3c0,0.1,0,0.2,0,0.4L986.3,387.1"/>
					<path id="Fill-81" class="st17" d="M962.3,387.1h2.9v-1.6c0-0.1,0-0.2,0-0.4h-3c0,0.1,0,0.2,0,0.4v1.6"/>
					<path id="Fill-82" class="st17" d="M974.3,387.1h2.9v-1.6c0-0.1,0-0.2,0-0.4h-3c0,0.1,0,0.2,0,0.4v1.6"/>
					<path id="Fill-83" class="st17" d="M998.3,387.1h0.7c0.8-0.4,1.5-0.9,2.2-1.3v-0.3c0-0.1,0-0.2,0-0.4h-3c0,0.1,0,0.2,0,0.4
						L998.3,387.1"/>
					<path id="Fill-84" class="st17" d="M995.9,418.1v4c0,5.5-4.7,10-10.4,10c-0.4,0-0.8,0-1.2-0.1c1.4,0.7,2.9,1,4.6,1
						c5.7,0,10.4-4.5,10.4-10v-4C998,419,996.9,418.6,995.9,418.1"/>
					<path id="Fill-85" class="st17" d="M953.2,387.1v-1.7c0-0.1,0-0.2,0-0.3c-1.1,0.2-2.1,0.5-3,0.9v1.1H953.2"/>
					<path id="Fill-86" class="st17" d="M1014.2,394.1c0-4.5-3.4-8.3-7.9-9c-0.1,0-0.1,0.1-0.2,0.1c2.8,1.6,4.6,4.5,4.6,7.9
						c0,0.2,0,0.4,0,0.5c0,0.2,0,0.4,0,0.5v14.7c0,5.6-4.7,10.2-10.4,10.2c-0.4,0-0.8,0-1.2-0.1c1.4,0.7,2.9,1.1,4.6,1.1
						c5.7,0,10.4-4.6,10.4-10.2v-14.6c0-0.2,0-0.4,0-0.5C1014.2,394.5,1014.2,394.3,1014.2,394.1"/>
					<path id="Fill-87" class="st17" d="M979.9,428.1v40.8c0,5.6-4.7,10.2-10.4,10.2c-0.4,0-0.8,0-1.2-0.1c1.4,0.7,2.9,1.1,4.6,1.1
						c5.7,0,10.4-4.6,10.4-10.2V430C982,429.6,980.9,428.9,979.9,428.1"/>
					<path id="Fill-88" class="st17" d="M963.2,450.1c-1.8,1.5-8.2,4-10.8,4c-0.4,0-0.8,0-1.2-0.1c1.4,0.7,3,1,4.6,1
						c1.1,0,6.3-1.9,7.4-2.2V450.1"/>
					<path id="Fill-89" class="st9" d="M962.4,453.2c0.1,0,0.2,0,0.3,0.1c0.2,0.1,0.4,0.3,0.4,0.6v16.5c0,5.3,4.2,9.6,9.5,9.6
						s9.5-4.3,9.5-9.6v-39.2c0-0.2,0.1-0.5,0.4-0.6c0.2-0.1,0.5-0.1,0.7,0.1c1.7,1.4,3.8,2.2,6,2.2c5.2,0,9.5-4.3,9.5-9.6v-3.5
						c0-0.2,0.1-0.4,0.3-0.5s0.4-0.1,0.6,0c1.3,0.7,2.7,1,4.2,1c5.2,0,9.5-4.3,9.5-9.6V396c0-0.1,0-0.2,0-0.3v-0.2v-0.2
						c0-0.1,0-0.2,0-0.4c0-4-2.9-7.5-6.8-8.3c-1.1,1.1-2.5,2.1-4,3c-0.1,0.1-0.2,0.1-0.3,0.1h-1.1c-0.3,0-0.6-0.3-0.6-0.6v-2.6h-1.7
						v2.6c0,0.3-0.3,0.6-0.6,0.6h-8.9c-0.3,0-0.6-0.3-0.6-0.6v-2.6H987v2.6c0,0.3-0.3,0.6-0.6,0.6h-8.9c-0.3,0-0.6-0.3-0.6-0.6v-2.6
						h-1.7v2.6c0,0.3-0.3,0.6-0.6,0.6h-8.9c-0.3,0-0.6-0.3-0.6-0.6v-2.6h-1.7v2.6c0,0.3-0.3,0.6-0.6,0.6l-8.9,0
						c-0.3,0-0.6-0.3-0.6-0.6v-2.3c-0.6,0.1-1.1,0.4-1.7,0.6v1.7c0,0.3-0.3,0.6-0.6,0.6h-2.2c-1.2,1.5-1.8,3.3-1.8,5.2
						c0,0.1,0,0.2,0,0.3v0.2v0.2c0,0.1,0,0.2,0,0.3v50c0,5.3,4.2,9.6,9.5,9.6c2.2,0,4.3-0.8,6-2.2
						C962.1,453.2,962.2,453.2,962.4,453.2z M972.5,481.1c-5.9,0-10.7-4.9-10.7-10.8V455c-1.7,1.1-3.7,1.7-5.8,1.7
						c-5.9,0-10.7-4.9-10.7-10.8l0-50c0-0.1,0-0.3,0-0.4v-0.2v-0.1c0-0.1,0-0.3,0-0.4c0-2.3,0.8-4.5,2.3-6.3
						c0.1-0.1,0.3-0.2,0.5-0.2h1.9v-1.5c0-0.2,0.1-0.4,0.3-0.6c1-0.5,2-0.9,3.2-1.1c0.2,0,0.4,0,0.5,0.2c0.1,0.1,0.2,0.3,0.2,0.5
						v0.2v2.3h7.7v-2.2c0-0.1,0-0.1,0-0.2v-0.2c0-0.2,0-0.4,0.2-0.5c0.1-0.1,0.3-0.2,0.5-0.2h3c0.2,0,0.3,0.1,0.5,0.2
						c0.1,0.1,0.2,0.3,0.2,0.5v0.2c0,0.1,0,0.1,0,0.2v2.2h7.7v-2.2c0-0.1,0-0.1,0-0.2v-0.2c0-0.2,0-0.4,0.2-0.5
						c0.1-0.1,0.3-0.2,0.5-0.2h3c0.2,0,0.3,0.1,0.5,0.2c0.1,0.1,0.2,0.3,0.2,0.5v0.2c0,0.1,0,0.1,0,0.2v2.2h7.7v-2.2
						c0-0.1,0-0.1,0-0.2v-0.2c0-0.2,0-0.4,0.2-0.5c0.1-0.1,0.3-0.2,0.5-0.2h3c0.2,0,0.4,0.1,0.5,0.2c0.1,0.1,0.2,0.3,0.2,0.5v0.2
						c0,0.1,0,0.1,0,0.2v2.2h7.7v-2.2c0-0.1,0-0.1,0-0.2v-0.2c0-0.2,0-0.4,0.2-0.5c0.1-0.1,0.3-0.2,0.5-0.2h3c0.2,0,0.3,0.1,0.5,0.2
						c0.1,0.1,0.2,0.3,0.2,0.5v0.2c0,0.1,0,0.1,0,0.2v2.2h0.3c1.5-0.9,2.8-1.9,3.9-2.9c0.1-0.1,0.3-0.2,0.5-0.2
						c4.6,0.7,8.1,4.9,8.1,9.6c0,0.2,0,0.3,0,0.5v0.1v0.1c0,0.1,0,0.3,0,0.4v14.7c0,6-4.8,10.8-10.7,10.8c-1.3,0-2.6-0.2-3.8-0.7
						v2.5c0,6-4.8,10.8-10.7,10.8c-2,0-4.1-0.6-5.8-1.7v37.9C983.2,476.3,978.4,481.1,972.5,481.1z"/>
					<path id="Fill-90" class="st16" d="M1050.2,228.5L1050.2,228.5L1050.2,228.5c-3.6-7.5-8.2-13.2-8.2-13.2c-2.2-10.3-8.8-9-8.8-9
						c-0.4-10.3-9.6-9.6-9.6-9.6c-2.6-5.4-9.7-7.3-9.7-7.3c-14-4.6-14.9,4.2-14.9,4.2l0.4,0.2l-8.2,6.3c0.6,1.2,1.3,2.4,2.3,3.4
						c1.2,1.2,2.6,2.1,4.1,2.6c0.4,4,1.9,7.7,1.9,7.7h0.2c-3.2,4.5-2.8,10.9,1.3,14.9c4.3,4.3,11.1,4.5,15.6,0.6
						c-3.9,4.6-3.7,11.4,0.6,15.7c3.6,3.7,9.1,4.4,13.5,2.1c0,0,2.3-1.6,2.8-2.1h5.4c0.2,2.7,1.3,5.4,3.3,7.5
						c1.1,1.1,2.3,1.9,3.6,2.5l8.1-9.1C1054.8,240.3,1052.8,234,1050.2,228.5"/>
					<path id="Fill-91" class="st17" d="M1015.5,197.1c0.4,0.7,0.8,1.4,1.1,2.1c1.2,2.5,2.6,4.9,4.2,7.2c0.3,0.4,0.6,0.8,1.1,0.7
						c0.2,0,0.3-0.2,0.5-0.3c0.7-0.6,1.3-1.3,1.6-2.1c0.2-0.6,0.2-1.3,0.2-2c0-1-0.1-2.1-0.2-3.1c-1.7-0.3-3-1.7-4.3-2.9
						c-0.7-0.7-1.4-1.4-2.2-2c-0.6-0.5-1.2-1-2-1.3c-0.7-0.3-1.5-0.3-2.3-0.2c-1.4,0.1-2.7,0.3-4,0.7
						C1011.7,193.8,1014.1,195.1,1015.5,197.1"/>
					<path id="Fill-92" class="st17" d="M1009.3,194.1L1009.3,194.1L1009.3,194.1L1009.3,194.1"/>
					<path id="Fill-93" class="st17" d="M1034.1,233.6l-1.3,2.9l-0.5,9.6h4.7c0,0,0.3-3.7,0.3-9.3
						C1037.2,231.3,1034.1,233.6,1034.1,233.6"/>
					<path id="Fill-94" class="st17" d="M1054,239.6l-2.3-9l-6-10.6l-3.4-4.9v6.4l-0.8,3l-2.2,1.9l2,2.2l0.4,3.2l0.1,0.2l-1.2,3.5
						l-0.9,3.8l0.3,0.7l1.3-0.3c0,0,3.3-2,3.4-4.1l0.1,2.2v0.5c0,0,1.8,13.4,9.4,7.2L1054,239.6"/>
					<path id="Fill-95" class="st17" d="M1039.2,208.7c-2.9-4-5.9-2.2-5.9-2.2l4.9,9.6C1038.1,216.1,1042.1,212.8,1039.2,208.7"/>
					<path id="Fill-96" class="st17" d="M1031.2,216.1c0,0-13.4-3.4-17.6-9.4c-4.2-6-4.4,0-4.4,0l1.7,3l4.9,3L1031.2,216.1"/>
					<path id="Fill-97" class="st17" d="M1033.3,218.1l-2.5,3.9l-5.6,3.7l-9,0.8c0,0,8.5,8.9,14.5,4.3
						C1036.6,226.3,1033.3,218.1,1033.3,218.1"/>
					<path id="Fill-98" class="st9" d="M1022.9,207.1c-0.1,0-0.2,0-0.3-0.1c-0.3-0.2-0.4-0.5-0.3-0.8c1.8-3.6,2.1-6.8,0.9-9.5
						c-2.4-5.1-9.4-7-9.5-7.1c-5.2-1.6-9.2-1.7-11.7-0.1c-2.3,1.4-2.5,3.7-2.5,3.7c0,0.3-0.4,0.6-0.7,0.5c-0.3,0-0.6-0.3-0.6-0.7
						c0-0.1,0.3-2.9,3.1-4.6c2.9-1.8,7.1-1.8,12.7,0c0.3,0.1,7.7,2.1,10.3,7.7c1.4,3.1,1.1,6.7-0.9,10.6
						C1023.4,207,1023.1,207.1,1022.9,207.1"/>
					<path id="Fill-99" class="st9" d="M999.9,215.1c-0.2,0-0.5-0.1-0.6-0.4c-0.2-0.6-5.6-13.7,2-17.1l1.7-0.8
						c6.2-2.8,10.3-4.7,13.6,1c0.5,0.9,1,1.8,1.5,2.7c1.8,3.3,3.6,6.8,5.3,7c0.6,0.1,1.2-0.3,1.8-1.1c0.2-0.3,0.6-0.3,0.9-0.1
						s0.3,0.6,0.1,0.9c-0.9,1.1-1.9,1.6-2.9,1.5c-2.3-0.2-4.2-3.7-6.3-7.6c-0.5-0.9-1-1.8-1.5-2.7c-2.6-4.6-5.4-3.5-12-0.5l-1.7,0.8
						c-6.5,2.9-1.4,15.4-1.4,15.5c0.1,0.3,0,0.7-0.3,0.8C1000.1,215.1,1000,215.1,999.9,215.1"/>
					<path id="Fill-100" class="st9" d="M1019.3,227.1c-2.8,0-4.8-0.6-5-0.6c-0.3-0.1-0.5-0.4-0.4-0.8c0.1-0.3,0.4-0.5,0.8-0.4
						c0.1,0,9.4,2.6,15-3.7c1.7-1.9,2.5-3.2,2.3-3.9c-0.3-1.1-3.4-1.6-7.3-2.3c-1.8-0.3-3.8-0.7-6-1.1c-4.7-1-7.8-2.8-9.4-5.5
						c-1.6-2.7-0.9-5.2-0.8-5.3c0.1-0.3,0.4-0.5,0.8-0.4c0.3,0.1,0.5,0.5,0.4,0.8c0,0.1-0.6,2.1,0.7,4.3c1.4,2.3,4.3,4,8.6,4.9
						c2.2,0.5,4.2,0.8,6,1.1c5,0.9,7.7,1.3,8.3,3.1c0.4,1.2-0.3,2.7-2.5,5.2C1027.2,226.3,1022.7,227.1,1019.3,227.1"/>
					<path id="Fill-101" class="st9" d="M1040.2,240.1c-0.2,0-0.5-0.1-0.7-0.2c-0.9-0.6-0.7-2.2,0.6-5.4c1-2.6,1.2-4.7,0.5-6.1
						c-0.7-1.3-1.9-1.6-1.9-1.6c-0.3-0.1-0.5-0.3-0.5-0.6c0-0.3,0.2-0.5,0.5-0.6c0,0,1.3-0.2,2.2-1.7c1.2-1.8,1.4-4.8,0.6-8.6
						c-2-9.5-7.9-8.4-8-8.4c-0.2,0-0.4,0-0.5-0.1s-0.2-0.3-0.2-0.5c-0.1-3-1-5.3-2.7-6.9c-2.6-2.3-6.1-2.1-6.2-2.1
						c-0.3,0-0.6-0.2-0.7-0.6s0.2-0.6,0.6-0.7c0.2,0,4.1-0.3,7.1,2.4c1.8,1.6,2.9,4,3.1,7.1c0,0,0,0,0.1,0c1.9,0,6.8,0.9,8.7,9.4
						c0.9,4.3,0.6,7.5-0.8,9.6c-0.5,0.8-1.1,1.3-1.6,1.6c0.5,0.3,1,0.8,1.4,1.5c0.9,1.8,0.8,4.2-0.4,7.2c-1.3,3.3-1,3.9-1,4
						c0.1,0,0.8-0.4,1.2-0.8c0.3-0.2,0.7-0.2,0.9,0.1c0.2,0.3,0.2,0.7-0.1,0.9C1041.9,239.4,1041,240.1,1040.2,240.1"/>
					<path id="Fill-102" class="st9" d="M1037.6,218.1c-0.3,0-0.5-0.2-0.6-0.4c0-0.1-4.7-13.6-9.5-17.4c-0.3-0.2-0.3-0.6-0.1-0.9
						c0.2-0.3,0.6-0.3,0.9-0.1c5.1,4.1,9.8,17.5,10,18c0.1,0.3-0.1,0.7-0.4,0.8C1037.8,218.1,1037.7,218.1,1037.6,218.1"/>
					<path id="Fill-103" class="st9" d="M1032.9,246.1c-0.4,0-0.6-0.3-0.6-0.6c0-0.3,0.3-0.6,0.6-0.6h7.3c0.1,0,2.7-0.4,3.7-5.8
						c1-5.4-2.7-6.8-2.8-6.8c-0.3-0.1-0.5-0.5-0.4-0.8s0.5-0.5,0.8-0.4c0,0,4.8,1.7,3.6,8.2c-1.2,6.4-4.7,6.8-4.9,6.8H1032.9"/>
					<path id="Fill-104" class="st9" d="M1030.9,249.1c-0.3,0-0.6-0.2-0.6-0.6c0-0.3,0.2-0.7,0.5-0.7c0,0,2.1-0.6,1.9-7.4
						c-0.3-8.2,3.7-9.2,3.8-9.3c0.3-0.1,0.7,0.1,0.7,0.5c0.1,0.3-0.1,0.7-0.4,0.8c-0.1,0-3.1,1-2.9,8
						C1034.2,248.5,1031.3,249.1,1030.9,249.1L1030.9,249.1"/>
					<path id="Fill-105" class="st9" d="M1054.5,247.1C1054.4,247.1,1054.4,247.1,1054.5,247.1c-0.4,0-0.7-0.4-0.6-0.7
						c1.6-13.3-12.3-30.1-12.4-30.3c-0.2-0.3-0.2-0.7,0.1-0.9c0.3-0.2,0.7-0.2,0.9,0.1c0.6,0.7,14.4,17.3,12.7,31.2
						C1055.1,246.9,1054.8,247.1,1054.5,247.1"/>
					<path id="Fill-106" class="st9" d="M1051.1,248.1c-0.2,0-0.4-0.1-0.5-0.3c-1.7-2.3-2.4-4.6-2-6.8c0.4-2.1,1.6-3.6,2.6-4.5
						c-3.5-1-3.8-3.9-4.1-6.5c-0.1-0.9-0.2-1.8-0.4-2.6c-0.8-3.3-4.9-4.1-5-4.1c-0.3-0.1-0.6-0.4-0.5-0.7c0.1-0.3,0.4-0.6,0.7-0.5
						c0.2,0,4.9,1,5.9,5c0.2,0.9,0.3,1.9,0.4,2.8c0.3,2.9,0.6,5.1,4.3,5.7c0.3,0,0.5,0.2,0.5,0.5c0.1,0.3-0.1,0.5-0.3,0.7
						c0,0-2.6,1.7-3.1,4.5c-0.3,1.9,0.3,3.8,1.7,5.8c0.2,0.3,0.1,0.7-0.1,0.9C1051.4,248.1,1051.2,248.1,1051.1,248.1"/>
					<path id="Fill-107" class="st9" d="M1033.7,244h5.5c0.3,0,0.6,0.3,0.6,0.6c0.2,2.7,1.3,5.2,3.2,7c0.9,0.9,1.9,1.6,3.1,2.1
						l7.8-8.6c0.5-4.8-0.8-10.4-4-16.9l0,0c-3.6-7.3-8.2-13-8.3-13c-0.1-0.1-0.1-0.2-0.1-0.3c-2-9.5-8.1-8.5-8.1-8.4
						c-0.2,0-0.4,0-0.5-0.1s-0.2-0.3-0.2-0.5c-0.1-3-1-5.4-2.8-6.9c-2.6-2.3-6.2-2.1-6.3-2.1c-0.3,0-0.5-0.1-0.6-0.3
						c-2.5-5.1-9.3-6.9-9.4-7c-5.2-1.7-9.2-1.7-11.7-0.1c-1.7,1.1-2.3,2.7-2.5,3.4l0,0c0.2,0.1,0.3,0.3,0.3,0.5s-0.1,0.4-0.2,0.5
						l-7.8,5.9c0.5,1,1.2,2,2,2.8c1.1,1.1,2.4,1.9,3.9,2.5c0.2,0.1,0.4,0.3,0.4,0.5c0.3,3.1,1.4,6.1,1.8,7.2c0.1,0,0.2,0.1,0.2,0.2
						c0.2,0.2,0.2,0.5,0,0.7c-3.1,4.4-2.6,10.3,1.2,14.1c4,4,10.6,4.3,15,0.6c0.2-0.2,0.6-0.2,0.9,0c0.2,0.2,0.2,0.6,0,0.8
						c-3.7,4.3-3.4,10.8,0.6,14.8c3.4,3.4,8.6,4.2,12.9,2c0.8-0.6,2.4-1.6,2.7-2C1033.4,244.1,1033.6,244,1033.7,244z M1046.3,255.1
						c-0.1,0-0.2,0-0.2-0.1c-1.5-0.6-2.8-1.5-3.9-2.6c-2-2-3.2-4.5-3.5-7.3h-4.7c-0.7,0.6-2.5,1.8-2.7,2c-4.9,2.5-10.6,1.6-14.5-2.2
						c-3.8-3.7-4.6-9.4-2.3-14c-4.6,2.2-10.4,1.4-14.1-2.3c-4.1-4.1-4.8-10.4-1.6-15.2c-0.3-0.8-1.5-3.9-1.9-7.3
						c-1.5-0.6-2.9-1.5-4-2.6c-1-1-1.9-2.2-2.5-3.6c-0.1-0.3,0-0.6,0.2-0.8l7.6-5.7c0-0.1-0.1-0.2,0-0.3c0-0.1,0.3-2.9,3.1-4.7
						c2.9-1.8,7.2-1.8,12.8,0c0.3,0.1,7.1,2,10,7.2l0,0c1.9,0,9.3,0.6,9.9,9.5c1.8,0,7,0.8,8.8,9.3c0.7,0.9,4.9,6.2,8.3,13
						c0.1,0.1,0.1,0.2,0.1,0.3c3.2,6.7,4.6,12.6,4,17.6c0,0.1-0.1,0.2-0.2,0.3l-8.2,9.1C1046.6,255.1,1046.5,255.1,1046.3,255.1z"/>
				</g>
			</g>
			<g id="carnaval" transform="translate(315.171710, 278.643164) rotate(-10.000000) translate(-315.171710, -278.643164) ">
				<g>
					<g class="st3">
						<text transform="matrix(1 0 0 1 234.3988 36.9408)" class="st18 st19 st20">carnaval</text>
					</g>
				</g>
				<g>
					<g class="st3">
						<text transform="matrix(1 0 0 1 234.3988 36.9408)" class="st18 st19 st20">carnaval</text>
					</g>
				</g>
			</g>
			<g id="Halloween" transform="translate(201.171710, 223.643164) rotate(-10.000000) translate(-201.171710, -223.643164) ">
				<g>
					<g class="st3">
						<text transform="matrix(1 0 0 1 108.0551 -14.6437)" class="st18 st21 st22">Halloween</text>
					</g>
				</g>
			</g>
		</g>
		<title>disco_ball</title>
		<desc>Created with Sketch.</desc>
		<g id="disco_ball">
			
				<image style="overflow:visible;enable-background:new    ;" width="627" height="626" xlink:href="6DF7E36E2C515D6C.png"  transform="matrix(0.6498 0.3122 -0.3122 0.6498 -548.8272 -47.0322)">
			</image>
		</g>
	</g>
</g>
<g>
	
		<text transform="matrix(-5.237369e-02 -0.9986 0.9986 -5.237369e-02 901.4512 374.5262)" class="st24 st19" style="font-size:24px;"> </text>
</g>
<g>
	<path id="Fill-4_1_" d="M-110.2,403.8c-6.5-10.9-2.9-25,7.9-31.4l89.9-53.1c10.9-6.4,24.9-2.7,31.3,8.2s2.9,25-7.9,31.4L-78.9,412
		C-89.7,418.4-103.7,414.7-110.2,403.8"/>
	<path id="Fill-5_2_" class="st23" d="M183.7,327c1.5-5.8,7-9.4,12.8-8.6l-10.8-2.8c-6.2-1.6-9.9-8-8.3-14.1
		c1.5-5.9,7.4-9.6,13.2-8.5c-5.6-1.9-9-7.9-7.5-13.8c1.6-6.2,8-9.9,14.1-8.3l10.8,2.8c-5.4-2-8.5-8-7-13.6c0.8-3,2.6-5.4,5.1-6.9
		c-1.5-3.7-3.2-7.2-5.2-10.6c-21.5-36.5-74.9-59.1-111.5-37.6l-90.8,226l15.4,11.3L173.5,348c4.8-2.8,9.2-6.1,13.1-9.8
		C183.9,335.3,182.6,331.1,183.7,327"/>
	<path id="Fill-6_1_" class="st9" d="M90.1,204.7L0,430.5l14.7,10.8l159.2-93.9c4.5-2.6,8.7-5.7,12.5-9.3c-2.7-3-3.8-7.3-2.8-11.2
		c1.2-4.5,4.7-7.9,9.2-8.9l-6.8-1.8c-6.6-1.7-10.5-8.4-8.8-15c1.3-5.2,5.8-8.7,10.9-9.1c-4.2-2.8-6.4-8.2-5.2-13.3
		c0.8-3.1,2.8-5.8,5.6-7.5c2.8-1.7,6.1-2.1,9.2-1.3l6.8,1.8c-3.4-3-4.9-7.7-3.8-12.3c0.7-2.9,2.5-5.3,4.9-6.9
		c-1.4-3.5-3.1-6.9-5.1-10.1C179.9,207.2,127.1,183.1,90.1,204.7z M-1.2,431c-0.1-0.2-0.1-0.4-0.1-0.5L89.1,204
		c0-0.1,0.1-0.2,0.3-0.3c37.6-22.2,91.3,2.3,112.5,38.1c2,3.4,3.8,7,5.3,10.8c0.2,0.3,0,0.6-0.3,0.7c-2.4,1.5-4.1,3.8-4.7,6.5
		c-1.4,5.3,1.5,11,6.6,13c0.3,0.2,0.5,0.4,0.4,0.8c-0.1,0.3-0.4,0.5-0.8,0.5l-10.8-2.8c-2.9-0.7-5.8-0.3-8.3,1.2
		c-2.5,1.5-4.4,3.8-5.1,6.7c-1.4,5.5,1.7,11.3,7.1,13.1c0.3,0.1,0.5,0.4,0.5,0.8c-0.1,0.3-0.4,0.5-0.7,0.4c-5.6-1-11.1,2.6-12.5,8.1
		c-1.5,5.9,2,11.9,7.9,13.4l10.8,2.8c0.3,0.1,0.5,0.4,0.5,0.8c-0.1,0.3-0.4,0.6-0.7,0.5c-5.5-0.7-10.7,2.8-12,8.1
		c-1,3.7,0.2,7.8,2.9,10.5c0.1,0.2,0.2,0.3,0.2,0.5c0,0.1-0.1,0.3-0.2,0.5c-4,3.8-8.5,7.1-13.2,9.9L15.1,442.9
		c-0.3,0.2-0.5,0.2-0.7,0l-15.4-11.3C-1.1,431.2-1.2,431.1-1.2,431z"/>
	<path id="Fill-7_1_" class="st11" d="M184.2,327.5c1.6-5.7,7-9.4,12.7-8.6l-10.7-2.8c-0.4-0.1-0.9-0.3-1.3-0.5
		c-5.4-2.2-8.4-8-7.1-13.7c1.5-5.9,7.3-9.5,13.2-8.5c-0.1,0-0.2-0.1-0.3-0.2c-5.4-2.1-8.6-8.1-7.2-13.8c1.5-5.8,7-9.4,12.7-8.6
		c0.5,0.1,0.9,0.2,1.4,0.2l10.7,2.8l0,0c-5.4-2.2-7.8-7.9-7.1-13.7c0.6-4.3,5-6.9,5-6.9L181,242.9c-6.2-1.6-12.4,2.1-14,8.3
		c-1.5,5.8,1.7,11.7,7.1,13.7l-10.7-2.8c-6.2-1.6-12.4,2.1-14,8.3c-1.5,5.9,1.8,11.9,7.5,13.9c-5.9-1.1-11.7,2.6-13.2,8.5
		c-1.6,6.2,2.2,12.5,8.4,14.2l10.7,2.8c-5.7-0.8-11.2,2.8-12.7,8.6c-1.6,6.2,2.2,12.6,8.4,14.2l29.1,6
		C187.3,338.6,182.5,333.7,184.2,327.5"/>
	<path id="Fill-8_1_" class="st24" d="M149.4,313c1.5-5.8,7-9.4,12.7-8.6l-10.8-2.8c-6.2-1.6-9.9-8-8.3-14.1
		c1.5-5.9,7.4-9.6,13.2-8.5c-5.6-1.9-9-7.9-7.5-13.8c1.6-6.2,8-9.9,14.1-8.3l10.8,2.8c-5.3-2.1-8.4-8-7-13.6c1.6-6.2,8-9.9,14.1-8.3
		l11.8,4.9c-1.6-5-4.4-11.8-7.2-16.4C164,189.7,116.5,177.4,80,198.9l-159.3,94l78.3,132.6l159.3-94c1.6-0.9,3.1-2,4.6-3l-5.2-1.3
		C151.6,325.5,147.8,319.2,149.4,313z"/>
	<path id="Fill-9_1_" class="st9" d="M191.8,244.6L191.8,244.6c-1-2.4-2-4.8-3.1-7.1c-0.2-0.3,0-0.7,0.2-0.8
		c0.3-0.2,0.6,0.1,0.8,0.3c1.1,2.3,2.2,4.7,3.1,7.1c0.1,0.4,0,0.7-0.3,0.7C192.3,245.1,192,244.9,191.8,244.6"/>
	<path id="Fill-10_2_" class="st9" d="M115,294.1c-2.7-4.6-15.9-2-28.8,5.6s-21.6,18-18.9,22.5c2.7,4.6,15.9,2,28.8-5.6
		C109.1,309,117.7,298.7,115,294.1z M66.2,322.9c-3.2-5.3,5.3-15.9,19.4-24.2s27.4-10.6,30.6-5.3s-5.3,15.9-19.4,24.2
		S69.4,328.3,66.2,322.9z"/>
	<path id="Fill-11_2_" class="st9" d="M95.7,261.4c-2.7-4.6-15.9-2-28.8,5.6S45.3,285,48,289.6c2.7,4.6,15.9,2,28.8-5.6
		C89.8,276.3,98.4,266,95.7,261.4z M46.9,290.2c-3.2-5.3,5.3-15.9,19.4-24.2s27.4-10.6,30.6-5.3c3.2,5.3-5.3,15.9-19.4,24.2
		S50,295.6,46.9,290.2z"/>
	<path id="Fill-12_2_" class="st18" d="M66.2,320.9C62.8,315.1,71,304,84.6,296c13.5-8,27.3-9.8,30.7-4.1l1,1.6l-49.1,29L66.2,320.9
		"/>
	<path id="Fill-13_1_" class="st18" d="M46.8,288.2c-3.4-5.8,4.9-16.9,18.4-24.9s27.3-9.8,30.7-4.1l1,1.6l-49.1,29L46.8,288.2"/>
	<path id="Fill-14_1_" class="st9" d="M97.9,290c-0.1-0.1-0.1-0.1-0.1-0.2c-0.1-0.4,0-0.7,0.3-0.8c0.7-0.2,1.3-0.3,2-0.4
		c0.3-0.1,0.7,0.2,0.8,0.6c0.1,0.4,0,0.7-0.4,0.7c-0.6,0.1-1.2,0.3-1.9,0.4C98.2,290.5,98,290.3,97.9,290"/>
	<path id="Fill-15_2_" class="st9" d="M92.9,291.5C92.9,291.4,92.9,291.4,92.9,291.5c-0.1-0.3,0-0.6,0.3-0.6
		c0.3-0.2,0.6-0.2,0.8-0.4c0.3-0.2,0.6,0,0.6,0.2s-0.1,0.5-0.4,0.6c-0.3,0.2-0.6,0.2-0.8,0.4C93.3,291.7,93,291.7,92.9,291.5"/>
	<path id="Fill-16_2_" class="st9" d="M73.6,304c-0.2-0.3-0.1-0.6,0.1-0.8c0.9-0.9,1.9-1.7,2.9-2.5c0.3-0.2,0.6-0.1,0.9,0.1
		c0.2,0.3,0.2,0.7-0.1,0.9c-1,0.8-2,1.7-2.9,2.5C74.3,304.4,73.9,304.3,73.6,304C73.6,304.1,73.6,304,73.6,304"/>
	<path id="Fill-17_2_" class="st9" d="M66.4,323.3l-1-1.6c-2.2-3.7-0.3-9.2,5.2-15.2c0.2-0.2,0.7-0.3,0.9-0.1
		c0.2,0.2,0.3,0.7,0.1,0.9c-5,5.5-6.8,10.7-5,13.8l0.6,1l47.8-28.2l-0.6-1c-1.5-2.5-5.2-3.5-10.6-2.9c-0.3,0.1-0.7-0.2-0.7-0.5
		c-0.1-0.3,0.2-0.7,0.5-0.7c5.9-0.7,10,0.6,11.8,3.6l1,1.6c0.2,0.3,0,0.7-0.2,0.8l-48.8,28.8C66.9,323.7,66.6,323.6,66.4,323.3"/>
	<path id="Fill-18_2_" class="st9" d="M78.2,258.6c-0.1-0.1-0.1-0.1-0.1-0.2c-0.1-0.3,0.1-0.6,0.5-0.8c0.9-0.3,1.9-0.5,2.7-0.7
		c0.3-0.1,0.7,0.2,0.8,0.5c0.1,0.3-0.2,0.7-0.5,0.8c-0.9,0.2-1.8,0.5-2.7,0.7C78.6,259,78.3,258.8,78.2,258.6"/>
	<path id="Fill-19_2_" class="st9" d="M75,259.1C74.9,259,74.9,259,75,259.1c-0.1-0.3,0.1-0.6,0.4-0.7l0.7-0.3
		c0.3-0.2,0.7,0,0.7,0.2s-0.1,0.5-0.5,0.6l-0.7,0.3C75.4,259.4,75.1,259.3,75,259.1"/>
	<path id="Fill-20_2_" class="st9" d="M57.3,268.4c-0.1-0.2,0-0.4,0.3-0.6l0.6-0.4c0.3-0.2,0.7-0.3,0.8,0c0.1,0.2,0.1,0.5-0.3,0.7
		l-0.6,0.4C57.9,268.7,57.4,268.7,57.3,268.4C57.3,268.5,57.3,268.5,57.3,268.4"/>
	<path id="Fill-21_1_" class="st9" d="M53.1,273.1c-0.2-0.3-0.1-0.5,0.1-0.8c0.9-0.9,1.8-1.8,2.9-2.6c0.2-0.2,0.7-0.2,0.9,0.1
		c0.2,0.2,0.1,0.6-0.1,0.9c-1,0.8-1.9,1.7-2.8,2.6c-0.2,0.2-0.7,0.3-0.9,0.1C53.1,273.2,53.1,273.2,53.1,273.1"/>
	<path id="Fill-22_1_" class="st9" d="M47.1,290.6l-1-1.6c-2.1-3.5-0.6-8.8,4.1-14.5c0.2-0.2,0.7-0.3,0.9-0.1
		c0.2,0.2,0.3,0.7,0.1,0.9c-4.3,5.2-5.7,10-3.9,13l0.7,1.1l47.8-28.2l-0.7-1.1c-1.4-2.3-4.6-3.5-9.2-3.3c-0.4,0-0.6-0.2-0.7-0.6
		c0-0.4,0.2-0.6,0.5-0.7c5.1-0.2,8.8,1.2,10.4,3.9l1,1.6c0.2,0.3,0,0.7-0.2,0.8L48,290.7C47.6,291,47.3,290.9,47.1,290.6"/>
	<path id="Fill-23_1_" class="st9" d="M115,294.1c-2.7-4.6-15.9-2-28.8,5.6s-21.6,18-18.9,22.5c2.7,4.6,15.9,2,28.8-5.6
		C109.1,309,117.7,298.7,115,294.1z M66.2,322.9c-3.2-5.3,5.3-15.9,19.4-24.2s27.4-10.6,30.6-5.3s-5.3,15.9-19.4,24.2
		S69.4,328.3,66.2,322.9z"/>
	<path id="Fill-24_2_" class="st9" d="M95.7,261.4c-2.7-4.6-15.9-2-28.8,5.6S45.3,285,48,289.6c2.7,4.6,15.9,2,28.8-5.6
		C89.8,276.3,98.4,266,95.7,261.4z M46.9,290.2c-3.2-5.3,5.3-15.9,19.4-24.2s27.4-10.6,30.6-5.3c3.2,5.3-5.3,15.9-19.4,24.2
		S50,295.6,46.9,290.2z"/>
	<path id="Fill-25_1_" class="st9" d="M97.2,317.4c-13.5,8-26.9,10.4-29.9,5.4c-2.9-5,5.7-15.5,19.2-23.5s26.9-10.4,29.9-5.4
		C119.4,298.9,110.7,309.5,97.2,317.4"/>
	<path id="Fill-26_1_" class="st9" d="M77.9,284.7c-13.5,8-26.9,10.4-29.9,5.4c-2.9-5,5.6-15.5,19.2-23.5s26.9-10.4,29.9-5.4
		C100.1,266.2,91.4,276.7,77.9,284.7"/>
	<path id="Fill-27_1_" class="st9" d="M-0.9,431.5l-78.6-133.2c-0.2-0.3,0-0.7,0.2-0.8l159.2-93.9c36.9-21.8,84.5-9.2,106.4,27.8
		c0.2,0.3,0,0.7-0.2,0.8s-0.7,0-0.8-0.2c-21.5-36.4-68.4-48.7-104.7-27.3l-158.6,93.6l78,132.2l35.6-21c0.3-0.2,0.7,0,0.8,0.2
		c0.2,0.3,0,0.7-0.2,0.8l-36.1,21.3C-0.4,431.9-0.7,431.9-0.9,431.5"/>
	<path id="Fill-28_2_" class="st9" d="M193.1,317.6l-6.8-1.8c-0.4-0.1-0.9-0.3-1.4-0.4l-20.7-5.4c-2.9-0.7-5.8-0.3-8.3,1.2
		s-4.4,3.8-5,6.7c-0.7,2.9-0.3,5.8,1.2,8.3c1.5,2.6,3.8,4.4,6.7,5.1l27.3,5.6c-1.4-2-3.4-5.8-2.2-10.3
		C185.2,321.9,188.8,318.5,193.1,317.6z M150.9,326.7c-1.6-2.7-2.2-6-1.3-9.3c0.8-3.1,2.8-5.8,5.6-7.5c2.8-1.7,6.1-2.1,9.2-1.3
		l20.9,5.5c0.6,0.2,0.9,0.4,1.3,0.5l10.8,2.8c0.3,0.1,0.5,0.4,0.5,0.8c-0.1,0.3-0.4,0.6-0.7,0.5c-5.4-0.7-10.6,2.8-12,8.1
		c-1.6,5.8,2.8,10.5,2.9,10.5c0.2,0.2,0.2,0.5,0.1,0.8c-0.1,0.2-0.4,0.3-0.7,0.3l-29.1-6C155.1,331.6,152.5,329.4,150.9,326.7z"/>
	<path id="Fill-29_2_" class="st9" d="M186.3,292.5l-29-7.6c-5.8-1.6-11.7,1.9-13.3,7.8c-1.4,5.8,2.1,11.8,7.9,13.3l29,7.6
		c-3.4-3-5.1-7.7-3.9-12.3C178.1,296.7,181.8,293.4,186.3,292.5z M144.2,301.7c-1.6-2.7-2.2-6-1.4-9.2c1.6-6.5,8.2-10.4,14.7-8.7
		l33.3,8.8c0.3,0.1,0.5,0.4,0.4,0.7c-0.1,0.3-0.4,0.5-0.7,0.4c-5.6-1-10.9,2.5-12.4,8c-1.4,5.8,2.1,11.8,7.9,13.3l10.7,2.8
		c0.3,0.1,0.5,0.4,0.5,0.8c0,0.1-0.2,0.3-0.2,0.4c-0.2,0.1-0.3,0.1-0.4,0l-44.8-11.9C148.3,306.4,145.8,304.3,144.2,301.7z"/>
	<path id="Fill-30_2_" class="st9" d="M197,271c-0.1-0.2-0.1-0.3,0-0.4c0.1-0.3,0.4-0.5,0.8-0.5l10.7,2.8c0.1,0,0.3,0.2,0.4,0.2
		c0.1,0.2,0.1,0.3,0,0.4c-0.1,0.3-0.4,0.5-0.7,0.4l0,0l-10.7-2.8C197.1,271.3,197,271.1,197,271"/>
	<path id="Fill-31_2_" class="st9" d="M192,270.2l-29-7.4c-2.8-0.7-5.8-0.3-8.3,1.2s-4.4,3.8-5,6.7c-0.8,2.8-0.3,5.8,1.2,8.3
		s3.8,4.3,6.7,5l29,7.4c-3.5-2.9-5.1-7.7-3.9-12.2c0.8-3.1,2.9-5.8,5.6-7.4C189.4,271,190.6,270.5,192,270.2z M149.8,279.6
		c-1.6-2.8-2.1-6.1-1.3-9.2c0.8-3.1,2.9-5.8,5.6-7.4s6.1-2.1,9.2-1.4l34.1,8.7c0.3,0.1,0.5,0.4,0.5,0.8c0,0.1-0.2,0.3-0.2,0.4
		c-0.2,0.1-0.3,0.1-0.4,0c-2.8-0.7-5.8-0.3-8.3,1.2s-4.4,3.8-5,6.7c-1.4,5.5,1.6,11.1,7,13c0.3,0.1,0.5,0.4,0.4,0.7
		s-0.4,0.5-0.7,0.4l-0.4,0l-33.1-8.1C154,284.4,151.4,282.4,149.8,279.6z"/>
	<path id="Fill-32_2_" class="st9" d="M205,252.9l-24.4-9.8c-2.7-0.7-5.7-0.2-8.3,1.3c-2.6,1.5-4.4,3.9-5.1,6.7
		c-0.7,2.9-0.3,5.8,1.2,8.3s3.8,4.4,6.7,5l21,5.3c0.5,0.1,0.9,0.2,1.4,0.2l6.9,1.7c-3.1-2.8-4.5-7.3-3.8-12.2
		C201,256.3,203.5,254,205,252.9z M167.3,260.1c-1.7-2.8-2.1-6.1-1.3-9.2c0.8-3.1,2.8-5.8,5.7-7.5c2.8-1.7,6.2-2.1,9.3-1.3
		l25.5,10.2c0.2,0.1,0.4,0.2,0.4,0.6c0,0.2-0.1,0.4-0.4,0.6c0,0-4.3,2.6-4.8,6.4c-0.9,6,1.8,11.1,6.6,12.9c0.3,0.2,0.5,0.4,0.4,0.8
		c-0.2,0.3-0.4,0.5-0.8,0.5l-10.9-2.7c-0.4-0.1-0.8-0.2-1.3-0.3l-21.1-5.2C171.6,265,169,262.9,167.3,260.1z"/>
	<path id="Fill-33_2_" class="st9" d="M34.7,320.7c4.9,8.4,7.8,17.4,8.2,25c0.2,6-1.4,10.5-4.2,12.1s-7.5,0.9-12.7-2.2
		c-6.5-3.9-13-10.9-18-19.2c-4.9-8.4-7.8-17.4-8.2-25c-0.2-6,1.4-10.5,4.2-12.1s7.5-0.9,12.7,2.2C23.2,305.4,29.7,312.3,34.7,320.7"
		/>
	<path id="Fill-34_2_" class="st18" d="M27.1,331.5c-1.3-2.2-0.5-4.9,1.7-6.2l5-2.9c2.2-1.3,5-0.6,6.2,1.5c1.3,2.2,0.5,4.9-1.7,6.2
		l-5,2.9C31.1,334.4,28.4,333.6,27.1,331.5"/>
	<path id="Fill-35_2_" class="st18" d="M21,321.2c-1.3-2.2-0.5-4.9,1.7-6.2l5-2.9c2.2-1.3,5-0.6,6.2,1.5c1.3,2.2,0.5,4.9-1.7,6.2
		l-5,2.9C25,324,22.3,323.3,21,321.2"/>
	<path id="Fill-36_2_" class="st18" d="M14.9,310.8c-1.3-2.2-0.5-4.9,1.7-6.2l5-2.9c2.2-1.3,5-0.6,6.2,1.5c1.3,2.2,0.5,4.9-1.7,6.2
		l-5,2.9C18.9,313.7,16.2,313,14.9,310.8"/>
	<path id="Fill-37_2_" class="st13" d="M9.7,300c-1.3-2.2-0.6-4.9,1.7-6.2l1.6-1c2.2-1.3,5-0.6,6.2,1.5c1.3,2.2,0.6,4.9-1.7,6.2
		l-1.7,1C13.7,302.8,11,302.1,9.7,300"/>
	<path id="Fill-38_2_" class="st18" d="M33.2,341.8c-1.3-2.2-0.5-4.9,1.7-6.2l5-2.9c2.2-1.3,5-0.6,6.2,1.5c1.3,2.2,0.5,4.9-1.7,6.2
		l-5,2.9C37.2,344.7,34.5,344,33.2,341.8"/>
	<path id="Fill-39_1_" class="st13" d="M40.2,351.7c-1.3-2.2-0.6-4.9,1.7-6.2l1.6-1c2.2-1.3,5-0.6,6.2,1.5c1.3,2.2,0.6,4.9-1.7,6.2
		l-1.7,1C44.2,354.5,41.5,353.8,40.2,351.7"/>
	<path id="Fill-40_1_" class="st9" d="M115.7,361.6c-0.1-0.2,0.1-0.5,0.3-0.6l5-2.9c0.3-0.2,0.6-0.1,0.7,0c0.1,0.2-0.1,0.5-0.3,0.6
		l-5,2.9C116.1,361.9,115.8,361.8,115.7,361.6"/>
	<path id="Fill-41_2_" class="st9" d="M107.1,366.7c-0.1-0.2,0.1-0.5,0.3-0.6l4-2.4c0.3-0.2,0.6-0.1,0.7,0s-0.1,0.5-0.3,0.6l-4,2.4
		C107.6,366.9,107.2,366.9,107.1,366.7"/>
	<path id="Fill-42_2_" class="st9" d="M85.6,379.4c-0.1-0.2,0.1-0.5,0.3-0.6l14.5-8.5c0.3-0.2,0.6-0.1,0.7,0
		c0.1,0.2-0.1,0.5-0.3,0.6l-14.5,8.5C86,379.7,85.7,379.6,85.6,379.4"/>
	<path id="Fill-43_2_" class="st9" d="M72.7,387.1c-0.1-0.2,0.1-0.5,0.3-0.6l7.6-4.5c0.3-0.2,0.6-0.1,0.7,0s-0.1,0.5-0.3,0.6
		l-7.6,4.5C73.1,387.3,72.8,387.2,72.7,387.1"/>
	<path id="Fill-44_2_" class="st9" d="M49.4,400.8c-0.1-0.2,0.1-0.5,0.3-0.6l10.9-6.5c0.3-0.2,0.6-0.1,0.7,0
		c0.1,0.2-0.1,0.5-0.3,0.6l-10.9,6.5C49.8,401,49.5,400.9,49.4,400.8"/>
	<path id="Fill-45_4_" class="st18" d="M9,342.2c-1.3-2.2-0.5-4.9,1.7-6.2l5-2.9c2.2-1.3,5-0.6,6.2,1.5c1.3,2.2,0.5,4.9-1.7,6.2
		l-5,2.9C13.1,345,10.3,344.3,9,342.2"/>
	<path id="Fill-46_2_" class="st18" d="M2.9,331.8c-1.3-2.2-0.5-4.9,1.7-6.2l5-2.9c2.2-1.3,5-0.6,6.2,1.5c1.3,2.2,0.5,4.9-1.7,6.2
		l-5,2.9C7,334.7,4.2,334,2.9,331.8"/>
	<path id="Fill-47_2_" class="st18" d="M-3.2,321.5c-1.3-2.2-0.5-4.9,1.7-6.2l5-2.9c2.2-1.3,5-0.6,6.2,1.5c1.3,2.2,0.5,4.9-1.7,6.2
		l-5,2.9C0.9,324.4-1.9,323.6-3.2,321.5"/>
	<path id="Fill-48_2_" class="st18" d="M-6.7,309.6c-1.3-2.2-0.6-4.9,1.6-6.2l2.6-1.5c2.1-1.2,4.9-0.6,6.2,1.6s0.6,4.9-1.6,6.2
		l-2.7,1.6C-2.7,312.5-5.4,311.8-6.7,309.6"/>
	<path id="Fill-49_4_" class="st18" d="M15.1,352.5c-1.3-2.2-0.5-4.9,1.7-6.2l5-2.9c2.2-1.3,5-0.6,6.2,1.5c1.3,2.2,0.5,4.9-1.7,6.2
		l-5,2.9C19.2,355.4,16.4,354.7,15.1,352.5"/>
	<path id="Fill-50_4_" class="st18" d="M21.2,362.8c-1.3-2.2-0.5-4.9,1.7-6.2l5-2.9c2.2-1.3,5-0.6,6.2,1.5c1.3,2.2,0.5,4.9-1.7,6.2
		l-5,2.9C25.2,365.7,22.5,365,21.2,362.8"/>
	<path id="Fill-51_2_" class="st14" d="M40,323.8c-0.3-0.4-0.5-0.7-0.8-1c0.4,1.9-0.3,4.1-2.1,5.2l-5,2.9c-1.8,1.1-4,0.7-5.5-0.7
		c0.1,0.4,0.3,0.9,0.5,1.2c1.3,2.2,4.2,3,6.4,1.7l5-2.9C40.5,328.8,41.3,325.9,40,323.8"/>
	<path id="Fill-52_2_" class="st14" d="M33.9,313.5c-0.3-0.4-0.5-0.7-0.8-1c0.4,1.9-0.3,4.1-2.1,5.2l-5,2.9c-1.8,1.1-4,0.7-5.5-0.7
		c0.1,0.4,0.3,0.9,0.5,1.2c1.3,2.2,4.2,3,6.4,1.7l5-2.9C34.4,318.5,35.2,315.6,33.9,313.5"/>
	<path id="Fill-53_2_" class="st14" d="M27.8,303.1c-0.3-0.4-0.5-0.7-0.8-1c0.4,1.9-0.3,4.1-2.1,5.2l-5,2.9c-1.8,1.1-4,0.7-5.5-0.7
		c0.1,0.4,0.3,0.9,0.5,1.2c1.3,2.2,4.2,3,6.4,1.7l5-2.9C28.3,308.1,29.1,305.3,27.8,303.1"/>
	<path id="Fill-54_2_" class="st14" d="M19.1,294.3c-0.3-0.4-0.5-0.7-0.8-1c0.4,1.9-0.3,4.1-2,5.1l-1.7,1c-1.8,1.1-4,0.7-5.4-0.7
		c0.1,0.4,0.3,0.9,0.5,1.2c1.3,2.2,4.1,3,6.4,1.7l1.6-1C19.6,299.3,20.4,296.5,19.1,294.3"/>
	<path id="Fill-55_2_" class="st14" d="M46.1,334.1c-0.3-0.4-0.5-0.7-0.8-1c0.4,1.9-0.3,4.1-2.1,5.2l-5,2.9c-1.8,1.1-4,0.7-5.5-0.7
		c0.1,0.4,0.3,0.9,0.5,1.2c1.3,2.2,4.2,3,6.4,1.7l5-2.9C46.6,339.1,47.4,336.3,46.1,334.1"/>
	<path id="Fill-56_2_" class="st14" d="M49.6,346c-0.3-0.4-0.5-0.7-0.8-1c0.4,1.9-0.3,4.1-2,5.1l-1.7,1c-1.8,1.1-4,0.7-5.4-0.7
		c0.1,0.4,0.3,0.9,0.5,1.2c1.3,2.2,4.1,3,6.4,1.7l1.6-1C50.1,351,50.9,348.1,49.6,346"/>
	<path id="Fill-57_4_" class="st14" d="M21.9,334.5c-0.3-0.4-0.5-0.7-0.8-1c0.4,1.9-0.3,4.1-2.1,5.2l-5,2.9c-1.8,1.1-4,0.7-5.5-0.7
		c0.1,0.4,0.3,0.9,0.5,1.2c1.3,2.2,4.2,3,6.4,1.7l5-2.9C22.4,339.5,23.2,336.6,21.9,334.5"/>
	<path id="Fill-58_2_" class="st14" d="M15.8,324.1c-0.3-0.4-0.5-0.7-0.8-1c0.4,1.9-0.3,4.1-2.1,5.2l-5,2.9c-1.8,1.1-4,0.7-5.5-0.7
		c0.1,0.4,0.3,0.9,0.5,1.2c1.3,2.2,4.2,3,6.4,1.7l5-2.9C16.3,329.2,17.1,326.3,15.8,324.1"/>
	<path id="Fill-59_2_" class="st14" d="M9.7,313.8c-0.3-0.4-0.5-0.7-0.8-1c0.4,1.9-0.3,4.1-2.1,5.2l-5,2.9c-1.8,1.1-4,0.7-5.5-0.7
		c0.1,0.4,0.3,0.9,0.5,1.2c1.3,2.2,4.2,3,6.4,1.7l5-2.9C10.2,318.8,11,315.9,9.7,313.8"/>
	<path id="Fill-60_2_" class="st14" d="M3.6,303.5c-0.3-0.4-0.5-0.7-0.8-1c0.5,1.9-0.2,4-2,5.1l-2.7,1.6c-1.7,1-3.9,0.7-5.4-0.7
		c0.1,0.4,0.3,0.9,0.5,1.2c1.3,2.2,4.1,3,6.3,1.8l2.7-1.6C4.2,308.4,4.9,305.6,3.6,303.5"/>
	<path id="Fill-61_4_" class="st14" d="M28,344.8c-0.3-0.4-0.5-0.7-0.8-1c0.4,1.9-0.3,4.1-2.1,5.2l-5,2.9c-1.8,1.1-4,0.7-5.5-0.7
		c0.1,0.4,0.3,0.9,0.5,1.2c1.3,2.2,4.2,3,6.4,1.7l5-2.9C28.5,349.8,29.3,346.9,28,344.8"/>
	<path id="Fill-62_4_" class="st14" d="M34.1,355.1c-0.3-0.4-0.5-0.7-0.8-1c0.4,1.9-0.3,4.1-2.1,5.2l-5,2.9c-1.8,1.1-4,0.7-5.5-0.7
		c0.1,0.4,0.3,0.9,0.5,1.2c1.3,2.2,4.2,3,6.4,1.7l5-2.9C34.6,360.2,35.4,357.3,34.1,355.1"/>
	<path id="Fill-63_2_" class="st9" d="M39.5,323.6c-1.1-1.8-3.4-2.4-5.3-1.3l-4.9,2.9c-1.8,1.1-2.5,3.4-1.4,5.3
		c1.1,1.8,3.4,2.4,5.3,1.3l4.9-2.9C40,327.7,40.6,325.4,39.5,323.6z M26.9,331.1c-1.4-2.4-0.6-5.5,1.9-6.9l4.9-2.9
		c2.4-1.4,5.6-0.7,7,1.7s0.6,5.5-1.9,6.9l-4.9,2.9C31.4,334.2,28.3,333.5,26.9,331.1z"/>
	<path id="Fill-64_2_" class="st18" d="M33.4,313.3c-1.1-1.8-3.4-2.4-5.3-1.3l-4.9,2.9c-1.8,1.1-2.5,3.4-1.4,5.3
		c1.1,1.8,3.4,2.4,5.3,1.3l4.9-2.9C33.9,317.4,34.5,315.1,33.4,313.3z M20.8,320.7c-1.4-2.4-0.6-5.5,1.9-6.9l4.9-2.9
		c2.4-1.4,5.6-0.7,7,1.7c1.4,2.4,0.6,5.5-1.9,6.9l-4.9,2.9C25.3,323.9,22.2,323.1,20.8,320.7z"/>
	<path id="Fill-65_2_" class="st9" d="M27.3,302.9c-1.1-1.8-3.4-2.4-5.3-1.3l-4.9,2.9c-1.8,1.1-2.5,3.4-1.4,5.3
		c1.1,1.8,3.4,2.4,5.3,1.3l4.9-2.9C27.8,307.1,28.4,304.7,27.3,302.9z M14.7,310.4c-1.4-2.4-0.6-5.5,1.9-6.9l4.9-2.9
		c2.4-1.4,5.6-0.7,7,1.7c1.4,2.4,0.6,5.5-1.9,6.9l-4.9,2.9C19.2,313.5,16.1,312.8,14.7,310.4z"/>
	<path id="Fill-66_4_" class="st9" d="M18.3,295.5c-1.1-1.8-3.4-2.4-5.2-1.3l-1.6,0.9c-1.8,1.1-2.4,3.4-1.3,5.2
		c1.1,1.8,3.4,2.4,5.2,1.3l1.6-0.9C18.8,299.6,19.4,297.3,18.3,295.5z M9.1,300.9c-1.4-2.4-0.6-5.5,1.9-6.9l1.6-0.9
		c2.4-1.4,5.5-0.7,6.9,1.7c1.4,2.4,0.6,5.5-1.9,6.9l-1.6,0.9C13.5,304.1,10.5,303.3,9.1,300.9z"/>
	<path id="Fill-67_2_" class="st9" d="M45.6,333.9c-1.1-1.8-3.4-2.4-5.3-1.3l-4.9,2.9c-1.8,1.1-2.5,3.4-1.4,5.3
		c1.1,1.8,3.4,2.4,5.3,1.3l4.9-2.9C46.1,338.1,46.7,335.7,45.6,333.9z M33,341.4c-1.4-2.4-0.6-5.5,1.9-6.9l4.9-2.9
		c2.4-1.4,5.6-0.7,7,1.7c1.4,2.4,0.6,5.5-1.9,6.9l-4.9,2.9C37.5,344.5,34.4,343.8,33,341.4z"/>
	<path id="Fill-68_4_" class="st9" d="M48.3,346.3c-1.1-1.8-3.4-2.4-5.2-1.3l-1.6,0.9c-1.8,1.1-2.4,3.4-1.3,5.2
		c1.1,1.8,3.4,2.4,5.2,1.3l1.6-0.9C48.8,350.4,49.4,348.1,48.3,346.3z M39.1,351.7c-1.4-2.4-0.6-5.5,1.9-6.9l1.6-0.9
		c2.4-1.4,5.5-0.7,6.9,1.7c1.4,2.4,0.6,5.5-1.9,6.9l-1.6,0.9C43.5,354.9,40.5,354.1,39.1,351.7z"/>
	<path id="Fill-69_2_" class="st9" d="M20.6,334.8c-1.1-1.8-3.4-2.4-5.3-1.3l-4.9,2.9c-1.8,1.1-2.5,3.4-1.4,5.3
		c1.1,1.8,3.4,2.4,5.3,1.3l4.9-2.9C21.1,338.9,21.7,336.6,20.6,334.8z M7.9,342.2c-1.4-2.4-0.6-5.5,1.9-6.9l4.9-2.9
		c2.4-1.4,5.6-0.7,7,1.7c1.4,2.4,0.6,5.5-1.9,6.9l-4.9,2.9C12.5,345.4,9.4,344.7,7.9,342.2z"/>
	<path id="Fill-70_2_" class="st9" d="M14.5,324.4c-1.1-1.8-3.4-2.4-5.3-1.3L4.3,326c-1.8,1.1-2.5,3.4-1.4,5.3
		c1.1,1.8,3.4,2.4,5.3,1.3l4.9-2.9C15,328.6,15.6,326.2,14.5,324.4z M1.8,331.9c-1.4-2.4-0.6-5.5,1.9-6.9l4.9-2.9
		c2.4-1.4,5.6-0.7,7,1.7c1.4,2.4,0.6,5.5-1.9,6.9l-4.9,2.9C6.4,335,3.3,334.3,1.8,331.9z"/>
	<path id="Fill-71_4_" class="st9" d="M8.4,314.1c-1.1-1.8-3.4-2.4-5.3-1.3l-4.9,2.9c-1.8,1.1-2.5,3.4-1.4,5.3
		c1.1,1.8,3.4,2.4,5.3,1.3l4.9-2.9C8.9,318.2,9.5,315.9,8.4,314.1z M-4.3,321.6c-1.4-2.4-0.6-5.5,1.9-6.9l4.9-2.9
		c2.4-1.4,5.6-0.7,7,1.7c1.4,2.4,0.6,5.5-1.9,6.9l-4.9,2.9C0.3,324.7-2.8,324-4.3,321.6z"/>
	<path id="Fill-72_4_" class="st9" d="M2.8,304.6c-1.1-1.8-3.4-2.4-5.2-1.3l-2.6,1.5c-1.8,1.1-2.4,3.4-1.3,5.2
		c1.1,1.8,3.4,2.4,5.2,1.3l2.6-1.5C3.4,308.7,3.9,306.4,2.8,304.6z M-7.3,310.6c-1.4-2.4-0.6-5.4,1.8-6.8l2.6-1.5
		c2.3-1.4,5.4-0.6,6.8,1.8c1.4,2.4,0.6,5.4-1.8,6.8l-2.6,1.5C-2.8,313.8-5.9,313-7.3,310.6z"/>
	<path id="Fill-73_2_" class="st9" d="M26.7,345.1c-1.1-1.8-3.4-2.4-5.3-1.3l-4.9,2.9c-1.8,1.1-2.5,3.4-1.4,5.3
		c1.1,1.8,3.4,2.4,5.3,1.3l4.9-2.9C27.2,349.2,27.8,346.9,26.7,345.1z M14,352.6c-1.4-2.4-0.6-5.5,1.9-6.9l4.9-2.9
		c2.4-1.4,5.6-0.7,7,1.7c1.4,2.4,0.6,5.5-1.9,6.9l-4.9,2.9C18.5,355.7,15.4,355,14,352.6z"/>
	<path id="Fill-74_4_" class="st9" d="M32.8,355.4c-1.1-1.8-3.4-2.4-5.3-1.3l-4.9,2.9c-1.8,1.1-2.5,3.4-1.4,5.3
		c1.1,1.8,3.4,2.4,5.3,1.3l4.9-2.9C33.3,359.6,33.9,357.3,32.8,355.4z M20.1,362.9c-1.4-2.4-0.6-5.5,1.9-6.9l4.9-2.9
		c2.4-1.4,5.6-0.7,7,1.7c1.4,2.4,0.6,5.5-1.9,6.9l-4.9,2.9C24.6,366.1,21.5,365.3,20.1,362.9z"/>
	<path id="Fill-75_1_" class="st11" d="M40.4,316.7C28.5,296.4,9.8,285.4-1.4,292S-12,320.3,0,340.6s30.6,31.3,41.8,24.7
		C52.9,358.7,52.4,336.9,40.4,316.7z M33.6,320.7c4.9,8.3,7.8,17.3,8,24.9c0.2,6-1.4,10.5-4.3,12.2c-2.9,1.7-7.6,1-12.7-2.1
		c-6.5-3.9-13-10.8-17.9-19.1c-4.9-8.3-7.8-17.3-8-24.9c-0.2-6,1.4-10.5,4.3-12.2s7.6-1,12.7,2.1C22.2,305.5,28.8,312.4,33.6,320.7z
		"/>
	<path id="Fill-76_1_" class="st15" d="M16.4,301c6.2,3.6,12.4,10.2,17.1,18c-0.2-0.3-0.4-0.7-0.7-1.1c-4.9-8.3-11.4-15.2-17.9-19.1
		c-5.2-3.1-9.8-3.8-12.7-2.2s-4.4,6.1-4.2,12.1c0.3,7.5,3.2,16.6,8,24.9c0.2,0.3,0.4,0.7,0.7,1.1c-4.5-8-7.2-16.5-7.5-23.7
		c-0.2-6,1.4-10.5,4.2-12.1S11.3,298,16.4,301"/>
	<path id="Fill-77_1_" class="st15" d="M40.3,316.5c-0.2-0.3-0.4-0.7-0.7-1.1c11.3,20,11.9,41.2,0.9,47.7
		c-10.9,6.5-29.3-4.2-41.3-23.8c0.2,0.3,0.4,0.7,0.7,1.1c12,20.3,30.7,31.4,41.9,24.8C52.9,358.7,52.3,336.8,40.3,316.5"/>
	<path id="Fill-78_1_" class="st9" d="M33.5,320.8c-4.9-8.3-11.3-15.3-17.7-19c-5-3-9.4-3.7-12.1-2.2c-2.7,1.6-4.1,5.8-3.9,11.6
		c0.2,7.4,3.2,16.5,8.1,24.7c4.9,8.3,11.3,15.3,17.7,19c5,3,9.4,3.7,12.1,2.2c2.7-1.6,4.1-5.8,3.9-11.6
		C41.3,338.1,38.3,329.1,33.5,320.8z M6.7,336.6c-5-8.4-8-17.7-8.2-25.3c-0.2-6.3,1.4-10.9,4.5-12.8c3.1-1.8,8-1,13.4,2.2
		c6.6,3.9,13.2,11,18.2,19.4c5,8.4,8,17.7,8.2,25.3c0.2,6.3-1.4,10.9-4.5,12.8c-3.1,1.8-8,1-13.4-2.2C18.3,352.1,11.7,345,6.7,336.6
		z M40.2,316.8C28.3,296.8,10,285.7-0.9,292.1s-10,27.9,1.8,47.9c11.8,20.1,30.2,31.2,41.1,24.8C52.8,358.4,52,336.9,40.2,316.8z
		 M0,340.6c-12.2-20.7-12.8-43-1.4-49.7c11.4-6.7,30.6,4.6,42.8,25.3s12.8,43,1.4,49.7C31.3,372.6,12.2,361.2,0,340.6z"/>
	<path id="Fill-79_2_" class="st16" d="M26.7,368.3c3.9-2.3,5.4-7,3.8-11.1c-1.5-0.4-3.1-1.1-4.8-2l-0.6-0.9l2.4-1.4
		c0.1-0.1,0.3-0.2,0.3-0.2l-1.5-2.6c-0.1,0.1-0.3,0.2-0.3,0.2l-2.4,1.4l-4.5-7.7l2.4-1.4c0.1-0.1,0.3-0.2,0.3-0.2l-1.5-2.6
		c-0.1,0.1-0.3,0.2-0.3,0.2l-2.4,1.4l-4.5-7.7l2.4-1.4c0.1-0.1,0.3-0.2,0.3-0.2l-1.5-2.6c-0.1,0.1-0.3,0.2-0.3,0.2l-2.4,1.4L7,323.6
		l2.4-1.4c0.1-0.1,0.3-0.2,0.3-0.2l-1.5-2.6c-0.1,0.1-0.3,0.2-0.3,0.2L5.5,321L1,313.4l2.4-1.4c0.1-0.1,0.2-0.1,0.3-0.2
		c-0.7-0.8-1.5-1.6-2.4-2.1l-1.8,1.1l-1.3-2.2c-2-0.3-4.2,0-6.1,1.1c-0.2,0.1-0.3,0.2-0.4,0.3c-0.2,0.1-0.3,0.2-0.4,0.3l-42.7,25.2
		c-4.8,2.8-6.4,9.1-3.6,13.8c1.2,2.1,3.2,3.6,5.2,4.3l-14.1,8.3c-4.8,2.8-6.4,9.1-3.6,13.8s9.1,6.4,13.8,3.6l33.4-19.7
		c-0.3,2.3,0.1,4.6,1.3,6.7c2.8,4.8,9.1,6.4,13.8,3.6l2.9-1.7c0.1,1.6,0.5,3.1,1.3,4.4c2.8,4.8,9.1,6.4,13.8,3.6l12.7-7.5
		c0.2-0.1,0.3-0.2,0.4-0.3C26.4,368.5,26.5,368.4,26.7,368.3"/>
	<path id="Fill-80_1_" class="st17" d="M19.1,341.6l1.5,2.5l1.4-0.8c0.1-0.1,0.2-0.1,0.3-0.2l-1.5-2.6c-0.1,0.1-0.2,0.1-0.3,0.2
		L19.1,341.6"/>
	<path id="Fill-81_1_" class="st17" d="M6.9,320.9l1.5,2.5l1.4-0.8c0.1-0.1,0.2-0.1,0.3-0.2l-1.5-2.6c-0.1,0.1-0.2,0.1-0.3,0.2
		L6.9,320.9"/>
	<path id="Fill-82_1_" class="st17" d="M13,331.2l1.5,2.5l1.4-0.8c0.1-0.1,0.2-0.1,0.3-0.2l-1.5-2.6c-0.1,0.1-0.2,0.1-0.3,0.2
		L13,331.2"/>
	<path id="Fill-83_1_" class="st17" d="M25.2,351.9l0.4,0.6c0.8,0.5,1.5,0.8,2.2,1.2l0.3-0.2c0.1-0.1,0.2-0.1,0.3-0.2l-1.5-2.6
		c-0.1,0.1-0.2,0.1-0.3,0.2L25.2,351.9"/>
	<path id="Fill-84_1_" class="st17" d="M-2.7,365.6l-3.4,2c-4.7,2.8-11,1-13.9-3.9c-0.2-0.3-0.4-0.7-0.5-1.1c0.1,1.6,0.6,3,1.5,4.5
		c2.9,4.9,9.2,6.7,13.9,3.9l3.4-2C-2.4,367.8-2.6,366.7-2.7,365.6"/>
	<path id="Fill-85_1_" class="st17" d="M2.3,313l1.5-0.9c0.1-0.1,0.2-0.1,0.3-0.2c-0.7-0.8-1.5-1.6-2.3-2.1l-0.9,0.6L2.3,313"/>
	<path id="Fill-86_1_" class="st17" d="M27.3,369.1c3.9-2.3,5.4-7.1,3.7-11.4c-0.1-0.1-0.1,0-0.2-0.1c0,3.2-1.5,6.2-4.5,8
		c-0.2,0.1-0.3,0.2-0.4,0.3c-0.2,0.1-0.3,0.2-0.4,0.3l-12.7,7.5c-4.8,2.8-11.2,1.1-14.1-3.8c-0.2-0.3-0.4-0.7-0.5-1.1
		c0.1,1.6,0.5,3.1,1.4,4.5c2.9,4.9,9.2,6.6,14.1,3.8l12.6-7.4c0.2-0.1,0.3-0.2,0.4-0.3C26.9,369.3,27.1,369.2,27.3,369.1"/>
	<path id="Fill-87_1_" class="st17" d="M-19.4,356.9l-35.1,20.7c-4.8,2.8-11.2,1.1-14.1-3.8c-0.2-0.3-0.4-0.7-0.5-1.1
		c0.1,1.6,0.5,3.1,1.4,4.5c2.9,4.9,9.2,6.6,14.1,3.8l34.4-20.3C-19.7,359.4-19.6,358.1-19.4,356.9"/>
	<path id="Fill-88_1_" class="st17" d="M-46.9,353.7c-2.2-0.8-7.6-5-8.9-7.3c-0.2-0.3-0.4-0.7-0.5-1.1c0.1,1.6,0.7,3.1,1.5,4.5
		c0.6,0.9,4.8,4.5,5.7,5.3L-46.9,353.7"/>
	<path id="Fill-89_1_" class="st9" d="M-49.9,354.6c0.1,0.1,0.1,0.2,0.1,0.3c0,0.2-0.1,0.5-0.3,0.6l-14.2,8.4
		c-4.6,2.7-6.1,8.5-3.4,13.1c2.7,4.6,8.5,6,13.1,3.3l33.8-19.9c0.2-0.1,0.5-0.2,0.7,0c0.2,0.1,0.3,0.4,0.3,0.7
		c-0.3,2.2,0,4.4,1.2,6.3c2.6,4.5,8.5,6,13.1,3.3l3-1.8c0.2-0.1,0.4-0.1,0.6,0c0.2,0.1,0.3,0.3,0.3,0.5c0.1,1.5,0.5,2.8,1.3,4.1
		c2.6,4.5,8.5,6,13.1,3.3l12.7-7.5c0.1-0.1,0.2-0.1,0.3-0.2l0.2-0.1l0.2-0.1c0.1-0.1,0.2-0.1,0.3-0.2c3.4-2,5-6.3,3.7-10.1
		c-1.5-0.4-3.1-1.1-4.6-1.9c-0.1,0-0.2-0.1-0.2-0.2l-0.6-0.9c-0.2-0.3,0-0.7,0.2-0.8l2.2-1.3L26,352l-2.2,1.3
		c-0.3,0.2-0.7,0-0.8-0.2l-4.5-7.7c-0.2-0.3,0-0.7,0.2-0.8l2.2-1.3l-0.9-1.5l-2.2,1.3c-0.3,0.2-0.7,0-0.8-0.2l-4.5-7.7
		c-0.2-0.3,0-0.7,0.2-0.8l2.2-1.3l-0.9-1.5l-2.2,1.3c-0.3,0.2-0.7,0-0.8-0.2l-4.5-7.7c-0.2-0.3,0-0.7,0.2-0.8l2.2-1.3L8,321.5
		l-2.2,1.3c-0.3,0.2-0.7,0-0.8-0.2L0.4,315c-0.2-0.3,0-0.7,0.2-0.8l2-1.2c-0.4-0.5-0.9-0.7-1.4-1.2l-1.5,0.9c-0.3,0.2-0.7,0-0.8-0.2
		l-1.1-1.9c-1.9-0.3-3.8,0.1-5.4,1.1c-0.1,0.1-0.2,0.1-0.3,0.2l-0.2,0.1l-0.2,0.1c-0.1,0.1-0.2,0.1-0.3,0.2l-43.1,25.4
		c-4.6,2.7-6.1,8.5-3.4,13.1c1.1,1.9,2.9,3.3,4.9,4C-50.1,354.3-50,354.4-49.9,354.6z M-68.8,377.4c-3-5.1-1.2-11.7,3.9-14.7
		l13.2-7.8c-1.8-0.9-3.3-2.3-4.4-4.1c-3-5.1-1.2-11.7,3.9-14.7l43.1-25.4c0.1-0.1,0.3-0.2,0.3-0.2l0.2-0.1l0.1-0.1
		c0.1-0.1,0.3-0.2,0.3-0.2c2-1.2,4.3-1.6,6.6-1.2c0.1,0,0.3,0.2,0.4,0.3l1,1.6l1.3-0.8c0.2-0.1,0.4-0.1,0.7,0
		c0.9,0.6,1.8,1.3,2.6,2.2c0.1,0.2,0.2,0.3,0.1,0.5c0,0.1-0.2,0.3-0.3,0.4l-0.2,0.1l-2,1.2l3.9,6.6l1.9-1.1c0.1-0.1,0.1-0.1,0.2-0.1
		l0.2-0.1c0.2-0.1,0.3-0.2,0.5-0.1c0.1,0,0.3,0.2,0.4,0.3l1.5,2.6c0.1,0.2,0.1,0.3,0.1,0.5c0,0.1-0.2,0.3-0.3,0.4l-0.2,0.1
		c-0.1,0.1-0.1,0.1-0.2,0.1l-1.9,1.1l3.9,6.6l1.9-1.1c0.1-0.1,0.1-0.1,0.2-0.1l0.2-0.1c0.2-0.1,0.3-0.2,0.5-0.1
		c0.1,0,0.3,0.2,0.4,0.3l1.5,2.6c0.1,0.2,0.1,0.3,0.1,0.5c0,0.1-0.2,0.3-0.3,0.4l-0.2,0.1c-0.1,0.1-0.1,0.1-0.2,0.1l-1.9,1.1L18,342
		l1.9-1.1c0.1-0.1,0.1-0.1,0.2-0.1l0.2-0.1c0.2-0.1,0.3-0.2,0.5-0.1c0.1,0,0.3,0.2,0.4,0.3l1.5,2.6c0.1,0.2,0.1,0.4,0.1,0.5
		c0,0.1-0.2,0.3-0.3,0.4l-0.2,0.1c-0.1,0.1-0.1,0.1-0.2,0.1l-1.9,1.1l3.9,6.6l1.9-1.1c0.1-0.1,0.1-0.1,0.2-0.1l0.2-0.1
		c0.2-0.1,0.3-0.2,0.5-0.1c0.1,0,0.3,0.2,0.4,0.3l1.5,2.6c0.1,0.2,0.1,0.3,0.1,0.5c0,0.1-0.2,0.3-0.3,0.4l-0.2,0.1
		c-0.1,0.1-0.1,0.1-0.2,0.1l-1.9,1.1l0.2,0.3c1.5,0.8,3.1,1.4,4.5,1.9c0.1,0,0.3,0.2,0.4,0.3c1.7,4.3-0.1,9.5-4.2,11.9
		c-0.2,0.1-0.3,0.2-0.4,0.3l-0.1,0.1l-0.1,0.1c-0.1,0.1-0.3,0.2-0.3,0.2l-12.7,7.5c-5.2,3-11.7,1.4-14.7-3.7
		c-0.7-1.1-1.1-2.3-1.3-3.6l-2.2,1.3c-5.2,3-11.7,1.4-14.7-3.7c-1-1.7-1.6-3.8-1.5-5.9l-32.6,19.3
		C-59.3,384.2-65.8,382.5-68.8,377.4z"/>
	<path id="Fill-90_1_" class="st16" d="M188.2,316L188.2,316L188.2,316c4.6-6.9,7.2-13.8,7.2-13.8c7.8-7.1,3.3-12.2,3.3-12.2
		c8.7-5.6,3.4-13.1,3.4-13.1c3.3-5,1.4-12.1,1.4-12.1c-3.2-14.4-11.2-10.7-11.2-10.7l0,0.4l-9.6-3.9c-0.7,1.1-1.4,2.3-1.8,3.7
		c-0.4,1.6-0.5,3.3-0.2,4.9c-3.2,2.4-5.7,5.5-5.7,5.5l0.1,0.2c-5.5-0.5-10.8,3.1-12.2,8.7c-1.5,5.9,1.8,11.8,7.4,13.7
		c-5.9-1-11.7,2.6-13.2,8.5c-1.4,5,0.8,10.1,5.1,12.7c0,0,2.5,1.2,3.2,1.3l2.7,4.7c-2.2,1.5-4,3.9-4.8,6.7c-0.4,1.5-0.5,2.9-0.3,4.4
		l12,2.4C180.4,325.9,184.8,321,188.2,316"/>
	<path id="Fill-91_1_" class="st17" d="M197.6,270.1c-0.4,0.7-0.8,1.4-1.2,2c-1.5,2.3-2.9,4.7-4.1,7.3c-0.2,0.5-0.4,0.9,0,1.3
		c0.1,0.2,0.3,0.2,0.5,0.3c0.9,0.3,1.8,0.5,2.6,0.3c0.6-0.1,1.2-0.5,1.8-0.8c0.9-0.5,1.8-1.2,2.6-1.7c-0.6-1.6-0.1-3.4,0.3-5.2
		c0.2-1,0.5-1.9,0.6-2.9c0.1-0.8,0.3-1.5,0.1-2.4c-0.1-0.8-0.5-1.4-1-2.1c-0.8-1.2-1.6-2.2-2.6-3.1
		C198.5,265.2,198.6,267.9,197.6,270.1"/>
	<path id="Fill-92_1_" class="st17" d="M197,263.3L197,263.3L197,263.3L197,263.3"/>
	<path id="Fill-93_1_" class="st17" d="M175.6,304.7l-3.2,0.4l-8.5,4.4l2.4,4c0,0,3.3-1.6,8.2-4.5
		C179.2,306.2,175.6,304.7,175.6,304.7"/>
	<path id="Fill-94_1_" class="st17" d="M180.6,324.9l6.6-6.6l6.1-10.6l2.5-5.4l-5.5,3.3l-3,0.8l-2.8-0.9l-0.9,2.8l-2.6,2l-0.1,0.2
		l-3.6,0.7l-3.7,1.2l-0.5,0.6l0.9,1c0,0,3.4,1.8,5.3,0.8l-1.8,1.2l-0.4,0.3c0,0-10.6,8.4-1.4,11.8L180.6,324.9"/>
	<path id="Fill-95_1_" class="st17" d="M199.7,296.5c2-4.5-1.1-6.2-1.1-6.2l-5.8,9.1C192.7,299.3,197.6,301,199.7,296.5"/>
	<path id="Fill-96_1_" class="st17" d="M189.2,293.3c0,0-3.9-13.3-0.8-19.9c3-6.7-2.2-3.8-2.2-3.8l-1.7,3l-0.1,5.7L189.2,293.3"/>
	<path id="Fill-97_1_" class="st17" d="M188.6,296.2l-4.6-0.2l-6-2.9l-5.3-7.3c0,0-3.3,11.8,3.7,14.7
		C183.2,303.2,188.6,296.2,188.6,296.2"/>
	<path id="Fill-98_1_" class="st9" d="M192.8,281.6c-0.1-0.1-0.1-0.2-0.1-0.3c0-0.4,0.2-0.6,0.5-0.7c4-0.3,6.9-1.6,8.6-4.1
		c3.2-4.7,1.3-11.7,1.3-11.8c-1.3-5.3-3.2-8.8-5.9-10.1c-2.4-1.3-4.5-0.3-4.5-0.3c-0.3,0.2-0.7,0-0.8-0.3c-0.2-0.3,0-0.7,0.3-0.9
		c0.1-0.1,2.7-1.2,5.5,0.3c3,1.6,5.2,5.2,6.5,10.9c0.1,0.3,2.1,7.7-1.4,12.8c-2,2.8-5.2,4.4-9.6,4.6
		C193.1,282,192.9,281.8,192.8,281.6"/>
	<path id="Fill-99_1_" class="st9" d="M174.2,265.9c-0.1-0.2-0.2-0.5,0-0.7c0.4-0.5,9-11.8,15.7-7l1.6,1.1c5.6,3.9,9.3,6.5,6.1,12.2
		c-0.5,0.9-1,1.8-1.6,2.7c-1.9,3.2-4,6.6-3.3,8.1c0.2,0.6,0.9,0.9,1.9,1c0.4,0,0.6,0.4,0.5,0.7c0,0.4-0.4,0.6-0.7,0.5
		c-1.4-0.2-2.3-0.8-2.8-1.7c-1-2.1,1.1-5.5,3.3-9.3c0.5-0.9,1-1.8,1.6-2.7c2.6-4.6,0.3-6.4-5.7-10.6l-1.6-1.1
		c-5.8-4.1-14,6.6-14.1,6.7c-0.2,0.2-0.6,0.4-0.8,0.1C174.3,266,174.2,265.9,174.2,265.9"/>
	<path id="Fill-100_1_" class="st9" d="M173.7,288.7c-1.4-2.4-1.9-4.4-2-4.6c-0.1-0.3,0.1-0.6,0.5-0.8c0.3-0.1,0.6,0.1,0.8,0.5
		c0.1,0.1,2.5,9.4,10.8,11c2.5,0.5,4,0.5,4.5,0c0.8-0.8-0.3-3.7-1.7-7.5c-0.7-1.7-1.3-3.6-2.1-5.7c-1.5-4.6-1.6-8.1,0-10.9
		c1.5-2.8,4-3.4,4.2-3.4c0.3-0.1,0.6,0.1,0.8,0.5c0.1,0.3-0.2,0.7-0.5,0.8c-0.1,0.1-2.1,0.6-3.3,2.8c-1.3,2.4-1.3,5.7,0.2,9.9
		c0.7,2.1,1.4,4,2.1,5.7c1.8,4.8,2.8,7.3,1.5,8.7c-0.8,1-2.5,1.1-5.7,0.5C178.4,295.1,175.4,291.6,173.7,288.7"/>
	<path id="Fill-101_1_" class="st9" d="M173.1,313.3c-0.1-0.2-0.2-0.5-0.2-0.7c0.1-1.1,1.5-1.7,5-2.2c2.7-0.5,4.7-1.4,5.5-2.7
		c0.8-1.3,0.4-2.4,0.4-2.4c-0.1-0.3,0-0.6,0.3-0.7c0.3-0.2,0.5-0.1,0.8,0.1c0,0,0.8,1,2.6,1c2.2,0.1,4.8-1.2,7.7-3.9
		c7.2-6.6,3.2-11.1,3.2-11.2c-0.1-0.2-0.2-0.3-0.2-0.5s0.2-0.3,0.3-0.4c2.5-1.6,4.1-3.6,4.6-5.8c0.7-3.4-1.3-6.3-1.3-6.4
		c-0.2-0.3-0.1-0.6,0.2-0.9c0.3-0.3,0.6-0.1,0.9,0.2c0.1,0.2,2.3,3.4,1.5,7.3c-0.5,2.4-2,4.5-4.5,6.3c0,0,0,0,0.1,0.1
		c1,1.6,2.7,6.3-3.7,12.3c-3.2,3-6.2,4.3-8.7,4.2c-0.9,0-1.7-0.3-2.2-0.6c0,0.6-0.2,1.3-0.6,2c-1.1,1.7-3.2,2.8-6.4,3.3
		c-3.5,0.6-3.9,1.1-4,1.2c0.1,0.1,0.8,0.5,1.3,0.6c0.3,0.2,0.5,0.5,0.4,0.8c-0.2,0.3-0.5,0.5-0.8,0.4
		C174.6,314.4,173.5,314,173.1,313.3"/>
	<path id="Fill-102_1_" class="st9" d="M190.8,299.9c-0.2-0.3-0.1-0.5,0-0.7c0.1-0.1,9.3-11,10.2-17c0-0.4,0.4-0.6,0.7-0.5
		c0.4,0,0.6,0.4,0.5,0.7c-0.9,6.5-10.1,17.3-10.4,17.8c-0.2,0.2-0.7,0.3-0.9,0.1C190.9,300,190.8,299.9,190.8,299.9"/>
	<path id="Fill-103_1_" class="st9" d="M164.3,310c-0.2-0.3,0-0.7,0.2-0.8c0.3-0.2,0.7,0,0.8,0.2l3.7,6.3c0.1,0.1,1.7,2.1,6.9,0.2
		c5.2-1.9,4.5-5.8,4.4-5.9c-0.1-0.3,0.2-0.7,0.5-0.8c0.3-0.1,0.7,0.2,0.8,0.5c0,0,1,5-5.2,7.3c-6.1,2.2-8.2-0.6-8.3-0.8L164.3,310"
		/>
	<path id="Fill-104_1_" class="st9" d="M160.7,309.8c-0.2-0.3-0.1-0.6,0.2-0.8c0.3-0.2,0.7-0.2,0.9,0.1c0,0,1.6,1.5,7.3-2.1
		c6.9-4.4,9.8-1.5,9.9-1.5c0.2,0.2,0.3,0.7-0.1,0.9c-0.2,0.2-0.7,0.3-0.9,0.1c-0.1-0.1-2.4-2.2-8.4,1.6
		C162.8,312.4,160.9,310.2,160.7,309.8L160.7,309.8"/>
	<path id="Fill-105_1_" class="st9" d="M174.4,329.1C174.3,329.1,174.3,329.1,174.4,329.1c-0.2-0.3,0-0.8,0.3-0.9
		c12.3-5.4,19.7-25.9,19.8-26.1c0.2-0.3,0.5-0.5,0.8-0.4c0.3,0.2,0.5,0.5,0.4,0.8c-0.3,0.9-7.6,21.2-20.4,26.8
		C174.8,329.6,174.5,329.4,174.4,329.1"/>
	<path id="Fill-106_1_" class="st9" d="M171.8,326.7c-0.1-0.2-0.1-0.4,0-0.6c1.1-2.6,2.7-4.4,4.8-5.2c2-0.7,3.9-0.5,5.2,0
		c-0.9-3.5,1.4-5.3,3.5-6.8c0.7-0.5,1.4-1.1,2-1.7c2.4-2.4,1-6.3,1-6.4c-0.1-0.3,0-0.7,0.3-0.8s0.7,0,0.8,0.3
		c0.1,0.2,1.6,4.7-1.3,7.6c-0.7,0.6-1.5,1.2-2.2,1.8c-2.3,1.7-4.1,3.1-2.7,6.6c0.2,0.3,0.1,0.5-0.2,0.7c-0.2,0.2-0.5,0.2-0.8,0.1
		c0,0-2.8-1.4-5.5-0.4c-1.8,0.7-3.1,2.2-4.1,4.4c-0.2,0.3-0.6,0.4-0.8,0.4C171.9,327,171.8,326.8,171.8,326.7"/>
	<path id="Fill-107_1_" class="st9" d="M166.5,309.7l2.8,4.7c0.2,0.3,0,0.7-0.2,0.8c-2.2,1.5-3.8,3.8-4.4,6.3
		c-0.3,1.2-0.4,2.4-0.2,3.7l11.4,2.3c4.4-2,8.6-6,12.5-12l0,0c4.5-6.8,7-13.7,7-13.8c0-0.1,0.1-0.2,0.2-0.2
		c7.2-6.6,3.2-11.3,3.1-11.2c-0.1-0.2-0.2-0.3-0.2-0.5c0-0.1,0.2-0.3,0.3-0.4c2.5-1.6,4.1-3.6,4.5-5.9c0.7-3.4-1.3-6.4-1.4-6.5
		c-0.2-0.3-0.2-0.5,0-0.7c3.1-4.7,1.2-11.5,1.3-11.7c-1.2-5.3-3.2-8.8-5.9-10.1c-1.8-0.9-3.5-0.6-4.2-0.4l0,0c0,0.2-0.1,0.4-0.3,0.5
		c-0.2,0.1-0.4,0.1-0.5,0.1l-9-3.7c-0.6,0.9-1.1,2-1.4,3.1c-0.4,1.5-0.4,3-0.2,4.6c0,0.2-0.1,0.5-0.2,0.6c-2.5,1.8-4.5,4.3-5.3,5.2
		c0.1,0.1,0,0.2-0.1,0.3c-0.1,0.3-0.3,0.4-0.6,0.4c-5.4-0.4-10.2,3-11.5,8.2c-1.4,5.5,1.7,11.3,7.1,13.2c0.3,0.1,0.5,0.4,0.5,0.8
		c-0.1,0.3-0.4,0.5-0.7,0.4c-5.6-1-11,2.6-12.4,8c-1.2,4.7,0.8,9.5,4.8,12.1c0.9,0.4,2.6,1.3,3.1,1.3
		C166.2,309.4,166.4,309.6,166.5,309.7z M163.3,326.1c-0.1-0.1-0.1-0.2,0-0.2c-0.2-1.6-0.1-3.2,0.3-4.7c0.7-2.7,2.2-5,4.5-6.7
		l-2.4-4c-0.9-0.3-2.8-1.2-3.1-1.3c-4.6-2.9-6.8-8.3-5.5-13.6c1.3-5.2,5.8-8.7,10.9-9.1c-4.2-2.8-6.5-8.2-5.2-13.3
		c1.4-5.6,6.5-9.4,12.3-9.1c0.5-0.7,2.6-3.3,5.3-5.3c-0.2-1.6-0.2-3.3,0.2-4.8c0.4-1.4,0.9-2.8,1.8-4c0.2-0.2,0.5-0.3,0.8-0.2
		l8.8,3.6c0.1-0.1,0.1-0.2,0.3-0.2c0.1-0.1,2.7-1.2,5.6,0.3c3,1.6,5.2,5.3,6.5,11c0.1,0.3,1.9,7.1-1.1,12.3l0,0
		c1,1.6,4.2,8.3-3.2,13.4c0.9,1.6,2.9,6.4-3.5,12.3c-0.4,1.1-2.8,7.4-7,13.8c0,0.1-0.1,0.2-0.2,0.2c-4.1,6.2-8.5,10.4-13.1,12.4
		c-0.1,0.1-0.2,0-0.4,0l-12-2.4C163.5,326.4,163.4,326.3,163.3,326.1z"/>
</g>
</svg>
