<svg id="Layer_1" data-name="Layer 1" xmlns="http://www.w3.org/2000/svg" xmlns:xlink="http://www.w3.org/1999/xlink" viewBox="0 0 960 860"><defs><style>.cls-1{fill:#7e3beb;}.cls-2,.cls-3{fill:#4e18af;}.cls-3{font-size:21px;font-family:GoboldThinLightItalic-Italic, Gobold Thin Light Italic;}.cls-13,.cls-18,.cls-19,.cls-3,.cls-4,.cls-5,.cls-9{font-style:italic;}.cls-13,.cls-16,.cls-17,.cls-18,.cls-19,.cls-20,.cls-30,.cls-31,.cls-36,.cls-4,.cls-5,.cls-9{isolation:isolate;}.cls-4{font-size:18px;font-family:GoboldBoldItalic-Italic, Gobold Bold Italic;}.cls-10,.cls-11,.cls-12,.cls-5{font-size:36px;}.cls-13,.cls-16,.cls-18,.cls-19,.cls-32,.cls-5,.cls-60,.cls-65,.cls-69,.cls-9{fill:#fff;}.cls-5,.cls-9{font-family:IM_FELL_English_Italic, IM FELL English;}.cls-6{letter-spacing:-0.02em;}.cls-7{letter-spacing:-0.01em;}.cls-8{letter-spacing:0em;}.cls-9{font-size:24px;}.cls-11{letter-spacing:0.01em;}.cls-12{letter-spacing:-0.01em;}.cls-13{font-size:48px;font-family:GoboldThinItalic-Italic, Gobold Thin Italic;}.cls-14{letter-spacing:0em;}.cls-15,.cls-55,.cls-62,.cls-63,.cls-64{fill:none;}.cls-15{stroke:#fff;stroke-width:3px;}.cls-16{font-size:14.68px;font-family:GoboldThin, Gobold Thin;}.cls-18{font-size:50.36px;}.cls-18,.cls-19{font-family:GoboldCUTS-Italic, Gobold CUTS;}.cls-19{font-size:67.14px;}.cls-20{font-size:72px;fill:#2adfdf;font-family:IM_FELL_English_SC, IM FELL English SC;}.cls-21{fill:#ee509a;}.cls-22{fill:url(#linear-gradient);}.cls-23{fill:url(#linear-gradient-2);}.cls-24{fill:url(#linear-gradient-3);}.cls-25{fill:url(#linear-gradient-4);}.cls-26{fill:url(#linear-gradient-5);}.cls-27{fill:url(#linear-gradient-6);}.cls-28{fill:url(#linear-gradient-7);}.cls-29{fill:url(#linear-gradient-8);}.cls-30,.cls-31{opacity:0.5;}.cls-30{fill:url(#linear-gradient-9);}.cls-31{fill:url(#linear-gradient-10);}.cls-33{fill:url(#radial-gradient);}.cls-34{fill:#896545;}.cls-35{fill:url(#radial-gradient-3);}.cls-36{opacity:0.72;fill:url(#radial-gradient-5);}.cls-37{fill:#ffde00;}.cls-37,.cls-38,.cls-39,.cls-40,.cls-41,.cls-42,.cls-43,.cls-58,.cls-67{stroke:#000;}.cls-37,.cls-38,.cls-39,.cls-40,.cls-41,.cls-42,.cls-43,.cls-58,.cls-60,.cls-65,.cls-67,.cls-69{stroke-miterlimit:10;}.cls-37,.cls-38,.cls-39,.cls-40,.cls-41,.cls-42,.cls-43,.cls-58{stroke-width:0.13px;}.cls-38{fill:#f20;}.cls-39{fill:#0fb900;}.cls-40{fill:#ff900e;}.cls-41{fill:#0057e7;}.cls-42{fill:#ff23ff;}.cls-43,.cls-56,.cls-67{fill:#7e43e7;}.cls-44{fill:url(#radial-gradient-7);}.cls-45{fill:url(#radial-gradient-8);}.cls-46{fill:url(#radial-gradient-9);}.cls-47{fill:url(#radial-gradient-10);}.cls-48{fill:url(#radial-gradient-11);}.cls-49{fill:url(#radial-gradient-12);}.cls-50{fill:url(#radial-gradient-13);}.cls-51{fill:url(#radial-gradient-14);}.cls-52{fill:url(#radial-gradient-15);}.cls-53{fill:url(#radial-gradient-17);}.cls-54{fill:url(#radial-gradient-19);}.cls-55,.cls-62,.cls-63,.cls-64,.cls-69{stroke:#7e43e7;}.cls-55,.cls-62,.cls-63,.cls-64{stroke-linecap:round;stroke-linejoin:round;}.cls-55,.cls-60{stroke-width:0.25px;}.cls-55{stroke-dasharray:1 1;}.cls-57{fill:url(#radial-gradient-21);}.cls-58{fill:url(#linear-gradient-11);}.cls-59{fill:#5e5e5e;}.cls-60,.cls-65{stroke:#fc1610;}.cls-61{fill:#fc1610;}.cls-62,.cls-63,.cls-64{stroke-width:0.5px;}.cls-63{stroke-dasharray:1.93 1.93;}.cls-64{stroke-dasharray:2.01 2.01;}.cls-65{stroke-width:0.15px;}.cls-66{fill:url(#linear-gradient-12);}.cls-67{stroke-width:0.14px;}.cls-68{fill:url(#linear-gradient-13);}.cls-69{stroke-width:0.57px;}</style><linearGradient id="linear-gradient" x1="779.2" y1="106.74" x2="780.09" y2="84.36" gradientTransform="matrix(1, 0, 0, -1, 0, 862)" gradientUnits="userSpaceOnUse"><stop offset="0.03" stop-color="#fff" stop-opacity="0"/><stop offset="0.17" stop-color="#feda62"/><stop offset="0.58" stop-color="#feda62"/><stop offset="0.84" stop-color="#fff" stop-opacity="0"/></linearGradient><linearGradient id="linear-gradient-2" x1="494.75" y1="-64.89" x2="494.75" y2="-61.49" gradientTransform="matrix(1, -0.09, -0.09, -1, 245, 758.75)" gradientUnits="userSpaceOnUse"><stop offset="0" stop-color="#fff" stop-opacity="0"/><stop offset="1" stop-color="#feda62"/></linearGradient><linearGradient id="linear-gradient-3" x1="745.22" y1="104.15" x2="745.22" y2="101.27" gradientTransform="matrix(1, 0, 0, -1, 0, 862)" gradientUnits="userSpaceOnUse"><stop offset="0" stop-color="#fff" stop-opacity="0"/><stop offset="0.02" stop-color="#fffefb" stop-opacity="0.02"/><stop offset="0.23" stop-color="#fff3cd" stop-opacity="0.32"/><stop offset="0.44" stop-color="#feeaa7" stop-opacity="0.56"/><stop offset="0.62" stop-color="#fee389" stop-opacity="0.75"/><stop offset="0.78" stop-color="#fede74" stop-opacity="0.89"/><stop offset="0.91" stop-color="#fedb67" stop-opacity="0.97"/><stop offset="1" stop-color="#feda62"/></linearGradient><linearGradient id="linear-gradient-4" x1="697.06" y1="95.93" x2="790.39" y2="95.93" gradientTransform="matrix(1, 0, 0, -1, 0, 862)" gradientUnits="userSpaceOnUse"><stop offset="0" stop-color="#fff" stop-opacity="0"/><stop offset="0.05" stop-color="#feda62"/><stop offset="0.93" stop-color="#feda62"/><stop offset="1" stop-color="#fff" stop-opacity="0"/></linearGradient><linearGradient id="linear-gradient-5" x1="722.24" y1="83.7" x2="722.24" y2="87.16" gradientTransform="matrix(1, 0, 0, -1, 0, 862)" xlink:href="#linear-gradient-2"/><linearGradient id="linear-gradient-6" x1="712.07" y1="83.64" x2="712.07" y2="86.93" gradientTransform="matrix(0.2, 0.98, 0.98, -0.2, 483.43, 94.64)" xlink:href="#linear-gradient-2"/><linearGradient id="linear-gradient-7" x1="704.18" y1="83.64" x2="704.18" y2="86.94" gradientTransform="matrix(0.2, 0.98, 0.98, -0.2, 477.38, 102.59)" xlink:href="#linear-gradient-2"/><linearGradient id="linear-gradient-8" x1="760.1" y1="80.41" x2="758.45" y2="92.69" gradientTransform="matrix(1, 0, 0, -1, 0, 862)" gradientUnits="userSpaceOnUse"><stop offset="0.45" stop-color="#fff" stop-opacity="0"/><stop offset="0.5" stop-color="#fff9e6" stop-opacity="0.16"/><stop offset="0.64" stop-color="#feeba8" stop-opacity="0.55"/><stop offset="0.78" stop-color="#feda62"/></linearGradient><linearGradient id="linear-gradient-9" x1="725.78" y1="109.44" x2="777.84" y2="109.44" gradientTransform="matrix(1, 0, 0, -1, 0, 862)" gradientUnits="userSpaceOnUse"><stop offset="0" stop-color="#fff" stop-opacity="0"/><stop offset="0.11" stop-color="#fcf4b8"/><stop offset="0.89" stop-color="#fcf4b8"/><stop offset="1" stop-color="#fff" stop-opacity="0"/></linearGradient><linearGradient id="linear-gradient-10" x1="710.56" y1="68.3" x2="794.44" y2="68.3" xlink:href="#linear-gradient-9"/><radialGradient id="radial-gradient" cx="723.26" cy="102.12" r="2.1" gradientTransform="matrix(1, 0, 0, -1, 0, 862)" gradientUnits="userSpaceOnUse"><stop offset="0.11" stop-color="#3adedf" stop-opacity="0.5"/><stop offset="1" stop-color="#3adedf"/></radialGradient><radialGradient id="radial-gradient-3" cx="774.07" cy="101.13" r="1.47" xlink:href="#radial-gradient"/><radialGradient id="radial-gradient-5" cx="780.85" cy="100.3" r="1.45" xlink:href="#radial-gradient"/><radialGradient id="radial-gradient-7" cx="707.36" cy="92.36" r="2.25" xlink:href="#radial-gradient"/><radialGradient id="radial-gradient-8" cx="726.78" cy="90.91" r="2.25" xlink:href="#radial-gradient"/><radialGradient id="radial-gradient-9" cx="764.81" cy="94.57" r="2.25" xlink:href="#radial-gradient"/><radialGradient id="radial-gradient-10" cx="702.16" cy="100.16" r="2.25" xlink:href="#radial-gradient"/><radialGradient id="radial-gradient-11" cx="759.71" cy="104.9" r="2.25" xlink:href="#radial-gradient"/><radialGradient id="radial-gradient-12" cx="783.34" cy="88.22" r="2.25" xlink:href="#radial-gradient"/><radialGradient id="radial-gradient-13" cx="771.47" cy="108.14" r="2.25" xlink:href="#radial-gradient"/><radialGradient id="radial-gradient-14" cx="749.08" cy="112.85" r="2.25" xlink:href="#radial-gradient"/><radialGradient id="radial-gradient-15" cx="755.87" cy="88.36" r="2.1" xlink:href="#radial-gradient"/><radialGradient id="radial-gradient-17" cx="743.79" cy="107.11" r="2.1" xlink:href="#radial-gradient"/><radialGradient id="radial-gradient-19" cx="739.31" cy="84.97" r="2.1" xlink:href="#radial-gradient"/><radialGradient id="radial-gradient-21" cx="745.46" cy="-766.93" r="47.25" gradientTransform="matrix(1, 0, 0, -0.76, 0, 164.44)" gradientUnits="userSpaceOnUse"><stop offset="0.03" stop-color="#7e43e7" stop-opacity="0.5"/><stop offset="0.27" stop-color="#7e43e7" stop-opacity="0.5"/><stop offset="0.88" stop-color="#7e43e7" stop-opacity="0"/></radialGradient><linearGradient id="linear-gradient-11" x1="761.29" y1="132.56" x2="764.09" y2="132.56" gradientTransform="matrix(1, 0, 0, -1, 0, 862)" gradientUnits="userSpaceOnUse"><stop offset="0.05" stop-color="#feda62"/><stop offset="0.93" stop-color="#feda62"/></linearGradient><linearGradient id="linear-gradient-12" x1="2059.68" y1="4202.08" x2="2066.34" y2="4202.08" gradientTransform="matrix(-0.12, 0.99, 0.99, 0.12, -3176.21, -1791.04)" gradientUnits="userSpaceOnUse"><stop offset="0.19" stop-color="#3adedf" stop-opacity="0"/><stop offset="0.28" stop-color="#3adedf" stop-opacity="0.08"/><stop offset="0.46" stop-color="#3adedf" stop-opacity="0.27"/><stop offset="0.7" stop-color="#3adedf" stop-opacity="0.59"/><stop offset="1" stop-color="#3adedf"/></linearGradient><linearGradient id="linear-gradient-13" x1="481.18" y1="26.2" x2="487.09" y2="26.2" gradientTransform="matrix(1, -0.1, -0.1, -1, 292.16, 838.11)" xlink:href="#linear-gradient-12"/></defs><title>Artboard 1</title><rect id="Background" class="cls-1" x="-5.5" width="975" height="860"/><g id="Group-23"><path id="Icon" class="cls-2" d="M380,132c-2.7.6-5.3,1.4-7.9,2.2-75.8,23.6-100.6,128.4-49.5,196.6L451,511.6a9.86,9.86,0,0,0,14.2,2.2,10.73,10.73,0,0,0,3.9-6.4l43.2-220.6c18.8-84.4-46-168.3-124.2-156.3Q384,131.1,380,132Zm38.5,170.5c-25.9,6-51.7-11.4-57.5-39s10.5-54.8,36.4-60.8,51.7,11.4,57.5,39S444.5,296.5,418.5,302.5Z"/><text class="cls-3" transform="translate(601.61 568.89) rotate(-103.21)">between</text><text class="cls-4" transform="translate(622.82 494.98) rotate(-103.21)"> </text><text class="cls-5" transform="translate(615.11 515.06) rotate(-13.21)"><tspan class="cls-6">N</tspan><tspan x="29.04" y="0">orth Dohe</tspan><tspan class="cls-7" x="154.51" y="0">n</tspan><tspan x="171.18" y="0">y Dr</tspan><tspan class="cls-8" x="229.92" y="0">i</tspan><tspan x="240.12" y="0">ve </tspan></text><text class="cls-9" transform="translate(647.23 542.04) rotate(-13.21)">and<tspan class="cls-10" x="33.2" y="0" xml:space="preserve">  </tspan><tspan class="cls-11" x="48.35" y="0">L</tspan><tspan class="cls-10" x="72.1" y="0">a </tspan><tspan class="cls-12" x="95.67" y="0">C</tspan><tspan class="cls-10" x="113.29" y="0">ienega</tspan></text><text class="cls-13" transform="matrix(0.97, -0.25, 0.25, 0.97, 73.41, 685.62)">Santa Monica Bouleva<tspan class="cls-14" x="441.12" y="0">r</tspan><tspan x="464.39" y="0">d</tspan></text></g><g id="Untitled-1"><rect id="rect-1" class="cls-15" x="674.99" y="712.68" width="140.83" height="88.05"/></g><g id="download-the-map"><text class="cls-16" transform="translate(827.7 745.67) scale(0.95 1)">download</text><text class="cls-17"></text><text class="cls-16" transform="translate(827.7 765.59) scale(0.95 1)">the map</text><text class="cls-17"></text></g><g id="Text"><g id="Group"><g id="LIVE-MUSIC-_-DJs-KIL" data-name="LIVE-MUSIC- -DJs-KIL"><text class="cls-18" transform="matrix(0.93, -0.21, 0.2, 0.98, 211.33, 233.13)">LIVE MUSIC &amp; DJs</text><text class="cls-19" transform="matrix(0.93, -0.21, 0.2, 0.98, 162.37, 324.47)">KILLER COSTUMES</text><text class="cls-19" transform="matrix(0.93, -0.21, 0.2, 0.98, 131.18, 411.84)">DANCE / FOOD / DRINK</text><text class="cls-19" transform="matrix(0.93, -0.21, 0.2, 0.98, 258.79, 463.8)">FUN FUN FUN</text></g></g></g><text class="cls-20" transform="translate(367.66 689.09) rotate(-12.57)">6 - <tspan class="cls-8" x="94.61" y="0">1</tspan><tspan x="120.76" y="0">0:30 pm</tspan></text><rect class="cls-21" x="678.02" y="715.14" width="134.92" height="82.88"/><g id="streets"><path class="cls-22" d="M779,777.89l-3.62-.49c.72-5.28,4.84-21.91,5.07-22.87l3.55.83C783.9,755.6,779.65,772.78,779,777.89Z"/><path class="cls-23" d="M742.15,766.05c-.33,1.94-1,5.33-1.4,6.54a25.56,25.56,0,0,0-.72,7.59l3.65-.24a21.78,21.78,0,0,1,.57-6.32c.4-1.36,1.15-4.91,1.5-6.94,0-.32.11-.64.16-1l-3.73.22A.53.53,0,0,0,742.15,766.05Z"/><path class="cls-24" d="M744.43,757c0,.05-.94,5.05-2,9.07l3.74.12c.24-1,.43-1.89.64-2.83.66-2.95,1.18-5.54,1.21-5.69Z"/><polygon class="cls-25" points="697.06 766.84 697.06 773.45 790.28 765.32 790.39 765.31 790.39 758.7 697.06 766.84"/><polygon class="cls-26" points="722.77 779.26 719.84 778.66 721.5 770.57 724.64 770.14 722.77 779.26"/><rect class="cls-27" x="707.91" y="773.15" width="8.26" height="2.99" transform="translate(-189.86 1316.54) rotate(-78.41)"/><rect class="cls-28" x="700.02" y="773.42" width="8.26" height="2.99" transform="translate(-196.43 1309.02) rotate(-78.41)"/><path class="cls-29" d="M760.77,783.8c-1-1.92-5.29-14.84-5.78-16.31l2.83-.94c1.9,5.68,5,14.61,5.62,15.92Z"/><path class="cls-30" d="M747.78,755.92h-.53a19.54,19.54,0,0,1-3-.47,15.05,15.05,0,0,0-3.11-.42c-.3,0-.61,0-.94,0a5.1,5.1,0,0,1-5.26-1.92,7.82,7.82,0,0,0-.7-.71,4.73,4.73,0,0,0-3.48-.88,16.61,16.61,0,0,0-4.13,1.14l-.8-2.17a18.24,18.24,0,0,1,4.73-1.29,7,7,0,0,1,5.19,1.43,10,10,0,0,1,.92.92,2.93,2.93,0,0,0,3.38,1.16c.35,0,.71,0,1.07,0a16.8,16.8,0,0,1,3.59.47,17.61,17.61,0,0,0,2.7.41c2.28.12,4.51-.69,6.88-1.55,2.6-.94,5.29-1.92,8.18-1.66a19.38,19.38,0,0,1,3.72.85c.71.21,1.38.41,2.06.56a27.65,27.65,0,0,0,5.45.46,41.85,41.85,0,0,1,4.19.23l-.28,2.31a39,39,0,0,0-4-.21,30.42,30.42,0,0,1-5.9-.51c-.77-.17-1.51-.39-2.23-.61a17.69,17.69,0,0,0-3.27-.76c-2.37-.22-4.7.63-7.17,1.52A21.36,21.36,0,0,1,747.78,755.92Z"/><path class="cls-31" d="M710.83,797.87l-.27-2.31c1.85-.22,45.35-5.38,52.9-5.87,7.74-.51,25.11.33,31,1.5l-.45,2.28c-5.74-1.14-22.77-2-30.37-1.46S711.29,797.82,710.83,797.87Z"/></g><g id="_elements" data-name=" elements"><path class="cls-32" d="M722.79,760.52s-1.21-.23-.58,1.07c.33-.78.65-.89.65-.89s.27.15.55.94c.09-.13.6-1.11-.25-1.14a1.31,1.31,0,0,1,1,.28s-.11-1.09-1-.6a1.71,1.71,0,0,1,.7-.43s-.79-.56-.9.4c-.06-.4-.19-.82-.88-.52a2.16,2.16,0,0,1,.61.52s-1.19-.68-1.16.68A2.36,2.36,0,0,1,722.79,760.52Z"/><path class="cls-33" d="M722.79,760.52s-1.21-.23-.58,1.07c.33-.78.65-.89.65-.89s.27.15.55.94c.09-.13.6-1.11-.25-1.14a1.31,1.31,0,0,1,1,.28s-.11-1.09-1-.6a1.71,1.71,0,0,1,.7-.43s-.79-.56-.9.4c-.06-.4-.19-.82-.88-.52a2.16,2.16,0,0,1,.61.52s-1.19-.68-1.16.68A2.36,2.36,0,0,1,722.79,760.52Z"/><path class="cls-34" d="M722.6,764.15a18.45,18.45,0,0,1,.25-3.77l.1,0a27.62,27.62,0,0,0-.08,3.75Z"/><path class="cls-33" d="M722.79,760.52s-1.21-.23-.58,1.07c.33-.78.65-.89.65-.89s.27.15.55.94c.09-.13.6-1.11-.25-1.14a1.31,1.31,0,0,1,1,.28s-.11-1.09-1-.6a1.71,1.71,0,0,1,.7-.43s-.79-.56-.9.4c-.06-.4-.19-.82-.88-.52a2.16,2.16,0,0,1,.61.52s-1.19-.68-1.16.68A2.36,2.36,0,0,1,722.79,760.52Z"/><path class="cls-32" d="M773.74,761.33s-.85-.17-.4.75c.22-.55.45-.63.45-.63s.19.1.38.66c.07-.09.42-.77-.17-.79a.92.92,0,0,1,.71.19s-.07-.76-.7-.42a1.12,1.12,0,0,1,.5-.3s-.55-.39-.63.28c0-.28-.13-.58-.62-.36a1.48,1.48,0,0,1,.43.36s-.84-.48-.82.48A1.59,1.59,0,0,1,773.74,761.33Z"/><path class="cls-35" d="M773.74,761.33s-.85-.17-.4.75c.22-.55.45-.63.45-.63s.19.1.38.66c.07-.09.42-.77-.17-.79a.92.92,0,0,1,.71.19s-.07-.76-.7-.42a1.12,1.12,0,0,1,.5-.3s-.55-.39-.63.28c0-.28-.13-.58-.62-.36a1.48,1.48,0,0,1,.43.36s-.84-.48-.82.48A1.59,1.59,0,0,1,773.74,761.33Z"/><path class="cls-34" d="M773.61,763.87a13.35,13.35,0,0,1,.16-2.64h.07a21,21,0,0,0-.05,2.63Z"/><path class="cls-35" d="M773.74,761.33s-.85-.17-.4.75c.22-.55.45-.63.45-.63s.19.1.38.66c.07-.09.42-.77-.17-.79a.92.92,0,0,1,.71.19s-.07-.76-.7-.42a1.12,1.12,0,0,1,.5-.3s-.55-.39-.63.28c0-.28-.13-.58-.62-.36a1.48,1.48,0,0,1,.43.36s-.84-.48-.82.48A1.59,1.59,0,0,1,773.74,761.33Z"/><path class="cls-32" d="M781.68,762a.47.47,0,0,0-.36-.46s0-.07,0-.1a.4.4,0,0,0-.41-.4.43.43,0,0,0-.34.18.53.53,0,0,0-.74,0,.54.54,0,0,0-.14.36.51.51,0,0,0,.1.32.41.41,0,0,0-.08.57.42.42,0,0,0,.33.16l.11,0h0a.29.29,0,0,0,.29.29.29.29,0,0,0,.22-.1.39.39,0,0,0,.23.07.4.4,0,0,0,.41-.4h0v0h0A.45.45,0,0,0,781.68,762Z"/><path class="cls-36" d="M781.68,762a.47.47,0,0,0-.36-.46s0-.07,0-.1a.4.4,0,0,0-.41-.4.43.43,0,0,0-.34.18.53.53,0,0,0-.74,0,.54.54,0,0,0-.14.36.51.51,0,0,0,.1.32.41.41,0,0,0-.08.57.42.42,0,0,0,.33.16l.11,0h0a.29.29,0,0,0,.29.29.29.29,0,0,0,.22-.1.39.39,0,0,0,.23.07.4.4,0,0,0,.41-.4h0v0h0A.45.45,0,0,0,781.68,762Z"/><path class="cls-34" d="M781.31,761.83c-.07.12,0,.22-.14.28s-.12,0-.19.07a1.33,1.33,0,0,0,.14-.48c0-.06,0-.08,0,0a.64.64,0,0,1-.1.33l-.05-.06-.06-.08a.35.35,0,0,1,0-.14c0-.05-.06-.05-.05,0a.5.5,0,0,0,.05.21c0,.06.09.08.09.16a.59.59,0,0,1-.1.17.6.6,0,0,0-.14.21s0-.1-.18-.21a1,1,0,0,1-.17-.18,3.45,3.45,0,0,1,.14-.34.73.73,0,0,0,0-.33s0,0,0,0a.8.8,0,0,1-.11.4,2,2,0,0,0-.1.21h0a.91.91,0,0,1-.1-.4s-.06,0-.06,0a.89.89,0,0,0,.15.5l.2.21-.13,0a.47.47,0,0,1-.36-.21s-.07,0,0,0a.55.55,0,0,0,.22.21c.28.08.45.08.45.29,0,.5,0,1.65,0,1.65h.19v-1.58a1,1,0,0,1,.19-.43c.07-.07.17-.07.28-.15s.06-.19.13-.31S781.34,761.78,781.31,761.83Z"/><path class="cls-36" d="M781.68,762a.47.47,0,0,0-.36-.46s0-.07,0-.1a.4.4,0,0,0-.41-.4.43.43,0,0,0-.34.18.53.53,0,0,0-.74,0,.54.54,0,0,0-.14.36.51.51,0,0,0,.1.32.41.41,0,0,0-.08.57.42.42,0,0,0,.33.16l.11,0h0a.29.29,0,0,0,.29.29.29.29,0,0,0,.22-.1.39.39,0,0,0,.23.07.4.4,0,0,0,.41-.4h0v0h0A.45.45,0,0,0,781.68,762Z"/><polygon class="cls-37" points="744.73 760.75 744.33 762.6 744.87 762.55 745.27 760.7 744.73 760.75"/><polygon class="cls-38" points="743.64 760.86 743.25 762.69 743.78 762.65 744.18 760.8 743.64 760.86"/><polygon class="cls-39" points="745.27 760.7 744.87 762.55 745.42 762.5 745.82 760.64 745.27 760.7"/><polygon class="cls-40" points="744.18 760.8 743.78 762.65 744.33 762.6 744.73 760.75 744.18 760.8"/><polygon class="cls-41" points="745.82 760.64 745.42 762.5 745.96 762.45 746.37 760.59 745.82 760.64"/><polygon class="cls-42" points="747.46 760.48 746.91 760.54 746.51 762.4 747.05 762.35 747.46 760.48"/><polygon class="cls-43" points="746.37 760.59 745.96 762.45 746.51 762.4 746.91 760.54 746.37 760.59"/><polygon class="cls-37" points="742.52 769.65 742.09 771.49 742.64 771.45 743.06 769.61 742.52 769.65"/><polygon class="cls-38" points="741.43 769.74 741.01 771.57 741.55 771.53 741.97 769.7 741.43 769.74"/><polygon class="cls-39" points="743.06 769.61 742.64 771.45 743.18 771.41 743.61 769.56 743.06 769.61"/><polygon class="cls-40" points="741.97 769.7 741.55 771.53 742.09 771.49 742.52 769.65 741.97 769.7"/><polygon class="cls-41" points="743.61 769.56 743.18 771.41 743.73 771.37 744.16 769.51 743.61 769.56"/><polygon class="cls-42" points="745.25 769.42 744.7 769.47 744.27 771.33 744.82 771.28 745.25 769.42"/><polygon class="cls-43" points="744.16 769.51 743.73 771.37 744.27 771.33 744.7 769.47 744.16 769.51"/><path class="cls-32" d="M708.66,770.05a.72.72,0,0,0-.58-.71.5.5,0,0,0,0-.17.62.62,0,0,0-.63-.62.63.63,0,0,0-.53.29.82.82,0,0,0-1.16,0,.83.83,0,0,0,0,1.06.62.62,0,0,0-.12.88.62.62,0,0,0,.5.25l.18,0h0a.46.46,0,0,0,.45.46.44.44,0,0,0,.34-.16.63.63,0,0,0,.88-.15.61.61,0,0,0,.12-.37v-.07A.72.72,0,0,0,708.66,770.05Z"/><path class="cls-44" d="M708.66,770.05a.72.72,0,0,0-.58-.71.5.5,0,0,0,0-.17.62.62,0,0,0-.63-.62.63.63,0,0,0-.53.29.82.82,0,0,0-1.16,0,.83.83,0,0,0,0,1.06.62.62,0,0,0-.12.88.62.62,0,0,0,.5.25l.18,0h0a.46.46,0,0,0,.45.46.44.44,0,0,0,.34-.16.63.63,0,0,0,.88-.15.61.61,0,0,0,.12-.37v-.07A.72.72,0,0,0,708.66,770.05Z"/><path class="cls-34" d="M708,769.71c-.11.17,0,.32-.21.41s-.16,0-.27.1a1.89,1.89,0,0,0,.2-.69c0-.08-.06-.11-.07,0a1.07,1.07,0,0,1-.14.47.27.27,0,0,0-.07-.08.47.47,0,0,1-.09-.12,1.46,1.46,0,0,1-.05-.2c0-.08-.08-.07-.07,0a1.08,1.08,0,0,0,.07.31c.05.08.14.12.14.22a.78.78,0,0,1-.16.24.85.85,0,0,0-.19.3c0-.07-.06-.15-.25-.3a1,1,0,0,1-.25-.26c.06-.16.13-.32.2-.47a1.32,1.32,0,0,0,.06-.48c0-.08-.06-.08-.06,0a1.09,1.09,0,0,1-.15.56,1.3,1.3,0,0,0-.14.32h0a1.32,1.32,0,0,1-.15-.58c0-.07-.09-.05-.08,0a1.3,1.3,0,0,0,.19.72l.29.3-.18,0a.64.64,0,0,1-.51-.3c0-.06-.11,0-.06.06s.17.24.32.29c.39.12.63.12.63.42,0,.71,0,2.61,0,2.61h.26V771a1.58,1.58,0,0,1,.28-.62c.1-.1.24-.09.4-.2s.09-.29.18-.44S708,769.64,708,769.71Z"/><path class="cls-32" d="M728.07,771.49a.72.72,0,0,0-.57-.7,1,1,0,0,0,0-.17.63.63,0,0,0-1.16-.33.82.82,0,0,0-1.38.6.79.79,0,0,0,.17.49.63.63,0,0,0,.56,1.11h0a.45.45,0,0,0,.45.45.43.43,0,0,0,.34-.15.66.66,0,0,0,.36.11.63.63,0,0,0,.63-.63v-.07A.73.73,0,0,0,728.07,771.49Z"/><path class="cls-45" d="M728.07,771.49a.72.72,0,0,0-.57-.7,1,1,0,0,0,0-.17.63.63,0,0,0-1.16-.33.82.82,0,0,0-1.38.6.79.79,0,0,0,.17.49.63.63,0,0,0,.56,1.11h0a.45.45,0,0,0,.45.45.43.43,0,0,0,.34-.15.66.66,0,0,0,.36.11.63.63,0,0,0,.63-.63v-.07A.73.73,0,0,0,728.07,771.49Z"/><path class="cls-34" d="M727.41,771.16c-.1.17,0,.32-.2.41s-.16,0-.27.1a2.38,2.38,0,0,0,.2-.69c0-.08-.06-.11-.07,0a1,1,0,0,1-.15.47l-.06-.08-.1-.12a1.42,1.42,0,0,1,0-.2c0-.08-.08-.06-.07,0a1.08,1.08,0,0,0,.07.31c0,.08.14.12.13.23a.65.65,0,0,1-.15.23.89.89,0,0,0-.19.31.66.66,0,0,0-.25-.31,1,1,0,0,1-.25-.26,3.9,3.9,0,0,1,.2-.47,1.32,1.32,0,0,0,.06-.48c0-.08-.07-.08-.06,0a1.2,1.2,0,0,1-.15.56,1.3,1.3,0,0,0-.14.32h0a1.32,1.32,0,0,1-.16-.57c0-.08-.08-.06-.08,0a1.28,1.28,0,0,0,.21.71l.29.3-.18-.05a.64.64,0,0,1-.52-.3c-.05-.06-.1,0-.05.06s.17.24.31.29c.39.12.64.12.64.42,0,.71,0,2.6,0,2.6h.26v-2.5a1.51,1.51,0,0,1,.27-.62c.11-.1.25-.09.4-.2s.09-.29.19-.45S727.45,771.09,727.41,771.16Z"/><path class="cls-32" d="M766.11,767.84a.73.73,0,0,0-.57-.71,1,1,0,0,0,0-.17.63.63,0,0,0-1.16-.33.83.83,0,0,0-1.17,0,.84.84,0,0,0-.05,1.05.63.63,0,0,0-.11.88.62.62,0,0,0,.67.23h0a.45.45,0,0,0,.45.45.44.44,0,0,0,.34-.16.7.7,0,0,0,.36.12.63.63,0,0,0,.63-.63v-.06h0A.74.74,0,0,0,766.11,767.84Z"/><path class="cls-46" d="M766.11,767.84a.73.73,0,0,0-.57-.71,1,1,0,0,0,0-.17.63.63,0,0,0-1.16-.33.83.83,0,0,0-1.17,0,.84.84,0,0,0-.05,1.05.63.63,0,0,0-.11.88.62.62,0,0,0,.67.23h0a.45.45,0,0,0,.45.45.44.44,0,0,0,.34-.16.7.7,0,0,0,.36.12.63.63,0,0,0,.63-.63v-.06h0A.74.74,0,0,0,766.11,767.84Z"/><path class="cls-34" d="M765.44,767.5c-.1.18,0,.32-.2.41s-.16,0-.27.1a2,2,0,0,0,.2-.69c0-.08-.06-.11-.07,0a1,1,0,0,1-.15.48.47.47,0,0,0-.06-.09.27.27,0,0,1-.09-.12.67.67,0,0,1,0-.19c0-.08-.08-.07-.07,0a1,1,0,0,0,.07.3c0,.08.14.12.14.23a.87.87,0,0,1-.16.23.89.89,0,0,0-.19.31c0-.07-.07-.16-.25-.3a1.27,1.27,0,0,1-.25-.27c.06-.16.13-.32.2-.47a1.24,1.24,0,0,0,.06-.47c0-.08-.07-.08-.06,0a1.12,1.12,0,0,1-.15.56,1.23,1.23,0,0,0-.14.31h0a1.27,1.27,0,0,1-.15-.57c0-.08-.09-.06-.08,0a1.25,1.25,0,0,0,.2.72l.29.29a.58.58,0,0,0-.18,0,.66.66,0,0,1-.52-.31s-.1,0,0,.07.17.24.31.28c.39.12.64.12.64.42,0,.71,0,2.61,0,2.61h.27V768.8a1.4,1.4,0,0,1,.27-.61c.1-.11.24-.1.4-.21s.09-.28.18-.44S765.48,767.44,765.44,767.5Z"/><path class="cls-32" d="M703.45,762.25a.73.73,0,0,0-.57-.71.88.88,0,0,0,0-.17.63.63,0,0,0-.64-.62.61.61,0,0,0-.52.29.83.83,0,0,0-1.16.05.82.82,0,0,0-.22.56.79.79,0,0,0,.17.49.63.63,0,0,0-.13.88.61.61,0,0,0,.68.23h0a.46.46,0,0,0,.45.46.45.45,0,0,0,.35-.16.64.64,0,0,0,.88-.15.63.63,0,0,0,.12-.37V763A.73.73,0,0,0,703.45,762.25Z"/><path class="cls-47" d="M703.45,762.25a.73.73,0,0,0-.57-.71.88.88,0,0,0,0-.17.63.63,0,0,0-.64-.62.61.61,0,0,0-.52.29.83.83,0,0,0-1.16.05.82.82,0,0,0-.22.56.79.79,0,0,0,.17.49.63.63,0,0,0-.13.88.61.61,0,0,0,.68.23h0a.46.46,0,0,0,.45.46.45.45,0,0,0,.35-.16.64.64,0,0,0,.88-.15.63.63,0,0,0,.12-.37V763A.73.73,0,0,0,703.45,762.25Z"/><path class="cls-34" d="M702.79,761.91c-.1.17,0,.32-.2.41s-.17,0-.28.1a1.78,1.78,0,0,0,.2-.68c0-.08,0-.11-.06,0a1.17,1.17,0,0,1-.15.48.22.22,0,0,0-.07-.09.54.54,0,0,1-.09-.12.65.65,0,0,1,0-.19c0-.08-.09-.07-.07,0a.78.78,0,0,0,.07.3c0,.08.13.12.13.23a1.14,1.14,0,0,1-.15.23,1,1,0,0,0-.2.3c0-.07-.06-.15-.25-.3a1.27,1.27,0,0,1-.25-.27c.06-.16.13-.31.2-.47a1.24,1.24,0,0,0,.06-.47c0-.08-.06-.08-.06,0a1.09,1.09,0,0,1-.15.56,1.73,1.73,0,0,0-.14.31h0a1.38,1.38,0,0,1-.15-.57c0-.08-.09-.06-.08,0a1.28,1.28,0,0,0,.19.72l.29.3-.18-.05a.65.65,0,0,1-.51-.3c-.05-.06-.11,0-.06.06s.18.24.32.29c.39.12.64.12.64.42,0,.7,0,2.6,0,2.6H702v-2.5a1.52,1.52,0,0,1,.28-.62c.1-.1.24-.09.4-.2s.09-.29.18-.45S702.83,761.85,702.79,761.91Z"/><path class="cls-32" d="M761,757.5a.73.73,0,0,0-.57-.71.88.88,0,0,0,0-.16.64.64,0,0,0-.64-.63.66.66,0,0,0-.52.29.83.83,0,0,0-1.16,0,.82.82,0,0,0,0,1.06.63.63,0,0,0,.55,1.11h0a.46.46,0,0,0,.46.45.45.45,0,0,0,.34-.15.64.64,0,0,0,1-.52v-.07A.72.72,0,0,0,761,757.5Z"/><path class="cls-48" d="M761,757.5a.73.73,0,0,0-.57-.71.88.88,0,0,0,0-.16.64.64,0,0,0-.64-.63.66.66,0,0,0-.52.29.83.83,0,0,0-1.16,0,.82.82,0,0,0,0,1.06.63.63,0,0,0,.55,1.11h0a.46.46,0,0,0,.46.45.45.45,0,0,0,.34-.15.64.64,0,0,0,1-.52v-.07A.72.72,0,0,0,761,757.5Z"/><path class="cls-34" d="M760.34,757.16c-.1.18,0,.32-.2.42s-.17,0-.27.1a2.35,2.35,0,0,0,.2-.7c0-.07-.06-.1-.07,0a1,1,0,0,1-.15.47l-.06-.08a.64.64,0,0,1-.1-.13,1.06,1.06,0,0,1,0-.19c0-.08-.08-.07-.07,0a.82.82,0,0,0,.07.31c.05.08.14.11.13.22a.51.51,0,0,1-.15.23,1,1,0,0,0-.19.31c0-.07-.07-.15-.25-.3a1,1,0,0,1-.25-.26,4.89,4.89,0,0,1,.2-.48,1.24,1.24,0,0,0,.06-.47c0-.08-.07-.08-.06,0a1.33,1.33,0,0,1-.15.56,2.2,2.2,0,0,0-.15.31h0a1.25,1.25,0,0,1-.16-.57c0-.08-.08,0-.08,0a1.28,1.28,0,0,0,.21.71s.25.25.28.3a.48.48,0,0,0-.17-.05.64.64,0,0,1-.52-.3c0-.06-.11,0-.06.06s.18.24.32.29c.39.12.64.12.64.41,0,.72,0,2.61,0,2.61h.26v-2.5a1.4,1.4,0,0,1,.28-.62c.1-.1.24-.09.4-.2s.08-.29.18-.45S760.38,757.09,760.34,757.16Z"/><path class="cls-32" d="M784.64,774.19a.72.72,0,0,0-.58-.71.32.32,0,0,0,0-.17.63.63,0,0,0-.63-.62.64.64,0,0,0-.53.29.82.82,0,0,0-1.21,1.1.62.62,0,0,0-.12.88.62.62,0,0,0,.5.25l.18,0h0a.45.45,0,0,0,.45.45.44.44,0,0,0,.34-.16.63.63,0,0,0,1-.51v-.06h0A.74.74,0,0,0,784.64,774.19Z"/><path class="cls-49" d="M784.64,774.19a.72.72,0,0,0-.58-.71.32.32,0,0,0,0-.17.63.63,0,0,0-.63-.62.64.64,0,0,0-.53.29.82.82,0,0,0-1.21,1.1.62.62,0,0,0-.12.88.62.62,0,0,0,.5.25l.18,0h0a.45.45,0,0,0,.45.45.44.44,0,0,0,.34-.16.63.63,0,0,0,1-.51v-.06h0A.74.74,0,0,0,784.64,774.19Z"/><path class="cls-34" d="M784,773.85c-.1.18,0,.32-.2.42s-.17,0-.28.1a1.89,1.89,0,0,0,.2-.69c0-.08-.06-.11-.07,0a1.11,1.11,0,0,1-.14.47.27.27,0,0,0-.07-.08.38.38,0,0,1-.09-.13,1.05,1.05,0,0,1-.05-.19c0-.08-.08-.07-.07,0a1.08,1.08,0,0,0,.07.31c.05.08.14.11.14.22a.76.76,0,0,1-.15.23,1,1,0,0,0-.2.31c0-.07-.06-.15-.25-.3a1.24,1.24,0,0,1-.25-.26c.06-.16.13-.32.2-.48a1.24,1.24,0,0,0,.06-.47c0-.08-.06-.08-.06,0a1.09,1.09,0,0,1-.15.56,2.12,2.12,0,0,0-.14.31h0a1.38,1.38,0,0,1-.15-.57c0-.08-.09-.05-.08,0a1.2,1.2,0,0,0,.2.71l.29.3a.61.61,0,0,0-.18,0,.65.65,0,0,1-.52-.3c0-.06-.1,0,0,.06s.17.24.32.29c.38.12.63.12.63.41,0,.72,0,2.61,0,2.61h.27v-2.5a1.39,1.39,0,0,1,.27-.62c.1-.1.24-.09.4-.2s.09-.29.18-.45S784,773.78,784,773.85Z"/><path class="cls-32" d="M772.76,754.27a.73.73,0,0,0-.57-.71.88.88,0,0,0,0-.16.63.63,0,0,0-1.16-.33.82.82,0,0,0-1.21,1.09.63.63,0,0,0-.13.88.64.64,0,0,0,.68.23h0a.45.45,0,0,0,.8.29.58.58,0,0,0,.36.12.63.63,0,0,0,.63-.63V755A.73.73,0,0,0,772.76,754.27Z"/><path class="cls-50" d="M772.76,754.27a.73.73,0,0,0-.57-.71.88.88,0,0,0,0-.16.63.63,0,0,0-1.16-.33.82.82,0,0,0-1.21,1.09.63.63,0,0,0-.13.88.64.64,0,0,0,.68.23h0a.45.45,0,0,0,.8.29.58.58,0,0,0,.36.12.63.63,0,0,0,.63-.63V755A.73.73,0,0,0,772.76,754.27Z"/><path class="cls-34" d="M772.1,753.93c-.1.17,0,.31-.2.41s-.17,0-.28.1a2.12,2.12,0,0,0,.21-.69c0-.08-.06-.11-.07,0a1,1,0,0,1-.15.47.27.27,0,0,0-.07-.08l-.09-.12a1.42,1.42,0,0,1,0-.2c0-.08-.09-.07-.07,0a.82.82,0,0,0,.07.31c.05.08.13.12.13.22a.75.75,0,0,1-.15.24.85.85,0,0,0-.19.3c0-.07-.07-.15-.26-.3a1.24,1.24,0,0,1-.25-.26,4,4,0,0,1,.21-.47,1.32,1.32,0,0,0,.06-.48c0-.08-.07-.08-.07,0a1.09,1.09,0,0,1-.15.56,3.09,3.09,0,0,0-.14.32h0a1.46,1.46,0,0,1-.15-.57c0-.08-.09-.06-.08,0a1.24,1.24,0,0,0,.21.71l.28.3a.48.48,0,0,0-.18-.05.65.65,0,0,1-.51-.3c0-.06-.11,0-.06.06s.18.24.32.29c.39.12.64.12.64.42,0,.71,0,2.6,0,2.6h.27v-2.5a1.57,1.57,0,0,1,.27-.62c.11-.1.25-.09.4-.2s.09-.29.19-.45S772.14,753.86,772.1,753.93Z"/><path class="cls-32" d="M750.38,749.56a.73.73,0,0,0-.58-.71.5.5,0,0,0,0-.17.63.63,0,0,0-1.16-.33.81.81,0,0,0-1.16,0,.83.83,0,0,0,0,1.05.63.63,0,0,0,.56,1.1h0a.46.46,0,0,0,.45.46.44.44,0,0,0,.34-.16.66.66,0,0,0,.36.11.63.63,0,0,0,.63-.63v-.07A.72.72,0,0,0,750.38,749.56Z"/><path class="cls-51" d="M750.38,749.56a.73.73,0,0,0-.58-.71.5.5,0,0,0,0-.17.63.63,0,0,0-1.16-.33.81.81,0,0,0-1.16,0,.83.83,0,0,0,0,1.05.63.63,0,0,0,.56,1.1h0a.46.46,0,0,0,.45.46.44.44,0,0,0,.34-.16.66.66,0,0,0,.36.11.63.63,0,0,0,.63-.63v-.07A.72.72,0,0,0,750.38,749.56Z"/><path class="cls-34" d="M749.72,749.22c-.11.18,0,.32-.21.41s-.16,0-.27.1a1.83,1.83,0,0,0,.2-.69c0-.08-.06-.11-.07,0a1.16,1.16,0,0,1-.14.48.31.31,0,0,0-.07-.09.27.27,0,0,1-.09-.12,1.33,1.33,0,0,1-.05-.19c0-.08-.08-.07-.07,0a1,1,0,0,0,.07.3c.05.08.14.12.14.23a1.14,1.14,0,0,1-.15.23.79.79,0,0,0-.2.31c0-.07-.06-.16-.25-.3a1.27,1.27,0,0,1-.25-.27,4,4,0,0,1,.21-.47,1.13,1.13,0,0,0,.05-.48c0-.08-.06-.08-.06,0a1.09,1.09,0,0,1-.15.56,1.83,1.83,0,0,0-.14.32h0a1.42,1.42,0,0,1-.15-.57c0-.08-.09-.06-.08,0a1.28,1.28,0,0,0,.2.71l.29.3-.18,0a.65.65,0,0,1-.51-.3c0-.06-.11,0-.06.06s.18.24.32.29c.39.12.64.12.64.42,0,.71,0,2.61,0,2.61h.27v-2.51a1.52,1.52,0,0,1,.27-.61c.1-.11.25-.1.4-.21s.09-.29.18-.45S749.75,749.15,749.72,749.22Z"/><path class="cls-32" d="M755.4,774.28s-1.22-.23-.59,1.07c.34-.78.65-.89.65-.89s.27.15.55.95c.09-.14.6-1.11-.25-1.14a1.34,1.34,0,0,1,1,.27s-.11-1.09-1-.6a1.71,1.71,0,0,1,.7-.43s-.79-.56-.9.41c-.06-.41-.19-.83-.88-.52a2.13,2.13,0,0,1,.61.51s-1.19-.68-1.16.69A2.38,2.38,0,0,1,755.4,774.28Z"/><path class="cls-52" d="M755.4,774.28s-1.22-.23-.59,1.07c.34-.78.65-.89.65-.89s.27.15.55.95c.09-.14.6-1.11-.25-1.14a1.34,1.34,0,0,1,1,.27s-.11-1.09-1-.6a1.71,1.71,0,0,1,.7-.43s-.79-.56-.9.41c-.06-.41-.19-.83-.88-.52a2.13,2.13,0,0,1,.61.51s-1.19-.68-1.16.69A2.38,2.38,0,0,1,755.4,774.28Z"/><path class="cls-34" d="M755.21,777.91a18.08,18.08,0,0,1,.24-3.76h.1a29.34,29.34,0,0,0-.07,3.75Z"/><path class="cls-52" d="M755.4,774.28s-1.22-.23-.59,1.07c.34-.78.65-.89.65-.89s.27.15.55.95c.09-.14.6-1.11-.25-1.14a1.34,1.34,0,0,1,1,.27s-.11-1.09-1-.6a1.71,1.71,0,0,1,.7-.43s-.79-.56-.9.41c-.06-.41-.19-.83-.88-.52a2.13,2.13,0,0,1,.61.51s-1.19-.68-1.16.69A2.38,2.38,0,0,1,755.4,774.28Z"/><path class="cls-32" d="M743.31,755.53s-1.21-.23-.58,1.07c.33-.79.65-.89.65-.89s.27.14.55.94c.09-.13.6-1.11-.25-1.14a1.31,1.31,0,0,1,1,.28s-.11-1.09-1-.6a1.59,1.59,0,0,1,.7-.43s-.79-.56-.9.4c-.06-.4-.19-.82-.89-.52a2.07,2.07,0,0,1,.62.52s-1.2-.68-1.16.68A2.25,2.25,0,0,1,743.31,755.53Z"/><path class="cls-53" d="M743.31,755.53s-1.21-.23-.58,1.07c.33-.79.65-.89.65-.89s.27.14.55.94c.09-.13.6-1.11-.25-1.14a1.31,1.31,0,0,1,1,.28s-.11-1.09-1-.6a1.59,1.59,0,0,1,.7-.43s-.79-.56-.9.4c-.06-.4-.19-.82-.89-.52a2.07,2.07,0,0,1,.62.52s-1.2-.68-1.16.68A2.25,2.25,0,0,1,743.31,755.53Z"/><path class="cls-34" d="M743.13,759.16a18.17,18.17,0,0,1,.24-3.77l.1,0a27.59,27.59,0,0,0-.07,3.75Z"/><path class="cls-53" d="M743.31,755.53s-1.21-.23-.58,1.07c.33-.79.65-.89.65-.89s.27.14.55.94c.09-.13.6-1.11-.25-1.14a1.31,1.31,0,0,1,1,.28s-.11-1.09-1-.6a1.59,1.59,0,0,1,.7-.43s-.79-.56-.9.4c-.06-.4-.19-.82-.89-.52a2.07,2.07,0,0,1,.62.52s-1.2-.68-1.16.68A2.25,2.25,0,0,1,743.31,755.53Z"/><path class="cls-32" d="M738.84,777.67s-1.22-.23-.58,1.07c.33-.78.64-.89.64-.89s.28.14.55.94c.1-.13.6-1.1-.25-1.13a1.29,1.29,0,0,1,1,.27s-.11-1.09-1-.6a1.71,1.71,0,0,1,.7-.43s-.79-.56-.89.4c-.07-.4-.2-.83-.89-.52a2.16,2.16,0,0,1,.61.52s-1.19-.68-1.16.68A2.37,2.37,0,0,1,738.84,777.67Z"/><path class="cls-54" d="M738.84,777.67s-1.22-.23-.58,1.07c.33-.78.64-.89.64-.89s.28.14.55.94c.1-.13.6-1.1-.25-1.13a1.29,1.29,0,0,1,1,.27s-.11-1.09-1-.6a1.71,1.71,0,0,1,.7-.43s-.79-.56-.89.4c-.07-.4-.2-.83-.89-.52a2.16,2.16,0,0,1,.61.52s-1.19-.68-1.16.68A2.37,2.37,0,0,1,738.84,777.67Z"/><path class="cls-34" d="M738.65,781.3a18.08,18.08,0,0,1,.24-3.76h.1a29.34,29.34,0,0,0-.07,3.75Z"/><path class="cls-54" d="M738.84,777.67s-1.22-.23-.58,1.07c.33-.78.64-.89.64-.89s.28.14.55.94c.1-.13.6-1.1-.25-1.13a1.29,1.29,0,0,1,1,.27s-.11-1.09-1-.6a1.71,1.71,0,0,1,.7-.43s-.79-.56-.89.4c-.07-.4-.2-.83-.89-.52a2.16,2.16,0,0,1,.61.52s-1.19-.68-1.16.68A2.37,2.37,0,0,1,738.84,777.67Z"/><polyline class="cls-55" points="715.24 783.16 721.02 783.16 721.02 780.27"/><polygon class="cls-56" points="721.02 779.98 721.19 780.39 721.02 780.29 720.86 780.39 721.02 779.98"/><polyline class="cls-55" points="708.69 783.16 703.18 783.16 703.18 780.27"/><polygon class="cls-56" points="703.18 779.98 703.35 780.39 703.18 780.29 703.01 780.39 703.18 779.98"/><path class="cls-57" d="M711.69,739.09c3.45.09,7.14,1.8,10.51.49,2.92-1.14,4.39-4.51,7.7-5,1.36-.18,2.23.41,3.37,1,1.52.78,3.15-.11,4.73.56a16.63,16.63,0,0,0,5.39,1.79,12.23,12.23,0,0,0,5.7-1,4,4,0,0,1,3.2-.4,10.73,10.73,0,0,0,2.42.73c1,.14,2,.21,2.94.31a20.77,20.77,0,0,1,4.78,1.12,4.32,4.32,0,0,0,3.38.13,18.54,18.54,0,0,1,1.78-.9,2,2,0,0,1,2.12.47,2.48,2.48,0,0,0,2.43.7c.63-.12,1.24-.33,1.86-.45,2.58-.51,5.46.61,7.79,1.52,2.09.81,4.88,2.32,8.22,2.32v-27H702.86l-.4,27a13.18,13.18,0,0,0,5-2.49A8.83,8.83,0,0,1,711.69,739.09Z"/><path class="cls-58" d="M762,729.27a1.46,1.46,0,0,1,.23-1.28,1.51,1.51,0,1,0,1.17,2.79,1.54,1.54,0,0,0,.7-.61,1.47,1.47,0,0,1-2-.62A1.36,1.36,0,0,1,762,729.27Z"/><path class="cls-59" d="M702.55,742.78c3.1-.81,5.23-3.32,8.61-3.41,3.06-.07,6,1.16,9.07.93s4.62-2.41,6.88-4.11a6.37,6.37,0,0,1,2.69-1.27,4.32,4.32,0,0,1,3,.76,4.21,4.21,0,0,0,1.67.64c1,.08,1.85-.37,2.84-.1a21.46,21.46,0,0,1,2.53,1.17,11.7,11.7,0,0,0,1.93.61,12.05,12.05,0,0,0,4.44.13,30,30,0,0,0,4-1.33c1.14-.35,1.8,0,2.84.41a7.92,7.92,0,0,0,2,.41,39.53,39.53,0,0,1,5.44.74c1.43.39,3,1.33,4.5,1.06s2.82-2.08,4.35-.9c.76.58,1.21,1.08,2.25,1,1.63-.18,2.94-.76,4.65-.57a20.87,20.87,0,0,1,5.1,1.41c3,1.16,6,2.48,9.31,2.42a.15.15,0,0,0,.16-.13.13.13,0,0,0-.13-.15h0c-3.19,0-6-1.17-8.89-2.29-2.33-.91-5.21-2-7.79-1.51-.62.12-1.23.33-1.86.44a2.46,2.46,0,0,1-2.44-.7,2,2,0,0,0-2.11-.46,17.62,17.62,0,0,0-1.79.9,4.26,4.26,0,0,1-3.37-.14,20.87,20.87,0,0,0-4.81-1.11c-1-.1-2-.17-2.93-.31a10.12,10.12,0,0,1-2.42-.74,4.06,4.06,0,0,0-3.2.41,12.12,12.12,0,0,1-5.71,1,16.38,16.38,0,0,1-5.39-1.78c-1.58-.68-3.21.22-4.73-.56-1.13-.58-2-1.17-3.36-1-3.32.45-4.78,3.81-7.7,5-3.37,1.31-7.07-.4-10.51-.49a8.73,8.73,0,0,0-4.25.94c-1.67.84-3.13,2-5,2.49a.13.13,0,0,0-.09.17.14.14,0,0,0,.17.1h0Z"/><path class="cls-32" d="M753.31,730.27a.64.64,0,0,1-.22-.14h0a1.1,1.1,0,0,1-.14-.21l0,0,0,0a1,1,0,0,1-.14.21h0a.64.64,0,0,1-.22.14s0,0,0,0,0,0,0,0a.74.74,0,0,1,.22.14h0a.74.74,0,0,1,.13.21l0,0,0,0a.77.77,0,0,1,.14-.21h0a.7.7,0,0,1,.21-.14s0,0,0,0Z"/><path class="cls-32" d="M722.38,725.94a.77.77,0,0,1-.21-.14h0v0a.64.64,0,0,1-.14-.22h0a.64.64,0,0,1-.14.22h0a1,1,0,0,1-.22.14,0,0,0,0,0,0,0l0,0a.74.74,0,0,1,.21.13h0a.74.74,0,0,1,.14.22h0a.74.74,0,0,1,.14-.22h0a1,1,0,0,1,.22-.13l0,0Z"/><path class="cls-32" d="M735,731.42l-.17-.11h0a1,1,0,0,1-.11-.17h0a.45.45,0,0,1-.11.17h0a.91.91,0,0,1-.16.11s0,0,0,0,0,0,0,0a.42.42,0,0,1,.16.11h0a.62.62,0,0,1,.11.17h0a1,1,0,0,1,.11-.17h0a.66.66,0,0,1,.17-.12h0A0,0,0,0,0,735,731.42Z"/><path class="cls-32" d="M712.37,733.72a.91.91,0,0,1-.16-.11h0a.62.62,0,0,1-.11-.17h0a.62.62,0,0,1-.11.17h0l-.17.11v0a.45.45,0,0,1,.17.11h0a.62.62,0,0,1,.11.17h0a.62.62,0,0,1,.11-.17h0a.36.36,0,0,1,.16-.11v0S712.38,733.72,712.37,733.72Z"/><path class="cls-32" d="M782.29,724.8a.42.42,0,0,1-.16-.11h0a.46.46,0,0,1-.11-.16h0a.64.64,0,0,1-.11.16h0a.45.45,0,0,1-.17.11s0,0,0,0,0,0,0,0l.17.11h0a1,1,0,0,1,.11.17h0a.45.45,0,0,1,.11-.17h0a.62.62,0,0,1,.17-.11s0,0,0,0,0,0,0,0Z"/><path class="cls-32" d="M749.48,722.35a.62.62,0,0,1-.17-.11h0a.91.91,0,0,1-.11-.16s0,0,0,0a0,0,0,0,0,0,0,.61.61,0,0,1-.12.16h0a.62.62,0,0,1-.17.11s0,0,0,0,0,0,0,0a.62.62,0,0,1,.17.11h0a.52.52,0,0,1,.12.17h0a.71.71,0,0,1,.11-.17h0a.5.5,0,0,1,.17-.11v0Z"/><path class="cls-32" d="M773.19,734.76l-.17-.11h0a.52.52,0,0,1-.12-.17h0a.71.71,0,0,1-.11.17h0l-.17.11s0,0,0,0,0,0,0,0a.62.62,0,0,1,.17.11h0a.61.61,0,0,1,.12.16v0l0,0a.91.91,0,0,1,.11-.16h0a.62.62,0,0,1,.17-.11v0Z"/><path class="cls-32" d="M745.66,742.57l-.13-.08h0a.64.64,0,0,1-.08-.14.08.08,0,0,0-.07,0,.08.08,0,0,0-.06,0,.57.57,0,0,1-.08.13h0a.42.42,0,0,1-.14.09.06.06,0,0,0,0,.09s0,0,0,0l.14.08h0a.57.57,0,0,1,.08.13.06.06,0,0,0,.07,0h0s0,0,.06,0l.08-.13h0l.14-.08a.08.08,0,0,0,0-.1l0,0Z"/></g><g id="Icons"><circle class="cls-60" cx="784.57" cy="767.68" r="1.52"/><polygon class="cls-61" points="785.28 767.47 784.78 767.47 784.78 766.97 784.36 766.97 784.36 767.47 783.86 767.47 783.86 767.89 784.36 767.89 784.36 768.39 784.78 768.39 784.78 767.89 785.28 767.89 785.28 767.47"/><circle class="cls-60" cx="735.36" cy="785.49" r="1.52"/><polygon class="cls-61" points="736.07 785.28 735.57 785.28 735.57 784.78 735.15 784.78 735.15 785.28 734.66 785.28 734.66 785.7 735.15 785.7 735.15 786.2 735.57 786.2 735.57 785.7 736.07 785.7 736.07 785.28"/><circle class="cls-43" cx="713.94" cy="764.07" r="1.52"/><path class="cls-32" d="M712.78,763.65H713l.21.66.22-.66h.14l.22.66.22-.66h.16l-.3.91h-.14l-.22-.65-.23.65h-.13Z"/><path class="cls-32" d="M714.2,764.1h0a.46.46,0,0,1,.45-.47h0a.54.54,0,0,1,.36.14l-.11.12a.33.33,0,0,0-.25-.11.3.3,0,0,0-.3.31h0a.31.31,0,0,0,.29.32h0a.37.37,0,0,0,.26-.12l.1.1a.46.46,0,0,1-.82-.29Z"/><circle class="cls-43" cx="749.94" cy="769.51" r="1.52"/><path class="cls-32" d="M748.79,769.09H749l.22.66.22-.67h.14l.22.67.21-.66h.17l-.31.91h-.14l-.22-.65-.23.65h-.13Z"/><path class="cls-32" d="M750.21,769.54h0a.46.46,0,0,1,.44-.47h0a.52.52,0,0,1,.36.14l-.11.12a.33.33,0,0,0-.25-.11.3.3,0,0,0-.3.31h0a.32.32,0,0,0,.29.32h0a.37.37,0,0,0,.26-.12l.1.1a.46.46,0,0,1-.82-.28Z"/><polyline class="cls-62" points="795.12 761.33 795.12 761.49 794.95 761.49"/><line class="cls-63" x1="794.63" y1="761.49" x2="787.11" y2="761.49"/><polyline class="cls-62" points="786.95 761.49 786.78 761.49 786.78 761.33"/><line class="cls-64" x1="786.78" y1="760.99" x2="786.78" y2="753.83"/><polyline class="cls-62" points="786.78 753.67 786.78 753.5 786.95 753.5"/><line class="cls-63" x1="787.27" y1="753.5" x2="794.8" y2="753.5"/><polyline class="cls-62" points="794.95 753.5 795.12 753.5 795.12 753.67"/><line class="cls-64" x1="795.12" y1="754" x2="795.12" y2="761.16"/><circle class="cls-56" cx="790.95" cy="756.35" r="1.52"/><path class="cls-32" d="M791.89,756.26c0-.09,0-.15-.15-.14s0,0,0,0-.08-.2-.11-.3a.25.25,0,0,0-.19-.17h-.88a.25.25,0,0,0-.19.17c0,.1-.07.2-.11.3s0,0-.05,0-.12,0-.15.14a0,0,0,0,0,0,0h.06a5.3,5.3,0,0,0,0,.69s0,.07,0,.07h.28c.07-.05,0-.13,0-.19h.92c0,.06,0,.14.06.19h.28s0,0,0-.07a5.3,5.3,0,0,0,0-.69h.06S791.9,756.29,791.89,756.26Zm-1.35.33-.11,0h-.12c-.11,0-.13,0-.11-.15s0-.06.07-.06a.65.65,0,0,1,.29.11,0,0,0,0,1,0,.07Zm-.2-.44c0-.12.08-.22.11-.33s0-.11.19-.11h.63c.14,0,.17,0,.19.11l.11.33A2.84,2.84,0,0,1,790.34,756.15Zm1.26.44h-.23a0,0,0,0,1,0-.05s0,0,0,0a.57.57,0,0,1,.29-.11.07.07,0,0,1,.07.06c0,.11,0,.14-.12.15Z"/><polyline class="cls-62" points="766.75 792.9 766.75 793.07 766.58 793.07"/><line class="cls-63" x1="766.26" y1="793.07" x2="758.73" y2="793.07"/><polyline class="cls-62" points="758.57 793.07 758.41 793.07 758.41 792.9"/><line class="cls-64" x1="758.41" y1="792.57" x2="758.41" y2="785.41"/><polyline class="cls-62" points="758.41 785.24 758.41 785.07 758.57 785.07"/><line class="cls-63" x1="758.89" y1="785.07" x2="766.42" y2="785.07"/><polyline class="cls-62" points="766.58 785.07 766.75 785.07 766.75 785.24"/><line class="cls-64" x1="766.75" y1="785.57" x2="766.75" y2="792.73"/><circle class="cls-56" cx="762.57" cy="787.93" r="1.52"/><path class="cls-32" d="M763.51,787.83c0-.09,0-.15-.14-.14a.05.05,0,0,1-.06,0c0-.1-.07-.2-.11-.31a.21.21,0,0,0-.18-.16h-.89a.21.21,0,0,0-.18.16c0,.11-.08.21-.11.31s0,.05-.06,0-.12,0-.14.14,0,0,0,0h.07a5.2,5.2,0,0,0,0,.68s0,.07,0,.07h.28c.08,0,0-.12.05-.18H763c0,.06,0,.14.05.18h.28s0,0,0-.07a5.2,5.2,0,0,0,0-.68h.07S763.52,787.86,763.51,787.83Zm-1.35.33h-.23c-.1,0-.12,0-.11-.14a.06.06,0,0,1,.07-.06.57.57,0,0,1,.29.11.06.06,0,0,1,0,.07Zm-.2-.44c0-.11.08-.22.11-.33s0-.11.19-.11h.63c.14,0,.18.05.19.11l.11.33A2.84,2.84,0,0,1,762,787.72Zm1.26.45H763s0,0,0-.06,0,0,0,0a.81.81,0,0,1,.29-.12s.06,0,.07.07,0,.13-.11.15Z"/><circle class="cls-65" cx="744.85" cy="758.18" r="0.94"/><path d="M745.43,758.12c0-.06,0-.09-.09-.09s0,0,0,0l-.06-.19a.15.15,0,0,0-.12-.11h-.54a.15.15,0,0,0-.12.11l-.06.19s0,0,0,0-.07,0-.09.09a0,0,0,0,0,0,0h0a3,3,0,0,0,0,.42s0,0,0,0h.17c.05,0,0-.08,0-.11h.57s0,.08,0,.11h.16s0,0,0,0a2,2,0,0,0,0-.42h0S745.43,758.14,745.43,758.12Zm-.83.2h-.14c-.07,0-.08,0-.07-.09s0,0,0,0a.35.35,0,0,1,.18.06s0,0,0,0,0,0,0,0Zm-.13-.27c0-.07,0-.14.07-.2s0-.07.12-.07h.39c.08,0,.1,0,.11.07s.05.13.07.2a1.58,1.58,0,0,1-.38,0,1.64,1.64,0,0,1-.38,0Zm.78.27h-.14a0,0,0,0,1,0,0v0a.45.45,0,0,1,.18-.07s0,0,.05,0,0,.07-.07.08Z"/><path class="cls-61" d="M744.78,757.24a.94.94,0,1,0,1,.87h0A.94.94,0,0,0,744.78,757.24Zm.12,1.69a.79.79,0,0,1-.42-.1l.84-1.24a.75.75,0,0,1-.42,1.33Zm.26-1.44-.83,1.22a.75.75,0,0,1,0-1.06.72.72,0,0,1,.48-.22.76.76,0,0,1,.36.06Z"/><circle class="cls-65" cx="759.04" cy="777.17" r="0.94"/><path d="M759.62,777.11c0-.06,0-.09-.09-.09s0,0,0,0,0-.13-.07-.19a.15.15,0,0,0-.11-.11h-.55a.15.15,0,0,0-.11.11c0,.06,0,.12-.07.19s0,0,0,0-.08,0-.09.09,0,0,0,0h0a2.94,2.94,0,0,0,0,.42s0,0,0,0h.17s0-.07,0-.11h.57s0,.09,0,.11h.18a0,0,0,0,0,0,0c0-.14,0-.28,0-.42h0S759.63,777.13,759.62,777.11Zm-.83.2h-.14c-.06,0-.07,0-.07-.09a0,0,0,0,1,0,0,.35.35,0,0,1,.17.06s0,0,0,0Zm-.13-.27c0-.07.05-.14.07-.2a.11.11,0,0,1,.12-.07h.39c.09,0,.11,0,.12.07s0,.13.07.2A1.67,1.67,0,0,1,758.66,777Zm.78.27h-.07a.09.09,0,0,1-.07,0,0,0,0,0,1,0,0l0,0a.36.36,0,0,1,.18-.07,0,0,0,0,1,0,0c0,.06,0,.07-.07.08Z"/><path class="cls-61" d="M759,776.23a.94.94,0,1,0,1,.87h0A1,1,0,0,0,759,776.23Zm.12,1.69a.79.79,0,0,1-.42-.1l.84-1.24a.75.75,0,0,1-.42,1.33Zm.26-1.44-.83,1.22a.75.75,0,0,1,0-1.06A.77.77,0,0,1,759.35,776.48Z"/><circle class="cls-65" cx="740.26" cy="786.12" r="0.94"/><path d="M740.84,786.06s0-.09-.09-.09,0,0,0,0h0l-.06-.19a.15.15,0,0,0-.12-.1H740a.14.14,0,0,0-.12.1,1.46,1.46,0,0,1-.07.19s0,0,0,0-.07,0-.09.09a0,0,0,0,0,0,0h0a3,3,0,0,0,0,.42s0,0,0,0h.17s0-.07,0-.11h.58s0,.09,0,.11h.17a0,0,0,0,0,0,0c0-.14,0-.28,0-.42h0A0,0,0,0,0,740.84,786.06Zm-.83.2h-.14c-.07,0-.08,0-.07-.09s0,0,0,0a.4.4,0,0,1,.18.07s0,0,0,0,0,0,0,0Zm-.13-.27a1.59,1.59,0,0,0,.07-.2s0-.06.12-.06h.39c.08,0,.1,0,.11.06s0,.13.07.2A1.63,1.63,0,0,1,739.88,786Zm.78.28h-.14s0,0,0,0v0a.45.45,0,0,1,.18-.07s0,0,.05,0,0,.08-.07.09Z"/><path class="cls-61" d="M740.19,785.18a.94.94,0,1,0,1,.88h0A1,1,0,0,0,740.19,785.18Zm.12,1.69a.71.71,0,0,1-.42-.1l.84-1.24a.79.79,0,0,1,.28.53.75.75,0,0,1-.7.81Zm.25-1.44-.83,1.22a.75.75,0,0,1,0-1.06.74.74,0,0,1,.49-.22.7.7,0,0,1,.35.06Z"/><circle class="cls-65" cx="776.23" cy="776.33" r="0.94"/><path d="M776.81,776.27c0-.06,0-.09-.09-.09s0,0,0,0a1.46,1.46,0,0,1-.07-.19.17.17,0,0,0-.12-.11H776a.15.15,0,0,0-.11.11,1.46,1.46,0,0,0-.07.19l0,0h0c-.06,0-.07,0-.08.09s0,0,0,0h0c0,.14,0,.28,0,.42s0,0,0,0h.17c.05,0,0-.07,0-.11h.57s0,.09,0,.11h.17s0,0,0,0,0-.28,0-.42h0S776.81,776.29,776.81,776.27Zm-.83.2h-.14c-.07,0-.08,0-.07-.08a0,0,0,0,1,0,0,.36.36,0,0,1,.18.07,0,0,0,0,1,0,.05Zm-.13-.27a1.59,1.59,0,0,0,.07-.2s0-.07.12-.07h.39c.08,0,.1,0,.11.07s.05.13.07.2a1.58,1.58,0,0,1-.38,0,1.64,1.64,0,0,1-.38,0Zm.78.27h-.14a0,0,0,0,1,0-.05.36.36,0,0,1,.17-.07s0,0,.05,0,0,.08-.07.08Z"/><path class="cls-61" d="M776.16,775.39a1,1,0,0,0-.87,1,.94.94,0,0,0,1.87-.12h0A1,1,0,0,0,776.16,775.39Zm.13,1.69a.72.72,0,0,1-.43-.1l.84-1.24a.74.74,0,0,1,.11,1.06A.77.77,0,0,1,776.29,777.08Zm.25-1.44-.83,1.22a.75.75,0,0,1,0-1.06A.77.77,0,0,1,776.54,775.64Z"/><circle class="cls-65" cx="779.84" cy="755.25" r="0.94"/><path d="M780.42,755.19c0-.06,0-.09-.09-.09s0,0,0,0,0-.13-.07-.19a.17.17,0,0,0-.12-.11h-.54a.14.14,0,0,0-.11.11,1.07,1.07,0,0,0-.07.19s0,0,0,0-.07,0-.09.09a0,0,0,0,0,0,0h0c0,.14,0,.28,0,.42s0,0,0,0h.17c.05,0,0-.07,0-.11h.57s0,.09,0,.11h.17a0,0,0,0,0,0,0c0-.14,0-.28,0-.42h0S780.42,755.21,780.42,755.19Zm-.83.2h-.14c-.07,0-.08,0-.07-.08a0,0,0,0,1,0,0,.36.36,0,0,1,.18.07,0,0,0,0,1,0,0Zm-.13-.27a1.59,1.59,0,0,0,.07-.2s0-.07.12-.07H780c.08,0,.1,0,.11.07s.05.13.07.2a1.58,1.58,0,0,1-.38,0,1.64,1.64,0,0,1-.38,0Zm.78.28h-.14a0,0,0,0,1,0-.06.45.45,0,0,1,.18-.07s0,0,0,0,0,.08-.07.09Z"/><path class="cls-61" d="M779.77,754.31a.94.94,0,1,0,1,.87h0A1,1,0,0,0,779.77,754.31Zm.13,1.69a.72.72,0,0,1-.43-.1l.84-1.24a.74.74,0,0,1,.11,1.06A.77.77,0,0,1,779.9,756Zm.25-1.44-.83,1.23a.76.76,0,0,1,0-1.07.72.72,0,0,1,.48-.22A.74.74,0,0,1,780.15,754.56Z"/><circle class="cls-65" cx="710.22" cy="783.03" r="0.94"/><path d="M710.79,783c0-.06,0-.09-.08-.09s0,0,0,0,0-.13-.07-.19a.15.15,0,0,0-.11-.11h-.55a.15.15,0,0,0-.11.11c0,.06-.05.12-.07.19s0,0,0,0-.08,0-.09.09,0,0,0,0h.05a2,2,0,0,0,0,.42s0,0,0,0h.17c.05,0,0-.07,0-.11h.57s0,.08,0,.11h.17s0,0,0,0a3,3,0,0,0,0-.42h0S710.8,783,710.79,783Zm-.83.2h-.14c-.06,0-.07,0-.06-.09s0,0,0,0a.43.43,0,0,1,.18.06l0,0s0,0,0,0Zm-.12-.27c0-.07,0-.14.07-.2s0-.07.11-.07h.39c.09,0,.11,0,.12.07s0,.13.07.2A1.63,1.63,0,0,1,709.84,782.9Zm.78.27h-.15s0,0,0,0,0,0,0,0a.36.36,0,0,1,.18-.07s0,0,0,0,0,.07-.07.08Z"/><path class="cls-61" d="M710.15,782.09a.94.94,0,1,0,1,.87h0A.94.94,0,0,0,710.15,782.09Zm.12,1.69a.75.75,0,0,1-.42-.1l.84-1.24a.77.77,0,0,1,.28.53.75.75,0,0,1-.7.81Zm.25-1.44-.83,1.22a.75.75,0,0,1,.83-1.22Z"/><rect class="cls-43" x="713.83" y="767.48" width="3.04" height="3.04"/><path class="cls-32" d="M715.81,768.28l-.83.22v.9a.32.32,0,0,0-.17,0c-.1.06-.15.16-.11.24a.13.13,0,0,0,.13.06l.12,0a.24.24,0,0,0,.13-.18v-.74l.63-.15v.59a.23.23,0,0,0-.16,0,.27.27,0,0,0-.11.1.15.15,0,0,0,0,.13.13.13,0,0,0,.11.06.21.21,0,0,0,.15,0,.24.24,0,0,0,.12-.17Z"/><rect class="cls-43" x="756.42" y="763.35" width="3.04" height="3.04"/><path class="cls-32" d="M758.4,764.15l-.84.22v.9a.23.23,0,0,0-.16,0c-.1.06-.15.16-.11.23a.16.16,0,0,0,.13.07.28.28,0,0,0,.12,0,.23.23,0,0,0,.13-.17v-.75l.63-.15v.59a.29.29,0,0,0-.27.13.15.15,0,0,0,0,.13.14.14,0,0,0,.11.07.28.28,0,0,0,.15,0,.22.22,0,0,0,.12-.16Z"/><rect class="cls-43" x="714.5" y="772.2" width="3.04" height="3.04"/><path class="cls-32" d="M716.68,773.27h-.26s-.08,0-.14-.12-.09-.1-.16-.1h-.2c-.06,0-.09,0-.16.1s-.09.12-.14.12h-.26a.18.18,0,0,0-.18.18v.69a.18.18,0,0,0,.18.18h1.31a.18.18,0,0,0,.18-.18v-.69A.18.18,0,0,0,716.68,773.27Zm-.65.88a.35.35,0,0,1-.36-.35.36.36,0,1,1,.71,0h0a.35.35,0,0,1-.35.35Zm.62-.58a.1.1,0,0,1-.1-.09.09.09,0,0,1,.1-.1.09.09,0,0,1,.09.09h0a.1.1,0,0,1-.09.1Z"/><rect class="cls-43" x="739.67" y="759.53" width="3.04" height="3.04"/><path class="cls-32" d="M741.86,760.61h-.26c-.05,0-.08,0-.14-.12s-.09-.11-.17-.11h-.19c-.06,0-.09,0-.16.11s-.09.12-.14.12h-.25a.18.18,0,0,0-.18.18v.69a.18.18,0,0,0,.18.18h1.31a.18.18,0,0,0,.18-.18h0v-.69A.18.18,0,0,0,741.86,760.61Zm-.65.88a.36.36,0,1,1,.36-.36h0a.36.36,0,0,1-.36.35Zm.62-.58a.1.1,0,0,1-.1-.09h0a.11.11,0,0,1,.11-.09.1.1,0,0,1,.08.09A.09.09,0,0,1,741.83,760.91Z"/><rect class="cls-43" x="764.9" y="757.43" width="3.04" height="3.04"/><path class="cls-32" d="M767.08,758.51h-.26c-.05,0-.07,0-.14-.12s-.09-.11-.16-.11h-.19c-.07,0-.1,0-.17.11s-.09.12-.13.12h-.25a.18.18,0,0,0-.18.17v.69a.18.18,0,0,0,.18.18h1.31a.18.18,0,0,0,.17-.18v-.69a.18.18,0,0,0-.17-.17Zm-.65.88a.36.36,0,1,1,.35-.36.35.35,0,0,1-.35.36Zm.62-.59a.09.09,0,0,1-.09-.09.1.1,0,0,1,.09-.1.11.11,0,0,1,.1.1.09.09,0,0,1-.1.09Z"/><path class="cls-66" d="M739.06,766.17l1.52,5.48a.08.08,0,0,0,.07.09h0l4,.5a.08.08,0,0,0,.09-.08l2.94-4.87a6.66,6.66,0,0,0-4.15-1.9A7.07,7.07,0,0,0,739.06,766.17Z"/><path class="cls-67" d="M740.48,771.68h0l-.36,3a.08.08,0,0,0,.07.1l4.2.51a.08.08,0,0,0,.09-.07l.37-3a.09.09,0,0,0-.08-.09l-4.19-.52h-.08v0Z"/><path class="cls-32" d="M743,772.8l-.83.22v.89a.23.23,0,0,0-.16,0c-.11.06-.15.17-.11.23a.12.12,0,0,0,.12.07.2.2,0,0,0,.13,0,.25.25,0,0,0,.13-.17v-.74l.63-.16v.59a.32.32,0,0,0-.17,0,.27.27,0,0,0-.1.11.15.15,0,0,0,0,.13.14.14,0,0,0,.11.06.32.32,0,0,0,.14,0,.27.27,0,0,0,.13-.17Z"/><path class="cls-68" d="M771.77,767.57l4.46-2.37a.08.08,0,0,0,.07-.08l-.35-3.59a.08.08,0,0,0-.08-.06h0l-4.8-1.61a5.89,5.89,0,0,0-.84,4A6.16,6.16,0,0,0,771.77,767.57Z"/><path class="cls-43" d="M776.27,765.28h0l2.66-.26a.08.08,0,0,0,.07-.08l-.37-3.74a.07.07,0,0,0-.07-.07h0l-2.65.26a.08.08,0,0,0-.07.08l.36,3.74h0v0h0Z"/><path class="cls-32" d="M778,762.48l-.84.22v.9a.23.23,0,0,0-.16,0,.17.17,0,0,0-.11.23.11.11,0,0,0,.12.06.28.28,0,0,0,.13,0,.27.27,0,0,0,.13-.18V763l.63-.15v.59a.26.26,0,0,0-.17,0,.32.32,0,0,0-.1.1.15.15,0,0,0,0,.13.16.16,0,0,0,.11.07.23.23,0,0,0,.14,0,.23.23,0,0,0,.13-.16Z"/><path class="cls-56" d="M702.37,723.39c-.62.73.2-1.23-.41-1.73s-2.39.63-1.77-.11a57.23,57.23,0,0,1,5-3.7A59.31,59.31,0,0,1,702.37,723.39Z"/><circle class="cls-69" cx="701.24" cy="722.57" r="1.77"/><path class="cls-56" d="M701,721.61h.33l0,1,.2-1h.32l-.44,2h-.33l0-.92-.2.92h-.34Z"/></g><g id="type_vectorized" data-name="type vectorized"><path d="M778.34,775l-.92-.38,0-.17.77.32,0-.22.15.06Z"/><path d="M778.21,774l.3.08,0,.16-.17,0,0,.12.17.09,0,.17-.28-.17-.5-.31,0-.21Zm0,.17-.25-.07.24.14Z"/><path d="M778.47,773.24a.24.24,0,0,1,.17.28c0,.12-.08.17-.17.15l-.07,0-.55-.23a.23.23,0,0,1-.16-.29c0-.11.07-.17.16-.14l.07,0,.13,0,0,.17-.13-.06h0s0,0,0,0h0a.06.06,0,0,0,0,.07l.55.23h0s0,0,0,0a.06.06,0,0,0,0-.07l-.13-.06,0-.15Z"/><path d="M777.87,772.84l0-.17.81.33,0,.17Z"/><path d="M777.92,772.53l.07-.38.13.06,0,.21.2.09,0-.19.13.06,0,.18.2.09,0-.22.14.06-.07.37Z"/><path d="M778,772l0-.16.41.06-.38-.17,0-.15.81.33,0,.16-.38-.05.37.15,0,.16Z"/><path d="M778.12,771.48l.07-.38.13.06,0,.21.21.09,0-.18.13.05,0,.19.21.08,0-.21.13.05-.07.38Z"/><path d="M778.93,770.86a.21.21,0,0,1,.14.27c0,.12-.07.17-.17.15h0l-.48-.2a.22.22,0,0,1-.14-.28c0-.12.07-.17.17-.15h.05l.11.05,0,.17-.11,0h0s0,0,0,0a.05.05,0,0,0,0,.07l.49.2h0s0,0,0,0a.06.06,0,0,0,0-.07h0l-.17-.07,0,.07-.13-.06,0-.23Z"/><path d="M778.91,770.26l.3.08,0,.16-.18,0,0,.12.17.09,0,.17-.28-.17-.5-.31,0-.21Zm0,.17-.25-.07.23.14Z"/><path d="M778.36,769.58l0-.22c0-.1.07-.15.16-.13l.07,0,.14.06a.17.17,0,0,1,.11.11.1.1,0,0,1,.09,0h0l.13.06a.23.23,0,0,1,.17.27h0l0,.21Zm.17-.1.24.1v-.06a0,0,0,0,0,0,0l-.14-.06h0s0,0,0,0Zm.39.17.24.1v0a.06.06,0,0,0,0-.07h0l-.13,0h0s0,0,0,0a0,0,0,0,1,0,0Z"/><path d="M779.38,769.41l-.81-.33,0-.16.68.28,0-.21.13,0Z"/><path d="M779.52,768.63l0,.21-.54-.12-.3-.08,0-.16.56.14-.53-.31,0-.17.28.17Z"/><path d="M778.76,768.05l0-.22h0c0-.1.07-.15.15-.13l.06,0,.46.19a.21.21,0,0,1,.14.26h0l0,.21Zm.16-.11.55.23v0a0,0,0,0,0,0-.06l-.46-.19h0s0,0,0,0Z"/><path d="M702.65,779.35l0-.16.46.09-.43-.19,0-.15.91.41,0,.16-.43-.09.41.19,0,.15Z"/><path d="M703.5,778.39l.33.1,0,.17-.2-.06,0,.12.18.11,0,.16-.32-.19-.56-.36,0-.2Zm0,.16-.29-.09.27.17Z"/><path d="M703.86,778.39l-.8-.37,0-.15.67.3,0-.21.13,0Z"/><path d="M703.73,777.47l-.47-.37,0-.16.8.36,0,.16-.35-.17.33.25,0,.11-.38-.06.36.16,0,.16-.8-.36,0-.16Z"/><path d="M704.05,776.68a.21.21,0,0,1,.13.28c0,.11-.08.17-.16.14H704l-.47-.22a.22.22,0,0,1-.13-.28c0-.12.08-.17.16-.15l.05,0Zm-.51-.06h0s0,0,0,0a0,0,0,0,0,0,.06l.48.22h0s0,0,0,0a.07.07,0,0,0,0-.07Z"/><path d="M703.44,776.25l0-.15.4.06-.38-.16,0-.15.8.36,0,.16-.39-.07.37.17,0,.15Z"/><path d="M703.57,775.7l0-.21h0c0-.11.08-.15.17-.13l.05,0,.46.2a.21.21,0,0,1,.13.27h0l0,.22Zm.16-.1.54.25v-.05a.05.05,0,0,0,0-.07l-.45-.2h0s0,0,0,0Z"/><path d="M703.64,774.84l.05-.22c0-.11.08-.15.16-.13l.07,0,.52.24a.23.23,0,0,1,.15.28h0l0,.22Zm.18-.1.62.28v0a.07.07,0,0,0,0-.07l-.52-.23h0s0,0,0,0h0Z"/><path d="M703.87,774.33l0-.2h0c0-.11.08-.15.16-.13l.06,0,.12.05a.2.2,0,0,1,.12.16l.4,0,0,.17-.37,0h0l.33.15,0,.16Zm.17-.1.21.1v-.06a0,0,0,0,0,0,0l-.12-.06h0s0,0,0,0Z"/><path d="M711.72,779.73l-.91-.41,0-.16.77.35,0-.22.15.07Z"/><path d="M711.62,778.72l.3.09,0,.16-.16-.05,0,.12.17.1,0,.17-.27-.18-.5-.33,0-.2Zm0,.17-.25-.07.23.15Z"/><path d="M711.09,778l0-.21c0-.1.08-.15.16-.13l.07,0,.14.06a.24.24,0,0,1,.15.22.34.34,0,0,1,0,.1h0l.38.16,0,.16Zm.18-.09.24.1v0s0,0,0,0l-.13-.06h0s0,0,0,0h0Z"/><path d="M711.31,777.55l.08-.37.13.06,0,.21.2.1,0-.19.13.06,0,.19.21.09,0-.21.13,0-.08.38Z"/><path d="M711.42,777.07l.08-.38.13.06,0,.22.21.09,0-.18.13,0,0,.19.2.09,0-.21.13.06-.08.37Z"/><path d="M711.53,776.58l0-.2h0c0-.1.07-.15.16-.13l.06,0,.12,0a.2.2,0,0,1,.12.17h.4l0,.17-.36,0h0l.34.15,0,.16Zm.16-.1.21.09v-.05a.07.07,0,0,0,0,0l-.12-.05h0s0,0,0,0Z"/><path d="M711.59,775.73l0-.22c0-.1.08-.14.17-.12l.07,0,.51.23a.24.24,0,0,1,.16.28h0l0,.21Zm.18-.09.62.28v0a.06.06,0,0,0,0-.07l-.52-.23h0s0,0,0,0h0Z"/><path d="M711.82,775.23l0-.2h0c0-.1.08-.15.17-.13l.05,0,.12.06a.17.17,0,0,1,.12.16l.4,0,0,.16-.36,0h0l.33.15,0,.17Zm.17-.1.2.1v-.06a.05.05,0,0,0,0,0l-.12,0h0s0,0,0,0Z"/><path d="M720.66,779.42l.05-.21c0-.1.08-.15.17-.13l.06,0,.14.06a.21.21,0,0,1,.14.17l.45,0,0,.16-.42,0h0l.39.17,0,.17Zm.18-.1.24.11v0a.07.07,0,0,0,0-.06l-.14-.06h0s0,0,0,0h0Z"/><path d="M721.62,778.8a.24.24,0,0,1,.13.29c0,.11-.08.16-.17.14l-.05,0-.48-.21a.23.23,0,0,1-.13-.28c0-.12.08-.17.17-.15l0,0Zm-.52,0h0s0,0,0,0,0,.05,0,.06h0l.48.22h0s0,0,0,0a.06.06,0,0,0,0-.07Z"/><path d="M721,778.38l0-.21h0c0-.11.08-.15.17-.13l.06,0,.11.05a.16.16,0,0,1,.1.11.07.07,0,0,1,.08,0l0,0,.12,0a.21.21,0,0,1,.13.27h0l-.05.21Zm.16-.1.21.09v-.06s0,0,0,0l-.11-.06h0s0,0,0,0Zm.34.15.2.09v0a.05.05,0,0,0,0-.07l-.12,0h0s0,0,0,0v.06Z"/><path d="M721.13,777.84l.09-.38.12.06,0,.22.2.09,0-.18.13.05,0,.19.21.09,0-.21.13.06-.08.37Z"/><path d="M721.23,777.34l0-.2h0c0-.1.07-.15.16-.13l.06,0,.12.05a.2.2,0,0,1,.12.17h.4l0,.17-.36,0h0l.34.15,0,.17Zm.17-.1.21.09v-.05a.1.1,0,0,0,0,0l-.12-.05h0s0,0,0,0Z"/><path d="M721.43,776.45l.13.06,0,.12.67.31,0,.16-.67-.31,0,.13-.13-.06Z"/><path d="M721.61,776.42a.21.21,0,0,1-.12-.28c0-.12.08-.17.16-.15l.05,0,.12,0,0,.16-.11-.05h0s0,0,0,0a.05.05,0,0,0,0,.07h0l.07,0h0a.25.25,0,0,0,.14-.07.18.18,0,0,1,.17-.06l0,0,.1,0a.22.22,0,0,1,.13.28c0,.12-.08.17-.17.15l0,0-.11,0,0-.16.12.05h0s0,0,0,0a.05.05,0,0,0,0-.07l-.09,0h0a.23.23,0,0,0-.14.07.21.21,0,0,1-.18.06h0Z"/><path d="M722.3,775.69a.22.22,0,0,1,.12.28c0,.12-.08.17-.16.15l0,0-.48-.22a.21.21,0,0,1-.13-.28c0-.12.08-.17.16-.14h.06Zm-.52-.06h0s0,0,0,0a.05.05,0,0,0,0,.07l.48.22h0s0,0,0,0a.05.05,0,0,0,0-.07Z"/><path d="M721.69,775.26l0-.15.41.06-.38-.16,0-.15.8.36,0,.15-.39-.06.36.17,0,.15Z"/><path d="M721.77,774.39l0-.22c0-.1.08-.14.17-.12l.07,0,.13.06a.15.15,0,0,1,.11.12.1.1,0,0,1,.09,0h0l.13.06a.24.24,0,0,1,.16.28h0l-.05.21Zm.18-.09.23.11v-.07a.07.07,0,0,0,0-.05l-.13-.06h0s0,0,0,0h0Zm.38.17.23.1v-.05s0,0,0-.06l-.13-.06h0s0,0,0,0,0,0,0,0Z"/><path d="M722.79,774.26l-.8-.36,0-.17.66.3,0-.21.13.06Z"/><path d="M723,773.48l-.05.2-.53-.13-.3-.09,0-.16.55.16-.52-.33,0-.17.28.18Z"/><path d="M722.22,772.87l0-.21h0c0-.11.08-.15.17-.14l.05,0,.46.21a.22.22,0,0,1,.13.27h0l-.05.22Zm.16-.1.54.24v0a.05.05,0,0,0,0-.07h0l-.46-.21h0s0,0,0,0Z"/><path d="M725.69,767.61a.37.37,0,0,1,.37-.36c.18,0,.27,0,.28.2a.17.17,0,0,1,0,.1l0,.22-.25,0,0-.22a0,0,0,0,0,0,0s0-.06-.06,0h0s-.08,0-.08.09l0,.14v0s.06.12.17.19a.37.37,0,0,1,.16.27v.07l0,.2a.39.39,0,0,1-.37.36c-.18,0-.27-.06-.29-.2v-.11l0-.22.25,0,0,.22v0s0,.05.07.05a.08.08,0,0,0,.08-.09l0-.17s0,0,0,0,0-.13-.16-.2a.41.41,0,0,1-.17-.27v-.08Z"/><path d="M727.11,768.22v.49l-.25,0v-.28l-.19,0-.08.28-.25,0,.13-.5.27-.88.33,0Zm-.26,0v-.4l-.12.41Z"/><path d="M727.45,767.33l.25,0,.08.63.08-.64.24,0-.17,1.35-.24,0-.09-.6-.08.61-.24,0Z"/><path d="M728.92,767.22l0,.22h-.2l-.15,1.14-.25,0,.15-1.14-.2,0,0-.22Z"/><path d="M729.62,768v.48l-.25,0v-.28l-.18,0-.08.29-.25,0,.13-.5.26-.89.33,0Zm-.25,0v-.4l-.11.41Z"/><path d="M730.77,767.83l.36-1,.25,0-.2,1.54-.24,0,.09-.68-.24.69-.17,0-.07-.68-.08.69-.25,0,.19-1.53.25,0Z"/><path d="M732.09,768a.35.35,0,0,1-.36.32c-.19,0-.28,0-.3-.18v-.08l.11-.81a.34.34,0,0,1,.36-.32c.18,0,.28,0,.29.18v.08Zm-.15-.79v0s0-.05-.07-.05a.1.1,0,0,0-.08.09l-.1.81v0s0,0,.07,0a.08.08,0,0,0,.08-.08Z"/><path d="M732.44,766.91l.25,0,.09.62.08-.63.23,0-.17,1.35-.25,0-.08-.6-.08.62-.24,0Z"/><path d="M733.33,766.84l.25,0-.16,1.36-.25,0Z"/><path d="M734.31,767.83a.35.35,0,0,1-.36.32c-.18,0-.28,0-.29-.19v-.08l.1-.81a.35.35,0,0,1,.36-.32c.19,0,.28,0,.3.18V767l0,.21-.25,0,0-.2v0s0,0-.07,0a.09.09,0,0,0-.08.09l-.1.81s0,0,0,0,0,.05.06,0a.07.07,0,0,0,.08-.08l0-.19.25,0Z"/><path d="M735.19,767.54V768l-.26,0v-.28l-.18,0-.08.28-.25,0,.13-.5.27-.89.33,0Zm-.26,0v-.41l-.11.42Z"/><path d="M736,766.43l.35,0c.16,0,.25.05.26.19a.21.21,0,0,1,0,.11l0,.23a.27.27,0,0,1-.12.22.14.14,0,0,1,.07.12v.08l0,.22a.35.35,0,0,1-.34.36h0l-.34,0Zm.14.87,0,.4h.07q.08,0,.09-.09l0-.23v0a0,0,0,0,0,0-.05h-.1Zm.08-.64-.05.4h.1a.11.11,0,0,0,.06-.09l0-.22v0s0-.05-.07,0Z"/><path d="M736.65,767.9l.17-1.36.25,0-.15,1.14.34,0,0,.22Z"/><path d="M737.9,767.79l-.34,0,0-.86v-.48l.25,0,0,.9.25-.92.25,0-.13.49Z"/><path d="M738.45,766.4l.33,0h0q.26,0,.27.18v.09l-.1.77a.32.32,0,0,1-.33.32h0l-.33,0Zm.22.2-.11.92h.07a.08.08,0,0,0,.08-.08l.1-.77v0s0,0-.07,0Z"/><path d="M741,783.73a.24.24,0,0,1-.19-.27c0-.12.07-.17.17-.17l.06,0,.14,0,0,.17-.13,0h0s0,0,0,0h0a.06.06,0,0,0,.05.06l.08,0h0a.29.29,0,0,0,.14-.08.25.25,0,0,1,.18-.08l.05,0,.12,0a.25.25,0,0,1,.19.28c0,.11-.07.16-.17.16l-.07,0-.13,0,0-.17.13,0h0s0,0,0,0,0-.05-.05-.07l-.11,0h0a.28.28,0,0,0-.15.08.22.22,0,0,1-.24.06Z"/><path d="M741.5,782.91l.3.05v.17l-.18,0v.12l.17.08,0,.16-.29-.14-.53-.27,0-.21Zm0,.17-.26-.05.25.12Z"/><path d="M741,782.59v-.16l.41,0-.39-.13v-.15l.84.27,0,.16-.39,0,.38.12v.15Z"/><path d="M741.93,781.71l0,.2-.62-.09-.34-.06v-.17l.65.12-.63-.29,0-.17.33.16Z"/><path d="M741.12,781.2V781l.84.27,0,.16Z"/><path d="M741.86,780.7a.22.22,0,0,1,.16.27c0,.11-.06.16-.15.16h0l-.5-.17a.21.21,0,0,1-.16-.26c0-.12.06-.17.14-.17h.06l.12,0,0,.17-.12,0h0s0,0,0,0a.07.07,0,0,0,0,.07l.5.16h0s0,0,0,0a0,0,0,0,0,0-.06h0l-.12,0,0-.17Z"/><path d="M741.2,780.35l0-.38.14,0,0,.22.22.07,0-.19.13,0v.18l.22.07,0-.22.14,0,0,.38Z"/><path d="M741.25,779.85l0-.16.4,0-.39-.13v-.15l.83.27v.16l-.39,0,.38.12,0,.16Z"/><path d="M741.35,778.91l.13,0v.13l.7.22v.17l-.71-.23v.13l-.14,0Z"/><path d="M741.36,778.79l0-.38.13.05,0,.22.21.07,0-.19.14,0,0,.19.22.07,0-.22.13,0,0,.38Z"/><path d="M741.35,777.72l0-.21q0-.16.15-.15l.07,0,.14,0a.16.16,0,0,1,.13.11.09.09,0,0,1,.08,0l0,0,.14,0a.23.23,0,0,1,.19.26h0l0,.21Zm.17-.11.24.08v0a0,0,0,0,0,0,0,0,0,0,0,0,0,0l-.14-.05h0s0,0,0,0Zm.39.13.25.08v-.05s0-.06,0-.07l-.14,0h0s0,0,0,0v.06Z"/><path d="M742.35,777.47l-.83-.27V777l.71.22,0-.22.13.05Z"/><path d="M742.43,776.68l0,.2-.54-.07-.31,0,0-.16.57.09-.56-.27,0-.16.3.14Z"/><path d="M741.62,776.16l0-.22h0c0-.1.06-.15.15-.14h.06l.47.15a.21.21,0,0,1,.17.25h0l0,.21Zm.15-.12.57.18v-.05s0,0,0-.06h0l-.48-.15h0s0,0,0,0Z"/><path d="M758.81,774.83l-.06-.15.41-.07,0-.09-.41.07-.06-.15,1-.17.06.15-.41.07,0,.09.41-.07.06.15Z"/><path d="M759.25,773.8a.22.22,0,0,1,.27.16q.06.16-.06.21l-.05,0-.7.12-.06-.15.7-.12h0a0,0,0,0,0,0,0,.07.07,0,0,0-.07,0l-.69.12-.06-.15Z"/><path d="M758.51,773.8l-.06-.15.37-.16-.4.06-.06-.14.87-.14,0,.14-.35.17.39-.07.06.15Z"/><path d="M758.17,772.94l.14,0,.05.13.73-.13.06.15-.73.13.05.11-.14,0Z"/><path d="M759,772.71l-.87.15-.06-.15.73-.13-.08-.2.14,0Z"/><path d="M758,772.43l-.14-.36.14,0,.08.2.22,0-.07-.17.14,0,.07.17.22,0-.08-.2.14,0,.14.35Z"/><path d="M757.75,771.86l.26-.12-.33,0-.06-.17.55.08h0l.37-.07.06.15-.37.07h0l-.43.26Z"/><path d="M757.39,771.27l-.09-.21c0-.1,0-.17.07-.2l.07,0,.56-.1a.23.23,0,0,1,.28.15h0l.08.2Zm.09-.18.67-.12,0,0a.06.06,0,0,0-.08,0l-.55.09h0s0,0,0,0h0Z"/><path d="M757.3,770.75l-.07-.19h0c0-.1,0-.17.06-.2l.05,0,.13,0a.18.18,0,0,1,.19.07l.34-.21.07.17-.32.16h0l.36-.06.06.15Zm.08-.17.23,0h0l0,0-.06,0-.12,0h0s0,0,0,0Z"/><path d="M698.25,772.52v-.23c0-.11,0-.16.14-.16h.07l.56.12a.23.23,0,0,1,.21.25v.22Zm.16-.13.66.14v0a.05.05,0,0,0-.05-.06h0l-.55-.12h0s0,0,0,0h0Z"/><path d="M699.05,771.71a.23.23,0,0,1,.19.25c0,.12,0,.18-.13.18h-.06l-.51-.11a.23.23,0,0,1-.19-.25c0-.12,0-.17.13-.18h.06Zm-.51.06h0s0,0,0,0a.06.06,0,0,0,0,.06h0l.51.1h0a0,0,0,0,0,0,0,.05.05,0,0,0-.05,0Z"/><path d="M698.36,771.43v-.17l.36.08v-.1l-.36-.07V771l.87.19v.16l-.36-.07v.08l.36.08v.17Z"/><path d="M698.36,770.86v-.38l.14,0v.21l.22,0v-.19l.14,0v.19l.22.05v-.22l.14,0V771Z"/><path d="M698.36,770.36v-.17l.4,0-.4-.09v-.15l.87.19v.16l-.39,0,.39.08v.15Z"/><path d="M698.36,769.66l.29,0-.29-.15v-.16l.49.27h0l.36.07v.17l-.36-.08h0l-.5.07Z"/><path d="M698.24,768.92v-.23c0-.1,0-.16.14-.16h.07l.56.11a.22.22,0,0,1,.2.24h0v.21Zm.16-.13.66.14v0s0-.06,0-.06l-.56-.12h0s0,0,0,0Z"/><path d="M698.35,768.38v-.21c0-.11,0-.17.13-.17h.06l.13,0a.18.18,0,0,1,.15.13l.39-.07v.17l-.35,0h0l.35.08v.17Zm.14-.14.22,0v0a0,0,0,0,0,0,0,0,0,0,0,0,0,0l-.13,0h0s0,0,0,0Z"/><path d="M749.76,754.42a.25.25,0,0,1,.18-.28q.16,0,.21.09s0,0,0,.06v.15l-.15,0v-.16s0,0,0,0h0a.06.06,0,0,0,0,.07v.09h0s.05.07.13.1a.32.32,0,0,1,.14.14.13.13,0,0,0,0,.06v.12a.25.25,0,0,1-.18.28q-.16,0-.21-.09a.15.15,0,0,1,0-.07l0-.14.16,0V755a.08.08,0,0,0,0,0,.06.06,0,0,0,0-.07v-.13s-.06-.07-.13-.1a.23.23,0,0,1-.14-.15.07.07,0,0,1,0,0Z"/><path d="M750.75,754.75a.23.23,0,0,1-.19.25c-.11,0-.18,0-.2-.07a.13.13,0,0,1,0-.06l-.07-.7.16,0,.06.7v0a0,0,0,0,0,0,0s.05,0,0-.06l-.06-.7.15-.05Z"/><path d="M750.82,754l.16,0,.14.38,0-.41.15,0,.07.88-.15,0-.13-.36,0,.39-.15,0Z"/><path d="M751.38,754a.23.23,0,0,1,.18-.26c.11,0,.18,0,.21.08a.43.43,0,0,1,0,0V754l-.16,0v-.14s0,0,0,0a.08.08,0,0,0,0,.07v.09s.05.05.13.08a.2.2,0,0,1,.14.13.08.08,0,0,0,0,0v.11a.24.24,0,0,1-.19.25c-.11,0-.18,0-.21-.08a.09.09,0,0,0,0-.05v-.13l.16,0v.14a.08.08,0,0,0,0,0,.06.06,0,0,0,0-.07v-.11s0-.06-.13-.09a.19.19,0,0,1-.14-.12V754Z"/><path d="M751.9,753.67l.36-.11v.14l-.21.07,0,.22.18,0,0,.14-.18,0,0,.23.21-.07v.15l-.36.11Z"/><path d="M752.74,753.42v.14l-.12,0,.06.74-.15,0-.07-.74-.12,0v-.14Z"/><path d="M753.09,753.19l.22-.07a.13.13,0,0,1,.19.09.15.15,0,0,1,0,.07l0,.14a.18.18,0,0,1,0,.16s0,0,.06.06a.11.11,0,0,1,0,.05l0,.15a.24.24,0,0,1-.17.27h0l-.2.06Zm.17.11,0,.25h.07a.11.11,0,0,0,0-.06v-.15h0s0,0,0,0h0Zm0,.41,0,.26h0a.07.07,0,0,0,0-.07l0-.15s0,0,0,0,0,0,0,0h-.06Z"/><path d="M753.71,754l-.08-.87.16,0,.07.73.21-.06v.14Z"/><path d="M754.48,753.77l-.2.07-.15-.54-.07-.3.16,0,.13.56,0-.61.16,0,0,.33Z"/><path d="M754.64,752.83l.21-.07h0c.11,0,.17,0,.2.08s0,0,0,0l0,.5a.22.22,0,0,1-.16.25h0l-.21.06Zm.17.09.05.59h0a.08.08,0,0,0,0-.06l-.05-.5v0s0,0,0,0Z"/><path d="M742.52,793.13l.21-.64.17,0-.1,1h-.16l0-.44-.14.45h-.11l-.06-.43,0,.44-.16,0,.1-1,.17,0Z"/><path d="M743,792.57l.38,0,0,.14-.22,0,0,.23.19,0V793l-.19,0,0,.22.22,0v.14l-.38,0Z"/><path d="M743.44,793.39l.08-.88h.17l-.07.73.21,0v.15Z"/><path d="M744,792.46l.2,0h0c.11,0,.17,0,.18.11v.06l0,.13a.18.18,0,0,1-.12.16l.12.39-.18,0-.07-.35h0l0,.36h-.17Zm.15.12,0,.23h.06a.05.05,0,0,0,0,0v-.13h0s0,0,0,0Z"/><path d="M744.88,793.06a.23.23,0,0,1-.23.21c-.11,0-.18,0-.19-.12v0l.06-.52a.21.21,0,0,1,.22-.21c.12,0,.18,0,.19.11a0,0,0,0,1,0,0Zm-.11-.51v0s0,0,0,0a0,0,0,0,0-.05,0l-.06.52v0s0,0,0,0a0,0,0,0,0,.05,0h0Z"/><path d="M745.06,792.52a.22.22,0,0,1,.23-.21c.12,0,.18,0,.19.11v.18h-.17l0-.12v0s0,0-.05,0a0,0,0,0,0,0,0h0v.08h0s0,.07.11.11a.16.16,0,0,1,.11.14,0,0,0,0,1,0,0v.1a.22.22,0,0,1-.22.22c-.12,0-.18,0-.19-.11v-.19h.17l0,.12v0s0,0,.05,0,0,0,0-.06v-.1h0s0-.07-.11-.11a.2.2,0,0,1-.12-.15v-.12Z"/><path d="M745.64,792.28l.38,0,0,.14-.21,0,0,.22.19,0v.15h-.19l0,.23.22,0,0,.14-.38,0Z"/><path d="M746.42,792.08l.22,0c.11,0,.17,0,.17.12a.09.09,0,0,1,0,.07v.14a.18.18,0,0,1-.08.15.08.08,0,0,1,0,.08v.19a.24.24,0,0,1-.22.24h0l-.22,0Zm.1.56,0,.25h0s.05,0,.06-.06v-.14a.05.05,0,0,0,0-.05h-.06Zm0-.42,0,.26h.06a.07.07,0,0,0,0-.06v-.16s0,0,0,0Z"/><path d="M746.87,793l.09-.88h.16l-.07.73.22,0V793Z"/><path d="M747.67,792.92l-.21,0-.05-.55v-.3l.17,0,0,.57.15-.59.16,0-.07.32Z"/><path d="M748,792l.22,0h0c.1,0,.16,0,.17.11v.06l0,.5a.21.21,0,0,1-.21.21h0l-.21,0Zm.15.12-.06.6h0a.06.06,0,0,0,.05-.06l0-.5h0s0,0,0,0Z"/><path d="M746.25,758.05a.18.18,0,0,1-.17.14c-.07,0-.11,0-.11-.09v-.05l.08-.39a.16.16,0,0,1,.17-.14.1.1,0,0,1,.11.1v0l0,.1h-.11l0-.1h0l0,0h0s0,0,0,0l-.08.39v0l0,0a0,0,0,0,0,0,0l0-.09h.11Z"/><path d="M746.31,758.18l.12-.57h.11l-.1.48h.14v.09Z"/><path d="M746.94,758.07a.15.15,0,0,1-.17.12q-.12,0-.12-.09v0l.07-.34a.16.16,0,0,1,.17-.13q.12,0,.12.09v0Zm0-.34h0a0,0,0,0,0,0,0s0,0,0,0l-.07.34h0s0,0,0,0,0,0,0,0Z"/><path d="M747.09,757.73a.16.16,0,0,1,.17-.13q.12,0,.12.09v0l0,.08h-.11l0-.08h0a0,0,0,0,0,0,0s0,0,0,0v0h0s0,.05.07.08a.14.14,0,0,1,.06.11v.1a.15.15,0,0,1-.17.12c-.08,0-.12,0-.12-.08v0l0-.08h.11l0,.08h0s0,0,0,0,0,0,0,0h0V758h0s0,0-.07-.08a.17.17,0,0,1-.06-.11v-.07Z"/><path d="M747.49,757.61h.26l0,.09h-.15l0,.15h.13l0,.09h-.13l0,.15h.15l0,.09h-.26Z"/><path d="M747.83,757.61H748c.07,0,.1,0,.1.08v0l-.07.33a.15.15,0,0,1-.15.13h-.15Zm.08.09-.08.39h0s0,0,0,0h0l.07-.33h0s0,0,0,0Z"/><path d="M746.26,758.72v.21h-.11v-.12h-.08l0,.12h-.11l.07-.21.15-.36h.14Zm-.1,0v-.16l-.07.16Z"/><path d="M746.69,758.36l0,.09h-.09l-.1.48h-.12l.1-.48h-.08l0-.09Z"/><path d="M747.12,758.8a.18.18,0,0,1-.17.14c-.08,0-.11,0-.11-.09a0,0,0,0,1,0-.05l.08-.39a.16.16,0,0,1,.16-.14c.08,0,.12,0,.12.1v0l0,.09h-.11l0-.09h0s0,0,0,0h0a0,0,0,0,0,0,0l-.09.39h0s0,0,0,0h0a0,0,0,0,0,0,0l0-.09h.11Z"/><path d="M747.39,758.36v.19l.1-.19h.12l-.19.33h0l0,.24h-.11l.05-.24h0l0-.33Z"/><path d="M747.69,758.36h.1l0,.27.05-.27H748l-.13.57h-.1l0-.26-.05.26h-.11Z"/><path d="M748.32,758.36l0,.09h-.09l-.1.48H748l.1-.48H748l0-.09Z"/><path d="M748.4,758.36h.1l0,.24h.07l.05-.24h.11l-.12.57h-.11l0-.24h-.06l-.05.24h-.11Z"/><path d="M748.78,758.36h.11l-.13.57h-.1Z"/><path d="M749.18,758.72v.21h-.11v-.12H749l0,.12h-.11l.08-.21.14-.36h.14Zm-.11,0v-.16l-.06.16Z"/><path d="M760.44,777a.16.16,0,0,1-.17.14c-.07,0-.11,0-.11-.09V777l.08-.39a.17.17,0,0,1,.17-.14c.08,0,.11,0,.11.1a0,0,0,0,1,0,0l0,.1h-.1l0-.1h0l0,0h0s0,0,0,0l-.08.39v0a0,0,0,0,0,0,0,0,0,0,0,0,0,0l0-.09h.12Z"/><path d="M760.51,777.17l.12-.57h.1l-.1.48h.15l0,.09Z"/><path d="M761.13,777.06a.15.15,0,0,1-.17.12c-.07,0-.11,0-.11-.09a0,0,0,0,1,0,0l.07-.34a.15.15,0,0,1,.16-.13q.12,0,.12.09v0Zm0-.34h0s0,0,0,0a0,0,0,0,0,0,0h0l-.07.34h0l0,0s0,0,0,0h0Z"/><path d="M761.3,776.72a.15.15,0,0,1,.16-.13q.12,0,.12.09v0l0,.08h-.11l0-.08h0s0,0,0,0a0,0,0,0,0,0,0v0h0a.35.35,0,0,0,.06.08.14.14,0,0,1,.07.1v0l0,.07a.15.15,0,0,1-.16.13q-.12,0-.12-.09v0l0-.08h.1v.08h0s0,0,0,0,0,0,0,0V777h0s0-.05-.06-.08a.13.13,0,0,1-.06-.11v-.07Z"/><path d="M761.69,776.6h.25l0,.09h-.14l0,.15h.12l0,.09h-.12l0,.15h.15l0,.09h-.25Z"/><path d="M762,776.6h.15c.07,0,.11,0,.11.09v0l-.07.34a.15.15,0,0,1-.16.12h-.16Zm.09.09-.08.39h0s0,0,0,0l.06-.33h0s0,0,0,0Z"/><path d="M760.47,777.71l0,.21h-.11v-.12h-.08l0,.12h-.11l.07-.21.15-.36h.13Zm-.11,0v-.16l-.07.16Z"/><path d="M760.88,777.35l0,.09h-.09l-.1.48h-.11l.1-.48h-.08l0-.09Z"/><path d="M761.27,777.68l.19-.41h.1l-.14.65h-.1l.06-.29-.12.29h-.08v-.29l-.06.29H761l.14-.65h.11Z"/><path d="M761.65,777.35h.25l0,.09h-.14l0,.15h.13l0,.09h-.13l0,.15h.14l0,.09h-.25Z"/><path d="M761.86,777.92l.12-.57h.11l-.1.48h.14l0,.09Z"/><path d="M762.31,777.35h.14c.07,0,.1,0,.1.08s0,0,0,0v.09a.18.18,0,0,1-.09.1l0,.26h-.11l0-.24h0l-.06.24h-.11Zm.08.09,0,.15h0l0,0v-.09h0s0,0,0,0Z"/><path d="M762.84,777.81a.16.16,0,0,1-.17.12c-.08,0-.11,0-.11-.09v0l.07-.35a.15.15,0,0,1,.17-.12c.08,0,.11,0,.11.09v0Zm0-.35h0s0,0,0,0,0,0,0,0l-.07.35h0s0,0,0,0a0,0,0,0,0,0,0Z"/><path d="M763,777.46a.15.15,0,0,1,.17-.12q.12,0,.12.09v0l0,.08h-.11l0-.08h0s0,0,0,0,0,0,0,0h0v0h0s0,0,.07.08a.17.17,0,0,1,.06.11v0l0,.07a.14.14,0,0,1-.16.12q-.12,0-.12-.09v-.11h.11v.08h0a0,0,0,0,0,0,0s0,0,0,0h0l0-.07h0s0-.05-.07-.09a.11.11,0,0,1-.06-.1v-.08Z"/><path d="M763.4,777.35h.25l0,.09h-.14l0,.15h.12l0,.09h-.12l0,.15h.14l0,.09h-.24Z"/><path d="M741.66,786a.18.18,0,0,1-.17.14c-.08,0-.11,0-.11-.1a0,0,0,0,1,0,0l.08-.39a.15.15,0,0,1,.16-.14q.12,0,.12.09v.05l0,.09h-.11l0-.09v0l0,0h0a0,0,0,0,0,0,0l-.08.39h0s0,0,0,0,0,0,0,0l0-.1h.11Z"/><path d="M741.71,786.13l.12-.58h.11l-.1.48H742l0,.1Z"/><path d="M742.34,786a.14.14,0,0,1-.16.12c-.08,0-.12,0-.12-.08v0l.07-.34a.16.16,0,0,1,.17-.13q.12,0,.12.09v0Zm0-.34h0s0,0,0,0,0,0,0,0l-.07.34h0s0,0,0,0,0,0,0,0Z"/><path d="M742.5,785.67a.16.16,0,0,1,.17-.13q.12,0,.12.09v0l0,.08h-.11l0-.08h0s0,0,0,0,0,0,0,0h0l0,.05h0s0,0,.07.08a.11.11,0,0,1,.06.1v.1a.16.16,0,0,1-.17.13q-.12,0-.12-.09v0l0-.08h.11l0,.08h0s0,0,0,0,0,0,0,0h0v-.06h0s0,0-.07-.08a.14.14,0,0,1-.06-.11v-.07Z"/><path d="M742.9,785.55h.26l0,.09H743l0,.15h.12v.09h-.13l0,.15h.14v.1h-.26Z"/><path d="M743.23,785.55h.15c.08,0,.11,0,.11.09v0l-.07.34a.14.14,0,0,1-.15.12h-.15Zm.09.09-.08.39h0s0,0,0,0h0l.07-.33h0s0,0,0,0Z"/><path d="M741.67,786.67v.2h-.11v-.12h-.08l-.05.12h-.1l.07-.2.16-.37h.14Zm-.11,0v-.17l-.06.17Z"/><path d="M742.09,786.3l0,.09H742l-.1.49h-.1l.1-.49h-.09l0-.09Z"/><path d="M742.48,786.63l.19-.41h.11l-.14.65h-.1l.06-.29-.12.29h-.08v-.29l-.06.29h-.1l.13-.65h.11Z"/><path d="M742.86,786.3h.26l0,.09H743l0,.15H743l0,.09h-.13l0,.15H743l0,.1h-.26Z"/><path d="M743.07,786.87l.12-.57h.11l-.1.48h.15l0,.09Z"/><path d="M743.52,786.3h.14c.07,0,.11,0,.11.09v0l0,.09a.12.12,0,0,1-.09.1l.05.26h-.12l0-.23h0l0,.23h-.1Zm.09.09,0,.15h0a0,0,0,0,0,0,0l0-.08h0s0,0,0,0Z"/><path d="M744.05,786.76a.14.14,0,0,1-.16.12q-.12,0-.12-.09v0l.07-.35a.15.15,0,0,1,.17-.12q.12,0,.12.09v0Zm0-.35h0s0,0,0,0,0,0,0,0h0l-.07.35h0s0,0,0,0,0,0,0,0h0Z"/><path d="M744.22,786.41a.14.14,0,0,1,.16-.12q.12,0,.12.09v0l0,.09h-.11l0-.09h0s0,0,0,0,0,0,0,0v.05h0s0,0,.07.08a.17.17,0,0,1,.06.11v.1a.15.15,0,0,1-.17.12c-.08,0-.12,0-.12-.08v0l0-.08h.11l0,.08h0s0,0,0,0a0,0,0,0,0,0,0l0-.06h0a.14.14,0,0,0-.07-.08.17.17,0,0,1-.06-.11v0Z"/><path d="M744.61,786.3h.26l0,.09h-.15l0,.15h.12l0,.09h-.12l0,.15h.14l0,.1h-.25Z"/><path d="M777.63,776.2a.16.16,0,0,1-.17.15.1.1,0,0,1-.11-.1,0,0,0,0,1,0,0l.08-.38a.16.16,0,0,1,.16-.15c.08,0,.12,0,.12.1v.05l0,.09h-.11l0-.09v0s0,0,0,0h0s0,0,0,0l-.09.38v0s0,0,0,0,0,0,0,0l0-.09h.11Z"/><path d="M777.69,776.34l.12-.57h.11l-.1.48H778l0,.09Z"/><path d="M778.32,776.22a.15.15,0,0,1-.17.12c-.08,0-.12,0-.12-.08v0l.07-.34a.16.16,0,0,1,.17-.13q.12,0,.12.09v0Zm0-.34h0l0,0s0,0,0,0l-.07.34h0s0,0,0,0,0,0,0,0h0Z"/><path d="M778.48,775.88a.15.15,0,0,1,.16-.13q.12,0,.12.09v0l0,.08h-.1v-.08h0s0,0,0,0a0,0,0,0,0,0,0v0h0s0,.05.06.08a.14.14,0,0,1,.07.1v0l0,.07a.16.16,0,0,1-.17.13c-.07,0-.11,0-.11-.09a0,0,0,0,1,0,0v-.08h.11l0,.08h0s0,0,0,0,0,0,0,0h0v-.06h0s0,0-.06-.08a.11.11,0,0,1-.06-.11,0,0,0,0,1,0,0Z"/><path d="M778.87,775.76h.26l0,.09H779l0,.15h.12l0,.09h-.12l0,.15H779l0,.1h-.25Z"/><path d="M779.21,775.76h.15c.07,0,.11,0,.11.09v0l-.07.33a.15.15,0,0,1-.16.12h-.15Zm.09.09-.09.39h0a0,0,0,0,0,0,0h0l.07-.33h0l0,0Z"/><path d="M777.65,776.87l0,.21h-.11V777h-.08l0,.12h-.11l.07-.2.15-.37h.14Zm-.11,0v-.16l-.07.16Z"/><path d="M778.06,776.51l0,.09H778l-.1.48h-.11l.1-.48h-.08l0-.09Z"/><path d="M778.46,776.84l.18-.41h.11l-.14.65h-.1l.06-.29-.12.29h-.08v-.29l-.06.29h-.11l.14-.65h.11Z"/><path d="M778.84,776.51h.25l0,.09h-.15l0,.15H779l0,.09h-.13l0,.15H779l0,.09h-.25Z"/><path d="M779.05,777.08l.12-.57h.11l-.1.48h.15l0,.09Z"/><path d="M779.49,776.51h.15c.07,0,.1,0,.1.09v.12a.13.13,0,0,1-.1.1l0,.26h-.12l0-.24h0l0,.24h-.1Zm.09.09,0,.15h0s0,0,0,0l0-.08h0a0,0,0,0,0,0,0Z"/><path d="M780,777a.15.15,0,0,1-.17.12q-.12,0-.12-.09v0l.08-.35a.14.14,0,0,1,.16-.12q.12,0,.12.09v0Zm0-.35h0s0,0,0,0,0,0,0,0l-.07.35h0s0,0,0,0,0,0,0,0Z"/><path d="M780.19,776.62a.15.15,0,0,1,.17-.12c.07,0,.11,0,.11.09v.12h-.11l0-.09h0s0,0,0,0,0,0,0,0h0v0h0s0,.05.06.08a.19.19,0,0,1,.07.11v0l0,.07a.14.14,0,0,1-.16.12c-.08,0-.12,0-.12-.08v-.12h.11V777h0s0,0,0,0,0,0,0,0h0v-.06h0s0,0-.06-.08a.14.14,0,0,1-.06-.11v-.08Z"/><path d="M780.59,776.51h.25l0,.09h-.14l0,.15h.13l0,.09h-.13l0,.15h.15l0,.09h-.26Z"/><path d="M781.24,755.12a.17.17,0,0,1-.17.15.1.1,0,0,1-.11-.1,0,0,0,0,1,0,0l.08-.38a.15.15,0,0,1,.16-.14q.12,0,.12.09v0l0,.09h-.11l0-.09v0s0,0,0,0h0s0,0,0,0l-.09.38v0s0,0,0,0,0,0,0,0l0-.09h.11Z"/><path d="M781.3,755.25l.12-.57h.11l-.1.48h.15l0,.09Z"/><path d="M781.93,755.14a.15.15,0,0,1-.17.12c-.08,0-.12,0-.12-.08v0l.07-.34a.16.16,0,0,1,.17-.13q.12,0,.12.09v0Zm0-.34h0a0,0,0,0,0,0,0s0,0,0,0l-.07.34h0s0,0,0,0,0,0,0,0Z"/><path d="M782.09,754.8a.15.15,0,0,1,.16-.13q.12,0,.12.09v0l0,.08h-.1v-.08h0s0,0,0,0a0,0,0,0,0,0,0v.05h0a.21.21,0,0,0,.06.08.14.14,0,0,1,.07.1v0l0,.07a.16.16,0,0,1-.17.13q-.12,0-.12-.09v0l0-.08h.11l0,.08h0s0,0,0,0,0,0,0,0v-.06h0s0-.05-.06-.08a.19.19,0,0,1-.07-.11v0Z"/><path d="M782.48,754.68h.26l0,.09h-.15l0,.15h.13l0,.09h-.13l0,.15h.15l0,.09h-.25Z"/><path d="M782.82,754.68H783c.07,0,.11,0,.11.09v0l-.07.32a.14.14,0,0,1-.16.12h-.15Zm.09.09-.09.39h0s0,0,0,0h0l.07-.32h0s0,0,0,0Z"/><path d="M781.25,755.79V756h-.11v-.12h-.08l0,.12h-.11l.07-.2.15-.37h.14Zm-.1,0v-.16l-.07.16Z"/><path d="M781.67,755.43l0,.1h-.08l-.1.48h-.11l.1-.48h-.08l0-.1Z"/><path d="M781.91,755.48a.17.17,0,0,1,.17-.14c.07,0,.11,0,.11.1v0l0,.09h-.11l0-.09s0,0,0,0,0,0,0,0h0s0,0,0,0v.06h0s0,.05.06.09a.14.14,0,0,1,.06.12v0l0,.08a.16.16,0,0,1-.16.14q-.12,0-.12-.09v0l0-.09H782l0,.09h0s0,0,0,0,0,0,0,0l0-.07h0a.12.12,0,0,0-.06-.09.16.16,0,0,1-.06-.12v-.1Z"/><path d="M782.48,755.89a.15.15,0,0,1-.17.12q-.12,0-.12-.09v0l.1-.46h.11l-.1.46h0s0,0,0,0,0,0,0,0l.09-.46h.11Z"/><path d="M782.67,755.43h.11v.27l.06-.27h.1l-.12.58h-.11v-.26l-.06.26h-.1Z"/><path d="M783,755.54a.15.15,0,0,1,.17-.12c.08,0,.11,0,.11.09a0,0,0,0,1,0,0v.09h-.11l0-.09h0s0,0,0,0,0,0,0,0v.05h0a.18.18,0,0,0,.07.08.17.17,0,0,1,.06.11v.1a.15.15,0,0,1-.17.12q-.12,0-.12-.09v0l0-.08h.11l0,.08h0s0,0,0,0,0,0,0,0v-.07h0s0,0-.06-.08a.12.12,0,0,1-.07-.11v-.08Z"/><path d="M783.42,755.43h.25l0,.1h-.14l0,.14h.12l0,.1h-.12l0,.14h.14l0,.1h-.25Z"/><path d="M784,755.43l0,.1h-.09l-.1.48h-.11l.1-.48h-.09l0-.1Z"/><path d="M711.61,782.9a.15.15,0,0,1-.16.14q-.12,0-.12-.09v-.05l.09-.39a.16.16,0,0,1,.16-.14c.08,0,.12,0,.12.1v0l0,.1h-.11l0-.1h0l0,0h0a0,0,0,0,0,0,0l-.09.39v0s0,0,0,0a0,0,0,0,0,0,0l0-.09h.1Z"/><path d="M711.67,783l.13-.57h.11l-.11.48H712l0,.09Z"/><path d="M712.3,782.92a.15.15,0,0,1-.17.12c-.08,0-.11,0-.11-.09a0,0,0,0,1,0,0l.07-.34a.16.16,0,0,1,.17-.13c.07,0,.11,0,.11.09v0Zm0-.34h0s0,0,0,0a0,0,0,0,0,0,0l-.07.34h0s0,0,0,0,0,0,0,0Z"/><path d="M712.46,782.58a.16.16,0,0,1,.17-.13c.08,0,.11,0,.11.09s0,0,0,0v.08h-.11l0-.08h0s0,0,0,0a0,0,0,0,0,0,0h0v0h0s0,0,.07.08a.13.13,0,0,1,.06.1v0l0,.07a.13.13,0,0,1-.16.12c-.08,0-.12,0-.12-.08v0l0-.08h.1v.08h0s0,0,0,0,0,0,0,0h0l0-.06h0s0-.05-.07-.08a.14.14,0,0,1-.06-.11v-.07Z"/><path d="M712.86,782.46h.25l0,.09H713l0,.15H713l0,.09h-.12l0,.15H713l0,.09h-.25Z"/><path d="M713.19,782.46h.15c.07,0,.11,0,.11.09v0l-.07.34a.15.15,0,0,1-.16.12h-.15Zm.09.09-.08.39h0s0,0,0,0h0l.07-.33h0s0,0,0,0Z"/><path d="M711.63,783.57v.21h-.11v-.12h-.08l0,.12h-.11l.07-.2.15-.37h.14Zm-.11,0v-.16l-.06.16Z"/><path d="M712.05,783.21l0,.09h-.09l-.1.48h-.11l.1-.48h-.08l0-.09Z"/><path d="M712.44,783.54l.19-.41h.1l-.13.65h-.11l.06-.29-.12.29h-.08v-.29l-.06.29h-.1l.14-.65h.1Z"/><path d="M712.82,783.21h.25l0,.09h-.14l0,.15H713l0,.09h-.12l0,.15H713l0,.09h-.25Z"/><path d="M713,783.78l.12-.57h.11l-.1.48h.14l0,.09Z"/><path d="M713.48,783.21h.14c.07,0,.11,0,.11.08v0l0,.09a.15.15,0,0,1-.09.1l0,.26h-.12l0-.24h0l0,.24h-.11Zm.08.09,0,.15h0l0,0v-.09h0s0,0,0,0Z"/><path d="M714,783.67a.15.15,0,0,1-.16.12q-.12,0-.12-.09v0l.07-.35a.15.15,0,0,1,.17-.12c.07,0,.11,0,.11.09a0,0,0,0,1,0,0Zm0-.35h0s0,0,0,0,0,0,0,0h0l-.07.35h0a0,0,0,0,0,0,0,0,0,0,0,0,0,0h0Z"/><path d="M714.17,783.32a.15.15,0,0,1,.17-.12q.12,0,.12.09v0l0,.08h-.11l0-.08h0s0,0,0,0,0,0,0,0v0h0a.18.18,0,0,0,.07.08.17.17,0,0,1,.06.11v.1a.15.15,0,0,1-.17.12q-.12,0-.12-.09v0l0-.08h.11l0,.08h0s0,0,0,0a0,0,0,0,0,0,0l0-.07h0s0-.05-.07-.09a.13.13,0,0,1-.06-.1v-.08Z"/><path d="M714.57,783.21h.26l0,.09h-.15l0,.15h.13l0,.09h-.13l0,.15h.14l0,.09h-.25Z"/><path d="M787.77,759.06h.2c.11,0,.16.05.16.14a.13.13,0,0,1,0,.06l0,.14a.2.2,0,0,1-.14.17l.06.43h-.16l0-.4h0l-.08.4h-.16Zm.12.15,0,.24h0s0,0,.05-.05l0-.13s0,0,0,0,0,0,0,0Z"/><path d="M788.29,759.17h.16l-.18.83h-.16Z"/><path d="M788.59,759.17h.22q.15,0,.15.12v.06l-.1.47a.2.2,0,0,1-.22.18h-.22Zm.13.13-.12.56h0a0,0,0,0,0,.06,0h0l.1-.47v0s0,0,0,0Z"/><path d="M789.13,759.17h.37l0,.13h-.21l0,.22h.18l0,.13h-.19l0,.21h.21l0,.14H789Z"/><path d="M789.56,759.34a.21.21,0,0,1,.24-.18c.12,0,.17,0,.17.12v.06l0,.11h-.15l0-.11v0a0,0,0,0,0,0,0,.06.06,0,0,0-.06.05h0l0,.07h0s0,.07.1.11a.19.19,0,0,1,.09.15v0l0,.11a.23.23,0,0,1-.24.18c-.12,0-.17,0-.17-.13v0l0-.12h.16l0,.12h0s0,0,0,0a.07.07,0,0,0,.06,0l0-.1h0s0-.07-.1-.11a.22.22,0,0,1-.09-.16v0Z"/><path d="M790.14,759.17h.15l-.07.35h.09l.08-.35h.15l-.17.83h-.16l.07-.35h-.09l-.07.35H790Z"/><path d="M791,759.7l0,.3h-.16v-.17h-.11l-.06.17h-.16l.11-.3.21-.53h.2Zm-.16,0,0-.25-.09.25Z"/><path d="M791.23,759.17h.2c.11,0,.16,0,.16.12v.06l0,.12a.18.18,0,0,1-.13.15l.07.38h-.17l0-.34h0l-.08.34h-.15Zm.13.13-.05.22h.05a.07.07,0,0,0,0,0l0-.12h0a0,0,0,0,0,0,0Z"/><path d="M791.74,759.17h.37l0,.13h-.21l0,.22H792l0,.13h-.18l0,.21H792l0,.14h-.37Z"/><path d="M792.82,759.15l-.33.7h.18l0,.15h-.36l0-.09.32-.7h-.16l0-.15h.34Z"/><path d="M793.2,759.83a.23.23,0,0,1-.24.18c-.12,0-.17,0-.17-.13v0l.11-.5a.22.22,0,0,1,.24-.18c.11,0,.16.05.16.13v.05Zm-.05-.5h0s0,0,0,0a0,0,0,0,0-.06,0l-.1.5h0s0,0,0,0a.06.06,0,0,0,.06,0Z"/><path d="M793.47,759.17h.16l0,.39.08-.39h.15l-.18.83h-.15l0-.37-.08.37h-.15Z"/><path d="M794,759.17h.37l0,.13h-.21l0,.22h.18l0,.13h-.18l0,.21h.21l0,.14h-.37Z"/><path d="M759.4,790.63h.2c.1,0,.15,0,.15.14a.2.2,0,0,1,0,.07l0,.13a.21.21,0,0,1-.14.17l.06.43h-.17l0-.4h0l-.09.4h-.15Zm.12.15,0,.25h0a.07.07,0,0,0,0,0l0-.14v0s0,0,0,0Z"/><path d="M759.91,790.74h.16l-.18.83h-.15Z"/><path d="M760.21,790.74h.22c.1,0,.16,0,.16.13v0l-.1.47a.22.22,0,0,1-.23.18h-.21Zm.13.14-.12.56h0a0,0,0,0,0,.05-.05l.1-.47h0a0,0,0,0,0,0,0Z"/><path d="M760.75,790.74h.38l0,.14h-.21l0,.21H761l0,.13h-.18l-.05.22H761l0,.13h-.36Z"/><path d="M761.19,790.91a.21.21,0,0,1,.24-.18c.11,0,.16,0,.16.13a0,0,0,0,1,0,0l0,.12h-.16l0-.12v0s0,0,0,0a.06.06,0,0,0-.06,0V791h0s0,.07.09.12a.16.16,0,0,1,.09.15v0l0,.1a.21.21,0,0,1-.24.18c-.11,0-.17,0-.17-.12v-.06l0-.12h.16l0,.12v0a0,0,0,0,0,0,0,0,0,0,0,0,.05-.05h0l0-.09h0s0-.07-.09-.12a.19.19,0,0,1-.09-.15v0Z"/><path d="M761.76,790.74h.16l-.08.35h.1l.07-.35h.16l-.18.83h-.16l.08-.34h-.09l-.08.34h-.15Z"/><path d="M762.59,791.28l0,.3h-.15v-.17h-.12l-.06.17h-.15l.1-.3.21-.53h.2Zm-.15,0V791l-.09.25Z"/><path d="M762.85,790.74h.21c.1,0,.15,0,.15.13a0,0,0,0,1,0,0l0,.12a.18.18,0,0,1-.13.15l.07.38H763l0-.34h0l-.07.34h-.16Zm.13.14-.05.21H763a.08.08,0,0,0,0,0l0-.13h0s0,0,0,0Z"/><path d="M763.37,790.74h.36l0,.14h-.21l0,.21h.18l0,.13h-.18l0,.22h.21l0,.13h-.37Z"/><path d="M764.45,790.72l-.33.7h.19l0,.15h-.36l0-.09.32-.7h-.17l0-.15h.34Z"/><path d="M764.82,791.4a.21.21,0,0,1-.24.18c-.11,0-.17,0-.17-.12v-.06l.11-.49a.21.21,0,0,1,.24-.18c.11,0,.16,0,.16.12a.06.06,0,0,1,0,.06Zm-.05-.49v0a0,0,0,0,0,0,0,0,0,0,0,0-.05,0h0l-.11.49v0s0,0,0,0a0,0,0,0,0,0-.05Z"/><path d="M765.1,790.74h.15l0,.39.08-.38h.15l-.18.83h-.15l0-.38-.08.38h-.15Z"/><path d="M765.65,790.74H766l0,.14h-.2l0,.21h.18l0,.13h-.18l0,.22h.21l0,.13h-.37Z"/></g></svg>