<?xml version="1.0" encoding="utf-8"?>
<!-- Generator: Adobe Illustrator 22.1.0, SVG Export Plug-In . SVG Version: 6.00 Build 0)  -->
<svg version="1.1" id="Layer_1" xmlns="http://www.w3.org/2000/svg" xmlns:xlink="http://www.w3.org/1999/xlink" x="0px" y="0px"
	 viewBox="0 0 1920 1090" style="enable-background:new 0 0 1920 1090;" xml:space="preserve">
<style type="text/css">
	.st0{display:none;}
	.st1{display:inline;fill:none;stroke:#3D1717;stroke-linecap:round;stroke-linejoin:round;}
	.st2{display:inline;fill:#ECA6A9;}
	.st3{display:inline;fill:#3C1919;}
	.st4{display:inline;fill:#EE509A;}
	.st5{display:inline;fill:none;stroke:#3C1919;}
	.st6{display:inline;fill:#E2625C;}
	.st7{display:inline;fill:#C68572;}
	.st8{display:inline;fill:#3D1717;}
	.st9{display:inline;fill:#F6F1D7;}
	.st10{display:inline;fill:#AB6E63;}
	.st11{display:inline;fill:#E2DCC0;}
</style>
<title>Artboard 1</title>
<g id="_9.-Insider-tips" style="display:inline;">
	
		<image style="overflow:visible;enable-background:new    ;" width="627" height="626" id="disco_ball" xlink:href="A7D6AE19759DA29E.png"  transform="matrix(-0.6955 0.1863 -0.1863 -0.6955 356.49 1139.47)">
	</image>
	<g id="werewolf" class="st0">
		<path id="Stroke-5" class="st1" d="M393.5,922.4c7.1-7.2,16.6-14.7,28.5-19.2 M386.4,930.5c1.2-1.5,2.5-3,3.9-4.6 M381.7,937
			c0.6-0.9,1.3-1.8,2-2.9 M379,941.2c0,0,0.2-0.4,0.7-1.2"/>
		<polyline id="Fill-6" class="st2" points="424,826.1 434,825.2 429.7,835.2 424,826.1 		"/>
		<polygon id="Stroke-7" class="st1" points="424,826.1 434,825.2 429.7,835.2 		"/>
		<polyline id="Fill-8" class="st2" points="444,824.4 434,825.2 438.3,815.2 444,824.4 		"/>
		<polygon id="Stroke-9" class="st1" points="444,824.4 434,825.2 438.3,815.2 		"/>
		<path id="Fill-10" class="st2" d="M436.8,829.3c-2.7,0-4.9-2.2-4.9-5s2.2-4.9,5-4.9c2.7,0,4.9,2.2,4.9,5
			C441.8,827.1,439.6,829.3,436.8,829.3L436.8,829.3"/>
		<path id="Stroke-11" class="st1" d="M436.8,829.3c-2.7,0-4.9-2.2-4.9-5s2.2-4.9,5-4.9c2.7,0,4.9,2.2,4.9,5
			C441.8,827.1,439.6,829.3,436.8,829.3L436.8,829.3z"/>
		<polyline id="Fill-12-2" class="st3" points="427,912.2 430.1,902.2 437,910 427,912.2 		"/>
		<polygon id="Stroke-13" class="st1" points="427,912.2 430.1,902.2 437,910 		"/>
		<polyline id="Fill-14-2" class="st3" points="434,891.2 430.9,901.2 424,893.5 434,891.2 		"/>
		<polygon id="Stroke-15" class="st1" points="434,891.2 430.9,901.2 424,893.5 		"/>
		<path id="Fill-16-2" class="st4" d="M435.9,900.2c0.6,2.7-1.1,5.4-3.8,6c-2.7,0.6-5.4-1.1-6-3.8c-0.6-2.7,1.1-5.4,3.8-6
			c0,0,0,0,0,0l0,0C432.6,895.8,435.3,897.5,435.9,900.2"/>
		<path id="Stroke-17" class="st5" d="M435.9,900.2c0.6,2.7-1.1,5.4-3.8,6c-2.7,0.6-5.4-1.1-6-3.8c-0.6-2.7,1.1-5.4,3.8-6
			c0,0,0,0,0,0l0,0C432.6,895.8,435.3,897.5,435.9,900.2z"/>
		<path id="Fill-18-2" class="st6" d="M456.5,873.3c1.1,0.3,1.7,1.4,1.4,2.5s-1.4,1.7-2.5,1.4c-1.1-0.3-1.7-1.4-1.4-2.4
			C454.4,873.6,455.5,873,456.5,873.3C456.5,873.3,456.5,873.3,456.5,873.3L456.5,873.3"/>
		<path id="Stroke-19" class="st5" d="M456.5,873.3c1.1,0.3,1.7,1.4,1.4,2.5s-1.4,1.7-2.5,1.4c-1.1-0.3-1.7-1.4-1.4-2.4
			C454.4,873.6,455.5,873,456.5,873.3C456.5,873.3,456.5,873.3,456.5,873.3z"/>
		<path id="Stroke-20" class="st1" d="M432.6,924.1c2.5-0.9,5.3-1.9,8.4-2.9 M421.4,928.9c1.4-0.7,3-1.4,4.9-2.2 M415,932.2
			c0,0,0.9-0.6,2.8-1.5"/>
		<path id="Fill-21-2" class="st6" d="M453.7,914.4c2.4,0.7,3.8,3.1,3.2,5.5c-0.7,2.4-3.1,3.8-5.5,3.2c-2.4-0.7-3.8-3.1-3.2-5.5
			c0,0,0,0,0,0l0,0C448.8,915.1,451.3,913.7,453.7,914.4"/>
		<path id="Stroke-22" class="st5" d="M453.7,914.4c2.4,0.7,3.8,3.1,3.2,5.5c-0.7,2.4-3.1,3.8-5.5,3.2c-2.4-0.7-3.8-3.1-3.2-5.5
			c0,0,0,0,0,0l0,0C448.8,915.1,451.3,913.7,453.7,914.4z"/>
		<path id="Fill-23-2" class="st7" d="M448.6,1007.5c-8.1-4.3-14.5-4.1-19.1-2.7c0,0-12.1-3.5-18.8,6.2c-4.1,5.9-6.3,19.3-7.5,28.9
			c-3.3-18.4-18.3-19.4-18.3-19.4c3-2.2,9.4-0.8,9.4-0.8c-10.3-8.3-25.1-0.3-25.7,0l0,0c-0.9,0.9-1.8,1.9-2.6,3
			c-0.6-3.4,0.1-6.8,1.8-9.8c-7.4,2.8-11.7,13.5-11.7,13.5l0,0c-0.2-5.4-1.6-10.6-4-15.4c1.8-8.3,2.2-20.3-7.4-29.7
			c1.5-1.7,2.6-3.7,3.1-5.8c23,15,12.6-5.5,12.6-5.5c9.9,1.5-0.6-15.3-2.7-18.4c-0.1-0.1-0.1-0.2-0.2-0.2l-0.1-0.2v-0.1
			c26.5,4.9,1.1-8.2,0-8.7c11.3,4.1,14.8-1.7,14.8-1.7c-15.8-0.4-16.8-11-16.8-12.1l0,0v-0.1c27.6-33,9.3-43.1,9.3-43.1
			c10.5-16.4,2.4-16.8-1.9-18c-27.5-7.7-53,24.2-53.6,25c-3.8-3.5-12.9-10.5-24.3-10.5c0,0,5.2,0.9,7,4.3c0,0-7.5-3.8-20.2,0.7
			c-11-7.5-24-11.3-37.3-11c-2.9,0.1-5.7,0-8.6-0.3h-0.1c-0.8-0.1-1.6-0.2-2.4-0.4l0,0c-2.9-0.4-7.5-0.5-10.4,2
			c0,0-15.7,23.2,25.5,55.2c0,0-2.7,6.9-11.9,9.4c0,0,1.5,1.5,11.9-1.8c0,0.1-0.1,0.3-0.1,0.4c-0.6,1.7-3.6,7.8-12.3,11
			c0,0,5,2.7,12.4,0.3c-0.7,0.2-11.9,4.5-10.6,19.9c0,0,9.5-9.9,17.3-9c-1.1,3.8-2.7,7.4-4.7,10.7l0.1,0.1c1.2-2,2.6-3.9,4.3-5.5
			c2.2-2.1,4.7-3.9,7.4-5.3l0,0c-0.2-0.4-0.4-0.8-0.6-1.2c-1.8-4-0.9-7.9,2.3-11.2c-2.8-2.9,2.6-8.3,2.6-8.3
			c1.6,1.7,3.5,3.2,5.6,4.3c1.3,0.7,2.6,1.4,3.9,1.9c2.6,1.1,5.3,1.9,8.1,2.4c1.6,0.3,3.2,0.6,5.1,0.8c2.7,0.3,5.3,0.4,8,0.4
			c1.8,0,3.7-0.1,5.6-0.2c1.5-0.1,3-0.2,4.5-0.4c1.2-0.1,2.3-0.3,3.4-0.4c1.5-0.2,2.9-0.4,4.3-0.6c2.9-0.5,5.5-1,7.8-1.6
			c1.4-0.3,2.6-0.7,3.8-1c2.7-0.8,5.3-1.8,7.9-3.1c1-0.5,2-1.1,2.9-1.7c1.9-1.3,3.5-3,4.6-4.9c0,0,6.8,4.8,2.9,8.4
			c1.7,4.1,2,8.6,0.9,12.9c-0.8,2.7-2.3,5.2-4.3,7.2c-1.6,1.6-3.3,2.9-5.3,4c-2.3,1.3-4.8,2.4-7.4,3.2c-2.3,0.7-4.6,1.3-7,1.8
			c-2.4,0.5-5.1,0.9-8,1.2c-0.3,0-0.5,0-0.8,0.1c-1.7,0.2-3.4,0.3-5,0.4c-2.2,0.1-4.3,0.2-6.4,0.2c-1.6,0-3.2,0-4.7-0.1
			c-4.4-0.2-8.8-0.7-13.1-1.6l-0.4-0.3c-2.5,3.2-4.4,6.8-5.7,10.7c-1.8,5-2.3,13.5-17.3,12.3c-0.2,0-0.4,0-0.6-0.1v0.2
			c0,0,2.4,16.7-10.3,22c0,0,6.8,0.1,10.5-3.4c-2,2.2-9.3,11.3-5,20c0,0,1-6.5,5.5-8.8c0,0-4.3,10.1-3.6,19.4
			c-0.5-0.4-12.6-10.2-25.1-4.8l9.9,6c-3.5,0.9-7,1.4-10.6,1.5h-0.8c-8.8,0.3-17.1,3.8-23.4,9.9c0,0,7.9,2,11.7,0.6l1-0.6
			c-0.3,0.3-0.6,0.4-1,0.6c-1.8,1-3.5,2.2-5.2,3.5c0,0-8.5,14.9,8.1,24.9c5.2,3.1,11.1,5,17.2,5.3v0.1c0,0-18.7,4-26.6,17.7
			c-4.7,8.1-4.8,18.7-2.4,23.5c2.1,4.1,6.2,9.4,17.6,5.6c2,2,4.6,3.1,7.4,3.1c14.3,0.9,14.7-7.6,14.7-7.6l0.2-0.4
			c2.3,0.9,4.8,1.2,7.2,0.7c14.9-2.1,11.1-18.8,11.1-18.8c5.5,1.7,12-1.5,12-1.5c1.9,2.1,5,3.6,9.5,4.1c14.1,1.5,22.9-7,20.8-12.9
			c-0.3-0.7-0.6-1.5-1-2.1c2.8,1.9,6.5,1.9,9.3,0c-0.4,0.7-0.7,1.4-1,2.1c-2.1,5.9,6.7,14.4,20.8,12.9c4.6-0.5,7.7-2.1,9.5-4.1
			c0,0,11.9,5.9,17.2-2.6c1.6-2.5,2.4-5.4,2.3-8.3l0,0c0,0,10.5-10.6-2.9-18.1c-2.5-1.2-5.2-1.7-7.9-1.6c29.3-28.6,39.2-13.6,45-3.1
			c3.1,5.7,11.3,17.5,26-12.2s27.8-26.4,27.8-26.4s4,7.9,6.1-11.4c0.1-1.1,0.2-2.2,0.2-3.2l0,0
			C452,1029.6,465.2,1016.5,448.6,1007.5"/>
		<path id="Fill-24-2" class="st8" d="M335.4,945.9c-3.8,3.5-7.8-3.7-7.8-3.7c-1,0.6-2,1.2-3,1.7l0.1,0.2c0,0,3.4,5.9-1.1,8.1
			s-6.8-4.8-6.9-5.3c-1.2,0.3-2.4,0.7-3.8,1l0.1,0.4c0,0,2.2,6.3-2.8,7.2c-4.7,0.8-5.2-5.5-5.2-5.5l-0.1-0.5
			c-1.4,0.2-2.8,0.4-4.3,0.6l0.1,0.7c0,0,1.5,6.5-3.5,6.8c-4.7,0.3-4.6-6.7-4.6-6.7l0,0c-2,0.1-3.9,0.2-5.7,0.2c0,0,1,6.6-4,6.6
			c-4.7,0-4.1-7-4.1-7l0,0c-1.8-0.2-3.5-0.5-5.1-0.8c0,0-0.9,6-5.5,5.6l-0.5-0.1c-5-0.9-2.3-7.9-2.3-7.9l0,0
			c-1.3-0.5-2.7-1.1-3.9-1.8c0,0-2.9,7.3-7.5,4.6c-0.3-0.2-0.5-0.4-0.8-0.6c-3.3,3.3-4.2,7.2-2.4,11.1c1-1.3,4.5-5.5,8.7-2.1
			c2.7-0.8,5.6-1.1,8.4-1c4.2,0.2,7.6,1.7,9.3,4.4c1.8-0.3,3.7-0.4,5.5-0.2c5.8,0.5,7.9,4.7,8.5,8.5l0.4-0.1
			c0.8-0.6,1.7-0.9,2.7-0.8c4.7,0.2,3.6,6.4,3.6,6.4v0.1c1.7-0.1,3.3-0.2,5.1-0.4l0.8-0.1l-0.1-0.7c0,0-1.6-6.5,3.4-6.9
			c4.7-0.4,4.7,6.2,4.7,6.2l0,0.3c2.4-0.4,4.8-1,7.1-1.8l0,0c0,0-3.9-5.5,0.6-7.6c4.2-2,6.8,4.5,6.8,4.5l0,0c2-1.1,3.7-2.4,5.3-4
			c-0.5-0.5-5-4.4-1.4-7.5c1.9-1.6,3.9-0.8,5.5,0.3l0.2,0.1C337.4,954.4,337.1,949.9,335.4,945.9"/>
		<path id="Fill-25-2" class="st9" d="M251,961.2c0.2,0.3,0.4,0.7,0.7,1l0,0c3-1.3,6.1-2.2,9.3-2.8C256.2,956.3,252.1,960,251,961.2
			"/>
		<path id="Fill-26-2" class="st9" d="M279,951.2L279,951.2c0,0-0.7,6,4.5,6c5.5,0,4.4-5.6,4.4-5.6
			C284.7,951.6,281.7,951.5,279,951.2"/>
		<path id="Fill-27-2" class="st9" d="M331.2,959.2c-3,3.3,0.7,7.5,1.2,8c1.8-2.2,3-4.8,3.7-7.6l-0.2-0.1
			C334.5,958.3,332.8,957.5,331.2,959.2"/>
		<path id="Fill-28-2" class="st9" d="M319.4,965.7c-5,2.4-0.6,8.5-0.6,8.5l0,0c2.9-0.9,5.6-2.1,8.2-3.5l0,0
			C327,970.7,324.1,963.4,319.4,965.7"/>
		<path id="Fill-29-2" class="st9" d="M306.9,967.2c-5.4,0.4-3.6,6.3-3.6,6.3l0.1,0.6c3.2-0.3,6-0.6,8.7-1l0-0.2
			C312,972.9,312,966.9,306.9,967.2"/>
		<path id="Fill-30-2" class="st9" d="M294.7,969.2c-0.9-0.1-1.7,0.1-2.4,0.7L292,970c0.3,1.7,0.4,3.5,0.2,5.2c1.8,0,3.7,0,5.7-0.2
			V975C297.9,975,298.9,969.4,294.7,969.2"/>
		<path id="Fill-31-2" class="st9" d="M336.7,946.2c4.4-3.9-3.3-9-3.3-9c-1.4,2.1-3.2,3.8-5.4,5C328,942.2,332.4,950,336.7,946.2"/>
		<path id="Fill-32-2" class="st9" d="M323.4,952.8c4.9-2.5,1.2-9.3,1.2-9.3l-0.1-0.2c-2.7,1.4-5.6,2.6-8.6,3.5
			C316.2,947.3,318.7,955.2,323.4,952.8"/>
		<path id="Fill-33-2" class="st9" d="M313.4,947.2c-2.5,0.5-5.3,1-8.4,1.5l0.1,0.4c0,0,0.6,5.8,5.5,5.1c5.2-0.8,2.9-6.6,2.9-6.6
			L313.4,947.2"/>
		<path id="Fill-34-2" class="st9" d="M301.6,950.2c-1.2,0.1-2.4,0.3-3.7,0.4c-1.7,0.2-3.3,0.3-4.9,0.3v0.1c0,0-0.1,6.5,5,6.2
			c5.4-0.3,3.8-6.4,3.8-6.4L301.6,950.2"/>
		<path id="Fill-35-2" class="st9" d="M265.8,947.2c0,0-3.1,7.9,2.5,8.9l0.5,0.1c5.1,0.5,6.1-6.3,6.1-6.3
			C271.9,949.3,268.8,948.4,265.8,947.2L265.8,947.2"/>
		<path id="Fill-36-2" class="st9" d="M256.8,940.2c0,0-6,6.3-2.9,9.6c0.3,0.3,0.5,0.5,0.9,0.7c5.1,3.2,8.2-5.3,8.2-5.3
			C260.7,943.8,258.6,942.2,256.8,940.2"/>
		<path id="Fill-37-2" class="st6" d="M292.6,971.1c-0.7-3.8-2.8-8.1-8.6-8.6c-1.8-0.2-3.7-0.1-5.5,0.2c-1.8-2.8-5.1-4.2-9.3-4.5
			c-2.8-0.1-5.7,0.2-8.4,1c-2.8,0.8-5.6,1.9-8.1,3.3c-2.7,1.5-5.2,3.2-7.5,5.3c-1.7,1.6-3.2,3.4-4.4,5.5
			c-5.9,10.3-2.4,23.3,9.8,24.7c0.2,0,0.4,0.1,0.6,0.1c15.1,1.2,15.7-7.3,17.5-12.3c1.2-3.5,2.9-6.9,5.1-9.9l14.2,0.9v0.2
			c1.5,0.1,3.1,0.1,4.8,0.1C293.1,975.1,293,973.1,292.6,971.1"/>
		<path id="Fill-39-2" class="st10" d="M420,1016.5c1.3-4.9,4.5-9.1,8.8-11.8c-5.4,1.5-21.3,8-25.2,32c-0.1,1-0.3,2-0.4,2.9
			c-7.6-13.9-23.5-11.8-23.5-11.8c1.6-3.9,8.9-2.3,8.9-2.3c-8.8-5.1-20.2,4-20.2,4c0.6-4.4,3.9-5.2,3.9-5.2
			c-9.9,0.6-14.3,19.2-16.5,11.1c-0.8-3.5-0.8-7-0.1-10.5c-0.4-4.9-1.8-9.8-4-14.2c0.1-0.7,0.3-1.4,0.4-2.1l-0.6-7.9
			c-0.3,5.3-3.2,11.3-3.2,11.3c2.5-24.2-5.5-27.7-5.5-27.7c1.7,3.3-3.7,11-3.7,11c0-12.8-8.5-15.7-8.5-15.7
			c11.4,2.1,16.8-4.6,16.8-4.6c14.1,9.2,15.7,5.2,14.9,0.6c-20.9-25.5-4.7-12.2,1.4-7c2.8-3.4-4.6-15.1-6.3-17.7l-0.2-0.3
			c0-0.1-0.1-0.1-0.1-0.2v-0.1c8.8,1.6,11.9,1.3,12.1,0.1c0,0-29.2-14.3-1.5-7.8c1.7-0.4,3.2-1.4,4.3-2.8
			c-15.9-0.4-16.9-11-16.9-12.1l0,0v-0.1l0.1-0.1c-6.1-8.3,5.9-29.2,5.9-29.2s-3.4,14.5,1.5,7.9c3-4,5.2-11.2,6.5-16.3
			c-1-2.3-2.6-4.2-4.6-5.6c4.3-6.6,5.5-10.7,5.1-13.2c0,0-16.4-8.9-36,3.9s-25,26.2-25,26.2s-3.5-10.9-11.7-15.3c0,0,3.8,5,3.5,6.7
			c0,0-14.9-8.7-29.5-1c0,0-12.8-15.1-57.4-13.8l3.8,2h-3.8c0,0-6.9,23.2,23.7,49.2l-0.3,1.9l0.4,0.3c0,0-2.8,6.9-11.9,9.5
			c0,0,1.5,1.5,11.9-1.8l-0.2,0.4c-0.6,1.7-3.6,7.8-12.4,11l0.2,0.1c5.2,0.3,10.4-0.7,15.1-3c0,0-10.4,14.2-13.1,22.8
			c1.7-1.7,10.1-9.5,17.1-8.7c-1.1,3.8-2.7,7.4-4.8,10.8l0.1,0.1c1.2-2,2.6-3.9,4.4-5.5c2.2-2.1,4.7-3.9,7.4-5.3l0,0
			c-0.2-0.4-0.4-0.8-0.6-1.2c-1.8-4-0.9-8,2.4-11.3c-2.8-2.9,2.6-8.4,2.6-8.4c1.6,1.7,3.5,3.2,5.6,4.3c1.3,0.7,2.6,1.3,3.9,1.9
			c2.6,1.1,5.4,1.9,8.2,2.4c1.6,0.3,3.3,0.6,5.1,0.8c2.7,0.3,5.4,0.4,8.1,0.4c1.8,0,3.7-0.1,5.7-0.2c1.5-0.1,3-0.2,4.5-0.4
			c1.2-0.1,2.3-0.3,3.4-0.4c1.5-0.2,3-0.4,4.3-0.6c2.9-0.5,5.5-1,7.9-1.6c1.4-0.3,2.6-0.7,3.8-1c2.7-0.8,5.4-1.8,7.9-3.1
			c1.1-0.6,2.1-1.2,3-1.7c2-1.2,3.6-2.8,4.8-4.7c0,0,6.9,4.8,2.9,8.5c1.7,4.1,2.1,8.6,0.9,12.9c-0.8,2.7-2.3,5.2-4.3,7.2
			c-1.6,1.6-3.3,2.9-5.3,4c-2.3,1.3-4.8,2.4-7.4,3.2c-2.3,0.7-4.6,1.3-7,1.8c-2.4,0.5-5.1,0.9-8,1.2c-0.3,0-0.5,0-0.8,0.1
			c-1.7,0.2-3.4,0.3-5.1,0.4c-2.2,0.1-4.3,0.2-6.4,0.2c-1.6,0-3.2,0-4.7-0.1c-4.5-0.2-8.9-0.7-13.3-1.6l-0.4-0.3
			c-2.5,3.2-4.4,6.9-5.7,10.8c-1.7,4.8-2.3,12.7-15.1,12.5l0,0c0,0,3.2,9.8-0.3,14.7l5.5-5.5c0,0-6.9,7.7-6.9,11.6
			c0,0,4.8-11.5,14.5-12.8c0,0-16.2,20.1-14.1,37.5c1.1,9.6,0,8.9-2.1,7.4c-3-2-13.8-4.6-13.8-4.6s6.8,3.6,5.7,5.5
			s-26.1-0.5-26.6,7.7s3.9,12.7,3.9,12.7s-1.1-4.5-0.1-5.4c0,0,4.7,22.4,21.1,25.8c0,0-32.5,8.4-33.4,28.8
			c-0.5,11.6,3.2,17.9,6.5,21.2c1.6-0.2,3.2-0.6,4.7-1.1c2,2,4.7,3.1,7.5,3.2c14.4,0.9,14.8-7.6,14.8-7.6l0.2-0.4
			c2.3,0.9,4.8,1.2,7.3,0.8c15-2.1,11.2-18.9,11.2-18.9c5.5,1.7,12-1.5,12-1.5c1.9,2.1,5,3.6,9.6,4.1c14.2,1.5,23.1-7,20.9-13
			c-0.3-0.7-0.6-1.5-1-2.1c2.8,1.9,6.5,1.9,9.3,0c-0.4,0.7-0.7,1.4-1,2.1c-2.1,6,6.7,14.5,21,13c4.6-0.5,7.7-2.1,9.6-4.1
			c0,0,12,6,17.3-2.6c1.6-2.5,2.4-5.4,2.3-8.4l0,0c0,0,10.5-10.7-2.9-18.2c-2.5-1.2-5.2-1.7-8-1.6c0.4-0.4,0.7-0.7,1.1-1
			c0-2.3-0.1-25.8,16.8-26.8c0,0-8,2.7-7.8,10.1c0,0,28.7-14.9,33.3,11.2l0,0c0.7,1.1,1.4,2.3,2,3.4c3.2,5.7,11.4,17.5,26.1-12.2
			s28-26.5,28-26.5s2.9,5.8,5.1-4.8c-1.8-8.1-6.3-17.3-17.5-15.7c0,0,0.1-3.9,11.4-3.5l3.5,1.2l2.7,3.1l1.1,4l0.2,0.9
			c2.3-2.4,4-5.4,4.8-8.7C452.6,1014.7,442,1006.6,420,1016.5"/>
		<path id="Stroke-40" class="st1" d="M399.9,1002.5c0.3,0.5,0.6,1.1,0.9,1.7 M395,995.8c1,1,1.9,2.2,2.7,3.3 M379.2,985.5
			c4.9,1.8,9.5,4.5,13.4,8 M373.4,983.7c1.2,0.3,2.6,0.7,4,1.1 M368,982.8c0,0,1,0.1,2.7,0.4 M414.2,998.8c0.2,0.5,0.5,0.9,0.7,1.4
			 M411.5,994.4c0.6,0.9,1.1,1.8,1.7,2.7 M379.1,971.9c8.7,2.5,21,7.8,30.1,19.2 M372,970.3c0.9,0.2,2,0.3,3.1,0.6 M368.5,969.8
			c0.5,0,1,0.1,1.4,0.2 M392.3,855.1c8.1-9.3,17.8-17.1,28.7-22.8 M382.8,867.9c1.3-2.1,2.9-4.5,4.9-7.2 M378.5,875.8
			c0,0,0.5-1.1,1.5-3.1"/>
		<path id="Fill-41-2" class="st11" d="M258.7,960.3c0.8-0.3,1.5-0.5,2.3-0.7c-4-3.2-7.5-0.2-9,1.6
			C253.6,959.9,256,958.7,258.7,960.3"/>
		<path id="Fill-42" class="st11" d="M257.1,940.2l-0.1,0.1c0.5,0.6,1.2,1.2,2,1.9C258.3,941.6,257.7,940.9,257.1,940.2"/>
		<path id="Fill-43" class="st11" d="M262,944.2c-0.5,1-3.5,7.3-8,4.7l0,0l0.1,0.1c0.2,0.2,0.5,0.4,0.8,0.6c5,2.8,8.1-4.8,8.1-4.8
			C262.7,944.6,262.4,944.4,262,944.2"/>
		<path id="Fill-44" class="st11" d="M287.9,951.6c-3.2,0-6.2-0.1-8.9-0.4l0,0v0.1c2.3,0.2,4.9,0.3,7.6,0.3c0,0,1,5.1-3.7,5.6h0.6
			C289,957.2,287.9,951.5,287.9,951.6"/>
		<path id="Fill-45" class="st11" d="M331.2,960.2c1.6-1.5,3.2-0.8,4.5,0.2c0.1-0.3,0.2-0.7,0.3-1l-0.2-0.1c-1.3-1-3-1.8-4.6-0.3
			c-0.9,0.8-1.3,2-1.1,3.1C330.2,961.4,330.6,960.7,331.2,960.2"/>
		<path id="Fill-46" class="st11" d="M318.5,966.9c3.8-1.8,6.3,2.8,7,4.3c0.5-0.3,1-0.5,1.5-0.8l0,0c0,0-2.7-6.9-7.2-4.7
			c-0.7,0.3-1.4,0.9-1.8,1.6C318.2,967.1,318.4,967,318.5,966.9"/>
		<path id="Fill-47" class="st11" d="M305.6,968.3c3.4-0.3,4.1,3.4,4.2,4.9c0.4-0.1,0.8-0.1,1.2-0.2v-0.2c0,0,0-5.9-4.3-5.5
			c-1.1,0-2.1,0.6-2.7,1.5C304.5,968.5,305.1,968.4,305.6,968.3"/>
		<path id="Fill-48" class="st11" d="M294.6,969.2c-0.3,0-0.6,0-0.9,0c4,0.4,3,5.7,3,5.7v0.1c-1.6,0.1-3.2,0.1-4.8,0.2l0,0
			c1.9,0,3.9-0.1,5.9-0.2l0,0C297.9,975,298.9,969.4,294.6,969.2"/>
		<path id="Fill-49" class="st11" d="M330.4,937.2c-0.1,0.2-0.2,0.4-0.4,0.7c1.5,1.5,4.5,5.3,1.9,8.3c-0.4,0.5-0.9,0.8-1.4,0.9
			c1,0.2,1.9-0.1,2.5-0.9C336.4,942.3,330.4,937.2,330.4,937.2"/>
		<path id="Fill-50" class="st11" d="M324,943.5l-0.1-0.2c-0.3,0.2-0.6,0.4-0.9,0.5c0.5,1.3,2.3,6.8-1.1,9c-0.3,0.2-0.6,0.3-0.9,0.4
			c0.7,0.2,1.4,0,2-0.4C327,950.2,324,943.5,324,943.5"/>
		<path id="Fill-51" class="st11" d="M312.6,947.6l-0.1-0.4l-1,0.2v0.1c0,0,1.9,5.8-2.4,6.6H309c0.4,0.1,0.8,0.1,1.2,0
			C314.5,953.4,312.6,947.6,312.6,947.6"/>
		<path id="Fill-52" class="st11" d="M299.8,950.8l-0.1-0.6l-1,0.1l0.1,0.5c0,0,1.2,5.8-2.8,6.3c0.3,0,0.5,0,0.8,0
			C301.2,956.8,299.9,950.8,299.8,950.8"/>
		<path id="Fill-53" class="st11" d="M272.8,949.2c-0.2,1.1-1.2,5.9-5.1,5.5l-0.5-0.1l-0.2-0.1c0.4,0.3,0.9,0.5,1.4,0.6l0.5,0.1
			c4.3,0.4,5.1-5.7,5.1-5.7L272.8,949.2"/>
		<path id="Fill-54" class="st4" d="M289.7,971.1c-0.7-3.8-2.7-8.1-8.3-8.6c-1.8-0.2-3.6-0.1-5.3,0.2c-1.7-2.8-5-4.2-9-4.5
			c-2.7-0.1-5.5,0.2-8.1,1c-2.7,0.8-5.4,1.9-7.9,3.3c-2.4,1.4-4.7,3-6.7,4.9c4.9-2.5,10.8-3,13.1,3.9c0,0,12.1-3.2,10.2,4.2
			c-1,3.8-0.5,0.6-4.2,10.4c-4.2,11-17.8,10.1-20.5,9.9c1.8,1.2,3.9,1.9,6.1,2.2c0.2,0,0.4,0.1,0.6,0.1c14.6,1.2,15.1-7.3,16.9-12.3
			c1.2-3.5,2.9-6.9,5-9.9l13.7,0.9v0.2c1.5,0.1,3,0.1,4.6,0.1C290.1,975.1,290,973.1,289.7,971.1"/>
		<path id="Stroke-55" class="st1" d="M256.1,940.1c0,0,9.1,13.8,41.5,10.3s35.2-14.2,35.2-14.2 M279.5,950.5c0,0-0.6,7.1,4,7.2
			c5,0,4-6.7,4-6.7 M274.4,949.7c0,0-0.9,6.6-5.9,5.7s-2.2-8.1-2.2-8.1 M262.4,945.4c0,0-2.9,7.5-7.4,4.7s1.8-9.1,1.8-9.1
			 M293.1,950.8c0,0-0.1,7.2,4.6,6.8c5-0.4,3.4-7,3.4-7 M305.4,949.8c0,0,0.5,6.5,5.1,5.7c4.9-0.9,2.7-7.3,2.7-7.3 M324.9,943.7
			c0,0,3.4,6.1-1.1,8.3s-6.8-5.4-6.8-5.4 M332.5,937.1c0,0,6.8,4.9,2.9,8.5s-7.7-3.8-7.7-3.8 M254.2,949.5
			c-3.6,3.7-4.3,8.1-1.8,12.6 M335.4,945.6c0,0,12.4,26.5-31.8,30.6c-11.7,1.1-21.4,0.5-29.2-1.2 M292.2,977.5
			c0,0,1.8-13.8-8.7-14.7c-10.2-0.7-20.2,3.5-26.9,11.2 M284.6,970.2c-1-1.1-3.5-1.2-5.9,0.3c-5.6,3.5-8.7,10.4-10.3,15.1
			c-1.8,5.1-2.3,13.7-17.3,12.5s-17.2-20-6-30.6c11.2-10.6,28.3-13.1,33-5.4 M287.6,974.1c-0.4-0.5-0.7-1.1-1-1.6 M312.4,974.7
			c0,0,0-6.7-4.6-6.3c-5,0.4-3.4,7-3.4,7 M326.8,969.9c0,0-2.6-6.7-6.8-4.6c-4.5,2.2-0.6,7.8-0.6,7.8 M332,966c0,0-5.2-4.4-1.4-7.7
			c1.9-1.6,3.9-0.8,5.4,0.3 M298.5,976.5c0,0,1.1-6.4-3.5-6.6c-1-0.1-2,0.2-2.7,0.8 M260.5,958.8c-4.9-4.1-8.3,2.3-8.3,2.3"/>
		<path id="Fill-56" class="st8" d="M324.1,916.4c3,7,2.5,14-1.2,15.5s-9-2.8-12-9.8s-2.5-14,1.2-15.5S321.1,909.4,324.1,916.4"/>
		<path id="Stroke-57" class="st1" d="M326.6,927.5c-0.4,1.9-1.6,3.4-3.3,4.3c-4,1.8-9.7-2.4-12.6-9.3s-1.9-14,2.1-15.8
			c1.9-0.7,4-0.5,5.6,0.7 M327,924.8c0,0.3,0,0.7-0.1,1 M320,908.4c0.5,0.4,0.9,0.8,1.3,1.2"/>
		<path id="Fill-58" class="st8" d="M264.9,916.4c-3,7-2.5,14,1.2,15.5s9-2.8,12-9.8s2.5-14-1.2-15.5S267.9,909.4,264.9,916.4"/>
		<path id="Stroke-59" class="st1" d="M261.4,927.5c0.4,1.9,1.6,3.4,3.3,4.3c4,1.8,9.7-2.4,12.6-9.3s1.9-14-2.1-15.8
			c-1.9-0.7-4-0.5-5.6,0.7 M261,924.8c0,0.3,0,0.7,0.1,1 M268.1,908.4c-0.5,0.4-0.9,0.8-1.3,1.2"/>
		<path id="Fill-60" class="st8" d="M282,929.5c0,0,14.2-5,25,0c0,0-2.2,6.7-12.5,9.8C294.5,939.2,284.3,936.7,282,929.5"/>
		<path id="Stroke-61" class="st1" d="M282.6,936.8c0,0,7.4,4.6,12.9,4.4c4.4,0,8.6-1.6,11.9-4.4H282.6z M283.2,930.5
			c0,0,14-5.5,24.7,0c0,0-2.1,7.3-12.3,10.7C295.5,941.1,285.4,938.4,283.2,930.5z M302.9,894.7c0.8,0.2,1.7,0.4,2.5,0.7
			L302.9,894.7z M296.4,893.6l1.5,0.2L296.4,893.6z M311.5,894.5c0,0-11.1-12.5-26.4-12.5c0,0,5.2,0.9,7,4.3c0,0-8.8-4.4-23.5,2
			c0,0,11.2,0.6,15.9,2.9c0,0-8.2,0.5-12.6,5.7c7.2-2.5,14.9-3.6,22.5-3.3L311.5,894.5z M237.9,893.6c-2.3-1.3-5-1.2-7.2,0.2
			c-3.6,2.4,12.9,8,12.9,8c-2.8,1.1-5.7,1.9-8.7,2.1c-8.2,0.8,13.1,7,13.1,7s-2,2.2-8.2,2.3c-5,0.1,12.7,4,12.7,4s-4.1,7.8-11.2,4.7
			L237.9,893.6z M271.9,887c-11-7.5-24-11.4-37.4-11.1c-18.1,0.6-16-5.2-16-5.2L271.9,887z M225.9,875.6c0,0-8.6-2.3-13,1.5
			c0,0-15.7,23.3,25.6,55.5c0,0-2.7,6.9-11.9,9.5c0,0,1.5,1.5,11.9-1.9c0,0-2.3,7.8-12.5,11.5c0,0,5,2.7,12.5,0.3c0,0-12,4-10.7,20
			c0,0,9.6-9.9,17.4-9c0,0-4.1,17.1-19.3,24.4L225.9,875.6z M245.2,963c0,0-8.4,13.5-16,14.6L245.2,963z M238.3,940.7
			c0,0-6.8,7.3-16.8,7L238.3,940.7z M350,883.4c0,0,2.9-4.6,13.2-1.4c0,0-8.7-0.6-19.6,10.7c0,0,24.5-9,3,4.1L350,883.4z M350,894.7
			c0,0,29.4-4.6-4.7,11.4L350,894.7z M351.9,902.9c0,0,13,5.5-8.3,9.8c0,0,18.3,1-2.9,3.8L351.9,902.9z M309.5,892.6
			c0,0,25.8-33,53.7-25.2c4.4,1.2,12.5,1.6,1.9,18.1c0,0,18.3,10.2-9.4,43.4c0,0,3.3,7.7,15.3,7.1L309.5,892.6z M355.9,928.9
			c0,0,0.2,11.8,16.9,12.2c0,0-3.5,5.8-14.8,1.7c0,0,27.1,13.9,0,8.8c0,0,7.9,12.9,21.1,10.2L355.9,928.9z M357.9,951.6
			c0,0,14,20.7,3,19c0,0,10.5,20.6-12.6,5.5c0,0-2.5,11.4-12.2,6.9c0,0-11.9,4.7-5.8-2.4c0,0-7.8,7.1-12.4,5.3L357.9,951.6z
			 M268.2,986.3c0,0,19.2,7.8,14.3-0.1c0,0,12.9,7.7,9.7,3.5L268.2,986.3z M259.7,1011.6c0,0-8.1,15.2,1.5,27.8
			c8.3,11,16,6.8,16,6.8L259.7,1011.6z M274.3,1038.7c0,0,4.5,18.9,27,21.6L274.3,1038.7z M297.3,1055c0,0,14.8,12.8,0,19.2
			c0,0,18.1-0.5,27.1-14s0-22.7,0-22.7L297.3,1055z M327.8,1053c0,0,12.2-9.8,4.4-31.7L327.8,1053z M335.8,1013
			c2.9,4.2,3.6,9.5,2.1,14.4L335.8,1013z M338.7,1000.6c1.9,1.6,2.9,4.1,2.8,6.6L338.7,1000.6z M334.8,1038.6c2.6,2.2,3.6,5.8,2.5,9
			c0,0,11.7-9.3,9.1-35.7c0,0,4,4.9,3,9.5c0,0,11.9-23.6-4.2-39.4L334.8,1038.6z M314.1,1075c0,0,5,9.8-1.2,27.5L314.1,1075z
			 M316.7,1099.6c0,0-6.2,3.5-8.4,9.5s6.7,14.5,20.9,13s14.3-13.4,6.7-18L316.7,1099.6z M338.7,1117.9c0,0,11.9,6,17.2-2.6
			s0.8-17.1-6.5-19.5L338.7,1117.9z M358.2,1106.9c0,0,10.5-10.7-2.9-18.2c-6.4-3.6-18.3,0-18.3,0L358.2,1106.9z M334.7,1051.8
			c0,0-7.1,21.4,3.9,40L334.7,1051.8z M295.1,1075c0,0-5.1,9.8,1.2,27.5L295.1,1075z M292.6,1099.6c0,0,6.2,3.5,8.4,9.5
			s-6.7,14.5-20.9,13s-14.3-13.4-6.7-18L292.6,1099.6z M270.6,1117.9c0,0-11.9,6-17.2-2.6s-0.8-17.1,6.5-19.5L270.6,1117.9z
			 M251,1106.9c0,0-10.5-10.7,2.9-18.2c6.4-3.6,18.3,0,18.3,0L251,1106.9z M274.5,1051.8c0,0,7.1,21.4-3.9,40L274.5,1051.8z
			 M250.3,998.8c0,0,2.4,16.8-10.4,22.2c0,0,7.5,0.2,11.1-4c0,0-10.5,10.5-5.5,20.6c0,0,1-6.6,5.5-8.9c0,0-10.3,24.3,3.6,32.2
			L250.3,998.8z M247.4,1048.3c0,0-12.3-10.4-25.1-4.9l9.9,6.1c0,0-16.9,4.8-23.2-2.4L247.4,1048.3z"/>
		<path id="Stroke-62" class="st1" d="M222.2,1050.2c-9.2,0-18,3.5-24.6,9.9c0,0,9.8,2.4,12.8,0c0,0-16.6,8.3-12.8,18 M204.1,1064
			c0,0-8.5,14.9,8.1,24.9s33.9,3,33.9,3 M229.4,1094.3c0,0-18.7,4-26.6,17.6c-4.7,8.1-4.8,18.6-2.4,23.4c2.1,4.1,6.2,9.4,17.6,5.6
			 M240.2,1136.5c0,0-0.5,8.5-14.8,7.6s-9.9-18.6-9.9-18.6 M233.3,1122.1c0,0-0.6,16.8,14.3,14.7c14.9-2.1,11.2-18.8,11.2-18.8
			 M352.8,1011.2c0,0,8.5,15.4,1,29.2 M356.9,1030.8c0,0,6.4,2.1-4.1,18.5 M356.9,1026.6c0,0,4.3-10.8,11.7-13.5
			c-1.7,2.9-2.3,6.4-1.8,9.7 M362.3,1031.4c0,0,5-17.7,23.5-19.1 M369.4,1020c0,0,15.2-8.5,25.8,0c0,0-6.4-1.3-9.4,0.8
			c0,0,15.1,1.1,18.3,19.4 M430.5,1005.2c0,0-12.1-3.5-18.9,6.2s-8.5,39.6-8.5,39.6 M423,1009.4c0,0,9.9-10.5,26.6-1.6
			s3.4,22,3.4,22 M347.6,1086c29.4-28.6,39.3-13.6,45.1-3.1c3.1,5.7,11.3,17.4,26-12.1s27.9-26.4,27.9-26.4s4,7.9,6.1-11.4
			s-16.9-11.1-16.9-11.1 M300.2,1105.7c2.8,1.9,6.5,1.9,9.3,0"/>
	</g>
</g>
</svg>
