<?xml version="1.0" encoding="utf-8"?>
<!-- Generator: Adobe Illustrator 22.1.0, SVG Export Plug-In . SVG Version: 6.00 Build 0)  -->
<svg version="1.1" id="Layer_1" xmlns="http://www.w3.org/2000/svg" xmlns:xlink="http://www.w3.org/1999/xlink" x="0px" y="0px"
	 viewBox="0 0 1920 1090" style="enable-background:new 0 0 1920 1090;" xml:space="preserve">
<style type="text/css">
	.st0{display:none;}
	.st1{display:inline;fill:none;stroke:#3D1717;stroke-linecap:round;stroke-linejoin:round;}
	.st2{display:inline;fill:#ECA6A9;}
	.st3{display:inline;fill:#3C1919;}
	.st4{display:inline;fill:#EE509A;}
	.st5{display:inline;fill:none;stroke:#3C1919;}
	.st6{display:inline;fill:#E2625C;}
	.st7{display:inline;fill:#C68572;}
	.st8{display:inline;fill:#3D1717;}
	.st9{display:inline;fill:#F6F1D7;}
	.st10{display:inline;fill:#AB6E63;}
	.st11{display:inline;fill:#E2DCC0;}
	.st12{display:none;fill:#A6D8D7;}
	.st13{fill:#F5F5F5;}
	.st14{fill:#ECA6A9;}
	.st15{fill:#3D1717;}
	.st16{fill:#3C1919;}
	.st17{fill:#E2625C;}
	.st18{fill:#7E3BEB;}
	.st19{fill:#CBC0C0;}
	.st20{fill:#736157;}
	.st21{fill:#726259;}
	.st22{fill:#C99E92;}
	.st23{fill:#2ADFDF;}
	.st24{fill:#D45E6E;}
	.st25{fill:#E7F4F4;}
</style>
<title>Artboard 1</title>
<g id="_9.-Insider-tips">
	<g id="werewolf" class="st0">
		<path id="Stroke-5" class="st1" d="M247.8,1222.3c8.6,5.2,18.1,12.8,25.3,23.3 M238.3,1217.3c1.7,0.8,3.5,1.7,5.4,2.7
			 M230.8,1214.2c1,0.4,2.1,0.8,3.3,1.3 M226.1,1212.6c0,0,0.4,0.1,1.3,0.4"/>
		<polyline id="Fill-6" class="st2" points="348.5,1229.8 351.7,1239.3 341,1237.4 348.5,1229.8 		"/>
		<polygon id="Stroke-7" class="st1" points="348.5,1229.8 351.7,1239.3 341,1237.4 		"/>
		<polyline id="Fill-8" class="st2" points="354.8,1248.8 351.7,1239.3 362.4,1241.2 354.8,1248.8 		"/>
		<polygon id="Stroke-9" class="st1" points="354.8,1248.8 351.7,1239.3 362.4,1241.2 		"/>
		<path id="Fill-10" class="st2" d="M348.4,1243c-0.6-2.6,1-5.3,3.7-5.9c2.7-0.6,5.3,1,5.9,3.7c0.6,2.6-1,5.3-3.7,5.9
			C351.7,1247.3,349,1245.7,348.4,1243L348.4,1243"/>
		<path id="Stroke-11" class="st1" d="M348.4,1243c-0.6-2.6,1-5.3,3.7-5.9c2.7-0.6,5.3,1,5.9,3.7c0.6,2.6-1,5.3-3.7,5.9
			C351.7,1247.3,349,1245.7,348.4,1243L348.4,1243z"/>
		<polyline id="Fill-12-2" class="st3" points="265.4,1252.6 275.9,1253.3 269.9,1261.8 265.4,1252.6 		"/>
		<polygon id="Stroke-13" class="st1" points="265.4,1252.6 275.9,1253.3 269.9,1261.8 		"/>
		<polyline id="Fill-14-2" class="st3" points="287.5,1254.5 277,1253.8 282.9,1245.3 287.5,1254.5 		"/>
		<polygon id="Stroke-15" class="st1" points="287.5,1254.5 277,1253.8 282.9,1245.3 		"/>
		<path id="Fill-16-2" class="st4" d="M279.2,1258.5c-2.5,1.2-5.5,0.2-6.7-2.3c-1.2-2.5-0.2-5.5,2.3-6.7c2.5-1.2,5.5-0.2,6.7,2.3
			l0,0l0,0C282.7,1254.2,281.7,1257.3,279.2,1258.5"/>
		<path id="Stroke-17" class="st5" d="M279.2,1258.5c-2.5,1.2-5.5,0.2-6.7-2.3c-1.2-2.5-0.2-5.5,2.3-6.7c2.5-1.2,5.5-0.2,6.7,2.3
			l0,0l0,0C282.7,1254.2,281.7,1257.3,279.2,1258.5z"/>
		<path id="Fill-18-2" class="st6" d="M310.1,1272.3c0,1.1-1,2-2.1,1.9c-1.1,0-2-1-1.9-2.1c0-1.1,1-2,2-1.9
			C309.3,1270.3,310.2,1271.2,310.1,1272.3L310.1,1272.3L310.1,1272.3"/>
		<path id="Stroke-19" class="st5" d="M310.1,1272.3c0,1.1-1,2-2.1,1.9c-1.1,0-2-1-1.9-2.1c0-1.1,1-2,2-1.9
			C309.3,1270.3,310.2,1271.2,310.1,1272.3L310.1,1272.3z"/>
		<path id="Stroke-20" class="st1" d="M255.2,1260.8c1.5,2.2,3.1,4.7,4.8,7.5 M247.9,1251c1,1.2,2.1,2.6,3.3,4.3 M243.2,1245.5
			c0,0,0.8,0.7,2.1,2.4"/>
		<path id="Fill-21-2" class="st6" d="M269.5,1279.1c-0.1,2.5-2.1,4.4-4.6,4.4c-2.5-0.1-4.4-2.1-4.4-4.6c0.1-2.5,2.1-4.4,4.6-4.4
			l0,0l0,0C267.6,1274.5,269.6,1276.6,269.5,1279.1"/>
		<path id="Stroke-22" class="st5" d="M269.5,1279.1c-0.1,2.5-2.1,4.4-4.6,4.4c-2.5-0.1-4.4-2.1-4.4-4.6c0.1-2.5,2.1-4.4,4.6-4.4
			l0,0l0,0C267.6,1274.5,269.6,1276.6,269.5,1279.1z"/>
		<path id="Fill-23-2" class="st7" d="M177.7,1295.6c2.3-8.9,0.6-15.1-1.8-19.2c0,0,0.6-12.6-10.4-16.9c-6.7-2.6-20.2-1.7-29.9-0.6
			c17.1-7.5,14.6-22.3,14.6-22.3c2.8,2.4,2.9,9,2.9,9c5.7-11.9-5.5-24.5-5.9-25l0,0c-1.1-0.7-2.3-1.3-3.5-1.8
			c3.2-1.4,6.6-1.5,10-0.5c-4.4-6.6-15.8-8.3-15.8-8.3l0,0c5.2-1.4,9.9-4,14.1-7.4c8.5-0.2,20.3-2.5,27.2-14.1
			c2,1.1,4.2,1.7,6.4,1.7c-9.3,25.8,8.3,11,8.3,11c0.8,10,14.7-4.1,17.3-6.9c0.1-0.1,0.2-0.1,0.1-0.2l0.2-0.1l0.1,0
			c1.4,26.9,8.2-0.8,8.5-2c-1.4,11.9,5.1,14,5.1,14c-3.3-15.5,6.8-18.9,7.9-19.1l0,0l0.1,0c38.5,19.2,44.1-0.9,44.1-0.9
			c18.4,6.4,16.9-1.5,17.1-6c1.1-28.5-35.8-46-36.7-46.4c2.5-4.5,7.2-15,4.6-26.1c0,0,0.3,5.3-2.6,7.8c0,0,2-8.2-5.3-19.5
			c4.8-12.4,5.5-26,2.1-38.8c-0.8-2.8-1.3-5.5-1.7-8.4l0-0.1c-0.1-0.8-0.2-1.6-0.2-2.4l0,0c-0.3-2.9-1.2-7.4-4.3-9.7
			c0,0-26.2-9.9-47.8,37.6c0,0-7.3-1-11.9-9.4c0,0-1.1,1.8,4.5,11.2c-0.1,0-0.3,0-0.4,0c-1.8-0.2-8.4-1.7-13.5-9.4
			c0,0-1.5,5.5,2.6,12.1c-0.4-0.6-7.1-10.5-21.8-5.7c0,0,11.8,7,12.8,14.8c-4-0.2-7.8-0.9-11.5-2.1l-0.1,0.1
			c2.2,0.7,4.4,1.6,6.3,2.9c2.6,1.7,4.9,3.7,6.9,6l0,0c0.3-0.3,0.7-0.6,1-0.9c3.5-2.7,7.5-2.7,11.4-0.3c2.2-3.4,8.7,0.6,8.7,0.6
			c-1.3,1.9-2.3,4.1-2.9,6.4c-0.4,1.4-0.8,2.9-0.9,4.2c-0.5,2.8-0.6,5.6-0.5,8.4c0.1,1.6,0.2,3.3,0.4,5.1c0.3,2.7,0.8,5.2,1.5,7.9
			c0.4,1.8,1,3.6,1.5,5.4c0.4,1.4,0.9,2.9,1.4,4.3c0.4,1.1,0.8,2.2,1.2,3.2c0.5,1.4,1.1,2.7,1.6,4c1.2,2.7,2.2,5.1,3.4,7.2
			c0.6,1.3,1.3,2.4,1.9,3.5c1.4,2.4,3,4.7,4.8,7c0.7,0.9,1.5,1.7,2.3,2.4c1.7,1.5,3.7,2.7,5.8,3.3c0,0-3.1,7.7-7.5,4.8
			c-3.6,2.6-7.9,3.9-12.3,3.9c-2.8-0.2-5.6-1-8-2.5c-1.9-1.2-3.6-2.5-5.1-4.2c-1.8-1.9-3.4-4.1-4.8-6.5c-1.2-2.1-2.3-4.2-3.4-6.4
			c-1-2.2-2.1-4.8-3-7.5c-0.1-0.3-0.1-0.5-0.3-0.8c-0.6-1.6-1.1-3.2-1.5-4.8c-0.6-2.1-1.2-4.1-1.7-6.2c-0.4-1.6-0.7-3.1-1-4.6
			c-0.8-4.3-1.4-8.7-1.5-13.1l0.2-0.5c-3.7-1.7-7.6-2.7-11.7-3.1c-5.3-0.6-13.7,0.9-16-14c0-0.2-0.1-0.4,0-0.6l-0.2,0
			c0,0-15.7,6.2-23.8-4.9c0,0,1.5,6.6,5.7,9.4c-2.6-1.4-13.1-6.4-20.6-0.2c0,0,6.6-0.5,9.8,3.3c0,0-10.8-1.9-19.7,1
			c0.3-0.6,7-14.6-1.1-25.5l-3.6,11c-1.7-3.2-3-6.5-3.9-10l-0.2-0.8c-2.3-8.5-7.6-15.8-15-20.5c0,0-0.1,8.1,2.1,11.5l0.8,0.8
			c-0.4-0.2-0.5-0.5-0.8-0.8c-1.4-1.5-2.9-2.9-4.6-4.3c0,0-16.5-4.8-22.4,13.6c-1.8,5.8-2.3,12-1.2,18l-0.1,0
			c0,0-8.2-17.3-23.4-21.8c-9-2.7-19.3-0.4-23.4,3.1c-3.5,3-7.7,8.2-1.4,18.4c-1.5,2.4-2,5.2-1.3,7.9c2.4,14.1,10.8,12.5,10.8,12.5
			L4,1122c-0.3,2.4-0.1,4.9,1,7.2c5.5,14,20.9,6.5,20.9,6.5c-0.4,5.7,4.2,11.3,4.2,11.3c-1.6,2.3-2.3,5.7-1.8,10.2
			c1.8,14.1,12.1,20.7,17.4,17.3c0.6-0.5,1.3-0.9,1.8-1.5c-1.2,3.2-0.3,6.8,2.1,9c-0.8-0.2-1.5-0.4-2.3-0.5
			c-6.2-0.7-12.5,9.8-7.7,23.2c1.5,4.4,3.8,7,6.2,8.3c0,0-3,12.9,6.5,16.1c2.8,1,5.8,1.1,8.6,0.3l0,0c0,0,12.7,7.8,16.9-7
			c0.6-2.7,0.5-5.5-0.3-8.1c34.6,21.9,22.3,35,13.4,43.1c-4.8,4.3-14.4,15,17.9,22.5s32.1,21,32.1,21s-6.8,5.7,12.5,3.3
			c1.1-0.2,2.2-0.3,3.2-0.5l0,0C157,1304,172.8,1313.8,177.7,1295.6"/>
		<path id="Fill-24-2" class="st8" d="M211.5,1171.2c-4.3-2.9,1.8-8.4,1.8-8.4c-0.8-0.8-1.6-1.7-2.3-2.5l-0.2,0.1c0,0-5,4.7-8.1,0.8
			c-3.2-3.9,3.1-7.7,3.6-7.9c-0.6-1.1-1.2-2.2-1.9-3.5l-0.4,0.2c0,0-5.6,3.6-7.7-1.1c-1.9-4.4,4.2-6.3,4.2-6.3l0.5-0.2
			c-0.5-1.3-1-2.6-1.6-4l-0.7,0.3c0,0-6,3-7.4-1.8c-1.4-4.5,5.5-6,5.5-6l0,0c-0.6-1.9-1.1-3.7-1.5-5.5c0,0-6.2,2.5-7.3-2.4
			c-1.1-4.6,5.9-5.6,5.9-5.6l0,0c-0.2-1.8-0.3-3.5-0.4-5.1c0,0-6,0.5-6.7-4.1l0-0.5c-0.3-5.1,7.2-4.1,7.2-4.1l0,0
			c0.2-1.4,0.4-2.9,0.9-4.2c0,0-7.8-1.1-6.2-6.2c0.1-0.3,0.3-0.6,0.4-0.9c-4-2.4-8-2.4-11.4,0.2c1.5,0.7,6.4,3.1,4.1,8
			c1.4,2.4,2.4,5.2,2.9,7.9c0.8,4.1,0.1,7.8-2.1,10.1c0.7,1.7,1.2,3.5,1.5,5.3c0.9,5.8-2.7,8.8-6.3,10.2l0.2,0.4
			c0.8,0.6,1.3,1.4,1.4,2.4c0.9,4.6-5.4,5-5.4,5l-0.1,0c0.5,1.6,1,3.2,1.6,4.9l0.3,0.8l0.7-0.3c0,0,6-3.1,7.5,1.7
			c1.5,4.5-4.9,6-4.9,6l-0.3,0.1c0.9,2.2,2.1,4.4,3.4,6.5l0,0c0,0,4.5-5.1,7.5-1.2c2.9,3.6-2.8,7.7-2.8,7.7l0,0
			c1.5,1.7,3.2,3,5.1,4.2c0.4-0.6,3.1-5.9,7-3.1c2,1.5,1.7,3.6,1,5.4l-0.1,0.2C203.7,1175.1,208,1173.8,211.5,1171.2"/>
		<path id="Fill-25-2" class="st9" d="M177.1,1092.6c-0.2,0.3-0.6,0.6-0.8,0.9l0,0c2,2.6,3.5,5.4,4.9,8.4
			C183.1,1096.6,178.5,1093.4,177.1,1092.6"/>
		<path id="Fill-26-2" class="st9" d="M193.3,1117.6L193.3,1117.6c0,0-6,0.7-4.8,5.8c1.3,5.4,6.5,3,6.5,3
			C194.2,1123.2,193.6,1120.3,193.3,1117.6"/>
		<path id="Fill-27-2" class="st9" d="M197.6,1170.2c-3.9-2.2-7.1,2.4-7.5,3c2.6,1.2,5.4,1.8,8.2,1.8l0.1-0.2
			C199.2,1173.2,199.6,1171.4,197.6,1170.2"/>
		<path id="Fill-28-2" class="st9" d="M188.5,1160.2c-3.5-4.3-8.4,1.4-8.4,1.4l0,0c1.5,2.6,3.3,5,5.3,7.2l0,0
			C185.4,1168.8,191.9,1164.3,188.5,1160.2"/>
		<path id="Fill-29-2" class="st9" d="M184.2,1148.4c-1.6-5.2-7-2-7-2l-0.6,0.2c1,3,2,5.7,3,8.2l0.2,0
			C179.8,1154.7,185.7,1153.3,184.2,1148.4"/>
		<path id="Fill-30-2" class="st9" d="M179.4,1137c-0.1-0.9-0.5-1.6-1.2-2.2l-0.2-0.3c-1.6,0.7-3.3,1.2-5,1.4
			c0.4,1.8,0.9,3.6,1.5,5.5l0,0C174.5,1141.5,180.2,1141.1,179.4,1137"/>
		<path id="Fill-31-2" class="st9" d="M211.5,1172.6c4.8,3.4,8-5.3,8-5.3c-2.4-0.9-4.4-2.2-6.1-4.1
			C213.4,1163.2,206.8,1169.3,211.5,1172.6"/>
		<path id="Fill-32-2" class="st9" d="M202,1161.2c3.6,4.2,9.3-1,9.3-1l0.2-0.1c-2-2.3-3.8-4.8-5.4-7.6
			C205.7,1152.9,198.6,1157.1,202,1161.2"/>
		<path id="Fill-33-2" class="st9" d="M205.1,1150.1c-1.1-2.3-2.2-4.9-3.4-7.8l-0.4,0.2c0,0-5.5,1.9-3.7,6.5c2,4.9,7.1,1.3,7.1,1.3
			L205.1,1150.1"/>
		<path id="Fill-34-2" class="st9" d="M199.5,1139.3c-0.4-1.1-0.8-2.3-1.2-3.5c-0.6-1.6-1.1-3.1-1.4-4.7l-0.1,0c0,0-6.3,1.4-4.9,6.3
			c1.5,5.2,7.1,2.2,7.1,2.2L199.5,1139.3"/>
		<path id="Fill-35-2" class="st9" d="M194.2,1103.8c0,0-8.4-1.2-8.1,4.5l0,0.5c0.7,5.1,7.5,4.5,7.5,4.5
			C193.5,1110.2,193.7,1107,194.2,1103.8L194.2,1103.8"/>
		<path id="Fill-36-2" class="st9" d="M198.9,1093.4c0,0-7.5-4.4-10-0.6c-0.2,0.4-0.4,0.6-0.5,1c-1.9,5.7,7.1,6.8,7.1,6.8
			C196.3,1098.1,197.4,1095.7,198.9,1093.4"/>
		<path id="Fill-37-2" class="st6" d="M177.1,1135.4c3.5-1.6,7.2-4.6,6.4-10.4c-0.2-1.8-0.8-3.6-1.5-5.3c2.3-2.4,2.9-5.9,2.2-10.1
			c-0.5-2.7-1.5-5.5-2.9-7.9c-1.4-2.5-3.1-5-5.1-7.1c-2.1-2.3-4.3-4.3-6.9-6.1c-1.9-1.3-4-2.3-6.4-3c-11.4-3.4-23.2,3-21.8,15.2
			c0,0.2,0,0.4,0,0.6c2.3,15,10.7,13.6,16,14.2c3.7,0.4,7.4,1.2,10.8,2.7l2.4,14l-0.2,0c0.2,1.5,0.6,3,1,4.7
			C173.3,1136.8,175.2,1136.3,177.1,1135.4"/>
		<path id="Fill-39-2" class="st10" d="M162.3,1269.9c5.1,0.1,9.9,2.3,13.5,5.8c-2.7-4.9-12.7-18.9-37-17.1c-1,0.1-2,0.2-2.9,0.3
			c11.8-10.6,6.1-25.6,6.1-25.6c4.2,0.7,4.3,8.1,4.3,8.1c2.9-9.7-8.6-18.7-8.6-18.7c4.4-0.4,6,2.6,6,2.6c-2.9-9.5-22-9.5-14.6-13.5
			c3.2-1.6,6.6-2.4,10.2-2.5c4.7-1.5,9.1-4,12.9-7.2c0.7-0.1,1.4,0,2.1-0.1l7.5-2.4c-5.2,0.9-11.7-0.5-11.7-0.5
			c24.1-3.2,25.7-11.7,25.7-11.7c-2.8,2.4-11.6-1.1-11.6-1.1c12.5-3,13.3-11.9,13.3-11.9c0.6,11.6,8.4,15.3,8.4,15.3
			c-5.7,15.8-1.4,16.5,2.9,14.6c20-26.2,10.8-7.4,7.1-0.3c4,1.9,13.6-8,15.8-10.2l0.2-0.3c0.1,0,0.1-0.1,0.2-0.1l0.1,0
			c0.5,8.9,1.5,11.9,2.7,11.8c0,0,7.2-31.7,7.2-3.3c0.8,1.6,2.1,2.8,3.7,3.5c-3.3-15.6,6.8-19,7.9-19.2l0,0l0.1,0l0.1,0.1
			c6.7-7.9,29.8-1,29.8-1s-14.9,0-7.3,3.3c4.6,2,12.1,2.5,17.4,2.6c2-1.5,3.5-3.5,4.4-5.8c7.4,2.7,11.7,2.9,14,1.9
			c0,0,4.9-18-12.1-34.1c-17-16.1-31.3-18.3-31.3-18.3s9.8-5.9,12.2-14.9c0,0-4,4.9-5.7,5c0,0,5-16.5-5.8-28.9c0,0,11.7-15.9,0.2-59
			l-1.1,4.2l-0.9-3.7c0,0-24.2-1.4-42.4,34.4l-1.9,0.1l-0.2,0.5c0,0-7.4-1.1-12-9.4c0,0-1.1,1.8,4.5,11.2l-0.4-0.1
			c-1.8-0.2-8.4-1.7-13.6-9.5l-0.1,0.2c0.9,5.1,3.1,10,6.4,14c0,0-16.2-6.8-25.2-7.5c2,1.3,11.6,7.6,12.4,14.6
			c-4-0.2-7.8-0.9-11.6-2.2l-0.1,0.1c2.2,0.7,4.4,1.6,6.4,3c2.6,1.7,4.9,3.7,6.9,6l0,0c0.3-0.3,0.7-0.6,1-0.9
			c3.5-2.7,7.6-2.7,11.5-0.3c2.2-3.4,8.8,0.6,8.8,0.6c-1.3,1.9-2.3,4.1-2.9,6.4c-0.4,1.4-0.7,2.8-0.9,4.2c-0.5,2.8-0.6,5.7-0.4,8.5
			c0.1,1.6,0.2,3.3,0.4,5.1c0.3,2.7,0.9,5.3,1.5,8c0.4,1.8,1,3.6,1.5,5.5c0.4,1.4,0.9,2.9,1.4,4.3c0.4,1.1,0.8,2.2,1.2,3.2
			c0.5,1.4,1.1,2.8,1.6,4c1.2,2.7,2.2,5.1,3.4,7.3c0.6,1.3,1.3,2.4,1.9,3.5c1.4,2.4,3,4.8,4.8,7c0.8,0.9,1.7,1.8,2.3,2.5
			c1.6,1.7,3.6,2.9,5.7,3.6c0,0-3.1,7.8-7.6,4.8c-3.6,2.6-7.9,4-12.3,3.9c-2.8-0.2-5.6-1-8-2.5c-1.9-1.2-3.6-2.5-5.1-4.2
			c-1.8-1.9-3.4-4.1-4.8-6.5c-1.2-2.1-2.3-4.2-3.4-6.4s-2.1-4.8-3-7.5c-0.1-0.3-0.1-0.5-0.3-0.8c-0.6-1.6-1.1-3.2-1.6-4.9
			c-0.6-2.1-1.2-4.1-1.7-6.2c-0.4-1.6-0.7-3.1-1-4.6c-0.8-4.4-1.4-8.8-1.5-13.3l0.2-0.5c-3.7-1.7-7.7-2.7-11.8-3.1
			c-5.1-0.5-12.9,0.7-15.6-11.8l0,0c0,0-8.8,5.4-14.4,3.1l6.6,4.1c0,0-9.1-4.9-12.9-4c0,0,12.3,2,15.8,11.2c0,0-23.3-11.1-39.7-5.1
			c-9.1,3.3-8.7,2.1-7.7-0.3c1.3-3.4,1.3-14.5,1.3-14.5s-1.9,7.4-4,6.8c-2.1-0.6-5.5-25.5-13.6-24.1s-11.5,6.7-11.5,6.7
			s4.1-2.1,5.2-1.3c0,0-20.7,9.7-20.2,26.5c0,0-15.7-29.7-35.7-25.8c-11.4,2.2-16.7,7.2-19.1,11.2c0.6,1.5,1.3,3,2.2,4.3
			c-1.5,2.4-1.9,5.3-1.4,8c2.5,14.2,10.8,12.6,10.8,12.6l0.4,0.1c-0.3,2.4-0.1,4.9,0.9,7.3c5.5,14.1,21,6.5,21,6.5
			c-0.4,5.7,4.2,11.3,4.2,11.3c-1.6,2.3-2.3,5.7-1.8,10.3c1.8,14.2,12.1,20.9,17.5,17.3c0.6-0.5,1.3-0.9,1.8-1.5
			c-1.2,3.2-0.3,6.8,2.1,9c-0.8-0.2-1.5-0.4-2.3-0.5c-6.3-0.7-12.6,9.9-7.8,23.4c1.5,4.4,3.8,7,6.2,8.4c0,0-3.1,13.1,6.5,16.2
			c2.8,1,5.8,1.1,8.7,0.3l0,0c0,0,12.8,7.7,17-7c0.6-2.7,0.5-5.5-0.3-8.2c0.5,0.3,0.8,0.5,1.2,0.8c2.2-0.5,25.1-6.1,30,10.2
			c0,0-4.5-7.2-11.6-5.3c0,0,21.1,24.5-3.2,35l0,0c-0.9,0.9-1.9,1.9-2.8,2.7c-4.8,4.4-14.4,15.1,17.9,22.6s32.3,21.1,32.3,21.1
			s-5,4.2,5.8,3.9c7.5-3.6,15.4-10.1,11.2-20.7c0,0,3.8-0.8,6,10.3l-0.4,3.7l-2.4,3.3l-3.6,2l-0.8,0.4c2.9,1.7,6.2,2.6,9.6,2.7
			C171.6,1301.2,177.1,1289,162.3,1269.9"/>
		<path id="Stroke-40" class="st1" d="M171.3,1247.1c-0.4,0.4-0.9,0.8-1.4,1.3 M176.7,1240.7c-0.7,1.2-1.7,2.4-2.6,3.4 M183.1,1223
			c-0.6,5.2-2.2,10.3-4.7,14.9 M183.5,1216.9c0,1.2-0.1,2.7-0.1,4.1 M183.1,1211.5c0,0,0.1,1,0.2,2.7 M178.2,1260.1
			c-0.4,0.3-0.8,0.7-1.2,1 M181.9,1256.5c-0.7,0.8-1.5,1.5-2.2,2.3 M196.3,1219.8c-0.4,9-2.7,22.2-11.7,33.7 M196.2,1212.5
			c0,0.9,0.2,2,0.1,3.2 M195.9,1209c0.1,0.5,0.1,1,0.1,1.4 M313,1205.6c10.9,5.7,20.7,13.4,28.8,22.7 M298.3,1199.3
			c2.3,0.8,5,1.8,8.1,3.1 M289.7,1197c0,0,1.2,0.2,3.4,0.7"/>
		<path id="Fill-41-2" class="st11" d="M179.8,1099.9c0.5,0.7,0.8,1.3,1.2,2.1c2.2-4.6-1.5-7.3-3.6-8.4
			C179,1094.9,180.7,1096.9,179.8,1099.9"/>
		<path id="Fill-42" class="st11" d="M199,1093.7l-0.1-0.1c-0.5,0.6-0.9,1.4-1.4,2.4C197.9,1095.2,198.4,1094.5,199,1093.7"/>
		<path id="Fill-43" class="st11" d="M196.2,1099.4c-1.1-0.3-7.9-1.7-6.4-6.7l0,0l-0.1,0.1c-0.1,0.2-0.3,0.6-0.4,0.9
			c-1.6,5.5,6.5,6.8,6.5,6.8C196,1100.2,196.1,1099.9,196.2,1099.4"/>
		<path id="Fill-44" class="st11" d="M195,1126.3c-0.7-3.1-1.3-6.1-1.7-8.8l0,0l-0.1,0c0.3,2.3,0.8,4.8,1.5,7.5c0,0-4.7,2.2-6.3-2.3
			l0.1,0.6C189.8,1128.7,195.1,1126.3,195,1126.3"/>
		<path id="Fill-45" class="st11" d="M196.6,1170.4c1.8,1.2,1.5,2.9,0.8,4.4c0.3,0,0.7,0,1,0.1l0.1-0.2c0.7-1.5,1.1-3.3-0.8-4.5
			c-1-0.7-2.2-0.8-3.3-0.4C195.2,1169.8,196,1170,196.6,1170.4"/>
		<path id="Fill-46" class="st11" d="M187.2,1159.6c2.6,3.3-1.3,6.8-2.6,7.8c0.4,0.4,0.7,0.9,1.1,1.3l0,0c0,0,6.1-4.2,2.9-8.1
			c-0.5-0.6-1.2-1.2-2-1.4C186.9,1159.4,187,1159.6,187.2,1159.6"/>
		<path id="Fill-47" class="st11" d="M182.8,1147.4c1.1,3.2-2.4,4.8-3.8,5.2c0.2,0.4,0.3,0.8,0.5,1.1l0.2,0c0,0,5.7-1.4,4.4-5.5
			c-0.3-1.1-1.1-1.9-2.1-2.3C182.4,1146.4,182.6,1146.9,182.8,1147.4"/>
		<path id="Fill-48" class="st11" d="M179.4,1136.9c-0.1-0.3-0.1-0.6-0.2-0.9c0.5,4-4.9,4.2-4.9,4.2l-0.1,0
			c-0.5-1.5-0.8-3.1-1.3-4.6l0,0c0.4,1.8,1,3.8,1.6,5.7l0,0C174.5,1141.5,180.2,1141.1,179.4,1136.9"/>
		<path id="Fill-49" class="st11" d="M218.8,1164.4c-0.2-0.1-0.4-0.1-0.8-0.2c-1.1,1.8-4.1,5.6-7.6,3.8c-0.6-0.3-1-0.7-1.2-1.2
			c0,1,0.5,1.8,1.5,2.2C215.2,1171.4,218.8,1164.4,218.8,1164.4"/>
		<path id="Fill-50" class="st11" d="M211.2,1159.6l0.2-0.1c-0.3-0.2-0.5-0.5-0.7-0.8c-1.1,0.8-6.1,3.8-9,1
			c-0.3-0.2-0.4-0.5-0.6-0.8c0,0.7,0.3,1.4,0.9,1.9C205.4,1164.1,211.2,1159.6,211.2,1159.6"/>
		<path id="Fill-51" class="st11" d="M204.6,1149.4l0.4-0.2l-0.4-0.9l-0.1,0c0,0-5.2,3.2-7-0.8l0-0.1c0,0.4,0.1,0.8,0.3,1.2
			C199.4,1152.6,204.6,1149.4,204.6,1149.4"/>
		<path id="Fill-52" class="st11" d="M198.5,1137.7l0.6-0.2l-0.3-0.9l-0.5,0.2c0,0-5.4,2.5-6.8-1.3c0.1,0.3,0.1,0.5,0.2,0.8
			C193,1140.5,198.5,1137.8,198.5,1137.7"/>
		<path id="Fill-53" class="st11" d="M193.8,1111.1c-1.1,0.1-6,0.2-6.5-3.7l0-0.5l0.1-0.2c-0.2,0.5-0.3,1-0.3,1.5l0,0.5
			c0.6,4.3,6.7,3.6,6.7,3.6L193.8,1111.1"/>
		<path id="Fill-54" class="st4" d="M176.4,1132.6c3.5-1.6,7.3-4.5,6.5-10.1c-0.2-1.8-0.7-3.5-1.4-5.1c2.3-2.3,2.9-5.8,2.3-9.8
			c-0.5-2.7-1.5-5.3-2.8-7.7c-1.4-2.4-3.1-4.8-5-6.9c-1.9-2-4-3.9-6.3-5.4c3.6,4.2,5.4,9.8-0.8,13.6c0,0,5.9,11-1.7,10.9
			c-3.9-0.1-0.7-0.3-11.1-1.7c-11.7-1.5-13.9-15-14.4-17.7c-0.8,2-0.9,4.2-0.7,6.4c0,0.2,0,0.4,0,0.6c2.2,14.5,10.6,13,15.9,13.6
			c3.7,0.4,7.4,1.2,10.8,2.6l2.3,13.5l-0.2,0c0.2,1.5,0.6,2.9,1,4.5C172.6,1133.9,174.5,1133.3,176.4,1132.6"/>
		<path id="Stroke-55" class="st1" d="M198.8,1092.7c0,0-11.3,12-0.4,42.8c10.9,30.7,21.9,31,21.9,31 M194.1,1117.9
			c0,0-7,1.1-6.1,5.6c1.2,4.9,7.4,2.3,7.4,2.3 M193.7,1112.8c0,0-6.6,0.6-6.9-4.4c-0.3-5.1,7.4-4,7.4-4 M195.1,1100.1
			c0,0-8-1.1-6.3-6.1s9.3-0.4,9.3-0.4 M197,1131.2c0,0-7,1.6-5.6,6c1.5,4.8,7.6,1.7,7.6,1.7 M200.8,1142.9c0,0-6.2,2-4.4,6.3
			c2,4.6,7.7,0.9,7.7,0.9 M211.2,1160.5c0,0-5.1,4.7-8.3,0.8c-3.2-3.9,3.7-7.9,3.7-7.9 M219.4,1166.4c0,0-3.2,7.7-7.6,4.8
			c-4.4-3,1.9-8.4,1.9-8.4 M189.2,1093.1c-4.4-2.6-8.9-2.3-12.7,1.2 M211.8,1171.2c0,0-22.9,18.2-37.1-23.9
			c-3.8-11.1-5.4-20.7-5.6-28.7 M170.8,1136.5c0,0,13.8-1.4,12.3-11.9c-1.7-10.1-8.1-18.8-17.1-23.6 M176.1,1127.4
			c0.8-1.2,0.4-3.7-1.7-5.7c-4.7-4.6-12.1-6.1-17.1-6.5c-5.4-0.6-13.9,0.9-16.2-13.9s15.5-21.4,28.4-12.9
			c12.9,8.4,19.3,24.5,12.9,30.9 M173,1131.2c0.4-0.5,0.9-0.9,1.3-1.3 M178.2,1155.5c0,0,6.5-1.5,5.1-5.9c-1.5-4.8-7.6-1.7-7.6-1.7
			 M186.2,1168.4c0,0,5.9-4.1,2.9-7.7c-3.2-3.9-7.7,1.2-7.7,1.2 M191.1,1172.6c0,0,3.1-6.1,7.2-3.1c2,1.5,1.7,3.6,1,5.3
			 M173.2,1142.4c0,0,6.5-0.4,5.6-4.9c-0.1-1-0.7-1.9-1.4-2.4 M181.6,1101.3c2.9-5.7-4.2-7.5-4.2-7.5"/>
		<path id="Fill-56" class="st8" d="M237.6,1153.4c-6.1,4.5-13,5.7-15.4,2.4c-2.3-3.3,0.6-9.4,6.8-13.9c6.1-4.5,13-5.7,15.4-2.4
			S243.7,1148.9,237.6,1153.4"/>
		<path id="Stroke-57" class="st1" d="M227.4,1158.4c-1.9,0-3.7-0.8-4.9-2.2c-2.7-3.5,0.1-10,6.1-14.4c6-4.4,13.2-5.1,15.9-1.6
			c1.1,1.7,1.4,3.8,0.6,5.6 M230.1,1158.2c-0.3,0.1-0.7,0.2-1,0.1 M244.4,1147.6c-0.3,0.6-0.6,1.1-0.9,1.5"/>
		<path id="Fill-58" class="st8" d="M223.9,1095.8c-7.5-1.3-14.2,0.8-14.8,4.7c-0.6,3.9,4.8,8.1,12.3,9.4c7.5,1.3,14.2-0.8,14.8-4.7
			C236.8,1101.3,231.4,1097.1,223.9,1095.8"/>
		<path id="Stroke-59" class="st1" d="M212.3,1095c-1.8,0.8-2.9,2.3-3.4,4.2c-0.8,4.3,4.6,8.9,12,10.1c7.4,1.2,14.1-1.4,14.9-5.7
			c0.2-2-0.4-4-2-5.3 M214.8,1094c-0.3,0.1-0.7,0.2-0.9,0.3 M232.4,1097.1c-0.5-0.4-1-0.7-1.5-1"/>
		<path id="Fill-60" class="st8" d="M215.1,1115.5c0,0,8.1,12.7,5.8,24.3c0,0-7-0.6-12.4-9.9
			C208.6,1129.9,208.6,1119.4,215.1,1115.5"/>
		<path id="Stroke-61" class="st1" d="M208.2,1117.8c0,0-2.8,8.3-1.3,13.6c1,4.3,3.5,8,7,10.6L208.2,1117.8z M214.4,1116.9
			c0,0,8.6,12.4,5.7,24c0,0-7.6-0.4-13.3-9.5C206.9,1131.3,207.2,1120.9,214.4,1116.9z M253.8,1127.8c0,0.8,0,1.7-0.1,2.6
			L253.8,1127.8z M253.4,1121.2l0.2,1.5L253.4,1121.2z M256,1136.1c0,0,9.6-13.7,6.1-28.6c0,0,0.3,5.3-2.6,7.8c0,0,2.2-9.6-7.4-22.4
			c0,0,2,11,0.9,16.1c0,0-2.4-7.9-8.5-10.9c4.1,6.4,6.9,13.7,8.4,21.1L256,1136.1z M239.9,1064.3c0.7-2.5,0-5.1-1.9-7
			c-3.2-2.9-4.8,14.4-4.8,14.4c-1.7-2.5-3.2-5.1-4.1-8c-2.7-7.8-3.8,14.4-3.8,14.4s-2.6-1.4-4.1-7.4c-1.3-4.8-1,13.3-1,13.3
			s-8.5-2.2-7.2-9.8L239.9,1064.3z M254.1,1095.8c4.8-12.4,5.5-26,2.2-39c-4.8-17.5,1.4-16.8,1.4-16.8L254.1,1095.8z M254.6,1048.5
			c0,0,0.3-8.9-4.5-12.3c0,0-26.3-9.9-48.1,37.7c0,0-7.3-1-12-9.4c0,0-1.1,1.8,4.6,11.1c0,0-8.1-0.4-14.1-9.5c0,0-1.5,5.5,2.6,12.2
			c0,0-6.7-10.8-21.9-5.8c0,0,11.8,7.1,12.8,14.9c0,0-17.6,0-28.2-13.1L254.6,1048.5z M174,1087.4c0,0-15.1-5.1-17.9-12.2
			L174,1087.4z M194.1,1075.6c0,0-8.7-4.9-10.7-14.7L194.1,1075.6z M275.7,1171c0,0,5.1,1.8,4.4,12.5c0,0-1.4-8.6-14.9-16.6
			c0,0,14.4,21.8-3.3,3.9L275.7,1171z M264.7,1173.6c0,0,11.3,27.5-12.2-1.9L264.7,1173.6z M257.1,1177.4c0,0-2.3,13.9-11.5-5.8
			c0,0,3.3,18-4.4-1.9L257.1,1177.4z M257.4,1133.7c0,0,38.1,17.5,36.9,46.4c-0.2,4.6,1.3,12.5-17.2,6c0,0-5.7,20.2-44.4,0.9
			c0,0-6.7,5-3.4,16.5L257.4,1133.7z M232.8,1187.3c0,0-11.4,2.9-8,19.3c0,0-6.5-2.1-5.1-14c0,0-7.3,29.6-8.6,2
			c0,0-10.7,10.7-5.1,22.9L232.8,1187.3z M211.1,1194.4c0,0-16.9,18.4-17.8,7.3c0,0-17.6,15-8.3-11c0,0-11.7,0.2-9.5-10.3
			c0,0-7.3-10.5,1-6.2c0,0-8.7-5.9-8-10.8L211.1,1194.4z M156.7,1115.2c0,0-3.2,20.5,3.4,13.9c0,0-4.5,14.3-1.2,10.2L156.7,1115.2z
			 M130.1,1112.8c0,0-16.7-4.4-26.7,7.9c-8.8,10.6-2.9,17.1-2.9,17.1L130.1,1112.8z M107.1,1133.2c0,0-17.3,8.7-14.8,31.3
			L107.1,1133.2z M96.5,1159.4c0,0-9,17.4-18.7,4.4c0,0,4.7,17.5,19.9,23.1s22.1-5.2,22.1-5.2L96.5,1159.4z M105.5,1188.6
			c0,0,12.4,9.6,31.9-3L105.5,1188.6z M146.3,1187.1c-3.4,3.8-8.4,5.7-13.5,5.4L146.3,1187.1z M159,1187.1c-1.1,2.2-3.3,3.8-5.8,4.2
			L159,1187.1z M121.2,1192.1c-1.5,3-4.8,4.8-8.2,4.5c0,0,11.8,9.2,36.8,0.6c0,0-3.8,5-8.6,5.1c0,0,25.7,6.1,37.4-13.2L121.2,1192.1
			z M81,1180.3c0,0-8.4,7.1-27,5.2L81,1180.3z M57.6,1188.5c0,0-4.8-5.2-11.2-6s-12.6,9.9-7.8,23.3s16.3,10.8,19.1,2.4L57.6,1188.5z
			 M44.9,1214.2c0,0-3.1,13,6.5,16.1s16.8-3.2,17.5-10.8L44.9,1214.2z M60.1,1230.6c0,0,12.8,7.7,17-7c2-7.1-4.2-17.8-4.2-17.8
			L60.1,1230.6z M108.3,1195c0,0-22.5-2-38,13L108.3,1195z M76.6,1161.8c0,0-10.7-2.7-26.5,7.5L76.6,1161.8z M52.1,1165.1
			c0,0-2,6.8-7.3,10.4s-15.7-3.2-17.5-17.3s9.7-17,16-10.7L52.1,1165.1z M29.2,1147.9c0,0-8.6-10.2-1.4-17.3
			c7.1-7.1,16.5-4.7,20.5,1.8L29.2,1147.9z M35.4,1126.3c0,0,8-12.7,18.4-1.4c5,5.4,4.2,17.8,4.2,17.8L35.4,1126.3z M94.4,1136.4
			c0,0-19.2,11.9-39.8,5.4L94.4,1136.4z M140.4,1100.7c0,0-15.8,6.2-24-5c0,0,1.5,7.3,6.5,9.9c0,0-12.6-7.8-21.3-0.6
			c0,0,6.7-0.6,9.9,3.3c0,0-26-4.4-30.5,10.9L140.4,1100.7z M91.5,1109.3c0,0,7.3-14.4-1-25.6l-3.6,11c0,0-8.6-15.3-3-23.1
			L91.5,1109.3z"/>
		<path id="Stroke-62" class="st1" d="M83.9,1085.2c-2.1-9-7.6-16.7-15.3-21.6c0,0-0.1,10.1,3,12.5c0,0-11.9-14.2-20.5-8.3
			 M66.3,1070.8c0,0-16.5-4.8-22.4,13.6s4.9,33.7,4.9,33.7 M42.6,1102.4c0,0-8.2-17.3-23.3-21.8c-9-2.7-19.2-0.4-23.3,3.1
			c-3.5,3-7.7,8.2-1.4,18.4 M4.1,1122.6c0,0-8.4,1.5-10.8-12.6s15.8-13.9,15.8-13.9 M16.5,1112.6c0,0-16.5,3.3-11,17.3
			c5.5,14,20.9,6.6,20.9,6.6 M152,1203.2c0,0-13,11.8-28.2,7.7 M133.9,1211.8c0,0-0.6,6.7-18.9,0.3 M137.9,1210.8
			c0,0,11.5,1.7,15.8,8.3c-3.2-1-6.8-0.8-9.9,0.5 M134.5,1217.2c0,0,18.4,0.8,24,18.5 M147.2,1221.4c0,0,11.8,12.8,6,25.1
			c0,0-0.2-6.5-2.9-9c0,0,2.4,14.9-14.6,22.3 M175.8,1277.5c0,0,0.6-12.6-10.4-17c-11-4.4-40.5,0.9-40.5,0.9 M169.9,1271.1
			c0,0,12.5,7.2,7.7,25.5c-4.8,18.3-20.6,8.4-20.6,8.4 M78,1215.5c34.6,22,22.3,35.1,13.4,43.2c-4.8,4.3-14.3,15,17.8,22.5
			s32.1,21,32.1,21s-6.8,5.7,12.5,3.3s6.9-19,6.9-19 M47.9,1173.9c-1.2,3.2-0.3,6.8,2.1,9"/>
	</g>
</g>
<path id="Fill-4" class="st12" d="M525.2,938c0,0,2.2-2.4-2.2-3.7c-4.5-1.2-12-2.7-7.5-6.9c4.5-4.3,15.5,2.6,18.3,7.7
	c2.9,5.1,4.3,9.8,0,17.7c-3.2,5.9-4.5,24.9,16.5,30.4c21,5.5,27.1-2,27.3-15.3c0.1-7.1-4.7-49.9,32.2-49.9s35.6,26.3,43.6,41
	c8.6,15.7,22,15.9,34.8,7.9c12.8-7.9,7.5-31-1.8-37.3c-9.4-6.3-19.9-1.3-19-8.6c1-8.1,9.6-2.2,11.4-1c1.8,1.2,7.1,5.9,14.1-2.8
	c6.9-8.6,5.4-16.1,12.9-15.1c7.5,1-3.2,10.9-3.2,10.9s-7.3,7.3,0.8,5.5c8.2-1.8,9.2-12.6,14.5-10.8c5.3,1.8,2,7.7-3.9,11
	c-5.9,3.3-4.1,7.1,2,5.5c6.1-1.6,15.3-5.2,12.6,1.8c-2.1,5.7-21.9,1.2-24.3,11c-2.4,9.8,6.6,14.1,12.7,20.2c6.1,6.1,4.9,15.5-1.2,22
	c-6.1,6.5-12,11.2-0.6,18.5c11.4,7.3,11.9,14,0.1,16.6c-6.6,1.5-5.7,10.6-11.9,12.3c-2.3,0.6-5,0.5-7.8,0.4
	c-6.8-0.3-13.6-0.7-14.8,10.4c-1.1,10.8,2.2,15.3,10.5,24.7c10.6,12-4.6,21-21.4,20c-12.6-0.8-29.9,10.3-30.8,21.2
	c-0.7,9.4,4.7,20.8,15.7,8.6c0,0-3.8,16.1-17.8,10c-14.7-6.4-3.4-23.9-19.1-25.3c-15.7-1.4-31.1-5.6-31.8-23.6
	c-0.5-12.8-3.8-14.8-8.2-15.7c-3.8-0.8-10-0.4-6.7-13.9c3.3-13.5-6.5-10-13.7-6.5c-10.5,5.1-21-8.1-14.7-24.4
	c4.7-12.1-6.3-12-15.2-11.9c-3.1,0-6,0.1-7.8-0.4c-6-1.6-15-8.6-6.1-23.8c8.9-15.3,11.3-17.5,8.9-21.4c-1.6-2.6-4.4-0.2-5.3,0.8
	c-3.5,3.9-8.1,4.3-6.8-0.6s9-3.5,8.4-8.2c-0.6-4.7-6.5-2.6-9.4-2.5c-8.4,0.2-9.6-5.1-4.9-6.7c1.9-0.7,4.6,0.1,7.4,0.8
	C516.5,939.9,521.1,940.9,525.2,938"/>
<rect x="-23.7" y="-0.2" class="st13" width="1952.5" height="1088.5"/>
<g>
	<polyline id="Fill-13" class="st14" points="596.2,1035.4 588.9,1028 599,1025.4 596.2,1035.4 	"/>
	<path id="Fill-14" class="st15" d="M589.9,1028.3l6.1,6.2l2.3-8.4L589.9,1028.3 M596.2,1035.9c-0.1,0-0.3-0.1-0.4-0.1l-7.3-7.4
		c-0.1-0.1-0.2-0.3-0.1-0.5c0-0.2,0.2-0.3,0.4-0.4l10.1-2.6c0.2,0,0.4,0,0.5,0.1c0.1,0.1,0.2,0.3,0.1,0.5l-2.7,10
		c0,0.2-0.2,0.3-0.4,0.4L596.2,1035.9"/>
	<polyline id="Fill-15" class="st14" points="580.8,1020.4 588.2,1027.8 578.1,1030.5 580.8,1020.4 	"/>
	<path id="Fill-16" class="st15" d="M581.1,1021.4l-2.3,8.4l8.4-2.2L581.1,1021.4 M578.1,1031c-0.1,0-0.3-0.1-0.4-0.1
		c-0.1-0.1-0.2-0.3-0.1-0.5l2.7-10c0-0.2,0.2-0.3,0.4-0.4c0.2,0,0.4,0,0.5,0.1l7.3,7.4c0.1,0.1,0.2,0.3,0.1,0.5
		c0,0.2-0.2,0.3-0.4,0.4l-10.1,2.6L578.1,1031"/>
	<path id="Fill-17" class="st14" d="M589.8,1023.2c2.6,0.7,4.1,3.4,3.4,6c-0.7,2.6-3.4,4.1-6,3.4c-2.6-0.7-4.1-3.4-3.4-6
		C584.5,1024,587.2,1022.5,589.8,1023.2"/>
	<path id="Fill-18" class="st15" d="M588.5,1023.5c-0.8,0-1.5,0.2-2.2,0.6c-1,0.6-1.7,1.5-2,2.6c-0.3,1.1-0.2,2.3,0.4,3.3
		c0.6,1,1.5,1.7,2.6,2.1c2.3,0.6,4.7-0.7,5.4-3.1c0.6-2.3-0.7-4.7-3.1-5.4C589.3,1023.6,588.9,1023.5,588.5,1023.5 M588.5,1033.3
		c-0.5,0-0.9-0.1-1.4-0.2c-1.4-0.4-2.5-1.3-3.3-2.5c-0.7-1.2-0.9-2.7-0.5-4.1c0.4-1.4,1.3-2.5,2.5-3.3c1.2-0.7,2.7-0.9,4.1-0.5
		c2.9,0.8,4.6,3.7,3.8,6.6C593.1,1031.7,590.9,1033.3,588.5,1033.3"/>
	<polyline id="Fill-19" class="st16" points="548.8,1095.7 551.9,1085.8 558.9,1093.5 548.8,1095.7 	"/>
	<path id="Fill-20" class="st15" d="M552.1,1086.7l-2.6,8.3l8.5-1.8L552.1,1086.7 M548.8,1096.2c-0.1,0-0.3-0.1-0.4-0.2
		c-0.1-0.1-0.2-0.3-0.1-0.5l3.2-9.9c0.1-0.2,0.2-0.3,0.4-0.3c0.2,0,0.4,0,0.5,0.2l7,7.7c0.1,0.1,0.2,0.3,0.1,0.5
		c-0.1,0.2-0.2,0.3-0.4,0.3l-10.2,2.2L548.8,1096.2"/>
	<polyline id="Fill-21" class="st16" points="554.9,1075.1 551.8,1085 544.8,1077.3 554.9,1075.1 	"/>
	<path id="Fill-22" class="st15" d="M545.7,1077.6l5.8,6.4l2.6-8.3L545.7,1077.6 M551.8,1085.5c-0.1,0-0.3-0.1-0.4-0.2l-7-7.7
		c-0.1-0.1-0.2-0.3-0.1-0.5c0.1-0.2,0.2-0.3,0.4-0.3l10.2-2.2c0.2,0,0.4,0,0.5,0.2c0.1,0.1,0.2,0.3,0.1,0.5l-3.2,9.9
		c-0.1,0.2-0.2,0.3-0.4,0.3L551.8,1085.5"/>
	<path id="Fill-23" class="st17" d="M556.6,1084.4c0.6,2.6-1.1,5.2-3.7,5.8c-2.6,0.6-5.2-1.1-5.8-3.7c-0.6-2.6,1.1-5.2,3.7-5.8
		C553.5,1080.1,556,1081.7,556.6,1084.4"/>
	<path id="Fill-24" class="st16" d="M551.9,1081c-0.3,0-0.6,0-0.9,0.1c-1.1,0.2-2.1,0.9-2.8,1.9c-0.6,1-0.8,2.2-0.6,3.3
		c0.5,2.4,2.8,3.9,5.2,3.3c2.4-0.5,3.9-2.8,3.3-5.2C555.7,1082.4,553.9,1081,551.9,1081 M551.9,1090.8c-2.5,0-4.7-1.7-5.3-4.2
		c-0.3-1.4,0-2.8,0.7-4c0.8-1.2,2-2,3.4-2.3c1.4-0.3,2.8,0,4,0.7c1.2,0.8,2,2,2.3,3.4c0.3,1.4,0,2.8-0.7,4c-0.8,1.2-2,2-3.4,2.3
		C552.6,1090.7,552.2,1090.8,551.9,1090.8"/>
	<path id="Fill-25" class="st17" d="M595.3,1050.8c1.3,0.3,2,1.7,1.7,2.9c-0.3,1.3-1.7,2-2.9,1.7c-1.3-0.3-2-1.7-1.7-2.9
		C592.7,1051.2,594,1050.5,595.3,1050.8"/>
	<path id="Fill-26" class="st16" d="M594.6,1051.2c-0.3,0-0.6,0.1-0.9,0.2c-0.4,0.2-0.7,0.7-0.9,1.1c-0.3,1,0.3,2,1.3,2.3
		c1,0.3,2-0.3,2.3-1.3c0.1-0.5,0.1-1-0.2-1.4c-0.2-0.4-0.7-0.8-1.1-0.9C595,1051.3,594.8,1051.2,594.6,1051.2 M594.6,1056
		c-0.2,0-0.5,0-0.8-0.1c-0.7-0.2-1.4-0.7-1.7-1.3c-0.4-0.7-0.5-1.4-0.3-2.2c0.2-0.7,0.7-1.4,1.3-1.7c0.7-0.4,1.4-0.5,2.2-0.3
		c0.7,0.2,1.4,0.7,1.7,1.3c0.4,0.7,0.5,1.4,0.3,2.2C597.1,1055.2,595.9,1056,594.6,1056"/>
	<path id="Fill-27" class="st17" d="M535.6,1063.5c2.1,0.6,3.4,2.8,2.8,4.9c-0.6,2.1-2.8,3.4-4.9,2.8c-2.1-0.6-3.4-2.8-2.8-4.9
		C531.3,1064.2,533.5,1062.9,535.6,1063.5"/>
	<path id="Fill-28" class="st16" d="M534.5,1063.9c-0.6,0-1.2,0.2-1.7,0.5c-0.8,0.5-1.4,1.2-1.6,2.1c-0.2,0.9-0.1,1.8,0.3,2.6
		c0.5,0.8,1.2,1.4,2.1,1.6s1.8,0.1,2.6-0.3c0.8-0.5,1.4-1.2,1.6-2.1c0.2-0.9,0.1-1.8-0.3-2.6c-0.5-0.8-1.2-1.4-2.1-1.6
		C535.2,1063.9,534.8,1063.9,534.5,1063.9 M534.6,1071.8c-0.4,0-0.8-0.1-1.2-0.2c-1.2-0.3-2.1-1.1-2.7-2.1c-0.6-1-0.7-2.2-0.4-3.4
		c0.3-1.2,1.1-2.1,2.1-2.7c1-0.6,2.2-0.8,3.4-0.4c1.2,0.3,2.1,1.1,2.7,2.1c0.6,1,0.7,2.2,0.4,3.4c-0.3,1.2-1.1,2.1-2.1,2.7
		C536.1,1071.6,535.3,1071.8,534.6,1071.8"/>
	<path id="Fill-29" class="st18" d="M582,1141.3c-1.7,0-3.7-0.4-5.9-1.4c-14.7-6.4-3.4-23.9-19.1-25.3c-15.7-1.4-31.1-5.6-31.8-23.6
		c-0.5-12.8-3.8-14.8-8.2-15.7c-3-0.6-7.6-0.5-7.6-7.4c0-1.7,0.3-3.8,0.9-6.4c0.4-1.8,0.6-3.4,0.6-4.6c0-3.8-1.9-5.1-4.4-5.1
		c-2.9,0-6.6,1.6-9.9,3.1c-1.6,0.8-3.1,1.1-4.6,1.1c-6.5,0-11.9-6.6-11.9-15.8c0-3,0.6-6.3,1.9-9.7c0.8-2,1.1-3.7,1.1-5
		c0-6.2-6.9-6.8-13.7-6.8c-0.9,0-1.8,0-2.7,0c-0.9,0-1.7,0-2.5,0c-2.1,0-4-0.1-5.3-0.4c-4.2-1.1-9.8-4.8-9.8-12.2
		c0-3.2,1.1-7,3.8-11.7c6.8-11.6,9.8-15.7,9.8-18.7c0-0.9-0.3-1.8-0.9-2.7c-0.5-0.9-1.2-1.2-1.9-1.2c-1.4,0-2.8,1.3-3.4,2
		c-1.7,1.9-3.7,3-5.1,3c-1.1,0-1.9-0.7-1.9-2.1c0-0.4,0.1-0.9,0.2-1.5c1.3-4.7,8.5-3.6,8.5-7.6c0-0.2,0-0.3,0-0.5c-0.3-2.4-2-3-4-3
		c-1.8,0-3.9,0.5-5.3,0.6c-0.2,0-0.4,0-0.5,0c-4.8,0-7.1-1.9-7.1-3.7c0-1.2,0.9-2.3,2.7-3c0.5-0.2,1.1-0.3,1.8-0.3
		c1.7,0,3.6,0.5,5.7,1.1s4.3,1.1,6.5,1.1c2.1,0,4.2-0.5,6.2-1.9c0,0,0.6-0.6,0.6-1.4c0-0.8-0.6-1.7-2.8-2.3c-3.5-1-8.9-2-8.9-4.5
		c0-0.7,0.4-1.5,1.4-2.4c1-0.9,2.3-1.3,3.7-1.3c5.2,0,12.4,5.1,14.6,9.1c1.6,2.8,2.7,5.5,2.7,8.6c0,2.6-0.8,5.5-2.7,9.1
		c-1,1.8-1.8,5-1.8,8.6c0,7.9,3.9,18,18.3,21.8c4.7,1.2,8.7,1.8,12,1.8c11.4,0,15.1-6.8,15.3-17.1c0-0.1,0-0.2,0-0.3
		c0-1.5-0.2-4.2-0.2-7.6c0-14.6,2.8-42.1,32.3-42.1c36.9,0,35.6,26.3,43.6,41c5,9.2,11.8,13.1,19.1,13.1c5.1,0,10.5-1.9,15.8-5.2
		c5.4-3.4,7.6-9.4,7.6-15.8c0-8.7-4-17.9-9.5-21.5c-9-6.1-19-1.7-19-7.7c0-0.3,0-0.5,0.1-0.8c0.4-3.2,2-4.2,3.8-4.2
		c2.9,0,6.5,2.4,7.6,3.2c1,0.7,3,2.3,5.8,2.3c2.3,0,5.1-1.2,8.3-5.1c6.5-8.1,5.6-15.2,11.6-15.2c0.4,0,0.8,0,1.3,0.1
		c2,0.3,2.7,1.1,2.7,2.3c0,3.2-5.8,8.6-5.8,8.6s-3,3-3,4.7c0,0.6,0.4,1.1,1.7,1.1c0.6,0,1.3-0.1,2.2-0.3c7.5-1.7,9-11,13.3-11
		c0.4,0,0.8,0.1,1.2,0.2c1.9,0.6,2.7,1.8,2.7,3.2c0,2.5-2.7,5.7-6.5,7.8c-2.5,1.4-3.6,2.9-3.6,4c0,1.1,1.1,1.9,3,1.9
		c0.8,0,1.6-0.1,2.6-0.4c3.3-0.9,7.6-2.4,10.3-2.4c1.7,0,2.8,0.5,2.8,2.1c0,0.6-0.1,1.3-0.5,2.1c-2.1,5.7-21.9,1.2-24.3,11
		c-0.3,1.1-0.4,2.2-0.4,3.2c0,7.6,7.7,11.6,13.1,17c2.8,2.8,4,6.2,4,9.7c0,4.3-1.9,8.7-5.2,12.3c-3.6,3.8-7.1,7-7.1,10.5
		c0,2.4,1.8,5,6.5,8.1c5.8,3.7,8.8,7.3,8.8,10.2c0,2.9-2.8,5.1-8.7,6.4c-6.6,1.5-5.7,10.6-11.9,12.3c-1.3,0.4-2.8,0.5-4.3,0.5
		c-1.1,0-2.3-0.1-3.5-0.1c-1.2-0.1-2.3-0.1-3.5-0.1c-5.5,0-10.4,1.3-11.3,10.5c-0.1,1.3-0.2,2.6-0.2,3.8c0,8.3,3.5,12.7,10.8,21
		c2.4,2.8,3.5,5.4,3.5,7.7c0,7.4-10.4,12.3-22.3,12.3c-0.9,0-1.7,0-2.6-0.1c-0.4,0-0.8,0-1.3,0c-12.5,0-28.7,10.7-29.5,21.2
		c0,0.6-0.1,1.1-0.1,1.7c0,6,2.4,12.2,7.1,12.2c2.3,0,5.2-1.5,8.6-5.3C593.9,1129.9,591.2,1141.3,582,1141.3 M549.9,1090.4l-1.6,5.1
		c-0.1,0.2,0,0.4,0.1,0.5c0.1,0.1,0.2,0.2,0.4,0.2l0.1,0l10.2-2.2c0.2,0,0.3-0.2,0.4-0.3c0.1-0.2,0-0.4-0.1-0.5l-3.6-4
		c0.3-0.3,0.5-0.5,0.7-0.9c0.8-1.2,1-2.6,0.7-4c-0.3-1.4-1.1-2.6-2.3-3.4c-0.3-0.2-0.6-0.4-1-0.5l1.6-5.1c0.1-0.2,0-0.4-0.1-0.5
		c-0.1-0.1-0.2-0.2-0.4-0.2c0,0-0.1,0-0.1,0l-10.2,2.2c-0.2,0-0.3,0.2-0.4,0.3c-0.1,0.2,0,0.4,0.1,0.5l3.6,4
		c-0.3,0.3-0.5,0.6-0.7,0.9c-0.8,1.2-1,2.6-0.7,4C547,1088.4,548.3,1089.8,549.9,1090.4 M572.8,1063.8l7.6,7.6
		c0.6,0.6,1.4,0.9,2.1,0.9c0.8,0,1.5-0.3,2.1-0.9c1.2-1.2,1.2-3.1,0-4.2l-7.6-7.6l6.6-6.6c0.1-0.1,0.1-0.2,0.1-0.4
		c0-0.1-0.1-0.3-0.1-0.4l-21-21c-2.4-2.4-5.7-3.8-9.1-3.8c-3.5,0-6.7,1.3-9.1,3.8c-5,5-5,13.2,0,18.2l21,21c0.1,0.1,0.2,0.1,0.4,0.1
		s0.3,0,0.4-0.1L572.8,1063.8 M534.5,1062.9c-0.8,0-1.5,0.2-2.2,0.6c-1,0.6-1.8,1.6-2.1,2.7c-0.3,1.2-0.2,2.4,0.4,3.4
		c0.6,1,1.6,1.8,2.7,2.1c0.4,0.1,0.8,0.2,1.2,0.2c0.8,0,1.5-0.2,2.2-0.6c1-0.6,1.8-1.6,2.1-2.7c0.3-1.2,0.2-2.4-0.4-3.4
		c-0.6-1-1.6-1.8-2.7-2.1C535.3,1062.9,534.9,1062.9,534.5,1062.9 M594.6,1050.3c-0.5,0-1,0.1-1.4,0.4c-0.7,0.4-1.1,1-1.3,1.7
		c-0.2,0.7-0.1,1.5,0.3,2.2c0.4,0.7,1,1.1,1.7,1.3c0.3,0.1,0.5,0.1,0.8,0.1c1.3,0,2.4-0.8,2.8-2.1c0.2-0.7,0.1-1.5-0.3-2.2
		c-0.4-0.7-1-1.1-1.7-1.3C595.2,1050.3,594.9,1050.3,594.6,1050.3 M592.1,1031.9l3.8,3.8c0.1,0.1,0.2,0.1,0.4,0.1l0.1,0
		c0.2,0,0.3-0.2,0.4-0.4l2.7-10c0-0.2,0-0.4-0.1-0.5c-0.1-0.1-0.2-0.1-0.4-0.1c0,0-0.1,0-0.1,0l-5.2,1.4c-0.5-1.7-1.9-3-3.7-3.5
		c-0.5-0.1-0.9-0.2-1.4-0.2c-0.9,0-1.8,0.2-2.7,0.7c-0.3,0.2-0.6,0.4-0.9,0.6l-3.8-3.8c-0.1-0.1-0.2-0.1-0.4-0.1c0,0-0.1,0-0.1,0
		c-0.2,0-0.3,0.2-0.4,0.4l-2.7,10c0,0.2,0,0.4,0.1,0.5c0.1,0.1,0.2,0.1,0.4,0.1l0.1,0l5.2-1.4c0.1,0.3,0.3,0.7,0.4,1
		c0.7,1.2,1.9,2.1,3.3,2.5c0.5,0.1,0.9,0.2,1.4,0.2C589.9,1033.3,591.1,1032.8,592.1,1031.9"/>
	<path id="Fill-38" class="st19" d="M596,1034.4l-3.2-3.2c0.4-0.5,0.8-1.2,0.9-1.9s0.2-1.4,0.1-2.1l4.4-1.2L596,1034.4"/>
	<path id="Fill-39" class="st20" d="M596.2,1035.9c-0.1,0-0.3-0.1-0.4-0.1l-3.8-3.8c0.2-0.2,0.5-0.5,0.7-0.7l3.2,3.2l2.3-8.4
		l-4.4,1.2c0-0.3-0.1-0.7-0.2-1l5.2-1.4c0,0,0.1,0,0.1,0c0.1,0,0.3,0.1,0.4,0.1c0.1,0.1,0.2,0.3,0.1,0.5l-2.7,10
		c0,0.2-0.2,0.3-0.4,0.4L596.2,1035.9"/>
	<path id="Fill-40" class="st19" d="M578.8,1029.8l2.3-8.4l3.2,3.2c-0.4,0.6-0.7,1.2-0.9,1.9c-0.2,0.7-0.2,1.4-0.2,2.1L578.8,1029.8
		"/>
	<path id="Fill-41" class="st20" d="M578.1,1031c-0.1,0-0.3-0.1-0.4-0.1c-0.1-0.1-0.2-0.3-0.1-0.5l2.7-10c0-0.2,0.2-0.3,0.4-0.4
		c0,0,0.1,0,0.1,0c0.1,0,0.3,0.1,0.4,0.1l3.8,3.8c-0.3,0.2-0.5,0.5-0.7,0.7l-3.2-3.2l-2.3,8.4l4.4-1.2c0,0.3,0.1,0.7,0.2,1l-5.2,1.4
		L578.1,1031"/>
	<path id="Fill-42_1_" class="st19" d="M588.5,1032.3c-0.4,0-0.8-0.1-1.1-0.2c-1.1-0.3-2.1-1-2.6-2.1c-0.6-1-0.7-2.2-0.4-3.3
		c0.3-1.1,1-2.1,2-2.6c0.7-0.4,1.4-0.6,2.2-0.6c0.4,0,0.8,0.1,1.2,0.2c2.3,0.6,3.7,3,3.1,5.4C592.2,1031,590.5,1032.3,588.5,1032.3"
		/>
	<path id="Fill-43_1_" class="st20" d="M588.5,1033.3c-0.5,0-0.9-0.1-1.4-0.2c-1.4-0.4-2.5-1.3-3.3-2.5c-0.2-0.3-0.3-0.7-0.4-1
		c-0.1-0.3-0.2-0.6-0.2-1c-0.1-0.7,0-1.4,0.2-2.1c0.2-0.7,0.5-1.3,0.9-1.9c0.2-0.3,0.4-0.5,0.7-0.7c0.3-0.2,0.6-0.5,0.9-0.6
		c0.8-0.5,1.7-0.7,2.7-0.7c0.5,0,1,0.1,1.4,0.2c1.8,0.5,3.1,1.9,3.7,3.5c0.1,0.3,0.2,0.6,0.2,1c0.1,0.7,0,1.4-0.1,2.1
		s-0.5,1.3-0.9,1.9c-0.2,0.3-0.4,0.5-0.7,0.7C591.1,1032.8,589.9,1033.3,588.5,1033.3 M588.5,1023.5c-0.8,0-1.5,0.2-2.2,0.6
		c-1,0.6-1.7,1.5-2,2.6c-0.3,1.1-0.2,2.3,0.4,3.3c0.6,1,1.5,1.7,2.6,2.1c0.4,0.1,0.8,0.2,1.1,0.2c1.9,0,3.7-1.3,4.2-3.2
		c0.6-2.3-0.7-4.7-3.1-5.4C589.3,1023.6,588.9,1023.5,588.5,1023.5"/>
	<path id="Fill-44_1_" class="st21" d="M549.5,1095l1.4-4.3c0.3,0.1,0.6,0.1,1,0.1c0.4,0,0.8,0,1.1-0.1c0.7-0.2,1.4-0.4,1.9-0.8
		l3,3.3L549.5,1095"/>
	<path id="Fill-45_1_" class="st20" d="M548.8,1096.2c-0.1,0-0.3-0.1-0.4-0.2c-0.1-0.1-0.2-0.3-0.1-0.5l1.6-5.1
		c0.3,0.1,0.6,0.2,1,0.3l-1.4,4.3l8.5-1.8l-3-3.3c0.3-0.2,0.5-0.4,0.8-0.6l3.6,4c0.1,0.1,0.2,0.3,0.1,0.5c-0.1,0.2-0.2,0.3-0.4,0.3
		l-10.2,2.2L548.8,1096.2"/>
	<path id="Fill-46_1_" class="st21" d="M548.8,1081l-3.1-3.4l8.5-1.8l-1.4,4.3c-0.3-0.1-0.6-0.1-0.9-0.1c-0.4,0-0.8,0-1.2,0.1
		C550,1080.3,549.4,1080.6,548.8,1081"/>
	<path id="Fill-47_1_" class="st20" d="M548,1081.6l-3.6-4c-0.1-0.1-0.2-0.3-0.1-0.5c0.1-0.2,0.2-0.3,0.4-0.3l10.2-2.2
		c0,0,0.1,0,0.1,0c0.1,0,0.3,0.1,0.4,0.2c0.1,0.1,0.2,0.3,0.1,0.5l-1.6,5.1c-0.3-0.1-0.6-0.2-1-0.3l1.4-4.3l-8.5,1.8l3.1,3.4
		C548.5,1081.2,548.3,1081.4,548,1081.6"/>
	<path id="Fill-48_1_" class="st22" d="M551.9,1089.8c-2,0-3.8-1.4-4.3-3.4c-0.2-1.1,0-2.3,0.6-3.3c0.6-1,1.6-1.7,2.8-1.9
		c0.3-0.1,0.6-0.1,0.9-0.1c2,0,3.8,1.4,4.3,3.4c0.5,2.4-1,4.7-3.3,5.2C552.5,1089.7,552.2,1089.8,551.9,1089.8"/>
	<path id="Fill-49_1_" class="st21" d="M551.9,1090.8c-0.3,0-0.7,0-1-0.1c-0.3-0.1-0.7-0.2-1-0.3c-1.6-0.6-2.9-2-3.3-3.9
		c-0.3-1.4,0-2.8,0.7-4c0.2-0.3,0.4-0.6,0.7-0.9c0.2-0.2,0.5-0.5,0.8-0.6c0.6-0.4,1.2-0.7,1.9-0.8c0.4-0.1,0.8-0.1,1.2-0.1
		c0.3,0,0.6,0,0.9,0.1c0.3,0.1,0.7,0.2,1,0.3c0.3,0.1,0.7,0.3,1,0.5c1.2,0.8,2,2,2.3,3.4c0.3,1.4,0,2.8-0.7,4
		c-0.2,0.3-0.4,0.6-0.7,0.9c-0.2,0.2-0.5,0.5-0.8,0.6c-0.6,0.4-1.2,0.7-1.9,0.8C552.6,1090.7,552.2,1090.8,551.9,1090.8 M551.9,1081
		c-0.3,0-0.6,0-0.9,0.1c-1.1,0.2-2.1,0.9-2.8,1.9c-0.6,1-0.8,2.2-0.6,3.3c0.4,2,2.3,3.4,4.3,3.4c0.3,0,0.6,0,0.9-0.1
		c2.4-0.5,3.9-2.8,3.3-5.2C555.7,1082.4,553.9,1081,551.9,1081"/>
	<path id="Fill-50_1_" class="st22" d="M594.6,1055c-0.2,0-0.3,0-0.5-0.1c-1-0.3-1.6-1.3-1.3-2.3c0.1-0.5,0.4-0.9,0.9-1.1
		c0.3-0.2,0.6-0.2,0.9-0.2c0.2,0,0.3,0,0.5,0.1c0.5,0.1,0.9,0.4,1.1,0.9c0.2,0.4,0.3,0.9,0.2,1.4
		C596.2,1054.5,595.5,1055,594.6,1055"/>
	<path id="Fill-51_1_" class="st21" d="M594.6,1056c-0.2,0-0.5,0-0.8-0.1c-0.7-0.2-1.4-0.7-1.7-1.3c-0.4-0.7-0.5-1.4-0.3-2.2
		c0.2-0.7,0.7-1.4,1.3-1.7c0.4-0.3,0.9-0.4,1.4-0.4c0.3,0,0.5,0,0.8,0.1c0.7,0.2,1.4,0.7,1.7,1.3c0.4,0.7,0.5,1.4,0.3,2.2
		C597.1,1055.2,595.9,1056,594.6,1056 M594.6,1051.2c-0.3,0-0.6,0.1-0.9,0.2c-0.4,0.2-0.7,0.7-0.9,1.1c-0.3,1,0.3,2,1.3,2.3
		c0.2,0,0.3,0.1,0.5,0.1c0.8,0,1.6-0.6,1.8-1.4c0.1-0.5,0.1-1-0.2-1.4c-0.2-0.4-0.7-0.8-1.1-0.9
		C595,1051.3,594.8,1051.2,594.6,1051.2"/>
	<path id="Fill-52_1_" class="st22" d="M534.6,1070.8c-0.3,0-0.6,0-0.9-0.1c-0.9-0.2-1.6-0.8-2.1-1.6c-0.5-0.8-0.6-1.7-0.3-2.6
		c0.2-0.9,0.8-1.6,1.6-2.1c0.5-0.3,1.1-0.5,1.7-0.5c0.3,0,0.6,0,0.9,0.1c0.9,0.2,1.6,0.8,2.1,1.6c0.5,0.8,0.6,1.7,0.3,2.6
		c-0.2,0.9-0.8,1.6-1.6,2.1C535.7,1070.7,535.2,1070.8,534.6,1070.8"/>
	<path id="Fill-53_1_" class="st21" d="M534.6,1071.8c-0.4,0-0.8-0.1-1.2-0.2c-1.2-0.3-2.1-1.1-2.7-2.1c-0.6-1-0.7-2.2-0.4-3.4
		c0.3-1.2,1.1-2.1,2.1-2.7c0.7-0.4,1.4-0.6,2.2-0.6c0.4,0,0.8,0.1,1.2,0.2c1.2,0.3,2.1,1.1,2.7,2.1c0.6,1,0.7,2.2,0.4,3.4
		c-0.3,1.2-1.1,2.1-2.1,2.7C536.1,1071.6,535.3,1071.8,534.6,1071.8 M534.5,1063.9c-0.6,0-1.2,0.2-1.7,0.5c-0.8,0.5-1.4,1.2-1.6,2.1
		c-0.2,0.9-0.1,1.8,0.3,2.6c0.5,0.8,1.2,1.4,2.1,1.6c0.3,0.1,0.6,0.1,0.9,0.1c0.6,0,1.2-0.2,1.7-0.5c0.8-0.5,1.4-1.2,1.6-2.1
		c0.2-0.9,0.1-1.8-0.3-2.6c-0.5-0.8-1.2-1.4-2.1-1.6C535.2,1063.9,534.8,1063.9,534.5,1063.9"/>
	<path id="Fill-54_1_" class="st23" d="M566.4,971.6c0,6.5-2.1,11.8-4.6,11.8c-2.5,0-4.6-5.3-4.6-11.8c0-6.5,2.1-11.8,4.6-11.8
		C564.4,959.8,566.4,965.1,566.4,971.6"/>
	<path id="Fill-55" class="st23" d="M546.5,971.6c0,6.5-2.1,11.8-4.6,11.8c-2.5,0-4.6-5.3-4.6-11.8c0-6.5,2.1-11.8,4.6-11.8
		C544.4,959.8,546.5,965.1,546.5,971.6"/>
	<path id="Fill-56_1_" class="st23" d="M642.2,926.9c-1.6,2-7.4,8.5-3.6,9.2c-0.9-1.4,3-5.1,3-5.1s10.1-9.4,3.7-10.8
		C646.4,922.6,643.5,925.4,642.2,926.9"/>
	<path id="Fill-57" class="st23" d="M653.7,933.8c-7.6,3.5-7.5,8.5-3,8.5c-3.5-2.6,1.8-5.3,2.4-5.6c5.5-3.1,8.8-8.4,4.8-10.6
		C658,928.3,656.6,932.5,653.7,933.8"/>
	<path id="Fill-58_1_" class="st23" d="M483,1024.2c1.3-11.4-18.8-9.2-25.3-10.9c-3-0.8-6.7-2.9-8.6-6.7c0.3,7,5.7,10.5,9.8,11.6
		C464.2,1019.6,480.8,1015.4,483,1024.2"/>
	<path id="Fill-59" class="st23" d="M653.6,992.4c-4.8,5.1-12.9,12.4-4.6,19.6c-3.6-6.4,2.6-11.3,5.8-14.7c4.9-5.2,6.7-12.3,4-18.1
		C659.1,983.7,657.2,988.5,653.6,992.4"/>
	<path id="Fill-60_1_" class="st23" d="M653.1,1027.5c-6.6,1.5-5.7,10.6-11.9,12.3c-8,2.2-21-4.8-22.6,10.8
		c-0.5,4.8-0.1,8.4,1.2,11.6c-0.2-2-0.2-4.2,0-6.7c1.6-15.6,14.6-8.6,22.6-10.7c6.2-1.7,5.2-10.9,11.9-12.3
		c8.2-1.8,10.5-5.6,7.3-10.2C660.9,1024.6,658.1,1026.4,653.1,1027.5"/>
	<path id="Fill-61" class="st23" d="M510.9,1055.7c0.6-9.1-9.1-8.8-15.5-5.6c-6.2,3.1-12.5-0.4-15.2-7.1c1.2,9.8,8.8,15.8,16.4,12
		C501.4,1052.6,509.2,1049,510.9,1055.7"/>
	<path id="Fill-62" class="st23" d="M666,939.9c2.4,4-6.9,5.1-12.4,6.1c-4.9,0.9-10.4-0.2-11.5,4.2c-0.8,3.2-0.4,5.8,0.8,8.1
		c0-1,0.1-2.1,0.4-3.3c2.4-9.8,22.2-5.3,24.3-11C668.7,941.2,667.9,940.1,666,939.9"/>
	<path id="Fill-63" class="st23" d="M607.8,1095.3c-12.6-0.8-29.9,10.3-30.8,21.2c-0.2,3.1,0.2,6.5,1.3,9.1
		c-0.2-1.4-0.2-2.8-0.1-4.2c0.8-10.9,18.2-22,30.8-21.2c15.3,0.9,29.2-6.4,23.7-16.7C632.3,1091.1,620.5,1096.1,607.8,1095.3"/>
	<path id="Fill-64" class="st23" d="M515.9,1070.4c-2.1-0.4-4.8-0.5-6.4-2.7c-0.1,7.1,4.6,6.8,7.6,7.6c7.7,1.9,6.2,6.4,7.7,10.1
		C524.1,1072.3,519.5,1071.2,515.9,1070.4"/>
	<path id="Fill-66" class="st23" d="M555.8,1109.8c-13.1-1.2-26-4.3-30.3-15.8c2.2,15.5,16.7,19.3,31.5,20.7
		c5.3,0.5,7.5,2.8,8.7,5.9C564.7,1115.2,563.6,1110.5,555.8,1109.8"/>
	<path id="Fill-67" class="st23" d="M634.4,973c-0.8,4.8-3,9.2-7.3,11.8c-12.8,7.9-26.3,7.7-34.8-7.9c-7.9-14.4-6.8-40.1-41.9-40.9
		c10.1,4.1,21.9,2,29.8,23.1c10.2,27.1,7.7,42.2,33,39.7C631.6,997,634.6,974.5,634.4,973"/>
	<path id="Fill-68" class="st14" d="M566,998.5c0,0,1.9,17.1-5.3,17.6c-7.3,0.5-5.9-12.6-5.9-12.6s-0.5,3.9-3,3.9
		c-4.7,0-3.7-7.8-3.7-7.8L566,998.5"/>
	<path id="Fill-69" class="st23" d="M470.9,962.5c0,0-3.1,0.4-6.3,1.1c-3.3,0.6-4-1.5-4-1.5l1-1.3l0.4,0.1l7.6-2.1l1.3-1.9l-1.1-1.6
		c-0.6-2.9-8.6-9.6-10.8-8c-2.2,1.6-5.5,0.9-5.5,0.9l0.7,1.4c1.8,1.2,5.1,1.9,7.5,2.6c4.5,1.2,2.2,3.7,2.2,3.7
		c-2.8,2-5.9,2.1-8.9,1.7l-4.8,0.3c-0.5,0-0.9,0-1.3,0.1l0,0h0c-0.6,0.1-1.1,0.3-1.4,0.7c-1.6,2.4-5.4,1.7-5.4,1.7l0.2,0.8
		c1.2,0.9,3.3,1.6,6.4,1.5c2.9-0.1,8.8-2.2,9.4,2.5c0,0.3,0,0.6,0,0.9h0c6,0,3.3,2.9,2.4,3.5c-1.8,1.1-4.9,1.7-7.7,3.3
		c-1.8,1-2.8,2-3.3,2.7c0.5,2.5,4.1,1.6,7-1.6c0.9-1,3.7-3.5,5.3-0.8c0.2,0.3,0.3,0.6,0.5,0.8c2.2,0,4.3-1.2,6.8-2.5
		c3.1-1.6,3.4-7.7,3.4-7.7L470.9,962.5"/>
	<path id="Fill-70" class="st15" d="M506.6,1051.3c1.3,0,2.4,0.3,3.2,1c1.9,1.5,2.2,4.5,1.1,9.3c-1.2,5.1-1.2,8.6,0.1,10.6
		c1.2,1.8,3.3,2.1,5.1,2.4c0.4,0.1,0.7,0.1,1.1,0.2c4.2,0.9,8.1,2.7,8.6,16.2c0.6,18,16.2,21.8,31.3,23.2c8.5,0.8,9.4,6.1,10.5,11.7
		c0.9,5.2,1.9,10.6,8.8,13.6c3.8,1.6,7.1,1.8,10,0.3c3.6-1.8,5.5-5.6,6.5-8c-4.5,4.3-7.7,4.3-9.6,3.5c-4.1-1.8-5.8-8.4-5.4-14
		c0.4-5.3,4.5-10.9,11.2-15.4c6.4-4.3,14-6.7,20.1-6.3c11,0.7,20.9-2.9,23.6-8.5c1.6-3.2,0.6-6.9-2.7-10.6
		c-8.2-9.3-11.8-13.9-10.7-25.1c1.2-11.6,8.7-11.2,15.3-10.8c2.8,0.1,5.4,0.3,7.6-0.3c2.8-0.8,4.1-3.2,5.4-5.8
		c1.4-2.8,2.9-5.7,6.6-6.5c5-1.1,7.8-2.9,8.2-5.3c0.5-2.9-2.5-6.6-8.5-10.4c-4.2-2.7-6.4-5.2-6.7-7.8c-0.4-3.5,2.5-6.6,5.9-10.1
		c0.4-0.5,0.9-0.9,1.3-1.4c6.3-6.7,6.8-15.7,1.2-21.3c-1.3-1.3-2.8-2.6-4.3-3.8c-5.2-4.4-10.5-8.9-8.5-16.8
		c1.5-5.9,8.6-6.9,14.9-7.7c4.4-0.6,8.6-1.2,9.4-3.3c0.5-1.5,0.6-2.5,0.1-3c-1.2-1.3-5.9,0-9.6,1.1c-0.9,0.2-1.7,0.5-2.5,0.7
		c-3.1,0.8-5.5,0.3-6.1-1.2c-0.5-1.2,0.2-3.3,3.7-5.2c3.8-2.1,6.5-5.3,6.3-7.6c-0.1-1.1-0.9-1.9-2.3-2.4c-2.2-0.8-3.5,0.9-5.5,3.8
		c-1.9,2.7-4.4,6.1-8.6,7c-2.4,0.5-3.8,0.4-4.3-0.5c-0.9-1.7,2.3-5.1,3-5.8c1.8-1.7,6.3-6.5,5.6-8.8c-0.2-0.7-0.9-1.1-2.2-1.3
		c-4.3-0.6-5.3,1.7-7.2,5.8c-1.2,2.5-2.6,5.7-5.3,9c-6.8,8.4-12.3,4.6-14.3,3.1c-0.1-0.1-0.3-0.2-0.4-0.3c-4-2.7-6.9-3.6-8.7-2.8
		c-1.1,0.5-1.7,1.7-2,3.5c-0.1,1.1,0,1.9,0.4,2.5c0.9,1.1,3,1.4,5.7,1.7c3.7,0.4,8.2,0.9,12.6,3.9c5.7,3.8,9.8,13.5,9.7,22.5
		c-0.1,7.1-2.9,12.6-7.9,15.7c-7.5,4.7-14.8,6.2-21.1,4.6c-5.8-1.5-10.7-5.8-14.5-12.7c-1.8-3.3-3.1-7-4.5-11
		c-4.8-13.9-10.3-29.7-38.7-29.7c-9.2,0-16.6,2.7-21.8,8.1c-10.8,11.1-10.2,30.4-9.9,38.7c0,1.1,0.1,2,0.1,2.6
		c-0.1,7.1-1.9,12-5.6,14.7c-4.5,3.4-11.8,3.8-22.3,1c-8.2-2.2-14-6.7-16.8-13.1c-3.1-7.2-1.7-14.9,0-18c4-7.4,3.1-11.8,0-17.2
		c-1.9-3.4-8-8-12.9-8.7c-2-0.3-3.6,0.1-4.7,1.1c-0.9,0.9-1.3,1.7-1.2,2.3c0.4,1.6,4.4,2.7,7.2,3.4c0.4,0.1,0.9,0.2,1.3,0.3
		c1.8,0.5,2.8,1.2,3.1,2.2c0.3,1.2-0.6,2.2-0.6,2.3l-0.1,0.1c-4.4,3.2-9.3,1.9-13.6,0.8c-2.7-0.7-5-1.3-6.7-0.7
		c-1.6,0.6-2.6,1.7-2.4,2.8c0.3,1.5,2.6,3,7.1,2.9c0.6,0,1.3-0.1,2.1-0.2c2.2-0.3,4.8-0.7,6.4,0.5c0.8,0.6,1.2,1.5,1.4,2.6
		c0.4,2.8-1.9,3.7-4,4.6c-1.9,0.8-3.9,1.6-4.5,3.7c-0.2,0.8-0.5,2.3,0.4,2.8c1,0.5,3.4-0.3,5.5-2.6c0.3-0.4,2.1-2.3,4-2.2
		c0.8,0.1,1.5,0.6,2.1,1.4c2.1,3.4,0.8,5.6-4.6,14.6c-1.2,2-2.7,4.5-4.3,7.3c-3.7,6.3-4.6,11.6-2.8,16c1.7,4,5.5,6.3,8.6,7.1
		c1.8,0.5,4.6,0.4,7.6,0.4c6.2-0.1,13.2-0.2,15.8,3.6c1.4,2.1,1.4,5-0.1,8.9c-3.8,9.9-1.3,18.3,3,22.2c3.2,2.9,7.2,3.5,11,1.6
		C499.5,1053,503.5,1051.3,506.6,1051.3z M582,1141.8c-1.9,0-3.9-0.5-6.1-1.4c-7.4-3.2-8.4-9.1-9.4-14.4c-1-5.5-1.8-10.2-9.6-10.9
		c-6.2-0.6-15.1-1.8-21.7-5.7c-6.8-4-10.2-10-10.5-18.5c-0.5-12.7-3.8-14.4-7.8-15.2c-0.3-0.1-0.7-0.1-1.1-0.2
		c-2-0.3-4.4-0.7-5.8-2.9c-1.5-2.2-1.6-6-0.3-11.4c1-4.3,0.8-7.1-0.7-8.3c-2.8-2.3-9.9,1.2-12.2,2.3c-4.2,2.1-8.6,1.4-12.1-1.8
		c-4.5-4.1-7.2-12.9-3.2-23.3c1.4-3.5,1.4-6.2,0.2-8c-2.4-3.4-9.1-3.3-15-3.2c-3.1,0-6,0.1-7.9-0.4c-1.6-0.4-7-2.2-9.2-7.7
		c-1.9-4.6-0.9-10.3,2.9-16.9c1.7-2.9,3.1-5.3,4.4-7.3c5.3-8.8,6.4-10.6,4.6-13.6c-0.4-0.6-0.8-0.9-1.3-0.9
		c-1.1-0.1-2.5,1.1-3.2,1.8c-2.3,2.5-5.1,3.7-6.7,2.9c-0.6-0.3-1.6-1.3-0.9-3.9c0.7-2.6,3-3.6,5-4.4c2.3-0.9,3.6-1.6,3.4-3.6
		c-0.1-0.9-0.4-1.5-1-2c-1.3-1-3.6-0.6-5.7-0.3c-0.8,0.1-1.6,0.2-2.2,0.2c-5.4,0.1-7.7-1.9-8.1-3.7c-0.3-1.6,0.9-3.2,3-3.9
		c2-0.7,4.5,0,7.3,0.7c4.1,1.1,8.7,2.3,12.7-0.6c0.1-0.1,0.5-0.7,0.4-1.3c-0.2-0.6-1-1.2-2.4-1.5c-0.4-0.1-0.8-0.2-1.3-0.3
		c-3.5-0.9-7.4-1.9-7.9-4.1c-0.3-1,0.2-2.1,1.5-3.3c1.3-1.2,3.2-1.7,5.5-1.4c5.3,0.8,11.5,5.5,13.6,9.2c3.2,5.7,4.2,10.4,0,18.2
		c-1.6,2.9-3,10.2,0,17.1c2.7,6.1,8.3,10.5,16.2,12.6c10.2,2.7,17.2,2.4,21.5-0.9c3.4-2.6,5.1-7.1,5.2-14c0-0.6,0-1.5-0.1-2.6
		c-0.3-8.4-0.9-28,10.2-39.4c5.4-5.6,13-8.5,22.5-8.5c29.1,0,34.7,16.1,39.6,30.3c1.4,4,2.7,7.7,4.4,10.9
		c3.6,6.6,8.3,10.8,13.9,12.2c6,1.6,13,0,20.3-4.5c4.6-2.9,7.2-8.1,7.4-14.8c0.2-8.7-3.8-17.9-9.2-21.6c-4.2-2.8-8.6-3.3-12.2-3.7
		c-2.9-0.3-5.2-0.6-6.4-2.1c-0.6-0.8-0.8-1.9-0.6-3.3c0.3-2.2,1.1-3.6,2.5-4.3c3.2-1.4,8,1.8,9.6,2.8c0.2,0.1,0.3,0.2,0.5,0.3
		c2.2,1.5,6.8,4.8,13-3c2.6-3.2,4-6.3,5.1-8.8c1.9-4.1,3.2-7.1,8.3-6.4c1.7,0.2,2.7,0.9,3,2c1,3.3-5.2,9.2-5.9,9.8
		c-1.7,1.7-3.2,3.9-2.8,4.6c0.1,0.2,0.6,0.6,3.2,0c3.9-0.9,6.1-3.9,8.1-6.6c1.9-2.7,3.7-5.2,6.7-4.1c2.3,0.8,2.9,2.2,3,3.3
		c0.2,2.7-2.6,6.3-6.8,8.6c-2.7,1.5-3.6,3.1-3.3,3.9c0.3,0.8,2,1.4,4.9,0.6c0.8-0.2,1.6-0.5,2.5-0.7c4.4-1.3,9-2.6,10.6-0.8
		c0.8,0.8,0.8,2.1,0.1,4c-1,2.8-5.3,3.3-10.2,4c-6,0.8-12.8,1.7-14.1,7c-1.8,7.3,3,11.5,8.2,15.8c1.5,1.2,3,2.5,4.3,3.9
		c6,6,5.5,15.6-1.2,22.7c-0.4,0.5-0.9,0.9-1.3,1.4c-3.2,3.4-6,6.3-5.6,9.3c0.3,2.3,2.3,4.6,6.2,7.1c6.4,4.1,9.5,8.1,8.9,11.4
		c-0.5,2.8-3.6,4.9-9,6.1c-3.2,0.7-4.5,3.3-5.9,6c-1.4,2.7-2.8,5.4-6,6.3c-2.4,0.7-5.2,0.5-7.9,0.4c-6.8-0.3-13.2-0.7-14.3,9.9
		c-1.1,10.8,2.4,15.2,10.4,24.3c4.5,5.1,4,9.2,2.8,11.7c-2.9,6-13.3,9.8-24.6,9.1c-11.8-0.7-29.4,9.9-30.2,20.7
		c-0.4,5.1,1.2,11.4,4.8,13c2.7,1.2,6.2-0.5,10-4.8c0.2-0.2,0.4-0.2,0.6-0.1c0.2,0.1,0.3,0.3,0.3,0.6c-0.1,0.3-1.9,7.8-7.7,10.7
		C585.3,1141.4,583.7,1141.8,582,1141.8z"/>
	<path id="Fill-71" class="st15" d="M547.7,971.6c0,6.5-2.1,11.8-4.6,11.8c-2.5,0-4.6-5.3-4.6-11.8c0-6.5,2.1-11.8,4.6-11.8
		C545.7,959.8,547.7,965.1,547.7,971.6"/>
	<path id="Fill-72" class="st15" d="M567.7,971.6c0,6.5-2.1,11.8-4.6,11.8c-2.5,0-4.6-5.3-4.6-11.8c0-6.5,2.1-11.8,4.6-11.8
		C565.6,959.8,567.7,965.1,567.7,971.6"/>
	<path id="Fill-73" class="st15" d="M541.9,983.9c-1.5,0-2.9-1.5-3.8-4.1c-0.1-0.3,0-0.5,0.3-0.6c0.3-0.1,0.5,0,0.6,0.3
		c0.8,2.2,1.9,3.4,2.9,3.4c1.9,0,4.1-4.6,4.1-11.3s-2.2-11.3-4.1-11.3c-0.8,0-1.6,0.8-2.3,2.1c-0.1,0.2-0.4,0.3-0.7,0.2
		c-0.2-0.1-0.3-0.4-0.2-0.7c0.9-1.8,2-2.7,3.2-2.7c2.9,0,5.1,5.4,5.1,12.3S544.7,983.9,541.9,983.9"/>
	<path id="Fill-74" class="st15" d="M537.9,966.5l-0.1,0c-0.3-0.1-0.4-0.3-0.4-0.6c0.1-0.5,0.2-0.9,0.3-1.3c0.1-0.3,0.3-0.4,0.6-0.3
		c0.3,0.1,0.4,0.4,0.3,0.6c-0.1,0.4-0.2,0.8-0.3,1.3C538.3,966.3,538.1,966.5,537.9,966.5"/>
	<path id="Fill-75" class="st15" d="M557.3,972.1c-0.3,0-0.5-0.2-0.5-0.5c0-0.4,0-0.8,0-1.2c0-0.3,0.2-0.5,0.5-0.5
		c0.3,0,0.5,0.2,0.5,0.5c0,0.4,0,0.8,0,1.2C557.8,971.9,557.5,972.1,557.3,972.1"/>
	<path id="Fill-76" class="st15" d="M561.8,983.9c-1.8,0-3.3-2-4.3-5.5c-0.1-0.3,0.1-0.5,0.4-0.6c0.3-0.1,0.5,0.1,0.6,0.4
		c0.8,3,2.1,4.8,3.3,4.8c1.9,0,4.1-4.6,4.1-11.3s-2.2-11.3-4.1-11.3c-1.3,0-2.6,2-3.4,5.1c-0.1,0.3-0.3,0.4-0.6,0.4
		c-0.3-0.1-0.4-0.3-0.4-0.6c0.9-3.7,2.5-5.8,4.3-5.8c2.9,0,5.1,5.4,5.1,12.3S564.7,983.9,561.8,983.9"/>
	<path id="Fill-77" class="st15" d="M463.5,965.7c-0.5,0-0.9-0.1-1.3-0.2c-0.9-0.3-1.6-1-1.9-2c-0.2-0.7-0.2-1.4,0.2-1.9
		c0.8-1.4,3.2-1.8,5.4-2.3c1.1-0.2,2.2-0.4,2.9-0.7c1.1-0.4,1.7-0.9,1.7-1.3c0-0.6-0.9-1.2-1.3-1.5c-0.2-0.1-0.3-0.4-0.2-0.7
		c0.1-0.2,0.4-0.3,0.7-0.2c0.2,0.1,1.9,1.1,1.9,2.4c0,0.9-0.8,1.6-2.3,2.2c-0.8,0.3-2,0.5-3.1,0.8c-2,0.4-4.2,0.8-4.8,1.8
		c-0.2,0.3-0.2,0.7-0.1,1.1c0.2,0.7,0.6,1.1,1.3,1.4c1.7,0.6,4.5-0.6,5.9-1.6c1.4-1,2.9-1.2,3.8-0.6c0.4,0.2,0.9,0.8,0.7,2.1
		c-0.1,0.3-0.3,0.4-0.6,0.4c-0.3-0.1-0.4-0.3-0.4-0.6c0.1-0.5,0-0.9-0.3-1.1c-0.5-0.3-1.5-0.2-2.7,0.6
		C467.7,964.6,465.4,965.7,463.5,965.7"/>
	<path id="Fill-78" class="st15" d="M537.8,1004.5c-0.2,0-0.4-0.1-0.5-0.4c-0.7-2.5-3.4-2.8-3.5-2.8c-0.3,0-0.5-0.3-0.5-0.5
		c0-0.3,0.3-0.5,0.5-0.4c0.1,0,3.5,0.4,4.3,3.5c0.1,0.3-0.1,0.5-0.4,0.6L537.8,1004.5"/>
	<path id="Fill-79" class="st24" d="M566,998.5l-1.2,0.1c0.1,1.1,1.6,16.7-5.1,17.5c0.3,0,0.6,0.1,1,0
		C568,1015.6,566,998.5,566,998.5"/>
	<path id="Fill-80" class="st24" d="M554.7,1003.1c0,0-1.7,4-4.8,3.2l1.2,1l2.6-0.5L554.7,1003.1"/>
	<path id="Fill-81" class="st15" d="M574.1,1004.4l-0.2,0c-0.3-0.1-0.4-0.4-0.3-0.6c0,0,1.1-3.2,4.7-3.3c0.3,0,0.5,0.2,0.5,0.5
		c0,0.3-0.2,0.5-0.5,0.5c-2.9,0.1-3.7,2.6-3.7,2.6C574.6,1004.3,574.4,1004.4,574.1,1004.4"/>
	<path id="Fill-82" class="st15" d="M560.3,1016.6c-1.4,0-2.6-0.5-3.6-1.5c-2-2.1-2.5-6-2.5-8.7c-0.5,0.8-1.3,1.4-2.4,1.4
		c-1.1,0-2.1-0.4-2.8-1.2c-2-2.3-1.5-7-1.4-7.2c0-0.3,0.3-0.5,0.6-0.4c0.3,0,0.5,0.3,0.4,0.6c0,0-0.5,4.5,1.2,6.4
		c0.5,0.6,1.2,0.9,2,0.9c2,0,2.5-3.4,2.5-3.4c0-0.3,0.3-0.5,0.6-0.4c0.3,0,0.5,0.3,0.4,0.5c0,0.1-0.8,7.8,2.2,10.9
		c0.8,0.9,1.9,1.3,3.2,1.2c1.1-0.1,1.9-0.5,2.7-1.4c3.5-4.1,2.2-15.5,2.2-15.6c0-0.3,0.2-0.5,0.4-0.6c0.3,0,0.5,0.2,0.6,0.4
		c0.1,0.5,1.3,11.9-2.4,16.4c-0.9,1.1-2,1.7-3.4,1.8C560.6,1016.6,560.5,1016.6,560.3,1016.6"/>
	<path id="Fill-83" class="st15" d="M579.5,999.3c-0.1,0-0.2,0-0.3-0.1c-0.8-0.7-1.6-0.3-1.6-0.3c-0.2,0.1-0.5,0-0.7-0.2
		c-0.1-0.2,0-0.5,0.2-0.7c0.1,0,1.5-0.7,2.8,0.5c0.2,0.2,0.2,0.5,0,0.7C579.7,999.2,579.6,999.3,579.5,999.3"/>
	<path id="Fill-87" class="st23" d="M555.8,993.4c0,0,11-3,17.7,2.1C573.5,995.6,566.8,987.7,555.8,993.4"/>
	<path id="Fill-88" class="st15" d="M557.7,998.5c6,0,10.7,0.7,13.4,1.2c-6.3-3.5-16.3-2.3-24-0.5
		C551,998.7,554.6,998.5,557.7,998.5z M536.2,1002.4l-0.3-0.9c0.1,0,6.9-2.6,14.9-4.1c10.8-2,18.6-1,23.1,2.9l1.7,1.5l-2.2-0.6
		C573.2,1001.2,557,996.6,536.2,1002.4z"/>
	<path id="Fill-89" class="st15" d="M536,1002c0,0,26.9-10.4,37.5-1.2C573.5,1000.7,557.2,996,536,1002"/>
	<path id="Fill-90" class="st25" d="M522.3,983.4c0,0-0.4-3.4-0.2-8.6c0.1-2.6,0.3-5.6,0.8-8.8c0.3-1.6,0.5-3.3,1-4.9
		c0.4-1.7,0.9-3.4,1.5-5c0.6-1.6,1.4-3.3,2.3-4.8c0.9-1.5,2-2.9,3.3-4c2.6-2.3,5.6-3.5,8.1-4.1c2.6-0.6,4.8-0.5,6.3-0.4
		c1.5,0.1,2.4,0.3,2.4,0.3s-0.9-0.1-2.4,0c-1.5,0.1-3.6,0.4-6,1.1c-1.2,0.4-2.5,0.9-3.7,1.6c-1.2,0.7-2.5,1.6-3.5,2.6
		c-1.1,1.1-2,2.3-2.8,3.8c-0.8,1.4-1.5,2.9-2.1,4.5c-0.6,1.6-1.1,3.2-1.5,4.8c-0.4,1.6-0.8,3.2-1.1,4.8c-0.6,3.1-1,6.1-1.4,8.6
		C522.6,979.9,522.3,983.4,522.3,983.4"/>
	<path id="Fill-91" class="st25" d="M486,1027.9c0,0-0.1,0.2-0.2,0.6c-0.1,0.4-0.3,1-0.5,1.7c-0.2,0.7-0.4,1.5-0.6,2.4
		c-0.1,0.4-0.2,0.9-0.3,1.3c-0.1,0.5-0.2,0.9-0.3,1.4c-0.1,0.5-0.2,0.9-0.2,1.4c0,0.5-0.1,0.9-0.1,1.4c0,0.4-0.1,0.9,0,1.3
		c0,0.4,0,0.8,0,1.2c0,0.4,0,0.7,0.1,1c0,0.3,0.1,0.5,0.1,0.8c0.1,0.4,0.1,0.7,0.1,0.7s-0.1-0.2-0.3-0.6c-0.1-0.2-0.2-0.4-0.3-0.7
		c-0.1-0.3-0.2-0.6-0.3-1c-0.1-0.4-0.1-0.8-0.2-1.2c-0.1-0.4-0.1-0.9-0.1-1.3c0-0.5,0-0.9,0-1.4c0-0.5,0.1-1,0.2-1.5
		c0.2-1,0.4-1.9,0.7-2.8c0.3-0.9,0.6-1.7,1-2.3C485.4,1028.7,486,1027.9,486,1027.9"/>
	<path id="Fill-92" class="st25" d="M529.6,1085c0,0,0,0.2,0.1,0.7c0,0.4,0.1,1,0.2,1.7c0.1,0.7,0.2,1.6,0.3,2.4
		c0.1,0.4,0.2,0.9,0.2,1.4c0.1,0.5,0.2,0.9,0.3,1.4c0.1,0.5,0.2,0.9,0.4,1.4c0.1,0.4,0.2,0.9,0.4,1.3c0.2,0.4,0.3,0.8,0.5,1.2
		c0.2,0.4,0.3,0.7,0.5,1.1c0.2,0.3,0.3,0.6,0.4,0.9c0.1,0.3,0.3,0.5,0.4,0.7c0.2,0.4,0.3,0.6,0.3,0.6s-0.2-0.2-0.5-0.5
		c-0.1-0.2-0.3-0.3-0.5-0.6c-0.2-0.2-0.4-0.5-0.6-0.8c-0.2-0.3-0.4-0.6-0.6-1c-0.2-0.4-0.4-0.8-0.6-1.2c-0.2-0.4-0.4-0.9-0.5-1.3
		c-0.2-0.5-0.3-0.9-0.4-1.4c-0.2-1-0.4-1.9-0.4-2.9c-0.1-0.9-0.1-1.8,0-2.5C529.3,1086,529.6,1085,529.6,1085"/>
	<path id="Fill-93" class="st25" d="M461,985.5c0,0-0.2,0.3-0.6,0.8c-0.4,0.5-0.8,1.3-1.4,2.2c-0.3,0.5-0.6,1-0.9,1.5
		c-0.3,0.5-0.6,1.1-0.9,1.7c-0.3,0.6-0.6,1.2-0.9,1.9c-0.3,0.6-0.6,1.3-0.8,2c-0.3,0.7-0.5,1.3-0.8,2c-0.2,0.7-0.5,1.3-0.6,2
		c-0.2,0.6-0.4,1.3-0.5,1.9c-0.2,0.6-0.3,1.2-0.4,1.7c-0.1,0.5-0.2,1-0.3,1.4c-0.1,0.4-0.1,0.8-0.2,1.1c-0.1,0.6-0.2,1-0.2,1
		s0-0.4,0-1c0-0.3,0-0.7,0-1.2c0-0.4,0.1-0.9,0.1-1.5c0-0.3,0-0.6,0.1-0.9c0-0.3,0.1-0.6,0.2-0.9c0.1-0.6,0.2-1.3,0.4-1.9
		c0.2-0.7,0.3-1.4,0.6-2c0.2-0.7,0.5-1.4,0.8-2.1c0.3-0.7,0.6-1.3,0.9-2c0.3-0.7,0.7-1.3,1-1.9c0.7-1.2,1.4-2.3,2.1-3.1
		c0.7-0.9,1.3-1.5,1.7-2C460.8,985.7,461,985.5,461,985.5"/>
	<path id="Fill-94" class="st25" d="M541.2,1026.2c0,0-0.3,0.1-0.8,0.4c-0.3,0.1-0.6,0.3-0.9,0.5c-0.3,0.2-0.7,0.4-1.1,0.7
		c-0.4,0.3-0.8,0.6-1.2,0.9c-0.4,0.3-0.8,0.8-1.3,1.2c-0.4,0.5-0.8,0.9-1.2,1.4c-0.2,0.3-0.4,0.5-0.6,0.8l-0.5,0.8
		c-0.2,0.3-0.3,0.5-0.4,0.8c-0.1,0.3-0.3,0.6-0.4,0.9c-0.2,0.6-0.4,1.2-0.6,1.8c-0.1,0.6-0.2,1.2-0.3,1.7c-0.1,0.5-0.1,1.1-0.1,1.6
		c0,0.5-0.1,0.9-0.1,1.3c0,0.4,0,0.7,0,1c0,0.6,0,0.9,0,0.9s-0.1-0.3-0.2-0.9c-0.1-0.3-0.1-0.6-0.2-1c-0.1-0.4-0.1-0.9-0.1-1.4
		c0-0.5-0.1-1.1,0-1.6c0.1-0.6,0.1-1.2,0.2-1.8c0.2-0.6,0.3-1.3,0.5-1.9c0.1-0.3,0.3-0.6,0.4-0.9c0.1-0.3,0.3-0.6,0.5-0.9l0.5-0.9
		c0.2-0.3,0.4-0.5,0.6-0.8c0.4-0.6,0.9-1,1.3-1.4c0.5-0.4,1-0.8,1.4-1.1c0.5-0.3,0.9-0.6,1.4-0.8c0.4-0.3,0.9-0.4,1.2-0.6
		c0.4-0.1,0.7-0.3,1-0.3C540.9,1026.2,541.2,1026.2,541.2,1026.2"/>
	<path id="Fill-95" class="st25" d="M529.6,1024.4c0,0-0.6,0.4-1.5,1.1c-0.4,0.3-0.9,0.8-1.3,1.2c-0.2,0.2-0.4,0.5-0.6,0.8
		c-0.2,0.3-0.4,0.6-0.6,0.9c-0.2,0.3-0.3,0.6-0.5,0.9c-0.1,0.3-0.3,0.6-0.4,0.9c-0.1,0.3-0.2,0.6-0.3,0.9c-0.1,0.3-0.2,0.6-0.2,0.8
		c-0.2,0.5-0.2,1-0.3,1.3c-0.1,0.3-0.1,0.5-0.1,0.5s0-0.2-0.1-0.5c0-0.3-0.1-0.8,0-1.4c0-0.3,0-0.6,0.1-0.9c0.1-0.3,0.1-0.7,0.2-1
		c0.1-0.3,0.2-0.7,0.4-1c0.2-0.3,0.3-0.7,0.5-1c0.2-0.3,0.4-0.6,0.7-0.9c0.2-0.3,0.5-0.6,0.8-0.8c0.2-0.3,0.6-0.4,0.8-0.6
		c0.3-0.2,0.5-0.3,0.8-0.5C528.9,1024.5,529.6,1024.4,529.6,1024.4"/>
	<path id="Fill-96" class="st25" d="M588.3,1081.6c0,0,0.3-0.1,0.8-0.4c0.3-0.1,0.6-0.3,0.9-0.5c0.3-0.2,0.7-0.4,1.1-0.7
		c0.4-0.3,0.8-0.6,1.2-0.9c0.4-0.3,0.8-0.8,1.3-1.2c0.4-0.4,0.8-0.9,1.2-1.4c0.2-0.3,0.4-0.5,0.6-0.8l0.5-0.8
		c0.2-0.3,0.3-0.5,0.4-0.8c0.1-0.3,0.3-0.6,0.4-0.9c0.2-0.6,0.4-1.2,0.6-1.8c0.1-0.6,0.2-1.2,0.3-1.7c0.1-0.5,0.1-1.1,0.1-1.6
		c0-0.5,0.1-0.9,0.1-1.3c0-0.4,0-0.7,0-1c0-0.6,0-0.9,0-0.9s0.1,0.3,0.2,0.9c0.1,0.3,0.1,0.6,0.2,1c0.1,0.4,0.1,0.9,0.1,1.4
		c0,0.5,0.1,1.1,0,1.6c-0.1,0.6-0.1,1.2-0.2,1.8c-0.2,0.6-0.3,1.3-0.5,1.9c-0.1,0.3-0.3,0.6-0.4,0.9c-0.1,0.3-0.3,0.6-0.5,0.9
		l-0.5,0.9c-0.2,0.3-0.4,0.5-0.6,0.8c-0.4,0.6-0.9,1-1.3,1.4c-0.5,0.4-1,0.8-1.4,1.1c-0.5,0.3-0.9,0.6-1.4,0.8
		c-0.4,0.3-0.9,0.4-1.2,0.6c-0.4,0.1-0.7,0.3-1,0.3C588.6,1081.6,588.3,1081.6,588.3,1081.6"/>
	<path id="Fill-97" class="st25" d="M599.9,1083.4c0,0,0.7-0.4,1.5-1.1c0.4-0.3,0.9-0.8,1.3-1.2c0.2-0.2,0.4-0.5,0.6-0.8
		c0.2-0.3,0.4-0.6,0.6-0.9c0.2-0.3,0.3-0.6,0.5-0.9c0.1-0.3,0.3-0.6,0.4-0.9c0.1-0.3,0.2-0.6,0.3-0.9c0.1-0.3,0.2-0.6,0.2-0.8
		c0.2-0.5,0.2-1,0.3-1.3c0.1-0.3,0.1-0.5,0.1-0.5s0,0.2,0.1,0.5c0,0.3,0.1,0.8,0,1.4c0,0.3,0,0.6-0.1,0.9c-0.1,0.3-0.1,0.7-0.2,1
		c-0.1,0.3-0.2,0.7-0.4,1c-0.2,0.3-0.3,0.7-0.5,1c-0.2,0.3-0.4,0.6-0.7,0.9c-0.2,0.3-0.5,0.6-0.8,0.8c-0.3,0.3-0.6,0.4-0.8,0.6
		c-0.3,0.2-0.5,0.3-0.8,0.5C600.6,1083.4,599.9,1083.4,599.9,1083.4"/>
	<path id="Fill-98" class="st25" d="M513.7,1058.9c0,0-0.1,0.6-0.3,1.4c-0.2,0.9-0.4,2-0.6,3.1c0,0.3-0.1,0.6-0.1,0.8
		c0,0.3-0.1,0.5-0.1,0.8c0,0.3,0,0.5,0,0.8c0,0.2,0,0.5,0,0.7c0,0.4,0,0.8,0.1,1.1c0,0.3,0,0.4,0,0.4s-0.1-0.1-0.2-0.4
		c-0.1-0.2-0.3-0.6-0.4-1c-0.1-0.2-0.1-0.5-0.2-0.7c-0.1-0.3-0.1-0.5-0.1-0.8c-0.1-0.6,0-1.2,0.1-1.8c0.1-0.6,0.2-1.2,0.4-1.7
		c0.2-0.5,0.4-1,0.6-1.4C513.3,1059.4,513.7,1058.9,513.7,1058.9"/>
	<rect x="529.1" y="1019.8" class="st18" width="72.7" height="58.4"/>
	<rect x="539.4" y="1067.1" class="st18" width="39.7" height="31.9"/>
</g>
</svg>
