<?xml version="1.0" encoding="utf-8"?>
<!-- Generator: Adobe Illustrator 22.1.0, SVG Export Plug-In . SVG Version: 6.00 Build 0)  -->
<svg version="1.1" id="Layer_1" xmlns="http://www.w3.org/2000/svg" xmlns:xlink="http://www.w3.org/1999/xlink" x="0px" y="0px"
	 viewBox="0 0 1920 1090" style="enable-background:new 0 0 1920 1090;" xml:space="preserve">
<style type="text/css">
	.st0{display:none;}
	.st1{display:inline;fill:none;stroke:#3D1717;stroke-linecap:round;stroke-linejoin:round;}
	.st2{display:inline;fill:#ECA6A9;}
	.st3{display:inline;fill:#3C1919;}
	.st4{display:inline;fill:#EE509A;}
	.st5{display:inline;fill:none;stroke:#3C1919;}
	.st6{display:inline;fill:#E2625C;}
	.st7{display:inline;fill:#C68572;}
	.st8{display:inline;fill:#3D1717;}
	.st9{display:inline;fill:#F6F1D7;}
	.st10{display:inline;fill:#AB6E63;}
	.st11{display:inline;fill:#E2DCC0;}
	.st12{display:none;fill:#A6D8D7;}
	.st13{fill:#F5F5F5;}
	.st14{fill:#ECA6A9;}
	.st15{fill:#3D1717;}
	.st16{fill:#3C1919;}
	.st17{fill:#E2625C;}
	.st18{fill:#7E3BEB;}
	.st19{fill:#CBC0C0;}
	.st20{fill:#736157;}
	.st21{fill:#726259;}
	.st22{fill:#C99E92;}
	.st23{fill:#2ADFDF;}
	.st24{fill:#D45E6E;}
	.st25{fill:#E7F4F4;}
</style>
<title>Artboard 1</title>
<g id="_9.-Insider-tips">
	<g id="werewolf" class="st0">
		<path id="Stroke-5" class="st1" d="M247.8,1222.3c8.6,5.2,18.1,12.8,25.3,23.3 M238.3,1217.3c1.7,0.8,3.5,1.7,5.4,2.7
			 M230.8,1214.2c1,0.4,2.1,0.8,3.3,1.3 M226.1,1212.6c0,0,0.4,0.1,1.3,0.4"/>
		<polyline id="Fill-6" class="st2" points="348.5,1229.8 351.7,1239.3 341,1237.4 348.5,1229.8 		"/>
		<polygon id="Stroke-7" class="st1" points="348.5,1229.8 351.7,1239.3 341,1237.4 		"/>
		<polyline id="Fill-8" class="st2" points="354.8,1248.8 351.7,1239.3 362.4,1241.2 354.8,1248.8 		"/>
		<polygon id="Stroke-9" class="st1" points="354.8,1248.8 351.7,1239.3 362.4,1241.2 		"/>
		<path id="Fill-10" class="st2" d="M348.4,1243c-0.6-2.6,1-5.3,3.7-5.9c2.7-0.6,5.3,1,5.9,3.7c0.6,2.6-1,5.3-3.7,5.9
			C351.7,1247.3,349,1245.7,348.4,1243L348.4,1243"/>
		<path id="Stroke-11" class="st1" d="M348.4,1243c-0.6-2.6,1-5.3,3.7-5.9c2.7-0.6,5.3,1,5.9,3.7c0.6,2.6-1,5.3-3.7,5.9
			C351.7,1247.3,349,1245.7,348.4,1243L348.4,1243z"/>
		<polyline id="Fill-12-2" class="st3" points="265.4,1252.6 275.9,1253.3 269.9,1261.8 265.4,1252.6 		"/>
		<polygon id="Stroke-13" class="st1" points="265.4,1252.6 275.9,1253.3 269.9,1261.8 		"/>
		<polyline id="Fill-14-2" class="st3" points="287.5,1254.5 277,1253.8 282.9,1245.3 287.5,1254.5 		"/>
		<polygon id="Stroke-15" class="st1" points="287.5,1254.5 277,1253.8 282.9,1245.3 		"/>
		<path id="Fill-16-2" class="st4" d="M279.2,1258.5c-2.5,1.2-5.5,0.2-6.7-2.3c-1.2-2.5-0.2-5.5,2.3-6.7c2.5-1.2,5.5-0.2,6.7,2.3
			l0,0l0,0C282.7,1254.2,281.7,1257.3,279.2,1258.5"/>
		<path id="Stroke-17" class="st5" d="M279.2,1258.5c-2.5,1.2-5.5,0.2-6.7-2.3c-1.2-2.5-0.2-5.5,2.3-6.7c2.5-1.2,5.5-0.2,6.7,2.3
			l0,0l0,0C282.7,1254.2,281.7,1257.3,279.2,1258.5z"/>
		<path id="Fill-18-2" class="st6" d="M310.1,1272.3c0,1.1-1,2-2.1,1.9c-1.1,0-2-1-1.9-2.1c0-1.1,1-2,2-1.9
			C309.3,1270.3,310.2,1271.2,310.1,1272.3L310.1,1272.3L310.1,1272.3"/>
		<path id="Stroke-19" class="st5" d="M310.1,1272.3c0,1.1-1,2-2.1,1.9c-1.1,0-2-1-1.9-2.1c0-1.1,1-2,2-1.9
			C309.3,1270.3,310.2,1271.2,310.1,1272.3L310.1,1272.3z"/>
		<path id="Stroke-20" class="st1" d="M255.2,1260.8c1.5,2.2,3.1,4.7,4.8,7.5 M247.9,1251c1,1.2,2.1,2.6,3.3,4.3 M243.2,1245.5
			c0,0,0.8,0.7,2.1,2.4"/>
		<path id="Fill-21-2" class="st6" d="M269.5,1279.1c-0.1,2.5-2.1,4.4-4.6,4.4c-2.5-0.1-4.4-2.1-4.4-4.6c0.1-2.5,2.1-4.4,4.6-4.4
			l0,0l0,0C267.6,1274.5,269.6,1276.6,269.5,1279.1"/>
		<path id="Stroke-22" class="st5" d="M269.5,1279.1c-0.1,2.5-2.1,4.4-4.6,4.4c-2.5-0.1-4.4-2.1-4.4-4.6c0.1-2.5,2.1-4.4,4.6-4.4
			l0,0l0,0C267.6,1274.5,269.6,1276.6,269.5,1279.1z"/>
		<path id="Fill-23-2" class="st7" d="M177.7,1295.6c2.3-8.9,0.6-15.1-1.8-19.2c0,0,0.6-12.6-10.4-16.9c-6.7-2.6-20.2-1.7-29.9-0.6
			c17.1-7.5,14.6-22.3,14.6-22.3c2.8,2.4,2.9,9,2.9,9c5.7-11.9-5.5-24.5-5.9-25l0,0c-1.1-0.7-2.3-1.3-3.5-1.8
			c3.2-1.4,6.6-1.5,10-0.5c-4.4-6.6-15.8-8.3-15.8-8.3l0,0c5.2-1.4,9.9-4,14.1-7.4c8.5-0.2,20.3-2.5,27.2-14.1
			c2,1.1,4.2,1.7,6.4,1.7c-9.3,25.8,8.3,11,8.3,11c0.8,10,14.7-4.1,17.3-6.9c0.1-0.1,0.2-0.1,0.1-0.2l0.2-0.1l0.1,0
			c1.4,26.9,8.2-0.8,8.5-2c-1.4,11.9,5.1,14,5.1,14c-3.3-15.5,6.8-18.9,7.9-19.1l0,0l0.1,0c38.5,19.2,44.1-0.9,44.1-0.9
			c18.4,6.4,16.9-1.5,17.1-6c1.1-28.5-35.8-46-36.7-46.4c2.5-4.5,7.2-15,4.6-26.1c0,0,0.3,5.3-2.6,7.8c0,0,2-8.2-5.3-19.5
			c4.8-12.4,5.5-26,2.1-38.8c-0.8-2.8-1.3-5.5-1.7-8.4l0-0.1c-0.1-0.8-0.2-1.6-0.2-2.4l0,0c-0.3-2.9-1.2-7.4-4.3-9.7
			c0,0-26.2-9.9-47.8,37.6c0,0-7.3-1-11.9-9.4c0,0-1.1,1.8,4.5,11.2c-0.1,0-0.3,0-0.4,0c-1.8-0.2-8.4-1.7-13.5-9.4
			c0,0-1.5,5.5,2.6,12.1c-0.4-0.6-7.1-10.5-21.8-5.7c0,0,11.8,7,12.8,14.8c-4-0.2-7.8-0.9-11.5-2.1l-0.1,0.1
			c2.2,0.7,4.4,1.6,6.3,2.9c2.6,1.7,4.9,3.7,6.9,6l0,0c0.3-0.3,0.7-0.6,1-0.9c3.5-2.7,7.5-2.7,11.4-0.3c2.2-3.4,8.7,0.6,8.7,0.6
			c-1.3,1.9-2.3,4.1-2.9,6.4c-0.4,1.4-0.8,2.9-0.9,4.2c-0.5,2.8-0.6,5.6-0.5,8.4c0.1,1.6,0.2,3.3,0.4,5.1c0.3,2.7,0.8,5.2,1.5,7.9
			c0.4,1.8,1,3.6,1.5,5.4c0.4,1.4,0.9,2.9,1.4,4.3c0.4,1.1,0.8,2.2,1.2,3.2c0.5,1.4,1.1,2.7,1.6,4c1.2,2.7,2.2,5.1,3.4,7.2
			c0.6,1.3,1.3,2.4,1.9,3.5c1.4,2.4,3,4.7,4.8,7c0.7,0.9,1.5,1.7,2.3,2.4c1.7,1.5,3.7,2.7,5.8,3.3c0,0-3.1,7.7-7.5,4.8
			c-3.6,2.6-7.9,3.9-12.3,3.9c-2.8-0.2-5.6-1-8-2.5c-1.9-1.2-3.6-2.5-5.1-4.2c-1.8-1.9-3.4-4.1-4.8-6.5c-1.2-2.1-2.3-4.2-3.4-6.4
			c-1-2.2-2.1-4.8-3-7.5c-0.1-0.3-0.1-0.5-0.3-0.8c-0.6-1.6-1.1-3.2-1.5-4.8c-0.6-2.1-1.2-4.1-1.7-6.2c-0.4-1.6-0.7-3.1-1-4.6
			c-0.8-4.3-1.4-8.7-1.5-13.1l0.2-0.5c-3.7-1.7-7.6-2.7-11.7-3.1c-5.3-0.6-13.7,0.9-16-14c0-0.2-0.1-0.4,0-0.6l-0.2,0
			c0,0-15.7,6.2-23.8-4.9c0,0,1.5,6.6,5.7,9.4c-2.6-1.4-13.1-6.4-20.6-0.2c0,0,6.6-0.5,9.8,3.3c0,0-10.8-1.9-19.7,1
			c0.3-0.6,7-14.6-1.1-25.5l-3.6,11c-1.7-3.2-3-6.5-3.9-10l-0.2-0.8c-2.3-8.5-7.6-15.8-15-20.5c0,0-0.1,8.1,2.1,11.5l0.8,0.8
			c-0.4-0.2-0.5-0.5-0.8-0.8c-1.4-1.5-2.9-2.9-4.6-4.3c0,0-16.5-4.8-22.4,13.6c-1.8,5.8-2.3,12-1.2,18l-0.1,0
			c0,0-8.2-17.3-23.4-21.8c-9-2.7-19.3-0.4-23.4,3.1c-3.5,3-7.7,8.2-1.4,18.4c-1.5,2.4-2,5.2-1.3,7.9c2.4,14.1,10.8,12.5,10.8,12.5
			L4,1122c-0.3,2.4-0.1,4.9,1,7.2c5.5,14,20.9,6.5,20.9,6.5c-0.4,5.7,4.2,11.3,4.2,11.3c-1.6,2.3-2.3,5.7-1.8,10.2
			c1.8,14.1,12.1,20.7,17.4,17.3c0.6-0.5,1.3-0.9,1.8-1.5c-1.2,3.2-0.3,6.8,2.1,9c-0.8-0.2-1.5-0.4-2.3-0.5
			c-6.2-0.7-12.5,9.8-7.7,23.2c1.5,4.4,3.8,7,6.2,8.3c0,0-3,12.9,6.5,16.1c2.8,1,5.8,1.1,8.6,0.3l0,0c0,0,12.7,7.8,16.9-7
			c0.6-2.7,0.5-5.5-0.3-8.1c34.6,21.9,22.3,35,13.4,43.1c-4.8,4.3-14.4,15,17.9,22.5s32.1,21,32.1,21s-6.8,5.7,12.5,3.3
			c1.1-0.2,2.2-0.3,3.2-0.5l0,0C157,1304,172.8,1313.8,177.7,1295.6"/>
		<path id="Fill-24-2" class="st8" d="M211.5,1171.2c-4.3-2.9,1.8-8.4,1.8-8.4c-0.8-0.8-1.6-1.7-2.3-2.5l-0.2,0.1c0,0-5,4.7-8.1,0.8
			c-3.2-3.9,3.1-7.7,3.6-7.9c-0.6-1.1-1.2-2.2-1.9-3.5l-0.4,0.2c0,0-5.6,3.6-7.7-1.1c-1.9-4.4,4.2-6.3,4.2-6.3l0.5-0.2
			c-0.5-1.3-1-2.6-1.6-4l-0.7,0.3c0,0-6,3-7.4-1.8c-1.4-4.5,5.5-6,5.5-6l0,0c-0.6-1.9-1.1-3.7-1.5-5.5c0,0-6.2,2.5-7.3-2.4
			c-1.1-4.6,5.9-5.6,5.9-5.6l0,0c-0.2-1.8-0.3-3.5-0.4-5.1c0,0-6,0.5-6.7-4.1l0-0.5c-0.3-5.1,7.2-4.1,7.2-4.1l0,0
			c0.2-1.4,0.4-2.9,0.9-4.2c0,0-7.8-1.1-6.2-6.2c0.1-0.3,0.3-0.6,0.4-0.9c-4-2.4-8-2.4-11.4,0.2c1.5,0.7,6.4,3.1,4.1,8
			c1.4,2.4,2.4,5.2,2.9,7.9c0.8,4.1,0.1,7.8-2.1,10.1c0.7,1.7,1.2,3.5,1.5,5.3c0.9,5.8-2.7,8.8-6.3,10.2l0.2,0.4
			c0.8,0.6,1.3,1.4,1.4,2.4c0.9,4.6-5.4,5-5.4,5l-0.1,0c0.5,1.6,1,3.2,1.6,4.9l0.3,0.8l0.7-0.3c0,0,6-3.1,7.5,1.7
			c1.5,4.5-4.9,6-4.9,6l-0.3,0.1c0.9,2.2,2.1,4.4,3.4,6.5l0,0c0,0,4.5-5.1,7.5-1.2c2.9,3.6-2.8,7.7-2.8,7.7l0,0
			c1.5,1.7,3.2,3,5.1,4.2c0.4-0.6,3.1-5.9,7-3.1c2,1.5,1.7,3.6,1,5.4l-0.1,0.2C203.7,1175.1,208,1173.8,211.5,1171.2"/>
		<path id="Fill-25-2" class="st9" d="M177.1,1092.6c-0.2,0.3-0.6,0.6-0.8,0.9l0,0c2,2.6,3.5,5.4,4.9,8.4
			C183.1,1096.6,178.5,1093.4,177.1,1092.6"/>
		<path id="Fill-26-2" class="st9" d="M193.3,1117.6L193.3,1117.6c0,0-6,0.7-4.8,5.8c1.3,5.4,6.5,3,6.5,3
			C194.2,1123.2,193.6,1120.3,193.3,1117.6"/>
		<path id="Fill-27-2" class="st9" d="M197.6,1170.2c-3.9-2.2-7.1,2.4-7.5,3c2.6,1.2,5.4,1.8,8.2,1.8l0.1-0.2
			C199.2,1173.2,199.6,1171.4,197.6,1170.2"/>
		<path id="Fill-28-2" class="st9" d="M188.5,1160.2c-3.5-4.3-8.4,1.4-8.4,1.4l0,0c1.5,2.6,3.3,5,5.3,7.2l0,0
			C185.4,1168.8,191.9,1164.3,188.5,1160.2"/>
		<path id="Fill-29-2" class="st9" d="M184.2,1148.4c-1.6-5.2-7-2-7-2l-0.6,0.2c1,3,2,5.7,3,8.2l0.2,0
			C179.8,1154.7,185.7,1153.3,184.2,1148.4"/>
		<path id="Fill-30-2" class="st9" d="M179.4,1137c-0.1-0.9-0.5-1.6-1.2-2.2l-0.2-0.3c-1.6,0.7-3.3,1.2-5,1.4
			c0.4,1.8,0.9,3.6,1.5,5.5l0,0C174.5,1141.5,180.2,1141.1,179.4,1137"/>
		<path id="Fill-31-2" class="st9" d="M211.5,1172.6c4.8,3.4,8-5.3,8-5.3c-2.4-0.9-4.4-2.2-6.1-4.1
			C213.4,1163.2,206.8,1169.3,211.5,1172.6"/>
		<path id="Fill-32-2" class="st9" d="M202,1161.2c3.6,4.2,9.3-1,9.3-1l0.2-0.1c-2-2.3-3.8-4.8-5.4-7.6
			C205.7,1152.9,198.6,1157.1,202,1161.2"/>
		<path id="Fill-33-2" class="st9" d="M205.1,1150.1c-1.1-2.3-2.2-4.9-3.4-7.8l-0.4,0.2c0,0-5.5,1.9-3.7,6.5c2,4.9,7.1,1.3,7.1,1.3
			L205.1,1150.1"/>
		<path id="Fill-34-2" class="st9" d="M199.5,1139.3c-0.4-1.1-0.8-2.3-1.2-3.5c-0.6-1.6-1.1-3.1-1.4-4.7l-0.1,0c0,0-6.3,1.4-4.9,6.3
			c1.5,5.2,7.1,2.2,7.1,2.2L199.5,1139.3"/>
		<path id="Fill-35-2" class="st9" d="M194.2,1103.8c0,0-8.4-1.2-8.1,4.5l0,0.5c0.7,5.1,7.5,4.5,7.5,4.5
			C193.5,1110.2,193.7,1107,194.2,1103.8L194.2,1103.8"/>
		<path id="Fill-36-2" class="st9" d="M198.9,1093.4c0,0-7.5-4.4-10-0.6c-0.2,0.4-0.4,0.6-0.5,1c-1.9,5.7,7.1,6.8,7.1,6.8
			C196.3,1098.1,197.4,1095.7,198.9,1093.4"/>
		<path id="Fill-37-2" class="st6" d="M177.1,1135.4c3.5-1.6,7.2-4.6,6.4-10.4c-0.2-1.8-0.8-3.6-1.5-5.3c2.3-2.4,2.9-5.9,2.2-10.1
			c-0.5-2.7-1.5-5.5-2.9-7.9c-1.4-2.5-3.1-5-5.1-7.1c-2.1-2.3-4.3-4.3-6.9-6.1c-1.9-1.3-4-2.3-6.4-3c-11.4-3.4-23.2,3-21.8,15.2
			c0,0.2,0,0.4,0,0.6c2.3,15,10.7,13.6,16,14.2c3.7,0.4,7.4,1.2,10.8,2.7l2.4,14l-0.2,0c0.2,1.5,0.6,3,1,4.7
			C173.3,1136.8,175.2,1136.3,177.1,1135.4"/>
		<path id="Fill-39-2" class="st10" d="M162.3,1269.9c5.1,0.1,9.9,2.3,13.5,5.8c-2.7-4.9-12.7-18.9-37-17.1c-1,0.1-2,0.2-2.9,0.3
			c11.8-10.6,6.1-25.6,6.1-25.6c4.2,0.7,4.3,8.1,4.3,8.1c2.9-9.7-8.6-18.7-8.6-18.7c4.4-0.4,6,2.6,6,2.6c-2.9-9.5-22-9.5-14.6-13.5
			c3.2-1.6,6.6-2.4,10.2-2.5c4.7-1.5,9.1-4,12.9-7.2c0.7-0.1,1.4,0,2.1-0.1l7.5-2.4c-5.2,0.9-11.7-0.5-11.7-0.5
			c24.1-3.2,25.7-11.7,25.7-11.7c-2.8,2.4-11.6-1.1-11.6-1.1c12.5-3,13.3-11.9,13.3-11.9c0.6,11.6,8.4,15.3,8.4,15.3
			c-5.7,15.8-1.4,16.5,2.9,14.6c20-26.2,10.8-7.4,7.1-0.3c4,1.9,13.6-8,15.8-10.2l0.2-0.3c0.1,0,0.1-0.1,0.2-0.1l0.1,0
			c0.5,8.9,1.5,11.9,2.7,11.8c0,0,7.2-31.7,7.2-3.3c0.8,1.6,2.1,2.8,3.7,3.5c-3.3-15.6,6.8-19,7.9-19.2l0,0l0.1,0l0.1,0.1
			c6.7-7.9,29.8-1,29.8-1s-14.9,0-7.3,3.3c4.6,2,12.1,2.5,17.4,2.6c2-1.5,3.5-3.5,4.4-5.8c7.4,2.7,11.7,2.9,14,1.9
			c0,0,4.9-18-12.1-34.1c-17-16.1-31.3-18.3-31.3-18.3s9.8-5.9,12.2-14.9c0,0-4,4.9-5.7,5c0,0,5-16.5-5.8-28.9c0,0,11.7-15.9,0.2-59
			l-1.1,4.2l-0.9-3.7c0,0-24.2-1.4-42.4,34.4l-1.9,0.1l-0.2,0.5c0,0-7.4-1.1-12-9.4c0,0-1.1,1.8,4.5,11.2l-0.4-0.1
			c-1.8-0.2-8.4-1.7-13.6-9.5l-0.1,0.2c0.9,5.1,3.1,10,6.4,14c0,0-16.2-6.8-25.2-7.5c2,1.3,11.6,7.6,12.4,14.6
			c-4-0.2-7.8-0.9-11.6-2.2l-0.1,0.1c2.2,0.7,4.4,1.6,6.4,3c2.6,1.7,4.9,3.7,6.9,6l0,0c0.3-0.3,0.7-0.6,1-0.9
			c3.5-2.7,7.6-2.7,11.5-0.3c2.2-3.4,8.8,0.6,8.8,0.6c-1.3,1.9-2.3,4.1-2.9,6.4c-0.4,1.4-0.7,2.8-0.9,4.2c-0.5,2.8-0.6,5.7-0.4,8.5
			c0.1,1.6,0.2,3.3,0.4,5.1c0.3,2.7,0.9,5.3,1.5,8c0.4,1.8,1,3.6,1.5,5.5c0.4,1.4,0.9,2.9,1.4,4.3c0.4,1.1,0.8,2.2,1.2,3.2
			c0.5,1.4,1.1,2.8,1.6,4c1.2,2.7,2.2,5.1,3.4,7.3c0.6,1.3,1.3,2.4,1.9,3.5c1.4,2.4,3,4.8,4.8,7c0.8,0.9,1.7,1.8,2.3,2.5
			c1.6,1.7,3.6,2.9,5.7,3.6c0,0-3.1,7.8-7.6,4.8c-3.6,2.6-7.9,4-12.3,3.9c-2.8-0.2-5.6-1-8-2.5c-1.9-1.2-3.6-2.5-5.1-4.2
			c-1.8-1.9-3.4-4.1-4.8-6.5c-1.2-2.1-2.3-4.2-3.4-6.4s-2.1-4.8-3-7.5c-0.1-0.3-0.1-0.5-0.3-0.8c-0.6-1.6-1.1-3.2-1.6-4.9
			c-0.6-2.1-1.2-4.1-1.7-6.2c-0.4-1.6-0.7-3.1-1-4.6c-0.8-4.4-1.4-8.8-1.5-13.3l0.2-0.5c-3.7-1.7-7.7-2.7-11.8-3.1
			c-5.1-0.5-12.9,0.7-15.6-11.8l0,0c0,0-8.8,5.4-14.4,3.1l6.6,4.1c0,0-9.1-4.9-12.9-4c0,0,12.3,2,15.8,11.2c0,0-23.3-11.1-39.7-5.1
			c-9.1,3.3-8.7,2.1-7.7-0.3c1.3-3.4,1.3-14.5,1.3-14.5s-1.9,7.4-4,6.8c-2.1-0.6-5.5-25.5-13.6-24.1s-11.5,6.7-11.5,6.7
			s4.1-2.1,5.2-1.3c0,0-20.7,9.7-20.2,26.5c0,0-15.7-29.7-35.7-25.8c-11.4,2.2-16.7,7.2-19.1,11.2c0.6,1.5,1.3,3,2.2,4.3
			c-1.5,2.4-1.9,5.3-1.4,8c2.5,14.2,10.8,12.6,10.8,12.6l0.4,0.1c-0.3,2.4-0.1,4.9,0.9,7.3c5.5,14.1,21,6.5,21,6.5
			c-0.4,5.7,4.2,11.3,4.2,11.3c-1.6,2.3-2.3,5.7-1.8,10.3c1.8,14.2,12.1,20.9,17.5,17.3c0.6-0.5,1.3-0.9,1.8-1.5
			c-1.2,3.2-0.3,6.8,2.1,9c-0.8-0.2-1.5-0.4-2.3-0.5c-6.3-0.7-12.6,9.9-7.8,23.4c1.5,4.4,3.8,7,6.2,8.4c0,0-3.1,13.1,6.5,16.2
			c2.8,1,5.8,1.1,8.7,0.3l0,0c0,0,12.8,7.7,17-7c0.6-2.7,0.5-5.5-0.3-8.2c0.5,0.3,0.8,0.5,1.2,0.8c2.2-0.5,25.1-6.1,30,10.2
			c0,0-4.5-7.2-11.6-5.3c0,0,21.1,24.5-3.2,35l0,0c-0.9,0.9-1.9,1.9-2.8,2.7c-4.8,4.4-14.4,15.1,17.9,22.6s32.3,21.1,32.3,21.1
			s-5,4.2,5.8,3.9c7.5-3.6,15.4-10.1,11.2-20.7c0,0,3.8-0.8,6,10.3l-0.4,3.7l-2.4,3.3l-3.6,2l-0.8,0.4c2.9,1.7,6.2,2.6,9.6,2.7
			C171.6,1301.2,177.1,1289,162.3,1269.9"/>
		<path id="Stroke-40" class="st1" d="M171.3,1247.1c-0.4,0.4-0.9,0.8-1.4,1.3 M176.7,1240.7c-0.7,1.2-1.7,2.4-2.6,3.4 M183.1,1223
			c-0.6,5.2-2.2,10.3-4.7,14.9 M183.5,1216.9c0,1.2-0.1,2.7-0.1,4.1 M183.1,1211.5c0,0,0.1,1,0.2,2.7 M178.2,1260.1
			c-0.4,0.3-0.8,0.7-1.2,1 M181.9,1256.5c-0.7,0.8-1.5,1.5-2.2,2.3 M196.3,1219.8c-0.4,9-2.7,22.2-11.7,33.7 M196.2,1212.5
			c0,0.9,0.2,2,0.1,3.2 M195.9,1209c0.1,0.5,0.1,1,0.1,1.4 M313,1205.6c10.9,5.7,20.7,13.4,28.8,22.7 M298.3,1199.3
			c2.3,0.8,5,1.8,8.1,3.1 M289.7,1197c0,0,1.2,0.2,3.4,0.7"/>
		<path id="Fill-41-2" class="st11" d="M179.8,1099.9c0.5,0.7,0.8,1.3,1.2,2.1c2.2-4.6-1.5-7.3-3.6-8.4
			C179,1094.9,180.7,1096.9,179.8,1099.9"/>
		<path id="Fill-42" class="st11" d="M199,1093.7l-0.1-0.1c-0.5,0.6-0.9,1.4-1.4,2.4C197.9,1095.2,198.4,1094.5,199,1093.7"/>
		<path id="Fill-43" class="st11" d="M196.2,1099.4c-1.1-0.3-7.9-1.7-6.4-6.7l0,0l-0.1,0.1c-0.1,0.2-0.3,0.6-0.4,0.9
			c-1.6,5.5,6.5,6.8,6.5,6.8C196,1100.2,196.1,1099.9,196.2,1099.4"/>
		<path id="Fill-44" class="st11" d="M195,1126.3c-0.7-3.1-1.3-6.1-1.7-8.8l0,0l-0.1,0c0.3,2.3,0.8,4.8,1.5,7.5c0,0-4.7,2.2-6.3-2.3
			l0.1,0.6C189.8,1128.7,195.1,1126.3,195,1126.3"/>
		<path id="Fill-45" class="st11" d="M196.6,1170.4c1.8,1.2,1.5,2.9,0.8,4.4c0.3,0,0.7,0,1,0.1l0.1-0.2c0.7-1.5,1.1-3.3-0.8-4.5
			c-1-0.7-2.2-0.8-3.3-0.4C195.2,1169.8,196,1170,196.6,1170.4"/>
		<path id="Fill-46" class="st11" d="M187.2,1159.6c2.6,3.3-1.3,6.8-2.6,7.8c0.4,0.4,0.7,0.9,1.1,1.3l0,0c0,0,6.1-4.2,2.9-8.1
			c-0.5-0.6-1.2-1.2-2-1.4C186.9,1159.4,187,1159.6,187.2,1159.6"/>
		<path id="Fill-47" class="st11" d="M182.8,1147.4c1.1,3.2-2.4,4.8-3.8,5.2c0.2,0.4,0.3,0.8,0.5,1.1l0.2,0c0,0,5.7-1.4,4.4-5.5
			c-0.3-1.1-1.1-1.9-2.1-2.3C182.4,1146.4,182.6,1146.9,182.8,1147.4"/>
		<path id="Fill-48" class="st11" d="M179.4,1136.9c-0.1-0.3-0.1-0.6-0.2-0.9c0.5,4-4.9,4.2-4.9,4.2l-0.1,0
			c-0.5-1.5-0.8-3.1-1.3-4.6l0,0c0.4,1.8,1,3.8,1.6,5.7l0,0C174.5,1141.5,180.2,1141.1,179.4,1136.9"/>
		<path id="Fill-49" class="st11" d="M218.8,1164.4c-0.2-0.1-0.4-0.1-0.8-0.2c-1.1,1.8-4.1,5.6-7.6,3.8c-0.6-0.3-1-0.7-1.2-1.2
			c0,1,0.5,1.8,1.5,2.2C215.2,1171.4,218.8,1164.4,218.8,1164.4"/>
		<path id="Fill-50" class="st11" d="M211.2,1159.6l0.2-0.1c-0.3-0.2-0.5-0.5-0.7-0.8c-1.1,0.8-6.1,3.8-9,1
			c-0.3-0.2-0.4-0.5-0.6-0.8c0,0.7,0.3,1.4,0.9,1.9C205.4,1164.1,211.2,1159.6,211.2,1159.6"/>
		<path id="Fill-51" class="st11" d="M204.6,1149.4l0.4-0.2l-0.4-0.9l-0.1,0c0,0-5.2,3.2-7-0.8l0-0.1c0,0.4,0.1,0.8,0.3,1.2
			C199.4,1152.6,204.6,1149.4,204.6,1149.4"/>
		<path id="Fill-52" class="st11" d="M198.5,1137.7l0.6-0.2l-0.3-0.9l-0.5,0.2c0,0-5.4,2.5-6.8-1.3c0.1,0.3,0.1,0.5,0.2,0.8
			C193,1140.5,198.5,1137.8,198.5,1137.7"/>
		<path id="Fill-53" class="st11" d="M193.8,1111.1c-1.1,0.1-6,0.2-6.5-3.7l0-0.5l0.1-0.2c-0.2,0.5-0.3,1-0.3,1.5l0,0.5
			c0.6,4.3,6.7,3.6,6.7,3.6L193.8,1111.1"/>
		<path id="Fill-54" class="st4" d="M176.4,1132.6c3.5-1.6,7.3-4.5,6.5-10.1c-0.2-1.8-0.7-3.5-1.4-5.1c2.3-2.3,2.9-5.8,2.3-9.8
			c-0.5-2.7-1.5-5.3-2.8-7.7c-1.4-2.4-3.1-4.8-5-6.9c-1.9-2-4-3.9-6.3-5.4c3.6,4.2,5.4,9.8-0.8,13.6c0,0,5.9,11-1.7,10.9
			c-3.9-0.1-0.7-0.3-11.1-1.7c-11.7-1.5-13.9-15-14.4-17.7c-0.8,2-0.9,4.2-0.7,6.4c0,0.2,0,0.4,0,0.6c2.2,14.5,10.6,13,15.9,13.6
			c3.7,0.4,7.4,1.2,10.8,2.6l2.3,13.5l-0.2,0c0.2,1.5,0.6,2.9,1,4.5C172.6,1133.9,174.5,1133.3,176.4,1132.6"/>
		<path id="Stroke-55" class="st1" d="M198.8,1092.7c0,0-11.3,12-0.4,42.8c10.9,30.7,21.9,31,21.9,31 M194.1,1117.9
			c0,0-7,1.1-6.1,5.6c1.2,4.9,7.4,2.3,7.4,2.3 M193.7,1112.8c0,0-6.6,0.6-6.9-4.4c-0.3-5.1,7.4-4,7.4-4 M195.1,1100.1
			c0,0-8-1.1-6.3-6.1s9.3-0.4,9.3-0.4 M197,1131.2c0,0-7,1.6-5.6,6c1.5,4.8,7.6,1.7,7.6,1.7 M200.8,1142.9c0,0-6.2,2-4.4,6.3
			c2,4.6,7.7,0.9,7.7,0.9 M211.2,1160.5c0,0-5.1,4.7-8.3,0.8c-3.2-3.9,3.7-7.9,3.7-7.9 M219.4,1166.4c0,0-3.2,7.7-7.6,4.8
			c-4.4-3,1.9-8.4,1.9-8.4 M189.2,1093.1c-4.4-2.6-8.9-2.3-12.7,1.2 M211.8,1171.2c0,0-22.9,18.2-37.1-23.9
			c-3.8-11.1-5.4-20.7-5.6-28.7 M170.8,1136.5c0,0,13.8-1.4,12.3-11.9c-1.7-10.1-8.1-18.8-17.1-23.6 M176.1,1127.4
			c0.8-1.2,0.4-3.7-1.7-5.7c-4.7-4.6-12.1-6.1-17.1-6.5c-5.4-0.6-13.9,0.9-16.2-13.9s15.5-21.4,28.4-12.9
			c12.9,8.4,19.3,24.5,12.9,30.9 M173,1131.2c0.4-0.5,0.9-0.9,1.3-1.3 M178.2,1155.5c0,0,6.5-1.5,5.1-5.9c-1.5-4.8-7.6-1.7-7.6-1.7
			 M186.2,1168.4c0,0,5.9-4.1,2.9-7.7c-3.2-3.9-7.7,1.2-7.7,1.2 M191.1,1172.6c0,0,3.1-6.1,7.2-3.1c2,1.5,1.7,3.6,1,5.3
			 M173.2,1142.4c0,0,6.5-0.4,5.6-4.9c-0.1-1-0.7-1.9-1.4-2.4 M181.6,1101.3c2.9-5.7-4.2-7.5-4.2-7.5"/>
		<path id="Fill-56" class="st8" d="M237.6,1153.4c-6.1,4.5-13,5.7-15.4,2.4c-2.3-3.3,0.6-9.4,6.8-13.9c6.1-4.5,13-5.7,15.4-2.4
			S243.7,1148.9,237.6,1153.4"/>
		<path id="Stroke-57" class="st1" d="M227.4,1158.4c-1.9,0-3.7-0.8-4.9-2.2c-2.7-3.5,0.1-10,6.1-14.4c6-4.4,13.2-5.1,15.9-1.6
			c1.1,1.7,1.4,3.8,0.6,5.6 M230.1,1158.2c-0.3,0.1-0.7,0.2-1,0.1 M244.4,1147.6c-0.3,0.6-0.6,1.1-0.9,1.5"/>
		<path id="Fill-58" class="st8" d="M223.9,1095.8c-7.5-1.3-14.2,0.8-14.8,4.7c-0.6,3.9,4.8,8.1,12.3,9.4c7.5,1.3,14.2-0.8,14.8-4.7
			C236.8,1101.3,231.4,1097.1,223.9,1095.8"/>
		<path id="Stroke-59" class="st1" d="M212.3,1095c-1.8,0.8-2.9,2.3-3.4,4.2c-0.8,4.3,4.6,8.9,12,10.1c7.4,1.2,14.1-1.4,14.9-5.7
			c0.2-2-0.4-4-2-5.3 M214.8,1094c-0.3,0.1-0.7,0.2-0.9,0.3 M232.4,1097.1c-0.5-0.4-1-0.7-1.5-1"/>
		<path id="Fill-60" class="st8" d="M215.1,1115.5c0,0,8.1,12.7,5.8,24.3c0,0-7-0.6-12.4-9.9
			C208.6,1129.9,208.6,1119.4,215.1,1115.5"/>
		<path id="Stroke-61" class="st1" d="M208.2,1117.8c0,0-2.8,8.3-1.3,13.6c1,4.3,3.5,8,7,10.6L208.2,1117.8z M214.4,1116.9
			c0,0,8.6,12.4,5.7,24c0,0-7.6-0.4-13.3-9.5C206.9,1131.3,207.2,1120.9,214.4,1116.9z M253.8,1127.8c0,0.8,0,1.7-0.1,2.6
			L253.8,1127.8z M253.4,1121.2l0.2,1.5L253.4,1121.2z M256,1136.1c0,0,9.6-13.7,6.1-28.6c0,0,0.3,5.3-2.6,7.8c0,0,2.2-9.6-7.4-22.4
			c0,0,2,11,0.9,16.1c0,0-2.4-7.9-8.5-10.9c4.1,6.4,6.9,13.7,8.4,21.1L256,1136.1z M239.9,1064.3c0.7-2.5,0-5.1-1.9-7
			c-3.2-2.9-4.8,14.4-4.8,14.4c-1.7-2.5-3.2-5.1-4.1-8c-2.7-7.8-3.8,14.4-3.8,14.4s-2.6-1.4-4.1-7.4c-1.3-4.8-1,13.3-1,13.3
			s-8.5-2.2-7.2-9.8L239.9,1064.3z M254.1,1095.8c4.8-12.4,5.5-26,2.2-39c-4.8-17.5,1.4-16.8,1.4-16.8L254.1,1095.8z M254.6,1048.5
			c0,0,0.3-8.9-4.5-12.3c0,0-26.3-9.9-48.1,37.7c0,0-7.3-1-12-9.4c0,0-1.1,1.8,4.6,11.1c0,0-8.1-0.4-14.1-9.5c0,0-1.5,5.5,2.6,12.2
			c0,0-6.7-10.8-21.9-5.8c0,0,11.8,7.1,12.8,14.9c0,0-17.6,0-28.2-13.1L254.6,1048.5z M174,1087.4c0,0-15.1-5.1-17.9-12.2
			L174,1087.4z M194.1,1075.6c0,0-8.7-4.9-10.7-14.7L194.1,1075.6z M275.7,1171c0,0,5.1,1.8,4.4,12.5c0,0-1.4-8.6-14.9-16.6
			c0,0,14.4,21.8-3.3,3.9L275.7,1171z M264.7,1173.6c0,0,11.3,27.5-12.2-1.9L264.7,1173.6z M257.1,1177.4c0,0-2.3,13.9-11.5-5.8
			c0,0,3.3,18-4.4-1.9L257.1,1177.4z M257.4,1133.7c0,0,38.1,17.5,36.9,46.4c-0.2,4.6,1.3,12.5-17.2,6c0,0-5.7,20.2-44.4,0.9
			c0,0-6.7,5-3.4,16.5L257.4,1133.7z M232.8,1187.3c0,0-11.4,2.9-8,19.3c0,0-6.5-2.1-5.1-14c0,0-7.3,29.6-8.6,2
			c0,0-10.7,10.7-5.1,22.9L232.8,1187.3z M211.1,1194.4c0,0-16.9,18.4-17.8,7.3c0,0-17.6,15-8.3-11c0,0-11.7,0.2-9.5-10.3
			c0,0-7.3-10.5,1-6.2c0,0-8.7-5.9-8-10.8L211.1,1194.4z M156.7,1115.2c0,0-3.2,20.5,3.4,13.9c0,0-4.5,14.3-1.2,10.2L156.7,1115.2z
			 M130.1,1112.8c0,0-16.7-4.4-26.7,7.9c-8.8,10.6-2.9,17.1-2.9,17.1L130.1,1112.8z M107.1,1133.2c0,0-17.3,8.7-14.8,31.3
			L107.1,1133.2z M96.5,1159.4c0,0-9,17.4-18.7,4.4c0,0,4.7,17.5,19.9,23.1s22.1-5.2,22.1-5.2L96.5,1159.4z M105.5,1188.6
			c0,0,12.4,9.6,31.9-3L105.5,1188.6z M146.3,1187.1c-3.4,3.8-8.4,5.7-13.5,5.4L146.3,1187.1z M159,1187.1c-1.1,2.2-3.3,3.8-5.8,4.2
			L159,1187.1z M121.2,1192.1c-1.5,3-4.8,4.8-8.2,4.5c0,0,11.8,9.2,36.8,0.6c0,0-3.8,5-8.6,5.1c0,0,25.7,6.1,37.4-13.2L121.2,1192.1
			z M81,1180.3c0,0-8.4,7.1-27,5.2L81,1180.3z M57.6,1188.5c0,0-4.8-5.2-11.2-6s-12.6,9.9-7.8,23.3s16.3,10.8,19.1,2.4L57.6,1188.5z
			 M44.9,1214.2c0,0-3.1,13,6.5,16.1s16.8-3.2,17.5-10.8L44.9,1214.2z M60.1,1230.6c0,0,12.8,7.7,17-7c2-7.1-4.2-17.8-4.2-17.8
			L60.1,1230.6z M108.3,1195c0,0-22.5-2-38,13L108.3,1195z M76.6,1161.8c0,0-10.7-2.7-26.5,7.5L76.6,1161.8z M52.1,1165.1
			c0,0-2,6.8-7.3,10.4s-15.7-3.2-17.5-17.3s9.7-17,16-10.7L52.1,1165.1z M29.2,1147.9c0,0-8.6-10.2-1.4-17.3
			c7.1-7.1,16.5-4.7,20.5,1.8L29.2,1147.9z M35.4,1126.3c0,0,8-12.7,18.4-1.4c5,5.4,4.2,17.8,4.2,17.8L35.4,1126.3z M94.4,1136.4
			c0,0-19.2,11.9-39.8,5.4L94.4,1136.4z M140.4,1100.7c0,0-15.8,6.2-24-5c0,0,1.5,7.3,6.5,9.9c0,0-12.6-7.8-21.3-0.6
			c0,0,6.7-0.6,9.9,3.3c0,0-26-4.4-30.5,10.9L140.4,1100.7z M91.5,1109.3c0,0,7.3-14.4-1-25.6l-3.6,11c0,0-8.6-15.3-3-23.1
			L91.5,1109.3z"/>
		<path id="Stroke-62" class="st1" d="M83.9,1085.2c-2.1-9-7.6-16.7-15.3-21.6c0,0-0.1,10.1,3,12.5c0,0-11.9-14.2-20.5-8.3
			 M66.3,1070.8c0,0-16.5-4.8-22.4,13.6s4.9,33.7,4.9,33.7 M42.6,1102.4c0,0-8.2-17.3-23.3-21.8c-9-2.7-19.2-0.4-23.3,3.1
			c-3.5,3-7.7,8.2-1.4,18.4 M4.1,1122.6c0,0-8.4,1.5-10.8-12.6s15.8-13.9,15.8-13.9 M16.5,1112.6c0,0-16.5,3.3-11,17.3
			c5.5,14,20.9,6.6,20.9,6.6 M152,1203.2c0,0-13,11.8-28.2,7.7 M133.9,1211.8c0,0-0.6,6.7-18.9,0.3 M137.9,1210.8
			c0,0,11.5,1.7,15.8,8.3c-3.2-1-6.8-0.8-9.9,0.5 M134.5,1217.2c0,0,18.4,0.8,24,18.5 M147.2,1221.4c0,0,11.8,12.8,6,25.1
			c0,0-0.2-6.5-2.9-9c0,0,2.4,14.9-14.6,22.3 M175.8,1277.5c0,0,0.6-12.6-10.4-17c-11-4.4-40.5,0.9-40.5,0.9 M169.9,1271.1
			c0,0,12.5,7.2,7.7,25.5c-4.8,18.3-20.6,8.4-20.6,8.4 M78,1215.5c34.6,22,22.3,35.1,13.4,43.2c-4.8,4.3-14.3,15,17.8,22.5
			s32.1,21,32.1,21s-6.8,5.7,12.5,3.3s6.9-19,6.9-19 M47.9,1173.9c-1.2,3.2-0.3,6.8,2.1,9"/>
	</g>
</g>
<path id="Fill-4" class="st12" d="M525.2,938c0,0,2.2-2.4-2.2-3.7c-4.5-1.2-12-2.7-7.5-6.9c4.5-4.3,15.5,2.6,18.3,7.7
	c2.9,5.1,4.3,9.8,0,17.7c-3.2,5.9-4.5,24.9,16.5,30.4c21,5.5,27.1-2,27.3-15.3c0.1-7.1-4.7-49.9,32.2-49.9s35.6,26.3,43.6,41
	c8.6,15.7,22,15.9,34.8,7.9c12.8-7.9,7.5-31-1.8-37.3c-9.4-6.3-19.9-1.3-19-8.6c1-8.1,9.6-2.2,11.4-1c1.8,1.2,7.1,5.9,14.1-2.8
	c6.9-8.6,5.4-16.1,12.9-15.1c7.5,1-3.2,10.9-3.2,10.9s-7.3,7.3,0.8,5.5c8.2-1.8,9.2-12.6,14.5-10.8c5.3,1.8,2,7.7-3.9,11
	c-5.9,3.3-4.1,7.1,2,5.5c6.1-1.6,15.3-5.2,12.6,1.8c-2.1,5.7-21.9,1.2-24.3,11c-2.4,9.8,6.6,14.1,12.7,20.2c6.1,6.1,4.9,15.5-1.2,22
	c-6.1,6.5-12,11.2-0.6,18.5c11.4,7.3,11.9,14,0.1,16.6c-6.6,1.5-5.7,10.6-11.9,12.3c-2.3,0.6-5,0.5-7.8,0.4
	c-6.8-0.3-13.6-0.7-14.8,10.4c-1.1,10.8,2.2,15.3,10.5,24.7c10.6,12-4.6,21-21.4,20c-12.6-0.8-29.9,10.3-30.8,21.2
	c-0.7,9.4,4.7,20.8,15.7,8.6c0,0-3.8,16.1-17.8,10c-14.7-6.4-3.4-23.9-19.1-25.3c-15.7-1.4-31.1-5.6-31.8-23.6
	c-0.5-12.8-3.8-14.8-8.2-15.7c-3.8-0.8-10-0.4-6.7-13.9c3.3-13.5-6.5-10-13.7-6.5c-10.5,5.1-21-8.1-14.7-24.4
	c4.7-12.1-6.3-12-15.2-11.9c-3.1,0-6,0.1-7.8-0.4c-6-1.6-15-8.6-6.1-23.8c8.9-15.3,11.3-17.5,8.9-21.4c-1.6-2.6-4.4-0.2-5.3,0.8
	c-3.5,3.9-8.1,4.3-6.8-0.6s9-3.5,8.4-8.2c-0.6-4.7-6.5-2.6-9.4-2.5c-8.4,0.2-9.6-5.1-4.9-6.7c1.9-0.7,4.6,0.1,7.4,0.8
	C516.5,939.9,521.1,940.9,525.2,938"/>
<rect x="-23.7" y="-0.2" class="st13" width="1952.5" height="1088.5"/>
<g>
	<polyline id="Fill-13" class="st14" points="555.1,1030.3 548.4,1022.4 558.6,1020.5 555.1,1030.3 	"/>
	<path id="Fill-14" class="st15" d="M549.3,1022.7l5.6,6.6l2.9-8.2L549.3,1022.7 M555.1,1030.8c-0.1,0-0.3-0.1-0.3-0.2l-6.7-7.9
		c-0.1-0.1-0.1-0.3-0.1-0.5c0.1-0.2,0.2-0.3,0.4-0.3l10.2-1.9c0.2,0,0.4,0,0.5,0.2c0.1,0.1,0.1,0.3,0.1,0.5l-3.5,9.8
		c-0.1,0.2-0.2,0.3-0.4,0.3L555.1,1030.8"/>
	<polyline id="Fill-15" class="st14" points="540.9,1014.2 547.6,1022.1 537.4,1024 540.9,1014.2 	"/>
	<path id="Fill-16" class="st15" d="M541.1,1015.2l-2.9,8.2l8.5-1.6L541.1,1015.2 M537.4,1024.5c-0.1,0-0.3-0.1-0.3-0.2
		c-0.1-0.1-0.1-0.3-0.1-0.5l3.5-9.8c0.1-0.2,0.2-0.3,0.4-0.3c0.2,0,0.4,0,0.5,0.2l6.7,7.9c0.1,0.1,0.1,0.3,0.1,0.5
		c-0.1,0.2-0.2,0.3-0.4,0.3l-10.2,1.9L537.4,1024.5"/>
	<path id="Fill-17" class="st14" d="M549.7,1017.7c2.5,0.9,3.9,3.7,3,6.2c-0.9,2.5-3.7,3.9-6.2,3c-2.5-0.9-3.9-3.7-3-6.2
		C544.3,1018.1,547.1,1016.8,549.7,1017.7"/>
	<path id="Fill-18" class="st15" d="M548.3,1017.9c-0.7-0.1-1.5,0.1-2.2,0.4c-1.1,0.5-1.9,1.4-2.2,2.5c-0.4,1.1-0.3,2.3,0.2,3.3
		c0.5,1.1,1.4,1.9,2.5,2.2c2.3,0.8,4.8-0.4,5.6-2.7c0.8-2.3-0.4-4.8-2.7-5.6C549.1,1018,548.7,1017.9,548.3,1017.9 M547.6,1027.6
		c-0.5,0-0.9-0.1-1.4-0.3c-1.4-0.5-2.4-1.5-3.1-2.8c-0.6-1.3-0.7-2.8-0.2-4.1c0.5-1.4,1.5-2.4,2.8-3.1c1.3-0.6,2.8-0.7,4.1-0.2
		c2.8,1,4.3,4.1,3.3,6.9C552.3,1026.4,550,1027.8,547.6,1027.6"/>
	<polyline id="Fill-19" class="st16" points="503.2,1086.8 507.1,1077.1 513.5,1085.3 503.2,1086.8 	"/>
	<path id="Fill-20" class="st15" d="M507.2,1078.1l-3.3,8l8.6-1.2L507.2,1078.1 M503.2,1087.3c-0.1,0-0.3-0.1-0.4-0.2
		c-0.1-0.1-0.1-0.3-0.1-0.5l3.9-9.6c0.1-0.2,0.2-0.3,0.4-0.3c0.2,0,0.4,0,0.5,0.2l6.4,8.2c0.1,0.1,0.1,0.3,0.1,0.5
		c-0.1,0.2-0.2,0.3-0.4,0.3l-10.3,1.4L503.2,1087.3"/>
	<polyline id="Fill-21" class="st16" points="510.9,1066.7 507,1076.4 500.6,1068.2 510.9,1066.7 	"/>
	<path id="Fill-22" class="st15" d="M501.5,1068.5l5.3,6.8l3.3-8L501.5,1068.5 M507,1076.9c-0.1,0-0.3-0.1-0.4-0.2l-6.4-8.2
		c-0.1-0.1-0.1-0.3-0.1-0.5c0.1-0.2,0.2-0.3,0.4-0.3l10.3-1.4c0.2,0,0.4,0,0.5,0.2c0.1,0.1,0.1,0.3,0.1,0.5l-3.9,9.6
		c-0.1,0.2-0.2,0.3-0.4,0.3L507,1076.9"/>
	<path id="Fill-23" class="st17" d="M511.9,1076.1c0.4,2.7-1.5,5.1-4.2,5.5c-2.7,0.4-5.1-1.5-5.5-4.2c-0.4-2.7,1.5-5.1,4.2-5.5
		S511.5,1073.4,511.9,1076.1"/>
	<path id="Fill-24" class="st16" d="M507.4,1072.4c-0.3,0-0.6,0-0.9,0c-1.2,0.2-2.2,0.8-2.9,1.7c-0.7,0.9-1,2.1-0.8,3.2
		c0.3,2.4,2.5,4.1,4.9,3.7c2.4-0.3,4.1-2.5,3.7-4.9C511.1,1074.1,509.4,1072.6,507.4,1072.4 M506.6,1082.1c-2.5-0.2-4.6-2.1-4.9-4.6
		c-0.2-1.4,0.2-2.8,1-4c0.9-1.1,2.1-1.9,3.6-2.1c1.4-0.2,2.8,0.2,4,1c1.1,0.9,1.9,2.1,2.1,3.5c0.2,1.4-0.2,2.8-1,4
		c-0.9,1.1-2.1,1.9-3.5,2.1C507.4,1082.1,507,1082.2,506.6,1082.1"/>
	<path id="Fill-25" class="st17" d="M553,1045.6c1.2,0.4,1.9,1.8,1.4,3c-0.4,1.2-1.8,1.9-3,1.4c-1.2-0.4-1.9-1.8-1.4-3
		C550.4,1045.8,551.7,1045.2,553,1045.6"/>
	<path id="Fill-26" class="st16" d="M552.3,1046c-0.3,0-0.6,0-0.9,0.2c-0.5,0.2-0.8,0.6-1,1.1c-0.3,1,0.2,2.1,1.1,2.4
		c1,0.3,2.1-0.2,2.4-1.1c0.2-0.5,0.1-1-0.1-1.4c-0.2-0.5-0.6-0.8-1.1-1C552.7,1046,552.5,1046,552.3,1046 M552,1050.7
		c-0.2,0-0.5-0.1-0.7-0.2c-0.7-0.3-1.3-0.8-1.6-1.5c-0.3-0.7-0.4-1.5-0.1-2.2c0.3-0.7,0.8-1.3,1.5-1.6c0.7-0.3,1.5-0.4,2.2-0.1
		c0.7,0.3,1.3,0.8,1.6,1.5c0.3,0.7,0.4,1.5,0.1,2.2C554.5,1050.1,553.2,1050.8,552,1050.7"/>
	<path id="Fill-27" class="st17" d="M492.5,1053.7c2.1,0.7,3.2,3,2.4,5.1c-0.7,2.1-3,3.2-5.1,2.4c-2.1-0.7-3.2-3-2.4-5.1
		C488.2,1054.1,490.4,1053,492.5,1053.7"/>
	<path id="Fill-28" class="st16" d="M491.4,1054c-0.6,0-1.2,0.1-1.8,0.3c-0.8,0.4-1.5,1.1-1.8,2c-0.3,0.9-0.3,1.8,0.1,2.7
		c0.4,0.8,1.1,1.5,2,1.8s1.8,0.3,2.7-0.1c0.8-0.4,1.5-1.1,1.8-2c0.3-0.9,0.3-1.8-0.1-2.7c-0.4-0.8-1.1-1.5-2-1.8
		C492,1054.1,491.7,1054,491.4,1054 M490.8,1061.9c-0.4,0-0.8-0.1-1.2-0.2c-1.1-0.4-2-1.2-2.5-2.3c-0.5-1.1-0.6-2.3-0.2-3.4
		c0.4-1.1,1.2-2,2.3-2.5c1.1-0.5,2.3-0.6,3.4-0.2c1.1,0.4,2,1.2,2.5,2.3c0.5,1.1,0.6,2.3,0.2,3.4c-0.4,1.1-1.2,2-2.3,2.5
		C492.4,1061.9,491.6,1062,490.8,1061.9"/>
	<path id="Fill-29" class="st18" d="M532.9,1134.8c-1.7-0.1-3.6-0.7-5.8-1.8c-14.2-7.5-1.6-24.1-17.1-26.7c-15.5-2.6-30.6-8-29.9-26
		c0.5-12.8-2.7-15.1-6.9-16.3c-3-0.8-7.6-1.1-7.1-8c0.1-1.7,0.6-3.8,1.4-6.3c0.6-1.8,0.9-3.3,1-4.5c0.3-3.8-1.5-5.2-4.1-5.4
		c-2.8-0.2-6.7,1.1-10.1,2.4c-1.6,0.6-3.2,0.9-4.7,0.8c-6.5-0.5-11.4-7.5-10.7-16.7c0.2-3,1.1-6.3,2.6-9.6c0.9-1.9,1.4-3.6,1.5-4.9
		c0.5-6.2-6.4-7.4-13.1-7.9c-0.9-0.1-1.8-0.1-2.7-0.2c-0.9-0.1-1.7-0.1-2.5-0.2c-2.1-0.2-3.9-0.4-5.2-0.8c-4.1-1.4-9.4-5.6-8.9-12.9
		c0.2-3.2,1.6-6.9,4.6-11.3c7.6-11.1,11-14.9,11.2-17.9c0.1-0.9-0.2-1.8-0.7-2.8c-0.5-0.9-1.1-1.3-1.8-1.3c-1.4-0.1-2.9,1.1-3.6,1.7
		c-1.9,1.8-3.9,2.7-5.4,2.6c-1.1-0.1-1.8-0.8-1.7-2.2c0-0.4,0.1-0.9,0.3-1.5c1.6-4.6,8.7-2.9,9-7c0-0.2,0-0.3,0-0.5
		c-0.1-2.5-1.8-3.2-3.8-3.3c-1.8-0.1-4,0.2-5.4,0.1c-0.2,0-0.4,0-0.5,0c-4.8-0.4-6.9-2.4-6.8-4.3c0.1-1.2,1.1-2.3,2.9-2.7
		c0.6-0.1,1.1-0.2,1.8-0.1c1.6,0.1,3.5,0.8,5.6,1.5s4.2,1.4,6.4,1.6c2.1,0.2,4.2-0.2,6.3-1.4c0,0,0.6-0.6,0.7-1.3
		c0.1-0.8-0.4-1.7-2.6-2.5c-3.4-1.2-8.7-2.7-8.5-5.2c0.1-0.7,0.5-1.4,1.6-2.3c1-0.9,2.4-1.2,3.8-1c5.2,0.4,12,6,13.9,10.2
		c1.3,2.9,2.3,5.7,2,8.8c-0.2,2.6-1.2,5.4-3.4,8.9c-1.1,1.8-2.2,4.8-2.5,8.4c-0.6,7.9,2.5,18.3,16.6,23.1c4.6,1.6,8.5,2.5,11.8,2.7
		c11.4,0.9,15.6-5.7,16.5-15.9c0-0.1,0-0.2,0-0.3c0.1-1.5,0.2-4.2,0.4-7.6c1.1-14.6,6-41.7,35.5-39.5c36.8,2.8,33.5,28.9,40.4,44.2
		c4.3,9.6,10.7,14,18,14.5c5.1,0.4,10.6-1.1,16.1-3.9c5.7-2.9,8.3-8.8,8.8-15.2c0.7-8.6-2.7-18.1-7.8-22.2
		c-8.5-6.7-18.8-3.1-18.4-9.1c0-0.3,0.1-0.5,0.1-0.8c0.7-3.1,2.3-4,4.2-3.9c2.9,0.2,6.2,2.9,7.3,3.7c0.9,0.7,2.8,2.6,5.6,2.8
		c2.3,0.2,5.2-0.8,8.7-4.5c7.1-7.6,6.7-14.7,12.8-14.2c0.4,0,0.8,0.1,1.3,0.2c1.9,0.4,2.6,1.3,2.5,2.5c-0.2,3.2-6.5,8.2-6.5,8.2
		s-3.3,2.8-3.4,4.5c0,0.6,0.4,1.1,1.6,1.2c0.6,0,1.3,0,2.2-0.1c7.6-1.1,9.8-10.3,14.1-10c0.4,0,0.7,0.1,1.1,0.3
		c1.8,0.8,2.5,2,2.4,3.4c-0.2,2.5-3.1,5.5-7.1,7.3c-2.6,1.2-3.8,2.6-3.9,3.7c-0.1,1.1,0.9,2,2.9,2.1c0.8,0.1,1.6,0,2.7-0.2
		c3.4-0.6,7.8-1.8,10.5-1.6c1.7,0.1,2.7,0.8,2.6,2.3c0,0.6-0.2,1.2-0.6,2.1c-2.6,5.6-21.9-0.4-25.1,9.1c-0.4,1.1-0.6,2.1-0.7,3.1
		c-0.6,7.6,6.8,12.1,11.8,17.9c2.5,3,3.5,6.5,3.3,10c-0.3,4.3-2.5,8.6-6.2,11.9c-3.9,3.5-7.6,6.5-7.9,9.9c-0.2,2.4,1.4,5.2,5.8,8.5
		c5.5,4.1,8.2,7.9,8,10.8c-0.2,2.9-3.2,4.9-9.1,5.7c-6.7,0.9-6.5,10.2-12.8,11.4c-1.4,0.3-2.8,0.3-4.4,0.1c-1.1-0.1-2.3-0.2-3.4-0.4
		c-1.2-0.1-2.3-0.3-3.5-0.4c-5.5-0.4-10.4,0.6-12.1,9.6c-0.2,1.3-0.4,2.6-0.5,3.7c-0.6,8.2,2.5,12.9,9.1,21.7c2.2,3,3.1,5.6,2.9,8
		c-0.6,7.3-11.3,11.5-23.2,10.6c-0.9-0.1-1.7-0.2-2.6-0.3c-0.4-0.1-0.8-0.1-1.3-0.1c-12.4-1-29.4,8.4-31,18.9
		c-0.1,0.5-0.1,1.1-0.2,1.7c-0.5,6,1.5,12.4,6.2,12.7c2.3,0.2,5.3-1.1,9-4.7C545.6,1124.4,542,1135.5,532.9,1134.8 M504.7,1081.6
		l-2,5c-0.1,0.2,0,0.4,0.1,0.5c0.1,0.1,0.2,0.2,0.4,0.2l0.1,0l10.3-1.4c0.2,0,0.3-0.1,0.4-0.3c0.1-0.2,0-0.4-0.1-0.5l-3.3-4.2
		c0.3-0.2,0.5-0.5,0.7-0.8c0.9-1.1,1.2-2.6,1-4c-0.2-1.4-0.9-2.7-2.1-3.5c-0.3-0.2-0.6-0.4-0.9-0.6l2-5c0.1-0.2,0-0.4-0.1-0.5
		c-0.1-0.1-0.2-0.2-0.4-0.2c0,0-0.1,0-0.1,0l-10.3,1.4c-0.2,0-0.3,0.1-0.4,0.3c-0.1,0.2,0,0.4,0.1,0.5l3.3,4.2
		c-0.3,0.2-0.5,0.5-0.8,0.8c-0.9,1.1-1.2,2.6-1,4C502,1079.4,503.2,1080.9,504.7,1081.6 M529.6,1056.8l7,8.2c0.5,0.6,1.3,1,2,1
		c0.8,0.1,1.6-0.2,2.2-0.7c1.3-1.1,1.4-3,0.3-4.2l-7-8.2l7.1-6.1c0.1-0.1,0.2-0.2,0.2-0.3s0-0.3-0.1-0.4l-19.4-22.6
		c-2.2-2.6-5.4-4.2-8.8-4.4c-3.4-0.3-6.8,0.8-9.4,3.1c-5.4,4.6-6,12.8-1.4,18.2l19.4,22.6c0.1,0.1,0.2,0.2,0.3,0.2s0.3,0,0.4-0.1
		L529.6,1056.8 M491.5,1053c-0.8-0.1-1.5,0.1-2.3,0.4c-1.1,0.5-1.9,1.4-2.3,2.5c-0.4,1.1-0.3,2.3,0.2,3.4c0.5,1.1,1.4,1.9,2.5,2.3
		c0.4,0.1,0.8,0.2,1.2,0.2c0.8,0.1,1.5-0.1,2.3-0.4c1.1-0.5,1.9-1.4,2.3-2.5c0.4-1.1,0.3-2.3-0.2-3.4c-0.5-1.1-1.4-1.9-2.5-2.3
		C492.3,1053.1,491.9,1053,491.5,1053 M552.4,1045c-0.5,0-1,0.1-1.5,0.3c-0.7,0.3-1.2,0.9-1.5,1.6c-0.3,0.7-0.2,1.5,0.1,2.2
		c0.3,0.7,0.9,1.2,1.6,1.5c0.2,0.1,0.5,0.1,0.7,0.2c1.3,0.1,2.5-0.7,2.9-1.9c0.3-0.7,0.2-1.5-0.1-2.2c-0.3-0.7-0.9-1.2-1.6-1.5
		C552.9,1045.1,552.7,1045,552.4,1045 M551.3,1026.5l3.5,4.1c0.1,0.1,0.2,0.2,0.3,0.2l0.1,0c0.2,0,0.3-0.2,0.4-0.3l3.5-9.8
		c0.1-0.2,0-0.4-0.1-0.5c-0.1-0.1-0.2-0.2-0.3-0.2c0,0-0.1,0-0.1,0l-5.3,1c-0.4-1.7-1.6-3.2-3.4-3.8c-0.5-0.2-0.9-0.3-1.4-0.3
		c-0.9-0.1-1.8,0.1-2.7,0.5c-0.3,0.2-0.7,0.4-0.9,0.6l-3.5-4.1c-0.1-0.1-0.2-0.2-0.3-0.2c0,0-0.1,0-0.1,0c-0.2,0-0.3,0.2-0.4,0.3
		l-3.5,9.8c-0.1,0.2,0,0.4,0.1,0.5c0.1,0.1,0.2,0.2,0.3,0.2l0.1,0l5.3-1c0.1,0.4,0.2,0.7,0.4,1c0.6,1.3,1.7,2.3,3.1,2.8
		c0.5,0.2,0.9,0.3,1.4,0.3C548.9,1027.7,550.2,1027.3,551.3,1026.5"/>
	<path id="Fill-38" class="st19" d="M554.9,1029.3l-2.9-3.4c0.5-0.5,0.8-1.1,1.1-1.8c0.2-0.7,0.3-1.4,0.3-2.1l4.4-0.8L554.9,1029.3"
		/>
	<path id="Fill-39" class="st20" d="M555.1,1030.8c-0.1,0-0.3-0.1-0.3-0.2l-3.5-4.1c0.3-0.2,0.5-0.4,0.7-0.7l2.9,3.4l2.9-8.2
		l-4.4,0.8c0-0.3-0.1-0.7-0.1-1l5.3-1c0,0,0.1,0,0.1,0c0.1,0,0.3,0.1,0.3,0.2c0.1,0.1,0.1,0.3,0.1,0.5l-3.5,9.8
		c-0.1,0.2-0.2,0.3-0.4,0.3L555.1,1030.8"/>
	<path id="Fill-40" class="st19" d="M538.2,1023.3l2.9-8.2l2.9,3.5c-0.5,0.5-0.8,1.1-1.1,1.8c-0.2,0.7-0.3,1.4-0.3,2.1L538.2,1023.3
		"/>
	<path id="Fill-41" class="st20" d="M537.4,1024.5c-0.1,0-0.3-0.1-0.3-0.2c-0.1-0.1-0.1-0.3-0.1-0.5l3.5-9.8
		c0.1-0.2,0.2-0.3,0.4-0.3c0,0,0.1,0,0.1,0c0.1,0,0.3,0.1,0.3,0.2l3.5,4.1c-0.3,0.2-0.5,0.4-0.7,0.7l-2.9-3.5l-2.9,8.2l4.5-0.8
		c0,0.3,0.1,0.7,0.1,1l-5.3,1L537.4,1024.5"/>
	<path id="Fill-42_1_" class="st19" d="M547.7,1026.6c-0.4,0-0.8-0.1-1.1-0.2c-1.1-0.4-2-1.2-2.5-2.2c-0.5-1.1-0.6-2.2-0.2-3.3
		c0.4-1.1,1.2-2,2.2-2.5c0.7-0.3,1.5-0.5,2.2-0.4c0.4,0,0.8,0.1,1.1,0.2c2.3,0.8,3.5,3.3,2.7,5.6
		C551.5,1025.6,549.6,1026.8,547.7,1026.6"/>
	<path id="Fill-43_1_" class="st20" d="M547.6,1027.6c-0.5,0-0.9-0.1-1.4-0.3c-1.4-0.5-2.4-1.5-3.1-2.8c-0.2-0.3-0.3-0.7-0.4-1
		c-0.1-0.3-0.1-0.7-0.1-1c0-0.7,0.1-1.4,0.3-2.1c0.2-0.7,0.6-1.3,1.1-1.8c0.2-0.2,0.5-0.5,0.7-0.7c0.3-0.2,0.6-0.4,0.9-0.6
		c0.9-0.4,1.8-0.6,2.7-0.5c0.5,0,0.9,0.1,1.4,0.3c1.8,0.6,3,2.1,3.4,3.8c0.1,0.3,0.1,0.7,0.1,1c0,0.7-0.1,1.4-0.3,2.1
		c-0.2,0.7-0.6,1.3-1.1,1.8c-0.2,0.2-0.5,0.5-0.7,0.7C550.2,1027.3,548.9,1027.7,547.6,1027.6 M548.3,1017.9
		c-0.7-0.1-1.5,0.1-2.2,0.4c-1.1,0.5-1.9,1.4-2.2,2.5c-0.4,1.1-0.3,2.3,0.2,3.3c0.5,1.1,1.4,1.9,2.5,2.2c0.4,0.1,0.8,0.2,1.1,0.2
		c1.9,0.1,3.8-1,4.5-2.9c0.8-2.3-0.4-4.8-2.7-5.6C549.1,1018,548.7,1017.9,548.3,1017.9"/>
	<path id="Fill-44_1_" class="st21" d="M504,1086.2l1.7-4.2c0.3,0.1,0.6,0.1,1,0.2c0.4,0,0.8,0,1.1,0c0.7-0.1,1.4-0.3,2-0.7l2.8,3.6
		L504,1086.2"/>
	<path id="Fill-45_1_" class="st20" d="M503.2,1087.3c-0.1,0-0.3-0.1-0.4-0.2c-0.1-0.1-0.1-0.3-0.1-0.5l2-5c0.3,0.1,0.6,0.3,0.9,0.3
		l-1.7,4.2l8.6-1.2l-2.8-3.6c0.3-0.2,0.6-0.4,0.8-0.6l3.3,4.2c0.1,0.1,0.1,0.3,0.1,0.5c-0.1,0.2-0.2,0.3-0.4,0.3l-10.3,1.4
		L503.2,1087.3"/>
	<path id="Fill-46_1_" class="st21" d="M504.3,1072.1l-2.8-3.6l8.6-1.2l-1.7,4.2c-0.3-0.1-0.6-0.1-0.9-0.2c-0.4,0-0.8,0-1.2,0
		C505.6,1071.5,504.9,1071.8,504.3,1072.1"/>
	<path id="Fill-47_1_" class="st20" d="M503.5,1072.7l-3.3-4.2c-0.1-0.1-0.1-0.3-0.1-0.5c0.1-0.2,0.2-0.3,0.4-0.3l10.3-1.4
		c0,0,0.1,0,0.1,0c0.1,0,0.3,0.1,0.4,0.2c0.1,0.1,0.1,0.3,0.1,0.5l-2,5c-0.3-0.1-0.6-0.3-0.9-0.3l1.7-4.2l-8.6,1.2l2.8,3.6
		C504,1072.3,503.8,1072.5,503.5,1072.7"/>
	<path id="Fill-48_1_" class="st22" d="M506.7,1081.1c-2-0.2-3.7-1.7-4-3.8c-0.2-1.2,0.1-2.3,0.8-3.2c0.7-0.9,1.7-1.5,2.9-1.7
		c0.3,0,0.6-0.1,0.9,0c2,0.2,3.7,1.7,4,3.8c0.3,2.4-1.3,4.6-3.7,4.9C507.3,1081.1,507,1081.2,506.7,1081.1"/>
	<path id="Fill-49_1_" class="st21" d="M506.6,1082.1c-0.3,0-0.6-0.1-1-0.2c-0.3-0.1-0.6-0.2-0.9-0.3c-1.6-0.8-2.8-2.3-3-4.1
		c-0.2-1.4,0.2-2.8,1-4c0.2-0.3,0.5-0.6,0.8-0.8c0.3-0.2,0.5-0.4,0.8-0.6c0.6-0.4,1.3-0.6,2-0.7c0.4-0.1,0.8-0.1,1.2,0
		c0.3,0,0.6,0.1,0.9,0.2c0.3,0.1,0.6,0.2,0.9,0.3c0.3,0.2,0.6,0.3,0.9,0.6c1.1,0.9,1.9,2.1,2.1,3.5c0.2,1.4-0.2,2.8-1,4
		c-0.2,0.3-0.5,0.6-0.7,0.8c-0.3,0.2-0.5,0.4-0.8,0.6c-0.6,0.4-1.3,0.6-2,0.7C507.4,1082.1,507,1082.2,506.6,1082.1 M507.4,1072.4
		c-0.3,0-0.6,0-0.9,0c-1.2,0.2-2.2,0.8-2.9,1.7c-0.7,0.9-1,2.1-0.8,3.2c0.3,2.1,2,3.6,4,3.8c0.3,0,0.6,0,0.9,0
		c2.4-0.3,4.1-2.5,3.7-4.9C511.1,1074.1,509.4,1072.6,507.4,1072.4"/>
	<path id="Fill-50_1_" class="st22" d="M552,1049.7c-0.2,0-0.3,0-0.5-0.1c-1-0.3-1.5-1.4-1.1-2.4c0.2-0.5,0.5-0.9,1-1.1
		c0.3-0.1,0.6-0.2,0.9-0.2c0.2,0,0.3,0,0.5,0.1c0.5,0.2,0.9,0.5,1.1,1c0.2,0.5,0.2,1,0.1,1.4C553.7,1049.3,552.9,1049.8,552,1049.7"
		/>
	<path id="Fill-51_1_" class="st21" d="M552,1050.7c-0.2,0-0.5-0.1-0.7-0.2c-0.7-0.3-1.3-0.8-1.6-1.5c-0.3-0.7-0.4-1.5-0.1-2.2
		c0.3-0.7,0.8-1.3,1.5-1.6c0.5-0.2,1-0.3,1.5-0.3c0.3,0,0.5,0.1,0.8,0.2c0.7,0.3,1.3,0.8,1.6,1.5c0.3,0.7,0.4,1.5,0.1,2.2
		C554.5,1050.1,553.2,1050.8,552,1050.7 M552.3,1046c-0.3,0-0.6,0-0.9,0.2c-0.5,0.2-0.8,0.6-1,1.1c-0.3,1,0.2,2.1,1.1,2.4
		c0.2,0.1,0.3,0.1,0.5,0.1c0.8,0.1,1.6-0.4,1.9-1.2c0.2-0.5,0.1-1-0.1-1.4c-0.2-0.5-0.6-0.8-1.1-1C552.7,1046,552.5,1046,552.3,1046
		"/>
	<path id="Fill-52_1_" class="st22" d="M490.9,1060.9c-0.3,0-0.6-0.1-0.9-0.2c-0.9-0.3-1.6-0.9-2-1.8c-0.4-0.8-0.4-1.8-0.1-2.7
		c0.3-0.9,0.9-1.6,1.8-2c0.6-0.3,1.2-0.4,1.8-0.3c0.3,0,0.6,0.1,0.9,0.2c0.9,0.3,1.6,0.9,2,1.8c0.4,0.8,0.4,1.8,0.1,2.7
		c-0.3,0.9-0.9,1.6-1.8,2C492.1,1060.9,491.5,1061,490.9,1060.9"/>
	<path id="Fill-53_1_" class="st21" d="M490.8,1061.9c-0.4,0-0.8-0.1-1.2-0.2c-1.1-0.4-2-1.2-2.5-2.3c-0.5-1.1-0.6-2.3-0.2-3.4
		c0.4-1.1,1.2-2,2.3-2.5c0.7-0.3,1.5-0.5,2.3-0.4c0.4,0,0.8,0.1,1.2,0.3c1.1,0.4,2,1.2,2.5,2.3c0.5,1.1,0.6,2.3,0.2,3.4
		c-0.4,1.1-1.2,2-2.3,2.5C492.4,1061.9,491.6,1062,490.8,1061.9 M491.4,1054c-0.6,0-1.2,0.1-1.8,0.3c-0.8,0.4-1.5,1.1-1.8,2
		c-0.3,0.9-0.3,1.8,0.1,2.7c0.4,0.8,1.1,1.5,2,1.8c0.3,0.1,0.6,0.2,0.9,0.2c0.6,0,1.2-0.1,1.8-0.3c0.8-0.4,1.5-1.1,1.8-2
		c0.3-0.9,0.3-1.8-0.1-2.7c-0.4-0.8-1.1-1.5-2-1.8C492,1054.1,491.7,1054,491.4,1054"/>
	<path id="Fill-54_1_" class="st23" d="M530.3,964.4c-0.5,6.5-2.9,11.6-5.5,11.4c-2.5-0.2-4.2-5.6-3.7-12.1
		c0.5-6.5,2.9-11.6,5.5-11.4C529.1,952.5,530.8,957.9,530.3,964.4"/>
	<path id="Fill-55" class="st23" d="M510.4,962.9c-0.5,6.5-2.9,11.6-5.5,11.4c-2.5-0.2-4.2-5.6-3.7-12.1c0.5-6.5,2.9-11.6,5.5-11.4
		C509.2,951,510.9,956.4,510.4,962.9"/>
	<path id="Fill-56_1_" class="st23" d="M609.3,925.6c-1.7,1.8-8,7.9-4.3,8.9c-0.8-1.4,3.3-4.9,3.3-4.9s10.8-8.6,4.5-10.5
		C613.8,921.7,610.6,924.2,609.3,925.6"/>
	<path id="Fill-57" class="st23" d="M620.1,933.4c-7.9,2.9-8.2,7.9-3.7,8.3c-3.3-2.9,2.2-5.1,2.8-5.4c5.8-2.6,9.4-7.8,5.6-10.2
		C624.8,928.3,623.2,932.3,620.1,933.4"/>
	<path id="Fill-58_1_" class="st23" d="M443.1,1010.5c2.2-11.2-18.1-10.6-24.4-12.8c-2.9-1-6.4-3.4-8-7.3c-0.2,7,4.9,10.9,8.9,12.3
		C424.7,1004.5,441.6,1001.6,443.1,1010.5"/>
	<path id="Fill-59" class="st23" d="M615.6,991.8c-5.2,4.7-13.8,11.4-6,19.2c-3.1-6.7,3.5-11.1,6.9-14.2c5.3-4.9,7.6-11.8,5.3-17.7
		C621.7,983.6,619.5,988.2,615.6,991.8"/>
	<path id="Fill-60_1_" class="st23" d="M612.4,1026.8c-6.7,0.9-6.5,10.2-12.8,11.4c-8.1,1.6-20.5-6.4-23.3,9
		c-0.9,4.8-0.7,8.3,0.3,11.7c-0.1-2,0.1-4.2,0.5-6.7c2.8-15.4,15.2-7.4,23.3-9c6.3-1.2,6.1-10.4,12.8-11.4c8.3-1.2,10.9-4.7,8-9.6
		C620.4,1024.5,617.5,1026.1,612.4,1026.8"/>
	<path id="Fill-61" class="st23" d="M468.5,1044c1.3-9-8.4-9.4-15-6.8c-6.5,2.6-12.4-1.3-14.6-8.3c0.4,9.9,7.6,16.4,15.5,13.2
		C459.2,1040.3,467.3,1037.2,468.5,1044"/>
	<path id="Fill-62" class="st23" d="M632,940.4c2.1,4.2-7.3,4.6-12.8,5.1c-4.9,0.5-10.3-1-11.7,3.3c-1.1,3.2-0.8,5.8,0.2,8.2
		c0.1-1,0.3-2.1,0.6-3.2c3.2-9.6,22.5-3.6,25.1-9.1C634.6,941.9,633.8,940.8,632,940.4"/>
	<path id="Fill-63" class="st23" d="M562.1,1090.9c-12.5-1.7-30.6,8-32.3,18.8c-0.5,3.1-0.3,6.5,0.6,9.2c-0.1-1.4,0-2.8,0.2-4.2
		c1.7-10.8,19.8-20.5,32.3-18.8c15.2,2.1,29.6-4.1,24.9-14.9C586.8,1088.6,574.7,1092.6,562.1,1090.9"/>
	<path id="Fill-64" class="st23" d="M472.3,1059.1c-2-0.6-4.8-0.9-6.2-3.2c-0.6,7,4.1,7.1,7,8.1c7.5,2.5,5.7,6.9,6.9,10.6
		C480.4,1061.6,475.8,1060.1,472.3,1059.1"/>
	<path id="Fill-66" class="st23" d="M509.1,1101.4c-13-2.2-25.6-6.3-29-18c1,15.6,15.2,20.5,29.9,23c5.2,0.9,7.3,3.3,8.2,6.5
		C517.6,1107.4,516.9,1102.7,509.1,1101.4"/>
	<path id="Fill-67" class="st23" d="M598,971c-1.1,4.8-3.7,8.9-8.2,11.2c-13.4,6.9-26.8,5.7-34.1-10.6c-6.8-15-3.7-40.5-38.6-44
		c9.7,4.8,21.7,3.7,28,25.3c8.1,27.8,4.5,42.7,29.9,42.1C593.3,994.7,598.1,972.5,598,971"/>
	<path id="Fill-68" class="st14" d="M527.8,991.2c0,0,0.6,17.2-6.7,17.1c-7.3-0.1-4.9-13.1-4.9-13.1s-0.8,3.8-3.3,3.6
		c-4.7-0.4-3.1-8.1-3.1-8.1L527.8,991.2"/>
	<path id="Fill-69" class="st23" d="M435.7,948.1c0,0-3.1,0.2-6.4,0.6c-3.3,0.4-3.9-1.8-3.9-1.8l1.1-1.2l0.4,0.1l7.8-1.5l1.4-1.8
		l-1-1.6c-0.3-3-7.9-10.2-10.2-8.8c-2.3,1.5-5.5,0.5-5.5,0.5l0.6,1.4c1.7,1.3,5,2.3,7.3,3.1c4.4,1.6,2,3.8,2,3.8c-3,1.8-6,1.7-9,1
		l-4.8-0.1c-0.5,0-0.9-0.1-1.3,0l0,0l0,0c-0.6,0.1-1.2,0.2-1.4,0.5c-1.8,2.2-5.5,1.3-5.5,1.3l0.1,0.8c1.1,1,3.2,1.9,6.2,2
		c2.9,0.1,8.9-1.5,9.2,3.2c0,0.3,0,0.6-0.1,0.9l0,0c6,0.5,3.1,3.2,2.2,3.6c-1.9,1-5,1.4-8,2.7c-1.9,0.8-3,1.8-3.5,2.4
		c0.3,2.5,4,1.9,7.1-1c1-0.9,3.9-3.2,5.3-0.4c0.2,0.3,0.3,0.6,0.4,0.9c2.2,0.2,4.4-0.8,7-1.9c3.2-1.4,3.9-7.5,3.9-7.5L435.7,948.1"
		/>
	<path id="Fill-70" class="st15" d="M464.5,1039.3c1.3,0.1,2.3,0.5,3.1,1.2c1.7,1.6,1.9,4.7,0.3,9.4c-1.6,5-1.9,8.5-0.7,10.6
		c1,1.9,3.1,2.4,4.9,2.8c0.4,0.1,0.7,0.2,1.1,0.3c4.2,1.2,7.8,3.3,7.3,16.8c-0.7,18,14.5,23,29.5,25.5c8.4,1.4,8.9,6.8,9.5,12.5
		c0.5,5.3,1.1,10.8,7.7,14.3c3.6,1.9,7,2.3,9.9,1.1c3.7-1.5,5.9-5.2,7.1-7.5c-4.8,3.9-8,3.7-9.9,2.7c-4-2.1-5.2-8.8-4.3-14.4
		c0.8-5.2,5.3-10.5,12.3-14.5c6.8-3.8,14.4-5.6,20.5-4.7c10.9,1.5,21.1-1.3,24.2-6.7c1.8-3.1,1.2-6.8-1.8-10.8
		c-7.5-9.9-10.7-14.8-8.7-25.8c2.1-11.4,9.5-10.5,16.1-9.6c2.8,0.4,5.4,0.7,7.6,0.2c2.9-0.6,4.3-2.9,5.8-5.4c1.6-2.7,3.3-5.5,7-6
		c5-0.7,8-2.3,8.6-4.6c0.7-2.8-2-6.7-7.7-11c-4-3-5.9-5.7-6.1-8.3c-0.1-3.5,3-6.3,6.6-9.6c0.5-0.4,0.9-0.8,1.4-1.3
		c6.8-6.2,8-15.1,2.9-21.2c-1.2-1.4-2.6-2.8-4-4.1c-4.8-4.8-9.8-9.7-7.2-17.4c1.9-5.8,9.1-6.2,15.5-6.5c4.4-0.3,8.6-0.5,9.6-2.6
		c0.7-1.4,0.8-2.4,0.3-3c-1.1-1.4-5.9-0.4-9.7,0.4c-0.9,0.2-1.7,0.4-2.5,0.5c-3.1,0.6-5.5-0.1-6-1.7c-0.4-1.3,0.5-3.2,4.1-4.9
		c4-1.8,6.9-4.8,6.8-7.1c0-1.1-0.7-2-2.1-2.6c-2.1-0.9-3.5,0.6-5.8,3.3c-2.1,2.6-4.8,5.7-9.2,6.4c-2.5,0.4-3.8,0.1-4.2-0.9
		c-0.8-1.8,2.7-4.9,3.4-5.6c1.9-1.5,6.8-6,6.3-8.3c-0.2-0.7-0.9-1.2-2.1-1.4c-4.3-0.9-5.5,1.3-7.6,5.3c-1.3,2.4-3,5.5-5.9,8.6
		c-7.4,7.9-12.6,3.6-14.5,2c-0.1-0.1-0.3-0.2-0.4-0.3c-3.8-3-6.6-4.1-8.4-3.5c-1.1,0.4-1.8,1.5-2.2,3.3c-0.2,1.1-0.1,1.9,0.2,2.5
		c0.8,1.2,2.9,1.6,5.5,2.1c3.6,0.7,8.1,1.6,12.3,4.8c5.4,4.3,8.8,14.2,7.9,23.1c-0.7,7-3.9,12.4-9,15c-7.9,4.1-15.2,5.1-21.4,3
		c-5.7-2-10.2-6.6-13.5-13.8c-1.5-3.4-2.5-7.2-3.6-11.3c-3.7-14.2-8-30.4-36.3-32.5c-9.2-0.7-16.7,1.5-22.4,6.5
		c-11.6,10.3-12.5,29.6-12.9,37.8c-0.1,1.1-0.1,2-0.1,2.6c-0.7,7.1-2.8,11.8-6.7,14.3c-4.8,3.1-12.1,2.9-22.3-0.7
		c-8-2.8-13.5-7.7-15.8-14.4c-2.6-7.5-0.5-14.9,1.4-17.9c4.5-7.1,4-11.5,1.3-17.2c-1.7-3.6-7.3-8.6-12.2-9.7c-2-0.5-3.6-0.2-4.7,0.7
		c-1,0.8-1.5,1.6-1.4,2.2c0.3,1.7,4.1,3,6.9,4c0.4,0.1,0.9,0.3,1.3,0.4c1.7,0.6,2.7,1.4,2.9,2.4c0.3,1.2-0.7,2.2-0.8,2.2l-0.1,0.1
		c-4.7,2.8-9.4,1.2-13.6-0.3c-2.6-0.9-4.9-1.7-6.6-1.2c-1.7,0.4-2.7,1.5-2.6,2.6c0.2,1.6,2.3,3.2,6.8,3.4c0.6,0,1.3,0,2.1-0.1
		c2.3-0.2,4.8-0.3,6.3,1c0.7,0.6,1.1,1.6,1.2,2.7c0.1,2.8-2.1,3.6-4.3,4.3c-2,0.6-4,1.3-4.7,3.4c-0.3,0.8-0.6,2.3,0.2,2.8
		c1,0.6,3.4,0,5.7-2.2c0.4-0.4,2.3-2.2,4.2-1.8c0.8,0.1,1.5,0.7,2,1.6c1.9,3.6,0.4,5.6-5.7,14.2c-1.4,1.9-3,4.2-4.9,7
		c-4.1,6-5.5,11.3-4,15.7c1.4,4.1,5,6.7,8,7.8c1.7,0.6,4.6,0.8,7.6,1c6.2,0.4,13.1,0.8,15.5,4.8c1.3,2.2,1,5.1-0.8,8.9
		c-4.6,9.6-2.6,18.1,1.3,22.3c2.9,3.1,6.9,4,10.8,2.5C457.4,1040.5,461.4,1039.1,464.5,1039.3z M532.9,1135.3
		c-1.9-0.1-3.9-0.8-6-1.9c-7.1-3.8-7.7-9.8-8.3-15c-0.6-5.5-1.1-10.3-8.7-11.6c-6.1-1-14.9-2.9-21.3-7.3c-6.4-4.5-9.4-10.8-9.1-19.2
		c0.5-12.7-2.7-14.7-6.6-15.8c-0.3-0.1-0.7-0.2-1-0.3c-1.9-0.5-4.3-1.1-5.6-3.3c-1.3-2.4-1.1-6.1,0.6-11.4c1.4-4.2,1.3-7-0.1-8.3
		c-2.6-2.5-10,0.4-12.4,1.4c-4.4,1.7-8.7,0.8-11.9-2.7c-4.2-4.5-6.2-13.4-1.5-23.4c1.6-3.4,1.9-6.1,0.8-7.9c-2.1-3.6-8.8-4-14.7-4.4
		c-3.1-0.2-6-0.4-7.8-1c-1.6-0.5-6.8-2.7-8.6-8.4c-1.6-4.8-0.2-10.3,4.2-16.6c1.9-2.7,3.5-5,4.9-7c5.9-8.4,7.2-10.1,5.6-13.2
		c-0.3-0.6-0.7-1-1.2-1c-1.1-0.2-2.6,0.9-3.3,1.6c-2.5,2.4-5.4,3.3-6.9,2.3c-0.6-0.4-1.5-1.4-0.6-4c0.9-2.5,3.3-3.3,5.4-4
		c2.3-0.8,3.8-1.3,3.7-3.3c0-0.9-0.3-1.6-0.8-2c-1.2-1.1-3.5-0.9-5.6-0.8c-0.8,0.1-1.6,0.1-2.2,0.1c-5.4-0.3-7.6-2.5-7.8-4.3
		c-0.2-1.7,1.1-3.1,3.3-3.7c2-0.5,4.5,0.3,7.2,1.2c4,1.4,8.5,2.9,12.7,0.4c0.1-0.1,0.6-0.7,0.5-1.3c-0.1-0.6-0.9-1.2-2.3-1.7
		c-0.4-0.1-0.8-0.3-1.2-0.4c-3.4-1.2-7.2-2.5-7.6-4.7c-0.2-1,0.4-2.1,1.7-3.2c1.4-1.1,3.3-1.5,5.6-0.9c5.2,1.2,11.1,6.4,12.9,10.2
		c2.7,5.9,3.4,10.7-1.4,18.2c-1.8,2.8-3.7,9.9-1.3,17c2.2,6.3,7.4,11.1,15.2,13.7c9.9,3.4,17,3.7,21.5,0.8c3.6-2.3,5.6-6.7,6.3-13.5
		c0.1-0.6,0.1-1.5,0.1-2.6c0.4-8.4,1.3-27.9,13.2-38.5c5.8-5.2,13.6-7.4,23.1-6.7c29.1,2.2,33.4,18.7,37.2,33.3
		c1.1,4,2.1,7.9,3.6,11.2c3.1,6.9,7.4,11.4,12.9,13.3c5.8,2,13,1,20.6-2.9c4.8-2.5,7.8-7.6,8.5-14.2c0.8-8.6-2.4-18.2-7.6-22.2
		c-4-3.1-8.3-4-11.8-4.7c-2.9-0.6-5.2-1-6.2-2.5c-0.6-0.8-0.7-1.9-0.4-3.3c0.5-2.2,1.4-3.5,2.9-4.1c3.3-1.2,7.8,2.4,9.3,3.6
		c0.2,0.1,0.3,0.2,0.5,0.4c2.1,1.7,6.4,5.3,13.2-2c2.8-3,4.5-6,5.8-8.4c2.2-4,3.7-6.8,8.7-5.8c1.6,0.3,2.6,1.1,2.8,2.2
		c0.8,3.4-5.9,8.7-6.6,9.3c-1.8,1.5-3.5,3.6-3.2,4.4c0.1,0.2,0.5,0.7,3.2,0.3c4-0.6,6.4-3.5,8.5-6c2.1-2.5,4.1-4.9,7-3.6
		c2.2,1,2.7,2.5,2.7,3.5c0,2.7-3,6.1-7.4,8.1c-2.9,1.3-3.8,2.8-3.6,3.7c0.3,0.9,1.9,1.6,4.9,1c0.8-0.1,1.7-0.3,2.5-0.5
		c4.5-0.9,9.2-1.9,10.7,0c0.7,0.9,0.6,2.2-0.2,4c-1.2,2.7-5.5,2.9-10.5,3.2c-6,0.3-12.9,0.7-14.6,5.9c-2.4,7.2,2.2,11.7,7,16.4
		c1.4,1.3,2.8,2.7,4,4.2c5.5,6.4,4.3,15.9-2.9,22.5c-0.5,0.4-1,0.9-1.4,1.3c-3.4,3.1-6.4,5.8-6.3,8.8c0.1,2.3,1.9,4.8,5.7,7.6
		c6.1,4.6,8.9,8.8,8,12.1c-0.7,2.8-4,4.6-9.4,5.4c-3.2,0.5-4.7,2.9-6.3,5.5c-1.6,2.6-3.2,5.2-6.5,5.8c-2.4,0.5-5.2,0.1-7.9-0.2
		c-6.7-0.9-13.1-1.7-15,8.8c-1.9,10.7,1.2,15.4,8.5,25.1c4.1,5.5,3.3,9.5,1.9,11.9c-3.4,5.7-14,8.8-25.2,7.2
		c-11.7-1.6-30.1,7.6-31.7,18.4c-0.8,5.1,0.3,11.5,3.8,13.3c2.6,1.4,6.2,0,10.4-4c0.2-0.2,0.4-0.2,0.6-0.1c0.2,0.1,0.3,0.4,0.2,0.6
		c-0.1,0.3-2.5,7.6-8.5,10.1C536.1,1135.2,534.5,1135.4,532.9,1135.3z"/>
	<path id="Fill-71" class="st15" d="M511.6,963c-0.5,6.5-2.9,11.6-5.5,11.4c-2.5-0.2-4.2-5.6-3.7-12.1c0.5-6.5,2.9-11.6,5.5-11.4
		C510.4,951.1,512.1,956.5,511.6,963"/>
	<path id="Fill-72" class="st15" d="M531.5,964.5c-0.5,6.5-2.9,11.6-5.5,11.4c-2.5-0.2-4.2-5.6-3.7-12.1c0.5-6.5,2.9-11.6,5.5-11.4
		C530.3,952.6,532,958,531.5,964.5"/>
	<path id="Fill-73" class="st15" d="M504.9,974.8c-1.5-0.1-2.8-1.7-3.5-4.4c-0.1-0.3,0.1-0.5,0.3-0.6c0.3-0.1,0.5,0.1,0.6,0.3
		c0.6,2.2,1.6,3.6,2.6,3.7c1.9,0.1,4.4-4.3,4.9-10.9c0.5-6.6-1.3-11.4-3.2-11.5c-0.8-0.1-1.7,0.6-2.5,1.9c-0.1,0.2-0.5,0.3-0.7,0.2
		c-0.2-0.1-0.3-0.5-0.2-0.7c1-1.7,2.2-2.5,3.4-2.4c2.8,0.2,4.7,5.8,4.1,12.6C510.3,969.8,507.7,975,504.9,974.8"/>
	<path id="Fill-74" class="st15" d="M502.2,957.1l-0.1,0c-0.3-0.1-0.4-0.4-0.3-0.6c0.1-0.5,0.3-0.9,0.4-1.3c0.1-0.3,0.4-0.4,0.6-0.3
		c0.3,0.1,0.4,0.4,0.3,0.6c-0.1,0.4-0.3,0.8-0.4,1.2C502.6,957,502.4,957.2,502.2,957.1"/>
	<path id="Fill-75" class="st15" d="M521.1,964.2c-0.3,0-0.5-0.3-0.5-0.5c0-0.4,0.1-0.8,0.1-1.2c0-0.3,0.2-0.5,0.6-0.4
		c0.3,0,0.5,0.3,0.4,0.6c0,0.4-0.1,0.8-0.1,1.2C521.6,964,521.4,964.2,521.1,964.2"/>
	<path id="Fill-76" class="st15" d="M524.8,976.3c-1.8-0.1-3.2-2.3-3.8-5.9c-0.1-0.3,0.1-0.5,0.4-0.6c0.3,0,0.5,0.1,0.6,0.4
		c0.6,3,1.7,4.9,2.9,5c1.9,0.1,4.4-4.3,4.9-10.9c0.5-6.6-1.3-11.4-3.2-11.5c-1.3-0.1-2.8,1.8-3.8,4.8c-0.1,0.3-0.4,0.4-0.6,0.3
		c-0.3-0.1-0.4-0.4-0.3-0.6c1.2-3.6,2.9-5.6,4.8-5.5c2.8,0.2,4.7,5.8,4.1,12.6C530.2,971.3,527.6,976.5,524.8,976.3"/>
	<path id="Fill-77" class="st15" d="M428.1,950.7c-0.5,0-0.9-0.1-1.3-0.3c-0.9-0.4-1.5-1.1-1.7-2.1c-0.2-0.7-0.1-1.4,0.3-1.9
		c0.9-1.3,3.3-1.6,5.6-1.8c1.1-0.1,2.2-0.2,3-0.5c1.1-0.3,1.7-0.8,1.8-1.2c0.1-0.6-0.8-1.3-1.2-1.6c-0.2-0.1-0.3-0.5-0.2-0.7
		c0.1-0.2,0.5-0.3,0.7-0.2c0.2,0.1,1.8,1.2,1.7,2.5c-0.1,0.9-0.9,1.5-2.5,2c-0.9,0.3-2,0.4-3.2,0.5c-2,0.2-4.2,0.5-4.9,1.4
		c-0.2,0.3-0.3,0.6-0.1,1.1c0.2,0.7,0.5,1.2,1.2,1.4c1.6,0.7,4.5-0.3,6-1.2c1.5-0.9,3-1,3.8-0.3c0.3,0.3,0.9,0.9,0.5,2.2
		c-0.1,0.3-0.4,0.4-0.6,0.3c-0.3-0.1-0.4-0.3-0.4-0.6c0.1-0.5,0.1-0.9-0.2-1.1c-0.4-0.3-1.5-0.3-2.7,0.4
		C432.4,949.9,430,950.8,428.1,950.7"/>
	<path id="Fill-78" class="st15" d="M499.2,995c-0.2,0-0.4-0.2-0.5-0.4c-0.5-2.5-3.2-3-3.2-3c-0.3,0-0.5-0.3-0.4-0.6
		c0-0.3,0.3-0.4,0.6-0.4c0.1,0,3.4,0.6,4.1,3.8c0.1,0.3-0.1,0.5-0.4,0.6L499.2,995"/>
	<path id="Fill-79" class="st24" d="M527.8,991.2l-1.2,0c0,1.1,0.3,16.8-6.4,17c0.3,0.1,0.6,0.1,1,0.1
		C528.4,1008.4,527.8,991.2,527.8,991.2"/>
	<path id="Fill-80" class="st24" d="M516.1,994.9c0,0-2,3.8-5.1,2.8l1.1,1.1l2.6-0.3L516.1,994.9"/>
	<path id="Fill-81" class="st15" d="M535.5,997.7l-0.2,0c-0.3-0.1-0.4-0.4-0.3-0.7c0,0,1.3-3.1,4.9-3c0.3,0,0.5,0.2,0.5,0.5
		c0,0.3-0.2,0.5-0.5,0.5c-2.9-0.1-3.9,2.3-3.9,2.3C535.9,997.6,535.7,997.7,535.5,997.7"/>
	<path id="Fill-82" class="st15" d="M520.8,1008.8c-1.4-0.1-2.6-0.7-3.5-1.8c-1.9-2.2-2-6.1-1.9-8.8c-0.6,0.7-1.4,1.3-2.5,1.2
		c-1.1-0.1-2-0.6-2.7-1.4c-1.8-2.4-0.9-7.1-0.9-7.3c0.1-0.3,0.3-0.4,0.6-0.4c0.3,0.1,0.4,0.3,0.4,0.6c0,0-0.8,4.4,0.7,6.5
		c0.5,0.6,1.1,1,2,1c2,0.2,2.8-3.2,2.8-3.2c0.1-0.3,0.3-0.4,0.6-0.4c0.3,0.1,0.4,0.3,0.4,0.6c0,0.1-1.4,7.8,1.3,11
		c0.8,0.9,1.8,1.4,3.1,1.4c1.1,0,2-0.4,2.8-1.2c3.8-3.8,3.4-15.3,3.4-15.4c0-0.3,0.2-0.5,0.5-0.5c0.3,0,0.5,0.2,0.5,0.5
		c0,0.5,0.4,12-3.7,16.1c-1,1-2.2,1.5-3.5,1.5C521,1008.8,520.9,1008.8,520.8,1008.8"/>
	<path id="Fill-83" class="st15" d="M541.1,993c-0.1,0-0.2-0.1-0.3-0.2c-0.7-0.8-1.6-0.4-1.6-0.4c-0.3,0.1-0.5,0-0.7-0.3
		c-0.1-0.3,0-0.5,0.3-0.7c0.1,0,1.5-0.6,2.7,0.7c0.2,0.2,0.2,0.5,0,0.7C541.4,993,541.3,993,541.1,993"/>
	<path id="Fill-87" class="st23" d="M518,985.4c0,0,11.2-2.1,17.5,3.5C535.5,988.8,529.4,980.5,518,985.4"/>
	<path id="Fill-88" class="st15" d="M519.5,990.6c6,0.5,10.7,1.5,13.3,2.2c-6-3.9-16-3.5-23.8-2.3
		C512.8,990.2,516.4,990.3,519.5,990.6z M497.7,992.9l-0.2-1c0.1,0,7-2.1,15.1-2.9c11-1.1,18.6,0.5,22.8,4.7l1.6,1.6l-2.1-0.8
		C534.8,994.4,518.9,988.7,497.7,992.9z"/>
	<path id="Fill-89" class="st15" d="M497.6,992.4c0,0,27.6-8.3,37.5,1.6C535.1,994,519.2,988.1,497.6,992.4"/>
	<path id="Fill-90" class="st25" d="M485.4,972.8c0,0-0.1-3.5,0.4-8.6c0.3-2.6,0.7-5.6,1.5-8.8c0.4-1.6,0.8-3.2,1.3-4.9
		c0.5-1.6,1.2-3.3,1.9-4.9c0.8-1.6,1.6-3.2,2.6-4.6c1-1.4,2.3-2.8,3.6-3.8c2.7-2.1,5.8-3.1,8.4-3.4c2.6-0.4,4.8-0.2,6.3,0.1
		c1.5,0.2,2.3,0.5,2.3,0.5s-0.9-0.1-2.4-0.1c-1.5,0-3.6,0.1-6.1,0.6c-1.2,0.3-2.5,0.7-3.8,1.3c-1.3,0.6-2.6,1.4-3.7,2.3
		c-1.2,1-2.2,2.2-3.1,3.5c-0.9,1.3-1.7,2.8-2.4,4.3c-0.7,1.5-1.3,3.1-1.9,4.7c-0.5,1.6-1,3.1-1.5,4.7c-0.9,3.1-1.5,6-2,8.5
		C485.9,969.4,485.4,972.8,485.4,972.8"/>
	<path id="Fill-91" class="st25" d="M445.7,1014.4c0,0-0.1,0.2-0.3,0.6c-0.2,0.4-0.4,1-0.6,1.6c-0.3,0.7-0.5,1.5-0.8,2.3
		c-0.2,0.4-0.3,0.9-0.4,1.3c-0.1,0.5-0.3,0.9-0.4,1.4c-0.1,0.5-0.2,0.9-0.3,1.4c-0.1,0.5-0.2,0.9-0.2,1.3c-0.1,0.4-0.1,0.9-0.1,1.3
		c0,0.4-0.1,0.8-0.1,1.1c0,0.4,0,0.7,0,1c0,0.3,0,0.5,0.1,0.8c0,0.4,0,0.7,0,0.7s-0.1-0.2-0.2-0.6c-0.1-0.2-0.1-0.5-0.2-0.7
		c-0.1-0.3-0.1-0.6-0.2-1c-0.1-0.4-0.1-0.8-0.1-1.2c0-0.4,0-0.9,0-1.3c0-0.5,0.1-0.9,0.1-1.4c0.1-0.5,0.2-1,0.3-1.5
		c0.2-1,0.5-1.9,0.9-2.8c0.4-0.9,0.8-1.6,1.1-2.3C445.1,1015.2,445.7,1014.4,445.7,1014.4"/>
	<path id="Fill-93" class="st25" d="M424.1,970.2c0,0-0.2,0.3-0.6,0.8c-0.4,0.5-0.9,1.2-1.6,2.1c-0.3,0.4-0.6,0.9-1,1.4
		c-0.3,0.5-0.7,1.1-1,1.6c-0.3,0.6-0.7,1.2-1,1.8c-0.3,0.6-0.7,1.2-1,1.9c-0.3,0.6-0.6,1.3-0.9,1.9c-0.3,0.6-0.5,1.3-0.8,1.9
		c-0.3,0.6-0.5,1.2-0.7,1.8c-0.2,0.6-0.4,1.1-0.5,1.7c-0.1,0.5-0.3,1-0.4,1.4c-0.1,0.4-0.2,0.8-0.2,1.1c-0.1,0.6-0.2,1-0.2,1
		s0-0.4,0-1c0-0.3,0-0.7,0.1-1.2c0-0.4,0.1-0.9,0.2-1.5c0-0.3,0.1-0.6,0.1-0.8c0.1-0.3,0.1-0.6,0.2-0.9c0.2-0.6,0.3-1.3,0.5-1.9
		c0.2-0.7,0.4-1.3,0.7-2c0.3-0.7,0.6-1.3,0.9-2c0.3-0.7,0.7-1.3,1-1.9c0.3-0.6,0.8-1.2,1.1-1.8c0.8-1.1,1.6-2.1,2.3-3
		c0.7-0.8,1.4-1.4,1.9-1.9C423.8,970.5,424.1,970.2,424.1,970.2"/>
	<path id="Fill-94" class="st25" d="M501,1016.9c0,0-0.3,0.1-0.8,0.3c-0.3,0.1-0.6,0.3-0.9,0.4c-0.3,0.2-0.8,0.4-1.2,0.6
		c-0.4,0.2-0.9,0.5-1.3,0.8c-0.5,0.3-0.9,0.7-1.4,1.1c-0.4,0.4-0.9,0.8-1.3,1.3c-0.2,0.2-0.4,0.5-0.6,0.7l-0.5,0.8
		c-0.2,0.3-0.4,0.5-0.5,0.8c-0.1,0.3-0.3,0.6-0.4,0.8c-0.3,0.6-0.5,1.2-0.7,1.7c-0.2,0.6-0.3,1.1-0.4,1.7c-0.1,0.5-0.2,1.1-0.3,1.5
		c-0.1,0.5-0.2,0.9-0.2,1.3c0,0.4,0,0.7-0.1,1c0,0.6-0.1,0.9-0.1,0.9s-0.1-0.3-0.1-0.9c0-0.3-0.1-0.6-0.1-1c-0.1-0.4-0.1-0.9,0-1.4
		c0-0.5,0-1.1,0.1-1.6c0.1-0.6,0.2-1.2,0.3-1.8c0.2-0.6,0.4-1.2,0.7-1.9c0.2-0.3,0.3-0.6,0.5-0.9c0.1-0.3,0.3-0.6,0.5-0.9l0.6-0.8
		c0.2-0.3,0.5-0.5,0.7-0.8c0.4-0.5,1-0.9,1.4-1.3c0.5-0.4,1-0.7,1.5-1c0.5-0.3,1-0.5,1.5-0.7c0.5-0.2,0.9-0.3,1.3-0.5
		c0.4-0.1,0.7-0.2,1-0.3C500.6,1016.9,501,1016.9,501,1016.9"/>
	
		<rect x="487" y="1012.3" transform="matrix(0.9971 7.623798e-02 -7.623798e-02 0.9971 80.925 -36.8679)" class="st18" width="72.7" height="58.4"/>
	
		<rect x="494.7" y="1059" transform="matrix(0.9971 7.623798e-02 -7.623798e-02 0.9971 83.4489 -36.1012)" class="st18" width="39.7" height="31.9"/>
</g>
</svg>
