<svg id="Layer_1" data-name="Layer 1" xmlns="http://www.w3.org/2000/svg" xmlns:xlink="http://www.w3.org/1999/xlink" viewBox="0 0 960 850"><defs><style>.cls-1{fill:url(#linear-gradient);}.cls-2{fill:url(#linear-gradient-2);}.cls-3{fill:url(#linear-gradient-3);}.cls-4{fill:url(#linear-gradient-4);}.cls-5{fill:url(#linear-gradient-5);}.cls-6{fill:url(#linear-gradient-6);}.cls-7{fill:url(#linear-gradient-7);}.cls-8{fill:url(#linear-gradient-8);}.cls-10,.cls-9{opacity:0.5;}.cls-10,.cls-15,.cls-9{isolation:isolate;}.cls-9{fill:url(#linear-gradient-9);}.cls-10{fill:url(#linear-gradient-10);}.cls-11,.cls-39,.cls-44,.cls-48{fill:#fff;}.cls-12{fill:url(#radial-gradient);}.cls-13{fill:#896545;}.cls-14{fill:url(#radial-gradient-3);}.cls-15{opacity:0.72;fill:url(#radial-gradient-5);}.cls-16{fill:#ffde00;}.cls-16,.cls-17,.cls-18,.cls-19,.cls-20,.cls-21,.cls-22,.cls-37,.cls-46{stroke:#000;}.cls-16,.cls-17,.cls-18,.cls-19,.cls-20,.cls-21,.cls-22,.cls-37,.cls-39,.cls-44,.cls-46,.cls-48{stroke-miterlimit:10;}.cls-16,.cls-17,.cls-18,.cls-19,.cls-20,.cls-21,.cls-22,.cls-37{stroke-width:0.13px;}.cls-17{fill:#f20;}.cls-18{fill:#0fb900;}.cls-19{fill:#ff900e;}.cls-20{fill:#0057e7;}.cls-21{fill:#ff23ff;}.cls-22,.cls-35,.cls-46{fill:#7e43e7;}.cls-23{fill:url(#radial-gradient-7);}.cls-24{fill:url(#radial-gradient-8);}.cls-25{fill:url(#radial-gradient-9);}.cls-26{fill:url(#radial-gradient-10);}.cls-27{fill:url(#radial-gradient-11);}.cls-28{fill:url(#radial-gradient-12);}.cls-29{fill:url(#radial-gradient-13);}.cls-30{fill:url(#radial-gradient-14);}.cls-31{fill:url(#radial-gradient-15);}.cls-32{fill:url(#radial-gradient-17);}.cls-33{fill:url(#radial-gradient-19);}.cls-34,.cls-41,.cls-42,.cls-43{fill:none;stroke-linecap:round;stroke-linejoin:round;}.cls-34,.cls-41,.cls-42,.cls-43,.cls-48{stroke:#7e43e7;}.cls-34,.cls-39{stroke-width:0.25px;}.cls-34{stroke-dasharray:1 1;}.cls-36{fill:url(#radial-gradient-21);}.cls-37{fill:url(#linear-gradient-11);}.cls-38{fill:#5e5e5e;}.cls-39,.cls-44{stroke:#fc1610;}.cls-40{fill:#fc1610;}.cls-41,.cls-42,.cls-43{stroke-width:0.5px;}.cls-42{stroke-dasharray:1.93 1.93;}.cls-43{stroke-dasharray:2.01 2.01;}.cls-44{stroke-width:0.15px;}.cls-45{fill:url(#linear-gradient-12);}.cls-46{stroke-width:0.14px;}.cls-47{fill:url(#linear-gradient-13);}.cls-48{stroke-width:0.57px;}</style><linearGradient id="linear-gradient" x1="795.2" y1="433.74" x2="803.41" y2="227.15" gradientTransform="matrix(1, 0, 0, -1, 0, 852)" gradientUnits="userSpaceOnUse"><stop offset="0.03" stop-color="#fff" stop-opacity="0"/><stop offset="0.17" stop-color="#feda62"/><stop offset="0.58" stop-color="#feda62"/><stop offset="0.84" stop-color="#fff" stop-opacity="0"/></linearGradient><linearGradient id="linear-gradient-2" x1="228.32" y1="83.44" x2="228.32" y2="114.83" gradientTransform="matrix(1, -0.09, -0.09, -1, 246.23, 744.53)" gradientUnits="userSpaceOnUse"><stop offset="0" stop-color="#fff" stop-opacity="0"/><stop offset="1" stop-color="#feda62"/></linearGradient><linearGradient id="linear-gradient-3" x1="481.66" y1="409.79" x2="481.66" y2="383.25" gradientTransform="matrix(1, 0, 0, -1, 0, 852)" gradientUnits="userSpaceOnUse"><stop offset="0" stop-color="#fff" stop-opacity="0"/><stop offset="0.02" stop-color="#fffefb" stop-opacity="0.02"/><stop offset="0.23" stop-color="#fff3cd" stop-opacity="0.32"/><stop offset="0.44" stop-color="#feeaa7" stop-opacity="0.56"/><stop offset="0.62" stop-color="#fee389" stop-opacity="0.75"/><stop offset="0.78" stop-color="#fede74" stop-opacity="0.89"/><stop offset="0.91" stop-color="#fedb67" stop-opacity="0.97"/><stop offset="1" stop-color="#feda62"/></linearGradient><linearGradient id="linear-gradient-4" x1="37.22" y1="333.91" x2="898.48" y2="333.91" gradientTransform="matrix(1, 0, 0, -1, 0, 852)" gradientUnits="userSpaceOnUse"><stop offset="0" stop-color="#fff" stop-opacity="0"/><stop offset="0.05" stop-color="#feda62"/><stop offset="0.93" stop-color="#feda62"/><stop offset="1" stop-color="#fff" stop-opacity="0"/></linearGradient><linearGradient id="linear-gradient-5" x1="269.6" y1="221.09" x2="269.6" y2="252.99" gradientTransform="matrix(1, 0, 0, -1, 0, 852)" xlink:href="#linear-gradient-2"/><linearGradient id="linear-gradient-6" x1="175.49" y1="220.67" x2="175.49" y2="251.08" gradientTransform="matrix(0.2, 0.98, 0.98, -0.2, -109.41, 476.45)" xlink:href="#linear-gradient-2"/><linearGradient id="linear-gradient-7" x1="102.68" y1="220.67" x2="102.68" y2="251.08" gradientTransform="matrix(0.2, 0.98, 0.98, -0.2, -165.13, 549.8)" xlink:href="#linear-gradient-2"/><linearGradient id="linear-gradient-8" x1="618.93" y1="190.77" x2="603.75" y2="304.08" gradientTransform="matrix(1, 0, 0, -1, 0, 852)" gradientUnits="userSpaceOnUse"><stop offset="0.45" stop-color="#fff" stop-opacity="0"/><stop offset="0.5" stop-color="#fff9e6" stop-opacity="0.16"/><stop offset="0.64" stop-color="#feeba8" stop-opacity="0.55"/><stop offset="0.78" stop-color="#feda62"/></linearGradient><linearGradient id="linear-gradient-9" x1="302.25" y1="458.66" x2="782.61" y2="458.66" gradientTransform="matrix(1, 0, 0, -1, 0, 852)" gradientUnits="userSpaceOnUse"><stop offset="0" stop-color="#fff" stop-opacity="0"/><stop offset="0.11" stop-color="#fcf4b8"/><stop offset="0.89" stop-color="#fcf4b8"/><stop offset="1" stop-color="#fff" stop-opacity="0"/></linearGradient><linearGradient id="linear-gradient-10" x1="161.78" y1="78.94" x2="935.84" y2="78.94" xlink:href="#linear-gradient-9"/><radialGradient id="radial-gradient" cx="279" cy="391.11" r="19.4" gradientTransform="matrix(1, 0, 0, -1, 0, 852)" gradientUnits="userSpaceOnUse"><stop offset="0.11" stop-color="#3adedf" stop-opacity="0.5"/><stop offset="1" stop-color="#3adedf"/></radialGradient><radialGradient id="radial-gradient-3" cx="747.84" cy="381.89" r="13.6" xlink:href="#radial-gradient"/><radialGradient id="radial-gradient-5" cx="810.46" cy="374.28" r="13.34" xlink:href="#radial-gradient"/><radialGradient id="radial-gradient-7" cx="132.29" cy="301" r="20.74" xlink:href="#radial-gradient"/><radialGradient id="radial-gradient-8" cx="311.47" cy="287.63" r="20.74" xlink:href="#radial-gradient"/><radialGradient id="radial-gradient-9" cx="662.41" cy="321.38" r="20.74" xlink:href="#radial-gradient"/><radialGradient id="radial-gradient-10" cx="84.23" cy="372.95" r="20.74" xlink:href="#radial-gradient"/><radialGradient id="radial-gradient-11" cx="615.34" cy="416.76" r="20.74" xlink:href="#radial-gradient"/><radialGradient id="radial-gradient-12" cx="833.43" cy="262.79" r="20.74" xlink:href="#radial-gradient"/><radialGradient id="radial-gradient-13" cx="723.84" cy="446.64" r="20.74" xlink:href="#radial-gradient"/><radialGradient id="radial-gradient-14" cx="517.28" cy="490.07" r="20.74" xlink:href="#radial-gradient"/><radialGradient id="radial-gradient-15" cx="579.9" cy="264.09" r="19.4" xlink:href="#radial-gradient"/><radialGradient id="radial-gradient-17" cx="468.41" cy="437.16" r="19.4" xlink:href="#radial-gradient"/><radialGradient id="radial-gradient-19" cx="427.09" cy="232.8" r="19.4" xlink:href="#radial-gradient"/><radialGradient id="radial-gradient-21" cx="483.88" cy="-249" r="436" gradientTransform="matrix(1, 0, 0, -0.76, 0, 155.64)" gradientUnits="userSpaceOnUse"><stop offset="0.03" stop-color="#7e43e7" stop-opacity="0.5"/><stop offset="0.27" stop-color="#7e43e7" stop-opacity="0.5"/><stop offset="0.88" stop-color="#7e43e7" stop-opacity="0"/></radialGradient><linearGradient id="linear-gradient-11" x1="629.96" y1="671.97" x2="655.8" y2="671.97" gradientTransform="matrix(1, 0, 0, -1, 0, 852)" gradientUnits="userSpaceOnUse"><stop offset="0.05" stop-color="#feda62"/><stop offset="0.93" stop-color="#feda62"/></linearGradient><linearGradient id="linear-gradient-12" x1="1815.09" y1="3961.34" x2="1876.53" y2="3961.34" gradientTransform="matrix(-0.12, 0.99, 0.99, 0.12, -3244.45, -1772.56)" gradientUnits="userSpaceOnUse"><stop offset="0.19" stop-color="#3adedf" stop-opacity="0"/><stop offset="0.28" stop-color="#3adedf" stop-opacity="0.08"/><stop offset="0.46" stop-color="#3adedf" stop-opacity="0.27"/><stop offset="0.7" stop-color="#3adedf" stop-opacity="0.59"/><stop offset="1" stop-color="#3adedf"/></linearGradient><linearGradient id="linear-gradient-13" x1="451.59" y1="281.34" x2="506.18" y2="281.34" gradientTransform="matrix(1, -0.1, -0.1, -1, 293.47, 823.5)" xlink:href="#linear-gradient-12"/></defs><title>Artboard 1</title><g id="streets"><path class="cls-1" d="M792.89,627.16l-33.38-4.59c6.66-48.7,44.67-202.15,46.72-211l32.82,7.66C838.56,421.43,799.34,580,792.89,627.16Z"/><path class="cls-2" d="M453.29,517.91c-3.06,17.82-9.63,49.17-12.89,60.34-9.1,31-6.72,68.44-6.62,70L467.4,646c0-.32-2.1-33,5.33-58.28,3.66-12.52,10.53-45.3,13.78-64.1.51-2.92,1-5.89,1.53-8.88l-34.47,2A5.22,5.22,0,0,0,453.29,517.91Z"/><path class="cls-3" d="M474.34,434.63c-.08.46-8.7,46.57-18.47,83.69l34.5,1.07c2.22-8.76,4-17.44,5.94-26,6.13-27.29,10.89-51.17,11.15-52.55Z"/><polygon class="cls-4" points="37.22 525.18 37.22 586.15 897.47 511.09 898.48 511 898.48 450.03 37.22 525.18"/><polygon class="cls-5" points="274.47 639.81 247.47 634.27 262.78 559.61 291.73 555.66 274.47 639.81"/><rect class="cls-6" x="137.36" y="583.38" width="76.2" height="27.57" transform="translate(-444.78 649.08) rotate(-78.41)"/><rect class="cls-7" x="64.55" y="585.91" width="76.2" height="27.57" transform="translate(-505.44 579.77) rotate(-78.41)"/><path class="cls-8" d="M625.09,681.66c-8.9-17.71-48.81-136.95-53.31-150.49l26.13-8.67c17.52,52.42,45.79,134.77,51.84,146.9Z"/><path class="cls-9" d="M505.29,424.37c-1.63,0-3.27,0-4.92-.11A183.65,183.65,0,0,1,472.19,420c-10-2.05-19.37-4-28.7-3.92-2.74,0-5.62.2-8.67.4-10.36.67-22.09,1.42-33-4.41-6.61-3.54-11.33-8.73-15.5-13.31a71.32,71.32,0,0,0-6.46-6.55c-7.53-6.39-19.23-9.38-32.16-8.18s-25.65,6-38.1,10.6l-7.35-20.08c13.78-5.13,28-10.45,43.63-11.89,18.82-1.71,35.83,3,47.9,13.19a87.74,87.74,0,0,1,8.45,8.47c3.3,3.63,6.42,7,9.78,8.84,5.51,2.95,13.27,2.46,21.44,1.93,3.2-.2,6.52-.42,9.89-.45,11.58-.09,22.54,2.18,33.17,4.35a164.82,164.82,0,0,0,24.9,3.84c21,1,41.63-6.44,63.45-14.35,24-8.69,48.82-17.68,75.47-15.31,12.08,1.12,23.4,4.59,34.35,7.83,6.54,2,12.72,3.82,19,5.2,16.14,3.56,32.74,3.89,50.32,4.24q19.35.07,38.62,2.07l-2.55,21.37c-11.9-1.44-23.85-1.67-36.5-1.93-17.84-.36-36.29-.72-54.5-4.72-7.06-1.53-13.92-3.63-20.57-5.64-10.38-3.06-20.2-6.12-30.14-7-21.87-2-43.4,5.78-66.19,14C550.8,416.39,528.76,424.37,505.29,424.37Z"/><path class="cls-10" d="M164.31,811.5l-2.53-21.29c17.06-2,418.47-49.65,488.17-54.21,71.44-4.67,231.75,3.06,285.89,13.89l-4.17,21c-52.93-10.54-210.1-18.12-280.25-13.51C582.21,761.93,168.49,811,164.31,811.5Z"/></g><g id="_elements" data-name=" elements"><path class="cls-11" d="M274.68,466.83s-11.19-2.13-5.36,9.88c3.06-7.24,6-8.22,6-8.22s2.5,1.34,5.05,8.7c.86-1.26,5.55-10.22-2.29-10.49,6.63-.39,9.38,2.52,9.38,2.52s-1-10-9.19-5.54a15.27,15.27,0,0,1,6.47-4s-7.28-5.15-8.29,3.73c-.56-3.72-1.77-7.58-8.19-4.79a19.24,19.24,0,0,1,5.68,4.75s-11-6.28-10.72,6.32A21.63,21.63,0,0,1,274.68,466.83Z"/><path class="cls-12" d="M274.68,466.83s-11.19-2.13-5.36,9.88c3.06-7.24,6-8.22,6-8.22s2.5,1.34,5.05,8.7c.86-1.26,5.55-10.22-2.29-10.49,6.63-.39,9.38,2.52,9.38,2.52s-1-10-9.19-5.54a15.27,15.27,0,0,1,6.47-4s-7.28-5.15-8.29,3.73c-.56-3.72-1.77-7.58-8.19-4.79a19.24,19.24,0,0,1,5.68,4.75s-11-6.28-10.72,6.32A21.63,21.63,0,0,1,274.68,466.83Z"/><path class="cls-13" d="M272.94,500.31s-.8-22.21,2.23-34.73c.4.07.94.14.94.14a261,261,0,0,0-.71,34.59Z"/><path class="cls-12" d="M274.68,466.83s-11.19-2.13-5.36,9.88c3.06-7.24,6-8.22,6-8.22s2.5,1.34,5.05,8.7c.86-1.26,5.55-10.22-2.29-10.49,6.63-.39,9.38,2.52,9.38,2.52s-1-10-9.19-5.54a15.27,15.27,0,0,1,6.47-4s-7.28-5.15-8.29,3.73c-.56-3.72-1.77-7.58-8.19-4.79a19.24,19.24,0,0,1,5.68,4.75s-11-6.28-10.72,6.32A21.63,21.63,0,0,1,274.68,466.83Z"/><path class="cls-11" d="M744.83,474.28s-7.84-1.54-3.75,6.92c2.12-5.09,4.18-5.78,4.18-5.78s1.76.95,3.56,6.13c.61-.89,3.87-7.17-1.61-7.35,4.59-.28,6.57,1.76,6.57,1.76s-.69-7-6.45-3.87a10.64,10.64,0,0,1,4.59-2.79s-5.09-3.62-5.8,2.6c-.4-2.6-1.24-5.31-5.74-3.35a13.46,13.46,0,0,1,4,3.34s-7.73-4.41-7.54,4.42A15,15,0,0,1,744.83,474.28Z"/><path class="cls-14" d="M744.83,474.28s-7.84-1.54-3.75,6.92c2.12-5.09,4.18-5.78,4.18-5.78s1.76.95,3.56,6.13c.61-.89,3.87-7.17-1.61-7.35,4.59-.28,6.57,1.76,6.57,1.76s-.69-7-6.45-3.87a10.64,10.64,0,0,1,4.59-2.79s-5.09-3.62-5.8,2.6c-.4-2.6-1.24-5.31-5.74-3.35a13.46,13.46,0,0,1,4,3.34s-7.73-4.41-7.54,4.42A15,15,0,0,1,744.83,474.28Z"/><path class="cls-13" d="M743.58,497.74s-.55-15.56,1.53-24.35l.67.11a183.26,183.26,0,0,0-.5,24.24Z"/><path class="cls-14" d="M744.83,474.28s-7.84-1.54-3.75,6.92c2.12-5.09,4.18-5.78,4.18-5.78s1.76.95,3.56,6.13c.61-.89,3.87-7.17-1.61-7.35,4.59-.28,6.57,1.76,6.57,1.76s-.69-7-6.45-3.87a10.64,10.64,0,0,1,4.59-2.79s-5.09-3.62-5.8,2.6c-.4-2.6-1.24-5.31-5.74-3.35a13.46,13.46,0,0,1,4,3.34s-7.73-4.41-7.54,4.42A15,15,0,0,1,744.83,474.28Z"/><path class="cls-11" d="M818.13,480.11a4.32,4.32,0,0,0-3.4-4.2,3.83,3.83,0,0,0,.12-1,3.73,3.73,0,0,0-6.89-2,4.87,4.87,0,0,0-7.2,6.51,3.74,3.74,0,0,0,2.25,6.72,3.77,3.77,0,0,0,1.06-.15h0a2.68,2.68,0,0,0,4.72,1.74,3.6,3.6,0,0,0,2.13.68,3.74,3.74,0,0,0,3.73-3.74h0a1.6,1.6,0,0,0,0-.31.17.17,0,0,0,0-.1A4.29,4.29,0,0,0,818.13,480.11Z"/><path class="cls-15" d="M818.13,480.11a4.32,4.32,0,0,0-3.4-4.2,3.83,3.83,0,0,0,.12-1,3.73,3.73,0,0,0-6.89-2,4.87,4.87,0,0,0-7.2,6.51,3.74,3.74,0,0,0,2.25,6.72,3.77,3.77,0,0,0,1.06-.15h0a2.68,2.68,0,0,0,4.72,1.74,3.6,3.6,0,0,0,2.13.68,3.74,3.74,0,0,0,3.73-3.74h0a1.6,1.6,0,0,0,0-.31.17.17,0,0,0,0-.1A4.29,4.29,0,0,0,818.13,480.11Z"/><path class="cls-13" d="M814.7,478.89c-.66,1.13-.25,2.06-1.3,2.65-.68.38-1.11.29-1.78.65a12.93,12.93,0,0,0,1.3-4.47c0-.52-.37-.7-.43-.18a6.77,6.77,0,0,1-1,3.06,2.82,2.82,0,0,0-.43-.55,2.51,2.51,0,0,1-.59-.78,6.06,6.06,0,0,1-.29-1.26c-.08-.5-.54-.44-.46.08a6,6,0,0,0,.46,2c.32.51.87.76.87,1.46a4.94,4.94,0,0,1-1,1.53,5.86,5.86,0,0,0-1.26,2c-.09-.44-.41-1-1.62-1.94a8,8,0,0,1-1.62-1.72,28.44,28.44,0,0,1,1.31-3.06,7.77,7.77,0,0,0,.37-3.06c0-.52-.43-.52-.4,0a7.35,7.35,0,0,1-1,3.63,10,10,0,0,0-.92,2h0a8.85,8.85,0,0,1-1-3.69c0-.52-.55-.39-.51.13a8.16,8.16,0,0,0,1.32,4.6c.2.24,1.61,1.62,1.85,1.93a3.56,3.56,0,0,0-1.16-.31,4.22,4.22,0,0,1-3.32-2c-.32-.36-.69,0-.37.41a5.21,5.21,0,0,0,2,1.85c2.51.77,4.12.77,4.12,2.7,0,4.59-.15,15.22-.15,15.22h1.73V487.23a9.29,9.29,0,0,1,1.76-4c.66-.67,1.53-.61,2.59-1.33s.58-1.84,1.18-2.87C815.36,478.7,815,478.46,814.7,478.89Z"/><path class="cls-15" d="M818.13,480.11a4.32,4.32,0,0,0-3.4-4.2,3.83,3.83,0,0,0,.12-1,3.73,3.73,0,0,0-6.89-2,4.87,4.87,0,0,0-7.2,6.51,3.74,3.74,0,0,0,2.25,6.72,3.77,3.77,0,0,0,1.06-.15h0a2.68,2.68,0,0,0,4.72,1.74,3.6,3.6,0,0,0,2.13.68,3.74,3.74,0,0,0,3.73-3.74h0a1.6,1.6,0,0,0,0-.31.17.17,0,0,0,0-.1A4.29,4.29,0,0,0,818.13,480.11Z"/><polygon class="cls-16" points="477.09 468.96 473.4 485.99 478.44 485.55 482.13 468.47 477.09 468.96"/><polygon class="cls-17" points="467.06 469.94 463.42 486.89 468.38 486.45 472.05 469.47 467.06 469.94"/><polygon class="cls-18" points="482.13 468.47 478.44 485.55 483.46 485.09 487.17 467.98 482.13 468.47"/><polygon class="cls-19" points="472.05 469.47 468.38 486.45 473.4 485.99 477.09 468.96 472.05 469.47"/><polygon class="cls-20" points="487.17 467.98 483.46 485.09 488.49 484.63 492.21 467.49 487.17 467.98"/><polygon class="cls-21" points="502.28 466.5 497.25 467 493.52 484.19 498.55 483.73 502.28 466.5"/><polygon class="cls-22" points="492.21 467.49 488.49 484.63 493.52 484.19 497.25 467 492.21 467.49"/><polygon class="cls-16" points="456.69 551.11 452.76 568.08 457.8 567.69 461.73 550.68 456.69 551.11"/><polygon class="cls-17" points="446.65 551.95 442.77 568.84 447.73 568.46 451.64 551.54 446.65 551.95"/><polygon class="cls-18" points="461.73 550.68 457.8 567.69 462.83 567.31 466.77 550.27 461.73 550.68"/><polygon class="cls-19" points="451.64 551.54 447.73 568.46 452.76 568.08 456.69 551.11 451.64 551.54"/><polygon class="cls-20" points="466.77 550.27 462.83 567.31 467.86 566.93 471.82 549.84 466.77 550.27"/><polygon class="cls-21" points="481.9 549 476.86 549.41 472.9 566.55 477.93 566.16 481.9 549"/><polygon class="cls-22" points="471.82 549.84 467.86 566.93 472.9 566.55 476.86 549.41 471.82 549.84"/><path class="cls-11" d="M144.22,554.74a6.69,6.69,0,0,0-5.29-6.54,5.69,5.69,0,0,0,.2-1.53,5.82,5.82,0,0,0-10.72-3.07,7.57,7.57,0,0,0-11.18,10.13,5.82,5.82,0,0,0,3.51,10.46,7,7,0,0,0,1.64-.23h0a4.18,4.18,0,0,0,7.33,2.74,5.82,5.82,0,0,0,9.19-4.78,3.68,3.68,0,0,0,0-.47l.1-.17A6.71,6.71,0,0,0,144.22,554.74Z"/><path class="cls-23" d="M144.22,554.74a6.69,6.69,0,0,0-5.29-6.54,5.69,5.69,0,0,0,.2-1.53,5.82,5.82,0,0,0-10.72-3.07,7.57,7.57,0,0,0-11.18,10.13,5.82,5.82,0,0,0,3.51,10.46,7,7,0,0,0,1.64-.23h0a4.18,4.18,0,0,0,7.33,2.74,5.82,5.82,0,0,0,9.19-4.78,3.68,3.68,0,0,0,0-.47l.1-.17A6.71,6.71,0,0,0,144.22,554.74Z"/><path class="cls-13" d="M138.14,551.6c-.95,1.62-.37,2.95-1.87,3.8-1,.53-1.53.39-2.53.93a19,19,0,0,0,1.86-6.39c0-.73-.54-1-.63-.26a9.71,9.71,0,0,1-1.37,4.38,3.78,3.78,0,0,0-.59-.79,3.9,3.9,0,0,1-.86-1.12,7.66,7.66,0,0,1-.4-1.78c-.12-.73-.78-.64-.66.1a8.64,8.64,0,0,0,.65,2.83c.44.7,1.25,1.07,1.24,2.07a6.92,6.92,0,0,1-1.41,2.14,8.3,8.3,0,0,0-1.78,2.85c-.14-.66-.6-1.44-2.33-2.79a11.69,11.69,0,0,1-2.31-2.45,46.38,46.38,0,0,1,1.88-4.35,11.53,11.53,0,0,0,.54-4.36c0-.74-.61-.75-.57,0a10.5,10.5,0,0,1-1.39,5.16,15.59,15.59,0,0,0-1.3,2.89v.09a12.58,12.58,0,0,1-1.41-5.26c0-.74-.8-.54-.74.2a11.83,11.83,0,0,0,1.81,6.7c.29.34,2.3,2.32,2.65,2.76a5.52,5.52,0,0,0-1.65-.44c-2.27-.28-3-.79-4.75-2.81-.46-.52-1,0-.52.58,1,1.12,1.62,2.23,2.94,2.64,3.58,1.1,5.86,1.1,5.86,3.86,0,6.57-.21,24.07-.21,24.07h2.44V563.73a13.2,13.2,0,0,1,2.52-5.68c.94-.95,2.24-.86,3.69-1.9s.81-2.62,1.67-4.09C139.07,551.37,138.49,551,138.14,551.6Z"/><path class="cls-11" d="M323.4,568.09a6.69,6.69,0,0,0-5.29-6.52,6.12,6.12,0,0,0,.2-1.53A5.81,5.81,0,0,0,307.59,557a7.5,7.5,0,0,0-5.13-2,7.58,7.58,0,0,0-7.58,7.59,7.67,7.67,0,0,0,1.53,4.56,5.82,5.82,0,0,0,5.15,10.21h0a4.18,4.18,0,0,0,7.33,2.73,5.81,5.81,0,0,0,9.13-4.78v-.48l.09-.16A6.71,6.71,0,0,0,323.4,568.09Z"/><path class="cls-24" d="M323.4,568.09a6.69,6.69,0,0,0-5.29-6.52,6.12,6.12,0,0,0,.2-1.53A5.81,5.81,0,0,0,307.59,557a7.5,7.5,0,0,0-5.13-2,7.58,7.58,0,0,0-7.58,7.59,7.67,7.67,0,0,0,1.53,4.56,5.82,5.82,0,0,0,5.15,10.21h0a4.18,4.18,0,0,0,7.33,2.73,5.81,5.81,0,0,0,9.13-4.78v-.48l.09-.16A6.71,6.71,0,0,0,323.4,568.09Z"/><path class="cls-13" d="M317.32,565c-.95,1.63-.37,3-1.87,3.8-1,.54-1.53.4-2.53.94a18.86,18.86,0,0,0,1.85-6.39c0-.74-.53-1-.62-.26a9.71,9.71,0,0,1-1.37,4.38,3.85,3.85,0,0,0-.59-.8,3.5,3.5,0,0,1-.86-1.12,7.69,7.69,0,0,1-.4-1.77c-.12-.74-.78-.63-.66.09a8.63,8.63,0,0,0,.64,2.83c.45.72,1.26,1.08,1.25,2.09a7.08,7.08,0,0,1-1.41,2.12,8.56,8.56,0,0,0-1.78,2.85c-.14-.64-.6-1.44-2.33-2.78a11.88,11.88,0,0,1-2.31-2.44,45.45,45.45,0,0,1,1.88-4.36,11.56,11.56,0,0,0,.54-4.37c0-.73-.61-.75-.57,0a10.57,10.57,0,0,1-1.39,5.18,14.94,14.94,0,0,0-1.3,2.88l-.08.09a12.58,12.58,0,0,1-1.41-5.27c0-.72-.79-.54-.73.2a11.76,11.76,0,0,0,1.88,6.6c.29.35,2.3,2.31,2.65,2.76a5.94,5.94,0,0,0-1.65-.45c-2.27-.27-3.07-.76-4.75-2.8-.46-.52-1,0-.52.58,1,1.12,1.62,2.24,2.94,2.64,3.58,1.11,5.86,1.11,5.86,3.86-.07,6.58-.21,24.07-.21,24.07h2.43V577a13.55,13.55,0,0,1,2.53-5.69c.94-1,2.24-.85,3.69-1.88s.81-2.63,1.67-4.1C318.25,564.72,317.67,564.39,317.32,565Z"/><path class="cls-11" d="M674.39,534.35a6.68,6.68,0,0,0-5.29-6.53,5.71,5.71,0,0,0,.2-1.54,5.8,5.8,0,0,0-10.72-3.06,7.58,7.58,0,0,0-11.18,10.14,5.82,5.82,0,0,0,5.13,10.21h0a4.19,4.19,0,0,0,7.34,2.75,5.92,5.92,0,0,0,3.31,1,5.83,5.83,0,0,0,5.82-5.82v-.48l.09-.17A6.69,6.69,0,0,0,674.39,534.35Z"/><path class="cls-25" d="M674.39,534.35a6.68,6.68,0,0,0-5.29-6.53,5.71,5.71,0,0,0,.2-1.54,5.8,5.8,0,0,0-10.72-3.06,7.58,7.58,0,0,0-11.18,10.14,5.82,5.82,0,0,0,5.13,10.21h0a4.19,4.19,0,0,0,7.34,2.75,5.92,5.92,0,0,0,3.31,1,5.83,5.83,0,0,0,5.82-5.82v-.48l.09-.17A6.69,6.69,0,0,0,674.39,534.35Z"/><path class="cls-13" d="M668.26,531.25c-.93,1.62-.35,3-1.87,3.79-1,.54-1.53.4-2.52.94a18.79,18.79,0,0,0,1.85-6.39c.09-.73-.54-1-.61-.26a10,10,0,0,1-1.37,4.38,4.13,4.13,0,0,0-.59-.8,3.46,3.46,0,0,1-.86-1.11,7.3,7.3,0,0,1-.41-1.78c-.13-.73-.77-.64-.66.09a8.41,8.41,0,0,0,.66,2.84c.44.72,1.24,1.07,1.24,2.06a7.35,7.35,0,0,1-1.41,2.15,8,8,0,0,0-1.79,2.85c-.13-.66-.6-1.44-2.32-2.79a11.72,11.72,0,0,1-2.32-2.45,45.35,45.35,0,0,1,1.89-4.35,11.16,11.16,0,0,0,.52-4.37c0-.73-.61-.75-.56,0a10.39,10.39,0,0,1-1.38,5.17,17.12,17.12,0,0,0-1.32,2.89l-.07.09a12.42,12.42,0,0,1-1.4-5.27c-.07-.73-.81-.53-.73.2a11.69,11.69,0,0,0,1.88,6.6c.29.34,2.3,2.32,2.65,2.76a5.6,5.6,0,0,0-1.65-.44c-2.29-.28-3.07-.79-4.77-2.81-.44-.52-1,0-.52.58,1,1.12,1.64,2.23,2.94,2.64,3.59,1.1,5.88,1.1,5.88,3.86-.07,6.57-.23,24.07-.23,24.07h2.49V543.27a13.36,13.36,0,0,1,2.51-5.68c.93-1,2.25-.86,3.7-1.9s.82-2.62,1.67-4.09C669.2,531,668.61,530.65,668.26,531.25Z"/><path class="cls-11" d="M96.16,482.79a6.7,6.7,0,0,0-5.25-6.54,6.06,6.06,0,0,0,.2-1.53,5.82,5.82,0,0,0-10.72-3.06,7.58,7.58,0,0,0-12.71,5.57,7.43,7.43,0,0,0,1.53,4.6A5.8,5.8,0,0,0,74.34,492h0a4.18,4.18,0,0,0,7.38,2.71,5.81,5.81,0,0,0,8.11-1.37A5.88,5.88,0,0,0,90.91,490a3.68,3.68,0,0,0,0-.47l.09-.17A6.67,6.67,0,0,0,96.16,482.79Z"/><path class="cls-26" d="M96.16,482.79a6.7,6.7,0,0,0-5.25-6.54,6.06,6.06,0,0,0,.2-1.53,5.82,5.82,0,0,0-10.72-3.06,7.58,7.58,0,0,0-12.71,5.57,7.43,7.43,0,0,0,1.53,4.6A5.8,5.8,0,0,0,74.34,492h0a4.18,4.18,0,0,0,7.38,2.71,5.81,5.81,0,0,0,8.11-1.37A5.88,5.88,0,0,0,90.91,490a3.68,3.68,0,0,0,0-.47l.09-.17A6.67,6.67,0,0,0,96.16,482.79Z"/><path class="cls-13" d="M90.08,479.62c-1,1.62-.37,3-1.87,3.78-1,.55-1.53.42-2.52,1a19,19,0,0,0,1.85-6.26c.08-.74-.54-1-.63-.26a9.69,9.69,0,0,1-1.36,4.38,3.35,3.35,0,0,0-.6-.8,3.81,3.81,0,0,1-.86-1.12,8.25,8.25,0,0,1-.4-1.77c-.12-.74-.78-.65-.65.09a8.63,8.63,0,0,0,.64,2.83c.46.71,1.26,1.06,1.24,2.07a6.93,6.93,0,0,1-1.39,2.14,8.14,8.14,0,0,0-1.81,2.79c-.14-.66-.6-1.44-2.33-2.79a11.2,11.2,0,0,1-2.31-2.45A45.1,45.1,0,0,1,79,478.86a11.56,11.56,0,0,0,.54-4.37c0-.75-.61-.75-.57,0a10.5,10.5,0,0,1-1.39,5.16,15.39,15.39,0,0,0-1.3,2.9v.09a12.62,12.62,0,0,1-1.41-5.27c0-.74-.8-.54-.74.2a11.92,11.92,0,0,0,1.82,6.65c.3.33,2.3,2.31,2.65,2.75a5,5,0,0,0-1.65-.44c-2.27-.28-3-.78-4.75-2.8-.46-.53-1,0-.52.58,1,1.12,1.63,2.22,2.94,2.63,3.59,1.1,5.87,1.1,5.87,3.86-.08,6.52-.26,24-.26,24h2.46V491.72A13.39,13.39,0,0,1,85.18,486c.93-1,2.24-.88,3.69-1.9s.81-2.62,1.67-4.09C91,479.42,90.43,479.07,90.08,479.62Z"/><path class="cls-11" d="M627.27,439a6.7,6.7,0,0,0-5.29-6.54,6.12,6.12,0,0,0,.2-1.53,5.82,5.82,0,0,0-10.72-3.07A7.56,7.56,0,0,0,600.3,438a5.82,5.82,0,0,0,5.13,10.22h0a4.18,4.18,0,0,0,7.33,2.74,5.81,5.81,0,0,0,8.1-1.33,5.87,5.87,0,0,0,1.09-3.45,3.84,3.84,0,0,0,0-.48l.09-.16A6.7,6.7,0,0,0,627.27,439Z"/><path class="cls-27" d="M627.27,439a6.7,6.7,0,0,0-5.29-6.54,6.12,6.12,0,0,0,.2-1.53,5.82,5.82,0,0,0-10.72-3.07A7.56,7.56,0,0,0,600.3,438a5.82,5.82,0,0,0,5.13,10.22h0a4.18,4.18,0,0,0,7.33,2.74,5.81,5.81,0,0,0,8.1-1.33,5.87,5.87,0,0,0,1.09-3.45,3.84,3.84,0,0,0,0-.48l.09-.16A6.7,6.7,0,0,0,627.27,439Z"/><path class="cls-13" d="M621.19,435.87c-1,1.62-.37,2.95-1.87,3.8-1,.53-1.53.39-2.53.93a18.79,18.79,0,0,0,1.85-6.39c0-.73-.53-1-.62-.26a9.71,9.71,0,0,1-1.37,4.38,3.3,3.3,0,0,0-.6-.79,3.86,3.86,0,0,1-.85-1.12,7.28,7.28,0,0,1-.4-1.78c-.12-.73-.78-.64-.66.09a8.63,8.63,0,0,0,.64,2.84c.46.72,1.26,1.07,1.24,2.06a6.79,6.79,0,0,1-1.39,2.15,8,8,0,0,0-1.79,2.85c-.14-.66-.6-1.44-2.33-2.79a11.43,11.43,0,0,1-2.31-2.45,46.38,46.38,0,0,1,1.88-4.35,11.53,11.53,0,0,0,.54-4.36c0-.74-.61-.75-.57,0a10.5,10.5,0,0,1-1.39,5.16,15.59,15.59,0,0,0-1.3,2.89l-.08.09a12.58,12.58,0,0,1-1.41-5.27c0-.73-.8-.53-.73.2a11.76,11.76,0,0,0,1.88,6.6c.29.34,2.3,2.32,2.65,2.76a5.58,5.58,0,0,0-1.66-.44c-2.26-.28-3.06-.77-4.74-2.81-.46-.52-1,0-.52.59,1,1.11,1.62,2.22,2.94,2.63,3.58,1.1,5.86,1.1,5.86,3.86-.07,6.57-.21,24.07-.21,24.07h2.46V447.89a13.39,13.39,0,0,1,2.53-5.68c.93-.95,2.24-.86,3.69-1.9s.81-2.62,1.67-4.09C622.12,435.61,621.54,435.21,621.19,435.87Z"/><path class="cls-11" d="M845.36,593a6.68,6.68,0,0,0-5.29-6.53,5.23,5.23,0,0,0,.2-1.53,5.8,5.8,0,0,0-10.72-3.06A7.58,7.58,0,0,0,818.37,592a5.8,5.8,0,0,0,3.51,10.44,5.52,5.52,0,0,0,1.62-.23h0a4.19,4.19,0,0,0,4.19,4.18,4.11,4.11,0,0,0,3.15-1.44,5.81,5.81,0,0,0,9.19-4.77v-.48l.09-.17A6.69,6.69,0,0,0,845.36,593Z"/><path class="cls-28" d="M845.36,593a6.68,6.68,0,0,0-5.29-6.53,5.23,5.23,0,0,0,.2-1.53,5.8,5.8,0,0,0-10.72-3.06A7.58,7.58,0,0,0,818.37,592a5.8,5.8,0,0,0,3.51,10.44,5.52,5.52,0,0,0,1.62-.23h0a4.19,4.19,0,0,0,4.19,4.18,4.11,4.11,0,0,0,3.15-1.44,5.81,5.81,0,0,0,9.19-4.77v-.48l.09-.17A6.69,6.69,0,0,0,845.36,593Z"/><path class="cls-13" d="M839.28,589.88c-.94,1.63-.35,3-1.85,3.8-1,.54-1.54.4-2.55.94a18.59,18.59,0,0,0,1.86-6.39c.09-.73-.52-1-.62-.26a9.82,9.82,0,0,1-1.36,4.38,3.56,3.56,0,0,0-.6-.8,3.4,3.4,0,0,1-.85-1.11,7.82,7.82,0,0,1-.42-1.78c-.11-.74-.76-.63-.66.09a8.6,8.6,0,0,0,.66,2.83c.45.72,1.24,1.08,1.24,2.09a6.88,6.88,0,0,1-1.41,2.13,8.44,8.44,0,0,0-1.79,2.84c-.12-.65-.58-1.44-2.31-2.78a11.37,11.37,0,0,1-2.31-2.44,40.05,40.05,0,0,1,1.88-4.36,11.76,11.76,0,0,0,.54-4.37c0-.73-.62-.75-.59,0a10.45,10.45,0,0,1-1.37,5.18,15.3,15.3,0,0,0-1.32,2.88v.09a12.56,12.56,0,0,1-1.39-5.27c0-.73-.82-.53-.74.2a11.84,11.84,0,0,0,1.88,6.6c.3.35,2.3,2.31,2.65,2.76a5.85,5.85,0,0,0-1.65-.45c-2.27-.27-3.06-.76-4.76-2.8-.45-.52-1,0-.52.58,1,1.12,1.63,2.22,2.94,2.64,3.58,1.12,5.88,1.12,5.88,3.86,0,6.58-.23,24.07-.23,24.07H832V601.91a13.31,13.31,0,0,1,2.53-5.69c.91-.94,2.23-.85,3.69-1.89s.81-2.62,1.67-4.09C840.21,589.58,839.63,589.24,839.28,589.88Z"/><path class="cls-11" d="M735.77,409.17a6.68,6.68,0,0,0-5.29-6.53,5.71,5.71,0,0,0,.2-1.54A5.82,5.82,0,0,0,720,398a7.56,7.56,0,0,0-11.16,10.12,5.81,5.81,0,0,0,5.13,10.22h0a4.16,4.16,0,0,0,7.34,2.72,5.73,5.73,0,0,0,3.3,1,5.82,5.82,0,0,0,5.82-5.81v-.49l.09-.15A6.69,6.69,0,0,0,735.77,409.17Z"/><path class="cls-29" d="M735.77,409.17a6.68,6.68,0,0,0-5.29-6.53,5.71,5.71,0,0,0,.2-1.54A5.82,5.82,0,0,0,720,398a7.56,7.56,0,0,0-11.16,10.12,5.81,5.81,0,0,0,5.13,10.22h0a4.16,4.16,0,0,0,7.34,2.72,5.73,5.73,0,0,0,3.3,1,5.82,5.82,0,0,0,5.82-5.81v-.49l.09-.15A6.69,6.69,0,0,0,735.77,409.17Z"/><path class="cls-13" d="M729.69,406c-1,1.62-.37,2.94-1.87,3.78-1,.54-1.53.42-2.53,1a19,19,0,0,0,1.86-6.38c.07-.76-.54-1-.63-.28a9.71,9.71,0,0,1-1.37,4.38,3.48,3.48,0,0,0-.59-.78,4.08,4.08,0,0,1-.86-1.12,7.86,7.86,0,0,1-.4-1.79c-.12-.72-.78-.63-.66.11a8.53,8.53,0,0,0,.65,2.81c.46.72,1.25,1.08,1.24,2.09a6.89,6.89,0,0,1-1.4,2.14,8.4,8.4,0,0,0-1.79,2.83c-.14-.64-.6-1.42-2.33-2.77a11.69,11.69,0,0,1-2.31-2.45,43.13,43.13,0,0,1,1.89-4.36,11.75,11.75,0,0,0,.53-4.37c0-.73-.61-.73-.57,0a10.57,10.57,0,0,1-1.39,5.18,15.59,15.59,0,0,0-1.3,2.89.14.14,0,0,0-.08.09,12.88,12.88,0,0,1-1.41-5.26c0-.74-.79-.55-.73.2.21,2.37.43,4.82,1.88,6.58.29.35,2.3,2.33,2.65,2.76a5.22,5.22,0,0,0-1.65-.43c-2.27-.29-3-.78-4.75-2.82-.46-.52-1,.08-.52.6,1,1.1,1.62,2.22,2.94,2.62,3.58,1.11,5.87,1.11,5.87,3.87-.08,6.57-.22,24.06-.22,24.06h2.47V418a13.37,13.37,0,0,1,2.52-5.68c.94-.95,2.24-.87,3.69-1.9s.82-2.63,1.67-4.1C730.62,405.71,730,405.38,729.69,406Z"/><path class="cls-11" d="M529.21,365.67a6.69,6.69,0,0,0-5.29-6.54,5.69,5.69,0,0,0,.2-1.53,5.82,5.82,0,0,0-10.72-3.07,7.57,7.57,0,0,0-11.16,10.13,5.8,5.8,0,0,0,5.13,10.21h0a4.16,4.16,0,0,0,7.33,2.73,5.81,5.81,0,0,0,9.13-4.77v-.49l.09-.15A6.69,6.69,0,0,0,529.21,365.67Z"/><path class="cls-30" d="M529.21,365.67a6.69,6.69,0,0,0-5.29-6.54,5.69,5.69,0,0,0,.2-1.53,5.82,5.82,0,0,0-10.72-3.07,7.57,7.57,0,0,0-11.16,10.13,5.8,5.8,0,0,0,5.13,10.21h0a4.16,4.16,0,0,0,7.33,2.73,5.81,5.81,0,0,0,9.13-4.77v-.49l.09-.15A6.69,6.69,0,0,0,529.21,365.67Z"/><path class="cls-13" d="M523.13,362.56c-1,1.62-.37,2.94-1.87,3.78-1,.54-1.53.41-2.53,1a18.79,18.79,0,0,0,1.85-6.39c.08-.75-.53-1-.62-.27a9.58,9.58,0,0,1-1.37,4.38,3.48,3.48,0,0,0-.59-.78,3.9,3.9,0,0,1-.86-1.12,7.86,7.86,0,0,1-.4-1.79c-.12-.72-.78-.63-.66.1a8.29,8.29,0,0,0,.65,2.82c.45.72,1.25,1.07,1.24,2.08a6.82,6.82,0,0,1-1.4,2.15,8.3,8.3,0,0,0-1.79,2.83c-.14-.64-.6-1.42-2.33-2.77a11.69,11.69,0,0,1-2.31-2.45,46,46,0,0,1,1.91-4.38,11.53,11.53,0,0,0,.54-4.36c0-.74-.61-.74-.57,0a10.57,10.57,0,0,1-1.39,5.17,15.39,15.39,0,0,0-1.3,2.9.12.12,0,0,0-.08.09,12.93,12.93,0,0,1-1.41-5.27c0-.74-.79-.55-.73.2.21,2.37.43,4.82,1.88,6.58.29.36,2.3,2.33,2.65,2.78a4.77,4.77,0,0,0-1.65-.45c-2.27-.29-3-.78-4.75-2.82-.46-.5-1,.08-.52.6,1,1.1,1.62,2.22,2.94,2.62,3.58,1.12,5.86,1.12,5.86,3.87-.07,6.57-.21,24.06-.21,24.06h2.47V374.56a13.31,13.31,0,0,1,2.52-5.68c.94-.95,2.24-.87,3.69-1.9s.82-2.63,1.67-4.1C524.06,362.28,523.48,361.94,523.13,362.56Z"/><path class="cls-11" d="M575.53,593.85s-11.19-2.13-5.36,9.88c3.07-7.24,6-8.22,6-8.22s2.51,1.34,5.06,8.69c.86-1.25,5.53-10.21-2.29-10.49,6.61-.38,9.37,2.53,9.37,2.53s-1-10-9.19-5.54a15.32,15.32,0,0,1,6.45-4s-7.28-5.14-8.27,3.74c-.57-3.72-1.78-7.58-8.19-4.79a19.27,19.27,0,0,1,5.68,4.76s-11-6.29-10.72,6.31A21.57,21.57,0,0,1,575.53,593.85Z"/><path class="cls-31" d="M575.53,593.85s-11.19-2.13-5.36,9.88c3.07-7.24,6-8.22,6-8.22s2.51,1.34,5.06,8.69c.86-1.25,5.53-10.21-2.29-10.49,6.61-.38,9.37,2.53,9.37,2.53s-1-10-9.19-5.54a15.32,15.32,0,0,1,6.45-4s-7.28-5.14-8.27,3.74c-.57-3.72-1.78-7.58-8.19-4.79a19.27,19.27,0,0,1,5.68,4.76s-11-6.29-10.72,6.31A21.57,21.57,0,0,1,575.53,593.85Z"/><path class="cls-13" d="M573.83,627.33s-.81-22.21,2.22-34.73l1,.15a264.47,264.47,0,0,0-.72,34.59Z"/><path class="cls-31" d="M575.53,593.85s-11.19-2.13-5.36,9.88c3.07-7.24,6-8.22,6-8.22s2.51,1.34,5.06,8.69c.86-1.25,5.53-10.21-2.29-10.49,6.61-.38,9.37,2.53,9.37,2.53s-1-10-9.19-5.54a15.32,15.32,0,0,1,6.45-4s-7.28-5.14-8.27,3.74c-.57-3.72-1.78-7.58-8.19-4.79a19.27,19.27,0,0,1,5.68,4.76s-11-6.29-10.72,6.31A21.57,21.57,0,0,1,575.53,593.85Z"/><path class="cls-11" d="M464,420.78s-11.18-2.13-5.36,9.88c3.06-7.24,6-8.24,6-8.24s2.49,1.36,5,8.72c.87-1.26,5.54-10.22-2.3-10.5,6.63-.39,9.39,2.53,9.39,2.53s-1-10-9.19-5.54a15.21,15.21,0,0,1,6.45-4s-7.27-5.15-8.29,3.73c-.56-3.72-1.77-7.58-8.19-4.79a18.84,18.84,0,0,1,5.68,4.75s-11-6.28-10.72,6.32A21.54,21.54,0,0,1,464,420.78Z"/><path class="cls-32" d="M464,420.78s-11.18-2.13-5.36,9.88c3.06-7.24,6-8.24,6-8.24s2.49,1.36,5,8.72c.87-1.26,5.54-10.22-2.3-10.5,6.63-.39,9.39,2.53,9.39,2.53s-1-10-9.19-5.54a15.21,15.21,0,0,1,6.45-4s-7.27-5.15-8.29,3.73c-.56-3.72-1.77-7.58-8.19-4.79a18.84,18.84,0,0,1,5.68,4.75s-11-6.28-10.72,6.32A21.54,21.54,0,0,1,464,420.78Z"/><path class="cls-13" d="M462.33,454.26s-.8-22.21,2.23-34.73c.4.07.95.13.95.13a262.92,262.92,0,0,0-.72,34.6Z"/><path class="cls-32" d="M464,420.78s-11.18-2.13-5.36,9.88c3.06-7.24,6-8.24,6-8.24s2.49,1.36,5,8.72c.87-1.26,5.54-10.22-2.3-10.5,6.63-.39,9.39,2.53,9.39,2.53s-1-10-9.19-5.54a15.21,15.21,0,0,1,6.45-4s-7.27-5.15-8.29,3.73c-.56-3.72-1.77-7.58-8.19-4.79a18.84,18.84,0,0,1,5.68,4.75s-11-6.28-10.72,6.32A21.54,21.54,0,0,1,464,420.78Z"/><path class="cls-11" d="M422.73,625.11s-11.2-2.13-5.36,9.88c3.06-7.25,6-8.24,6-8.24s2.51,1.34,5.07,8.71c.85-1.26,5.53-10.21-2.3-10.49,6.62-.4,9.37,2.53,9.37,2.53s-1-10-9.19-5.55a15.47,15.47,0,0,1,6.45-4s-7.27-5.14-8.27,3.72c-.57-3.7-1.78-7.65-8.19-4.78a19.39,19.39,0,0,1,5.68,4.75s-11-6.28-10.72,6.33A21.4,21.4,0,0,1,422.73,625.11Z"/><path class="cls-33" d="M422.73,625.11s-11.2-2.13-5.36,9.88c3.06-7.25,6-8.24,6-8.24s2.51,1.34,5.07,8.71c.85-1.26,5.53-10.21-2.3-10.49,6.62-.4,9.37,2.53,9.37,2.53s-1-10-9.19-5.55a15.47,15.47,0,0,1,6.45-4s-7.27-5.14-8.27,3.72c-.57-3.7-1.78-7.65-8.19-4.78a19.39,19.39,0,0,1,5.68,4.75s-11-6.28-10.72,6.33A21.4,21.4,0,0,1,422.73,625.11Z"/><path class="cls-13" d="M421,658.62s-.86-22.21,2.2-34.74c.41.08.95.14.95.14a259.44,259.44,0,0,0-.72,34.6Z"/><path class="cls-33" d="M422.73,625.11s-11.2-2.13-5.36,9.88c3.06-7.25,6-8.24,6-8.24s2.51,1.34,5.07,8.71c.85-1.26,5.53-10.21-2.3-10.49,6.62-.4,9.37,2.53,9.37,2.53s-1-10-9.19-5.55a15.47,15.47,0,0,1,6.45-4s-7.27-5.14-8.27,3.72c-.57-3.7-1.78-7.65-8.19-4.78a19.39,19.39,0,0,1,5.68,4.75s-11-6.28-10.72,6.33A21.4,21.4,0,0,1,422.73,625.11Z"/><polyline class="cls-34" points="204.99 675.8 258.34 675.8 258.34 649.11"/><polygon class="cls-35" points="258.34 646.39 259.9 650.21 258.34 649.3 256.79 650.21 258.34 646.39"/><polyline class="cls-34" points="144.51 675.8 93.71 675.8 93.71 649.11"/><polygon class="cls-35" points="93.71 646.39 95.27 650.21 93.71 649.3 92.16 650.21 93.71 646.39"/><path class="cls-36" d="M172.24,269.09c31.8.8,65.85,16.6,97,4.51,27-10.49,40.49-41.63,71.07-45.78,12.51-1.68,20.55,3.8,31.05,9.19,14,7.2,29.09-1.1,43.64,5.16,16.72,7.15,30.94,15,49.74,16.45,18.53,1.53,35.78-2.24,52.67-9.19,10.06-4.15,18.82-7.84,29.54-3.74,7.58,2.88,14.1,5.65,22.28,6.82,9,1.27,18.09,1.87,27.12,2.82a191.09,191.09,0,0,1,44.13,10.3c10.44,3.65,20.72,6.13,31.16,1.23,5.56-2.61,10.57-6.28,16.45-8.27,8.11-2.77,13.25-.77,19.54,4.29,7.66,6.12,12.25,8.5,22.48,6.46,5.79-1.13,11.39-3.06,17.18-4.14,23.76-4.71,50.33,5.59,71.83,14,19.33,7.55,45,21.44,75.9,21.44V51H90.77L87.05,300.64c32.77-9.68,41.35-20.6,45.94-23A81.06,81.06,0,0,1,172.24,269.09Z"/><path class="cls-37" d="M636.38,178.48a13.62,13.62,0,0,1,2.14-11.86,14,14,0,1,0,17.28,20.19A13.63,13.63,0,0,1,637.4,181,12.9,12.9,0,0,1,636.38,178.48Z"/><path class="cls-38" d="M87.84,303.14c28.6-7.46,48.31-30.63,79.47-31.46,28.23-.67,55.41,10.72,83.69,8.61,28.81-2.22,42.66-22.27,63.48-38,7.2-5.44,15.69-10.19,24.89-11.73,10.86-1.84,18.82,2,27.73,7,4.86,2.71,9.67,5.45,15.43,5.92,9,.75,17-3.43,26.17-1,8.3,2.22,15.53,7.56,23.37,10.84A104.51,104.51,0,0,0,449.85,259a110.39,110.39,0,0,0,41,1.2c13.5-2.15,24.58-8.3,37.39-12.26,10.56-3.24,16.64.25,26.2,3.83a80.09,80.09,0,0,0,18.38,3.79c16.75,2.06,33.9,2.35,50.23,6.81,13.14,3.6,27.21,12.25,41.45,9.77,13.79-2.45,26-19.17,40.19-8.33,7,5.38,11.13,10,20.75,9,15.09-1.64,27.17-7,42.88-5.24,16.36,1.84,32,7.14,47.14,13,27.89,10.72,55.13,22.87,85.88,22.35a1.32,1.32,0,0,0,.29-2.62h-.29c-29.4.5-55.5-10.72-82.08-21.06-21.44-8.41-48.08-18.71-71.83-14-5.79,1.15-11.39,3.07-17.18,4.14-10.26,2-14.78-.29-22.48-6.47-6.3-5-11.43-7-19.54-4.28-5.88,2-10.89,5.66-16.45,8.27-10.45,4.9-20.72,2.42-31.17-1.23a191.09,191.09,0,0,0-44.32-10.29c-9-.95-18.13-1.53-27.12-2.82-8.18-1.16-14.7-3.93-22.28-6.81-10.72-4.11-19.48-.42-29.54,3.73-16.85,7-34.14,10.72-52.67,9.19-18.8-1.53-33-9.29-49.74-16.44-14.61-6.27-29.62,2-43.65-5.17-10.49-5.37-18.53-10.85-31-9.18-30.63,4.15-44.1,35.22-71.07,45.77-31.08,12.1-65.17-3.71-97-4.5a80.86,80.86,0,0,0-39.2,8.64c-15.42,7.74-28.87,18.37-45.95,23a1.3,1.3,0,0,0-.88,1.62,1.31,1.31,0,0,0,1.62.89h0Z"/><path class="cls-11" d="M556.25,187.68a7.17,7.17,0,0,1-2-1.27l-.09-.09h-.09l-.08-.09-.08-.09a7.26,7.26,0,0,1-1.28-2,.23.23,0,0,0-.22-.15.25.25,0,0,0-.23.15,7.22,7.22,0,0,1-1.27,2l-.09.09-.08.09h-.09a7.29,7.29,0,0,1-2,1.29.23.23,0,0,0-.16.21.25.25,0,0,0,.16.23,7.17,7.17,0,0,1,2,1.27l.09.09h.09l.08.09.09.1a7.17,7.17,0,0,1,1.27,2,.24.24,0,0,0,.23.13.2.2,0,0,0,.21-.13,7.44,7.44,0,0,1,1.28-2l.09-.1.07-.09h.1l.07-.09a7.94,7.94,0,0,1,2-1.27.25.25,0,0,0,.15-.23A.23.23,0,0,0,556.25,187.68Z"/><path class="cls-11" d="M270.9,147.7a7.44,7.44,0,0,1-2-1.28l-.09-.09a.28.28,0,0,1-.1-.09h-.07l-.09-.17a7.24,7.24,0,0,1-1.29-2,.23.23,0,0,0-.22-.15.25.25,0,0,0-.23.15,7.17,7.17,0,0,1-1.27,2l-.09.09-.07.1-.1.07h0a7.29,7.29,0,0,1-2,1.29.2.2,0,0,0-.14.21.24.24,0,0,0,.14.23,7.17,7.17,0,0,1,2,1.27l.09.08.09.09.09.09h.08a7.43,7.43,0,0,1,1.27,2,.25.25,0,0,0,.23.14.26.26,0,0,0,.22-.14,7.17,7.17,0,0,1,1.27-2l.09-.09.07-.11h.1l.09-.08a7.66,7.66,0,0,1,2-1.27.25.25,0,0,0,.15-.23A.21.21,0,0,0,270.9,147.7Z"/><path class="cls-11" d="M387.2,198.26a5.62,5.62,0,0,1-1.54-1l-.07-.07h0v-.08h0a6,6,0,0,1-1-1.53.15.15,0,0,0-.17-.12.18.18,0,0,0-.18.12,5.57,5.57,0,0,1-1,1.53v.08h0a5.6,5.6,0,0,1-1.53,1,.21.21,0,0,0-.11.19.2.2,0,0,0,.11.17,5.57,5.57,0,0,1,1.53,1v.07h.08v.08h0a6.07,6.07,0,0,1,1,1.53.2.2,0,0,0,.18.12.15.15,0,0,0,.17-.12,6.1,6.1,0,0,1,1-1.53h0v-.08h0a5.66,5.66,0,0,1,1.54-1,.19.19,0,0,0,.12-.17A.21.21,0,0,0,387.2,198.26Z"/><path class="cls-11" d="M178.52,219.51a5.88,5.88,0,0,1-1.53-1h-.08v-.08h0a5.46,5.46,0,0,1-1-1.53.18.18,0,0,0-.17-.12.2.2,0,0,0-.18.12,5.84,5.84,0,0,1-1,1.53h0v.08h0a6.14,6.14,0,0,1-1.53,1,.14.14,0,0,0-.1.16.23.23,0,0,0,.1.19,5.57,5.57,0,0,1,1.53,1h0v.07a5.89,5.89,0,0,1,1,1.54.2.2,0,0,0,.18.12.18.18,0,0,0,.17-.12,5.62,5.62,0,0,1,1-1.54l.07-.07h0a5.62,5.62,0,0,1,1.54-1,.21.21,0,0,0,.12-.19A.16.16,0,0,0,178.52,219.51Z"/><path class="cls-11" d="M823.73,137.24a6.25,6.25,0,0,1-1.53-1h-.07v-.08h0a5.57,5.57,0,0,1-1-1.53.22.22,0,0,0-.19-.13.23.23,0,0,0-.17.13,5.84,5.84,0,0,1-1,1.53h0v.08h0a6,6,0,0,1-1.53,1,.18.18,0,0,0,0,.35,6.25,6.25,0,0,1,1.53,1l.07.08h0a5.64,5.64,0,0,1,1,1.53.18.18,0,0,0,.17.11.21.21,0,0,0,.18-.11,5.81,5.81,0,0,1,1-1.53h.08a5.88,5.88,0,0,1,1.53-1,.19.19,0,0,0,.11-.18.19.19,0,0,0-.11-.23A.11.11,0,0,0,823.73,137.24Z"/><path class="cls-11" d="M520.91,114.62a6.31,6.31,0,0,1-1.54-1h-.15v-.08a5.57,5.57,0,0,1-1-1.53.21.21,0,0,0-.18-.11.18.18,0,0,0-.17.11,6,6,0,0,1-1,1.53v.08h-.15a6.07,6.07,0,0,1-1.53,1,.19.19,0,0,0,0,.35,5.57,5.57,0,0,1,1.53,1h.15a6,6,0,0,1,1,1.53.15.15,0,0,0,.17.12.18.18,0,0,0,.18-.12,5.57,5.57,0,0,1,1-1.53h.15a5.54,5.54,0,0,1,1.54-1,.17.17,0,0,0,.12-.16A.2.2,0,0,0,520.91,114.62Z"/><path class="cls-11" d="M739.73,229.09a6.44,6.44,0,0,1-1.53-1l-.07-.08h0v-.07a5.64,5.64,0,0,1-1-1.53.19.19,0,0,0-.18-.13.18.18,0,0,0-.17.13,6.25,6.25,0,0,1-1,1.53V228h-.08a5.64,5.64,0,0,1-1.53,1,.2.2,0,0,0-.12.18.17.17,0,0,0,.12.17,6.07,6.07,0,0,1,1.53,1h.15v.08h0a5.64,5.64,0,0,1,1,1.53.19.19,0,0,0,.35,0,6.07,6.07,0,0,1,1-1.53l.08-.08v-.07h.08a5.88,5.88,0,0,1,1.53-1,.17.17,0,0,0,.1-.17A.21.21,0,0,0,739.73,229.09Z"/><path class="cls-11" d="M485.73,301.18a4.47,4.47,0,0,1-1.2-.77h-.09a5.1,5.1,0,0,1-.79-1.22.63.63,0,0,0-.6-.4.64.64,0,0,0-.6.4,4.38,4.38,0,0,1-.76,1.19v.09h-.08a4,4,0,0,1-1.23.78.66.66,0,0,0,0,1.21,4.23,4.23,0,0,1,1.21.77h.1a4.4,4.4,0,0,1,.78,1.21.64.64,0,0,0,.59.4h0a.63.63,0,0,0,.6-.4,5.45,5.45,0,0,1,.77-1.2l.09-.09h0a4.87,4.87,0,0,1,1.22-.78.65.65,0,0,0,.35-.86.67.67,0,0,0-.35-.35Z"/></g><g id="Icons"><circle class="cls-39" cx="844.75" cy="532.9" r="14.04"/><polygon class="cls-40" points="851.28 530.97 846.69 530.97 846.69 526.36 842.82 526.36 842.82 530.97 838.21 530.97 838.21 534.85 842.82 534.85 842.82 539.44 846.69 539.44 846.69 534.85 851.28 534.85 851.28 530.97"/><circle class="cls-39" cx="390.69" cy="697.24" r="14.04"/><polygon class="cls-40" points="397.23 695.29 392.62 695.29 392.62 690.7 388.74 690.7 388.74 695.29 384.15 695.29 384.15 699.17 388.74 699.17 388.74 703.78 392.62 703.78 392.62 699.17 397.23 699.17 397.23 695.29"/><circle class="cls-22" cx="192.96" cy="499.59" r="14.04"/><path class="cls-11" d="M182.29,495.7h1.53l2,6.13,2-6.13h1.24l2,6.13,2-6.13h1.53l-2.83,8.42h-1.27l-2.05-6-2.06,6H185.2Z"/><path class="cls-11" d="M195.4,499.9h0a4.22,4.22,0,0,1,4.1-4.35h.14a4.29,4.29,0,0,1,3.26,1.3l-1,1.09a3.22,3.22,0,0,0-2.33-1,2.79,2.79,0,0,0-2.75,2.84v.1h0a2.82,2.82,0,0,0,2.67,3h.08a3.27,3.27,0,0,0,2.39-1.07l1,.95a4.31,4.31,0,0,1-3.38,1.53A4.19,4.19,0,0,1,195.4,500Z"/><circle class="cls-22" cx="525.23" cy="549.79" r="14.04"/><path class="cls-11" d="M514.55,545.89h1.53l2,6.12,2.06-6.2h1.24l2,6.2,2-6.12h1.53l-2.89,8.4h-1.28l-2-6-2.05,6h-1.26Z"/><path class="cls-11" d="M527.64,550.07h0a4.23,4.23,0,0,1,4.14-4.32H532a4.4,4.4,0,0,1,3.28,1.3l-1,1.09a3.26,3.26,0,0,0-2.33-1,2.79,2.79,0,0,0-2.76,2.84v.1h0a2.82,2.82,0,0,0,2.68,3H532a3.31,3.31,0,0,0,2.39-1.07l.95,1a4.38,4.38,0,0,1-3.39,1.53,4.22,4.22,0,0,1-4.26-4.16Z"/><polyline class="cls-41" points="942.12 474.28 942.12 475.81 940.58 475.81"/><line class="cls-42" x1="937.63" y1="475.81" x2="868.18" y2="475.81"/><polyline class="cls-41" points="866.69 475.81 865.16 475.81 865.16 474.28"/><line class="cls-43" x1="865.16" y1="471.2" x2="865.16" y2="405.13"/><polyline class="cls-41" points="865.16 403.58 865.16 402.05 866.69 402.05"/><line class="cls-42" x1="869.65" y1="402.05" x2="939.11" y2="402.05"/><polyline class="cls-41" points="940.58 402.05 942.12 402.05 942.12 403.58"/><line class="cls-43" x1="942.11" y1="406.66" x2="942.11" y2="472.73"/><circle class="cls-35" cx="903.64" cy="428.38" r="14.04"/><path class="cls-11" d="M912.28,427.55c-.21-.83-.37-1.38-1.31-1.28a.48.48,0,0,1-.53-.37c-.32-.95-.72-1.89-1-2.84a2.15,2.15,0,0,0-1.7-1.53c-.51-.1-7.66-.1-8.16,0a2.14,2.14,0,0,0-1.7,1.53c-.31.95-.69,1.89-1,2.84-.09.26-.21.4-.52.37-.95-.1-1.1.45-1.32,1.28a.39.39,0,0,0,.4.45H896a47.6,47.6,0,0,0-.15,6.32c0,.35.2.64.44.64h2.59c.71-.41.29-1.14.48-1.71h8.56c.2.57-.23,1.3.47,1.71H911c.25,0,.44-.29.44-.64a44.44,44.44,0,0,0-.15-6.32h.61C912.16,427.93,912.36,427.78,912.28,427.55Zm-12.46,3.06a5.89,5.89,0,0,1-1,.11H897.7c-1-.15-1.13-.38-1-1.33a.54.54,0,0,1,.65-.57,6.2,6.2,0,0,1,2.68,1,.44.44,0,0,1,0,.63A.41.41,0,0,1,899.82,430.61ZM898,426.5c.37-1.08.73-2,1-3.07.16-.5.49-1,1.77-1h5.83c1.27,0,1.53.49,1.76,1,.29,1,.66,1.95,1,3.07A27.09,27.09,0,0,1,898,426.5Zm11.64,4.1h-1.09a6,6,0,0,1-1-.11.43.43,0,0,1-.41-.47.43.43,0,0,1,.21-.35,6.08,6.08,0,0,1,2.68-1,.57.57,0,0,1,.65.57c.07,1-.09,1.24-1.06,1.4Z"/><polyline class="cls-41" points="680.27 765.63 680.27 767.16 678.74 767.16"/><line class="cls-42" x1="675.78" y1="767.16" x2="606.32" y2="767.16"/><polyline class="cls-41" points="604.85 767.16 603.31 767.16 603.31 765.63"/><line class="cls-43" x1="603.31" y1="762.55" x2="603.31" y2="696.49"/><polyline class="cls-41" points="603.31 694.94 603.31 693.41 604.85 693.41"/><line class="cls-42" x1="607.8" y1="693.41" x2="677.25" y2="693.41"/><polyline class="cls-41" points="678.74 693.41 680.27 693.41 680.27 694.94"/><line class="cls-43" x1="680.27" y1="698.02" x2="680.27" y2="764.09"/><circle class="cls-35" cx="641.78" cy="719.74" r="14.04"/><path class="cls-11" d="M650.44,718.86c-.22-.82-.37-1.38-1.32-1.28a.46.46,0,0,1-.52-.37c-.34-1-.72-1.87-1-2.83a2.18,2.18,0,0,0-1.7-1.54c-.52-.1-7.66-.1-8.16,0a2.2,2.2,0,0,0-1.72,1.54c-.29,1-.68,1.88-1,2.83-.1.26-.23.4-.53.37-1-.1-1.1.46-1.32,1.28a.4.4,0,0,0,.4.45h.63a43,43,0,0,0-.16,6.32c0,.35.2.65.43.65H637c.7-.42.27-1.15.47-1.72h8.56c.19.57-.24,1.3.46,1.72h2.6c.23,0,.43-.3.43-.65a46,46,0,0,0-.13-6.32H650C650.31,719.29,650.51,719.14,650.44,718.86ZM638,721.93a8.76,8.76,0,0,1-1,.09h-1.1c-1-.16-1.12-.39-1-1.33a.53.53,0,0,1,.64-.57,6.31,6.31,0,0,1,2.68,1,.47.47,0,0,1,0,.65.52.52,0,0,1-.22.14Zm-1.87-4.08c.37-1.07.72-2,1-3.06.14-.51.49-1,1.76-1h5.83c1.26,0,1.61.49,1.76,1,.3,1,.65,1.94,1,3.06A26.72,26.72,0,0,1,636.1,717.85ZM647.74,722h-1.1a8.43,8.43,0,0,1-1-.1.45.45,0,0,1-.42-.49.46.46,0,0,1,.2-.35,6.26,6.26,0,0,1,2.7-1,.56.56,0,0,1,.63.56c.1,1,0,1.24-1,1.4Z"/><circle class="cls-44" cx="478.23" cy="445.21" r="8.64"/><path d="M483.54,444.67c-.12-.5-.22-.85-.81-.79-.19,0-.26,0-.32-.23-.2-.58-.43-1.15-.63-1.75a1.31,1.31,0,0,0-1-1h-5a1.3,1.3,0,0,0-1,1c-.19.6-.43,1.17-.63,1.75,0,.17-.14.24-.32.23-.58,0-.68.29-.81.79a.24.24,0,0,0,.24.28h.38a25.25,25.25,0,0,0-.09,3.89c0,.21.12.4.26.4h1.61c.43-.26.17-.72.29-1.06h5.27c.11.34-.15.8.29,1.06h1.53c.15,0,.28-.19.28-.4a31.53,31.53,0,0,0-.09-3.89h.36C483.46,444.93,483.59,444.84,483.54,444.67Zm-7.66,1.89h-1.3c-.6-.09-.69-.23-.61-.83a.31.31,0,0,1,.38-.34A3.78,3.78,0,0,1,476,446a.28.28,0,0,1,.2.34.27.27,0,0,1-.33.2Zm-1.15-2.51c.22-.66.45-1.26.63-1.86.09-.3.31-.61,1.07-.61H480c.78,0,1,.31,1.09.61.18.6.4,1.2.63,1.86a17.34,17.34,0,0,1-7,0Zm7.17,2.52h-.69a3.32,3.32,0,0,1-.63,0,.29.29,0,0,1-.23-.33.29.29,0,0,1,.11-.19,3.78,3.78,0,0,1,1.65-.63.35.35,0,0,1,.4.34c.06.58,0,.72-.62.81Z"/><path class="cls-40" d="M477.6,436.59a8.63,8.63,0,1,0,9.19,8v-.05A8.64,8.64,0,0,0,477.6,436.59Zm1.12,15.54a6.83,6.83,0,0,1-3.91-.89l7.76-11.42a6.92,6.92,0,0,1-3.85,12.25ZM481,438.87l-7.65,11.29a6.94,6.94,0,0,1,4.35-11.87,6.69,6.69,0,0,1,3.3.58Z"/><circle class="cls-44" cx="609.19" cy="620.45" r="8.64"/><path d="M614.52,619.92c-.12-.51-.23-.85-.81-.8-.18,0-.26,0-.32-.23-.2-.58-.44-1.15-.63-1.73a1.32,1.32,0,0,0-1-1h-5a1.34,1.34,0,0,0-1,1c-.18.58-.43,1.15-.63,1.73,0,.17-.13.26-.32.23-.6,0-.69.29-.81.8a.24.24,0,0,0,.25.27h.36a28.1,28.1,0,0,0-.07,3.89c0,.22.12.4.26.4h1.53c.44-.26.18-.7.29-1.06h5.28c.11.36-.15.8.28,1.06h1.61c.13,0,.26-.18.26-.4a25.25,25.25,0,0,0-.1-3.89h.39C614.45,620.18,614.57,620.08,614.52,619.92Zm-7.65,1.88h-1.31c-.59-.09-.68-.23-.62-.81a.32.32,0,0,1,.39-.35,3.76,3.76,0,0,1,1.66.62.31.31,0,0,1,.09.41.34.34,0,0,1-.23.13Zm-1.17-2.51c.23-.66.45-1.26.63-1.85.09-.31.31-.62,1.09-.62H611c.78,0,1,.31,1.08.62.17.59.4,1.19.63,1.85A16.34,16.34,0,0,1,605.7,619.29Zm7.17,2.53h-1.3a.29.29,0,0,1-.24-.34.3.3,0,0,1,.12-.19,3.77,3.77,0,0,1,1.65-.62c.24,0,.37.1.38.35.06.57,0,.7-.63.8Z"/><path class="cls-40" d="M608.54,611.83a8.64,8.64,0,1,0,9.19,8v0A8.66,8.66,0,0,0,608.54,611.83Zm1.11,15.54a7,7,0,0,1-3.92-.87l7.78-11.44a6.92,6.92,0,0,1-3.86,12.25ZM612,614.11l-7.66,11.29A6.94,6.94,0,0,1,612,614.11Z"/><circle class="cls-44" cx="435.85" cy="703.06" r="8.64"/><path d="M441.18,702.52c-.14-.5-.23-.84-.81-.79a.27.27,0,0,1-.32-.19v0c-.22-.59-.45-1.15-.63-1.75a1.34,1.34,0,0,0-1.06-1h-5a1.31,1.31,0,0,0-1.06,1c-.18.6-.43,1.16-.63,1.75,0,.16-.13.24-.32.23-.58,0-.67.29-.81.79a.25.25,0,0,0,.25.28h.38a28,28,0,0,0-.09,3.89c0,.21.12.4.26.4h1.61c.42-.26.16-.72.29-1.06h5.33c.12.34-.16.8.29,1.06h1.53c.15,0,.27-.19.27-.4a28,28,0,0,0-.09-3.89h.38C441.09,702.78,441.21,702.69,441.18,702.52Zm-7.66,1.89h-1.3c-.6-.1-.69-.23-.61-.83a.31.31,0,0,1,.38-.34,3.78,3.78,0,0,1,1.65.63.28.28,0,0,1,.2.34.29.29,0,0,1-.35.2Zm-1.15-2.52c.22-.65.45-1.25.63-1.85.09-.3.31-.61,1.09-.61h3.58c.78,0,1,.31,1.09.61.18.6.4,1.2.63,1.85A16,16,0,0,1,432.37,701.89Zm7.17,2.53a4,4,0,0,1-.69,0h-.63a.29.29,0,0,1-.23-.34.29.29,0,0,1,.11-.18,3.78,3.78,0,0,1,1.66-.63.34.34,0,0,1,.39.34c.05.58-.07.72-.64.81Z"/><path class="cls-40" d="M435.22,694.44a8.63,8.63,0,1,0,9.19,8v-.05A8.65,8.65,0,0,0,435.22,694.44ZM436.36,710a6.75,6.75,0,0,1-3.93-.89l7.77-11.42a6.84,6.84,0,0,1,2.57,4.88,6.94,6.94,0,0,1-6.41,7.43Zm2.31-13.26L431,708a6.93,6.93,0,0,1,4.35-11.86,6.74,6.74,0,0,1,3.31.58Z"/><circle class="cls-44" cx="767.81" cy="612.72" r="8.64"/><path d="M773.14,612.17c-.14-.51-.23-.85-.82-.78-.18,0-.26,0-.32-.23-.2-.59-.44-1.17-.63-1.75a1.35,1.35,0,0,0-1-1h-5a1.37,1.37,0,0,0-1,1c-.2.58-.43,1.16-.64,1.75a.25.25,0,0,1-.28.23h0c-.58,0-.68.27-.8.78,0,.18.08.27.23.27h.38a31.63,31.63,0,0,0-.09,3.89c0,.23.12.4.28.4h1.53c.44-.24.17-.7.29-1.06h5.27c.12.36-.14.82.29,1.06h1.53c.14,0,.26-.17.26-.4a25.31,25.31,0,0,0-.09-3.89h.38C773.06,612.44,773.18,612.35,773.14,612.17Zm-7.66,1.88h-1.32c-.58-.08-.69-.23-.61-.81,0-.25.15-.37.4-.35a3.8,3.8,0,0,1,1.65.64.29.29,0,0,1-.14.52Zm-1.17-2.51c.23-.66.45-1.24.63-1.85.09-.31.31-.62,1.09-.62h3.6c.76,0,1,.31,1.07.62.18.61.41,1.19.63,1.85a16.45,16.45,0,0,1-7,0Zm7.17,2.53h-1.3a.27.27,0,0,1-.12-.51,3.8,3.8,0,0,1,1.65-.64c.25,0,.35.1.38.35.07.57,0,.72-.62.8Z"/><path class="cls-40" d="M767.18,604.1a8.63,8.63,0,1,0,9.19,8v0A8.65,8.65,0,0,0,767.18,604.1Zm1.13,15.54a6.72,6.72,0,0,1-3.92-.89l7.78-11.44a7,7,0,0,1-3.86,12.33Zm2.33-13.26L763,617.67a6.94,6.94,0,0,1,7.66-11.29Z"/><circle class="cls-44" cx="801.11" cy="418.18" r="8.64"/><path d="M806.44,417.64c-.13-.5-.23-.84-.81-.78-.18,0-.26,0-.32-.24-.2-.58-.44-1.15-.63-1.73a1.32,1.32,0,0,0-1-1h-5a1.34,1.34,0,0,0-1,1c-.2.58-.43,1.15-.63,1.73,0,.17-.13.26-.33.24-.59,0-.68.28-.8.78a.25.25,0,0,0,.23.28h.38a31.53,31.53,0,0,0-.09,3.89c0,.21.12.4.28.4h1.53c.44-.26.17-.71.29-1.06h5.27c.12.35-.14.8.29,1.06h1.53c.14,0,.26-.19.26-.4a25.25,25.25,0,0,0-.09-3.89h.38C806.37,417.9,806.49,417.81,806.44,417.64Zm-7.65,1.89q-.31,0-.63,0h-.69c-.58-.09-.69-.23-.61-.81,0-.25.15-.37.4-.36a3.7,3.7,0,0,1,1.65.65.29.29,0,0,1-.14.52ZM797.62,417c.23-.66.45-1.26.63-1.86.09-.3.31-.61,1.09-.61h3.6c.76,0,1,.31,1.07.61.18.6.41,1.2.63,1.86a16.45,16.45,0,0,1-7,0Zm7.17,2.52h-.67a3.31,3.31,0,0,1-.63,0,.27.27,0,0,1-.12-.5,3.7,3.7,0,0,1,1.65-.65c.24,0,.35.11.38.36.06.56,0,.7-.63.79Z"/><path class="cls-40" d="M800.5,409.56a8.63,8.63,0,1,0,9.19,8v0A8.66,8.66,0,0,0,800.5,409.56Zm1.12,15.56a7,7,0,0,1-3.92-.89l7.78-11.44a7,7,0,0,1-3.86,12.33ZM804,411.84l-7.66,11.3a6.93,6.93,0,0,1,4.37-11.88A7.17,7.17,0,0,1,804,411.84Z"/><circle class="cls-44" cx="158.61" cy="674.53" r="8.64"/><path d="M163.94,674c-.14-.5-.23-.84-.81-.79-.2,0-.28,0-.32-.23-.22-.59-.45-1.15-.63-1.73a1.41,1.41,0,0,0-1.06-1h-5a1.36,1.36,0,0,0-1.06,1c-.18.58-.42,1.14-.62,1.73a.25.25,0,0,1-.32.23c-.59,0-.68.29-.82.79,0,.17,0,.26.25.28h.38a28,28,0,0,0-.09,3.89c0,.21.12.4.26.4h1.53c.43-.27.17-.71.29-1.06h5.27c.12.35-.14.79.29,1.06H163c.16,0,.28-.19.28-.4a31.53,31.53,0,0,0-.09-3.89h.38C163.87,674.25,164,674.11,163.94,674Zm-7.65,1.89H155c-.58-.1-.69-.23-.61-.82a.32.32,0,0,1,.4-.35,3.75,3.75,0,0,1,1.64.63.28.28,0,0,1,.19.34.29.29,0,0,1-.35.2Zm-1.15-2.52c.21-.65.44-1.25.62-1.85.1-.31.31-.61,1.09-.61h3.59c.78,0,1,.3,1.08.61.19.6.4,1.2.63,1.85A16.25,16.25,0,0,1,155.14,673.36Zm7.16,2.53H161a.29.29,0,0,1-.25-.33.31.31,0,0,1,.11-.19,3.82,3.82,0,0,1,1.66-.63.36.36,0,0,1,.4.35c0,.56,0,.71-.65.8Z"/><path class="cls-40" d="M158,665.91a8.63,8.63,0,1,0,9.19,8v-.05A8.66,8.66,0,0,0,158,665.91Zm1.13,15.54a7,7,0,0,1-3.92-.87L163,669.14a6.83,6.83,0,0,1,2.58,4.88,6.94,6.94,0,0,1-6.42,7.43Zm2.31-13.26-7.66,11.3a6.94,6.94,0,0,1,7.66-11.3Z"/><rect class="cls-22" x="191.94" y="531.05" width="28.07" height="28.07"/><path class="cls-11" d="M210.19,538.43l-7.66,2v8.26A2.35,2.35,0,0,0,201,549c-.95.52-1.39,1.46-1,2.13a1.28,1.28,0,0,0,1.18.61,2.46,2.46,0,0,0,1.16-.32,2.24,2.24,0,0,0,1.16-1.62V543l5.87-1.41V547a2.52,2.52,0,0,0-2.51,1.23,1.24,1.24,0,0,0,0,1.18,1.22,1.22,0,0,0,1,.6,2.33,2.33,0,0,0,1.34-.31,2.25,2.25,0,0,0,1.15-1.53Z"/><rect class="cls-22" x="585.03" y="492.98" width="28.07" height="28.07"/><path class="cls-11" d="M603.28,500.36l-7.73,2v8.27a2.27,2.27,0,0,0-1.53.28c-.95.52-1.4,1.45-1,2.13a1.34,1.34,0,0,0,1.2.61,2.53,2.53,0,0,0,1.16-.32,2.29,2.29,0,0,0,1.15-1.62v-6.87l5.86-1.4v5.46a2.47,2.47,0,0,0-2.51,1.23,1.24,1.24,0,0,0,0,1.18,1.22,1.22,0,0,0,1,.59,2.38,2.38,0,0,0,2.48-1.83Z"/><rect class="cls-22" x="198.11" y="574.59" width="28.07" height="28.07"/><path class="cls-11" d="M218.28,584.49h-2.44c-.46,0-.67-.13-1.25-1.1s-.88-1-1.53-1h-1.77c-.58,0-.9,0-1.53,1s-.78,1.1-1.25,1.1h-2.44a1.67,1.67,0,0,0-1.65,1.66v6.37a1.66,1.66,0,0,0,1.65,1.65h12.09a1.66,1.66,0,0,0,1.66-1.65v-6.37A1.67,1.67,0,0,0,218.28,584.49Zm-6,8.15a3.28,3.28,0,1,1,3.27-3.29v0a3.26,3.26,0,0,1-3.27,3.26Zm5.75-5.39a.87.87,0,1,1,0-1.74.86.86,0,0,1,.88.85v0a.86.86,0,0,1-.82.87Z"/><rect class="cls-22" x="430.44" y="457.74" width="28.07" height="28.07"/><path class="cls-11" d="M450.63,467.64h-2.44c-.46,0-.67-.13-1.25-1.1s-.88-1-1.53-1h-1.76c-.59,0-.91,0-1.54,1s-.78,1.1-1.25,1.1h-2.31a1.68,1.68,0,0,0-1.66,1.66v6.37a1.65,1.65,0,0,0,1.66,1.65h12.08a1.65,1.65,0,0,0,1.67-1.63V469.3A1.68,1.68,0,0,0,450.63,467.64Zm-6,8.15a3.28,3.28,0,1,1,3.26-3.29v0a3.26,3.26,0,0,1-3.26,3.26Zm5.67-5.36a.88.88,0,0,1-.88-.87h0a.88.88,0,0,1,1.74,0A.88.88,0,0,1,450.34,470.43Z"/><rect class="cls-22" x="663.21" y="438.33" width="28.07" height="28.07"/><path class="cls-11" d="M683.39,448.24H681c-.46,0-.68-.14-1.26-1.1s-.87-.95-1.53-.95h-1.76c-.58,0-.92,0-1.53.95s-.8,1.1-1.26,1.1h-2.3a1.65,1.65,0,0,0-1.65,1.66v6.37a1.65,1.65,0,0,0,1.65,1.65h12.09a1.65,1.65,0,0,0,1.65-1.65V449.9a1.65,1.65,0,0,0-1.65-1.66Zm-6,8.15a3.27,3.27,0,1,1,3.26-3.26,3.26,3.26,0,0,1-3.26,3.26Zm5.73-5.39a.88.88,0,1,1,.87-.87.86.86,0,0,1-.84.87Z"/><path class="cls-45" d="M424.76,519l14.06,50.54a.72.72,0,0,0,.6.82h0L476.57,575a.75.75,0,0,0,.83-.66l27.1-45c0-.21-12.58-14.32-38.28-17.49S424.76,519,424.76,519Z"/><path class="cls-46" d="M437.92,569.79v.09l-3.37,27.57a.77.77,0,0,0,.67.87l38.72,4.75a.79.79,0,0,0,.87-.67l3.38-27.57a.79.79,0,0,0-.68-.87l-38.72-4.77h0a1.31,1.31,0,0,0-.28,0h-.21l-.12.1-.09.1a.57.57,0,0,0-.08.13A.62.62,0,0,0,437.92,569.79Z"/><path class="cls-11" d="M461.07,580.11l-7.65,2v8.27a2.19,2.19,0,0,0-1.54.28c-.95.5-1.39,1.53-1,2.13a1.31,1.31,0,0,0,1.19.61,2.53,2.53,0,0,0,1.17-.32,2.32,2.32,0,0,0,1.15-1.63v-6.86l5.86-1.41v5.47a2.16,2.16,0,0,0-1.53.28,2.28,2.28,0,0,0-1,.95,1.17,1.17,0,0,0,0,1.17,1.26,1.26,0,0,0,1,.6,2.48,2.48,0,0,0,1.33-.3,2.29,2.29,0,0,0,1.15-1.54Z"/><path class="cls-47" d="M726.59,531.93,767.81,510a.67.67,0,0,0,.59-.74l-3.21-33.06a.67.67,0,0,0-.72-.6h0l-44.31-14.82c-.2,0-10,13.67-7.76,36.65S726.58,531.93,726.59,531.93Z"/><path class="cls-22" d="M768.13,510.72h.07l24.51-2.37a.71.71,0,0,0,.62-.77L790,473.08a.67.67,0,0,0-.71-.63h0l-24.5,2.38a.72.72,0,0,0-.63.76l3.35,34.51h0a.53.53,0,0,0,.08.24h0l.09.09h.25Z"/><path class="cls-11" d="M784,484.92,776.21,487v8.27a2.34,2.34,0,0,0-1.53.26c-.95.52-1.39,1.46-1,2.15a1.29,1.29,0,0,0,1.19.59,2.44,2.44,0,0,0,1.16-.3,2.29,2.29,0,0,0,1.15-1.63v-6.87L783,488v5.48a2.32,2.32,0,0,0-1.53.26,2.46,2.46,0,0,0-1,1,1.19,1.19,0,0,0,1,1.79,2.54,2.54,0,0,0,1.32-.3,2.31,2.31,0,0,0,1.14-1.54Z"/><path class="cls-35" d="M90.74,71.35C85.06,78.11,92.56,60.08,87,55.41s-22.13,5.81-16.4-1,45.84-34.19,45.84-34.19S96.41,64.6,90.74,71.35Z"/><circle class="cls-48" cx="80.28" cy="63.8" r="16.36"/><path class="cls-35" d="M78.3,55h3.07l.2,8.88L83.45,55h2.94l-4,18.78H79.36l-.18-8.53-1.86,8.53H74.26Z"/></g><g id="type_vectorized" data-name="type vectorized"><path d="M715.74,568.52,707.25,565l.28-1.53,7.12,3,.37-2,1.36.55Z"/><path d="M714.5,559.26l2.77.7-.28,1.53-1.61-.41-.19,1.09,1.53.88-.28,1.54-2.6-1.54-4.6-2.89.36-1.91Zm-.36,1.53-2.32-.58,2.19,1.28Z"/><path d="M716.9,552.09a2.18,2.18,0,0,1,1.53,2.66c-.18,1.06-.72,1.53-1.53,1.34a2.54,2.54,0,0,1-.61-.19l-5.15-2.11a2.22,2.22,0,0,1-1.53-2.67c.2-1,.72-1.53,1.53-1.31a2.45,2.45,0,0,1,.6.18l1.19.49-.27,1.53-1.2-.49h-.16c-.22,0-.36,0-.4.29h0a.53.53,0,0,0,.4.63l5.08,2.11h.18c.22,0,.34,0,.39-.29a.56.56,0,0,0-.4-.64l-1.21-.49.27-1.53Z"/><path d="M711.33,548.43l.27-1.53,7.51,3.06-.28,1.53Z"/><path d="M711.86,545.58l.65-3.46,1.21.5-.37,2,1.93.79.32-1.7,1.21.51-.32,1.7,1.93.79.36-2,1.21.49-.64,3.46Z"/><path d="M712.67,541.06l.26-1.45,3.73.49-3.53-1.46.25-1.39,7.49,3.06-.26,1.46-3.57-.48,3.38,1.41-.26,1.43Z"/><path d="M713.67,535.89l.64-3.47,1.21.51-.37,2,1.93.8.31-1.72,1.21.51-.31,1.71,1.93.8.37-2,1.21.5-.64,3.46Z"/><path d="M721.19,530.16a2.08,2.08,0,0,1,1.27,2.57c-.2,1.07-.7,1.53-1.53,1.38a2.77,2.77,0,0,1-.49-.15L716,532.1a2.06,2.06,0,0,1-1.27-2.57c.19-1.07.68-1.53,1.53-1.38a2.16,2.16,0,0,1,.49.16l1.07.42-.28,1.54-1.07-.45h-.12c-.2,0-.32,0-.37.29a.52.52,0,0,0,.34.62l4.47,1.86h.14c.2,0,.3,0,.35-.3a.48.48,0,0,0-.31-.6h0l-1.64-.67-.12.62-1.21-.5.4-2.1Z"/><path d="M720.93,524.63l2.77.7-.28,1.54-1.53-.42-.2,1.09,1.54.89L723,530l-2.6-1.53-4.6-2.9.37-1.91Zm-.35,1.53-2.32-.58,2.18,1.29Z"/><path d="M715.86,518.37l.38-2c.17-1,.69-1.36,1.53-1.21a2.72,2.72,0,0,1,.63.2l1.24.51a1.62,1.62,0,0,1,1.06,1.07.81.81,0,0,1,.83-.24l.42.13,1.26.52a2.12,2.12,0,0,1,1.53,2.53.11.11,0,0,1,0,.08l-.35,2Zm1.62-.91,2.21.92v-.29a1.6,1.6,0,0,0,0-.31.65.65,0,0,0-.4-.47L718,516.8h-.16c-.22,0-.36,0-.4.3Zm3.57,1.53,2.21.92.13-.47a.56.56,0,0,0-.39-.63l-1.26-.52h-.17a.3.3,0,0,0-.34.14,1,1,0,0,0-.09.29Z"/><path d="M725.28,516.85l-7.49-3.06.26-1.53,6.29,2.6.37-2,1.21.5Z"/><path d="M726.63,509.59l-.36,1.9-5-1.1-2.78-.69.29-1.53,5.17,1.3-4.89-2.87.28-1.53L722,506.6Z"/><path d="M719.55,504.12l.37-1.94h0c.18-1,.67-1.41,1.44-1.26a3.13,3.13,0,0,1,.52.16l4.24,1.76a2,2,0,0,1,1.29,2.45v.07l-.36,1.95Zm1.53-1,5.07,2.11.09-.44a.49.49,0,0,0-.33-.6l-4.29-1.64h-.14c-.2,0-.32,0-.35.31Z"/><path d="M17.25,608.52l.3-1.44,4.17.81-3.92-1.77.27-1.38,8.36,3.78L26.11,610l-4-.8,3.78,1.72-.3,1.41Z"/><path d="M25.06,599.67l3.06.93-.32,1.54L26,601.6l-.23,1.07,1.68,1-.32,1.53-2.85-1.88L19.1,600l.43-1.9Zm-.42,1.46-2.6-.8,2.45,1.53Z"/><path d="M28.38,599.64,21,596.29l.32-1.46,6.12,2.8.43-2,1.2.55Z"/><path d="M27.22,591.19l-4.35-3.46.32-1.44,7.38,3.33L30.26,591,27,589.5,30,591.86l-.23,1-3.5-.61,3.32,1.53-.32,1.41L22,591.89l.31-1.44Z"/><path d="M30.2,583.9a2.08,2.08,0,0,1,1.18,2.62c-.23,1.05-.75,1.53-1.53,1.33a2.84,2.84,0,0,1-.49-.17l-4.41-2a2.09,2.09,0,0,1-1.2-2.62c.25-1.06.75-1.53,1.54-1.33a2,2,0,0,1,.47.17Zm-4.75-.54h-.12c-.2,0-.32,0-.37.29a.48.48,0,0,0,.29.61h0l4.38,2h.14c.18,0,.32,0,.37-.29a.5.5,0,0,0-.31-.61Z"/><path d="M24.57,580l.32-1.44,3.69.61-3.46-1.53.29-1.38,7.38,3.35L32.48,581l-3.57-.58L32.27,582,32,583.36Z"/><path d="M25.7,574.8l.43-1.94v-.08c.21-1,.7-1.38,1.53-1.21a3,3,0,0,1,.5.18l4.19,1.9a2,2,0,0,1,1.17,2.45v.08l-.41,1.94Zm1.53-.92,5,2.22.09-.43a.49.49,0,0,0-.32-.61l-4.18-1.85h-.14c-.19,0-.32,0-.36.29Z"/><path d="M26.37,566.91l.45-2c.21-.95.72-1.33,1.53-1.15A2.77,2.77,0,0,1,29,564l4.74,2.14a2.15,2.15,0,0,1,1.43,2.59h0l-.43,1.94Zm1.66-.84,5.69,2.57.1-.44a.54.54,0,0,0-.37-.64l-4.76-2.18h-.17a.31.31,0,0,0-.39.2.22.22,0,0,0,0,.08Z"/><path d="M28.46,562.32l.39-1.85h0c.22-1,.72-1.38,1.54-1.21a2.91,2.91,0,0,1,.5.16l1.09.49a1.77,1.77,0,0,1,1.1,1.54l3.71.12-.36,1.53-3.29-.35h0l3.06,1.38-.32,1.45ZM30,561.4l1.9.86v-.17a1.93,1.93,0,0,0,0-.34.5.5,0,0,0-.33-.44l-1-.52H30.4c-.18,0-.31,0-.37.29Z"/><path d="M100.89,612l-8.37-3.77.32-1.45,7,3.18.43-2,1.33.59Z"/><path d="M100,602.73l2.75.8-.33,1.53-1.53-.46-.23,1.07,1.53,1-.32,1.53-2.55-1.62-4.6-3.06.41-1.9Zm-.39,1.46-2.3-.66,2.14,1.36Z"/><path d="M95.13,596.32l.37-1.84c.2-1,.74-1.33,1.53-1.15a2.34,2.34,0,0,1,.63.21l1.23.56a2.29,2.29,0,0,1,1.44,2,3.1,3.1,0,0,1-.1.91v.09l3.51,1.53-.32,1.45Zm1.66-.86,2.19,1v-.18a1.71,1.71,0,0,0,0-.32.63.63,0,0,0-.4-.48l-1.22-.55h-.17a.31.31,0,0,0-.39.2.22.22,0,0,0,0,.08Z"/><path d="M97.17,591.94l.75-3.43,1.2.53-.43,2,1.9.86.36-1.7,1.2.55-.37,1.7,1.9.85.43-2,1.19.53-.75,3.45Z"/><path d="M98.15,587.45,98.9,584l1.2.56-.43,2,1.9.86.36-1.7,1.2.53-.37,1.7,1.9.86.44-2,1.2.55-.75,3.43Z"/><path d="M99.13,583l.42-1.84h0c.21-1,.7-1.38,1.53-1.21a2.3,2.3,0,0,1,.5.18l1.1.49a1.74,1.74,0,0,1,1.09,1.53l3.71.14-.35,1.53-3.28-.35h0l3.06,1.38-.32,1.53Zm1.53-.92,1.9.87v-.18a1.71,1.71,0,0,0,0-.32.55.55,0,0,0-.32-.45l-1.1-.49H101c-.2,0-.33,0-.37.29Z"/><path d="M99.77,575.14l.45-2c.21-1,.73-1.34,1.53-1.15a2.21,2.21,0,0,1,.61.21l4.77,2.15a2.1,2.1,0,0,1,1.4,2.57.09.09,0,0,1,0,.07l-.42,1.95Zm1.66-.86,5.7,2.57.09-.43a.54.54,0,0,0-.37-.64l-4.75-2.14h-.18c-.22,0-.34,0-.4.27Z"/><path d="M101.86,570.51l.4-1.84h0c.21-1,.7-1.37,1.53-1.21a3,3,0,0,1,.5.19l1.09.49a1.73,1.73,0,0,1,1.1,1.53l3.71.14-.35,1.53-3.28-.35h0l3.06,1.39-.32,1.53Zm1.53-.9,1.9.86v-.19a1.71,1.71,0,0,0,0-.32.59.59,0,0,0-.32-.44l-1.11-.49h-.12c-.2,0-.32,0-.37.29Z"/><path d="M183.47,609.12l.43-1.91c.21-1,.72-1.34,1.53-1.15a2.34,2.34,0,0,1,.63.21l1.24.55a1.94,1.94,0,0,1,1.25,1.63l4.17.33-.35,1.53-3.83-.52h0l3.6,1.63-.33,1.53Zm1.65-.84,2.19,1v-.19a.51.51,0,0,0,0-.3.6.6,0,0,0-.38-.49l-1.24-.55h-.17a.3.3,0,0,0-.38.2.19.19,0,0,0,0,.07Z"/><path d="M192.27,603.48a2.08,2.08,0,0,1,1.18,2.62c-.23,1.07-.73,1.53-1.53,1.34a2.6,2.6,0,0,1-.47-.16l-4.43-2a2.09,2.09,0,0,1-1.19-2.62c.24-1.06.75-1.53,1.53-1.34a2.64,2.64,0,0,1,.47.17Zm-4.74-.53h-.13c-.2,0-.32,0-.36.29a.48.48,0,0,0,.3.62h0l4.43,2h.12c.2,0,.32,0,.37-.29A.51.51,0,0,0,192,605Z"/><path d="M186.65,599.53l.42-1.94h0c.21-1,.7-1.38,1.53-1.21a2.27,2.27,0,0,1,.5.17l1.09.49a1.39,1.39,0,0,1,.89,1,.72.72,0,0,1,.77-.24l.36.12,1.07.51a2,2,0,0,1,1.23,2.48V601l-.43,2Zm1.54-.92,1.89.88v-.29a.62.62,0,0,0,0-.33.5.5,0,0,0-.32-.44l-1.08-.49h-.13c-.2,0-.32,0-.36.29Zm3.06,1.41,1.91.86.09-.43a.5.5,0,0,0-.3-.61l-1.09-.49h-.12a.27.27,0,0,0-.32.14,1.08,1.08,0,0,0-.11.3Z"/><path d="M187.74,594.48l.75-3.43,1.2.53-.43,2,1.9.86.38-1.7,1.18.55-.37,1.7,1.91.86.43-2,1.2.54-.75,3.43Z"/><path d="M188.72,590l.41-1.86h0c.22-1,.71-1.37,1.54-1.2a2.16,2.16,0,0,1,.49.16l1.1.49a1.73,1.73,0,0,1,1.09,1.53l3.7.13-.35,1.53-3.28-.35h0l3.07,1.37-.33,1.46Zm1.53-.92,1.92.86v-.17a1.93,1.93,0,0,0,0-.34.59.59,0,0,0-.32-.44l-1.09-.49h-.14c-.2,0-.32,0-.37.29Z"/><path d="M190.54,581.75l1.2.54-.26,1.16,6.12,2.81-.32,1.45-6.12-2.8-.26,1.16-1.2-.53Z"/><path d="M192.23,581.49a2.06,2.06,0,0,1-1.18-2.62c.23-1,.73-1.53,1.53-1.31a2.21,2.21,0,0,1,.48.15l1.05.47-.32,1.54-1-.48h-.14a.35.35,0,0,0-.37.28.51.51,0,0,0,.31.62l.66.3h.09a2.13,2.13,0,0,0,1.27-.65,1.79,1.79,0,0,1,1.62-.53,1.23,1.23,0,0,1,.37.12l.92.41a2.05,2.05,0,0,1,1.18,2.62c-.23,1.06-.73,1.53-1.53,1.33a4.5,4.5,0,0,1-.48-.16l-1.05-.48.32-1.53,1.06.49h.12c.2,0,.32,0,.37-.29a.49.49,0,0,0-.31-.61l-.83-.37h-.1c-.31-.08-.74.14-1.29.61a1.78,1.78,0,0,1-1.66.54,1,1,0,0,1-.36-.13Z"/><path d="M198.57,574.74a2.08,2.08,0,0,1,1.18,2.62c-.23,1.07-.74,1.53-1.53,1.33a2,2,0,0,1-.48-.17l-4.42-2a2.08,2.08,0,0,1-1.18-2.62c.23-1,.73-1.53,1.53-1.33a2.19,2.19,0,0,1,.49.17Zm-4.73-.54h-.14c-.2,0-.32,0-.37.29a.51.51,0,0,0,.31.62l4.42,2h.13c.19,0,.32,0,.36-.29a.48.48,0,0,0-.29-.61h0Z"/><path d="M193,570.79l.3-1.44L197,570l-3.45-1.52.3-1.37,7.38,3.35-.31,1.44-3.55-.58,3.35,1.53-.32,1.41Z"/><path d="M193.64,562.76l.44-2c.22-1,.74-1.35,1.53-1.16a3.33,3.33,0,0,1,.63.21l1.24.55a1.63,1.63,0,0,1,1,1.11.83.83,0,0,1,.84-.22l.42.15,1.24.56a2.13,2.13,0,0,1,1.42,2.58v.08l-.43,1.95Zm1.65-.85,2.18,1v-.28a1.71,1.71,0,0,0,0-.32.62.62,0,0,0-.39-.48l-1.24-.56h-.17a.3.3,0,0,0-.38.2.17.17,0,0,0,0,.07Zm3.51,1.53,2.19,1,.09-.43a.54.54,0,0,0-.38-.65l-1.23-.56h-.15a.32.32,0,0,0-.35.12,1,1,0,0,0-.11.29Z"/><path d="M203.1,561.52l-7.4-3.34.33-1.53,6.12,2.82.43-2,1.2.54Z"/><path d="M204.68,554.32l-.45,1.87-4.94-1.25-2.73-.78.32-1.54,5.12,1.46L197.22,551l.32-1.53,2.56,1.62Z"/><path d="M197.79,548.7l.43-1.94h0c.21-1,.7-1.38,1.53-1.21a1.85,1.85,0,0,1,.5.17l4.2,1.9a2,2,0,0,1,1.21,2.48h0l-.43,1.94Zm1.53-.91,4.91,2.28.11-.45A.49.49,0,0,0,204,549l-4.2-1.9h-.12c-.2,0-.32,0-.37.29Z"/><path d="M229.86,500.19a3.41,3.41,0,0,1,3.38-3.31c1.65-.14,2.53.47,2.65,1.84a5.13,5.13,0,0,1,0,1l-.25,2-2.32.2.26-2v-.29c0-.34-.2-.49-.6-.46h0c-.44,0-.7.32-.78.86l-.15,1.25a.34.34,0,0,0,0,.2c0,.54.55,1.14,1.53,1.83a3.26,3.26,0,0,1,1.53,3.15l-.23,1.75a3.38,3.38,0,0,1-3.37,3.32c-1.65.14-2.54-.47-2.65-1.84a4,4,0,0,1,0-1l.25-2,2.31-.2-.25,2v.27c0,.34.2.49.6.46a.82.82,0,0,0,.78-.85l.2-1.54a.88.88,0,0,0,0-.23c0-.56-.55-1.19-1.53-1.86a3.25,3.25,0,0,1-1.53-2.42,3.39,3.39,0,0,1,0-.78Z"/><path d="M242.87,505.84l.11,4.44-2.34.2v-2.57l-1.7.15-.72,2.63-2.33.2,1.22-4.59,2.42-8.16,3.07-.26Zm-2.32.08-.1-3.71-1,3.8Z"/><path d="M246.09,497.63l2.27-.18.81,5.77.75-5.88,2.16-.21-1.53,12.52-2.29.19-.76-5.55-.72,5.67-2.24.2Z"/><path d="M259.69,496.47l-.26,2-1.84.17-1.32,10.49-2.31.2,1.32-10.51-1.84.15.24-2Z"/><path d="M266.14,503.86l.1,4.46-2.34.2V506l-1.7.13-.72,2.64-2.33.2,1.23-4.6,2.42-8.16,3.06-.24Zm-2.35.08v-3.71l-1,3.8Z"/><path d="M276.78,502.24l3.25-9.11,2.29-.2-1.77,14.26-2.24.18.8-6.31L277,507.48l-1.63.14-.61-6.24-.79,6.36-2.26.2,1.78-14.17,2.28-.2Z"/><path d="M288.88,503.91a3.22,3.22,0,0,1-3.34,3c-1.69.13-2.57-.42-2.68-1.67a5.21,5.21,0,0,1,0-.79l.95-7.48a3.21,3.21,0,0,1,3.34-3c1.68-.14,2.57.41,2.68,1.66a3.57,3.57,0,0,1,0,.8Zm-1.38-7.29a.74.74,0,0,0,0-.21q0-.46-.6-.42a.77.77,0,0,0-.78.75h0l-.93,7.48a.74.74,0,0,0,0,.21c0,.31.23.44.61.41a.76.76,0,0,0,.76-.75Z"/><path d="M292.17,493.73l2.27-.19.81,5.78.73-5.89,2.18-.21-1.53,12.53-2.29.18-.78-5.54-.7,5.68-2.24.18Z"/><path d="M300.36,493l2.32-.2-1.54,12.52-2.31.2Z"/><path d="M309.44,502.16a3.21,3.21,0,0,1-3.35,3c-1.68.15-2.57-.41-2.68-1.67a3.39,3.39,0,0,1,0-.78l.94-7.47a3.22,3.22,0,0,1,3.33-3c1.69-.15,2.59.42,2.7,1.67a5.08,5.08,0,0,1,0,.78l-.22,1.8-2.31.2.22-1.8a.74.74,0,0,0,0-.21c0-.31-.2-.44-.6-.41a.78.78,0,0,0-.78.75l-.94,7.47a.74.74,0,0,0,0,.21q0,.46.6.42a.75.75,0,0,0,.77-.74h0l.23-1.79,2.31-.2Z"/><path d="M317.56,499.53l.09,4.44-2.32.2v-2.56l-1.7.14-.72,2.63-2.33.2L311.8,500l2.42-8.16,3.07-.25Zm-2.34.08-.08-3.71-1,3.8Z"/><path d="M324.79,489.33l3.2-.26c1.53-.12,2.34.47,2.45,1.79a4.44,4.44,0,0,1,0,1l-.26,2.1a2.53,2.53,0,0,1-1.18,2,1.29,1.29,0,0,1,.72,1.15,4.09,4.09,0,0,1,0,.7l-.26,2.1a3.3,3.3,0,0,1-3.18,3.28h-.11l-3.06.26Zm1.29,8-.46,3.7h.69c.46,0,.72-.33.78-.86l.26-2.08v-.27a.47.47,0,0,0-.34-.45,1,1,0,0,0-.49,0Zm.75-6-.46,3.69h.44a3.86,3.86,0,0,0,.49-.09.93.93,0,0,0,.54-.8l.26-2.08a1.31,1.31,0,0,0,0-.28c0-.35-.22-.5-.58-.47Z"/><path d="M331,502.82l1.53-12.51,2.31-.2L333.5,500.6l3.07-.26-.25,2Z"/><path d="M342.4,501.86l-3.06.26-.4-7.92-.09-4.43,2.33-.19.18,8.26,2.28-8.48,2.34-.2-1.22,4.6Z"/><path d="M347.58,489l3.06-.26h.12c1.53-.14,2.36.41,2.47,1.64a2.82,2.82,0,0,1,0,.82l-.89,7.1a3.07,3.07,0,0,1-3.06,2.94h-.12l-3.07.26Zm2.07,1.82-1.08,8.47h.69a.75.75,0,0,0,.77-.73v0l.89-7.09v-.21q0-.46-.6-.42Z"/><path d="M370.63,649a2.17,2.17,0,0,1-1.7-2.52c.1-1.06.59-1.54,1.53-1.46a3.29,3.29,0,0,1,.61.12l1.24.4-.15,1.53-1.24-.4h-.17a.34.34,0,0,0-.37.33h0a.53.53,0,0,0,.44.59l.79.25h.12a2.14,2.14,0,0,0,1.33-.75,2.07,2.07,0,0,1,1.7-.68,3.43,3.43,0,0,1,.46.11l1.09.35a2.19,2.19,0,0,1,1.7,2.53c-.11,1.06-.6,1.53-1.53,1.46a2.65,2.65,0,0,1-.62-.14l-1.24-.39.16-1.53,1.24.4h.17a.33.33,0,0,0,.36-.32.54.54,0,0,0-.44-.6l-1-.32H375a2,2,0,0,0-1.36.74,2.08,2.08,0,0,1-1.72.65l-.49-.09Z"/><path d="M375.76,641.39l2.81.46-.13,1.53-1.64-.26-.11,1.08,1.53.77-.15,1.53-2.71-1.3-4.89-2.5.2-1.93Zm-.23,1.53-2.36-.38,2.3,1.1Z"/><path d="M370.92,638.39l.15-1.46,3.74.17-3.62-1.16.13-1.4L379,637l-.14,1.53-3.59-.17,3.49,1.12-.14,1.44Z"/><path d="M379.71,630.27l-.19,1.93-5.71-.89-3.17-.58.15-1.53,5.95,1.08L371,627.62l.15-1.53,3.06,1.42Z"/><path d="M372.2,625.63l.14-1.53,7.66,2.48-.14,1.53Z"/><path d="M379,621a2.08,2.08,0,0,1,1.53,2.47c-.1,1.07-.56,1.53-1.37,1.53a2,2,0,0,1-.49-.11l-4.6-1.53a2.06,2.06,0,0,1-1.53-2.46c.11-1.08.57-1.54,1.36-1.54a4.64,4.64,0,0,1,.51.11l1.1.35-.15,1.54-1.1-.36h-.14c-.2,0-.31.09-.34.34a.5.5,0,0,0,.38.58l4.6,1.53h.14c.2,0,.3-.09.32-.33a.49.49,0,0,0-.37-.57l-1.12-.35.16-1.53Z"/><path d="M373,617.74l.36-3.51,1.25.4-.2,2,2,.65.17-1.75,1.26.42-.19,1.73,2,.62.19-2,1.26.42-.35,3.49Z"/><path d="M373.44,613.16l.16-1.53,3.73.19-3.61-1.17.12-1.41,7.66,2.48-.14,1.46-3.6-.17,3.51,1.12-.15,1.44Z"/><path d="M374.33,604.43l1.24.4-.12,1.18,6.49,2.07-.15,1.53-6.48-2.07-.12,1.18-1.26-.4Z"/><path d="M374.42,603.39l.36-3.5,1.25.41-.2,2,2,.65.17-1.73,1.24.4-.17,1.73,2,.62.19-2,1.26.4-.35,3.49Z"/><path d="M374.38,593.5l.2-2c.11-1,.58-1.47,1.42-1.34a2.7,2.7,0,0,1,.64.14l1.29.42a1.5,1.5,0,0,1,1.13,1,.87.87,0,0,1,.82-.33,2.18,2.18,0,0,1,.44.11l1.3.41a2.1,2.1,0,0,1,1.7,2.39v.08l-.2,2Zm1.53-1,2.28.72v-.28a.86.86,0,0,0,0-.32.59.59,0,0,0-.43-.43l-1.28-.41h-.19a.35.35,0,0,0-.37.32Zm3.69,1.18,2.27.72v-.45a.52.52,0,0,0-.45-.58l-1.28-.41H380a.31.31,0,0,0-.34.15,1.6,1.6,0,0,0,0,.31Z"/><path d="M383.63,591.19,376,588.72l.15-1.53,6.48,2.07.2-2,1.26.39Z"/><path d="M384.36,583.84l-.18,1.93-5.05-.68-2.82-.46.15-1.53,5.25.86-5.1-2.45.16-1.53,2.74,1.31Z"/><path d="M376.87,579.06l.2-2h0c.11-1,.55-1.48,1.34-1.38a3.21,3.21,0,0,1,.52.11l4.38,1.4a2,2,0,0,1,1.53,2.33v.08l-.2,2Zm1.4-1.09,5.24,1.67v-.44a.5.5,0,0,0-.39-.57l-4.38-1.39h-.12c-.2,0-.32.09-.34.33Z"/><path d="M535.38,566.78l-.55-1.4,3.8-.64-.33-.83-3.79.66-.56-1.39,9.06-1.54.55,1.4-3.82.64.34.83,3.8-.64.55,1.37Z"/><path d="M539.62,557.27a2.06,2.06,0,0,1,2.45,1.53c.4,1,.23,1.65-.54,2a3.59,3.59,0,0,1-.47.12l-6.4,1.09-.55-1.4,6.4-1.07h.12c.19-.08.23-.21.15-.44a.51.51,0,0,0-.61-.34l-6.38,1.09-.56-1.4Z"/><path d="M532.74,557.31l-.53-1.36,3.4-1.53-3.75.64-.54-1.3,8-1.37.56,1.37-3.28,1.53,3.63-.63.52,1.35Z"/><path d="M529.59,549.36l1.29-.21.44,1.1L538,549.1l.55,1.4-6.71,1.14.45,1.11L531,553Z"/><path d="M537.29,547.25l-8,1.36-.55-1.39,6.69-1.13-.74-1.89L536,544Z"/><path d="M527.71,544.63l-1.29-3.26,1.29-.23.75,1.88,2-.35-.64-1.61,1.3-.23.64,1.63,2.05-.36-.73-1.88,1.28-.21,1.31,3.26Z"/><path d="M525.67,539.47l2.45-1.18-3.06-.26-.59-1.53,5.14.69h.1l3.36-.57.56,1.39-3.37.57h-.07l-3.94,2.3Z"/><path d="M522.33,533.91l-.75-1.91c-.37-.92-.15-1.54.64-1.86.21-.07.43-.12.65-.17l5.14-.87a2.12,2.12,0,0,1,2.61,1.35v.08l.73,1.85Zm.89-1.64,6.12-1-.16-.41a.53.53,0,0,0-.68-.32l-5.13.87h-.18c-.2.07-.26.23-.17.46Z"/><path d="M521.56,529.13l-.7-1.74v-.08c-.37-.94-.18-1.55.55-1.84l.51-.14,1.18-.19a1.71,1.71,0,0,1,1.77.67l3.14-2,.6,1.53-2.91,1.54h0l3.31-.57.55,1.39Zm.74-1.61,2.07-.35-.08-.17c0-.1-.09-.19-.14-.29a.54.54,0,0,0-.52-.18l-1.18.2h-.13c-.19.08-.23.23-.14.46Z"/><path d="M452,378.45a2.17,2.17,0,0,1,1.67-2.54c1-.32,1.65,0,1.91.8a1.83,1.83,0,0,1,.11.61l.12,1.29-1.42.44-.12-1.3a.49.49,0,0,0,0-.17.32.32,0,0,0-.37-.24l-.06,0h0a.53.53,0,0,0-.37.64l.08.81a.24.24,0,0,0,0,.12c.1.34.5.65,1.21.95a2,2,0,0,1,1.27,1.3,1.87,1.87,0,0,1,.09.46l.11,1.15a2.22,2.22,0,0,1-1.67,2.55c-1,.3-1.67,0-1.93-.8a3.26,3.26,0,0,1-.11-.61l-.12-1.31,1.44-.42.11,1.28v.19a.4.4,0,0,0,.44.19.56.56,0,0,0,.37-.64l-.08-1v-.14c-.11-.35-.52-.68-1.21-1a2,2,0,0,1-1.36-1.8Z"/><path d="M461.07,381.49a2.07,2.07,0,0,1-1.68,2.32c-1,.33-1.69.1-1.92-.69a1.93,1.93,0,0,1-.09-.49l-.58-6.46,1.42-.44.59,6.46v.14a.41.41,0,0,0,.44.17.49.49,0,0,0,.38-.57l-.56-6.45,1.42-.43Z"/><path d="M461.79,374.64l1.4-.44,1.3,3.52-.34-3.8,1.33-.43.74,8.09-1.41.43-1.24-3.39.32,3.66-1.38.43Z"/><path d="M466.88,374.73a2.09,2.09,0,0,1,1.7-2.33c1-.32,1.67-.09,1.91.69a2.11,2.11,0,0,1,.09.49l.11,1.17-1.42.43-.13-1.15a.33.33,0,0,0,0-.14c0-.18-.2-.25-.43-.18a.51.51,0,0,0-.39.58l.07.72v.09c.1.29.48.55,1.18.78a1.86,1.86,0,0,1,1.29,1.16,2.28,2.28,0,0,1,0,.37l.09,1a2.07,2.07,0,0,1-1.68,2.32c-1,.32-1.69.09-1.93-.68,0-.16-.07-.33-.1-.5l-.09-1.15,1.43-.45.1,1.17v.12a.43.43,0,0,0,.45.18.48.48,0,0,0,.38-.56V378a.17.17,0,0,0,0-.1c-.09-.31-.47-.59-1.18-.83a1.81,1.81,0,0,1-1.28-1.18,1.21,1.21,0,0,1,0-.38Z"/><path d="M471.69,371.58l3.35-1,.12,1.31-1.93.6.19,2.07,1.65-.51.12,1.3-1.67.52.2,2.09,1.93-.6.12,1.3-3.36,1Z"/><path d="M479.43,369.19l.13,1.3-1.2.4.62,6.77-1.43.44-.61-6.77-1.13.35-.13-1.31Z"/><path d="M482.73,367.08l2-.6c.94-.29,1.53,0,1.78.78a2.41,2.41,0,0,1,.12.66l.12,1.35a1.51,1.51,0,0,1-.45,1.42.81.81,0,0,1,.59.63,1.64,1.64,0,0,1,.09.44l.13,1.35a2.13,2.13,0,0,1-1.53,2.5h-.08l-1.9.58Zm1.53,1,.21,2.37h.28a.81.81,0,0,0,.29-.12.64.64,0,0,0,.23-.58l-.12-1.35v-.17a.31.31,0,0,0-.36-.24l-.09,0Zm.34,3.85.21,2.37.43-.12a.56.56,0,0,0,.38-.65l-.14-1.36a.38.38,0,0,0,0-.15.3.3,0,0,0-.27-.25,1.61,1.61,0,0,0-.31,0Z"/><path d="M488.46,374.7l-.72-8.07,1.42-.44.61,6.77,1.93-.6.12,1.32Z"/><path d="M495.52,372.53l-1.86.58-1.35-4.93-.65-2.76,1.44-.44,1.24,5.17.27-5.65,1.44-.44-.14,3.06Z"/><path d="M497,363.77l1.9-.6h0c1-.29,1.53,0,1.79.69a2.34,2.34,0,0,1,.09.54l.42,4.59a2,2,0,0,1-1.53,2.28h-.08l-1.9.6Zm1.53.85.49,5.47.43-.12a.52.52,0,0,0,.35-.61l-.41-4.6v-.14a.38.38,0,0,0-.43-.16Z"/><path d="M385.14,735.65l1.95-5.9,1.53-.17-.92,9.19-1.42.15.4-4.07L385.4,739l-1,.12-.5-4-.42,4.09-1.44.17.91-9.19,1.53-.15Z"/><path d="M389.85,730.5l3.49-.4-.14,1.32-2,.22-.21,2.08,1.73-.2-.12,1.32-1.73.18-.22,2.08,2-.2-.14,1.32-3.49.38Z"/><path d="M393.6,738.07l.81-8.07,1.53-.17-.67,6.77,2-.23-.12,1.31Z"/><path d="M398.9,729.49l1.86-.2h0c1-.12,1.54.23,1.63,1a4.86,4.86,0,0,1,0,.54l-.12,1.18a1.74,1.74,0,0,1-1.12,1.53l1.07,3.55-1.62.19-.72-3.24h0l-.34,3.34-1.53.17Zm1.34,1.15-.2,2.08h.17a.86.86,0,0,0,.32,0,.47.47,0,0,0,.33-.44l.12-1.2V731c0-.2-.15-.28-.4-.25Z"/><path d="M406.94,735a2.06,2.06,0,0,1-2.09,1.91c-1.07.13-1.65-.23-1.74-1a2.18,2.18,0,0,1,0-.51l.49-4.82a2.07,2.07,0,0,1,2.1-2c1.07-.1,1.65.23,1.74,1a2.17,2.17,0,0,1,0,.51Zm-1-4.6v-.15c0-.18-.15-.27-.4-.24a.47.47,0,0,0-.47.47v0l-.49,4.82v.06c0,.2.15.28.4.26a.47.47,0,0,0,.47-.47v0Z"/><path d="M408.64,730a2.06,2.06,0,0,1,2.09-2c1.08-.13,1.67.21,1.75,1a2.17,2.17,0,0,1,0,.51l-.11,1.16-1.53.16.11-1.15a.33.33,0,0,0,0-.14c0-.2-.14-.28-.38-.26a.5.5,0,0,0-.49.49l-.08.72v.09c0,.29.38.63,1,1a1.77,1.77,0,0,1,1,1.37,1.28,1.28,0,0,1,0,.39l-.09,1a2,2,0,0,1-2.1,2c-1.09.13-1.67-.21-1.76-1a4.34,4.34,0,0,1,0-.51l.12-1.15,1.53-.17-.12,1.15v.14c0,.2.15.29.4.26a.5.5,0,0,0,.49-.49l.09-.9v-.11c0-.32-.37-.66-1-1a1.82,1.82,0,0,1-1-1.39,1.34,1.34,0,0,1,0-.4Z"/><path d="M414,727.84l3.49-.39-.14,1.31-2,.21-.2,2.08,1.73-.18-.14,1.3-1.73.18-.2,2.09,2-.22-.14,1.3-3.49.39Z"/><path d="M421.12,726l2.05-.23c1-.11,1.53.26,1.61,1.12a3.64,3.64,0,0,1,0,.66l-.12,1.34a1.57,1.57,0,0,1-.72,1.31.84.84,0,0,1,.47.73,1.77,1.77,0,0,1,0,.46l-.12,1.35a2.12,2.12,0,0,1-2,2.16h-.08l-2,.21Zm1,5.13-.24,2.37h.44c.29,0,.46-.21.49-.56l.12-1.35a.2.2,0,0,0,0-.15.27.27,0,0,0-.23-.29h-.3Zm.37-3.84-.23,2.38h.29a.81.81,0,0,0,.31,0,.55.55,0,0,0,.33-.5l.08-1.46a.54.54,0,0,0,0-.18c0-.23-.15-.32-.4-.29Z"/><path d="M425.31,734.58l.8-8.09,1.53-.15-.67,6.77,2-.23-.14,1.3Z"/><path d="M432.65,733.84l-1.93.21-.38-5.08-.14-2.85,1.53-.17.25,5.32,1.33-5.48,1.53-.17-.72,2.94Z"/><path d="M435.76,725.43l2-.21h0c1-.11,1.56.22,1.61,1a2.44,2.44,0,0,1,0,.54l-.46,4.59a2,2,0,0,1-2,1.94H437l-2,.23Zm1.36,1.14-.55,5.46H437a.47.47,0,0,0,.48-.47v0L438,727a.33.33,0,0,0,0-.14c0-.2-.15-.29-.38-.26Z"/><path d="M419.56,412a1.55,1.55,0,0,1-1.54,1.29q-1,0-1-.87a1.48,1.48,0,0,1,0-.42l.76-3.6a1.53,1.53,0,0,1,1.53-1.28c.71,0,1.08.29,1.08.87a1.41,1.41,0,0,1,0,.41l-.17.86h-1l.17-.86a.17.17,0,0,0,0-.1.19.19,0,0,0-.16-.23h-.07a.37.37,0,0,0-.37.33L418,412a.24.24,0,0,0,0,.12c0,.14.07.22.24.22a.39.39,0,0,0,.37-.34l.17-.86h1Z"/><path d="M420.17,413.19l1.12-5.29h1l-.93,4.43h1.35l-.19.86Z"/><path d="M425.9,412.13a1.4,1.4,0,0,1-1.54,1.13c-.72,0-1.07-.26-1.07-.81a1.71,1.71,0,0,1,0-.32L424,409a1.37,1.37,0,0,1,1.53-1.15c.73,0,1.08.28,1.08.81a1.93,1.93,0,0,1,0,.34Zm-.33-3.17v-.09c0-.14,0-.2-.23-.2a.33.33,0,0,0-.36.29l-.68,3.17v.11c0,.14.08.21.23.21a.35.35,0,0,0,.37-.29Z"/><path d="M427.38,409a1.39,1.39,0,0,1,1.53-1.15c.72,0,1.09.28,1.09.81a1.93,1.93,0,0,1,0,.34l-.15.75h-1L429,409a.14.14,0,0,0,0-.09c0-.14-.07-.2-.24-.2a.32.32,0,0,0-.35.29h0l-.11.47h0c0,.2.2.44.6.74a1.23,1.23,0,0,1,.58,1,1.13,1.13,0,0,1,0,.26l-.14.66a1.37,1.37,0,0,1-1.53,1.13c-.72,0-1.09-.26-1.09-.81a1.71,1.71,0,0,1,0-.32l.16-.77h.95l-.16.77v.08c0,.13,0,.21.25.21a.34.34,0,0,0,.35-.29l.12-.6a.09.09,0,0,0,0-.07c0-.22-.2-.46-.6-.76a1.23,1.23,0,0,1-.58-1v-.26Z"/><path d="M431.06,407.9h2.34l-.18.85h-1.35l-.29,1.36h1.16l-.18.86h-1.17l-.29,1.36h1.32l-.17.86h-2.36Z"/><path d="M434.12,407.9h1.38c.67,0,1,.26,1,.78a2.16,2.16,0,0,1,0,.36l-.64,3.06a1.34,1.34,0,0,1-1.44,1.15H433Zm.81.85-.75,3.58h.29a.31.31,0,0,0,.35-.29h0l.65-3.06v-.1c0-.12-.08-.2-.23-.2Z"/><path d="M419.69,418.18l-.12,1.9h-.93V419h-.74l-.4,1.1h-1l.69-1.9,1.31-3.39h1.31Zm-1,0,.09-1.53-.57,1.53Z"/><path d="M423.57,414.79l-.19.85h-.79l-.94,4.44h-1l.93-4.44h-.79l.18-.85Z"/><path d="M427.58,418.88a1.53,1.53,0,0,1-1.53,1.29c-.71,0-1.07-.29-1.07-.87a1.48,1.48,0,0,1,0-.42l.76-3.6a1.54,1.54,0,0,1,1.53-1.28q1.08,0,1.08.87a2.8,2.8,0,0,1,0,.41l-.19.86h-1l.18-.86v-.1s-.08-.23-.24-.23h0a.36.36,0,0,0-.37.33l-.75,3.6a.29.29,0,0,0,0,.13c0,.13.07.21.23.21a.36.36,0,0,0,.36-.34l.19-.85h1.06Z"/><path d="M430.08,414.79l.13,1.81.91-1.81h1.05l-1.7,3.07h0l-.47,2.22h-1l.48-2.22h0l-.41-3.07Z"/><path d="M432.83,414.79h1l.14,2.49.52-2.49h1l-1.12,5.29h-1l-.12-2.41-.52,2.41h-1Z"/><path d="M438.68,414.79l-.18.85h-.8l-.93,4.44h-1l.94-4.44h-.78l.18-.85Z"/><path d="M439.37,414.79h1l-.46,2.21h.58l.48-2.21h1l-1.13,5.29h-1l.48-2.22h-.59l-.47,2.22h-1Z"/><path d="M442.91,414.79h1l-1.14,5.29h-1Z"/><path d="M446.63,418.18l-.12,1.9h-1V419h-.74l-.4,1.1h-1l.69-1.9,1.34-3.39h1.3Zm-1,0,.11-1.53-.58,1.53Z"/><path d="M550.52,587.24a1.52,1.52,0,0,1-1.53,1.3c-.7,0-1-.31-1-.89a1.41,1.41,0,0,1,0-.41l.76-3.59a1.54,1.54,0,0,1,1.53-1.3c.71,0,1.06.29,1.06.89a2.81,2.81,0,0,1,0,.41l-.18.84h-1l.18-.84a.24.24,0,0,0,0-.12.19.19,0,0,0-.22-.22h0c-.19,0-.31.11-.36.34l-.76,3.59a.24.24,0,0,0,0,.12c0,.14.07.21.23.21a.37.37,0,0,0,.36-.33l.19-.85h1Z"/><path d="M551.12,588.43l1.12-5.28h1l-.94,4.42h1.35l-.19.86Z"/><path d="M556.86,587.37a1.37,1.37,0,0,1-1.53,1.15q-1.08,0-1.08-.81a1,1,0,0,1,0-.34l.67-3.17a1.38,1.38,0,0,1,1.53-1.15c.72,0,1.09.28,1.09.82a1.82,1.82,0,0,1,0,.33Zm-.32-3.17a.14.14,0,0,0,0-.09c0-.12-.07-.2-.24-.2a.31.31,0,0,0-.35.29h0l-.68,3.17a.17.17,0,0,0,0,.1c0,.12,0,.19.25.19a.32.32,0,0,0,.35-.28h0Z"/><path d="M558.35,584.2a1.39,1.39,0,0,1,1.53-1.15c.74,0,1.09.28,1.09.82a1.82,1.82,0,0,1,0,.33l-.17.77h-1l.16-.77v-.09c0-.12,0-.2-.23-.2a.36.36,0,0,0-.36.29l-.1.48h0a2.07,2.07,0,0,0,.6.73,1.2,1.2,0,0,1,.6,1,1.13,1.13,0,0,1,0,.26l-.14.66a1.38,1.38,0,0,1-1.53,1.15c-.74,0-1.09-.28-1.09-.83v-.32l.17-.76h1l-.17.76v.09c0,.13.07.2.24.2a.34.34,0,0,0,.36-.29l.12-.6h0a2,2,0,0,0-.6-.76,1.2,1.2,0,0,1-.58-1,.57.57,0,0,1,0-.26Z"/><path d="M562,583.15h2.34l-.18.85h-1.35l-.29,1.37h1.15l-.17.84h-1.16l-.29,1.36h1.34l-.18.86h-2.34Z"/><path d="M565.1,583.15h1.38c.66,0,1,.26,1,.79a2,2,0,0,1,0,.35l-.63,3a1.34,1.34,0,0,1-1.46,1.15H564Zm.82.85-.77,3.57h.31a.34.34,0,0,0,.35-.29l.63-3v-.09c0-.13,0-.2-.25-.2Z"/><path d="M550.68,593.42l-.12,1.9h-1v-1.1h-.73l-.4,1.1h-1l.67-1.88,1.33-3.4h1.3Zm-1,0,.1-1.53-.58,1.53Z"/><path d="M554.54,590l-.17.86h-.8l-1,4.42h-1l1-4.42h-.8L552,590Z"/><path d="M558.17,593.12l1.73-3.79h1l-1.27,6h-1l.57-2.66-1.15,2.66h-.71v-2.68l-.56,2.68h-1l1.27-6H558Z"/><path d="M561.66,590H564l-.17.86h-1.36l-.29,1.36h1.16l-.18.84H562l-.29,1.36h1.35l-.19.86h-2.34Z"/><path d="M563.6,595.32l1.14-5.28h1l-1,4.42h1.35l-.18.86Z"/><path d="M567.74,590H569c.67,0,1,.26,1,.79a2.16,2.16,0,0,1,0,.36l-.17.78a1.19,1.19,0,0,1-.85.93l.45,2.42h-1.09l-.24-2.19h0l-.48,2.18h-1Zm.81.86-.29,1.36h.34a.32.32,0,0,0,.24-.26l.17-.78v-.09c0-.14-.08-.2-.23-.2Z"/><path d="M572.67,594.26a1.37,1.37,0,0,1-1.53,1.15c-.72,0-1.09-.27-1.09-.81a1.93,1.93,0,0,1,0-.34l.67-3.17a1.4,1.4,0,0,1,1.54-1.14c.72,0,1.07.27,1.07.81a1.82,1.82,0,0,1,0,.33Zm-.32-3.17V591a.23.23,0,0,0-.25-.2.35.35,0,0,0-.36.29l-.68,3.17v.1c0,.12,0,.2.25.2a.34.34,0,0,0,.35-.3Z"/><path d="M574.15,591.09a1.38,1.38,0,0,1,1.54-1.14q1.08,0,1.08.81a.92.92,0,0,1,0,.33l-.15.77h-1l.16-.77a.14.14,0,0,0,0-.09c0-.12,0-.2-.25-.2a.34.34,0,0,0-.35.29l-.11.48h0c0,.19.2.44.6.73a1.18,1.18,0,0,1,.58,1,1.13,1.13,0,0,1,0,.26l-.15.66a1.36,1.36,0,0,1-1.53,1.15c-.72,0-1.09-.27-1.09-.82a1.82,1.82,0,0,1,0-.33l.15-.76h1l-.15.76v.1a.22.22,0,0,0,.24.19.31.31,0,0,0,.35-.28h0l.14-.59h0c0-.22-.2-.48-.58-.77a1.21,1.21,0,0,1-.6-1v-.27Z"/><path d="M577.91,590h2.34l-.18.86h-1.35l-.29,1.36h1.16l-.18.84h-1.17l-.33,1.38h1.34l-.18.86h-2.34Z"/><path d="M377.18,669.84a1.53,1.53,0,0,1-1.53,1.29c-.71,0-1.06-.29-1.06-.88a2.8,2.8,0,0,1,0-.41l.77-3.6a1.52,1.52,0,0,1,1.53-1.28c.72,0,1.07.29,1.07.87a1.41,1.41,0,0,1,0,.41l-.18.86h-1l.19-.86v-.1a.32.32,0,0,0-.25-.23h0a.36.36,0,0,0-.37.33l-.76,3.6V670a.25.25,0,0,0,.24.22.38.38,0,0,0,.37-.34l.17-.86h.92Z"/><path d="M377.76,671.05l1.12-5.28h1l-.95,4.42h1.41l-.18.86Z"/><path d="M383.52,670a1.36,1.36,0,0,1-1.53,1.13c-.74,0-1.09-.26-1.09-.81V670l.68-3.17a1.37,1.37,0,0,1,1.53-1.15c.73,0,1.08.28,1.08.81a1.93,1.93,0,0,1,0,.34Zm-.32-3.17v-.09c0-.14-.08-.2-.23-.2a.34.34,0,0,0-.37.29l-.72,3.17v.08a.2.2,0,0,0,.23.21.35.35,0,0,0,.37-.29Z"/><path d="M384.94,666.81a1.39,1.39,0,0,1,1.54-1.15c.72,0,1.08.28,1.08.81a1,1,0,0,1,0,.34l-.15.75h-.93l.15-.75a.14.14,0,0,0,0-.09c0-.14-.08-.2-.25-.2a.32.32,0,0,0-.35.29h0l-.1.47h0c0,.2.19.44.59.74a1.18,1.18,0,0,1,.58,1,.57.57,0,0,1,0,.26l-.13.66a1.39,1.39,0,0,1-1.54,1.13c-.71,0-1.08-.26-1.08-.81a.86.86,0,0,1,0-.32l.15-.77h1l-.16.77V670c0,.14,0,.22.25.22a.32.32,0,0,0,.35-.29h0l.12-.6a.11.11,0,0,0,0-.08c0-.21-.2-.46-.59-.75a1.22,1.22,0,0,1-.59-1v-.26Z"/><path d="M388.68,665.75h2.39l-.18.84h-1.35l-.29,1.37h1.16l-.18.86h-1.17l-.29,1.36h1.37L390,671h-2.34Z"/><path d="M391.74,665.75h1.38c.68,0,1,.26,1,.78a2.16,2.16,0,0,1,0,.36l-.64,3.06A1.32,1.32,0,0,1,392,671.1h-1.38Zm.82.84-.75,3.59h.29a.32.32,0,0,0,.35-.29h0l.64-3.07v-.09c0-.12,0-.2-.23-.2Z"/><path d="M377.29,676l-.11,1.9h-1v-1.11h-.72l-.41,1.11h-1l.69-1.9,1.33-3.39h1.29Zm-1,0,.09-1.53-.56,1.53Z"/><path d="M381.19,672.58l-.18.84h-.8l-.93,4.45h-1l.94-4.45h-.8l.18-.84Z"/><path d="M384.82,675.65l1.72-3.77h1l-1.27,6h-.95l.56-2.67-1.16,2.67H384v-2.68l-.57,2.68h-1l1.27-6h1Z"/><path d="M388.31,672.58h2.35l-.19.84h-1.34l-.3,1.37H390l-.19.86h-1.16l-.29,1.36h1.35l-.19.86h-2.34Z"/><path d="M390.24,677.93l1.14-5.29h1l-.95,4.43h1.37l-.19.86Z"/><path d="M394.38,672.58h1.28c.66,0,1,.26,1,.78a2.16,2.16,0,0,1,0,.36l-.17.78a1.12,1.12,0,0,1-.84.93l.44,2.44H395l-.25-2.19h0l-.46,2.19h-1Zm.81.84-.29,1.37h.34a.36.36,0,0,0,.24-.28l.17-.78a.14.14,0,0,0,0-.09c0-.12-.08-.2-.25-.2Z"/><path d="M399.31,676.87a1.37,1.37,0,0,1-1.53,1.13c-.72,0-1.09-.26-1.09-.81a1.71,1.71,0,0,1,0-.32l.67-3.17a1.39,1.39,0,0,1,1.54-1.15c.72,0,1.08.28,1.08.81a1,1,0,0,1,0,.34ZM399,673.7a.14.14,0,0,0,0-.09c0-.14-.08-.2-.25-.2a.32.32,0,0,0-.35.29h0l-.67,3.17a.11.11,0,0,0,0,.08c0,.14.09.21.24.21a.31.31,0,0,0,.35-.29h0Z"/><path d="M400.8,673.7a1.37,1.37,0,0,1,1.53-1.15c.73,0,1.08.28,1.08.81a1.93,1.93,0,0,1,0,.34l-.16.75h-1l.17-.75v-.09a.23.23,0,0,0-.25-.2.33.33,0,0,0-.36.29l-.1.48h0a2,2,0,0,0,.62.73,1.23,1.23,0,0,1,.58,1,1.13,1.13,0,0,1,0,.26l-.14.66a1.36,1.36,0,0,1-1.53,1.13c-.72,0-1.09-.26-1.09-.81v-.32l.17-.77h1l-.17.77v.08c0,.13.07.21.24.21a.33.33,0,0,0,.35-.29l.13-.6v-.07c0-.22-.2-.46-.6-.75a1.2,1.2,0,0,1-.58-1,.57.57,0,0,1,0-.26Z"/><path d="M404.49,672.58h2.34l-.18.84H405.3l-.29,1.37h1.16l-.18.86h-1.14l-.29,1.36h1.35l-.18.86h-2.41Z"/><path d="M709.14,579.49a1.54,1.54,0,0,1-1.54,1.3q-1.05,0-1.05-.87a1.55,1.55,0,0,1,0-.43l.75-3.59a1.52,1.52,0,0,1,1.53-1.28c.7,0,1.06.29,1.06.87a2.8,2.8,0,0,1,0,.41l-.19.86h-1l.18-.86a.24.24,0,0,0,0-.12c0-.14-.08-.21-.23-.21h0c-.18,0-.3.1-.37.33l-.75,3.59v.12a.2.2,0,0,0,.17.23h.06c.2,0,.32-.12.37-.35l.18-.85h1Z"/><path d="M709.72,580.7l1.13-5.3h1l-1,4.44h1.36l-.18.86Z"/><path d="M715.48,579.62a1.38,1.38,0,0,1-1.54,1.15c-.71,0-1.08-.27-1.08-.81a1,1,0,0,1,0-.34l.67-3.15a1.39,1.39,0,0,1,1.53-1.15c.72,0,1.09.26,1.09.81a1.93,1.93,0,0,1,0,.34Zm-.33-3.15a.14.14,0,0,0,0-.09c0-.14-.07-.2-.24-.2a.32.32,0,0,0-.35.29h0l-.68,3.15v.1c0,.13,0,.2.25.2a.33.33,0,0,0,.35-.29h0Z"/><path d="M717,576.47a1.39,1.39,0,0,1,1.53-1.15c.72,0,1.09.26,1.09.81a1.93,1.93,0,0,1,0,.34l-.17.75h-1l.17-.75v-.09c0-.14,0-.2-.23-.2a.33.33,0,0,0-.37.29l-.09.46h0c0,.19.2.44.59.73a1.22,1.22,0,0,1,.6,1,1,1,0,0,1,0,.24l-.14.66a1.37,1.37,0,0,1-1.53,1.15c-.73,0-1.09-.27-1.09-.81a1.93,1.93,0,0,1,0-.34l.17-.75h1l-.17.75v.09c0,.14.08.2.24.2a.34.34,0,0,0,.36-.29l.12-.58v-.08c0-.21-.18-.46-.58-.75a1.23,1.23,0,0,1-.6-1,1.13,1.13,0,0,1,0-.26Z"/><path d="M720.64,575.4H723l-.17.85h-1.36l-.28,1.37h1.15l-.18.86H721l-.29,1.36h1.35l-.19.86h-2.34Z"/><path d="M723.72,575.4h1.37c.66,0,1,.27,1,.79a2.16,2.16,0,0,1,0,.36l-.64,3.06a1.31,1.31,0,0,1-1.44,1.15h-1.38Zm.81.85-.77,3.59h.29a.31.31,0,0,0,.35-.29h0l.65-3.07v-.09c0-.14,0-.2-.25-.2Z"/><path d="M709.29,585.69l-.12,1.9h-1l.07-1.11h-.73l-.4,1.11h-1l.69-1.9,1.3-3.46h1.29Zm-1,0,.11-1.53-.59,1.53Z"/><path d="M713.15,582.23l-.19.86h-.78l-.95,4.44h-1l1-4.44h-.8l.19-.86Z"/><path d="M716.78,585.37l1.73-3.77h1l-1.27,6h-1l.56-2.67-1.14,2.67H716v-2.7l-.56,2.7h-1l1.28-6h1Z"/><path d="M720.33,582.23h2.34l-.18.86h-1.35l-.29,1.36H722l-.19.86h-1.16l-.28,1.36h1.35l-.18.86h-2.35Z"/><path d="M722.21,587.59l1.18-5.36h1l-.93,4.44h1.34l-.18.86Z"/><path d="M726.35,582.23h1.3c.66,0,1,.27,1,.79a2.16,2.16,0,0,1,0,.36l-.16.78a1.15,1.15,0,0,1-.85.93l.44,2.44H727l-.23-2.19h0l-.47,2.19h-1Zm.81.86-.29,1.36h.34a.36.36,0,0,0,.24-.28l.16-.78v-.09c0-.14-.08-.2-.25-.2Z"/><path d="M731.28,586.52a1.37,1.37,0,0,1-1.53,1.14c-.74,0-1.09-.27-1.09-.81v-.33l.68-3.16a1.37,1.37,0,0,1,1.53-1.15c.73,0,1.08.26,1.08.81a1.93,1.93,0,0,1,0,.34Zm-.32-3.16v-.09c0-.14-.08-.2-.23-.2a.34.34,0,0,0-.37.29l-.67,3.16v.09c0,.14.07.2.24.2a.35.35,0,0,0,.36-.29Z"/><path d="M732.77,583.36a1.37,1.37,0,0,1,1.53-1.15c.72,0,1.09.26,1.09.81a1.93,1.93,0,0,1,0,.34l-.16.75h-1l.15-.75a.14.14,0,0,0,0-.09c0-.14-.08-.2-.25-.2a.32.32,0,0,0-.35.29h0l-.1.46h0c0,.19.19.44.59.74a1.19,1.19,0,0,1,.58,1,.53.53,0,0,1,0,.25l-.13.65a1.38,1.38,0,0,1-1.53,1.15c-.72,0-1.09-.27-1.09-.81a1,1,0,0,1,0-.34l.15-.75h1l-.16.75v.1c0,.13.1.2.25.2a.34.34,0,0,0,.35-.29h0l.12-.58a.09.09,0,0,0,0-.07c0-.22-.2-.46-.58-.75a1.26,1.26,0,0,1-.6-1v-.26Z"/><path d="M736.44,582.23h2.34l-.18.86h-1.35l-.29,1.36h1.17l-.19.86h-1.16l-.28,1.36h1.35l-.18.86h-2.35Z"/><path d="M742.45,385a1.53,1.53,0,0,1-1.54,1.3c-.7,0-1-.29-1-.88a1.48,1.48,0,0,1,0-.42l.75-3.58a1.52,1.52,0,0,1,1.53-1.3c.7,0,1.06.3,1.06.89a2.8,2.8,0,0,1,0,.41l-.19.84h-1l.18-.84a.24.24,0,0,0,0-.12A.2.2,0,0,0,742,381h0c-.18,0-.31.11-.37.34l-.75,3.58v.12c0,.16.08.22.23.22a.39.39,0,0,0,.37-.34l.18-.84h1Z"/><path d="M743,386.2l1.13-5.3h1l-.95,4.45h1.36l-.18.85Z"/><path d="M748.79,385.1a1.39,1.39,0,0,1-1.54,1.15c-.72,0-1.08-.28-1.08-.81a1,1,0,0,1,0-.34l.67-3.15a1.37,1.37,0,0,1,1.53-1.15c.72,0,1.09.26,1.09.79a2.16,2.16,0,0,1,0,.36Zm-.33-3.15a.17.17,0,0,0,0-.1c0-.13-.07-.2-.24-.21a.31.31,0,0,0-.35.29v0l-.68,3.15v.09c0,.14,0,.2.25.2a.32.32,0,0,0,.35-.29h0Z"/><path d="M750.27,382a1.37,1.37,0,0,1,1.53-1.15c.72,0,1.09.26,1.09.79a2.16,2.16,0,0,1,0,.36l-.17.75h-1l.16-.75v-.1c0-.13,0-.2-.23-.21a.34.34,0,0,0-.36.31l-.1.45h0c0,.2.2.44.6.74a1.21,1.21,0,0,1,.6,1,1,1,0,0,1,0,.24l-.14.66a1.38,1.38,0,0,1-1.53,1.15c-.73,0-1.09-.28-1.09-.81a1.93,1.93,0,0,1,0-.34l.17-.75h1l-.17.75v.09c0,.14.07.2.24.2a.35.35,0,0,0,.36-.29l.12-.58v-.08c0-.21-.19-.47-.58-.75a1.25,1.25,0,0,1-.6-1,1.13,1.13,0,0,1,0-.26Z"/><path d="M754,380.87h2.35l-.17.86h-1.37l-.27,1.36h1.15l-.19.86h-1.15l-.29,1.36h1.35l-.18.86H752.9Z"/><path d="M757.09,380.87h1.37c.66,0,1,.26,1,.8a2,2,0,0,1,0,.35l-.64,3.06a1.31,1.31,0,0,1-1.44,1.14H756Zm.81.86-.77,3.58h.29a.31.31,0,0,0,.35-.28h0l.65-3.06a.14.14,0,0,0,0-.09c0-.14,0-.2-.25-.2Z"/><path d="M742.6,391.15l-.12,1.91h-1l.08-1.1h-.73l-.4,1.1h-1l.69-1.9,1.33-3.4h1.29Zm-1,0,.1-1.53-.58,1.53Z"/><path d="M746.46,387.73l-.19.86h-.78l-1,4.44h-1l1-4.44h-.8l.18-.86Z"/><path d="M748.66,388.27a1.54,1.54,0,0,1,1.53-1.3c.71,0,1.06.3,1.06.89a2.8,2.8,0,0,1,0,.41l-.17.84h-1l.17-.84v-.12a.2.2,0,0,0-.23-.22h0c-.19,0-.31.11-.36.34l-.12.54v.07c0,.23.18.51.58.83a1.41,1.41,0,0,1,.55,1.09,1.71,1.71,0,0,1,0,.32l-.15.73a1.54,1.54,0,0,1-1.53,1.31c-.7,0-1.06-.31-1.06-.89a2.94,2.94,0,0,1,0-.42l.19-.84h1l-.18.84a.29.29,0,0,0,0,.13c0,.15.07.21.24.21a.37.37,0,0,0,.36-.34l.15-.67v-.09c0-.25-.19-.52-.57-.84a1.45,1.45,0,0,1-.55-1.11,1.71,1.71,0,0,1,0-.32Z"/><path d="M753.87,392a1.39,1.39,0,0,1-1.53,1.15c-.72,0-1.09-.28-1.09-.81a1.93,1.93,0,0,1,0-.34l.89-4.23h1l-.88,4.23a.14.14,0,0,0,0,.09c0,.14.07.2.24.2a.31.31,0,0,0,.35-.29h0l.91-4.23h1Z"/><path d="M755.68,387.73h1l.13,2.5.53-2.48h.93l-1.12,5.3h-1l-.14-2.41-.5,2.41h-1Z"/><path d="M758.89,388.84a1.38,1.38,0,0,1,1.53-1.15c.74,0,1.09.26,1.09.79a2.16,2.16,0,0,1,0,.36l-.17.75h-1l.17-.75a.17.17,0,0,1,0-.1c0-.13-.1-.19-.25-.21a.36.36,0,0,0-.37.31l-.09.46h0c0,.19.2.44.6.73a1.25,1.25,0,0,1,.6,1v.24l-.14.66a1.39,1.39,0,0,1-1.53,1.15c-.74,0-1.09-.28-1.09-.81a1.93,1.93,0,0,1,0-.34l.17-.75h1l-.17.75V392c0,.14.08.2.25.2a.32.32,0,0,0,.35-.29h0l.12-.58h0c0-.22-.19-.48-.59-.75a1.23,1.23,0,0,1-.58-1,.57.57,0,0,1,0-.26Z"/><path d="M762.58,387.73h2.35l-.19.86H763.4l-.3,1.36h1.17l-.19.86h-1.16l-.29,1.37H764l-.19.85h-2.34Z"/><path d="M768,387.73l-.18.86H767l-1,4.44h-1l1-4.44h-.79l.18-.86Z"/><path d="M99.94,641.31a1.52,1.52,0,0,1-1.53,1.3c-.72,0-1.07-.29-1.07-.89a2.8,2.8,0,0,1,0-.41l.77-3.58a1.52,1.52,0,0,1,1.53-1.3c.72,0,1.07.29,1.07.88a2.94,2.94,0,0,1,0,.42l-.18.84h-1l.18-.84v-.13s-.09-.21-.24-.21h0c-.2,0-.32.11-.37.34l-.76,3.58v.12s.09.22.24.22a.4.4,0,0,0,.37-.34l.18-.84h1Z"/><path d="M100.53,642.51l1.13-5.29h1l-1,4.44h1.35l-.18.85Z"/><path d="M106.22,641.45a1.38,1.38,0,0,1-1.53,1.15c-.73,0-1.09-.28-1.09-.81v-.34l.68-3.17a1.38,1.38,0,0,1,1.53-1.15c.73,0,1.09.28,1.09.81v.34Zm-.32-3.17v-.09c0-.13,0-.2-.23-.2a.35.35,0,0,0-.37.29l-.61,3.17v.09c0,.12,0,.2.25.2a.35.35,0,0,0,.35-.29Z"/><path d="M107.75,638.28a1.39,1.39,0,0,1,1.54-1.15c.71,0,1.08.28,1.08.81a1,1,0,0,1,0,.34l-.15.76h-1l.16-.76v-.09c0-.13,0-.2-.25-.2a.32.32,0,0,0-.35.29h0l-.11.47h0c0,.2.2.44.6.74a1.19,1.19,0,0,1,.58,1,.57.57,0,0,1,0,.26l-.14.66a1.37,1.37,0,0,1-1.53,1.15c-.72,0-1.08-.28-1.08-.82a.91.91,0,0,1,0-.33l.15-.77h1l-.15.77a.14.14,0,0,0,0,.09c0,.12.09.2.25.2a.32.32,0,0,0,.35-.29h0l.12-.6h0c0-.21-.2-.47-.58-.77a1.17,1.17,0,0,1-.6-1,1.13,1.13,0,0,1,0-.26Z"/><path d="M111.44,637.22h2.35l-.19.86h-1.34l-.29,1.36h1.16l-.18.84h-1.17l-.27,1.38h1.34l-.18.85h-2.34Z"/><path d="M114.51,637.22h1.38c.67,0,1,.26,1,.8a2,2,0,0,1,0,.35l-.64,3a1.32,1.32,0,0,1-1.44,1.15h-1.38Zm.81.86-.75,3.58h.29a.33.33,0,0,0,.35-.3l.64-3v-.09c0-.14,0-.2-.22-.2Z"/><path d="M100.1,647.5l-.11,1.9H99v-1.09h-.72l-.41,1.09h-1l.69-1.89,1.33-3.4h1.29Zm-1,0,.09-1.53-.56,1.53Z"/><path d="M104,644.11l-.19.86H103L102,649.4h-1L102,645h-.8l.19-.86Z"/><path d="M107.59,647.19l1.7-3.7h1l-1.27,6h-1l.57-2.66-1.15,2.66h-.71v-2.68l-.55,2.61h-1l1.27-6h1Z"/><path d="M111.08,644.11h2.34l-.18.86h-1.35l-.29,1.36h1.16l-.18.85h-1.17l-.29,1.37h1.35l-.18.85h-2.35Z"/><path d="M113,649.4l1.12-5.29h1l-.94,4.44h1.35l-.19.85Z"/><path d="M117.14,644.11h1.33c.66,0,1,.26,1,.8a2,2,0,0,1,0,.35l-.17.78a1.16,1.16,0,0,1-.84.94l.44,2.42h-1.08l-.23-2.19h0l-.46,2.17H116Zm.81.86-.29,1.36H118a.29.29,0,0,0,.23-.26l.17-.78a.14.14,0,0,0,0-.09c0-.14,0-.2-.24-.2Z"/><path d="M122.07,648.34a1.36,1.36,0,0,1-1.53,1.15c-.72,0-1.09-.28-1.09-.81a1.93,1.93,0,0,1,0-.34l.68-3.17a1.38,1.38,0,0,1,1.53-1.15c.72,0,1.09.28,1.09.81a1.93,1.93,0,0,1,0,.34Zm-.32-3.17a.14.14,0,0,0,0-.09c0-.12,0-.2-.24-.2a.35.35,0,0,0-.36.29l-.67,3.17v.09a.23.23,0,0,0,.24.2.33.33,0,0,0,.36-.29h0Z"/><path d="M123.56,645.17a1.39,1.39,0,0,1,1.53-1.15c.72,0,1.07.28,1.07.81a1,1,0,0,1,0,.34l-.15.77h-1l.17-.77v-.09a.24.24,0,0,0-.25-.2.35.35,0,0,0-.37.29l-.09.47h0c0,.2.2.44.6.74a1.23,1.23,0,0,1,.58,1,1.13,1.13,0,0,1,0,.26l-.14.66a1.37,1.37,0,0,1-1.53,1.15c-.72,0-1.09-.28-1.09-.81v-.34l.17-.77h1l-.17.77v.09c0,.12,0,.2.24.2a.35.35,0,0,0,.36-.29l.12-.6h0c0-.21-.2-.47-.6-.76a1.24,1.24,0,0,1-.58-1,1.13,1.13,0,0,1,0-.26Z"/><path d="M127.25,644.11h2.34l-.18.86h-1.35l-.29,1.36h1.16l-.18.85h-1.09l-.29,1.37h1.35l-.18.85h-2.41Z"/><path d="M802.74,421.29h1.82c.93,0,1.41.41,1.41,1.24a3.32,3.32,0,0,1,0,.63l-.28,1.27a1.84,1.84,0,0,1-1.25,1.53l.53,4h-1.53l-.3-3.71h0l-.78,3.71h-1.44Zm1.13,1.38-.47,2.25h.16a.81.81,0,0,0,.31,0,.56.56,0,0,0,.38-.46l.26-1.27a.48.48,0,0,0,0-.17c0-.22-.1-.32-.33-.32Z"/><path d="M807.52,422.3H809L807.33,430h-1.44Z"/><path d="M810.29,422.3h1.93c1,0,1.44.38,1.44,1.13a2.26,2.26,0,0,1,0,.52l-.92,4.32a1.91,1.91,0,0,1-2.08,1.66h-2Zm1.18,1.22-1.11,5.17h.43a.47.47,0,0,0,.51-.41h0l.93-4.32v-.13a.4.4,0,0,0-.35-.3Z"/><path d="M815.28,422.3h3.38l-.26,1.22h-1.94l-.41,2h1.67l-.26,1.22h-1.69l-.4,2h1.93l-.26,1.24h-3.37Z"/><path d="M819.28,423.83a2,2,0,0,1,2.22-1.65c1,0,1.53.38,1.53,1.16a2,2,0,0,1,0,.49l-.23,1.09h-1.39l.23-1.09v-.14c0-.18-.11-.27-.34-.29a.49.49,0,0,0-.52.43l-.14.67a.17.17,0,0,0,0,.1c0,.29.29.64.86,1a1.75,1.75,0,0,1,.84,1.43,1.09,1.09,0,0,1,0,.36l-.2.95a2,2,0,0,1-2.2,1.66c-1.06,0-1.54-.4-1.54-1.18a1.93,1.93,0,0,1,0-.48l.23-1.1h1.44l-.24,1.1v.13c0,.2.11.29.35.29a.49.49,0,0,0,.51-.42l.18-.85v-.1c0-.32-.29-.67-.86-1.08a1.77,1.77,0,0,1-.84-1.53,2.28,2.28,0,0,1,0-.37Z"/><path d="M824.59,422.3H826l-.67,3.2h.84l.69-3.2h1.44L826.67,430h-1.44l.68-3.2h-.84l-.69,3.2h-1.44Z"/><path d="M832.23,427.18l-.16,2.75h-1.48l.1-1.54h-1.06l-.58,1.54h-1.44l1-2.73,1.93-4.9h1.85Zm-1.44-.07.14-2.3-.83,2.3Z"/><path d="M834.65,422.3h1.89c1,0,1.44.38,1.44,1.13a4.51,4.51,0,0,1,0,.52l-.25,1.12a1.66,1.66,0,0,1-1.22,1.35l.64,3.51h-1.53l-.35-3.16h0l-.68,3.16h-1.42Zm1.17,1.22-.42,2h.49a.46.46,0,0,0,.34-.4l.25-1.12v-.13c0-.19-.13-.3-.36-.3Z"/><path d="M839.39,422.3h3.46l-.26,1.22h-2l-.43,2h1.69l-.26,1.22H840l-.41,2h1.94l-.26,1.24h-3.38Z"/><path d="M849.29,422.12l-3.06,6.43H848l-.31,1.38h-3.26l.17-.83,3.06-6.43h-1.53l.29-1.38h3.18Z"/><path d="M852.79,428.39a2,2,0,0,1-2.21,1.66c-1,0-1.53-.4-1.53-1.18a3.84,3.84,0,0,1,0-.48l1-4.59a2,2,0,0,1,2.2-1.65c1,0,1.54.38,1.54,1.16a4,4,0,0,1,0,.49Zm-.46-4.59v-.14c0-.18-.11-.27-.36-.29a.49.49,0,0,0-.5.43l-1,4.59v.13a.41.41,0,0,0,.35.29.48.48,0,0,0,.52-.42Z"/><path d="M855.34,422.3h1.43l.18,3.6.77-3.59h1.34L857.44,430H856l-.18-3.46-.74,3.46h-1.39Z"/><path d="M860.41,422.3h3.39l-.26,1.22h-1.95l-.43,2h1.69l-.28,1.22H860.9l-.41,2h1.94l-.26,1.24h-3.38Z"/><path d="M540.88,712.65h1.88c1,0,1.41.39,1.41,1.22a3.32,3.32,0,0,1,0,.63l-.28,1.27a1.87,1.87,0,0,1-1.25,1.53l.53,4h-1.53l-.3-3.7h0l-.8,3.7H539.1ZM542,714l-.48,2.25h.17a.54.54,0,0,0,.31,0,.52.52,0,0,0,.36-.45l.28-1.28a.43.43,0,0,0,0-.16c0-.22-.11-.33-.34-.33Z"/><path d="M545.75,713.66h1.42l-1.62,7.65h-1.43Z"/><path d="M548.44,713.66h2c1,0,1.44.38,1.44,1.14a2.17,2.17,0,0,1,0,.51l-.92,4.32a1.9,1.9,0,0,1-2.14,1.65h-2Zm1.18,1.22-1.1,5.18H549a.49.49,0,0,0,.5-.43l.92-4.32a.33.33,0,0,0,0-.14c0-.18-.11-.29-.34-.29Z"/><path d="M553.4,713.66h3.39l-.26,1.22h-1.95l-.43,2h1.69l-.28,1.22h-1.67l-.41,2h1.95l-.27,1.22h-3.29Z"/><path d="M557.43,715.19a2,2,0,0,1,2.21-1.66c1,0,1.53.39,1.53,1.17a4,4,0,0,1,0,.49l-.23,1.08h-1.41l.23-1.08a.33.33,0,0,0,0-.14c0-.18-.11-.28-.35-.28a.49.49,0,0,0-.52.42l-.14.67V716c0,.29.27.65.86,1.06a1.76,1.76,0,0,1,.84,1.42,2.28,2.28,0,0,1,0,.37l-.22,1a2,2,0,0,1-2.2,1.66c-1,0-1.53-.4-1.53-1.18a1.93,1.93,0,0,1,0-.48l.24-1.09h1.43l-.23,1.09v.12a.41.41,0,0,0,.35.29.46.46,0,0,0,.52-.41l.18-.86v-.09c0-.32-.27-.67-.84-1.09a1.81,1.81,0,0,1-.86-1.53,2.16,2.16,0,0,1,0-.36Z"/><path d="M562.73,713.66h1.39l-.69,3.2h.86l.68-3.2h1.44l-1.63,7.65h-1.42l.67-3.2h-.86l-.58,3.17h-1.53Z"/><path d="M570.39,718.53l-.14,2.75h-1.53l.11-1.53h-1.06l-.58,1.53h-1.44l1-2.72,1.91-4.9h1.87Zm-1.44-.08.14-2.3-.83,2.3Z"/><path d="M572.79,713.66h1.89c1,0,1.43.38,1.43,1.14a2.17,2.17,0,0,1,0,.51l-.22,1.12a1.69,1.69,0,0,1-1.23,1.35l.64,3.5h-1.53l-.35-3.15h0l-.67,3.15h-1.44Zm1.18,1.22-.43,2H574a.48.48,0,0,0,.35-.4l.25-1.12v-.14a.4.4,0,0,0-.35-.29Z"/><path d="M577.54,713.66H581l-.26,1.22h-2l-.41,2H580l-.26,1.22h-1.66l-.42,2h2l-.26,1.22h-3.43Z"/><path d="M587.43,713.47l-3.06,6.43h1.7l-.29,1.38H582.5l.18-.82,3-6.44h-1.53l.31-1.37h3.18Z"/><path d="M590.94,719.75a2,2,0,0,1-2.21,1.66c-1.05,0-1.53-.4-1.53-1.18a3.84,3.84,0,0,1,0-.48l1-4.59a2,2,0,0,1,2.22-1.66c1,0,1.53.39,1.53,1.17a4,4,0,0,1,0,.49Zm-.46-4.59V715a.38.38,0,0,0-.35-.28.48.48,0,0,0-.52.42l-1,4.59v.12c0,.2.12.29.35.29a.45.45,0,0,0,.51-.4h0Z"/><path d="M593.5,713.66h1.41l.19,3.59.77-3.58h1.35l-1.63,7.66h-1.4l-.19-3.46-.78,3.41h-1.39Z"/><path d="M598.57,713.66h3.37l-.27,1.22h-1.94l-.41,2H601l-.26,1.22h-1.67l-.42,2h2l-.26,1.22h-3.39Z"/></g></svg>