<svg xmlns="http://www.w3.org/2000/svg" xmlns:xlink="http://www.w3.org/1999/xlink" viewBox="0 0 612 612"><defs><style>.cls-1{isolation:isolate;}.cls-2{fill:url(#linear-gradient);}.cls-3{fill:url(#linear-gradient-2);}.cls-4{fill:url(#linear-gradient-3);}.cls-5{fill:url(#linear-gradient-4);}.cls-6{fill:url(#linear-gradient-5);}.cls-7{fill:url(#linear-gradient-6);}.cls-8{fill:url(#linear-gradient-7);}.cls-9{fill:url(#linear-gradient-8);}.cls-10,.cls-11{opacity:0.5;}.cls-10{fill:url(#linear-gradient-9);}.cls-11{fill:url(#linear-gradient-10);}.cls-12,.cls-40,.cls-46,.cls-50{fill:#fff;}.cls-13{fill:url(#radial-gradient);}.cls-14{fill:#896545;}.cls-15{fill:url(#radial-gradient-3);}.cls-16{opacity:0.72;fill:url(#radial-gradient-5);}.cls-17{fill:#ffde00;}.cls-17,.cls-18,.cls-19,.cls-20,.cls-21,.cls-22,.cls-23,.cls-38,.cls-42,.cls-48{stroke:#000;}.cls-17,.cls-18,.cls-19,.cls-20,.cls-21,.cls-22,.cls-23,.cls-38,.cls-40,.cls-42,.cls-46,.cls-48,.cls-50{stroke-miterlimit:10;}.cls-17,.cls-18,.cls-19,.cls-20,.cls-21,.cls-22,.cls-23,.cls-38{stroke-width:0.13px;}.cls-18{fill:#f20;}.cls-19{fill:#0fb900;}.cls-20{fill:#ff900e;}.cls-21{fill:#0057e7;}.cls-22{fill:#ff23ff;}.cls-23,.cls-36,.cls-42,.cls-48{fill:#7e43e7;}.cls-24{fill:url(#radial-gradient-7);}.cls-25{fill:url(#radial-gradient-8);}.cls-26{fill:url(#radial-gradient-9);}.cls-27{fill:url(#radial-gradient-10);}.cls-28{fill:url(#radial-gradient-11);}.cls-29{fill:url(#radial-gradient-12);}.cls-30{fill:url(#radial-gradient-13);}.cls-31{fill:url(#radial-gradient-14);}.cls-32{fill:url(#radial-gradient-15);}.cls-33{fill:url(#radial-gradient-17);}.cls-34{fill:url(#radial-gradient-19);}.cls-35,.cls-43,.cls-44,.cls-45{fill:none;stroke-linecap:round;stroke-linejoin:round;}.cls-35,.cls-43,.cls-44,.cls-45,.cls-50{stroke:#7e43e7;}.cls-35,.cls-40{stroke-width:0.25px;}.cls-35{stroke-dasharray:1 1;}.cls-37{mix-blend-mode:multiply;fill:url(#radial-gradient-21);}.cls-38{fill:url(#linear-gradient-11);}.cls-39{fill:#5e5e5e;}.cls-40,.cls-46{stroke:#fc1610;}.cls-41{fill:#fc1610;}.cls-42{stroke-width:0.13px;}.cls-43,.cls-44,.cls-45{stroke-width:0.5px;}.cls-44{stroke-dasharray:1.93 1.93;}.cls-45{stroke-dasharray:2.01 2.01;}.cls-46{stroke-width:0.15px;}.cls-47{fill:url(#linear-gradient-12);}.cls-48{stroke-width:0.14px;}.cls-49{fill:url(#linear-gradient-13);}.cls-50{stroke-width:0.57px;}</style><linearGradient id="linear-gradient" x1="502.89" y1="275.93" x2="508.25" y2="410.83" gradientUnits="userSpaceOnUse"><stop offset="0.03" stop-color="#fff" stop-opacity="0"/><stop offset="0.17" stop-color="#feda62"/><stop offset="0.58" stop-color="#feda62"/><stop offset="0.84" stop-color="#fff" stop-opacity="0"/></linearGradient><linearGradient id="linear-gradient-2" x1="277.75" y1="425.68" x2="277.75" y2="405.18" gradientTransform="translate(-26.43 22.16) rotate(-5.1)" gradientUnits="userSpaceOnUse"><stop offset="0" stop-color="#fff" stop-opacity="0"/><stop offset="1" stop-color="#feda62"/></linearGradient><linearGradient id="linear-gradient-3" x1="298.15" y1="291.57" x2="298.15" y2="308.9" gradientUnits="userSpaceOnUse"><stop offset="0" stop-color="#fff" stop-opacity="0"/><stop offset="0.02" stop-color="#fffefb" stop-opacity="0.02"/><stop offset="0.23" stop-color="#fff3cd" stop-opacity="0.32"/><stop offset="0.44" stop-color="#feeaa7" stop-opacity="0.56"/><stop offset="0.62" stop-color="#fee389" stop-opacity="0.75"/><stop offset="0.78" stop-color="#fede74" stop-opacity="0.89"/><stop offset="0.91" stop-color="#fedb67" stop-opacity="0.97"/><stop offset="1" stop-color="#feda62"/></linearGradient><linearGradient id="linear-gradient-4" x1="7.94" y1="341.12" x2="570.33" y2="341.12" gradientUnits="userSpaceOnUse"><stop offset="0" stop-color="#fff" stop-opacity="0"/><stop offset="0.05" stop-color="#feda62"/><stop offset="0.93" stop-color="#feda62"/><stop offset="1" stop-color="#fff" stop-opacity="0"/></linearGradient><linearGradient id="linear-gradient-5" x1="159.68" y1="414.79" x2="159.68" y2="393.96" gradientTransform="matrix(1, 0, 0, 1, 0, 0)" xlink:href="#linear-gradient-2"/><linearGradient id="linear-gradient-6" x1="98.22" y1="415.07" x2="98.22" y2="395.21" gradientTransform="translate(463.25 217.63) rotate(78.41)" xlink:href="#linear-gradient-2"/><linearGradient id="linear-gradient-7" x1="50.68" y1="415.07" x2="50.68" y2="395.21" gradientTransform="translate(426.86 265.51) rotate(78.41)" xlink:href="#linear-gradient-2"/><linearGradient id="linear-gradient-8" x1="387.78" y1="434.59" x2="377.87" y2="360.6" gradientUnits="userSpaceOnUse"><stop offset="0.45" stop-color="#fff" stop-opacity="0"/><stop offset="0.5" stop-color="#fff9e6" stop-opacity="0.16"/><stop offset="0.64" stop-color="#feeba8" stop-opacity="0.55"/><stop offset="0.78" stop-color="#feda62"/></linearGradient><linearGradient id="linear-gradient-9" x1="180.96" y1="259.66" x2="494.67" y2="259.66" gradientUnits="userSpaceOnUse"><stop offset="0" stop-color="#fff" stop-opacity="0"/><stop offset="0.11" stop-color="#fcf4b8"/><stop offset="0.89" stop-color="#fcf4b8"/><stop offset="1" stop-color="#fff" stop-opacity="0"/></linearGradient><linearGradient id="linear-gradient-10" x1="89.28" y1="507.61" x2="594.72" y2="507.61" xlink:href="#linear-gradient-9"/><radialGradient id="radial-gradient" cx="165.82" cy="303.77" r="12.67" gradientUnits="userSpaceOnUse"><stop offset="0.11" stop-color="#3adedf" stop-opacity="0.5"/><stop offset="1" stop-color="#3adedf"/></radialGradient><radialGradient id="radial-gradient-3" cx="471.96" cy="309.79" r="8.88" xlink:href="#radial-gradient"/><radialGradient id="radial-gradient-5" cx="512.85" cy="314.76" r="8.71" xlink:href="#radial-gradient"/><radialGradient id="radial-gradient-7" cx="70.02" cy="362.61" r="13.54" xlink:href="#radial-gradient"/><radialGradient id="radial-gradient-8" cx="187.02" cy="371.34" r="13.54" xlink:href="#radial-gradient"/><radialGradient id="radial-gradient-9" cx="416.18" cy="349.3" r="13.54" xlink:href="#radial-gradient"/><radialGradient id="radial-gradient-10" cx="38.64" cy="315.63" r="13.54" xlink:href="#radial-gradient"/><radialGradient id="radial-gradient-11" cx="385.44" cy="287.02" r="13.54" xlink:href="#radial-gradient"/><radialGradient id="radial-gradient-12" cx="527.85" cy="387.56" r="13.54" xlink:href="#radial-gradient"/><radialGradient id="radial-gradient-13" cx="456.29" cy="267.51" r="13.54" xlink:href="#radial-gradient"/><radialGradient id="radial-gradient-14" cx="321.41" cy="239.15" r="13.54" xlink:href="#radial-gradient"/><radialGradient id="radial-gradient-15" cx="362.3" cy="386.71" r="12.67" xlink:href="#radial-gradient"/><radialGradient id="radial-gradient-17" cx="289.5" cy="273.7" r="12.67" xlink:href="#radial-gradient"/><radialGradient id="radial-gradient-19" cx="262.52" cy="407.14" r="12.67" xlink:href="#radial-gradient"/><radialGradient id="radial-gradient-21" cx="299.6" cy="229.13" r="284.7" gradientTransform="translate(0 53.88) scale(1 0.76)" gradientUnits="userSpaceOnUse"><stop offset="0.03" stop-color="#7e43e7" stop-opacity="0.5"/><stop offset="0.27" stop-color="#7e43e7" stop-opacity="0.5"/><stop offset="0.88" stop-color="#7e43e7" stop-opacity="0"/></radialGradient><linearGradient id="linear-gradient-11" x1="395" y1="120.37" x2="411.86" y2="120.37" gradientUnits="userSpaceOnUse"><stop offset="0.05" stop-color="#feda62"/><stop offset="0.93" stop-color="#feda62"/></linearGradient><linearGradient id="linear-gradient-12" x1="886" y1="949.08" x2="926.11" y2="949.08" gradientTransform="translate(1337.99 -426.76) rotate(97)" gradientUnits="userSpaceOnUse"><stop offset="0.19" stop-color="#3adedf" stop-opacity="0"/><stop offset="0.28" stop-color="#3adedf" stop-opacity="0.08"/><stop offset="0.46" stop-color="#3adedf" stop-opacity="0.27"/><stop offset="0.7" stop-color="#3adedf" stop-opacity="0.59"/><stop offset="1" stop-color="#3adedf"/></linearGradient><linearGradient id="linear-gradient-13" x1="444.07" y1="268.38" x2="479.72" y2="268.38" gradientTransform="matrix(1, -0.1, 0.1, 1, -19.13, 103.4)" xlink:href="#linear-gradient-12"/></defs><title>Artboard 1</title><g class="cls-1"><g id="streets"><path class="cls-2" d="M501.38,412.34l-21.8-3c4.35-31.8,29.17-132,30.51-137.77l21.43,5C531.2,278,505.59,381.53,501.38,412.34Z"/><path class="cls-3" d="M279.63,341c-2,11.64-6.29,32.11-8.42,39.4-5.94,20.26-4.39,44.69-4.32,45.72l21.95-1.47c0-.21-1.37-21.52,3.48-38.06,2.39-8.17,6.88-29.58,9-41.85.33-1.91.65-3.85,1-5.8l-22.51,1.31C279.71,340.5,279.67,340.75,279.63,341Z"/><path class="cls-4" d="M293.37,286.62c-.05.3-5.68,30.41-12.06,54.65l22.53.7c1.45-5.72,2.61-11.39,3.88-17,4-17.82,7.11-33.41,7.28-34.31Z"/><polygon class="cls-5" points="7.94 345.75 7.94 385.56 569.67 336.55 570.33 336.49 570.33 296.68 7.94 345.75"/><polygon class="cls-6" points="162.86 420.6 145.23 416.98 155.23 368.23 174.13 365.65 162.86 420.6"/><rect class="cls-7" x="73.34" y="383.78" width="49.76" height="18" transform="translate(-306.29 410.06) rotate(-78.41)"/><rect class="cls-8" x="25.79" y="385.41" width="49.76" height="18" transform="translate(-345.88 364.8) rotate(-78.41)"/><path class="cls-9" d="M391.81,447.93C386,436.36,359.94,358.5,357,349.66L374.06,344c11.44,34.23,29.9,88,33.85,95.92Z"/><path class="cls-10" d="M313.58,279.92c-1.06,0-2.13,0-3.21-.07a120.38,120.38,0,0,1-18.4-2.78c-6.51-1.34-12.65-2.61-18.74-2.56-1.79,0-3.67.13-5.66.26-6.77.44-14.43.93-21.55-2.88-4.32-2.31-7.4-5.7-10.12-8.69a47.69,47.69,0,0,0-4.22-4.28c-4.92-4.17-12.56-6.12-21-5.34s-16.75,3.9-24.88,6.92L181,247.39c9-3.35,18.28-6.82,28.49-7.76,12.29-1.12,23.4,1.93,31.28,8.61a57.56,57.56,0,0,1,5.52,5.53c2.15,2.37,4.19,4.6,6.38,5.77,3.6,1.93,8.67,1.61,14,1.26,2.09-.13,4.26-.27,6.46-.29,7.56-.06,14.72,1.42,21.66,2.84a107.83,107.83,0,0,0,16.26,2.51c13.73.67,27.18-4.21,41.43-9.37,15.67-5.68,31.88-11.55,49.28-10,7.89.73,15.28,3,22.43,5.11,4.27,1.29,8.31,2.5,12.4,3.4,10.54,2.32,21.38,2.54,32.86,2.77a251.33,251.33,0,0,1,25.22,1.35L493,273.07c-7.77-.94-15.57-1.09-23.83-1.26-11.65-.23-23.7-.47-35.59-3.08-4.61-1-9.09-2.37-13.43-3.68-6.78-2-13.19-4-19.68-4.57-14.28-1.31-28.34,3.78-43.22,9.17C343.3,274.71,328.91,279.92,313.58,279.92Z"/><path class="cls-11" d="M90.93,532.71l-1.65-13.9c11.14-1.32,273.25-32.42,318.76-35.4,46.65-3.05,151.33,2,186.68,9.07L592,506.21c-34.56-6.88-137.19-11.83-183-8.82C363.81,500.34,93.66,532.39,90.93,532.71Z"/></g><g id="_elements" data-name="+ elements"><path class="cls-12" d="M163,307.65s-7.31-1.39-3.5,6.45c2-4.73,3.91-5.37,3.91-5.37s1.63.88,3.3,5.68c.56-.82,3.62-6.67-1.5-6.85,4.33-.25,6.13,1.65,6.13,1.65s-.64-6.56-6-3.62a10.06,10.06,0,0,1,4.22-2.6s-4.75-3.36-5.41,2.44c-.37-2.43-1.16-4.95-5.35-3.13a12.52,12.52,0,0,1,3.71,3.1s-7.21-4.1-7,4.13A14.1,14.1,0,0,1,163,307.65Z"/><path class="cls-13" d="M163,307.65s-7.31-1.39-3.5,6.45c2-4.73,3.91-5.37,3.91-5.37s1.63.88,3.3,5.68c.56-.82,3.62-6.67-1.5-6.85,4.33-.25,6.13,1.65,6.13,1.65s-.64-6.56-6-3.62a10.06,10.06,0,0,1,4.22-2.6s-4.75-3.36-5.41,2.44c-.37-2.43-1.16-4.95-5.35-3.13a12.52,12.52,0,0,1,3.71,3.1s-7.21-4.1-7,4.13A14.1,14.1,0,0,1,163,307.65Z"/><path class="cls-14" d="M161.86,329.51s-.52-14.5,1.46-22.68c.26.05.61.09.61.09a171.07,171.07,0,0,0-.46,22.59Z"/><path class="cls-13" d="M163,307.65s-7.31-1.39-3.5,6.45c2-4.73,3.91-5.37,3.91-5.37s1.63.88,3.3,5.68c.56-.82,3.62-6.67-1.5-6.85,4.33-.25,6.13,1.65,6.13,1.65s-.64-6.56-6-3.62a10.06,10.06,0,0,1,4.22-2.6s-4.75-3.36-5.41,2.44c-.37-2.43-1.16-4.95-5.35-3.13a12.52,12.52,0,0,1,3.71,3.1s-7.21-4.1-7,4.13A14.1,14.1,0,0,1,163,307.65Z"/><path class="cls-12" d="M470,312.51s-5.12-1-2.45,4.52c1.38-3.32,2.73-3.77,2.73-3.77s1.15.62,2.32,4c.4-.58,2.53-4.68-1.05-4.8,3-.18,4.29,1.15,4.29,1.15s-.45-4.59-4.21-2.53a6.91,6.91,0,0,1,3-1.82s-3.33-2.36-3.79,1.7c-.26-1.7-.81-3.47-3.75-2.19a8.79,8.79,0,0,1,2.6,2.18s-5.05-2.88-4.92,2.89A9.83,9.83,0,0,1,470,312.51Z"/><path class="cls-15" d="M470,312.51s-5.12-1-2.45,4.52c1.38-3.32,2.73-3.77,2.73-3.77s1.15.62,2.32,4c.4-.58,2.53-4.68-1.05-4.8,3-.18,4.29,1.15,4.29,1.15s-.45-4.59-4.21-2.53a6.91,6.91,0,0,1,3-1.82s-3.33-2.36-3.79,1.7c-.26-1.7-.81-3.47-3.75-2.19a8.79,8.79,0,0,1,2.6,2.18s-5.05-2.88-4.92,2.89A9.83,9.83,0,0,1,470,312.51Z"/><path class="cls-14" d="M469.18,327.83s-.36-10.16,1-15.9l.44.07a119.64,119.64,0,0,0-.33,15.83Z"/><path class="cls-15" d="M470,312.51s-5.12-1-2.45,4.52c1.38-3.32,2.73-3.77,2.73-3.77s1.15.62,2.32,4c.4-.58,2.53-4.68-1.05-4.8,3-.18,4.29,1.15,4.29,1.15s-.45-4.59-4.21-2.53a6.91,6.91,0,0,1,3-1.82s-3.33-2.36-3.79,1.7c-.26-1.7-.81-3.47-3.75-2.19a8.79,8.79,0,0,1,2.6,2.18s-5.05-2.88-4.92,2.89A9.83,9.83,0,0,1,470,312.51Z"/><path class="cls-12" d="M517.86,316.32a2.81,2.81,0,0,0-2.22-2.74,2.59,2.59,0,0,0,.08-.63,2.44,2.44,0,0,0-4.5-1.3,3.18,3.18,0,0,0-5.34,2.34,3.16,3.16,0,0,0,.64,1.91,2.44,2.44,0,0,0,1.47,4.39,2.26,2.26,0,0,0,.69-.1h0a1.75,1.75,0,0,0,3.08,1.14,2.37,2.37,0,0,0,1.39.44,2.44,2.44,0,0,0,2.44-2.44,1.27,1.27,0,0,0,0-.2.25.25,0,0,0,0-.07A2.8,2.8,0,0,0,517.86,316.32Z"/><path class="cls-16" d="M517.86,316.32a2.81,2.81,0,0,0-2.22-2.74,2.59,2.59,0,0,0,.08-.63,2.44,2.44,0,0,0-4.5-1.3,3.18,3.18,0,0,0-5.34,2.34,3.16,3.16,0,0,0,.64,1.91,2.44,2.44,0,0,0,1.47,4.39,2.26,2.26,0,0,0,.69-.1h0a1.75,1.75,0,0,0,3.08,1.14,2.37,2.37,0,0,0,1.39.44,2.44,2.44,0,0,0,2.44-2.44,1.27,1.27,0,0,0,0-.2.25.25,0,0,0,0-.07A2.8,2.8,0,0,0,517.86,316.32Z"/><path class="cls-14" d="M515.62,315.52c-.43.74-.16,1.35-.85,1.73-.44.25-.72.19-1.16.43a8.51,8.51,0,0,0,.85-2.92c0-.34-.24-.46-.28-.12a4.53,4.53,0,0,1-.62,2,1.93,1.93,0,0,0-.28-.36,1.65,1.65,0,0,1-.39-.51,4.27,4.27,0,0,1-.19-.82c-.05-.33-.35-.29-.3.05a4.13,4.13,0,0,0,.3,1.29c.21.33.57.49.57.95a3.32,3.32,0,0,1-.64,1,3.77,3.77,0,0,0-.82,1.3c-.06-.29-.27-.65-1.06-1.27a5.11,5.11,0,0,1-1.06-1.12,18.37,18.37,0,0,1,.86-2,5.19,5.19,0,0,0,.24-2c0-.34-.28-.34-.26,0a4.8,4.8,0,0,1-.63,2.37,6.85,6.85,0,0,0-.6,1.32.08.08,0,0,0,0,0,5.75,5.75,0,0,1-.64-2.41c0-.34-.36-.25-.33.09a5.3,5.3,0,0,0,.86,3c.13.16,1.05,1.06,1.21,1.26a2.3,2.3,0,0,0-.76-.2,2.77,2.77,0,0,1-2.17-1.29c-.21-.23-.45,0-.24.27.44.51.75,1,1.34,1.21,1.64.5,2.69.5,2.69,1.76,0,3-.1,9.94-.1,9.94h1.13s0-9.1,0-9.5a6.1,6.1,0,0,1,1.15-2.6c.43-.44,1-.4,1.69-.87s.38-1.2.77-1.87C516.05,315.4,515.79,315.24,515.62,315.52Z"/><path class="cls-16" d="M517.86,316.32a2.81,2.81,0,0,0-2.22-2.74,2.59,2.59,0,0,0,.08-.63,2.44,2.44,0,0,0-4.5-1.3,3.18,3.18,0,0,0-5.34,2.34,3.16,3.16,0,0,0,.64,1.91,2.44,2.44,0,0,0,1.47,4.39,2.26,2.26,0,0,0,.69-.1h0a1.75,1.75,0,0,0,3.08,1.14,2.37,2.37,0,0,0,1.39.44,2.44,2.44,0,0,0,2.44-2.44,1.27,1.27,0,0,0,0-.2.25.25,0,0,0,0-.07A2.8,2.8,0,0,0,517.86,316.32Z"/><polygon class="cls-17" points="295.17 309.04 292.76 320.16 296.05 319.87 298.46 308.72 295.17 309.04"/><polygon class="cls-18" points="288.62 309.68 286.24 320.75 289.48 320.46 291.88 309.37 288.62 309.68"/><polygon class="cls-19" points="298.46 308.72 296.05 319.87 299.33 319.57 301.75 308.4 298.46 308.72"/><polygon class="cls-20" points="291.88 309.37 289.48 320.46 292.76 320.16 295.17 309.04 291.88 309.37"/><polygon class="cls-21" points="301.75 308.4 299.33 319.57 302.61 319.27 305.04 308.08 301.75 308.4"/><polygon class="cls-22" points="311.62 307.43 308.33 307.76 305.9 318.98 309.18 318.68 311.62 307.43"/><polygon class="cls-23" points="305.04 308.08 302.61 319.27 305.9 318.98 308.33 307.76 305.04 308.08"/><polygon class="cls-17" points="281.85 362.68 279.28 373.76 282.57 373.51 285.14 362.4 281.85 362.68"/><polygon class="cls-18" points="275.29 363.23 272.76 374.26 276 374.01 278.55 362.96 275.29 363.23"/><polygon class="cls-19" points="285.14 362.4 282.57 373.51 285.86 373.26 288.43 362.13 285.14 362.4"/><polygon class="cls-20" points="278.55 362.96 276 374.01 279.28 373.76 281.85 362.68 278.55 362.96"/><polygon class="cls-21" points="288.43 362.13 285.86 373.26 289.14 373.01 291.73 361.85 288.43 362.13"/><polygon class="cls-22" points="298.31 361.3 295.02 361.57 292.43 372.76 295.72 372.51 298.31 361.3"/><polygon class="cls-23" points="291.73 361.85 289.14 373.01 292.43 372.76 295.02 361.57 291.73 361.85"/><path class="cls-12" d="M77.81,365.05a4.37,4.37,0,0,0-3.45-4.27,3.91,3.91,0,0,0,.13-1,3.8,3.8,0,0,0-7-2,4.94,4.94,0,0,0-7.3,6.61,3.8,3.8,0,0,0,2.29,6.83,4.19,4.19,0,0,0,1.07-.15h0a2.73,2.73,0,0,0,4.79,1.79,3.8,3.8,0,0,0,6-3.12,3,3,0,0,0,0-.31l.06-.11A4.37,4.37,0,0,0,77.81,365.05Z"/><path class="cls-24" d="M77.81,365.05a4.37,4.37,0,0,0-3.45-4.27,3.91,3.91,0,0,0,.13-1,3.8,3.8,0,0,0-7-2,4.94,4.94,0,0,0-7.3,6.61,3.8,3.8,0,0,0,2.29,6.83,4.19,4.19,0,0,0,1.07-.15h0a2.73,2.73,0,0,0,4.79,1.79,3.8,3.8,0,0,0,6-3.12,3,3,0,0,0,0-.31l.06-.11A4.37,4.37,0,0,0,77.81,365.05Z"/><path class="cls-14" d="M73.84,363c-.62,1.06-.24,1.93-1.22,2.48-.63.35-1,.26-1.65.61a12.39,12.39,0,0,0,1.21-4.17c0-.48-.35-.65-.41-.17a6.31,6.31,0,0,1-.89,2.86,2.44,2.44,0,0,0-.39-.52,2.54,2.54,0,0,1-.56-.73,5,5,0,0,1-.26-1.16c-.08-.48-.51-.42-.43.06a5.68,5.68,0,0,0,.42,1.85c.29.46.82.7.81,1.35a4.45,4.45,0,0,1-.92,1.4,5.41,5.41,0,0,0-1.16,1.86c-.09-.43-.39-.94-1.52-1.82a7.51,7.51,0,0,1-1.51-1.6,29.68,29.68,0,0,1,1.23-2.84,7.61,7.61,0,0,0,.35-2.85c0-.48-.4-.49-.37,0a6.86,6.86,0,0,1-.91,3.37,10.32,10.32,0,0,0-.85,1.89l0,.06a8.19,8.19,0,0,1-.92-3.44c0-.48-.52-.35-.48.13A7.72,7.72,0,0,0,64.59,366c.19.22,1.5,1.51,1.73,1.8a3.74,3.74,0,0,0-1.08-.29c-1.48-.18-1.95-.51-3.1-1.83-.3-.34-.64,0-.34.38.63.73,1.06,1.45,1.92,1.72,2.34.72,3.83.72,3.83,2.52,0,4.29-.14,15.72-.14,15.72H69s0-14.53,0-15.1a8.71,8.71,0,0,1,1.65-3.71c.61-.62,1.46-.56,2.41-1.24s.53-1.71,1.09-2.67C74.45,362.85,74.07,362.62,73.84,363Z"/><path class="cls-12" d="M194.81,373.77a4.36,4.36,0,0,0-3.45-4.26,4,4,0,0,0,.13-1,3.79,3.79,0,0,0-7-2,4.88,4.88,0,0,0-3.35-1.32,4.95,4.95,0,0,0-3.95,7.93,3.8,3.8,0,0,0,3.36,6.67h0a2.73,2.73,0,0,0,4.79,1.78,3.72,3.72,0,0,0,2.16.68,3.8,3.8,0,0,0,3.8-3.8c0-.1,0-.21,0-.31l.06-.11A4.37,4.37,0,0,0,194.81,373.77Z"/><path class="cls-25" d="M194.81,373.77a4.36,4.36,0,0,0-3.45-4.26,4,4,0,0,0,.13-1,3.79,3.79,0,0,0-7-2,4.88,4.88,0,0,0-3.35-1.32,4.95,4.95,0,0,0-3.95,7.93,3.8,3.8,0,0,0,3.36,6.67h0a2.73,2.73,0,0,0,4.79,1.78,3.72,3.72,0,0,0,2.16.68,3.8,3.8,0,0,0,3.8-3.8c0-.1,0-.21,0-.31l.06-.11A4.37,4.37,0,0,0,194.81,373.77Z"/><path class="cls-14" d="M190.84,371.74c-.62,1.06-.24,1.93-1.22,2.48-.63.35-1,.26-1.65.61a12.32,12.32,0,0,0,1.21-4.17c0-.48-.35-.65-.41-.17a6.31,6.31,0,0,1-.89,2.86,2.44,2.44,0,0,0-.39-.52,2.41,2.41,0,0,1-.56-.73,5,5,0,0,1-.26-1.16c-.08-.48-.51-.41-.43.06a5.62,5.62,0,0,0,.42,1.85c.29.47.82.7.81,1.36a4.59,4.59,0,0,1-.92,1.39,5.51,5.51,0,0,0-1.16,1.86c-.09-.42-.39-.94-1.52-1.82a7.74,7.74,0,0,1-1.51-1.59,28.79,28.79,0,0,1,1.23-2.85,7.61,7.61,0,0,0,.35-2.85c0-.48-.4-.49-.37,0a6.9,6.9,0,0,1-.91,3.38,9.94,9.94,0,0,0-.85,1.88l-.05.06a8.15,8.15,0,0,1-.92-3.44c0-.47-.52-.35-.48.13a7.72,7.72,0,0,0,1.23,4.31c.19.23,1.5,1.51,1.73,1.8a3.74,3.74,0,0,0-1.08-.29c-1.48-.18-2-.5-3.1-1.83-.3-.34-.64,0-.34.38.63.73,1.06,1.46,1.92,1.72,2.34.73,3.83.73,3.83,2.52-.05,4.3-.14,15.72-.14,15.72H186s0-14.52,0-15.1a8.81,8.81,0,0,1,1.65-3.71c.61-.62,1.46-.56,2.41-1.23s.53-1.72,1.09-2.68C191.45,371.57,191.07,371.35,190.84,371.74Z"/><path class="cls-12" d="M424,351.74a4.37,4.37,0,0,0-3.45-4.27,3.91,3.91,0,0,0,.13-1,3.79,3.79,0,0,0-7-2,4.95,4.95,0,0,0-7.3,6.62,3.8,3.8,0,0,0,3.35,6.67h0a2.73,2.73,0,0,0,4.79,1.79,3.84,3.84,0,0,0,2.16.68,3.8,3.8,0,0,0,3.8-3.8c0-.11,0-.21,0-.31l.06-.11A4.37,4.37,0,0,0,424,351.74Z"/><path class="cls-26" d="M424,351.74a4.37,4.37,0,0,0-3.45-4.27,3.91,3.91,0,0,0,.13-1,3.79,3.79,0,0,0-7-2,4.95,4.95,0,0,0-7.3,6.62,3.8,3.8,0,0,0,3.35,6.67h0a2.73,2.73,0,0,0,4.79,1.79,3.84,3.84,0,0,0,2.16.68,3.8,3.8,0,0,0,3.8-3.8c0-.11,0-.21,0-.31l.06-.11A4.37,4.37,0,0,0,424,351.74Z"/><path class="cls-14" d="M420,349.71c-.61,1.06-.23,1.93-1.22,2.48-.63.35-1,.26-1.65.61a12.16,12.16,0,0,0,1.21-4.17c.06-.48-.35-.65-.4-.17a6.56,6.56,0,0,1-.89,2.86,2.83,2.83,0,0,0-.39-.52,2.26,2.26,0,0,1-.56-.73,5,5,0,0,1-.27-1.16c-.08-.48-.5-.42-.43.06a5.63,5.63,0,0,0,.43,1.85c.29.47.81.7.81,1.35a4.67,4.67,0,0,1-.92,1.4,5.44,5.44,0,0,0-1.17,1.86c-.08-.43-.39-.94-1.51-1.82a7.59,7.59,0,0,1-1.52-1.6,29.76,29.76,0,0,1,1.24-2.84,7.4,7.4,0,0,0,.34-2.85c0-.48-.4-.49-.37,0a6.75,6.75,0,0,1-.9,3.37,11.09,11.09,0,0,0-.86,1.89l-.05.06a8.14,8.14,0,0,1-.91-3.44c-.05-.48-.53-.35-.48.13a7.64,7.64,0,0,0,1.23,4.31c.19.22,1.5,1.51,1.73,1.8a3.82,3.82,0,0,0-1.08-.29c-1.49-.18-2-.51-3.11-1.83-.29-.34-.63,0-.34.38.63.73,1.07,1.45,1.92,1.72,2.34.72,3.84.72,3.84,2.52-.05,4.29-.15,15.72-.15,15.72h1.62s0-14.53,0-15.1a8.73,8.73,0,0,1,1.64-3.71c.61-.62,1.47-.56,2.42-1.24s.53-1.71,1.09-2.67C420.61,349.54,420.23,349.32,420,349.71Z"/><path class="cls-12" d="M46.43,318.07A4.37,4.37,0,0,0,43,313.8a3.93,3.93,0,0,0,.13-1,3.8,3.8,0,0,0-7-2,4.95,4.95,0,0,0-8.3,3.64,4.86,4.86,0,0,0,1,3,3.79,3.79,0,0,0,3.35,6.67h0A2.73,2.73,0,0,0,37,325.88a3.8,3.8,0,0,0,6-3.12,3,3,0,0,0,0-.31l.06-.11A4.36,4.36,0,0,0,46.43,318.07Z"/><path class="cls-27" d="M46.43,318.07A4.37,4.37,0,0,0,43,313.8a3.93,3.93,0,0,0,.13-1,3.8,3.8,0,0,0-7-2,4.95,4.95,0,0,0-8.3,3.64,4.86,4.86,0,0,0,1,3,3.79,3.79,0,0,0,3.35,6.67h0A2.73,2.73,0,0,0,37,325.88a3.8,3.8,0,0,0,6-3.12,3,3,0,0,0,0-.31l.06-.11A4.36,4.36,0,0,0,46.43,318.07Z"/><path class="cls-14" d="M42.46,316c-.62,1.06-.24,1.93-1.22,2.47-.63.36-1,.27-1.65.62A12.46,12.46,0,0,0,40.8,315c.05-.48-.35-.65-.41-.17a6.31,6.31,0,0,1-.89,2.86,2.15,2.15,0,0,0-.39-.52,2.54,2.54,0,0,1-.56-.73,5,5,0,0,1-.26-1.16c-.08-.48-.51-.42-.43.06a5.68,5.68,0,0,0,.42,1.85c.3.46.82.69.81,1.35a4.54,4.54,0,0,1-.91,1.4A5.29,5.29,0,0,0,37,321.76c-.09-.43-.39-.94-1.52-1.82a7.51,7.51,0,0,1-1.51-1.6,29.68,29.68,0,0,1,1.23-2.84,7.61,7.61,0,0,0,.35-2.85c0-.49-.4-.49-.37,0a6.86,6.86,0,0,1-.91,3.37,10.32,10.32,0,0,0-.85,1.89l0,.06a8.34,8.34,0,0,1-.92-3.44c0-.48-.52-.35-.48.13A7.72,7.72,0,0,0,33.21,319c.19.22,1.5,1.51,1.73,1.8a3.44,3.44,0,0,0-1.08-.29c-1.48-.18-1.95-.51-3.1-1.83-.3-.34-.64,0-.34.38.63.73,1.06,1.45,1.92,1.72,2.34.72,3.83.72,3.83,2.52C36.12,327.56,36,339,36,339h1.61s0-14.53,0-15.1a8.71,8.71,0,0,1,1.65-3.71c.61-.62,1.46-.57,2.41-1.24s.53-1.71,1.09-2.67C43.07,315.87,42.69,315.64,42.46,316Z"/><path class="cls-12" d="M393.23,289.46a4.37,4.37,0,0,0-3.45-4.27,3.85,3.85,0,0,0,.13-1,3.8,3.8,0,0,0-7-2,4.94,4.94,0,0,0-7.29,6.62,3.8,3.8,0,0,0,3.35,6.67h0a2.73,2.73,0,0,0,4.79,1.79,3.79,3.79,0,0,0,6-3.12,3,3,0,0,0,0-.31l.06-.11A4.36,4.36,0,0,0,393.23,289.46Z"/><path class="cls-28" d="M393.23,289.46a4.37,4.37,0,0,0-3.45-4.27,3.85,3.85,0,0,0,.13-1,3.8,3.8,0,0,0-7-2,4.94,4.94,0,0,0-7.29,6.62,3.8,3.8,0,0,0,3.35,6.67h0a2.73,2.73,0,0,0,4.79,1.79,3.79,3.79,0,0,0,6-3.12,3,3,0,0,0,0-.31l.06-.11A4.36,4.36,0,0,0,393.23,289.46Z"/><path class="cls-14" d="M389.26,287.43c-.62,1.06-.24,1.93-1.22,2.48-.63.35-1,.26-1.65.61a12.39,12.39,0,0,0,1.21-4.17c0-.48-.35-.65-.41-.17a6.31,6.31,0,0,1-.89,2.86,2.15,2.15,0,0,0-.39-.52,2.41,2.41,0,0,1-.56-.73,5,5,0,0,1-.26-1.16c-.08-.48-.51-.42-.43.06a5.62,5.62,0,0,0,.42,1.85c.3.47.82.7.81,1.35a4.54,4.54,0,0,1-.91,1.4,5.38,5.38,0,0,0-1.17,1.86c-.09-.43-.39-.94-1.52-1.82a7.51,7.51,0,0,1-1.51-1.6,29.68,29.68,0,0,1,1.23-2.84,7.61,7.61,0,0,0,.35-2.85c0-.48-.4-.49-.37,0a6.86,6.86,0,0,1-.91,3.37,10.32,10.32,0,0,0-.85,1.89l-.05.06a8.3,8.3,0,0,1-.92-3.44c0-.48-.52-.35-.48.13a7.72,7.72,0,0,0,1.23,4.31c.19.22,1.5,1.51,1.73,1.8a3.74,3.74,0,0,0-1.08-.29c-1.48-.18-2-.5-3.1-1.83-.3-.34-.64,0-.34.38.63.73,1.06,1.45,1.92,1.72,2.34.72,3.83.72,3.83,2.52-.05,4.29-.14,15.72-.14,15.72h1.61s0-14.53,0-15.1a8.76,8.76,0,0,1,1.65-3.71c.61-.62,1.46-.56,2.41-1.24s.53-1.71,1.09-2.67C389.87,287.26,389.49,287,389.26,287.43Z"/><path class="cls-12" d="M535.64,390a4.35,4.35,0,0,0-3.45-4.26,3.56,3.56,0,0,0,.13-1,3.79,3.79,0,0,0-7-2,4.95,4.95,0,0,0-7.3,6.62,3.79,3.79,0,0,0,2.29,6.82,3.72,3.72,0,0,0,1.06-.15h0a2.73,2.73,0,0,0,2.73,2.73,2.7,2.7,0,0,0,2.06-.94,3.79,3.79,0,0,0,6-3.12c0-.1,0-.21,0-.31l.06-.11A4.36,4.36,0,0,0,535.64,390Z"/><path class="cls-29" d="M535.64,390a4.35,4.35,0,0,0-3.45-4.26,3.56,3.56,0,0,0,.13-1,3.79,3.79,0,0,0-7-2,4.95,4.95,0,0,0-7.3,6.62,3.79,3.79,0,0,0,2.29,6.82,3.72,3.72,0,0,0,1.06-.15h0a2.73,2.73,0,0,0,2.73,2.73,2.7,2.7,0,0,0,2.06-.94,3.79,3.79,0,0,0,6-3.12c0-.1,0-.21,0-.31l.06-.11A4.36,4.36,0,0,0,535.64,390Z"/><path class="cls-14" d="M531.67,388c-.61,1.06-.23,1.93-1.21,2.48-.63.35-1,.26-1.66.61a12.1,12.1,0,0,0,1.21-4.17c.06-.48-.34-.65-.4-.17a6.43,6.43,0,0,1-.89,2.86,2.44,2.44,0,0,0-.39-.52,2.26,2.26,0,0,1-.56-.73,5,5,0,0,1-.27-1.16c-.07-.48-.5-.41-.43.06a5.63,5.63,0,0,0,.43,1.85c.29.47.81.7.81,1.36a4.59,4.59,0,0,1-.92,1.39,5.54,5.54,0,0,0-1.17,1.86c-.08-.43-.38-.94-1.51-1.82a7.47,7.47,0,0,1-1.51-1.59,26.61,26.61,0,0,1,1.23-2.85,7.61,7.61,0,0,0,.35-2.85c0-.48-.4-.49-.38,0a6.81,6.81,0,0,1-.9,3.38,10.65,10.65,0,0,0-.86,1.88l0,.06a8.29,8.29,0,0,1-.91-3.44c0-.48-.53-.35-.48.13a7.72,7.72,0,0,0,1.23,4.31c.19.23,1.5,1.51,1.73,1.8a3.82,3.82,0,0,0-1.08-.29c-1.48-.18-2-.5-3.11-1.83-.29-.34-.63,0-.34.38.63.73,1.07,1.45,1.92,1.72,2.34.73,3.84.73,3.84,2.52,0,4.3-.15,15.72-.15,15.72h1.62s0-14.52,0-15.1a8.69,8.69,0,0,1,1.65-3.71c.6-.62,1.46-.56,2.41-1.24s.53-1.71,1.09-2.67C532.28,387.8,531.9,387.58,531.67,388Z"/><path class="cls-12" d="M464.08,270a4.37,4.37,0,0,0-3.45-4.27,3.93,3.93,0,0,0,.13-1,3.8,3.8,0,0,0-7-2,4.94,4.94,0,0,0-7.29,6.61,3.79,3.79,0,0,0,3.35,6.67h0a2.72,2.72,0,0,0,4.79,1.78,3.75,3.75,0,0,0,2.16.68,3.8,3.8,0,0,0,3.8-3.79c0-.11,0-.21,0-.32l.06-.1A4.36,4.36,0,0,0,464.08,270Z"/><path class="cls-30" d="M464.08,270a4.37,4.37,0,0,0-3.45-4.27,3.93,3.93,0,0,0,.13-1,3.8,3.8,0,0,0-7-2,4.94,4.94,0,0,0-7.29,6.61,3.79,3.79,0,0,0,3.35,6.67h0a2.72,2.72,0,0,0,4.79,1.78,3.75,3.75,0,0,0,2.16.68,3.8,3.8,0,0,0,3.8-3.79c0-.11,0-.21,0-.32l.06-.1A4.36,4.36,0,0,0,464.08,270Z"/><path class="cls-14" d="M460.11,267.92c-.62,1.06-.24,1.92-1.22,2.47-.63.35-1,.27-1.65.62a12.46,12.46,0,0,0,1.21-4.17c.05-.49-.35-.66-.41-.18a6.31,6.31,0,0,1-.89,2.86,2.31,2.31,0,0,0-.39-.51,2.54,2.54,0,0,1-.56-.73,5.09,5.09,0,0,1-.26-1.17c-.08-.47-.51-.41-.43.07a5.56,5.56,0,0,0,.42,1.84c.3.47.82.7.81,1.36a4.54,4.54,0,0,1-.91,1.4,5.34,5.34,0,0,0-1.17,1.85c-.09-.42-.39-.93-1.52-1.81a7.51,7.51,0,0,1-1.51-1.6,28.79,28.79,0,0,1,1.23-2.85,7.58,7.58,0,0,0,.35-2.85c0-.48-.4-.48-.37,0a6.9,6.9,0,0,1-.91,3.38,10.32,10.32,0,0,0-.85,1.89.1.1,0,0,0-.05.06,8.34,8.34,0,0,1-.92-3.44c0-.48-.52-.36-.48.13.14,1.55.28,3.15,1.23,4.3.19.23,1.5,1.52,1.73,1.8a3.44,3.44,0,0,0-1.08-.28c-1.48-.19-1.95-.51-3.1-1.84-.3-.34-.64.05-.34.39.63.72,1.06,1.45,1.92,1.71,2.34.73,3.83.73,3.83,2.53-.05,4.29-.14,15.71-.14,15.71h1.61s0-14.52,0-15.09a8.71,8.71,0,0,1,1.65-3.71c.61-.62,1.46-.57,2.41-1.24s.53-1.72,1.09-2.68C460.72,267.74,460.34,267.52,460.11,267.92Z"/><path class="cls-12" d="M329.2,241.59a4.37,4.37,0,0,0-3.45-4.27,3.93,3.93,0,0,0,.13-1,3.8,3.8,0,0,0-7-2,4.94,4.94,0,0,0-7.29,6.61,3.79,3.79,0,0,0,3.35,6.67h0a2.72,2.72,0,0,0,4.79,1.78,3.75,3.75,0,0,0,2.16.68,3.8,3.8,0,0,0,3.8-3.79c0-.11,0-.21,0-.32l.06-.1A4.36,4.36,0,0,0,329.2,241.59Z"/><path class="cls-31" d="M329.2,241.59a4.37,4.37,0,0,0-3.45-4.27,3.93,3.93,0,0,0,.13-1,3.8,3.8,0,0,0-7-2,4.94,4.94,0,0,0-7.29,6.61,3.79,3.79,0,0,0,3.35,6.67h0a2.72,2.72,0,0,0,4.79,1.78,3.75,3.75,0,0,0,2.16.68,3.8,3.8,0,0,0,3.8-3.79c0-.11,0-.21,0-.32l.06-.1A4.36,4.36,0,0,0,329.2,241.59Z"/><path class="cls-14" d="M325.23,239.56c-.62,1.06-.24,1.92-1.22,2.47-.63.35-1,.27-1.65.62a12.46,12.46,0,0,0,1.21-4.17c.05-.49-.35-.66-.41-.18a6.27,6.27,0,0,1-.89,2.86,2.31,2.31,0,0,0-.39-.51,2.54,2.54,0,0,1-.56-.73,5.09,5.09,0,0,1-.26-1.17c-.08-.47-.51-.41-.43.07a5.56,5.56,0,0,0,.42,1.84c.3.47.82.7.81,1.36a4.54,4.54,0,0,1-.91,1.4,5.34,5.34,0,0,0-1.17,1.85c-.09-.42-.39-.93-1.52-1.81a7.51,7.51,0,0,1-1.51-1.6A28.79,28.79,0,0,1,318,239a7.58,7.58,0,0,0,.35-2.85c0-.48-.4-.48-.37,0a6.9,6.9,0,0,1-.91,3.38,10.32,10.32,0,0,0-.85,1.89.1.1,0,0,0-.05.06,8.34,8.34,0,0,1-.92-3.44c0-.48-.52-.36-.48.13.14,1.55.28,3.15,1.23,4.3.19.23,1.5,1.52,1.73,1.81a3.19,3.19,0,0,0-1.08-.29c-1.48-.19-1.95-.51-3.1-1.84-.3-.33-.64.05-.34.39.63.72,1.06,1.45,1.92,1.71,2.34.73,3.83.73,3.83,2.53-.05,4.29-.14,15.71-.14,15.71h1.61s0-14.52,0-15.09a8.71,8.71,0,0,1,1.65-3.71c.61-.62,1.46-.57,2.41-1.24s.53-1.72,1.09-2.68C325.84,239.38,325.46,239.16,325.23,239.56Z"/><path class="cls-12" d="M359.45,390.59s-7.31-1.39-3.5,6.45c2-4.73,3.9-5.37,3.9-5.37s1.64.88,3.31,5.68c.56-.82,3.61-6.67-1.5-6.85,4.32-.25,6.12,1.65,6.12,1.65s-.64-6.56-6-3.62a10,10,0,0,1,4.21-2.6s-4.75-3.36-5.4,2.44c-.37-2.43-1.16-4.95-5.35-3.13a12.48,12.48,0,0,1,3.71,3.11s-7.21-4.11-7,4.12A14.1,14.1,0,0,1,359.45,390.59Z"/><path class="cls-32" d="M359.45,390.59s-7.31-1.39-3.5,6.45c2-4.73,3.9-5.37,3.9-5.37s1.64.88,3.31,5.68c.56-.82,3.61-6.67-1.5-6.85,4.32-.25,6.12,1.65,6.12,1.65s-.64-6.56-6-3.62a10,10,0,0,1,4.21-2.6s-4.75-3.36-5.4,2.44c-.37-2.43-1.16-4.95-5.35-3.13a12.48,12.48,0,0,1,3.71,3.11s-7.21-4.11-7,4.12A14.1,14.1,0,0,1,359.45,390.59Z"/><path class="cls-14" d="M358.34,412.45s-.53-14.5,1.45-22.68l.62.1a172,172,0,0,0-.47,22.59Z"/><path class="cls-32" d="M359.45,390.59s-7.31-1.39-3.5,6.45c2-4.73,3.9-5.37,3.9-5.37s1.64.88,3.31,5.68c.56-.82,3.61-6.67-1.5-6.85,4.32-.25,6.12,1.65,6.12,1.65s-.64-6.56-6-3.62a10,10,0,0,1,4.21-2.6s-4.75-3.36-5.4,2.44c-.37-2.43-1.16-4.95-5.35-3.13a12.48,12.48,0,0,1,3.71,3.11s-7.21-4.11-7,4.12A14.1,14.1,0,0,1,359.45,390.59Z"/><path class="cls-12" d="M286.64,277.58s-7.3-1.39-3.5,6.45c2-4.73,3.91-5.38,3.91-5.38s1.63.89,3.3,5.69c.57-.82,3.62-6.67-1.5-6.85,4.33-.26,6.13,1.65,6.13,1.65s-.64-6.56-6-3.62a10,10,0,0,1,4.21-2.6s-4.75-3.36-5.41,2.44c-.37-2.43-1.16-4.95-5.35-3.13a12.37,12.37,0,0,1,3.71,3.1s-7.21-4.1-7,4.13A14,14,0,0,1,286.64,277.58Z"/><path class="cls-33" d="M286.64,277.58s-7.3-1.39-3.5,6.45c2-4.73,3.91-5.38,3.91-5.38s1.63.89,3.3,5.69c.57-.82,3.62-6.67-1.5-6.85,4.33-.26,6.13,1.65,6.13,1.65s-.64-6.56-6-3.62a10,10,0,0,1,4.21-2.6s-4.75-3.36-5.41,2.44c-.37-2.43-1.16-4.95-5.35-3.13a12.37,12.37,0,0,1,3.71,3.1s-7.21-4.1-7,4.13A14,14,0,0,1,286.64,277.58Z"/><path class="cls-14" d="M285.53,299.44s-.52-14.5,1.46-22.68c.26.05.62.09.62.09a170.17,170.17,0,0,0-.47,22.59Z"/><path class="cls-33" d="M286.64,277.58s-7.3-1.39-3.5,6.45c2-4.73,3.91-5.38,3.91-5.38s1.63.89,3.3,5.69c.57-.82,3.62-6.67-1.5-6.85,4.33-.26,6.13,1.65,6.13,1.65s-.64-6.56-6-3.62a10,10,0,0,1,4.21-2.6s-4.75-3.36-5.41,2.44c-.37-2.43-1.16-4.95-5.35-3.13a12.37,12.37,0,0,1,3.71,3.1s-7.21-4.1-7,4.13A14,14,0,0,1,286.64,277.58Z"/><path class="cls-12" d="M259.67,411s-7.31-1.39-3.5,6.45c2-4.73,3.9-5.38,3.9-5.38s1.64.88,3.31,5.69c.56-.82,3.61-6.67-1.5-6.85,4.32-.26,6.12,1.65,6.12,1.65s-.64-6.56-6-3.62a10,10,0,0,1,4.21-2.6s-4.75-3.36-5.4,2.43c-.37-2.42-1.16-5-5.35-3.12a12.52,12.52,0,0,1,3.71,3.1s-7.21-4.1-7,4.13A14,14,0,0,1,259.67,411Z"/><path class="cls-34" d="M259.67,411s-7.31-1.39-3.5,6.45c2-4.73,3.9-5.38,3.9-5.38s1.64.88,3.31,5.69c.56-.82,3.61-6.67-1.5-6.85,4.32-.26,6.12,1.65,6.12,1.65s-.64-6.56-6-3.62a10,10,0,0,1,4.21-2.6s-4.75-3.36-5.4,2.43c-.37-2.42-1.16-5-5.35-3.12a12.52,12.52,0,0,1,3.71,3.1s-7.21-4.1-7,4.13A14,14,0,0,1,259.67,411Z"/><path class="cls-14" d="M258.56,432.88S258,418.38,260,410.2c.27.05.62.09.62.09a170.17,170.17,0,0,0-.47,22.59Z"/><path class="cls-34" d="M259.67,411s-7.31-1.39-3.5,6.45c2-4.73,3.9-5.38,3.9-5.38s1.64.88,3.31,5.69c.56-.82,3.61-6.67-1.5-6.85,4.32-.26,6.12,1.65,6.12,1.65s-.64-6.56-6-3.62a10,10,0,0,1,4.21-2.6s-4.75-3.36-5.4,2.43c-.37-2.42-1.16-5-5.35-3.12a12.52,12.52,0,0,1,3.71,3.1s-7.21-4.1-7,4.13A14,14,0,0,1,259.67,411Z"/><polyline class="cls-35" points="117.49 444.1 152.33 444.1 152.33 426.67"/><polygon class="cls-36" points="152.33 424.9 153.35 427.39 152.33 426.8 151.32 427.39 152.33 424.9"/><polyline class="cls-35" points="78 444.1 44.83 444.1 44.83 426.67"/><polygon class="cls-36" points="44.83 424.9 45.85 427.39 44.83 426.8 43.82 427.39 44.83 424.9"/><path class="cls-37" d="M96.11,178.53c20.76.52,43,10.84,63.31,2.94,17.61-6.85,26.44-27.18,46.41-29.89,8.17-1.1,13.42,2.48,20.27,6,9.16,4.7,19-.72,28.5,3.37,10.92,4.67,20.2,9.76,32.48,10.74,12.1,1,23.36-1.46,34.39-6,6.57-2.71,12.29-5.12,19.29-2.44,4.95,1.88,9.21,3.69,14.55,4.45,5.87.83,11.81,1.22,17.71,1.84a124.76,124.76,0,0,1,28.81,6.73c6.82,2.38,13.53,4,20.35.8,3.63-1.7,6.9-4.1,10.74-5.4,5.3-1.81,8.65-.5,12.76,2.8,5,4,8,5.55,14.68,4.22,3.78-.74,7.44-2,11.22-2.7,15.51-3.08,32.86,3.65,46.9,9.14,12.62,4.93,29.4,14,49.56,14v-163H42.91l-2.43,163c21.4-6.32,27-13.45,30-15A52.88,52.88,0,0,1,96.11,178.53Z"/><path class="cls-38" d="M399.18,119.36a8.9,8.9,0,0,1,1.4-7.74,9.11,9.11,0,1,0,11.28,13.18,8.9,8.9,0,0,1-12.68-5.44Z"/><path class="cls-39" d="M41,200.76c18.67-4.87,31.54-20,51.89-20.54,18.43-.44,36.18,7,54.65,5.62,18.81-1.45,27.85-14.54,41.45-24.8,4.7-3.55,10.24-6.65,16.25-7.66,7.09-1.2,12.29,1.34,18.11,4.59,3.17,1.77,6.31,3.56,10.07,3.87,5.88.49,11.12-2.24,17.09-.63,5.42,1.45,10.14,4.94,15.26,7.08a68.64,68.64,0,0,0,11.61,3.65,72,72,0,0,0,26.77.78c8.81-1.4,16.05-5.42,24.41-8,6.9-2.12,10.87.16,17.11,2.5a52.17,52.17,0,0,0,12,2.47c10.94,1.35,22.14,1.54,32.8,4.45,8.58,2.35,17.77,8,27.07,6.38,9-1.6,17-12.52,26.24-5.44,4.57,3.51,7.27,6.54,13.55,5.85,9.85-1.07,17.74-4.56,28-3.42,10.68,1.2,20.88,4.66,30.78,8.47,18.21,7,36,14.93,56.08,14.59a.86.86,0,1,0,0-1.71c-19.2.33-36.24-7-53.6-13.75-14-5.49-31.39-12.22-46.9-9.14-3.78.75-7.44,2-11.22,2.7-6.7,1.33-9.65-.19-14.68-4.22-4.11-3.3-7.46-4.61-12.76-2.8-3.84,1.3-7.11,3.7-10.74,5.4-6.82,3.2-13.53,1.58-20.35-.8A124.76,124.76,0,0,0,373,169.53c-5.9-.62-11.84-1-17.71-1.84-5.34-.76-9.6-2.57-14.55-4.45-7-2.68-12.72-.27-19.29,2.44-11,4.54-22.29,7-34.39,6-12.28-1-21.56-6.07-32.48-10.74-9.54-4.09-19.34,1.33-28.5-3.37-6.85-3.51-12.1-7.09-20.27-6-20,2.71-28.8,23-46.41,29.89-20.29,7.9-42.55-2.42-63.31-2.94a52.88,52.88,0,0,0-25.6,5.64c-10.07,5.06-18.85,12-30,15a.85.85,0,1,0,.48,1.64Z"/><path class="cls-12" d="M346.86,125.37a4.71,4.71,0,0,1-1.3-.83l-.06-.06-.06,0-.05-.06-.05-.06a4.66,4.66,0,0,1-.84-1.3.15.15,0,0,0-.14-.1.16.16,0,0,0-.15.1,4.71,4.71,0,0,1-.83,1.3l-.06.06-.05.06-.06,0,0,0a4.71,4.71,0,0,1-1.31.84.15.15,0,0,0-.1.14.16.16,0,0,0,.1.15,4.71,4.71,0,0,1,1.3.83l.06.06.06,0,.05.06.06.06a4.86,4.86,0,0,1,.83,1.3.16.16,0,0,0,.15.09.14.14,0,0,0,.14-.09,4.71,4.71,0,0,1,.83-1.3l.06-.06.05-.06.06,0,.05-.06a5.08,5.08,0,0,1,1.31-.83.16.16,0,0,0,.1-.15A.15.15,0,0,0,346.86,125.37Z"/><path class="cls-12" d="M160.53,99.26a4.86,4.86,0,0,1-1.3-.83l-.06-.06a.34.34,0,0,1-.06-.06.12.12,0,0,1-.05,0L159,98.2a4.81,4.81,0,0,1-.84-1.3.15.15,0,0,0-.14-.1.16.16,0,0,0-.15.1,5,5,0,0,1-.83,1.3l-.06.06-.05.06-.06.05,0,0a4.71,4.71,0,0,1-1.31.84.14.14,0,0,0-.09.14.16.16,0,0,0,.09.15,4.49,4.49,0,0,1,1.3.83l.06.05.06.06.06.06a.12.12,0,0,0,.05,0,4.91,4.91,0,0,1,.83,1.31.17.17,0,0,0,.15.09.16.16,0,0,0,.14-.09,4.71,4.71,0,0,1,.83-1.3l.06-.06.05-.07.06,0,.06-.05a4.77,4.77,0,0,1,1.3-.83.18.18,0,0,0,.1-.15A.15.15,0,0,0,160.53,99.26Z"/><path class="cls-12" d="M236.47,132.28a3.76,3.76,0,0,1-1-.66l-.05-.05,0,0,0-.05,0,0a4,4,0,0,1-.67-1,.11.11,0,0,0-.11-.08.13.13,0,0,0-.12.08,3.73,3.73,0,0,1-.66,1l0,.05,0,0,0,0,0,0a3.49,3.49,0,0,1-1,.67.14.14,0,0,0-.07.12.12.12,0,0,0,.07.11,3.67,3.67,0,0,1,1,.66l0,.05.05,0,0,.05,0,0a3.73,3.73,0,0,1,.66,1,.13.13,0,0,0,.12.08.11.11,0,0,0,.11-.08,4,4,0,0,1,.67-1l0,0s0,0,0-.05l0,0,0,0a3.77,3.77,0,0,1,1-.67.12.12,0,0,0,.08-.11A.13.13,0,0,0,236.47,132.28Z"/><path class="cls-12" d="M100.21,146.15a3.8,3.8,0,0,1-1-.67l-.05,0s0,0,0-.05l0,0,0,0a3.58,3.58,0,0,1-.67-1,.12.12,0,0,0-.11-.08.13.13,0,0,0-.12.08,3.76,3.76,0,0,1-.66,1l0,0,0,.05,0,0,0,0a4,4,0,0,1-1,.67.11.11,0,0,0-.07.11.14.14,0,0,0,.07.12,3.73,3.73,0,0,1,1,.66l0,0,0,0s0,0,0,0l0,.05a3.68,3.68,0,0,1,.66,1,.13.13,0,0,0,.12.08.12.12,0,0,0,.11-.08,3.76,3.76,0,0,1,.66-1l.05-.05,0,0,0,0,0,0a3.73,3.73,0,0,1,1-.66.13.13,0,0,0,.08-.12A.11.11,0,0,0,100.21,146.15Z"/><path class="cls-12" d="M521.52,92.43a3.81,3.81,0,0,1-1-.66s0,0-.05,0l0,0,0-.05,0,0a3.73,3.73,0,0,1-.66-1,.13.13,0,0,0-.12-.08.12.12,0,0,0-.11.08,3.8,3.8,0,0,1-.67,1l0,0,0,.05,0,0,0,0a3.77,3.77,0,0,1-1,.67.12.12,0,0,0-.08.11.13.13,0,0,0,.08.12,3.76,3.76,0,0,1,1,.66l.05.05,0,0,0,0,0,0a3.77,3.77,0,0,1,.67,1,.12.12,0,0,0,.11.07.14.14,0,0,0,.12-.07,3.73,3.73,0,0,1,.66-1l0,0,0,0s0,0,0,0l.05,0a3.77,3.77,0,0,1,1-.67.14.14,0,0,0,.07-.12A.12.12,0,0,0,521.52,92.43Z"/><path class="cls-12" d="M323.78,77.66a3.76,3.76,0,0,1-1-.66l-.05,0-.05,0,0,0,0-.05a3.73,3.73,0,0,1-.66-1,.14.14,0,0,0-.12-.07.11.11,0,0,0-.11.07,4,4,0,0,1-.67,1l0,.05-.05,0a.08.08,0,0,1,0,0l-.05,0a3.76,3.76,0,0,1-1,.66.13.13,0,0,0-.08.12.12.12,0,0,0,.08.11,3.76,3.76,0,0,1,1,.66l.05,0,.05,0,0,0,0,0a4,4,0,0,1,.67,1,.11.11,0,0,0,.11.08.13.13,0,0,0,.12-.08,3.54,3.54,0,0,1,.66-1l0,0s0,0,.05,0l0,0,.05,0a3.58,3.58,0,0,1,1-.67.12.12,0,0,0,.08-.11A.13.13,0,0,0,323.78,77.66Z"/><path class="cls-12" d="M466.67,152.41a4,4,0,0,1-1-.66s0,0-.05-.05,0,0,0,0,0,0,0,0l0-.05a3.77,3.77,0,0,1-.67-1,.13.13,0,0,0-.12-.08.12.12,0,0,0-.11.08,4,4,0,0,1-.66,1l0,.05,0,0-.05,0s0,0,0,0a3.77,3.77,0,0,1-1,.67.13.13,0,0,0-.08.12.12.12,0,0,0,.08.11,3.76,3.76,0,0,1,1,.66l.05,0,.05,0,0,.05,0,0a3.77,3.77,0,0,1,.67,1,.12.12,0,0,0,.11.08.13.13,0,0,0,.12-.08,3.76,3.76,0,0,1,.66-1l.05-.05,0-.05,0,0,.05,0a3.77,3.77,0,0,1,1-.67.12.12,0,0,0,.07-.11A.14.14,0,0,0,466.67,152.41Z"/><path class="cls-12" d="M300.81,199.48a2.8,2.8,0,0,1-.78-.5l-.06,0,0,0,0,0a3.32,3.32,0,0,1-.52-.8.41.41,0,0,0-.39-.26.42.42,0,0,0-.39.26,2.8,2.8,0,0,1-.5.78l0,.06,0,0-.05,0a2.72,2.72,0,0,1-.8.51.43.43,0,0,0,0,.79,2.71,2.71,0,0,1,.79.5l.06,0,0,0,0,0a2.81,2.81,0,0,1,.51.79.42.42,0,0,0,.39.26h0a.41.41,0,0,0,.39-.26,3.35,3.35,0,0,1,.5-.78l.06-.06,0,0,0,0a3,3,0,0,1,.8-.51.43.43,0,0,0,0-.79Z"/></g><g id="Icons"><circle class="cls-40" cx="535.24" cy="350.79" r="9.17"/><polygon class="cls-41" points="539.51 349.53 536.51 349.53 536.51 346.52 533.98 346.52 533.98 349.53 530.97 349.53 530.97 352.06 533.98 352.06 533.98 355.06 536.51 355.06 536.51 352.06 539.51 352.06 539.51 349.53"/><circle class="cls-40" cx="238.75" cy="458.1" r="9.17"/><polygon class="cls-41" points="243.02 456.83 240.01 456.83 240.01 453.83 237.48 453.83 237.48 456.83 234.48 456.83 234.48 459.36 237.48 459.36 237.48 462.37 240.01 462.37 240.01 459.36 243.02 459.36 243.02 456.83"/><circle class="cls-42" cx="109.64" cy="329.04" r="9.17"/><path class="cls-12" d="M102.67,326.5h1l1.3,4,1.33-4h.81l1.34,4,1.3-4h1L108.9,332h-.83l-1.34-3.91L105.39,332h-.82Z"/><path class="cls-12" d="M111.23,329.24v0A2.76,2.76,0,0,1,114,326.4a2.83,2.83,0,0,1,2.13.85l-.62.71a2.13,2.13,0,0,0-1.52-.68,1.83,1.83,0,0,0-1.8,1.92v0a1.84,1.84,0,0,0,1.8,1.93,2.14,2.14,0,0,0,1.56-.7l.62.62a2.82,2.82,0,0,1-2.21,1A2.74,2.74,0,0,1,111.23,329.24Z"/><circle class="cls-42" cx="326.6" cy="361.82" r="9.17"/><path class="cls-12" d="M319.63,359.27h1l1.3,4,1.34-4.05h.81l1.34,4.05,1.3-4h1l-1.89,5.49H325l-1.34-3.91-1.34,3.91h-.82Z"/><path class="cls-12" d="M328.18,362h0a2.76,2.76,0,0,1,2.81-2.82,2.86,2.86,0,0,1,2.14.85l-.62.71a2.13,2.13,0,0,0-1.52-.68,1.83,1.83,0,0,0-1.8,1.92v0a1.84,1.84,0,0,0,1.8,1.93,2.14,2.14,0,0,0,1.56-.7l.62.62a2.84,2.84,0,0,1-2.21,1A2.75,2.75,0,0,1,328.18,362Z"/><polyline class="cls-43" points="598.82 312.51 598.82 313.51 597.82 313.51"/><line class="cls-44" x1="595.89" y1="313.51" x2="550.54" y2="313.51"/><polyline class="cls-43" points="549.57 313.51 548.57 313.51 548.57 312.51"/><line class="cls-45" x1="548.57" y1="310.5" x2="548.57" y2="267.36"/><polyline class="cls-43" points="548.57 266.35 548.57 265.35 549.57 265.35"/><line class="cls-44" x1="551.5" y1="265.35" x2="596.86" y2="265.35"/><polyline class="cls-43" points="597.82 265.35 598.82 265.35 598.82 266.35"/><line class="cls-45" x1="598.82" y1="268.36" x2="598.82" y2="311.5"/><circle class="cls-36" cx="573.7" cy="282.54" r="9.17"/><path class="cls-12" d="M579.34,282c-.14-.54-.24-.9-.86-.84-.2,0-.28-.07-.34-.24-.21-.62-.47-1.23-.67-1.85a1.39,1.39,0,0,0-1.11-1c-.33-.07-5-.07-5.33,0a1.39,1.39,0,0,0-1.11,1c-.2.62-.45,1.23-.67,1.85-.06.17-.14.26-.34.24-.62-.06-.72.3-.86.84,0,.18.08.28.26.29h.4a30.06,30.06,0,0,0-.1,4.13c0,.23.13.42.29.42h1.69c.46-.27.19-.75.31-1.12h5.59c.13.37-.15.85.31,1.12h1.69c.16,0,.29-.19.29-.42a30.06,30.06,0,0,0-.1-4.13h.4C579.26,282.25,579.39,282.15,579.34,282Zm-8.14,2a4.25,4.25,0,0,1-.66.07c-.28,0-.51,0-.72,0-.63-.1-.74-.25-.66-.87,0-.25.16-.39.42-.37a4,4,0,0,1,1.75.67A.29.29,0,0,1,571.2,284ZM570,281.31c.24-.7.48-1.33.67-2,.1-.33.32-.65,1.15-.65h3.81c.83,0,1,.32,1.15.65.19.64.43,1.27.67,2a17.54,17.54,0,0,1-7.45,0Zm7.6,2.68c-.21,0-.44,0-.71,0a4.24,4.24,0,0,1-.67-.07.29.29,0,0,1-.13-.54,4,4,0,0,1,1.75-.67c.26,0,.39.12.42.37C578.31,283.74,578.2,283.89,577.57,284Z"/><polyline class="cls-43" points="427.84 502.76 427.84 503.76 426.84 503.76"/><line class="cls-44" x1="424.91" y1="503.76" x2="379.55" y2="503.76"/><polyline class="cls-43" points="378.59 503.76 377.59 503.76 377.59 502.76"/><line class="cls-45" x1="377.59" y1="500.75" x2="377.59" y2="457.61"/><polyline class="cls-43" points="377.59 456.6 377.59 455.6 378.59 455.6"/><line class="cls-44" x1="380.52" y1="455.6" x2="425.87" y2="455.6"/><polyline class="cls-43" points="426.84 455.6 427.84 455.6 427.84 456.6"/><line class="cls-45" x1="427.84" y1="458.61" x2="427.84" y2="501.75"/><circle class="cls-36" cx="402.71" cy="472.79" r="9.17"/><path class="cls-12" d="M408.36,472.22c-.14-.54-.24-.9-.86-.84-.2,0-.28-.07-.34-.24-.22-.62-.47-1.22-.67-1.85a1.41,1.41,0,0,0-1.11-1c-.34-.07-5-.07-5.33,0a1.42,1.42,0,0,0-1.12,1c-.19.63-.45,1.23-.66,1.85-.07.17-.15.26-.35.24-.62-.06-.72.3-.86.84,0,.18.09.28.26.29h.41a28.56,28.56,0,0,0-.1,4.13c0,.23.13.42.28.42h1.7c.46-.27.18-.75.31-1.12h5.59c.12.37-.16.85.3,1.12h1.7c.15,0,.28-.19.28-.42a30,30,0,0,0-.09-4.13h.4C408.28,472.5,408.41,472.4,408.36,472.22Zm-8.14,2a5.92,5.92,0,0,1-.67.06c-.28,0-.5,0-.72,0-.62-.1-.73-.25-.65-.87,0-.25.15-.39.42-.37a4.12,4.12,0,0,1,1.75.67A.3.3,0,0,1,400.22,474.22ZM399,471.56c.24-.7.47-1.33.67-2,.09-.33.32-.65,1.15-.65h3.81c.82,0,1.05.32,1.15.65.19.64.42,1.27.66,2a17.5,17.5,0,0,1-7.44,0Zm7.6,2.68c-.22,0-.44,0-.72,0a5.76,5.76,0,0,1-.66-.06.3.3,0,0,1-.14-.55,4.11,4.11,0,0,1,1.76-.67c.26,0,.38.12.41.37C407.32,474,407.22,474.14,406.59,474.24Z"/><circle class="cls-46" cx="295.91" cy="293.53" r="5.64"/><path d="M299.38,293.18c-.08-.33-.14-.56-.53-.52-.12,0-.17,0-.21-.15-.13-.38-.28-.75-.41-1.14a.86.86,0,0,0-.68-.63c-.21,0-3.08,0-3.28,0a.86.86,0,0,0-.69.63c-.12.39-.28.76-.41,1.14,0,.11-.09.16-.21.15-.38,0-.44.19-.53.52,0,.11.05.17.16.18h.25a16.58,16.58,0,0,0-.06,2.54c0,.14.08.26.17.26H294c.28-.17.11-.47.19-.69h3.44c.07.22-.1.52.19.69h1c.1,0,.18-.12.18-.26a19.59,19.59,0,0,0-.06-2.54h.24C299.33,293.35,299.41,293.29,299.38,293.18Zm-5,1.23a3,3,0,0,1-.41,0c-.17,0-.31,0-.44,0-.39-.06-.45-.15-.4-.54,0-.15.09-.24.25-.22a2.45,2.45,0,0,1,1.08.41A.18.18,0,0,1,294.37,294.41Zm-.75-1.64c.14-.43.29-.82.41-1.21.06-.2.2-.4.7-.4h2.35c.51,0,.65.2.71.4.12.39.26.78.41,1.21a11.35,11.35,0,0,1-2.29.24A11.21,11.21,0,0,1,293.62,292.77Zm4.68,1.65c-.14,0-.28,0-.45,0a3.29,3.29,0,0,1-.41,0,.19.19,0,0,1-.08-.34,2.45,2.45,0,0,1,1.08-.41c.16,0,.24.07.26.22C298.75,294.27,298.68,294.36,298.3,294.42Z"/><path class="cls-41" d="M295.5,287.9a5.64,5.64,0,1,0,6,5.22A5.64,5.64,0,0,0,295.5,287.9Zm.73,10.15a4.44,4.44,0,0,1-2.55-.58l5.07-7.46a4.52,4.52,0,0,1-2.52,8Zm1.52-8.66-5,7.37a4.53,4.53,0,0,1,2.84-7.75A4.4,4.4,0,0,1,297.75,289.39Z"/><circle class="cls-46" cx="381.43" cy="407.96" r="5.64"/><path d="M384.91,407.61c-.08-.33-.15-.55-.53-.52-.12,0-.17,0-.21-.15-.13-.38-.29-.75-.41-1.13a.87.87,0,0,0-.69-.64c-.2,0-3.07,0-3.28,0a.87.87,0,0,0-.68.64c-.12.38-.28.75-.41,1.13,0,.11-.09.17-.21.15-.39,0-.45.19-.53.52,0,.11.05.17.16.18h.24a18,18,0,0,0-.05,2.54c0,.14.08.26.17.26h1c.29-.17.12-.46.19-.69h3.45c.07.23-.1.52.18.69h1.05c.09,0,.17-.12.17-.26a16.61,16.61,0,0,0-.06-2.54h.25C384.86,407.78,384.94,407.72,384.91,407.61Zm-5,1.23a3.51,3.51,0,0,1-.41,0c-.17,0-.31,0-.44,0-.39-.06-.45-.15-.41-.53,0-.16.1-.25.26-.23a2.45,2.45,0,0,1,1.08.41A.19.19,0,0,1,379.9,408.84Zm-.76-1.64c.15-.43.29-.82.41-1.21.06-.2.2-.4.71-.4h2.35c.51,0,.65.2.71.4.11.39.26.78.41,1.21a10.66,10.66,0,0,1-4.59,0Zm4.68,1.65c-.13,0-.27,0-.44,0a3.32,3.32,0,0,1-.41,0,.19.19,0,0,1-.08-.34,2.45,2.45,0,0,1,1.08-.41c.16,0,.24.07.25.23C384.27,408.7,384.21,408.79,383.82,408.85Z"/><path class="cls-41" d="M381,402.33a5.64,5.64,0,1,0,6,5.22A5.66,5.66,0,0,0,381,402.33Zm.73,10.15a4.56,4.56,0,0,1-2.56-.57l5.08-7.47a4.52,4.52,0,0,1-2.52,8Zm1.52-8.66-5,7.37a4.53,4.53,0,0,1,5-7.37Z"/><circle class="cls-46" cx="268.24" cy="461.9" r="5.64"/><path d="M271.72,461.55c-.09-.33-.15-.55-.53-.52a.17.17,0,0,1-.21-.15c-.14-.38-.29-.75-.41-1.14a.89.89,0,0,0-.69-.63c-.21,0-3.08,0-3.28,0a.86.86,0,0,0-.69.63c-.12.39-.28.76-.41,1.14,0,.11-.09.16-.21.15-.38,0-.44.19-.53.52,0,.11.05.17.16.18h.25a18,18,0,0,0-.06,2.54c0,.14.08.26.17.26h1.05c.28-.17.11-.47.19-.69H270c.08.22-.1.52.19.69h1c.1,0,.18-.12.18-.26a19.59,19.59,0,0,0-.06-2.54h.25C271.66,461.72,271.74,461.66,271.72,461.55Zm-5,1.23a3,3,0,0,1-.41,0,3,3,0,0,1-.44,0c-.39-.06-.45-.15-.4-.54,0-.15.09-.24.25-.22a2.45,2.45,0,0,1,1.08.41A.18.18,0,0,1,266.7,462.78Zm-.75-1.64c.14-.43.29-.82.41-1.21.06-.2.2-.4.71-.4h2.34c.51,0,.65.2.71.4.12.39.26.78.41,1.21a10.61,10.61,0,0,1-4.58,0Zm4.68,1.65a3.17,3.17,0,0,1-.45,0,3.29,3.29,0,0,1-.41,0,.19.19,0,0,1-.08-.34,2.45,2.45,0,0,1,1.08-.41c.16,0,.24.07.26.22C271.08,462.64,271,462.73,270.63,462.79Z"/><path class="cls-41" d="M267.83,456.27a5.64,5.64,0,1,0,6,5.22A5.65,5.65,0,0,0,267.83,456.27Zm.74,10.15a4.45,4.45,0,0,1-2.56-.58l5.07-7.46a4.47,4.47,0,0,1,1.68,3.19A4.53,4.53,0,0,1,268.57,466.42Zm1.51-8.66-5,7.37a4.53,4.53,0,0,1,2.84-7.75A4.4,4.4,0,0,1,270.08,457.76Z"/><circle class="cls-46" cx="485" cy="402.91" r="5.64"/><path d="M488.48,402.55c-.09-.33-.15-.55-.53-.51-.12,0-.17,0-.21-.15-.13-.38-.29-.76-.41-1.14a.89.89,0,0,0-.69-.64c-.2,0-3.07,0-3.28,0a.89.89,0,0,0-.68.64c-.13.38-.28.76-.42,1.14a.17.17,0,0,1-.21.15c-.38,0-.44.18-.52.51,0,.12.05.18.15.18h.25a19.67,19.67,0,0,0-.06,2.54c0,.15.08.26.18.26h1c.29-.16.11-.46.19-.69h3.44c.08.23-.09.53.19.69h1c.09,0,.17-.11.17-.26a16.64,16.64,0,0,0-.06-2.54h.25C488.43,402.73,488.51,402.67,488.48,402.55Zm-5,1.23a3.51,3.51,0,0,1-.41,0c-.17,0-.31,0-.45,0-.38-.05-.45-.15-.4-.53,0-.16.1-.24.26-.23a2.47,2.47,0,0,1,1.08.42C483.7,403.54,483.64,403.74,483.47,403.78Zm-.76-1.64c.15-.43.29-.81.41-1.21.06-.2.2-.4.71-.4h2.35c.5,0,.64.2.7.4.12.4.27.78.41,1.21a10.57,10.57,0,0,1-2.29.25A10.7,10.7,0,0,1,482.71,402.14Zm4.68,1.65c-.13,0-.27,0-.44,0a3.15,3.15,0,0,1-.41,0c-.18,0-.23-.24-.08-.33a2.47,2.47,0,0,1,1.08-.42c.16,0,.23.07.25.23C487.84,403.64,487.78,403.74,487.39,403.79Z"/><path class="cls-41" d="M484.59,397.28a5.64,5.64,0,1,0,6,5.22A5.65,5.65,0,0,0,484.59,397.28Zm.74,10.15a4.45,4.45,0,0,1-2.56-.58l5.08-7.47a4.54,4.54,0,0,1-2.52,8.05Zm1.52-8.66-5,7.37a4.53,4.53,0,0,1,5-7.37Z"/><circle class="cls-46" cx="506.75" cy="275.88" r="5.64"/><path d="M510.23,275.53c-.09-.33-.15-.55-.53-.51-.12,0-.17,0-.21-.16-.13-.38-.29-.75-.41-1.13a.87.87,0,0,0-.69-.64c-.2,0-3.07,0-3.28,0a.87.87,0,0,0-.68.64c-.13.38-.28.75-.41,1.13,0,.11-.09.17-.22.16-.38,0-.44.18-.52.51,0,.11.05.17.15.18a2.08,2.08,0,0,0,.25,0,19.63,19.63,0,0,0-.06,2.54c0,.14.08.26.18.26h1c.29-.17.11-.46.19-.69h3.44c.08.23-.09.52.19.69h1c.09,0,.17-.12.17-.26a16.61,16.61,0,0,0-.06-2.54,2.08,2.08,0,0,0,.25,0C510.18,275.7,510.26,275.64,510.23,275.53Zm-5,1.23a3.51,3.51,0,0,1-.41,0c-.17,0-.31,0-.45,0-.38-.06-.45-.15-.4-.53,0-.16.1-.24.26-.23a2.47,2.47,0,0,1,1.08.42C505.45,276.52,505.39,276.72,505.22,276.76Zm-.76-1.64c.15-.43.29-.82.41-1.21.06-.2.2-.4.71-.4h2.35c.5,0,.64.2.7.4.12.39.27.78.41,1.21a10.57,10.57,0,0,1-2.29.25A10.7,10.7,0,0,1,504.46,275.12Zm4.68,1.65c-.13,0-.27,0-.44,0a3.15,3.15,0,0,1-.41,0c-.18,0-.23-.24-.08-.33a2.47,2.47,0,0,1,1.08-.42c.16,0,.23.07.25.23C509.59,276.62,509.53,276.71,509.14,276.77Z"/><path class="cls-41" d="M506.35,270.25a5.64,5.64,0,1,0,6,5.23A5.66,5.66,0,0,0,506.35,270.25Zm.73,10.16a4.53,4.53,0,0,1-2.56-.58l5.08-7.47a4.54,4.54,0,0,1-2.52,8.05Zm1.52-8.67-5,7.38a4.53,4.53,0,0,1,2.85-7.76A4.64,4.64,0,0,1,508.6,271.74Z"/><circle class="cls-46" cx="87.21" cy="443.27" r="5.64"/><path d="M90.69,442.92c-.09-.33-.15-.55-.53-.52-.13,0-.18,0-.21-.15-.14-.38-.29-.75-.41-1.13a.9.9,0,0,0-.69-.64c-.21,0-3.08,0-3.28,0a.87.87,0,0,0-.69.64c-.12.38-.28.75-.41,1.13,0,.11-.09.17-.21.15-.38,0-.44.19-.53.52,0,.11,0,.17.16.18h.25a18,18,0,0,0-.06,2.54c0,.14.08.26.17.26h1c.28-.17.11-.46.19-.69h3.44c.08.23-.09.52.19.69h1c.1,0,.18-.12.18-.26a19.63,19.63,0,0,0-.06-2.54h.25C90.64,443.09,90.72,443,90.69,442.92Zm-5,1.23a3.15,3.15,0,0,1-.41,0c-.17,0-.3,0-.44,0-.38-.06-.45-.15-.4-.53,0-.16.09-.25.26-.23a2.46,2.46,0,0,1,1.07.41A.18.18,0,0,1,85.67,444.15Zm-.75-1.64c.14-.43.29-.82.41-1.21.06-.2.2-.4.71-.4h2.34c.51,0,.65.2.71.4.12.39.26.78.41,1.21a10.61,10.61,0,0,1-4.58,0Zm4.68,1.65c-.14,0-.27,0-.45,0a3.18,3.18,0,0,1-.4,0,.19.19,0,0,1-.09-.34,2.45,2.45,0,0,1,1.08-.41c.16,0,.24.07.26.23C90.05,444,90,444.1,89.6,444.16Z"/><path class="cls-41" d="M86.8,437.64a5.64,5.64,0,1,0,6,5.22A5.66,5.66,0,0,0,86.8,437.64Zm.74,10.15a4.53,4.53,0,0,1-2.56-.57l5.07-7.47a4.47,4.47,0,0,1,1.68,3.19A4.53,4.53,0,0,1,87.54,447.79Zm1.51-8.66-5,7.38a4.53,4.53,0,0,1,5-7.38Z"/><rect class="cls-42" x="108.97" y="349.58" width="18.33" height="18.33"/><path class="cls-12" d="M120.89,354.4l-5,1.33v5.4a1.5,1.5,0,0,0-1,.18c-.62.34-.91.95-.67,1.39a.84.84,0,0,0,.77.4,1.59,1.59,0,0,0,.76-.21,1.49,1.49,0,0,0,.76-1.06v-4.48l3.83-.92V360a1.45,1.45,0,0,0-1,.18,1.53,1.53,0,0,0-.64.62.81.81,0,0,0,0,.77.79.79,0,0,0,.67.39,1.48,1.48,0,0,0,.87-.2,1.45,1.45,0,0,0,.75-1Z"/><rect class="cls-42" x="365.65" y="324.72" width="18.33" height="18.33"/><path class="cls-12" d="M377.57,329.54l-5.05,1.33v5.4a1.45,1.45,0,0,0-1,.18c-.62.34-.91.95-.67,1.39a.86.86,0,0,0,.78.4,1.62,1.62,0,0,0,.76-.21,1.48,1.48,0,0,0,.75-1.06v-4.48l3.83-.92v3.57a1.61,1.61,0,0,0-1.64.8.79.79,0,0,0,0,.77.8.8,0,0,0,.67.39,1.47,1.47,0,0,0,.87-.2,1.45,1.45,0,0,0,.75-1Z"/><rect class="cls-42" x="113" y="378.01" width="18.33" height="18.33"/><path class="cls-12" d="M126.17,384.48h-1.59c-.3,0-.44-.09-.82-.72s-.57-.63-1-.63h-1.15c-.38,0-.59,0-1,.63s-.51.72-.82.72h-1.59a1.09,1.09,0,0,0-1.08,1.08v4.16a1.09,1.09,0,0,0,1.08,1.08h7.89a1.09,1.09,0,0,0,1.09-1.08v-4.16A1.09,1.09,0,0,0,126.17,384.48Zm-3.94,5.32a2.14,2.14,0,1,1,2.13-2.13A2.13,2.13,0,0,1,122.23,389.8Zm3.75-3.52a.57.57,0,1,1,.56-.57A.57.57,0,0,1,126,386.28Z"/><rect class="cls-42" x="264.71" y="301.71" width="18.33" height="18.33"/><path class="cls-12" d="M277.89,308.18H276.3c-.3,0-.44-.09-.82-.72s-.57-.63-1-.63h-1.15c-.38,0-.59,0-1,.63s-.51.72-.82.72H270a1.09,1.09,0,0,0-1.08,1.08v4.16A1.08,1.08,0,0,0,270,314.5h7.89a1.08,1.08,0,0,0,1.09-1.08v-4.16A1.09,1.09,0,0,0,277.89,308.18ZM274,313.5a2.14,2.14,0,1,1,2.13-2.13A2.13,2.13,0,0,1,274,313.5ZM277.7,310a.57.57,0,0,1-.57-.57.57.57,0,0,1,1.13,0A.57.57,0,0,1,277.7,310Z"/><rect class="cls-42" x="416.7" y="289.04" width="18.33" height="18.33"/><path class="cls-12" d="M429.88,295.51h-1.59c-.3,0-.44-.09-.82-.72s-.57-.62-1-.62h-1.15c-.38,0-.6,0-1,.62s-.52.72-.82.72H422a1.08,1.08,0,0,0-1.08,1.08v4.16a1.08,1.08,0,0,0,1.08,1.08h7.89a1.08,1.08,0,0,0,1.08-1.08v-4.16A1.08,1.08,0,0,0,429.88,295.51Zm-3.94,5.32a2.13,2.13,0,1,1,2.13-2.13A2.13,2.13,0,0,1,425.94,300.83Zm3.74-3.52a.57.57,0,1,1,.57-.57A.56.56,0,0,1,429.68,297.31Z"/><path class="cls-47" d="M261,341.71l9.18,33a.47.47,0,0,0,.42.54l24.23,3a.49.49,0,0,0,.54-.43l17.7-29.4c0-.14-8.22-9.35-25-11.42S261,341.7,261,341.71Z"/><path class="cls-48" d="M269.59,374.88a.14.14,0,0,1,0,.06l-2.2,18a.51.51,0,0,0,.44.57l25.28,3.1a.51.51,0,0,0,.57-.44l2.21-18a.52.52,0,0,0-.45-.57l-25.28-3.11h0a.55.55,0,0,0-.18,0h-.09l-.05,0-.08.06-.06.07a.35.35,0,0,0-.05.08A.42.42,0,0,0,269.59,374.88Z"/><path class="cls-12" d="M284.71,381.62l-5,1.33v5.4a1.45,1.45,0,0,0-1,.18c-.62.33-.91,1-.67,1.39a.86.86,0,0,0,.78.4,1.62,1.62,0,0,0,.76-.21,1.48,1.48,0,0,0,.75-1.06v-4.48l3.83-.92v3.57a1.45,1.45,0,0,0-1,.18,1.51,1.51,0,0,0-.63.62.76.76,0,0,0,0,.77.81.81,0,0,0,.66.39,1.63,1.63,0,0,0,.87-.2,1.49,1.49,0,0,0,.75-1Z"/><path class="cls-49" d="M458.09,350.16,485,335.83a.44.44,0,0,0,.39-.48l-2.1-21.59a.43.43,0,0,0-.47-.39l-28.93-9.68c-.13,0-6.53,8.93-5.07,23.93S458.08,350.16,458.09,350.16Z"/><path class="cls-23" d="M485.21,336.31h.05l16-1.55a.47.47,0,0,0,.41-.5l-2.19-22.53a.44.44,0,0,0-.49-.41l-16,1.55a.47.47,0,0,0-.41.5l2.19,22.53h0a.3.3,0,0,0,.05.16l0,0a.05.05,0,0,0,0,0l0,0,.06.06.08,0,.08,0Z"/><path class="cls-12" d="M495.54,319.46l-5.05,1.34v5.4a1.5,1.5,0,0,0-1,.17c-.62.34-.91.95-.67,1.4a.86.86,0,0,0,.78.39,1.6,1.6,0,0,0,.76-.2,1.5,1.5,0,0,0,.75-1.06v-4.49l3.83-.92v3.58a1.5,1.5,0,0,0-1,.17,1.63,1.63,0,0,0-.63.62.81.81,0,0,0,0,.78.82.82,0,0,0,.67.39,1.62,1.62,0,0,0,.86-.2,1.49,1.49,0,0,0,.75-1Z"/><path class="cls-36" d="M42.89,49.41c-3.71,4.41,1.19-7.36-2.44-10.41S26,42.79,29.74,38.37,59.67,16.05,59.67,16.05,46.59,45,42.89,49.41Z"/><circle class="cls-50" cx="36.06" cy="44.48" r="10.68"/><path class="cls-36" d="M34.77,38.71h2l.13,5.8,1.23-5.77,1.92,0L37.46,51h-2l-.12-5.57L34.13,51h-2Z"/></g><g id="type_vectorized" data-name="type vectorized"><path d="M451,374.05l-5.54-2.29.18-1,4.65,1.93.24-1.3.89.36Z"/><path d="M450.19,368l1.81.46-.18,1-1.05-.27-.13.71,1,.58-.18,1-1.7-1-3-1.89.23-1.25Zm-.23,1-1.52-.38,1.43.84Z"/><path d="M451.76,363.32a1.43,1.43,0,0,1,1,1.74c-.12.69-.47,1-1,.87a1.79,1.79,0,0,1-.4-.12L448,364.43a1.44,1.44,0,0,1-1-1.74c.13-.68.47-1,1-.86a1.72,1.72,0,0,1,.39.12l.78.32-.18,1-.78-.32-.11,0c-.14,0-.23,0-.26.19h0a.35.35,0,0,0,.26.41l3.32,1.38.12,0c.14,0,.22,0,.25-.19a.36.36,0,0,0-.26-.42l-.79-.32.18-1Z"/><path d="M448.12,360.93l.18-1,4.9,2-.18,1Z"/><path d="M448.47,359.07l.42-2.26.79.33-.24,1.3,1.26.52.21-1.11.79.33-.21,1.11,1.26.52.24-1.29.79.32-.42,2.26Z"/><path d="M449,356.12l.17-.95,2.43.32-2.3-.95.16-.91,4.89,2-.17.95-2.33-.31,2.21.92-.17.93Z"/><path d="M449.65,352.74l.42-2.26.79.33-.24,1.3,1.26.52.2-1.12.79.33-.2,1.12,1.26.52.24-1.3.79.33-.42,2.26Z"/><path d="M454.56,349a1.36,1.36,0,0,1,.83,1.68c-.13.7-.46,1-1,.9a1.65,1.65,0,0,1-.32-.1l-2.92-1.21a1.35,1.35,0,0,1-.83-1.68c.13-.7.45-1,1-.9a1.46,1.46,0,0,1,.32.1l.7.28-.18,1-.7-.29-.08,0c-.13,0-.21,0-.24.19a.33.33,0,0,0,.22.4l2.92,1.22.09,0c.13,0,.2,0,.23-.2a.31.31,0,0,0-.21-.39l-1.07-.44-.08.41-.79-.33.26-1.37Z"/><path d="M454.39,345.39l1.81.46-.18,1-1-.27-.13.71,1,.58-.18,1-1.7-1-3-1.89.24-1.25Zm-.23,1-1.51-.38,1.42.84Z"/><path d="M451.08,341.3l.25-1.32c.11-.63.45-.89,1-.79a1.6,1.6,0,0,1,.41.13l.81.33a1.06,1.06,0,0,1,.69.7.53.53,0,0,1,.54-.16l.28.09.82.34a1.38,1.38,0,0,1,1,1.65.11.11,0,0,1,0,.05l-.23,1.28Zm1.06-.59,1.44.6,0-.19a1,1,0,0,0,0-.2.42.42,0,0,0-.26-.31l-.82-.33-.11,0c-.14,0-.23,0-.26.19Zm2.33,1,1.44.6L456,342a.36.36,0,0,0-.26-.41l-.82-.34-.11,0a.19.19,0,0,0-.22.09.51.51,0,0,0-.06.19Z"/><path d="M457.23,340.31l-4.89-2,.17-1,4.11,1.7.24-1.3.79.33Z"/><path d="M458.11,335.57l-.23,1.24-3.25-.72-1.81-.45.19-1,3.37.85-3.19-1.87.18-1,1.71,1Z"/><path d="M453.49,332l.24-1.27v0c.12-.64.44-.92.94-.82a1.81,1.81,0,0,1,.34.1l2.77,1.15a1.3,1.3,0,0,1,.84,1.6v.05l-.23,1.27Zm1-.63,3.31,1.38.06-.29a.32.32,0,0,0-.22-.39L454.84,331l-.09,0c-.13,0-.21,0-.23.2Z"/><path d="M-5.1,400.17l.2-.94,2.72.53-2.56-1.16.18-.9L.9,400.17l-.21.95-2.6-.52,2.47,1.12-.2.92Z"/><path d="M0,394.39,2,395l-.21,1-1.17-.35-.15.7,1.1.67-.21,1L-.5,396.79l-3.39-2.17.28-1.24Zm-.27.95-1.7-.52,1.6,1Z"/><path d="M2.17,394.37l-4.82-2.19.21-.95,4,1.83.28-1.29.78.36Z"/><path d="M1.41,388.85l-2.84-2.26.21-.94,4.82,2.18-.2.92-2.15-1,2,1.54-.15.66-2.29-.4,2.17,1-.21.92L-2,389.31l.2-.94Z"/><path d="M3.36,384.09a1.36,1.36,0,0,1,.77,1.71c-.15.69-.49,1-1,.87a1.74,1.74,0,0,1-.32-.11l-2.88-1.3a1.36,1.36,0,0,1-.78-1.71c.16-.69.49-1,1-.87a1.45,1.45,0,0,1,.31.11Zm-3.1-.35-.08,0c-.13,0-.21,0-.24.19a.31.31,0,0,0,.2.4L3,385.61l.09,0c.12,0,.21,0,.24-.19a.33.33,0,0,0-.2-.4Z"/><path d="M-.32,381.51l.21-.94,2.41.4-2.26-1,.19-.9,4.82,2.19-.2.94-2.33-.38,2.19,1-.2.92Z"/><path d="M.42,378.15l.28-1.27a.11.11,0,0,0,0-.05c.14-.63.46-.9,1-.79a1.92,1.92,0,0,1,.33.12l2.73,1.24A1.29,1.29,0,0,1,5.53,379v.05l-.27,1.27Zm1-.6L4.68,379l.06-.28a.32.32,0,0,0-.21-.4L1.8,377.11l-.09,0c-.13,0-.21,0-.24.19Z"/><path d="M.86,373l.29-1.32q.21-.93,1-.75a1.81,1.81,0,0,1,.41.14l3.1,1.4a1.4,1.4,0,0,1,.93,1.69.1.1,0,0,0,0,0l-.28,1.27Zm1.08-.55,3.72,1.68.06-.29a.36.36,0,0,0-.24-.42L2.37,372l-.11,0a.2.2,0,0,0-.26.18Z"/><path d="M2.22,370l.26-1.21a.08.08,0,0,0,0,0c.14-.64.47-.9,1-.79a1.82,1.82,0,0,1,.33.11l.71.32a1.14,1.14,0,0,1,.72,1l2.42.08-.23,1-2.15-.23v0l2,.9-.21.95Zm1-.6,1.24.56,0-.11a.77.77,0,0,0,0-.22.33.33,0,0,0-.21-.29L3.58,369l-.09,0c-.12,0-.2,0-.24.19Z"/><path d="M49.52,402.46,44.05,400l.21-.95,4.6,2.08.28-1.29.87.39Z"/><path d="M48.94,396.39l1.79.52-.21,1-1-.3-.15.7,1,.62-.21,1-1.67-1.06-3-2,.27-1.24Zm-.26.95-1.5-.43,1.4.89Z"/><path d="M45.76,392.2,46,391c.13-.62.48-.87,1-.75a1.53,1.53,0,0,1,.41.14l.8.36a1.49,1.49,0,0,1,.94,1.33,2,2,0,0,1-.06.59v.06l2.29,1-.21.95Zm1.08-.56,1.43.65,0-.12a1.26,1.26,0,0,0,0-.21.4.4,0,0,0-.26-.31l-.8-.36-.11,0a.2.2,0,0,0-.26.18Z"/><path d="M47.09,389.34l.49-2.24.78.35-.28,1.29,1.24.56.24-1.11.78.36-.24,1.11,1.24.56.28-1.29.78.35-.49,2.25Z"/><path d="M47.73,386.41l.49-2.25.78.36-.28,1.29,1.24.56.24-1.11.78.35-.24,1.11,1.24.56.29-1.29.78.36-.49,2.24Z"/><path d="M48.37,383.47l.27-1.2a.43.43,0,0,1,0,0c.14-.64.46-.9,1-.79a1.21,1.21,0,0,1,.33.12l.72.32a1.13,1.13,0,0,1,.71,1l2.42.09-.23,1-2.14-.23v0l2,.9-.21,1Zm1-.6,1.24.57,0-.12a1.26,1.26,0,0,0,0-.21.36.36,0,0,0-.21-.29l-.72-.32a.13.13,0,0,0-.08,0c-.13,0-.21,0-.24.19Z"/><path d="M48.79,378.37l.29-1.32c.14-.62.48-.87,1-.75a1.48,1.48,0,0,1,.4.14l3.11,1.4a1.38,1.38,0,0,1,.92,1.68.11.11,0,0,1,0,.05l-.28,1.27Zm1.08-.56,3.72,1.68.06-.28a.35.35,0,0,0-.24-.42l-3.1-1.4-.12,0c-.14,0-.22,0-.26.18Z"/><path d="M50.15,375.35l.26-1.2,0,0c.14-.63.46-.9,1-.79a1.92,1.92,0,0,1,.33.12l.71.32a1.14,1.14,0,0,1,.72,1l2.42.09-.23,1-2.14-.23v0l2,.91-.21,1Zm1-.59,1.24.56,0-.12a1.26,1.26,0,0,0,0-.21.37.37,0,0,0-.21-.29l-.72-.32-.08,0c-.13,0-.21,0-.24.19Z"/><path d="M103.44,400.56l.28-1.25q.21-.93,1-.75a1.81,1.81,0,0,1,.41.14l.81.36a1.27,1.27,0,0,1,.82,1.06l2.72.22-.23,1-2.5-.34v0l2.35,1.06-.21,1Zm1.08-.55,1.43.64,0-.12a.44.44,0,0,0,0-.2.4.4,0,0,0-.25-.32l-.81-.36-.11,0a.2.2,0,0,0-.26.18Z"/><path d="M109.19,396.88a1.36,1.36,0,0,1,.77,1.71c-.15.7-.48,1-1,.87a1.39,1.39,0,0,1-.31-.1l-2.89-1.31a1.36,1.36,0,0,1-.78-1.71c.16-.69.49-1,1-.87a1.45,1.45,0,0,1,.31.11Zm-3.1-.35-.08,0c-.13,0-.21,0-.24.19a.32.32,0,0,0,.2.41l2.89,1.3.08,0c.13,0,.21,0,.24-.19a.33.33,0,0,0-.2-.4Z"/><path d="M105.52,394.3l.27-1.27,0,0c.14-.64.46-.9,1-.79a1.82,1.82,0,0,1,.33.11l.71.32a.92.92,0,0,1,.58.67.47.47,0,0,1,.5-.16l.24.08.7.33a1.29,1.29,0,0,1,.8,1.62v.05l-.28,1.27Zm1-.6,1.24.57,0-.19a.46.46,0,0,0,0-.21.33.33,0,0,0-.21-.29l-.71-.32-.08,0c-.13,0-.21,0-.24.19Zm2,.92,1.25.56.06-.28a.33.33,0,0,0-.2-.4l-.71-.32-.08,0a.18.18,0,0,0-.21.09,1,1,0,0,0-.07.2Z"/><path d="M106.23,391l.49-2.24.78.35-.28,1.29,1.24.56.25-1.11.77.36-.24,1.11,1.25.56.28-1.29.78.35-.49,2.24Z"/><path d="M106.87,388.1l.27-1.21a.08.08,0,0,0,0,0c.14-.64.46-.9,1-.79a1.52,1.52,0,0,1,.32.11l.72.32a1.12,1.12,0,0,1,.71,1l2.42.08-.23,1-2.14-.23v0l2,.9-.21.95Zm1-.6,1.25.56,0-.11a1.49,1.49,0,0,0,0-.22.37.37,0,0,0-.21-.29l-.71-.32-.09,0c-.13,0-.21,0-.24.19Z"/><path d="M108.06,382.69l.78.35-.17.76,4,1.83-.21.95-4-1.83-.17.76-.78-.35Z"/><path d="M109.16,382.52a1.35,1.35,0,0,1-.77-1.71c.15-.69.48-1,1-.86a1.39,1.39,0,0,1,.31.1l.69.31-.21,1-.68-.31-.09,0q-.19,0-.24.18a.33.33,0,0,0,.2.41l.43.19.06,0c.19,0,.46-.1.83-.42a1.18,1.18,0,0,1,1.06-.35,1.13,1.13,0,0,1,.24.08l.6.27a1.34,1.34,0,0,1,.77,1.71c-.15.69-.48,1-1,.87a2.33,2.33,0,0,1-.31-.11l-.69-.31.21-1,.69.32.08,0c.13,0,.21,0,.24-.19a.32.32,0,0,0-.2-.4l-.54-.24-.07,0c-.2-.05-.48.09-.84.4a1.16,1.16,0,0,1-1.08.35.75.75,0,0,1-.24-.08Z"/><path d="M113.3,378.11a1.35,1.35,0,0,1,.77,1.71c-.15.7-.48,1-1,.87a1.45,1.45,0,0,1-.31-.11l-2.89-1.3a1.36,1.36,0,0,1-.77-1.71c.15-.69.48-1,1-.87a1.52,1.52,0,0,1,.32.11Zm-3.09-.35-.09,0c-.13,0-.21,0-.24.19a.33.33,0,0,0,.2.4l2.89,1.31.08,0c.13,0,.21,0,.24-.19a.31.31,0,0,0-.2-.4Z"/><path d="M109.63,375.53l.2-.94,2.42.4L110,374l.19-.9,4.82,2.19-.2.94-2.32-.38,2.19,1-.21.92Z"/><path d="M110.08,370.29l.29-1.32c.14-.63.48-.88,1-.76a2,2,0,0,1,.41.14l.81.36a1.06,1.06,0,0,1,.66.72.55.55,0,0,1,.55-.14l.27.1.81.36a1.4,1.4,0,0,1,.93,1.69s0,0,0,.05l-.28,1.27Zm1.08-.56,1.42.64,0-.18a.71.71,0,0,0,0-.21.39.39,0,0,0-.25-.31l-.81-.37-.11,0a.2.2,0,0,0-.26.18Zm2.29,1,1.43.64.06-.28a.35.35,0,0,0-.25-.42l-.8-.37-.1,0a.21.21,0,0,0-.23.08.87.87,0,0,0-.07.19Z"/><path d="M116.26,369.48l-4.83-2.18.21-1,4,1.84.28-1.29.78.35Z"/><path d="M117.29,364.78,117,366l-3.23-.82-1.78-.51.21-1,3.34.95-3.12-2,.21-1,1.67,1.06Z"/><path d="M112.79,361.11l.28-1.27a.2.2,0,0,1,0,0c.14-.64.46-.9,1-.79a1.42,1.42,0,0,1,.33.11l2.74,1.24a1.29,1.29,0,0,1,.79,1.62v0l-.28,1.27Zm1-.6L117,362l.07-.29a.32.32,0,0,0-.21-.4l-2.74-1.24-.08,0c-.13,0-.21,0-.24.19Z"/><path d="M133.73,329.43a2.23,2.23,0,0,1,2.21-2.16c1.08-.09,1.65.31,1.73,1.2a3.44,3.44,0,0,1,0,.63l-.16,1.31-1.52.13.17-1.31a1.28,1.28,0,0,0,0-.19q0-.33-.39-.3h0c-.29,0-.46.21-.51.56l-.1.82a.28.28,0,0,0,0,.13c0,.35.36.74,1,1.19a2.08,2.08,0,0,1,1,1.57,2,2,0,0,1,0,.49l-.15,1.14a2.21,2.21,0,0,1-2.2,2.17c-1.08.09-1.66-.31-1.73-1.2a2.82,2.82,0,0,1,0-.64l.16-1.31,1.51-.13-.16,1.32a1.15,1.15,0,0,0,0,.18q0,.33.39.3a.54.54,0,0,0,.51-.56l.13-1a.76.76,0,0,0,0-.15c0-.37-.36-.78-1-1.22a2.13,2.13,0,0,1-1-1.58,2.18,2.18,0,0,1,0-.51Z"/><path d="M142.23,333.12l.07,2.9-1.53.13,0-1.68-1.11.1-.47,1.72-1.52.13.8-3,1.58-5.33,2-.17Zm-1.52.05-.06-2.42-.67,2.48Z"/><path d="M144.33,327.76l1.48-.12.53,3.77.49-3.84,1.41-.14-1,8.18-1.49.12-.5-3.62-.47,3.7-1.46.13Z"/><path d="M153.21,327l-.17,1.32-1.2.11-.86,6.85-1.51.13.86-6.86-1.2.1.16-1.32Z"/><path d="M157.42,331.83l.07,2.91-1.53.13,0-1.68-1.11.09-.47,1.72-1.52.13.8-3,1.58-5.33,2-.16Zm-1.53.05,0-2.42-.67,2.48Z"/><path d="M164.37,330.77l2.12-5.95,1.5-.13L166.83,334l-1.46.12.52-4.12-1.41,4.19-1.06.09-.4-4.07-.52,4.15-1.47.13,1.16-9.25,1.49-.13Z"/><path d="M172.27,331.86a2.1,2.1,0,0,1-2.18,1.93c-1.1.09-1.68-.27-1.75-1.09a3,3,0,0,1,0-.51l.62-4.89a2.1,2.1,0,0,1,2.18-1.94c1.1-.09,1.68.27,1.75,1.09a1.85,1.85,0,0,1,0,.52Zm-.9-4.76a.71.71,0,0,0,0-.14q0-.3-.39-.27a.5.5,0,0,0-.51.49l-.61,4.88a.66.66,0,0,0,0,.14c0,.2.15.29.4.27a.51.51,0,0,0,.5-.49Z"/><path d="M174.42,325.21l1.48-.12.53,3.77.48-3.84,1.42-.14-1,8.18-1.49.12-.51-3.62-.46,3.71-1.46.12Z"/><path d="M179.77,324.76l1.51-.13-1,8.18-1.51.13Z"/><path d="M185.7,330.72a2.1,2.1,0,0,1-2.19,1.93c-1.1.1-1.68-.27-1.75-1.09a2.26,2.26,0,0,1,0-.51l.61-4.88a2.1,2.1,0,0,1,2.18-1.94c1.1-.1,1.69.27,1.76,1.09a3,3,0,0,1,0,.51l-.14,1.17-1.51.13.14-1.17a.33.33,0,0,0,0-.14q0-.3-.39-.27a.51.51,0,0,0-.51.49l-.61,4.88a.33.33,0,0,0,0,.14q0,.3.39.27a.49.49,0,0,0,.5-.48l.15-1.17,1.51-.13Z"/><path d="M191,329l.06,2.9-1.52.13,0-1.67-1.11.09-.47,1.72-1.52.13.8-3,1.58-5.33,2-.16Zm-1.53.05-.05-2.42-.68,2.48Z"/><path d="M195.72,322.34l2.09-.17c1-.08,1.53.31,1.6,1.17a3.07,3.07,0,0,1,0,.67l-.17,1.37a1.66,1.66,0,0,1-.77,1.31.85.85,0,0,1,.47.75,2.46,2.46,0,0,1,0,.46l-.17,1.37a2.15,2.15,0,0,1-2.08,2.14h-.07l-2,.17Zm.84,5.24-.3,2.41.45,0c.3,0,.47-.21.51-.56l.17-1.36a1,1,0,0,0,0-.17.31.31,0,0,0-.22-.3.81.81,0,0,0-.32,0Zm.49-3.89-.3,2.41.29,0a1.64,1.64,0,0,0,.32-.06.6.6,0,0,0,.35-.52l.17-1.36a.54.54,0,0,0,0-.18c0-.23-.14-.33-.38-.31Z"/><path d="M199.76,331.15l1-8.17,1.51-.13-.86,6.85,2-.17-.16,1.32Z"/><path d="M207.22,330.52l-2,.17-.26-5.17-.06-2.89,1.52-.13.12,5.4,1.49-5.54,1.53-.13-.8,3Z"/><path d="M210.6,322.15l2-.17h.08c1-.09,1.54.27,1.61,1.07a2,2,0,0,1,0,.54l-.58,4.63a2,2,0,0,1-2,1.92h-.08l-2,.17Zm1.35,1.19-.7,5.53.45,0a.49.49,0,0,0,.5-.49l.58-4.63a.66.66,0,0,0,0-.14q0-.3-.39-.27Z"/><path d="M225.65,426.57a1.42,1.42,0,0,1-1.11-1.65c.07-.69.39-1,1-.95a2.35,2.35,0,0,1,.4.08l.81.26-.1,1-.81-.26-.11,0q-.21,0-.24.21h0a.35.35,0,0,0,.29.39l.51.16.08,0c.22,0,.51-.14.87-.49a1.36,1.36,0,0,1,1.11-.44,1.63,1.63,0,0,1,.3.07l.71.23a1.42,1.42,0,0,1,1.11,1.65c-.07.69-.39,1-1,.95a1.62,1.62,0,0,1-.4-.09l-.81-.25.1-1,.81.26.11,0q.21,0,.24-.21a.35.35,0,0,0-.29-.39l-.64-.21-.09,0a1.29,1.29,0,0,0-.89.48,1.36,1.36,0,0,1-1.12.43l-.32-.06Z"/><path d="M229,421.63l1.84.3-.09,1-1.07-.17-.07.71,1,.5-.1,1-1.77-.85-3.19-1.63.13-1.26Zm-.15,1-1.54-.25,1.5.72Z"/><path d="M225.84,419.67l.1-.95,2.44.11-2.36-.76.08-.91,5,1.61-.09,1-2.35-.11,2.28.73-.09.94Z"/><path d="M231.58,414.37l-.12,1.26-3.73-.58-2.07-.38.1-1,3.88.71-3.78-1.74.1-1,2,.93Z"/><path d="M226.68,411.34l.09-1,5,1.62-.09,1Z"/><path d="M231.14,408.3a1.36,1.36,0,0,1,1,1.61c-.07.7-.37,1-.9,1a1.43,1.43,0,0,1-.32-.07l-3-1a1.35,1.35,0,0,1-1-1.61c.07-.7.37-1,.89-1a2.46,2.46,0,0,1,.33.07l.72.23-.1,1-.72-.23-.09,0c-.13,0-.2.06-.22.22a.33.33,0,0,0,.25.38l3,1,.09,0c.13,0,.2-.06.21-.22a.32.32,0,0,0-.24-.37l-.73-.23.1-1Z"/><path d="M227.19,406.19l.23-2.29.82.26-.13,1.32,1.3.42.11-1.14.82.27-.12,1.13,1.3.41.13-1.32.82.27-.23,2.28Z"/><path d="M227.49,403.2l.1-1,2.44.12-2.36-.76.08-.92,5,1.62-.09.95-2.35-.11,2.29.73-.1.94Z"/><path d="M228.07,397.5l.81.26-.08.77,4.24,1.35-.1,1-4.23-1.35-.08.77-.82-.26Z"/><path d="M228.13,396.82l.23-2.29.82.27-.13,1.31,1.3.42.11-1.13.81.26-.11,1.13,1.3.41.13-1.31.82.26-.23,2.28Z"/><path d="M228.1,390.36l.13-1.34q.11-1,.93-.87a1.76,1.76,0,0,1,.42.09l.84.27a1,1,0,0,1,.74.64.55.55,0,0,1,.53-.21,1.11,1.11,0,0,1,.29.07l.85.27a1.37,1.37,0,0,1,1.11,1.56v.05l-.13,1.3Zm1-.68,1.49.47,0-.18a.68.68,0,0,0,0-.21.38.38,0,0,0-.28-.28l-.84-.27-.12,0q-.21,0-.24.21Zm2.41.77,1.48.47,0-.29a.34.34,0,0,0-.29-.38l-.84-.27-.11,0a.21.21,0,0,0-.22.1,1,1,0,0,0,0,.2Z"/><path d="M234.14,388.85l-5-1.61.1-1,4.23,1.35.13-1.32.82.26Z"/><path d="M234.62,384.05l-.12,1.26-3.3-.44-1.84-.3.1-1,3.43.56-3.33-1.6.1-1,1.79.86Z"/><path d="M229.73,380.93l.13-1.3v0q.1-1,.87-.9a2.58,2.58,0,0,1,.34.07l2.86.92a1.31,1.31,0,0,1,1,1.52v.05l-.13,1.29Zm.91-.71,3.42,1.09,0-.29a.32.32,0,0,0-.25-.37l-2.86-.91-.08,0c-.13,0-.21.06-.22.22Z"/><path d="M333.23,372.91l-.36-.91,2.48-.42-.21-.54-2.48.43-.36-.91,5.91-1,.36.91-2.49.42.22.54,2.48-.42.36.9Z"/><path d="M336,366.7a1.35,1.35,0,0,1,1.6,1c.26.65.15,1.08-.35,1.28a2,2,0,0,1-.31.08l-4.18.71-.36-.91,4.18-.7.08,0c.12-.05.15-.14.1-.29a.34.34,0,0,0-.4-.22l-4.17.71-.36-.91Z"/><path d="M331.51,366.73l-.35-.89,2.22-1-2.45.42-.35-.85,5.22-.89.36.89-2.14,1,2.37-.41.34.88Z"/><path d="M329.45,361.54l.84-.14.29.72,4.38-.75.36.91-4.38.75.29.72-.85.14Z"/><path d="M334.48,360.16l-5.22.89-.36-.91,4.37-.74-.48-1.23.84-.14Z"/><path d="M328.22,358.45l-.84-2.13.84-.15.49,1.23,1.34-.23-.42-1.05.85-.15.42,1.06,1.34-.23-.48-1.23.84-.14.85,2.13Z"/><path d="M326.89,355.08l1.6-.77-2-.17-.38-1,3.35.45h.07l2.19-.37.37.91-2.2.37-.05,0L327.27,356Z"/><path d="M324.71,351.45l-.49-1.25c-.24-.6-.1-1,.42-1.21a3.16,3.16,0,0,1,.42-.11l3.36-.57a1.38,1.38,0,0,1,1.7.88s0,0,0,.05l.48,1.21Zm.58-1.07,4-.68-.11-.27a.35.35,0,0,0-.44-.21l-3.35.57-.12,0c-.13.05-.17.15-.11.3Z"/><path d="M324.21,348.33l-.46-1.14a.2.2,0,0,0,0-.05q-.36-.92.36-1.2l.33-.09.77-.13a1.13,1.13,0,0,1,1.16.44l2.05-1.29.39,1-1.9,1v0l2.16-.37.36.91Zm.48-1.05,1.35-.23-.05-.11a1.84,1.84,0,0,0-.09-.19.36.36,0,0,0-.34-.12l-.77.13-.09,0q-.18.08-.09.3Z"/><path d="M278.76,249.94a1.42,1.42,0,0,1,1.09-1.66c.66-.21,1.08,0,1.25.52a1.44,1.44,0,0,1,.07.4l.08.84-.93.29-.08-.85a.36.36,0,0,0,0-.11.2.2,0,0,0-.28-.14h0a.35.35,0,0,0-.24.42l.05.53a.19.19,0,0,0,0,.08c.07.22.33.42.79.62a1.32,1.32,0,0,1,.83.85,1.45,1.45,0,0,1,.06.3l.07.75a1.44,1.44,0,0,1-1.09,1.66c-.67.2-1.09,0-1.26-.52a2.21,2.21,0,0,1-.07-.4l-.08-.85.94-.28.07.84c0,.05,0,.09,0,.12s.14.18.29.13.26-.19.24-.42l-.05-.67s0-.06,0-.09c-.07-.23-.34-.44-.79-.63a1.36,1.36,0,0,1-.83-.86,1.65,1.65,0,0,1-.06-.32Z"/><path d="M284.71,251.92a1.36,1.36,0,0,1-1.1,1.52c-.68.21-1.1.06-1.25-.45a1.4,1.4,0,0,1-.06-.32l-.38-4.22.93-.29.38,4.22s0,.06,0,.09.14.16.29.11a.32.32,0,0,0,.25-.37L283.4,248l.93-.28Z"/><path d="M285.18,247.45l.91-.29.85,2.3-.22-2.48.87-.28.48,5.28-.92.28-.81-2.21.21,2.39-.9.28Z"/><path d="M288.5,247.51a1.36,1.36,0,0,1,1.11-1.52c.67-.21,1.09-.06,1.25.45a1.4,1.4,0,0,1,.06.32l.07.76-.93.28-.08-.75a.28.28,0,0,0,0-.09c0-.12-.13-.16-.28-.12a.34.34,0,0,0-.26.38l.05.47a.13.13,0,0,0,0,.06c.06.19.31.36.77.51a1.2,1.2,0,0,1,.84.76,1,1,0,0,1,0,.24l.06.66a1.35,1.35,0,0,1-1.1,1.51c-.68.21-1.1.06-1.26-.44a2.79,2.79,0,0,1-.06-.33l-.06-.75.93-.29.07.76s0,.06,0,.08.14.17.29.12a.32.32,0,0,0,.25-.37l0-.59a.14.14,0,0,0,0-.07c-.06-.2-.31-.38-.77-.54a1.19,1.19,0,0,1-.84-.77.93.93,0,0,1,0-.25Z"/><path d="M291.64,245.45l2.19-.68.08.86-1.26.39.12,1.35,1.08-.33.08.85-1.09.34.13,1.36,1.26-.39.08.85-2.2.68Z"/><path d="M296.7,243.89l.08.85L296,245l.4,4.42-.93.29-.4-4.42-.74.23-.08-.86Z"/><path d="M298.85,242.51l1.29-.39c.61-.19,1,0,1.16.51a1.83,1.83,0,0,1,.08.43l.08.88a1,1,0,0,1-.3.93.53.53,0,0,1,.39.41,1.14,1.14,0,0,1,.06.29l.08.88a1.38,1.38,0,0,1-1,1.63l-.05,0-1.24.38Zm1,.67.14,1.55.18,0a.74.74,0,0,0,.19-.08.42.42,0,0,0,.15-.38l-.08-.88s0-.08,0-.11a.2.2,0,0,0-.29-.14Zm.22,2.51.14,1.55.28-.08a.36.36,0,0,0,.25-.42l-.09-.89a.36.36,0,0,0,0-.1.2.2,0,0,0-.18-.16.82.82,0,0,0-.2,0Z"/><path d="M302.59,247.49l-.47-5.27.93-.29.4,4.42,1.26-.39.08.86Z"/><path d="M307.2,246.07l-1.21.38-.88-3.22-.43-1.8.94-.29.81,3.38.18-3.69.94-.29-.09,2Z"/><path d="M308.17,240.35l1.24-.39h0c.63-.19,1,0,1.17.45a1.7,1.7,0,0,1,.06.35l.27,3a1.29,1.29,0,0,1-1,1.49l-.05,0-1.24.39Zm1,.56.32,3.57.28-.08A.34.34,0,0,0,310,244l-.27-3s0-.06,0-.09-.13-.16-.28-.11Z"/><path d="M235.13,483.18l1.27-3.85,1-.11-.6,6-.93.1.26-2.66-.83,2.72-.68.08-.33-2.61-.27,2.67-.94.11.59-6,1-.1Z"/><path d="M238.2,479.82l2.28-.26-.09.86-1.31.14-.14,1.36,1.13-.13-.08.86-1.13.12-.14,1.36L240,484l-.09.86-2.28.25Z"/><path d="M240.65,484.76l.53-5.27,1-.11-.44,4.42,1.31-.15-.08.86Z"/><path d="M244.11,479.16l1.22-.13h0c.65-.08,1,.15,1.06.66a2,2,0,0,1,0,.35l-.08.77a1.13,1.13,0,0,1-.73,1l.7,2.32-1.06.12-.47-2.11h0l-.22,2.18-1,.11Zm.88.75-.13,1.36.11,0a.58.58,0,0,0,.21,0,.31.31,0,0,0,.21-.29l.08-.78v-.09c0-.13-.1-.18-.26-.16Z"/><path d="M249.36,482.75A1.34,1.34,0,0,1,248,484c-.7.08-1.08-.15-1.14-.67a1.82,1.82,0,0,1,0-.33l.32-3.15a1.35,1.35,0,0,1,1.37-1.29c.7-.07,1.08.15,1.14.68a1.82,1.82,0,0,1,0,.33Zm-.65-3v-.1c0-.12-.1-.18-.26-.16a.31.31,0,0,0-.31.32l-.32,3.15V483c0,.13.1.18.26.17a.31.31,0,0,0,.31-.32Z"/><path d="M250.47,479.51a1.35,1.35,0,0,1,1.37-1.28c.7-.08,1.09.14,1.14.67a1.21,1.21,0,0,1,0,.33l-.07.76-1,.1.07-.75a.14.14,0,0,0,0-.09c0-.13-.09-.18-.25-.17a.33.33,0,0,0-.32.32l-.05.47v.06c0,.19.25.41.67.65a1.17,1.17,0,0,1,.67.9,1,1,0,0,1,0,.25l-.06.65a1.34,1.34,0,0,1-1.37,1.28c-.71.08-1.09-.14-1.15-.67a1.82,1.82,0,0,1,0-.33l.08-.75,1-.11-.08.75v.09c0,.13.1.19.26.17a.33.33,0,0,0,.32-.32l.06-.59v-.07c0-.21-.24-.43-.66-.67a1.2,1.2,0,0,1-.68-.91,1.13,1.13,0,0,1,0-.26Z"/><path d="M253.94,478.08l2.28-.25-.09.85-1.31.14-.13,1.36,1.13-.12-.09.85-1.13.12-.13,1.36,1.31-.14-.09.85-2.28.25Z"/><path d="M258.62,476.88l1.34-.15c.64-.07,1,.17,1.05.73a2.1,2.1,0,0,1,0,.43l-.08.88a1,1,0,0,1-.47.85.55.55,0,0,1,.31.48,1.55,1.55,0,0,1,0,.3l-.08.88a1.38,1.38,0,0,1-1.3,1.41h-.05l-1.29.14Zm.63,3.35-.16,1.55.29,0c.19,0,.3-.14.32-.37l.08-.88a.17.17,0,0,0,0-.1.19.19,0,0,0-.15-.19h-.2Zm.24-2.51-.15,1.56.19,0a.56.56,0,0,0,.2,0,.38.38,0,0,0,.22-.33L260,478a.57.57,0,0,0,0-.12c0-.15-.1-.21-.26-.19Z"/><path d="M261.36,482.48l.52-5.28,1-.1-.44,4.42,1.32-.15-.09.85Z"/><path d="M266.15,482l-1.26.14-.25-3.32-.09-1.86,1-.11.16,3.47.87-3.58,1-.11-.47,1.92Z"/><path d="M268.18,476.51l1.3-.14h0q1-.11,1.05.66a1.36,1.36,0,0,1,0,.35l-.3,3a1.29,1.29,0,0,1-1.28,1.27H269l-1.29.15Zm.89.74-.36,3.57.29,0a.31.31,0,0,0,.31-.32l.3-3a.14.14,0,0,0,0-.09c0-.13-.1-.19-.25-.17Z"/><path d="M257.6,271.84a1,1,0,0,1-1,.84q-.69,0-.69-.57a1.39,1.39,0,0,1,0-.27l.5-2.35a1,1,0,0,1,1-.84c.46,0,.7.19.7.57a.93.93,0,0,1,0,.27l-.11.56h-.65l.11-.56a.17.17,0,0,0,0-.07.13.13,0,0,0-.15-.15h0a.24.24,0,0,0-.24.22l-.5,2.35a.22.22,0,0,0,0,.08c0,.09.05.14.16.14a.25.25,0,0,0,.24-.22l.11-.56h.65Z"/><path d="M258,272.62l.73-3.45h.65l-.61,2.89h.88l-.12.56Z"/><path d="M261.74,271.93a.91.91,0,0,1-1,.74c-.47,0-.7-.17-.7-.53a.82.82,0,0,1,0-.21l.44-2.07a.9.9,0,0,1,1-.75c.48,0,.71.18.71.53a1.8,1.8,0,0,1,0,.22Zm-.21-2.07v-.06c0-.09,0-.13-.15-.13a.22.22,0,0,0-.24.19l-.44,2.07V272c0,.09.05.14.15.14a.23.23,0,0,0,.24-.19Z"/><path d="M262.71,269.86a.9.9,0,0,1,1-.75c.47,0,.71.18.71.53a.89.89,0,0,1,0,.22l-.1.49h-.65l.1-.49a.13.13,0,0,0,0-.06c0-.09-.05-.13-.16-.13a.21.21,0,0,0-.23.19l-.07.31v0q0,.19.39.48a.79.79,0,0,1,.38.64.5.5,0,0,1,0,.17l-.09.43a.9.9,0,0,1-1,.74c-.47,0-.71-.17-.71-.53a.82.82,0,0,1,0-.21l.1-.5H263l-.1.5a.11.11,0,0,0,0,.05c0,.09,0,.14.16.14a.22.22,0,0,0,.23-.19l.08-.39a.07.07,0,0,0,0-.05c0-.14-.13-.3-.39-.49a.8.8,0,0,1-.38-.65,1,1,0,0,1,0-.17Z"/><path d="M265.11,269.17h1.53l-.12.55h-.88l-.19.89h.76l-.12.56h-.76l-.19.89H266l-.11.56h-1.54Z"/><path d="M267.11,269.17h.9c.44,0,.65.17.65.51a2,2,0,0,1,0,.23l-.42,2a.87.87,0,0,1-.94.75h-.9Zm.53.55-.49,2.34h.19a.21.21,0,0,0,.23-.19l.42-2v-.06c0-.08-.05-.13-.15-.13Z"/><path d="M257.69,275.88l-.08,1.24H257l0-.72h-.48l-.26.72h-.65l.45-1.24.86-2.21h.85Zm-.65,0,.06-1-.37,1Z"/><path d="M260.22,273.67l-.12.55h-.52l-.61,2.9h-.65l.61-2.9h-.52l.12-.55Z"/><path d="M262.84,276.34a1,1,0,0,1-1,.84c-.46,0-.7-.19-.7-.57a1.39,1.39,0,0,1,0-.27l.5-2.35a1,1,0,0,1,1-.84c.47,0,.7.19.7.57a1.39,1.39,0,0,1,0,.27l-.12.56h-.65l.12-.56s0-.05,0-.07-.05-.15-.16-.15h0a.24.24,0,0,0-.24.22l-.49,2.35a.22.22,0,0,0,0,.08c0,.09.05.14.15.14a.24.24,0,0,0,.24-.22l.12-.56H263Z"/><path d="M264.47,273.67l.09,1.18.59-1.18h.69l-1.11,2,0,0-.31,1.45h-.65l.31-1.45v0l-.27-2Z"/><path d="M266.27,273.67h.64l.09,1.62.34-1.62H268l-.73,3.45h-.64l-.08-1.57-.34,1.57h-.63Z"/><path d="M270.09,273.67l-.12.55h-.52l-.61,2.9h-.65l.61-2.9h-.51l.12-.55Z"/><path d="M270.54,273.67h.65l-.3,1.44h.38l.31-1.44h.65l-.74,3.45h-.65l.31-1.45h-.38l-.31,1.45h-.65Z"/><path d="M272.85,273.67h.65l-.74,3.45h-.65Z"/><path d="M275.28,275.88l-.08,1.24h-.66l0-.72h-.48l-.26.72h-.66l.45-1.24.87-2.21h.85Zm-.66,0,.07-1-.38,1Z"/><path d="M343.12,386.27a1,1,0,0,1-1,.85c-.46,0-.69-.2-.69-.58a1.39,1.39,0,0,1,0-.27l.5-2.34a1,1,0,0,1,1-.85c.46,0,.69.19.69.58a1.39,1.39,0,0,1,0,.27l-.12.55h-.65l.12-.55a.25.25,0,0,0,0-.08c0-.1-.05-.14-.15-.14h0c-.12,0-.2.07-.23.22l-.5,2.34a.22.22,0,0,0,0,.08c0,.09.05.14.15.14s.21-.07.24-.22l.12-.55h.65Z"/><path d="M343.51,387.05l.73-3.45h.65l-.61,2.89h.88l-.12.56Z"/><path d="M347.26,386.36a.9.9,0,0,1-1,.75c-.47,0-.71-.18-.71-.53a.89.89,0,0,1,0-.22l.44-2.07a.9.9,0,0,1,1-.75c.47,0,.71.18.71.53a.89.89,0,0,1,0,.22Zm-.21-2.07a.13.13,0,0,0,0-.06c0-.08-.05-.13-.16-.13a.21.21,0,0,0-.23.19l-.44,2.07a.13.13,0,0,0,0,.06c0,.08,0,.13.16.13a.21.21,0,0,0,.23-.19Z"/><path d="M348.23,384.29a.9.9,0,0,1,1-.75c.48,0,.71.18.71.53a1.8,1.8,0,0,1,0,.22l-.11.5h-.65l.11-.5v-.06c0-.08,0-.13-.15-.13a.23.23,0,0,0-.24.19l-.06.31s0,0,0,0,.13.29.39.48a.78.78,0,0,1,.39.64,1,1,0,0,1,0,.17l-.09.43a.9.9,0,0,1-1,.75c-.48,0-.71-.18-.71-.54a1.83,1.83,0,0,1,0-.21l.11-.5h.65l-.11.5v.06c0,.08.05.13.16.13a.22.22,0,0,0,.23-.19l.08-.39s0,0,0,0-.13-.31-.39-.5a.77.77,0,0,1-.38-.65.52.52,0,0,1,0-.17Z"/><path d="M350.64,383.6h1.53l-.12.56h-.88l-.19.89h.75l-.11.55h-.76l-.19.89h.88l-.12.56H349.9Z"/><path d="M352.64,383.6h.9c.43,0,.65.17.65.52a1.11,1.11,0,0,1,0,.23l-.41,1.95a.87.87,0,0,1-.95.75h-.9Zm.53.56-.5,2.33h.2a.22.22,0,0,0,.23-.19l.41-1.95a.18.18,0,0,0,0-.06c0-.09,0-.13-.16-.13Z"/><path d="M343.22,390.31l-.08,1.24h-.66l0-.72h-.48l-.26.72h-.65l.44-1.23.87-2.22h.85Zm-.66,0,.07-1-.38,1Z"/><path d="M345.74,388.1l-.11.56h-.52l-.62,2.89h-.65l.62-2.89h-.52l.12-.56Z"/><path d="M348.11,390.11l1.13-2.47h.64l-.83,3.91h-.63l.37-1.74-.75,1.74h-.46l0-1.75-.37,1.75h-.64l.83-3.91H348Z"/><path d="M350.39,388.1h1.53l-.11.56h-.89l-.19.89h.76l-.12.55h-.75l-.19.89h.88l-.12.56h-1.53Z"/><path d="M351.66,391.55l.74-3.45h.65l-.62,2.89h.88l-.12.56Z"/><path d="M354.36,388.1h.85c.44,0,.65.17.65.52a1,1,0,0,1,0,.23l-.11.51a.78.78,0,0,1-.55.61l.29,1.58h-.71l-.16-1.43h0l-.31,1.42h-.65Zm.53.56-.19.89h.08a.37.37,0,0,0,.14,0,.21.21,0,0,0,.16-.17l.11-.51v-.06c0-.09-.05-.13-.15-.13Z"/><path d="M357.58,390.86a.9.9,0,0,1-1,.75c-.47,0-.71-.18-.71-.53a1.8,1.8,0,0,1,0-.22l.44-2.07a.91.91,0,0,1,1-.75c.47,0,.7.18.7.53a.86.86,0,0,1,0,.22Zm-.21-2.07s0,0,0-.06-.06-.13-.16-.13a.23.23,0,0,0-.24.19l-.44,2.07v.06c0,.08,0,.13.16.13a.22.22,0,0,0,.23-.19Z"/><path d="M358.55,388.79a.9.9,0,0,1,1-.75c.47,0,.71.18.71.53a.89.89,0,0,1,0,.22l-.1.5h-.65l.1-.5a.13.13,0,0,0,0-.06c0-.08,0-.13-.16-.13a.22.22,0,0,0-.23.19l-.07.31v0q0,.19.39.48a.77.77,0,0,1,.38.64,1,1,0,0,1,0,.17l-.1.43a.89.89,0,0,1-1,.75c-.47,0-.71-.18-.71-.54a.88.88,0,0,1,0-.21l.1-.5h.65l-.1.5s0,0,0,.06.06.13.16.13a.21.21,0,0,0,.23-.19l.09-.39v0c0-.14-.13-.31-.38-.5a.78.78,0,0,1-.39-.65,1.11,1.11,0,0,1,0-.17Z"/><path d="M361,388.1h1.53l-.12.56h-.88l-.19.89h.76l-.12.55h-.76L361,391h.88l-.12.56h-1.53Z"/><path d="M229.93,440.21a1,1,0,0,1-1,.84q-.69,0-.69-.57a1.39,1.39,0,0,1,0-.27l.5-2.35a1,1,0,0,1,1-.84c.47,0,.7.19.7.57a1.24,1.24,0,0,1,0,.27l-.12.56h-.65l.12-.56s0-.05,0-.07-.06-.14-.16-.15h0a.24.24,0,0,0-.24.22l-.5,2.35s0,.05,0,.08.05.14.16.14.21-.07.24-.22l.11-.56H230Z"/><path d="M230.31,441l.73-3.45h.66l-.62,2.89H232l-.12.56Z"/><path d="M234.07,440.3a.9.9,0,0,1-1,.74c-.48,0-.71-.17-.71-.53a1.83,1.83,0,0,1,0-.21l.44-2.07a.9.9,0,0,1,1-.75c.48,0,.71.18.71.53a1.8,1.8,0,0,1,0,.22Zm-.21-2.07v-.06c0-.09-.05-.13-.15-.13a.22.22,0,0,0-.24.19L233,440.3v.05c0,.09.05.14.15.14a.23.23,0,0,0,.24-.19Z"/><path d="M235,438.23a.9.9,0,0,1,1-.75c.47,0,.71.18.71.53a.89.89,0,0,1,0,.22l-.1.49H236l.1-.49a.13.13,0,0,0,0-.06c0-.09-.05-.13-.16-.13a.21.21,0,0,0-.23.19l-.07.31v0q0,.19.39.48a.79.79,0,0,1,.38.64.5.5,0,0,1,0,.17l-.09.43a.9.9,0,0,1-1,.74c-.47,0-.71-.17-.71-.53a.82.82,0,0,1,0-.21l.1-.5h.65l-.1.5a.11.11,0,0,0,0,.05c0,.09,0,.14.16.14a.21.21,0,0,0,.23-.19l.08-.39a.07.07,0,0,0,0-.05c0-.14-.13-.3-.39-.49a.8.8,0,0,1-.38-.65,1,1,0,0,1,0-.17Z"/><path d="M237.44,437.54H239l-.12.55H238l-.19.89h.76l-.12.56h-.76l-.19.89h.89l-.12.56h-1.53Z"/><path d="M239.44,437.54h.9c.44,0,.65.17.65.51a.93.93,0,0,1,0,.23l-.42,2a.86.86,0,0,1-.94.75h-.9Zm.53.55-.49,2.34h.19a.21.21,0,0,0,.23-.19l.42-2v-.06c0-.08,0-.13-.15-.13Z"/><path d="M230,444.25l-.07,1.24h-.66l0-.72h-.47l-.27.72h-.65l.45-1.24.87-2.21h.84Zm-.65,0,.06-1-.37,1Z"/><path d="M232.55,442l-.12.55h-.52l-.61,2.9h-.65l.61-2.9h-.52l.12-.55Z"/><path d="M234.92,444l1.12-2.46h.64l-.83,3.91h-.62l.37-1.74-.76,1.74h-.45l0-1.75-.37,1.75h-.63l.83-3.91h.64Z"/><path d="M237.2,442h1.53l-.12.55h-.88l-.19.89h.76l-.12.56h-.76l-.19.89h.88l-.12.56h-1.53Z"/><path d="M238.46,445.49l.74-3.45h.65l-.62,2.89h.89l-.12.56Z"/><path d="M241.16,442H242c.43,0,.65.17.65.51a1,1,0,0,1,0,.23l-.11.51a.74.74,0,0,1-.55.61l.29,1.59h-.71l-.16-1.43h0l-.3,1.43h-.65Zm.53.55-.19.89h.22a.23.23,0,0,0,.16-.18l.11-.51a.13.13,0,0,0,0-.06c0-.08-.05-.13-.16-.13Z"/><path d="M244.38,444.8a.9.9,0,0,1-1,.74c-.47,0-.71-.17-.71-.53a.88.88,0,0,1,0-.21l.44-2.07a.9.9,0,0,1,1-.75c.47,0,.71.18.71.53a.89.89,0,0,1,0,.22Zm-.21-2.07a.13.13,0,0,0,0-.06c0-.09-.05-.13-.16-.13a.21.21,0,0,0-.23.19l-.44,2.07a.11.11,0,0,0,0,.05c0,.09.06.14.16.14a.21.21,0,0,0,.23-.19Z"/><path d="M245.35,442.73a.9.9,0,0,1,1-.75c.48,0,.71.18.71.53a1.8,1.8,0,0,1,0,.22l-.11.49h-.65l.11-.49s0,0,0-.06-.06-.13-.16-.13a.22.22,0,0,0-.24.19l-.06.31s0,0,0,0,.13.29.4.48a.79.79,0,0,1,.38.64,1,1,0,0,1,0,.17l-.09.43a.9.9,0,0,1-1,.74c-.47,0-.71-.17-.71-.53a1.65,1.65,0,0,1,0-.21l.11-.5h.65l-.11.5v.05c0,.09.05.14.16.14a.22.22,0,0,0,.23-.19l.08-.39a.43.43,0,0,0,0-.05c0-.14-.13-.3-.39-.49a.77.77,0,0,1-.38-.65.5.5,0,0,1,0-.17Z"/><path d="M247.76,442h1.53l-.12.55h-.88l-.19.89h.76l-.12.56H248l-.19.89h.88l-.12.56H247Z"/><path d="M446.69,381.21a1,1,0,0,1-1,.85q-.69,0-.69-.57a1.41,1.41,0,0,1,0-.28l.49-2.34a1,1,0,0,1,1-.84q.69,0,.69.57a1.39,1.39,0,0,1,0,.27l-.12.56h-.65l.12-.56a.22.22,0,0,0,0-.08c0-.09-.05-.14-.15-.14h0c-.12,0-.2.07-.24.22l-.49,2.34a.25.25,0,0,0,0,.08.13.13,0,0,0,.15.15c.13,0,.21-.08.24-.23l.12-.55h.65Z"/><path d="M447.07,382l.74-3.46h.65l-.62,2.9h.89l-.12.56Z"/><path d="M450.83,381.3a.9.9,0,0,1-1,.75c-.47,0-.71-.18-.71-.53a.89.89,0,0,1,0-.22l.44-2.06a.9.9,0,0,1,1-.75c.47,0,.71.17.71.53a1,1,0,0,1,0,.22Zm-.21-2.06a.13.13,0,0,0,0-.06c0-.09-.05-.13-.16-.13a.21.21,0,0,0-.23.19l-.44,2.06a.13.13,0,0,0,0,.06c0,.09,0,.13.16.13a.21.21,0,0,0,.23-.19Z"/><path d="M451.8,379.24a.9.9,0,0,1,1-.75c.47,0,.71.17.71.53a2,2,0,0,1,0,.22l-.11.49h-.65l.11-.49v-.06c0-.09,0-.13-.15-.13a.22.22,0,0,0-.24.19l-.06.3a.08.08,0,0,0,0,0q0,.19.39.48a.8.8,0,0,1,.39.65.88.88,0,0,1,0,.16l-.09.43a.9.9,0,0,1-1,.75c-.48,0-.71-.18-.71-.53a.86.86,0,0,1,0-.22l.11-.49h.65l-.11.49v.06c0,.09.05.13.16.13a.22.22,0,0,0,.23-.19l.08-.38v-.05c0-.14-.12-.3-.38-.49a.81.81,0,0,1-.39-.66,1.11,1.11,0,0,1,0-.17Z"/><path d="M454.2,378.54h1.53l-.11.56h-.89l-.18.89h.75l-.12.56h-.75l-.19.89h.88L455,382h-1.53Z"/><path d="M456.21,378.54h.9c.43,0,.65.18.65.52a1,1,0,0,1,0,.23l-.42,2a.85.85,0,0,1-.94.75h-.9Zm.53.56-.5,2.34h.19a.21.21,0,0,0,.23-.19l.42-2a.13.13,0,0,0,0-.06c0-.09,0-.13-.16-.13Z"/><path d="M446.79,385.26l-.08,1.24h-.66l.05-.72h-.48l-.26.72h-.66l.45-1.24L446,383h.84Zm-.66,0,.07-1-.38,1Z"/><path d="M449.31,383l-.12.56h-.51l-.62,2.9h-.65l.62-2.9h-.52l.12-.56Z"/><path d="M451.68,385.05l1.13-2.46h.64l-.83,3.91H452l.37-1.74-.75,1.74h-.46l0-1.76-.37,1.76h-.64l.83-3.91h.65Z"/><path d="M454,383h1.53l-.12.56h-.88l-.19.89h.76l-.12.56h-.76l-.18.89h.88l-.12.56h-1.53Z"/><path d="M455.23,386.5,456,383h.65l-.61,2.9h.88l-.12.56Z"/><path d="M457.93,383h.85c.43,0,.65.18.65.52a1,1,0,0,1,0,.23l-.1.51a.76.76,0,0,1-.56.61l.29,1.59h-.71l-.15-1.43h0l-.31,1.43h-.65Zm.53.56-.19.89h.22a.24.24,0,0,0,.16-.18l.1-.51a.13.13,0,0,0,0-.06c0-.09-.05-.13-.16-.13Z"/><path d="M461.15,385.8a.9.9,0,0,1-1,.75c-.48,0-.71-.18-.71-.53a1.8,1.8,0,0,1,0-.22l.44-2.06a.9.9,0,0,1,1-.75c.48,0,.71.17.71.53a2,2,0,0,1,0,.22Zm-.21-2.06v-.06c0-.09-.05-.13-.15-.13a.22.22,0,0,0-.24.19l-.44,2.06v.06c0,.09.05.13.16.13a.22.22,0,0,0,.23-.19Z"/><path d="M462.12,383.74a.9.9,0,0,1,1-.75c.47,0,.71.17.71.53a1,1,0,0,1,0,.22l-.1.49h-.65l.1-.49a.13.13,0,0,0,0-.06c0-.09-.05-.13-.16-.13a.21.21,0,0,0-.23.19l-.07.3v0q0,.19.39.48a.81.81,0,0,1,.38.65.44.44,0,0,1,0,.16l-.09.43a.9.9,0,0,1-1,.75c-.47,0-.71-.18-.71-.53a.89.89,0,0,1,0-.22l.1-.49h.65l-.1.49a.13.13,0,0,0,0,.06c0,.09.06.13.16.13a.21.21,0,0,0,.23-.19l.08-.38a.09.09,0,0,0,0-.05c0-.14-.13-.3-.38-.49a.81.81,0,0,1-.39-.66,1.11,1.11,0,0,1,0-.17Z"/><path d="M464.52,383h1.53l-.12.56h-.88l-.19.89h.76l-.12.56h-.76l-.18.89h.88l-.12.56h-1.53Z"/><path d="M468.44,254.19a1,1,0,0,1-1,.85c-.46,0-.69-.19-.69-.58a1.39,1.39,0,0,1,0-.27l.49-2.34a1,1,0,0,1,1-.85c.46,0,.69.2.69.58a1.39,1.39,0,0,1,0,.27l-.12.55h-.65l.12-.55a.25.25,0,0,0,0-.08c0-.09-.05-.14-.15-.14h0c-.12,0-.2.07-.24.22l-.49,2.34a.25.25,0,0,0,0,.08c0,.1.05.14.15.14s.21-.07.24-.22l.12-.55h.65Z"/><path d="M468.82,255l.74-3.46h.65l-.62,2.9h.89l-.12.56Z"/><path d="M472.58,254.28a.9.9,0,0,1-1,.75c-.47,0-.71-.18-.71-.53a.89.89,0,0,1,0-.22l.44-2.06a.9.9,0,0,1,1-.75c.47,0,.71.17.71.52a1,1,0,0,1,0,.23Zm-.21-2.06a.18.18,0,0,0,0-.06c0-.09-.05-.13-.16-.14a.21.21,0,0,0-.23.2l-.44,2.06a.13.13,0,0,0,0,.06c0,.09,0,.13.16.13a.21.21,0,0,0,.23-.19Z"/><path d="M473.55,252.22a.9.9,0,0,1,1-.75c.47,0,.71.17.71.52a2,2,0,0,1,0,.23l-.11.49h-.65l.11-.49v-.06c0-.09,0-.13-.15-.14a.23.23,0,0,0-.24.2l-.06.3a.06.06,0,0,0,0,0q0,.19.39.48a.8.8,0,0,1,.39.65.88.88,0,0,1,0,.16l-.09.43a.9.9,0,0,1-1,.75c-.48,0-.71-.18-.71-.53a.86.86,0,0,1,0-.22l.11-.49h.65l-.11.49v.06c0,.09.05.13.16.13a.22.22,0,0,0,.23-.19l.08-.38v-.05c0-.14-.12-.31-.38-.49a.81.81,0,0,1-.39-.66,1.11,1.11,0,0,1,0-.17Z"/><path d="M476,251.52h1.53l-.11.56h-.89l-.18.89h.75l-.12.56h-.75l-.19.89h.88l-.12.56h-1.53Z"/><path d="M478,251.52h.9c.43,0,.65.17.65.52a1,1,0,0,1,0,.23l-.42,2a.85.85,0,0,1-.94.74h-.9Zm.53.56-.5,2.34h.19a.21.21,0,0,0,.23-.19l.42-2a.13.13,0,0,0,0-.06c0-.09,0-.13-.16-.13Z"/><path d="M468.54,258.23l-.08,1.25h-.66l.05-.72h-.48l-.26.72h-.66l.45-1.24.87-2.22h.84Zm-.66,0,.07-1-.38,1Z"/><path d="M471.06,256l-.12.56h-.51l-.62,2.9h-.65l.62-2.9h-.52l.12-.56Z"/><path d="M472.5,256.35a1,1,0,0,1,1-.85c.46,0,.69.2.69.58a1.39,1.39,0,0,1,0,.27l-.11.55h-.65l.11-.55a.25.25,0,0,0,0-.08c0-.09-.05-.14-.15-.14h0c-.12,0-.2.07-.23.22l-.08.35v.05c0,.15.12.33.38.54a.92.92,0,0,1,.36.71,1.49,1.49,0,0,1,0,.21l-.1.48a1,1,0,0,1-1,.85c-.46,0-.69-.2-.69-.58a1.39,1.39,0,0,1,0-.27l.12-.55h.65l-.12.55a.25.25,0,0,0,0,.08c0,.1.05.14.16.14s.2-.07.23-.22l.1-.44v-.06c0-.16-.12-.34-.37-.55a.92.92,0,0,1-.36-.72,1.49,1.49,0,0,1,0-.21Z"/><path d="M475.9,258.78a.9.9,0,0,1-1,.75c-.47,0-.71-.18-.71-.53a.89.89,0,0,1,0-.22l.58-2.76h.65l-.58,2.76a.13.13,0,0,0,0,.06c0,.09.05.13.16.13a.21.21,0,0,0,.23-.19l.59-2.76h.65Z"/><path d="M477.08,256h.64l.09,1.63.34-1.62h.61l-.73,3.46h-.64l-.09-1.57-.33,1.57h-.63Z"/><path d="M479.18,256.72a.9.9,0,0,1,1-.75c.48,0,.71.17.71.52a2,2,0,0,1,0,.23l-.11.49h-.65l.11-.49a.35.35,0,0,1,0-.06c0-.09-.06-.13-.16-.14a.23.23,0,0,0-.24.2l-.06.3v0q0,.19.39.48a.8.8,0,0,1,.39.65.88.88,0,0,1,0,.16l-.09.43a.9.9,0,0,1-1,.75c-.48,0-.71-.18-.71-.53a1.8,1.8,0,0,1,0-.22l.11-.49h.65l-.11.49v.06c0,.09.05.13.16.13a.21.21,0,0,0,.23-.19l.08-.38a.43.43,0,0,1,0,0c0-.14-.13-.31-.39-.49a.8.8,0,0,1-.38-.66.52.52,0,0,1,0-.17Z"/><path d="M481.59,256h1.53l-.12.56h-.88l-.19.89h.76l-.12.56h-.76l-.19.89h.88l-.12.56h-1.53Z"/><path d="M485.12,256l-.12.56h-.52l-.62,2.9h-.65l.62-2.9h-.52l.12-.56Z"/><path d="M48.9,421.58a1,1,0,0,1-1,.85c-.47,0-.7-.19-.7-.58a1.39,1.39,0,0,1,0-.27l.5-2.34a1,1,0,0,1,1-.85c.47,0,.7.19.7.58a1.39,1.39,0,0,1,0,.27l-.12.55h-.65l.12-.55s0-.06,0-.08-.06-.14-.16-.14h0c-.13,0-.21.07-.24.22l-.5,2.34s0,.06,0,.08.06.14.16.14.21-.07.24-.22l.12-.55H49Z"/><path d="M49.28,422.36l.74-3.45h.65l-.62,2.9h.88l-.12.55Z"/><path d="M53,421.67a.9.9,0,0,1-1,.75c-.48,0-.71-.18-.71-.53a1.8,1.8,0,0,1,0-.22l.44-2.07a.9.9,0,0,1,1-.75c.48,0,.71.18.71.53a1.8,1.8,0,0,1,0,.22Zm-.21-2.07v-.06c0-.08,0-.13-.15-.13a.23.23,0,0,0-.24.19L52,421.67v.06c0,.08,0,.13.16.13a.23.23,0,0,0,.23-.19Z"/><path d="M54,419.6a.9.9,0,0,1,1-.75c.47,0,.71.18.71.53a.89.89,0,0,1,0,.22l-.1.5h-.65l.1-.5a.13.13,0,0,0,0-.06c0-.08,0-.13-.16-.13a.21.21,0,0,0-.23.19l-.07.31v0q0,.19.39.48a.79.79,0,0,1,.38.64.5.5,0,0,1,0,.17l-.09.43a.9.9,0,0,1-1,.75c-.47,0-.71-.18-.71-.53a.89.89,0,0,1,0-.22l.1-.5h.65l-.1.5a.13.13,0,0,0,0,.06c0,.08.06.13.16.13a.21.21,0,0,0,.23-.19l.08-.39a.06.06,0,0,0,0,0c0-.14-.13-.31-.38-.5a.78.78,0,0,1-.39-.65,1.11,1.11,0,0,1,0-.17Z"/><path d="M56.41,418.91h1.53l-.12.56h-.88l-.19.89h.76l-.12.55h-.76l-.18.9h.88l-.12.55H55.68Z"/><path d="M58.41,418.91h.9c.44,0,.65.17.65.52a1,1,0,0,1,0,.23l-.42,1.95a.86.86,0,0,1-.94.75h-.9Zm.53.56-.49,2.34h.19a.22.22,0,0,0,.23-.2l.42-1.95v-.06c0-.09,0-.13-.15-.13Z"/><path d="M49,425.62l-.07,1.24h-.66l0-.71h-.47l-.27.71h-.65l.45-1.23.87-2.22h.84Zm-.65,0,.06-1-.37,1Z"/><path d="M51.52,423.41l-.12.56h-.52l-.61,2.89h-.65l.61-2.89h-.52l.12-.56Z"/><path d="M53.89,425.42,55,423h.65l-.83,3.91H54.2l.37-1.74-.75,1.74h-.46l0-1.75L53,426.86h-.63l.83-3.91h.64Z"/><path d="M56.17,423.41H57.7l-.12.56H56.7l-.19.89h.76l-.12.55h-.76l-.19.9h.88l-.12.55H55.43Z"/><path d="M57.44,426.86l.73-3.45h.65l-.61,2.9h.88l-.12.55Z"/><path d="M60.13,423.41H61c.43,0,.65.17.65.52a1.11,1.11,0,0,1,0,.23l-.11.51a.76.76,0,0,1-.55.61l.29,1.58h-.71l-.15-1.43h0l-.3,1.42H59.4Zm.53.56-.19.89h.08l.15,0a.2.2,0,0,0,.15-.17l.11-.51a.18.18,0,0,0,0-.06c0-.09,0-.13-.16-.13Z"/><path d="M63.35,426.17a.89.89,0,0,1-1,.75c-.47,0-.71-.18-.71-.53a.89.89,0,0,1,0-.22l.44-2.07a.9.9,0,0,1,1-.75c.47,0,.71.18.71.53a.89.89,0,0,1,0,.22Zm-.21-2.07a.13.13,0,0,0,0-.06c0-.08,0-.13-.16-.13a.22.22,0,0,0-.23.19l-.44,2.07s0,0,0,.06.06.13.16.13a.21.21,0,0,0,.23-.19Z"/><path d="M64.32,424.1a.91.91,0,0,1,1-.75c.47,0,.7.18.7.53a.86.86,0,0,1,0,.22l-.1.5h-.66l.11-.5s0,0,0-.06-.06-.13-.16-.13a.23.23,0,0,0-.24.19l-.06.31v0q0,.19.39.48a.79.79,0,0,1,.38.64,1,1,0,0,1,0,.17l-.09.43a.9.9,0,0,1-1,.75c-.47,0-.71-.18-.71-.53a1.8,1.8,0,0,1,0-.22l.11-.5h.65l-.11.5v.06c0,.08,0,.13.16.13a.22.22,0,0,0,.23-.19l.08-.39v0c0-.14-.13-.31-.39-.5a.8.8,0,0,1-.38-.65.52.52,0,0,1,0-.17Z"/><path d="M66.73,423.41h1.53l-.12.56h-.88l-.19.89h.76l-.12.55H67l-.19.9h.88l-.12.55H66Z"/><path d="M507.81,277.91H509c.61,0,.92.27.92.81a2.17,2.17,0,0,1,0,.41l-.18.83a1.21,1.21,0,0,1-.82,1l.35,2.6h-1l-.2-2.42h0l-.51,2.42h-.94Zm.74.9-.31,1.47h.11a.45.45,0,0,0,.2,0,.37.37,0,0,0,.25-.3l.17-.83a.45.45,0,0,0,0-.11c0-.14-.07-.21-.22-.21Z"/><path d="M510.93,278.57h.94l-1.06,5h-.94Z"/><path d="M512.74,278.57H514c.63,0,.94.25.94.74a1.42,1.42,0,0,1,0,.34l-.6,2.82a1.24,1.24,0,0,1-1.36,1.08h-1.3Zm.77.8-.72,3.37h.28a.3.3,0,0,0,.33-.27l.61-2.82s0-.06,0-.09-.08-.19-.23-.19Z"/><path d="M516,278.57h2.21l-.17.8h-1.27l-.27,1.29h1.09l-.17.8h-1.1l-.26,1.28h1.26l-.17.81h-2.2Z"/><path d="M518.61,279.57a1.3,1.3,0,0,1,1.45-1.08c.68,0,1,.25,1,.76a1.22,1.22,0,0,1,0,.32l-.15.71H520l.15-.71a.28.28,0,0,0,0-.09c0-.12-.07-.18-.22-.19a.32.32,0,0,0-.34.28l-.09.44a.13.13,0,0,0,0,.06c0,.19.19.42.56.69a1.14,1.14,0,0,1,.55.93,1,1,0,0,1,0,.24l-.13.62a1.3,1.3,0,0,1-1.44,1.08c-.69,0-1-.26-1-.77a1.15,1.15,0,0,1,0-.31l.15-.72h.94l-.16.72v.08c0,.13.07.19.23.19a.31.31,0,0,0,.33-.27l.12-.56s0,0,0-.06c0-.21-.19-.44-.56-.71a1.16,1.16,0,0,1-.55-1,1,1,0,0,1,0-.24Z"/><path d="M522.08,278.57H523l-.44,2.09h.55l.45-2.09h.94l-1.06,5h-.94l.44-2.09h-.55l-.45,2.09H521Z"/><path d="M527.07,281.76l-.11,1.79H526l.06-1h-.69l-.38,1h-.94l.64-1.78,1.26-3.2h1.21Zm-.94-.05.09-1.5-.54,1.5Z"/><path d="M528.65,278.57h1.23c.62,0,.94.25.94.74a2.23,2.23,0,0,1,0,.34l-.16.73a1.08,1.08,0,0,1-.8.88l.42,2.29h-1l-.23-2.06h0l-.44,2.06h-.93Zm.76.8-.27,1.29h.11l.21,0a.31.31,0,0,0,.22-.26l.16-.73a.28.28,0,0,0,0-.09c0-.12-.08-.19-.23-.19Z"/><path d="M531.74,278.57H534l-.17.8h-1.27l-.28,1.29h1.1l-.17.8h-1.1l-.27,1.28h1.27l-.17.81h-2.21Z"/><path d="M538.21,278.45l-2,4.2h1.12l-.2.9H535l.11-.54,2-4.2h-1l.19-.9h2.08Z"/><path d="M540.49,282.55a1.29,1.29,0,0,1-1.44,1.08c-.68,0-1-.26-1-.77a1.8,1.8,0,0,1,0-.31l.64-3a1.29,1.29,0,0,1,1.44-1.08c.68,0,1,.25,1,.76a1.82,1.82,0,0,1,0,.32Zm-.3-3a.28.28,0,0,0,0-.09c0-.12-.07-.18-.23-.19a.32.32,0,0,0-.33.28l-.64,3s0,.06,0,.08.08.19.23.19a.31.31,0,0,0,.34-.27Z"/><path d="M542.16,278.57h.93l.12,2.35.5-2.34h.88l-1.06,5h-.92l-.12-2.26-.48,2.26h-.91Z"/><path d="M545.47,278.57h2.21l-.17.8h-1.27l-.28,1.29h1.1l-.18.8h-1.09l-.27,1.28h1.27l-.17.81h-2.21Z"/><path d="M336.82,468.16h1.23c.62,0,.92.26.92.8a2,2,0,0,1,0,.41l-.18.83a1.23,1.23,0,0,1-.82,1l.35,2.6h-1l-.2-2.42h0l-.52,2.42h-.94Zm.75.9-.31,1.47h.11a.48.48,0,0,0,.2,0,.35.35,0,0,0,.24-.3l.18-.83a.45.45,0,0,0,0-.11c0-.14-.07-.21-.22-.21Z"/><path d="M340,468.82h.93l-1.06,5h-.93Z"/><path d="M341.76,468.82h1.3c.63,0,.94.25.94.75a1.4,1.4,0,0,1,0,.33l-.6,2.82A1.25,1.25,0,0,1,342,473.8h-1.3Zm.77.8-.72,3.38h.28a.32.32,0,0,0,.33-.28l.6-2.82a.28.28,0,0,0,0-.09c0-.12-.07-.19-.22-.19Z"/><path d="M345,468.82h2.21l-.17.8h-1.27l-.28,1.29h1.1l-.18.8h-1.09l-.27,1.29h1.27l-.17.8H344Z"/><path d="M347.63,469.82a1.29,1.29,0,0,1,1.44-1.08c.68,0,1,.25,1,.76a1.82,1.82,0,0,1,0,.32l-.15.71H349l.15-.71a.28.28,0,0,0,0-.09c0-.12-.07-.18-.23-.18a.32.32,0,0,0-.34.27l-.09.44v.06c0,.19.18.42.56.69a1.14,1.14,0,0,1,.55.93,1.94,1.94,0,0,1,0,.24l-.14.62a1.29,1.29,0,0,1-1.44,1.08c-.68,0-1-.26-1-.77a1.8,1.8,0,0,1,0-.31l.16-.71h.93l-.15.71s0,.06,0,.08.08.19.23.19a.31.31,0,0,0,.34-.27l.12-.56v-.06c0-.21-.18-.44-.55-.71a1.18,1.18,0,0,1-.56-1,1,1,0,0,1,0-.24Z"/><path d="M351.09,468.82H352l-.45,2.09h.56l.44-2.09h.94l-1.06,5h-.93l.44-2.09h-.56L351,473.8H350Z"/><path d="M356.09,472,356,473.8h-1l.07-1h-.69l-.38,1h-.94l.64-1.78,1.25-3.2h1.22Zm-.94-.05.09-1.5-.54,1.5Z"/><path d="M357.66,468.82h1.23c.63,0,.94.25.94.75a1.4,1.4,0,0,1,0,.33l-.15.73a1.08,1.08,0,0,1-.8.88l.42,2.29h-1l-.23-2.06h0l-.44,2.06h-.94Zm.77.8-.28,1.29h.12a.75.75,0,0,0,.2,0,.32.32,0,0,0,.23-.26l.16-.73s0-.06,0-.09-.08-.19-.23-.19Z"/><path d="M360.76,468.82H363l-.17.8h-1.28l-.27,1.29h1.09l-.17.8h-1.09l-.27,1.29h1.27l-.17.8H359.7Z"/><path d="M367.22,468.7l-2,4.2h1.11l-.19.9H364l.12-.54,1.95-4.2h-1l.2-.9h2.08Z"/><path d="M369.51,472.8a1.29,1.29,0,0,1-1.44,1.08c-.69,0-1-.26-1-.77a1.88,1.88,0,0,1,0-.31l.63-3a1.31,1.31,0,0,1,1.45-1.08c.68,0,1,.25,1,.76a1.82,1.82,0,0,1,0,.32Zm-.3-3s0-.06,0-.09-.08-.18-.23-.18a.31.31,0,0,0-.34.27l-.63,3a.25.25,0,0,0,0,.08c0,.13.08.19.23.19a.3.3,0,0,0,.33-.27Z"/><path d="M371.18,468.82h.92l.13,2.35.5-2.34h.88l-1.06,5h-.92l-.12-2.26L371,473.8h-.91Z"/><path d="M374.49,468.82h2.2l-.17.8h-1.27l-.27,1.29h1.09l-.17.8h-1.09l-.27,1.29h1.27l-.17.8h-2.21Z"/></g></g></svg>