<?xml version="1.0" encoding="utf-8"?>
<!-- Generator: Adobe Illustrator 22.1.0, SVG Export Plug-In . SVG Version: 6.00 Build 0)  -->
<svg version="1.1" id="Layer_1" xmlns="http://www.w3.org/2000/svg" xmlns:xlink="http://www.w3.org/1999/xlink" x="0px" y="0px"
	 viewBox="0 0 960 820" style="enable-background:new 0 0 960 820;" xml:space="preserve">
<style type="text/css">
	.st0{fill:#2ADFDF;}
	.st1{fill:#8F0848;fill-opacity:0.2055;}
	.st2{fill:#7E3BEB;}
	.st3{font-family:'IM_FELL_English_SC';}
	.st4{font-size:60px;}
	.st5{fill:#9013FE;}
</style>
<title>Group 38</title>
<desc>Created with Sketch.</desc>
<g transform="translate(-16.000000, 6771.000000)">
	<g id="_x31_1.-photo-gallery" transform="translate(16.000000, 0.000000)">
		<rect id="Background" x="1" y="-6771" class="st0" width="960" height="820"/>
	</g>
	<g id="Group-37" transform="translate(196.000000, 133.000000)">
		<g id="map" transform="translate(202.000000, 0.000000)">
			<rect id="Rectangle-3" x="1" y="-6771" class="st1" width="197" height="162"/>
		</g>
		<g id="map-copy" transform="translate(404.000000, 0.000000)">
			<rect id="Rectangle-3_1_" x="1" y="-6771" class="st1" width="197" height="162"/>
		</g>
		<g id="map_1_" transform="translate(1.000000, 0.000000)">
			<rect id="Rectangle-3_2_" x="1" y="-6771" class="st1" width="196" height="161"/>
		</g>
		<g id="map_2_" transform="translate(0.000000, 167.000000)">
			<rect id="Rectangle-3_3_" x="1" y="-6771" class="st1" width="296" height="250"/>
		</g>
		<g id="map_3_" transform="translate(302.000000, 166.000000)">
			<rect id="Rectangle-3_4_" x="1" y="-6771" class="st1" width="299" height="252"/>
		</g>
	</g>
	<text transform="matrix(1 0 0 1 252.8008 -6116)" class="st2 st3 st4">2017 photostream</text>
	<path id="_xEB54_" class="st5" d="M729.8-6128.4h28.3v7.6c0,0.5,0.1,0.8,0.4,0.9c0.3,0.1,0.5,0,0.9-0.4l9.4-9.4
		c0.4-0.3,0.6-0.7,0.6-1.2s-0.2-0.9-0.6-1.2l-9.4-9.4c-0.3-0.3-0.6-0.4-0.9-0.3c-0.3,0.1-0.4,0.4-0.4,0.9v7.6h-28.3
		c-0.5,0-0.9,0.2-1.3,0.5c-0.3,0.3-0.5,0.8-0.5,1.3v1.6c0,0.5,0.2,0.9,0.5,1.2C728.9-6128.6,729.3-6128.4,729.8-6128.4z"/>
</g>
</svg>
