<svg id="Layer_1" data-name="Layer 1" xmlns="http://www.w3.org/2000/svg" viewBox="0 0 960 820"><defs><style>.cls-1{fill:#2adfdf;}.cls-2{fill:#8f0848;fill-opacity:0.21;}.cls-3{isolation:isolate;font-size:60px;fill:#7e3beb;font-family:IM_FELL_English_Italic, IM FELL English;font-style:italic;}.cls-4{letter-spacing:-0.01em;}.cls-5,.cls-6{font-size:54px;}.cls-6{letter-spacing:0em;}.cls-7{fill:#9013fe;}</style></defs><title>Artboard 1</title><g id="_11.-photo-gallery" data-name="11.-photo-gallery"><rect id="Background" class="cls-1" x="1" width="960" height="820"/></g><g id="Group-37"><g id="map"><rect id="Rectangle-3" class="cls-2" x="383" y="133" width="197" height="162"/></g><g id="map-copy"><rect id="Rectangle-3-2" data-name="Rectangle-3" class="cls-2" x="585" y="133" width="197" height="162"/></g><g id="map-2" data-name="map"><rect id="Rectangle-3-3" data-name="Rectangle-3" class="cls-2" x="182" y="133" width="196" height="161"/></g><g id="map-3" data-name="map"><rect id="Rectangle-3-4" data-name="Rectangle-3" class="cls-2" x="181" y="300" width="296" height="250"/></g><g id="map-4" data-name="map"><rect id="Rectangle-3-5" data-name="Rectangle-3" class="cls-2" x="483" y="299" width="299" height="252"/></g></g><text class="cls-3" transform="translate(291.2 653.56)">2<tspan class="cls-4" x="27.54" y="0">0</tspan><tspan x="57.77" y="0" xml:space="preserve">17  </tspan><tspan class="cls-5" x="132.1" y="0">photost</tspan><tspan class="cls-6" x="266.04" y="0">r</tspan><tspan class="cls-5" x="284.24" y="0">eam</tspan></text><path id="_" data-name="" class="cls-7" d="M683.8,642.6h28.3v7.6c0,.5.1.8.4.9s.5,0,.9-.4l9.4-9.4a1.5,1.5,0,0,0,0-2.4l-9.4-9.4a.86.86,0,0,0-.9-.3c-.3.1-.4.4-.4.9v7.6H683.8a2.11,2.11,0,0,0-1.3.5,1.9,1.9,0,0,0-.5,1.3v1.6a1.66,1.66,0,0,0,.5,1.2A5,5,0,0,0,683.8,642.6Z"/></svg>