<?xml version="1.0" encoding="UTF-8"?>
<svg width="298px" height="298px" viewBox="0 0 298 298" version="1.1" xmlns="http://www.w3.org/2000/svg" xmlns:xlink="http://www.w3.org/1999/xlink">
    <!-- Generator: Sketch 50.2 (55047) - http://www.bohemiancoding.com/sketch -->
    <title>devil</title>
    <desc>Created with Sketch.</desc>
    <defs></defs>
    <g id="devil" stroke="none" stroke-width="1" fill="none" fill-rule="evenodd">
        <path d="M210.33,276.117 C210.33,277.185 185.288,278.05 154.396,278.05 C123.506,278.05 98.464,277.185 98.464,276.117 C98.464,275.05 123.506,274.185 154.396,274.185 C185.288,274.185 210.33,275.05 210.33,276.117" id="Fill-5" fill="#A0BBBE"></path>
        <path d="M167.143,268.88 C154.123,263.654 136.241,251.733 123.871,224.67 C123.946,227.122 124.042,229.574 124.148,232.006 C124.789,233.786 134.962,260.669 169.318,269.711 C168.593,269.455 167.868,269.178 167.143,268.88" id="Fill-6" fill="#DB4049"></path>
        <path d="M123.476,79.946 C125.748,82.591 132.05,82.485 135.324,81.727 C135.345,81.716 135.355,81.716 135.377,81.716 C135.814,81.61 136.198,81.493 136.507,81.365 C140.229,79.893 145.976,75.479 142.98,62.48 C142.905,62.48 142.82,62.48 142.724,62.48 C140.101,62.48 129.97,63.131 124.234,72.877 C122.4,76.012 122.144,78.39 123.476,79.946" id="Fill-7" fill="#DB4049"></path>
        <path d="M87.488,129.222 C87.2,129.264 86.944,129.083 86.891,128.806 C86.881,128.753 86.795,128.252 87.158,127.74 C87.509,127.249 88.149,126.929 89.045,126.791 C89.962,126.663 97.299,126.567 102.545,127.377 C102.555,127.388 102.566,127.388 102.577,127.388 C104.027,127.612 105.306,127.91 106.245,128.305 C106.277,128.305 106.298,128.294 106.319,128.294 C106.426,128.316 106.511,128.38 106.586,128.454 C107.268,128.774 107.738,129.158 107.866,129.606 C107.951,129.894 107.791,130.192 107.503,130.267 C107.461,130.288 107.407,130.288 107.354,130.288 C107.119,130.288 106.917,130.139 106.841,129.915 C106.831,129.872 106.778,129.755 106.544,129.595 C105.957,131.131 104.549,132.069 104.474,132.112 L104.144,132.336 L103.835,132.069 C102.715,131.099 102.193,129.19 102.001,128.38 C101.073,128.252 99.974,128.124 98.653,128.017 C94.355,127.686 90.09,127.718 89.205,127.846 C88.16,128.007 87.915,128.411 87.936,128.625 C87.967,128.913 87.776,129.179 87.488,129.222 Z M78.872,94.022 C78.904,93.83 79.043,93.67 79.224,93.606 C79.416,93.542 79.629,93.585 79.767,93.724 C79.821,93.777 84.79,98.469 93.918,97.008 C93.95,97.008 93.971,97.019 94.004,97.019 C94.035,97.019 94.078,97.008 94.11,97.019 C94.153,97.029 94.195,97.05 94.238,97.072 C94.249,97.083 94.27,97.083 94.291,97.093 C94.291,97.093 94.291,97.093 94.301,97.104 C94.334,97.125 94.366,97.157 94.398,97.2 C94.42,97.211 94.429,97.232 94.44,97.242 C94.462,97.275 94.472,97.306 94.483,97.339 C94.494,97.37 94.515,97.402 94.526,97.445 C94.526,97.445 94.526,97.445 94.526,97.456 C94.537,97.488 94.526,97.509 94.526,97.541 C94.526,97.573 94.526,97.616 94.515,97.648 C94.515,97.69 94.494,97.722 94.472,97.755 C94.462,97.776 94.462,97.808 94.451,97.829 C94.387,97.925 88.383,107.351 88.992,120.393 C89.823,120.766 92.723,121.768 97.181,120.34 C97.181,120.34 97.192,120.34 97.202,120.34 C97.234,120.329 97.266,120.329 97.309,120.329 C97.34,120.318 97.373,120.318 97.405,120.318 C97.437,120.329 97.468,120.34 97.501,120.35 C97.533,120.361 97.576,120.371 97.596,120.382 C97.607,120.393 97.618,120.393 97.629,120.393 C97.65,120.414 97.661,120.435 97.682,120.446 C97.704,120.467 97.735,120.488 97.757,120.521 C97.778,120.552 97.789,120.585 97.81,120.616 C97.821,120.638 97.842,120.659 97.853,120.68 C97.853,120.691 97.853,120.702 97.853,120.713 C97.863,120.744 97.863,120.777 97.863,120.808 C97.863,120.851 97.874,120.883 97.863,120.915 C97.863,120.947 97.853,120.968 97.842,121 C97.832,121.043 97.821,121.075 97.799,121.107 C97.799,121.118 97.799,121.129 97.789,121.129 C96.093,123.826 92.361,124.455 92.212,124.487 C92.179,124.487 92.148,124.487 92.127,124.487 C92.073,124.487 92.02,124.487 91.966,124.466 C89.034,123.591 88.021,121.032 87.978,120.926 C87.967,120.894 87.967,120.851 87.967,120.819 C87.957,120.798 87.946,120.787 87.946,120.766 C87.531,113.227 89.29,106.85 90.943,102.638 C90.026,103.203 88.767,103.683 87.104,103.683 C86.517,103.683 85.888,103.63 85.206,103.491 C77.753,101.987 78.861,94.108 78.872,94.022 Z M101.809,99.556 C101.958,99.439 102.15,99.407 102.31,99.461 C102.406,99.503 112.184,102.681 119.979,102.681 C120.033,102.681 120.075,102.681 120.139,102.681 C120.289,102.681 120.427,102.745 120.534,102.851 C120.63,102.969 120.683,103.118 120.673,103.267 C120.651,103.395 120.341,106.541 118.07,108.343 C117.057,109.154 115.831,109.559 114.402,109.559 C114.04,109.559 113.677,109.537 113.294,109.484 C102.47,108.034 101.617,100.1 101.617,100.015 C101.595,99.844 101.671,99.663 101.809,99.556 Z M102.843,92.593 L106.735,84.287 C106.841,84.052 107.097,83.935 107.343,83.999 L123.178,87.944 C123.328,87.986 123.456,88.083 123.53,88.221 C123.594,88.371 123.604,88.53 123.541,88.669 L120.181,96.741 C120.096,96.922 119.925,97.05 119.734,97.061 C119.595,97.072 118.592,97.157 117.111,97.157 C113.346,97.157 106.49,96.645 102.95,93.201 C102.79,93.041 102.747,92.807 102.843,92.593 Z M125.439,89.266 C125.706,89.373 125.834,89.693 125.726,89.959 L122.741,97.147 C122.656,97.349 122.464,97.477 122.251,97.477 C122.186,97.477 122.112,97.466 122.048,97.434 C121.781,97.328 121.642,97.008 121.759,96.741 L124.735,89.554 C124.852,89.277 125.162,89.149 125.439,89.266 Z M126.931,91.602 C127.198,91.708 127.337,92.017 127.23,92.295 L125.342,97.083 C125.257,97.296 125.065,97.424 124.852,97.424 C124.789,97.424 124.714,97.413 124.65,97.381 C124.383,97.275 124.245,96.965 124.351,96.688 L126.239,91.9 C126.345,91.623 126.654,91.495 126.931,91.602 Z M140.624,104.952 C140.741,105.229 140.613,105.539 140.336,105.656 C140.101,105.752 139.419,106.125 139.333,106.562 C139.291,106.797 139.419,107.063 139.717,107.362 C139.898,107.543 141.476,109.154 141.178,110.753 C141.039,111.521 140.506,112.118 139.589,112.523 C139.525,112.545 139.451,112.566 139.376,112.566 C139.173,112.566 138.981,112.448 138.885,112.246 C138.768,111.979 138.896,111.659 139.163,111.542 C139.738,111.286 140.058,110.966 140.132,110.55 C140.282,109.761 139.514,108.663 138.97,108.119 C138.256,107.404 138.203,106.765 138.288,106.36 C138.502,105.283 139.781,104.728 139.93,104.664 C140.197,104.557 140.516,104.686 140.624,104.952 Z M143.971,111.073 C146.456,109.452 145.603,106.232 145.56,106.093 C145.486,105.816 145.646,105.517 145.933,105.443 C146.211,105.368 146.509,105.528 146.584,105.816 C146.915,106.978 147.032,109.292 145.646,110.998 C145.358,111.35 144.996,111.681 144.558,111.968 C144.463,112.022 144.366,112.054 144.259,112.054 C144.089,112.054 143.919,111.968 143.822,111.809 C143.663,111.563 143.726,111.233 143.971,111.073 Z M148.194,110.924 C150.135,110.316 150.423,108.066 150.423,108.045 C150.455,107.778 150.689,107.575 150.956,107.575 C150.956,107.575 150.956,107.575 150.966,107.575 C150.977,107.575 150.988,107.575 151.009,107.575 C151.308,107.618 151.51,107.874 151.478,108.173 C151.467,108.29 151.105,111.126 148.514,111.947 C148.461,111.958 148.408,111.968 148.354,111.968 C148.131,111.968 147.917,111.83 147.842,111.595 C147.789,111.435 147.832,111.265 147.927,111.126 C147.992,111.03 148.077,110.966 148.194,110.924 Z M94.878,144.129 C96.306,144.14 107.578,143.937 123.285,131.12 C122.325,130.789 121.525,130.256 120.907,129.51 C117.506,125.383 120.8,116.33 120.939,115.946 C121.035,115.679 121.323,115.541 121.589,115.626 C121.867,115.701 122.016,115.978 121.952,116.255 C121.941,116.298 120.992,120.382 122.687,122.845 C123.391,123.858 124.458,124.466 125.876,124.658 C131.154,125.362 134.513,117.385 135.142,115.743 C133.607,115.146 133.106,114.315 133.074,114.251 C132.924,113.995 133.02,113.664 133.276,113.515 C133.521,113.376 133.841,113.462 133.991,113.717 C134.023,113.76 135.153,115.434 139.493,115.253 C140.527,115.21 141.732,115.061 143.161,114.762 C143.663,114.655 144.131,114.581 144.58,114.528 C148.365,114.08 150.476,115.381 152.225,116.447 L152.62,116.693 C153.142,117.002 153.75,117.3 154.294,117.087 C154.881,116.852 155.392,116.042 155.765,114.72 C156.362,112.64 155.958,109.879 154.645,107.437 C154.625,107.404 154.603,107.383 154.592,107.351 C154.209,106.648 153.75,105.976 153.216,105.357 C152.332,104.312 151.244,103.406 149.964,102.745 C145.827,100.623 143.214,100.506 142.51,100.516 C140.932,102.244 139.088,103.843 137.169,104.387 C136.603,104.547 136.027,104.611 135.452,104.557 C133.618,104.387 132.06,103.011 130.813,100.473 C127.156,92.999 131.954,85.748 134.162,82.996 C133.148,83.135 132.007,83.231 130.813,83.231 C127.72,83.231 124.362,82.612 122.667,80.64 C121.003,78.699 121.226,75.905 123.317,72.333 C124,71.181 124.735,70.158 125.513,69.23 C122.57,68.345 111.406,66.073 103.163,78.87 L103.152,78.88 C103.11,78.944 103.056,78.987 103.004,79.019 C102.982,79.029 102.971,79.04 102.95,79.051 C102.875,79.083 102.8,79.115 102.726,79.115 C102.726,79.115 102.726,79.115 102.715,79.115 C102.715,79.115 102.715,79.115 102.705,79.115 L102.705,79.104 C102.683,79.104 102.662,79.104 102.64,79.104 C102.577,79.093 102.523,79.072 102.48,79.04 C102.47,79.04 102.46,79.04 102.449,79.029 C102.374,78.987 102.321,78.934 102.278,78.859 C102.267,78.848 102.267,78.848 102.256,78.848 C102.15,78.656 99.612,74.21 98.951,68.217 C98.823,67.033 98.78,65.743 98.844,64.389 C96.787,65.284 89.535,69.006 83.714,78.827 L96.306,80.725 C96.466,80.746 96.616,80.853 96.69,81.002 C96.776,81.152 96.776,81.322 96.701,81.482 L92.777,89.735 C92.713,89.874 92.585,89.981 92.446,90.024 C92.35,90.045 91.433,90.3 89.898,90.3 C87.648,90.3 84.065,89.735 79.799,87.155 C78.722,90.098 77.805,93.372 77.124,97.061 C71.61,126.652 88.949,139.736 94.878,144.129 Z" id="Fill-8" fill="#DB4049"></path>
        <path d="M123.082,232.006 C122.943,228.7 122.816,225.352 122.73,222.025 C122.719,221.982 122.719,221.94 122.73,221.907 C122.634,218.207 122.57,214.539 122.57,210.978 C122.57,207.331 122.634,203.791 122.762,200.453 L122.773,200.453 C122.88,197.766 123.029,195.217 123.242,192.829 C117.495,190.963 100.626,185.321 90.943,180.395 C90.889,186.804 91.071,228.284 104.112,274.211 L105.755,270.757 C105.829,270.596 105.989,270.479 106.171,270.458 C106.362,270.447 106.544,270.522 106.65,270.66 L108.538,273.102 C107.684,266.299 105.04,243.458 106.416,231.216 C105.722,230.279 105.2,229.34 104.838,228.498 C104.72,228.551 104.582,228.562 104.454,228.519 C104.315,228.466 101.084,227.282 101.201,220.084 C101.244,217.887 101.84,216.48 102.993,215.925 C103.568,215.648 104.208,215.627 104.838,215.734 C104.379,215.179 104.027,214.625 103.984,214.155 C103.921,213.484 104.144,213.068 104.336,212.844 C104.741,212.385 105.306,212.342 105.371,212.342 C105.658,212.321 105.914,212.556 105.924,212.844 C105.935,213.142 105.712,213.387 105.423,213.409 C105.413,213.409 105.243,213.43 105.135,213.548 C105.029,213.675 105.029,213.889 105.04,214.049 C105.093,214.561 106.191,215.734 107.343,216.704 C107.663,215.925 107.919,214.912 107.684,214.347 C107.578,214.07 107.706,213.761 107.972,213.654 C108.25,213.537 108.558,213.665 108.676,213.942 C108.825,214.304 108.857,214.72 108.836,215.136 C110.179,213.793 111.459,213.259 112.653,213.558 C114.53,214.028 115.458,216.373 115.703,218.421 C116.055,221.406 114.551,224.243 114.488,224.36 C114.381,224.563 114.157,224.67 113.944,224.637 C113.901,224.637 113.869,224.627 113.837,224.616 C114.146,227.207 113.847,229.223 113.357,230.748 C113.528,232.805 115.906,259.357 122.048,274.542 L122.762,271.449 C122.805,271.247 122.954,271.098 123.157,271.044 C123.348,271.002 123.551,271.066 123.69,271.225 L126.057,274.041 C125.535,268.602 123.924,251.008 123.092,232.133 C123.082,232.091 123.082,232.049 123.082,232.006" id="Fill-9" fill="#DB4049"></path>
        <path d="M103.824,51.923 L102.896,50.793 C93.47,56.092 91.316,65.146 90.837,68.387 C94.878,64.826 98.226,63.45 98.94,63.194 C99.313,59.59 100.635,55.624 103.824,51.923" id="Fill-10" fill="#DB4049"></path>
        <path d="M89.887,179.851 C89.237,179.5 88.629,179.158 88.064,178.828 C88.362,180.79 88.608,184.661 86.56,187.166 C86.304,189.288 83.916,209.645 82.882,212.193 C81.932,214.539 79.747,215.275 78.936,215.478 C78.776,215.872 78.435,216.672 77.944,217.663 L79.416,218.581 C80.088,217.578 81.069,216.682 82.231,216.043 C82.487,215.893 82.817,215.989 82.956,216.245 C83.105,216.512 83.009,216.832 82.754,216.97 C81.058,217.909 79.832,219.402 79.544,220.884 C79.437,221.396 79.416,222.132 79.885,222.696 C79.97,222.803 80.109,222.921 80.428,222.888 C81.602,222.771 83.831,220.82 85.526,218.058 C85.771,217.663 86.006,217.258 86.219,216.832 C88.181,212.993 89.951,188.798 89.972,188.552 C89.972,188.542 89.983,188.531 89.983,188.521 C89.844,183.84 89.866,180.811 89.887,179.851" id="Fill-11" fill="#DB4049"></path>
        <path d="M87.317,177.196 C87.424,177.196 87.52,177.228 87.605,177.292 C96.189,182.89 120.875,190.952 124.948,192.263 C125.097,191.453 125.385,189.875 125.737,187.763 C126.868,180.854 128.585,168.345 127.859,159.602 C127.774,158.674 127.625,156.339 127.55,155.272 C126.953,155.347 126.356,155.401 125.78,155.401 C121.824,155.401 118.603,153.598 116.364,150.026 C113.89,146.091 114.712,142.786 116.834,140.024 L117.25,136.9 C113.762,139.203 110.585,140.866 107.791,142.071 C107.866,143.521 108.005,148.49 106.544,150.442 C105.829,151.391 103.899,151.892 101.446,152.532 C97.735,153.491 93.118,154.686 91.657,157.768 C91.593,157.874 89.525,161.052 87.967,172.995 C88.501,173.261 88.992,173.55 89.428,173.795 C89.674,173.944 89.92,174.083 90.133,174.2 C90.26,174.275 90.41,174.349 90.538,174.413 C90.559,172.899 90.74,164.528 92.937,160.028 C93.065,159.761 93.384,159.655 93.651,159.783 C93.918,159.911 94.024,160.231 93.896,160.497 C91.636,165.125 91.604,174.552 91.604,174.648 C91.604,174.754 91.572,174.84 91.529,174.914 C98.482,178.348 111.79,183.04 117.27,183.53 C118.455,183.637 119.424,183.829 120.246,184.085 C120.694,182.144 122.154,175.031 121.93,164.966 C121.93,164.667 122.154,164.422 122.453,164.422 C122.773,164.432 122.997,164.646 122.997,164.933 C123.231,175.32 121.685,182.624 121.248,184.447 C123.935,185.61 124.18,187.359 124.191,187.465 C124.191,187.487 124.191,187.508 124.191,187.518 C124.191,187.785 123.989,188.02 123.722,188.051 C123.701,188.051 123.679,188.051 123.658,188.051 C123.391,188.051 123.168,187.86 123.135,187.593 C123.125,187.54 122.667,185.087 117.174,184.596 C111.075,184.042 96.243,178.721 89.621,175.138 C89.397,175.021 89.151,174.872 88.884,174.722 C88.351,174.413 87.765,174.072 87.136,173.773 C87.126,173.773 87.115,173.773 87.115,173.762 C85.334,172.942 83.276,172.515 81.282,174.317 C77.454,177.783 75.876,180.182 76.334,181.888 C76.793,180.566 77.603,179.553 77.657,179.478 C77.838,179.254 78.178,179.212 78.403,179.404 C78.637,179.585 78.67,179.926 78.488,180.15 C78.466,180.171 76.654,182.453 77.198,184.298 C77.454,185.151 78.221,185.791 79.448,186.238 C79.864,184.309 81.197,182.805 81.271,182.72 C81.474,182.507 81.804,182.485 82.028,182.677 C82.242,182.88 82.263,183.21 82.071,183.434 C82.049,183.456 79.842,185.951 80.525,188.276 C80.951,189.737 82.444,190.866 84.939,191.666 C85.004,191.144 85.067,190.643 85.132,190.152 C85.078,190.152 85.025,190.163 84.971,190.152 C84.886,190.131 84.065,189.918 83.894,189.171 C83.756,188.563 84.129,187.913 85.036,187.188 C88.416,184.479 86.816,177.932 86.795,177.868 C86.742,177.654 86.827,177.431 87.008,177.303 C87.104,177.239 87.211,177.196 87.317,177.196" id="Fill-12" fill="#DB4049"></path>
        <path d="M83.873,225.544 C83.458,225.341 82.636,225.608 82.114,225.853 C82.167,226.834 81.783,227.954 80.92,229.212 C80.834,229.319 80.749,229.404 80.675,229.51 C81.602,229.457 82.871,229.233 83.617,228.455 C84.15,227.879 84.332,227.09 84.161,226.034 C84.097,225.651 83.937,225.576 83.873,225.544" id="Fill-13" fill="#DB4049"></path>
        <path d="M81.037,225.618 C81.037,225.608 81.037,225.608 81.037,225.597 C80.716,226.525 80.088,227.367 79.821,227.698 C78.978,228.754 77.805,229.564 76.58,230.033 C76.942,230.161 77.38,230.246 77.838,230.182 C78.648,230.076 79.383,229.543 80.034,228.604 C80.855,227.421 81.208,226.386 81.037,225.618" id="Fill-14" fill="#DB4049"></path>
        <path d="M78.989,227.037 C79.682,226.183 80.322,224.979 80.109,224.349 C80.088,224.264 79.992,223.998 79.416,223.848 C77.486,223.379 75.31,224.915 74.799,225.874 C74.66,226.13 74.341,226.226 74.074,226.088 C73.817,225.96 73.721,225.629 73.86,225.373 C74.02,225.053 74.298,224.723 74.649,224.403 L73.871,223.912 C73.626,224.179 73.381,224.424 73.135,224.659 C73.092,224.712 71.258,227.293 72.57,228.69 C73.167,229.308 73.999,229.415 74.596,229.393 C76.132,229.329 77.902,228.38 78.989,227.037" id="Fill-15" fill="#DB4049"></path>
        <path d="M124.948,192.263 C127.326,173.55 125.356,154.976 125.356,154.976 L120.673,153.577 C120.673,153.577 115.826,150.311 115.026,146.512 C114.226,142.714 117.145,140.314 117.145,140.314 L117.626,135.982 L107.296,141.581 L107.296,146.032 L106.095,150.178 L104.298,151.721 C104.298,151.721 97.188,151.517 93.847,158.837 L93.855,158.792 C89.08,162.473 89.428,173.795 89.428,173.795 L90.938,174.97 L91.367,168.705 L92.28,165.54 C91.996,168.549 91.926,172.253 91.986,176.155 L95.765,177.903 L111.094,182.708 L119.091,184.3 L122.09,185.633 C122.09,185.633 127.489,188.499 119.491,187.5 C113.783,186.786 99.647,181.132 92.021,177.953 C92.023,178.013 92.024,178.072 92.025,178.132 L86.949,175.8 L86.301,175.503 L87.008,177.303 L92.076,179.846 C92.458,191.396 93.699,203.295 93.699,203.295 C93.699,203.295 105.418,281.583 104.363,260.61 C103.23,238.084 103.742,228.09 103.742,228.09 C106.054,214.363 112.216,221.79 112.216,221.79 C112.216,221.79 112.76,226.088 119.025,253.945 C125.29,281.803 123.29,252.879 121.291,233.541 C119.292,214.203 121.291,192.263 121.291,192.263 L124.948,192.263" id="Fill-16" fill="#B63F43"></path>
        <path d="M83.236,186.966 C79.501,188.563 84.939,191.666 84.939,191.666 L86.149,190.578 C86.149,190.578 90.3,190.632 90.3,186.3 C90.3,181.968 90.3,179.369 90.3,179.369 L86.795,177.868 C86.795,177.868 86.97,185.369 83.236,186.966" id="Fill-17" fill="#B63F43"></path>
        <path d="M81.271,182.72 C76.416,182.458 79.504,186.766 79.504,186.766 L81.271,182.72" id="Fill-18" fill="#B63F43"></path>
        <path d="M81.925,216.957 C79.55,214.958 77.944,216.416 77.944,216.416 L76.58,218.69 L78.829,220.09 L81.925,216.957" id="Fill-19" fill="#B63F43"></path>
        <path d="M78.829,222.241 L75.205,221.351 L72.098,224.853 L71.507,227.901 L72.506,229.51 L74.018,229.367 C73.397,226.116 79.704,223.412 79.704,223.412 L81.925,223.412 L84.223,220.8 L86.301,217.757 L87.368,214.547 C84.503,220.533 78.829,222.241 78.829,222.241" id="Fill-20" fill="#B63F43"></path>
        <path d="M123.839,227.171 C129.853,242.65 150.749,260.743 150.749,260.743 C129.956,247.21 123.839,230.886 123.839,230.886 L123.839,227.171" id="Fill-21" fill="#B63F43"></path>
        <path d="M78.552,215.013 L76.313,209.754 C76.313,209.754 58.34,192.426 50.897,193.576 C46.51,194.254 39.948,202.771 39.493,207.187 C39.322,208.847 40.401,212.254 41.413,213.581 C43.931,216.882 49.727,220.853 49.621,228.016 C49.531,234.074 47.793,252.652 53.711,250.836 C59.629,249.021 61.245,224.359 68.174,225.986 C73.729,227.29 78.552,215.013 78.552,215.013" id="Fill-22" fill="#D1DE6C"></path>
        <path d="M41.672,214.003 C41.672,214.003 48.683,198.65 53.978,199.442 C60.732,200.451 74.727,212.981 74.727,212.981 L77.976,215.019 C77.976,215.019 56.2,231.779 41.672,214.003" id="Fill-24" fill="#B0B838"></path>
        <path d="M239.589,212.129 C240.645,213.793 241.029,215.627 240.71,217.589 C239.899,222.654 234.759,227.815 230.312,231.419 C233.736,226.919 239.121,218.837 239.589,212.129" id="Fill-27" fill="#F9D049"></path>
        <path d="M186.625,205.401 C186.668,205.102 186.465,204.836 186.167,204.793 C169.5,202.575 167.772,194.535 167.612,192.37 C167.985,192.381 168.359,192.402 168.743,192.402 C173.083,192.402 177.774,191.517 182.775,189.758 C183.052,189.662 183.202,189.363 183.106,189.086 C183.01,188.809 182.701,188.659 182.423,188.755 C176.9,190.696 171.793,191.538 167.122,191.293 C167.111,191.293 167.111,191.282 167.1,191.282 C167.089,191.282 167.089,191.282 167.079,191.282 C163.486,191.091 160.148,190.237 157.109,188.734 C147.235,183.861 143.801,173.645 143.769,173.55 C143.673,173.272 143.375,173.112 143.097,173.208 C142.809,173.294 142.66,173.603 142.746,173.88 C142.894,174.317 146.339,184.607 156.618,189.683 C159.668,191.187 162.984,192.061 166.546,192.317 C166.673,194.599 168.316,203.492 186.028,205.859 C186.049,205.859 186.081,205.859 186.102,205.859 C186.358,205.859 186.593,205.667 186.625,205.401 Z M236.092,205.326 C244.751,212.929 227.839,232.88 226.794,234.096 C225.813,234.789 225.003,235.333 224.426,235.706 C224.981,232.763 224.565,229.596 223.126,227.047 C220.609,222.59 215.394,220.244 208.336,220.404 C201.404,220.575 198.685,223.955 196.041,227.218 C193.663,230.161 191.211,233.211 185.548,234.33 C181.944,235.045 178.926,234.586 176.569,232.976 C173.157,230.63 172.198,226.535 172.07,225.949 C171.963,222.76 170.278,219.434 167.165,216.501 C160.233,209.965 154.411,211.617 148.781,213.206 C146.542,213.836 144.227,214.486 141.86,214.614 C125.396,215.52 123.914,201.413 123.839,200.421 C123.935,197.872 124.085,195.441 124.276,193.17 C124.778,193.319 125.097,193.426 125.193,193.458 C125.247,193.479 125.3,193.479 125.353,193.479 C125.45,193.479 125.546,193.458 125.631,193.404 C125.758,193.33 125.854,193.202 125.876,193.052 C125.919,192.85 129.981,172.259 128.915,159.516 C128.84,158.557 128.68,156.104 128.606,155.102 C130.856,154.665 133.287,153.748 135.879,152.319 C136.134,152.17 136.23,151.849 136.091,151.593 C135.953,151.338 135.622,151.242 135.366,151.38 C127.156,155.923 120.896,155.251 117.26,149.45 C114.317,144.769 116.076,140.706 123.125,135.855 C129.096,131.749 133.159,125.149 133.33,124.861 C133.49,124.615 133.404,124.285 133.159,124.135 C132.988,124.029 132.775,124.029 132.615,124.114 L131.208,123.826 C134.076,121.31 135.771,117.119 136.176,116.052 C137.744,116.415 140.037,116.511 143.375,115.807 C147.65,114.901 149.783,116.202 151.671,117.364 L152.065,117.599 C152.406,117.812 153.099,118.228 153.899,118.228 C154.155,118.228 154.422,118.185 154.688,118.079 C155.616,117.716 156.298,116.714 156.789,115.018 C157.45,112.737 157.013,109.729 155.616,107.053 C155.445,98.309 153.931,93.414 151.127,92.497 C148.952,91.794 146.542,93.692 145.016,95.707 L144.697,96.133 C143.982,97.072 142.991,98.394 141.849,99.663 C141.849,99.663 141.849,99.663 141.849,99.674 C139.952,101.764 137.648,103.704 135.558,103.491 C134.108,103.363 132.839,102.179 131.773,100.004 C127.731,91.751 134.919,83.657 135.825,82.687 C136.252,82.58 136.625,82.474 136.902,82.357 C140.975,80.735 147.309,75.916 143.919,61.84 C143.865,61.606 143.673,61.445 143.438,61.424 C143.332,61.414 133.425,60.763 126.292,68.356 C125.29,68.025 122.175,67.151 118.167,67.577 C114.2,68.014 108.686,69.881 103.878,76.033 C104.485,73.911 105.616,70.787 107.578,67.737 C112.12,60.656 118.72,57.276 127.198,57.735 C139.727,58.375 142.51,52.35 144.974,47.029 C146.755,43.19 148.429,39.565 153.462,38.423 C154.176,38.274 154.944,38.189 155.755,38.189 C157.674,38.189 159.881,38.648 162.548,39.756 C166.94,41.58 167.399,45.301 167.837,48.905 C168.199,51.849 168.54,54.621 171.249,55.581 C173.52,56.391 179.086,55.901 182.296,53.331 C184.055,51.913 184.855,50.036 184.599,47.924 C184.3,45.525 183.362,43.873 181.816,43.009 C180.462,42.252 178.894,42.241 177.593,42.443 C178.851,41.633 180.547,40.865 182.253,41.068 C183.917,41.271 185.356,42.39 186.518,44.384 C190.549,51.305 185.879,58.822 185.111,59.974 C178.563,58.641 172.496,60.198 172.389,60.23 C172.101,60.305 171.931,60.592 172.006,60.881 C172.08,61.169 172.379,61.328 172.656,61.254 C172.71,61.243 177.785,59.921 183.501,60.731 C191.072,61.808 196.136,65.956 198.547,73.068 C200.029,77.462 200.445,81.141 200.231,84.191 C200.21,84.265 200.2,84.351 200.21,84.425 C199.528,93.009 193.886,96.517 193.556,96.709 C193.311,96.859 193.225,97.178 193.375,97.434 C193.47,97.605 193.652,97.701 193.834,97.701 C193.929,97.701 194.014,97.669 194.1,97.626 C194.185,97.573 200.157,93.905 201.17,85.129 C202.492,85.758 205.542,87.464 206.448,90.322 C207.067,92.284 206.565,94.459 204.965,96.795 C202.108,100.975 201.553,105.581 203.463,109.431 C205.051,112.64 208.197,114.752 211.673,114.933 C211.833,114.933 211.993,114.944 212.153,114.944 C212.441,114.944 212.75,114.922 213.081,114.89 C213.955,115.178 220.278,117.364 222.059,122.792 C223.36,126.769 221.974,131.568 217.943,137.059 C217.336,135.342 216.291,133.551 214.52,132.091 C209.754,128.134 201.521,128.017 190.058,131.738 C189.77,131.834 189.622,132.133 189.717,132.41 C189.802,132.698 190.101,132.847 190.379,132.762 C201.468,129.158 209.359,129.2 213.838,132.901 C217.399,135.855 217.741,140.419 217.709,142.338 C215.799,141.101 210.468,138.083 201.287,136.217 C201.009,136.164 200.722,136.345 200.658,136.633 C200.604,136.921 200.786,137.209 201.074,137.262 C212.164,139.523 217.655,143.586 217.847,143.724 C221.142,146.582 222.933,149.92 223.169,153.673 C223.798,163.259 214.542,173.667 208.41,180.555 C207.258,181.856 206.267,182.976 205.446,183.957 C196.659,194.556 197.064,199.738 198.952,202.223 C201.874,206.062 209.573,205.454 213.785,203.567 L214.19,203.385 C219.372,201.05 227.21,197.521 236.092,205.326 Z" id="Fill-28" fill="#F9D049"></path>
        <path d="M229.168,224.67 C229.879,215.12 222.326,212.129 222.326,212.129 C231.123,219.276 225.969,227.465 225.969,227.465 C225.969,227.465 223.837,214.669 212.551,210.137 C201.265,205.605 191.313,210.937 191.313,210.937 C185.449,205.339 179.317,203.561 179.317,203.561 L173.007,201.251 L169.464,198.23 L166.965,194.497 L166.343,191.21 L165.099,191.654 L158.879,189.966 L152.659,186.5 L147.327,182.235 C147.327,182.235 143.506,177.258 138.974,174.566 C134.442,171.874 133.02,165.889 133.02,165.889 C132.487,168.382 134.62,173.18 134.62,173.18 C131.715,170.378 130.026,166.307 129.085,163.177 C129.273,175.845 125.915,192.868 125.876,193.052 C125.854,193.202 125.758,193.33 125.631,193.404 C125.546,193.458 125.45,193.479 125.353,193.479 C125.3,193.479 125.247,193.479 125.193,193.458 C125.097,193.426 124.778,193.319 124.276,193.17 C124.085,195.441 123.935,197.872 123.839,200.421 C123.858,200.675 123.972,201.79 124.403,203.291 C126.053,205.598 131.407,211.68 141.484,210.759 C141.484,210.759 135.753,212.547 131.887,210.853 C131.887,210.853 138.296,214.543 149.282,213.066 C154.757,211.528 160.438,210.158 167.165,216.501 C169.073,218.299 170.438,220.245 171.239,222.216 C173.136,224.681 177.642,229.062 184.604,226.954 C184.604,226.954 180.742,231.017 176.473,228.754 C176.473,228.754 180.272,234.685 190.402,230.086 C192.171,229.283 193.881,228.548 195.508,227.873 C195.687,227.655 195.864,227.436 196.041,227.218 C198.685,223.955 201.404,220.575 208.336,220.404 C215.394,220.244 220.609,222.59 223.126,227.047 C224.565,229.596 224.981,232.763 224.426,235.706 C225.003,235.333 225.813,234.789 226.794,234.096 C227.464,233.317 234.645,224.84 237.44,216.85 C234.663,220.146 229.168,224.67 229.168,224.67" id="Fill-29" fill="#B0B838"></path>
        <path d="M186.167,204.793 C186.465,204.836 186.668,205.102 186.625,205.401 C186.593,205.667 186.358,205.859 186.102,205.859 C186.081,205.859 186.049,205.859 186.028,205.859 C168.316,203.492 166.673,194.599 166.546,192.317 C162.984,192.061 159.668,191.187 156.618,189.683 C146.339,184.607 142.894,174.317 142.746,173.88 C142.66,173.603 142.809,173.294 143.097,173.208 C143.375,173.112 143.673,173.272 143.769,173.55 C143.801,173.645 147.235,183.861 157.109,188.734 C160.148,190.237 163.486,191.091 167.079,191.282 C167.089,191.282 167.089,191.282 167.1,191.282 C167.111,191.282 167.111,191.293 167.122,191.293 C171.793,191.538 176.9,190.696 182.423,188.755 C182.701,188.659 183.01,188.809 183.106,189.086 C183.202,189.363 183.052,189.662 182.775,189.758 C177.774,191.517 173.083,192.402 168.743,192.402 C168.359,192.402 167.985,192.381 167.612,192.37 C167.772,194.535 169.5,202.575 186.167,204.793" id="Fill-30" fill="#3D1717"></path>
        <path d="M150.797,93.521 C152.033,93.916 154.081,96.006 154.497,105.261 C153.441,103.854 152.097,102.638 150.455,101.796 C147.149,100.1 144.75,99.62 143.417,99.492 C144.238,98.511 144.964,97.552 145.549,96.773 L145.859,96.358 C147.107,94.705 149.143,92.977 150.797,93.521" id="Fill-31" fill="#B0B838"></path>
        <path d="M139.374,105.636 C139.374,105.636 142.395,104.534 143.417,107.884 C143.417,107.884 142.573,107.191 141.395,107.191 C141.395,107.191 144.119,109.635 140.414,111.768 L140.796,109.279 L138.885,106.833 L139.374,105.636" id="Fill-32" fill="#B63F43"></path>
        <path d="M151.009,107.575 C151.308,107.618 151.51,107.874 151.478,108.173 C151.467,108.29 151.105,111.126 148.514,111.947 C148.461,111.958 148.408,111.968 148.354,111.968 C148.131,111.968 147.917,111.83 147.842,111.595 C147.789,111.435 147.832,111.265 147.927,111.126 C147.992,111.03 148.077,110.966 148.194,110.924 C150.135,110.316 150.423,108.066 150.423,108.045 C150.455,107.778 150.689,107.575 150.956,107.575 C150.956,107.575 150.956,107.575 150.966,107.575 C150.977,107.575 150.988,107.575 151.009,107.575" id="Fill-33" fill="#3D1717"></path>
        <path d="M146.584,105.816 C146.915,106.978 147.032,109.292 145.646,110.998 C145.358,111.35 144.996,111.681 144.558,111.968 C144.463,112.022 144.366,112.054 144.259,112.054 C144.089,112.054 143.919,111.968 143.822,111.809 C143.663,111.563 143.726,111.233 143.971,111.073 C146.456,109.452 145.603,106.232 145.56,106.093 C145.486,105.816 145.646,105.517 145.933,105.443 C146.211,105.368 146.509,105.528 146.584,105.816" id="Fill-34" fill="#3D1717"></path>
        <path d="M144.888,44.107 C145.102,43.894 145.315,43.691 145.539,43.478 C144.974,44.48 144.483,45.536 144.004,46.581 C141.572,51.838 139.046,57.287 127.252,56.669 C109.273,55.73 103.793,71.896 102.523,76.982 C100.561,72.695 95.645,58.876 108.185,49.3 C119.67,40.513 125.546,40.652 128.03,41.516 C129.693,42.102 130.845,43.35 131.271,45.024 C131.336,45.269 131.389,45.557 131.453,45.856 C131.762,47.391 132.199,49.503 133.905,50.185 C135.345,50.772 137.329,50.174 139.963,48.362 C141.797,47.104 143.364,45.579 144.888,44.107" id="Fill-35" fill="#F9D049"></path>
        <path d="M139.716,107.362 C139.898,107.543 141.476,109.154 141.177,110.753 C141.039,111.521 140.506,112.118 139.589,112.523 C139.525,112.545 139.451,112.566 139.376,112.566 C139.173,112.566 138.981,112.448 138.885,112.246 C138.768,111.979 138.896,111.659 139.163,111.542 C139.738,111.286 140.058,110.966 140.132,110.55 C140.282,109.761 139.514,108.663 138.97,108.119 C138.256,107.404 138.203,106.765 138.288,106.36 C138.502,105.283 139.781,104.728 139.93,104.664 C140.197,104.558 140.516,104.686 140.624,104.952 C140.741,105.229 140.613,105.539 140.336,105.656 C140.101,105.752 139.419,106.125 139.333,106.562 C139.291,106.797 139.419,107.064 139.716,107.362" id="Fill-36" fill="#3D1717"></path>
        <path d="M131.208,123.826 L132.615,124.114 C132.541,124.167 132.465,124.232 132.423,124.306 C132.402,124.349 130.642,127.196 127.817,130.267 C127.753,130.245 127.689,130.245 127.614,130.256 C124.863,130.704 122.88,130.224 121.728,128.827 C120.129,126.897 120.278,123.517 120.768,120.766 C120.939,121.694 121.248,122.632 121.813,123.442 C122.687,124.722 124,125.49 125.737,125.714 C127.87,126.002 129.693,125.138 131.208,123.826" id="Fill-37" fill="#F9D049"></path>
        <path d="M142.98,62.48 C142.98,62.48 122.778,71.669 127.266,79.733 C131.755,87.797 143.876,70.019 142.98,62.48" id="Fill-38" fill="#B63F43"></path>
        <path d="M126.931,91.602 C127.198,91.708 127.337,92.017 127.23,92.295 L125.342,97.083 C125.257,97.296 125.065,97.424 124.852,97.424 C124.789,97.424 124.714,97.413 124.65,97.381 C124.383,97.275 124.245,96.965 124.351,96.688 L126.239,91.9 C126.345,91.623 126.654,91.495 126.931,91.602" id="Fill-39" fill="#3D1717"></path>
        <path d="M125.737,131.493 C126.047,131.493 126.367,131.472 126.697,131.44 C125.45,132.698 124.052,133.925 122.528,134.969 C120.981,136.036 119.414,137.23 118.102,138.563 L118.433,136.1 C120.406,134.745 122.464,133.199 124.607,131.408 C124.969,131.461 125.342,131.493 125.737,131.493" id="Fill-40" fill="#B0B838"></path>
        <path d="M125.439,89.266 C125.706,89.373 125.834,89.693 125.726,89.96 L122.741,97.147 C122.656,97.349 122.464,97.477 122.251,97.477 C122.186,97.477 122.112,97.466 122.048,97.434 C121.781,97.328 121.642,97.008 121.759,96.741 L124.735,89.554 C124.852,89.277 125.162,89.149 125.439,89.266" id="Fill-41" fill="#3D1717"></path>
        <path d="M84.68,84.519 C84.68,84.519 77.467,94.617 78.808,110.346 C80.148,126.074 86.546,129.521 86.546,129.521 C86.546,129.521 87.186,130.325 87.488,129.222 C87.79,128.118 100.23,129.804 100.23,129.804 C100.23,129.804 89.419,129.705 88.338,132.111 C88.338,132.111 95.174,131.054 103.256,131.408 C111.339,131.761 109.148,129.788 107.888,127.443 C107.888,127.443 109.206,127.141 110.539,129.007 C110.539,129.007 116.844,120.07 115.468,109.476 C114.093,98.883 120.673,90.611 120.673,90.611 L86.279,81.555 L84.68,84.519" id="Fill-42" fill="#B63F43"></path>
        <path d="M120.534,102.851 C120.63,102.969 120.683,103.118 120.673,103.267 C120.651,103.395 120.341,106.541 118.07,108.343 C117.057,109.154 115.831,109.559 114.402,109.559 C114.04,109.559 113.677,109.537 113.294,109.484 C102.47,108.034 101.617,100.1 101.617,100.015 C101.595,99.844 101.671,99.663 101.809,99.556 C101.958,99.439 102.15,99.407 102.31,99.461 C102.406,99.503 112.184,102.681 119.979,102.681 C120.033,102.681 120.075,102.681 120.139,102.681 C120.289,102.681 120.427,102.745 120.534,102.851" id="Fill-43" fill="#FFFFFE"></path>
        <path d="M104.208,131.293 C104.729,130.867 105.525,130.017 105.909,128.961 C105.21,128.715 104.208,128.454 102.796,128.207 C103.056,129.167 103.522,130.456 104.208,131.293" id="Fill-44" fill="#FFFFFE"></path>
        <path d="M109.423,105.4 C109.583,104.216 110.467,103.289 111.651,102.883 C107.769,102.169 104.368,101.209 102.843,100.751 C103.27,102.372 104.816,105.944 110.094,107.671 C109.583,107.021 109.305,106.232 109.423,105.4 Z M120.534,102.851 C120.63,102.969 120.683,103.118 120.673,103.267 C120.651,103.395 120.341,106.541 118.07,108.343 C117.057,109.154 115.831,109.559 114.402,109.559 C114.04,109.559 113.677,109.537 113.294,109.484 C102.47,108.034 101.617,100.1 101.617,100.015 C101.595,99.844 101.671,99.663 101.809,99.556 C101.958,99.439 102.15,99.407 102.31,99.461 C102.406,99.503 112.184,102.681 119.979,102.681 C120.033,102.681 120.075,102.681 120.139,102.681 C120.289,102.681 120.427,102.745 120.534,102.851 Z M115.639,108.364 C116.311,108.204 116.886,107.927 117.409,107.522 C118.785,106.424 119.318,104.654 119.509,103.747 C118.188,103.726 116.823,103.619 115.468,103.459 C116.418,104.174 116.972,105.251 116.823,106.392 C116.716,107.192 116.268,107.863 115.639,108.364 Z" id="Fill-45" fill="#3D1717"></path>
        <path d="M114.647,218.549 C114.829,220.095 114.434,221.63 114.061,222.654 C113.656,221.854 113.155,221.321 113.123,221.289 C112.952,221.108 112.685,221.076 112.472,221.182 C112.258,221.31 112.163,221.556 112.216,221.79 C113.24,225.725 112.963,228.529 112.334,230.438 C112.323,230.47 112.312,230.502 112.301,230.545 C111.747,232.187 110.947,233.136 110.542,233.541 C106.074,230.982 105.007,225.704 104.997,225.651 C104.955,225.405 104.752,225.235 104.506,225.224 C104.496,225.213 104.485,225.213 104.474,225.213 C104.24,225.213 104.038,225.373 103.963,225.597 C103.856,225.97 103.824,226.333 103.824,226.674 C103.089,225.736 102.204,223.838 102.267,220.106 C102.289,218.89 102.512,217.344 103.462,216.885 C104.624,216.32 106.575,217.482 107.226,217.973 C107.311,218.037 107.407,218.069 107.513,218.079 C107.524,218.079 107.535,218.09 107.546,218.09 C107.567,218.09 107.589,218.079 107.61,218.079 C107.621,218.079 107.621,218.079 107.631,218.079 C107.641,218.079 107.652,218.079 107.652,218.069 C107.684,218.069 107.695,218.048 107.727,218.048 C107.769,218.026 107.812,218.015 107.844,217.984 C107.877,217.973 107.887,217.941 107.919,217.92 C107.94,217.898 107.962,217.887 107.983,217.856 C109.646,215.456 111.214,214.294 112.397,214.592 C113.667,214.902 114.445,216.8 114.647,218.549" id="Fill-46" fill="#F9D049"></path>
        <path d="M103.878,227.468 C103.878,227.468 102.697,221.422 104.296,219.356 C104.296,219.356 101.23,221.774 102.563,225.597 L103.878,227.468" id="Fill-47" fill="#B0B838"></path>
        <path d="M110.542,233.541 C110.542,233.541 112.045,226.338 108.939,220.8 C108.939,220.8 112.7,223.75 112.849,230.664 L110.542,233.541" id="Fill-48" fill="#B0B838"></path>
        <path d="M90.303,98.325 C90.293,98.325 90.281,98.325 90.269,98.325 C89.933,98.318 89.603,98.305 89.282,98.285 C89.285,98.288 89.287,98.292 89.291,98.295 C86.429,98.13 83.927,97.259 82.87,96.84 C81.236,96.171 80.028,95.106 79.287,94.562 C79.264,96.519 79.774,100.879 84.048,102.396 C85.625,103.632 89.466,102.57 89.466,102.57 C91.424,101.898 92.339,100.543 92.396,100.462 C92.408,100.45 92.408,100.45 92.42,100.439 C92.86,99.478 93.254,98.714 93.566,98.158 C92.418,98.296 91.327,98.343 90.303,98.325" id="Fill-49" fill="#FFFFFE"></path>
        <path d="M104.24,130.949 C104.645,130.619 105.263,129.958 105.562,129.136 C105.018,128.945 104.24,128.742 103.141,128.55 C103.344,129.297 103.707,130.299 104.24,130.949 Z M107.866,129.606 C107.951,129.894 107.791,130.192 107.503,130.267 C107.461,130.288 107.407,130.288 107.354,130.288 C107.119,130.288 106.917,130.139 106.841,129.915 C106.831,129.872 106.778,129.755 106.544,129.595 C105.957,131.131 104.549,132.069 104.474,132.112 L104.144,132.336 L103.835,132.069 C102.715,131.099 102.193,129.19 102.001,128.38 C101.073,128.252 99.974,128.124 98.652,128.017 C94.355,127.686 90.09,127.718 89.205,127.846 C88.16,128.006 87.915,128.411 87.936,128.625 C87.967,128.913 87.776,129.179 87.488,129.222 C87.2,129.264 86.944,129.083 86.891,128.806 C86.881,128.753 86.795,128.252 87.158,127.74 C87.509,127.249 88.149,126.929 89.045,126.791 C89.962,126.663 97.299,126.567 102.545,127.377 C102.555,127.388 102.566,127.388 102.577,127.388 C104.027,127.612 105.306,127.91 106.245,128.305 C106.952,128.618 107.738,129.158 107.866,129.606 Z" id="Fill-50" fill="#3D1717"></path>
        <path d="M106.746,142.508 C106.821,144.577 106.735,148.395 105.69,149.802 C105.2,150.453 103.249,150.965 101.179,151.498 C97.256,152.51 92.361,153.779 90.74,157.235 C90.698,157.299 90.154,158.119 89.418,160.423 L88.49,160.327 C88.608,159.986 88.682,159.666 88.736,159.367 C89.131,157.021 88.053,154.462 85.878,152.532 C84.31,151.135 82.327,151.295 80.418,151.445 C77.315,151.69 74.393,151.924 72.132,146.56 C68.56,138.083 77.411,133.295 78.115,132.933 C79.576,132.602 80.792,131.994 81.421,131.642 C85.888,138.787 91.529,142.978 94.377,145.078 C94.462,145.142 94.557,145.174 94.654,145.185 C94.707,145.185 94.888,145.195 95.187,145.195 C96.616,145.195 100.711,144.95 106.746,142.508" id="Fill-51" fill="#F9D049"></path>
        <path d="M83.425,99.844 C83.553,98.863 84.236,98.074 85.175,97.68 C82.604,96.976 80.813,95.878 79.853,95.174 C79.832,96.976 80.3,100.708 84.236,102.105 C83.638,101.497 83.308,100.687 83.425,99.844 Z M90.165,122.227 C90.048,122.11 89.929,121.982 89.823,121.864 C89.929,121.982 90.037,122.099 90.165,122.227 Z M91.945,100.303 C92.35,99.418 92.713,98.714 93.001,98.202 C91.583,98.373 90.26,98.394 89.055,98.319 C89.749,98.949 90.143,99.812 90.026,100.729 C89.94,101.327 89.653,101.86 89.226,102.265 C91.028,101.647 91.871,100.399 91.924,100.324 C91.934,100.314 91.934,100.314 91.945,100.303 Z M97.863,120.808 C97.863,120.851 97.874,120.883 97.863,120.915 C97.863,120.947 97.853,120.968 97.842,121 C97.832,121.043 97.821,121.075 97.799,121.107 C97.799,121.118 97.799,121.129 97.789,121.129 C96.093,123.826 92.361,124.455 92.212,124.487 C92.179,124.487 92.148,124.487 92.127,124.487 C92.073,124.487 92.02,124.487 91.966,124.466 C89.034,123.591 88.021,121.032 87.978,120.926 C87.967,120.894 87.967,120.851 87.967,120.819 C87.957,120.798 87.947,120.787 87.947,120.766 C87.531,113.227 89.29,106.85 90.943,102.638 C90.026,103.203 88.767,103.683 87.104,103.683 C86.517,103.683 85.888,103.63 85.206,103.491 C77.753,101.987 78.861,94.108 78.872,94.022 C78.904,93.83 79.043,93.67 79.224,93.606 C79.416,93.542 79.63,93.585 79.767,93.724 C79.821,93.777 84.79,98.469 93.918,97.008 C93.95,97.008 93.971,97.019 94.004,97.019 C94.035,97.019 94.078,97.008 94.11,97.019 C94.153,97.029 94.195,97.05 94.238,97.072 C94.249,97.083 94.27,97.083 94.291,97.093 C94.291,97.093 94.291,97.093 94.301,97.104 C94.334,97.125 94.366,97.157 94.398,97.2 C94.42,97.211 94.429,97.232 94.44,97.242 C94.462,97.275 94.472,97.306 94.483,97.339 C94.494,97.37 94.515,97.402 94.526,97.445 C94.526,97.445 94.526,97.445 94.526,97.456 C94.537,97.488 94.526,97.509 94.526,97.541 C94.526,97.573 94.526,97.616 94.515,97.648 C94.515,97.691 94.494,97.722 94.472,97.755 C94.462,97.776 94.462,97.808 94.451,97.829 C94.387,97.925 88.383,107.351 88.992,120.393 C89.823,120.766 92.723,121.768 97.181,120.34 C97.181,120.34 97.192,120.34 97.202,120.34 C97.234,120.329 97.266,120.329 97.309,120.329 C97.34,120.318 97.373,120.318 97.405,120.318 C97.437,120.329 97.468,120.34 97.501,120.35 C97.533,120.361 97.576,120.371 97.596,120.382 C97.607,120.393 97.618,120.393 97.629,120.393 C97.65,120.414 97.661,120.435 97.682,120.446 C97.704,120.467 97.735,120.488 97.757,120.521 C97.778,120.552 97.789,120.585 97.81,120.616 C97.821,120.638 97.842,120.659 97.853,120.68 C97.853,120.691 97.853,120.702 97.853,120.713 C97.863,120.744 97.863,120.777 97.863,120.808 Z" id="Fill-52" fill="#3D1717"></path>
        <path d="M240.71,217.589 C239.899,222.654 234.759,227.815 230.312,231.419 C233.736,226.919 239.121,218.837 239.589,212.129 C240.645,213.793 241.029,215.627 240.71,217.589 Z M224.426,235.706 C224.981,232.763 224.565,229.596 223.126,227.047 C220.609,222.59 215.394,220.244 208.336,220.404 C201.404,220.575 198.685,223.955 196.041,227.218 C193.663,230.161 191.211,233.211 185.548,234.33 C181.944,235.045 178.926,234.586 176.57,232.976 C173.157,230.63 172.198,226.535 172.07,225.949 C171.963,222.76 170.278,219.434 167.165,216.501 C160.233,209.965 154.411,211.617 148.781,213.206 C146.542,213.836 144.227,214.486 141.86,214.614 C125.396,215.52 123.914,201.413 123.839,200.421 C123.935,197.872 124.085,195.441 124.276,193.17 C124.778,193.319 125.097,193.426 125.193,193.458 C125.247,193.479 125.3,193.479 125.353,193.479 C125.45,193.479 125.546,193.458 125.631,193.404 C125.758,193.33 125.854,193.202 125.876,193.052 C125.919,192.85 129.981,172.259 128.915,159.516 C128.84,158.557 128.68,156.104 128.606,155.102 C130.856,154.665 133.287,153.748 135.879,152.319 C136.134,152.169 136.23,151.849 136.091,151.593 C135.953,151.338 135.622,151.241 135.366,151.38 C127.156,155.923 120.896,155.251 117.259,149.45 C114.317,144.769 116.076,140.706 123.125,135.855 C129.096,131.749 133.159,125.149 133.33,124.861 C133.49,124.615 133.404,124.285 133.159,124.135 C132.988,124.029 132.775,124.029 132.615,124.114 C132.541,124.167 132.465,124.232 132.423,124.306 C132.402,124.349 130.642,127.196 127.817,130.267 C127.753,130.245 127.689,130.245 127.614,130.256 C124.863,130.704 122.88,130.224 121.728,128.827 C120.129,126.897 120.278,123.517 120.768,120.766 C120.939,121.694 121.248,122.632 121.813,123.442 C122.687,124.722 124,125.49 125.737,125.714 C127.87,126.002 129.693,125.138 131.208,123.826 C134.076,121.31 135.771,117.119 136.176,116.052 C137.744,116.415 140.037,116.511 143.375,115.807 C147.65,114.901 149.783,116.202 151.671,117.364 L152.065,117.599 C152.406,117.812 153.099,118.228 153.899,118.228 C154.155,118.228 154.422,118.185 154.688,118.079 C155.616,117.716 156.298,116.714 156.789,115.018 C157.45,112.737 157.013,109.729 155.616,107.053 C155.445,98.309 153.931,93.414 151.127,92.497 C148.952,91.794 146.542,93.692 145.016,95.707 L144.697,96.133 C143.982,97.072 142.991,98.394 141.849,99.663 C141.849,99.663 141.849,99.663 141.849,99.674 C139.952,101.764 137.648,103.704 135.558,103.491 C134.108,103.363 132.839,102.179 131.773,100.004 C127.731,91.751 134.919,83.657 135.825,82.687 C136.252,82.58 136.625,82.474 136.902,82.357 C140.975,80.735 147.309,75.916 143.919,61.84 C143.865,61.606 143.673,61.445 143.438,61.424 C143.332,61.414 133.425,60.763 126.292,68.356 C125.29,68.025 122.175,67.151 118.167,67.577 C114.2,68.014 108.686,69.881 103.878,76.033 C104.485,73.911 105.616,70.787 107.578,67.737 C112.121,60.656 118.721,57.276 127.198,57.735 C139.727,58.375 142.51,52.35 144.974,47.029 C146.755,43.19 148.429,39.565 153.462,38.423 C154.176,38.274 154.944,38.189 155.755,38.189 C157.674,38.189 159.881,38.648 162.548,39.756 C166.94,41.58 167.399,45.301 167.837,48.905 C168.199,51.849 168.54,54.621 171.249,55.581 C173.52,56.391 179.086,55.901 182.296,53.331 C184.055,51.913 184.855,50.036 184.599,47.924 C184.3,45.525 183.362,43.873 181.816,43.009 C180.462,42.252 178.894,42.241 177.593,42.443 C178.851,41.633 180.547,40.865 182.253,41.068 C183.917,41.271 185.356,42.39 186.518,44.384 C190.549,51.305 185.879,58.822 185.111,59.974 C178.563,58.641 172.496,60.198 172.389,60.23 C172.101,60.305 171.931,60.592 172.006,60.881 C172.08,61.169 172.379,61.328 172.656,61.254 C172.71,61.243 177.785,59.921 183.501,60.731 C191.072,61.808 196.136,65.956 198.547,73.068 C200.029,77.462 200.445,81.141 200.231,84.191 C200.21,84.265 200.2,84.351 200.21,84.425 C199.528,93.009 193.886,96.517 193.556,96.709 C193.311,96.859 193.225,97.178 193.375,97.434 C193.47,97.605 193.652,97.701 193.834,97.701 C193.929,97.701 194.014,97.669 194.1,97.626 C194.185,97.573 200.157,93.905 201.17,85.129 C202.492,85.758 205.542,87.464 206.448,90.322 C207.067,92.284 206.565,94.459 204.965,96.795 C202.108,100.975 201.553,105.581 203.463,109.431 C205.051,112.64 208.197,114.752 211.673,114.933 C211.833,114.933 211.993,114.944 212.153,114.944 C212.441,114.944 212.751,114.922 213.081,114.89 C213.955,115.178 220.279,117.364 222.059,122.792 C223.36,126.769 221.974,131.568 217.943,137.059 C217.336,135.342 216.291,133.551 214.52,132.091 C209.754,128.134 201.521,128.017 190.058,131.738 C189.77,131.834 189.622,132.133 189.717,132.41 C189.802,132.698 190.101,132.847 190.379,132.762 C201.468,129.158 209.359,129.2 213.838,132.901 C217.399,135.855 217.741,140.418 217.709,142.338 C215.799,141.101 210.468,138.083 201.287,136.217 C201.009,136.164 200.722,136.345 200.658,136.633 C200.604,136.921 200.786,137.209 201.074,137.262 C212.164,139.523 217.655,143.586 217.847,143.724 C221.142,146.582 222.933,149.92 223.169,153.673 C223.798,163.259 214.542,173.667 208.41,180.555 C207.258,181.856 206.267,182.976 205.446,183.957 C196.659,194.556 197.064,199.738 198.952,202.223 C201.874,206.062 209.572,205.454 213.785,203.567 L214.19,203.385 C219.372,201.05 227.21,197.521 236.092,205.326 C244.751,212.929 227.839,232.88 226.794,234.096 C225.813,234.789 225.003,235.333 224.426,235.706 Z M87.605,177.292 C87.52,177.228 87.424,177.196 87.317,177.196 C87.211,177.196 87.104,177.239 87.008,177.303 C86.827,177.431 86.742,177.654 86.795,177.868 C86.816,177.932 88.416,184.479 85.036,187.188 C84.129,187.913 83.756,188.563 83.894,189.171 C84.065,189.918 84.886,190.131 84.971,190.152 C85.025,190.163 85.078,190.152 85.132,190.152 C85.067,190.643 85.004,191.144 84.939,191.666 C82.444,190.866 80.951,189.737 80.525,188.276 C79.842,185.951 82.049,183.456 82.071,183.434 C82.263,183.21 82.242,182.88 82.028,182.677 C81.804,182.485 81.474,182.507 81.271,182.72 C81.197,182.805 79.864,184.309 79.448,186.238 C78.221,185.791 77.454,185.151 77.198,184.298 C76.654,182.453 78.466,180.171 78.488,180.15 C78.67,179.926 78.637,179.585 78.403,179.404 C78.178,179.212 77.838,179.254 77.657,179.478 C77.603,179.553 76.793,180.566 76.334,181.888 C75.876,180.182 77.454,177.783 81.282,174.317 C83.276,172.515 85.334,172.942 87.115,173.762 C87.115,173.773 87.126,173.773 87.136,173.773 C87.765,174.072 88.351,174.413 88.884,174.722 C89.151,174.872 89.397,175.021 89.621,175.138 C96.243,178.721 111.075,184.042 117.174,184.596 C122.667,185.087 123.125,187.54 123.135,187.593 C123.168,187.86 123.391,188.051 123.658,188.051 C123.679,188.051 123.701,188.051 123.722,188.051 C123.989,188.02 124.191,187.785 124.191,187.518 C124.191,187.508 124.191,187.487 124.191,187.465 C124.18,187.359 123.935,185.61 121.248,184.447 C121.685,182.624 123.231,175.32 122.997,164.933 C122.997,164.646 122.773,164.432 122.453,164.422 C122.154,164.422 121.93,164.667 121.93,164.966 C122.154,175.031 120.694,182.144 120.246,184.085 C119.424,183.829 118.455,183.637 117.27,183.53 C111.79,183.04 98.482,178.348 91.529,174.914 C91.572,174.84 91.604,174.754 91.604,174.648 C91.604,174.552 91.636,165.125 93.896,160.497 C94.024,160.231 93.918,159.911 93.651,159.783 C93.384,159.655 93.065,159.761 92.937,160.028 C90.74,164.528 90.559,172.899 90.538,174.413 C90.41,174.349 90.26,174.275 90.133,174.2 C89.92,174.083 89.674,173.944 89.428,173.795 C88.992,173.55 88.501,173.261 87.967,172.995 C89.525,161.052 91.593,157.874 91.657,157.768 C93.118,154.686 97.735,153.491 101.446,152.532 C103.899,151.892 105.829,151.391 106.544,150.442 C108.005,148.49 107.866,143.521 107.791,142.071 C110.585,140.866 113.762,139.203 117.25,136.9 L116.834,140.024 C114.712,142.786 113.89,146.091 116.364,150.026 C118.603,153.598 121.824,155.401 125.78,155.401 C126.356,155.401 126.953,155.347 127.55,155.272 C127.625,156.339 127.774,158.674 127.859,159.602 C128.585,168.345 126.868,180.854 125.737,187.763 C125.385,189.875 125.097,191.453 124.948,192.263 C120.875,190.952 96.189,182.89 87.605,177.292 Z M126.057,274.041 L123.69,271.225 C123.551,271.066 123.348,271.002 123.157,271.044 C122.954,271.098 122.805,271.247 122.762,271.449 L122.048,274.542 C115.906,259.357 113.528,232.805 113.357,230.748 C113.847,229.223 114.146,227.207 113.837,224.616 C113.869,224.627 113.901,224.637 113.944,224.637 C114.157,224.67 114.381,224.563 114.488,224.36 C114.551,224.243 116.055,221.406 115.703,218.421 C115.458,216.373 114.53,214.028 112.653,213.558 C111.459,213.259 110.179,213.793 108.836,215.136 C108.857,214.72 108.825,214.304 108.676,213.942 C108.558,213.665 108.25,213.537 107.972,213.654 C107.706,213.761 107.578,214.07 107.684,214.347 C107.919,214.912 107.663,215.925 107.343,216.704 C106.191,215.734 105.093,214.561 105.04,214.049 C105.029,213.889 105.029,213.675 105.135,213.548 C105.243,213.43 105.413,213.409 105.423,213.409 C105.712,213.387 105.935,213.142 105.924,212.844 C105.914,212.556 105.658,212.321 105.371,212.342 C105.306,212.342 104.741,212.385 104.336,212.844 C104.144,213.068 103.921,213.484 103.984,214.155 C104.027,214.625 104.379,215.179 104.838,215.734 C104.208,215.627 103.568,215.648 102.993,215.925 C101.84,216.48 101.244,217.887 101.201,220.084 C101.084,227.282 104.315,228.466 104.454,228.519 C104.582,228.562 104.72,228.551 104.838,228.498 C105.2,229.34 105.722,230.279 106.416,231.216 C105.04,243.458 107.684,266.299 108.538,273.102 L106.65,270.66 C106.544,270.522 106.362,270.447 106.171,270.458 C105.989,270.479 105.829,270.596 105.755,270.757 L104.112,274.211 C91.071,228.284 90.889,186.804 90.943,180.395 C100.626,185.321 117.495,190.963 123.242,192.829 C123.029,195.217 122.88,197.766 122.773,200.453 L122.762,200.453 C122.634,203.791 122.57,207.331 122.57,210.978 C122.57,214.539 122.634,218.207 122.73,221.907 C122.719,221.94 122.719,221.982 122.73,222.025 C122.816,225.352 122.943,228.7 123.082,232.006 C123.082,232.049 123.082,232.091 123.092,232.133 C123.924,251.008 125.535,268.602 126.057,274.041 Z M167.143,268.88 C167.868,269.178 168.593,269.455 169.318,269.711 C134.962,260.669 124.789,233.786 124.148,232.006 C124.042,229.574 123.946,227.122 123.871,224.67 C136.241,251.733 154.123,263.654 167.143,268.88 Z M112.334,230.438 C112.323,230.47 112.312,230.502 112.301,230.545 C111.747,232.187 110.947,233.136 110.542,233.541 C106.074,230.982 105.007,225.704 104.997,225.651 C104.955,225.405 104.752,225.235 104.506,225.224 C104.496,225.213 104.485,225.213 104.474,225.213 C104.24,225.213 104.038,225.373 103.963,225.597 C103.856,225.97 103.824,226.333 103.824,226.674 C103.089,225.736 102.204,223.838 102.267,220.106 C102.289,218.89 102.512,217.343 103.462,216.885 C104.624,216.32 106.575,217.482 107.226,217.973 C107.311,218.037 107.407,218.069 107.513,218.079 C107.524,218.079 107.535,218.09 107.546,218.09 C107.567,218.09 107.589,218.079 107.61,218.079 C107.621,218.079 107.621,218.079 107.631,218.079 C107.641,218.079 107.652,218.079 107.652,218.069 C107.684,218.069 107.695,218.048 107.727,218.048 C107.769,218.026 107.812,218.015 107.844,217.984 C107.877,217.973 107.887,217.941 107.919,217.92 C107.94,217.898 107.962,217.887 107.983,217.856 C109.646,215.456 111.214,214.294 112.397,214.592 C113.667,214.902 114.445,216.8 114.647,218.549 C114.829,220.095 114.434,221.63 114.061,222.654 C113.656,221.854 113.155,221.321 113.123,221.289 C112.952,221.108 112.685,221.076 112.472,221.182 C112.258,221.31 112.163,221.556 112.216,221.79 C113.24,225.725 112.963,228.529 112.334,230.438 Z M85.227,189.118 C85.089,189.075 84.939,188.979 84.939,188.937 C84.939,188.915 84.95,188.723 85.344,188.34 C85.312,188.595 85.281,188.862 85.249,189.129 C85.238,189.118 85.238,189.118 85.227,189.118 Z M89.972,188.552 C89.951,188.798 88.181,212.993 86.219,216.832 C86.006,217.258 85.771,217.663 85.526,218.058 C83.831,220.82 81.602,222.771 80.428,222.888 C80.109,222.921 79.97,222.803 79.885,222.696 C79.416,222.132 79.437,221.396 79.544,220.884 C79.832,219.402 81.058,217.909 82.754,216.97 C83.009,216.832 83.105,216.512 82.956,216.245 C82.817,215.989 82.487,215.893 82.231,216.043 C81.069,216.682 80.088,217.578 79.416,218.581 L77.944,217.663 C78.435,216.672 78.776,215.872 78.936,215.478 C79.747,215.275 81.932,214.539 82.882,212.193 C83.916,209.645 86.304,189.288 86.56,187.166 C88.608,184.661 88.362,180.79 88.064,178.828 C88.629,179.158 89.237,179.5 89.887,179.851 C89.866,180.811 89.844,183.84 89.983,188.521 C89.983,188.531 89.972,188.542 89.972,188.552 Z M83.617,228.455 C82.871,229.233 81.602,229.457 80.675,229.51 C80.749,229.404 80.834,229.319 80.92,229.212 C81.783,227.954 82.167,226.834 82.114,225.853 C82.636,225.608 83.458,225.341 83.873,225.544 C83.937,225.576 84.097,225.651 84.161,226.034 C84.332,227.09 84.15,227.879 83.617,228.455 Z M80.034,228.604 C79.383,229.543 78.648,230.076 77.838,230.182 C77.38,230.246 76.942,230.161 76.58,230.033 C77.805,229.564 78.978,228.754 79.821,227.698 C80.088,227.367 80.716,226.525 81.037,225.597 C81.037,225.608 81.037,225.608 81.037,225.618 C81.208,226.386 80.855,227.421 80.034,228.604 Z M74.596,229.393 C73.999,229.415 73.167,229.308 72.57,228.69 C71.258,227.293 73.092,224.712 73.135,224.659 C73.381,224.424 73.626,224.179 73.871,223.912 L74.649,224.403 C74.298,224.723 74.02,225.053 73.86,225.373 C73.721,225.629 73.817,225.96 74.074,226.088 C74.341,226.226 74.66,226.13 74.799,225.874 C75.31,224.915 77.486,223.379 79.416,223.848 C79.992,223.998 80.088,224.264 80.109,224.349 C80.322,224.979 79.682,226.183 78.989,227.037 C77.902,228.38 76.132,229.329 74.596,229.393 Z M68.294,225.469 C64.049,224.456 61.768,231.611 59.55,238.51 C57.812,243.949 55.999,249.579 53.557,250.325 C52.95,250.517 52.459,250.443 52.032,250.112 C49.345,248.044 49.803,237.146 50.039,231.291 C50.091,230.012 50.145,228.892 50.156,228.029 C50.241,222.281 46.744,218.581 43.928,215.616 C43.139,214.774 42.392,213.985 41.839,213.259 C40.857,211.969 39.877,208.706 40.025,207.245 C40.463,203.033 46.861,194.737 50.976,194.108 C51.201,194.066 51.435,194.055 51.68,194.055 C51.702,194.055 51.713,194.055 51.734,194.055 C58.985,194.13 74.617,208.877 75.865,210.061 L76.718,212.076 L77.976,215.019 C77.528,216.096 75.31,221.193 72.431,223.891 C72.378,223.912 72.346,223.955 72.303,223.998 C71.055,225.128 69.691,225.789 68.294,225.469 Z M80.972,168.431 C81.271,166.159 83.883,164.699 83.916,164.688 C85.675,163.942 86.805,163.003 87.542,162.065 C88,161.478 88.299,160.882 88.49,160.327 C88.608,159.986 88.682,159.666 88.736,159.367 C89.131,157.021 88.053,154.462 85.878,152.532 C84.31,151.135 82.327,151.295 80.418,151.444 C77.315,151.69 74.393,151.924 72.132,146.56 C68.56,138.083 77.411,133.295 78.115,132.933 C79.576,132.602 80.792,131.994 81.421,131.642 C85.888,138.787 91.529,142.978 94.377,145.078 C94.462,145.142 94.557,145.174 94.654,145.185 C94.707,145.185 94.888,145.195 95.187,145.195 C96.616,145.195 100.711,144.95 106.746,142.508 C106.821,144.577 106.735,148.395 105.69,149.802 C105.2,150.453 103.249,150.965 101.179,151.498 C97.256,152.51 92.361,153.779 90.74,157.235 C90.698,157.299 90.154,158.119 89.418,160.423 C88.682,162.726 87.755,166.522 86.955,172.547 C85.643,172.025 84.15,171.758 82.636,172.28 C81.367,170.969 80.802,169.668 80.972,168.431 Z M68.816,127.047 C69.765,127.75 70.927,128.198 72.303,128.39 C72.9,128.475 73.465,128.508 74.009,128.508 C76.483,128.508 78.243,127.75 79.064,127.313 C79.629,128.518 80.226,129.659 80.866,130.725 C79.981,131.216 77.891,132.218 75.8,132.101 C70.992,131.813 69.371,128.913 68.816,127.047 Z M67.164,116.938 C67.91,119.913 69.275,122.067 71.248,123.357 C73.871,125.084 76.76,124.711 77.859,124.477 C78.104,125.116 78.36,125.735 78.616,126.332 C77.816,126.769 75.588,127.772 72.442,127.335 C70.502,127.068 69.051,126.204 68.134,124.775 C66.683,122.504 66.822,119.219 67.164,116.938 Z M124.607,131.408 C124.969,131.461 125.342,131.493 125.737,131.493 C126.047,131.493 126.367,131.472 126.697,131.44 C125.45,132.698 124.052,133.925 122.528,134.969 C120.981,136.036 119.414,137.23 118.102,138.563 L118.433,136.1 C120.406,134.745 122.464,133.199 124.607,131.408 Z M143.417,99.492 C144.238,98.511 144.964,97.552 145.549,96.773 L145.859,96.358 C147.107,94.705 149.143,92.977 150.797,93.521 C152.033,93.916 154.081,96.006 154.497,105.261 C153.441,103.854 152.097,102.638 150.455,101.796 C147.149,100.1 144.75,99.62 143.417,99.492 Z M142.724,62.48 C142.82,62.48 142.905,62.48 142.98,62.48 C145.976,75.479 140.229,79.893 136.507,81.365 C136.198,81.493 135.814,81.61 135.377,81.716 C135.355,81.716 135.345,81.716 135.324,81.727 C132.05,82.485 125.748,82.591 123.476,79.946 C122.144,78.39 122.4,76.012 124.234,72.877 C129.97,63.131 140.101,62.48 142.724,62.48 Z M77.124,97.061 C77.805,93.372 78.722,90.098 79.799,87.155 C84.065,89.735 87.648,90.3 89.898,90.3 C91.433,90.3 92.35,90.045 92.446,90.024 C92.585,89.981 92.713,89.874 92.777,89.735 L96.701,81.482 C96.776,81.322 96.776,81.152 96.69,81.002 C96.616,80.853 96.466,80.746 96.306,80.725 L83.714,78.827 C89.535,69.006 96.787,65.284 98.844,64.389 C98.78,65.743 98.823,67.033 98.951,68.217 C99.612,74.21 102.15,78.656 102.256,78.848 C102.267,78.848 102.267,78.848 102.278,78.859 C102.321,78.934 102.374,78.987 102.449,79.029 C102.46,79.04 102.47,79.04 102.48,79.04 C102.523,79.072 102.577,79.093 102.64,79.104 C102.662,79.104 102.683,79.104 102.705,79.104 L102.705,79.115 C102.715,79.115 102.715,79.115 102.715,79.115 C102.726,79.115 102.726,79.115 102.726,79.115 C102.8,79.115 102.875,79.083 102.95,79.051 C102.971,79.04 102.982,79.029 103.004,79.019 C103.056,78.987 103.11,78.944 103.152,78.88 L103.163,78.87 C111.406,66.073 122.57,68.345 125.513,69.23 C124.735,70.158 124,71.181 123.317,72.333 C121.226,75.905 121.003,78.699 122.667,80.64 C124.362,82.612 127.72,83.231 130.813,83.231 C132.007,83.231 133.148,83.135 134.162,82.996 C131.954,85.748 127.156,92.999 130.813,100.473 C132.06,103.011 133.618,104.387 135.452,104.557 C136.027,104.611 136.603,104.547 137.169,104.387 C139.088,103.843 140.932,102.244 142.51,100.516 C143.214,100.506 145.827,100.623 149.964,102.745 C151.244,103.406 152.332,104.312 153.216,105.357 C153.75,105.976 154.209,106.648 154.592,107.351 C154.603,107.383 154.625,107.404 154.645,107.437 C155.958,109.879 156.362,112.64 155.765,114.72 C155.392,116.042 154.881,116.852 154.294,117.087 C153.75,117.3 153.142,117.002 152.62,116.693 L152.225,116.447 C150.476,115.381 148.365,114.08 144.58,114.528 C144.131,114.581 143.663,114.655 143.161,114.762 C141.732,115.061 140.527,115.21 139.493,115.253 C135.153,115.434 134.023,113.76 133.991,113.717 C133.841,113.462 133.521,113.376 133.276,113.515 C133.02,113.664 132.924,113.995 133.074,114.251 C133.106,114.315 133.607,115.146 135.142,115.743 C134.513,117.385 131.154,125.362 125.876,124.658 C124.458,124.466 123.391,123.858 122.687,122.845 C120.992,120.382 121.941,116.298 121.952,116.255 C122.016,115.978 121.867,115.701 121.589,115.626 C121.323,115.541 121.035,115.679 120.939,115.946 C120.8,116.33 117.506,125.383 120.907,129.51 C121.525,130.256 122.325,130.789 123.285,131.12 C107.578,143.937 96.306,144.14 94.878,144.129 C88.949,139.736 71.61,126.652 77.124,97.061 Z M73.348,105.421 C72.474,105.07 71.589,104.92 70.799,104.781 C68.422,104.376 66.854,104.099 67.142,98.991 C67.313,95.974 68.347,93.617 70.214,91.975 C72.837,89.682 76.441,89.394 77.913,89.373 C77.198,91.666 76.58,94.161 76.067,96.859 C75.427,100.335 75.097,103.566 75.022,106.605 C74.628,106.136 74.094,105.709 73.348,105.421 Z M102.896,50.793 L103.824,51.923 C100.635,55.624 99.313,59.59 98.94,63.194 C98.226,63.45 94.878,64.826 90.837,68.387 C91.316,65.146 93.47,56.092 102.896,50.793 Z M108.185,49.3 C119.67,40.513 125.546,40.652 128.03,41.516 C129.693,42.102 130.845,43.35 131.271,45.024 C131.336,45.269 131.389,45.557 131.453,45.856 C131.762,47.391 132.199,49.503 133.905,50.185 C135.345,50.772 137.329,50.174 139.963,48.362 C141.797,47.104 143.364,45.579 144.888,44.107 C145.102,43.894 145.315,43.691 145.539,43.478 C144.974,44.48 144.483,45.536 144.004,46.581 C141.572,51.838 139.046,57.287 127.252,56.669 C109.273,55.73 103.793,71.896 102.523,76.982 C100.561,72.695 95.645,58.876 108.185,49.3 Z M239.6,210.348 C239.429,208.12 238.598,206.105 236.796,204.526 C227.391,196.262 219.18,199.963 213.753,202.415 L213.347,202.596 C209.37,204.377 202.3,204.857 199.804,201.572 C198.152,199.397 197.928,194.695 206.267,184.639 C207.077,183.669 208.058,182.549 209.21,181.27 C215.448,174.242 224.895,163.633 224.234,153.598 C223.978,149.632 222.133,146.102 218.743,143.095 C218.807,142.391 218.871,140.504 218.327,138.328 C222.944,132.272 224.533,126.94 223.072,122.461 C221.6,117.972 217.464,115.573 215.053,114.517 C217.644,113.76 220.865,111.787 223.84,107.042 C224,106.797 223.925,106.466 223.67,106.306 C223.424,106.157 223.093,106.232 222.944,106.477 C219.415,112.075 215.63,113.557 213.081,113.824 C213.07,113.824 213.048,113.824 213.027,113.824 C212.548,113.877 212.11,113.888 211.726,113.867 C208.645,113.707 205.84,111.83 204.423,108.951 C202.684,105.464 203.207,101.252 205.84,97.402 C207.642,94.779 208.186,92.284 207.462,90.002 C206.331,86.43 202.47,84.521 201.276,84.009 C201.468,80.863 201.042,77.131 199.548,72.728 C196.925,64.964 191.519,61.573 186.209,60.219 C187.467,58.204 191.488,50.782 187.435,43.851 C186.091,41.548 184.396,40.258 182.381,40.012 C178.489,39.543 174.927,43.179 174.778,43.329 C174.596,43.521 174.576,43.798 174.724,44.011 C174.874,44.214 175.151,44.299 175.375,44.182 C175.418,44.171 178.916,42.604 181.294,43.937 C182.53,44.63 183.288,46.016 183.533,48.052 C183.756,49.812 183.106,51.305 181.624,52.499 C178.798,54.76 173.679,55.314 171.6,54.578 C169.521,53.842 169.244,51.603 168.892,48.777 C168.465,45.237 167.922,40.834 162.953,38.776 C153.089,34.67 148.738,38.882 144.142,43.339 C142.66,44.79 141.114,46.282 139.365,47.487 C137.072,49.055 135.366,49.631 134.3,49.204 C133.127,48.724 132.775,47.018 132.498,45.632 C132.434,45.323 132.37,45.024 132.306,44.768 C131.784,42.721 130.397,41.217 128.381,40.513 C125.097,39.373 118.817,39.82 107.535,48.447 C106.405,49.311 105.423,50.217 104.549,51.134 L103.44,49.769 C103.28,49.577 102.993,49.513 102.779,49.641 C90.687,56.167 89.695,68.569 89.642,69.486 C89.578,69.539 89.525,69.592 89.461,69.656 C85.835,73.186 81.336,79.093 78.275,88.307 C76.942,88.275 72.676,88.413 69.52,91.164 C67.42,92.999 66.268,95.611 66.076,98.938 C65.746,104.995 68.113,105.4 70.619,105.837 C71.386,105.965 72.186,106.104 72.965,106.413 C74.937,107.192 74.98,109.26 74.98,109.345 C74.98,109.409 74.991,109.473 75.011,109.527 C75.15,114.837 76.089,119.454 77.497,123.464 C76.463,123.655 74.02,123.901 71.824,122.461 C69.595,121 68.219,118.185 67.74,114.112 L67.452,111.585 L66.705,114.016 C66.609,114.304 64.562,121.15 67.238,125.351 C67.313,125.468 67.398,125.586 67.483,125.692 C67.58,126.748 68.432,132.73 75.737,133.167 C75.758,133.167 75.78,133.167 75.8,133.167 C72.965,135.258 68.219,140.013 71.152,146.976 C73.711,153.054 77.475,152.745 80.504,152.51 C82.348,152.362 83.937,152.233 85.164,153.332 C87.072,155.016 88.01,157.213 87.69,159.196 C87.371,161.116 85.91,162.683 83.447,163.728 C82.125,164.283 81.005,164.368 80.131,163.984 C79.075,163.505 78.701,162.46 78.691,162.449 C78.605,162.172 78.297,162.022 78.019,162.118 C77.742,162.203 77.592,162.513 77.688,162.79 C77.699,162.843 78.189,164.272 79.682,164.944 C80.183,165.178 80.738,165.285 81.325,165.285 C81.367,165.285 81.421,165.285 81.464,165.275 C80.749,166.032 80.077,167.045 79.917,168.281 C79.715,169.775 80.291,171.278 81.623,172.75 C81.271,172.963 80.92,173.208 80.567,173.528 C77.113,176.653 73.498,180.598 76.036,183.52 C76.036,183.871 76.067,184.234 76.175,184.596 C76.548,185.855 77.603,186.772 79.299,187.326 C79.309,187.326 79.32,187.326 79.331,187.326 C79.331,187.732 79.373,188.147 79.501,188.563 C80.034,190.429 81.837,191.826 84.811,192.733 C83.841,200.57 82.53,210.231 81.9,211.799 C81.186,213.548 79.608,214.187 78.872,214.39 L76.803,209.549 C76.771,209.474 76.739,209.421 76.686,209.367 C75.939,208.653 58.43,191.88 50.817,193.052 C46.146,193.767 39.45,202.404 38.959,207.128 C38.767,209.005 39.94,212.534 40.985,213.9 C41.583,214.678 42.35,215.488 43.161,216.341 C45.837,219.178 49.164,222.696 49.09,228.007 C49.079,228.871 49.025,229.98 48.972,231.249 C48.609,240.003 48.503,248.737 51.382,250.954 C51.841,251.317 52.363,251.498 52.928,251.498 C53.226,251.498 53.547,251.445 53.867,251.349 C56.841,250.432 58.654,244.802 60.574,238.841 C62.642,232.4 64.775,225.746 68.049,226.504 C69.169,226.77 70.257,226.546 71.269,226.013 C70.927,227.09 70.832,228.402 71.802,229.425 C72.442,230.097 73.348,230.46 74.436,230.46 C74.5,230.46 74.575,230.46 74.638,230.46 C74.766,230.449 74.894,230.427 75.022,230.417 C75.406,230.683 76.344,231.27 77.517,231.27 C77.667,231.27 77.816,231.259 77.966,231.238 C78.552,231.163 79.096,230.94 79.608,230.577 C79.747,230.588 79.938,230.598 80.183,230.598 C81.026,230.598 82.37,230.481 83.467,229.873 L84.673,230.63 C85.132,230.918 85.633,231.089 86.144,231.153 C87.551,231.344 89.012,230.716 89.812,229.425 C90.9,227.676 90.367,225.373 88.608,224.285 L84.193,221.545 C85.344,220.308 86.432,218.773 87.168,217.312 C88.469,214.774 89.632,204.452 90.345,196.902 C91.338,214.763 94.366,244.343 103.472,275.853 C103.536,276.067 103.717,276.227 103.941,276.237 C103.952,276.237 103.973,276.248 103.984,276.248 C104.187,276.248 104.379,276.131 104.464,275.939 L106.34,272.004 L108.889,275.309 C109.039,275.502 109.295,275.576 109.518,275.48 C109.742,275.384 109.87,275.15 109.839,274.915 C109.806,274.627 106.052,246.966 107.375,232.368 C108.174,233.221 109.156,234.032 110.361,234.661 C110.446,234.704 110.521,234.725 110.606,234.725 C110.723,234.725 110.84,234.682 110.936,234.618 C111.011,234.554 111.747,233.979 112.472,232.741 C113.166,239.769 115.841,263.303 121.717,276.483 C121.802,276.675 121.995,276.792 122.197,276.792 C122.218,276.792 122.24,276.792 122.251,276.792 C122.485,276.77 122.667,276.6 122.719,276.376 L123.562,272.729 L126.345,276.045 C126.506,276.227 126.751,276.291 126.964,276.195 C127.176,276.109 127.315,275.885 127.284,275.651 C127.252,275.331 125.332,256.414 124.298,235.119 C126.057,238.937 129.96,246.028 137.072,253.034 C145.635,261.479 160.564,271.354 184.492,273.358 C185.794,273.508 186.977,273.614 188.033,273.678 L186.017,276.397 C185.879,276.578 185.868,276.813 185.985,276.994 C186.081,277.154 186.262,277.25 186.444,277.25 C186.465,277.25 186.497,277.25 186.529,277.239 L204.785,274.126 C205.019,274.083 205.201,273.902 205.221,273.667 C205.254,273.433 205.136,273.209 204.923,273.113 L186.583,264.742 C186.38,264.657 186.156,264.699 185.996,264.849 C185.836,264.987 185.783,265.222 185.868,265.425 L188.587,272.537 C187.222,272.484 185.879,272.399 184.567,272.292 C180.003,271.737 174.032,270.511 167.484,267.877 C154.304,262.556 136.027,250.261 123.786,221.854 C123.636,215.851 123.584,209.922 123.712,204.42 C125.375,209.154 129.896,216.352 141.914,215.68 C144.398,215.542 146.776,214.881 149.069,214.23 C154.656,212.652 159.945,211.159 166.439,217.279 C170.62,221.225 172.048,225.896 170.246,229.766 C168.945,232.582 166.14,234.341 163.422,234.032 C163.133,234 162.867,234.213 162.835,234.501 C162.803,234.8 163.016,235.055 163.304,235.088 C163.549,235.119 163.795,235.13 164.04,235.13 C166.962,235.13 169.84,233.2 171.216,230.215 C171.462,229.681 171.665,229.127 171.803,228.572 C172.496,230.215 173.755,232.336 175.962,233.84 C178.563,235.632 181.858,236.143 185.751,235.375 C191.797,234.181 194.378,230.982 196.873,227.89 C199.474,224.67 201.926,221.63 208.368,221.47 C216.813,221.246 220.555,224.67 222.198,227.57 C224.533,231.696 223.68,236.58 221.899,239.374 C220.555,241.507 218.626,242.637 216.599,242.488 C216.312,242.456 216.055,242.68 216.035,242.978 C216.013,243.266 216.226,243.522 216.525,243.554 C216.674,243.565 216.824,243.565 216.972,243.565 C219.222,243.565 221.334,242.264 222.805,239.95 C223.339,239.108 223.744,238.169 224.053,237.199 L224.064,237.199 C224.725,236.804 240.209,227.399 241.765,217.759 C242.203,215.029 241.477,212.534 239.6,210.348 Z" id="Fill-53" fill="#3D1717"></path>
        <path d="M117.111,97.157 C118.592,97.157 119.595,97.072 119.734,97.061 C119.925,97.05 120.096,96.922 120.181,96.741 L123.541,88.669 C123.604,88.53 123.594,88.371 123.53,88.221 C123.456,88.083 123.328,87.986 123.178,87.944 L107.343,83.999 C107.097,83.935 106.841,84.052 106.735,84.287 L102.843,92.593 C102.747,92.807 102.79,93.041 102.95,93.201 C106.49,96.645 113.346,97.157 117.111,97.157" id="Fill-54" fill="#3D1717"></path>
        <path d="M88.49,160.327 L89.418,160.423 C88.682,162.726 87.755,166.522 86.955,172.547 C85.643,172.025 84.15,171.758 82.636,172.28 C81.367,170.969 80.802,169.668 80.972,168.431 C81.271,166.16 83.883,164.699 83.916,164.688 C85.675,163.942 86.805,163.003 87.542,162.065 C88,161.479 88.299,160.882 88.49,160.327" id="Fill-55" fill="#F9D049"></path>
        <path d="M93.778,66.061 C96.422,64.195 98.409,63.384 98.94,63.194 C99.313,59.59 100.635,55.624 103.824,51.923 L102.896,50.793 C102.896,50.793 94.509,57.403 93.778,66.061" id="Fill-56" fill="#B63F43"></path>
        <path d="M79.064,127.313 C79.63,128.518 80.226,129.659 80.866,130.725 C79.981,131.216 77.891,132.218 75.8,132.101 C70.992,131.813 69.371,128.913 68.816,127.047 C69.765,127.75 70.927,128.198 72.303,128.39 C72.9,128.475 73.465,128.508 74.009,128.508 C76.483,128.508 78.243,127.75 79.064,127.313" id="Fill-57" fill="#F9D049"></path>
        <path d="M77.859,124.477 C78.104,125.116 78.36,125.735 78.616,126.332 C77.816,126.769 75.588,127.772 72.442,127.335 C70.502,127.068 69.051,126.204 68.134,124.775 C66.684,122.504 66.822,119.22 67.164,116.938 C67.91,119.913 69.275,122.067 71.248,123.357 C73.871,125.085 76.76,124.711 77.859,124.477" id="Fill-58" fill="#F9D049"></path>
        <path d="M77.913,89.373 C77.198,91.666 76.58,94.161 76.067,96.859 C75.427,100.335 75.097,103.566 75.022,106.605 C74.628,106.136 74.094,105.709 73.348,105.421 C72.474,105.07 71.589,104.92 70.799,104.781 C68.422,104.376 66.854,104.099 67.142,98.991 C67.313,95.974 68.347,93.617 70.214,91.975 C72.837,89.682 76.441,89.394 77.913,89.373" id="Fill-59" fill="#F9D049"></path>
        <path d="M75.161,212.737 C75.247,212.929 75.204,213.153 75.054,213.313 C74.959,213.42 74.809,213.473 74.671,213.473 C74.543,213.473 74.404,213.43 74.308,213.334 C74.148,213.185 58.825,198.736 52.747,199.802 C50.262,200.24 46.2,207.32 44.835,210.008 C44.707,210.274 44.386,210.381 44.12,210.242 C43.853,210.114 43.747,209.794 43.885,209.528 C44.408,208.493 49.111,199.355 52.565,198.747 C59.124,197.606 74.393,211.948 75.033,212.556 C75.097,212.609 75.14,212.673 75.161,212.737" id="Fill-60" fill="#3D1717"></path>
        <path d="M53.013,197.147 C53.109,197.425 52.981,197.734 52.704,197.841 C52.64,197.862 52.576,197.872 52.512,197.872 C52.299,197.872 52.096,197.744 52.011,197.531 L51.212,195.452 C51.115,195.175 51.243,194.865 51.52,194.758 C51.585,194.737 51.648,194.727 51.713,194.727 C51.925,194.727 52.129,194.855 52.214,195.068 L53.013,197.147" id="Fill-61" fill="#3D1717"></path>
        <path d="M114.488,169.87 C113.89,169.785 113.261,170.777 113.09,172.067 C112.909,173.368 113.261,174.477 113.858,174.562 C114.466,174.637 115.095,173.656 115.266,172.355 C115.436,171.065 115.095,169.945 114.488,169.87" id="Fill-62" fill="#3D1717"></path>
        <path d="M98.237,169.209 C97.746,169.145 97.234,169.945 97.095,171.001 C96.946,172.067 97.234,172.973 97.724,173.048 C98.215,173.112 98.738,172.302 98.877,171.246 C99.015,170.18 98.727,169.274 98.237,169.209" id="Fill-63" fill="#3D1717"></path>
        <path d="M132.769,79.487 C127.251,79.487 122.438,77.53 122.11,77.394 C121.838,77.281 121.71,76.969 121.822,76.697 C121.935,76.424 122.25,76.297 122.518,76.409 C122.645,76.462 135.324,81.608 142.799,75.068 C143.019,74.874 143.358,74.896 143.551,75.118 C143.746,75.339 143.723,75.676 143.502,75.87 C140.337,78.64 136.399,79.487 132.769,79.487" id="Fill-64" fill="#3D1717"></path>
        <path d="M135.739,73.638 C129.886,73.638 125.735,71.218 125.492,71.072 C125.238,70.922 125.156,70.594 125.306,70.341 C125.456,70.089 125.784,70.006 126.037,70.156 C126.119,70.203 134.248,74.929 143.607,70.957 C143.876,70.843 144.19,70.968 144.305,71.239 C144.421,71.51 144.294,71.824 144.023,71.939 C141.065,73.194 138.246,73.638 135.739,73.638" id="Fill-65" fill="#3D1717"></path>
        <path d="M140.256,67.99 C134.537,67.99 131.625,65.907 131.482,65.802 C131.245,65.628 131.195,65.295 131.368,65.058 C131.542,64.82 131.875,64.769 132.112,64.942 C132.151,64.969 136.054,67.728 143.662,66.683 C143.944,66.639 144.223,66.844 144.262,67.138 C144.303,67.429 144.099,67.698 143.807,67.738 C142.524,67.916 141.339,67.99 140.256,67.99" id="Fill-66" fill="#3D1717"></path>
        <path d="M92.314,65.257 C91.947,65.257 91.64,65.205 91.397,65.101 C90.991,64.927 90.866,64.661 90.832,64.555 C90.739,64.276 90.891,63.974 91.171,63.882 C91.409,63.801 91.665,63.903 91.792,64.109 C91.943,64.188 93.221,64.658 98.804,61.999 C99.068,61.872 99.387,61.984 99.514,62.251 C99.641,62.517 99.528,62.835 99.262,62.962 C96.057,64.488 93.728,65.257 92.314,65.257" id="Fill-67" fill="#3D1717"></path>
        <path d="M96.667,60.839 C94.232,60.839 93.331,59.417 93.281,59.334 C93.129,59.082 93.209,58.755 93.46,58.602 C93.709,58.451 94.035,58.527 94.19,58.776 C94.252,58.87 95.543,60.751 99.715,59.094 C99.988,58.987 100.298,59.12 100.408,59.393 C100.516,59.667 100.382,59.977 100.109,60.086 C98.719,60.637 97.585,60.839 96.667,60.839" id="Fill-68" fill="#3D1717"></path>
        <path d="M100.224,57.045 C97.132,57.045 96.467,55.268 96.438,55.187 C96.34,54.91 96.486,54.605 96.763,54.507 C97.038,54.409 97.338,54.551 97.441,54.823 C97.471,54.898 98.042,56.149 100.783,55.957 C101.067,55.934 101.332,56.156 101.353,56.45 C101.374,56.745 101.153,57 100.86,57.021 C100.636,57.037 100.425,57.045 100.224,57.045" id="Fill-69" fill="#3D1717"></path>
        <path d="M102.689,53.298 C100.284,53.298 99.825,52.521 99.74,52.171 C99.672,51.884 99.847,51.597 100.133,51.527 C100.395,51.465 100.653,51.605 100.752,51.843 C100.809,51.906 101.245,52.293 103.122,52.224 C103.129,52.223 103.136,52.223 103.142,52.223 C103.427,52.223 103.664,52.448 103.675,52.736 C103.686,53.03 103.457,53.278 103.163,53.289 C102.997,53.295 102.839,53.298 102.689,53.298" id="Fill-70" fill="#3D1717"></path>
        <path d="M144.888,44.107 C143.364,45.579 141.797,47.104 139.963,48.362 C139.173,48.905 138.449,49.325 137.774,49.651 L137.766,49.664 C137.766,49.664 136.753,51.253 119.869,53.475 C102.985,55.697 101.613,69.381 101.613,69.381 C103.351,65.826 107.761,64.005 107.761,64.005 C103.719,67.311 102.889,72.571 102.809,75.916 C104.519,69.959 110.386,55.788 127.252,56.669 C139.046,57.287 141.572,51.838 144.004,46.581 C144.483,45.536 144.974,44.48 145.539,43.478 C145.315,43.691 145.102,43.894 144.888,44.107" id="Fill-71" fill="#B0B838"></path>
        <path d="M165.188,112.923 C165.188,112.923 174.874,113.545 188.558,100.215 C188.558,100.215 183.405,118.521 165.188,112.923" id="Fill-72" fill="#B0B838"></path>
        <path d="M171.763,118.343 C171.763,118.343 178.873,118.166 187.048,110.879 C187.048,110.879 183.583,121.276 171.763,118.343" id="Fill-73" fill="#B0B838"></path>
        <path d="M214.52,132.091 C216.291,133.551 217.336,135.342 217.943,137.059 C219.225,135.312 220.238,133.636 220.983,132.033 C204.638,119.128 190.058,131.738 190.058,131.738 C201.521,128.017 209.754,128.134 214.52,132.091" id="Fill-74" fill="#B0B838"></path>
        <path d="M143.15,148.912 C143.15,148.912 142.618,164.284 158.879,170.949 C158.879,170.949 142.085,181.79 143.15,148.912" id="Fill-75" fill="#B0B838"></path>
        <path d="M153.103,162.063 C153.103,162.063 157.191,172.104 170.076,174.059 C170.076,174.059 153.814,182.146 153.103,162.063" id="Fill-76" fill="#B0B838"></path>
        <path d="M164.676,169.439 C164.676,169.439 168.298,173.615 174.252,174.237 C174.252,174.237 166.385,178.147 164.676,169.439" id="Fill-77" fill="#B0B838"></path>
        <path d="M201.976,154.066 C201.976,154.066 213.44,161.797 201.176,174.148 C201.176,174.148 207.664,164.284 201.976,154.066" id="Fill-78" fill="#B0B838"></path>
        <path d="M197.178,171.66 C197.178,171.66 196.645,177.347 191.757,180.279 C191.757,180.279 199.667,179.924 197.178,171.66" id="Fill-79" fill="#B0B838"></path>
        <path d="M200.377,168.866 C200.377,168.866 201.532,175.037 195.579,177.525 C195.579,177.525 205.886,177.357 200.377,168.866" id="Fill-80" fill="#B0B838"></path>
        <path d="M95.166,135.982 C95.166,135.982 96.809,132.336 100.23,135.982 C100.23,135.982 96.676,135.227 95.166,135.982" id="Fill-81" fill="#B63F43"></path>
        <path d="M120.907,129.51 C119.776,128.138 119.393,126.22 119.381,124.259 C119.365,123.743 119.374,123.203 119.443,122.608 C119.443,122.608 114.523,129.62 119.08,134.336 C120.442,133.363 121.844,132.296 123.285,131.12 C122.325,130.789 121.525,130.256 120.907,129.51" id="Fill-82" fill="#B63F43"></path>
        <path d="M95.187,145.195 C94.888,145.195 94.707,145.185 94.654,145.185 C94.557,145.174 94.462,145.142 94.377,145.078 C92.164,143.446 88.266,140.544 84.541,135.982 L84.535,135.982 C84.535,135.982 74.816,141.003 82.192,146.69 C82.192,146.69 80.349,143.713 81.981,141.336 C81.981,141.336 81.999,147.579 89.026,148.023 C94.112,148.344 96.035,151.227 96.714,152.8 C98.195,152.271 99.751,151.866 101.179,151.498 C103.249,150.965 105.2,150.453 105.69,149.802 C106.735,148.395 106.821,144.577 106.746,142.508 C100.711,144.95 96.616,145.195 95.187,145.195" id="Fill-83" fill="#B0B838"></path>
        <path d="M51.446,224.621 C51.446,224.621 52.69,230.664 52.157,233.419 C52.157,233.419 54.645,229.686 51.446,224.621" id="Fill-84" fill="#B0B838"></path>
        <path d="M56.778,227.901 C56.778,227.901 57.046,228.645 57.174,229.809 C57.322,230.969 57.314,232.537 57.089,234.08 C57.035,234.466 56.947,234.846 56.877,235.223 C56.813,235.602 56.687,235.961 56.6,236.315 C56.514,236.67 56.379,236.999 56.272,237.316 C56.171,237.633 56.04,237.924 55.921,238.19 C55.696,238.729 55.454,239.154 55.281,239.448 C55.108,239.743 55.001,239.905 55.001,239.905 C55.001,239.905 55.03,239.713 55.082,239.375 C55.143,239.045 55.23,238.574 55.336,238.008 C55.548,236.887 55.822,235.409 56.034,233.924 C56.158,233.183 56.245,232.437 56.338,231.737 C56.421,231.032 56.499,230.375 56.565,229.811 C56.692,228.665 56.778,227.901 56.778,227.901" id="Fill-85" fill="#B0B838"></path>
    </g>
</svg>