<?xml version="1.0" encoding="UTF-8"?>
<svg width="298px" height="298px" viewBox="0 0 298 298" version="1.1" xmlns="http://www.w3.org/2000/svg" xmlns:xlink="http://www.w3.org/1999/xlink">
    <!-- Generator: Sketch 50.2 (55047) - http://www.bohemiancoding.com/sketch -->
    <title>frankenstein</title>
    <desc>Created with Sketch.</desc>
    <defs>
        <path d="M12.229,10.801 C13.356,17.035 11.756,22.543 8.656,23.103 C5.556,23.664 2.129,19.064 1.002,12.831 C-0.125,6.597 1.475,1.09 4.575,0.529 C7.676,-0.031 11.102,4.568 12.229,10.801" id="path-1"></path>
        <path d="M12.281,10.376 C13.408,16.609 11.809,22.117 8.708,22.677 C5.607,23.238 2.181,18.639 1.054,12.405 C-0.072,6.171 1.527,0.664 4.627,0.104 C7.727,-0.457 11.154,4.142 12.281,10.376" id="path-3"></path>
    </defs>
    <g id="frankenstein" stroke="none" stroke-width="1" fill="none" fill-rule="evenodd">
        <path d="M186.679,269.142 C186.679,271.441 166.595,273.305 141.819,273.305 C117.044,273.305 96.959,271.441 96.959,269.142 C96.959,266.844 117.044,264.98 141.819,264.98 C166.595,264.98 186.679,266.844 186.679,269.142" id="Fill-4" fill="#CA6B79"></path>
        <path d="M182.813,213.832 C178.536,222.479 178.974,228.969 181.72,233.828 L181.712,233.818 C181.712,233.818 180.548,235.607 176.583,234.96 C172.618,234.312 174.884,226.544 170.029,226.544 C169.526,226.544 169.045,226.607 168.59,226.722 C168.585,221.837 168.391,216.854 167.897,212.084 L167.856,212.099 C183.418,204.316 192.956,186.182 196.435,164.968 L196.436,164.971 C196.436,164.971 197.379,184.386 182.813,213.832 Z M130.016,240.826 C124.77,240.776 123.399,239.435 123.533,237.404 C126.329,234.232 126.955,230.795 126.463,227.502 C126.483,227.003 125.444,223.206 124.404,221.424 C122.433,217.545 119.703,214.38 118.651,212.881 C113.598,205.742 107.23,196.711 103.192,186.329 C97.551,171.825 96.179,155.161 102.943,131.915 C102.711,133.29 91.501,201.096 136.056,214.122 L134.81,213.832 C134.627,224.75 135.481,234.547 136.697,241.713 C136.697,241.713 136.697,241.713 136.698,241.713 C135.036,241.188 132.858,240.853 130.016,240.826 Z M221.168,177.833 C212.672,127.584 188.883,99.871 188.883,99.871 C188.883,99.871 179.815,93.542 166.069,89.53 L166.068,89.531 C166.601,73.093 165.98,51.842 164.37,39.564 C162.428,24.757 135.594,28.806 126.334,30.646 C117.435,32.414 91.783,36.795 96.395,52.089 C99.475,62.298 114.18,93.593 114.18,93.593 L106.379,98.047 L98.58,104.443 C98.58,104.443 79.977,137.701 73.9,178.884 C70.826,199.724 81.38,236.865 88.83,242.625 C88.76,242.741 88.707,242.849 88.627,242.97 C85.35,247.947 75.195,249.605 76.651,254.946 C78.108,260.286 83.041,269.227 90.507,265.829 C97.973,262.43 88.779,259.546 87.605,254.934 C86.319,249.877 91.997,248.097 96.507,246.107 C98.657,246.533 101.086,246.629 103.807,246.314 C103.522,249.304 103.131,258.254 108.047,262.066 C113.994,266.678 117.271,267.892 120.913,264.494 C124.554,261.095 123.664,258.992 114.925,256.402 C112.059,255.553 111.284,249.201 110.321,244.875 C111.122,244.426 117.029,241.979 119.531,240.763 C121.256,243.752 123.665,247.682 128.438,249.565 C133.368,251.509 136.663,251.702 138.723,251.173 C138.722,251.173 138.721,251.173 138.721,251.174 C140.58,258.242 142.396,261.824 142.396,261.824 C142.396,261.824 131.108,262.43 130.501,267.164 C129.894,271.898 149.435,268.742 150.528,267.164 C151.62,265.587 138.2,244.499 141.477,215.385 L141.363,215.359 C142.061,215.484 142.767,215.601 143.488,215.702 C150.175,216.625 156.24,216.146 161.697,214.529 L161.574,214.577 C164.851,243.69 158.588,265.587 159.681,267.164 C160.773,268.742 180.314,271.898 179.707,267.164 C179.1,262.43 166.064,261.095 166.064,261.095 C166.064,261.095 167.57,251.294 168.257,238.642 C168.387,238.79 168.515,238.937 168.653,239.087 C175.127,246.045 185.425,238.421 185.425,238.421 L185.423,238.419 C187.886,240.684 190.877,242.424 193.876,243.752 C193.875,243.753 188.559,252.539 182.571,248.472 C175.184,243.456 172.942,248.068 172.942,248.068 C172.942,248.068 168.491,258.101 182.49,257.049 C196.485,255.998 199.626,245.864 199.627,245.86 C203.311,246.966 206.402,247.479 207.677,247.662 C207.975,247.705 208.137,248.045 207.984,248.305 C202.611,257.474 193.88,258.006 188.883,261.338 C183.785,264.737 195.194,274.932 207.089,262.551 C218.983,250.171 229.664,228.082 221.168,177.833 Z" id="Fill-5" fill="#D1DE6C"></path>
        <path d="M150.528,267.164 C150.742,266.855 150.394,265.787 149.728,264.066 C142.012,269.22 130.643,266.58 130.643,266.58 C130.58,266.768 130.527,266.961 130.501,267.164 C129.894,271.898 149.435,268.742 150.528,267.164" id="Fill-6" fill="#B3BA4B"></path>
        <path d="M159.751,264.066 C159.535,265.791 159.47,266.86 159.681,267.164 C160.773,268.742 180.314,271.898 179.707,267.164 C179.675,266.909 179.6,266.665 179.498,266.429 C165.067,269.459 159.751,264.067 159.751,264.066" id="Fill-7" fill="#B3BA4B"></path>
        <path d="M203.205,259.153 C214.58,251.721 209.066,248.345 207.884,247.757 C208.037,247.885 208.096,248.115 207.984,248.305 C202.611,257.474 193.88,258.006 188.883,261.338 C188.324,261.71 187.975,262.166 187.792,262.662 C189.539,263.825 194.01,265.161 203.205,259.153" id="Fill-8" fill="#B3BA4B"></path>
        <path d="M166.622,236.489 C166.622,236.489 160.963,240.235 167.762,245.871 L168.653,239.087 L166.622,236.489" id="Fill-9" fill="#B3BA4B"></path>
        <path d="M196.448,126.848 L197.936,141.542 L196.538,160.941 L196.218,166.227 C196.291,165.808 196.367,165.39 196.435,164.968 L196.436,164.971 C196.436,164.971 196.819,173.007 193.226,186.564 L193.225,186.572 L193.224,186.574 C191.228,194.101 188.012,203.323 182.813,213.832 C178.536,222.479 178.974,228.969 181.72,233.828 L181.712,233.818 C181.712,233.818 181.706,233.826 181.702,233.833 C182.691,235.18 183.853,236.67 184.985,237.899 C186.843,231.502 189.774,224.277 194.223,216.154 C217.769,173.155 196.448,126.848 196.448,126.848" id="Fill-10" fill="#B3BA4B"></path>
        <polyline id="Fill-11" fill="#B3BA4B" points="170.355 96.193 165.908 93.596 165.908 97.968 166.256 98.98 170.355 96.193"></polyline>
        <path d="M167.897,212.084 L167.856,212.099 C176.004,208.024 182.497,201.108 187.337,192.402 C181.921,198.181 171.937,203.261 153.527,202.825 C105.783,201.693 110.96,130.497 110.96,130.497 C115.815,125.641 113.597,118.869 113.597,118.869 C112.349,123.748 107.558,125.433 107.558,125.433 L104.763,126.085 L102.397,135.952 C100.681,150.934 97.638,202.89 136.056,214.122 L134.81,213.832 C134.761,216.795 134.789,219.67 134.879,222.438 C136.957,223.29 138.991,223.958 140.97,224.461 C140.975,221.536 141.126,218.51 141.477,215.385 L141.363,215.359 C142.061,215.484 142.767,215.601 143.488,215.702 C150.175,216.625 156.24,216.146 161.697,214.529 L161.574,214.577 C161.956,217.966 162.204,221.253 162.353,224.426 C164.796,223.797 166.884,223.042 168.525,222.34 C168.436,218.888 168.243,215.433 167.897,212.084" id="Fill-12" fill="#B3BA4B"></path>
        <path d="M193.737,176.867 C193.737,176.866 193.737,176.862 193.737,176.862 L193.735,176.875 C193.736,176.872 193.737,176.87 193.737,176.867" id="Fill-13" fill="#B3BA4B"></path>
        <path d="M141.746,247.729 C127.462,249.737 120.356,240.315 120.356,240.315 L119.69,241.037 C121.404,243.988 123.808,247.739 128.438,249.565 C133.368,251.509 136.663,251.702 138.723,251.173 C138.722,251.173 138.721,251.173 138.721,251.174 C141.183,250.536 142.575,247.613 141.746,247.729" id="Fill-14" fill="#B3BA4B"></path>
        <path d="M126.334,30.646 C117.435,32.414 91.783,36.795 96.395,52.089 C99.475,62.298 114.18,93.593 114.18,93.593 L106.379,98.047 L98.58,104.443 C98.58,104.443 79.977,137.701 73.9,178.884 C70.826,199.724 81.38,236.865 88.83,242.625 C88.76,242.741 88.707,242.849 88.627,242.97 C85.35,247.947 75.195,249.605 76.651,254.946 C78.108,260.286 83.041,269.227 90.507,265.829 C97.973,262.43 88.779,259.546 87.605,254.934 C86.319,249.877 91.997,248.097 96.507,246.107 C98.657,246.533 101.086,246.629 103.807,246.314 C103.522,249.304 103.131,258.254 108.047,262.066 C113.994,266.678 117.271,267.892 120.913,264.494 C124.554,261.095 123.664,258.992 114.925,256.402 C112.059,255.553 111.284,249.201 110.321,244.875 C110.709,244.658 112.299,243.97 114.116,243.181 C91.535,244.65 86.928,206.234 83.596,177.104 C80.265,147.974 94.938,118.844 99.915,115.979 C104.892,113.113 105.557,123.754 105.557,123.754 C112.534,121.463 113.891,109.863 113.891,109.863 L132.249,104.443 C132.249,104.443 118,78.791 112.659,55.213 C107.328,31.677 156.323,30.55 156.5,30.546 C147.317,27.082 132.688,29.383 126.334,30.646" id="Fill-15" fill="#B3BA4B"></path>
        <path d="M156.143,60.376 C157.27,66.609 155.671,72.117 152.57,72.677 C149.47,73.238 146.043,68.639 144.916,62.405 C143.789,56.171 145.39,50.664 148.489,50.104 C151.59,49.543 155.017,54.142 156.143,60.376" id="Fill-16" fill="#B3BA4B"></path>
        <path d="M135.092,64.801 C136.219,71.035 134.618,76.543 131.518,77.103 C128.418,77.664 124.991,73.064 123.864,66.831 C122.737,60.597 124.337,55.09 127.437,54.529 C130.538,53.969 133.965,58.568 135.092,64.801" id="Fill-17" fill="#B3BA4B"></path>
        <path d="M200.385,200.035 C200.385,200.035 205.794,195.229 209.03,176.942 C212.267,158.655 203.341,125.747 202.739,123.959 C202.139,122.171 198.512,113.828 198.512,113.828 L188.964,100.558 C188.964,100.558 197.362,116.571 197.497,135.652 C197.631,154.733 195.922,166.586 195.922,166.586 C195.922,166.586 197.013,185.334 185.425,208.297 L184.064,211.249 L184.544,211.828 C184.544,211.828 196.957,206.903 200.385,200.035" id="Fill-18" fill="#9D8974"></path>
        <path d="M102.949,131.88 C102.949,131.88 89.776,208.288 143.488,215.702 C151.053,216.746 157.831,216.011 163.822,213.843 C163.822,213.843 154.226,206.378 152.256,197.75 C150.285,189.121 150.074,180.14 156.218,170.369 C156.218,170.369 153.641,163.597 150.83,161.07 C148.019,158.542 137.749,151.639 135.673,151.203 C133.597,150.766 126.487,142.033 126.487,142.033 C126.487,142.033 119.141,129.386 113.837,128.879 C108.532,128.373 110.388,126.766 104.302,128.237 L102.949,131.88" id="Fill-19" fill="#E8AA6B"></path>
        <path d="M197.497,135.652 C197.5,136.196 197.502,136.733 197.503,137.265 L197.936,141.542 L197.079,153.424 C196.913,156.4 196.719,158.925 196.538,160.94 L196.538,160.941 L196.218,166.227 C196.291,165.808 196.367,165.39 196.435,164.968 L196.436,164.971 C196.436,164.971 196.655,169.727 195.131,178.071 C194.016,185.682 191.418,196.421 185.425,208.297 L184.987,209.248 C184.799,209.658 184.611,210.069 184.417,210.484 L184.064,211.249 L184.544,211.828 C184.544,211.828 196.957,206.903 200.385,200.035 C200.385,200.035 200.784,199.677 201.428,198.797 C211.141,165.928 199.825,135.021 197.04,128.232 C197.311,130.631 197.478,133.113 197.497,135.652" id="Fill-20" fill="#7C6653"></path>
        <path d="M163.817,213.832 C163.817,213.832 139.361,196.767 157.568,168.123 C175.774,139.478 197.932,145.545 197.932,145.545 C197.932,145.545 198.302,169.037 190.679,185.511 C183.057,201.986 174.68,209.413 163.817,213.832" id="Fill-21" fill="#9D8974"></path>
        <path d="M185.425,238.421 C185.425,238.421 175.127,246.045 168.653,239.087 C162.18,232.128 165.174,226.545 170.029,226.545 C174.884,226.545 172.618,234.312 176.583,234.96 C180.548,235.607 181.712,233.819 181.712,233.819" id="Fill-22" fill="#9D8974"></path>
        <path d="M199.627,245.86 C199.627,245.86 196.488,255.998 182.49,257.049 C168.491,258.101 172.942,248.068 172.942,248.068 C172.942,248.068 175.184,243.456 182.571,248.472 C188.56,252.54 193.876,243.752 193.876,243.752" id="Fill-23" fill="#9D8974"></path>
        <path d="M146.127,215.993 C146.453,216.02 146.772,216.033 147.097,216.053 C147.626,216.088 148.155,216.122 148.678,216.138 C149.083,216.151 149.482,216.15 149.883,216.152 C150.304,216.155 150.723,216.156 151.138,216.146 C151.589,216.135 152.036,216.116 152.48,216.091 C152.822,216.073 153.163,216.051 153.501,216.025 C153.991,215.987 154.477,215.941 154.96,215.886 C155.226,215.856 155.49,215.821 155.754,215.786 C156.287,215.714 156.818,215.638 157.342,215.546 C157.512,215.517 157.679,215.482 157.848,215.45 C159.161,215.202 160.447,214.899 161.697,214.529 L161.576,214.577 C162.336,214.354 163.086,214.11 163.822,213.843 C163.822,213.843 157.744,209.111 154.269,202.829 C154.018,202.825 153.782,202.831 153.527,202.825 C105.783,201.693 110.96,130.497 110.96,130.497 C111.54,129.917 112.014,129.308 112.407,128.688 C108.849,128.069 109.753,126.92 104.302,128.237 L104.144,128.66 L102.397,135.951 C102.396,135.962 102.395,135.97 102.393,135.981 C102.388,136.034 102.382,136.089 102.376,136.143 C102.351,136.362 102.326,136.587 102.301,136.821 C102.291,136.912 102.281,137.007 102.271,137.101 C102.25,137.311 102.227,137.526 102.206,137.747 C102.195,137.846 102.185,137.947 102.176,138.048 C102.151,138.3 102.127,138.559 102.102,138.825 C102.096,138.894 102.09,138.962 102.083,139.033 C102.02,139.733 101.959,140.476 101.901,141.258 C101.896,141.333 101.891,141.409 101.886,141.484 C101.863,141.798 101.841,142.12 101.819,142.446 C101.813,142.549 101.807,142.653 101.8,142.756 C101.779,143.081 101.761,143.411 101.741,143.746 C101.736,143.838 101.731,143.93 101.725,144.024 C101.68,144.89 101.639,145.791 101.606,146.723 C101.604,146.796 101.602,146.872 101.6,146.945 C101.587,147.328 101.576,147.715 101.566,148.109 C101.562,148.237 101.56,148.367 101.558,148.497 C101.549,148.856 101.543,149.22 101.538,149.587 C101.536,149.715 101.534,149.842 101.532,149.971 C101.527,150.394 101.524,150.822 101.524,151.254 C101.523,151.325 101.523,151.392 101.523,151.462 C101.522,151.974 101.525,152.492 101.531,153.015 C101.532,153.093 101.534,153.172 101.535,153.251 C101.54,153.683 101.548,154.121 101.558,154.56 C101.561,154.714 101.566,154.87 101.57,155.024 C101.58,155.398 101.592,155.775 101.604,156.154 C101.611,156.325 101.617,156.497 101.624,156.669 C101.64,157.067 101.657,157.467 101.677,157.871 C101.683,158.011 101.689,158.151 101.697,158.293 C101.725,158.837 101.757,159.383 101.793,159.935 C101.798,160.004 101.804,160.075 101.808,160.145 C101.84,160.62 101.875,161.096 101.913,161.576 C101.929,161.765 101.945,161.955 101.961,162.144 C101.992,162.513 102.025,162.882 102.06,163.254 C102.08,163.465 102.1,163.676 102.122,163.888 C102.158,164.253 102.197,164.618 102.238,164.984 C102.261,165.19 102.282,165.397 102.307,165.604 C102.358,166.052 102.414,166.502 102.473,166.952 C102.49,167.087 102.506,167.221 102.524,167.357 C102.595,167.889 102.671,168.422 102.75,168.958 C102.784,169.183 102.82,169.409 102.855,169.635 C102.909,169.978 102.964,170.322 103.021,170.666 C103.063,170.919 103.107,171.172 103.152,171.426 C103.208,171.747 103.267,172.068 103.327,172.39 C103.375,172.65 103.424,172.91 103.474,173.17 C103.539,173.504 103.608,173.839 103.678,174.174 C103.727,174.415 103.775,174.656 103.827,174.896 C103.942,175.428 104.062,175.961 104.187,176.492 C104.25,176.753 104.316,177.015 104.381,177.277 C104.455,177.581 104.53,177.884 104.608,178.188 C104.683,178.474 104.76,178.76 104.837,179.045 C104.912,179.326 104.989,179.604 105.068,179.883 C105.15,180.175 105.234,180.467 105.32,180.759 C105.401,181.033 105.485,181.305 105.569,181.578 C105.659,181.87 105.748,182.162 105.841,182.453 C105.935,182.746 106.035,183.037 106.134,183.328 C106.308,183.844 106.487,184.359 106.674,184.872 C106.763,185.117 106.85,185.363 106.942,185.607 C107.058,185.916 107.18,186.221 107.3,186.528 C107.393,186.763 107.486,187 107.583,187.234 C107.709,187.544 107.837,187.852 107.969,188.16 C108.063,188.382 108.162,188.604 108.26,188.826 C108.399,189.142 108.539,189.459 108.683,189.772 C108.767,189.952 108.853,190.128 108.938,190.306 C109.246,190.954 109.566,191.595 109.898,192.23 C109.981,192.389 110.061,192.549 110.145,192.707 C110.316,193.025 110.493,193.339 110.67,193.654 C110.776,193.843 110.883,194.032 110.991,194.219 C111.171,194.531 111.355,194.839 111.542,195.147 C111.652,195.329 111.765,195.509 111.878,195.69 C112.073,196.003 112.269,196.314 112.472,196.622 C112.568,196.769 112.668,196.914 112.767,197.059 C113.491,198.136 114.261,199.184 115.076,200.2 C115.19,200.341 115.304,200.484 115.419,200.626 C115.661,200.919 115.908,201.208 116.158,201.495 C116.286,201.642 116.415,201.789 116.545,201.934 C116.802,202.22 117.059,202.505 117.324,202.786 C117.442,202.911 117.564,203.034 117.684,203.158 C118.621,204.127 119.61,205.055 120.653,205.939 C120.766,206.035 120.876,206.131 120.989,206.225 C121.299,206.482 121.616,206.732 121.935,206.981 C122.085,207.097 122.235,207.214 122.387,207.329 C122.707,207.571 123.03,207.809 123.359,208.043 C123.509,208.149 123.662,208.253 123.814,208.358 C124.161,208.597 124.509,208.836 124.866,209.066 C124.917,209.099 124.971,209.13 125.022,209.163 C125.838,209.683 126.683,210.177 127.554,210.648 C127.645,210.698 127.734,210.75 127.826,210.799 C128.205,211 128.594,211.192 128.982,211.383 C129.164,211.472 129.345,211.562 129.528,211.649 C129.909,211.829 130.295,212.003 130.685,212.174 C130.881,212.26 131.08,212.343 131.279,212.426 C131.679,212.594 132.081,212.76 132.492,212.919 C132.651,212.98 132.815,213.037 132.976,213.096 C133.973,213.465 134.994,213.811 136.052,214.121 C137.741,214.615 139.511,215.03 141.364,215.359 L141.363,215.359 C142.061,215.484 142.767,215.601 143.488,215.702 C144.38,215.825 145.258,215.919 146.127,215.993" id="Fill-24" fill="#C0824C"></path>
        <path d="M154.439,202.83 C158.282,209.965 163.817,213.832 163.817,213.832 C172.902,210.135 180.246,204.313 186.867,192.874 C181.449,198.356 171.758,203.069 154.439,202.83" id="Fill-25" fill="#7C6653"></path>
        <path d="M184.985,237.899 L181.553,234.004 C181.125,234.443 179.748,235.476 176.583,234.96 C176.014,234.867 175.583,234.615 175.231,234.272 L175.224,234.28 C175.224,234.28 175.262,241.041 184.985,237.899" id="Fill-26" fill="#7C6653"></path>
        <path d="M193.876,243.752 C193.876,243.752 189.627,250.767 184.447,249.351 C184.447,249.351 187.548,255.813 195.922,249.351 C197.77,247.925 198.801,246.731 199.288,245.735 L193.876,243.752" id="Fill-27" fill="#7C6653"></path>
        <path d="M140.462,104.892 C126.524,104.892 115.35,100.935 115.158,100.866 C114.899,100.772 114.765,100.484 114.859,100.225 C114.953,99.965 115.239,99.833 115.5,99.925 C115.824,100.043 148.301,111.529 171.354,94.893 C171.578,94.73 171.89,94.78 172.053,95.005 C172.215,95.229 172.164,95.542 171.94,95.703 C162.079,102.819 150.547,104.892 140.462,104.892" id="Fill-28" fill="#3D1717"></path>
        <path d="M119.057,102.032 C118.905,102.032 118.756,101.964 118.657,101.834 C112.226,93.31 100.006,65.79 95.917,52.233 C94.916,48.913 95.236,45.856 96.869,43.146 C101.814,34.939 117.577,31.852 125.152,30.369 L126.236,30.156 C133.665,28.679 151.862,25.906 160.371,32.007 C162.943,33.852 164.456,36.373 164.866,39.5 C166.775,54.053 167.347,81.857 166.09,99.001 C166.069,99.276 165.803,99.478 165.555,99.462 C165.279,99.442 165.072,99.203 165.092,98.927 C166.346,81.839 165.776,54.129 163.874,39.629 C163.502,36.788 162.127,34.497 159.788,32.82 C151.599,26.946 133.732,29.687 126.432,31.136 L125.344,31.35 C117.91,32.806 102.441,35.835 97.726,43.662 C96.244,46.12 95.958,48.906 96.874,51.944 C100.892,65.265 113.248,93.004 119.456,101.231 C119.622,101.452 119.578,101.765 119.357,101.931 C119.267,102 119.162,102.032 119.057,102.032" id="Fill-29" fill="#3D1717"></path>
        <path d="M111.445,46.682 C111.237,46.682 111.043,46.551 110.972,46.343 C108.7,39.678 101.108,40.084 100.786,40.108 C100.505,40.117 100.272,39.916 100.255,39.642 C100.237,39.366 100.445,39.128 100.721,39.11 C100.812,39.105 109.397,38.62 111.919,46.021 C112.008,46.282 111.868,46.566 111.606,46.655 C111.553,46.673 111.499,46.682 111.445,46.682" id="Fill-30" fill="#3D1717"></path>
        <path d="M119.861,44.578 C119.637,44.578 119.433,44.426 119.376,44.199 C117.543,36.867 107.98,36.092 107.884,36.085 C107.608,36.064 107.401,35.825 107.421,35.55 C107.441,35.273 107.684,35.063 107.956,35.087 C108.059,35.095 118.34,35.93 120.347,43.957 C120.413,44.224 120.251,44.496 119.982,44.563 C119.942,44.573 119.901,44.578 119.861,44.578" id="Fill-31" fill="#3D1717"></path>
        <path d="M127.791,41.989 C127.524,41.989 127.303,41.779 127.291,41.51 C126.986,34.359 119.812,32.476 119.739,32.458 C119.472,32.391 119.309,32.119 119.376,31.852 C119.443,31.584 119.71,31.418 119.983,31.488 C120.062,31.508 127.954,33.58 128.291,41.467 C128.303,41.743 128.088,41.977 127.812,41.988 C127.805,41.989 127.798,41.989 127.791,41.989" id="Fill-32" fill="#3D1717"></path>
        <path d="M135.559,40.332 C135.533,40.332 135.506,40.33 135.479,40.326 C135.206,40.282 135.021,40.025 135.065,39.753 C135.969,34.141 129.433,30.523 129.367,30.487 C129.124,30.355 129.034,30.052 129.166,29.81 C129.298,29.566 129.604,29.477 129.844,29.608 C130.14,29.769 137.067,33.608 136.052,39.912 C136.013,40.157 135.801,40.332 135.559,40.332" id="Fill-33" fill="#3D1717"></path>
        <path d="M143.488,39.399 C143.441,39.399 143.393,39.393 143.346,39.379 C143.081,39.3 142.931,39.022 143.009,38.757 C144.653,33.226 138.124,29.434 138.058,29.396 C137.817,29.26 137.733,28.955 137.87,28.714 C138.005,28.475 138.308,28.39 138.552,28.526 C138.624,28.568 145.84,32.746 143.968,39.042 C143.903,39.259 143.704,39.399 143.488,39.399" id="Fill-34" fill="#3D1717"></path>
        <path d="M150.752,39.399 C150.689,39.399 150.626,39.388 150.565,39.363 C150.309,39.26 150.184,38.969 150.288,38.713 C152.21,33.939 146.156,29.162 146.095,29.114 C145.877,28.945 145.837,28.63 146.007,28.413 C146.176,28.194 146.491,28.155 146.708,28.324 C146.983,28.538 153.416,33.62 151.216,39.086 C151.138,39.281 150.95,39.399 150.752,39.399" id="Fill-35" fill="#3D1717"></path>
        <path d="M129.575,77.603 C129.339,77.603 129.128,77.434 129.084,77.192 L125.003,54.618 C124.954,54.347 125.135,54.086 125.406,54.037 L127.317,53.691 C128.729,53.438 130.2,54.068 131.576,55.52 C131.766,55.72 131.757,56.037 131.557,56.227 C131.355,56.416 131.041,56.408 130.85,56.208 C130.06,55.375 128.835,54.429 127.495,54.676 L126.076,54.932 L129.979,76.522 L131.398,76.266 C132.751,76.021 133.57,74.694 134.018,73.624 C134.125,73.37 134.416,73.247 134.673,73.356 C134.928,73.463 135.048,73.756 134.94,74.011 C134.16,75.873 132.997,76.993 131.576,77.25 L129.665,77.595 C129.635,77.601 129.605,77.603 129.575,77.603" id="Fill-36" fill="#3D1717"></path>
        <path d="M133.149,64.801 C134.276,71.035 132.677,76.543 129.576,77.103 C126.475,77.664 123.049,73.064 121.922,66.831 C120.795,60.597 122.395,55.09 125.495,54.529 C128.596,53.969 132.022,58.568 133.149,64.801" id="Fill-37" fill="#3D1717"></path>
        <g id="Group-40" transform="translate(121.000000, 54.000000)">
            <mask id="mask-2" fill="white">
                <use xlink:href="#path-1"></use>
            </mask>
            <g id="Clip-39"></g>
            <polyline id="Fill-38" fill="#A6D8D7" mask="url(#mask-2)" points="2.11 12.335 4.524 8.624 8.761 15.409 10.836 10.393 15.792 17.265 19.181 7.273 23.628 12.672 18.714 3.051 15.368 11.578 10.455 5.224 8.294 10.933 4.185 5.598 2.11 12.335"></polyline>
        </g>
        <path d="M126.012,54.983 C125.868,54.983 125.725,54.996 125.584,55.022 C122.808,55.523 121.356,60.891 122.414,66.742 C123.472,72.594 126.703,77.114 129.487,76.611 C132.264,76.109 133.715,70.742 132.657,64.89 C131.653,59.337 128.684,54.983 126.012,54.983 Z M129.053,77.65 C125.819,77.65 122.553,73.133 121.43,66.92 C120.236,60.315 121.982,54.656 125.406,54.037 C128.822,53.422 132.447,58.107 133.642,64.712 C134.836,71.317 133.089,76.976 129.665,77.595 C129.462,77.632 129.257,77.65 129.053,77.65 Z" id="Fill-41" fill="#3D1717"></path>
        <path d="M133.12,59.115 C132.94,59.115 132.767,59.017 132.677,58.847 C132.411,58.339 132.129,57.866 131.837,57.441 C131.681,57.213 131.738,56.902 131.966,56.746 C132.195,56.59 132.506,56.647 132.661,56.876 C132.975,57.333 133.279,57.84 133.563,58.383 C133.691,58.627 133.597,58.93 133.352,59.058 C133.278,59.097 133.198,59.115 133.12,59.115" id="Fill-42" fill="#3D1717"></path>
        <path d="M135.41,68.198 C135.142,68.198 134.919,67.985 134.91,67.714 C134.901,67.455 134.889,67.192 134.869,66.927 C134.85,66.652 135.057,66.413 135.332,66.393 C135.604,66.369 135.847,66.58 135.867,66.856 C135.887,67.134 135.901,67.409 135.91,67.681 C135.919,67.957 135.703,68.189 135.427,68.197 C135.421,68.198 135.415,68.198 135.41,68.198" id="Fill-43" fill="#3D1717"></path>
        <path d="M135.055,72.467 C135.019,72.467 134.983,72.463 134.946,72.456 C134.677,72.396 134.507,72.129 134.566,71.859 C134.684,71.327 134.774,70.757 134.834,70.167 C134.861,69.892 135.108,69.696 135.381,69.719 C135.655,69.746 135.856,69.991 135.828,70.266 C135.766,70.896 135.669,71.504 135.543,72.076 C135.491,72.309 135.284,72.467 135.055,72.467" id="Fill-44" fill="#3D1717"></path>
        <path d="M114.925,256.402 C112.059,255.553 111.284,249.201 110.321,244.875 C111.122,244.426 117.029,241.979 119.531,240.763 C119.75,241.142 123.506,237.814 123.533,237.404 C126.329,234.232 126.955,230.795 126.463,227.502 C126.483,227.003 125.444,223.206 124.404,221.424 C122.433,217.545 119.703,214.38 118.651,212.881 C115.358,208.23 111.517,202.762 108.116,196.654 L108.005,196.66 C86.433,206.507 74.3,199.766 74.228,199.726 C76.631,218.457 83.518,238.518 88.83,242.625 C88.76,242.741 88.707,242.849 88.627,242.97 C85.35,247.947 75.195,249.605 76.651,254.946 C78.108,260.286 83.041,269.227 90.507,265.829 C97.973,262.43 88.779,259.546 87.605,254.934 C86.319,249.877 91.997,248.097 96.507,246.107 C98.657,246.533 101.086,246.629 103.807,246.314 C103.522,249.304 103.131,258.254 108.047,262.066 C113.994,266.678 117.271,267.892 120.913,264.494 C124.554,261.095 123.664,258.992 114.925,256.402" id="Fill-45" fill="#9D8974"></path>
        <path d="M150.627,73.177 C150.39,73.177 150.18,73.008 150.136,72.766 L146.056,50.192 C146.032,50.062 146.061,49.927 146.137,49.818 C146.213,49.71 146.328,49.635 146.459,49.611 L148.37,49.266 C150.148,48.942 152.006,50.026 153.615,52.308 C153.774,52.534 153.721,52.846 153.495,53.005 C153.269,53.164 152.957,53.11 152.799,52.884 C151.444,50.965 149.893,50.004 148.548,50.251 L147.129,50.507 L151.031,72.096 L152.45,71.84 C153.117,71.719 153.721,71.318 154.245,70.648 C154.415,70.429 154.73,70.393 154.946,70.562 C155.164,70.732 155.203,71.046 155.032,71.264 C154.353,72.133 153.544,72.658 152.628,72.824 L150.717,73.169 C150.686,73.175 150.657,73.177 150.627,73.177" id="Fill-46" fill="#3D1717"></path>
        <path d="M154.201,60.376 C155.328,66.609 153.728,72.117 150.628,72.677 C147.528,73.238 144.101,68.639 142.975,62.405 C141.848,56.171 143.447,50.664 146.548,50.104 C149.647,49.543 153.074,54.142 154.201,60.376" id="Fill-47" fill="#3D1717"></path>
        <g id="Group-50" transform="translate(142.000000, 50.000000)">
            <mask id="mask-4" fill="white">
                <use xlink:href="#path-3"></use>
            </mask>
            <g id="Clip-49"></g>
            <polyline id="Fill-48" fill="#A6D8D7" mask="url(#mask-4)" points="-8.875 13.567 -6.461 9.856 -2.226 16.641 -0.15 11.626 4.807 18.498 8.194 8.506 12.642 13.904 7.728 4.283 4.383 12.811 -0.531 6.456 -2.691 12.165 -6.8 6.83 -8.875 13.567"></polyline>
        </g>
        <path d="M154.98,56.477 C154.78,56.477 154.592,56.356 154.515,56.158 C154.311,55.637 154.09,55.138 153.857,54.673 C153.734,54.426 153.834,54.126 154.081,54.002 C154.325,53.88 154.628,53.978 154.752,54.225 C154.998,54.717 155.231,55.245 155.446,55.795 C155.547,56.052 155.42,56.342 155.162,56.442 C155.102,56.466 155.041,56.477 154.98,56.477" id="Fill-51" fill="#3D1717"></path>
        <path d="M156.433,65.714 C156.421,65.714 156.409,65.714 156.397,65.713 C156.122,65.694 155.914,65.456 155.933,65.181 C155.962,64.746 155.975,64.297 155.974,63.838 C155.973,63.562 156.195,63.337 156.472,63.336 C156.473,63.336 156.473,63.336 156.474,63.336 C156.749,63.336 156.973,63.559 156.974,63.834 C156.975,64.317 156.962,64.79 156.931,65.248 C156.913,65.512 156.692,65.714 156.433,65.714" id="Fill-52" fill="#3D1717"></path>
        <path d="M155.435,70.112 C155.366,70.112 155.297,70.098 155.229,70.068 C154.977,69.954 154.866,69.658 154.979,69.406 C155.294,68.711 155.539,67.9 155.708,66.997 C155.759,66.725 156.023,66.55 156.291,66.597 C156.562,66.647 156.741,66.909 156.69,67.18 C156.508,68.162 156.238,69.05 155.892,69.818 C155.808,70.003 155.626,70.112 155.435,70.112" id="Fill-53" fill="#3D1717"></path>
        <path d="M147.068,50.557 C146.923,50.557 146.779,50.57 146.637,50.596 C145.334,50.831 144.275,52.135 143.656,54.267 C143.002,56.517 142.935,59.376 143.467,62.316 C143.998,65.256 145.062,67.911 146.463,69.79 C147.788,71.57 149.234,72.42 150.539,72.185 C151.842,71.95 152.9,70.647 153.519,68.515 C154.174,66.264 154.24,63.405 153.709,60.464 C153.178,57.524 152.113,54.87 150.713,52.991 C149.532,51.405 148.254,50.557 147.068,50.557 Z M150.105,73.224 C148.596,73.224 147.039,72.237 145.66,70.388 C144.17,68.387 143.041,65.584 142.482,62.494 C141.924,59.405 142,56.384 142.695,53.988 C143.427,51.472 144.763,49.918 146.459,49.611 C148.15,49.308 149.949,50.292 151.516,52.393 C153.006,54.394 154.135,57.197 154.693,60.287 C155.252,63.376 155.176,66.397 154.48,68.793 C153.749,71.309 152.413,72.863 150.717,73.169 C150.515,73.206 150.31,73.224 150.105,73.224 Z" id="Fill-54" fill="#3D1717"></path>
        <path d="M104.872,67.984 L98.831,69.076 L98.602,67.813 C98.357,66.456 97.046,65.545 95.688,65.791 C94.331,66.036 93.421,67.348 93.666,68.706 L95.016,76.168 C95.261,77.526 96.572,78.436 97.93,78.19 C99.287,77.945 100.197,76.633 99.952,75.276 L99.724,74.013 L105.765,72.921 C107.122,72.675 108.032,71.364 107.786,70.006 C107.541,68.648 106.229,67.739 104.872,67.984" id="Fill-55" fill="#3D1717"></path>
        <path d="M176.936,61.204 L175.587,53.741 C175.342,52.383 174.03,51.473 172.673,51.719 C171.315,51.964 170.405,53.275 170.65,54.633 L170.879,55.896 L165.774,56.819 C165.854,58.475 165.925,60.166 165.985,61.879 L171.771,60.833 L172,62.096 C172.245,63.454 173.557,64.363 174.914,64.118 C176.271,63.873 177.182,62.561 176.936,61.204" id="Fill-56" fill="#3D1717"></path>
        <path d="M110.321,244.875 C110.37,244.847 110.44,244.812 110.526,244.77 C110.554,244.756 110.594,244.738 110.625,244.723 C110.691,244.691 110.756,244.66 110.837,244.623 C110.878,244.604 110.929,244.582 110.973,244.561 C111.058,244.522 111.142,244.484 111.239,244.44 C111.295,244.415 111.358,244.387 111.416,244.361 C111.517,244.316 111.615,244.272 111.725,244.224 C111.802,244.19 111.887,244.152 111.969,244.117 C112.065,244.074 112.158,244.033 112.261,243.988 C112.364,243.943 112.475,243.895 112.584,243.847 C112.686,243.802 112.789,243.757 112.895,243.712 C112.966,243.681 113.039,243.649 113.11,243.618 C113.434,243.477 113.768,243.333 114.116,243.181 C97.689,244.25 90.775,224.212 86.944,201.998 C78.706,202.206 74.271,199.751 74.228,199.726 C74.23,199.737 74.231,199.749 74.233,199.759 C74.364,200.781 74.511,201.806 74.668,202.834 C74.701,203.046 74.733,203.26 74.767,203.473 C74.84,203.939 74.916,204.406 74.994,204.872 C75.027,205.067 75.061,205.262 75.096,205.459 C75.251,206.355 75.414,207.251 75.586,208.143 C75.615,208.298 75.644,208.455 75.675,208.61 C75.766,209.072 75.858,209.532 75.953,209.991 C76,210.216 76.047,210.442 76.095,210.668 C76.4,212.123 76.727,213.565 77.072,214.987 C77.132,215.237 77.192,215.486 77.254,215.734 C77.355,216.145 77.459,216.555 77.563,216.963 C77.632,217.229 77.701,217.493 77.77,217.757 C77.943,218.413 78.119,219.062 78.298,219.706 C78.381,220.004 78.464,220.304 78.548,220.6 C78.649,220.956 78.753,221.308 78.856,221.66 C78.946,221.967 79.038,222.272 79.13,222.577 C79.228,222.904 79.327,223.233 79.428,223.556 C79.6,224.108 79.773,224.655 79.949,225.192 C80.04,225.47 80.132,225.742 80.224,226.016 C80.339,226.361 80.455,226.704 80.572,227.042 C80.665,227.31 80.758,227.578 80.852,227.842 C80.996,228.252 81.143,228.654 81.289,229.051 C81.381,229.298 81.472,229.545 81.563,229.789 C81.733,230.237 81.904,230.677 82.075,231.109 C82.159,231.32 82.243,231.527 82.327,231.733 C82.474,232.093 82.62,232.448 82.768,232.795 C82.841,232.967 82.914,233.142 82.987,233.311 C83.197,233.795 83.407,234.267 83.619,234.723 C83.681,234.857 83.743,234.985 83.805,235.116 C83.971,235.466 84.136,235.808 84.302,236.14 C84.373,236.283 84.443,236.424 84.515,236.564 C84.721,236.965 84.926,237.356 85.131,237.727 C85.149,237.759 85.167,237.794 85.185,237.826 C85.404,238.219 85.622,238.588 85.841,238.945 C85.905,239.051 85.97,239.153 86.034,239.254 C86.209,239.532 86.383,239.795 86.556,240.047 C86.607,240.123 86.659,240.202 86.711,240.275 C86.929,240.582 87.144,240.869 87.359,241.133 C87.407,241.193 87.455,241.245 87.503,241.302 C87.677,241.509 87.849,241.701 88.019,241.878 C88.079,241.94 88.139,242.003 88.198,242.061 C88.411,242.27 88.622,242.463 88.83,242.625 C88.76,242.741 88.707,242.849 88.627,242.97 C85.35,247.947 75.195,249.605 76.651,254.946 C77.653,258.619 80.3,263.996 84.284,265.889 C84.284,265.887 77.461,250.657 87.777,250.9 C87.946,250.904 88.107,250.929 88.272,250.944 C89.873,248.709 93.454,247.455 96.507,246.107 C98.657,246.533 101.086,246.629 103.807,246.314 C103.522,249.304 103.131,258.254 108.047,262.066 C113.364,266.19 116.548,267.586 119.765,265.409 C103.152,261.028 110.321,244.875 110.321,244.875" id="Fill-57" fill="#7C6653"></path>
        <path d="M98.703,105.263 C96.238,109.857 79.956,141.267 74.395,178.957 C71.304,199.912 81.993,236.707 89.136,242.229 C89.337,242.384 89.39,242.667 89.258,242.883 L89.188,243.003 C89.144,243.083 89.1,243.162 89.044,243.246 C87.631,245.391 85.086,246.895 82.625,248.349 C79.273,250.33 76.378,252.042 77.134,254.814 C78.25,258.906 80.97,263.782 84.531,265.453 C86.36,266.311 88.301,266.285 90.3,265.374 C91.891,264.65 92.761,263.921 92.885,263.206 C93.059,262.212 91.827,261.01 90.523,259.738 C89.144,258.393 87.582,256.868 87.121,255.058 C85.86,250.099 90.666,248.055 94.906,246.252 C95.379,246.051 95.848,245.851 96.305,245.65 C96.399,245.609 96.505,245.595 96.603,245.617 C98.778,246.047 101.183,246.115 103.748,245.818 C103.895,245.8 104.048,245.851 104.155,245.957 C104.264,246.063 104.317,246.212 104.304,246.362 C104.052,249.021 103.6,257.984 108.353,261.671 C114.645,266.55 117.386,267.101 120.572,264.128 C122.007,262.789 122.586,261.784 122.392,260.966 C122.076,259.624 119.658,258.326 114.783,256.881 C112.078,256.08 111.122,251.325 110.279,247.129 C110.129,246.384 109.983,245.659 109.833,244.983 C109.785,244.767 109.885,244.545 110.077,244.438 C110.474,244.216 111.906,243.595 113.721,242.808 C115.721,241.94 117.989,240.956 119.312,240.313 C119.547,240.198 119.832,240.284 119.964,240.512 C121.919,243.901 124.198,247.355 128.622,249.099 C137.029,252.417 140.369,250.494 140.961,249.015 C141.051,248.789 141.809,246.746 140.505,244.8 C139.016,242.578 135.387,241.377 130.011,241.326 C126.754,241.295 124.771,240.78 123.774,239.705 C123.213,239.099 122.971,238.336 123.034,237.371 C123.042,237.26 123.085,237.156 123.158,237.073 C125.558,234.351 126.504,231.156 125.969,227.576 C125.959,227.049 124.981,223.404 123.973,221.677 C122.473,218.727 120.531,216.19 119.246,214.511 C118.839,213.979 118.493,213.527 118.242,213.169 C113.422,206.359 106.818,197.031 102.726,186.509 C95.299,167.417 96.384,147.019 106.243,120.371 C108.162,115.183 100.677,107.236 98.703,105.263 Z M87.265,267.081 C86.188,267.081 85.134,266.84 84.106,266.358 C79.992,264.427 77.26,259.075 76.169,255.077 C75.213,251.568 78.566,249.587 82.116,247.488 C84.463,246.101 86.889,244.668 88.182,242.736 C84.548,239.521 80.174,229.358 76.934,216.532 C73.34,202.302 72.02,188.202 73.406,178.811 C79.426,138.008 97.957,104.532 98.144,104.199 C98.219,104.065 98.352,103.973 98.503,103.949 C98.654,103.925 98.81,103.973 98.922,104.078 C99.358,104.486 109.604,114.167 107.181,120.717 C97.412,147.121 96.326,167.299 103.658,186.147 C107.706,196.553 114.268,205.824 119.059,212.592 C119.306,212.943 119.642,213.383 120.041,213.904 C121.348,215.612 123.322,218.192 124.85,221.198 C125.907,223.005 126.988,226.888 126.963,227.522 C127.529,231.255 126.543,234.676 124.025,237.6 C124.013,238.203 124.168,238.659 124.508,239.025 C125.283,239.861 127.138,240.298 130.02,240.326 C135.823,240.38 139.63,241.699 141.335,244.244 C142.542,246.045 142.388,248.139 141.889,249.386 C141.117,251.318 137.377,253.627 128.255,250.03 C123.39,248.111 120.864,244.058 119.33,241.413 C117.963,242.058 115.932,242.939 114.118,243.725 C112.788,244.302 111.517,244.854 110.892,245.148 C111.016,245.718 111.136,246.319 111.26,246.933 C112.008,250.657 112.94,255.293 115.066,255.922 C120.466,257.522 122.948,258.962 123.366,260.736 C123.653,261.956 123.002,263.227 121.254,264.859 C117.257,268.59 113.564,266.979 107.74,262.462 C102.989,258.776 102.958,250.749 103.256,246.875 C100.873,247.102 98.626,247.018 96.565,246.628 C96.149,246.81 95.725,246.991 95.298,247.172 C91.238,248.898 87.04,250.683 88.09,254.811 C88.481,256.349 89.875,257.708 91.222,259.022 C92.72,260.484 94.135,261.864 93.87,263.378 C93.68,264.466 92.677,265.39 90.714,266.284 C89.547,266.815 88.394,267.081 87.265,267.081 Z" id="Fill-58" fill="#3D1717"></path>
        <path d="M85.92,202.546 C78.383,202.546 74.271,200.323 73.981,200.161 C73.74,200.026 73.655,199.721 73.79,199.481 C73.923,199.239 74.228,199.152 74.47,199.288 C74.589,199.355 86.708,205.862 107.878,196.17 C108.126,196.055 108.424,196.164 108.541,196.417 C108.655,196.667 108.545,196.963 108.294,197.079 C99.045,201.314 91.532,202.546 85.92,202.546" id="Fill-59" fill="#3D1717"></path>
        <path d="M84.745,211.026 C84.121,211.026 83.506,210.735 83.115,210.188 C79.681,205.378 80.531,196.78 80.569,196.417 C80.684,195.318 81.68,194.515 82.764,194.635 C83.862,194.749 84.66,195.731 84.548,196.83 C84.337,198.893 84.253,204.898 86.371,207.864 C87.013,208.762 86.805,210.012 85.905,210.654 C85.554,210.905 85.147,211.026 84.745,211.026" id="Fill-60" fill="#3D1717"></path>
        <path d="M92.876,208.113 C92.301,208.113 91.729,207.866 91.334,207.387 C87.956,203.306 88.313,196.779 88.33,196.502 C88.397,195.4 89.332,194.559 90.448,194.628 C91.55,194.695 92.389,195.641 92.322,196.743 C92.317,196.838 92.063,201.996 94.416,204.837 C95.12,205.688 95.001,206.95 94.15,207.654 C93.777,207.962 93.325,208.113 92.876,208.113" id="Fill-61" fill="#3D1717"></path>
        <path d="M102.951,204.825 C102.211,204.825 101.5,204.413 101.152,203.704 L98.118,197.503 C97.633,196.51 98.044,195.313 99.036,194.828 C100.026,194.341 101.225,194.753 101.712,195.746 L104.746,201.946 C105.231,202.938 104.82,204.135 103.828,204.621 C103.546,204.759 103.246,204.825 102.951,204.825" id="Fill-62" fill="#3D1717"></path>
        <path d="M105.101,125.931 C105.012,125.931 104.96,125.929 104.954,125.928 C104.679,125.913 104.469,125.677 104.483,125.402 C104.499,125.128 104.737,124.926 105.01,124.93 C105.321,124.941 112.482,125.226 113.62,116.354 C113.654,116.079 113.91,115.89 114.18,115.921 C114.454,115.956 114.647,116.207 114.612,116.481 C113.447,125.569 106.232,125.931 105.101,125.931" id="Fill-63" fill="#3D1717"></path>
        <path d="M98.58,104.943 C98.442,104.943 98.306,104.887 98.207,104.776 C98.023,104.57 98.041,104.254 98.247,104.07 C103.199,99.646 108.482,95.972 113.949,93.151 C114.194,93.026 114.497,93.121 114.623,93.366 C114.75,93.612 114.653,93.914 114.408,94.04 C109.017,96.822 103.803,100.448 98.913,104.816 C98.817,104.901 98.699,104.943 98.58,104.943" id="Fill-64" fill="#3D1717"></path>
        <path d="M150.095,216.667 C147.919,216.667 145.694,216.51 143.42,216.196 C130.626,214.43 120.531,208.601 113.414,198.871 C95.397,174.235 102.384,132.216 102.456,131.795 C102.503,131.523 102.768,131.341 103.034,131.387 C103.307,131.434 103.489,131.693 103.442,131.965 C103.37,132.382 96.456,173.992 114.224,198.283 C121.174,207.785 131.043,213.479 143.557,215.206 C159.254,217.372 172.659,211.837 182.325,199.197 C199.693,176.486 202.389,133.032 188.479,100.201 C187.378,99.459 178.602,93.709 165.93,90.01 C165.664,89.933 165.512,89.655 165.59,89.39 C165.666,89.125 165.945,88.97 166.209,89.05 C179.876,93.039 189.077,99.397 189.169,99.46 C189.246,99.514 189.307,99.588 189.343,99.675 C203.443,132.821 200.71,176.803 183.12,199.804 C174.622,210.916 163.3,216.666 150.095,216.667" id="Fill-65" fill="#3D1717"></path>
        <path d="M163.816,214.332 C163.718,214.332 163.618,214.302 163.531,214.242 C163.283,214.068 138.893,196.571 157.145,167.854 C166.638,152.92 177.232,147.514 184.449,145.609 C192.305,143.536 197.833,145.001 198.063,145.063 C198.33,145.137 198.486,145.411 198.414,145.677 C198.342,145.944 198.064,146.099 197.8,146.029 C197.581,145.968 175.769,140.417 157.989,168.39 C150.548,180.098 149.306,191.225 154.296,201.462 C158.027,209.115 164.043,213.379 164.103,213.421 C164.33,213.58 164.386,213.891 164.227,214.118 C164.13,214.256 163.975,214.332 163.816,214.332" id="Fill-66" fill="#3D1717"></path>
        <path d="M156.218,170.869 C156.012,170.869 155.818,170.74 155.746,170.535 C152.393,160.974 146.873,158.011 141.027,154.875 C135.578,151.95 129.943,148.925 125.065,140.704 C115.21,124.094 104.673,128.601 104.232,128.801 C103.98,128.914 103.684,128.802 103.57,128.552 C103.457,128.3 103.567,128.005 103.817,127.89 C103.936,127.838 115.591,122.774 125.925,140.194 C130.661,148.176 136.172,151.133 141.501,153.994 C147.521,157.224 153.209,160.277 156.689,170.204 C156.781,170.464 156.643,170.75 156.383,170.841 C156.328,170.86 156.272,170.869 156.218,170.869" id="Fill-67" fill="#3D1717"></path>
        <path d="M141.764,164.503 C141.035,164.503 140.334,164.104 139.98,163.412 C139.478,162.427 139.869,161.223 140.852,160.721 C144.682,158.767 145.627,152.625 145.636,152.563 C145.796,151.472 146.807,150.711 147.901,150.873 C148.993,151.031 149.751,152.041 149.595,153.132 C149.547,153.467 148.357,161.381 142.671,164.284 C142.38,164.433 142.069,164.503 141.764,164.503" id="Fill-68" fill="#3D1717"></path>
        <path d="M125.495,151.001 C125.284,151.001 125.07,150.966 124.859,150.896 C123.812,150.545 123.248,149.412 123.599,148.364 C123.858,147.591 126.28,140.759 131.446,139.037 C132.499,138.686 133.628,139.254 133.976,140.302 C134.326,141.35 133.76,142.482 132.712,142.832 C129.918,143.763 127.884,148.167 127.392,149.635 C127.111,150.472 126.331,151.001 125.495,151.001" id="Fill-69" fill="#3D1717"></path>
        <path d="M108.088,138.565 C107.396,138.565 106.724,138.206 106.353,137.564 C105.802,136.607 106.13,135.383 107.087,134.832 L122.584,125.898 C123.54,125.345 124.764,125.674 125.315,126.631 C125.867,127.588 125.539,128.812 124.582,129.364 L109.085,138.297 C108.77,138.479 108.427,138.565 108.088,138.565" id="Fill-70" fill="#3D1717"></path>
        <path d="M157.325,186.144 C157.124,186.144 156.919,186.114 156.716,186.049 L149.12,183.622 C148.068,183.285 147.488,182.16 147.824,181.107 C148.16,180.056 149.281,179.474 150.339,179.811 L157.934,182.239 C158.986,182.575 159.566,183.701 159.23,184.753 C158.959,185.602 158.172,186.144 157.325,186.144" id="Fill-71" fill="#3D1717"></path>
        <path d="M169.949,162.112 C169.358,162.112 168.773,161.851 168.379,161.351 L161.097,152.127 C160.412,151.259 160.559,150.002 161.427,149.317 C162.293,148.633 163.551,148.78 164.235,149.648 L171.517,158.873 C172.202,159.74 172.055,160.997 171.187,161.681 C170.82,161.971 170.384,162.112 169.949,162.112" id="Fill-72" fill="#3D1717"></path>
        <path d="M195.289,269.013 C193.832,269.013 192.677,268.747 191.924,268.503 C189.34,267.662 187.427,265.822 187.165,263.922 C186.999,262.717 187.511,261.652 188.605,260.921 C190.154,259.889 192.041,259.123 194.038,258.311 C198.632,256.445 203.836,254.331 207.5,248.141 C203.845,247.607 186.79,244.558 181.038,233.632 C178.103,228.059 178.55,221.323 182.365,213.61 C196.694,184.642 195.946,165.189 195.937,164.996 C195.924,164.72 196.137,164.486 196.412,164.472 C196.716,164.468 196.923,164.671 196.935,164.947 C196.945,165.143 197.718,184.83 183.262,214.053 C179.597,221.462 179.146,227.893 181.923,233.167 C187.507,243.772 204.415,246.689 207.748,247.167 C208.053,247.211 208.315,247.404 208.449,247.683 C208.585,247.964 208.571,248.292 208.414,248.558 C204.576,255.109 198.941,257.398 194.414,259.238 C192.466,260.03 190.624,260.778 189.16,261.754 C188.391,262.266 188.044,262.969 188.156,263.787 C188.363,265.29 190.04,266.838 192.233,267.551 C194.378,268.249 200.083,269.122 206.728,262.206 C223.088,245.178 227.519,218.394 220.675,177.917 C212.299,128.377 188.74,100.472 188.504,100.196 C188.323,99.987 188.348,99.671 188.558,99.491 C188.767,99.313 189.083,99.335 189.262,99.545 C189.501,99.823 213.239,127.939 221.661,177.749 C228.562,218.566 224.047,245.623 207.449,262.898 C202.691,267.851 198.332,269.013 195.289,269.013" id="Fill-73" fill="#3D1717"></path>
        <path d="M119.531,241.262 C119.335,241.262 119.149,241.146 119.069,240.953 C118.965,240.698 119.086,240.406 119.341,240.3 C119.36,240.293 121.325,239.456 123.276,236.937 C123.446,236.718 123.76,236.68 123.978,236.847 C124.196,237.017 124.236,237.331 124.067,237.549 C121.939,240.295 119.81,241.189 119.721,241.225 C119.659,241.251 119.595,241.262 119.531,241.262" id="Fill-74" fill="#3D1717"></path>
        <path d="M175.392,242.495 C172.936,242.496 170.414,241.712 168.287,239.426 C164.894,235.779 163.662,232.049 164.906,229.193 C165.752,227.251 167.715,226.044 170.029,226.044 C172.992,226.044 173.645,228.547 174.222,230.755 C174.706,232.612 175.124,234.214 176.664,234.466 C180.206,235.045 181.255,233.601 181.297,233.539 C181.452,233.315 181.761,233.253 181.989,233.407 C182.216,233.559 182.28,233.862 182.131,234.091 C182.075,234.174 180.738,236.144 176.503,235.453 C174.32,235.096 173.754,232.924 173.254,231.008 C172.61,228.542 172.072,227.044 170.029,227.044 C168.09,227.044 166.517,227.997 165.823,229.591 C164.745,232.067 165.91,235.404 169.019,238.746 C175.109,245.293 185.027,238.093 185.128,238.02 C185.348,237.856 185.662,237.902 185.827,238.125 C185.991,238.346 185.944,238.66 185.723,238.824 C185.649,238.878 180.674,242.495 175.392,242.495" id="Fill-75" fill="#3D1717"></path>
        <path d="M180.538,257.627 C176.716,257.627 174.105,256.667 172.763,254.762 C170.737,251.89 172.413,248.029 172.485,247.865 C172.522,247.787 173.255,246.32 175.179,245.806 C177.251,245.251 179.835,246.009 182.852,248.058 C184.152,248.942 185.524,249.236 186.928,248.927 C190.61,248.123 193.42,243.539 193.448,243.493 C193.592,243.256 193.9,243.183 194.135,243.324 C194.371,243.466 194.446,243.774 194.304,244.01 C194.181,244.213 191.239,249.008 187.141,249.904 C185.461,250.272 183.828,249.93 182.29,248.885 C179.562,247.034 177.193,246.304 175.436,246.772 C173.95,247.17 173.397,248.275 173.392,248.287 C173.385,248.305 171.883,251.785 173.583,254.19 C174.931,256.097 177.918,256.891 182.453,256.55 C195.955,255.536 199.119,245.809 199.149,245.712 C199.23,245.448 199.509,245.299 199.774,245.381 C200.039,245.463 200.186,245.744 200.104,246.007 C200.072,246.112 196.701,256.483 182.527,257.547 C181.832,257.6 181.168,257.627 180.538,257.627" id="Fill-76" fill="#3D1717"></path>
        <path d="M173.452,270.142 C167.728,270.142 160.095,268.639 159.269,267.449 C158.854,266.848 159.045,265.345 159.712,260.682 C160.993,251.727 163.377,235.058 161.077,214.633 C161.047,214.359 161.244,214.111 161.518,214.08 C161.787,214.047 162.04,214.247 162.071,214.521 C164.385,235.073 161.989,251.825 160.702,260.824 C160.27,263.843 159.897,266.451 160.101,266.895 C160.865,267.806 173.916,270.38 178.204,268.506 C179.198,268.073 179.255,267.569 179.211,267.227 C178.755,263.669 169.529,261.954 166.014,261.592 C165.877,261.579 165.753,261.509 165.669,261.401 C165.585,261.293 165.55,261.155 165.57,261.019 C165.585,260.921 167.064,251.201 167.746,238.817 C164.003,234.484 164.23,231.28 164.705,229.746 C165.213,228.106 166.435,226.885 168.089,226.347 C168.073,221.187 167.842,216.407 167.4,212.134 C167.372,211.86 167.571,211.615 167.846,211.586 C168.112,211.56 168.366,211.756 168.394,212.032 C168.85,216.442 169.085,221.384 169.09,226.722 C169.09,226.951 168.934,227.151 168.713,227.208 C167.214,227.587 166.1,228.621 165.66,230.042 C164.948,232.342 166.031,235.356 168.632,238.311 C168.719,238.41 168.764,238.539 168.756,238.669 C168.164,249.58 166.948,258.474 166.634,260.658 C169.143,260.969 179.619,262.544 180.203,267.1 C180.299,267.845 180.061,268.869 178.388,269.512 C177.225,269.959 175.456,270.142 173.452,270.142" id="Fill-77" fill="#3D1717"></path>
        <path d="M136.756,270.142 C134.752,270.142 132.983,269.959 131.821,269.512 C130.147,268.87 129.909,267.846 130.005,267.1 C130.569,262.702 139.041,261.611 141.636,261.379 C141.032,260.036 139.653,256.686 138.237,251.301 C138.203,251.172 138.222,251.035 138.29,250.92 C138.357,250.805 138.468,250.722 138.597,250.689 C139.797,250.381 140.658,249.771 140.961,249.015 C141.297,248.173 141.465,246.717 140.832,245.379 C140.154,243.947 138.712,242.875 136.547,242.19 C136.368,242.133 136.235,241.982 136.204,241.796 C134.817,233.623 134.144,223.687 134.31,213.823 C134.315,213.546 134.538,213.347 134.819,213.332 C135.095,213.337 135.315,213.564 135.31,213.839 C135.147,223.526 135.797,233.273 137.141,241.333 C139.421,242.11 140.967,243.327 141.735,244.952 C142.506,246.579 142.32,248.309 141.889,249.386 C141.514,250.326 140.593,251.086 139.329,251.514 C141.106,258.131 142.825,261.563 142.843,261.597 C142.919,261.749 142.914,261.927 142.829,262.074 C142.745,262.22 142.592,262.314 142.424,262.323 C139.399,262.486 131.451,263.686 130.997,267.227 C130.953,267.569 131.01,268.073 132.004,268.506 C136.295,270.38 149.344,267.806 150.12,266.875 C150.176,266.533 149.41,264.604 148.6,262.561 C145.328,254.321 138.521,237.174 140.98,215.33 C141.012,215.054 141.274,214.862 141.533,214.888 C141.808,214.92 142.005,215.168 141.975,215.442 C139.543,237.039 146.287,254.027 149.528,262.192 C150.957,265.791 151.35,266.854 150.939,267.449 C150.114,268.639 142.479,270.142 136.756,270.142" id="Fill-78" fill="#3D1717"></path>
        <path d="M183.663,212.584 C183.435,212.584 183.23,212.427 183.177,212.197 C183.113,211.928 183.28,211.66 183.55,211.596 C183.797,211.539 208.294,205.392 208.53,170.366 C208.769,135.033 199.279,116.394 199.184,116.21 C199.056,115.964 199.151,115.663 199.396,115.535 C199.638,115.409 199.943,115.503 200.07,115.748 C200.17,115.939 202.535,120.533 204.903,129.598 C207.084,137.943 209.656,151.792 209.53,170.373 C209.404,189.076 202.429,199.547 196.599,205.04 C190.262,211.008 184.038,212.509 183.776,212.57 C183.738,212.58 183.7,212.584 183.663,212.584" id="Fill-79" fill="#3D1717"></path>
        <path d="M209.035,192.212 C208.516,192.212 207.996,192.011 207.604,191.61 L200.494,184.328 C199.722,183.537 199.737,182.271 200.527,181.499 C201.319,180.729 202.585,180.743 203.355,181.533 L210.466,188.815 C211.238,189.605 211.223,190.872 210.433,191.643 C210.043,192.023 209.539,192.212 209.035,192.212" id="Fill-80" fill="#3D1717"></path>
        <path d="M199.628,208.113 C199.614,208.113 199.601,208.113 199.588,208.112 C198.483,208.091 197.605,207.178 197.627,206.075 C197.654,204.674 195.038,202.228 193.139,201 C192.212,200.401 191.944,199.164 192.543,198.236 C193.141,197.308 194.374,197.039 195.305,197.637 C196.374,198.325 201.708,201.969 201.627,206.151 C201.605,207.243 200.714,208.113 199.628,208.113" id="Fill-81" fill="#3D1717"></path>
        <path d="M211.289,162.942 C207.875,162.942 204.141,160.939 203.183,160.391 C202.224,159.842 201.892,158.621 202.44,157.662 C202.988,156.705 204.208,156.372 205.168,156.919 C207.852,158.448 211.547,159.521 212.552,158.622 C213.376,157.883 214.639,157.956 215.376,158.778 C216.112,159.601 216.043,160.865 215.22,161.602 C214.124,162.583 212.735,162.942 211.289,162.942" id="Fill-82" fill="#3D1717"></path>
        <path d="M193.737,176.867 C193.737,176.866 193.737,176.862 193.737,176.862 L193.735,176.875 C193.736,176.872 193.737,176.87 193.737,176.867" id="Fill-83" fill="#B3BA4B"></path>
        <path d="M193.737,176.867 C193.737,176.866 193.737,176.862 193.737,176.862 L193.735,176.875 C193.736,176.872 193.737,176.87 193.737,176.867" id="Fill-84" fill="#B3BA4B"></path>
    </g>
</svg>