<?xml version="1.0" encoding="UTF-8"?>
<svg width="298px" height="298px" viewBox="0 0 298 298" version="1.1" xmlns="http://www.w3.org/2000/svg" xmlns:xlink="http://www.w3.org/1999/xlink">
    <!-- Generator: Sketch 50.2 (55047) - http://www.bohemiancoding.com/sketch -->
    <title>ghosthouse</title>
    <desc>Created with Sketch.</desc>
    <defs></defs>
    <g id="ghosthouse" stroke="none" stroke-width="1" fill="none" fill-rule="evenodd">
        <path d="M162.079,106.79 C162.079,110.311 160.852,113.165 159.339,113.165 C157.826,113.165 156.6,110.311 156.6,106.79 C156.6,103.269 157.826,100.415 159.339,100.415 C160.852,100.415 162.079,103.269 162.079,106.79" id="Fill-4" fill="#FFFFFE"></path>
        <path d="M146.39,106.79 C146.39,110.311 145.164,113.165 143.651,113.165 C142.138,113.165 140.912,110.311 140.912,106.79 C140.912,103.269 142.138,100.415 143.651,100.415 C145.164,100.415 146.39,103.269 146.39,106.79" id="Fill-5" fill="#FFFFFE"></path>
        <path d="M136.196,35.386 C136.196,35.386 139.51,27.153 152.984,28.971 C152.984,28.971 149.299,38.555 156.192,40.091 C159.548,40.84 158.331,36.028 158.331,36.028 C158.331,36.028 159.614,36.669 160.791,38.274 L160.791,36.563 C160.791,36.563 161.806,36.186 163.731,40.17 C165.656,44.155 171.751,40.199 171.644,38.327 C171.537,36.455 168.716,34.431 180.413,33.622 C188.914,33.034 189.234,38.862 189.234,38.862 C189.234,38.862 186.401,35.975 179.45,37.258 C179.45,37.258 183.781,39.45 183.139,41.322 C183.139,41.322 175.047,37.295 173.943,41.885 C173.462,43.888 175.28,45.599 175.28,45.599 C175.28,45.599 170.254,44.316 169.506,48.004 C169.506,48.004 163.464,42.765 160.469,50.143 C160.469,50.143 158.277,42.284 150.631,44.368 C150.631,44.368 151.327,34.906 144.697,40.519 C144.697,40.519 147.203,35.034 144.483,33.996 C141.543,32.873 136.196,35.386 136.196,35.386" id="Fill-6" fill="#867A75"></path>
        <path d="M190.056,65.628 C190.056,65.628 192.275,71.4 188.125,72.326 C186.103,72.776 186.837,69.878 186.837,69.878 C186.837,69.878 186.183,70.211 185.527,71.015 C184.872,70.211 184.217,69.878 184.217,69.878 C184.217,69.878 184.951,72.776 182.929,72.326 C178.779,71.4 180.998,65.628 180.998,65.628 C172.884,64.534 170.887,69.492 170.887,69.492 C170.887,69.492 174.107,67.979 175.879,68.655 C177.516,69.28 176.007,72.583 176.007,72.583 C180,69.202 179.582,74.901 179.582,74.901 C184.186,73.646 185.506,78.378 185.506,78.378 L185.527,78.333 L185.548,78.378 C185.548,78.378 186.869,73.646 191.473,74.901 C191.473,74.901 191.054,69.202 195.048,72.583 C195.048,72.583 193.539,69.28 195.176,68.655 C196.947,67.979 200.167,69.492 200.167,69.492 C200.167,69.492 198.171,64.534 190.056,65.628" id="Fill-7" fill="#867A75"></path>
        <path d="M162.084,106.794 C162.084,103.268 160.848,100.419 159.344,100.419 C157.83,100.419 156.605,103.268 156.605,106.794 C156.605,110.311 157.83,113.169 159.344,113.169 C160.848,113.169 162.084,110.311 162.084,106.794 Z M49.255,119.406 C46.565,120.232 37.351,122.812 37.281,119.176 C37.192,114.923 45.997,113.767 45.997,113.767 L46.087,113.518 C44.025,112.831 42.023,111.696 40.966,109.823 C38.277,105.001 42.899,104.863 45.14,104.673 C48.029,104.424 60.192,108.16 65.83,118.828 C65.83,118.828 75.412,141.001 82.763,146.888 C91.479,153.861 109.29,154.608 115.515,142.655 C121.741,130.702 119.789,117.234 121.492,107.541 C123.235,97.58 130.208,82.39 150.001,82.39 C169.803,82.39 177.314,92.829 179.515,101.316 C181.776,110.062 180.671,127.683 189.227,137.176 C197.196,146.011 210.643,150.125 211.51,136.678 C212.386,123.23 204.288,114.016 201.927,104.802 C199.716,96.216 199.556,83.007 206.908,74.67 C210.454,70.626 213.591,68.245 215.484,69.69 C217.426,71.184 216.371,72.609 213.133,77.031 C206.659,85.876 209.02,88.367 211.141,86.623 C213.254,84.88 218.343,70.785 223.841,74.54 C228.573,77.778 216.231,84.781 216.849,90.638 C218.692,89.951 220.395,89.731 221.531,90.479 C221.531,90.479 227.289,82.639 231.183,85.786 C235.088,88.945 221.809,93.755 220.066,102.143 C218.323,110.53 220.226,116.088 224.05,118.747 C227.866,121.398 240.278,121.358 240.526,130.821 C240.775,140.284 233.304,139.287 229.53,145.892 C226.442,151.29 227.787,158.831 239.66,161.082 C260.07,164.937 265.05,177.14 256.086,187.35 C247.489,197.141 235.915,191.712 234.172,182 C234.172,182 240.029,196.693 250.239,186.234 C259.303,176.941 241.134,169.699 236.164,169.051 C210.394,165.684 220.355,190.089 236.164,198.934 C247.24,205.12 250.607,220.849 234.3,226.447 C218.961,231.716 216.74,244.675 230.934,248.571 C230.934,248.571 239.541,257.844 228.015,264.12 L228.015,264.129 C223.962,264.1 219.957,264.079 215.993,264.079 L215.993,222.343 L219.359,222.343 L192.086,187.35 L151.624,187.35 L124.849,222.343 L127.428,222.343 L127.428,266.112 C119.729,266.46 112.667,266.828 106.341,267.198 L106.341,267.188 C127.428,266.102 117.627,230.72 99.04,226.078 C80.442,221.426 80.442,197.191 80.442,197.191 C80.442,197.191 80.114,212.292 65.173,212.292 C64.355,212.292 63.579,212.272 62.841,212.222 C62.841,212.222 86.807,202.6 68.45,184.242 C61.725,177.518 53.877,193.785 49.892,173.534 C45.908,153.273 66.169,159.668 64.176,145.722 C62.184,131.777 54.215,128.788 54.215,128.788 L54.135,128.639 C50.111,130.054 46.027,130.661 45.33,128.788 C45.33,128.788 42.033,131.02 40.598,128.788 C39.144,126.537 41.415,122.045 49.255,119.406 Z M146.156,109.394 L146.166,109.315 C146.315,108.548 146.394,107.691 146.394,106.794 C146.394,103.268 145.16,100.419 143.655,100.419 C142.141,100.419 140.916,103.268 140.916,106.794 C140.916,110.311 142.141,113.169 143.655,113.169 C144.761,113.169 145.727,111.616 146.156,109.394 Z M49.603,119.295 C49.494,119.335 49.394,119.366 49.284,119.395 C49.404,119.366 49.513,119.326 49.603,119.295 Z" id="Fill-8" fill="#A6D8D7"></path>
        <polyline id="Fill-9" fill="#D9CEDD" points="192.086 187.35 219.359 222.343 215.993 222.343 215.993 222.094 192.584 191.463 168.179 222.094 168.179 222.343 163.946 222.343 192.086 187.35"></polyline>
        <path d="M175.571,235.452 L183.211,235.452 L183.211,222.343 L175.571,222.343 L175.571,235.452 Z M179.385,253.969 L187.026,253.969 L187.026,240.85 L179.385,240.85 L179.385,253.969 Z M196.319,207.192 C196.319,204.373 195.154,202.082 193.71,202.082 C192.265,202.082 191.089,204.373 191.089,207.192 C191.089,210.011 192.265,212.292 193.71,212.292 C195.154,212.292 196.319,210.011 196.319,207.192 Z M199.228,235.452 L206.868,235.452 L206.868,222.343 L199.228,222.343 L199.228,235.452 Z M209.886,264.079 L209.886,260.603 L206.868,260.603 L206.868,245.333 L199.228,245.333 L199.228,264.079 L209.886,264.079 Z M215.993,222.343 L215.993,264.079 C199.089,264.079 183.031,264.309 168.179,264.677 L168.179,222.094 L192.584,191.463 L215.993,222.094 L215.993,222.343 Z" id="Fill-10" fill="#F5DCB1"></path>
        <polygon id="Fill-11" fill="#CAB090" points="199.228 264.079 209.886 264.079 209.886 260.603 199.228 260.603"></polygon>
        <polyline id="Fill-12" fill="#C2B3CD" points="206.868 260.105 206.868 260.603 199.228 260.603 199.228 245.333 206.868 245.333 206.868 260.105"></polyline>
        <polygon id="Fill-13" fill="#EFC47C" points="199.228 235.452 206.868 235.452 206.868 224.674 199.228 224.674"></polygon>
        <polygon id="Fill-14" fill="#D9CEDD" points="199.228 224.674 206.868 224.674 206.868 222.343 199.228 222.343"></polygon>
        <path d="M196.319,207.192 L193.71,207.192 L193.71,202.082 C195.154,202.082 196.319,204.373 196.319,207.192" id="Fill-15" fill="#EFC47C"></path>
        <path d="M193.71,207.192 L196.319,207.192 C196.319,210.011 195.154,212.292 193.71,212.292 L193.71,207.192" id="Fill-16" fill="#EFC47C"></path>
        <path d="M193.71,207.192 L193.71,212.292 C192.265,212.292 191.089,210.011 191.089,207.192 L193.71,207.192" id="Fill-17" fill="#EFC47C"></path>
        <path d="M193.71,202.082 L193.71,207.192 L191.089,207.192 C191.089,204.373 192.265,202.082 193.71,202.082" id="Fill-18" fill="#EFC47C"></path>
        <path d="M160.27,208.019 L167.064,194.572 L153.487,194.572 L145.647,208.019 L160.27,208.019 Z M192.086,187.35 L163.946,222.343 L124.849,222.343 L151.624,187.35 L192.086,187.35 Z" id="Fill-19" fill="#C2B3CD"></path>
        <polygon id="Fill-20" fill="#EFC47C" points="179.385 253.969 187.026 253.969 187.026 243.181 179.385 243.181"></polygon>
        <polygon id="Fill-21" fill="#D9CEDD" points="179.385 243.181 187.026 243.181 187.026 240.85 179.385 240.85"></polygon>
        <polygon id="Fill-22" fill="#EFC47C" points="175.571 235.452 183.211 235.452 183.211 224.674 175.571 224.674"></polygon>
        <polygon id="Fill-23" fill="#D9CEDD" points="175.571 224.674 183.211 224.674 183.211 222.343 175.571 222.343"></polygon>
        <path d="M168.179,264.667 L168.179,264.677 C153.248,265.046 139.542,265.554 127.428,266.112 L127.428,222.343 L168.179,222.343 L168.179,264.667" id="Fill-24" fill="#CAB090"></path>
        <polyline id="Fill-25" fill="#D9CEDD" points="167.064 194.572 160.27 208.019 153.487 194.572 167.064 194.572"></polyline>
        <polyline id="Fill-26" fill="#CAB090" points="153.487 194.572 160.27 208.019 155.609 208.019 155.609 202.749 151.375 202.749 151.375 208.019 145.647 208.019 153.487 194.572"></polyline>
        <polygon id="Fill-27" fill="#EFC47C" points="151.375 208.019 155.609 208.019 155.609 204.203 151.375 204.203"></polygon>
        <polygon id="Fill-28" fill="#D9CEDD" points="151.375 204.203 155.609 204.203 155.609 202.749 151.375 202.749"></polygon>
        <path d="M70.857,270.152 C70.86,270.151 71.825,270.065 73.683,269.912 C86.691,268.846 143.261,264.577 215.421,264.577 C226.796,264.577 238.559,264.683 250.599,264.924 C250.875,264.93 251.103,264.71 251.109,264.434 C251.114,264.158 250.895,263.93 250.619,263.924 C238.572,263.683 226.803,263.577 215.421,263.577 C132.908,263.577 70.777,269.155 70.767,269.156 C70.492,269.18 70.289,269.423 70.314,269.698 C70.339,269.973 70.582,270.176 70.857,270.152" id="Fill-29" fill="#3D1717"></path>
        <path d="M216.495,264.077 L216.495,222.089 C216.495,221.98 216.458,221.872 216.392,221.786 L192.983,191.156 C192.89,191.034 192.744,190.961 192.591,190.959 C192.437,190.958 192.29,191.028 192.195,191.148 L167.79,221.778 C167.72,221.866 167.681,221.976 167.681,222.089 L167.681,264.669 C167.681,264.945 167.905,265.169 168.181,265.169 C168.457,265.169 168.681,264.945 168.681,264.669 L168.681,222.264 L192.577,192.272 L215.495,222.258 L215.495,264.077 C215.495,264.353 215.719,264.577 215.995,264.577 C216.271,264.577 216.495,264.353 216.495,264.077" id="Fill-30" fill="#3D1717"></path>
        <path d="M215.995,222.838 L219.356,222.838 C219.547,222.838 219.721,222.73 219.805,222.558 C219.889,222.386 219.868,222.182 219.75,222.031 L192.482,187.043 C192.387,186.921 192.245,186.851 192.091,186.85 C191.938,186.849 191.794,186.917 191.698,187.037 L163.558,222.025 C163.437,222.175 163.414,222.38 163.497,222.554 C163.58,222.728 163.755,222.838 163.948,222.838 L167.766,222.838 C168.042,222.838 168.266,222.614 168.266,222.338 C168.266,222.062 168.042,221.838 167.766,221.838 L164.992,221.838 L192.081,188.155 L218.332,221.838 L215.995,221.838 C215.719,221.838 215.495,222.062 215.495,222.338 C215.495,222.614 215.719,222.838 215.995,222.838" id="Fill-31" fill="#3D1717"></path>
        <path d="M192.088,186.85 L151.621,186.85 C151.465,186.85 151.318,186.923 151.224,187.046 L124.454,222.034 C124.339,222.185 124.319,222.39 124.403,222.56 C124.487,222.73 124.661,222.838 124.851,222.838 L163.948,222.838 C164.224,222.838 164.448,222.614 164.448,222.338 C164.448,222.062 164.224,221.838 163.948,221.838 L125.863,221.838 L151.868,187.85 L192.088,187.85 C192.364,187.85 192.588,187.626 192.588,187.35 C192.588,187.074 192.364,186.85 192.088,186.85" id="Fill-32" fill="#3D1717"></path>
        <path d="M167.061,194.572 L167.061,194.072 L153.489,194.072 C153.315,194.072 153.154,194.162 153.063,194.31 C152.972,194.458 152.964,194.642 153.043,194.797 L159.829,208.244 C159.913,208.412 160.087,208.519 160.275,208.519 C160.463,208.519 160.637,208.412 160.721,208.244 L167.508,194.797 C167.586,194.642 167.578,194.458 167.487,194.31 C167.396,194.162 167.235,194.072 167.061,194.072 L167.061,194.572 L166.615,194.346 L160.275,206.909 L154.301,195.072 L167.061,195.072 L167.061,194.572 L166.615,194.346 L167.061,194.572" id="Fill-33" fill="#3D1717"></path>
        <path d="M153.057,194.32 L145.212,207.767 C145.122,207.921 145.122,208.113 145.211,208.268 C145.3,208.423 145.466,208.519 145.644,208.519 L160.275,208.519 C160.551,208.519 160.775,208.295 160.775,208.019 C160.775,207.743 160.551,207.519 160.275,207.519 L146.515,207.519 L153.921,194.824 C154.06,194.585 153.979,194.279 153.741,194.14 C153.502,194.001 153.196,194.081 153.057,194.32" id="Fill-34" fill="#3D1717"></path>
        <path d="M151.372,202.748 L151.372,203.248 L155.105,203.248 L155.105,207.519 L151.872,207.519 L151.872,202.748 L151.372,202.748 L151.372,203.248 L151.372,202.748 L150.872,202.748 L150.872,208.019 C150.872,208.151 150.925,208.279 151.018,208.372 C151.111,208.466 151.24,208.519 151.372,208.519 L155.605,208.519 C155.737,208.519 155.866,208.466 155.959,208.372 C156.052,208.279 156.105,208.151 156.105,208.019 L156.105,202.748 C156.105,202.617 156.052,202.488 155.959,202.395 C155.866,202.302 155.737,202.248 155.605,202.248 L151.372,202.248 C151.24,202.248 151.111,202.302 151.018,202.395 C150.925,202.488 150.872,202.617 150.872,202.748 L151.372,202.748" id="Fill-35" fill="#3D1717"></path>
        <path d="M151.372,204.202 L151.372,204.702 L155.105,204.702 L155.105,207.519 L151.872,207.519 L151.872,204.202 L151.372,204.202 L151.372,204.702 L151.372,204.202 L150.872,204.202 L150.872,208.019 C150.872,208.151 150.925,208.279 151.018,208.372 C151.111,208.466 151.24,208.519 151.372,208.519 L155.605,208.519 C155.737,208.519 155.866,208.466 155.959,208.372 C156.052,208.279 156.105,208.151 156.105,208.019 L156.105,204.202 C156.105,204.071 156.052,203.942 155.959,203.849 C155.866,203.756 155.737,203.702 155.605,203.702 L151.372,203.702 C151.24,203.702 151.111,203.756 151.018,203.849 C150.925,203.942 150.872,204.071 150.872,204.202 L151.372,204.202" id="Fill-36" fill="#3D1717"></path>
        <path d="M187.024,253.964 L187.024,253.464 L179.887,253.464 L179.887,241.349 L186.524,241.349 L186.524,253.964 L187.024,253.964 L187.024,253.464 L187.024,253.964 L187.524,253.964 L187.524,240.849 C187.524,240.717 187.471,240.589 187.378,240.495 C187.285,240.402 187.156,240.349 187.024,240.349 L179.387,240.349 C179.256,240.349 179.127,240.402 179.034,240.495 C178.941,240.589 178.887,240.717 178.887,240.849 L178.887,253.964 C178.887,254.096 178.941,254.225 179.034,254.318 C179.127,254.411 179.256,254.464 179.387,254.464 L187.024,254.464 C187.156,254.464 187.285,254.411 187.378,254.318 C187.471,254.225 187.524,254.096 187.524,253.964 L187.024,253.964" id="Fill-37" fill="#3D1717"></path>
        <path d="M187.024,253.964 L187.024,253.464 L179.887,253.464 L179.887,243.683 L186.524,243.683 L186.524,253.964 L187.024,253.964 L187.024,253.464 L187.024,253.964 L187.524,253.964 L187.524,243.183 C187.524,243.051 187.471,242.923 187.378,242.829 C187.285,242.736 187.156,242.683 187.024,242.683 L179.387,242.683 C179.256,242.683 179.127,242.736 179.034,242.829 C178.941,242.923 178.887,243.051 178.887,243.183 L178.887,253.964 C178.887,254.096 178.941,254.225 179.034,254.318 C179.127,254.411 179.256,254.464 179.387,254.464 L187.024,254.464 C187.156,254.464 187.285,254.411 187.378,254.318 C187.471,254.225 187.524,254.096 187.524,253.964 L187.024,253.964" id="Fill-38" fill="#3D1717"></path>
        <path d="M183.206,235.453 L183.206,234.953 L176.069,234.953 L176.069,222.838 L182.706,222.838 L182.706,235.453 L183.206,235.453 L183.206,234.953 L183.206,235.453 L183.706,235.453 L183.706,222.338 C183.706,222.207 183.652,222.078 183.559,221.985 C183.466,221.892 183.337,221.838 183.206,221.838 L175.569,221.838 C175.437,221.838 175.309,221.892 175.215,221.985 C175.122,222.078 175.069,222.207 175.069,222.338 L175.069,235.453 C175.069,235.585 175.122,235.714 175.215,235.807 C175.309,235.9 175.437,235.953 175.569,235.953 L183.206,235.953 C183.337,235.953 183.466,235.9 183.559,235.807 C183.652,235.714 183.706,235.585 183.706,235.453 L183.206,235.453" id="Fill-39" fill="#3D1717"></path>
        <path d="M183.206,235.453 L183.206,234.953 L176.069,234.953 L176.069,225.172 L182.706,225.172 L182.706,235.453 L183.206,235.453 L183.206,234.953 L183.206,235.453 L183.706,235.453 L183.706,224.672 C183.706,224.541 183.652,224.412 183.559,224.319 C183.466,224.226 183.337,224.172 183.206,224.172 L175.569,224.172 C175.437,224.172 175.309,224.226 175.215,224.319 C175.122,224.412 175.069,224.541 175.069,224.672 L175.069,235.453 C175.069,235.585 175.122,235.714 175.215,235.807 C175.309,235.9 175.437,235.953 175.569,235.953 L183.206,235.953 C183.337,235.953 183.466,235.9 183.559,235.807 C183.652,235.714 183.706,235.585 183.706,235.453 L183.206,235.453" id="Fill-40" fill="#3D1717"></path>
        <path d="M206.864,235.453 L206.864,234.953 L199.726,234.953 L199.726,222.838 L206.364,222.838 L206.364,235.453 L206.864,235.453 L206.864,234.953 L206.864,235.453 L207.364,235.453 L207.364,222.338 C207.364,222.207 207.311,222.078 207.217,221.985 C207.124,221.892 206.996,221.838 206.864,221.838 L199.226,221.838 C199.095,221.838 198.966,221.892 198.873,221.985 C198.78,222.078 198.726,222.207 198.726,222.338 L198.726,235.453 C198.726,235.585 198.78,235.714 198.873,235.807 C198.966,235.9 199.095,235.953 199.226,235.953 L206.864,235.953 C206.996,235.953 207.124,235.9 207.217,235.807 C207.311,235.714 207.364,235.585 207.364,235.453 L206.864,235.453" id="Fill-41" fill="#3D1717"></path>
        <path d="M206.864,235.453 L206.864,234.953 L199.726,234.953 L199.726,225.172 L206.364,225.172 L206.364,235.453 L206.864,235.453 L206.864,234.953 L206.864,235.453 L207.364,235.453 L207.364,224.672 C207.364,224.541 207.311,224.412 207.217,224.319 C207.124,224.226 206.996,224.172 206.864,224.172 L199.226,224.172 C199.095,224.172 198.966,224.226 198.873,224.319 C198.78,224.412 198.726,224.541 198.726,224.672 L198.726,235.453 C198.726,235.585 198.78,235.714 198.873,235.807 C198.966,235.9 199.095,235.953 199.226,235.953 L206.864,235.953 C206.996,235.953 207.124,235.9 207.217,235.807 C207.311,235.714 207.364,235.585 207.364,235.453 L206.864,235.453" id="Fill-42" fill="#3D1717"></path>
        <path d="M199.726,264.077 L199.726,245.831 L206.364,245.831 L206.364,260.108 C206.364,260.384 206.588,260.608 206.864,260.608 C207.14,260.608 207.364,260.384 207.364,260.108 L207.364,245.331 C207.364,245.2 207.311,245.071 207.217,244.978 C207.124,244.885 206.996,244.831 206.864,244.831 L199.226,244.831 C199.095,244.831 198.966,244.885 198.873,244.978 C198.78,245.071 198.726,245.2 198.726,245.331 L198.726,264.077 C198.726,264.353 198.95,264.577 199.226,264.577 C199.502,264.577 199.726,264.353 199.726,264.077" id="Fill-43" fill="#3D1717"></path>
        <path d="M209.889,264.077 L209.889,263.577 L199.726,263.577 L199.726,261.102 L209.389,261.102 L209.389,264.077 L209.889,264.077 L209.889,263.577 L209.889,264.077 L210.389,264.077 L210.389,260.602 C210.389,260.47 210.336,260.341 210.243,260.248 C210.15,260.155 210.021,260.102 209.889,260.102 L199.226,260.102 C199.095,260.102 198.966,260.155 198.873,260.248 C198.78,260.341 198.726,260.47 198.726,260.602 L198.726,264.077 C198.726,264.208 198.78,264.337 198.873,264.43 C198.966,264.523 199.095,264.577 199.226,264.577 L209.889,264.577 C210.021,264.577 210.15,264.523 210.243,264.43 C210.336,264.337 210.389,264.208 210.389,264.077 L209.889,264.077" id="Fill-44" fill="#3D1717"></path>
        <path d="M196.321,207.189 L195.821,207.189 C195.822,208.529 195.538,209.739 195.11,210.571 C194.898,210.988 194.65,211.307 194.406,211.508 C194.159,211.709 193.933,211.793 193.707,211.794 C193.481,211.793 193.254,211.709 193.007,211.508 C192.639,211.208 192.27,210.636 192.011,209.88 C191.749,209.126 191.591,208.194 191.591,207.189 C191.59,205.849 191.874,204.64 192.302,203.807 C192.515,203.391 192.763,203.072 193.007,202.871 C193.254,202.669 193.481,202.585 193.707,202.584 C193.933,202.585 194.159,202.669 194.406,202.871 C194.774,203.171 195.143,203.743 195.402,204.498 C195.663,205.253 195.821,206.184 195.821,207.189 L196.821,207.189 C196.82,205.71 196.518,204.367 196,203.351 C195.74,202.844 195.424,202.416 195.043,202.1 C194.664,201.785 194.203,201.583 193.707,201.584 C193.21,201.583 192.749,201.785 192.37,202.1 C191.799,202.575 191.37,203.297 191.066,204.171 C190.763,205.046 190.592,206.079 190.591,207.189 C190.593,208.669 190.894,210.012 191.412,211.027 C191.673,211.535 191.989,211.963 192.37,212.279 C192.749,212.594 193.21,212.795 193.707,212.794 C194.203,212.795 194.664,212.594 195.043,212.279 C195.614,211.803 196.043,211.081 196.347,210.207 C196.649,209.332 196.821,208.298 196.821,207.189 L196.321,207.189" id="Fill-45" fill="#3D1717"></path>
        <path d="M191.091,207.689 L196.321,207.689 C196.597,207.689 196.821,207.465 196.821,207.189 C196.821,206.913 196.597,206.689 196.321,206.689 L191.091,206.689 C190.815,206.689 190.591,206.913 190.591,207.189 C190.591,207.465 190.815,207.689 191.091,207.689" id="Fill-46" fill="#3D1717"></path>
        <path d="M193.207,202.084 L193.207,212.294 C193.207,212.57 193.431,212.794 193.707,212.794 C193.983,212.794 194.207,212.57 194.207,212.294 L194.207,202.084 C194.207,201.808 193.983,201.584 193.707,201.584 C193.431,201.584 193.207,201.808 193.207,202.084" id="Fill-47" fill="#3D1717"></path>
        <path d="M126.924,222.338 L126.924,266.106 C126.924,266.382 127.148,266.606 127.424,266.606 C127.701,266.606 127.924,266.382 127.924,266.106 L127.924,222.338 C127.924,222.062 127.701,221.838 127.424,221.838 C127.148,221.838 126.924,222.062 126.924,222.338" id="Fill-48" fill="#3D1717"></path>
        <path d="M86.251,245.299 C86.25,245.308 86.226,245.675 86.226,246.308 C86.229,248.476 86.496,253.769 88.963,258.59 C90.198,260.998 91.993,263.29 94.586,264.975 C97.178,266.661 100.558,267.728 104.912,267.727 C105.384,267.727 105.867,267.715 106.362,267.689 C110.67,267.473 113.81,265.83 115.824,263.29 C117.839,260.752 118.731,257.37 118.732,253.692 C118.729,248.127 116.698,241.848 113.249,236.576 C109.799,231.308 104.918,227.033 99.156,225.589 C94.608,224.45 91.218,222.127 88.658,219.266 C84.821,214.976 82.878,209.451 81.91,204.995 C81.425,202.768 81.183,200.809 81.062,199.411 C81.001,198.712 80.971,198.153 80.956,197.77 C80.949,197.579 80.945,197.431 80.943,197.333 C80.941,197.234 80.941,197.187 80.941,197.187 C80.941,196.912 80.721,196.69 80.447,196.687 C80.172,196.684 79.947,196.901 79.941,197.176 C79.941,197.176 79.94,197.224 79.934,197.329 C79.894,198.116 79.578,201.785 77.587,205.196 C76.592,206.904 75.187,208.546 73.189,209.767 C71.19,210.987 68.591,211.793 65.168,211.794 C57.781,211.791 54.123,209.803 52.288,207.901 C51.368,206.947 50.897,206.004 50.652,205.302 C50.529,204.952 50.464,204.662 50.43,204.465 C50.413,204.366 50.404,204.291 50.399,204.242 L50.394,204.19 L50.394,204.182 C50.382,203.906 50.15,203.692 49.874,203.703 C49.598,203.714 49.383,203.947 49.395,204.223 C49.397,204.295 49.503,206.452 51.568,208.595 C53.634,210.74 57.613,212.798 65.168,212.794 C68.986,212.796 71.918,211.824 74.134,210.35 C77.462,208.138 79.158,204.839 80.025,202.119 C80.892,199.395 80.94,197.229 80.941,197.198 L80.441,197.187 L79.941,197.187 C79.942,197.219 79.94,203.323 82.293,210.052 C83.471,213.417 85.241,216.941 87.913,219.932 C90.583,222.923 94.165,225.373 98.913,226.559 C104.344,227.913 109.062,232.003 112.412,237.123 C115.764,242.239 117.735,248.37 117.732,253.692 C117.732,257.214 116.874,260.365 115.041,262.668 C113.206,264.968 110.398,266.475 106.311,266.69 C105.833,266.715 105.366,266.727 104.912,266.727 C100.719,266.726 97.552,265.709 95.131,264.137 C91.503,261.78 89.523,258.133 88.451,254.648 C87.379,251.167 87.226,247.87 87.226,246.308 C87.226,246.004 87.232,245.766 87.238,245.604 C87.243,245.443 87.249,245.364 87.249,245.364 C87.267,245.088 87.058,244.85 86.782,244.832 C86.507,244.814 86.269,245.023 86.251,245.299" id="Fill-49" fill="#3D1717"></path>
        <path d="M63.025,212.684 C63.051,212.673 66.219,211.403 69.415,208.883 C71.012,207.621 72.618,206.045 73.834,204.143 C75.05,202.242 75.872,200.006 75.871,197.465 C75.871,193.566 73.942,189.024 68.8,183.884 C67.405,182.479 65.875,181.979 64.404,181.986 C62.972,181.988 61.595,182.421 60.288,182.832 C58.983,183.246 57.746,183.634 56.649,183.631 C56.038,183.63 55.473,183.518 54.925,183.236 C54.105,182.812 53.288,181.981 52.51,180.427 C51.733,178.877 51.011,176.62 50.385,173.433 C50.032,171.638 49.874,170.063 49.874,168.676 C49.877,165.348 50.771,163.109 52.102,161.389 C54.098,158.809 57.18,157.406 59.858,155.657 C61.194,154.78 62.43,153.807 63.34,152.514 C64.252,151.223 64.813,149.612 64.81,147.561 C64.81,146.963 64.763,146.328 64.667,145.65 C63.66,138.59 61.124,134.253 58.816,131.69 C56.508,129.127 54.442,128.34 54.386,128.319 C54.128,128.222 53.839,128.353 53.742,128.612 C53.646,128.87 53.777,129.159 54.035,129.256 L54.047,129.26 C54.226,129.332 56.156,130.145 58.277,132.591 C60.398,135.038 62.722,139.121 63.676,145.792 C63.767,146.427 63.81,147.015 63.81,147.561 C63.802,150.058 62.947,151.664 61.622,153.002 C59.634,155.008 56.496,156.282 53.794,158.353 C52.446,159.391 51.206,160.646 50.311,162.312 C49.415,163.978 48.873,166.046 48.874,168.676 C48.874,170.139 49.04,171.778 49.404,173.626 C50.256,177.947 51.277,180.655 52.489,182.338 C53.096,183.177 53.758,183.759 54.466,184.124 C55.172,184.49 55.914,184.632 56.649,184.631 C57.974,184.628 59.287,184.194 60.589,183.785 C61.891,183.373 63.18,182.984 64.404,182.986 C65.663,182.993 66.854,183.363 68.092,184.591 C73.122,189.624 74.871,193.912 74.871,197.465 C74.87,199.787 74.126,201.827 72.992,203.605 C71.292,206.27 68.703,208.322 66.536,209.694 C65.453,210.38 64.478,210.898 63.775,211.243 C63.424,211.415 63.14,211.545 62.946,211.63 C62.849,211.673 62.775,211.705 62.725,211.726 L62.652,211.756 C62.396,211.859 62.272,212.15 62.375,212.406 C62.477,212.663 62.768,212.787 63.025,212.684" id="Fill-50" fill="#3D1717"></path>
        <path d="M55.555,116.637 L55.559,116.651 C55.582,116.743 55.696,117.233 55.696,117.902 C55.696,118.476 55.613,119.179 55.329,119.883 C55.044,120.587 54.566,121.296 53.745,121.913 C53.348,122.215 52.57,122.545 51.657,122.872 C50.282,123.369 48.594,123.888 47.21,124.613 C46.517,124.978 45.895,125.394 45.424,125.917 C44.954,126.435 44.64,127.088 44.642,127.831 C44.642,128.195 44.715,128.574 44.861,128.963 C45.067,129.525 45.524,129.924 46.065,130.146 C46.609,130.372 47.249,130.458 47.963,130.459 C49.748,130.456 52.033,129.905 54.303,129.107 C56.571,128.307 58.81,127.257 60.455,126.222 C60.688,126.075 60.758,125.766 60.611,125.533 C60.464,125.299 60.155,125.229 59.922,125.376 C58.365,126.357 56.173,127.388 53.971,128.164 C51.771,128.942 49.544,129.462 47.963,129.459 C47.333,129.46 46.811,129.375 46.451,129.223 C46.088,129.066 45.901,128.879 45.797,128.612 C45.687,128.319 45.642,128.062 45.642,127.831 C45.644,127.218 45.956,126.711 46.573,126.204 C47.491,125.451 49.034,124.85 50.532,124.327 C51.282,124.063 52.021,123.814 52.677,123.558 C53.334,123.299 53.906,123.039 54.345,122.713 C55.316,121.985 55.914,121.11 56.257,120.256 C56.6,119.402 56.696,118.571 56.696,117.902 C56.696,117.009 56.526,116.398 56.518,116.368 C56.444,116.102 56.168,115.946 55.902,116.021 C55.636,116.095 55.481,116.371 55.555,116.637" id="Fill-51" fill="#3D1717"></path>
        <path d="M45.048,128.374 L45.037,128.381 C44.97,128.425 44.607,128.658 44.117,128.873 C43.627,129.09 43.009,129.283 42.462,129.281 C42.17,129.281 41.902,129.229 41.666,129.114 C41.429,128.997 41.214,128.819 41.018,128.517 C40.803,128.181 40.686,127.783 40.686,127.319 C40.681,126.274 41.313,124.876 42.832,123.481 C44.347,122.086 46.73,120.7 50.124,119.655 L49.977,119.177 L49.818,118.703 C49.817,118.703 49.734,118.731 49.576,118.782 C48.476,119.14 43.769,120.574 40.606,120.567 C39.708,120.57 38.944,120.446 38.469,120.206 C38.23,120.087 38.066,119.948 37.957,119.788 C37.849,119.628 37.784,119.44 37.777,119.167 L37.776,119.117 C37.778,118.25 38.213,117.535 38.963,116.888 C40.082,115.924 41.871,115.242 43.368,114.831 C44.117,114.624 44.794,114.48 45.281,114.388 C45.524,114.343 45.721,114.31 45.855,114.289 C45.989,114.268 46.058,114.259 46.058,114.259 C46.332,114.223 46.525,113.971 46.489,113.698 C46.452,113.424 46.201,113.231 45.927,113.267 C45.907,113.271 43.703,113.56 41.46,114.396 C40.337,114.816 39.202,115.37 38.313,116.128 C37.429,116.878 36.775,117.883 36.776,119.117 L36.777,119.187 C36.784,119.623 36.907,120.026 37.132,120.353 C37.47,120.846 37.997,121.145 38.59,121.322 C39.187,121.5 39.869,121.567 40.606,121.567 C42.568,121.565 44.932,121.084 46.825,120.607 C48.717,120.13 50.129,119.654 50.137,119.651 C50.396,119.564 50.537,119.284 50.453,119.024 C50.369,118.764 50.091,118.619 49.83,118.699 C46.324,119.779 43.811,121.222 42.155,122.745 C40.504,124.268 39.691,125.878 39.686,127.319 C39.685,127.954 39.851,128.552 40.177,129.058 C40.46,129.501 40.827,129.819 41.228,130.013 C41.628,130.208 42.054,130.281 42.462,130.281 C43.281,130.278 44.05,130.002 44.63,129.739 C45.208,129.473 45.594,129.212 45.61,129.201 C45.838,129.046 45.897,128.735 45.743,128.507 C45.588,128.278 45.277,128.219 45.048,128.374" id="Fill-52" fill="#3D1717"></path>
        <path d="M52.665,114.093 L52.657,114.093 C52.534,114.094 50.305,114.083 47.814,113.495 C45.313,112.912 42.601,111.734 41.407,109.575 C40.852,108.587 40.648,107.842 40.65,107.319 C40.654,106.838 40.797,106.536 41.045,106.269 C41.414,105.872 42.106,105.596 42.889,105.441 C43.669,105.281 44.516,105.229 45.185,105.171 C45.258,105.165 45.342,105.162 45.436,105.162 C46.18,105.159 47.505,105.387 49.11,105.898 C53.944,107.427 61.382,111.471 65.39,119.06 L65.832,118.827 L65.373,119.025 C65.376,119.032 67.774,124.584 71.098,130.882 C72.761,134.031 74.654,137.367 76.6,140.294 C78.549,143.222 80.54,145.74 82.453,147.274 C86.516,150.519 92.424,152.421 98.292,152.424 C101.832,152.424 105.361,151.728 108.455,150.186 C111.548,148.644 114.204,146.247 115.956,142.881 C119.114,136.815 120.191,130.389 120.697,124.289 C121.202,118.188 121.143,112.402 121.981,107.624 C122.84,102.71 124.997,96.502 129.351,91.556 C133.709,86.611 140.233,82.891 150.003,82.885 C159.816,82.887 166.518,85.467 171.048,89.058 C175.577,92.65 177.952,97.278 179.028,101.437 C180.14,105.721 180.436,112.325 181.514,119.042 C182.599,125.761 184.466,132.631 188.853,137.506 C191.04,139.932 193.627,142.004 196.273,143.478 C198.919,144.951 201.624,145.832 204.073,145.834 C206.158,145.838 208.077,145.174 209.495,143.669 C210.913,142.165 211.806,139.875 212.011,136.706 C212.056,136.013 212.078,135.331 212.078,134.66 C212.078,128.374 210.194,123.019 208.051,118.169 C205.905,113.319 203.506,108.959 202.409,104.674 C201.619,101.598 201.093,97.908 201.093,94.072 C201.091,87.339 202.714,80.175 207.28,74.996 C208.688,73.397 210.024,72.067 211.216,71.153 C212.407,70.232 213.455,69.757 214.202,69.766 C214.579,69.769 214.885,69.867 215.181,70.091 C215.479,70.318 215.675,70.528 215.791,70.72 C215.907,70.914 215.955,71.087 215.957,71.306 C215.964,71.729 215.721,72.37 215.17,73.258 C214.624,74.146 213.796,75.277 212.727,76.736 C211.128,78.919 210.057,80.727 209.379,82.202 C208.702,83.677 208.414,84.815 208.411,85.695 C208.412,86.258 208.532,86.731 208.804,87.091 C209.073,87.453 209.509,87.647 209.932,87.64 C210.463,87.636 210.978,87.396 211.456,87.004 C211.764,86.747 212.043,86.379 212.36,85.908 C213.452,84.272 214.901,81.36 216.594,78.86 C217.437,77.612 218.339,76.473 219.253,75.668 C220.17,74.858 221.077,74.404 221.934,74.407 C222.455,74.408 222.983,74.564 223.556,74.954 C223.889,75.182 224.101,75.414 224.232,75.644 C224.362,75.875 224.421,76.11 224.422,76.384 C224.431,77.069 223.989,78.015 223.247,79.066 C222.143,80.647 220.437,82.46 218.993,84.34 C217.556,86.225 216.341,88.181 216.329,90.2 C216.329,90.363 216.338,90.526 216.355,90.689 C216.384,90.964 216.631,91.163 216.905,91.133 C217.18,91.104 217.379,90.858 217.349,90.583 C217.336,90.456 217.329,90.329 217.329,90.2 C217.326,89.142 217.785,87.973 218.521,86.769 C219.62,84.961 221.313,83.099 222.748,81.353 C223.465,80.477 224.119,79.63 224.605,78.809 C225.088,77.989 225.418,77.191 225.422,76.384 C225.423,75.959 225.321,75.534 225.101,75.15 C224.882,74.764 224.552,74.423 224.121,74.129 C223.411,73.641 222.666,73.405 221.934,73.407 C220.542,73.413 219.293,74.208 218.161,75.32 C216.461,76.998 214.961,79.472 213.693,81.67 C213.061,82.769 212.49,83.799 211.995,84.615 C211.508,85.428 211.067,86.039 210.82,86.232 C210.468,86.526 210.133,86.644 209.932,86.64 C209.768,86.633 209.694,86.598 209.599,86.484 C209.507,86.367 209.411,86.117 209.411,85.695 C209.409,85.042 209.646,84.011 210.287,82.619 C210.927,81.226 211.965,79.469 213.534,77.327 C214.603,75.866 215.439,74.729 216.022,73.782 C216.599,72.834 216.95,72.073 216.957,71.306 C216.959,70.915 216.851,70.534 216.645,70.2 C216.44,69.864 216.15,69.573 215.789,69.297 C215.325,68.939 214.771,68.764 214.202,68.766 C213.064,68.775 211.884,69.386 210.607,70.359 C209.333,71.338 207.964,72.707 206.53,74.335 C201.738,79.782 200.094,87.188 200.093,94.072 C200.093,98 200.629,101.764 201.44,104.923 C202.589,109.385 205.017,113.771 207.136,118.573 C209.258,123.375 211.077,128.578 211.078,134.66 C211.078,135.31 211.057,135.97 211.013,136.641 C210.817,139.662 209.976,141.703 208.767,142.982 C207.558,144.259 205.959,144.83 204.073,144.834 C201.868,144.836 199.299,144.021 196.759,142.605 C194.219,141.19 191.709,139.181 189.596,136.836 C185.427,132.22 183.569,125.535 182.502,118.883 C181.429,112.231 181.147,105.651 179.996,101.187 C178.878,96.86 176.397,92.024 171.669,88.275 C166.943,84.524 159.987,81.883 150.003,81.885 C139.975,81.879 133.113,85.755 128.6,90.896 C124.082,96.035 121.881,102.404 120.996,107.451 C120.138,112.369 120.203,118.162 119.7,124.206 C119.199,130.25 118.136,136.531 115.069,142.419 C113.417,145.588 110.937,147.828 108.009,149.291 C105.081,150.751 101.702,151.425 98.292,151.424 C92.641,151.428 86.915,149.567 83.078,146.493 C81.313,145.084 79.349,142.625 77.433,139.74 C74.555,135.412 71.765,130.128 69.699,125.932 C68.666,123.833 67.813,122.006 67.219,120.704 C66.922,120.053 66.69,119.533 66.532,119.177 C66.374,118.82 66.291,118.629 66.291,118.628 L66.274,118.593 C63.481,113.316 59.138,109.715 55.079,107.432 C53.048,106.29 51.086,105.475 49.412,104.945 C47.734,104.415 46.359,104.164 45.436,104.162 C45.317,104.162 45.205,104.166 45.099,104.175 C44.229,104.252 42.948,104.314 41.826,104.688 C41.265,104.878 40.732,105.149 40.32,105.58 C39.906,106.008 39.645,106.611 39.65,107.319 C39.652,108.094 39.931,108.985 40.534,110.064 C41.993,112.639 44.978,113.848 47.584,114.468 C50.2,115.084 52.488,115.092 52.657,115.093 L52.665,115.093 C52.941,115.093 53.165,114.869 53.165,114.593 C53.165,114.317 52.941,114.093 52.665,114.093" id="Fill-53" fill="#3D1717"></path>
        <path d="M207.225,97.214 C207.225,97.214 207.348,97.111 207.579,96.927 C208.385,96.282 210.48,94.66 212.862,93.209 C214.053,92.483 215.317,91.801 216.518,91.305 C217.718,90.808 218.859,90.504 219.773,90.506 C220.272,90.506 220.697,90.593 221.046,90.767 C221.395,90.942 221.679,91.2 221.911,91.6 C222.132,91.987 222.219,92.326 222.22,92.653 C222.22,93.065 222.077,93.48 221.785,93.93 C221.278,94.716 220.31,95.555 219.133,96.422 C217.368,97.727 215.15,99.11 213.319,100.753 C211.495,102.392 210.017,104.332 209.892,106.765 C209.878,107.041 210.09,107.276 210.366,107.29 C210.642,107.304 210.877,107.091 210.891,106.815 C210.968,105.267 211.707,103.909 212.834,102.645 C214.521,100.752 217.057,99.143 219.2,97.609 C220.272,96.84 221.247,96.088 221.98,95.293 C222.706,94.502 223.217,93.637 223.22,92.653 C223.221,92.138 223.073,91.613 222.778,91.102 C222.459,90.544 222.013,90.129 221.491,89.872 C220.97,89.613 220.386,89.506 219.773,89.506 C218.486,89.51 217.051,89.963 215.59,90.616 C211.221,92.582 206.604,96.433 206.585,96.445 C206.373,96.622 206.344,96.937 206.52,97.149 C206.697,97.361 207.012,97.39 207.225,97.214" id="Fill-54" fill="#3D1717"></path>
        <path d="M221.931,90.777 L221.973,90.721 C222.186,90.437 223.215,89.112 224.583,87.877 C225.947,86.633 227.666,85.525 229.106,85.541 C229.726,85.544 230.301,85.72 230.871,86.177 C231.288,86.524 231.393,86.785 231.399,87.075 C231.401,87.328 231.289,87.66 231.033,88.055 C230.589,88.747 229.735,89.585 228.686,90.514 C227.113,91.913 225.108,93.537 223.358,95.432 C221.61,97.327 220.102,99.504 219.573,102.04 C219.124,104.199 218.912,106.18 218.912,107.984 C218.907,113.272 220.751,117.063 223.761,119.154 C224.82,119.885 226.339,120.375 228.052,120.899 C230.617,121.676 233.613,122.5 235.941,123.965 C237.106,124.697 238.102,125.581 238.817,126.691 C239.532,127.802 239.977,129.142 240.023,130.835 C240.027,130.985 240.029,131.132 240.029,131.277 C240.028,133.455 239.591,134.984 238.899,136.184 C237.865,137.981 236.193,139.089 234.355,140.369 C232.525,141.646 230.545,143.103 229.098,145.639 C228.164,147.274 227.613,149.106 227.612,150.954 C227.609,153.211 228.449,155.492 230.377,157.377 C232.303,159.265 235.286,160.76 239.563,161.569 C246.486,162.877 251.584,165.151 254.925,167.935 C258.267,170.724 259.858,173.991 259.862,177.397 C259.862,180.547 258.486,183.859 255.712,187.02 C252.594,190.566 249.14,192.02 245.941,192.022 C240.521,192.026 235.724,187.8 234.666,181.908 L234.173,181.996 L233.709,182.181 C233.72,182.206 234.526,184.236 236.087,186.294 C236.869,187.323 237.84,188.361 239.012,189.153 C240.182,189.944 241.563,190.488 243.123,190.488 C245.349,190.488 247.859,189.384 250.594,186.579 C252.42,184.712 253.236,182.848 253.234,181.072 C253.234,179.233 252.373,177.562 251.082,176.106 C249.141,173.92 246.207,172.152 243.373,170.858 C240.534,169.567 237.815,168.76 236.23,168.55 C234.57,168.334 233.052,168.231 231.668,168.231 C227.555,168.231 224.604,169.141 222.66,170.742 C220.713,172.342 219.847,174.622 219.853,177.14 C219.858,180.851 221.658,185.136 224.548,189.14 C227.442,193.142 231.441,196.86 235.922,199.366 C241.471,202.464 245.015,208.027 245.007,213.351 C245.006,215.873 244.226,218.346 242.486,220.536 C240.745,222.724 238.032,224.636 234.135,225.975 C229.879,227.437 226.597,229.488 224.363,231.807 C222.132,234.124 220.944,236.723 220.943,239.255 C220.94,241.35 221.769,243.377 223.419,245.073 C225.069,246.773 227.525,248.155 230.804,249.056 C232.948,249.644 234.912,249.91 236.681,249.91 C240.004,249.911 242.645,248.969 244.463,247.462 C246.282,245.958 247.264,243.883 247.262,241.707 C247.263,239.415 246.179,237.033 243.968,235.079 C243.761,234.896 243.445,234.915 243.262,235.122 C243.079,235.329 243.098,235.645 243.305,235.828 C245.337,237.629 246.261,239.734 246.262,241.707 C246.26,243.582 245.432,245.358 243.825,246.693 C242.218,248.025 239.819,248.91 236.681,248.91 C235.012,248.91 233.137,248.659 231.069,248.091 C227.917,247.227 225.626,245.914 224.137,244.377 C222.648,242.838 221.945,241.087 221.943,239.255 C221.942,237.044 222.985,234.681 225.084,232.5 C227.18,230.322 230.326,228.34 234.46,226.92 C238.496,225.534 241.388,223.523 243.269,221.158 C245.151,218.794 246.009,216.08 246.007,213.351 C246,207.581 242.233,201.753 236.41,198.494 C232.075,196.071 228.167,192.441 225.358,188.554 C222.546,184.67 220.847,180.524 220.852,177.14 C220.858,174.836 221.607,172.912 223.296,171.513 C224.989,170.115 227.695,169.23 231.668,169.231 C233.002,169.231 234.478,169.33 236.101,169.542 C237.994,169.784 242.127,171.106 245.7,173.174 C247.489,174.206 249.146,175.427 250.334,176.769 C251.525,178.115 252.235,179.558 252.234,181.072 C252.233,182.534 251.581,184.131 249.878,185.881 C247.252,188.567 245.003,189.487 243.123,189.488 C241.799,189.487 240.621,189.032 239.572,188.325 C238,187.266 236.751,185.633 235.911,184.263 C235.49,183.579 235.169,182.961 234.956,182.517 C234.849,182.295 234.768,182.116 234.715,181.994 L234.656,181.855 L234.638,181.811 C234.543,181.573 234.283,181.445 234.036,181.516 C233.789,181.586 233.636,181.832 233.681,182.085 C234.815,188.409 239.986,193.018 245.941,193.022 C249.452,193.025 253.199,191.403 256.463,187.68 C259.356,184.386 260.861,180.845 260.862,177.397 C260.865,173.666 259.085,170.093 255.565,167.167 C252.043,164.236 246.789,161.918 239.749,160.586 C235.606,159.803 232.818,158.372 231.077,156.663 C229.337,154.953 228.616,152.968 228.612,150.954 C228.612,149.306 229.107,147.639 229.966,146.135 C231.739,143.027 234.378,141.669 236.722,139.914 C237.887,139.037 238.975,138.051 239.765,136.684 C240.556,135.318 241.031,133.587 241.029,131.277 C241.029,131.123 241.027,130.967 241.023,130.809 C240.962,128.333 240.082,126.421 238.749,124.977 C236.747,122.808 233.799,121.652 231.024,120.761 C229.636,120.317 228.287,119.942 227.12,119.559 C225.953,119.177 224.969,118.779 224.332,118.333 C221.645,116.461 219.918,113.055 219.912,107.984 C219.912,106.259 220.115,104.344 220.552,102.244 C221.26,98.789 224.125,95.859 226.883,93.419 C228.259,92.196 229.598,91.097 230.617,90.082 C231.126,89.574 231.556,89.087 231.873,88.597 C232.187,88.11 232.397,87.609 232.399,87.075 C232.405,86.448 232.074,85.854 231.5,85.4 C230.764,84.801 229.929,84.538 229.106,84.541 C228.081,84.543 227.083,84.922 226.158,85.458 C223.392,87.073 221.148,90.163 221.125,90.185 C220.961,90.408 221.01,90.721 221.232,90.884 C221.455,91.047 221.768,90.999 221.931,90.777" id="Fill-55" fill="#3D1717"></path>
        <path d="M230.57,248.914 L230.598,248.945 C230.912,249.282 233.54,252.392 233.523,255.914 C233.522,257.173 233.204,258.487 232.336,259.806 C231.467,261.123 230.035,262.451 227.778,263.681 C227.535,263.814 227.446,264.117 227.578,264.36 C227.71,264.602 228.014,264.692 228.257,264.56 C230.621,263.271 232.192,261.84 233.171,260.356 C234.15,258.874 234.525,257.343 234.523,255.914 C234.521,253.776 233.71,251.867 232.912,250.487 C232.113,249.107 231.32,248.252 231.303,248.233 C231.115,248.031 230.798,248.019 230.596,248.207 C230.394,248.395 230.382,248.712 230.57,248.914" id="Fill-56" fill="#3D1717"></path>
        <path d="M147.506,127.099 C147.481,127.093 146.828,126.934 145.972,126.933 C145.237,126.935 144.339,127.046 143.561,127.542 C142.778,128.033 142.188,128.961 142.156,130.306 L142.154,130.466 C142.141,131.703 142.674,132.587 143.413,133.051 C144.146,133.519 145.005,133.627 145.741,133.629 C146.71,133.628 147.487,133.428 147.512,133.422 L147.387,132.938 L147.092,132.535 C147.076,132.547 146.389,133.049 145.685,133.813 C144.991,134.58 144.235,135.594 144.219,136.777 C144.217,137.209 144.336,137.659 144.601,138.066 C144.818,138.403 145.104,138.656 145.423,138.813 C145.742,138.97 146.085,139.032 146.421,139.032 C147.409,139.023 148.378,138.544 149.14,138.094 C149.898,137.639 150.434,137.193 150.447,137.182 C150.659,137.006 150.687,136.69 150.511,136.478 C150.334,136.266 150.019,136.237 149.807,136.414 L149.724,136.48 C149.528,136.635 148.997,137.036 148.361,137.389 C147.727,137.746 146.978,138.037 146.421,138.032 C146.204,138.031 146.021,137.993 145.866,137.916 C145.71,137.838 145.572,137.723 145.441,137.523 C145.281,137.274 145.22,137.037 145.219,136.777 C145.203,136.077 145.781,135.172 146.421,134.49 C146.736,134.147 147.056,133.857 147.294,133.654 C147.414,133.552 147.513,133.473 147.581,133.419 L147.659,133.359 L147.683,133.341 C147.876,133.199 147.942,132.941 147.839,132.724 C147.737,132.507 147.496,132.394 147.263,132.454 L147.239,132.459 C147.107,132.491 146.467,132.63 145.741,132.629 C145.109,132.632 144.425,132.519 143.956,132.211 C143.494,131.898 143.166,131.451 143.154,130.466 L143.156,130.339 C143.203,129.243 143.589,128.726 144.102,128.383 C144.622,128.044 145.342,127.931 145.972,127.933 C146.337,127.933 146.668,127.968 146.904,128.003 C147.022,128.021 147.116,128.038 147.179,128.051 L147.25,128.066 L147.269,128.07 C147.537,128.135 147.808,127.971 147.873,127.703 C147.938,127.434 147.774,127.164 147.506,127.099" id="Fill-57" fill="#3D1717"></path>
        <path d="M145.668,109.281 L145.664,109.342 C145.634,109.676 145.443,111.321 144.547,113.184 C143.648,115.049 142.064,117.125 139.213,118.412 C138.961,118.525 138.849,118.821 138.963,119.073 C139.076,119.325 139.372,119.437 139.624,119.323 C142.934,117.833 144.708,115.325 145.632,113.217 C146.56,111.105 146.664,109.379 146.667,109.341 C146.683,109.065 146.473,108.828 146.197,108.812 C145.922,108.795 145.685,109.006 145.669,109.281" id="Fill-58" fill="#3D1717"></path>
        <path d="M145.891,114.413 L145.89,114.429 C145.867,114.676 145.609,117.274 142.581,119.857 C142.37,120.036 142.345,120.352 142.524,120.562 C142.703,120.772 143.019,120.797 143.229,120.618 C146.722,117.644 146.89,114.54 146.89,114.455 C146.901,114.179 146.687,113.946 146.411,113.934 C146.135,113.923 145.902,114.137 145.891,114.413" id="Fill-59" fill="#3D1717"></path>
        <path d="M156.102,107.416 C156.101,107.427 156.075,107.772 156.075,108.341 C156.076,109.599 156.198,111.948 157.027,114.2 C157.442,115.326 158.037,116.432 158.9,117.352 C159.76,118.272 160.894,119.001 162.335,119.353 C162.603,119.419 162.874,119.255 162.939,118.987 C163.005,118.718 162.841,118.448 162.573,118.382 C161.322,118.074 160.376,117.463 159.629,116.668 C158.512,115.479 157.861,113.852 157.503,112.288 C157.144,110.725 157.074,109.233 157.075,108.341 C157.075,108.072 157.081,107.857 157.087,107.711 C157.093,107.565 157.099,107.493 157.099,107.492 C157.12,107.217 156.914,106.977 156.638,106.956 C156.363,106.935 156.123,107.141 156.102,107.416" id="Fill-60" fill="#3D1717"></path>
        <path d="M155.23,114.425 L155.23,114.447 C155.232,114.638 155.248,116.156 155.987,117.801 C156.715,119.444 158.245,121.228 161.122,121.726 C161.394,121.774 161.653,121.593 161.701,121.321 C161.749,121.049 161.567,120.789 161.296,120.741 C158.767,120.286 157.558,118.827 156.898,117.39 C156.249,115.956 156.228,114.557 156.23,114.447 L156.23,114.443 C156.235,114.167 156.015,113.939 155.739,113.934 C155.463,113.929 155.235,114.149 155.23,114.425" id="Fill-61" fill="#3D1717"></path>
        <path d="M162.079,106.79 L161.579,106.79 C161.58,108.492 161.278,110.031 160.817,111.101 C160.588,111.635 160.318,112.05 160.055,112.308 C159.787,112.569 159.553,112.665 159.339,112.665 C159.124,112.665 158.891,112.569 158.623,112.308 C158.226,111.922 157.825,111.18 157.548,110.215 C157.268,109.251 157.1,108.067 157.1,106.79 C157.099,105.088 157.4,103.549 157.862,102.48 C158.09,101.945 158.36,101.531 158.623,101.273 C158.891,101.012 159.124,100.916 159.339,100.915 C159.553,100.916 159.787,101.012 160.055,101.273 C160.452,101.659 160.853,102.401 161.131,103.365 C161.411,104.33 161.579,105.514 161.579,106.79 L162.579,106.79 C162.577,104.971 162.266,103.322 161.736,102.085 C161.469,101.466 161.148,100.947 160.756,100.56 C160.368,100.175 159.88,99.915 159.339,99.915 C158.797,99.915 158.309,100.175 157.922,100.56 C157.336,101.141 156.901,102.016 156.588,103.086 C156.277,104.157 156.101,105.426 156.1,106.79 C156.102,108.609 156.413,110.258 156.943,111.495 C157.209,112.114 157.53,112.633 157.922,113.021 C158.309,113.405 158.797,113.666 159.339,113.665 C159.881,113.666 160.368,113.405 160.756,113.021 C161.342,112.439 161.777,111.564 162.091,110.494 C162.402,109.423 162.578,108.154 162.579,106.79 L162.079,106.79" id="Fill-62" fill="#3D1717"></path>
        <path d="M146.39,106.79 L145.89,106.79 C145.892,108.492 145.59,110.031 145.129,111.101 C144.9,111.636 144.63,112.05 144.366,112.308 C144.099,112.569 143.865,112.665 143.651,112.665 C143.437,112.665 143.203,112.569 142.936,112.308 C142.538,111.922 142.137,111.18 141.86,110.215 C141.579,109.251 141.411,108.067 141.412,106.79 C141.41,105.088 141.712,103.549 142.173,102.48 C142.402,101.945 142.672,101.531 142.936,101.273 C143.203,101.012 143.436,100.916 143.651,100.915 C143.866,100.916 144.099,101.012 144.366,101.273 C144.764,101.659 145.165,102.4 145.442,103.365 C145.723,104.33 145.891,105.514 145.89,106.79 L146.89,106.79 C146.889,104.971 146.577,103.322 146.047,102.085 C145.78,101.466 145.46,100.947 145.068,100.56 C144.68,100.175 144.193,99.915 143.651,99.915 C143.109,99.915 142.622,100.175 142.234,100.56 C141.649,101.141 141.213,102.016 140.899,103.086 C140.589,104.157 140.412,105.426 140.412,106.79 C140.413,108.609 140.725,110.258 141.255,111.495 C141.522,112.114 141.842,112.633 142.234,113.021 C142.622,113.405 143.109,113.666 143.651,113.665 C144.193,113.666 144.68,113.405 145.068,113.021 C145.653,112.439 146.089,111.564 146.403,110.494 C146.713,109.423 146.89,108.154 146.89,106.79 L146.39,106.79" id="Fill-63" fill="#3D1717"></path>
        <path d="M136.196,35.386 L136.66,35.573 L136.664,35.563 C136.725,35.418 137.437,33.826 139.341,32.279 C141.246,30.733 144.338,29.212 149.259,29.209 C150.381,29.209 151.598,29.288 152.917,29.467 L152.984,28.971 L152.517,28.792 C152.509,28.822 151.504,31.412 151.5,34.215 C151.501,35.526 151.721,36.898 152.417,38.072 C153.11,39.248 154.304,40.189 156.083,40.579 C156.356,40.64 156.61,40.67 156.85,40.67 C157.269,40.671 157.646,40.574 157.954,40.389 C158.421,40.11 158.697,39.663 158.848,39.208 C159.001,38.75 159.045,38.265 159.046,37.809 C159.045,36.804 158.82,35.928 158.815,35.905 L158.331,36.028 L158.107,36.475 L158.113,36.478 C158.213,36.53 159.347,37.149 160.387,38.569 C160.515,38.744 160.741,38.816 160.946,38.749 C161.151,38.682 161.291,38.49 161.291,38.274 L161.291,36.563 L160.791,36.563 L160.965,37.032 L160.867,36.77 L160.867,37.053 L160.965,37.032 L160.867,36.77 L160.867,37.053 L160.867,37.031 L160.865,37.053 L160.867,37.053 L160.867,37.031 L160.865,37.053 C160.875,37.053 161.097,37.088 161.519,37.542 C161.938,37.992 162.537,38.846 163.281,40.388 C163.617,41.087 164.091,41.602 164.646,41.926 C165.201,42.252 165.822,42.386 166.441,42.385 C167.79,42.38 169.159,41.783 170.23,41.023 C170.764,40.641 171.223,40.216 171.564,39.776 C171.899,39.336 172.138,38.883 172.146,38.376 L172.143,38.3 L172.143,38.299 C172.119,37.907 172.012,37.559 171.925,37.248 C171.836,36.938 171.769,36.664 171.771,36.454 C171.776,36.241 171.813,36.1 171.977,35.907 C172.223,35.618 172.876,35.239 174.212,34.921 C175.545,34.599 177.54,34.322 180.447,34.121 C180.845,34.094 181.224,34.081 181.583,34.081 C185.147,34.09 186.862,35.329 187.769,36.522 C188.221,37.122 188.464,37.725 188.593,38.175 C188.658,38.399 188.694,38.585 188.713,38.711 L188.732,38.853 L188.734,38.885 L188.735,38.889 L189.234,38.862 L189.591,38.511 C189.528,38.441 187.486,36.426 182.841,36.429 C181.81,36.429 180.651,36.528 179.359,36.766 C179.148,36.805 178.985,36.975 178.955,37.187 C178.924,37.399 179.033,37.607 179.224,37.704 C179.224,37.704 179.275,37.73 179.374,37.783 C179.717,37.968 180.596,38.468 181.363,39.089 C181.746,39.399 182.1,39.74 182.342,40.068 C182.588,40.397 182.707,40.702 182.704,40.931 L182.666,41.16 L183.139,41.322 L183.362,40.874 C183.35,40.868 182.513,40.452 181.331,40.033 C180.146,39.616 178.621,39.19 177.187,39.188 C176.37,39.189 175.57,39.327 174.888,39.732 C174.205,40.135 173.678,40.825 173.457,41.768 C173.391,42.042 173.362,42.312 173.362,42.573 C173.364,43.562 173.767,44.4 174.152,44.993 C174.539,45.587 174.918,45.945 174.937,45.963 L175.28,45.599 L175.404,45.114 C175.379,45.109 174.501,44.884 173.384,44.883 C172.581,44.884 171.648,44.996 170.811,45.436 C169.973,45.869 169.256,46.681 169.015,47.905 L169.506,48.004 L169.833,47.626 C169.815,47.611 169.272,47.141 168.418,46.665 C167.563,46.192 166.394,45.703 165.101,45.7 C164.192,45.698 163.221,45.955 162.333,46.63 C161.445,47.303 160.648,48.371 160.006,49.955 L160.469,50.143 L160.951,50.009 C160.94,49.974 160.501,48.394 159.309,46.782 C158.126,45.174 156.123,43.513 153.098,43.517 C152.299,43.516 151.434,43.631 150.5,43.886 L150.631,44.368 L151.13,44.405 C151.131,44.396 151.152,44.1 151.152,43.643 C151.151,42.854 151.093,41.593 150.727,40.466 C150.542,39.902 150.279,39.364 149.867,38.942 C149.46,38.519 148.875,38.235 148.193,38.24 C147.145,38.248 145.935,38.821 144.374,40.137 L144.697,40.519 L145.152,40.727 C145.157,40.715 145.427,40.123 145.699,39.283 C145.97,38.44 146.248,37.353 146.25,36.31 C146.249,35.744 146.168,35.185 145.924,34.683 C145.685,34.183 145.256,33.752 144.661,33.529 C144.047,33.295 143.371,33.208 142.678,33.207 C141.129,33.21 139.473,33.645 138.187,34.072 C136.903,34.501 135.995,34.928 135.983,34.934 L136.196,35.386 L136.66,35.573 L136.196,35.386 L136.409,35.839 C136.409,35.839 136.458,35.815 136.558,35.771 C137.25,35.458 140.289,34.199 142.678,34.207 C143.286,34.207 143.845,34.287 144.305,34.464 C144.667,34.606 144.871,34.816 145.026,35.122 C145.177,35.428 145.251,35.843 145.25,36.31 C145.252,37.172 145.003,38.189 144.748,38.975 C144.62,39.368 144.493,39.706 144.397,39.943 C144.35,40.061 144.31,40.155 144.283,40.218 L144.242,40.311 C144.145,40.524 144.208,40.776 144.395,40.917 C144.581,41.059 144.841,41.052 145.02,40.9 C146.492,39.648 147.548,39.231 148.193,39.24 C148.616,39.245 148.892,39.383 149.153,39.642 C149.541,40.029 149.819,40.749 149.966,41.519 C150.118,42.288 150.153,43.093 150.152,43.643 C150.152,43.856 150.147,44.03 150.142,44.15 C150.137,44.271 150.133,44.332 150.133,44.332 C150.121,44.494 150.188,44.651 150.314,44.754 C150.439,44.858 150.607,44.894 150.763,44.851 C151.62,44.617 152.395,44.517 153.098,44.517 C155.735,44.52 157.418,45.922 158.505,47.377 C159.043,48.103 159.418,48.836 159.655,49.384 C159.774,49.658 159.858,49.886 159.912,50.043 L159.971,50.222 L159.988,50.277 C160.045,50.484 160.227,50.63 160.441,50.642 C160.655,50.654 160.852,50.53 160.933,50.331 C161.527,48.866 162.228,47.963 162.937,47.427 C163.647,46.892 164.372,46.702 165.101,46.7 C166.132,46.697 167.165,47.111 167.932,47.539 C168.315,47.752 168.631,47.967 168.849,48.126 C168.958,48.206 169.042,48.272 169.098,48.317 L169.161,48.368 L169.178,48.382 C169.312,48.498 169.499,48.535 169.667,48.478 C169.834,48.42 169.96,48.277 169.996,48.104 C170.196,47.153 170.664,46.654 171.278,46.32 C171.893,45.993 172.678,45.881 173.384,45.883 C173.875,45.883 174.324,45.934 174.648,45.985 C174.809,46.01 174.94,46.036 175.028,46.054 L175.127,46.076 L175.156,46.083 C175.377,46.14 175.608,46.04 175.718,45.84 C175.828,45.64 175.789,45.391 175.623,45.235 L175.614,45.227 C175.555,45.169 175.23,44.839 174.93,44.353 C174.628,43.866 174.36,43.233 174.362,42.573 C174.362,42.386 174.382,42.196 174.429,42.002 C174.608,41.279 174.942,40.871 175.401,40.591 C175.861,40.314 176.482,40.187 177.187,40.188 C178.421,40.186 179.873,40.577 180.997,40.976 C181.56,41.175 182.043,41.375 182.384,41.524 C182.554,41.599 182.689,41.661 182.78,41.704 C182.872,41.747 182.916,41.769 182.917,41.769 C183.046,41.834 183.195,41.839 183.329,41.784 C183.463,41.729 183.565,41.62 183.612,41.484 C183.675,41.302 183.704,41.114 183.704,40.931 C183.699,40.305 183.391,39.766 183.003,39.291 C182.415,38.579 181.592,37.977 180.91,37.533 C180.227,37.091 179.686,36.818 179.676,36.812 L179.45,37.258 L179.541,37.75 C180.776,37.522 181.874,37.429 182.841,37.429 C185.018,37.43 186.539,37.895 187.512,38.349 C187.999,38.576 188.349,38.8 188.573,38.964 C188.684,39.045 188.765,39.112 188.815,39.156 L188.868,39.203 L188.878,39.213 L188.935,39.155 L188.877,39.212 L188.878,39.213 L188.935,39.155 L188.877,39.212 C189.023,39.361 189.245,39.403 189.436,39.319 C189.626,39.235 189.745,39.042 189.733,38.834 C189.728,38.779 189.65,37.364 188.568,35.921 C187.49,34.472 185.38,33.071 181.583,33.081 C181.199,33.081 180.798,33.094 180.378,33.124 C176.458,33.396 174.147,33.797 172.744,34.316 C172.044,34.579 171.558,34.874 171.229,35.244 C170.897,35.61 170.765,36.06 170.771,36.454 C170.772,36.851 170.874,37.202 170.963,37.52 C171.054,37.838 171.133,38.124 171.145,38.356 L171.145,38.355 L171.146,38.376 C171.153,38.517 171.04,38.826 170.773,39.165 C170.379,39.676 169.689,40.251 168.899,40.677 C168.11,41.106 167.221,41.387 166.441,41.385 C165.962,41.385 165.528,41.284 165.153,41.064 C164.778,40.842 164.447,40.499 164.181,39.953 C163.356,38.247 162.688,37.3 162.149,36.754 C161.615,36.211 161.176,36.053 160.867,36.053 C160.754,36.053 160.667,36.075 160.617,36.094 C160.421,36.167 160.291,36.354 160.291,36.563 L160.291,38.274 L160.791,38.274 L161.194,37.978 C159.95,36.285 158.6,35.604 158.554,35.581 C158.379,35.493 158.17,35.515 158.017,35.638 C157.865,35.761 157.798,35.96 157.846,36.15 L157.853,36.18 C157.89,36.334 158.047,37.061 158.046,37.809 C158.049,38.325 157.965,38.843 157.78,39.167 C157.688,39.331 157.58,39.447 157.442,39.53 C157.303,39.612 157.122,39.669 156.85,39.67 C156.695,39.67 156.513,39.65 156.301,39.603 C154.749,39.251 153.847,38.51 153.277,37.561 C152.71,36.611 152.499,35.415 152.5,34.215 C152.5,32.933 152.737,31.657 152.977,30.708 C153.097,30.234 153.216,29.841 153.306,29.568 C153.35,29.432 153.387,29.326 153.413,29.255 L153.451,29.15 C153.506,29.007 153.492,28.848 153.414,28.716 C153.336,28.584 153.203,28.496 153.051,28.476 C151.69,28.292 150.428,28.209 149.259,28.209 C143.964,28.206 140.563,29.924 138.513,31.666 C136.461,33.407 135.753,35.149 135.732,35.199 C135.655,35.39 135.703,35.608 135.853,35.75 C136.002,35.891 136.223,35.926 136.409,35.839 L136.196,35.386" id="Fill-64" fill="#3D1717"></path>
        <path d="M190.056,65.628 L189.59,65.808 L189.611,65.866 C189.716,66.153 190.151,67.476 190.149,68.786 C190.15,69.487 190.025,70.172 189.709,70.7 C189.39,71.226 188.905,71.633 188.016,71.837 C187.9,71.863 187.805,71.873 187.729,71.873 C187.594,71.872 187.524,71.846 187.474,71.817 C187.403,71.774 187.339,71.697 187.285,71.539 C187.232,71.385 187.206,71.169 187.207,70.951 C187.207,70.709 187.236,70.465 187.265,70.285 L187.305,70.072 L187.318,70.016 L187.321,70.001 C187.369,69.811 187.302,69.61 187.148,69.487 C186.995,69.365 186.784,69.344 186.609,69.433 C186.568,69.455 185.857,69.821 185.14,70.699 L185.527,71.015 L185.915,70.699 C185.198,69.821 184.486,69.454 184.444,69.433 C184.27,69.344 184.059,69.365 183.905,69.488 C183.752,69.61 183.685,69.811 183.733,70.001 L183.736,70.016 C183.757,70.099 183.848,70.527 183.847,70.951 C183.85,71.243 183.797,71.527 183.712,71.672 L183.58,71.816 C183.53,71.846 183.46,71.872 183.325,71.873 C183.249,71.873 183.154,71.863 183.038,71.837 C182.149,71.633 181.664,71.226 181.345,70.7 C181.029,70.172 180.904,69.487 180.905,68.786 C180.905,68.039 181.044,67.284 181.186,66.723 C181.257,66.443 181.328,66.21 181.38,66.05 L181.443,65.866 L181.464,65.808 C181.519,65.664 181.506,65.506 181.428,65.373 C181.35,65.241 181.217,65.153 181.065,65.133 C180.237,65.021 179.469,64.97 178.755,64.97 C175.524,64.967 173.422,66.022 172.155,67.1 C170.886,68.176 170.444,69.254 170.424,69.305 C170.347,69.495 170.395,69.714 170.544,69.855 C170.693,69.996 170.914,70.031 171.1,69.944 L171.186,69.905 C171.59,69.72 173.415,68.972 174.792,68.981 C175.141,68.98 175.454,69.027 175.7,69.122 C175.872,69.192 175.951,69.274 176.027,69.42 C176.099,69.565 176.142,69.786 176.141,70.048 C176.143,70.531 175.999,71.13 175.849,71.592 C175.774,71.824 175.698,72.023 175.642,72.162 L175.576,72.323 L175.553,72.376 C175.455,72.589 175.519,72.841 175.706,72.982 C175.892,73.123 176.152,73.116 176.331,72.965 C177.199,72.223 177.805,72.003 178.113,72.012 C178.316,72.016 178.421,72.071 178.549,72.194 C178.738,72.378 178.903,72.779 178.986,73.224 C179.073,73.668 179.094,74.143 179.094,74.465 C179.094,74.59 179.091,74.692 179.088,74.762 L179.083,74.864 C179.071,75.026 179.139,75.184 179.264,75.287 C179.389,75.39 179.557,75.426 179.713,75.383 C180.213,75.247 180.663,75.189 181.067,75.189 C182.578,75.193 183.528,75.985 184.163,76.831 C184.475,77.252 184.695,77.681 184.833,78 C184.902,78.16 184.951,78.292 184.982,78.383 L185.015,78.485 L185.024,78.513 C185.08,78.713 185.254,78.858 185.462,78.876 C185.67,78.895 185.867,78.782 185.957,78.594 L185.978,78.549 L185.527,78.333 L185.076,78.549 L185.097,78.594 C185.187,78.782 185.384,78.895 185.592,78.876 C185.799,78.858 185.974,78.713 186.03,78.513 L186.038,78.485 C186.089,78.318 186.382,77.456 187.013,76.674 C187.651,75.888 188.569,75.193 189.988,75.189 C190.392,75.189 190.841,75.247 191.342,75.383 C191.498,75.426 191.666,75.39 191.791,75.287 C191.916,75.184 191.984,75.026 191.972,74.864 L191.967,74.761 C191.964,74.691 191.961,74.589 191.961,74.464 C191.959,74.034 192.001,73.331 192.177,72.799 C192.263,72.533 192.382,72.318 192.506,72.194 C192.634,72.071 192.739,72.016 192.942,72.012 C193.25,72.003 193.856,72.223 194.724,72.965 C194.903,73.116 195.163,73.123 195.349,72.982 C195.536,72.841 195.6,72.589 195.502,72.376 L195.479,72.323 C195.366,72.073 194.906,70.901 194.914,70.048 C194.913,69.786 194.956,69.565 195.028,69.42 C195.104,69.274 195.183,69.192 195.355,69.122 C195.601,69.027 195.914,68.98 196.263,68.981 C197.045,68.979 197.986,69.216 198.714,69.46 C199.078,69.582 199.392,69.704 199.612,69.796 C199.722,69.841 199.809,69.879 199.868,69.905 L199.954,69.944 C200.14,70.031 200.361,69.996 200.51,69.855 C200.659,69.714 200.707,69.495 200.63,69.305 C200.61,69.254 200.168,68.177 198.899,67.1 C197.633,66.022 195.531,64.967 192.299,64.97 C191.586,64.97 190.817,65.021 189.989,65.133 C189.837,65.153 189.704,65.241 189.626,65.373 C189.548,65.506 189.534,65.664 189.59,65.808 L190.056,65.628 L190.123,66.124 C190.909,66.018 191.633,65.97 192.299,65.97 C195.316,65.974 197.148,66.93 198.253,67.862 C198.804,68.33 199.172,68.795 199.399,69.139 C199.513,69.311 199.591,69.452 199.64,69.547 L199.692,69.653 L199.702,69.677 L199.703,69.678 L200.167,69.492 L200.379,69.039 C200.367,69.033 199.814,68.774 199.03,68.512 C198.244,68.251 197.233,67.983 196.263,67.981 C195.829,67.981 195.399,68.035 194.998,68.187 C194.594,68.338 194.291,68.641 194.13,68.981 C193.965,69.322 193.914,69.688 193.914,70.048 C193.915,70.712 194.089,71.381 194.255,71.9 C194.422,72.417 194.587,72.779 194.593,72.791 L195.048,72.583 L195.371,72.202 C194.412,71.396 193.652,71.02 192.942,71.012 C192.479,71.007 192.066,71.207 191.792,71.494 C191.376,71.926 191.197,72.492 191.088,73.031 C190.982,73.572 190.961,74.099 190.961,74.464 C190.961,74.745 190.974,74.928 190.975,74.937 L191.473,74.901 L191.605,74.418 C191.027,74.261 190.488,74.189 189.988,74.189 C188.089,74.185 186.819,75.237 186.088,76.236 C185.347,77.239 185.078,78.21 185.067,78.244 L185.548,78.378 L186,78.163 L185.978,78.118 C185.895,77.944 185.72,77.833 185.527,77.833 C185.334,77.833 185.159,77.944 185.076,78.118 L185.054,78.163 L185.506,78.378 L185.987,78.244 C185.976,78.21 185.707,77.239 184.967,76.236 C184.235,75.237 182.966,74.185 181.067,74.189 C180.567,74.189 180.028,74.261 179.45,74.418 L179.582,74.901 L180.08,74.937 C180.081,74.928 180.094,74.746 180.094,74.465 C180.092,73.979 180.06,73.206 179.828,72.49 C179.71,72.132 179.542,71.781 179.263,71.494 C178.989,71.207 178.576,71.007 178.113,71.012 C177.402,71.02 176.642,71.396 175.684,72.202 L176.007,72.583 L176.462,72.791 C176.468,72.779 176.633,72.417 176.8,71.9 C176.966,71.381 177.139,70.712 177.141,70.048 C177.141,69.688 177.09,69.322 176.925,68.981 C176.764,68.641 176.461,68.338 176.057,68.187 C175.656,68.035 175.226,67.981 174.792,67.981 C173.821,67.983 172.81,68.251 172.024,68.512 C171.24,68.774 170.687,69.033 170.675,69.039 L170.887,69.492 L171.351,69.678 L171.352,69.677 C171.38,69.609 171.794,68.679 172.907,67.775 C174.023,66.871 175.833,65.973 178.755,65.97 C179.421,65.97 180.145,66.018 180.931,66.124 L180.998,65.628 L180.531,65.449 C180.522,65.479 179.909,67.051 179.905,68.786 C179.906,69.598 180.041,70.459 180.485,71.211 C180.927,71.964 181.704,72.57 182.82,72.814 C182.997,72.853 183.164,72.873 183.325,72.873 C183.607,72.874 183.873,72.807 184.092,72.675 C184.426,72.477 184.617,72.16 184.717,71.857 C184.819,71.55 184.846,71.239 184.847,70.951 C184.846,70.316 184.707,69.778 184.702,69.756 L184.217,69.878 L183.991,70.324 L184.007,70.293 L183.99,70.324 L183.991,70.324 L184.007,70.293 L183.99,70.324 C184.024,70.341 184.583,70.647 185.139,71.331 C185.234,71.447 185.377,71.515 185.527,71.515 C185.677,71.515 185.819,71.447 185.914,71.331 C186.212,70.966 186.509,70.709 186.728,70.545 C186.837,70.464 186.926,70.406 186.985,70.369 L187.051,70.331 L187.064,70.323 L187.048,70.292 L187.064,70.324 L187.064,70.323 L187.048,70.292 L187.064,70.324 L186.837,69.878 L186.352,69.756 C186.347,69.778 186.208,70.316 186.207,70.951 C186.21,71.335 186.252,71.762 186.469,72.159 C186.578,72.356 186.741,72.544 186.962,72.675 C187.181,72.807 187.447,72.874 187.729,72.873 C187.89,72.873 188.057,72.853 188.233,72.814 C189.35,72.57 190.127,71.964 190.569,71.211 C191.013,70.459 191.148,69.598 191.149,68.786 C191.145,67.051 190.532,65.479 190.523,65.449 L190.056,65.628 L190.123,66.124 L190.056,65.628" id="Fill-65" fill="#3D1717"></path>
        <path d="M85.191,84.68 L85.191,70.433 C85.191,69.36 85.962,68.824 87.504,68.824 C89.045,68.824 89.815,69.36 89.815,70.433 L89.815,85.091 C89.815,86.473 90.183,87.586 90.92,88.431 C91.656,89.276 92.692,89.698 94.028,89.698 C95.363,89.698 96.405,89.273 97.153,88.422 C97.901,87.572 98.274,86.461 98.274,85.091 L98.274,70.433 C98.274,69.36 99.046,68.824 100.587,68.824 C102.128,68.824 102.898,69.36 102.898,70.433 L102.898,84.68 C102.898,87.809 102.102,90.129 100.509,91.642 C98.917,93.155 96.757,93.91 94.028,93.91 C92.715,93.91 91.528,93.734 90.466,93.38 C89.404,93.026 88.476,92.484 87.683,91.753 C86.889,91.022 86.276,90.061 85.842,88.867 C85.408,87.674 85.191,86.279 85.191,84.68" id="Fill-66" fill="#3D1717"></path>
        <path d="M111.245,80.961 C110.454,80.961 109.737,80.855 109.097,80.641 C108.457,80.428 107.898,80.101 107.42,79.66 C106.941,79.22 106.571,78.64 106.309,77.92 C106.047,77.201 105.917,76.36 105.917,75.396 L105.917,66.805 C105.917,66.159 106.381,65.835 107.311,65.835 C108.24,65.835 108.705,66.159 108.705,66.805 L108.705,75.644 C108.705,76.477 108.926,77.148 109.371,77.658 C109.815,78.166 110.439,78.421 111.245,78.421 C112.05,78.421 112.678,78.164 113.13,77.652 C113.58,77.139 113.805,76.47 113.805,75.644 L113.805,66.805 C113.805,66.159 114.27,65.835 115.2,65.835 C116.129,65.835 116.593,66.159 116.593,66.805 L116.593,75.396 C116.593,77.283 116.113,78.681 115.153,79.593 C114.193,80.505 112.89,80.961 111.245,80.961" id="Fill-67" fill="#6F4F33"></path>
        <path d="M121.59,70.074 C121.212,70.074 120.87,70.023 120.564,69.92 C120.258,69.819 119.991,69.662 119.762,69.452 C119.534,69.242 119.357,68.964 119.232,68.62 C119.107,68.277 119.045,67.875 119.045,67.414 L119.045,63.31 C119.045,63.001 119.266,62.847 119.711,62.847 C120.154,62.847 120.377,63.001 120.377,63.31 L120.377,67.533 C120.377,67.931 120.482,68.251 120.695,68.494 C120.907,68.738 121.205,68.86 121.59,68.86 C121.974,68.86 122.275,68.738 122.49,68.492 C122.706,68.247 122.813,67.927 122.813,67.533 L122.813,63.31 C122.813,63.001 123.035,62.847 123.479,62.847 C123.923,62.847 124.145,63.001 124.145,63.31 L124.145,67.414 C124.145,68.316 123.916,68.984 123.457,69.419 C122.999,69.856 122.376,70.074 121.59,70.074" id="Fill-68" fill="#8C7644"></path>
        <path d="M95.155,103.214 C95.161,103.267 95.792,110.809 101.543,118.38 C107.29,125.954 118.193,133.491 138.486,133.482 C138.762,133.482 138.986,133.258 138.986,132.982 C138.986,132.706 138.762,132.482 138.486,132.482 C118.436,132.472 107.922,125.105 102.339,117.774 C99.55,114.106 98,110.434 97.15,107.682 C96.725,106.307 96.475,105.162 96.331,104.364 C96.259,103.966 96.214,103.654 96.187,103.443 C96.173,103.338 96.164,103.258 96.159,103.205 L96.151,103.131 C96.128,102.855 95.887,102.651 95.611,102.674 C95.336,102.697 95.132,102.939 95.155,103.214" id="Fill-69" fill="#3D1717"></path>
    </g>
</svg>