<?xml version="1.0" encoding="UTF-8"?>
<svg width="298px" height="298px" viewBox="0 0 298 298" version="1.1" xmlns="http://www.w3.org/2000/svg" xmlns:xlink="http://www.w3.org/1999/xlink">
    <!-- Generator: Sketch 50.2 (55047) - http://www.bohemiancoding.com/sketch -->
    <title>chost</title>
    <desc>Created with Sketch.</desc>
    <defs></defs>
    <g id="chost" stroke="none" stroke-width="1" fill="none" fill-rule="evenodd">
        <path d="M58.243,84.246 C58.243,84.246 60.485,81.8 56.002,80.578 C51.518,79.355 43.978,77.928 48.462,73.649 C52.945,69.37 63.949,76.298 66.802,81.393 C69.655,86.487 71.081,91.174 66.802,99.122 C63.633,105.007 62.319,123.983 83.308,129.485 C104.298,134.988 110.411,127.448 110.615,114.202 C110.725,107.059 105.928,64.275 142.813,64.275 C179.698,64.275 178.418,90.561 186.422,105.235 C194.981,120.927 208.431,121.13 221.269,113.183 C234.107,105.235 228.809,82.208 219.435,75.891 C210.061,69.573 199.542,74.587 200.483,67.332 C201.528,59.282 210.061,65.09 211.895,66.313 C213.729,67.536 219.028,72.178 225.956,63.54 C232.884,54.901 231.356,47.463 238.896,48.482 C246.436,49.501 235.738,59.384 235.738,59.384 C235.738,59.384 228.402,66.72 236.553,64.886 C244.704,63.052 245.723,52.252 251.021,54.086 C256.32,55.92 253.059,61.83 247.15,65.09 C241.24,68.351 243.074,72.223 249.187,70.592 C255.301,68.962 264.451,65.383 261.822,72.426 C259.682,78.158 239.966,73.649 237.521,83.431 C235.075,93.212 244.093,97.492 250.206,103.605 C256.32,109.718 255.097,119.092 248.984,125.614 C242.87,132.134 236.96,136.822 248.372,144.158 C259.784,151.494 260.287,158.18 248.448,160.766 C241.8,162.218 242.759,171.389 236.553,173.095 C234.244,173.73 231.514,173.591 228.762,173.452 C222.01,173.111 215.124,172.77 213.984,183.844 C212.868,194.681 216.2,199.128 224.53,208.553 C235.156,220.578 219.945,229.543 203.133,228.524 C190.524,227.759 173.19,238.794 172.361,249.717 C171.648,259.117 177.048,270.503 188.052,258.276 C188.052,258.276 184.232,274.349 170.273,268.287 C155.541,261.888 166.859,244.419 151.168,242.993 C135.477,241.566 120.023,237.39 119.378,219.353 C118.919,206.541 115.559,204.538 111.227,203.663 C107.452,202.899 101.241,203.254 104.502,189.805 C107.762,176.355 97.981,179.794 90.848,183.284 C80.355,188.418 69.859,175.211 76.176,158.87 C80.853,146.771 69.868,146.888 60.972,147.006 C57.852,147.047 54.989,147.089 53.149,146.603 C47.162,145.024 38.173,138.045 47.088,122.761 C56.002,107.477 58.418,105.291 56.002,101.363 C54.371,98.714 51.597,101.18 50.703,102.179 C47.239,106.05 42.595,106.458 43.898,101.567 C45.201,96.676 52.945,98.103 52.334,93.416 C51.722,88.729 45.883,90.855 42.96,90.938 C34.604,91.174 33.382,85.876 38.069,84.246 C40.017,83.568 42.621,84.313 45.503,85.058 C49.554,86.105 54.153,87.152 58.243,84.246" id="Fill-4" fill="#A6D8D7"></path>
        <polyline id="Fill-13" fill="#ECA6A9" points="190.365 163.742 183.045 156.358 193.101 153.711 190.365 163.742"></polyline>
        <path d="M184.01,156.621 L190.11,162.775 L192.39,154.415 L184.01,156.621 M190.365,164.242 C190.233,164.242 190.105,164.19 190.009,164.093 L182.69,156.71 C182.565,156.584 182.516,156.399 182.563,156.226 C182.61,156.054 182.746,155.92 182.919,155.875 L192.973,153.227 C193.147,153.183 193.33,153.231 193.456,153.359 C193.581,153.485 193.63,153.67 193.583,153.842 L190.847,163.874 C190.8,164.045 190.665,164.18 190.492,164.225 L190.365,164.242" id="Fill-14" fill="#3D1717"></path>
        <polyline id="Fill-15" fill="#ECA6A9" points="174.976 148.769 182.296 156.153 172.241 158.8 174.976 148.769"></polyline>
        <path d="M175.231,149.736 L172.951,158.096 L181.331,155.89 L175.231,149.736 M172.241,159.3 C172.109,159.3 171.981,159.249 171.885,159.152 C171.761,159.026 171.712,158.841 171.758,158.669 L174.494,148.637 C174.541,148.465 174.676,148.331 174.849,148.286 C175.022,148.242 175.206,148.291 175.332,148.418 L182.651,155.801 C182.776,155.927 182.825,156.112 182.778,156.285 C182.731,156.457 182.595,156.591 182.423,156.636 L172.368,159.284 L172.241,159.3" id="Fill-16" fill="#3D1717"></path>
        <path d="M183.968,151.555 C186.566,152.264 188.097,154.944 187.389,157.543 C186.681,160.14 184.001,161.671 181.403,160.963 C178.804,160.255 177.273,157.575 177.981,154.977 C178.69,152.378 181.37,150.847 183.968,151.555" id="Fill-17" fill="#ECA6A9"></path>
        <path d="M182.678,151.881 C181.927,151.881 181.184,152.078 180.513,152.461 C179.499,153.041 178.771,153.981 178.464,155.109 C178.156,156.236 178.305,157.416 178.886,158.431 C179.466,159.446 180.406,160.173 181.534,160.481 C183.856,161.117 186.272,159.738 186.907,157.411 C187.541,155.084 186.164,152.672 183.836,152.038 C183.453,151.933 183.064,151.881 182.678,151.881 M182.682,161.635 C182.216,161.635 181.742,161.575 181.27,161.446 C179.885,161.068 178.73,160.173 178.017,158.927 C177.305,157.68 177.121,156.231 177.499,154.845 C177.877,153.461 178.771,152.304 180.017,151.592 C181.264,150.88 182.714,150.697 184.099,151.073 C186.959,151.853 188.651,154.815 187.872,157.674 C187.22,160.062 185.047,161.635 182.682,161.635" id="Fill-18" fill="#3D1717"></path>
        <polyline id="Fill-19" fill="#3C1919" points="142.902 224.004 146.072 214.102 153.063 221.799 142.902 224.004"></polyline>
        <path d="M146.284,215.08 L143.641,223.333 L152.11,221.495 L146.284,215.08 M142.901,224.504 C142.761,224.504 142.627,224.446 142.531,224.34 C142.411,224.209 142.371,224.022 142.425,223.852 L145.595,213.95 C145.65,213.78 145.792,213.651 145.966,213.614 C146.144,213.577 146.322,213.634 146.442,213.766 L153.432,221.463 C153.552,221.595 153.593,221.782 153.539,221.952 C153.484,222.122 153.342,222.251 153.169,222.288 L143.008,224.493 L142.901,224.504" id="Fill-20" fill="#3D1717"></path>
        <polyline id="Fill-21" fill="#3C1919" points="149.078 203.44 145.907 213.342 138.917 205.645 149.078 203.44"></polyline>
        <path d="M139.869,205.95 L145.695,212.365 L148.338,204.112 L139.869,205.95 M145.907,213.842 C145.767,213.842 145.633,213.784 145.537,213.678 L138.547,205.981 C138.426,205.849 138.386,205.663 138.44,205.493 C138.495,205.323 138.636,205.194 138.81,205.157 L148.971,202.952 C149.153,202.914 149.328,202.972 149.448,203.104 C149.568,203.236 149.608,203.422 149.554,203.592 L146.383,213.495 C146.329,213.665 146.187,213.794 146.013,213.831 L145.907,213.842" id="Fill-22" fill="#3D1717"></path>
        <path d="M150.758,212.703 C151.329,215.335 149.659,217.93 147.027,218.502 C144.395,219.073 141.799,217.402 141.228,214.771 C140.657,212.139 142.327,209.543 144.959,208.972 C147.591,208.401 150.187,210.071 150.758,212.703" id="Fill-23" fill="#E2625C"></path>
        <path d="M145.994,209.361 C145.687,209.361 145.377,209.393 145.065,209.46 C143.923,209.709 142.945,210.386 142.313,211.369 C141.68,212.352 141.468,213.523 141.717,214.665 C142.229,217.023 144.565,218.524 146.921,218.013 C149.279,217.502 150.781,215.167 150.269,212.809 C149.825,210.762 148.008,209.361 145.994,209.361 M145.992,219.113 C143.518,219.113 141.286,217.391 140.74,214.877 C140.435,213.473 140.695,212.036 141.471,210.828 C142.249,209.621 143.449,208.788 144.853,208.484 C146.259,208.179 147.694,208.439 148.901,209.215 C150.109,209.993 150.941,211.193 151.246,212.596 C151.55,214 151.291,215.438 150.514,216.645 C149.737,217.853 148.537,218.685 147.134,218.99 C146.751,219.073 146.369,219.113 145.992,219.113" id="Fill-24" fill="#3C1919"></path>
        <path d="M189.411,179.18 C190.68,179.526 191.428,180.836 191.082,182.104 C190.736,183.373 189.427,184.121 188.158,183.775 C186.89,183.428 186.142,182.12 186.488,180.851 C186.834,179.583 188.142,178.835 189.411,179.18" id="Fill-25" fill="#E2625C"></path>
        <path d="M188.782,179.595 C188.459,179.595 188.139,179.679 187.851,179.844 C187.416,180.093 187.102,180.498 186.97,180.983 C186.697,181.983 187.289,183.019 188.29,183.293 C189.292,183.565 190.327,182.972 190.599,181.972 C190.731,181.488 190.667,180.981 190.418,180.545 C190.168,180.108 189.764,179.794 189.279,179.663 C189.115,179.618 188.948,179.595 188.782,179.595 M188.783,184.359 C188.533,184.359 188.279,184.326 188.026,184.257 C187.284,184.054 186.665,183.575 186.283,182.907 C185.901,182.239 185.802,181.462 186.006,180.719 C186.208,179.977 186.687,179.358 187.355,178.976 C188.024,178.594 188.802,178.498 189.543,178.698 C190.285,178.9 190.904,179.379 191.286,180.048 C191.668,180.716 191.766,181.493 191.564,182.236 C191.216,183.515 190.051,184.359 188.783,184.359" id="Fill-26" fill="#3C1919"></path>
        <path d="M129.736,191.857 C131.86,192.436 133.113,194.628 132.533,196.752 C131.954,198.876 129.763,200.128 127.639,199.548 C125.514,198.969 124.262,196.778 124.842,194.654 C125.421,192.53 127.612,191.278 129.736,191.857" id="Fill-27" fill="#E2625C"></path>
        <path d="M128.681,192.215 C128.083,192.215 127.492,192.371 126.958,192.676 C126.149,193.138 125.569,193.887 125.324,194.786 C125.079,195.684 125.198,196.624 125.661,197.432 C126.123,198.241 126.872,198.821 127.77,199.066 C128.668,199.311 129.608,199.192 130.417,198.729 C131.225,198.267 131.805,197.518 132.05,196.62 C132.296,195.721 132.176,194.782 131.714,193.973 C131.252,193.165 130.503,192.585 129.604,192.339 C129.3,192.256 128.99,192.215 128.681,192.215 M128.694,200.191 C128.299,200.191 127.899,200.138 127.507,200.031 C126.35,199.715 125.386,198.969 124.792,197.928 C124.198,196.888 124.044,195.678 124.359,194.522 C124.675,193.366 125.421,192.402 126.462,191.807 C127.5,191.212 128.711,191.057 129.868,191.375 C131.024,191.69 131.988,192.436 132.583,193.477 C133.176,194.517 133.331,195.727 133.015,196.883 C132.7,198.04 131.954,199.003 130.913,199.598 C130.226,199.991 129.465,200.191 128.694,200.191" id="Fill-28" fill="#3C1919"></path>
        <path d="M176.177,269.653 C174.447,269.653 172.488,269.249 170.273,268.287 C155.541,261.888 166.859,244.419 151.168,242.993 C135.477,241.566 120.023,237.39 119.378,219.353 C118.919,206.541 115.559,204.538 111.227,203.663 C108.193,203.049 103.586,203.158 103.587,196.242 C103.587,194.553 103.862,192.445 104.502,189.805 C104.947,187.97 105.149,186.45 105.148,185.201 C105.145,181.436 103.298,180.138 100.699,180.138 C97.841,180.138 94.074,181.706 90.848,183.284 C89.283,184.05 87.717,184.408 86.207,184.408 C79.724,184.408 74.27,177.813 74.265,168.619 C74.263,165.602 74.848,162.305 76.176,158.87 C76.946,156.877 77.292,155.216 77.292,153.832 C77.292,147.635 70.369,146.983 63.635,146.983 C62.738,146.983 61.846,146.994 60.972,147.006 C60.099,147.018 59.245,147.029 58.429,147.029 C56.329,147.029 54.474,146.953 53.149,146.603 C48.972,145.501 43.333,141.77 43.334,134.423 C43.334,131.241 44.393,127.38 47.088,122.761 C53.86,111.149 56.882,107.097 56.883,104.098 C56.884,103.15 56.582,102.307 56.002,101.363 C55.466,100.494 54.808,100.175 54.133,100.175 C52.752,100.175 51.304,101.508 50.703,102.179 C48.992,104.092 46.991,105.159 45.563,105.159 C44.441,105.159 43.672,104.501 43.674,103.075 C43.674,102.644 43.745,102.142 43.898,101.567 C45.151,96.863 52.364,98.004 52.368,93.926 C52.368,93.764 52.357,93.595 52.334,93.416 C52.016,90.983 50.29,90.386 48.294,90.386 C46.445,90.386 44.366,90.898 42.96,90.938 C42.778,90.943 42.6,90.946 42.425,90.946 C37.62,90.946 35.35,89.044 35.352,87.199 C35.354,86.022 36.282,84.867 38.069,84.246 C38.607,84.058 39.196,83.98 39.826,83.98 C41.478,83.98 43.418,84.519 45.503,85.058 C47.588,85.597 49.818,86.136 52.049,86.136 C54.153,86.136 56.258,85.656 58.243,84.246 C58.243,84.246 58.804,83.634 58.804,82.87 C58.804,82.106 58.243,81.189 56.002,80.578 C52.486,79.619 47.09,78.535 47.087,76.048 C47.087,75.363 47.494,74.573 48.462,73.649 C49.442,72.713 50.735,72.313 52.186,72.313 C57.369,72.313 64.573,77.412 66.802,81.393 C68.368,84.189 69.504,86.862 69.503,90.019 C69.502,92.614 68.733,95.536 66.802,99.122 C65.809,100.967 64.997,104.098 64.999,107.698 C65.001,115.58 68.898,125.708 83.308,129.485 C88.036,130.724 92.008,131.302 95.329,131.302 C106.752,131.302 110.457,124.465 110.615,114.202 C110.617,114.118 110.617,114.029 110.617,113.936 C110.618,112.446 110.465,109.742 110.465,106.336 C110.465,91.743 113.258,64.275 142.813,64.275 C179.698,64.275 178.418,90.561 186.422,105.235 C191.46,114.472 198.193,118.342 205.498,118.342 C210.604,118.342 215.988,116.452 221.269,113.183 C226.704,109.818 228.889,103.751 228.89,97.394 C228.891,88.733 224.841,79.534 219.435,75.891 C210.455,69.839 200.423,74.186 200.424,68.182 C200.424,67.919 200.444,67.636 200.483,67.332 C200.894,64.165 202.464,63.143 204.33,63.143 C207.206,63.143 210.783,65.571 211.895,66.313 C212.893,66.978 214.917,68.656 217.67,68.656 C219.978,68.656 222.797,67.478 225.956,63.54 C232.455,55.436 231.514,48.388 237.596,48.388 C237.998,48.388 238.429,48.419 238.896,48.482 C240.862,48.748 241.588,49.616 241.587,50.754 C241.584,53.983 235.738,59.384 235.738,59.384 C235.738,59.384 232.703,62.419 232.706,64.097 C232.708,64.738 233.152,65.181 234.378,65.181 C234.933,65.181 235.647,65.09 236.553,64.886 C244.07,63.195 245.521,53.877 249.858,53.877 C250.223,53.877 250.609,53.943 251.021,54.086 C252.889,54.733 253.693,55.886 253.693,57.251 C253.692,59.758 250.976,62.979 247.15,65.09 C244.662,66.463 243.546,67.944 243.545,69.077 C243.543,70.197 244.63,70.977 246.555,70.977 C247.309,70.977 248.191,70.858 249.187,70.592 C252.532,69.7 256.785,68.225 259.522,68.225 C261.181,68.225 262.282,68.768 262.285,70.311 C262.286,70.875 262.141,71.573 261.822,72.426 C259.682,78.158 239.966,73.649 237.521,83.431 C237.239,84.558 237.109,85.612 237.11,86.604 C237.115,94.223 244.797,98.196 250.206,103.605 C252.958,106.357 254.224,109.77 254.225,113.286 C254.227,117.581 252.345,122.028 248.984,125.614 C245.401,129.434 241.889,132.626 241.89,136.089 C241.891,138.537 243.647,141.12 248.372,144.158 C254.145,147.869 257.126,151.414 257.131,154.345 C257.135,157.209 254.299,159.488 248.448,160.766 C241.8,162.218 242.759,171.389 236.553,173.095 C235.223,173.461 233.753,173.569 232.22,173.57 C231.091,173.57 229.929,173.511 228.762,173.452 C227.595,173.393 226.424,173.334 225.28,173.334 C219.802,173.334 214.927,174.683 213.984,183.844 C213.846,185.188 213.776,186.434 213.775,187.603 C213.772,195.861 217.233,200.297 224.53,208.553 C226.979,211.325 228.056,213.934 228.056,216.296 C228.057,223.647 217.632,228.602 205.736,228.603 C204.874,228.603 204.007,228.577 203.133,228.524 C202.718,228.499 202.296,228.486 201.871,228.486 C189.399,228.486 173.163,239.153 172.361,249.717 C172.319,250.267 172.299,250.824 172.299,251.382 C172.299,257.395 174.714,263.602 179.416,263.602 C181.741,263.602 184.624,262.085 188.052,258.276 C188.052,258.276 185.347,269.653 176.177,269.653 M144.058,218.75 L142.425,223.852 C142.371,224.022 142.411,224.209 142.531,224.34 C142.627,224.446 142.761,224.504 142.901,224.504 L143.008,224.493 L153.169,222.288 C153.342,222.251 153.484,222.122 153.539,221.952 C153.593,221.782 153.552,221.595 153.432,221.463 L149.834,217.501 C150.086,217.242 150.314,216.956 150.514,216.645 C151.291,215.438 151.55,214 151.246,212.596 C150.941,211.193 150.109,209.993 148.901,209.215 C148.586,209.013 148.256,208.845 147.914,208.714 L149.554,203.592 C149.608,203.422 149.568,203.236 149.448,203.104 C149.352,202.999 149.221,202.94 149.08,202.94 C149.044,202.94 149.008,202.944 148.971,202.952 L138.81,205.157 C138.636,205.194 138.495,205.323 138.44,205.493 C138.386,205.663 138.426,205.849 138.547,205.981 L142.162,209.962 C141.906,210.223 141.674,210.513 141.471,210.828 C140.695,212.036 140.435,213.473 140.74,214.877 C141.138,216.708 142.43,218.119 144.058,218.75 M166.905,192.129 L174.547,199.771 C175.133,200.357 175.9,200.65 176.668,200.65 C177.435,200.65 178.203,200.357 178.789,199.771 C179.961,198.6 179.961,196.7 178.789,195.529 L171.147,187.887 L177.78,181.254 C177.874,181.161 177.926,181.034 177.926,180.901 C177.926,180.768 177.874,180.641 177.78,180.547 L156.745,159.513 C154.322,157.09 151.088,155.755 147.637,155.755 C144.187,155.755 140.953,157.09 138.53,159.513 C133.509,164.535 133.509,172.706 138.53,177.727 L159.565,198.762 C159.663,198.86 159.791,198.909 159.919,198.909 C160.047,198.909 160.175,198.86 160.272,198.762 L166.905,192.129 M128.679,191.213 C127.908,191.213 127.147,191.415 126.462,191.807 C125.421,192.402 124.675,193.366 124.359,194.522 C124.044,195.678 124.198,196.888 124.792,197.928 C125.386,198.969 126.35,199.715 127.507,200.031 C127.899,200.138 128.299,200.191 128.694,200.191 C129.465,200.191 130.226,199.991 130.913,199.598 C131.954,199.003 132.7,198.04 133.015,196.883 C133.331,195.727 133.176,194.517 132.583,193.477 C131.988,192.436 131.024,191.69 129.868,191.375 C129.475,191.267 129.075,191.213 128.679,191.213 M188.781,178.596 C188.286,178.596 187.797,178.724 187.355,178.976 C186.687,179.358 186.208,179.977 186.006,180.719 C185.802,181.462 185.901,182.239 186.283,182.907 C186.665,183.575 187.284,184.054 188.026,184.257 C188.279,184.326 188.533,184.359 188.783,184.359 C190.051,184.359 191.216,183.515 191.564,182.236 C191.766,181.493 191.668,180.716 191.286,180.048 C190.904,179.379 190.285,178.9 189.543,178.698 C189.291,178.63 189.035,178.596 188.781,178.596 M186.239,160.29 L190.009,164.093 C190.105,164.19 190.233,164.242 190.365,164.242 L190.492,164.225 C190.665,164.18 190.8,164.045 190.847,163.874 L193.583,153.842 C193.63,153.67 193.581,153.485 193.456,153.359 C193.36,153.262 193.233,153.211 193.101,153.211 C193.058,153.211 193.016,153.216 192.973,153.227 L187.793,154.591 C187.248,152.931 185.907,151.566 184.099,151.073 C183.629,150.945 183.152,150.882 182.678,150.882 C181.754,150.882 180.841,151.122 180.017,151.592 C179.692,151.778 179.391,151.994 179.117,152.236 L175.332,148.418 C175.236,148.321 175.107,148.27 174.975,148.27 C174.933,148.27 174.891,148.275 174.849,148.286 C174.676,148.331 174.541,148.465 174.494,148.637 L171.758,158.669 C171.712,158.841 171.761,159.026 171.885,159.152 C171.981,159.249 172.109,159.3 172.241,159.3 L172.368,159.284 L177.568,157.914 C177.682,158.263 177.832,158.602 178.017,158.927 C178.73,160.173 179.885,161.068 181.27,161.446 C181.742,161.575 182.216,161.635 182.682,161.635 C184.005,161.635 185.269,161.142 186.239,160.29" id="Fill-29" fill="#A6D8D7"></path>
        <path d="M190.11,162.775 L186.926,159.563 C187.352,159.018 187.679,158.382 187.872,157.674 C188.065,156.966 188.106,156.252 188.016,155.566 L192.39,154.415 L190.11,162.775" id="Fill-38" fill="#CBC0C0"></path>
        <path d="M190.365,164.242 C190.233,164.242 190.105,164.19 190.009,164.093 L186.239,160.29 C186.489,160.071 186.719,159.827 186.926,159.563 L190.11,162.775 L192.39,154.415 L188.016,155.566 C187.972,155.233 187.897,154.907 187.793,154.591 L192.973,153.227 C193.016,153.216 193.058,153.211 193.101,153.211 C193.233,153.211 193.36,153.262 193.456,153.359 C193.581,153.485 193.63,153.67 193.583,153.842 L190.847,163.874 C190.8,164.045 190.665,164.18 190.492,164.225 L190.365,164.242" id="Fill-39" fill="#736157"></path>
        <path d="M172.951,158.096 L175.231,149.736 L178.433,152.966 C178.006,153.517 177.688,154.153 177.499,154.845 C177.31,155.538 177.261,156.247 177.349,156.938 L172.951,158.096" id="Fill-40" fill="#CBC0C0"></path>
        <path d="M172.241,159.3 C172.109,159.3 171.981,159.249 171.885,159.152 C171.761,159.026 171.712,158.841 171.758,158.669 L174.494,148.637 C174.541,148.465 174.676,148.331 174.849,148.286 C174.891,148.275 174.933,148.27 174.975,148.27 C175.107,148.27 175.236,148.321 175.332,148.418 L179.117,152.236 C178.866,152.458 178.637,152.703 178.433,152.966 L175.231,149.736 L172.951,158.096 L177.349,156.938 C177.391,157.269 177.464,157.595 177.568,157.914 L172.368,159.284 L172.241,159.3" id="Fill-41" fill="#736157"></path>
        <path d="M182.683,160.636 C182.303,160.636 181.917,160.586 181.534,160.481 C180.406,160.173 179.466,159.446 178.886,158.431 C178.305,157.416 178.156,156.236 178.464,155.109 C178.771,153.981 179.499,153.041 180.513,152.461 C181.184,152.078 181.927,151.881 182.678,151.881 C183.064,151.881 183.453,151.933 183.836,152.038 C186.164,152.672 187.541,155.084 186.907,157.411 C186.377,159.354 184.605,160.636 182.683,160.636" id="Fill-42" fill="#CBC0C0"></path>
        <path d="M182.682,161.635 C182.216,161.635 181.742,161.575 181.27,161.446 C179.885,161.068 178.73,160.173 178.017,158.927 C177.832,158.602 177.682,158.263 177.568,157.914 C177.464,157.595 177.391,157.269 177.349,156.938 C177.261,156.247 177.31,155.538 177.499,154.845 C177.688,154.153 178.006,153.517 178.433,152.966 C178.637,152.703 178.866,152.458 179.117,152.236 C179.391,151.994 179.692,151.778 180.017,151.592 C180.841,151.122 181.754,150.882 182.678,150.882 C183.152,150.882 183.629,150.945 184.099,151.073 C185.907,151.566 187.248,152.931 187.793,154.591 C187.897,154.907 187.972,155.233 188.016,155.566 C188.106,156.252 188.065,156.966 187.872,157.674 C187.679,158.382 187.352,159.018 186.926,159.563 C186.719,159.827 186.489,160.071 186.239,160.29 C185.269,161.142 184.005,161.635 182.682,161.635 M182.678,151.881 C181.927,151.881 181.184,152.078 180.513,152.461 C179.499,153.041 178.771,153.981 178.464,155.109 C178.156,156.236 178.305,157.416 178.886,158.431 C179.466,159.446 180.406,160.173 181.534,160.481 C181.917,160.586 182.303,160.636 182.683,160.636 C184.605,160.636 186.377,159.354 186.907,157.411 C187.541,155.084 186.164,152.672 183.836,152.038 C183.453,151.933 183.064,151.881 182.678,151.881" id="Fill-43" fill="#736157"></path>
        <path d="M143.641,223.333 L145.021,219.024 C145.338,219.082 145.663,219.113 145.992,219.113 C146.369,219.113 146.751,219.073 147.134,218.99 C147.84,218.836 148.495,218.549 149.071,218.148 L152.11,221.495 L143.641,223.333" id="Fill-44" fill="#726259"></path>
        <path d="M142.901,224.504 C142.761,224.504 142.627,224.446 142.531,224.34 C142.411,224.209 142.371,224.022 142.425,223.852 L144.058,218.75 C144.368,218.871 144.69,218.962 145.021,219.024 L143.641,223.333 L152.11,221.495 L149.071,218.148 C149.344,217.957 149.599,217.741 149.834,217.501 L153.432,221.463 C153.552,221.595 153.593,221.782 153.539,221.952 C153.484,222.122 153.342,222.251 153.169,222.288 L143.008,224.493 L142.901,224.504" id="Fill-45" fill="#736157"></path>
        <path d="M142.927,209.317 L139.869,205.95 L148.338,204.112 L146.95,208.444 C146.64,208.388 146.324,208.36 146.006,208.36 C145.623,208.36 145.237,208.401 144.853,208.484 C144.151,208.636 143.5,208.92 142.927,209.317" id="Fill-46" fill="#726259"></path>
        <path d="M142.162,209.962 L138.547,205.981 C138.426,205.849 138.386,205.663 138.44,205.493 C138.495,205.323 138.636,205.194 138.81,205.157 L148.971,202.952 C149.008,202.944 149.044,202.94 149.08,202.94 C149.221,202.94 149.352,202.999 149.448,203.104 C149.568,203.236 149.608,203.422 149.554,203.592 L147.914,208.714 C147.601,208.594 147.279,208.503 146.95,208.444 L148.338,204.112 L139.869,205.95 L142.927,209.317 C142.653,209.507 142.397,209.723 142.162,209.962" id="Fill-47" fill="#736157"></path>
        <path d="M145.993,218.113 C143.981,218.113 142.162,216.712 141.717,214.665 C141.468,213.523 141.68,212.352 142.313,211.369 C142.945,210.386 143.923,209.709 145.065,209.46 C145.377,209.393 145.687,209.361 145.994,209.361 C148.008,209.361 149.825,210.762 150.269,212.809 C150.781,215.167 149.279,217.502 146.921,218.013 C146.61,218.081 146.299,218.113 145.993,218.113" id="Fill-48" fill="#C99E92"></path>
        <path d="M145.992,219.113 C145.663,219.113 145.338,219.082 145.021,219.024 C144.69,218.962 144.368,218.871 144.058,218.75 C142.43,218.119 141.138,216.708 140.74,214.877 C140.435,213.473 140.695,212.036 141.471,210.828 C141.674,210.513 141.906,210.223 142.162,209.962 C142.397,209.723 142.653,209.507 142.927,209.317 C143.5,208.92 144.151,208.636 144.853,208.484 C145.237,208.401 145.623,208.36 146.006,208.36 C146.324,208.36 146.64,208.388 146.95,208.444 C147.279,208.503 147.601,208.594 147.914,208.714 C148.256,208.845 148.586,209.013 148.901,209.215 C150.109,209.993 150.941,211.193 151.246,212.596 C151.55,214 151.291,215.438 150.514,216.645 C150.314,216.956 150.086,217.242 149.834,217.501 C149.599,217.741 149.344,217.957 149.071,218.148 C148.495,218.549 147.84,218.836 147.134,218.99 C146.751,219.073 146.369,219.113 145.992,219.113 M145.994,209.361 C145.687,209.361 145.377,209.393 145.065,209.46 C143.923,209.709 142.945,210.386 142.313,211.369 C141.68,212.352 141.468,213.523 141.717,214.665 C142.162,216.712 143.981,218.113 145.993,218.113 C146.299,218.113 146.61,218.081 146.921,218.013 C149.279,217.502 150.781,215.167 150.269,212.809 C149.825,210.762 148.008,209.361 145.994,209.361" id="Fill-49" fill="#726259"></path>
        <path d="M188.784,183.359 C188.621,183.359 188.455,183.337 188.29,183.293 C187.289,183.019 186.697,181.983 186.97,180.983 C187.102,180.498 187.416,180.093 187.851,179.844 C188.139,179.679 188.459,179.595 188.782,179.595 C188.948,179.595 189.115,179.618 189.279,179.663 C189.764,179.794 190.168,180.108 190.418,180.545 C190.667,180.981 190.731,181.488 190.599,181.972 C190.372,182.808 189.612,183.359 188.784,183.359" id="Fill-50" fill="#C99E92"></path>
        <path d="M188.783,184.359 C188.533,184.359 188.279,184.326 188.026,184.257 C187.284,184.054 186.665,183.575 186.283,182.907 C185.901,182.239 185.802,181.462 186.006,180.719 C186.208,179.977 186.687,179.358 187.355,178.976 C187.797,178.724 188.286,178.596 188.781,178.596 C189.035,178.596 189.291,178.63 189.543,178.698 C190.285,178.9 190.904,179.379 191.286,180.048 C191.668,180.716 191.766,181.493 191.564,182.236 C191.216,183.515 190.051,184.359 188.783,184.359 M188.782,179.595 C188.459,179.595 188.139,179.679 187.851,179.844 C187.416,180.093 187.102,180.498 186.97,180.983 C186.697,181.983 187.289,183.019 188.29,183.293 C188.455,183.337 188.621,183.359 188.784,183.359 C189.612,183.359 190.372,182.808 190.599,181.972 C190.731,181.488 190.667,180.981 190.418,180.545 C190.168,180.108 189.764,179.794 189.279,179.663 C189.115,179.618 188.948,179.595 188.782,179.595" id="Fill-51" fill="#726259"></path>
        <path d="M128.693,199.19 C128.385,199.19 128.075,199.149 127.77,199.066 C126.872,198.821 126.123,198.241 125.661,197.432 C125.198,196.624 125.079,195.684 125.324,194.786 C125.569,193.887 126.149,193.138 126.958,192.676 C127.492,192.371 128.083,192.215 128.681,192.215 C128.99,192.215 129.3,192.256 129.604,192.339 C130.503,192.585 131.252,193.165 131.714,193.973 C132.176,194.782 132.296,195.721 132.05,196.62 C131.805,197.518 131.225,198.267 130.417,198.729 C129.883,199.035 129.291,199.19 128.693,199.19" id="Fill-52" fill="#C99E92"></path>
        <path d="M128.694,200.191 C128.299,200.191 127.899,200.138 127.507,200.031 C126.35,199.715 125.386,198.969 124.792,197.928 C124.198,196.888 124.044,195.678 124.359,194.522 C124.675,193.366 125.421,192.402 126.462,191.807 C127.147,191.415 127.908,191.213 128.679,191.213 C129.075,191.213 129.475,191.267 129.868,191.375 C131.024,191.69 131.988,192.436 132.583,193.477 C133.176,194.517 133.331,195.727 133.015,196.883 C132.7,198.04 131.954,199.003 130.913,199.598 C130.226,199.991 129.465,200.191 128.694,200.191 M128.681,192.215 C128.083,192.215 127.492,192.371 126.958,192.676 C126.149,193.138 125.569,193.887 125.324,194.786 C125.079,195.684 125.198,196.624 125.661,197.432 C126.123,198.241 126.872,198.821 127.77,199.066 C128.075,199.149 128.385,199.19 128.693,199.19 C129.291,199.19 129.883,199.035 130.417,198.729 C131.225,198.267 131.805,197.518 132.05,196.62 C132.296,195.721 132.176,194.782 131.714,193.973 C131.252,193.165 130.503,192.585 129.604,192.339 C129.3,192.256 128.99,192.215 128.681,192.215" id="Fill-53" fill="#726259"></path>
        <path d="M160.574,99.937 C160.574,106.437 158.522,111.705 155.989,111.705 C153.457,111.705 151.405,106.437 151.405,99.937 C151.405,93.438 153.457,88.168 155.989,88.168 C158.522,88.168 160.574,93.438 160.574,99.937" id="Fill-54" fill="#7BBDBC"></path>
        <path d="M140.622,99.937 C140.622,106.437 138.57,111.705 136.037,111.705 C133.505,111.705 131.452,106.437 131.452,99.937 C131.452,93.438 133.505,88.168 136.037,88.168 C138.57,88.168 140.622,93.438 140.622,99.937" id="Fill-55" fill="#7BBDBC"></path>
        <path d="M236.387,55.258 C234.79,57.232 229.013,63.766 232.788,64.504 C231.866,63.154 235.738,59.384 235.738,59.384 C235.738,59.384 245.879,50.012 239.442,48.583 C240.577,50.978 237.597,53.762 236.387,55.258" id="Fill-56" fill="#7BBDBC"></path>
        <path d="M247.812,62.148 C240.17,65.6 240.272,70.685 244.784,70.681 C241.291,68.045 246.565,65.413 247.15,65.09 C252.692,62.032 255.904,56.644 251.91,54.474 C252.091,56.684 250.738,60.827 247.812,62.148" id="Fill-57" fill="#7BBDBC"></path>
        <path d="M77.182,152.574 C78.514,141.192 58.368,143.412 51.926,141.712 C48.955,140.928 45.248,138.813 43.353,135.015 C43.648,141.968 49.086,145.532 53.149,146.603 C58.366,147.98 74.953,143.795 77.182,152.574" id="Fill-58" fill="#7BBDBC"></path>
        <path d="M247.761,120.723 C242.957,125.847 234.84,133.154 243.211,140.286 C239.589,133.867 245.824,128.984 248.984,125.614 C253.903,120.366 255.647,113.273 252.958,107.516 C253.239,112.077 251.353,116.891 247.761,120.723" id="Fill-59" fill="#7BBDBC"></path>
        <path d="M247.226,155.876 C240.577,157.327 241.536,166.499 235.33,168.204 C227.357,170.395 214.366,163.364 212.761,178.954 C212.266,183.759 212.651,187.307 213.954,190.591 C213.715,188.596 213.72,186.402 213.984,183.844 C215.589,168.255 228.58,175.286 236.553,173.095 C242.759,171.389 241.8,162.218 248.448,160.766 C256.665,158.971 258.931,155.201 255.737,150.61 C255.059,152.93 252.264,154.775 247.226,155.876" id="Fill-60" fill="#7BBDBC"></path>
        <path d="M105.08,184.04 C105.715,174.988 96.013,175.268 89.626,178.393 C83.377,181.451 77.128,178.003 74.429,171.262 C75.608,181.06 83.226,187.013 90.848,183.284 C95.533,180.992 103.381,177.338 105.08,184.04" id="Fill-61" fill="#7BBDBC"></path>
        <path d="M260.17,68.275 C262.535,72.273 253.286,73.394 247.761,74.362 C242.886,75.217 237.39,74.171 236.298,78.54 C235.491,81.768 235.948,84.389 237.121,86.683 C237.113,85.666 237.231,84.589 237.521,83.431 C239.966,73.649 259.682,78.158 261.822,72.426 C262.89,69.565 261.997,68.473 260.17,68.275" id="Fill-62" fill="#7BBDBC"></path>
        <path d="M201.91,223.633 C189.301,222.869 171.968,233.903 171.138,244.827 C170.901,247.96 171.346,251.308 172.448,253.935 C172.287,252.541 172.256,251.108 172.361,249.717 C173.19,238.794 190.524,227.759 203.133,228.524 C218.404,229.45 232.351,222.135 226.814,211.775 C226.445,219.448 214.641,224.405 201.91,223.633" id="Fill-63" fill="#7BBDBC"></path>
        <path d="M110.004,198.771 C107.946,198.355 105.165,198.267 103.589,196.095 C103.524,203.157 108.205,202.9 111.227,203.663 C118.905,205.598 117.425,210.078 118.905,213.737 C118.257,200.605 113.6,199.499 110.004,198.771" id="Fill-64" fill="#7BBDBC"></path>
        <path d="M179.683,263.585 C177.068,264.99 173.601,265.373 169.05,263.396 C164.566,261.449 162.501,258.473 161.347,255.239 C162.262,260.178 163.572,265.377 170.273,268.287 C184.232,274.349 188.052,258.276 188.052,258.276 C184.753,261.942 181.961,263.474 179.683,263.585" id="Fill-65" fill="#7BBDBC"></path>
        <path d="M149.945,238.101 C136.858,236.912 123.943,233.802 119.641,222.339 C121.816,237.859 136.384,241.648 151.168,242.993 C156.452,243.472 158.668,245.776 159.853,248.859 C158.881,243.524 157.779,238.814 149.945,238.101" id="Fill-66" fill="#7BBDBC"></path>
        <path d="M228.575,101.378 C227.806,106.203 225.55,110.533 221.269,113.183 C208.431,121.13 194.981,120.926 186.422,105.235 C178.548,90.799 179.631,65.143 144.55,64.314 C154.641,68.402 166.451,66.313 174.399,87.404 C184.596,114.466 182.1,129.641 207.412,127.122 C225.752,125.296 228.789,102.841 228.575,101.378" id="Fill-67" fill="#7BBDBC"></path>
        <path d="M160.185,126.837 C160.185,126.837 162.096,143.954 154.836,144.413 C147.576,144.871 148.926,131.775 148.926,131.775 C148.926,131.775 148.379,135.63 145.895,135.63 C141.203,135.63 142.151,127.798 142.151,127.798 L160.185,126.837" id="Fill-68" fill="#ECA6A9"></path>
        <path d="M65.074,90.834 C65.074,90.834 62.013,91.276 58.753,91.887 C55.492,92.499 54.763,90.359 54.763,90.359 L55.736,89.09 L56.182,89.192 L63.8,87.107 L65.096,85.246 L64,83.691 C63.436,80.762 55.39,74.107 53.2,75.738 C51.009,77.368 47.748,76.655 47.748,76.655 L48.468,78.018 C50.303,79.204 53.592,79.92 56.002,80.578 C60.485,81.8 58.243,84.246 58.243,84.246 C55.411,86.258 52.338,86.365 49.368,85.899 L44.544,86.167 C44.053,86.158 43.606,86.18 43.216,86.24 L43.207,86.241 L43.21,86.241 C42.566,86.343 42.08,86.547 41.839,86.895 C40.201,89.25 36.439,88.612 36.439,88.612 L36.595,89.417 C37.801,90.364 39.896,91.024 42.96,90.938 C45.883,90.855 51.722,88.729 52.334,93.416 C52.378,93.754 52.367,94.053 52.33,94.333 L52.334,94.333 C58.345,94.333 55.662,97.24 54.763,97.797 C52.981,98.902 49.888,99.529 47.035,101.058 C45.201,102.04 44.217,103.1 43.742,103.737 C44.267,106.188 47.876,105.338 50.703,102.179 C51.597,101.18 54.371,98.714 56.002,101.363 C56.179,101.652 56.327,101.931 56.452,102.206 C58.683,102.221 60.786,101.04 63.236,99.733 C66.293,98.103 66.587,91.998 66.587,91.998 L65.074,90.834" id="Fill-69" fill="#7BBDBC"></path>
        <path d="M100.7,179.643 C101.955,179.643 103.071,179.924 103.93,180.615 C105.797,182.114 106.142,185.159 104.988,189.923 C103.741,195.064 103.779,198.536 105.102,200.538 C106.283,202.323 108.384,202.671 110.237,202.979 C110.614,203.042 110.979,203.103 111.326,203.172 C115.558,204.027 119.397,205.907 119.878,219.336 C120.52,237.291 136.078,241.119 151.213,242.495 C159.689,243.265 160.649,248.578 161.666,254.202 C162.61,259.431 163.588,264.838 170.471,267.828 C174.249,269.468 177.595,269.585 180.424,268.171 C183.977,266.396 185.959,262.575 186.89,260.2 C182.421,264.491 179.223,264.504 177.26,263.665 C173.153,261.908 171.436,255.299 171.862,249.679 C172.262,244.416 176.341,238.818 183.051,234.322 C189.494,230.006 197.022,227.659 203.163,228.025 C214.135,228.684 224.072,225.096 226.809,219.481 C228.371,216.281 227.453,212.616 224.154,208.884 C215.925,199.572 212.334,194.983 213.487,183.794 C214.676,172.24 222.179,172.621 228.8,172.953 C231.574,173.093 234.194,173.225 236.42,172.613 C239.231,171.84 240.471,169.399 241.785,166.814 C243.218,163.991 244.702,161.073 248.342,160.278 C253.3,159.195 256.146,157.369 256.573,154.999 C257.091,152.124 254.082,148.423 248.101,144.579 C243.861,141.853 241.742,139.365 241.429,136.749 C241.012,133.248 243.929,130.192 247.306,126.655 C247.738,126.203 248.177,125.742 248.618,125.272 C254.939,118.528 255.459,109.565 249.852,103.959 C248.521,102.628 247.024,101.362 245.577,100.138 C240.403,95.763 235.052,91.239 237.035,83.31 C238.508,77.419 245.659,76.453 251.968,75.601 C256.374,75.006 260.535,74.444 261.353,72.251 C261.897,70.796 261.929,69.796 261.45,69.279 C260.211,67.942 255.555,69.289 251.814,70.371 C250.952,70.62 250.109,70.864 249.316,71.075 C246.224,71.9 243.821,71.418 243.191,69.849 C242.69,68.605 243.404,66.586 246.908,64.652 C250.742,62.537 253.381,59.322 253.182,57.007 C253.086,55.883 252.303,55.059 250.858,54.559 C248.687,53.807 247.401,55.42 245.311,58.335 C243.372,61.041 240.958,64.408 236.662,65.374 C234.244,65.917 232.885,65.744 232.384,64.83 C231.437,63.112 234.717,59.698 235.384,59.031 C237.204,57.348 241.733,52.518 241.014,50.239 C240.802,49.569 240.067,49.145 238.829,48.978 C234.52,48.39 233.487,50.676 231.608,54.816 C230.454,57.357 229.018,60.521 226.345,63.853 C219.571,72.301 214.075,68.448 212.004,66.996 C211.862,66.896 211.733,66.806 211.618,66.729 C207.596,64.045 204.698,63.114 202.934,63.916 C201.874,64.398 201.216,65.569 200.979,67.396 C200.834,68.517 200.978,69.336 201.421,69.902 C202.303,71.029 204.424,71.271 207.108,71.578 C210.768,71.996 215.323,72.516 219.715,75.476 C225.401,79.308 229.558,88.961 229.385,97.93 C229.248,104.99 226.46,110.558 221.532,113.608 C214.007,118.268 206.72,119.857 200.465,118.201 C194.618,116.654 189.746,112.373 185.984,105.475 C184.206,102.215 182.899,98.443 181.516,94.45 C176.699,80.54 171.239,64.775 142.812,64.775 C133.589,64.775 126.253,67.516 121.01,72.922 C110.219,84.049 110.811,103.349 111.063,111.59 C111.097,112.697 111.125,113.587 111.115,114.21 C111.005,121.346 109.174,126.166 105.515,128.944 C100.982,132.384 93.679,132.721 83.181,129.969 C74.968,127.816 69.148,123.279 66.351,116.849 C63.206,109.617 64.688,101.992 66.361,98.885 C70.344,91.49 69.435,87.118 66.365,81.637 C64.447,78.21 58.398,73.654 53.474,72.915 C51.458,72.613 49.887,72.98 48.807,74.011 C47.857,74.918 47.459,75.701 47.625,76.34 C48.05,77.982 51.982,79.008 54.852,79.756 C55.297,79.872 55.727,79.984 56.134,80.095 C57.898,80.577 58.938,81.324 59.225,82.315 C59.572,83.517 58.651,84.541 58.611,84.584 L58.533,84.653 C54.095,87.808 49.214,86.54 44.91,85.42 C42.237,84.727 39.932,84.126 38.232,84.718 C36.596,85.287 35.674,86.388 35.882,87.522 C36.165,89.064 38.457,90.565 42.946,90.438 C43.533,90.421 44.27,90.314 45.052,90.201 C47.293,89.876 49.834,89.506 51.45,90.731 C52.214,91.31 52.679,92.192 52.83,93.352 C53.194,96.149 50.976,97.068 48.832,97.957 C46.923,98.749 44.948,99.567 44.382,101.696 C44.158,102.534 43.917,104.012 44.808,104.494 C45.828,105.044 48.232,104.19 50.33,101.845 C50.679,101.456 52.468,99.525 54.361,99.685 C55.2,99.76 55.895,100.236 56.428,101.101 C58.549,104.549 57.265,106.689 51.864,115.691 C50.637,117.735 49.193,120.143 47.519,123.013 C43.86,129.287 42.912,134.662 44.703,138.989 C46.371,143.019 50.225,145.315 53.276,146.12 C55.039,146.586 57.886,146.546 60.903,146.507 C67.077,146.422 74.077,146.333 76.736,150.156 C78.182,152.236 78.151,155.145 76.642,159.05 C72.813,168.953 75.386,177.318 79.635,181.214 C82.798,184.116 86.804,184.706 90.629,182.835 C93.676,181.343 97.611,179.643 100.7,179.643 Z M176.179,270.154 C174.275,270.154 172.235,269.684 170.073,268.746 C162.698,265.543 161.627,259.612 160.681,254.379 C159.694,248.914 158.841,244.192 151.123,243.491 C144.962,242.93 136.004,241.735 129.377,237.833 C122.614,233.851 119.18,227.812 118.878,219.371 C118.424,206.654 115.099,204.955 111.128,204.153 C110.793,204.085 110.438,204.026 110.073,203.965 C108.12,203.641 105.689,203.238 104.268,201.088 C102.783,198.842 102.7,195.113 104.015,189.687 C105.055,185.399 104.816,182.609 103.303,181.394 C100.486,179.128 93.397,182.594 91.068,183.733 C86.855,185.794 82.44,185.146 78.959,181.952 C74.461,177.825 71.711,169.032 75.709,158.689 C77.071,155.168 77.139,152.489 75.915,150.727 C73.56,147.339 66.841,147.428 60.917,147.506 C57.829,147.547 54.915,147.587 53.02,147.087 C51.428,146.667 46.054,144.869 43.779,139.372 C41.862,134.741 42.83,129.067 46.656,122.509 C48.332,119.635 49.778,117.224 51.007,115.177 C56.281,106.385 57.379,104.556 55.576,101.626 C55.213,101.036 54.787,100.727 54.272,100.681 C53.135,100.582 51.727,101.784 51.076,102.512 C48.803,105.054 45.964,106.256 44.334,105.374 C43.691,105.027 42.718,104.055 43.415,101.439 C44.109,98.832 46.415,97.876 48.449,97.033 C50.715,96.094 52.091,95.421 51.838,93.48 C51.721,92.584 51.396,91.945 50.846,91.528 C49.562,90.556 47.242,90.894 45.195,91.19 C44.386,91.308 43.62,91.419 42.974,91.438 C37.549,91.587 35.232,89.522 34.898,87.702 C34.596,86.056 35.776,84.514 37.904,83.773 C39.889,83.084 42.451,83.749 45.161,84.453 C49.238,85.512 53.855,86.713 57.902,83.874 C58.018,83.729 58.431,83.16 58.263,82.589 C58.08,81.965 57.252,81.437 55.87,81.06 C55.467,80.95 55.041,80.839 54.6,80.724 C51.145,79.823 47.229,78.802 46.657,76.591 C46.393,75.575 46.884,74.463 48.116,73.287 C49.414,72.05 51.317,71.58 53.623,71.925 C58.904,72.719 65.167,77.449 67.238,81.148 C70.406,86.804 71.422,91.597 67.242,99.359 C65.658,102.301 64.264,109.543 67.268,116.45 C69.938,122.589 75.529,126.929 83.435,129.003 C93.613,131.67 100.638,131.392 104.91,128.147 C108.307,125.567 110.01,121.003 110.115,114.194 C110.125,113.583 110.097,112.708 110.064,111.621 C109.807,103.253 109.207,83.656 120.293,72.226 C125.731,66.618 133.307,63.775 142.812,63.775 C171.951,63.775 177.535,79.897 182.461,94.123 C183.83,98.075 185.123,101.809 186.861,104.996 C190.487,111.643 195.15,115.761 200.719,117.234 C206.707,118.817 213.718,117.268 221.006,112.757 C225.635,109.893 228.255,104.62 228.385,97.911 C228.552,89.252 224.585,79.964 219.156,76.305 C214.967,73.482 210.547,72.977 206.995,72.571 C204.078,72.238 201.773,71.975 200.634,70.518 C200.017,69.73 199.805,68.667 199.987,67.267 C200.271,65.074 201.124,63.641 202.52,63.006 C205.685,61.564 210.513,64.789 212.1,65.849 C212.294,65.978 212.428,66.072 212.578,66.177 C214.784,67.725 219.374,70.945 225.566,63.227 C228.16,59.993 229.567,56.893 230.697,54.403 C232.568,50.282 233.911,47.305 238.964,47.986 C240.619,48.21 241.63,48.867 241.968,49.939 C243.006,53.228 236.789,59.094 236.076,59.751 C234.426,61.404 232.87,63.641 233.26,64.348 C233.347,64.508 233.837,64.985 236.443,64.398 C240.367,63.516 242.561,60.454 244.498,57.752 C246.405,55.093 248.207,52.584 251.184,53.613 C253.494,54.413 254.087,55.854 254.178,56.922 C254.413,59.655 251.622,63.194 247.39,65.528 C244.643,67.044 243.767,68.603 244.119,69.476 C244.459,70.324 246.15,70.885 249.058,70.109 C249.844,69.899 250.681,69.657 251.537,69.41 C255.955,68.132 260.523,66.811 262.183,68.6 C262.951,69.428 262.986,70.737 262.291,72.601 C261.262,75.355 257.017,75.928 252.102,76.592 C246.108,77.401 239.313,78.319 238.006,83.552 C236.174,90.878 241.054,95.005 246.222,99.374 C247.685,100.611 249.199,101.891 250.559,103.252 C256.562,109.254 256.052,118.803 249.348,125.956 C248.905,126.428 248.464,126.891 248.029,127.345 C244.827,130.7 242.061,133.597 242.423,136.63 C242.693,138.896 244.727,141.22 248.642,143.737 C255.077,147.874 258.16,151.829 257.557,155.175 C257.053,157.976 253.94,160.079 248.554,161.254 C245.379,161.949 244.066,164.532 242.676,167.266 C241.323,169.931 239.923,172.687 236.685,173.578 C234.301,174.231 231.478,174.088 228.749,173.952 C221.979,173.613 215.573,173.286 214.481,183.895 C213.372,194.667 216.875,199.137 224.904,208.222 C229.436,213.35 228.93,217.414 227.709,219.92 C224.8,225.882 214.453,229.711 203.102,229.023 C191.318,228.318 173.682,238.909 172.86,249.755 C172.47,254.892 174.017,261.19 177.653,262.746 C180.343,263.896 183.815,262.237 187.68,257.942 C187.835,257.772 188.085,257.727 188.285,257.834 C188.487,257.939 188.592,258.17 188.539,258.391 C188.464,258.709 186.628,266.186 180.875,269.064 C179.423,269.791 177.853,270.154 176.179,270.154 Z" id="Fill-70" fill="#3D1717"></path>
        <path d="M141.845,99.937 C141.845,106.437 139.792,111.705 137.26,111.705 C134.727,111.705 132.675,106.437 132.675,99.937 C132.675,93.438 134.727,88.168 137.26,88.168 C139.792,88.168 141.845,93.438 141.845,99.937" id="Fill-71" fill="#3D1717"></path>
        <path d="M161.797,99.937 C161.797,106.437 159.744,111.705 157.212,111.705 C154.68,111.705 152.627,106.437 152.627,99.937 C152.627,93.438 154.68,88.168 157.212,88.168 C159.744,88.168 161.797,93.438 161.797,99.937" id="Fill-72" fill="#3D1717"></path>
        <path d="M136.037,112.206 C134.518,112.206 133.156,110.747 132.2,108.097 C132.106,107.837 132.241,107.551 132.501,107.458 C132.762,107.363 133.047,107.498 133.141,107.758 C133.92,109.917 135.002,111.206 136.037,111.206 C137.968,111.206 140.122,106.578 140.122,99.937 C140.122,93.296 137.968,88.668 136.037,88.668 C135.235,88.668 134.406,89.426 133.704,90.802 C133.578,91.048 133.277,91.144 133.031,91.02 C132.785,90.894 132.687,90.593 132.813,90.347 C133.708,88.595 134.822,87.668 136.037,87.668 C138.888,87.668 141.122,93.058 141.122,99.937 C141.122,106.816 138.888,112.206 136.037,112.206" id="Fill-73" fill="#3D1717"></path>
        <path d="M132.006,94.831 L131.901,94.82 C131.632,94.763 131.459,94.498 131.515,94.228 C131.614,93.762 131.723,93.315 131.844,92.888 C131.92,92.623 132.191,92.465 132.463,92.544 C132.728,92.619 132.883,92.896 132.807,93.162 C132.692,93.567 132.587,93.992 132.494,94.434 C132.444,94.669 132.236,94.831 132.006,94.831" id="Fill-74" fill="#3D1717"></path>
        <path d="M151.404,100.437 C151.128,100.437 150.904,100.213 150.904,99.937 C150.904,99.519 150.913,99.105 150.928,98.697 C150.939,98.422 151.139,98.203 151.448,98.217 C151.723,98.228 151.939,98.46 151.928,98.736 C151.913,99.131 151.904,99.531 151.904,99.937 C151.904,100.213 151.68,100.437 151.404,100.437" id="Fill-75" fill="#3D1717"></path>
        <path d="M155.989,112.206 C154.199,112.206 152.639,110.186 151.709,106.663 C151.638,106.396 151.798,106.122 152.064,106.052 C152.333,105.982 152.604,106.141 152.676,106.407 C153.458,109.367 154.727,111.206 155.989,111.206 C157.922,111.206 160.074,106.578 160.074,99.937 C160.074,93.296 157.922,88.668 155.989,88.668 C154.702,88.668 153.375,90.652 152.61,93.722 C152.543,93.989 152.275,94.15 152.004,94.086 C151.736,94.02 151.573,93.748 151.639,93.48 C152.56,89.787 154.145,87.668 155.989,87.668 C158.841,87.668 161.074,93.058 161.074,99.937 C161.074,106.816 158.841,112.206 155.989,112.206" id="Fill-76" fill="#3D1717"></path>
        <path d="M57.627,94.032 C57.158,94.032 56.708,93.971 56.296,93.83 C55.374,93.516 54.72,92.826 54.404,91.835 C54.175,91.113 54.225,90.465 54.556,89.91 C55.379,88.531 57.729,88.084 60.002,87.652 C61.132,87.438 62.197,87.235 62.951,86.939 C64.023,86.518 64.627,86.045 64.651,85.608 C64.682,85.039 63.77,84.369 63.323,84.133 C63.079,84.004 62.985,83.702 63.114,83.458 C63.243,83.213 63.548,83.121 63.79,83.249 C63.988,83.353 65.724,84.309 65.649,85.663 C65.6,86.55 64.837,87.272 63.316,87.87 C62.476,88.2 61.365,88.411 60.189,88.634 C58.228,89.007 56.007,89.429 55.416,90.422 C55.235,90.725 55.216,91.088 55.357,91.532 C55.579,92.228 55.991,92.67 56.619,92.884 C58.284,93.448 61.084,92.282 62.544,91.272 C63.948,90.301 65.438,90.053 66.343,90.643 C66.709,90.883 67.287,91.475 67.039,92.748 C66.985,93.019 66.719,93.195 66.452,93.143 C66.18,93.09 66.004,92.827 66.056,92.556 C66.161,92.023 66.073,91.662 65.796,91.48 C65.335,91.18 64.267,91.295 63.112,92.095 C61.841,92.976 59.57,94.032 57.627,94.032" id="Fill-77" fill="#3D1717"></path>
        <path d="M131.91,132.838 C131.689,132.838 131.487,132.692 131.427,132.469 C130.761,130.003 127.993,129.706 127.965,129.704 C127.69,129.676 127.489,129.432 127.515,129.157 C127.543,128.882 127.795,128.696 128.062,128.708 C128.204,128.722 131.549,129.084 132.392,132.208 C132.465,132.474 132.307,132.75 132.041,132.821 L131.91,132.838" id="Fill-78" fill="#3D1717"></path>
        <path d="M160.185,126.837 L158.969,126.901 C159.083,127.996 160.578,143.578 153.856,144.378 C154.165,144.417 154.488,144.434 154.836,144.413 C162.096,143.954 160.185,126.837 160.185,126.837" id="Fill-79" fill="#D45E6E"></path>
        <path d="M148.819,131.421 C148.819,131.421 147.093,135.395 143.985,134.58 L145.156,135.63 L147.742,135.14 L148.819,131.421" id="Fill-80" fill="#D45E6E"></path>
        <path d="M168.283,132.758 L168.13,132.734 C167.867,132.65 167.722,132.368 167.807,132.105 C167.817,132.074 168.873,128.919 172.468,128.785 C172.744,128.785 172.975,128.991 172.986,129.266 C172.996,129.543 172.781,129.774 172.505,129.785 C169.602,129.892 168.767,132.386 168.759,132.412 C168.691,132.624 168.495,132.758 168.283,132.758" id="Fill-81" fill="#3D1717"></path>
        <path d="M154.468,144.924 C153.038,144.924 151.83,144.42 150.87,143.421 C148.85,141.32 148.384,137.454 148.329,134.741 C147.795,135.51 147.016,136.13 145.895,136.13 C144.758,136.13 143.818,135.722 143.104,134.917 C141.088,132.641 141.63,127.937 141.654,127.739 C141.687,127.464 141.945,127.269 142.21,127.302 C142.484,127.336 142.679,127.585 142.646,127.858 C142.641,127.903 142.135,132.316 143.853,134.253 C144.377,134.843 145.045,135.13 145.895,135.13 C147.922,135.13 148.426,131.739 148.431,131.705 C148.469,131.435 148.721,131.239 148.987,131.279 C149.258,131.312 149.452,131.555 149.424,131.826 C149.416,131.904 148.656,139.675 151.592,142.729 C152.438,143.61 153.493,143.996 154.804,143.914 C155.863,143.846 156.736,143.388 157.472,142.511 C160.925,138.399 159.701,127.006 159.688,126.892 C159.658,126.618 159.855,126.371 160.13,126.339 C160.412,126.311 160.652,126.506 160.682,126.781 C160.736,127.266 161.966,138.713 158.238,143.154 C157.33,144.236 156.196,144.828 154.867,144.912 C154.732,144.92 154.599,144.924 154.468,144.924" id="Fill-82" fill="#3D1717"></path>
        <path d="M173.593,127.622 C173.469,127.622 173.345,127.577 173.25,127.485 C172.469,126.75 171.614,127.167 171.604,127.17 C171.357,127.296 171.057,127.197 170.933,126.949 C170.809,126.702 170.908,126.402 171.155,126.278 C171.215,126.248 172.653,125.546 173.935,126.758 C174.136,126.948 174.145,127.264 173.956,127.464 C173.858,127.569 173.725,127.622 173.593,127.622" id="Fill-83" fill="#3D1717"></path>
        <path d="M149.945,121.793 C149.945,121.793 160.949,118.826 167.674,123.901 C167.674,123.901 160.956,116.008 149.945,121.793" id="Fill-87" fill="#7BBDBC"></path>
        <path d="M151.864,126.834 C157.906,126.834 162.601,127.515 165.289,128.032 C159.001,124.565 149.019,125.756 141.335,127.52 C145.15,127.021 148.693,126.834 151.864,126.834 Z M130.313,130.782 L129.998,129.834 C130.066,129.808 136.86,127.202 144.864,125.758 C155.703,123.801 163.487,124.792 168.002,128.7 L169.717,130.184 L167.537,129.558 C167.376,129.511 151.108,124.982 130.313,130.782 Z" id="Fill-88" fill="#3D1717"></path>
        <path d="M130.178,130.3 C130.178,130.3 157.078,119.908 167.674,129.078 C167.674,129.078 151.372,124.391 130.178,130.3" id="Fill-89" fill="#3D1717"></path>
        <path d="M116.474,111.705 C116.474,111.705 116.063,108.266 116.228,103.077 C116.306,100.484 116.52,97.455 117.014,94.232 C117.267,92.624 117.546,90.956 117.971,89.288 C118.384,87.619 118.871,85.932 119.479,84.276 C120.106,82.628 120.842,81.007 121.753,79.495 C122.646,77.989 123.801,76.58 125.036,75.472 C127.599,73.152 130.598,71.971 133.178,71.421 C135.774,70.863 137.98,70.898 139.489,71.015 C141.006,71.139 141.845,71.356 141.845,71.356 C141.845,71.356 140.98,71.303 139.487,71.406 C137.998,71.509 135.868,71.764 133.468,72.516 C132.27,72.894 131.016,73.416 129.777,74.099 C128.541,74.778 127.326,75.69 126.258,76.722 C125.129,77.808 124.235,79.067 123.412,80.475 C122.595,81.873 121.923,83.404 121.35,84.975 C120.76,86.541 120.263,88.152 119.844,89.761 C119.433,91.372 119.05,92.971 118.751,94.536 C118.133,97.662 117.709,100.621 117.375,103.167 C116.739,108.261 116.474,111.705 116.474,111.705" id="Fill-90" fill="#E7F4F4"></path>
        <path d="M80.099,156.255 C80.099,156.255 80.022,156.488 79.888,156.893 C79.743,157.293 79.581,157.879 79.37,158.569 C79.17,159.262 78.941,160.069 78.73,160.938 C78.61,161.368 78.542,161.827 78.425,162.279 C78.341,162.739 78.24,163.203 78.174,163.671 C78.111,164.14 78.01,164.606 77.983,165.07 C77.948,165.534 77.871,165.989 77.87,166.431 C77.853,166.875 77.814,167.303 77.834,167.71 C77.849,168.116 77.819,168.507 77.862,168.861 C77.895,169.215 77.91,169.545 77.923,169.84 C77.965,170.131 78.001,170.384 78.031,170.593 C78.09,171.013 78.112,171.262 78.112,171.262 C78.112,171.262 78.007,171.043 77.844,170.644 C77.764,170.443 77.669,170.199 77.559,169.919 C77.474,169.63 77.38,169.303 77.294,168.941 C77.185,168.582 77.149,168.181 77.089,167.757 C77.018,167.335 76.996,166.885 76.989,166.419 C76.966,165.952 76.984,165.471 77.022,164.983 C77.04,164.493 77.13,164.004 77.188,163.512 C77.358,162.535 77.586,161.571 77.886,160.695 C78.174,159.815 78.512,159.021 78.839,158.36 C79.495,157.037 80.099,156.255 80.099,156.255" id="Fill-91" fill="#E7F4F4"></path>
        <path d="M123.712,213.342 C123.712,213.342 123.731,213.587 123.764,214.012 C123.784,214.436 123.861,215.04 123.932,215.757 C124.015,216.475 124.114,217.307 124.255,218.19 C124.31,218.634 124.425,219.083 124.49,219.545 C124.591,220.002 124.677,220.469 124.797,220.927 C124.919,221.383 125.006,221.852 125.16,222.292 C125.305,222.733 125.41,223.181 125.58,223.591 C125.736,224.005 125.865,224.418 126.04,224.785 C126.211,225.153 126.334,225.526 126.51,225.836 C126.677,226.15 126.818,226.449 126.944,226.716 C127.094,226.968 127.226,227.187 127.334,227.369 C127.551,227.733 127.666,227.955 127.666,227.955 C127.666,227.955 127.485,227.793 127.18,227.488 C127.03,227.333 126.847,227.144 126.638,226.928 C126.449,226.695 126.236,226.429 126.016,226.128 C125.778,225.838 125.59,225.483 125.371,225.116 C125.142,224.753 124.949,224.346 124.763,223.919 C124.561,223.497 124.392,223.046 124.239,222.582 C124.067,222.123 123.962,221.637 123.825,221.16 C123.606,220.193 123.444,219.215 123.383,218.292 C123.309,217.37 123.315,216.506 123.361,215.77 C123.456,214.296 123.712,213.342 123.712,213.342" id="Fill-92" fill="#E7F4F4"></path>
        <path d="M55.186,113.845 C55.186,113.845 54.982,114.146 54.624,114.671 C54.265,115.193 53.789,115.963 53.236,116.892 C52.953,117.353 52.672,117.866 52.366,118.401 C52.058,118.937 51.773,119.523 51.45,120.111 C51.159,120.718 50.835,121.332 50.551,121.977 C50.257,122.617 49.957,123.267 49.706,123.937 C49.419,124.592 49.171,125.262 48.944,125.928 C48.698,126.588 48.494,127.25 48.301,127.892 C48.091,128.531 47.939,129.16 47.787,129.757 C47.626,130.353 47.491,130.92 47.399,131.451 C47.29,131.981 47.191,132.467 47.103,132.897 C47.04,133.334 46.986,133.713 46.941,134.026 C46.848,134.654 46.781,135.015 46.781,135.015 C46.781,135.015 46.76,134.653 46.747,134.015 C46.743,133.695 46.738,133.306 46.732,132.861 C46.741,132.416 46.784,131.915 46.831,131.367 C46.854,131.092 46.879,130.806 46.904,130.511 C46.953,130.218 47.004,129.917 47.056,129.606 C47.162,128.984 47.26,128.323 47.451,127.662 C47.624,126.995 47.778,126.297 48.03,125.619 C48.252,124.929 48.495,124.236 48.781,123.559 C49.05,122.875 49.368,122.212 49.681,121.561 C49.976,120.901 50.359,120.298 50.679,119.691 C51.381,118.509 52.086,117.437 52.762,116.571 C53.418,115.692 54.045,115.022 54.473,114.55 C54.91,114.084 55.186,113.845 55.186,113.845" id="Fill-93" fill="#E7F4F4"></path>
        <path d="M135.358,154.521 C135.358,154.521 135.051,154.651 134.544,154.921 C134.284,155.043 133.987,155.23 133.64,155.422 C133.31,155.648 132.92,155.866 132.528,156.156 C132.123,156.426 131.713,156.753 131.284,157.103 C130.851,157.445 130.447,157.867 130.011,158.275 C129.616,158.725 129.179,159.163 128.827,159.681 C128.645,159.934 128.44,160.176 128.273,160.443 L127.799,161.265 C127.624,161.531 127.48,161.812 127.365,162.107 C127.239,162.397 127.112,162.684 126.987,162.97 C126.769,163.554 126.614,164.153 126.428,164.722 C126.305,165.306 126.218,165.881 126.11,166.424 C126.006,166.968 126.026,167.498 125.972,167.982 C125.942,168.468 125.884,168.918 125.916,169.314 C125.927,169.714 125.936,170.062 125.944,170.349 C125.956,170.926 125.95,171.262 125.95,171.262 C125.95,171.262 125.869,170.943 125.751,170.374 C125.694,170.087 125.624,169.741 125.545,169.342 C125.441,168.944 125.42,168.486 125.398,167.983 C125.388,167.482 125.302,166.931 125.367,166.355 C125.427,165.779 125.46,165.162 125.568,164.536 C125.737,163.922 125.848,163.264 126.081,162.635 C126.211,162.324 126.342,162.011 126.472,161.697 C126.593,161.377 126.741,161.069 126.926,160.78 L127.454,159.901 C127.64,159.616 127.864,159.359 128.065,159.089 C128.451,158.535 128.959,158.103 129.4,157.645 C129.879,157.227 130.351,156.829 130.836,156.509 C131.312,156.177 131.781,155.893 132.232,155.667 C132.666,155.412 133.107,155.257 133.476,155.09 C133.863,154.955 134.189,154.82 134.471,154.742 C135.027,154.566 135.358,154.521 135.358,154.521" id="Fill-94" fill="#E7F4F4"></path>
        <path d="M123.758,152.766 C123.758,152.766 123.108,153.142 122.287,153.826 C121.876,154.167 121.425,154.587 120.992,155.076 C120.767,155.313 120.565,155.581 120.361,155.854 C120.138,156.112 119.976,156.421 119.783,156.708 C119.598,156.999 119.448,157.311 119.279,157.608 C119.152,157.925 119.001,158.228 118.867,158.528 C118.768,158.84 118.654,159.139 118.548,159.425 C118.448,159.712 118.388,159.996 118.305,160.253 C118.136,160.767 118.07,161.216 117.983,161.529 C117.898,161.844 117.849,162.024 117.849,162.024 C117.849,162.024 117.82,161.841 117.784,161.517 C117.76,161.194 117.681,160.722 117.739,160.162 C117.76,159.881 117.759,159.571 117.822,159.252 C117.884,158.933 117.948,158.593 118.033,158.247 C118.152,157.91 118.26,157.554 118.402,157.204 C118.576,156.869 118.733,156.516 118.93,156.186 C119.154,155.873 119.347,155.538 119.604,155.256 C119.836,154.956 120.105,154.696 120.372,154.455 C120.621,154.196 120.923,154.012 121.18,153.811 C121.457,153.636 121.715,153.466 121.975,153.347 C122.991,152.823 123.758,152.766 123.758,152.766" id="Fill-95" fill="#E7F4F4"></path>
        <path d="M182.404,209.994 C182.404,209.994 182.71,209.865 183.218,209.595 C183.478,209.474 183.777,209.289 184.123,209.096 C184.455,208.872 184.845,208.655 185.238,208.366 C185.642,208.096 186.054,207.77 186.483,207.421 C186.918,207.081 187.323,206.659 187.759,206.252 C188.155,205.802 188.593,205.366 188.947,204.849 C189.13,204.595 189.335,204.355 189.503,204.088 L189.978,203.267 C190.154,203.002 190.298,202.72 190.413,202.425 C190.541,202.137 190.668,201.849 190.794,201.564 C191.013,200.98 191.17,200.382 191.357,199.813 C191.481,199.229 191.57,198.654 191.679,198.111 C191.784,197.567 191.765,197.039 191.82,196.554 C191.852,196.068 191.911,195.62 191.88,195.222 C191.869,194.823 191.861,194.474 191.854,194.187 C191.843,193.61 191.85,193.275 191.85,193.275 C191.85,193.275 191.93,193.594 192.047,194.163 C192.103,194.449 192.172,194.796 192.251,195.195 C192.353,195.593 192.373,196.052 192.394,196.554 C192.403,197.056 192.488,197.606 192.422,198.183 C192.36,198.758 192.326,199.376 192.217,200.002 C192.047,200.615 191.934,201.272 191.699,201.901 C191.569,202.212 191.437,202.524 191.305,202.838 C191.185,203.159 191.035,203.465 190.85,203.754 L190.32,204.632 C190.133,204.917 189.909,205.173 189.707,205.442 C189.32,205.996 188.811,206.426 188.369,206.883 C187.889,207.3 187.416,207.698 186.93,208.015 C186.453,208.347 185.985,208.63 185.532,208.855 C185.097,209.109 184.656,209.263 184.286,209.429 C183.9,209.564 183.573,209.698 183.291,209.775 C182.735,209.95 182.404,209.994 182.404,209.994" id="Fill-96" fill="#E7F4F4"></path>
        <path d="M194,211.775 C194,211.775 194.651,211.401 195.473,210.718 C195.885,210.379 196.337,209.961 196.77,209.471 C196.996,209.236 197.199,208.967 197.404,208.696 C197.628,208.438 197.79,208.128 197.983,207.843 C198.169,207.552 198.32,207.24 198.49,206.944 C198.617,206.627 198.769,206.325 198.903,206.024 C199.003,205.712 199.118,205.415 199.225,205.128 C199.325,204.841 199.386,204.558 199.469,204.301 C199.64,203.787 199.707,203.338 199.795,203.026 C199.88,202.711 199.929,202.531 199.929,202.531 C199.929,202.531 199.959,202.713 199.993,203.038 C200.017,203.361 200.095,203.833 200.036,204.393 C200.013,204.673 200.014,204.984 199.951,205.303 C199.888,205.622 199.823,205.961 199.737,206.308 C199.618,206.644 199.508,207 199.366,207.349 C199.191,207.684 199.033,208.037 198.835,208.366 C198.611,208.679 198.416,209.014 198.159,209.295 C197.927,209.595 197.657,209.854 197.39,210.094 C197.139,210.353 196.837,210.536 196.58,210.736 C196.302,210.911 196.044,211.08 195.784,211.199 C194.766,211.721 194,211.775 194,211.775" id="Fill-97" fill="#E7F4F4"></path>
        <path d="M107.838,187.288 C107.838,187.288 107.715,187.867 107.531,188.737 C107.354,189.593 107.104,190.711 106.958,191.832 C106.925,192.111 106.867,192.39 106.855,192.668 C106.839,192.944 106.787,193.215 106.786,193.479 C106.777,193.743 106.747,194 106.754,194.243 C106.76,194.485 106.732,194.721 106.75,194.933 C106.76,195.364 106.772,195.731 106.801,195.988 C106.818,196.248 106.82,196.404 106.82,196.404 C106.82,196.404 106.739,196.278 106.611,196.045 C106.472,195.813 106.315,195.466 106.184,195.026 C106.101,194.808 106.06,194.564 106.01,194.305 C105.951,194.046 105.921,193.771 105.906,193.484 C105.852,192.91 105.899,192.297 105.968,191.692 C106.065,191.09 106.196,190.496 106.385,189.96 C106.563,189.421 106.78,188.937 106.994,188.539 C107.415,187.736 107.838,187.288 107.838,187.288" id="Fill-98" fill="#E7F4F4"></path>
    </g>
</svg>