<?xml version="1.0" encoding="UTF-8"?>
<svg width="298px" height="298px" viewBox="0 0 298 298" version="1.1" xmlns="http://www.w3.org/2000/svg" xmlns:xlink="http://www.w3.org/1999/xlink">
    <!-- Generator: Sketch 50.2 (55047) - http://www.bohemiancoding.com/sketch -->
    <title>pumpkin</title>
    <desc>Created with Sketch.</desc>
    <defs>
        <path d="M79.443,32.532 C79.443,36.517 61.736,39.746 39.892,39.746 C18.049,39.746 0.341,36.517 0.341,32.532 C0.341,28.548 3.303,6.182 25.146,6.182 C35.552,6.182 72.323,-6.989 79.385,6.063 C87.145,20.408 79.443,30.447 79.443,32.532" id="path-1"></path>
    </defs>
    <g id="pumpkin" stroke="none" stroke-width="1" fill="none" fill-rule="evenodd">
        <path d="M243.364,211.74 C243.364,220.257 206.431,227.162 160.872,227.162 C115.312,227.162 78.379,220.257 78.379,211.74 C78.379,203.221 115.312,196.316 160.872,196.316 C206.431,196.316 243.364,203.221 243.364,211.74" id="Fill-4" fill="#A3D7DC"></path>
        <path d="M227.339,147.199 C218.314,107.299 194.412,95.707 194.412,95.707 L194.412,95.712 C188.707,91.376 169.203,88.181 146.01,88.181 C121.352,88.181 100.871,91.792 96.702,96.546 L96.7,96.529 C96.7,96.529 62.515,128.199 69.64,170.474 C76.765,212.749 106.412,217.315 106.412,217.315 L106.412,217.312 C127.615,242.009 167.015,229.612 167.015,229.612 C167.015,229.612 187.189,224.092 201.226,210.832 C209.956,207.384 236.364,187.099 227.339,147.199" id="Fill-5" fill="#E8AA6B"></path>
        <path d="M193.567,101.459 C191.383,99.929 189.554,98.485 188.042,97.119 L172.112,106.987 C172.112,106.987 191.075,126.717 190.148,167.477 C189.222,208.237 167.574,229.658 144.555,232.722 L144.554,232.722009 C157.106,232.728 167.015,229.612 167.015,229.612 C167.015,229.612 187.189,224.092 201.226,210.832 C206.913,208.586 220.1,199.191 226.109,181.885 C226.715,167.71 225.771,124.023 193.567,101.459" id="Fill-6" fill="#C78B56"></path>
        <path d="M106.284,217.292 C102.853,213.296 99.898,208.331 97.666,202.18 C84.118,164.849 97.284,129.045 101.688,118.848 C101.686,118.851 76.173,146.489 82.822,177.599 C86.225,193.516 92.299,205.817 97.423,214.046 C102.073,216.448 105.595,217.167 106.284,217.292" id="Fill-7" fill="#C78B56"></path>
        <path d="M124.859,160.499 C124.859,173.615 120.898,184.249 116.013,184.249 C111.127,184.249 107.166,173.615 107.166,160.499 C107.166,147.383 111.127,136.749 116.013,136.749 C120.898,136.749 124.859,147.383 124.859,160.499" id="Fill-8" fill="#C78B56"></path>
        <path d="M174.021,160.499 C174.021,173.615 170.06,184.249 165.175,184.249 C160.289,184.249 156.328,173.615 156.328,160.499 C156.328,147.383 160.289,136.749 165.175,136.749 C170.06,136.749 174.021,147.383 174.021,160.499" id="Fill-9" fill="#C78B56"></path>
        <path d="M195.99,98.334 C195.99,103.942 173.56,108.488 145.892,108.488 C118.224,108.488 95.794,103.942 95.794,98.334 C95.794,92.727 118.224,88.181 145.892,88.181 C173.56,88.181 195.99,92.727 195.99,98.334" id="Fill-10" fill="#E7BE6C"></path>
        <path d="M154.443,201.525 L142.723,181.224 C142.278,180.453 141.166,180.453 140.721,181.224 L139.935,182.584 L129.001,201.525 C128.556,202.295 129.111,203.258 130.002,203.258 L153.442,203.258 C154.332,203.258 154.889,202.295 154.443,201.525" id="Fill-11" fill="#C78B56"></path>
        <path d="M145.892,88.529 C121.866,88.529 96.142,92.469 96.142,98.334 C96.142,104.199 121.866,108.14 145.892,108.14 C169.918,108.14 195.643,104.199 195.643,98.334 C195.643,92.469 169.918,88.529 145.892,88.529 Z M145.892,108.834 C117.605,108.834 95.447,104.222 95.447,98.334 C95.447,92.446 117.605,87.833 145.892,87.833 C174.18,87.833 196.338,92.446 196.338,98.334 C196.338,104.222 174.18,108.834 145.892,108.834 Z" id="Fill-12" fill="#3D1717"></path>
        <path d="M185.443,97.532 C185.443,101.517 167.736,104.746 145.892,104.746 C124.049,104.746 106.341,101.517 106.341,97.532 C106.341,93.548 124.049,90.319 145.892,90.319 C167.736,90.319 185.443,93.548 185.443,97.532" id="Fill-13" fill="#3D1717"></path>
        <path d="M144.411,233.069 C142.415,233.069 140.356,232.99 138.263,232.808 C124.199,231.579 105.683,225.29 97.34,202.299 C81.44,158.49 102.485,116.232 102.7,115.811 C102.786,115.639 102.997,115.572 103.167,115.658 C103.338,115.745 103.406,115.954 103.319,116.125 C103.105,116.545 82.199,158.541 97.992,202.062 C106.208,224.7 124.448,230.9 138.304,232.114 C153.367,233.436 166.66,229.323 166.792,229.281 C166.932,229.241 179.611,225.72 191.686,217.779 C202.787,210.478 215.637,197.834 213.812,179.057 C211.862,158.966 201.704,124.646 185.225,111.25 C185.076,111.13 185.053,110.91 185.174,110.762 C185.296,110.614 185.515,110.591 185.663,110.711 C194.987,118.291 211.062,143.53 214.505,178.99 C215.975,194.13 208.212,207.746 192.055,218.368 C179.889,226.366 167.116,229.911 166.988,229.947 C166.884,229.98 156.9,233.069 144.411,233.069" id="Fill-14" fill="#3D1717"></path>
        <path d="M201.109,211.181 C200.971,211.181 200.84,211.097 200.786,210.96 C200.716,210.782 200.804,210.58 200.981,210.51 C208.777,207.429 236.019,187.669 226.883,147.276 C218.003,108.02 194.38,96.136 194.142,96.021 C193.971,95.937 193.898,95.729 193.981,95.556 C194.066,95.384 194.273,95.311 194.446,95.395 C194.686,95.511 218.602,107.518 227.56,147.122 C236.807,187.998 209.149,208.03 201.237,211.156 C201.195,211.173 201.152,211.181 201.109,211.181" id="Fill-15" fill="#3D1717"></path>
        <path d="M106.295,217.662 C106.277,217.662 106.26,217.66 106.242,217.657 C106.167,217.647 98.645,216.429 90.368,210.022 C82.743,204.121 72.879,192.48 69.18,170.532 C62.105,128.558 96.004,96.593 96.347,96.275 C96.487,96.146 96.707,96.153 96.838,96.294 C96.969,96.435 96.96,96.654 96.819,96.785 C96.478,97.101 62.854,128.819 69.865,170.416 C71.884,182.396 77.148,198.892 90.761,209.448 C98.9,215.759 106.274,216.959 106.348,216.971 C106.538,217 106.667,217.178 106.638,217.367 C106.611,217.539 106.464,217.662 106.295,217.662" id="Fill-16" fill="#3D1717"></path>
        <path d="M126.997,160.499 C126.997,173.615 123.036,184.249 118.15,184.249 C113.265,184.249 109.304,173.615 109.304,160.499 C109.304,147.383 113.265,136.749 118.15,136.749 C123.036,136.749 126.997,147.383 126.997,160.499" id="Fill-17" fill="#3D1717"></path>
        <path d="M158.466,146.443 C158.431,146.443 158.395,146.438 158.36,146.427 C158.178,146.368 158.076,146.174 158.135,145.99 C158.317,145.414 158.512,144.855 158.713,144.327 C158.781,144.147 158.983,144.058 159.161,144.126 C159.341,144.195 159.431,144.395 159.362,144.574 C159.166,145.09 158.975,145.637 158.797,146.2 C158.75,146.349 158.613,146.443 158.466,146.443" id="Fill-18" fill="#3D1717"></path>
        <path d="M157.731,149.116 C157.705,149.116 157.679,149.115 157.652,149.108 C157.465,149.064 157.35,148.876 157.393,148.69 C157.475,148.341 157.56,147.997 157.65,147.659 C157.699,147.474 157.888,147.363 158.075,147.413 C158.262,147.462 158.371,147.653 158.322,147.838 C158.234,148.169 158.15,148.507 158.069,148.849 C158.032,149.009 157.89,149.116 157.731,149.116" id="Fill-19" fill="#3D1717"></path>
        <path d="M157.202,169.983 C157.036,169.983 156.89,169.864 156.86,169.695 C156.736,168.977 156.627,168.244 156.534,167.521 C156.51,167.33 156.644,167.157 156.835,167.132 C157.022,167.104 157.199,167.242 157.224,167.433 C157.314,168.147 157.423,168.867 157.545,169.576 C157.578,169.765 157.451,169.945 157.262,169.978 C157.242,169.982 157.222,169.983 157.202,169.983" id="Fill-20" fill="#3D1717"></path>
        <path d="M158.366,174.932 C158.218,174.932 158.08,174.835 158.034,174.686 C157.806,173.939 157.592,173.15 157.4,172.34 C157.356,172.154 157.472,171.966 157.658,171.922 C157.841,171.875 158.031,171.992 158.076,172.18 C158.266,172.976 158.475,173.749 158.699,174.483 C158.755,174.666 158.651,174.861 158.469,174.917 C158.434,174.927 158.399,174.932 158.366,174.932" id="Fill-21" fill="#3D1717"></path>
        <path d="M166.304,184.597 C163.661,184.597 161.166,182.269 159.279,178.043 C159.2,177.868 159.279,177.662 159.454,177.584 C159.629,177.505 159.835,177.584 159.913,177.76 C161.683,181.721 163.951,183.902 166.304,183.902 C171.547,183.902 175.812,173.404 175.812,160.499 C175.812,147.595 171.547,137.097 166.304,137.097 C164.377,137.097 162.51,138.548 160.904,141.294 C160.808,141.46 160.594,141.517 160.43,141.419 C160.264,141.323 160.207,141.11 160.305,140.945 C162.042,137.973 164.116,136.402 166.304,136.402 C171.93,136.402 176.507,147.212 176.507,160.499 C176.507,173.786 171.93,184.597 166.304,184.597" id="Fill-22" fill="#3D1717"></path>
        <path d="M176.159,160.499 C176.159,173.615 172.198,184.249 167.312,184.249 C162.427,184.249 158.466,173.615 158.466,160.499 C158.466,147.383 162.427,136.749 167.312,136.749 C172.198,136.749 176.159,147.383 176.159,160.499" id="Fill-23" fill="#3D1717"></path>
        <path d="M153.442,203.606 L130.001,203.606 C129.458,203.606 128.972,203.324 128.699,202.855 C128.428,202.384 128.428,201.822 128.699,201.351 L129.612,199.77 C129.708,199.604 129.921,199.547 130.087,199.643 C130.253,199.739 130.309,199.95 130.214,200.117 L129.301,201.699 C129.155,201.951 129.155,202.253 129.302,202.507 C129.447,202.76 129.71,202.911 130.001,202.911 L153.442,202.911 C153.735,202.911 153.996,202.76 154.142,202.506 C154.289,202.253 154.289,201.951 154.142,201.699 L142.423,181.398 C142.276,181.145 142.014,180.993 141.723,180.993 C141.722,180.993 141.722,180.993 141.722,180.993 C141.43,180.993 141.169,181.145 141.022,181.398 L140.236,182.758 C140.142,182.924 139.93,182.981 139.763,182.884 C139.596,182.788 139.539,182.576 139.636,182.41 L140.421,181.05 C140.691,180.58 141.178,180.298 141.722,180.298 C141.722,180.298 141.722,180.298 141.723,180.298 C142.265,180.298 142.752,180.579 143.023,181.05 L154.744,201.351 C155.017,201.822 155.017,202.383 154.745,202.854 C154.473,203.324 153.986,203.606 153.442,203.606" id="Fill-24" fill="#3D1717"></path>
        <path d="M138.628,185.196 C138.569,185.196 138.51,185.181 138.455,185.149 C138.288,185.053 138.231,184.841 138.328,184.675 L138.983,183.538 C139.078,183.372 139.29,183.315 139.458,183.411 C139.624,183.507 139.681,183.72 139.585,183.886 L138.929,185.022 C138.865,185.133 138.748,185.196 138.628,185.196" id="Fill-25" fill="#3D1717"></path>
        <path d="M137.704,186.796 C137.645,186.796 137.585,186.782 137.53,186.749 C137.364,186.654 137.308,186.441 137.403,186.275 L137.812,185.567 C137.91,185.401 138.124,185.344 138.287,185.44 C138.453,185.535 138.511,185.748 138.414,185.914 L138.005,186.622 C137.94,186.734 137.823,186.796 137.704,186.796" id="Fill-26" fill="#3D1717"></path>
        <path d="M132.914,195.094 C132.854,195.094 132.795,195.079 132.74,195.047 C132.574,194.951 132.517,194.74 132.613,194.573 L133.092,193.743 C133.185,193.577 133.399,193.519 133.566,193.616 C133.732,193.712 133.789,193.925 133.693,194.091 L133.215,194.92 C133.15,195.032 133.034,195.094 132.914,195.094" id="Fill-27" fill="#3D1717"></path>
        <path d="M130.826,198.71 C130.767,198.71 130.707,198.696 130.652,198.663 C130.485,198.568 130.429,198.356 130.525,198.189 L131.393,196.686 C131.489,196.521 131.702,196.463 131.867,196.559 C132.034,196.655 132.091,196.867 131.994,197.033 L131.126,198.536 C131.062,198.648 130.945,198.71 130.826,198.71" id="Fill-28" fill="#3D1717"></path>
        <path d="M132.851,203.606 C132.308,203.606 131.821,203.324 131.549,202.854 C131.277,202.383 131.277,201.822 131.55,201.351 L142.847,181.784 C142.942,181.618 143.155,181.561 143.321,181.657 C143.487,181.753 143.544,181.966 143.448,182.132 L132.151,201.699 C132.005,201.951 132.005,202.253 132.151,202.506 C132.298,202.76 132.559,202.911 132.851,202.911 C133.044,202.911 133.199,203.067 133.199,203.258 C133.199,203.45 133.044,203.606 132.851,203.606" id="Fill-29" fill="#3D1717"></path>
        <path d="M109.304,146.443 C109.269,146.443 109.233,146.438 109.198,146.427 C109.016,146.368 108.914,146.174 108.973,145.99 C109.154,145.418 109.349,144.859 109.55,144.327 C109.618,144.148 109.82,144.061 109.999,144.125 C110.178,144.195 110.267,144.395 110.2,144.574 C110.003,145.093 109.812,145.64 109.635,146.2 C109.588,146.349 109.451,146.443 109.304,146.443" id="Fill-30" fill="#3D1717"></path>
        <path d="M108.568,149.116 C108.543,149.116 108.516,149.115 108.489,149.108 C108.302,149.064 108.186,148.876 108.23,148.69 C108.312,148.341 108.399,147.997 108.488,147.659 C108.537,147.475 108.726,147.363 108.913,147.413 C109.098,147.462 109.209,147.652 109.16,147.838 C109.072,148.169 108.987,148.507 108.906,148.849 C108.869,149.009 108.726,149.116 108.568,149.116" id="Fill-31" fill="#3D1717"></path>
        <path d="M108.039,169.983 C107.874,169.983 107.727,169.864 107.697,169.695 C107.575,168.986 107.466,168.254 107.372,167.521 C107.348,167.33 107.483,167.157 107.673,167.132 C107.857,167.104 108.037,167.242 108.061,167.433 C108.154,168.157 108.262,168.878 108.383,169.576 C108.415,169.765 108.288,169.945 108.099,169.978 C108.079,169.982 108.059,169.983 108.039,169.983" id="Fill-32" fill="#3D1717"></path>
        <path d="M109.205,174.932 C109.056,174.932 108.918,174.835 108.873,174.686 C108.643,173.939 108.43,173.15 108.238,172.34 C108.194,172.154 108.309,171.966 108.496,171.922 C108.684,171.875 108.87,171.994 108.914,172.18 C109.102,172.976 109.311,173.749 109.536,174.483 C109.593,174.666 109.49,174.861 109.307,174.916 C109.272,174.927 109.238,174.932 109.205,174.932" id="Fill-33" fill="#3D1717"></path>
        <path d="M117.141,184.597 C114.498,184.597 112.004,182.269 110.116,178.043 C110.038,177.868 110.116,177.662 110.292,177.584 C110.468,177.505 110.672,177.584 110.751,177.76 C112.519,181.721 114.789,183.902 117.141,183.902 C122.384,183.902 126.649,173.404 126.649,160.499 C126.649,147.595 122.384,137.097 117.141,137.097 C115.215,137.097 113.348,138.548 111.742,141.294 C111.644,141.46 111.431,141.517 111.267,141.419 C111.1,141.323 111.045,141.11 111.142,140.945 C112.879,137.973 114.954,136.402 117.141,136.402 C122.767,136.402 127.345,147.212 127.345,160.499 C127.345,173.786 122.767,184.597 117.141,184.597" id="Fill-34" fill="#3D1717"></path>
        <g id="Group-54" transform="translate(106.000000, 65.000000)">
            <mask id="mask-2" fill="white">
                <use xlink:href="#path-1"></use>
            </mask>
            <g id="Clip-36"></g>
            <path d="M46.662,44.674 L32.041,16.183 C28.695,9.661 20.621,7.064 14.1,10.41 C7.579,13.757 4.981,21.83 8.328,28.352 L22.948,56.843 L46.662,44.674" id="Fill-35" fill="#EA909B" mask="url(#mask-2)"></path>
            <path d="M20.141,9.291 C18.113,9.291 16.105,9.771 14.259,10.72 C11.187,12.295 8.909,14.987 7.844,18.297 C6.778,21.608 7.06,25.122 8.637,28.193 L23.1,56.375 L46.194,44.524 L31.732,16.341 C30.156,13.27 27.465,10.991 24.154,9.926 C22.835,9.502 21.483,9.291 20.141,9.291 Z M22.948,57.191 C22.823,57.191 22.701,57.121 22.64,57.001 L8.017,28.51 C6.357,25.274 6.06,21.571 7.183,18.084 C8.305,14.597 10.705,11.762 13.94,10.101 C17.177,8.44 20.882,8.144 24.368,9.265 C27.855,10.387 30.689,12.787 32.35,16.024 L46.972,44.515 C47.059,44.686 46.991,44.896 46.821,44.984 L23.107,57.153 C23.057,57.178 23.002,57.191 22.948,57.191 Z" id="Fill-37" fill="#3D1717" mask="url(#mask-2)"></path>
            <polyline id="Fill-38" fill="#3C1919" mask="url(#mask-2)" points="38.061 36.961 42.669 20.687 54.458 32.814 38.061 36.961"></polyline>
            <path d="M42.839,21.362 L38.559,36.477 L53.79,32.624 L42.839,21.362 Z M38.061,37.309 C37.969,37.309 37.879,37.271 37.812,37.203 C37.725,37.115 37.693,36.987 37.726,36.866 L42.334,20.593 C42.368,20.474 42.463,20.38 42.583,20.351 C42.704,20.318 42.83,20.356 42.918,20.445 L54.708,32.571 C54.795,32.66 54.826,32.789 54.793,32.908 C54.759,33.028 54.664,33.12 54.544,33.151 L38.146,37.297 C38.118,37.305 38.09,37.309 38.061,37.309 Z" id="Fill-39" fill="#3D1717" mask="url(#mask-2)"></path>
            <polyline id="Fill-40" fill="#3C1919" mask="url(#mask-2)" points="46.966 3.188 42.358 19.462 30.568 7.335 46.966 3.188"></polyline>
            <path d="M31.237,7.525 L42.188,18.787 L46.468,3.672 L31.237,7.525 Z M42.358,19.809 C42.266,19.809 42.176,19.772 42.109,19.704 L30.319,7.577 C30.232,7.488 30.201,7.36 30.234,7.24 C30.268,7.121 30.363,7.029 30.483,6.998 L46.88,2.851 C47.001,2.819 47.128,2.857 47.215,2.946 C47.302,3.034 47.333,3.162 47.3,3.282 L42.693,19.556 C42.659,19.675 42.563,19.769 42.443,19.798 C42.415,19.806 42.387,19.809 42.358,19.809 Z" id="Fill-41" fill="#3D1717" mask="url(#mask-2)"></path>
            <path d="M50.209,18.154 C51.282,22.4 48.711,26.713 44.464,27.787 C40.218,28.862 35.904,26.289 34.83,22.043 C33.757,17.796 36.328,13.483 40.575,12.409 C44.821,11.335 49.135,13.906 50.209,18.154" id="Fill-42" fill="#CFDE6E" mask="url(#mask-2)"></path>
            <path d="M42.517,12.513 C41.904,12.513 41.281,12.589 40.66,12.745 C36.605,13.772 34.142,17.904 35.167,21.957 C36.193,26.012 40.328,28.472 44.379,27.45 C46.343,26.954 47.995,25.722 49.033,23.982 C50.07,22.241 50.368,20.202 49.872,18.238 C49.003,14.806 45.907,12.513 42.517,12.513 Z M42.521,28.378 C38.82,28.378 35.441,25.875 34.494,22.128 C33.374,17.702 36.064,13.192 40.489,12.072 C44.917,10.952 49.426,13.643 50.545,18.068 C51.665,22.493 48.975,27.005 44.55,28.124 C43.871,28.296 43.19,28.378 42.521,28.378 Z" id="Fill-43" fill="#3C1919" mask="url(#mask-2)"></path>
            <path d="M43.904,54.897 C43.524,54.897 43.14,54.793 42.795,54.575 C41.821,53.962 41.528,52.675 42.142,51.7 L51.776,36.411 C52.391,35.437 53.678,35.145 54.652,35.759 C55.626,36.372 55.918,37.659 55.304,38.634 L45.67,53.923 C45.273,54.553 44.597,54.897 43.904,54.897" id="Fill-44" fill="#3D1717" mask="url(#mask-2)"></path>
            <path d="M61.671,49.618 L78.742,22.525 C82.65,16.323 80.773,8.052 74.572,4.145 C68.37,0.238 60.1,2.113 56.192,8.316 L39.12,35.409 L61.671,49.618" id="Fill-45" fill="#F5CAC0" mask="url(#mask-2)"></path>
            <polyline id="Fill-46" fill="#E2625C" mask="url(#mask-2)" points="51.208 16.225 39.12 35.409 61.671 49.618 73.759 30.434 51.208 16.225"></polyline>
            <path d="M52.811,24.483 L62.156,9.652 C62.706,8.779 63.869,8.516 64.742,9.066 L65.745,9.697 C66.618,10.247 66.882,11.41 66.332,12.283 L56.987,27.113 C56.437,27.987 55.274,28.25 54.401,27.7 L53.398,27.069 C52.525,26.519 52.262,25.355 52.811,24.483" id="Fill-47" fill="#ECA6A9" mask="url(#mask-2)"></path>
            <path d="M61.441,29.921 L70.787,15.09 C71.336,14.218 72.5,13.953 73.373,14.503 L74.376,15.135 C75.248,15.685 75.513,16.849 74.963,17.721 L65.618,32.552 C65.068,33.424 63.904,33.689 63.032,33.139 L62.028,32.506 C61.156,31.957 60.892,30.793 61.441,29.921" id="Fill-48" fill="#ECA6A9" mask="url(#mask-2)"></path>
            <path d="M39.599,35.3 L61.562,49.139 L78.449,22.339 C80.289,19.418 80.879,15.943 80.109,12.551 C79.34,9.16 77.308,6.279 74.387,4.439 C68.331,0.622 60.302,2.445 56.485,8.5 L39.599,35.3 Z M61.671,49.966 C61.605,49.966 61.541,49.948 61.485,49.912 L38.934,35.702 C38.856,35.654 38.802,35.575 38.781,35.486 C38.761,35.396 38.776,35.302 38.826,35.224 L55.897,8.13 C59.917,1.75 68.377,-0.17 74.757,3.851 C81.136,7.87 83.056,16.33 79.036,22.709 L61.965,49.804 C61.916,49.882 61.838,49.937 61.748,49.957 C61.723,49.963 61.696,49.966 61.671,49.966 Z" id="Fill-49" fill="#3D1717" mask="url(#mask-2)"></path>
            <path d="M64.711,24.733 L57.548,36.101 C56.824,37.249 57.172,38.781 58.32,39.504 C59.469,40.228 61,39.88 61.724,38.732 L68.887,27.363 L64.711,24.733" id="Fill-50" fill="#BD4241" mask="url(#mask-2)"></path>
            <path d="M56.08,19.294 L48.917,30.662 C48.193,31.811 48.541,33.343 49.689,34.067 C50.838,34.79 52.37,34.443 53.094,33.294 L60.257,21.926 L56.08,19.294" id="Fill-51" fill="#BD4241" mask="url(#mask-2)"></path>
            <path d="M43.331,28.675 C49.343,30.314 52.887,36.517 51.248,42.529 C49.608,48.54 43.406,52.084 37.394,50.446 C31.383,48.806 27.838,42.604 29.477,36.592 C31.116,30.58 37.319,27.035 43.331,28.675" id="Fill-52" fill="#CFDE6E" mask="url(#mask-2)"></path>
            <path d="M40.345,28.62 C38.467,28.62 36.612,29.109 34.937,30.066 C32.4,31.515 30.581,33.865 29.812,36.684 C28.226,42.5 31.668,48.524 37.486,50.111 C43.303,51.695 49.327,48.254 50.913,42.437 C52.499,36.618 49.057,30.596 43.239,29.01 C42.282,28.749 41.31,28.62 40.345,28.62 Z M40.358,51.192 C39.349,51.192 38.323,51.059 37.303,50.781 C31.116,49.093 27.455,42.687 29.142,36.5 C29.96,33.503 31.894,31.004 34.592,29.462 C37.29,27.921 40.427,27.524 43.423,28.34 C49.609,30.027 53.269,36.432 51.583,42.62 C50.175,47.786 45.474,51.192 40.358,51.192 Z" id="Fill-53" fill="#3C1919" mask="url(#mask-2)"></path>
        </g>
        <path d="M145.892,105.094 C126.28,105.094 105.994,102.266 105.994,97.532 C105.994,95.748 108.758,94.175 114.208,92.856 L114.371,93.531 C109.489,94.713 106.689,96.171 106.689,97.532 C106.689,100.849 122.441,104.4 145.892,104.4 C169.343,104.4 185.097,100.849 185.097,97.532 C185.097,96.503 183.465,95.392 180.503,94.404 L180.723,93.745 C184.086,94.866 185.791,96.141 185.791,97.532 C185.791,102.266 165.505,105.094 145.892,105.094" id="Fill-55" fill="#3D1717"></path>
        <path d="M132.851,203.258 C131.962,203.258 131.405,202.295 131.85,201.525 L143.147,181.958 L154.353,201.2 L154.557,202.411 L154.142,203.023 L153.442,203.258 L132.851,203.258" id="Fill-56" fill="#3D1717"></path>
        <path d="M118.15,106.788 C118.15,106.788 109.881,118.14 115.084,137.272 C120.288,156.403 121,137.272 121,137.272 L122.247,121.312 C122.247,121.312 123.494,130.752 136.141,130.752 C148.787,130.752 144.554,108.488 144.554,108.488 L148.928,104.746 L124.859,103.641 L118.15,106.788" id="Fill-57" fill="#EA909B"></path>
        <path d="M122.247,121.312 C122.247,121.312 122.505,123.233 123.944,125.342 L122.247,121.312" id="Fill-58" fill="#DD7F8F"></path>
        <path d="M140.175,108.418 C141.596,111.792 140.905,116.746 140.891,119.531 C140.86,125.579 137.207,128.856 133.654,130.616 C134.432,130.702 135.256,130.752 136.141,130.752 C148.787,130.752 144.554,108.488 144.554,108.488 L146.037,107.219 C143.148,106.653 139.26,106.245 140.175,108.418" id="Fill-59" fill="#DD7F8F"></path>
        <path d="M121,137.272 L122.247,121.312 L121.535,114.543 C121.535,114.543 119.16,117.868 119.397,131.049 C119.635,144.228 117.042,143.273 117.041,143.273 C120.475,151.349 121,137.272 121,137.272" id="Fill-60" fill="#DD7F8F"></path>
        <path d="M124.859,103.641 L118.151,106.788 C125.749,107.814 134.809,108.429 144.562,108.48 L148.928,104.746 L124.859,103.641" id="Fill-61" fill="#F5CAC0"></path>
        <path d="M118.382,107.064 C117.712,108.049 110.533,119.218 115.419,137.18 C117.59,145.16 118.734,145.458 118.952,145.425 C119.791,145.329 120.509,141.125 120.652,137.258 L121.901,121.285 C121.915,121.108 122.06,120.97 122.238,120.965 C122.431,120.936 122.567,121.091 122.592,121.266 C122.642,121.639 123.964,130.405 136.141,130.405 C138.578,130.405 140.536,129.533 141.958,127.815 C146.714,122.073 144.238,108.687 144.213,108.552 C144.189,108.43 144.233,108.304 144.328,108.223 L148.034,105.053 L124.93,103.992 L118.382,107.064 Z M118.918,146.122 C118.061,146.122 116.816,144.964 114.749,137.362 C112.04,127.405 113.026,119.577 114.33,114.765 C115.748,109.534 117.783,106.701 117.869,106.584 C117.903,106.536 117.949,106.499 118.003,106.474 L124.712,103.326 C124.763,103.303 124.824,103.285 124.875,103.294 L148.943,104.4 C149.086,104.406 149.21,104.499 149.256,104.634 C149.303,104.769 149.262,104.918 149.153,105.011 L144.932,108.621 C145.245,110.398 147.189,122.586 142.494,128.258 C140.933,130.144 138.795,131.1 136.141,131.1 C126.875,131.1 123.57,126.049 122.447,123.22 L121.347,137.298 C121.272,139.302 120.883,145.903 119.031,146.115 C118.994,146.12 118.956,146.122 118.918,146.122 Z" id="Fill-62" fill="#3D1717"></path>
    </g>
</svg>