<?xml version="1.0" encoding="UTF-8"?>
<svg width="298px" height="298px" viewBox="0 0 298 298" version="1.1" xmlns="http://www.w3.org/2000/svg" xmlns:xlink="http://www.w3.org/1999/xlink">
    <!-- Generator: Sketch 50.2 (55047) - http://www.bohemiancoding.com/sketch -->
    <title>vampire</title>
    <desc>Created with Sketch.</desc>
    <defs></defs>
    <g id="vampire" stroke="none" stroke-width="1" fill="none" fill-rule="evenodd">
        <path d="M265.816,29.457 C244.786,26.227 228.614,37.229 224.973,39.969 C221.361,35.462 216.603,32.183 210.982,30.754 C201.535,28.355 191.738,31.715 184.184,38.88 C179.994,34.399 166.148,21.033 149.755,20.586 C149.749,20.586 149.744,20.586 149.74,20.586 C149.462,20.586 149.229,20.801 149.208,21.08 C149.184,21.403 147.196,52.069 172.055,60.727 C171.513,63.108 171.168,65.476 171.011,67.81 C162.571,68.293 155.218,70.04 152.626,74.3 C144.768,87.211 151.668,126.165 160.745,158.315 C174.354,206.518 203.482,225.885 207.149,226.942 C208.467,227.32 209.405,227.19 209.935,226.548 C211.035,225.214 209.659,222.338 209.372,221.776 C209.252,221.54 208.975,221.424 208.724,221.513 C208.473,221.598 208.323,221.857 208.373,222.118 C208.784,224.271 208.534,224.612 208.519,224.633 C208.496,224.641 208.37,224.659 207.925,224.496 C207.42,224.31 205.73,223.393 205.204,219.361 C204.603,214.754 206.83,210.755 207.809,209.257 C216.103,222.196 223.089,229.006 228.063,229.006 C228.165,229.006 228.267,229.002 228.367,228.998 C231.045,228.843 232.088,226.751 232.131,226.663 C232.241,226.434 232.176,226.161 231.975,226.006 C231.774,225.853 231.491,225.862 231.3,226.029 C230.322,226.881 228.927,227.771 227.83,227.184 C226.158,226.289 225.477,222.319 226.136,217.307 C227.146,209.601 234.264,206.689 234.335,206.661 C234.595,206.558 234.731,206.271 234.646,206.004 C226.77,180.943 233.198,129.249 248.131,97.548 C251.434,90.538 251.522,84.719 248.395,80.255 C245.105,75.559 238.709,72.955 231.845,71.543 C232.168,69.797 232.387,68.06 232.504,66.342 C264.676,57.355 264.54,32.823 264.535,32.574 C264.531,32.367 264.406,32.18 264.217,32.097 C263.515,31.788 263.409,31.581 263.398,31.581 C263.493,31.289 264.683,30.767 265.851,30.505 C266.101,30.449 266.276,30.223 266.268,29.966 C266.259,29.71 266.069,29.497 265.816,29.457" id="Fill-12" fill="#867A75"></path>
        <path d="M219.244,65.572 C218.509,67.156 213.773,67.588 201.254,66.27 C193.075,65.409 190.14,64.003 189.17,62.887 L188.731,62.848 C188.731,62.848 190.011,67.981 203.009,68.314 C216.008,68.648 218.564,68.047 219.352,65.581 L219.244,65.572" id="Fill-13" fill="#6C615B"></path>
        <path d="M178.857,84.317 C178.857,84.317 172.145,119.775 178.945,152.571 C185.744,185.368 199.742,206.698 199.742,206.698 C199.742,206.698 174.145,175.102 167.613,144.172 C167.613,144.172 174.634,187.476 205.852,222.018 L205.852,222.017 C205.582,221.332 205.349,220.467 205.204,219.361 C204.603,214.754 206.83,210.755 207.809,209.257 C183.698,172.523 178.474,130.229 178.1,104.292 C177.68,97.818 177.847,91.14 178.857,84.317" id="Fill-14" fill="#6C615B"></path>
        <path d="M207.809,209.257 C208.197,209.863 208.58,210.442 208.963,211.02 C208.934,210.938 208.504,209.705 207.848,207.749 L207.809,209.257" id="Fill-15" fill="#6C615B"></path>
        <path d="M248.395,80.255 C245.105,75.559 238.709,72.955 231.845,71.543 C231.921,71.133 231.972,70.726 232.036,70.317 C232.023,70.319 232.012,70.322 231.999,70.325 L232.504,66.342 C232.504,66.342 242.315,60.502 242.849,49.788 C243.382,39.073 226.56,43.517 226.56,43.517 L224.611,39.55 C221.045,35.265 216.423,32.137 210.982,30.754 C207.041,29.753 203.04,29.767 199.165,30.629 L201.787,31.251 C201.787,31.251 214.793,33.519 220.136,53.555 C217.059,53.341 214.94,54.649 214.94,54.649 C214.94,54.649 217.891,55.175 220.621,55.507 C221.715,60.297 222.391,66.007 222.392,72.847 C222.392,72.847 231.358,75.434 232.852,73.997 C239.243,77.16 223.551,84.579 223.551,84.579 C244.069,80.313 232.184,105.376 227.561,130.796 C222.939,156.215 225.921,191.233 225.921,191.233 C210.415,157.282 209.608,108.398 209.608,108.398 C198.231,148.039 225.921,222.018 225.921,222.018 C225.845,220.624 225.909,219.03 226.136,217.307 C227.146,209.601 234.264,206.689 234.335,206.661 C234.595,206.558 234.731,206.271 234.646,206.004 C226.77,180.943 233.198,129.249 248.131,97.548 C251.434,90.538 251.522,84.719 248.395,80.255" id="Fill-16" fill="#6C615B"></path>
        <path d="M210.319,53.56 C210.319,53.56 219.829,47.517 226.406,54.36 C226.406,54.36 228.272,47.606 219.029,47.161 C209.786,46.716 210.319,53.56 210.319,53.56" id="Fill-17" fill="#FFFBEF"></path>
        <path d="M223.028,51.698 C223.014,51.792 223.02,51.877 223.017,51.966 C224.188,52.479 225.336,53.247 226.406,54.36 C226.406,54.36 227.835,49.189 222.001,47.598 L220.54,47.718 C220.54,47.718 223.474,48.859 223.028,51.698" id="Fill-18" fill="#D9D1C4"></path>
        <path d="M184.989,51.161 C184.989,51.161 192.365,46.45 199.475,52.049 C199.475,52.049 200.987,46.272 193.255,45.65 C185.522,45.028 184.989,51.161 184.989,51.161" id="Fill-19" fill="#FFFBEF"></path>
        <path d="M213.074,67.066 C213.074,67.066 213.785,70.359 215.785,71.558 C215.785,71.558 217.386,70.101 217.719,66.585" id="Fill-20" fill="#FFFBEF"></path>
        <path d="M190.38,63.8 C190.38,63.8 189.255,67.07 190.988,70.136 C190.988,70.136 194.005,68.547 194.297,65.164" id="Fill-21" fill="#FFFBEF"></path>
        <path d="M191.835,48.826 C194.054,48.826 196.577,49.391 199.088,51.14 C199.117,50.431 199.016,49.354 198.331,48.395 C197.408,47.103 195.686,46.347 193.215,46.148 C187.891,45.729 186.221,48.627 185.707,50.22 C186.921,49.653 189.153,48.826 191.835,48.826 Z M199.475,52.549 C199.365,52.549 199.256,52.512 199.166,52.442 C192.429,47.137 185.548,51.398 185.258,51.582 C185.098,51.685 184.892,51.688 184.73,51.587 C184.567,51.489 184.475,51.307 184.491,51.118 C184.498,51.051 185.184,44.502 193.295,45.152 C196.082,45.375 198.053,46.276 199.153,47.826 C200.558,49.804 199.984,52.08 199.959,52.176 C199.917,52.339 199.795,52.469 199.635,52.523 C199.583,52.54 199.529,52.549 199.475,52.549 Z" id="Fill-22" fill="#3D1717"></path>
        <path d="M218.74,50.618 C221.154,50.618 223.743,51.288 226.049,53.325 C226.094,52.5 225.991,51.247 225.19,50.148 C224.095,48.642 222.014,47.805 219.005,47.66 C215.967,47.521 213.705,48.161 212.314,49.584 C211.3,50.624 210.967,51.877 210.861,52.687 C212.265,51.961 215.326,50.618 218.74,50.618 Z M226.406,54.86 C226.271,54.86 226.142,54.806 226.046,54.706 C219.833,48.245 210.962,53.744 210.587,53.982 C210.439,54.077 210.253,54.085 210.096,54.007 C209.938,53.928 209.834,53.774 209.821,53.599 C209.812,53.49 209.636,50.909 211.587,48.898 C213.185,47.252 215.689,46.497 219.054,46.662 C222.387,46.822 224.726,47.8 226.007,49.571 C227.61,51.786 226.918,54.383 226.889,54.493 C226.84,54.666 226.703,54.8 226.529,54.844 C226.488,54.855 226.447,54.86 226.406,54.86 Z" id="Fill-23" fill="#3D1717"></path>
        <path d="M221.472,51.938 C221.433,51.938 221.392,51.933 221.351,51.923 C221.083,51.857 220.92,51.585 220.986,51.318 L221.907,47.598 C221.974,47.33 222.242,47.167 222.513,47.233 C222.781,47.299 222.944,47.571 222.878,47.838 L221.957,51.558 C221.9,51.786 221.696,51.938 221.472,51.938" id="Fill-24" fill="#3D1717"></path>
        <path d="M195.158,50.288 C195.117,50.288 195.074,50.283 195.032,50.271 C194.765,50.202 194.604,49.928 194.675,49.662 L195.604,46.098 C195.674,45.831 195.945,45.664 196.214,45.741 C196.481,45.81 196.642,46.083 196.571,46.35 L195.642,49.913 C195.583,50.139 195.381,50.288 195.158,50.288" id="Fill-25" fill="#3D1717"></path>
        <path d="M212.948,67.554 C210.279,67.554 206.524,67.328 201.201,66.767 C193.495,65.956 189.177,64.536 188.367,62.545 C188.058,61.783 188.348,61.131 188.567,60.867 C188.746,60.654 189.062,60.627 189.271,60.801 C189.481,60.976 189.513,61.287 189.343,61.498 C189.316,61.534 189.134,61.8 189.303,62.191 C189.62,62.921 191.424,64.733 201.307,65.773 C205.243,66.187 217.225,67.446 218.719,65.487 C218.825,65.346 218.943,65.101 218.741,64.586 C218.641,64.33 218.767,64.039 219.024,63.938 C219.279,63.837 219.57,63.964 219.673,64.221 C219.959,64.95 219.905,65.579 219.515,66.092 C218.912,66.883 217.539,67.554 212.948,67.554" id="Fill-26" fill="#3D1717"></path>
        <path d="M215.785,72.058 C215.696,72.058 215.607,72.035 215.528,71.987 C213.367,70.691 212.616,67.315 212.586,67.171 C212.527,66.902 212.698,66.636 212.969,66.578 C213.24,66.518 213.504,66.691 213.562,66.96 C213.569,66.989 214.168,69.667 215.703,70.893 C216.137,70.331 216.993,68.946 217.221,66.539 C217.247,66.263 217.514,66.074 217.766,66.087 C218.041,66.114 218.242,66.358 218.217,66.632 C217.869,70.298 216.193,71.863 216.122,71.928 C216.027,72.014 215.906,72.058 215.785,72.058" id="Fill-27" fill="#3D1717"></path>
        <path d="M190.988,70.636 C190.814,70.636 190.644,70.544 190.553,70.382 C188.729,67.157 189.858,63.78 189.907,63.637 C189.997,63.376 190.28,63.238 190.542,63.328 C190.803,63.416 190.941,63.701 190.852,63.962 C190.843,63.991 189.936,66.735 191.182,69.419 C191.973,68.86 193.599,67.438 193.799,65.122 C193.822,64.846 194.068,64.649 194.34,64.666 C194.615,64.69 194.818,64.932 194.795,65.207 C194.483,68.821 191.354,70.508 191.222,70.579 C191.147,70.618 191.067,70.636 190.988,70.636" id="Fill-28" fill="#3D1717"></path>
        <path d="M241.737,61.686 C241.615,61.686 241.493,61.642 241.397,61.552 C241.194,61.365 241.183,61.048 241.371,60.846 C248.816,52.827 245.562,42.576 245.529,42.473 C245.442,42.21 245.585,41.928 245.848,41.842 C246.108,41.752 246.393,41.899 246.478,42.161 C246.515,42.269 249.946,53.08 242.103,61.526 C242.005,61.632 241.871,61.686 241.737,61.686" id="Fill-29" fill="#3D1717"></path>
        <path d="M247.737,58.149 C247.621,58.149 247.505,58.109 247.41,58.027 C247.201,57.846 247.179,57.531 247.359,57.322 C254.864,48.652 254.309,36.466 254.304,36.344 C254.289,36.069 254.5,35.833 254.776,35.819 C255.052,35.8 255.287,36.016 255.302,36.29 C255.309,36.417 255.89,48.995 248.115,57.976 C248.017,58.09 247.877,58.149 247.737,58.149" id="Fill-30" fill="#3D1717"></path>
        <path d="M166.547,56.016 C166.37,56.016 166.198,55.922 166.108,55.755 C158.806,42.367 165.264,36.205 165.542,35.95 C165.745,35.763 166.059,35.778 166.246,35.979 C166.434,36.181 166.421,36.497 166.22,36.685 C166.204,36.7 164.661,38.163 163.984,41.153 C163.355,43.932 163.365,48.638 166.985,55.277 C167.118,55.519 167.028,55.823 166.786,55.955 C166.71,55.997 166.628,56.016 166.547,56.016" id="Fill-31" fill="#3D1717"></path>
        <path d="M162.014,51.938 C161.849,51.938 161.686,51.856 161.591,51.705 C154.733,40.869 158.579,31.159 158.618,31.062 C158.723,30.807 159.013,30.683 159.269,30.788 C159.525,30.893 159.648,31.185 159.544,31.441 C159.507,31.533 155.865,40.787 162.436,51.17 C162.584,51.404 162.515,51.712 162.281,51.861 C162.198,51.913 162.105,51.938 162.014,51.938" id="Fill-32" fill="#3D1717"></path>
        <path d="M191.835,48.826 C194.054,48.826 196.577,49.391 199.088,51.14 C199.117,50.431 199.016,49.354 198.331,48.395 C197.408,47.103 195.686,46.347 193.215,46.148 C187.891,45.729 186.221,48.627 185.707,50.22 C186.921,49.653 189.153,48.826 191.835,48.826 Z M199.475,52.549 C199.365,52.549 199.256,52.512 199.166,52.442 C192.429,47.137 185.548,51.398 185.258,51.582 C185.098,51.685 184.892,51.688 184.73,51.587 C184.567,51.489 184.475,51.307 184.491,51.118 C184.498,51.051 185.184,44.502 193.295,45.152 C196.082,45.375 198.053,46.276 199.153,47.826 C200.558,49.804 199.984,52.08 199.959,52.176 C199.917,52.339 199.795,52.469 199.635,52.523 C199.583,52.54 199.529,52.549 199.475,52.549 Z" id="Fill-33" fill="#3D1717"></path>
        <path d="M207.809,208.757 C207.81,208.757 207.811,208.757 207.811,208.757 C207.981,208.758 208.139,208.845 208.23,208.988 C218.572,225.12 224.724,228.506 228.063,228.506 C228.155,228.506 228.247,228.503 228.338,228.499 C230.727,228.361 231.642,226.523 231.681,226.445 C230.059,227.774 228.666,228.198 227.594,227.624 C225.711,226.617 224.944,222.54 225.64,217.242 C226.683,209.29 234.072,206.227 234.147,206.197 C226.263,180.996 232.702,129.128 247.679,97.335 C250.899,90.498 251.003,84.849 247.986,80.542 C245.18,76.536 239.715,73.673 231.744,72.033 C231.477,71.978 231.304,71.72 231.353,71.453 C231.636,69.929 231.841,68.387 231.964,66.869 C232.007,66.324 232.392,65.856 232.92,65.705 C264.065,56.728 264.039,32.824 264.035,32.583 C263.341,32.258 263.118,32.021 263.039,31.928 C263.022,31.912 263.008,31.893 262.994,31.874 C262.899,31.745 262.873,31.578 262.923,31.426 C263.192,30.597 265.717,30.023 265.742,30.017 L265.816,29.457 L265.74,29.952 C244.696,26.716 228.338,38.062 225.273,40.369 C225.059,40.53 224.753,40.494 224.582,40.282 C220.925,35.717 216.18,32.59 210.859,31.239 C201.889,28.963 192.292,31.878 184.527,39.244 C184.431,39.334 184.29,39.368 184.169,39.38 C184.035,39.376 183.909,39.319 183.818,39.222 C179.946,35.08 166.045,21.53 149.741,21.086 C149.684,21.422 147.692,51.712 172.219,60.254 C172.46,60.338 172.599,60.589 172.542,60.838 C172.014,63.16 171.666,65.516 171.51,67.843 C171.492,68.095 171.291,68.294 171.039,68.309 C161.288,68.868 155.237,70.971 153.053,74.56 C145.279,87.334 152.178,126.13 161.226,158.179 C174.775,206.167 203.654,225.415 207.288,226.461 C208.397,226.779 209.159,226.702 209.55,226.23 C210.298,225.323 209.51,223.146 208.927,222.003 C209.311,224.365 209.025,224.78 208.932,224.916 C208.87,225.005 208.781,225.074 208.678,225.108 C208.532,225.156 208.318,225.17 207.753,224.965 C207.019,224.696 205.256,223.617 204.708,219.426 C204.086,214.656 206.377,210.535 207.391,208.984 C207.483,208.842 207.641,208.757 207.809,208.757 Z M228.063,229.506 C223.005,229.506 216.012,222.832 207.818,210.194 C206.775,211.973 205.194,215.417 205.7,219.297 C206.202,223.144 207.785,223.912 208.098,224.026 C208.102,224.028 208.108,224.031 208.113,224.033 C208.107,223.726 208.064,223.166 207.882,222.211 C207.786,221.707 208.078,221.204 208.563,221.04 C209.042,220.872 209.583,221.089 209.817,221.549 C210.256,222.408 211.588,225.331 210.321,226.867 C209.652,227.674 208.536,227.861 207.012,227.422 C203.31,226.356 173.934,206.869 160.264,158.451 C151.158,126.2 144.258,87.088 152.199,74.04 C154.529,70.209 160.7,67.955 170.544,67.337 C170.705,65.246 171.017,63.135 171.471,61.05 C146.661,52.06 148.685,21.353 148.709,21.041 C148.751,20.505 149.203,20.086 149.74,20.086 C166.005,20.529 179.839,33.586 184.205,38.175 C192.16,30.821 201.94,27.942 211.105,30.27 C216.491,31.638 221.306,34.75 225.059,39.283 C229.934,35.704 245.564,25.838 265.892,28.963 C266.381,29.038 266.749,29.453 266.768,29.947 C266.783,30.446 266.444,30.883 265.962,30.993 C265.256,31.151 264.646,31.38 264.258,31.566 C264.307,31.589 264.36,31.614 264.419,31.64 C264.785,31.8 265.027,32.163 265.035,32.564 C265.04,32.812 265.155,57.455 233.196,66.665 C233.063,66.704 232.971,66.815 232.96,66.949 C232.848,68.342 232.667,69.754 232.423,71.154 C240.393,72.864 245.904,75.829 248.805,79.968 C252.043,84.59 251.968,90.577 248.583,97.761 C233.693,129.37 227.278,180.891 235.123,205.855 C235.287,206.369 235.021,206.927 234.517,207.125 C234.452,207.152 227.597,210.014 226.632,217.373 C225.938,222.649 226.829,226.081 228.066,226.744 C228.955,227.22 230.268,226.265 230.971,225.651 C231.342,225.33 231.892,225.313 232.278,225.61 C232.666,225.907 232.793,226.441 232.581,226.88 C232.533,226.98 231.365,229.326 228.395,229.497 C228.286,229.503 228.175,229.506 228.063,229.506 Z" id="Fill-34" fill="#3D1717"></path>
        <path d="M207.809,209.757 C207.647,209.757 207.487,209.678 207.392,209.532 C170.082,152.69 178.449,83.43 178.538,82.738 C179.662,73.968 196.948,73.136 211.246,73.982 C211.522,73.998 211.732,74.235 211.716,74.51 C211.699,74.786 211.46,75.01 211.187,74.98 C199.827,74.308 180.61,74.438 179.53,82.865 C179.441,83.554 171.119,152.447 208.227,208.983 C208.379,209.213 208.314,209.524 208.084,209.675 C207.999,209.731 207.904,209.757 207.809,209.757" id="Fill-35" fill="#3D1717"></path>
        <path d="M221.466,75.88 C221.446,75.88 221.427,75.879 221.408,75.877 C220.297,75.749 219.04,75.614 217.671,75.484 C217.396,75.457 217.194,75.213 217.221,74.938 C217.248,74.663 217.502,74.476 217.767,74.488 C219.142,74.62 220.406,74.755 221.521,74.883 C221.796,74.915 221.993,75.164 221.962,75.437 C221.933,75.693 221.716,75.88 221.466,75.88" id="Fill-36" fill="#3D1717"></path>
        <path d="M226.561,76.546 C226.536,76.546 226.51,76.544 226.484,76.54 C226.481,76.54 225.949,76.457 224.998,76.328 C224.725,76.29 224.532,76.039 224.57,75.765 C224.607,75.491 224.862,75.289 225.133,75.337 C226.098,75.469 226.637,75.552 226.637,75.552 C226.91,75.594 227.097,75.85 227.055,76.122 C227.017,76.37 226.804,76.546 226.561,76.546" id="Fill-37" fill="#3D1717"></path>
        <path d="M172.99,57.649 C172.99,57.649 177.304,46.525 181.167,42.317 C181.167,42.317 170.393,32.511 167.657,42.317 C164.922,52.123 172.99,57.649 172.99,57.649" id="Fill-38" fill="#6C615B"></path>
        <path d="M186.678,52.849 C186.678,52.849 192.41,50.049 197.142,53.183 C197.142,53.183 190.077,53.649 186.678,52.849" id="Fill-39" fill="#6C615B"></path>
        <path d="M198.587,42.417 C198.392,42.417 198.206,42.302 198.126,42.111 C197.662,41.001 196.968,40.302 196.062,40.033 C193.96,39.406 191.339,41.158 191.312,41.176 C191.084,41.33 190.773,41.271 190.618,41.042 C190.464,40.814 190.523,40.503 190.752,40.348 C190.874,40.265 193.803,38.312 196.348,39.075 C197.555,39.434 198.463,40.326 199.048,41.725 C199.154,41.979 199.034,42.272 198.779,42.378 C198.717,42.405 198.651,42.417 198.587,42.417" id="Fill-40" fill="#3D1717"></path>
        <path d="M212.332,42.318 C212.264,42.318 212.193,42.304 212.127,42.274 C211.875,42.161 211.763,41.865 211.876,41.613 C212.497,40.23 213.429,39.363 214.644,39.035 C217.217,38.336 220.084,40.368 220.205,40.455 C220.43,40.615 220.481,40.927 220.32,41.152 C220.16,41.375 219.848,41.428 219.623,41.268 C219.597,41.248 217.017,39.429 214.901,40 C213.991,40.247 213.28,40.927 212.788,42.023 C212.705,42.208 212.522,42.318 212.332,42.318" id="Fill-41" fill="#3D1717"></path>
    </g>
</svg>