<?xml version="1.0" encoding="UTF-8"?>
<svg width="298px" height="298px" viewBox="0 0 298 298" version="1.1" xmlns="http://www.w3.org/2000/svg" xmlns:xlink="http://www.w3.org/1999/xlink">
    <!-- Generator: Sketch 50.2 (55047) - http://www.bohemiancoding.com/sketch -->
    <title>werewolf</title>
    <desc>Created with Sketch.</desc>
    <defs></defs>
    <g id="werewolf" stroke="none" stroke-width="1" fill="none" fill-rule="evenodd">
        <path d="M182.73,107.42 C187.881,102.237 194.85,96.797 203.513,93.551 M177.541,113.22 C178.386,112.171 179.329,111.058 180.366,109.913 M174.067,117.9 C174.492,117.274 174.988,116.569 175.551,115.803 M172.123,120.97 C172.123,120.97 172.295,120.663 172.634,120.11" id="Stroke-5" stroke="#3D1717" stroke-linecap="round" stroke-linejoin="round"></path>
        <polyline id="Fill-6" fill="#ECA6A9" points="205.374 36.449 212.943 35.872 209.658 42.715 205.374 36.449"></polyline>
        <polygon id="Stroke-7" stroke="#3D1717" stroke-linecap="round" stroke-linejoin="round" points="205.374 36.449 212.943 35.872 209.658 42.715"></polygon>
        <polyline id="Fill-8" fill="#ECA6A9" points="220.98 34.974 213.411 35.551 216.695 28.709 220.98 34.974"></polyline>
        <polygon id="Stroke-9" stroke="#3D1717" stroke-linecap="round" stroke-linejoin="round" points="220.98 34.974 213.411 35.551 216.695 28.709"></polygon>
        <path d="M215.177,38.656 C213.554,39.765 211.339,39.35 210.23,37.727 C209.12,36.104 209.536,33.889 211.159,32.78 C212.781,31.67 214.997,32.086 216.106,33.709 C217.216,35.332 216.8,37.547 215.177,38.656" id="Fill-10" fill="#ECA6A9"></path>
        <path d="M215.177,38.656 C213.554,39.765 211.339,39.35 210.23,37.727 C209.12,36.104 209.536,33.889 211.159,32.78 C212.781,31.67 214.997,32.086 216.106,33.709 C217.216,35.332 216.8,37.547 215.177,38.656 Z" id="Stroke-11" stroke="#3D1717" stroke-linecap="round" stroke-linejoin="round"></path>
        <polyline id="Fill-12" fill="#3C1919" points="208.283 99 210.598 91.771 215.701 97.39 208.283 99"></polyline>
        <polygon id="Stroke-13" stroke="#3D1717" stroke-linecap="round" stroke-linejoin="round" points="208.283 99 210.598 91.771 215.701 97.39"></polygon>
        <polyline id="Fill-14" fill="#3C1919" points="212.792 83.988 210.477 91.216 205.374 85.597 212.792 83.988"></polyline>
        <polygon id="Stroke-15" stroke="#3D1717" stroke-linecap="round" stroke-linejoin="round" points="212.792 83.988 210.477 91.216 205.374 85.597"></polygon>
        <path d="M214.018,90.75 C214.435,92.67 213.216,94.566 211.295,94.983 C209.374,95.4 207.478,94.18 207.061,92.259 C206.644,90.338 207.864,88.443 209.785,88.026 C211.706,87.609 213.601,88.829 214.018,90.75" id="Fill-16" fill="#E2625C"></path>
        <path d="M214.018,90.75 C214.435,92.67 213.216,94.566 211.295,94.983 C209.374,95.4 207.478,94.18 207.061,92.259 C206.644,90.338 207.864,88.443 209.785,88.026 C211.706,87.609 213.601,88.829 214.018,90.75 Z" id="Stroke-17" stroke="#3C1919"></path>
        <path d="M229.375,70.882 C230.301,71.134 230.847,72.09 230.594,73.016 C230.342,73.942 229.386,74.489 228.461,74.236 C227.534,73.983 226.988,73.028 227.241,72.102 C227.493,71.175 228.449,70.629 229.375,70.882" id="Fill-18" fill="#E2625C"></path>
        <path d="M229.375,70.882 C230.301,71.134 230.847,72.09 230.594,73.016 C230.342,73.942 229.386,74.489 228.461,74.236 C227.534,73.983 226.988,73.028 227.241,72.102 C227.493,71.175 228.449,70.629 229.375,70.882 Z" id="Stroke-19" stroke="#3C1919"></path>
        <path d="M211.992,108.317 C213.895,107.575 216.003,106.807 218.315,106.038 M203.512,112.027 C204.573,111.503 205.81,110.92 207.222,110.295 M198.711,114.652 C198.711,114.652 199.409,114.198 200.804,113.433" id="Stroke-20" stroke="#3D1717" stroke-linecap="round" stroke-linejoin="round"></path>
        <path d="M226.159,100.888 C227.71,101.311 228.624,102.911 228.201,104.462 C227.779,106.012 226.179,106.926 224.628,106.504 C223.078,106.081 222.163,104.481 222.586,102.93 C223.009,101.379 224.609,100.465 226.159,100.888" id="Fill-21" fill="#E2625C"></path>
        <path d="M226.159,100.888 C227.71,101.311 228.624,102.911 228.201,104.462 C227.779,106.012 226.179,106.926 224.628,106.504 C223.078,106.081 222.163,104.481 222.586,102.93 C223.009,101.379 224.609,100.465 226.159,100.888 Z" id="Stroke-22" stroke="#3C1919"></path>
        <path d="M223.745,169.068 C217.827,165.89 213.07,166.078 209.74,167.105 C209.74,167.105 200.832,164.561 195.923,171.648 C192.932,175.96 191.272,185.822 190.425,192.891 C188.032,179.405 176.991,178.628 176.991,178.628 C179.187,177.021 183.873,178.012 183.873,178.012 C176.303,171.916 165.432,177.762 164.986,178.004 C164.977,178.012 164.968,178.012 164.968,178.012 C164.254,178.735 163.638,179.476 163.093,180.208 C162.424,175.968 164.387,173.041 164.387,173.041 C158.925,175.057 155.792,182.975 155.792,182.975 L155.774,182.975 C155.533,176.646 152.802,171.648 152.802,171.648 C154.15,165.579 154.39,156.697 147.339,149.86 C149.053,148.137 149.624,145.576 149.624,145.576 C166.548,156.608 158.88,141.549 158.88,141.549 C166.155,142.621 158.416,130.33 156.899,128.009 C156.854,127.938 156.809,127.876 156.774,127.822 C156.729,127.759 156.694,127.706 156.684,127.679 C156.658,127.652 156.649,127.634 156.649,127.634 C176.09,131.258 157.461,121.628 156.676,121.216 C164.994,124.215 167.511,119.976 167.511,119.976 C155.935,119.709 155.212,111.916 155.176,111.113 L155.176,111.103 C155.158,111.068 155.149,111.05 155.149,111.05 C175.384,86.798 161.995,79.363 161.995,79.363 C169.734,67.313 163.79,67.018 160.585,66.117 C140.377,60.449 121.686,83.906 121.222,84.487 C118.41,81.916 111.734,76.756 103.352,76.756 C103.352,76.756 107.155,77.426 108.493,79.88 C108.493,79.88 103.004,77.123 93.676,80.389 C93.676,80.389 82.189,71.731 66.31,72.293 C63.659,72.383 61.606,72.293 60.008,72.08 C60.008,72.08 59.981,72.071 59.919,72.061 C59.241,71.972 58.651,71.865 58.134,71.731 C58.125,71.722 58.107,71.722 58.098,71.722 C55.973,71.446 52.573,71.366 50.475,73.186 C50.475,73.186 38.979,90.199 69.219,113.71 C69.219,113.71 67.202,118.753 60.508,120.628 C60.508,120.628 61.632,121.716 69.219,119.271 C69.219,119.271 69.184,119.378 69.104,119.584 C68.639,120.797 66.497,125.332 60.062,127.634 C60.062,127.634 63.739,129.58 69.193,127.831 C68.711,128.001 60.428,131.106 61.401,142.478 C61.401,142.478 68.407,135.212 74.111,135.881 C74.111,135.881 73.227,139.55 70.648,143.772 L70.728,143.817 C71.54,142.379 72.594,141.014 73.897,139.8 C75.566,138.247 77.414,136.935 79.315,135.9 L79.306,135.881 C79.136,135.587 78.993,135.301 78.868,135.007 C77.565,132.061 78.217,129.187 80.591,126.751 C78.52,124.618 82.511,120.628 82.511,120.628 C83.162,121.341 84.465,122.546 86.616,123.778 C87.437,124.243 88.383,124.707 89.472,125.153 C91.124,125.832 93.088,126.456 95.426,126.929 C96.577,127.161 97.818,127.357 99.148,127.501 C100.933,127.706 102.897,127.822 105.03,127.822 C106.342,127.822 107.717,127.777 109.163,127.688 C110.225,127.626 111.323,127.536 112.466,127.411 C113.331,127.322 114.17,127.223 114.974,127.117 C116.072,126.973 117.125,126.813 118.115,126.652 C120.249,126.304 122.168,125.903 123.873,125.483 C124.863,125.233 125.774,124.974 126.631,124.715 C128.996,123.993 130.898,123.207 132.406,122.439 C133.236,122.011 133.941,121.591 134.557,121.19 C136.717,119.753 137.673,118.467 138.074,117.754 C138.074,117.754 143.081,121.288 140.225,123.948 C140.225,123.948 142.349,128.428 140.877,133.4 C140.359,135.159 139.395,136.971 137.726,138.667 C136.726,139.702 135.459,140.693 133.87,141.603 C132.37,142.469 130.585,143.263 128.461,143.942 C126.934,144.442 125.23,144.879 123.328,145.245 C121.552,145.593 119.597,145.879 117.455,146.093 C117.259,146.12 117.062,146.137 116.857,146.156 C115.59,146.271 114.367,146.361 113.162,146.423 C111.546,146.512 109.993,146.557 108.493,146.557 C107.298,146.557 106.146,146.531 105.03,146.486 C101.469,146.325 98.264,145.915 95.426,145.307 L95.149,145.093 C93.096,147.61 91.793,150.645 90.972,152.957 C89.669,156.634 89.258,162.891 78.288,161.999 C78.128,161.99 77.976,161.972 77.824,161.946 L77.806,162.088 C77.806,162.088 79.591,174.379 70.22,178.289 C70.22,178.289 75.209,178.387 77.94,175.772 C76.468,177.422 71.094,184.064 74.263,190.446 C74.263,190.446 75.022,185.653 78.306,183.984 C78.306,183.984 75.146,191.427 75.682,198.247 C75.334,197.962 66.462,190.758 57.277,194.695 L64.525,199.113 C64.525,199.113 60.847,200.148 56.759,200.238 C56.616,200.238 56.429,200.238 56.188,200.247 C53.591,200.318 45.602,201.086 38.979,207.521 C38.979,207.521 44.807,208.967 47.539,207.95 C47.94,207.717 48.208,207.575 48.297,207.539 C48.092,207.709 47.833,207.851 47.539,207.95 C46.682,208.44 45.236,209.333 43.745,210.52 C43.745,210.52 37.532,221.472 49.69,228.827 C54.028,231.452 58.428,232.487 62.302,232.737 L62.293,232.799 C62.293,232.799 48.574,235.754 42.772,245.787 C39.336,251.731 39.246,259.497 41.04,263.031 C42.558,266.012 45.584,269.922 53.948,267.129 C55.117,268.386 56.857,269.28 59.401,269.44 C69.88,270.119 70.22,263.871 70.22,263.871 L70.371,263.54 C71.746,264.147 73.486,264.397 75.691,264.085 C86.625,262.532 83.876,250.25 83.876,250.25 C87.928,251.481 92.65,249.125 92.65,249.125 C94.016,250.633 96.292,251.785 99.648,252.151 C110.02,253.266 116.491,247.018 114.929,242.671 C114.733,242.118 114.492,241.6 114.206,241.109 C114.206,241.109 117.178,243.448 121.026,241.118 C120.749,241.6 120.508,242.118 120.311,242.663 C118.759,247.018 125.22,253.266 135.601,252.151 C138.958,251.785 141.234,250.633 142.599,249.125 C142.599,249.125 151.338,253.49 155.238,247.242 C156.551,245.144 157.042,243.038 156.907,241.109 L156.934,241.109 C156.934,241.109 164.611,233.317 154.792,227.828 C153.168,226.918 151.052,226.64 148.99,226.668 C170.52,205.647 177.767,216.679 182.016,224.364 C184.328,228.55 190.317,237.2 201.091,215.438 C211.873,193.686 221.513,196.034 221.513,196.034 C221.513,196.034 224.414,201.836 225.976,187.661 C226.074,186.796 226.11,186.001 226.092,185.278 L226.199,185.278 C226.199,185.278 235.947,175.611 223.745,169.068" id="Fill-23" fill="#C68572"></path>
        <path d="M140.225,123.948 C137.449,126.537 134.557,121.19 134.557,121.19 C133.941,121.591 133.236,122.011 132.406,122.439 L132.487,122.6 C132.487,122.6 134.977,127.001 131.647,128.634 C128.425,130.213 126.738,125.073 126.631,124.715 C125.774,124.974 124.863,125.233 123.873,125.483 L123.944,125.769 C123.944,125.769 125.542,130.446 121.945,131.071 C118.553,131.66 118.169,126.983 118.169,126.983 L118.115,126.652 C117.125,126.813 116.072,126.973 114.974,127.117 L115.045,127.607 C115.045,127.607 116.161,132.419 112.519,132.686 C109.092,132.927 109.163,127.742 109.163,127.742 L109.163,127.688 C107.717,127.777 106.342,127.822 105.03,127.822 C105.03,127.822 105.771,132.713 102.12,132.695 C98.684,132.677 99.148,127.509 99.148,127.509 L99.148,127.501 C97.818,127.357 96.577,127.161 95.426,126.929 C95.426,126.929 94.81,131.419 91.472,131.097 C91.356,131.088 91.249,131.071 91.124,131.053 C87.473,130.383 89.472,125.162 89.472,125.162 L89.472,125.153 C88.383,124.707 87.437,124.243 86.616,123.778 C86.616,123.778 84.501,129.196 81.154,127.188 C80.93,127.054 80.743,126.902 80.591,126.751 C78.217,129.187 77.565,132.061 78.868,135.007 C79.556,134.061 82.162,130.955 85.224,133.481 C87.375,132.901 89.464,132.66 91.347,132.766 C94.373,132.927 96.836,133.999 98.104,136.034 C99.371,135.829 100.701,135.766 102.112,135.89 C106.298,136.256 107.815,139.399 108.324,142.183 L108.574,142.139 C109.029,141.702 109.645,141.514 110.555,141.549 C114.001,141.684 113.153,146.325 113.153,146.325 L113.162,146.423 C114.367,146.361 115.59,146.271 116.857,146.156 C117.062,146.137 117.259,146.12 117.455,146.093 L117.402,145.576 C117.402,145.576 116.232,140.773 119.874,140.469 C123.301,140.184 123.293,145.04 123.293,145.04 L123.328,145.245 C125.23,144.879 126.934,144.442 128.461,143.942 L128.461,143.933 C128.461,143.933 125.613,139.889 128.889,138.274 C131.978,136.756 133.861,141.586 133.861,141.586 L133.87,141.603 C135.459,140.693 136.726,139.702 137.726,138.667 C137.342,138.328 134.129,135.373 136.726,133.115 C138.092,131.927 139.582,132.517 140.689,133.347 L140.877,133.4 C142.349,128.428 140.225,123.948 140.225,123.948" id="Fill-24" fill="#3D1717"></path>
        <path d="M78.868,135.007 C78.993,135.301 79.136,135.587 79.306,135.881 L79.315,135.9 C81.26,134.811 83.26,134.007 85.224,133.481 C82.162,130.955 79.556,134.061 78.868,135.007" id="Fill-25" fill="#F6F1D7"></path>
        <path d="M99.148,127.501 L99.148,127.509 C99.148,127.509 98.684,132.677 102.12,132.695 C105.771,132.713 105.03,127.822 105.03,127.822 C102.897,127.822 100.933,127.706 99.148,127.501" id="Fill-26" fill="#F6F1D7"></path>
        <path d="M136.726,133.115 C134.129,135.373 137.342,138.328 137.726,138.667 C139.395,136.971 140.359,135.159 140.877,133.4 L140.689,133.347 C139.582,132.517 138.092,131.927 136.726,133.115" id="Fill-27" fill="#F6F1D7"></path>
        <path d="M128.889,138.274 C125.613,139.889 128.461,143.933 128.461,143.933 L128.461,143.942 C130.585,143.263 132.37,142.469 133.87,141.603 L133.861,141.586 C133.861,141.586 131.978,136.756 128.889,138.274" id="Fill-28" fill="#F6F1D7"></path>
        <path d="M119.874,140.469 C116.232,140.773 117.402,145.576 117.402,145.576 L117.455,146.093 C119.597,145.879 121.552,145.593 123.328,145.245 L123.293,145.04 C123.293,145.04 123.301,140.184 119.874,140.469" id="Fill-29" fill="#F6F1D7"></path>
        <path d="M110.555,141.549 C109.645,141.514 109.029,141.702 108.574,142.139 L108.324,142.183 C108.761,144.496 108.493,146.557 108.493,146.557 C109.993,146.557 111.546,146.512 113.162,146.423 L113.153,146.325 C113.153,146.325 114.001,141.684 110.555,141.549" id="Fill-30" fill="#F6F1D7"></path>
        <path d="M140.225,123.948 C143.081,121.288 138.074,117.754 138.074,117.754 C137.673,118.467 136.717,119.753 134.557,121.19 C134.557,121.19 137.449,126.537 140.225,123.948" id="Fill-31" fill="#F6F1D7"></path>
        <path d="M131.647,128.634 C134.977,127.001 132.487,122.6 132.487,122.6 L132.406,122.439 C130.898,123.207 128.996,123.993 126.631,124.715 C126.738,125.073 128.425,130.213 131.647,128.634" id="Fill-32" fill="#F6F1D7"></path>
        <path d="M123.873,125.483 C122.168,125.903 120.249,126.304 118.115,126.652 L118.169,126.983 C118.169,126.983 118.553,131.66 121.945,131.071 C125.542,130.446 123.944,125.769 123.944,125.769 L123.873,125.483" id="Fill-33" fill="#F6F1D7"></path>
        <path d="M114.974,127.117 C114.17,127.223 113.331,127.322 112.466,127.411 C111.323,127.536 110.225,127.626 109.163,127.688 L109.163,127.742 C109.163,127.742 109.092,132.927 112.519,132.686 C116.161,132.419 115.045,127.607 115.045,127.607 L114.974,127.117" id="Fill-34" fill="#F6F1D7"></path>
        <path d="M89.472,125.162 C89.472,125.162 87.473,130.383 91.124,131.053 C91.249,131.071 91.356,131.088 91.472,131.097 C94.81,131.419 95.426,126.929 95.426,126.929 C93.088,126.456 91.124,125.832 89.472,125.153 L89.472,125.162" id="Fill-35" fill="#F6F1D7"></path>
        <path d="M82.511,120.628 C82.511,120.628 78.52,124.618 80.591,126.751 C80.743,126.902 80.93,127.054 81.154,127.188 C84.501,129.196 86.616,123.778 86.616,123.778 C84.465,122.546 83.162,121.341 82.511,120.628" id="Fill-36" fill="#F6F1D7"></path>
        <path d="M108.324,142.183 C107.815,139.399 106.298,136.256 102.112,135.89 C100.701,135.766 99.371,135.829 98.104,136.034 C96.836,133.999 94.373,132.927 91.347,132.766 C89.464,132.66 87.375,132.901 85.224,133.481 C83.26,134.007 81.26,134.811 79.315,135.9 C77.414,136.935 75.566,138.247 73.897,139.8 C72.594,141.014 71.54,142.379 70.728,143.817 C66.479,151.35 68.961,160.919 77.824,161.946 C77.976,161.972 78.128,161.99 78.288,161.999 C89.258,162.891 89.669,156.634 90.972,152.957 C91.731,150.82 92.91,148.07 94.705,145.677 L105.035,146.337 L105.03,146.486 C106.146,146.531 107.298,146.557 108.493,146.557 C108.493,146.557 108.761,144.496 108.324,142.183" id="Fill-37" fill="#E2625C"></path>
        <path d="M202.695,176.017 C202.695,176.017 203.887,170.546 209.096,167.38 C205.131,168.493 193.56,173.207 190.694,190.784 C190.597,191.505 190.506,192.214 190.425,192.891 C184.849,182.715 173.239,184.232 173.239,184.232 C174.429,181.387 179.71,182.546 179.71,182.546 C173.314,178.837 164.969,185.439 164.969,185.439 C165.402,182.241 167.809,181.646 167.809,181.646 C160.594,182.092 157.396,195.704 155.794,189.754 C155.155,187.379 155.305,184.569 155.716,182.046 C155.264,176.166 152.802,171.648 152.802,171.648 C152.91,171.159 153.008,170.647 153.098,170.125 L152.648,164.361 C152.44,168.274 150.329,172.645 150.329,172.645 C152.114,154.905 146.313,152.395 146.313,152.395 C147.54,154.794 143.617,160.428 143.617,160.428 C143.655,151.056 137.386,148.936 137.386,148.936 C145.699,150.442 149.624,145.576 149.624,145.576 C159.889,152.267 161.104,149.359 160.473,146.036 C145.214,127.401 157.056,137.118 161.493,140.933 C163.524,138.449 158.138,129.905 156.899,128.009 C156.854,127.938 156.809,127.876 156.774,127.822 C156.729,127.759 156.694,127.706 156.684,127.679 C156.658,127.652 156.649,127.634 156.649,127.634 C163.083,128.834 165.345,128.581 165.466,127.691 C165.466,127.691 144.134,117.235 164.379,121.995 C166.67,121.374 167.511,119.976 167.511,119.976 C155.935,119.709 155.212,111.916 155.176,111.113 L155.176,111.103 C155.158,111.068 155.149,111.05 155.149,111.05 C155.167,111.029 155.182,111.009 155.199,110.988 C150.733,104.942 159.502,89.634 159.502,89.634 C159.502,89.634 157.024,100.234 160.594,95.385 C162.755,92.451 164.403,87.163 165.368,83.444 C164.088,80.535 161.995,79.363 161.995,79.363 C165.116,74.503 166.01,71.558 165.757,69.711 C165.757,69.711 153.766,63.219 139.44,72.559 C125.113,81.899 121.207,91.771 121.207,91.771 C121.207,91.771 118.685,83.802 112.676,80.544 C112.676,80.544 115.419,84.179 115.208,85.419 C115.208,85.419 104.345,79.074 93.679,84.726 C93.679,84.726 84.352,73.702 51.772,74.602 L54.542,76.083 L51.772,76.083 C51.772,76.083 46.736,93.099 69.104,112.098 L68.895,113.453 C69.005,113.539 69.109,113.624 69.219,113.71 C69.219,113.71 67.202,118.753 60.508,120.628 C60.508,120.628 61.632,121.716 69.219,119.271 C69.219,119.271 69.184,119.378 69.104,119.584 C68.639,120.797 66.497,125.332 60.062,127.634 C60.062,127.634 60.115,127.662 60.203,127.702 C61.996,127.82 66.746,127.86 71.213,125.513 C71.213,125.513 63.64,135.867 61.641,142.238 C62.883,141.015 69.011,135.283 74.111,135.881 C74.111,135.881 73.227,139.55 70.648,143.772 L70.728,143.817 C71.54,142.379 72.594,141.014 73.897,139.8 C75.566,138.247 77.414,136.935 79.315,135.9 L79.306,135.881 C79.136,135.587 78.993,135.301 78.868,135.007 C77.565,132.061 78.217,129.187 80.591,126.751 C78.52,124.618 82.511,120.628 82.511,120.628 C83.162,121.341 84.465,122.546 86.616,123.778 C87.437,124.243 88.383,124.707 89.472,125.153 C91.124,125.832 93.088,126.456 95.426,126.929 C96.577,127.161 97.818,127.357 99.148,127.501 C100.933,127.706 102.897,127.822 105.03,127.822 C106.342,127.822 107.717,127.777 109.163,127.688 C110.225,127.626 111.323,127.536 112.466,127.411 C113.331,127.322 114.17,127.223 114.974,127.117 C116.072,126.973 117.125,126.813 118.115,126.652 C120.249,126.304 122.168,125.903 123.873,125.483 C124.863,125.233 125.774,124.974 126.631,124.715 C128.996,123.993 130.898,123.207 132.406,122.439 C133.236,122.011 133.941,121.591 134.557,121.19 C136.717,119.753 137.673,118.467 138.074,117.754 C138.074,117.754 143.081,121.288 140.225,123.948 C140.225,123.948 142.349,128.428 140.877,133.4 C140.359,135.159 139.395,136.971 137.726,138.667 C136.726,139.702 135.459,140.693 133.87,141.603 C132.37,142.469 130.585,143.263 128.461,143.942 C126.934,144.442 125.23,144.879 123.328,145.245 C121.552,145.593 119.597,145.879 117.455,146.093 C117.259,146.12 117.062,146.137 116.857,146.156 C115.59,146.271 114.367,146.361 113.162,146.423 C111.546,146.512 109.993,146.557 108.493,146.557 C107.298,146.557 106.146,146.531 105.03,146.486 C101.469,146.325 98.264,145.915 95.426,145.307 L95.149,145.093 C93.096,147.61 91.793,150.645 90.972,152.957 C89.737,156.442 89.298,162.238 79.922,162.078 L79.931,162.081 C79.931,162.081 82.304,169.294 79.703,172.869 L83.72,168.852 C83.72,168.852 78.699,174.487 78.699,177.332 C78.699,177.332 82.214,168.908 89.242,167.96 C89.242,167.96 77.416,182.687 78.922,195.407 C79.751,202.408 78.947,201.945 77.37,200.862 C75.187,199.362 67.319,197.511 67.319,197.511 C67.319,197.511 72.302,200.167 71.484,201.505 C70.666,202.844 52.442,201.134 52.07,207.159 C51.698,213.184 54.897,216.457 54.897,216.457 C54.897,216.457 54.078,213.184 54.822,212.514 C54.822,212.514 58.244,228.879 70.22,231.408 C70.22,231.408 46.523,237.58 45.822,252.458 C45.423,260.935 48.134,265.544 50.541,267.944 C51.569,267.8 52.691,267.547 53.948,267.129 C55.117,268.386 56.857,269.28 59.401,269.44 C69.88,270.119 70.22,263.871 70.22,263.871 L70.371,263.54 C71.746,264.147 73.486,264.397 75.691,264.085 C86.625,262.532 83.876,250.25 83.876,250.25 C87.928,251.481 92.65,249.125 92.65,249.125 C94.016,250.633 96.292,251.785 99.648,252.151 C110.02,253.266 116.491,247.018 114.929,242.671 C114.733,242.118 114.492,241.6 114.206,241.109 C114.206,241.109 117.178,243.448 121.026,241.118 C120.749,241.6 120.508,242.118 120.311,242.663 C118.759,247.018 125.22,253.266 135.601,252.151 C138.958,251.785 141.234,250.633 142.599,249.125 C142.599,249.125 151.338,253.49 155.238,247.242 C156.551,245.144 157.042,243.038 156.907,241.109 L156.934,241.109 C156.934,241.109 164.611,233.317 154.792,227.828 C153.168,226.918 151.052,226.64 148.99,226.668 C149.254,226.411 149.505,226.18 149.763,225.933 C149.731,224.256 149.696,207.048 162.007,206.34 C162.007,206.34 156.131,208.349 156.28,213.705 C156.28,213.705 177.261,202.833 180.569,221.88 C180.569,221.881 180.569,221.882 180.569,221.883 C181.092,222.72 181.572,223.56 182.016,224.364 C184.328,228.55 190.317,237.2 201.091,215.438 C211.873,193.686 221.513,196.034 221.513,196.034 C221.513,196.034 223.652,200.298 225.245,192.535 C223.938,186.597 220.656,179.901 212.439,181.05 C212.439,181.05 212.523,178.213 220.775,178.479 L223.33,179.33 L225.318,181.6 L226.104,184.546 L226.258,185.218 C226.647,184.813 229.092,182.168 229.73,178.837 C226.524,174.704 218.749,168.817 202.695,176.017" id="Fill-39" fill="#AB6E63"></path>
        <path d="M187.955,165.826 C188.181,166.228 188.4,166.642 188.611,167.067 M184.356,160.881 C185.051,161.633 185.719,162.444 186.351,163.317 M172.693,153.273 C175.822,154.437 179.398,156.273 182.605,159.157 M168.393,151.972 C169.285,152.182 170.291,152.456 171.37,152.81 M164.387,151.295 C164.387,151.295 165.122,151.344 166.351,151.555 M198.504,163.106 C198.679,163.435 198.851,163.769 199.019,164.109 M196.53,159.817 C196.96,160.457 197.376,161.119 197.777,161.804 M172.543,143.281 C178.98,145.1 188.086,149.029 194.767,157.413 M167.301,142.097 C167.965,142.209 168.739,142.353 169.601,142.543 M164.69,141.756 C164.69,141.756 165.066,141.782 165.744,141.868 M182.294,57.34 C187.259,51.647 194.21,45.392 203.512,40.543 M175.273,66.801 C176.24,65.249 177.443,63.458 178.901,61.524 M172.123,72.559 C172.123,72.559 172.483,71.725 173.246,70.296" id="Stroke-40" stroke="#3D1717" stroke-linecap="round" stroke-linejoin="round"></path>
        <path d="M83.715,133.939 C84.219,133.768 84.723,133.615 85.224,133.481 C82.572,131.294 80.265,133.329 79.247,134.528 C80.327,133.616 81.92,132.861 83.715,133.939" id="Fill-41" fill="#E2DCC0"></path>
        <path d="M82.511,120.628 C82.511,120.628 82.49,120.648 82.456,120.683 C82.74,120.954 83.085,121.258 83.498,121.586 C83.076,121.216 82.748,120.888 82.511,120.628" id="Fill-42" fill="#E2DCC0"></path>
        <path d="M85.973,123.393 C85.663,124.123 83.632,128.538 80.556,126.692 C80.549,126.688 80.543,126.682 80.536,126.678 C80.557,126.702 80.569,126.727 80.591,126.751 C80.743,126.902 80.93,127.054 81.154,127.188 C84.501,129.196 86.616,123.778 86.616,123.778 C86.391,123.649 86.18,123.521 85.973,123.393" id="Fill-43" fill="#E2DCC0"></path>
        <path d="M105.03,127.822 C102.897,127.822 100.933,127.706 99.148,127.501 L99.148,127.509 C99.148,127.509 99.146,127.541 99.143,127.588 C100.688,127.736 102.349,127.822 104.138,127.822 C104.138,127.822 104.8,132.238 101.723,132.655 C101.853,132.672 101.978,132.695 102.12,132.695 C105.771,132.713 105.03,127.822 105.03,127.822" id="Fill-44" fill="#E2DCC0"></path>
        <path d="M136.726,134.007 C138.061,132.846 139.514,133.386 140.612,134.186 C140.71,133.923 140.8,133.662 140.877,133.4 L140.689,133.347 C139.582,132.517 138.092,131.927 136.726,133.115 C135.821,133.902 135.63,134.772 135.77,135.588 C135.867,135.051 136.146,134.512 136.726,134.007" id="Fill-45" fill="#E2DCC0"></path>
        <path d="M127.997,139.167 C130.607,137.884 132.351,141.127 132.83,142.164 C133.189,141.98 133.539,141.795 133.87,141.603 L133.861,141.586 C133.861,141.586 131.978,136.756 128.889,138.274 C128.283,138.573 127.889,138.956 127.645,139.379 C127.758,139.306 127.864,139.232 127.997,139.167" id="Fill-46" fill="#E2DCC0"></path>
        <path d="M118.982,141.362 C121.72,141.134 122.263,144.182 122.372,145.42 C122.694,145.363 123.017,145.306 123.328,145.245 L123.293,145.04 C123.293,145.04 123.301,140.184 119.874,140.469 C118.764,140.562 118.105,141.075 117.719,141.74 C118.058,141.545 118.467,141.405 118.982,141.362" id="Fill-47" fill="#E2DCC0"></path>
        <path d="M110.555,141.549 C110.304,141.54 110.079,141.551 109.869,141.576 C113.061,141.894 112.26,146.325 112.26,146.325 L112.269,146.423 C110.969,146.495 109.719,146.53 108.495,146.545 C108.495,146.546 108.493,146.557 108.493,146.557 C109.993,146.557 111.546,146.512 113.162,146.423 L113.153,146.325 C113.153,146.325 114.001,141.684 110.555,141.549" id="Fill-48" fill="#E2DCC0"></path>
        <path d="M138.074,117.754 C137.998,117.888 137.894,118.05 137.774,118.223 C139.005,119.268 141.563,121.871 139.333,123.948 C138.932,124.322 138.53,124.515 138.134,124.598 C138.805,124.748 139.519,124.607 140.225,123.948 C143.081,121.288 138.074,117.754 138.074,117.754" id="Fill-49" fill="#E2DCC0"></path>
        <path d="M132.487,122.6 L132.406,122.439 C132.182,122.553 131.931,122.669 131.689,122.783 C132.112,123.626 133.682,127.198 130.755,128.634 C130.482,128.767 130.225,128.838 129.974,128.882 C130.476,128.99 131.033,128.935 131.647,128.634 C134.977,127.001 132.487,122.6 132.487,122.6" id="Fill-50" fill="#E2DCC0"></path>
        <path d="M123.944,125.769 L123.873,125.483 C123.6,125.55 123.313,125.616 123.03,125.681 L123.051,125.769 C123.051,125.769 124.649,130.446 121.052,131.071 C121.016,131.077 120.986,131.075 120.95,131.08 C121.251,131.127 121.577,131.134 121.945,131.071 C125.542,130.446 123.944,125.769 123.944,125.769" id="Fill-51" fill="#E2DCC0"></path>
        <path d="M115.045,127.607 L114.974,127.117 C114.688,127.155 114.392,127.19 114.097,127.226 L114.153,127.607 C114.153,127.607 115.209,132.206 111.84,132.652 C112.051,132.686 112.274,132.704 112.519,132.686 C116.161,132.419 115.045,127.607 115.045,127.607" id="Fill-52" fill="#E2DCC0"></path>
        <path d="M94.506,126.72 C94.36,127.508 93.545,131.012 90.579,130.727 C90.463,130.718 90.356,130.7 90.231,130.682 C90.163,130.67 90.11,130.645 90.045,130.629 C90.333,130.824 90.686,130.972 91.124,131.053 C91.249,131.071 91.356,131.088 91.472,131.097 C94.81,131.419 95.426,126.929 95.426,126.929 C95.107,126.865 94.811,126.791 94.506,126.72" id="Fill-53" fill="#E2DCC0"></path>
        <path d="M108.324,142.183 C107.815,139.399 106.298,136.256 102.112,135.89 C100.701,135.766 99.371,135.829 98.104,136.034 C96.836,133.999 94.373,132.927 91.347,132.766 C89.464,132.66 87.375,132.901 85.224,133.481 C83.26,134.007 81.26,134.811 79.315,135.9 C77.548,136.862 75.834,138.073 74.259,139.484 C77.974,137.668 82.36,137.254 84.133,142.332 C84.133,142.332 93.227,140.008 91.79,145.42 C91.054,148.194 91.426,145.876 88.635,153.08 C85.495,161.185 75.26,160.5 73.227,160.336 C74.498,161.161 76.022,161.737 77.824,161.946 C77.976,161.972 78.128,161.99 78.288,161.999 C89.258,162.891 89.669,156.634 90.972,152.957 C91.731,150.82 92.91,148.07 94.705,145.677 L105.035,146.337 L105.03,146.486 C106.146,146.531 107.298,146.557 108.493,146.557 C108.493,146.557 108.761,144.496 108.324,142.183" id="Fill-54" fill="#AE2532"></path>
        <path d="M81.972,120.131 C81.972,120.131 88.666,130.098 112.468,127.57 C136.271,125.041 138.354,117.305 138.354,117.305 M99.152,127.665 C99.152,127.665 98.682,132.834 102.124,132.851 C105.774,132.87 105.03,127.981 105.03,127.981 M95.428,127.086 C95.428,127.086 94.765,131.884 91.121,131.214 C87.476,130.545 89.476,125.316 89.476,125.316 M86.62,123.935 C86.62,123.935 84.501,129.355 81.154,127.346 C77.901,125.395 82.51,120.785 82.51,120.785 M109.161,127.901 C109.161,127.901 109.091,133.089 112.523,132.842 C116.164,132.58 115.046,127.763 115.046,127.763 M118.168,127.141 C118.168,127.141 118.552,131.822 121.943,131.231 C125.54,130.605 123.944,125.924 123.944,125.924 M132.49,122.755 C132.49,122.755 134.977,127.161 131.644,128.794 C128.311,130.426 126.622,124.856 126.622,124.856 M138.075,117.911 C138.075,117.911 143.085,121.45 140.228,124.109 C137.451,126.694 134.554,121.346 134.554,121.346 M80.591,126.905 C77.983,129.587 77.448,132.79 79.309,136.044 M140.228,124.109 C140.228,124.109 149.325,143.301 116.857,146.314 C108.253,147.113 101.121,146.681 95.428,145.468 M108.489,146.719 C108.489,146.719 109.792,136.718 102.112,136.049 C94.431,135.379 86.725,139.028 82.373,144.161 M102.876,141.968 C102.112,141.181 100.307,141.099 98.559,142.186 C94.431,144.753 92.178,149.717 90.972,153.12 C89.671,156.791 89.256,163.05 78.287,162.158 C67.319,161.265 65.645,147.653 73.901,139.955 C82.157,132.255 94.639,130.467 98.104,136.034 M105.092,144.753 C105.092,144.753 104.664,144.199 104.361,143.569 M123.289,145.199 C123.289,145.199 123.303,140.346 119.873,140.63 C116.235,140.932 117.405,145.737 117.405,145.737 M133.861,141.745 C133.861,141.745 131.973,136.911 128.886,138.431 C125.611,140.045 128.46,144.087 128.46,144.087 M137.759,138.849 C137.759,138.849 133.972,135.669 136.725,133.272 C138.09,132.086 139.582,132.679 140.691,133.51 M113.153,146.481 C113.153,146.481 113.998,141.845 110.559,141.709 C109.648,141.672 109.032,141.857 108.573,142.297 M85.223,133.638 C81.656,130.694 79.153,135.28 79.153,135.28" id="Stroke-55" stroke="#3D1717" stroke-linecap="round" stroke-linejoin="round"></path>
        <path d="M132.495,102.586 C134.634,107.58 134.256,112.532 131.653,113.647 C129.049,114.762 125.204,111.618 123.065,106.624 C120.926,101.629 121.303,96.676 123.907,95.561 C126.511,94.446 130.356,97.59 132.495,102.586" id="Fill-56" fill="#3D1717"></path>
        <path d="M135.254,110.379 C134.806,111.898 133.947,113.048 132.712,113.578 C129.605,114.909 125.294,111.8 123.082,106.636 C120.87,101.472 121.596,96.207 124.703,94.876 C126.009,94.317 127.527,94.542 129.013,95.374 M135.592,108.393 C135.575,108.646 135.551,108.894 135.517,109.135 M130.191,96.165 C130.539,96.439 130.882,96.747 131.216,97.083" id="Stroke-57" stroke="#3D1717" stroke-linecap="round" stroke-linejoin="round"></path>
        <path d="M88.965,102.586 C86.826,107.58 87.203,112.532 89.807,113.647 C92.411,114.762 96.256,111.618 98.394,106.624 C100.533,101.629 100.155,96.676 97.552,95.561 C94.948,94.446 91.103,97.59 88.965,102.586" id="Fill-58" fill="#3D1717"></path>
        <path d="M86.205,110.379 C86.653,111.898 87.511,113.048 88.747,113.578 C91.854,114.909 96.166,111.8 98.377,106.636 C100.589,101.472 99.863,96.207 96.756,94.876 C95.45,94.317 93.932,94.542 92.447,95.374 M85.868,108.393 C85.884,108.646 85.908,108.894 85.942,109.135 M91.269,96.165 C90.92,96.439 90.577,96.747 90.243,97.083" id="Stroke-59" stroke="#3D1717" stroke-linecap="round" stroke-linejoin="round"></path>
        <path d="M101.915,112.321 C101.915,112.321 112.18,108.304 119.99,112.321 C119.99,112.321 118.428,117.677 110.953,120.131 C110.953,120.131 103.551,118.124 101.915,112.321" id="Fill-60" fill="#3D1717"></path>
        <path d="M101.469,116.933 C101.469,116.933 106.869,120.299 110.953,120.131 C113.278,120.036 116.55,119.592 119.693,116.933 L101.469,116.933 Z M101.915,112.321 C101.915,112.321 112.18,108.304 119.99,112.321 C119.99,112.321 118.428,117.677 110.953,120.131 C110.953,120.131 103.551,118.124 101.915,112.321 Z M116.343,86.213 C116.953,86.365 117.562,86.538 118.168,86.734 L116.343,86.213 Z M111.565,85.419 C111.934,85.453 112.304,85.492 112.676,85.538 L111.565,85.419 Z M122.659,86.064 C122.659,86.064 114.514,76.916 103.357,76.916 C103.357,76.916 107.15,77.585 108.489,80.04 C108.489,80.04 102.053,76.803 91.269,81.49 C91.269,81.49 99.494,81.936 102.876,83.61 C102.876,83.61 96.833,83.944 93.679,87.738 C93.679,87.738 101.291,84.873 110.169,85.322 L122.659,86.064 Z M68.706,85.419 C68.706,85.419 66.091,83.784 63.413,85.538 C60.736,87.292 72.897,91.419 72.897,91.419 C72.897,91.419 70.082,92.654 66.537,92.982 C60.512,93.54 76.133,98.114 76.133,98.114 C76.133,98.114 74.682,99.732 70.108,99.788 C66.448,99.833 79.398,102.689 79.398,102.689 C79.398,102.689 76.411,108.393 71.213,106.148 L68.706,85.419 Z M93.679,80.544 C93.679,80.544 82.188,71.894 66.314,72.453 C53.038,72.918 54.599,68.659 54.599,68.659 L93.679,80.544 Z M60.01,72.238 C60.01,72.238 53.706,70.555 50.471,73.345 C50.471,73.345 38.979,90.355 69.215,113.872 C69.215,113.872 67.207,118.909 60.512,120.785 C60.512,120.785 61.628,121.879 69.215,119.425 C69.215,119.425 67.541,125.115 60.066,127.793 C60.066,127.793 63.748,129.746 69.215,127.981 C69.215,127.981 60.401,130.917 61.405,142.632 C61.405,142.632 68.407,135.369 74.111,136.044 C74.111,136.044 71.112,148.546 59.954,153.901 L60.01,72.238 Z M74.111,136.044 C74.111,136.044 67.932,145.898 62.409,146.719 L74.111,136.044 Z M69.104,119.738 C69.104,119.738 64.138,125.059 56.775,124.837 L69.104,119.738 Z M150.887,77.919 C150.887,77.919 153.007,74.572 160.594,76.916 C160.594,76.916 154.235,76.469 146.201,84.725 C146.201,84.725 164.164,78.142 148.432,87.738 L150.887,77.919 Z M150.861,86.213 C150.861,86.213 172.421,82.878 147.428,94.569 L150.861,86.213 Z M152.276,92.193 C152.276,92.193 161.822,96.217 146.201,99.341 C146.201,99.341 159.634,100.035 144.081,102.13 L152.276,92.193 Z M121.219,84.654 C121.219,84.654 140.127,60.535 160.581,66.279 C163.785,67.178 169.73,67.468 161.994,79.518 C161.994,79.518 175.381,86.957 155.15,111.206 C155.15,111.206 157.59,116.859 166.337,116.413 L121.219,84.654 Z M155.163,111.206 C155.163,111.206 155.313,119.846 167.511,120.137 C167.511,120.137 164.983,124.379 156.652,121.363 C156.652,121.363 176.498,131.501 156.652,127.793 C156.652,127.793 162.453,137.187 172.123,135.28 L155.163,111.206 Z M156.652,127.793 C156.652,127.793 166.917,142.896 158.883,141.704 C158.883,141.704 166.544,156.763 149.622,145.737 C149.622,145.737 147.788,154.05 140.691,150.777 C140.691,150.777 131.957,154.199 136.42,148.992 C136.42,148.992 130.699,154.199 127.311,152.86 L156.652,127.793 Z M90.972,153.12 C90.972,153.12 105.049,158.804 101.469,153.08 C101.469,153.08 110.926,158.707 108.573,155.634 L90.972,153.12 Z M84.724,171.604 C84.724,171.604 78.783,182.718 85.791,191.948 C91.89,199.981 97.532,196.952 97.532,196.952 L84.724,171.604 Z M95.428,191.39 C95.428,191.39 98.757,205.225 115.208,207.159 L95.428,191.39 Z M112.282,203.329 C112.282,203.329 123.105,212.701 112.282,217.386 C112.282,217.386 125.56,217.014 132.143,207.159 C138.726,197.303 132.143,190.609 132.143,190.609 L112.282,203.329 Z M134.603,201.908 C134.603,201.908 143.523,194.737 137.833,178.782 L134.603,201.908 Z M140.511,172.645 C140.511,172.645 143.858,176.885 142.073,183.133 L140.511,172.645 Z M142.597,163.608 C142.597,163.608 144.738,165.171 144.633,168.406 L142.597,163.608 Z M139.731,191.39 C139.731,191.39 142.82,193.733 141.554,197.973 C141.554,197.973 150.106,191.167 148.209,171.865 C148.209,171.865 151.11,175.435 150.441,178.782 C150.441,178.782 159.19,161.526 147.34,150.014 L139.731,191.39 Z M124.556,217.945 C124.556,217.945 128.262,225.079 123.676,238.025 L124.556,217.945 Z M126.452,235.908 C126.452,235.908 121.878,238.474 120.316,242.826 C118.754,247.176 125.225,253.425 135.601,252.309 C145.978,251.194 146.09,242.491 140.511,239.143 L126.452,235.908 Z M142.597,249.282 C142.597,249.282 151.333,253.648 155.238,247.4 C159.144,241.152 155.797,234.904 150.441,233.119 L142.597,249.282 Z M156.937,241.263 C156.937,241.263 164.614,233.471 154.792,227.985 C150.106,225.367 141.399,227.985 141.399,227.985 L156.937,241.263 Z M139.731,200.985 C139.731,200.985 134.53,216.606 142.597,230.217 L139.731,200.985 Z M110.692,217.945 C110.692,217.945 106.985,225.079 111.572,238.025 L110.692,217.945 Z M108.795,235.908 C108.795,235.908 113.369,238.474 114.931,242.826 C116.493,247.176 110.022,253.425 99.646,252.309 C89.269,251.194 89.158,242.491 94.737,239.143 L108.795,235.908 Z M92.65,249.282 C92.65,249.282 83.914,253.648 80.009,247.4 C76.104,241.152 79.451,234.904 84.806,233.119 L92.65,249.282 Z M78.311,241.263 C78.311,241.263 70.632,233.471 80.455,227.985 C85.141,225.367 93.849,227.985 93.849,227.985 L78.311,241.263 Z M95.516,200.985 C95.516,200.985 100.717,216.606 92.65,230.217 L95.516,200.985 Z M77.806,162.244 C77.806,162.244 79.591,174.543 70.22,178.448 C70.22,178.448 75.691,178.559 78.311,175.546 C78.311,175.546 70.612,183.245 74.265,190.609 C74.265,190.609 75.021,185.811 78.311,184.137 C78.311,184.137 70.777,201.878 80.93,207.679 L77.806,162.244 Z M75.687,198.42 C75.687,198.42 66.649,190.832 57.277,194.848 L64.529,199.275 C64.529,199.275 52.144,202.741 47.57,197.511 L75.687,198.42 Z" id="Stroke-61" stroke="#3D1717" stroke-linecap="round" stroke-linejoin="round"></path>
        <path d="M57.053,200.401 C57.053,200.401 47.012,199.87 38.979,207.679 C38.979,207.679 46.184,209.464 48.327,207.679 C48.327,207.679 36.189,213.816 38.979,220.957 M43.748,210.675 C43.748,210.675 37.528,221.627 49.69,228.99 C61.851,236.354 74.571,231.222 74.571,231.222 M62.298,232.962 C62.298,232.962 48.574,235.908 42.772,245.95 C39.339,251.892 39.248,259.657 41.043,263.188 C42.562,266.175 45.581,270.079 53.949,267.29 M70.22,264.025 C70.22,264.025 69.885,270.273 59.397,269.603 C48.909,268.934 52.144,255.879 52.144,255.879 M65.199,253.425 C65.199,253.425 64.753,265.809 75.687,264.248 C86.621,262.685 83.878,250.405 83.878,250.405 M152.799,171.807 C152.799,171.807 159.005,183.133 153.551,193.287 M155.794,186.257 C155.794,186.257 160.512,187.82 152.799,199.87 M155.794,183.133 C155.794,183.133 158.921,175.212 164.387,173.204 C164.387,173.204 162.425,176.125 163.094,180.365 M159.793,186.704 C159.793,186.704 163.495,173.65 176.995,172.645 M164.969,178.169 C164.969,178.169 176.14,171.939 183.876,178.169 C183.876,178.169 179.19,177.183 176.995,178.782 C176.995,178.782 188.041,179.563 190.422,193.063 M209.738,167.265 C209.738,167.265 200.835,164.721 195.926,171.807 C191.016,178.894 189.677,200.985 189.677,200.985 M204.257,170.414 C204.257,170.414 211.546,162.678 223.745,169.224 C235.944,175.769 226.199,185.439 226.199,185.439 M148.988,226.828 C170.52,205.808 177.765,216.836 182.016,224.527 C184.325,228.705 190.322,237.358 201.095,215.601 C211.869,193.844 221.513,196.188 221.513,196.188 C221.513,196.188 224.414,201.99 225.976,187.82 C227.538,173.65 213.592,179.674 213.592,179.674 M114.21,241.263 C114.21,241.263 117.184,243.606 121.037,241.263" id="Stroke-62" stroke="#3D1717" stroke-linecap="round" stroke-linejoin="round"></path>
    </g>
</svg>