<?xml version="1.0" encoding="UTF-8"?>
<svg width="318px" height="298px" viewBox="0 0 318 298" version="1.1" xmlns="http://www.w3.org/2000/svg" xmlns:xlink="http://www.w3.org/1999/xlink">
    <!-- Generator: Sketch 50.2 (55047) - http://www.bohemiancoding.com/sketch -->
    <title>WeHo Logo</title>
    <desc>Created with Sketch.</desc>
    <defs>
        <polygon id="path-1" points="0 286.733675 308.90058 286.733675 308.90058 0 0 0"></polygon>
        <polygon id="path-3" points="0 286.733675 308.90058 286.733675 308.90058 0 0 0"></polygon>
        <polygon id="path-5" points="0 286.733675 308.90058 286.733675 308.90058 0 0 0"></polygon>
        <polygon id="path-7" points="0 286.733675 308.90058 286.733675 308.90058 0 0 0"></polygon>
        <polygon id="path-9" points="0 286.733675 308.90058 286.733675 308.90058 0 0 0"></polygon>
        <polygon id="path-11" points="0 286.733675 308.90058 286.733675 308.90058 0 0 0"></polygon>
        <polygon id="path-13" points="0 286.733675 308.90058 286.733675 308.90058 0 0 0"></polygon>
        <polygon id="path-15" points="0 286.733675 308.90058 286.733675 308.90058 0 0 0"></polygon>
        <polygon id="path-17" points="0 286.733675 308.90058 286.733675 308.90058 0 0 0"></polygon>
        <polygon id="path-19" points="0 286.733675 308.90058 286.733675 308.90058 0 0 0"></polygon>
        <polygon id="path-21" points="0 286.733675 308.90058 286.733675 308.90058 0 0 0"></polygon>
        <polygon id="path-23" points="0 286.733675 308.90058 286.733675 308.90058 0 0 0"></polygon>
        <polygon id="path-25" points="0 286.733675 308.90058 286.733675 308.90058 0 0 0"></polygon>
        <polygon id="path-27" points="0 286.733675 308.90058 286.733675 308.90058 0 0 0"></polygon>
        <polygon id="path-29" points="0 286.733675 308.90058 286.733675 308.90058 0 0 0"></polygon>
        <polygon id="path-31" points="0 286.733675 308.90058 286.733675 308.90058 0 0 0"></polygon>
        <polygon id="path-33" points="0 286.733675 308.90058 286.733675 308.90058 0 0 0"></polygon>
        <polygon id="path-35" points="0 286.733675 308.90058 286.733675 308.90058 0 0 0"></polygon>
        <polygon id="path-37" points="0 286.733675 308.90058 286.733675 308.90058 0 0 0"></polygon>
        <polygon id="path-39" points="0 286.733675 308.90058 286.733675 308.90058 0 0 0"></polygon>
        <polygon id="path-41" points="0 286.733675 308.90058 286.733675 308.90058 0 0 0"></polygon>
        <polygon id="path-43" points="0 286.733675 308.90058 286.733675 308.90058 0 0 0"></polygon>
        <polygon id="path-45" points="0 286.733675 308.90058 286.733675 308.90058 0 0 0"></polygon>
        <polygon id="path-47" points="0 286.733675 308.90058 286.733675 308.90058 0 0 0"></polygon>
        <polygon id="path-49" points="0 286.733675 308.90058 286.733675 308.90058 0 0 0"></polygon>
        <polygon id="path-51" points="0 286.733675 308.90058 286.733675 308.90058 0 0 0"></polygon>
        <polygon id="path-53" points="0 286.733675 308.90058 286.733675 308.90058 0 0 0"></polygon>
        <polygon id="path-55" points="0 286.733675 308.90058 286.733675 308.90058 0 0 0"></polygon>
        <polygon id="path-57" points="0 286.733675 308.90058 286.733675 308.90058 0 0 0"></polygon>
        <polygon id="path-59" points="0 286.733675 308.90058 286.733675 308.90058 0 0 0"></polygon>
        <polygon id="path-61" points="0 286.733675 308.90058 286.733675 308.90058 0 0 0"></polygon>
        <polygon id="path-63" points="0 286.733675 308.90058 286.733675 308.90058 0 0 0"></polygon>
        <polygon id="path-65" points="0 286.733675 308.90058 286.733675 308.90058 0 0 0"></polygon>
        <polygon id="path-67" points="0 286.733675 308.90058 286.733675 308.90058 0 0 0"></polygon>
        <polygon id="path-69" points="0 286.733675 308.90058 286.733675 308.90058 0 0 0"></polygon>
        <polygon id="path-71" points="0 286.733675 308.90058 286.733675 308.90058 0 0 0"></polygon>
        <polygon id="path-73" points="0 286.733675 308.90058 286.733675 308.90058 0 0 0"></polygon>
    </defs>
    <g id="WeHo-Logo" stroke="none" stroke-width="1" fill="none" fill-rule="evenodd">
        <g id="Logo---City-of-West-Hollywood" transform="translate(4.000000, 6.000000)">
            <g id="Group-75">
                <g id="Fill-37-Clipped">
                    <mask id="mask-2" fill="white">
                        <use xlink:href="#path-1"></use>
                    </mask>
                    <g id="path-1"></g>
                    <polygon id="Fill-37" fill="#FEFEFE" fill-rule="nonzero" mask="url(#mask-2)" points="53.221476 133.950296 69.6898998 133.950296 69.6898998 117.47135 53.221476 117.47135"></polygon>
                </g>
                <g id="Fill-38-Clipped">
                    <mask id="mask-4" fill="white">
                        <use xlink:href="#path-3"></use>
                    </mask>
                    <g id="path-1"></g>
                    <polygon id="Fill-38" fill="#FEFEFE" fill-rule="nonzero" mask="url(#mask-4)" points="53.1694829 154.385368 69.637907 154.385368 69.637907 137.906421 53.1694829 137.906421"></polygon>
                </g>
                <g id="Fill-39-Clipped">
                    <mask id="mask-6" fill="white">
                        <use xlink:href="#path-5"></use>
                    </mask>
                    <g id="path-1"></g>
                    <polygon id="Fill-39" fill="#FEFEFE" fill-rule="nonzero" mask="url(#mask-6)" points="73.402118 154.385368 89.8705418 154.385368 89.8705418 137.906421 73.402118 137.906421"></polygon>
                </g>
                <g id="Fill-40-Clipped">
                    <mask id="mask-8" fill="white">
                        <use xlink:href="#path-7"></use>
                    </mask>
                    <g id="path-1"></g>
                    <polygon id="Fill-40" fill="#FEFEFE" fill-rule="nonzero" mask="url(#mask-8)" points="73.402118 134.375218 89.8705418 134.375218 89.8705418 117.896271 73.402118 117.896271"></polygon>
                </g>
                <g id="Fill-41-Clipped">
                    <mask id="mask-10" fill="white">
                        <use xlink:href="#path-9"></use>
                    </mask>
                    <g id="path-1"></g>
                    <polygon id="Fill-41" fill="#FEFEFE" fill-rule="nonzero" mask="url(#mask-10)" points="93.8700163 94.1654105 110.33844 94.1654105 110.33844 77.6864638 93.8700163 77.6864638"></polygon>
                </g>
                <g id="Fill-42-Clipped">
                    <mask id="mask-12" fill="white">
                        <use xlink:href="#path-11"></use>
                    </mask>
                    <g id="path-1"></g>
                    <polygon id="Fill-42" fill="#FEFEFE" fill-rule="nonzero" mask="url(#mask-12)" points="93.8182583 114.364833 110.286682 114.364833 110.286682 97.885886 93.8182583 97.885886"></polygon>
                </g>
                <g id="Fill-43-Clipped">
                    <mask id="mask-14" fill="white">
                        <use xlink:href="#path-13"></use>
                    </mask>
                    <g id="path-1"></g>
                    <polygon id="Fill-43" fill="#FEFEFE" fill-rule="nonzero" mask="url(#mask-14)" points="114.050894 93.8838559 130.519317 93.8838559 130.519317 77.4049092 114.050894 77.4049092"></polygon>
                </g>
                <g id="Fill-44-Clipped">
                    <mask id="mask-16" fill="white">
                        <use xlink:href="#path-15"></use>
                    </mask>
                    <g id="path-1"></g>
                    <polygon id="Fill-44" fill="#FEFEFE" fill-rule="nonzero" mask="url(#mask-16)" points="93.6867461 134.421124 110.15517 134.421124 110.15517 117.942177 93.6867461 117.942177"></polygon>
                </g>
                <g id="Fill-45-Clipped">
                    <mask id="mask-18" fill="white">
                        <use xlink:href="#path-17"></use>
                    </mask>
                    <g id="path-1"></g>
                    <polygon id="Fill-45" fill="#FEFEFE" fill-rule="nonzero" mask="url(#mask-18)" points="93.6347528 154.385368 110.103177 154.385368 110.103177 137.906421 93.6347528 137.906421"></polygon>
                </g>
                <g id="Fill-46-Clipped">
                    <mask id="mask-20" fill="white">
                        <use xlink:href="#path-19"></use>
                    </mask>
                    <g id="path-1"></g>
                    <polygon id="Fill-46" fill="#FEFEFE" fill-rule="nonzero" mask="url(#mask-20)" points="154.516164 94.354683 170.984587 94.354683 170.984587 77.8757364 154.516164 77.8757364"></polygon>
                </g>
                <g id="Fill-47-Clipped">
                    <mask id="mask-22" fill="white">
                        <use xlink:href="#path-21"></use>
                    </mask>
                    <g id="path-1"></g>
                    <polygon id="Fill-47" fill="#FEFEFE" fill-rule="nonzero" mask="url(#mask-22)" points="174.800556 94.1654105 191.26898 94.1654105 191.26898 77.6864638 174.800556 77.6864638"></polygon>
                </g>
                <g id="Fill-48-Clipped">
                    <mask id="mask-24" fill="white">
                        <use xlink:href="#path-23"></use>
                    </mask>
                    <g id="path-1"></g>
                    <polygon id="Fill-48" fill="#FEFEFE" fill-rule="nonzero" mask="url(#mask-24)" points="174.748563 113.940147 191.216987 113.940147 191.216987 97.4612002 174.748563 97.4612002"></polygon>
                </g>
                <g id="Fill-49-Clipped">
                    <mask id="mask-26" fill="white">
                        <use xlink:href="#path-25"></use>
                    </mask>
                    <g id="path-1"></g>
                    <polygon id="Fill-49" fill="#FEFEFE" fill-rule="nonzero" mask="url(#mask-26)" points="194.745935 113.940147 211.214359 113.940147 211.214359 97.4612002 194.745935 97.4612002"></polygon>
                </g>
                <g id="Fill-50-Clipped">
                    <mask id="mask-28" fill="white">
                        <use xlink:href="#path-27"></use>
                    </mask>
                    <g id="path-1"></g>
                    <polygon id="Fill-50" fill="#FEFEFE" fill-rule="nonzero" mask="url(#mask-28)" points="194.745935 94.354683 211.214359 94.354683 211.214359 77.8757364 194.745935 77.8757364"></polygon>
                </g>
                <g id="Fill-51-Clipped">
                    <mask id="mask-30" fill="white">
                        <use xlink:href="#path-29"></use>
                    </mask>
                    <g id="path-1"></g>
                    <polygon id="Fill-51" fill="#FEFEFE" fill-rule="nonzero" mask="url(#mask-30)" points="214.97857 93.8838559 231.446994 93.8838559 231.446994 77.4049092 214.97857 77.4049092"></polygon>
                </g>
                <g id="Fill-52-Clipped">
                    <mask id="mask-32" fill="white">
                        <use xlink:href="#path-31"></use>
                    </mask>
                    <g id="path-1"></g>
                    <polygon id="Fill-52" fill="#FEFEFE" fill-rule="nonzero" mask="url(#mask-32)" points="235.263199 93.9299972 251.731623 93.9299972 251.731623 77.4510499 235.263199 77.4510499"></polygon>
                </g>
                <g id="Fill-53-Clipped">
                    <mask id="mask-34" fill="white">
                        <use xlink:href="#path-33"></use>
                    </mask>
                    <g id="path-1"></g>
                    <polygon id="Fill-53" fill="#FEFEFE" fill-rule="nonzero" mask="url(#mask-34)" points="255.44384 94.1192697 271.912265 94.1192697 271.912265 77.6403225 255.44384 77.6403225"></polygon>
                </g>
                <g id="Fill-54-Clipped">
                    <mask id="mask-36" fill="white">
                        <use xlink:href="#path-35"></use>
                    </mask>
                    <g id="path-1"></g>
                    <polygon id="Fill-54" fill="#FEFEFE" fill-rule="nonzero" mask="url(#mask-36)" points="134.152016 53.7201897 150.62044 53.7201897 150.62044 37.2412429 134.152016 37.2412429"></polygon>
                </g>
                <g id="Fill-55-Clipped">
                    <mask id="mask-38" fill="white">
                        <use xlink:href="#path-37"></use>
                    </mask>
                    <g id="path-1"></g>
                    <polygon id="Fill-55" fill="#FEFEFE" fill-rule="nonzero" mask="url(#mask-38)" points="174.800556 73.6844337 191.26898 73.6844337 191.26898 57.2054869 174.800556 57.2054869"></polygon>
                </g>
                <g id="Fill-56-Clipped">
                    <mask id="mask-40" fill="white">
                        <use xlink:href="#path-39"></use>
                    </mask>
                    <g id="path-1"></g>
                    <polygon id="Fill-56" fill="#FEFEFE" fill-rule="nonzero" mask="url(#mask-40)" points="195.033192 73.6844337 211.501615 73.6844337 211.501615 57.2054869 195.033192 57.2054869"></polygon>
                </g>
                <g id="Fill-57-Clipped">
                    <mask id="mask-42" fill="white">
                        <use xlink:href="#path-41"></use>
                    </mask>
                    <g id="path-1"></g>
                    <polygon id="Fill-57" fill="#FEFEFE" fill-rule="nonzero" mask="url(#mask-42)" points="154.332658 53.674284 170.801082 53.674284 170.801082 37.1953372 154.332658 37.1953372"></polygon>
                </g>
                <g id="Fill-58-Clipped">
                    <mask id="mask-44" fill="white">
                        <use xlink:href="#path-43"></use>
                    </mask>
                    <g id="path-1"></g>
                    <polygon id="Fill-58" fill="#FEFEFE" fill-rule="nonzero" mask="url(#mask-44)" points="215.030564 73.6844337 231.498987 73.6844337 231.498987 57.2054869 215.030564 57.2054869"></polygon>
                </g>
                <g id="Fill-59-Clipped">
                    <mask id="mask-46" fill="white">
                        <use xlink:href="#path-45"></use>
                    </mask>
                    <g id="path-1"></g>
                    <polygon id="Fill-59" fill="#FEFEFE" fill-rule="nonzero" mask="url(#mask-46)" points="235.263199 73.6844337 251.731623 73.6844337 251.731623 57.2054869 235.263199 57.2054869"></polygon>
                </g>
                <g id="Fill-60-Clipped">
                    <mask id="mask-48" fill="white">
                        <use xlink:href="#path-47"></use>
                    </mask>
                    <g id="path-1"></g>
                    <polygon id="Fill-60" fill="#FEFEFE" fill-rule="nonzero" mask="url(#mask-48)" points="255.495834 73.6844337 271.964257 73.6844337 271.964257 57.2054869 255.495834 57.2054869"></polygon>
                </g>
                <g id="Fill-61-Clipped">
                    <mask id="mask-50" fill="white">
                        <use xlink:href="#path-49"></use>
                    </mask>
                    <g id="path-1"></g>
                    <polygon id="Fill-61" fill="#FEFEFE" fill-rule="nonzero" mask="url(#mask-50)" points="53.221476 174.722742 69.6898998 174.722742 69.6898998 158.243795 53.221476 158.243795"></polygon>
                </g>
                <g id="Fill-62-Clipped">
                    <mask id="mask-52" fill="white">
                        <use xlink:href="#path-51"></use>
                    </mask>
                    <g id="path-1"></g>
                    <polygon id="Fill-62" fill="#FEFEFE" fill-rule="nonzero" mask="url(#mask-52)" points="73.402118 174.676837 89.8705418 174.676837 89.8705418 158.19789 73.402118 158.19789"></polygon>
                </g>
                <g id="Fill-63-Clipped">
                    <mask id="mask-54" fill="white">
                        <use xlink:href="#path-53"></use>
                    </mask>
                    <g id="path-1"></g>
                    <polygon id="Fill-63" fill="#FEFEFE" fill-rule="nonzero" mask="url(#mask-54)" points="93.3994898 174.676837 109.867914 174.676837 109.867914 158.19789 93.3994898 158.19789"></polygon>
                </g>
                <g id="Fill-64-Clipped">
                    <mask id="mask-56" fill="white">
                        <use xlink:href="#path-55"></use>
                    </mask>
                    <g id="path-1"></g>
                    <polygon id="Fill-64" fill="#FEFEFE" fill-rule="nonzero" mask="url(#mask-56)" points="113.632125 154.431273 130.100549 154.431273 130.100549 137.952327 113.632125 137.952327"></polygon>
                </g>
                <g id="Fill-65-Clipped">
                    <mask id="mask-58" fill="white">
                        <use xlink:href="#path-57"></use>
                    </mask>
                    <g id="path-1"></g>
                    <polygon id="Fill-65" fill="#FEFEFE" fill-rule="nonzero" mask="url(#mask-58)" points="113.867388 73.6844337 130.335812 73.6844337 130.335812 57.2054869 113.867388 57.2054869"></polygon>
                </g>
                <g id="Fill-66-Clipped">
                    <mask id="mask-60" fill="white">
                        <use xlink:href="#path-59"></use>
                    </mask>
                    <g id="path-1"></g>
                    <polygon id="Fill-66" fill="#FEFEFE" fill-rule="nonzero" mask="url(#mask-60)" points="134.335286 113.940147 150.80371 113.940147 150.80371 97.4612002 134.335286 97.4612002"></polygon>
                </g>
                <g id="Fill-67-Clipped">
                    <mask id="mask-62" fill="white">
                        <use xlink:href="#path-61"></use>
                    </mask>
                    <g id="path-1"></g>
                    <polygon id="Fill-67" fill="#FEFEFE" fill-rule="nonzero" mask="url(#mask-62)" points="134.335286 93.9299972 150.80371 93.9299972 150.80371 77.4510499 134.335286 77.4510499"></polygon>
                </g>
                <g id="Fill-68-Clipped">
                    <mask id="mask-64" fill="white">
                        <use xlink:href="#path-63"></use>
                    </mask>
                    <g id="path-1"></g>
                    <polygon id="Fill-68" fill="#FEFEFE" fill-rule="nonzero" mask="url(#mask-64)" points="134.335286 73.6844337 150.80371 73.6844337 150.80371 57.2054869 134.335286 57.2054869"></polygon>
                </g>
                <g id="Fill-69-Clipped">
                    <mask id="mask-66" fill="white">
                        <use xlink:href="#path-65"></use>
                    </mask>
                    <g id="path-1"></g>
                    <polygon id="Fill-69" fill="#FEFEFE" fill-rule="nonzero" mask="url(#mask-66)" points="154.567922 73.6844337 171.036345 73.6844337 171.036345 57.2054869 154.567922 57.2054869"></polygon>
                </g>
                <g id="Fill-70-Clipped">
                    <mask id="mask-68" fill="white">
                        <use xlink:href="#path-67"></use>
                    </mask>
                    <g id="path-1"></g>
                    <polygon id="Fill-70" fill="#FEFEFE" fill-rule="nonzero" mask="url(#mask-68)" points="33.3287963 94.2438033 49.7972202 94.2438033 49.7972202 77.7648566 33.3287963 77.7648566"></polygon>
                </g>
                <g id="Fill-71-Clipped">
                    <mask id="mask-70" fill="white">
                        <use xlink:href="#path-69"></use>
                    </mask>
                    <g id="path-1"></g>
                    <polygon id="Fill-71" fill="#FEFEFE" fill-rule="nonzero" mask="url(#mask-70)" points="53.3264034 94.2438033 69.7948272 94.2438033 69.7948272 77.7648566 53.3264034 77.7648566"></polygon>
                </g>
                <g id="Fill-72-Clipped">
                    <mask id="mask-72" fill="white">
                        <use xlink:href="#path-71"></use>
                    </mask>
                    <g id="path-1"></g>
                    <polygon id="Fill-72" fill="#FEFEFE" fill-rule="nonzero" mask="url(#mask-72)" points="53.2744102 114.443461 69.7428339 114.443461 69.7428339 97.9645143 53.2744102 97.9645143"></polygon>
                </g>
                <g id="Fill-73-Clipped">
                    <mask id="mask-74" fill="white">
                        <use xlink:href="#path-73"></use>
                    </mask>
                    <g id="path-1"></g>
                    <polygon id="Fill-73" fill="#FEFEFE" fill-rule="nonzero" mask="url(#mask-74)" points="73.5070455 114.443461 89.9754692 114.443461 89.9754692 97.9645143 73.5070455 97.9645143"></polygon>
                </g>
                <g id="Fill-74-Clipped" transform="translate(73.000000, 77.000000)" fill="#FEFEFE" fill-rule="nonzero">
                    <polygon id="Fill-74" points="0.507045502 16.9624841 16.9754692 16.9624841 16.9754692 0.48353748 0.507045502 0.48353748"></polygon>
                </g>
            </g>
        </g>
    </g>
</svg>