<?xml version="1.0" encoding="UTF-8"?>
<svg width="298px" height="298px" viewBox="0 0 298 298" version="1.1" xmlns="http://www.w3.org/2000/svg" xmlns:xlink="http://www.w3.org/1999/xlink">
    <!-- Generator: Sketch 50.2 (55047) - http://www.bohemiancoding.com/sketch -->
    <title>white raven</title>
    <desc>Created with Sketch.</desc>
    <defs>
        <polygon id="path-1" points="0.06 0.362 297.638 0.362 297.638 297.999 0.06 297.999"></polygon>
    </defs>
    <g id="white-raven" stroke="none" stroke-width="1" fill="none" fill-rule="evenodd">
        <g id="Group-3">
            <mask id="mask-2" fill="white">
                <use xlink:href="#path-1"></use>
            </mask>
            <g id="Clip-2"></g>
        </g>
        <path d="M87.994,32.521 C79.799,35.485 65.517,41.896 65.291,58.972 C65.065,76.047 77.474,90.152 95.529,85.892 C113.584,81.633 128.614,62.865 129.583,51.034 C130.207,43.408 122.308,20.112 87.994,32.521" id="Fill-4" fill="#FFFFFE"></path>
        <path d="M197.939,219.15 C197.939,219.15 215.463,170.521 194.053,116.241 C185.4,94.304 175.959,86.211 167.223,85.923 C167.223,85.923 153.509,62.911 133.741,80.657 C127.969,85.838 126.77,91.509 127.687,97.047 L127.682,97.046 L127.592,97.8 C127.153,98.063 125.761,98.893 121.338,101.534 C113.049,106.483 111.767,114.023 111.767,114.023 C117.481,108.41 124.972,105.353 129.656,103.871 L130.181,104.917 C130.182,104.918 130.182,104.919 130.183,104.92 L130.604,105.901 C121.498,114.955 118.119,123.891 118.119,123.891 L133.64,111.03 L137.989,116.155 C137.979,116.184 137.973,116.212 137.963,116.241 C129.519,140.064 166.611,242.291 179.276,222.691 C180.916,220.153 182.069,216.654 182.836,212.487 L192.243,241.689 C199.045,263.662 199.548,246.091 197.938,219.148 L197.939,219.15" id="Fill-5" fill="#FFFFFE"></path>
        <path d="M177.207,134.117 C177.207,134.117 182.532,161.401 183.79,185.152 C185.048,208.903 189.058,170.191 184.565,152.756 C180.072,135.323 177.207,134.117 177.207,134.117" id="Fill-6" fill="#F3E8E2"></path>
        <path d="M190.665,137.76 L198.001,220.217 C198.001,220.217 200.654,136.578 190.665,137.76" id="Fill-7" fill="#F3E8E2"></path>
        <path d="M184.053,191.827 L183.842,204.025 L183.452,207.218 C183.452,207.218 177.057,215.009 158.229,162.781 C139.402,110.553 158.229,88.799 158.229,88.799 L154.772,90.64 L149.105,96.241 L144.097,103.47 L144.471,102.693 C131.492,96 134.786,79.767 134.788,79.753 C134.441,80.042 134.092,80.341 133.741,80.657 C127.969,85.838 126.77,91.509 127.687,97.047 L127.682,97.046 L127.592,97.8 C127.343,97.95 126.786,98.282 125.543,99.023 C119.498,103.429 111.871,113.609 111.852,113.634 C111.792,113.879 111.767,114.023 111.767,114.023 C117.481,108.41 124.972,105.353 129.656,103.871 L130.181,104.917 C130.182,104.918 130.182,104.919 130.183,104.92 L130.604,105.901 C126.098,110.381 122.996,114.831 121.01,118.186 C128.708,111.052 138.909,102.024 120.642,121.801 L133.64,111.03 L137.989,116.155 C137.983,116.173 137.978,116.191 137.973,116.208 C137.97,116.219 137.967,116.23 137.963,116.241 C129.519,140.064 166.611,242.291 179.276,222.691 C180.916,220.153 182.069,216.654 182.836,212.487 L192.243,241.689 C196.584,255.713 198.359,253.627 198.657,243.28 C195.141,254.894 184.053,191.827 184.053,191.827" id="Fill-8" fill="#F3E8E2"></path>
        <path d="M144.898,93.623 C142.733,93.623 140.979,91.868 140.979,89.703 C140.979,88.852 141.257,88.07 141.718,87.427 C140.726,88.139 140.074,89.294 140.074,90.609 C140.074,92.774 141.829,94.529 143.994,94.529 C145.308,94.529 146.464,93.876 147.175,92.884 C146.532,93.345 145.75,93.623 144.898,93.623" id="Fill-9" fill="#F3E8E2"></path>
        <path d="M175.479,225.67 C174.696,225.67 173.87,225.459 173.007,225.035 C167.468,222.31 157.214,207.696 146.548,175.476 C139.84,155.213 133.442,127.497 137.491,116.074 C142.671,101.461 153.947,85.633 166.468,85.413 C166.561,85.411 166.653,85.411 166.745,85.411 C177.153,85.411 186.495,95.719 194.518,116.057 C215.752,169.89 198.585,218.831 198.409,219.32 C198.314,219.578 198.03,219.71 197.769,219.62 C197.509,219.527 197.375,219.24 197.468,218.98 C197.643,218.495 214.678,169.894 193.588,116.424 C185.84,96.782 176.557,86.411 166.73,86.411 C166.648,86.411 166.567,86.411 166.485,86.413 C154.441,86.624 143.502,102.11 138.435,116.408 C135.171,125.614 138.729,148.676 147.497,175.161 C156.062,201.034 166.491,220.715 173.448,224.137 C175.643,225.217 177.411,224.655 178.856,222.419 C183.667,214.976 184.838,198.326 182.337,172.931 C182.311,172.657 182.511,172.411 182.786,172.384 C183.06,172.371 183.307,172.558 183.333,172.833 C185.855,198.457 184.632,215.324 179.696,222.962 C178.535,224.759 177.104,225.67 175.479,225.67" id="Fill-10" fill="#3D1717"></path>
        <path d="M182.168,167.178 C181.918,167.178 181.702,166.991 181.672,166.736 C181.542,165.605 181.406,164.483 181.268,163.369 C181.233,163.095 181.428,162.845 181.702,162.811 C181.97,162.774 182.226,162.971 182.26,163.245 C182.398,164.362 182.534,165.488 182.666,166.62 C182.697,166.895 182.501,167.143 182.227,167.175 C182.207,167.177 182.188,167.178 182.168,167.178" id="Fill-11" fill="#3D1717"></path>
        <path d="M181.017,158.119 C180.771,158.119 180.557,157.937 180.522,157.687 C180.294,156.033 180.062,154.411 179.827,152.829 C179.786,152.557 179.975,152.302 180.248,152.262 C180.517,152.222 180.775,152.411 180.815,152.683 C181.052,154.267 181.284,155.892 181.513,157.55 C181.551,157.824 181.359,158.077 181.086,158.114 C181.063,158.117 181.04,158.119 181.017,158.119" id="Fill-12" fill="#3D1717"></path>
        <path d="M179.137,145.67 C178.896,145.67 178.685,145.496 178.645,145.251 L178.365,143.566 C178.319,143.293 178.503,143.036 178.775,142.99 C179.043,142.943 179.306,143.127 179.352,143.4 L179.631,145.089 C179.676,145.362 179.491,145.619 179.219,145.663 C179.191,145.668 179.164,145.67 179.137,145.67" id="Fill-13" fill="#3D1717"></path>
        <path d="M178.068,139.384 C177.83,139.384 177.619,139.213 177.577,138.971 C177.177,136.696 176.804,134.661 176.476,132.922 C176.424,132.651 176.603,132.389 176.874,132.338 C177.141,132.288 177.407,132.464 177.458,132.737 C177.786,134.48 178.161,136.518 178.562,138.797 C178.609,139.07 178.428,139.328 178.156,139.376 C178.127,139.382 178.098,139.384 178.068,139.384" id="Fill-14" fill="#3D1717"></path>
        <path d="M176.163,129.182 C175.93,129.182 175.721,129.018 175.674,128.78 C175.355,127.181 175.168,126.297 175.168,126.295 C175.111,126.025 175.283,125.76 175.554,125.703 C175.82,125.652 176.09,125.818 176.146,126.088 C176.146,126.088 176.334,126.976 176.654,128.584 C176.708,128.855 176.532,129.119 176.262,129.172 C176.229,129.179 176.196,129.182 176.163,129.182" id="Fill-15" fill="#3D1717"></path>
        <path d="M196.907,252.13 C195.863,252.13 194.471,250.576 191.766,241.836 L182.359,212.634 C182.274,212.371 182.419,212.089 182.682,212.005 C182.943,211.919 183.226,212.065 183.311,212.327 L192.719,241.536 C195.715,251.214 196.898,251.127 196.938,251.126 C197.673,250.978 200.925,246.026 192.751,162.86 C192.725,162.585 192.926,162.34 193.2,162.313 C193.474,162.299 193.721,162.488 193.747,162.762 C202.423,251.04 198.443,251.843 197.136,252.107 C197.062,252.121 196.985,252.13 196.907,252.13" id="Fill-16" fill="#3D1717"></path>
        <path d="M192.381,154.633 C192.128,154.633 191.91,154.441 191.885,154.184 C191.69,152.27 191.504,150.447 191.326,148.733 C191.298,148.458 191.497,148.212 191.771,148.184 C192.041,148.154 192.292,148.355 192.32,148.629 C192.498,150.345 192.685,152.168 192.879,154.082 C192.907,154.358 192.707,154.603 192.433,154.63 C192.415,154.632 192.398,154.633 192.381,154.633" id="Fill-17" fill="#3D1717"></path>
        <path d="M191.196,143.193 C190.944,143.193 190.728,143.002 190.7,142.745 C190.052,136.611 189.636,132.883 189.636,132.882 C189.605,132.608 189.803,132.361 190.077,132.329 C190.357,132.3 190.6,132.496 190.63,132.771 C190.63,132.771 191.046,136.501 191.694,142.64 C191.724,142.914 191.524,143.161 191.25,143.19 C191.232,143.192 191.214,143.193 191.196,143.193" id="Fill-18" fill="#3D1717"></path>
        <path d="M137.963,116.741 C137.837,116.741 137.711,116.693 137.613,116.598 C137.524,116.512 135.421,114.444 133.23,111.317 C133.071,111.09 133.127,110.779 133.353,110.62 C133.579,110.462 133.892,110.516 134.049,110.743 C136.184,113.789 138.291,115.863 138.313,115.883 C138.51,116.077 138.514,116.393 138.32,116.59 C138.223,116.691 138.093,116.741 137.963,116.741" id="Fill-19" fill="#3D1717"></path>
        <path d="M130.652,106.349 C130.472,106.349 130.296,106.25 130.208,106.078 L130.128,105.922 C129.744,105.177 129.615,104.926 129.25,104.044 C129.145,103.789 129.266,103.496 129.521,103.391 C129.772,103.285 130.067,103.406 130.174,103.661 C130.523,104.505 130.638,104.728 131.017,105.465 L131.097,105.62 C131.224,105.867 131.126,106.167 130.881,106.293 C130.808,106.331 130.729,106.349 130.652,106.349" id="Fill-20" fill="#3D1717"></path>
        <path d="M127.794,98.18 C127.56,98.18 127.351,98.014 127.304,97.776 C125.966,90.895 127.962,85.173 133.407,80.284 C139.324,74.973 145.307,72.731 151.199,73.628 C161.286,75.161 167.397,85.239 167.653,85.667 C167.795,85.905 167.717,86.211 167.479,86.353 C167.243,86.492 166.936,86.417 166.794,86.179 C166.734,86.078 160.66,76.075 151.043,74.616 C145.466,73.77 139.757,75.927 134.075,81.029 C128.914,85.662 127.02,91.078 128.286,97.584 C128.339,97.856 128.161,98.118 127.891,98.171 C127.858,98.177 127.826,98.18 127.794,98.18" id="Fill-21" fill="#3D1717"></path>
        <path d="M111.767,114.523 C111.688,114.523 111.609,114.504 111.536,114.466 C111.343,114.366 111.238,114.153 111.274,113.939 C111.328,113.621 112.692,106.114 121.083,101.105 L127.539,97.25 C127.773,97.109 128.083,97.185 128.225,97.424 C128.366,97.66 128.288,97.968 128.051,98.11 L121.595,101.964 C115.949,105.334 113.625,109.98 112.745,112.433 C121.653,104.61 133.859,102.226 133.988,102.202 C134.256,102.15 134.521,102.328 134.572,102.6 C134.624,102.871 134.445,103.132 134.174,103.184 C134.042,103.209 120.863,105.788 112.117,114.379 C112.021,114.474 111.895,114.523 111.767,114.523" id="Fill-22" fill="#3D1717"></path>
        <path d="M118.119,124.391 C118.018,124.391 117.916,124.36 117.829,124.298 C117.644,124.166 117.571,123.926 117.651,123.714 C117.694,123.601 122.053,112.301 133.757,102.313 C133.965,102.133 134.282,102.158 134.461,102.369 C134.641,102.578 134.615,102.894 134.405,103.073 C125.759,110.453 121.2,118.531 119.449,122.14 L133.32,110.645 C133.534,110.469 133.849,110.497 134.024,110.71 C134.201,110.923 134.171,111.239 133.959,111.414 L118.438,124.276 C118.346,124.352 118.232,124.391 118.119,124.391" id="Fill-23" fill="#3D1717"></path>
        <path d="M144.898,85.378 C143.013,85.378 141.479,86.912 141.479,88.799 C141.479,90.685 143.013,92.219 144.898,92.219 C146.785,92.219 148.319,90.685 148.319,88.799 C148.319,86.912 146.785,85.378 144.898,85.378 Z M144.898,93.219 C142.461,93.219 140.479,91.237 140.479,88.799 C140.479,86.362 142.461,84.378 144.898,84.378 C147.336,84.378 149.319,86.362 149.319,88.799 C149.319,91.237 147.336,93.219 144.898,93.219 Z" id="Fill-24" fill="#3D1717"></path>
        <path d="M147.764,88.799 C147.764,90.381 146.481,91.663 144.899,91.663 C143.316,91.663 142.034,90.381 142.034,88.799 C142.034,87.217 143.316,85.934 144.899,85.934 C146.481,85.934 147.764,87.217 147.764,88.799" id="Fill-25" fill="#3D1717"></path>
        <path d="M88.164,32.991 C78.662,36.428 66.004,42.861 65.79,58.979 C65.67,68.088 69.27,76.473 75.419,81.408 C80.91,85.813 87.824,87.195 95.415,85.406 C112.841,81.295 128.084,63.219 129.085,50.993 C129.401,47.125 127.431,39.098 120.797,34.027 C113.34,28.325 102.055,27.966 88.164,32.991 Z M89.117,87.168 C83.778,87.168 78.908,85.489 74.793,82.187 C68.405,77.062 64.666,68.381 64.791,58.965 C65.038,40.291 82.188,34.089 87.824,32.051 C105.798,25.548 116.007,29.106 121.404,33.232 C128.354,38.545 130.415,46.996 130.081,51.076 C129.054,63.629 113.463,82.176 95.644,86.378 C93.407,86.907 91.225,87.168 89.117,87.168 Z" id="Fill-26" fill="#3D1717"></path>
        <path d="M242.707,253.256 C243.2,252.033 242.651,251.321 242.217,250.619 C241.319,249.166 240.361,247.752 239.434,246.318 C239.196,245.948 238.855,245.52 238.464,245.731 C238.209,245.869 238.004,246.521 238.108,246.831 C238.974,249.402 240.575,251.437 242.707,253.256" id="Fill-27" fill="#3D1717"></path>
        <path d="M254.882,268.826 C253.458,267.082 252.004,265.363 250.523,263.667 C250.401,263.528 249.957,263.493 249.806,263.605 C249.651,263.719 249.562,264.114 249.635,264.316 C250.549,266.841 252.723,268.153 254.723,269.893 C254.817,269.323 254.991,268.959 254.882,268.826" id="Fill-28" fill="#3D1717"></path>
        <path d="M183.014,211.413 C182.959,211.742 182.91,212.077 182.852,212.398 L183.053,211.437 L183.014,211.413" id="Fill-29" fill="#3D1717"></path>
        <path d="M180.904,219.484 L186,222.308 L182.836,212.487 C182.354,215.108 181.718,217.464 180.904,219.484" id="Fill-30" fill="#3D1717"></path>
        <path d="M143.319,185.152 C143.64,185.331 143.849,185.584 143.888,185.952 C143.5,185.823 143.317,185.551 143.319,185.152 Z M151.591,190.657 C150.26,188.227 148.395,186.186 146.433,184.256 C142.927,180.809 139.435,177.34 135.796,174.036 C133.84,172.261 132.194,170.298 130.809,168.08 C128.802,164.867 126.416,162.03 123.405,159.653 C121.262,157.96 119.421,155.878 117.486,153.93 C116.263,152.699 115.143,151.366 113.922,150.132 C113.359,149.563 112.777,148.923 111.86,148.974 C114.719,153.817 118.512,157.909 122.764,161.474 C125.356,163.647 127.567,166.025 129.176,168.904 C131.171,172.472 133.801,175.453 136.739,178.222 C139.012,180.365 141.29,182.504 143.165,185.024 C142.458,185.167 141.868,184.829 141.301,184.466 C138.868,182.911 136.353,181.466 134.038,179.749 C126.955,174.498 120.061,168.987 112.887,163.865 C104.63,157.968 97.854,150.824 92.676,142.089 C90.613,138.611 88.078,135.423 85.336,132.425 C81.527,128.26 77.464,124.38 73.131,120.739 C68.373,116.739 63.804,112.514 58.954,108.612 C54.335,104.894 49.825,101.039 45.244,97.275 C43.952,96.212 42.773,95.948 42.726,96.579 C42.65,97.594 43.417,98.109 44.009,98.711 C44.413,99.123 44.881,99.47 45.322,99.846 C53.465,106.789 61.559,113.791 69.766,120.659 C79.15,128.512 87.549,137.205 93.856,147.784 C94.741,149.269 95.773,150.678 96.838,152.043 C101.056,157.452 106.199,161.868 111.722,165.889 C114.526,167.93 117.219,170.123 119.938,172.278 C120.313,172.575 120.995,172.876 120.357,173.755 C117.59,173.019 115.027,171.718 112.719,170.015 C109.646,167.747 106.328,166.011 102.658,165.072 C98.493,164.005 95.453,161.568 93.082,158.096 C91.523,155.814 89.663,153.775 87.454,152.109 C84.651,149.994 82.245,147.541 80.324,144.593 C79.537,143.383 78.615,142.256 77.707,141.131 C75.874,138.862 73.868,136.803 71.049,135.728 C70.385,135.475 69.699,135.128 69.187,134.649 C64.943,130.678 59.822,127.868 55.372,124.17 C54.657,123.577 53.93,122.762 52.745,122.925 C53.078,124.15 54.114,124.734 54.952,125.457 C56.484,126.78 57.999,128.142 59.65,129.305 C63.895,132.296 67.38,136.283 72.128,138.63 C73.523,139.321 74.675,140.521 75.623,141.836 C76.637,143.245 77.763,144.577 78.718,146.024 C80.409,148.584 82.466,150.813 84.789,152.782 C87.666,155.22 90.337,157.79 92.527,160.921 C94.713,164.046 97.564,166.244 101.577,167.13 C104.906,167.865 108.08,169.384 110.95,171.492 C114.339,173.979 118.134,175.852 122.208,176.98 C124.075,177.496 125.698,178.33 127.207,179.48 C129.504,181.231 131.837,182.938 134.098,184.736 C142.242,191.213 150.75,197.243 158.277,204.479 C158.506,204.699 158.75,204.903 159.002,205.099 C157.223,201.507 155.452,197.577 153.729,193.418 C152.907,192.624 152.176,191.725 151.591,190.657 Z" id="Fill-31" fill="#3D1717"></path>
        <path d="M242.58,259.051 C242.677,258.622 242.167,257.991 241.821,257.541 C241.204,256.742 240.497,256.012 239.831,255.249 C235.355,250.118 230.96,244.94 228.403,238.487 C227.583,236.417 226.12,234.713 224.184,233.663 C222.061,232.513 220.55,230.88 219.202,228.954 C218.291,227.653 217.187,226.423 215.731,225.728 C212.356,224.113 209.342,221.865 205.744,220.591 C203.871,219.928 202.269,218.927 201.193,217.482 L198.679,216.859 C198.513,217.405 198.371,217.856 198.255,218.209 C198.312,218.961 198.367,219.713 198.423,220.464 L198.001,220.217 C198.184,223.367 198.337,226.379 198.453,229.208 L199.091,229.562 C199.1,229.684 199.11,229.806 199.118,229.928 L203.021,232.148 C203.164,232.207 203.299,232.277 203.404,232.367 C204.946,233.673 206.509,234.969 207.936,236.396 C209.799,238.259 211.881,239.733 214.229,240.945 C216.782,242.262 219.421,243.539 221.056,246.138 C221.42,246.717 222.058,247.228 222.686,247.517 C223.912,248.081 224.848,248.968 225.747,249.902 C227.773,252.005 230.059,253.714 232.656,255.081 C235.604,256.633 238.373,258.445 240.312,261.317 C241.07,262.438 241.974,263.602 243.919,264.102 C243.143,262.278 242.175,260.83 242.58,259.051" id="Fill-32" fill="#3D1717"></path>
        <path d="M116.01,95.933 C115.971,95.933 115.931,95.928 115.891,95.918 C102.787,92.703 101.59,79.922 101.579,79.793 C101.557,79.518 101.761,79.277 102.036,79.254 C102.314,79.231 102.553,79.436 102.576,79.711 C102.618,80.207 103.737,91.908 116.129,94.948 C116.397,95.013 116.562,95.284 116.495,95.552 C116.439,95.781 116.235,95.933 116.01,95.933" id="Fill-33" fill="#3D1717"></path>
        <path d="M182.756,232.311 C181.757,232.311 180.947,231.5 180.947,230.501 L180.947,227.902 C180.947,226.903 181.757,226.092 182.756,226.092 C183.755,226.092 184.565,226.903 184.565,227.902 L184.565,230.501 C184.565,231.5 183.755,232.311 182.756,232.311" id="Fill-34" fill="#F5CAC0"></path>
        <path d="M182.756,245.628 C181.757,245.628 180.947,244.819 180.947,243.819 L180.947,240.641 C180.947,239.642 181.757,238.831 182.756,238.831 C183.755,238.831 184.565,239.642 184.565,240.641 L184.565,243.819 C184.565,244.819 183.755,245.628 182.756,245.628" id="Fill-35" fill="#F5CAC0"></path>
        <path d="M182.756,262.878 C181.757,262.878 180.947,262.068 180.947,261.069 L180.947,249.839 C180.947,248.84 181.757,248.03 182.756,248.03 C183.755,248.03 184.565,248.84 184.565,249.839 L184.565,261.069 C184.565,262.068 183.755,262.878 182.756,262.878" id="Fill-36" fill="#F5CAC0"></path>
        <path d="M183.661,231.407 C182.662,231.407 181.851,230.596 181.851,229.597 L181.851,226.996 C181.851,226.732 181.912,226.482 182.014,226.255 C181.386,226.538 180.947,227.167 180.947,227.902 L180.947,230.501 C180.947,231.5 181.757,232.311 182.756,232.311 C183.49,232.311 184.119,231.871 184.403,231.244 C184.176,231.346 183.926,231.407 183.661,231.407" id="Fill-37" fill="#EC98A0"></path>
        <path d="M183.661,244.724 C182.662,244.724 181.851,243.913 181.851,242.914 L181.851,239.737 C181.851,239.471 181.912,239.221 182.014,238.994 C181.386,239.279 180.947,239.908 180.947,240.641 L180.947,243.819 C180.947,244.819 181.757,245.628 182.756,245.628 C183.49,245.628 184.119,245.189 184.403,244.561 C184.176,244.663 183.926,244.724 183.661,244.724" id="Fill-38" fill="#EC98A0"></path>
        <path d="M183.661,261.973 C182.662,261.973 181.851,261.163 181.851,260.164 L181.851,248.934 C181.851,248.669 181.912,248.419 182.014,248.193 C181.386,248.476 180.947,249.105 180.947,249.839 L180.947,261.069 C180.947,262.068 181.757,262.878 182.756,262.878 C183.49,262.878 184.119,262.439 184.403,261.811 C184.176,261.913 183.926,261.973 183.661,261.973" id="Fill-39" fill="#EC98A0"></path>
        <path d="M85.345,64.422 C83.941,63.915 82.892,64.731 81.591,65.047 C80.365,65.346 79.326,64.584 78.736,63.535 C77.812,61.892 78.663,59.758 79.931,58.524 C81.162,57.326 82.731,57.947 84.201,58.21 C84.683,58.297 85.145,58.387 85.258,57.828 C85.331,57.467 84.866,56.824 84.636,56.555 C84.005,55.82 83.009,55.481 82.07,55.381 C79.561,55.114 78.079,57.175 77.122,59.218 C76.171,61.248 75.11,63.318 76.938,65.097 C78.71,66.823 79.769,68.977 81.273,70.914 C82.017,71.873 82.809,73.121 83.752,73.891 C84.53,74.526 86.084,74.305 85.974,73.068 C85.832,71.458 81.66,69.367 83.145,67.564 C83.847,66.711 85.12,67.091 85.954,66.595 C87.112,65.905 86.274,64.758 85.345,64.422 C84.156,63.993 85.89,64.619 85.345,64.422" id="Fill-40" fill="#3D1717"></path>
        <path d="M124.327,53.488 C123.606,51.927 122.489,50.556 120.879,49.868 C119.492,49.276 117.037,49.431 116.316,47.837 C116.071,47.295 116.373,45.533 115.989,45.207 C115.152,44.498 114.654,46.813 114.544,47.236 C114.329,48.072 114.111,49.025 113.535,49.701 C112.684,50.701 112.085,50.224 111.398,49.344 C110.953,48.775 108.273,44.411 107.696,46.838 C107.491,47.7 108.504,48.903 108.896,49.61 C109.5,50.695 110.105,51.779 110.717,52.859 C111.297,53.885 112.913,58.212 114.65,56.582 C115.309,55.965 114.872,55.194 114.667,54.477 C114.448,53.706 114.512,52.818 114.963,52.132 C116.077,50.442 118.232,51.163 119.721,51.867 C120.796,52.374 121.544,53.203 122.508,53.862 C122.867,54.107 123.354,54.534 123.809,54.416 C124.185,54.319 124.516,53.896 124.327,53.488 C123.443,51.574 124.417,53.684 124.327,53.488" id="Fill-41" fill="#3D1717"></path>
        <path d="M93.682,54.86 C92.831,54.576 92.81,56.102 93.017,56.501 C93.403,57.243 94.374,57.545 94.998,58.043 C96.468,59.218 96.564,61.995 96.012,63.685 C95.458,65.383 93.868,66.38 92.355,65.089 C90.744,63.715 89.836,61.779 88.894,59.951 C88.444,59.077 87.671,59.134 87.297,60.093 C86.964,60.949 87.5,61.958 87.84,62.739 C88.613,64.513 89.782,66.085 91.25,67.346 C92.846,68.715 94.752,69.028 96.263,67.313 C97.629,65.761 97.967,63.642 97.836,61.642 C97.665,59.029 96.416,55.772 93.682,54.86 C93.511,54.803 94.751,55.216 93.682,54.86" id="Fill-42" fill="#3D1717"></path>
        <path d="M109.242,57.35 C107.581,58.15 106.208,59.223 104.245,58.924 C102.581,58.671 101.108,57.363 100.553,55.787 C100.211,54.818 99.907,52.332 101.216,51.949 C101.928,51.74 102.63,52.341 103.363,52.1 C104.094,51.861 104.389,51.03 104.067,50.349 C103.424,48.989 101.234,48.91 100.107,49.601 C98.753,50.43 97.97,52.277 98.151,53.81 C98.326,55.281 98.761,56.784 99.329,58.149 C99.995,59.749 101.095,60.517 102.709,61.115 C104.469,61.766 106.545,61.754 108.153,60.693 C108.785,60.275 109.297,59.701 109.672,59.044 C109.859,58.716 110.329,56.826 109.242,57.35 C108.467,57.723 109.406,57.271 109.242,57.35" id="Fill-43" fill="#3D1717"></path>
    </g>
</svg>