<?xml version="1.0" encoding="UTF-8"?>
<svg width="298px" height="298px" viewBox="0 0 298 298" version="1.1" xmlns="http://www.w3.org/2000/svg" xmlns:xlink="http://www.w3.org/1999/xlink">
    <!-- Generator: Sketch 50.2 (55047) - http://www.bohemiancoding.com/sketch -->
    <title>zombie</title>
    <desc>Created with Sketch.</desc>
    <defs></defs>
    <g id="zombie" stroke="none" stroke-width="1" fill="none" fill-rule="evenodd">
        <path d="M141.934,269.654 C133.277,269.654 126.263,262.636 126.263,253.983 L126.263,182.264 C126.263,173.61 133.277,166.593 141.934,166.593 C150.591,166.593 157.605,173.61 157.605,182.264 L157.605,253.983 C157.605,262.636 150.591,269.654 141.934,269.654" id="Fill-4" fill="#3D1717"></path>
        <path d="M198.904,68.791 C196.039,65.926 195.831,61.378 198.268,58.261 L192.864,63.664 C189.768,66.76 184.702,66.76 181.606,63.664 C178.663,60.72 178.523,55.999 181.178,52.88 C178.059,55.534 173.337,55.395 170.394,52.452 C167.298,49.356 167.298,44.29 170.394,41.193 L175.797,35.79 C172.68,38.227 168.132,38.019 165.267,35.154 C163.78,33.667 163.015,31.726 162.957,29.767 C160.31,29.355 157.601,29.139 154.843,29.139 C125.754,29.139 93.755,52.789 93.755,81.878 L195.684,214.282 L207.733,209.119 L207.733,82.028 C207.733,78.197 207.309,74.46 206.525,70.854 C203.885,71.529 200.961,70.848 198.904,68.791" id="Fill-5" fill="#A5CD6F"></path>
        <path d="M94.186,81.732 L195.821,213.756 L207.302,208.835 L207.302,82.028 C207.302,78.473 206.93,74.89 206.195,71.37 C203.445,71.92 200.573,71.068 198.6,69.095 C196.321,66.817 195.611,63.506 196.555,60.582 L193.168,63.968 C189.897,67.241 184.574,67.24 181.302,63.968 C178.738,61.405 178.179,57.497 179.707,54.352 C176.562,55.878 172.653,55.319 170.089,52.756 C168.511,51.177 167.641,49.07 167.641,46.823 C167.641,44.575 168.511,42.468 170.089,40.889 L173.476,37.504 C170.552,38.447 167.241,37.737 164.963,35.458 C163.541,34.036 162.69,32.159 162.545,30.14 C160.001,29.761 157.412,29.569 154.843,29.569 C126.838,29.569 94.293,52.343 94.186,81.732 Z M195.684,214.713 C195.554,214.713 195.426,214.654 195.343,214.545 L93.414,82.141 C93.356,82.066 93.325,81.973 93.325,81.878 C93.325,51.934 126.395,28.709 154.843,28.709 C157.573,28.709 160.325,28.922 163.023,29.341 C163.228,29.374 163.38,29.547 163.387,29.754 C163.445,31.69 164.221,33.499 165.571,34.85 C168.255,37.533 172.538,37.793 175.532,35.451 C175.711,35.312 175.968,35.335 176.12,35.505 C176.271,35.676 176.262,35.934 176.101,36.095 L170.698,41.498 C169.282,42.914 168.502,44.805 168.502,46.823 C168.502,48.84 169.282,50.731 170.698,52.148 C173.45,54.9 177.931,55.079 180.898,52.552 C181.068,52.407 181.322,52.417 181.482,52.576 C181.64,52.735 181.651,52.988 181.505,53.159 C178.98,56.127 179.158,60.608 181.91,63.36 C184.847,66.296 189.624,66.296 192.56,63.36 L197.963,57.957 C198.124,57.796 198.382,57.788 198.553,57.939 C198.723,58.089 198.747,58.347 198.606,58.526 C196.266,61.521 196.524,65.803 199.208,68.487 C201.072,70.35 203.835,71.098 206.418,70.437 C206.532,70.408 206.652,70.426 206.751,70.488 C206.851,70.549 206.921,70.649 206.946,70.763 C207.754,74.478 208.163,78.269 208.163,82.028 L208.163,209.119 C208.163,209.291 208.061,209.446 207.902,209.514 L195.854,214.678 C195.799,214.701 195.741,214.713 195.684,214.713 Z" id="Fill-6" fill="#3D1717"></path>
        <path d="M198.904,68.791 C196.104,65.863 195.831,61.378 198.268,58.261 L192.864,63.664 C192.633,63.895 192.388,64.104 192.136,64.3 C189.02,66.737 184.471,66.529 181.606,63.664 C178.663,60.72 178.523,55.999 181.178,52.88 C181.113,52.936 181.043,52.982 180.977,53.035 C177.858,55.52 173.276,55.334 170.394,52.452 C167.529,49.587 167.321,45.038 169.758,41.922 C169.954,41.67 170.163,41.425 170.394,41.193 L175.797,35.79 L175.796,35.791 C172.68,38.227 168.439,37.673 165.267,35.154 C162.963,33.324 162.949,29.767 162.949,29.767 L148.055,41.108 C144.958,44.204 144.958,49.27 148.055,52.366 C150.919,55.231 155.468,55.44 158.584,53.003 L153.181,58.406 C150.085,61.502 150.085,66.568 153.181,69.664 C156.125,72.608 160.846,72.747 163.965,70.092 C161.311,73.212 161.45,77.933 164.394,80.877 C167.49,83.973 172.556,83.973 175.652,80.877 L181.055,75.473 C178.618,78.59 178.827,83.138 181.691,86.004 C184.788,89.099 189.854,89.099 192.95,86.004 L206.527,70.862 C206.527,70.862 201.96,71.986 198.904,68.791" id="Fill-7" fill="#C06539"></path>
        <path d="M192.95,86.004 C189.854,89.099 184.788,89.099 181.691,86.004 C178.827,83.139 178.618,78.59 181.055,75.473 L175.652,80.877 C172.556,83.973 167.49,83.973 164.394,80.877 C161.45,77.933 161.311,73.212 163.965,70.092 C160.846,72.747 156.125,72.608 153.181,69.664 C150.085,66.568 150.085,61.502 153.181,58.406 L158.584,53.003 C155.468,55.44 150.919,55.231 148.055,52.366 C144.958,49.27 144.958,44.204 148.055,41.108 L155.038,35.79 C151.512,35.043 146.535,34.303 142.794,34.303 C113.705,34.303 89.905,58.103 89.905,87.192 L89.905,214.282 L195.684,214.282 L195.684,87.192 C195.684,85.922 195.623,84.668 195.534,83.42 L192.95,86.004" id="Fill-8" fill="#F0F2C3"></path>
        <path d="M152.608,35.652 C152.581,35.652 152.554,35.65 152.527,35.644 C150.889,35.334 149.215,35.1 147.552,34.948 C147.315,34.927 147.141,34.717 147.163,34.481 C147.184,34.244 147.393,34.069 147.63,34.091 C149.32,34.245 151.021,34.483 152.688,34.799 C152.921,34.843 153.074,35.068 153.03,35.302 C152.991,35.508 152.81,35.652 152.608,35.652" id="Fill-9" fill="#3D1717"></path>
        <path d="M155.704,98.086 C152.05,98.086 148.962,106.801 148.962,117.117 C148.962,127.433 152.05,136.149 155.704,136.149 C159.358,136.149 162.446,127.433 162.446,117.117 C162.446,106.801 159.358,98.086 155.704,98.086 Z M155.704,137.009 C151.441,137.009 148.102,128.272 148.102,117.117 C148.102,105.963 151.441,97.226 155.704,97.226 C159.967,97.226 163.306,105.963 163.306,117.117 C163.306,128.272 159.967,137.009 155.704,137.009 Z" id="Fill-10" fill="#3D1717"></path>
        <path d="M129.885,98.086 C126.231,98.086 123.144,106.801 123.144,117.117 C123.144,127.433 126.231,136.149 129.885,136.149 C133.54,136.149 136.627,127.433 136.627,117.117 C136.627,106.801 133.54,98.086 129.885,98.086 Z M129.885,137.009 C125.622,137.009 122.283,128.272 122.283,117.117 C122.283,105.963 125.622,97.226 129.885,97.226 C134.148,97.226 137.487,105.963 137.487,117.117 C137.487,128.272 134.148,137.009 129.885,137.009 Z" id="Fill-11" fill="#3D1717"></path>
        <path d="M154.413,136.579 C149.739,136.579 145.95,127.865 145.95,117.117 C145.95,106.369 149.739,97.656 154.413,97.656 L155.704,97.656 L155.704,136.579 L154.413,136.579" id="Fill-12" fill="#A5CD6F"></path>
        <path d="M128.594,136.579 C123.92,136.579 120.131,127.865 120.131,117.117 C120.131,106.369 123.92,97.656 128.594,97.656 L129.885,97.656 L129.885,136.579 L128.594,136.579" id="Fill-13" fill="#A5CD6F"></path>
        <path d="M147.18,107.439 C147.144,107.439 147.107,107.434 147.07,107.425 C146.84,107.363 146.703,107.129 146.764,106.899 C146.894,106.408 147.033,105.933 147.18,105.472 C147.252,105.246 147.497,105.123 147.721,105.194 C147.947,105.266 148.072,105.508 148,105.735 C147.856,106.182 147.722,106.643 147.596,107.119 C147.545,107.312 147.371,107.439 147.18,107.439" id="Fill-14" fill="#3D1717"></path>
        <path d="M146.513,110.558 C146.489,110.558 146.465,110.556 146.441,110.552 C146.206,110.512 146.048,110.291 146.088,110.056 C146.128,109.819 146.169,109.584 146.213,109.352 C146.256,109.118 146.478,108.965 146.715,109.008 C146.949,109.051 147.103,109.276 147.059,109.51 C147.017,109.737 146.976,109.967 146.937,110.199 C146.901,110.409 146.719,110.558 146.513,110.558" id="Fill-15" fill="#3D1717"></path>
        <path d="M146.835,126.224 C146.638,126.224 146.459,126.087 146.415,125.885 C146.224,125.003 146.059,124.076 145.927,123.132 C145.895,122.896 146.059,122.678 146.294,122.646 C146.528,122.612 146.747,122.777 146.779,123.012 C146.909,123.936 147.069,124.841 147.256,125.702 C147.307,125.934 147.159,126.164 146.927,126.214 C146.896,126.221 146.866,126.224 146.835,126.224" id="Fill-16" fill="#3D1717"></path>
        <path d="M155.704,137.009 L154.413,137.009 C151.466,137.009 148.817,133.963 147.144,128.651 C147.072,128.424 147.199,128.182 147.425,128.111 C147.653,128.041 147.894,128.165 147.965,128.392 C149.495,133.249 151.905,136.149 154.413,136.149 L155.273,136.149 L155.273,98.086 L154.413,98.086 C152.386,98.086 150.437,99.938 148.924,103.3 C148.827,103.516 148.572,103.614 148.355,103.516 C148.138,103.419 148.042,103.164 148.139,102.947 C149.799,99.258 152.027,97.226 154.413,97.226 L155.704,97.226 C155.942,97.226 156.134,97.418 156.134,97.656 L156.134,136.579 C156.134,136.817 155.942,137.009 155.704,137.009" id="Fill-17" fill="#3D1717"></path>
        <path d="M121.362,107.439 C121.325,107.439 121.288,107.435 121.251,107.425 C121.021,107.364 120.884,107.129 120.945,106.899 C121.109,106.279 121.292,105.668 121.488,105.083 C121.564,104.858 121.81,104.739 122.033,104.812 C122.258,104.888 122.38,105.132 122.304,105.357 C122.114,105.924 121.937,106.517 121.777,107.119 C121.727,107.312 121.552,107.439 121.362,107.439" id="Fill-18" fill="#3D1717"></path>
        <path d="M120.884,109.515 C120.856,109.515 120.828,109.513 120.8,109.507 C120.566,109.461 120.415,109.234 120.461,109.001 L120.568,108.48 C120.617,108.247 120.85,108.099 121.079,108.148 C121.311,108.197 121.459,108.425 121.41,108.658 L121.305,109.169 C121.265,109.374 121.085,109.515 120.884,109.515" id="Fill-19" fill="#3D1717"></path>
        <path d="M120.534,123.502 C120.323,123.502 120.139,123.346 120.108,123.131 L120.046,122.665 C120.017,122.429 120.183,122.213 120.418,122.183 C120.657,122.158 120.871,122.32 120.9,122.555 L120.961,123.012 C120.994,123.247 120.83,123.465 120.594,123.498 C120.574,123.5 120.554,123.502 120.534,123.502" id="Fill-20" fill="#3D1717"></path>
        <path d="M121.319,127.499 C121.128,127.499 120.953,127.37 120.903,127.176 C120.689,126.351 120.5,125.482 120.341,124.595 C120.299,124.362 120.455,124.138 120.689,124.096 C120.923,124.056 121.147,124.21 121.188,124.444 C121.344,125.309 121.528,126.156 121.736,126.961 C121.796,127.191 121.658,127.426 121.428,127.485 C121.392,127.495 121.355,127.499 121.319,127.499" id="Fill-21" fill="#3D1717"></path>
        <path d="M129.885,137.009 L128.594,137.009 C125.848,137.009 123.309,134.292 121.628,129.555 C121.549,129.332 121.666,129.086 121.89,129.006 C122.113,128.927 122.36,129.044 122.439,129.268 C123.991,133.64 126.234,136.149 128.594,136.149 L129.455,136.149 L129.455,98.086 L128.594,98.086 C126.775,98.086 124.979,99.621 123.537,102.406 C123.428,102.616 123.169,102.7 122.957,102.591 C122.746,102.481 122.664,102.221 122.773,102.01 C124.37,98.925 126.438,97.226 128.594,97.226 L129.885,97.226 C130.123,97.226 130.315,97.418 130.315,97.656 L130.315,136.579 C130.315,136.817 130.123,137.009 129.885,137.009" id="Fill-22" fill="#3D1717"></path>
        <path d="M155.704,98.086 C152.05,98.086 148.962,106.801 148.962,117.117 C148.962,127.433 152.05,136.149 155.704,136.149 C159.358,136.149 162.446,127.433 162.446,117.117 C162.446,106.801 159.358,98.086 155.704,98.086 Z M155.704,137.009 C151.441,137.009 148.102,128.272 148.102,117.117 C148.102,105.963 151.441,97.226 155.704,97.226 C159.967,97.226 163.306,105.963 163.306,117.117 C163.306,128.272 159.967,137.009 155.704,137.009 Z" id="Fill-23" fill="#3D1717"></path>
        <path d="M129.885,98.086 C126.231,98.086 123.144,106.801 123.144,117.117 C123.144,127.433 126.231,136.149 129.885,136.149 C133.54,136.149 136.627,127.433 136.627,117.117 C136.627,106.801 133.54,98.086 129.885,98.086 Z M129.885,137.009 C125.622,137.009 122.283,128.272 122.283,117.117 C122.283,105.963 125.622,97.226 129.885,97.226 C134.148,97.226 137.487,105.963 137.487,117.117 C137.487,128.272 134.148,137.009 129.885,137.009 Z" id="Fill-24" fill="#3D1717"></path>
        <path d="M162.876,117.117 C162.876,127.865 159.665,136.579 155.704,136.579 C151.743,136.579 148.532,127.865 148.532,117.117 C148.532,106.369 151.743,97.656 155.704,97.656 C159.665,97.656 162.876,106.369 162.876,117.117" id="Fill-25" fill="#3D1717"></path>
        <path d="M137.057,117.117 C137.057,127.865 133.846,136.579 129.885,136.579 C125.924,136.579 122.713,127.865 122.713,117.117 C122.713,106.369 125.924,97.656 129.885,97.656 C133.846,97.656 137.057,106.369 137.057,117.117" id="Fill-26" fill="#3D1717"></path>
        <path d="M195.684,214.713 L89.905,214.713 C89.668,214.713 89.475,214.52 89.475,214.282 L89.475,87.192 C89.475,57.792 113.394,33.872 142.794,33.872 C143.032,33.872 143.225,34.065 143.225,34.302 C143.225,34.54 143.032,34.733 142.794,34.733 C113.869,34.733 90.335,58.266 90.335,87.192 L90.335,213.852 L195.253,213.852 L195.253,185.44 C195.253,185.202 195.446,185.01 195.684,185.01 C195.922,185.01 196.114,185.202 196.114,185.44 L196.114,214.282 C196.114,214.52 195.922,214.713 195.684,214.713" id="Fill-27" fill="#3D1717"></path>
        <path d="M196.582,60.555 L193.168,63.968 C192.949,64.188 192.698,64.407 192.401,64.64 L181.996,75.049 C180.58,76.465 179.8,78.357 179.8,80.374 C179.8,82.392 180.58,84.283 181.996,85.699 C183.412,87.115 185.303,87.895 187.321,87.895 C189.338,87.895 191.229,87.115 192.646,85.699 L205.415,71.459 C203.781,71.589 200.829,71.426 198.593,69.089 C196.366,66.76 195.667,63.445 196.582,60.555 Z M187.314,88.759 C185.166,88.759 183.021,87.942 181.387,86.308 C179.809,84.729 178.939,82.622 178.939,80.374 C178.939,78.127 179.809,76.019 181.387,74.441 L191.832,63.996 C192.14,63.751 192.365,63.554 192.56,63.36 L197.963,57.957 C198.124,57.796 198.382,57.788 198.553,57.939 C198.723,58.089 198.747,58.347 198.606,58.526 C196.318,61.453 196.58,65.738 199.215,68.493 C202.066,71.475 206.382,70.455 206.424,70.444 C206.608,70.4 206.799,70.479 206.896,70.641 C206.994,70.802 206.974,71.009 206.848,71.15 L193.27,86.291 C191.624,87.937 189.467,88.759 187.314,88.759 Z" id="Fill-28" fill="#3D1717"></path>
        <path d="M179.315,55.301 L164.698,69.922 C161.762,72.859 161.762,77.636 164.698,80.572 C167.633,83.508 172.411,83.509 175.347,80.572 L189.943,65.976 C187.013,66.97 183.635,66.302 181.302,63.968 C178.991,61.657 178.309,58.254 179.315,55.301 Z M170.022,83.634 C167.874,83.634 165.725,82.817 164.089,81.181 C160.818,77.909 160.818,72.586 164.089,69.314 L180.9,52.552 C181.071,52.407 181.324,52.418 181.482,52.576 C181.641,52.735 181.65,52.989 181.505,53.159 C178.98,56.127 179.158,60.608 181.91,63.36 C184.847,66.296 189.624,66.296 192.56,63.36 L197.963,57.957 C198.131,57.789 198.404,57.789 198.572,57.957 C198.656,58.041 198.698,58.151 198.698,58.261 C198.698,58.371 198.656,58.481 198.572,58.565 L175.956,81.181 C174.32,82.817 172.171,83.634 170.022,83.634 Z" id="Fill-29" fill="#3D1717"></path>
        <path d="M170.394,41.624 C170.284,41.624 170.174,41.582 170.089,41.498 C169.921,41.33 169.921,41.057 170.089,40.889 L175.492,35.486 C175.578,35.402 175.714,35.366 175.801,35.36 C175.91,35.361 176.018,35.403 176.101,35.486 C176.262,35.647 176.269,35.904 176.121,36.074 C176.114,36.081 176.107,36.088 176.101,36.095 L170.698,41.498 C170.614,41.582 170.504,41.624 170.394,41.624" id="Fill-30" fill="#3D1717"></path>
        <path d="M168.083,44.112 L153.485,58.71 C152.069,60.126 151.29,62.017 151.29,64.035 C151.29,66.053 152.069,67.944 153.485,69.36 C154.902,70.776 156.792,71.556 158.81,71.556 C160.828,71.556 162.719,70.776 164.135,69.36 L178.751,54.744 C175.8,55.748 172.399,55.066 170.089,52.756 C168.511,51.177 167.641,49.07 167.641,46.823 C167.641,45.886 167.792,44.973 168.083,44.112 Z M158.81,72.417 C156.563,72.417 154.456,71.547 152.877,69.968 C151.298,68.39 150.429,66.283 150.429,64.035 C150.429,61.787 151.298,59.68 152.877,58.102 L170.089,40.889 C170.258,40.721 170.53,40.721 170.698,40.889 C170.782,40.973 170.824,41.083 170.824,41.193 C170.824,41.303 170.782,41.414 170.698,41.498 C169.282,42.914 168.502,44.805 168.502,46.823 C168.502,48.84 169.282,50.731 170.698,52.148 C173.45,54.9 177.931,55.079 180.898,52.552 C181.068,52.407 181.323,52.416 181.482,52.576 C181.641,52.736 181.65,52.99 181.504,53.16 L181.359,53.349 L164.744,69.968 C163.165,71.547 161.058,72.417 158.81,72.417 Z" id="Fill-31" fill="#3D1717"></path>
        <path d="M162.579,30.589 L148.315,41.45 C146.942,42.828 146.163,44.719 146.163,46.737 C146.163,48.755 146.942,50.646 148.359,52.062 C149.775,53.478 151.666,54.258 153.684,54.258 C155.701,54.258 157.592,53.478 159.009,52.062 L169.453,41.617 C169.655,41.354 169.868,41.11 170.089,40.889 L173.541,37.438 C170.815,38.263 167.648,37.594 165,35.491 C163.238,34.092 162.727,31.807 162.579,30.589 Z M153.684,55.119 C151.436,55.119 149.329,54.25 147.75,52.671 C146.171,51.092 145.302,48.985 145.302,46.737 C145.302,44.49 146.171,42.382 147.75,40.804 L162.688,29.424 C162.817,29.326 162.992,29.309 163.139,29.381 C163.285,29.453 163.378,29.602 163.379,29.765 C163.379,29.798 163.424,33.141 165.535,34.817 C168.742,37.363 172.759,37.62 175.532,35.451 C175.711,35.312 175.968,35.335 176.12,35.505 C176.271,35.676 176.262,35.934 176.101,36.095 L170.698,41.498 C170.502,41.694 170.311,41.913 170.096,42.187 L159.617,52.671 C158.038,54.25 155.931,55.119 153.684,55.119 Z" id="Fill-32" fill="#3D1717"></path>
        <path d="M142.794,155.314 C149.417,155.314 155.812,156.751 160.338,159.258 C163.956,161.263 166.031,163.748 166.031,166.076 C166.031,168.404 163.956,170.889 160.338,172.893 C155.812,175.401 149.417,176.838 142.794,176.838 C136.171,176.838 129.777,175.401 125.251,172.893 C121.633,170.889 119.558,168.404 119.558,166.076 C119.558,163.748 121.633,161.263 125.251,159.258 C129.777,156.751 136.171,155.314 142.794,155.314" id="Fill-33" fill="#3D1717"></path>
        <path d="M146.913,162.741 C145.221,162.741 143.837,161.357 143.837,159.665 L143.837,155.807 C143.837,154.116 145.221,152.732 146.913,152.732 C148.604,152.732 149.989,154.116 149.989,155.807 L149.989,159.665 C149.989,161.357 148.604,162.741 146.913,162.741" id="Fill-34" fill="#F6DE5E"></path>
        <path d="M138.745,162.741 C137.053,162.741 135.668,161.357 135.668,159.665 L135.668,155.807 C135.668,154.116 137.053,152.732 138.745,152.732 C140.437,152.732 141.82,154.116 141.82,155.807 L141.82,159.665 C141.82,161.357 140.437,162.741 138.745,162.741" id="Fill-35" fill="#F6DE5E"></path>
        <path d="M130.576,162.741 C128.884,162.741 127.5,161.357 127.5,159.665 L127.5,155.807 C127.5,154.116 128.884,152.732 130.576,152.732 C132.268,152.732 133.652,154.116 133.652,155.807 L133.652,159.665 C133.652,161.357 132.268,162.741 130.576,162.741" id="Fill-36" fill="#F6DE5E"></path>
        <path d="M122.408,162.741 C120.716,162.741 119.332,161.357 119.332,159.665 L119.332,158.389 C119.332,156.697 120.716,155.314 122.408,155.314 C124.1,155.314 125.483,156.697 125.483,158.389 L125.483,159.665 C125.483,161.357 124.1,162.741 122.408,162.741" id="Fill-37" fill="#F6DE5E"></path>
        <path d="M155.082,162.741 C153.39,162.741 152.005,161.357 152.005,159.665 L152.005,155.807 C152.005,154.116 153.39,152.732 155.082,152.732 C156.773,152.732 158.157,154.116 158.157,155.807 L158.157,159.665 C158.157,161.357 156.773,162.741 155.082,162.741" id="Fill-38" fill="#F6DE5E"></path>
        <path d="M163.25,162.741 C161.558,162.741 160.174,161.357 160.174,159.665 L160.174,158.389 C160.174,156.697 161.558,155.314 163.25,155.314 C164.941,155.314 166.326,156.697 166.326,158.389 L166.326,159.665 C166.326,161.357 164.941,162.741 163.25,162.741" id="Fill-39" fill="#F6DE5E"></path>
        <path d="M195.684,121.682 C195.446,121.682 195.253,121.49 195.253,121.252 L195.253,117.117 C195.253,116.879 195.446,116.687 195.684,116.687 C195.922,116.687 196.114,116.879 196.114,117.117 L196.114,121.252 C196.114,121.49 195.922,121.682 195.684,121.682" id="Fill-40" fill="#3D1717"></path>
        <path d="M195.684,127.922 C195.446,127.922 195.253,127.729 195.253,127.491 L195.253,124.292 C195.253,124.054 195.446,123.862 195.684,123.862 C195.922,123.862 196.114,124.054 196.114,124.292 L196.114,127.491 C196.114,127.729 195.922,127.922 195.684,127.922" id="Fill-41" fill="#3D1717"></path>
        <path d="M195.684,145.421 C195.446,145.421 195.253,145.228 195.253,144.99 L195.253,133.372 C195.253,133.134 195.446,132.942 195.684,132.942 C195.922,132.942 196.114,133.134 196.114,133.372 L196.114,144.99 C196.114,145.228 195.922,145.421 195.684,145.421" id="Fill-42" fill="#3D1717"></path>
        <path d="M195.684,155.744 C195.446,155.744 195.253,155.552 195.253,155.314 L195.253,149.15 C195.253,148.912 195.446,148.719 195.684,148.719 C195.922,148.719 196.114,148.912 196.114,149.15 L196.114,155.314 C196.114,155.552 195.922,155.744 195.684,155.744" id="Fill-43" fill="#3D1717"></path>
        <path d="M195.684,174.108 C195.446,174.108 195.253,173.916 195.253,173.678 L195.253,164.929 C195.253,164.691 195.446,164.499 195.684,164.499 C195.922,164.499 196.114,164.691 196.114,164.929 L196.114,173.678 C196.114,173.916 195.922,174.108 195.684,174.108" id="Fill-44" fill="#3D1717"></path>
        <path d="M146.913,177.543 C145.221,177.543 143.837,176.159 143.837,174.467 L143.837,170.61 C143.837,168.918 145.221,167.533 146.913,167.533 C148.604,167.533 149.989,168.918 149.989,170.61 L149.989,174.467 C149.989,176.159 148.604,177.543 146.913,177.543" id="Fill-45" fill="#F6DE5E"></path>
        <path d="M138.745,177.543 C137.053,177.543 135.668,176.159 135.668,174.467 L135.668,170.61 C135.668,168.918 137.053,167.533 138.745,167.533 C140.437,167.533 141.82,168.918 141.82,170.61 L141.82,174.467 C141.82,176.159 140.437,177.543 138.745,177.543" id="Fill-46" fill="#F6DE5E"></path>
        <path d="M130.576,177.543 C128.884,177.543 127.5,176.159 127.5,174.467 L127.5,170.61 C127.5,168.918 128.884,167.533 130.576,167.533 C132.268,167.533 133.652,168.918 133.652,170.61 L133.652,174.467 C133.652,176.159 132.268,177.543 130.576,177.543" id="Fill-47" fill="#F6DE5E"></path>
        <path d="M122.408,175.821 C120.716,175.821 119.332,174.438 119.332,172.746 L119.332,170.61 C119.332,168.918 120.716,167.533 122.408,167.533 C124.1,167.533 125.483,168.918 125.483,170.61 L125.483,172.746 C125.483,174.438 124.1,175.821 122.408,175.821" id="Fill-48" fill="#F6DE5E"></path>
        <path d="M155.082,177.543 C153.39,177.543 152.005,176.159 152.005,174.467 L152.005,170.61 C152.005,168.918 153.39,167.533 155.082,167.533 C156.773,167.533 158.157,168.918 158.157,170.61 L158.157,174.467 C158.157,176.159 156.773,177.543 155.082,177.543" id="Fill-49" fill="#F6DE5E"></path>
        <path d="M163.25,177.543 C161.558,177.543 160.174,176.159 160.174,174.467 L160.174,170.61 C160.174,168.918 161.558,167.533 163.25,167.533 C164.941,167.533 166.326,168.918 166.326,170.61 L166.326,174.467 C166.326,176.159 164.941,177.543 163.25,177.543" id="Fill-50" fill="#F6DE5E"></path>
        <path d="M146.913,152.732 C146.612,152.732 146.328,152.789 146.052,152.87 C147.326,153.247 148.268,154.416 148.268,155.807 L148.268,159.665 C148.268,161.056 147.326,162.226 146.052,162.602 C146.328,162.684 146.612,162.741 146.913,162.741 C148.604,162.741 149.989,161.357 149.989,159.665 L149.989,155.807 C149.989,154.116 148.604,152.732 146.913,152.732" id="Fill-51" fill="#CFAF31"></path>
        <path d="M138.745,152.732 C138.444,152.732 138.159,152.789 137.884,152.87 C139.157,153.247 140.099,154.416 140.099,155.807 L140.099,159.665 C140.099,161.056 139.157,162.226 137.884,162.602 C138.159,162.684 138.444,162.741 138.745,162.741 C140.437,162.741 141.82,161.357 141.82,159.665 L141.82,155.807 C141.82,154.116 140.437,152.732 138.745,152.732" id="Fill-52" fill="#CFAF31"></path>
        <path d="M130.576,152.732 C130.275,152.732 129.991,152.789 129.715,152.87 C130.989,153.247 131.931,154.416 131.931,155.807 L131.931,159.665 C131.931,161.056 130.989,162.226 129.715,162.602 C129.991,162.684 130.275,162.741 130.576,162.741 C132.268,162.741 133.652,161.357 133.652,159.665 L133.652,155.807 C133.652,154.116 132.268,152.732 130.576,152.732" id="Fill-53" fill="#CFAF31"></path>
        <path d="M122.408,155.313 C122.107,155.313 121.822,155.371 121.547,155.452 C122.82,155.828 123.762,156.998 123.762,158.389 L123.762,159.665 C123.762,161.056 122.82,162.226 121.547,162.602 C121.822,162.684 122.107,162.741 122.408,162.741 C124.1,162.741 125.483,161.357 125.483,159.665 L125.483,158.389 C125.483,156.697 124.1,155.313 122.408,155.313" id="Fill-54" fill="#CFAF31"></path>
        <path d="M155.082,152.732 C154.781,152.732 154.496,152.789 154.221,152.87 C155.494,153.247 156.436,154.416 156.436,155.807 L156.436,159.665 C156.436,161.056 155.494,162.226 154.221,162.602 C154.496,162.684 154.781,162.741 155.082,162.741 C156.773,162.741 158.157,161.357 158.157,159.665 L158.157,155.807 C158.157,154.116 156.773,152.732 155.082,152.732" id="Fill-55" fill="#CFAF31"></path>
        <path d="M163.25,155.313 C162.949,155.313 162.664,155.371 162.389,155.452 C163.663,155.828 164.604,156.998 164.604,158.389 L164.604,159.665 C164.604,161.056 163.663,162.226 162.389,162.602 C162.664,162.684 162.949,162.741 163.25,162.741 C164.941,162.741 166.326,161.357 166.326,159.665 L166.326,158.389 C166.326,156.697 164.941,155.313 163.25,155.313" id="Fill-56" fill="#CFAF31"></path>
        <path d="M146.913,167.533 C146.612,167.533 146.328,167.591 146.052,167.672 C147.326,168.049 148.268,169.218 148.268,170.61 L148.268,174.467 C148.268,175.858 147.326,177.028 146.052,177.404 C146.328,177.486 146.612,177.543 146.913,177.543 C148.604,177.543 149.989,176.159 149.989,174.467 L149.989,170.61 C149.989,168.918 148.604,167.533 146.913,167.533" id="Fill-57" fill="#CFAF31"></path>
        <path d="M138.745,167.533 C138.444,167.533 138.159,167.591 137.884,167.672 C139.157,168.049 140.099,169.218 140.099,170.61 L140.099,174.467 C140.099,175.858 139.157,177.028 137.884,177.404 C138.159,177.486 138.444,177.543 138.745,177.543 C140.437,177.543 141.82,176.159 141.82,174.467 L141.82,170.61 C141.82,168.918 140.437,167.533 138.745,167.533" id="Fill-58" fill="#CFAF31"></path>
        <path d="M130.576,167.533 C130.275,167.533 129.991,167.591 129.715,167.672 C130.989,168.049 131.931,169.218 131.931,170.61 L131.931,174.467 C131.931,175.858 130.989,177.028 129.715,177.404 C129.991,177.486 130.275,177.543 130.576,177.543 C132.268,177.543 133.652,176.159 133.652,174.467 L133.652,170.61 C133.652,168.918 132.268,167.533 130.576,167.533" id="Fill-59" fill="#CFAF31"></path>
        <path d="M122.408,167.533 C122.107,167.533 121.822,167.591 121.547,167.672 C122.82,168.049 123.762,169.218 123.762,170.61 L123.762,172.746 C123.762,174.137 122.82,175.307 121.547,175.683 C121.822,175.764 122.107,175.821 122.408,175.821 C124.1,175.821 125.483,174.438 125.483,172.746 L125.483,170.61 C125.483,168.918 124.1,167.533 122.408,167.533" id="Fill-60" fill="#CFAF31"></path>
        <path d="M155.082,167.533 C154.781,167.533 154.496,167.591 154.221,167.672 C155.494,168.049 156.436,169.218 156.436,170.61 L156.436,174.467 C156.436,175.858 155.494,177.028 154.221,177.404 C154.496,177.486 154.781,177.543 155.082,177.543 C156.773,177.543 158.157,176.159 158.157,174.467 L158.157,170.61 C158.157,168.918 156.773,167.533 155.082,167.533" id="Fill-61" fill="#CFAF31"></path>
        <path d="M163.25,167.533 C162.949,167.533 162.664,167.591 162.389,167.672 C163.663,168.049 164.604,169.218 164.604,170.61 L164.604,174.467 C164.604,175.858 163.663,177.028 162.389,177.404 C162.664,177.486 162.949,177.543 163.25,177.543 C164.941,177.543 166.326,176.159 166.326,174.467 L166.326,170.61 C166.326,168.918 164.941,167.533 163.25,167.533" id="Fill-62" fill="#CFAF31"></path>
        <path d="M146.913,153.162 C145.454,153.162 144.268,154.348 144.268,155.807 L144.268,159.665 C144.268,161.124 145.454,162.311 146.913,162.311 C148.372,162.311 149.559,161.124 149.559,159.665 L149.559,155.807 C149.559,154.348 148.372,153.162 146.913,153.162 Z M146.913,163.171 C144.979,163.171 143.407,161.598 143.407,159.665 L143.407,155.807 C143.407,153.874 144.979,152.301 146.913,152.301 C148.846,152.301 150.419,153.874 150.419,155.807 L150.419,159.665 C150.419,161.598 148.846,163.171 146.913,163.171 Z" id="Fill-63" fill="#3D1717"></path>
        <path d="M138.745,153.162 C137.286,153.162 136.099,154.348 136.099,155.807 L136.099,159.665 C136.099,161.124 137.286,162.311 138.745,162.311 C140.204,162.311 141.39,161.124 141.39,159.665 L141.39,155.807 C141.39,154.348 140.204,153.162 138.745,153.162 Z M138.745,163.171 C136.812,163.171 135.238,161.598 135.238,159.665 L135.238,155.807 C135.238,153.874 136.812,152.301 138.745,152.301 C140.678,152.301 142.25,153.874 142.25,155.807 L142.25,159.665 C142.25,161.598 140.678,163.171 138.745,163.171 Z" id="Fill-64" fill="#3D1717"></path>
        <path d="M130.576,153.162 C129.117,153.162 127.931,154.348 127.931,155.807 L127.931,159.665 C127.931,161.124 129.117,162.311 130.576,162.311 C132.035,162.311 133.222,161.124 133.222,159.665 L133.222,155.807 C133.222,154.348 132.035,153.162 130.576,153.162 Z M130.576,163.171 C128.643,163.171 127.07,161.598 127.07,159.665 L127.07,155.807 C127.07,153.874 128.643,152.301 130.576,152.301 C132.509,152.301 134.083,153.874 134.083,155.807 L134.083,159.665 C134.083,161.598 132.509,163.171 130.576,163.171 Z" id="Fill-65" fill="#3D1717"></path>
        <path d="M122.408,155.744 C120.949,155.744 119.762,156.93 119.762,158.389 L119.762,159.665 C119.762,161.124 120.949,162.311 122.408,162.311 C123.867,162.311 125.053,161.124 125.053,159.665 L125.053,158.389 C125.053,156.93 123.867,155.744 122.408,155.744 Z M122.408,163.171 C120.474,163.171 118.901,161.598 118.901,159.665 L118.901,158.389 C118.901,156.456 120.474,154.883 122.408,154.883 C124.341,154.883 125.914,156.456 125.914,158.389 L125.914,159.665 C125.914,161.598 124.341,163.171 122.408,163.171 Z" id="Fill-66" fill="#3D1717"></path>
        <path d="M155.082,153.162 C153.623,153.162 152.436,154.348 152.436,155.807 L152.436,159.665 C152.436,161.124 153.623,162.311 155.082,162.311 C156.54,162.311 157.727,161.124 157.727,159.665 L157.727,155.807 C157.727,154.348 156.54,153.162 155.082,153.162 Z M155.082,163.171 C153.148,163.171 151.575,161.598 151.575,159.665 L151.575,155.807 C151.575,153.874 153.148,152.301 155.082,152.301 C157.015,152.301 158.587,153.874 158.587,155.807 L158.587,159.665 C158.587,161.598 157.015,163.171 155.082,163.171 Z" id="Fill-67" fill="#3D1717"></path>
        <path d="M163.25,155.744 C161.791,155.744 160.604,156.93 160.604,158.389 L160.604,159.665 C160.604,161.124 161.791,162.311 163.25,162.311 C164.708,162.311 165.896,161.124 165.896,159.665 L165.896,158.389 C165.896,156.93 164.708,155.744 163.25,155.744 Z M163.25,163.171 C161.316,163.171 159.744,161.598 159.744,159.665 L159.744,158.389 C159.744,156.456 161.316,154.883 163.25,154.883 C165.183,154.883 166.756,156.456 166.756,158.389 L166.756,159.665 C166.756,161.598 165.183,163.171 163.25,163.171 Z" id="Fill-68" fill="#3D1717"></path>
        <path d="M146.913,167.964 C145.454,167.964 144.268,169.151 144.268,170.61 L144.268,174.467 C144.268,175.926 145.454,177.112 146.913,177.112 C148.372,177.112 149.559,175.926 149.559,174.467 L149.559,170.61 C149.559,169.151 148.372,167.964 146.913,167.964 Z M146.913,177.973 C144.979,177.973 143.407,176.4 143.407,174.467 L143.407,170.61 C143.407,168.676 144.979,167.103 146.913,167.103 C148.846,167.103 150.419,168.676 150.419,170.61 L150.419,174.467 C150.419,176.4 148.846,177.973 146.913,177.973 Z" id="Fill-69" fill="#3D1717"></path>
        <path d="M138.745,167.964 C137.286,167.964 136.099,169.151 136.099,170.61 L136.099,174.467 C136.099,175.926 137.286,177.112 138.745,177.112 C140.204,177.112 141.39,175.926 141.39,174.467 L141.39,170.61 C141.39,169.151 140.204,167.964 138.745,167.964 Z M138.745,177.973 C136.812,177.973 135.238,176.4 135.238,174.467 L135.238,170.61 C135.238,168.676 136.812,167.103 138.745,167.103 C140.678,167.103 142.25,168.676 142.25,170.61 L142.25,174.467 C142.25,176.4 140.678,177.973 138.745,177.973 Z" id="Fill-70" fill="#3D1717"></path>
        <path d="M130.576,167.964 C129.117,167.964 127.931,169.151 127.931,170.61 L127.931,174.467 C127.931,175.926 129.117,177.112 130.576,177.112 C132.035,177.112 133.222,175.926 133.222,174.467 L133.222,170.61 C133.222,169.151 132.035,167.964 130.576,167.964 Z M130.576,177.973 C128.643,177.973 127.07,176.4 127.07,174.467 L127.07,170.61 C127.07,168.676 128.643,167.103 130.576,167.103 C132.509,167.103 134.083,168.676 134.083,170.61 L134.083,174.467 C134.083,176.4 132.509,177.973 130.576,177.973 Z" id="Fill-71" fill="#3D1717"></path>
        <path d="M122.408,167.964 C120.949,167.964 119.762,169.151 119.762,170.61 L119.762,172.746 C119.762,174.205 120.949,175.391 122.408,175.391 C123.867,175.391 125.053,174.205 125.053,172.746 L125.053,170.61 C125.053,169.151 123.867,167.964 122.408,167.964 Z M122.408,176.252 C120.474,176.252 118.901,174.679 118.901,172.746 L118.901,170.61 C118.901,168.676 120.474,167.103 122.408,167.103 C124.341,167.103 125.914,168.676 125.914,170.61 L125.914,172.746 C125.914,174.679 124.341,176.252 122.408,176.252 Z" id="Fill-72" fill="#3D1717"></path>
        <path d="M155.082,167.964 C153.623,167.964 152.436,169.151 152.436,170.61 L152.436,174.467 C152.436,175.926 153.623,177.112 155.082,177.112 C156.54,177.112 157.727,175.926 157.727,174.467 L157.727,170.61 C157.727,169.151 156.54,167.964 155.082,167.964 Z M155.082,177.973 C153.148,177.973 151.575,176.4 151.575,174.467 L151.575,170.61 C151.575,168.676 153.148,167.103 155.082,167.103 C157.015,167.103 158.587,168.676 158.587,170.61 L158.587,174.467 C158.587,176.4 157.015,177.973 155.082,177.973 Z" id="Fill-73" fill="#3D1717"></path>
        <path d="M163.25,167.964 C161.791,167.964 160.604,169.151 160.604,170.61 L160.604,174.467 C160.604,175.926 161.791,177.112 163.25,177.112 C164.708,177.112 165.896,175.926 165.896,174.467 L165.896,170.61 C165.896,169.151 164.708,167.964 163.25,167.964 Z M163.25,177.973 C161.316,177.973 159.744,176.4 159.744,174.467 L159.744,170.61 C159.744,168.676 161.316,167.103 163.25,167.103 C165.183,167.103 166.756,168.676 166.756,170.61 L166.756,174.467 C166.756,176.4 165.183,177.973 163.25,177.973 Z" id="Fill-74" fill="#3D1717"></path>
        <path d="M142.794,149.867 C126.634,149.867 113.533,157.124 113.533,166.076 C113.533,175.028 126.634,182.284 142.794,182.284 C158.955,182.284 172.056,175.028 172.056,166.076 C172.056,157.124 158.955,149.867 142.794,149.867 Z M142.794,155.314 C149.417,155.314 155.812,156.751 160.338,159.258 C163.956,161.263 166.031,163.748 166.031,166.076 C166.031,168.404 163.956,170.889 160.338,172.893 C155.812,175.401 149.417,176.838 142.794,176.838 C136.171,176.838 129.777,175.401 125.251,172.893 C121.633,170.889 119.558,168.404 119.558,166.076 C119.558,163.748 121.633,161.263 125.251,159.258 C129.777,156.751 136.171,155.314 142.794,155.314 Z" id="Fill-75" fill="#C06539"></path>
        <path d="M125.251,159.258 C129.58,156.861 135.621,155.456 141.934,155.337 C141.646,155.331 141.362,155.313 141.073,155.313 C134.45,155.313 128.056,156.751 123.53,159.258 C119.912,161.262 117.836,163.748 117.836,166.076 C117.836,168.404 119.912,170.889 123.53,172.893 C128.056,175.401 134.45,176.838 141.073,176.838 C141.362,176.838 141.646,176.82 141.934,176.815 C135.621,176.696 129.58,175.291 125.251,172.893 C121.633,170.889 119.558,168.404 119.558,166.076 C119.558,163.748 121.633,161.262 125.251,159.258" id="Fill-76" fill="#9B4B2C"></path>
        <path d="M142.794,149.867 C142.506,149.867 142.221,149.875 141.934,149.88 C157.695,150.133 170.334,157.284 170.334,166.076 C170.334,174.868 157.695,182.019 141.934,182.272 C142.221,182.277 142.506,182.284 142.794,182.284 C158.955,182.284 172.056,175.028 172.056,166.076 C172.056,157.124 158.955,149.867 142.794,149.867" id="Fill-77" fill="#9B4B2C"></path>
        <path d="M142.794,155.744 C136.242,155.744 129.924,157.162 125.459,159.635 C121.982,161.561 119.988,163.908 119.988,166.076 C119.988,168.243 121.982,170.591 125.459,172.517 C129.923,174.989 136.242,176.408 142.794,176.408 C149.347,176.408 155.666,174.989 160.129,172.517 C163.607,170.591 165.601,168.243 165.601,166.076 C165.601,163.908 163.607,161.561 160.129,159.635 C155.665,157.162 149.347,155.744 142.794,155.744 Z M142.794,177.269 C136.1,177.269 129.63,175.811 125.043,173.27 C121.284,171.187 119.127,168.565 119.127,166.076 C119.127,163.586 121.284,160.964 125.043,158.882 C129.63,156.341 136.101,154.883 142.794,154.883 C149.488,154.883 155.958,156.341 160.546,158.882 C164.306,160.964 166.462,163.586 166.462,166.076 C166.462,168.565 164.306,171.187 160.546,173.27 C155.959,175.811 149.489,177.269 142.794,177.269 Z M142.794,150.298 C126.897,150.298 113.963,157.376 113.963,166.076 C113.963,174.776 126.897,181.854 142.794,181.854 C158.692,181.854 171.625,174.776 171.625,166.076 C171.625,157.376 158.692,150.298 142.794,150.298 Z M142.794,182.715 C126.422,182.715 113.103,175.251 113.103,166.076 C113.103,156.902 126.422,149.437 142.794,149.437 C159.167,149.437 172.486,156.902 172.486,166.076 C172.486,175.251 159.167,182.715 142.794,182.715 Z" id="Fill-78" fill="#3D1717"></path>
        <path d="M169.019,176.549 C169.019,173.456 166.731,170.878 163.766,170.407 C162.998,171.149 162.049,171.867 160.928,172.538 L160.174,172.538 L160.174,170.61 C160.174,170.511 160.194,170.419 160.203,170.322 L158.128,170.322 C158.137,170.419 158.157,170.511 158.157,170.61 L158.157,172.538 L152.005,172.538 L152.005,170.61 C152.005,170.511 152.025,170.419 152.035,170.322 L149.959,170.322 C149.969,170.419 149.989,170.511 149.989,170.61 L149.989,172.538 L143.837,172.538 L143.837,170.61 C143.837,170.511 143.857,170.419 143.866,170.322 L141.792,170.322 C141.801,170.419 141.82,170.511 141.82,170.61 L141.82,172.538 L135.668,172.538 L135.668,170.61 C135.668,170.511 135.688,170.419 135.698,170.322 L133.623,170.322 C133.632,170.419 133.652,170.511 133.652,170.61 L133.652,172.538 L127.5,172.538 L127.5,170.61 C127.5,170.539 127.517,170.474 127.521,170.404 C126.794,170.518 126.106,170.753 125.483,171.097 L125.483,172.538 L123.729,172.538 C122.811,173.624 122.252,175.024 122.252,176.549 C122.252,176.674 122.264,176.796 122.271,176.92 C122.265,177.044 122.252,177.166 122.252,177.291 L122.252,211.462 C122.252,215.295 125.389,218.43 129.222,218.43 C130.9,218.43 132.445,217.829 133.652,216.83 L133.652,228.101 C133.652,231.933 136.788,235.07 140.621,235.07 C144.454,235.07 147.589,231.933 147.589,228.101 L147.589,201.351 C148.794,202.342 150.333,202.939 152.005,202.939 C155.838,202.939 158.974,199.803 158.974,195.97 L158.974,193.604 C159.904,194.066 160.946,194.333 162.05,194.333 C165.883,194.333 169.019,191.197 169.019,187.364 L169.019,177.291 C169.019,177.166 169.007,177.044 169,176.92 C169.007,176.796 169.019,176.674 169.019,176.549" id="Fill-79" fill="#F2BEBA"></path>
        <path d="M149.989,171.866 L152.005,171.866 L152.005,170.61 C152.005,170.511 152.025,170.419 152.035,170.322 L149.959,170.322 C149.969,170.419 149.989,170.511 149.989,170.61 L149.989,171.866" id="Fill-80" fill="#EB958E"></path>
        <path d="M133.652,171.866 L135.668,171.866 L135.668,170.61 C135.668,170.511 135.688,170.419 135.698,170.322 L133.623,170.322 C133.632,170.419 133.652,170.511 133.652,170.61 L133.652,171.866" id="Fill-81" fill="#EB958E"></path>
        <path d="M141.82,171.866 L143.837,171.866 L143.837,170.61 C143.837,170.511 143.857,170.419 143.866,170.322 L141.792,170.322 C141.801,170.419 141.82,170.511 141.82,170.61 L141.82,171.866" id="Fill-82" fill="#EB958E"></path>
        <path d="M158.157,171.866 L158.668,171.866 C159.212,171.541 159.713,171.204 160.174,170.86 L160.174,170.61 C160.174,170.511 160.194,170.419 160.203,170.322 L158.128,170.322 C158.137,170.419 158.157,170.511 158.157,170.61 L158.157,171.866" id="Fill-83" fill="#EB958E"></path>
        <path d="M156.735,192.479 L156.715,195.298 C156.715,199.131 153.579,202.267 149.746,202.267 C149.469,202.267 149.198,202.245 148.929,202.213 C149.858,202.675 150.902,202.939 152.005,202.939 C155.838,202.939 158.974,199.803 158.974,195.97 L158.995,193.159 C158.192,193.062 157.433,192.825 156.735,192.479" id="Fill-84" fill="#EB958E"></path>
        <path d="M127.5,171.866 L127.5,170.61 C127.5,170.539 127.517,170.474 127.521,170.404 C126.794,170.518 126.106,170.753 125.483,171.097 L125.483,171.866 L127.5,171.866" id="Fill-85" fill="#EB958E"></path>
        <path d="M169.019,176.549 C169.019,173.456 166.731,170.878 163.766,170.407 C163.731,170.44 163.691,170.473 163.655,170.507 C165.507,171.587 166.76,173.589 166.76,175.876 C166.76,176.001 166.748,176.124 166.741,176.247 C166.748,176.371 166.76,176.494 166.76,176.619 L166.76,186.692 C166.76,190.525 163.624,193.661 159.791,193.661 C159.521,193.661 159.256,193.644 158.995,193.613 C159.919,194.069 160.954,194.333 162.05,194.333 C165.883,194.333 169.019,191.197 169.019,187.364 L169.019,177.291 C169.019,177.166 169.007,177.044 169,176.92 C169.007,176.796 169.019,176.674 169.019,176.549" id="Fill-86" fill="#EB958E"></path>
        <path d="M145.331,199.693 L145.331,227.428 C145.331,231.261 142.194,234.397 138.362,234.397 C138.089,234.397 137.821,234.377 137.557,234.346 C138.484,234.804 139.521,235.07 140.621,235.07 C144.454,235.07 147.589,231.933 147.589,228.101 L147.589,200.931 C146.759,200.658 145.993,200.238 145.331,199.693" id="Fill-87" fill="#EB958E"></path>
        <path d="M134.079,214.989 C132.872,215.987 128.642,217.758 126.962,217.758 C126.69,217.758 126.422,217.738 126.157,217.708 C127.084,218.166 128.122,218.43 129.222,218.43 C129.98,218.43 133.394,217.133 134.079,216.906 L134.079,214.989" id="Fill-88" fill="#EB958E"></path>
        <path d="M133.652,216.4 C133.714,216.4 133.777,216.413 133.835,216.441 C133.986,216.511 134.083,216.663 134.083,216.83 L134.083,228.1 C134.083,231.706 137.016,234.639 140.621,234.639 C144.226,234.639 147.159,231.706 147.159,228.1 L147.159,201.35 C147.159,201.184 147.256,201.032 147.406,200.962 C147.557,200.891 147.735,200.913 147.863,201.018 C149.031,201.98 150.502,202.509 152.005,202.509 C155.611,202.509 158.544,199.576 158.544,195.971 L158.544,193.604 C158.544,193.456 158.621,193.317 158.747,193.239 C158.875,193.16 159.033,193.153 159.166,193.219 C160.079,193.673 161.05,193.903 162.05,193.903 C165.655,193.903 168.588,190.969 168.588,187.364 L168.588,177.291 C168.588,177.215 168.583,177.139 168.578,177.064 L168.57,176.943 L168.577,176.798 C168.583,176.715 168.588,176.633 168.588,176.549 C168.588,173.802 166.589,171.397 163.904,170.869 C163.13,171.59 162.205,172.276 161.148,172.908 C161.082,172.948 161.005,172.969 160.927,172.969 L160.174,172.969 C159.936,172.969 159.744,172.776 159.744,172.538 L159.744,170.753 L158.587,170.753 L158.587,172.538 C158.587,172.776 158.395,172.969 158.157,172.969 L152.005,172.969 C151.768,172.969 151.575,172.776 151.575,172.538 L151.575,170.753 L150.419,170.753 L150.419,172.538 C150.419,172.776 150.227,172.969 149.989,172.969 L143.837,172.969 C143.599,172.969 143.407,172.776 143.407,172.538 L143.407,170.753 L142.25,170.753 L142.25,172.538 C142.25,172.776 142.058,172.969 141.82,172.969 L135.668,172.969 C135.431,172.969 135.238,172.776 135.238,172.538 L135.238,170.753 L134.083,170.753 L134.083,172.538 C134.083,172.776 133.89,172.969 133.652,172.969 L127.5,172.969 C127.263,172.969 127.07,172.776 127.07,172.538 L127.07,170.934 C126.667,171.034 126.28,171.176 125.914,171.358 L125.914,172.538 C125.914,172.776 125.722,172.969 125.484,172.969 L123.934,172.969 C123.126,173.991 122.683,175.255 122.683,176.549 C122.683,176.629 122.688,176.707 122.694,176.786 L122.701,176.895 L122.693,177.064 C122.688,177.139 122.683,177.215 122.683,177.291 L122.683,211.462 C122.683,215.067 125.616,218 129.222,218 C130.731,218 132.208,217.467 133.377,216.498 C133.456,216.433 133.554,216.4 133.652,216.4 Z M140.621,235.5 C136.541,235.5 133.222,232.18 133.222,228.1 L133.222,217.677 C132.033,218.445 130.64,218.861 129.222,218.861 C125.142,218.861 121.822,215.542 121.822,211.462 L121.822,177.291 C121.822,177.195 121.829,177.1 121.835,177.006 L121.842,176.897 L121.835,176.845 C121.829,176.747 121.822,176.648 121.822,176.549 C121.822,174.986 122.383,173.463 123.401,172.26 C123.483,172.164 123.603,172.108 123.729,172.108 L125.053,172.108 L125.053,171.097 C125.053,170.941 125.138,170.797 125.275,170.721 C125.943,170.351 126.677,170.101 127.455,169.979 C127.581,169.959 127.715,169.999 127.812,170.087 C127.908,170.175 127.959,170.303 127.95,170.433 C127.95,170.443 127.939,170.538 127.938,170.548 L127.932,172.108 L133.222,172.108 L133.222,170.61 C133.222,170.566 133.215,170.525 133.209,170.483 L133.194,170.362 C133.184,170.241 133.224,170.122 133.305,170.032 C133.387,169.943 133.502,169.892 133.623,169.892 L135.698,169.892 C135.819,169.892 135.935,169.944 136.016,170.033 C136.098,170.123 136.138,170.243 136.126,170.364 L136.112,170.48 C136.106,170.523 136.099,170.565 136.099,170.61 L136.099,172.108 L141.39,172.108 L141.39,170.61 C141.39,170.565 141.383,170.523 141.377,170.48 L141.363,170.364 C141.352,170.243 141.392,170.123 141.473,170.033 C141.554,169.944 141.67,169.892 141.792,169.892 L143.866,169.892 C143.987,169.892 144.103,169.944 144.185,170.033 C144.266,170.123 144.306,170.243 144.294,170.364 L144.28,170.48 C144.274,170.523 144.268,170.565 144.268,170.61 L144.268,172.108 L149.559,172.108 L149.559,170.61 C149.559,170.565 149.551,170.523 149.545,170.48 L149.532,170.364 C149.52,170.243 149.56,170.123 149.641,170.033 C149.723,169.944 149.838,169.892 149.96,169.892 L152.005,169.892 C152.127,169.892 152.257,169.944 152.339,170.033 C152.42,170.123 152.475,170.243 152.463,170.364 L152.449,170.48 C152.443,170.523 152.436,170.565 152.436,170.61 L152.436,172.108 L157.727,172.108 L157.727,170.61 C157.727,170.566 157.72,170.525 157.714,170.483 L157.7,170.362 C157.688,170.241 157.729,170.122 157.81,170.032 C157.892,169.943 158.007,169.892 158.128,169.892 L160.203,169.892 C160.324,169.892 160.439,169.943 160.521,170.032 C160.603,170.122 160.643,170.241 160.631,170.362 L160.617,170.483 C160.611,170.525 160.604,170.566 160.604,170.61 L160.604,172.108 L160.808,172.108 C161.839,171.483 162.733,170.806 163.467,170.098 C163.563,170.004 163.697,169.958 163.833,169.982 C167.035,170.491 169.449,173.314 169.449,176.549 C169.449,176.653 169.442,176.755 169.435,176.857 L169.429,176.946 L169.437,177.006 C169.443,177.1 169.449,177.195 169.449,177.291 L169.449,187.364 C169.449,191.445 166.13,194.763 162.05,194.763 C161.141,194.763 160.253,194.596 159.404,194.265 L159.404,195.971 C159.404,200.05 156.085,203.37 152.005,203.37 C150.593,203.37 149.207,202.957 148.02,202.195 L148.02,228.1 C148.02,232.18 144.701,235.5 140.621,235.5 Z" id="Fill-89" fill="#3D1717"></path>
        <path d="M193.948,62.587 C193.954,62.579 193.959,62.571 193.965,62.564 L193.946,62.582 C191.473,57.451 188.264,53.53 188.264,53.53 C186.771,46.505 182.233,47.393 182.233,47.393 C181.991,40.305 175.606,40.815 175.606,40.815 C173.809,37.127 168.936,35.805 168.936,35.805 C159.318,32.655 158.665,38.696 158.665,38.696 L158.963,38.866 L153.336,43.15 C153.719,43.995 154.247,44.789 154.939,45.482 C155.763,46.305 156.729,46.902 157.756,47.286 C158.001,50.011 159.096,52.591 159.096,52.591 L159.202,52.56 C157.012,55.663 157.295,60.008 160.066,62.779 C163.01,65.723 167.731,65.861 170.851,63.208 C168.196,66.326 168.335,71.048 171.279,73.991 C173.786,76.499 177.584,76.974 180.583,75.421 C180.583,75.421 182.188,74.339 182.527,74 L186.275,74 C186.393,75.867 187.158,77.699 188.577,79.118 C189.317,79.859 190.172,80.417 191.083,80.803 L196.667,74.576 C197.137,70.627 195.734,66.292 193.948,62.587" id="Fill-90" fill="#F2BEBA"></path>
        <path d="M170.185,41.332 C170.486,41.772 170.717,42.256 170.957,42.732 C171.808,44.425 172.784,46.056 173.875,47.607 C174.051,47.857 174.307,48.137 174.605,48.067 C174.736,48.035 174.84,47.941 174.939,47.849 C175.39,47.43 175.855,46.988 176.069,46.411 C176.229,45.98 176.233,45.508 176.221,45.048 C176.201,44.35 176.146,43.652 176.057,42.959 C174.864,42.788 173.964,41.837 173.102,40.996 C172.621,40.529 172.123,40.079 171.608,39.65 C171.196,39.305 170.762,38.968 170.255,38.791 C169.745,38.613 169.192,38.609 168.653,38.638 C167.709,38.691 166.772,38.846 165.861,39.096 C167.551,39.075 169.229,39.937 170.185,41.332" id="Fill-91" fill="#EB958E"></path>
        <path d="M165.861,39.096 C165.828,39.096 165.795,39.091 165.762,39.092 L165.82,39.105 C165.834,39.101 165.848,39.1 165.861,39.096" id="Fill-92" fill="#EB958E"></path>
        <path d="M183.005,65.752 L182.102,67.714 L181.749,74.132 L184.981,74.132 C184.981,74.132 185.161,71.622 185.161,67.893 C185.161,64.163 183.005,65.752 183.005,65.752" id="Fill-93" fill="#EB958E"></path>
        <path d="M196.507,70.157 L194.86,64.053 L190.665,56.83 L188.264,53.53 L188.278,57.849 L187.743,59.868 L186.197,61.184 L187.599,62.693 L187.868,64.845 L187.96,64.952 L187.136,67.346 L186.512,69.924 L186.702,70.373 L187.635,70.19 C187.635,70.19 189.973,68.825 190.042,67.419 L190.127,68.879 L190.103,69.251 C190.103,69.251 191.353,78.363 196.71,74.132 L196.507,70.157" id="Fill-94" fill="#EB958E"></path>
        <path d="M186.182,48.971 C184.264,46.09 182.233,47.393 182.233,47.393 L185.463,54.266 C185.463,54.266 188.101,51.853 186.182,48.971" id="Fill-95" fill="#EB958E"></path>
        <path d="M181.079,54.266 C181.079,54.266 171.785,51.971 168.844,47.931 C165.904,43.892 165.812,47.931 165.812,47.931 L166.978,49.965 L170.394,52.007 L181.079,54.266" id="Fill-96" fill="#EB958E"></path>
        <path d="M182.233,55.59 L180.514,58.193 L176.638,60.63 L170.394,61.184 C170.394,61.184 176.291,67.099 180.421,64.053 C184.551,61.008 182.233,55.59 182.233,55.59" id="Fill-97" fill="#EB958E"></path>
        <path d="M175.098,48.498 C175.034,48.498 174.968,48.484 174.906,48.453 C174.693,48.346 174.607,48.088 174.714,47.875 C175.972,45.36 176.172,43.107 175.31,41.181 C173.698,37.581 168.872,36.234 168.823,36.22 C165.291,35.065 162.534,35.037 160.832,36.136 C159.283,37.136 159.094,38.726 159.093,38.742 C159.067,38.978 158.852,39.144 158.619,39.124 C158.382,39.098 158.211,38.886 158.237,38.65 C158.246,38.568 158.475,36.633 160.365,35.414 C162.321,34.152 165.249,34.145 169.07,35.396 C169.262,35.447 174.311,36.851 176.093,40.825 C177.069,42.999 176.863,45.501 175.483,48.26 C175.408,48.411 175.256,48.498 175.098,48.498" id="Fill-98" fill="#3D1717"></path>
        <path d="M159.096,53.022 C158.929,53.022 158.77,52.923 158.7,52.76 C158.538,52.38 154.802,43.422 160.079,41.089 L161.25,40.564 C165.534,38.635 168.364,37.362 170.616,41.266 C170.961,41.865 171.299,42.488 171.634,43.105 C172.868,45.378 174.144,47.728 175.307,47.842 C175.704,47.884 176.105,47.644 176.542,47.118 C176.694,46.935 176.964,46.91 177.147,47.062 C177.331,47.214 177.355,47.485 177.204,47.668 C176.58,48.42 175.912,48.771 175.223,48.699 C173.605,48.54 172.341,46.211 170.877,43.515 C170.547,42.905 170.212,42.288 169.871,41.696 C168.078,38.589 166.158,39.299 161.603,41.349 L160.426,41.875 C155.917,43.869 159.456,52.338 159.492,52.422 C159.585,52.642 159.483,52.894 159.265,52.987 C159.209,53.01 159.152,53.022 159.096,53.022" id="Fill-99" fill="#3D1717"></path>
        <path d="M172.974,61.626 C171.037,61.626 169.6,61.231 169.472,61.194 C169.243,61.13 169.111,60.892 169.176,60.663 C169.24,60.434 169.478,60.302 169.707,60.367 C169.772,60.385 176.23,62.149 180.2,57.9 C181.399,56.615 181.93,55.736 181.777,55.287 C181.535,54.575 179.396,54.217 176.688,53.766 C175.456,53.56 174.06,53.327 172.493,53.013 C169.23,52.359 167.025,51.115 165.939,49.315 C164.849,47.507 165.328,45.825 165.349,45.754 C165.416,45.526 165.657,45.397 165.883,45.463 C166.11,45.53 166.241,45.769 166.174,45.996 C166.158,46.053 165.786,47.41 166.686,48.888 C167.646,50.463 169.657,51.567 172.662,52.169 C174.215,52.48 175.604,52.712 176.83,52.917 C180.283,53.493 182.185,53.81 182.592,55.01 C182.873,55.838 182.362,56.845 180.829,58.487 C178.448,61.037 175.338,61.626 172.974,61.626" id="Fill-100" fill="#3D1717"></path>
        <path d="M186.912,70.802 C186.746,70.802 186.584,70.76 186.441,70.657 C185.848,70.234 185.967,69.117 186.837,66.926 C187.556,65.117 187.664,63.65 187.149,62.683 C186.684,61.81 185.847,61.607 185.839,61.605 C185.637,61.561 185.495,61.38 185.5,61.173 C185.505,60.967 185.657,60.793 185.86,60.76 C185.893,60.754 186.745,60.589 187.407,59.601 C188.255,58.336 188.406,56.267 187.843,53.62 C186.454,47.084 182.355,47.807 182.315,47.816 C182.189,47.841 182.063,47.808 181.965,47.73 C181.866,47.652 181.807,47.534 181.803,47.408 C181.731,45.315 181.096,43.718 179.915,42.664 C178.123,41.067 175.666,41.24 175.641,41.244 C175.409,41.259 175.197,41.086 175.178,40.849 C175.159,40.612 175.336,40.404 175.573,40.386 C175.688,40.377 178.425,40.181 180.488,42.022 C181.764,43.16 182.486,44.812 182.64,46.934 C182.652,46.934 182.665,46.934 182.678,46.934 C183.998,46.934 187.427,47.526 188.686,53.441 C189.311,56.383 189.114,58.628 188.101,60.111 C187.74,60.639 187.33,60.985 186.967,61.209 C187.293,61.44 187.644,61.78 187.909,62.278 C188.555,63.492 188.463,65.163 187.637,67.244 C186.724,69.543 186.952,69.961 186.962,69.977 C187.045,69.964 187.485,69.721 187.798,69.454 C187.978,69.3 188.25,69.321 188.404,69.502 C188.559,69.682 188.538,69.954 188.357,70.108 C188.134,70.298 187.49,70.802 186.912,70.802" id="Fill-101" fill="#3D1717"></path>
        <path d="M185.463,55.44 C185.285,55.44 185.119,55.329 185.057,55.151 C185.025,55.059 181.822,45.922 178.473,43.271 C178.287,43.124 178.255,42.853 178.403,42.666 C178.551,42.48 178.821,42.448 179.008,42.596 C182.552,45.403 185.736,54.483 185.87,54.868 C185.948,55.093 185.829,55.338 185.604,55.416 C185.558,55.432 185.51,55.44 185.463,55.44" id="Fill-102" fill="#3D1717"></path>
        <path d="M182.233,74.431 C181.995,74.431 181.803,74.238 181.803,74.001 C181.803,73.763 181.995,73.57 182.233,73.57 L187.144,73.57 C187.178,73.564 188.946,73.323 189.615,69.592 C190.289,65.835 187.771,64.917 187.746,64.908 C187.521,64.83 187.402,64.585 187.48,64.36 C187.558,64.136 187.802,64.018 188.027,64.094 C188.06,64.106 191.264,65.271 190.462,69.744 C189.666,74.182 187.279,74.422 187.178,74.429 L182.233,74.431" id="Fill-103" fill="#3D1717"></path>
        <path d="M180.42,76.31 C180.208,76.31 180.023,76.152 179.994,75.936 C179.963,75.7 180.128,75.484 180.364,75.453 C180.361,75.452 181.837,75.064 181.672,70.388 C181.475,64.843 184.218,64.112 184.334,64.083 C184.564,64.025 184.798,64.169 184.854,64.4 C184.91,64.629 184.771,64.86 184.543,64.918 C184.5,64.931 182.363,65.599 182.532,70.358 C182.727,75.847 180.708,76.275 180.478,76.306 C180.458,76.308 180.439,76.31 180.42,76.31" id="Fill-104" fill="#3D1717"></path>
        <path d="M196.667,75.007 C196.65,75.007 196.633,75.006 196.616,75.004 C196.38,74.976 196.211,74.762 196.239,74.526 C197.326,65.393 188.026,53.918 187.932,53.803 C187.781,53.619 187.808,53.348 187.992,53.197 C188.175,53.046 188.447,53.074 188.597,53.257 C188.991,53.738 198.224,65.134 197.094,74.628 C197.068,74.846 196.882,75.007 196.667,75.007" id="Fill-105" fill="#3D1717"></path>
        <path d="M194.614,76.31 C194.482,76.31 194.352,76.249 194.267,76.134 C193.09,74.538 192.635,72.955 192.914,71.432 C193.177,69.992 194.039,68.943 194.677,68.341 C192.285,67.62 192.065,65.639 191.868,63.87 C191.801,63.263 191.731,62.637 191.582,62.059 C191.003,59.806 188.21,59.24 188.183,59.235 C187.949,59.19 187.797,58.964 187.842,58.731 C187.887,58.498 188.116,58.347 188.346,58.39 C188.483,58.417 191.703,59.071 192.416,61.844 C192.579,62.481 192.652,63.138 192.724,63.774 C192.943,65.753 193.118,67.316 195.702,67.684 C195.879,67.709 196.022,67.842 196.061,68.017 C196.099,68.193 196.025,68.373 195.875,68.471 C195.857,68.483 194.113,69.639 193.759,71.595 C193.527,72.873 193.932,74.229 194.96,75.624 C195.101,75.816 195.06,76.085 194.869,76.226 C194.792,76.282 194.703,76.31 194.614,76.31" id="Fill-106" fill="#3D1717"></path>
        <path d="M182.527,73.57 L186.275,73.57 C186.503,73.57 186.69,73.747 186.705,73.974 C186.82,75.807 187.592,77.526 188.881,78.814 C189.487,79.421 190.19,79.914 190.972,80.282 L196.254,74.392 C196.607,71.123 195.701,67.215 193.561,62.774 C193.559,62.771 193.558,62.768 193.557,62.764 C191.136,57.745 187.963,53.842 187.931,53.803 C187.888,53.75 187.857,53.687 187.843,53.62 C186.454,47.084 182.355,47.807 182.315,47.816 C182.191,47.839 182.064,47.809 181.965,47.73 C181.866,47.652 181.807,47.534 181.803,47.408 C181.731,45.315 181.096,43.718 179.915,42.664 C178.123,41.067 175.666,41.24 175.641,41.244 C175.468,41.258 175.297,41.162 175.22,41.004 C173.527,37.53 168.87,36.234 168.823,36.22 C165.291,35.065 162.534,35.037 160.832,36.136 C159.666,36.889 159.271,37.977 159.146,38.475 L159.176,38.492 C159.301,38.563 159.383,38.693 159.392,38.837 C159.402,38.981 159.338,39.12 159.223,39.208 L153.875,43.28 C154.235,43.991 154.694,44.628 155.244,45.177 C155.996,45.929 156.892,46.504 157.907,46.883 C158.062,46.942 158.17,47.083 158.185,47.248 C158.378,49.396 159.122,51.474 159.393,52.174 C159.455,52.205 159.51,52.251 159.552,52.31 C159.658,52.459 159.659,52.659 159.554,52.808 C157.432,55.815 157.775,59.88 160.371,62.475 C163.123,65.228 167.604,65.405 170.571,62.88 C170.741,62.735 170.996,62.744 171.154,62.903 C171.313,63.062 171.323,63.316 171.178,63.486 C168.652,66.454 168.831,70.935 171.583,73.688 C173.912,76.017 177.449,76.56 180.385,75.039 C180.95,74.654 181.997,73.921 182.223,73.696 C182.304,73.615 182.413,73.57 182.527,73.57 Z M191.083,81.234 C191.026,81.234 190.97,81.223 190.916,81.199 C189.918,80.777 189.028,80.179 188.272,79.423 C186.931,78.081 186.09,76.321 185.881,74.431 L182.691,74.431 C182.188,74.855 180.974,75.676 180.823,75.777 C177.511,77.496 173.569,76.89 170.974,74.296 C168.411,71.732 167.851,67.823 169.379,64.679 C166.233,66.207 162.325,65.646 159.762,63.084 C156.958,60.279 156.512,55.935 158.643,52.62 C158.417,52.059 157.608,49.921 157.354,47.591 C156.326,47.17 155.412,46.563 154.635,45.786 C153.934,45.085 153.365,44.257 152.944,43.328 C152.861,43.145 152.916,42.929 153.075,42.808 L158.265,38.856 C158.24,38.792 158.229,38.721 158.237,38.65 C158.246,38.568 158.475,36.633 160.365,35.414 C162.321,34.152 165.249,34.145 169.07,35.396 C169.251,35.444 173.918,36.747 175.866,40.377 C175.872,40.377 175.878,40.377 175.884,40.377 C177.157,40.377 182.199,40.77 182.64,46.934 C183.883,46.924 187.375,47.461 188.664,53.34 C189.135,53.932 192.022,57.632 194.287,62.297 C194.337,62.357 194.371,62.427 194.385,62.501 C196.591,67.112 197.503,71.191 197.094,74.628 C197.083,74.715 197.046,74.798 196.987,74.864 L191.403,81.09 C191.32,81.183 191.203,81.234 191.083,81.234 Z" id="Fill-107" fill="#3D1717"></path>
    </g>
</svg>