<?xml version="1.0" encoding="utf-8"?>
<!-- Generator: Adobe Illustrator 22.1.0, SVG Export Plug-In . SVG Version: 6.00 Build 0)  -->
<svg version="1.1" id="Layer_1" xmlns="http://www.w3.org/2000/svg" xmlns:xlink="http://www.w3.org/1999/xlink" x="0px" y="0px"
	 viewBox="0 0 1920 1090" style="enable-background:new 0 0 1920 1090;" xml:space="preserve">
<style type="text/css">
	.st0{fill:#F5F5F5;}
	.st1{fill:#867A75;}
	.st2{fill:#6C615B;}
	.st3{fill:#FFFBEF;}
	.st4{fill:#D9D1C4;}
	.st5{fill:#3D1717;}
	.st6{fill:#7E3BEB;}
	.st7{fill:none;stroke:#3D1717;stroke-linecap:round;stroke-linejoin:round;}
	.st8{fill:#ECA6A9;}
	.st9{fill:#3C1919;}
	.st10{fill:#EE509A;}
	.st11{fill:none;stroke:#3C1919;}
	.st12{fill:#E2625C;}
	.st13{fill:#C68572;}
	.st14{fill:#F6F1D7;}
	.st15{fill:#AB6E63;}
	.st16{fill:#E2DCC0;}
	.st17{filter:url(#Adobe_OpacityMaskFilter);}
	.st18{fill:#FFFFFF;}
	.st19{mask:url(#mask-2_2_);fill:#0FBDDC;}
	.st20{filter:url(#Adobe_OpacityMaskFilter_1_);}
	.st21{mask:url(#mask-4_2_);fill:#0FBDDC;}
	.st22{filter:url(#Adobe_OpacityMaskFilter_2_);}
	.st23{mask:url(#mask-6_2_);fill:#0FBDDC;}
	.st24{filter:url(#Adobe_OpacityMaskFilter_3_);}
	.st25{mask:url(#mask-8_2_);fill:#0FBDDC;}
	.st26{filter:url(#Adobe_OpacityMaskFilter_4_);}
	.st27{mask:url(#mask-10_2_);fill:#0FBDDC;}
	.st28{filter:url(#Adobe_OpacityMaskFilter_5_);}
	.st29{mask:url(#mask-12_2_);fill:#0FBDDC;}
	.st30{filter:url(#Adobe_OpacityMaskFilter_6_);}
	.st31{mask:url(#mask-14_2_);fill:#0FBDDC;}
	.st32{filter:url(#Adobe_OpacityMaskFilter_7_);}
	.st33{mask:url(#mask-16_2_);fill:#0FBDDC;}
	.st34{filter:url(#Adobe_OpacityMaskFilter_8_);}
	.st35{mask:url(#mask-18_2_);fill:#0FBDDC;}
	.st36{filter:url(#Adobe_OpacityMaskFilter_9_);}
	.st37{mask:url(#mask-20_2_);fill:#0FBDDC;}
	.st38{filter:url(#Adobe_OpacityMaskFilter_10_);}
	.st39{mask:url(#mask-22_2_);fill:#0FBDDC;}
	.st40{filter:url(#Adobe_OpacityMaskFilter_11_);}
	.st41{mask:url(#mask-24_2_);fill:#0FBDDC;}
	.st42{filter:url(#Adobe_OpacityMaskFilter_12_);}
	.st43{mask:url(#mask-26_2_);fill:#0FBDDC;}
	.st44{filter:url(#Adobe_OpacityMaskFilter_13_);}
	.st45{mask:url(#mask-28_2_);fill:#0FBDDC;}
	.st46{filter:url(#Adobe_OpacityMaskFilter_14_);}
	.st47{mask:url(#mask-30_2_);fill:#0FBDDC;}
	.st48{filter:url(#Adobe_OpacityMaskFilter_15_);}
	.st49{mask:url(#mask-32_2_);fill:#0FBDDC;}
	.st50{filter:url(#Adobe_OpacityMaskFilter_16_);}
	.st51{mask:url(#mask-34_2_);fill:#0FBDDC;}
	.st52{filter:url(#Adobe_OpacityMaskFilter_17_);}
	.st53{mask:url(#mask-36_2_);fill:#0FBDDC;}
	.st54{filter:url(#Adobe_OpacityMaskFilter_18_);}
	.st55{mask:url(#mask-38_2_);fill:#0FBDDC;}
	.st56{filter:url(#Adobe_OpacityMaskFilter_19_);}
	.st57{mask:url(#mask-40_2_);fill:#0FBDDC;}
	.st58{filter:url(#Adobe_OpacityMaskFilter_20_);}
	.st59{mask:url(#mask-42_2_);fill:#0FBDDC;}
	.st60{filter:url(#Adobe_OpacityMaskFilter_21_);}
	.st61{mask:url(#mask-44_2_);fill:#0FBDDC;}
	.st62{filter:url(#Adobe_OpacityMaskFilter_22_);}
	.st63{mask:url(#mask-46_2_);fill:#0FBDDC;}
	.st64{filter:url(#Adobe_OpacityMaskFilter_23_);}
	.st65{mask:url(#mask-48_2_);fill:#0FBDDC;}
	.st66{filter:url(#Adobe_OpacityMaskFilter_24_);}
	.st67{mask:url(#mask-50_2_);fill:#0FBDDC;}
	.st68{filter:url(#Adobe_OpacityMaskFilter_25_);}
	.st69{mask:url(#mask-52_2_);fill:#0FBDDC;}
	.st70{filter:url(#Adobe_OpacityMaskFilter_26_);}
	.st71{mask:url(#mask-54_2_);fill:#0FBDDC;}
	.st72{filter:url(#Adobe_OpacityMaskFilter_27_);}
	.st73{mask:url(#mask-56_2_);fill:#0FBDDC;}
	.st74{filter:url(#Adobe_OpacityMaskFilter_28_);}
	.st75{mask:url(#mask-58_2_);fill:#0FBDDC;}
	.st76{filter:url(#Adobe_OpacityMaskFilter_29_);}
	.st77{mask:url(#mask-60_2_);fill:#0FBDDC;}
	.st78{filter:url(#Adobe_OpacityMaskFilter_30_);}
	.st79{mask:url(#mask-62_2_);fill:#0FBDDC;}
	.st80{filter:url(#Adobe_OpacityMaskFilter_31_);}
	.st81{mask:url(#mask-64_2_);fill:#0FBDDC;}
	.st82{filter:url(#Adobe_OpacityMaskFilter_32_);}
	.st83{mask:url(#mask-66_2_);fill:#0FBDDC;}
	.st84{filter:url(#Adobe_OpacityMaskFilter_33_);}
	.st85{mask:url(#mask-68_2_);fill:#0FBDDC;}
	.st86{filter:url(#Adobe_OpacityMaskFilter_34_);}
	.st87{mask:url(#mask-70_2_);fill:#0FBDDC;}
	.st88{filter:url(#Adobe_OpacityMaskFilter_35_);}
	.st89{mask:url(#mask-72_2_);fill:#0FBDDC;}
	.st90{filter:url(#Adobe_OpacityMaskFilter_36_);}
	.st91{mask:url(#mask-74_2_);fill:#0FBDDC;}
	.st92{fill:#0FBDDC;}
	.st93{filter:url(#Adobe_OpacityMaskFilter_37_);}
	.st94{mask:url(#mask-2_1_);fill:#0FBDDC;}
	.st95{filter:url(#Adobe_OpacityMaskFilter_38_);}
	.st96{mask:url(#mask-4_1_);fill:#0FBDDC;}
	.st97{filter:url(#Adobe_OpacityMaskFilter_39_);}
	.st98{mask:url(#mask-6_1_);fill:#0FBDDC;}
	.st99{filter:url(#Adobe_OpacityMaskFilter_40_);}
	.st100{mask:url(#mask-8_1_);fill:#0FBDDC;}
	.st101{filter:url(#Adobe_OpacityMaskFilter_41_);}
	.st102{mask:url(#mask-10_1_);fill:#0FBDDC;}
	.st103{filter:url(#Adobe_OpacityMaskFilter_42_);}
	.st104{mask:url(#mask-12_1_);fill:#0FBDDC;}
	.st105{filter:url(#Adobe_OpacityMaskFilter_43_);}
	.st106{mask:url(#mask-14_1_);fill:#0FBDDC;}
	.st107{filter:url(#Adobe_OpacityMaskFilter_44_);}
	.st108{mask:url(#mask-16_1_);fill:#0FBDDC;}
	.st109{filter:url(#Adobe_OpacityMaskFilter_45_);}
	.st110{mask:url(#mask-18_1_);fill:#0FBDDC;}
	.st111{filter:url(#Adobe_OpacityMaskFilter_46_);}
	.st112{mask:url(#mask-20_1_);fill:#0FBDDC;}
	.st113{filter:url(#Adobe_OpacityMaskFilter_47_);}
	.st114{mask:url(#mask-22_1_);fill:#0FBDDC;}
	.st115{filter:url(#Adobe_OpacityMaskFilter_48_);}
	.st116{mask:url(#mask-24_1_);fill:#0FBDDC;}
	.st117{filter:url(#Adobe_OpacityMaskFilter_49_);}
	.st118{mask:url(#mask-26_1_);fill:#0FBDDC;}
	.st119{filter:url(#Adobe_OpacityMaskFilter_50_);}
	.st120{mask:url(#mask-28_1_);fill:#0FBDDC;}
	.st121{filter:url(#Adobe_OpacityMaskFilter_51_);}
	.st122{mask:url(#mask-30_1_);fill:#0FBDDC;}
	.st123{filter:url(#Adobe_OpacityMaskFilter_52_);}
	.st124{mask:url(#mask-32_1_);fill:#0FBDDC;}
	.st125{filter:url(#Adobe_OpacityMaskFilter_53_);}
	.st126{mask:url(#mask-34_1_);fill:#0FBDDC;}
	.st127{filter:url(#Adobe_OpacityMaskFilter_54_);}
	.st128{mask:url(#mask-36_1_);fill:#0FBDDC;}
	.st129{filter:url(#Adobe_OpacityMaskFilter_55_);}
	.st130{mask:url(#mask-38_1_);fill:#0FBDDC;}
	.st131{filter:url(#Adobe_OpacityMaskFilter_56_);}
	.st132{mask:url(#mask-40_1_);fill:#0FBDDC;}
	.st133{filter:url(#Adobe_OpacityMaskFilter_57_);}
	.st134{mask:url(#mask-42_1_);fill:#0FBDDC;}
	.st135{filter:url(#Adobe_OpacityMaskFilter_58_);}
	.st136{mask:url(#mask-44_1_);fill:#0FBDDC;}
	.st137{filter:url(#Adobe_OpacityMaskFilter_59_);}
	.st138{mask:url(#mask-46_1_);fill:#0FBDDC;}
	.st139{filter:url(#Adobe_OpacityMaskFilter_60_);}
	.st140{mask:url(#mask-48_1_);fill:#0FBDDC;}
	.st141{filter:url(#Adobe_OpacityMaskFilter_61_);}
	.st142{mask:url(#mask-50_1_);fill:#0FBDDC;}
	.st143{filter:url(#Adobe_OpacityMaskFilter_62_);}
	.st144{mask:url(#mask-52_1_);fill:#0FBDDC;}
	.st145{filter:url(#Adobe_OpacityMaskFilter_63_);}
	.st146{mask:url(#mask-54_1_);fill:#0FBDDC;}
	.st147{filter:url(#Adobe_OpacityMaskFilter_64_);}
	.st148{mask:url(#mask-56_1_);fill:#0FBDDC;}
	.st149{filter:url(#Adobe_OpacityMaskFilter_65_);}
	.st150{mask:url(#mask-58_1_);fill:#0FBDDC;}
	.st151{filter:url(#Adobe_OpacityMaskFilter_66_);}
	.st152{mask:url(#mask-60_1_);fill:#0FBDDC;}
	.st153{filter:url(#Adobe_OpacityMaskFilter_67_);}
	.st154{mask:url(#mask-62_1_);fill:#0FBDDC;}
	.st155{filter:url(#Adobe_OpacityMaskFilter_68_);}
	.st156{mask:url(#mask-64_1_);fill:#0FBDDC;}
	.st157{filter:url(#Adobe_OpacityMaskFilter_69_);}
	.st158{mask:url(#mask-66_1_);fill:#0FBDDC;}
	.st159{filter:url(#Adobe_OpacityMaskFilter_70_);}
	.st160{mask:url(#mask-68_1_);fill:#0FBDDC;}
	.st161{filter:url(#Adobe_OpacityMaskFilter_71_);}
	.st162{mask:url(#mask-70_1_);fill:#0FBDDC;}
	.st163{filter:url(#Adobe_OpacityMaskFilter_72_);}
	.st164{mask:url(#mask-72_1_);fill:#0FBDDC;}
	.st165{filter:url(#Adobe_OpacityMaskFilter_73_);}
	.st166{mask:url(#mask-74_1_);fill:#0FBDDC;}
</style>
<title>9. Insider-tips</title>
<desc>Created with Sketch.</desc>
<g id="_x39_.-Insider-tips" transform="translate(0.000000, -4826.000000)">
	<g transform="translate(-197.000000, 4826.000000)">
		<rect id="Background" x="197" y="1.2" class="st0" width="1920" height="1090"/>
		
			<g id="Group" transform="translate(1846.000000, 120.500000) rotate(-180.000000) translate(-1846.000000, -120.500000) translate(1778.000000, 0.000000)">
			<path id="Fill-12" class="st1" d="M87.4,29.1c-4.2-5.2-9.6-9-16.1-10.6c-10.9-2.8-22.2,1.1-30.9,9.4C35.5,22.7,19.6,7.3,0.7,6.8
				C0.3,6.8,0.1,7,0.1,7.3C0,7.7-2.3,43,26.4,53c-0.6,2.7-1,5.5-1.2,8.2C15.5,61.7,7,63.7,4,68.6c-9.1,14.9-1.1,59.7,9.4,96.7
				c15.7,55.5,49.3,77.8,53.5,79c1.5,0.4,2.6,0.3,3.2-0.5c1.3-1.5-0.3-4.8-0.6-5.5c-0.1-0.3-0.5-0.4-0.7-0.3
				c-0.3,0.1-0.5,0.4-0.4,0.7c0.5,2.5,0.2,2.9,0.2,2.9c0,0-0.2,0-0.7-0.2c-0.6-0.2-2.5-1.3-3.1-5.9c-0.7-5.3,1.9-9.9,3-11.6
				c9.6,14.9,17.6,22.7,23.3,22.7c3.4-0.2,4.6-2.6,4.7-2.7c0.1-0.3,0.1-0.6-0.2-0.8c-0.2-0.2-0.6-0.2-0.8,0c-1.1,1-2.7,2-4,1.3
				c-1.9-1-2.7-5.6-2-11.4c1.2-8.9,9.4-12.2,9.5-12.3c0.3-0.1,0.5-0.4,0.4-0.8c-9.1-28.9-1.7-88.4,15.5-124.9
				c3.8-8.1,3.9-14.8,0.3-19.9c-3.8-5.4-11.2-8.4-19.1-10c0.4-2,0.6-4,0.8-6C133.2,49.1,133,20.9,133,20.6c0-0.2-0.1-0.5-0.4-0.5
				c-0.8-0.4-0.9-0.6-0.9-0.6c0.1-0.3,1.5-0.9,2.8-1.2c0.3-0.1,0.5-0.3,0.5-0.6c0-0.3-0.2-0.5-0.5-0.6
				C110.2,13.3,91.6,25.9,87.4,29.1z"/>
			<path id="Fill-13" class="st2" d="M80.9,58.2c-0.8,2-6.3,2.5-20.6,0.9C51,58,47.6,56.2,46.5,54.8l-0.5,0c0,0,1.5,6.5,16.3,6.9
				c14.9,0.4,17.8-0.3,18.7-3.4L80.9,58.2"/>
			<path id="Fill-14" class="st2" d="M34.9,79.8c0,0-7.7,40.9,0.1,78.8c7.8,37.9,23.8,62.5,23.8,62.5S29.5,184.6,22,148.9
				c0,0,8,50,43.8,89.9v0c-0.3-0.8-0.6-1.8-0.7-3.1c-0.7-5.3,1.9-9.9,3-11.7c-27.6-42.4-33.6-91.3-34-121.2
				C33.5,95.4,33.7,87.7,34.9,79.8"/>
			<path id="Fill-15" class="st2" d="M68,224.6c0.3,0.7,0.7,1.4,1,2.2c0-0.1-0.4-1.6-1-4L68,224.6"/>
			<path id="Fill-16" class="st2" d="M114.3,74.9c-3.8-5.4-11.3-8.4-19.3-10.1c0.1-0.5,0.1-0.9,0.2-1.4c0,0,0,0,0,0l0.6-4.6
				c0,0,11.4-6.8,12-19.1c0.6-12.4-19-7.2-19-7.2l-2.3-4.6c-4.2-5-9.5-8.6-15.9-10.2c-4.6-1.2-9.3-1.1-13.8-0.1l3.1,0.7
				c0,0,15.1,2.6,21.4,25.8c-3.6-0.2-6.1,1.3-6.1,1.3s3.4,0.6,6.6,1c1.3,5.5,2.1,12.1,2.1,20c0,0,10.4,3,12.2,1.3
				c7.4,3.7-10.8,12.2-10.8,12.2c23.9-4.9,10.1,24,4.7,53.4c-5.4,29.4-1.9,69.9-1.9,69.9c-18.1-39.3-19-95.8-19-95.8
				c-13.3,45.8,19,131.4,19,131.4c-0.1-1.6,0-3.5,0.3-5.4c1.2-8.9,9.5-12.3,9.6-12.3c0.3-0.1,0.5-0.5,0.4-0.8
				c-9.2-29-1.7-88.7,15.7-125.4C117.9,86.8,118,80,114.3,74.9"/>
			<path id="Fill-17" class="st3" d="M71,44.9c0,0,11.1-6.7,18.8,0.9c0,0,2.2-7.5-8.6-8C70.4,37.3,71,44.9,71,44.9"/>
			<path id="Fill-18" class="st4" d="M85.9,43.6c0,0.1,0,0.2,0,0.3c1.4,0.6,2.7,1.5,3.9,2.8c0,0,1.7-6.1-5.1-8L83,38.9
				C83,38.9,86.4,40.3,85.9,43.6"/>
			<path id="Fill-19" class="st3" d="M42,41.8c0,0,8.6-5.1,16.9,1c0,0,1.8-6.3-7.2-7C42.6,35.1,42,41.8,42,41.8"/>
			<path id="Fill-20" class="st3" d="M74,61.4c0,0,0.9,4,3.5,5.4c0,0,2.1-1.8,2.5-6"/>
			<path id="Fill-21" class="st3" d="M48.3,56.8c0,0-1.1,3.6,0.6,7c0,0,2.8-1.8,3.1-5.5"/>
			<path id="Fill-22" class="st5" d="M48.9,38.8c2.7,0,5.8,0.6,8.8,2.5c0-0.8-0.1-1.9-0.9-3c-1.1-1.4-3.2-2.2-6.2-2.4
				c-6.5-0.5-8.5,2.7-9.1,4.4C43,39.7,45.7,38.8,48.9,38.8z M58.2,42.8c-0.1,0-0.3,0-0.4-0.1c-8.2-5.7-16.6-1.1-16.9-0.9
				c-0.2,0.1-0.4,0.1-0.6,0c-0.2-0.1-0.3-0.3-0.3-0.5c0-0.1,0.8-7.1,10.7-6.4c3.4,0.2,5.8,1.2,7.1,2.9c1.7,2.1,1,4.6,1,4.7
				c-0.1,0.2-0.2,0.3-0.4,0.4C58.4,42.8,58.3,42.8,58.2,42.8z"/>
			<path id="Fill-23" class="st5" d="M80.8,42.6c2.7,0,5.5,0.8,8.1,3.3c0-1-0.1-2.5-0.9-3.9c-1.2-1.8-3.5-2.9-6.8-3
				c-3.3-0.2-5.8,0.6-7.4,2.3c-1.1,1.3-1.5,2.8-1.6,3.8C73.7,44.3,77.1,42.6,80.8,42.6z M89.3,47.8c-0.1,0-0.3-0.1-0.4-0.2
				c-6.8-7.9-16.6-1.2-17-0.9c-0.2,0.1-0.4,0.1-0.5,0c-0.2-0.1-0.3-0.3-0.3-0.5c0-0.1-0.2-3.3,1.9-5.7c1.8-2,4.5-2.9,8.2-2.7
				c3.7,0.2,6.2,1.4,7.7,3.5c1.8,2.7,1,5.9,1,6c-0.1,0.2-0.2,0.4-0.4,0.4C89.4,47.8,89.3,47.8,89.3,47.8z"/>
			<path id="Fill-24" class="st5" d="M83.8,43.8c-0.1,0-0.1,0-0.2,0c-0.4-0.1-0.7-0.4-0.6-0.8l1.4-4.7c0.1-0.3,0.5-0.5,0.9-0.5
				c0.4,0.1,0.7,0.4,0.6,0.8l-1.4,4.7C84.5,43.6,84.1,43.8,83.8,43.8"/>
			<path id="Fill-25" class="st5" d="M53.8,41.8c-0.1,0-0.1,0-0.2,0c-0.4-0.1-0.7-0.5-0.6-0.8l1.4-4.7c0.1-0.4,0.5-0.6,0.9-0.5
				c0.4,0.1,0.7,0.4,0.6,0.8l-1.4,4.7C54.4,41.6,54.1,41.8,53.8,41.8"/>
			<path id="Fill-26" class="st5" d="M73.9,61.8c-3.1,0-7.5-0.3-13.7-0.9c-9-0.9-14.1-2.6-15-4.9c-0.4-0.9,0-1.6,0.2-2
				c0.2-0.2,0.6-0.3,0.8-0.1c0.2,0.2,0.3,0.6,0.1,0.8c0,0-0.2,0.4,0,0.8c0.4,0.9,2.5,3,14,4.2c4.6,0.5,18.6,1.9,20.4-0.3
				c0.1-0.2,0.3-0.4,0-1c-0.1-0.3,0-0.6,0.3-0.8c0.3-0.1,0.6,0,0.8,0.3c0.3,0.8,0.3,1.6-0.2,2.2C80.9,61,79.3,61.8,73.9,61.8"/>
			<path id="Fill-27" class="st5" d="M78,65.8c-0.1,0-0.2,0-0.3-0.1C75,64.2,74.1,60.2,74,60c-0.1-0.3,0.1-0.6,0.5-0.7
				c0.3-0.1,0.7,0.1,0.7,0.4c0,0,0.8,3.2,2.7,4.6c0.5-0.7,1.6-2.3,1.9-5.1c0-0.3,0.4-0.5,0.7-0.5c0.3,0,0.6,0.3,0.6,0.6
				c-0.4,4.3-2.5,6.1-2.6,6.2C78.3,65.7,78.1,65.8,78,65.8"/>
			<path id="Fill-28" class="st5" d="M49.7,62.8c-0.2,0-0.4-0.1-0.5-0.3c-2.1-3.5-0.8-7.2-0.7-7.4c0.1-0.3,0.4-0.4,0.7-0.3
				c0.3,0.1,0.5,0.4,0.4,0.7c0,0-1,3,0.4,6c0.9-0.6,2.7-2.2,3-4.7c0-0.3,0.3-0.5,0.6-0.5c0.3,0,0.5,0.3,0.5,0.6
				c-0.4,3.9-3.9,5.8-4.1,5.9C49.9,62.8,49.8,62.8,49.7,62.8"/>
			<path id="Fill-29" class="st5" d="M106.6,54.8c-0.1,0-0.3-0.1-0.4-0.2c-0.2-0.2-0.2-0.6,0-0.8c8.7-9.3,4.9-21.1,4.8-21.3
				c-0.1-0.3,0.1-0.6,0.4-0.7c0.3-0.1,0.6,0.1,0.7,0.4c0,0.1,4,12.6-5.1,22.4C106.9,54.7,106.7,54.8,106.6,54.8"/>
			<path id="Fill-30" class="st5" d="M113.6,50.8c-0.1,0-0.3,0-0.4-0.1c-0.3-0.2-0.3-0.6-0.1-0.8c9.3-10.1,8.6-24.3,8.6-24.4
				c0-0.3,0.2-0.6,0.6-0.6c0.3,0,0.6,0.2,0.7,0.5c0,0.1,0.7,14.8-8.9,25.2C114,50.7,113.8,50.8,113.6,50.8"/>
			<path id="Fill-31" class="st5" d="M19.5,47.8c-0.2,0-0.3-0.1-0.4-0.3c-6.6-15.2-0.8-22.3-0.5-22.6c0.2-0.2,0.5-0.2,0.6,0
				c0.2,0.2,0.2,0.6,0,0.8c0,0-1.4,1.7-2,5.1c-0.6,3.2-0.6,8.5,2.7,16.1c0.1,0.3,0,0.6-0.2,0.8C19.7,47.8,19.6,47.8,19.5,47.8"/>
			<path id="Fill-32" class="st5" d="M16.4,41.8c-0.2,0-0.4-0.1-0.5-0.3c-8.2-12.3-3.6-23.3-3.6-23.4c0.1-0.3,0.5-0.4,0.8-0.3
				c0.3,0.1,0.5,0.4,0.3,0.7c0,0.1-4.4,10.6,3.5,22.3c0.2,0.3,0.1,0.6-0.2,0.8C16.6,41.7,16.5,41.8,16.4,41.8"/>
			<path id="Fill-33" class="st5" d="M48.9,38.8c2.7,0,5.8,0.6,8.8,2.5c0-0.8-0.1-1.9-0.9-3c-1.1-1.4-3.2-2.2-6.2-2.4
				c-6.5-0.5-8.5,2.7-9.1,4.4C43,39.7,45.7,38.8,48.9,38.8z M58.2,42.8c-0.1,0-0.3,0-0.4-0.1c-8.2-5.7-16.6-1.1-16.9-0.9
				c-0.2,0.1-0.4,0.1-0.6,0c-0.2-0.1-0.3-0.3-0.3-0.5c0-0.1,0.8-7.1,10.7-6.4c3.4,0.2,5.8,1.2,7.1,2.9c1.7,2.1,1,4.6,1,4.7
				c-0.1,0.2-0.2,0.3-0.4,0.4C58.4,42.8,58.3,42.8,58.2,42.8z"/>
			<path id="Fill-34" class="st5" d="M68.1,222.9C68.1,222.9,68.1,222.9,68.1,222.9c0.2,0,0.4,0.1,0.5,0.3
				c11.9,18.6,19,22.5,22.8,22.5c0.1,0,0.2,0,0.3,0c2.8-0.2,3.8-2.3,3.8-2.4c-1.9,1.5-3.5,2-4.7,1.4c-2.2-1.2-3.1-5.9-2.3-11.9
				c1.2-9.2,9.7-12.7,9.8-12.7c-9.1-29-1.7-88.7,15.6-125.3c3.7-7.9,3.8-14.4,0.4-19.3c-3.2-4.6-9.5-7.9-18.7-9.8
				c-0.3-0.1-0.5-0.4-0.5-0.7c0.3-1.8,0.6-3.5,0.7-5.3c0-0.6,0.5-1.2,1.1-1.3c35.9-10.3,35.8-37.8,35.8-38.1
				c-0.8-0.4-1.1-0.6-1.1-0.8c0,0,0,0-0.1-0.1c-0.1-0.1-0.1-0.3-0.1-0.5c0.3-1,3.2-1.6,3.2-1.6l0.1-0.6l-0.1,0.6
				c-24.2-3.7-43.1,9.3-46.6,12c-0.2,0.2-0.6,0.1-0.8-0.1c-4.2-5.3-9.7-8.9-15.8-10.4c-10.3-2.6-21.4,0.7-30.3,9.2
				C41.2,27.9,41,28,40.9,28c-0.2,0-0.3-0.1-0.4-0.2C36,23,20,7.4,1.2,6.9C1.2,7.3-1.1,42.2,27.1,52c0.3,0.1,0.4,0.4,0.4,0.7
				c-0.6,2.7-1,5.4-1.2,8.1c0,0.3-0.3,0.5-0.5,0.5c-11.2,0.6-18.2,3.1-20.7,7.2c-9,14.7-1,59.3,9.4,96.2
				c15.6,55.2,48.9,77.4,53,78.6c1.3,0.4,2.2,0.3,2.6-0.3c0.9-1,0-3.5-0.7-4.9c0.4,2.7,0.1,3.2,0,3.4c-0.1,0.1-0.2,0.2-0.3,0.2
				c-0.2,0.1-0.4,0.1-1.1-0.2c-0.8-0.3-2.9-1.6-3.5-6.4c-0.7-5.5,1.9-10.2,3.1-12C67.7,223,67.9,222.9,68.1,222.9z M91.4,246.8
				c-5.8,0-13.9-7.7-23.3-22.2c-1.2,2-3,6-2.4,10.5c0.6,4.4,2.4,5.3,2.8,5.4c0,0,0,0,0,0c0-0.4-0.1-1-0.3-2.1
				c-0.1-0.6,0.2-1.2,0.8-1.3c0.6-0.2,1.2,0.1,1.4,0.6c0.5,1,2,4.4,0.6,6.1c-0.8,0.9-2.1,1.1-3.8,0.6c-4.3-1.2-38.1-23.7-53.8-79.4
				C2.9,127.9-5.1,82.9,4.1,67.9c2.7-4.4,9.8-7,21.1-7.7c0.2-2.4,0.5-4.8,1.1-7.2C-2.3,42.6,0,7.2,0.1,6.9c0-0.6,0.6-1.1,1.2-1.1
				C20,6.3,35.9,21.3,40.9,26.6c9.2-8.5,20.4-11.8,31-9.1c6.2,1.6,11.7,5.2,16.1,10.4c5.6-4.1,23.6-15.5,47-11.9
				c0.6,0.1,1,0.6,1,1.1c0,0.6-0.4,1.1-0.9,1.2c-0.8,0.2-1.5,0.4-2,0.7c0.1,0,0.1,0.1,0.2,0.1c0.4,0.2,0.7,0.6,0.7,1.1
				c0,0.3,0.1,28.6-36.7,39.2c-0.2,0-0.3,0.2-0.3,0.3c-0.1,1.6-0.3,3.2-0.6,4.8c9.2,2,15.5,5.4,18.9,10.1c3.7,5.3,3.6,12.2-0.3,20.5
				c-17.1,36.4-24.5,95.7-15.5,124.4c0.2,0.6-0.1,1.2-0.7,1.5c-0.1,0-8,3.3-9.1,11.8c-0.8,6.1,0.2,10,1.7,10.8
				c1,0.5,2.5-0.6,3.3-1.3c0.4-0.4,1.1-0.4,1.5,0c0.4,0.3,0.6,1,0.3,1.5c-0.1,0.1-1.4,2.8-4.8,3C91.7,246.8,91.6,246.8,91.4,246.8z"
				/>
			<path id="Fill-35" class="st5" d="M68.5,224.8c-0.2,0-0.4-0.1-0.5-0.3C25.3,158.9,34.9,79,35,78.2c1.3-10.1,21.1-11.1,37.5-10.1
				c0.3,0,0.6,0.3,0.5,0.6c0,0.3-0.3,0.6-0.6,0.5c-13-0.8-35-0.6-36.3,9.1C36,79.1,26.5,158.6,69,223.9c0.2,0.3,0.1,0.6-0.2,0.8
				C68.7,224.7,68.6,224.8,68.5,224.8"/>
			<path id="Fill-36" class="st5" d="M84.4,68.8C84.3,68.8,84.3,68.8,84.4,68.8c-1.5-0.1-3.1-0.2-4.8-0.3c-0.3,0-0.6-0.2-0.6-0.4
				c0-0.2,0.4-0.3,0.7-0.3c1.7,0.1,3.3,0.2,4.7,0.3c0.3,0,0.6,0.2,0.6,0.4C85,68.6,84.7,68.8,84.4,68.8"/>
			<path id="Fill-37" class="st5" d="M89.4,70.8C89.4,70.8,89.3,70.8,89.4,70.8c-0.1,0-0.7-0.1-1.9-0.2c-0.3,0-0.6-0.2-0.5-0.5
				c0-0.2,0.4-0.4,0.7-0.4c1.2,0.1,1.8,0.2,1.8,0.2c0.3,0,0.6,0.2,0.5,0.5C89.9,70.6,89.7,70.8,89.4,70.8"/>
			<path id="Fill-38" class="st2" d="M26.7,48.8c0,0,4.9-13,9.3-17.9c0,0-12.2-11.5-15.4,0C17.5,42.3,26.7,48.8,26.7,48.8"/>
			<path id="Fill-39" class="st2" d="M44,44.9c0,0,6-5.2,11,0.6C55,45.5,47.6,46.4,44,44.9"/>
			<path id="Fill-40" class="st5" d="M59.4,31.8c-0.3,0-0.5-0.1-0.6-0.3c-0.6-1.3-1.5-2.1-2.7-2.4c-2.7-0.7-6.1,1.3-6.1,1.3
				c-0.3,0.2-0.7,0.1-0.9-0.2c-0.2-0.3-0.1-0.6,0.2-0.8c0.2-0.1,3.9-2.3,7.2-1.4c1.6,0.4,2.7,1.4,3.5,3c0.1,0.3,0,0.6-0.3,0.7
				C59.5,31.8,59.4,31.8,59.4,31.8"/>
			<path id="Fill-41" class="st5" d="M72.6,31.8c-0.1,0-0.2,0-0.3-0.1c-0.3-0.1-0.5-0.5-0.3-0.8c0.8-1.6,2-2.6,3.5-3
				c3.3-0.8,7,1.6,7.1,1.7c0.3,0.2,0.4,0.6,0.1,0.8c-0.2,0.3-0.6,0.3-0.9,0.1c0,0-3.3-2.1-6.1-1.5c-1.2,0.3-2.1,1.1-2.7,2.4
				C73.1,31.6,72.9,31.8,72.6,31.8"/>
		</g>
		
			<image style="overflow:visible;enable-background:new    ;" width="627" height="626" id="disco_ball" xlink:href="5A45390CC00C07C0.png"  transform="matrix(-0.6963 0.1866 -0.1866 -0.6963 553.4914 1139.4735)">
		</image>
		<g id="werewolf" transform="translate(392.000000, 821.000000)">
			<path id="Fill-4" class="st6" d="M239,287.7c0,6.9-53.5,12.5-119.5,12.5c-66,0-119.5-5.6-119.5-12.5c0-6.9,53.5-12.5,119.5-12.5
				C185.5,275.2,239,280.8,239,287.7"/>
			<path id="Stroke-5" class="st7" d="M198.5,101.4c7.1-7.2,16.6-14.7,28.5-19.2 M191.4,109.5c1.2-1.5,2.4-3,3.9-4.6 M186.7,116
				c0.6-0.9,1.3-1.8,2-2.9 M184,120.2c0,0,0.2-0.4,0.7-1.2"/>
			<polyline id="Fill-6" class="st8" points="229,5.1 239,4.2 234.7,14.2 229,5.1 			"/>
			<polygon id="Stroke-7" class="st7" points="229,5.1 239,4.2 234.7,14.2 			"/>
			<polyline id="Fill-8" class="st8" points="249,3.4 239,4.2 243.3,-5.8 249,3.4 			"/>
			<polygon id="Stroke-9" class="st7" points="249,3.4 239,4.2 243.3,-5.8 			"/>
			<path id="Fill-10" class="st8" d="M241.8,8.4c-2.3,1.6-5.4,1-6.9-1.3c-1.6-2.3-1-5.4,1.3-6.9c2.3-1.6,5.4-1,6.9,1.3
				C244.7,3.7,244.1,6.8,241.8,8.4"/>
			<path id="Stroke-11" class="st7" d="M241.8,8.4c-2.3,1.6-5.4,1-6.9-1.3c-1.6-2.3-1-5.4,1.3-6.9c2.3-1.6,5.4-1,6.9,1.3
				C244.7,3.7,244.1,6.8,241.8,8.4z"/>
			<polyline id="Fill-12_1_" class="st9" points="232,91.2 235.1,81.2 242,89 232,91.2 			"/>
			<polygon id="Stroke-13" class="st7" points="232,91.2 235.1,81.2 242,89 			"/>
			<polyline id="Fill-14_1_" class="st9" points="239,70.2 235.9,80.2 229,72.4 239,70.2 			"/>
			<polygon id="Stroke-15" class="st7" points="239,70.2 235.9,80.2 229,72.4 			"/>
			<path id="Fill-16_1_" class="st10" d="M240.9,79.2c0.6,2.7-1.1,5.4-3.8,5.9s-5.4-1.1-5.9-3.8c-0.6-2.7,1.1-5.4,3.8-5.9
				C237.6,74.8,240.3,76.5,240.9,79.2"/>
			<path id="Stroke-17" class="st11" d="M240.9,79.2c0.6,2.7-1.1,5.4-3.8,5.9s-5.4-1.1-5.9-3.8c-0.6-2.7,1.1-5.4,3.8-5.9
				C237.6,74.8,240.3,76.5,240.9,79.2z"/>
			<path id="Fill-18_1_" class="st12" d="M261.5,52.3c1.1,0.3,1.7,1.4,1.4,2.5c-0.3,1.1-1.4,1.7-2.5,1.4c-1.1-0.3-1.7-1.4-1.4-2.5
				C259.4,52.6,260.5,52,261.5,52.3"/>
			<path id="Stroke-19" class="st11" d="M261.5,52.3c1.1,0.3,1.7,1.4,1.4,2.5c-0.3,1.1-1.4,1.7-2.5,1.4c-1.1-0.3-1.7-1.4-1.4-2.5
				C259.4,52.6,260.5,52,261.5,52.3z"/>
			<path id="Stroke-20" class="st7" d="M237.6,103.1c2.5-0.9,5.3-1.9,8.4-2.9 M226.4,107.9c1.4-0.7,3-1.4,4.9-2.2 M220,111.2
				c0,0,0.9-0.6,2.8-1.6"/>
			<path id="Fill-21_1_" class="st12" d="M258.7,93.4c2.4,0.7,3.8,3.1,3.2,5.5c-0.7,2.4-3.1,3.8-5.5,3.2c-2.4-0.7-3.8-3.1-3.2-5.5
				C253.8,94.1,256.3,92.7,258.7,93.4"/>
			<path id="Stroke-22" class="st11" d="M258.7,93.4c2.4,0.7,3.8,3.1,3.2,5.5c-0.7,2.4-3.1,3.8-5.5,3.2c-2.4-0.7-3.8-3.1-3.2-5.5
				C253.8,94.1,256.3,92.7,258.7,93.4z"/>
			<path id="Fill-23_1_" class="st13" d="M253.6,186.5c-8.1-4.3-14.5-4.1-19.1-2.7c0,0-12.1-3.5-18.8,6.2
				c-4.1,5.9-6.3,19.3-7.5,28.9c-3.3-18.4-18.3-19.4-18.3-19.4c3-2.2,9.4-0.8,9.4-0.8c-10.3-8.3-25.1-0.3-25.7,0c0,0,0,0,0,0
				c-1,1-1.8,2-2.6,3c-0.9-5.8,1.8-9.8,1.8-9.8c-7.4,2.7-11.7,13.5-11.7,13.5h0c-0.3-8.6-4-15.4-4-15.4c1.8-8.3,2.2-20.3-7.4-29.7
				c2.3-2.3,3.1-5.8,3.1-5.8c23,15,12.6-5.5,12.6-5.5c9.9,1.5-0.6-15.3-2.7-18.4c-0.1-0.1-0.1-0.2-0.2-0.3c-0.1-0.1-0.1-0.2-0.1-0.2
				c0,0,0-0.1,0-0.1c26.5,4.9,1.1-8.2,0-8.7c11.3,4.1,14.8-1.7,14.8-1.7c-15.8-0.4-16.8-11-16.8-12.1v0c0,0,0-0.1,0-0.1
				c27.6-33,9.3-43.1,9.3-43.1c10.5-16.4,2.4-16.8-1.9-18c-27.5-7.7-53,24.2-53.6,25c-3.8-3.5-12.9-10.5-24.3-10.5
				c0,0,5.2,0.9,7,4.3c0,0-7.5-3.8-20.2,0.7c0,0-15.6-11.8-37.3-11c-3.6,0.1-6.4,0-8.6-0.3c0,0,0,0-0.1,0c-0.9-0.1-1.7-0.3-2.4-0.4
				c0,0,0,0,0,0c-2.9-0.4-7.5-0.5-10.4,2c0,0-15.7,23.2,25.5,55.2c0,0-2.7,6.9-11.9,9.4c0,0,1.5,1.5,11.9-1.8c0,0,0,0.1-0.2,0.4
				c-0.6,1.7-3.6,7.8-12.3,11c0,0,5,2.6,12.4,0.3c-0.7,0.2-11.9,4.5-10.6,19.9c0,0,9.5-9.9,17.3-9c0,0-1.2,5-4.7,10.7l0.1,0.1
				c1.1-2,2.5-3.8,4.3-5.5c2.3-2.1,4.8-3.9,7.4-5.3l0,0c-0.2-0.4-0.4-0.8-0.6-1.2c-1.8-4-0.9-7.9,2.3-11.2c-2.8-2.9,2.6-8.3,2.6-8.3
				c0.9,1,2.7,2.6,5.6,4.3c1.1,0.6,2.4,1.3,3.9,1.9c2.2,0.9,4.9,1.8,8.1,2.4c1.6,0.3,3.3,0.6,5.1,0.8c2.4,0.3,5.1,0.4,8,0.4
				c1.8,0,3.7-0.1,5.6-0.2c1.4-0.1,2.9-0.2,4.5-0.4c1.2-0.1,2.3-0.3,3.4-0.4c1.5-0.2,2.9-0.4,4.3-0.6c2.9-0.5,5.5-1,7.8-1.6
				c1.3-0.3,2.6-0.7,3.8-1c3.2-1,5.8-2.1,7.9-3.1c1.1-0.6,2.1-1.2,2.9-1.7c2.9-2,4.2-3.7,4.8-4.7c0,0,6.8,4.8,2.9,8.4
				c0,0,2.9,6.1,0.9,12.9c-0.7,2.4-2,4.9-4.3,7.2c-1.4,1.4-3.1,2.8-5.3,4c-2,1.2-4.5,2.3-7.4,3.2c-2.1,0.7-4.4,1.3-7,1.8
				c-2.4,0.5-5.1,0.9-8,1.2c-0.3,0-0.5,0.1-0.8,0.1c-1.7,0.2-3.4,0.3-5,0.4c-2.2,0.1-4.3,0.2-6.4,0.2c-1.6,0-3.2,0-4.7-0.1
				c-4.8-0.2-9.2-0.8-13.1-1.6l-0.4-0.3c-2.8,3.4-4.6,7.6-5.7,10.7c-1.8,5-2.3,13.5-17.3,12.3c-0.2,0-0.4,0-0.6-0.1l0,0.2
				c0,0,2.4,16.7-10.3,22.1c0,0,6.8,0.1,10.5-3.4c-2,2.2-9.3,11.3-5,20c0,0,1-6.5,5.5-8.8c0,0-4.3,10.1-3.6,19.4
				c-0.5-0.4-12.6-10.2-25.1-4.8l9.9,6c0,0-5,1.4-10.6,1.5c-0.2,0-0.4,0-0.8,0c-3.5,0.1-14.4,1.1-23.4,9.9c0,0,7.9,2,11.7,0.6
				c0.5-0.3,0.9-0.5,1-0.6c-0.3,0.2-0.6,0.4-1,0.6c-1.2,0.7-3.1,1.9-5.2,3.5c0,0-8.5,14.9,8.1,24.9c5.9,3.6,11.9,5,17.2,5.3l0,0.1
				c0,0-18.7,4-26.6,17.7c-4.7,8.1-4.8,18.7-2.4,23.5c2.1,4.1,6.2,9.4,17.6,5.6c1.6,1.7,4,2.9,7.4,3.1c14.3,0.9,14.7-7.6,14.7-7.6
				l0.2-0.5c1.9,0.8,4.2,1.2,7.2,0.7c14.9-2.1,11.1-18.8,11.1-18.8c5.5,1.7,11.9-1.5,11.9-1.5c1.9,2.1,5,3.6,9.5,4.1
				c14.1,1.5,22.9-7,20.8-12.9c-0.3-0.8-0.6-1.5-1-2.1c0,0,4,3.2,9.3,0c-0.4,0.7-0.7,1.4-1,2.1c-2.1,5.9,6.7,14.4,20.8,12.9
				c4.6-0.5,7.7-2.1,9.5-4.1c0,0,11.9,5.9,17.2-2.6c1.8-2.9,2.5-5.7,2.3-8.3h0c0,0,10.5-10.6-2.9-18.1c-2.2-1.2-5.1-1.6-7.9-1.6
				c29.3-28.6,39.2-13.6,45-3.1c3.1,5.7,11.3,17.5,26-12.1c14.7-29.6,27.8-26.4,27.8-26.4s4,7.9,6.1-11.4c0.1-1.2,0.2-2.3,0.2-3.2
				h0.1C257,208.6,270.3,195.4,253.6,186.5"/>
			<path id="Fill-24_1_" class="st5" d="M140.4,124.9c-3.8,3.5-7.8-3.7-7.8-3.7c-0.8,0.5-1.8,1.1-3,1.7l0.1,0.2c0,0,3.4,5.9-1.2,8.1
				c-4.4,2.1-6.8-4.8-6.9-5.3c-1.2,0.3-2.4,0.7-3.8,1l0.1,0.4c0,0,2.2,6.3-2.8,7.1c-4.7,0.8-5.2-5.5-5.2-5.5l-0.1-0.4
				c-1.4,0.2-2.8,0.4-4.3,0.6l0.1,0.7c0,0,1.5,6.5-3.5,6.8c-4.7,0.3-4.6-6.7-4.6-6.7V130c-2,0.1-3.9,0.2-5.7,0.2c0,0,1,6.6-4,6.6
				c-4.7,0-4.1-7-4.1-7v0c-1.8-0.2-3.5-0.5-5.1-0.8c0,0-0.8,6.1-5.4,5.6c-0.2,0-0.3,0-0.5-0.1c-5-0.9-2.3-7.9-2.3-7.9v0
				c-1.5-0.6-2.8-1.2-3.9-1.9c0,0-2.9,7.3-7.5,4.6c-0.3-0.2-0.6-0.4-0.8-0.6c-3.3,3.3-4.2,7.2-2.4,11.1c0.9-1.3,4.5-5.5,8.8-2.1
				c3-0.8,5.8-1.1,8.4-1c4.2,0.2,7.6,1.7,9.3,4.4c1.7-0.3,3.6-0.4,5.5-0.2c5.8,0.5,7.9,4.7,8.6,8.5l0.3-0.1c0.6-0.6,1.5-0.8,2.7-0.8
				c4.7,0.2,3.6,6.4,3.6,6.4l0,0.1c1.7-0.1,3.3-0.2,5.1-0.4c0.3,0,0.6,0,0.8-0.1l-0.1-0.7c0,0-1.6-6.5,3.4-6.9
				c4.7-0.4,4.7,6.2,4.7,6.2l0,0.3c2.6-0.5,5-1.1,7.1-1.8v0c0,0-3.9-5.4,0.6-7.6c4.3-2,6.8,4.5,6.8,4.5l0,0c2.2-1.2,3.9-2.6,5.3-4
				c-0.5-0.5-5-4.4-1.4-7.5c1.9-1.6,3.9-0.8,5.5,0.3l0.3,0.1C143.3,131,140.4,124.9,140.4,124.9"/>
			<path id="Fill-25_1_" class="st14" d="M56,140.2c0.2,0.3,0.4,0.7,0.7,1l0,0c3.1-1.3,6.2-2.2,9.3-2.9
				C61.2,135.4,57.1,139.1,56,140.2"/>
			<path id="Fill-26_1_" class="st14" d="M84,130.2L84,130.2c0,0-0.7,6,4.5,6c5.5,0,4.4-5.6,4.4-5.6C89.7,130.6,86.7,130.5,84,130.2
				"/>
			<path id="Fill-27_1_" class="st14" d="M136.2,138.2c-3,3.3,0.7,7.5,1.2,8c1.9-2.5,3.1-5.1,3.7-7.6l-0.2-0.1
				C139.5,137.3,137.8,136.5,136.2,138.2"/>
			<path id="Fill-28_1_" class="st14" d="M124.4,144.7c-5,2.4-0.7,8.5-0.7,8.5v0c3.2-1,6-2.2,8.2-3.5l0,0
				C132,149.7,129.1,142.4,124.4,144.7"/>
			<path id="Fill-29_1_" class="st14" d="M111.9,146.2c-5.4,0.4-3.6,6.3-3.6,6.3l0.1,0.6c3.2-0.3,6-0.6,8.7-1.1l-0.1-0.3
				C116.9,151.9,117,145.9,111.9,146.2"/>
			<path id="Fill-30_1_" class="st14" d="M99.7,148.2c-1.1,0-1.9,0.2-2.4,0.7L97,149c0.5,2.8,0.2,5.2,0.2,5.2c1.8,0,3.7-0.1,5.7-0.2
				l0-0.1C102.9,153.9,103.9,148.4,99.7,148.2"/>
			<path id="Fill-31_1_" class="st14" d="M141.7,125.2c4.4-3.9-3.3-9-3.3-9c-0.6,1-2.1,2.9-5.4,5C133,121.2,137.4,128.9,141.7,125.2
				"/>
			<path id="Fill-32_1_" class="st14" d="M128.4,131.8c4.9-2.5,1.2-9.3,1.2-9.3l-0.1-0.2c-2.2,1.2-5.1,2.4-8.6,3.5
				C121.2,126.3,123.7,134.2,128.4,131.8"/>
			<path id="Fill-33_1_" class="st14" d="M118.4,126.2c-2.5,0.5-5.3,1-8.4,1.5l0.1,0.4c0,0,0.6,5.8,5.5,5.1c5.2-0.8,2.9-6.6,2.9-6.6
				L118.4,126.2"/>
			<path id="Fill-34_1_" class="st14" d="M106.7,129.2c-1.2,0.1-2.4,0.3-3.7,0.4c-1.7,0.2-3.3,0.3-4.9,0.3v0.1c0,0-0.1,6.5,5,6.2
				c5.4-0.3,3.8-6.4,3.8-6.4L106.7,129.2"/>
			<path id="Fill-35_1_" class="st14" d="M70.8,126.2c0,0-3.1,7.9,2.5,8.9c0.2,0,0.4,0.1,0.5,0.1c5.1,0.5,6.1-6.3,6.1-6.3
				C76.4,128.2,73.4,127.2,70.8,126.2L70.8,126.2"/>
			<path id="Fill-36_1_" class="st14" d="M61.8,119.2c0,0-6,6.3-2.9,9.6c0.2,0.2,0.5,0.5,0.9,0.7c5.1,3.2,8.2-5.4,8.2-5.4
				C64.8,122.2,62.8,120.3,61.8,119.2"/>
			<path id="Fill-37_1_" class="st12" d="M97.7,150.1c-0.7-3.8-2.8-8.1-8.6-8.6c-1.9-0.2-3.8-0.1-5.5,0.2c-1.7-2.8-5.1-4.2-9.3-4.5
				c-2.6-0.1-5.5,0.2-8.4,1c-2.7,0.7-5.5,1.8-8.2,3.3c-2.6,1.4-5.2,3.2-7.5,5.3c-1.8,1.7-3.3,3.5-4.4,5.5
				c-5.9,10.3-2.4,23.3,9.8,24.7c0.2,0,0.4,0.1,0.6,0.1c15.1,1.2,15.7-7.3,17.5-12.3c1-2.9,2.7-6.7,5.1-9.9l14.3,0.9l0,0.2
				c1.5,0.1,3.1,0.1,4.8,0.1C97.9,156.1,98.3,153.2,97.7,150.1"/>
			<path id="Fill-39_1_" class="st15" d="M225,195.5c0,0,1.6-7.5,8.8-11.8c-5.4,1.5-21.3,8-25.2,32c-0.1,1-0.3,2-0.4,2.9
				c-7.6-13.9-23.5-11.8-23.5-11.8c1.6-3.9,8.9-2.3,8.9-2.3c-8.8-5.1-20.2,4-20.2,4c0.6-4.4,3.9-5.2,3.9-5.2
				c-9.9,0.6-14.3,19.2-16.5,11.1c-0.9-3.2-0.7-7.1-0.1-10.5c-0.6-8-4-14.2-4-14.2c0.1-0.7,0.3-1.4,0.4-2.1l-0.6-7.9
				c-0.3,5.3-3.2,11.3-3.2,11.3c2.4-24.2-5.5-27.7-5.5-27.7c1.7,3.3-3.7,11-3.7,11c0.1-12.8-8.5-15.7-8.5-15.7
				c11.4,2.1,16.8-4.6,16.8-4.6c14.1,9.1,15.7,5.2,14.9,0.6c-20.9-25.5-4.7-12.2,1.4-7c2.8-3.4-4.6-15.1-6.3-17.7
				c-0.1-0.1-0.1-0.2-0.2-0.3c-0.1-0.1-0.1-0.2-0.1-0.2c0,0,0-0.1,0-0.1c8.8,1.6,11.9,1.3,12.1,0.1c0,0-29.2-14.3-1.5-7.8
				c3.1-0.8,4.3-2.8,4.3-2.8c-15.9-0.4-16.8-11-16.9-12.1v0c0,0,0-0.1,0-0.1c0,0,0-0.1,0.1-0.1c-6.1-8.3,5.9-29.2,5.9-29.2
				s-3.4,14.5,1.5,7.9c3-4,5.2-11.2,6.5-16.3c-1.8-4-4.6-5.6-4.6-5.6c4.3-6.6,5.5-10.7,5.2-13.2c0,0-16.4-8.9-36.1,3.9
				c-19.6,12.8-25,26.3-25,26.3s-3.5-10.9-11.7-15.3c0,0,3.8,5,3.5,6.7c0,0-14.9-8.7-29.5-0.9c0,0-12.8-15.1-57.4-13.8l3.8,2h-3.8
				c0,0-6.9,23.3,23.7,49.2l-0.3,1.9c0.2,0.1,0.3,0.2,0.4,0.4c0,0-2.8,6.9-11.9,9.5c0,0,1.5,1.5,11.9-1.9c0,0,0,0.1-0.2,0.4
				c-0.6,1.7-3.6,7.9-12.4,11c0,0,0.1,0,0.2,0.1c2.5,0.2,9,0.2,15.1-3c0,0-10.4,14.1-13.1,22.9c1.7-1.7,10.1-9.5,17.1-8.7
				c0,0-1.2,5-4.7,10.8l0.1,0.1c1.1-2,2.6-3.8,4.3-5.5c2.3-2.1,4.8-3.9,7.4-5.3l0,0c-0.2-0.4-0.4-0.8-0.6-1.2c-1.8-4-0.9-8,2.4-11.3
				c-2.8-2.9,2.6-8.4,2.6-8.4c0.9,1,2.7,2.6,5.6,4.3c1.1,0.6,2.4,1.3,3.9,1.9c2.3,0.9,5,1.8,8.2,2.4c1.6,0.3,3.3,0.6,5.1,0.8
				c2.4,0.3,5.1,0.4,8.1,0.4c1.8,0,3.7-0.1,5.7-0.2c1.5-0.1,3-0.2,4.5-0.4c1.2-0.1,2.3-0.3,3.4-0.4c1.5-0.2,2.9-0.4,4.3-0.6
				c2.9-0.5,5.6-1,7.9-1.6c1.4-0.3,2.6-0.7,3.8-1c3.2-1,5.8-2.1,7.9-3.1c1.1-0.6,2.1-1.2,2.9-1.7c3-2,4.3-3.7,4.8-4.7
				c0,0,6.9,4.8,2.9,8.5c0,0,2.9,6.1,0.9,12.9c-0.7,2.4-2,4.9-4.3,7.2c-1.4,1.4-3.1,2.8-5.3,4c-2.1,1.2-4.5,2.3-7.4,3.2
				c-2.1,0.7-4.4,1.3-7,1.8c-2.4,0.5-5.1,0.9-8,1.2c-0.3,0-0.5,0.1-0.8,0.1c-1.7,0.2-3.4,0.3-5.1,0.4c-2.2,0.1-4.3,0.2-6.4,0.2
				c-1.6,0-3.2,0-4.7-0.1c-4.9-0.2-9.3-0.8-13.2-1.6l-0.4-0.3c-2.8,3.4-4.6,7.6-5.7,10.7c-1.7,4.8-2.3,12.7-15.1,12.5l0,0
				c0,0,3.3,9.9-0.3,14.7l5.5-5.5c0,0-6.9,7.7-6.9,11.6c0,0,4.8-11.5,14.4-12.8c0,0-16.2,20.1-14.1,37.5c1.1,9.6,0,8.9-2.1,7.5
				c-3-2-13.8-4.6-13.8-4.6s6.8,3.6,5.7,5.5c-1.1,1.8-26.1-0.5-26.6,7.7c-0.5,8.2,3.9,12.7,3.9,12.7s-1.1-4.5-0.1-5.4
				c0,0,4.7,22.4,21.1,25.8c0,0-32.5,8.4-33.4,28.8c-0.5,11.6,3.2,17.9,6.5,21.2c1.4-0.2,2.9-0.5,4.7-1.1c1.6,1.7,4,2.9,7.5,3.2
				c14.4,0.9,14.8-7.6,14.8-7.6l0.2-0.5c1.9,0.8,4.3,1.2,7.3,0.7c15-2.1,11.2-18.9,11.2-18.9c5.6,1.7,12-1.5,12-1.5
				c1.9,2.1,5,3.6,9.6,4.1c14.2,1.5,23.1-7,20.9-13c-0.3-0.8-0.6-1.5-1-2.1c0,0,4.1,3.2,9.3,0c-0.4,0.7-0.7,1.4-1,2.1
				c-2.1,6,6.7,14.5,20.9,13c4.6-0.5,7.7-2.1,9.6-4.1c0,0,12,6,17.3-2.6c1.8-2.9,2.5-5.7,2.3-8.4h0c0,0,10.5-10.6-2.9-18.1
				c-2.2-1.2-5.1-1.6-7.9-1.6c0.4-0.4,0.7-0.7,1.1-1c0-2.3-0.1-25.8,16.8-26.8c0,0-8,2.7-7.8,10.1c0,0,28.7-14.9,33.3,11.2
				c0,0,0,0,0,0c0.7,1.1,1.4,2.3,2,3.4c3.2,5.7,11.4,17.5,26.1-12.2c14.8-29.7,28-26.5,28-26.5s2.9,5.8,5.1-4.8
				c-1.8-8.1-6.3-17.3-17.5-15.7c0,0,0.1-3.9,11.4-3.5l3.5,1.2l2.7,3.1l1.1,4l0.2,0.9c0.5-0.6,3.9-4.2,4.8-8.7
				C257.6,193.7,247,185.7,225,195.5"/>
			<path id="Stroke-40" class="st7" d="M204.9,181.5c0.3,0.5,0.6,1.1,0.9,1.7 M200.1,174.8c0.9,1,1.8,2.1,2.7,3.3 M184.3,164.5
				c4.2,1.6,9.1,4.1,13.4,8 M178.4,162.7c1.2,0.3,2.6,0.7,4,1.1 M173,161.8c0,0,1,0.1,2.7,0.4 M219.2,177.8c0.2,0.4,0.5,0.9,0.7,1.4
				 M216.5,173.4c0.6,0.9,1.1,1.8,1.7,2.7 M184,150.9c8.7,2.5,21.1,7.8,30.1,19.2 M176.9,149.3c0.9,0.2,1.9,0.3,3.1,0.6
				 M173.4,148.8c0,0,0.5,0,1.4,0.2 M197.3,34.1c6.7-7.7,16.1-16.2,28.7-22.8 M187.7,46.9c1.3-2.1,2.9-4.5,4.9-7.2 M183.5,54.7
				c0,0,0.5-1.1,1.5-3.1"/>
			<path id="Fill-41_1_" class="st16" d="M63.7,139.3c0.8-0.3,1.5-0.5,2.3-0.7c-4-3.3-7.5-0.2-9,1.6C58.6,138.9,61,137.7,63.7,139.3
				"/>
			<path id="Fill-42" class="st16" d="M62.1,119.2c0,0,0,0-0.1,0.1c0.5,0.6,1.2,1.2,2,1.9C63.2,120.5,62.6,119.8,62.1,119.2"/>
			<path id="Fill-43" class="st16" d="M67,123.2c-0.5,1-3.5,7.3-8,4.7c0,0,0,0,0,0c0,0,0,0.1,0.1,0.1c0.2,0.2,0.5,0.4,0.8,0.6
				c5,2.8,8.1-4.8,8.1-4.8C67.7,123.6,67.4,123.4,67,123.2"/>
			<path id="Fill-44" class="st16" d="M92.9,130.6c-3.2,0-6.2-0.1-8.9-0.4v0c0,0,0,0,0,0.1c2.3,0.2,4.9,0.3,7.6,0.3
				c0,0,1,5.1-3.7,5.6c0.2,0,0.4,0,0.6,0C94,136.2,92.9,130.6,92.9,130.6"/>
			<path id="Fill-45" class="st16" d="M136.2,139.2c1.6-1.5,3.2-0.8,4.5,0.2c0.1-0.3,0.2-0.7,0.3-1l-0.2-0.1c-1.3-1.1-3-1.8-4.6-0.3
				c-1.1,1-1.3,2.1-1.1,3.1C135.2,140.5,135.5,139.9,136.2,139.2"/>
			<path id="Fill-46" class="st16" d="M123.5,145.9c3.8-1.8,6.3,2.8,7,4.3c0.5-0.3,1-0.5,1.5-0.8l0,0c0,0-2.7-6.9-7.2-4.7
				c-0.9,0.4-1.4,1-1.8,1.6C123.2,146.1,123.3,146,123.5,145.9"/>
			<path id="Fill-47" class="st16" d="M110.6,147.3c3.4-0.3,4.1,3.4,4.2,4.9c0.4-0.1,0.8-0.1,1.2-0.2l0-0.2c0,0,0-5.9-4.3-5.5
				c-1.4,0.1-2.2,0.7-2.7,1.5C109.4,147.5,109.9,147.4,110.6,147.3"/>
			<path id="Fill-48" class="st16" d="M99.6,148.2c-0.3,0-0.6,0-0.9,0c4,0.4,3,5.7,3,5.7l0,0.1c-1.6,0.1-3.2,0.1-4.8,0.1
				c0,0,0,0,0,0c1.9,0,3.9-0.1,5.9-0.2l0-0.1C102.9,153.9,104,148.4,99.6,148.2"/>
			<path id="Fill-49" class="st16" d="M135.4,116.2c-0.1,0.2-0.2,0.4-0.4,0.7c1.5,1.5,4.5,5.3,1.9,8.3c-0.5,0.5-1,0.8-1.4,0.9
				c0.8,0.2,1.7,0,2.5-0.9C141.4,121.3,135.4,116.2,135.4,116.2"/>
			<path id="Fill-50" class="st16" d="M129,122.5l-0.1-0.2c-0.3,0.2-0.6,0.4-0.8,0.5c0.5,1.3,2.3,6.8-1.1,9
				c-0.3,0.2-0.6,0.3-0.9,0.4c0.6,0.2,1.2,0.1,2-0.4C131.9,129.2,129,122.5,129,122.5"/>
			<path id="Fill-51" class="st16" d="M117.6,126.6l-0.1-0.4c-0.3,0.1-0.7,0.2-1,0.2l0,0.1c0,0,1.9,5.8-2.4,6.6c0,0-0.1,0-0.1,0
				c0.4,0.1,0.7,0.1,1.2,0C119.5,132.4,117.6,126.6,117.6,126.6"/>
			<path id="Fill-52" class="st16" d="M104.8,129.8l-0.1-0.6c-0.3,0-0.7,0.1-1,0.1l0.1,0.5c0,0,1.3,5.8-2.7,6.3c0.3,0,0.5,0.1,0.8,0
				C106.1,135.9,104.8,129.8,104.8,129.8"/>
			<path id="Fill-53" class="st16" d="M77.8,128.2c-0.2,1.1-1.3,5.9-5.1,5.5c-0.2,0-0.3,0-0.5-0.1c-0.1,0-0.2-0.1-0.2-0.1
				c0.4,0.3,0.8,0.5,1.4,0.6c0.2,0,0.3,0,0.5,0.1c4.3,0.4,5.1-5.7,5.1-5.7C78.6,128.4,78.2,128.3,77.8,128.2"/>
			<path id="Fill-54" class="st10" d="M94.7,150.1c-0.7-3.8-2.7-8.1-8.3-8.6c-1.9-0.2-3.6-0.1-5.3,0.2c-1.7-2.8-5-4.2-9-4.5
				c-2.5-0.1-5.3,0.2-8.1,1c-2.6,0.7-5.3,1.8-7.9,3.3c-2.3,1.3-4.6,3-6.7,4.9c4.9-2.5,10.8-3,13.1,3.9c0,0,12.1-3.2,10.2,4.2
				c-1,3.8-0.5,0.6-4.2,10.4c-4.2,11-17.8,10.1-20.5,9.9c1.7,1.1,3.7,1.9,6.1,2.2c0.2,0,0.4,0.1,0.6,0.1
				c14.6,1.2,15.1-7.3,16.9-12.3c1-2.9,2.6-6.7,5-9.9l13.7,0.9l0,0.2c1.5,0.1,3,0.1,4.6,0.1C94.9,156.1,95.2,153.2,94.7,150.1"/>
			<path id="Stroke-55" class="st7" d="M61.1,119.1c0,0,9.1,13.8,41.5,10.3c32.4-3.5,35.3-14.2,35.3-14.2 M84.5,129.5
				c0,0-0.6,7.1,4,7.2c5,0,4-6.7,4-6.7 M79.4,128.7c0,0-0.9,6.6-5.9,5.7c-5-0.9-2.2-8.1-2.2-8.1 M67.4,124.4c0,0-2.9,7.5-7.4,4.7
				c-4.4-2.7,1.8-9.1,1.8-9.1 M98.1,129.8c0,0-0.1,7.2,4.6,6.8c5-0.4,3.4-7,3.4-7 M110.4,128.8c0,0,0.5,6.5,5.1,5.6
				c4.9-0.9,2.7-7.3,2.7-7.3 M129.9,122.7c0,0,3.4,6.1-1.2,8.3c-4.5,2.3-6.8-5.4-6.8-5.4 M137.5,116.1c0,0,6.8,4.9,2.9,8.6
				c-3.8,3.6-7.7-3.8-7.7-3.8 M59.2,128.5c-3.6,3.7-4.3,8.1-1.7,12.6 M140.4,124.6c0,0,12.4,26.5-31.8,30.6
				c-11.7,1.1-21.4,0.5-29.2-1.2 M97.2,156.5c0,0,1.8-13.8-8.7-14.7c-10.5-0.9-21,4.1-26.9,11.2 M89.5,149.2c-1-1.1-3.5-1.2-5.9,0.3
				c-5.6,3.5-8.7,10.4-10.3,15.1c-1.8,5.1-2.3,13.7-17.3,12.5c-14.9-1.2-17.2-20-6-30.6c11.2-10.6,28.2-13.1,33-5.4 M92.6,153.1
				c0,0-0.6-0.8-1-1.6 M117.3,153.7c0,0,0-6.7-4.7-6.3c-5,0.4-3.4,7-3.4,7 M131.7,148.9c0,0-2.6-6.7-6.8-4.6
				c-4.5,2.2-0.6,7.8-0.6,7.8 M137,144.9c0,0-5.2-4.4-1.4-7.7c1.9-1.6,3.9-0.8,5.4,0.3 M103.5,155.5c0,0,1.2-6.4-3.5-6.6
				c-1.2-0.1-2.1,0.2-2.7,0.8 M65.5,137.8c-4.9-4.1-8.3,2.3-8.3,2.3"/>
			<path id="Fill-56" class="st5" d="M129.1,95.4c3,7,2.5,14-1.2,15.5c-3.6,1.6-9-2.8-12-9.9c-3-7-2.5-14,1.2-15.5
				C120.7,84,126.1,88.4,129.1,95.4"/>
			<path id="Stroke-57" class="st7" d="M131.6,106.5c-0.6,2-1.7,3.6-3.3,4.3c-4.1,1.8-9.7-2.4-12.6-9.3c-2.9-7-1.9-14,2.1-15.8
				c1.7-0.8,3.7-0.4,5.6,0.7 M132,103.8c0,0.3-0.1,0.7-0.1,1 M125,87.4c0.5,0.4,0.9,0.8,1.3,1.2"/>
			<path id="Fill-58" class="st5" d="M69.9,95.4c-3,7-2.5,14,1.2,15.5s9-2.8,12-9.9c3-7,2.5-14-1.2-15.5
				C78.3,84,72.9,88.4,69.9,95.4"/>
			<path id="Stroke-59" class="st7" d="M66.4,106.5c0.6,2,1.7,3.6,3.3,4.3c4.1,1.8,9.7-2.4,12.6-9.3c2.9-7,1.9-14-2.1-15.8
				c-1.7-0.8-3.7-0.4-5.6,0.7 M66,103.8c0,0.3,0.1,0.7,0.1,1 M73.1,87.4c-0.5,0.4-0.9,0.8-1.3,1.2"/>
			<path id="Fill-60" class="st5" d="M87,108.5c0,0,14.2-5,25,0c0,0-2.2,6.7-12.5,9.8C99.5,118.2,89.3,115.7,87,108.5"/>
			<path id="Stroke-61" class="st7" d="M87.6,115.8c0,0,7.4,4.6,12.9,4.4c3.2-0.1,7.6-0.7,11.9-4.4H87.6z M88.2,109.4
				c0,0,14-5.5,24.7,0c0,0-2.1,7.3-12.3,10.7C100.5,120.1,90.4,117.4,88.2,109.4z M107.9,73.7c0.8,0.2,1.7,0.4,2.5,0.7L107.9,73.7z
				 M101.3,72.6c0.5,0,1,0.1,1.5,0.2L101.3,72.6z M116.5,73.5c0,0-11.1-12.5-26.3-12.5c0,0,5.2,0.9,7,4.3c0,0-8.8-4.4-23.5,2
				c0,0,11.2,0.6,15.8,2.9c0,0-8.2,0.5-12.6,5.6c0,0,10.4-3.9,22.5-3.3L116.5,73.5z M42.8,72.6c0,0-3.6-2.2-7.2,0.2
				c-3.7,2.4,12.9,8,12.9,8s-3.8,1.7-8.7,2.1C31.7,83.7,53,90,53,90s-2,2.2-8.2,2.3c-5,0.1,12.7,4,12.7,4s-4.1,7.8-11.2,4.7
				L42.8,72.6z M76.9,66c0,0-15.7-11.8-37.3-11.1c-18.1,0.6-16-5.2-16-5.2L76.9,66z M31,54.6c0,0-8.6-2.3-13,1.5
				c0,0-15.7,23.3,25.6,55.5c0,0-2.7,6.9-11.9,9.5c0,0,1.5,1.5,11.9-1.9c0,0-2.3,7.8-12.5,11.5c0,0,5,2.7,12.5,0.3
				c0,0-12,4-10.7,20.1c0,0,9.6-9.9,17.3-9c0,0-4.1,17.1-19.3,24.4L31,54.6z M50.2,141.9c0,0-8.4,13.5-16,14.6L50.2,141.9z
				 M43.4,119.6c0,0-6.8,7.3-16.8,7L43.4,119.6z M155,62.4c0,0,2.9-4.6,13.2-1.4c0,0-8.7-0.6-19.6,10.7c0,0,24.5-9,3,4.1L155,62.4z
				 M155,73.7c0,0,29.4-4.6-4.7,11.4L155,73.7z M156.9,81.9c0,0,13,5.5-8.3,9.8c0,0,18.3,0.9-2.9,3.8L156.9,81.9z M114.5,71.6
				c0,0,25.8-33,53.7-25.1c4.4,1.2,12.5,1.6,1.9,18.1c0,0,18.3,10.2-9.3,43.4c0,0,3.3,7.7,15.3,7.1L114.5,71.6z M160.9,107.9
				c0,0,0.2,11.8,16.9,12.2c0,0-3.5,5.8-14.8,1.7c0,0,27.1,13.9,0,8.8c0,0,7.9,12.9,21.1,10.2L160.9,107.9z M162.9,130.6
				c0,0,14,20.7,3,19c0,0,10.5,20.6-12.6,5.5c0,0-2.5,11.4-12.2,6.9c0,0-11.9,4.7-5.8-2.4c0,0-7.8,7.1-12.4,5.3L162.9,130.6z
				 M73.2,165.3c0,0,19.2,7.8,14.3-0.1c0,0,12.9,7.7,9.7,3.5L73.2,165.3z M64.7,190.6c0,0-8.1,15.2,1.5,27.8c8.3,11,16,6.8,16,6.8
				L64.7,190.6z M79.3,217.7c0,0,4.5,18.9,27,21.6L79.3,217.7z M102.3,234c0,0,14.8,12.8,0,19.2c0,0,18.1-0.5,27.1-14
				c9-13.5,0-22.7,0-22.7L102.3,234z M132.8,232.1c0,0,12.2-9.8,4.4-31.7L132.8,232.1z M140.9,192c0,0,4.6,5.8,2.1,14.4L140.9,192z
				 M143.7,179.6c0,0,2.9,2.1,2.8,6.6L143.7,179.6z M139.8,217.7c0,0,4.2,3.2,2.5,9c0,0,11.7-9.3,9.1-35.7c0,0,4,4.9,3,9.5
				c0,0,11.9-23.6-4.2-39.4L139.8,217.7z M119.1,254c0,0,5.1,9.8-1.2,27.5L119.1,254z M121.7,278.6c0,0-6.2,3.5-8.4,9.5
				c-2.1,6,6.7,14.5,20.9,13c14.2-1.5,14.3-13.4,6.7-18L121.7,278.6z M143.7,296.9c0,0,11.9,6,17.3-2.6c5.3-8.6,0.8-17.1-6.5-19.5
				L143.7,296.9z M163.3,285.9c0,0,10.5-10.7-2.9-18.2c-6.4-3.6-18.3,0-18.3,0L163.3,285.9z M139.8,230.8c0,0-7.1,21.4,3.9,40
				L139.8,230.8z M100.2,254c0,0-5.1,9.8,1.2,27.5L100.2,254z M97.6,278.6c0,0,6.2,3.5,8.4,9.5c2.1,6-6.7,14.5-20.9,13
				c-14.2-1.5-14.3-13.4-6.7-18L97.6,278.6z M75.5,296.9c0,0-11.9,6-17.3-2.6s-0.8-17.1,6.5-19.5L75.5,296.9z M56,285.9
				c0,0-10.5-10.7,2.9-18.2c6.4-3.6,18.3,0,18.3,0L56,285.9z M79.4,230.8c0,0,7.1,21.4-3.9,40L79.4,230.8z M55.3,177.8
				c0,0,2.4,16.8-10.4,22.2c0,0,7.5,0.2,11-4c0,0-10.5,10.5-5.5,20.6c0,0,1-6.6,5.5-8.9c0,0-10.3,24.3,3.6,32.2L55.3,177.8z
				 M52.4,227.3c0,0-12.3-10.4-25.1-4.9l9.9,6.1c0,0-16.9,4.7-23.1-2.4L52.4,227.3z"/>
			<path id="Stroke-62" class="st7" d="M27.2,229.1c0,0-13.7-0.7-24.7,9.9c0,0,9.8,2.4,12.8,0c0,0-16.6,8.3-12.8,18 M9.1,243.1
				c0,0-8.5,14.9,8.1,24.9c16.6,10,33.9,3,33.9,3 M34.4,273.4c0,0-18.7,4-26.6,17.6c-4.7,8.1-4.8,18.6-2.4,23.4
				c2.1,4.1,6.2,9.4,17.6,5.6 M45.2,315.6c0,0-0.5,8.5-14.8,7.6c-14.3-0.9-9.9-18.6-9.9-18.6 M38.3,301.2c0,0-0.6,16.8,14.3,14.7
				c14.9-2.1,11.2-18.8,11.2-18.8 M157.8,190.3c0,0,8.5,15.4,1,29.2 M161.9,209.9c0,0,6.4,2.1-4.1,18.5 M161.9,205.7
				c0,0,4.3-10.8,11.7-13.5c0,0-2.7,4-1.8,9.7 M167.4,210.5c0,0,5.1-17.7,23.5-19.1 M174.4,198.9c0,0,15.2-8.5,25.8,0
				c0,0-6.4-1.3-9.4,0.8c0,0,15.1,1.1,18.3,19.4 M235.5,184.1c0,0-12.1-3.5-18.8,6.2c-6.7,9.6-8.5,39.6-8.5,39.6 M228,188.4
				c0,0,9.9-10.5,26.6-1.6c16.6,8.9,3.3,22,3.3,22 M152.6,265c29.4-28.6,39.3-13.6,45.1-3.1c3.1,5.7,11.3,17.4,26-12.1
				c14.7-29.6,27.9-26.4,27.9-26.4s4,7.9,6.1-11.4c2.1-19.2-16.9-11.1-16.9-11.1 M105.2,284.7c0,0,4.1,3.2,9.3,0"/>
		</g>
		<g id="Group-32">
		</g>
	</g>
</g>
<g id="WeHo-Logo">
	<g id="Logo---City-of-West-Hollywood" transform="translate(4.000000, 6.000000)">
		<g id="Group-75">
			<g id="Fill-37-Clipped">
				<g id="path-1_1_">
				</g>
				<defs>
					<filter id="Adobe_OpacityMaskFilter" filterUnits="userSpaceOnUse" x="-13.6" y="68.6" width="22.7" height="22.7">
						<feColorMatrix  type="matrix" values="1 0 0 0 0  0 1 0 0 0  0 0 1 0 0  0 0 0 1 0"/>
					</filter>
				</defs>
				<mask maskUnits="userSpaceOnUse" x="-13.6" y="68.6" width="22.7" height="22.7" id="mask-2_2_">
					<g class="st17">
						<polygon id="path-1_75_" class="st18" points="-140.5,182.9 120.1,348.7 274,106.8 13.4,-59 						"/>
					</g>
				</mask>
				<polygon id="Fill-37_2_" class="st19" points="-13.6,82.5 0.3,91.4 9.2,77.5 -4.7,68.6 				"/>
			</g>
			<g id="Fill-38-Clipped">
				<g id="path-1_3_">
				</g>
				<defs>
					<filter id="Adobe_OpacityMaskFilter_1_" filterUnits="userSpaceOnUse" x="-24.6" y="85.9" width="22.7" height="22.7">
						<feColorMatrix  type="matrix" values="1 0 0 0 0  0 1 0 0 0  0 0 1 0 0  0 0 0 1 0"/>
					</filter>
				</defs>
				<mask maskUnits="userSpaceOnUse" x="-24.6" y="85.9" width="22.7" height="22.7" id="mask-4_2_">
					<g class="st20">
						<polygon id="path-3_2_" class="st18" points="-140.5,182.9 120.1,348.7 274,106.8 13.4,-59 						"/>
					</g>
				</mask>
				<polygon id="Fill-38_1_" class="st21" points="-24.6,99.8 -10.7,108.6 -1.8,94.7 -15.7,85.9 				"/>
			</g>
			<g id="Fill-39-Clipped">
				<g id="path-1_4_">
				</g>
				<defs>
					<filter id="Adobe_OpacityMaskFilter_2_" filterUnits="userSpaceOnUse" x="-7.5" y="96.7" width="22.7" height="22.7">
						<feColorMatrix  type="matrix" values="1 0 0 0 0  0 1 0 0 0  0 0 1 0 0  0 0 0 1 0"/>
					</filter>
				</defs>
				<mask maskUnits="userSpaceOnUse" x="-7.5" y="96.7" width="22.7" height="22.7" id="mask-6_2_">
					<g class="st22">
						<polygon id="path-5_2_" class="st18" points="-140.5,182.9 120.1,348.7 274,106.8 13.4,-59 						"/>
					</g>
				</mask>
				<polygon id="Fill-39_2_" class="st23" points="-7.5,110.6 6.4,119.5 15.2,105.6 1.3,96.7 				"/>
			</g>
			<g id="Fill-40-Clipped">
				<g id="path-1_5_">
				</g>
				<defs>
					<filter id="Adobe_OpacityMaskFilter_3_" filterUnits="userSpaceOnUse" x="3.2" y="79.8" width="22.7" height="22.7">
						<feColorMatrix  type="matrix" values="1 0 0 0 0  0 1 0 0 0  0 0 1 0 0  0 0 0 1 0"/>
					</filter>
				</defs>
				<mask maskUnits="userSpaceOnUse" x="3.2" y="79.8" width="22.7" height="22.7" id="mask-8_2_">
					<g class="st24">
						<polygon id="path-7_2_" class="st18" points="-140.5,182.9 120.1,348.7 274,106.8 13.4,-59 						"/>
					</g>
				</mask>
				<polygon id="Fill-40_1_" class="st25" points="3.2,93.7 17.1,102.6 26,88.7 12.1,79.8 				"/>
			</g>
			<g id="Fill-41-Clipped">
				<g id="path-1_6_">
				</g>
				<defs>
					<filter id="Adobe_OpacityMaskFilter_4_" filterUnits="userSpaceOnUse" x="42.1" y="56.9" width="22.7" height="22.7">
						<feColorMatrix  type="matrix" values="1 0 0 0 0  0 1 0 0 0  0 0 1 0 0  0 0 0 1 0"/>
					</filter>
				</defs>
				<mask maskUnits="userSpaceOnUse" x="42.1" y="56.9" width="22.7" height="22.7" id="mask-10_2_">
					<g class="st26">
						<polygon id="path-9_2_" class="st18" points="-140.5,182.9 120.1,348.7 274,106.8 13.4,-59 						"/>
					</g>
				</mask>
				<polygon id="Fill-41_2_" class="st27" points="42.1,70.8 56,79.6 64.8,65.7 50.9,56.9 				"/>
			</g>
			<g id="Fill-42-Clipped">
				<g id="path-1_7_">
				</g>
				<defs>
					<filter id="Adobe_OpacityMaskFilter_5_" filterUnits="userSpaceOnUse" x="31.2" y="73.9" width="22.7" height="22.7">
						<feColorMatrix  type="matrix" values="1 0 0 0 0  0 1 0 0 0  0 0 1 0 0  0 0 0 1 0"/>
					</filter>
				</defs>
				<mask maskUnits="userSpaceOnUse" x="31.2" y="73.9" width="22.7" height="22.7" id="mask-12_2_">
					<g class="st28">
						<polygon id="path-11_2_" class="st18" points="-140.5,182.9 120.1,348.7 274,106.8 13.4,-59 						"/>
					</g>
				</mask>
				<polygon id="Fill-42_1_" class="st29" points="31.2,87.8 45.1,96.7 53.9,82.8 40,73.9 				"/>
			</g>
			<g id="Fill-43-Clipped">
				<g id="path-1_8_">
				</g>
				<defs>
					<filter id="Adobe_OpacityMaskFilter_6_" filterUnits="userSpaceOnUse" x="59.3" y="67.5" width="22.7" height="22.7">
						<feColorMatrix  type="matrix" values="1 0 0 0 0  0 1 0 0 0  0 0 1 0 0  0 0 0 1 0"/>
					</filter>
				</defs>
				<mask maskUnits="userSpaceOnUse" x="59.3" y="67.5" width="22.7" height="22.7" id="mask-14_2_">
					<g class="st30">
						<polygon id="path-13_2_" class="st18" points="-140.5,182.9 120.1,348.7 274,106.8 13.4,-59 						"/>
					</g>
				</mask>
				<polygon id="Fill-43_1_" class="st31" points="59.3,81.4 73.2,90.2 82,76.3 68.1,67.5 				"/>
			</g>
			<g id="Fill-44-Clipped">
				<g id="path-1_9_">
				</g>
				<defs>
					<filter id="Adobe_OpacityMaskFilter_7_" filterUnits="userSpaceOnUse" x="20.3" y="90.8" width="22.7" height="22.7">
						<feColorMatrix  type="matrix" values="1 0 0 0 0  0 1 0 0 0  0 0 1 0 0  0 0 0 1 0"/>
					</filter>
				</defs>
				<mask maskUnits="userSpaceOnUse" x="20.3" y="90.8" width="22.7" height="22.7" id="mask-16_2_">
					<g class="st32">
						<polygon id="path-15_2_" class="st18" points="-140.5,182.9 120.1,348.7 274,106.8 13.4,-59 						"/>
					</g>
				</mask>
				<polygon id="Fill-44_1_" class="st33" points="20.3,104.7 34.2,113.5 43.1,99.6 29.2,90.8 				"/>
			</g>
			<g id="Fill-45-Clipped">
				<g id="path-1_10_">
				</g>
				<defs>
					<filter id="Adobe_OpacityMaskFilter_8_" filterUnits="userSpaceOnUse" x="9.6" y="107.6" width="22.7" height="22.7">
						<feColorMatrix  type="matrix" values="1 0 0 0 0  0 1 0 0 0  0 0 1 0 0  0 0 0 1 0"/>
					</filter>
				</defs>
				<mask maskUnits="userSpaceOnUse" x="9.6" y="107.6" width="22.7" height="22.7" id="mask-18_2_">
					<g class="st34">
						<polygon id="path-17_2_" class="st18" points="-140.5,182.9 120.1,348.7 274,106.8 13.4,-59 						"/>
					</g>
				</mask>
				<polygon id="Fill-45_1_" class="st35" points="9.6,121.5 23.4,130.3 32.3,116.4 18.4,107.6 				"/>
			</g>
			<g id="Fill-46-Clipped">
				<g id="path-1_11_">
				</g>
				<defs>
					<filter id="Adobe_OpacityMaskFilter_9_" filterUnits="userSpaceOnUse" x="93.1" y="89.6" width="22.7" height="22.7">
						<feColorMatrix  type="matrix" values="1 0 0 0 0  0 1 0 0 0  0 0 1 0 0  0 0 0 1 0"/>
					</filter>
				</defs>
				<mask maskUnits="userSpaceOnUse" x="93.1" y="89.6" width="22.7" height="22.7" id="mask-20_2_">
					<g class="st36">
						<polygon id="path-19_2_" class="st18" points="-140.5,182.9 120.1,348.7 274,106.8 13.4,-59 						"/>
					</g>
				</mask>
				<polygon id="Fill-46_1_" class="st37" points="93.1,103.5 107,112.4 115.9,98.5 102,89.6 				"/>
			</g>
			<g id="Fill-47-Clipped">
				<g id="path-1_12_">
				</g>
				<defs>
					<filter id="Adobe_OpacityMaskFilter_10_" filterUnits="userSpaceOnUse" x="110.4" y="100.3" width="22.7" height="22.7">
						<feColorMatrix  type="matrix" values="1 0 0 0 0  0 1 0 0 0  0 0 1 0 0  0 0 0 1 0"/>
					</filter>
				</defs>
				<mask maskUnits="userSpaceOnUse" x="110.4" y="100.3" width="22.7" height="22.7" id="mask-22_2_">
					<g class="st38">
						<polygon id="path-21_2_" class="st18" points="-140.5,182.9 120.1,348.7 274,106.8 13.4,-59 						"/>
					</g>
				</mask>
				<polygon id="Fill-47_1_" class="st39" points="110.4,114.3 124.3,123.1 133.1,109.2 119.2,100.3 				"/>
			</g>
			<g id="Fill-48-Clipped">
				<g id="path-1_13_">
				</g>
				<defs>
					<filter id="Adobe_OpacityMaskFilter_11_" filterUnits="userSpaceOnUse" x="99.7" y="117" width="22.7" height="22.7">
						<feColorMatrix  type="matrix" values="1 0 0 0 0  0 1 0 0 0  0 0 1 0 0  0 0 0 1 0"/>
					</filter>
				</defs>
				<mask maskUnits="userSpaceOnUse" x="99.7" y="117" width="22.7" height="22.7" id="mask-24_2_">
					<g class="st40">
						<polygon id="path-23_2_" class="st18" points="-140.5,182.9 120.1,348.7 274,106.8 13.4,-59 						"/>
					</g>
				</mask>
				<polygon id="Fill-48_1_" class="st41" points="99.7,130.9 113.6,139.7 122.4,125.8 108.5,117 				"/>
			</g>
			<g id="Fill-49-Clipped">
				<g id="path-1_14_">
				</g>
				<defs>
					<filter id="Adobe_OpacityMaskFilter_12_" filterUnits="userSpaceOnUse" x="116.6" y="127.7" width="22.7" height="22.7">
						<feColorMatrix  type="matrix" values="1 0 0 0 0  0 1 0 0 0  0 0 1 0 0  0 0 0 1 0"/>
					</filter>
				</defs>
				<mask maskUnits="userSpaceOnUse" x="116.6" y="127.7" width="22.7" height="22.7" id="mask-26_2_">
					<g class="st42">
						<polygon id="path-25_2_" class="st18" points="-140.5,182.9 120.1,348.7 274,106.8 13.4,-59 						"/>
					</g>
				</mask>
				<polygon id="Fill-49_1_" class="st43" points="116.6,141.6 130.5,150.5 139.3,136.6 125.4,127.7 				"/>
			</g>
			<g id="Fill-50-Clipped">
				<g id="path-1_15_">
				</g>
				<defs>
					<filter id="Adobe_OpacityMaskFilter_13_" filterUnits="userSpaceOnUse" x="127.1" y="111.2" width="22.7" height="22.7">
						<feColorMatrix  type="matrix" values="1 0 0 0 0  0 1 0 0 0  0 0 1 0 0  0 0 0 1 0"/>
					</filter>
				</defs>
				<mask maskUnits="userSpaceOnUse" x="127.1" y="111.2" width="22.7" height="22.7" id="mask-28_2_">
					<g class="st44">
						<polygon id="path-27_2_" class="st18" points="-140.5,182.9 120.1,348.7 274,106.8 13.4,-59 						"/>
					</g>
				</mask>
				<polygon id="Fill-50_1_" class="st45" points="127.1,125.1 141,134 149.8,120.1 135.9,111.2 				"/>
			</g>
			<g id="Fill-51-Clipped">
				<g id="path-1_16_">
				</g>
				<defs>
					<filter id="Adobe_OpacityMaskFilter_14_" filterUnits="userSpaceOnUse" x="144.4" y="121.7" width="22.7" height="22.7">
						<feColorMatrix  type="matrix" values="1 0 0 0 0  0 1 0 0 0  0 0 1 0 0  0 0 0 1 0"/>
					</filter>
				</defs>
				<mask maskUnits="userSpaceOnUse" x="144.4" y="121.7" width="22.7" height="22.7" id="mask-30_2_">
					<g class="st46">
						<polygon id="path-29_2_" class="st18" points="-140.5,182.9 120.1,348.7 274,106.8 13.4,-59 						"/>
					</g>
				</mask>
				<polygon id="Fill-51_1_" class="st47" points="144.4,135.6 158.3,144.4 167.1,130.5 153.3,121.7 				"/>
			</g>
			<g id="Fill-52-Clipped">
				<g id="path-1_17_">
				</g>
				<defs>
					<filter id="Adobe_OpacityMaskFilter_15_" filterUnits="userSpaceOnUse" x="161.5" y="132.6" width="22.7" height="22.7">
						<feColorMatrix  type="matrix" values="1 0 0 0 0  0 1 0 0 0  0 0 1 0 0  0 0 0 1 0"/>
					</filter>
				</defs>
				<mask maskUnits="userSpaceOnUse" x="161.5" y="132.6" width="22.7" height="22.7" id="mask-32_2_">
					<g class="st48">
						<polygon id="path-31_2_" class="st18" points="-140.5,182.9 120.1,348.7 274,106.8 13.4,-59 						"/>
					</g>
				</mask>
				<polygon id="Fill-52_1_" class="st49" points="161.5,146.5 175.4,155.4 184.2,141.5 170.3,132.6 				"/>
			</g>
			<g id="Fill-53-Clipped">
				<g id="path-1_18_">
				</g>
				<defs>
					<filter id="Adobe_OpacityMaskFilter_16_" filterUnits="userSpaceOnUse" x="178.4" y="143.6" width="22.7" height="22.7">
						<feColorMatrix  type="matrix" values="1 0 0 0 0  0 1 0 0 0  0 0 1 0 0  0 0 0 1 0"/>
					</filter>
				</defs>
				<mask maskUnits="userSpaceOnUse" x="178.4" y="143.6" width="22.7" height="22.7" id="mask-34_2_">
					<g class="st50">
						<polygon id="path-33_2_" class="st18" points="-140.5,182.9 120.1,348.7 274,106.8 13.4,-59 						"/>
					</g>
				</mask>
				<polygon id="Fill-53_1_" class="st51" points="178.4,157.5 192.3,166.3 201.2,152.4 187.3,143.6 				"/>
			</g>
			<g id="Fill-54-Clipped">
				<g id="path-1_19_">
				</g>
				<defs>
					<filter id="Adobe_OpacityMaskFilter_17_" filterUnits="userSpaceOnUse" x="97.8" y="44.4" width="22.7" height="22.7">
						<feColorMatrix  type="matrix" values="1 0 0 0 0  0 1 0 0 0  0 0 1 0 0  0 0 0 1 0"/>
					</filter>
				</defs>
				<mask maskUnits="userSpaceOnUse" x="97.8" y="44.4" width="22.7" height="22.7" id="mask-36_2_">
					<g class="st52">
						<polygon id="path-35_2_" class="st18" points="-140.5,182.9 120.1,348.7 274,106.8 13.4,-59 						"/>
					</g>
				</mask>
				<polygon id="Fill-54_1_" class="st53" points="97.8,58.3 111.7,67.1 120.5,53.2 106.6,44.4 				"/>
			</g>
			<g id="Fill-55-Clipped">
				<g id="path-1_20_">
				</g>
				<defs>
					<filter id="Adobe_OpacityMaskFilter_18_" filterUnits="userSpaceOnUse" x="121.4" y="83.1" width="22.7" height="22.7">
						<feColorMatrix  type="matrix" values="1 0 0 0 0  0 1 0 0 0  0 0 1 0 0  0 0 0 1 0"/>
					</filter>
				</defs>
				<mask maskUnits="userSpaceOnUse" x="121.4" y="83.1" width="22.7" height="22.7" id="mask-38_2_">
					<g class="st54">
						<polygon id="path-37_2_" class="st18" points="-140.5,182.9 120.1,348.7 274,106.8 13.4,-59 						"/>
					</g>
				</mask>
				<polygon id="Fill-55" class="st55" points="121.4,97 135.2,105.8 144.1,91.9 130.2,83.1 				"/>
			</g>
			<g id="Fill-56-Clipped">
				<g id="path-1_21_">
				</g>
				<defs>
					<filter id="Adobe_OpacityMaskFilter_19_" filterUnits="userSpaceOnUse" x="138.4" y="93.9" width="22.7" height="22.7">
						<feColorMatrix  type="matrix" values="1 0 0 0 0  0 1 0 0 0  0 0 1 0 0  0 0 0 1 0"/>
					</filter>
				</defs>
				<mask maskUnits="userSpaceOnUse" x="138.4" y="93.9" width="22.7" height="22.7" id="mask-40_2_">
					<g class="st56">
						<polygon id="path-39_2_" class="st18" points="-140.5,182.9 120.1,348.7 274,106.8 13.4,-59 						"/>
					</g>
				</mask>
				<polygon id="Fill-56_1_" class="st57" points="138.4,107.8 152.3,116.7 161.2,102.8 147.3,93.9 				"/>
			</g>
			<g id="Fill-57-Clipped">
				<g id="path-1_22_">
				</g>
				<defs>
					<filter id="Adobe_OpacityMaskFilter_20_" filterUnits="userSpaceOnUse" x="114.8" y="55.2" width="22.7" height="22.7">
						<feColorMatrix  type="matrix" values="1 0 0 0 0  0 1 0 0 0  0 0 1 0 0  0 0 0 1 0"/>
					</filter>
				</defs>
				<mask maskUnits="userSpaceOnUse" x="114.8" y="55.2" width="22.7" height="22.7" id="mask-42_2_">
					<g class="st58">
						<polygon id="path-41_2_" class="st18" points="-140.5,182.9 120.1,348.7 274,106.8 13.4,-59 						"/>
					</g>
				</mask>
				<polygon id="Fill-57" class="st59" points="114.8,69.1 128.7,77.9 137.6,64 123.7,55.2 				"/>
			</g>
			<g id="Fill-58-Clipped">
				<g id="path-1_23_">
				</g>
				<defs>
					<filter id="Adobe_OpacityMaskFilter_21_" filterUnits="userSpaceOnUse" x="155.3" y="104.7" width="22.7" height="22.7">
						<feColorMatrix  type="matrix" values="1 0 0 0 0  0 1 0 0 0  0 0 1 0 0  0 0 0 1 0"/>
					</filter>
				</defs>
				<mask maskUnits="userSpaceOnUse" x="155.3" y="104.7" width="22.7" height="22.7" id="mask-44_2_">
					<g class="st60">
						<polygon id="path-43_2_" class="st18" points="-140.5,182.9 120.1,348.7 274,106.8 13.4,-59 						"/>
					</g>
				</mask>
				<polygon id="Fill-58_1_" class="st61" points="155.3,118.6 169.2,127.4 178,113.5 164.1,104.7 				"/>
			</g>
			<g id="Fill-59-Clipped">
				<g id="path-1_24_">
				</g>
				<defs>
					<filter id="Adobe_OpacityMaskFilter_22_" filterUnits="userSpaceOnUse" x="172.4" y="115.5" width="22.7" height="22.7">
						<feColorMatrix  type="matrix" values="1 0 0 0 0  0 1 0 0 0  0 0 1 0 0  0 0 0 1 0"/>
					</filter>
				</defs>
				<mask maskUnits="userSpaceOnUse" x="172.4" y="115.5" width="22.7" height="22.7" id="mask-46_2_">
					<g class="st62">
						<polygon id="path-45_2_" class="st18" points="-140.5,182.9 120.1,348.7 274,106.8 13.4,-59 						"/>
					</g>
				</mask>
				<polygon id="Fill-59" class="st63" points="172.4,129.4 186.3,138.3 195.1,124.4 181.2,115.5 				"/>
			</g>
			<g id="Fill-60-Clipped">
				<g id="path-1_25_">
				</g>
				<defs>
					<filter id="Adobe_OpacityMaskFilter_23_" filterUnits="userSpaceOnUse" x="189.4" y="126.4" width="22.7" height="22.7">
						<feColorMatrix  type="matrix" values="1 0 0 0 0  0 1 0 0 0  0 0 1 0 0  0 0 0 1 0"/>
					</filter>
				</defs>
				<mask maskUnits="userSpaceOnUse" x="189.4" y="126.4" width="22.7" height="22.7" id="mask-48_2_">
					<g class="st64">
						<polygon id="path-47_2_" class="st18" points="-140.5,182.9 120.1,348.7 274,106.8 13.4,-59 						"/>
					</g>
				</mask>
				<polygon id="Fill-60_1_" class="st65" points="189.4,140.3 203.3,149.1 212.2,135.2 198.3,126.4 				"/>
			</g>
			<g id="Fill-61-Clipped">
				<g id="path-1_26_">
				</g>
				<defs>
					<filter id="Adobe_OpacityMaskFilter_24_" filterUnits="userSpaceOnUse" x="-35.5" y="103" width="22.7" height="22.7">
						<feColorMatrix  type="matrix" values="1 0 0 0 0  0 1 0 0 0  0 0 1 0 0  0 0 0 1 0"/>
					</filter>
				</defs>
				<mask maskUnits="userSpaceOnUse" x="-35.5" y="103" width="22.7" height="22.7" id="mask-50_2_">
					<g class="st66">
						<polygon id="path-49_2_" class="st18" points="-140.5,182.9 120.1,348.7 274,106.8 13.4,-59 						"/>
					</g>
				</mask>
				<polygon id="Fill-61" class="st67" points="-35.5,116.9 -21.6,125.8 -12.7,111.9 -26.6,103 				"/>
			</g>
			<g id="Fill-62-Clipped">
				<g id="path-1_27_">
				</g>
				<defs>
					<filter id="Adobe_OpacityMaskFilter_25_" filterUnits="userSpaceOnUse" x="-18.4" y="113.8" width="22.7" height="22.7">
						<feColorMatrix  type="matrix" values="1 0 0 0 0  0 1 0 0 0  0 0 1 0 0  0 0 0 1 0"/>
					</filter>
				</defs>
				<mask maskUnits="userSpaceOnUse" x="-18.4" y="113.8" width="22.7" height="22.7" id="mask-52_2_">
					<g class="st68">
						<polygon id="path-51_2_" class="st18" points="-140.5,182.9 120.1,348.7 274,106.8 13.4,-59 						"/>
					</g>
				</mask>
				<polygon id="Fill-62" class="st69" points="-18.4,127.7 -4.5,136.6 4.3,122.7 -9.6,113.8 				"/>
			</g>
			<g id="Fill-63-Clipped">
				<g id="path-1_28_">
				</g>
				<defs>
					<filter id="Adobe_OpacityMaskFilter_26_" filterUnits="userSpaceOnUse" x="-1.5" y="124.6" width="22.7" height="22.7">
						<feColorMatrix  type="matrix" values="1 0 0 0 0  0 1 0 0 0  0 0 1 0 0  0 0 0 1 0"/>
					</filter>
				</defs>
				<mask maskUnits="userSpaceOnUse" x="-1.5" y="124.6" width="22.7" height="22.7" id="mask-54_2_">
					<g class="st70">
						<polygon id="path-53_2_" class="st18" points="-140.5,182.9 120.1,348.7 274,106.8 13.4,-59 						"/>
					</g>
				</mask>
				<polygon id="Fill-63" class="st71" points="-1.5,138.5 12.4,147.3 21.2,133.4 7.3,124.6 				"/>
			</g>
			<g id="Fill-64-Clipped">
				<g id="path-1_29_">
				</g>
				<defs>
					<filter id="Adobe_OpacityMaskFilter_27_" filterUnits="userSpaceOnUse" x="26.4" y="118.4" width="22.7" height="22.7">
						<feColorMatrix  type="matrix" values="1 0 0 0 0  0 1 0 0 0  0 0 1 0 0  0 0 0 1 0"/>
					</filter>
				</defs>
				<mask maskUnits="userSpaceOnUse" x="26.4" y="118.4" width="22.7" height="22.7" id="mask-56_2_">
					<g class="st72">
						<polygon id="path-55_2_" class="st18" points="-140.5,182.9 120.1,348.7 274,106.8 13.4,-59 						"/>
					</g>
				</mask>
				<polygon id="Fill-64" class="st73" points="26.4,132.3 40.3,141.1 49.1,127.2 35.2,118.4 				"/>
			</g>
			<g id="Fill-65-Clipped">
				<g id="path-1_30_">
				</g>
				<defs>
					<filter id="Adobe_OpacityMaskFilter_28_" filterUnits="userSpaceOnUse" x="69.9" y="50.4" width="22.7" height="22.7">
						<feColorMatrix  type="matrix" values="1 0 0 0 0  0 1 0 0 0  0 0 1 0 0  0 0 0 1 0"/>
					</filter>
				</defs>
				<mask maskUnits="userSpaceOnUse" x="69.9" y="50.4" width="22.7" height="22.7" id="mask-58_2_">
					<g class="st74">
						<polygon id="path-57_2_" class="st18" points="-140.5,182.9 120.1,348.7 274,106.8 13.4,-59 						"/>
					</g>
				</mask>
				<polygon id="Fill-65" class="st75" points="69.9,64.3 83.8,73.1 92.7,59.2 78.8,50.4 				"/>
			</g>
			<g id="Fill-66-Clipped">
				<g id="path-1_31_">
				</g>
				<defs>
					<filter id="Adobe_OpacityMaskFilter_29_" filterUnits="userSpaceOnUse" x="65.6" y="95.3" width="22.7" height="22.7">
						<feColorMatrix  type="matrix" values="1 0 0 0 0  0 1 0 0 0  0 0 1 0 0  0 0 0 1 0"/>
					</filter>
				</defs>
				<mask maskUnits="userSpaceOnUse" x="65.6" y="95.3" width="22.7" height="22.7" id="mask-60_2_">
					<g class="st76">
						<polygon id="path-59_2_" class="st18" points="-140.5,182.9 120.1,348.7 274,106.8 13.4,-59 						"/>
					</g>
				</mask>
				<polygon id="Fill-66" class="st77" points="65.6,109.2 79.5,118.1 88.3,104.1 74.4,95.3 				"/>
			</g>
			<g id="Fill-67-Clipped">
				<g id="path-1_32_">
				</g>
				<defs>
					<filter id="Adobe_OpacityMaskFilter_30_" filterUnits="userSpaceOnUse" x="76.3" y="78.4" width="22.7" height="22.7">
						<feColorMatrix  type="matrix" values="1 0 0 0 0  0 1 0 0 0  0 0 1 0 0  0 0 0 1 0"/>
					</filter>
				</defs>
				<mask maskUnits="userSpaceOnUse" x="76.3" y="78.4" width="22.7" height="22.7" id="mask-62_2_">
					<g class="st78">
						<polygon id="path-61_2_" class="st18" points="-140.5,182.9 120.1,348.7 274,106.8 13.4,-59 						"/>
					</g>
				</mask>
				<polygon id="Fill-67" class="st79" points="76.3,92.3 90.2,101.2 99.1,87.3 85.2,78.4 				"/>
			</g>
			<g id="Fill-68-Clipped">
				<g id="path-1_33_">
				</g>
				<defs>
					<filter id="Adobe_OpacityMaskFilter_31_" filterUnits="userSpaceOnUse" x="87.2" y="61.3" width="22.7" height="22.7">
						<feColorMatrix  type="matrix" values="1 0 0 0 0  0 1 0 0 0  0 0 1 0 0  0 0 0 1 0"/>
					</filter>
				</defs>
				<mask maskUnits="userSpaceOnUse" x="87.2" y="61.3" width="22.7" height="22.7" id="mask-64_2_">
					<g class="st80">
						<polygon id="path-63_2_" class="st18" points="-140.5,182.9 120.1,348.7 274,106.8 13.4,-59 						"/>
					</g>
				</mask>
				<polygon id="Fill-68" class="st81" points="87.2,75.2 101.1,84.1 110,70.2 96.1,61.3 				"/>
			</g>
			<g id="Fill-69-Clipped">
				<g id="path-1_34_">
				</g>
				<defs>
					<filter id="Adobe_OpacityMaskFilter_32_" filterUnits="userSpaceOnUse" x="104.3" y="72.2" width="22.7" height="22.7">
						<feColorMatrix  type="matrix" values="1 0 0 0 0  0 1 0 0 0  0 0 1 0 0  0 0 0 1 0"/>
					</filter>
				</defs>
				<mask maskUnits="userSpaceOnUse" x="104.3" y="72.2" width="22.7" height="22.7" id="mask-66_2_">
					<g class="st82">
						<polygon id="path-65_2_" class="st18" points="-140.5,182.9 120.1,348.7 274,106.8 13.4,-59 						"/>
					</g>
				</mask>
				<polygon id="Fill-69" class="st83" points="104.3,86.1 118.2,95 127,81 113.1,72.2 				"/>
			</g>
			<g id="Fill-70-Clipped">
				<g id="path-1_35_">
				</g>
				<defs>
					<filter id="Adobe_OpacityMaskFilter_33_" filterUnits="userSpaceOnUse" x="-9" y="24.5" width="22.7" height="22.7">
						<feColorMatrix  type="matrix" values="1 0 0 0 0  0 1 0 0 0  0 0 1 0 0  0 0 0 1 0"/>
					</filter>
				</defs>
				<mask maskUnits="userSpaceOnUse" x="-9" y="24.5" width="22.7" height="22.7" id="mask-68_2_">
					<g class="st84">
						<polygon id="path-67_2_" class="st18" points="-140.5,182.9 120.1,348.7 274,106.8 13.4,-59 						"/>
					</g>
				</mask>
				<polygon id="Fill-70" class="st85" points="-9,38.4 4.9,47.2 13.7,33.3 -0.2,24.5 				"/>
			</g>
			<g id="Fill-71-Clipped">
				<g id="path-1_36_">
				</g>
				<defs>
					<filter id="Adobe_OpacityMaskFilter_34_" filterUnits="userSpaceOnUse" x="7.8" y="35.2" width="22.7" height="22.7">
						<feColorMatrix  type="matrix" values="1 0 0 0 0  0 1 0 0 0  0 0 1 0 0  0 0 0 1 0"/>
					</filter>
				</defs>
				<mask maskUnits="userSpaceOnUse" x="7.8" y="35.2" width="22.7" height="22.7" id="mask-70_2_">
					<g class="st86">
						<polygon id="path-69_2_" class="st18" points="-140.5,182.9 120.1,348.7 274,106.8 13.4,-59 						"/>
					</g>
				</mask>
				<polygon id="Fill-71" class="st87" points="7.8,49.1 21.7,57.9 30.6,44 16.7,35.2 				"/>
			</g>
			<g id="Fill-72-Clipped">
				<g id="path-1_37_">
				</g>
				<defs>
					<filter id="Adobe_OpacityMaskFilter_35_" filterUnits="userSpaceOnUse" x="-3.1" y="52.2" width="22.7" height="22.7">
						<feColorMatrix  type="matrix" values="1 0 0 0 0  0 1 0 0 0  0 0 1 0 0  0 0 0 1 0"/>
					</filter>
				</defs>
				<mask maskUnits="userSpaceOnUse" x="-3.1" y="52.2" width="22.7" height="22.7" id="mask-72_2_">
					<g class="st88">
						<polygon id="path-71_2_" class="st18" points="-140.5,182.9 120.1,348.7 274,106.8 13.4,-59 						"/>
					</g>
				</mask>
				<polygon id="Fill-72" class="st89" points="-3.1,66.1 10.8,75 19.7,61.1 5.8,52.2 				"/>
			</g>
			<g id="Fill-73-Clipped">
				<g id="path-1_38_">
				</g>
				<defs>
					<filter id="Adobe_OpacityMaskFilter_36_" filterUnits="userSpaceOnUse" x="14" y="63.1" width="22.7" height="22.7">
						<feColorMatrix  type="matrix" values="1 0 0 0 0  0 1 0 0 0  0 0 1 0 0  0 0 0 1 0"/>
					</filter>
				</defs>
				<mask maskUnits="userSpaceOnUse" x="14" y="63.1" width="22.7" height="22.7" id="mask-74_2_">
					<g class="st90">
						<polygon id="path-73_2_" class="st18" points="-140.5,182.9 120.1,348.7 274,106.8 13.4,-59 						"/>
					</g>
				</mask>
				<polygon id="Fill-73" class="st91" points="14,77 27.9,85.8 36.8,71.9 22.9,63.1 				"/>
			</g>
			<g id="Fill-74-Clipped" transform="translate(73.000000, 77.000000)">
				<polygon id="Fill-74" class="st92" points="-48,-17.3 -34.1,-8.5 -25.3,-22.4 -39.1,-31.2 				"/>
			</g>
		</g>
	</g>
</g>
<g id="WeHo-Logo_1_">
	<g id="Logo---City-of-West-Hollywood_1_" transform="translate(4.000000, 6.000000)">
		<g id="Group-75_1_">
			<g id="Fill-37-Clipped_1_">
				<g id="path-1_76_">
				</g>
				<defs>
					<filter id="Adobe_OpacityMaskFilter_37_" filterUnits="userSpaceOnUse" x="1454.8" y="928.2" width="19.5" height="19.5">
						<feColorMatrix  type="matrix" values="1 0 0 0 0  0 1 0 0 0  0 0 1 0 0  0 0 0 1 0"/>
					</filter>
				</defs>
				<mask maskUnits="userSpaceOnUse" x="1454.8" y="928.2" width="19.5" height="19.5" id="mask-2_1_">
					<g class="st93">
						<polygon id="path-1_74_" class="st18" points="1319.8,844.5 1255.7,1146.6 1536.2,1206.1 1600.3,904 						"/>
					</g>
				</mask>
				<polygon id="Fill-37_3_" class="st94" points="1458.2,928.2 1454.8,944.3 1470.9,947.8 1474.3,931.7 				"/>
			</g>
			<g id="Fill-38-Clipped_1_">
				<g id="path-1_73_">
				</g>
				<defs>
					<filter id="Adobe_OpacityMaskFilter_38_" filterUnits="userSpaceOnUse" x="1434.8" y="923.9" width="19.5" height="19.5">
						<feColorMatrix  type="matrix" values="1 0 0 0 0  0 1 0 0 0  0 0 1 0 0  0 0 0 1 0"/>
					</filter>
				</defs>
				<mask maskUnits="userSpaceOnUse" x="1434.8" y="923.9" width="19.5" height="19.5" id="mask-4_1_">
					<g class="st95">
						<polygon id="path-3_1_" class="st18" points="1319.8,844.5 1255.7,1146.6 1536.2,1206.1 1600.3,904 						"/>
					</g>
				</mask>
				<polygon id="Fill-38_2_" class="st96" points="1438.2,923.9 1434.8,940.1 1450.9,943.5 1454.3,927.4 				"/>
			</g>
			<g id="Fill-39-Clipped_1_">
				<g id="path-1_72_">
				</g>
				<defs>
					<filter id="Adobe_OpacityMaskFilter_39_" filterUnits="userSpaceOnUse" x="1430.6" y="943.7" width="19.5" height="19.5">
						<feColorMatrix  type="matrix" values="1 0 0 0 0  0 1 0 0 0  0 0 1 0 0  0 0 0 1 0"/>
					</filter>
				</defs>
				<mask maskUnits="userSpaceOnUse" x="1430.6" y="943.7" width="19.5" height="19.5" id="mask-6_1_">
					<g class="st97">
						<polygon id="path-5_1_" class="st18" points="1319.8,844.5 1255.7,1146.6 1536.2,1206.1 1600.3,904 						"/>
					</g>
				</mask>
				<polygon id="Fill-39_3_" class="st98" points="1434,943.7 1430.6,959.8 1446.7,963.3 1450.1,947.2 				"/>
			</g>
			<g id="Fill-40-Clipped_1_">
				<g id="path-1_71_">
				</g>
				<defs>
					<filter id="Adobe_OpacityMaskFilter_40_" filterUnits="userSpaceOnUse" x="1450.2" y="947.9" width="19.5" height="19.5">
						<feColorMatrix  type="matrix" values="1 0 0 0 0  0 1 0 0 0  0 0 1 0 0  0 0 0 1 0"/>
					</filter>
				</defs>
				<mask maskUnits="userSpaceOnUse" x="1450.2" y="947.9" width="19.5" height="19.5" id="mask-8_1_">
					<g class="st99">
						<polygon id="path-7_1_" class="st18" points="1319.8,844.5 1255.7,1146.6 1536.2,1206.1 1600.3,904 						"/>
					</g>
				</mask>
				<polygon id="Fill-40_2_" class="st100" points="1453.6,947.9 1450.2,964 1466.3,967.4 1469.7,951.3 				"/>
			</g>
			<g id="Fill-41-Clipped_1_">
				<g id="path-1_70_">
				</g>
				<defs>
					<filter id="Adobe_OpacityMaskFilter_41_" filterUnits="userSpaceOnUse" x="1485.3" y="976.3" width="19.5" height="19.5">
						<feColorMatrix  type="matrix" values="1 0 0 0 0  0 1 0 0 0  0 0 1 0 0  0 0 0 1 0"/>
					</filter>
				</defs>
				<mask maskUnits="userSpaceOnUse" x="1485.3" y="976.3" width="19.5" height="19.5" id="mask-10_1_">
					<g class="st101">
						<polygon id="path-9_1_" class="st18" points="1319.8,844.5 1255.7,1146.6 1536.2,1206.1 1600.3,904 						"/>
					</g>
				</mask>
				<polygon id="Fill-41_3_" class="st102" points="1488.7,976.3 1485.3,992.4 1501.4,995.8 1504.8,979.7 				"/>
			</g>
			<g id="Fill-42-Clipped_1_">
				<g id="path-1_69_">
				</g>
				<defs>
					<filter id="Adobe_OpacityMaskFilter_42_" filterUnits="userSpaceOnUse" x="1465.5" y="972" width="19.5" height="19.5">
						<feColorMatrix  type="matrix" values="1 0 0 0 0  0 1 0 0 0  0 0 1 0 0  0 0 0 1 0"/>
					</filter>
				</defs>
				<mask maskUnits="userSpaceOnUse" x="1465.5" y="972" width="19.5" height="19.5" id="mask-12_1_">
					<g class="st103">
						<polygon id="path-11_1_" class="st18" points="1319.8,844.5 1255.7,1146.6 1536.2,1206.1 1600.3,904 						"/>
					</g>
				</mask>
				<polygon id="Fill-42_2_" class="st104" points="1468.9,972 1465.5,988.1 1481.6,991.5 1485,975.4 				"/>
			</g>
			<g id="Fill-43-Clipped_1_">
				<g id="path-1_68_">
				</g>
				<defs>
					<filter id="Adobe_OpacityMaskFilter_43_" filterUnits="userSpaceOnUse" x="1481.3" y="996.1" width="19.5" height="19.5">
						<feColorMatrix  type="matrix" values="1 0 0 0 0  0 1 0 0 0  0 0 1 0 0  0 0 0 1 0"/>
					</filter>
				</defs>
				<mask maskUnits="userSpaceOnUse" x="1481.3" y="996.1" width="19.5" height="19.5" id="mask-14_1_">
					<g class="st105">
						<polygon id="path-13_1_" class="st18" points="1319.8,844.5 1255.7,1146.6 1536.2,1206.1 1600.3,904 						"/>
					</g>
				</mask>
				<polygon id="Fill-43_2_" class="st106" points="1484.8,996.1 1481.3,1012.2 1497.5,1015.6 1500.9,999.5 				"/>
			</g>
			<g id="Fill-44-Clipped_1_">
				<g id="path-1_67_">
				</g>
				<defs>
					<filter id="Adobe_OpacityMaskFilter_44_" filterUnits="userSpaceOnUse" x="1445.9" y="967.7" width="19.5" height="19.5">
						<feColorMatrix  type="matrix" values="1 0 0 0 0  0 1 0 0 0  0 0 1 0 0  0 0 0 1 0"/>
					</filter>
				</defs>
				<mask maskUnits="userSpaceOnUse" x="1445.9" y="967.7" width="19.5" height="19.5" id="mask-16_1_">
					<g class="st107">
						<polygon id="path-15_1_" class="st18" points="1319.8,844.5 1255.7,1146.6 1536.2,1206.1 1600.3,904 						"/>
					</g>
				</mask>
				<polygon id="Fill-44_2_" class="st108" points="1449.3,967.7 1445.9,983.8 1462,987.3 1465.5,971.1 				"/>
			</g>
			<g id="Fill-45-Clipped_1_">
				<g id="path-1_66_">
				</g>
				<defs>
					<filter id="Adobe_OpacityMaskFilter_45_" filterUnits="userSpaceOnUse" x="1426.4" y="963.5" width="19.5" height="19.5">
						<feColorMatrix  type="matrix" values="1 0 0 0 0  0 1 0 0 0  0 0 1 0 0  0 0 0 1 0"/>
					</filter>
				</defs>
				<mask maskUnits="userSpaceOnUse" x="1426.4" y="963.5" width="19.5" height="19.5" id="mask-18_1_">
					<g class="st109">
						<polygon id="path-17_1_" class="st18" points="1319.8,844.5 1255.7,1146.6 1536.2,1206.1 1600.3,904 						"/>
					</g>
				</mask>
				<polygon id="Fill-45_2_" class="st110" points="1429.8,963.5 1426.4,979.6 1442.5,983.1 1445.9,966.9 				"/>
			</g>
			<g id="Fill-46-Clipped_1_">
				<g id="path-1_65_">
				</g>
				<defs>
					<filter id="Adobe_OpacityMaskFilter_46_" filterUnits="userSpaceOnUse" x="1472.5" y="1035.5" width="19.5" height="19.5">
						<feColorMatrix  type="matrix" values="1 0 0 0 0  0 1 0 0 0  0 0 1 0 0  0 0 0 1 0"/>
					</filter>
				</defs>
				<mask maskUnits="userSpaceOnUse" x="1472.5" y="1035.5" width="19.5" height="19.5" id="mask-20_1_">
					<g class="st111">
						<polygon id="path-19_1_" class="st18" points="1319.8,844.5 1255.7,1146.6 1536.2,1206.1 1600.3,904 						"/>
					</g>
				</mask>
				<polygon id="Fill-46_2_" class="st112" points="1475.9,1035.5 1472.5,1051.7 1488.6,1055.1 1492,1039 				"/>
			</g>
			<g id="Fill-47-Clipped_1_">
				<g id="path-1_64_">
				</g>
				<defs>
					<filter id="Adobe_OpacityMaskFilter_47_" filterUnits="userSpaceOnUse" x="1468.5" y="1055.4" width="19.5" height="19.5">
						<feColorMatrix  type="matrix" values="1 0 0 0 0  0 1 0 0 0  0 0 1 0 0  0 0 0 1 0"/>
					</filter>
				</defs>
				<mask maskUnits="userSpaceOnUse" x="1468.5" y="1055.4" width="19.5" height="19.5" id="mask-22_1_">
					<g class="st113">
						<polygon id="path-21_1_" class="st18" points="1319.8,844.5 1255.7,1146.6 1536.2,1206.1 1600.3,904 						"/>
					</g>
				</mask>
				<polygon id="Fill-47_2_" class="st114" points="1471.9,1055.4 1468.5,1071.5 1484.6,1075 1488,1058.8 				"/>
			</g>
			<g id="Fill-48-Clipped_1_">
				<g id="path-1_63_">
				</g>
				<defs>
					<filter id="Adobe_OpacityMaskFilter_48_" filterUnits="userSpaceOnUse" x="1449.1" y="1051.3" width="19.5" height="19.5">
						<feColorMatrix  type="matrix" values="1 0 0 0 0  0 1 0 0 0  0 0 1 0 0  0 0 0 1 0"/>
					</filter>
				</defs>
				<mask maskUnits="userSpaceOnUse" x="1449.1" y="1051.3" width="19.5" height="19.5" id="mask-24_1_">
					<g class="st115">
						<polygon id="path-23_1_" class="st18" points="1319.8,844.5 1255.7,1146.6 1536.2,1206.1 1600.3,904 						"/>
					</g>
				</mask>
				<polygon id="Fill-48_2_" class="st116" points="1452.6,1051.3 1449.1,1067.4 1465.3,1070.8 1468.7,1054.7 				"/>
			</g>
			<g id="Fill-49-Clipped_1_">
				<g id="path-1_62_">
				</g>
				<defs>
					<filter id="Adobe_OpacityMaskFilter_49_" filterUnits="userSpaceOnUse" x="1445" y="1070.8" width="19.5" height="19.5">
						<feColorMatrix  type="matrix" values="1 0 0 0 0  0 1 0 0 0  0 0 1 0 0  0 0 0 1 0"/>
					</filter>
				</defs>
				<mask maskUnits="userSpaceOnUse" x="1445" y="1070.8" width="19.5" height="19.5" id="mask-26_1_">
					<g class="st117">
						<polygon id="path-25_1_" class="st18" points="1319.8,844.5 1255.7,1146.6 1536.2,1206.1 1600.3,904 						"/>
					</g>
				</mask>
				<polygon id="Fill-49_2_" class="st118" points="1448.4,1070.8 1445,1086.9 1461.1,1090.4 1464.5,1074.3 				"/>
			</g>
			<g id="Fill-50-Clipped_1_">
				<g id="path-1_61_">
				</g>
				<defs>
					<filter id="Adobe_OpacityMaskFilter_50_" filterUnits="userSpaceOnUse" x="1464.1" y="1074.9" width="19.5" height="19.5">
						<feColorMatrix  type="matrix" values="1 0 0 0 0  0 1 0 0 0  0 0 1 0 0  0 0 0 1 0"/>
					</filter>
				</defs>
				<mask maskUnits="userSpaceOnUse" x="1464.1" y="1074.9" width="19.5" height="19.5" id="mask-28_1_">
					<g class="st119">
						<polygon id="path-27_1_" class="st18" points="1319.8,844.5 1255.7,1146.6 1536.2,1206.1 1600.3,904 						"/>
					</g>
				</mask>
				<polygon id="Fill-50_2_" class="st120" points="1467.6,1074.9 1464.1,1091 1480.3,1094.4 1483.7,1078.3 				"/>
			</g>
			<g id="Fill-51-Clipped_1_">
				<g id="path-1_60_">
				</g>
				<defs>
					<filter id="Adobe_OpacityMaskFilter_51_" filterUnits="userSpaceOnUse" x="1460.4" y="1094.8" width="19.5" height="19.5">
						<feColorMatrix  type="matrix" values="1 0 0 0 0  0 1 0 0 0  0 0 1 0 0  0 0 0 1 0"/>
					</filter>
				</defs>
				<mask maskUnits="userSpaceOnUse" x="1460.4" y="1094.8" width="19.5" height="19.5" id="mask-30_1_">
					<g class="st121">
						<polygon id="path-29_1_" class="st18" points="1319.8,844.5 1255.7,1146.6 1536.2,1206.1 1600.3,904 						"/>
					</g>
				</mask>
				<polygon id="Fill-51_2_" class="st122" points="1463.8,1094.8 1460.4,1110.9 1476.5,1114.3 1479.9,1098.2 				"/>
			</g>
			<g id="Fill-52-Clipped_1_">
				<g id="path-1_59_">
				</g>
				<defs>
					<filter id="Adobe_OpacityMaskFilter_52_" filterUnits="userSpaceOnUse" x="1456.2" y="1114.6" width="19.5" height="19.5">
						<feColorMatrix  type="matrix" values="1 0 0 0 0  0 1 0 0 0  0 0 1 0 0  0 0 0 1 0"/>
					</filter>
				</defs>
				<mask maskUnits="userSpaceOnUse" x="1456.2" y="1114.6" width="19.5" height="19.5" id="mask-32_1_">
					<g class="st123">
						<polygon id="path-31_1_" class="st18" points="1319.8,844.5 1255.7,1146.6 1536.2,1206.1 1600.3,904 						"/>
					</g>
				</mask>
				<polygon id="Fill-52_2_" class="st124" points="1459.6,1114.6 1456.2,1130.7 1472.3,1134.2 1475.7,1118 				"/>
			</g>
			<g id="Fill-53-Clipped_1_">
				<g id="path-1_58_">
				</g>
				<defs>
					<filter id="Adobe_OpacityMaskFilter_53_" filterUnits="userSpaceOnUse" x="1451.8" y="1134.3" width="19.5" height="19.5">
						<feColorMatrix  type="matrix" values="1 0 0 0 0  0 1 0 0 0  0 0 1 0 0  0 0 0 1 0"/>
					</filter>
				</defs>
				<mask maskUnits="userSpaceOnUse" x="1451.8" y="1134.3" width="19.5" height="19.5" id="mask-34_1_">
					<g class="st125">
						<polygon id="path-33_1_" class="st18" points="1319.8,844.5 1255.7,1146.6 1536.2,1206.1 1600.3,904 						"/>
					</g>
				</mask>
				<polygon id="Fill-53_2_" class="st126" points="1455.2,1134.3 1451.8,1150.4 1467.9,1153.9 1471.3,1137.7 				"/>
			</g>
			<g id="Fill-54-Clipped_1_">
				<g id="path-1_57_">
				</g>
				<defs>
					<filter id="Adobe_OpacityMaskFilter_54_" filterUnits="userSpaceOnUse" x="1516.5" y="1024.1" width="19.5" height="19.5">
						<feColorMatrix  type="matrix" values="1 0 0 0 0  0 1 0 0 0  0 0 1 0 0  0 0 0 1 0"/>
					</filter>
				</defs>
				<mask maskUnits="userSpaceOnUse" x="1516.5" y="1024.1" width="19.5" height="19.5" id="mask-36_1_">
					<g class="st127">
						<polygon id="path-35_1_" class="st18" points="1319.8,844.5 1255.7,1146.6 1536.2,1206.1 1600.3,904 						"/>
					</g>
				</mask>
				<polygon id="Fill-54_2_" class="st128" points="1519.9,1024.1 1516.5,1040.2 1532.6,1043.6 1536,1027.5 				"/>
			</g>
			<g id="Fill-55-Clipped_1_">
				<g id="path-1_56_">
				</g>
				<defs>
					<filter id="Adobe_OpacityMaskFilter_55_" filterUnits="userSpaceOnUse" x="1488.5" y="1059.7" width="19.5" height="19.5">
						<feColorMatrix  type="matrix" values="1 0 0 0 0  0 1 0 0 0  0 0 1 0 0  0 0 0 1 0"/>
					</filter>
				</defs>
				<mask maskUnits="userSpaceOnUse" x="1488.5" y="1059.7" width="19.5" height="19.5" id="mask-38_1_">
					<g class="st129">
						<polygon id="path-37_1_" class="st18" points="1319.8,844.5 1255.7,1146.6 1536.2,1206.1 1600.3,904 						"/>
					</g>
				</mask>
				<polygon id="Fill-55_1_" class="st130" points="1491.9,1059.7 1488.5,1075.8 1504.6,1079.2 1508,1063.1 				"/>
			</g>
			<g id="Fill-56-Clipped_1_">
				<g id="path-1_55_">
				</g>
				<defs>
					<filter id="Adobe_OpacityMaskFilter_56_" filterUnits="userSpaceOnUse" x="1484.3" y="1079.5" width="19.5" height="19.5">
						<feColorMatrix  type="matrix" values="1 0 0 0 0  0 1 0 0 0  0 0 1 0 0  0 0 0 1 0"/>
					</filter>
				</defs>
				<mask maskUnits="userSpaceOnUse" x="1484.3" y="1079.5" width="19.5" height="19.5" id="mask-40_1_">
					<g class="st131">
						<polygon id="path-39_1_" class="st18" points="1319.8,844.5 1255.7,1146.6 1536.2,1206.1 1600.3,904 						"/>
					</g>
				</mask>
				<polygon id="Fill-56_2_" class="st132" points="1487.7,1079.5 1484.3,1095.6 1500.4,1099 1503.8,1082.9 				"/>
			</g>
			<g id="Fill-57-Clipped_1_">
				<g id="path-1_54_">
				</g>
				<defs>
					<filter id="Adobe_OpacityMaskFilter_57_" filterUnits="userSpaceOnUse" x="1512.3" y="1043.8" width="19.5" height="19.5">
						<feColorMatrix  type="matrix" values="1 0 0 0 0  0 1 0 0 0  0 0 1 0 0  0 0 0 1 0"/>
					</filter>
				</defs>
				<mask maskUnits="userSpaceOnUse" x="1512.3" y="1043.8" width="19.5" height="19.5" id="mask-42_1_">
					<g class="st133">
						<polygon id="path-41_1_" class="st18" points="1319.8,844.5 1255.7,1146.6 1536.2,1206.1 1600.3,904 						"/>
					</g>
				</mask>
				<polygon id="Fill-57_1_" class="st134" points="1515.7,1043.8 1512.3,1059.9 1528.4,1063.3 1531.9,1047.2 				"/>
			</g>
			<g id="Fill-58-Clipped_1_">
				<g id="path-1_53_">
				</g>
				<defs>
					<filter id="Adobe_OpacityMaskFilter_58_" filterUnits="userSpaceOnUse" x="1480.2" y="1099" width="19.5" height="19.5">
						<feColorMatrix  type="matrix" values="1 0 0 0 0  0 1 0 0 0  0 0 1 0 0  0 0 0 1 0"/>
					</filter>
				</defs>
				<mask maskUnits="userSpaceOnUse" x="1480.2" y="1099" width="19.5" height="19.5" id="mask-44_1_">
					<g class="st135">
						<polygon id="path-43_1_" class="st18" points="1319.8,844.5 1255.7,1146.6 1536.2,1206.1 1600.3,904 						"/>
					</g>
				</mask>
				<polygon id="Fill-58_2_" class="st136" points="1483.6,1099 1480.2,1115.1 1496.3,1118.6 1499.7,1102.4 				"/>
			</g>
			<g id="Fill-59-Clipped_1_">
				<g id="path-1_52_">
				</g>
				<defs>
					<filter id="Adobe_OpacityMaskFilter_59_" filterUnits="userSpaceOnUse" x="1476" y="1118.8" width="19.5" height="19.5">
						<feColorMatrix  type="matrix" values="1 0 0 0 0  0 1 0 0 0  0 0 1 0 0  0 0 0 1 0"/>
					</filter>
				</defs>
				<mask maskUnits="userSpaceOnUse" x="1476" y="1118.8" width="19.5" height="19.5" id="mask-46_1_">
					<g class="st137">
						<polygon id="path-45_1_" class="st18" points="1319.8,844.5 1255.7,1146.6 1536.2,1206.1 1600.3,904 						"/>
					</g>
				</mask>
				<polygon id="Fill-59_1_" class="st138" points="1479.4,1118.8 1476,1134.9 1492.1,1138.4 1495.5,1122.2 				"/>
			</g>
			<g id="Fill-60-Clipped_1_">
				<g id="path-1_51_">
				</g>
				<defs>
					<filter id="Adobe_OpacityMaskFilter_60_" filterUnits="userSpaceOnUse" x="1471.8" y="1138.6" width="19.5" height="19.5">
						<feColorMatrix  type="matrix" values="1 0 0 0 0  0 1 0 0 0  0 0 1 0 0  0 0 0 1 0"/>
					</filter>
				</defs>
				<mask maskUnits="userSpaceOnUse" x="1471.8" y="1138.6" width="19.5" height="19.5" id="mask-48_1_">
					<g class="st139">
						<polygon id="path-47_1_" class="st18" points="1319.8,844.5 1255.7,1146.6 1536.2,1206.1 1600.3,904 						"/>
					</g>
				</mask>
				<polygon id="Fill-60_2_" class="st140" points="1475.2,1138.6 1471.8,1154.7 1487.9,1158.1 1491.3,1142 				"/>
			</g>
			<g id="Fill-61-Clipped_1_">
				<g id="path-1_50_">
				</g>
				<defs>
					<filter id="Adobe_OpacityMaskFilter_61_" filterUnits="userSpaceOnUse" x="1414.9" y="919.8" width="19.5" height="19.5">
						<feColorMatrix  type="matrix" values="1 0 0 0 0  0 1 0 0 0  0 0 1 0 0  0 0 0 1 0"/>
					</filter>
				</defs>
				<mask maskUnits="userSpaceOnUse" x="1414.9" y="919.8" width="19.5" height="19.5" id="mask-50_1_">
					<g class="st141">
						<polygon id="path-49_1_" class="st18" points="1319.8,844.5 1255.7,1146.6 1536.2,1206.1 1600.3,904 						"/>
					</g>
				</mask>
				<polygon id="Fill-61_1_" class="st142" points="1418.3,919.8 1414.9,935.9 1431,939.3 1434.4,923.2 				"/>
			</g>
			<g id="Fill-62-Clipped_1_">
				<g id="path-1_49_">
				</g>
				<defs>
					<filter id="Adobe_OpacityMaskFilter_62_" filterUnits="userSpaceOnUse" x="1410.7" y="939.5" width="19.5" height="19.5">
						<feColorMatrix  type="matrix" values="1 0 0 0 0  0 1 0 0 0  0 0 1 0 0  0 0 0 1 0"/>
					</filter>
				</defs>
				<mask maskUnits="userSpaceOnUse" x="1410.7" y="939.5" width="19.5" height="19.5" id="mask-52_1_">
					<g class="st143">
						<polygon id="path-51_1_" class="st18" points="1319.8,844.5 1255.7,1146.6 1536.2,1206.1 1600.3,904 						"/>
					</g>
				</mask>
				<polygon id="Fill-62_1_" class="st144" points="1414.2,939.5 1410.7,955.6 1426.9,959.1 1430.3,942.9 				"/>
			</g>
			<g id="Fill-63-Clipped_1_">
				<g id="path-1_48_">
				</g>
				<defs>
					<filter id="Adobe_OpacityMaskFilter_63_" filterUnits="userSpaceOnUse" x="1406.6" y="959.1" width="19.5" height="19.5">
						<feColorMatrix  type="matrix" values="1 0 0 0 0  0 1 0 0 0  0 0 1 0 0  0 0 0 1 0"/>
					</filter>
				</defs>
				<mask maskUnits="userSpaceOnUse" x="1406.6" y="959.1" width="19.5" height="19.5" id="mask-54_1_">
					<g class="st145">
						<polygon id="path-53_1_" class="st18" points="1319.8,844.5 1255.7,1146.6 1536.2,1206.1 1600.3,904 						"/>
					</g>
				</mask>
				<polygon id="Fill-63_1_" class="st146" points="1410,959.1 1406.6,975.2 1422.7,978.6 1426.1,962.5 				"/>
			</g>
			<g id="Fill-64-Clipped_1_">
				<g id="path-1_47_">
				</g>
				<defs>
					<filter id="Adobe_OpacityMaskFilter_64_" filterUnits="userSpaceOnUse" x="1422.2" y="983.1" width="19.5" height="19.5">
						<feColorMatrix  type="matrix" values="1 0 0 0 0  0 1 0 0 0  0 0 1 0 0  0 0 0 1 0"/>
					</filter>
				</defs>
				<mask maskUnits="userSpaceOnUse" x="1422.2" y="983.1" width="19.5" height="19.5" id="mask-56_1_">
					<g class="st147">
						<polygon id="path-55_1_" class="st18" points="1319.8,844.5 1255.7,1146.6 1536.2,1206.1 1600.3,904 						"/>
					</g>
				</mask>
				<polygon id="Fill-64_1_" class="st148" points="1425.6,983.1 1422.2,999.2 1438.3,1002.6 1441.7,986.5 				"/>
			</g>
			<g id="Fill-65-Clipped_1_">
				<g id="path-1_46_">
				</g>
				<defs>
					<filter id="Adobe_OpacityMaskFilter_65_" filterUnits="userSpaceOnUse" x="1501.1" y="1000.1" width="19.5" height="19.5">
						<feColorMatrix  type="matrix" values="1 0 0 0 0  0 1 0 0 0  0 0 1 0 0  0 0 0 1 0"/>
					</filter>
				</defs>
				<mask maskUnits="userSpaceOnUse" x="1501.1" y="1000.1" width="19.5" height="19.5" id="mask-58_1_">
					<g class="st149">
						<polygon id="path-57_1_" class="st18" points="1319.8,844.5 1255.7,1146.6 1536.2,1206.1 1600.3,904 						"/>
					</g>
				</mask>
				<polygon id="Fill-65_1_" class="st150" points="1504.6,1000.1 1501.1,1016.2 1517.3,1019.6 1520.7,1003.5 				"/>
			</g>
			<g id="Fill-66-Clipped_1_">
				<g id="path-1_45_">
				</g>
				<defs>
					<filter id="Adobe_OpacityMaskFilter_66_" filterUnits="userSpaceOnUse" x="1457.5" y="1011.7" width="19.5" height="19.5">
						<feColorMatrix  type="matrix" values="1 0 0 0 0  0 1 0 0 0  0 0 1 0 0  0 0 0 1 0"/>
					</filter>
				</defs>
				<mask maskUnits="userSpaceOnUse" x="1457.5" y="1011.7" width="19.5" height="19.5" id="mask-60_1_">
					<g class="st151">
						<polygon id="path-59_1_" class="st18" points="1319.8,844.5 1255.7,1146.6 1536.2,1206.1 1600.3,904 						"/>
					</g>
				</mask>
				<polygon id="Fill-66_1_" class="st152" points="1460.9,1011.7 1457.5,1027.8 1473.6,1031.3 1477.1,1015.2 				"/>
			</g>
			<g id="Fill-67-Clipped_1_">
				<g id="path-1_44_">
				</g>
				<defs>
					<filter id="Adobe_OpacityMaskFilter_67_" filterUnits="userSpaceOnUse" x="1477.1" y="1015.9" width="19.5" height="19.5">
						<feColorMatrix  type="matrix" values="1 0 0 0 0  0 1 0 0 0  0 0 1 0 0  0 0 0 1 0"/>
					</filter>
				</defs>
				<mask maskUnits="userSpaceOnUse" x="1477.1" y="1015.9" width="19.5" height="19.5" id="mask-62_1_">
					<g class="st153">
						<polygon id="path-61_1_" class="st18" points="1319.8,844.5 1255.7,1146.6 1536.2,1206.1 1600.3,904 						"/>
					</g>
				</mask>
				<polygon id="Fill-67_1_" class="st154" points="1480.5,1015.9 1477.1,1032 1493.2,1035.4 1496.6,1019.3 				"/>
			</g>
			<g id="Fill-68-Clipped_1_">
				<g id="path-1_43_">
				</g>
				<defs>
					<filter id="Adobe_OpacityMaskFilter_68_" filterUnits="userSpaceOnUse" x="1496.9" y="1020.1" width="19.5" height="19.5">
						<feColorMatrix  type="matrix" values="1 0 0 0 0  0 1 0 0 0  0 0 1 0 0  0 0 0 1 0"/>
					</filter>
				</defs>
				<mask maskUnits="userSpaceOnUse" x="1496.9" y="1020.1" width="19.5" height="19.5" id="mask-64_1_">
					<g class="st155">
						<polygon id="path-63_1_" class="st18" points="1319.8,844.5 1255.7,1146.6 1536.2,1206.1 1600.3,904 						"/>
					</g>
				</mask>
				<polygon id="Fill-68_1_" class="st156" points="1500.3,1020.1 1496.9,1036.2 1513,1039.6 1516.4,1023.5 				"/>
			</g>
			<g id="Fill-69-Clipped_1_">
				<g id="path-1_42_">
				</g>
				<defs>
					<filter id="Adobe_OpacityMaskFilter_69_" filterUnits="userSpaceOnUse" x="1492.7" y="1039.9" width="19.5" height="19.5">
						<feColorMatrix  type="matrix" values="1 0 0 0 0  0 1 0 0 0  0 0 1 0 0  0 0 0 1 0"/>
					</filter>
				</defs>
				<mask maskUnits="userSpaceOnUse" x="1492.7" y="1039.9" width="19.5" height="19.5" id="mask-66_1_">
					<g class="st157">
						<polygon id="path-65_1_" class="st18" points="1319.8,844.5 1255.7,1146.6 1536.2,1206.1 1600.3,904 						"/>
					</g>
				</mask>
				<polygon id="Fill-69_1_" class="st158" points="1496.1,1039.9 1492.7,1056 1508.8,1059.4 1512.2,1043.3 				"/>
			</g>
			<g id="Fill-70-Clipped_1_">
				<g id="path-1_41_">
				</g>
				<defs>
					<filter id="Adobe_OpacityMaskFilter_70_" filterUnits="userSpaceOnUse" x="1497.7" y="917" width="19.5" height="19.5">
						<feColorMatrix  type="matrix" values="1 0 0 0 0  0 1 0 0 0  0 0 1 0 0  0 0 0 1 0"/>
					</filter>
				</defs>
				<mask maskUnits="userSpaceOnUse" x="1497.7" y="917" width="19.5" height="19.5" id="mask-68_1_">
					<g class="st159">
						<polygon id="path-67_1_" class="st18" points="1319.8,844.5 1255.7,1146.6 1536.2,1206.1 1600.3,904 						"/>
					</g>
				</mask>
				<polygon id="Fill-70_1_" class="st160" points="1501.2,917 1497.7,933.1 1513.9,936.5 1517.3,920.4 				"/>
			</g>
			<g id="Fill-71-Clipped_1_">
				<g id="path-1_40_">
				</g>
				<defs>
					<filter id="Adobe_OpacityMaskFilter_71_" filterUnits="userSpaceOnUse" x="1493.6" y="936.6" width="19.5" height="19.5">
						<feColorMatrix  type="matrix" values="1 0 0 0 0  0 1 0 0 0  0 0 1 0 0  0 0 0 1 0"/>
					</filter>
				</defs>
				<mask maskUnits="userSpaceOnUse" x="1493.6" y="936.6" width="19.5" height="19.5" id="mask-70_1_">
					<g class="st161">
						<polygon id="path-69_1_" class="st18" points="1319.8,844.5 1255.7,1146.6 1536.2,1206.1 1600.3,904 						"/>
					</g>
				</mask>
				<polygon id="Fill-71_1_" class="st162" points="1497,936.6 1493.6,952.7 1509.7,956.1 1513.1,940 				"/>
			</g>
			<g id="Fill-72-Clipped_1_">
				<g id="path-1_39_">
				</g>
				<defs>
					<filter id="Adobe_OpacityMaskFilter_72_" filterUnits="userSpaceOnUse" x="1473.8" y="932.3" width="19.5" height="19.5">
						<feColorMatrix  type="matrix" values="1 0 0 0 0  0 1 0 0 0  0 0 1 0 0  0 0 0 1 0"/>
					</filter>
				</defs>
				<mask maskUnits="userSpaceOnUse" x="1473.8" y="932.3" width="19.5" height="19.5" id="mask-72_1_">
					<g class="st163">
						<polygon id="path-71_1_" class="st18" points="1319.8,844.5 1255.7,1146.6 1536.2,1206.1 1600.3,904 						"/>
					</g>
				</mask>
				<polygon id="Fill-72_1_" class="st164" points="1477.3,932.3 1473.8,948.4 1490,951.9 1493.4,935.8 				"/>
			</g>
			<g id="Fill-73-Clipped_1_">
				<g id="path-1_2_">
				</g>
				<defs>
					<filter id="Adobe_OpacityMaskFilter_73_" filterUnits="userSpaceOnUse" x="1469.7" y="952.1" width="19.5" height="19.5">
						<feColorMatrix  type="matrix" values="1 0 0 0 0  0 1 0 0 0  0 0 1 0 0  0 0 0 1 0"/>
					</filter>
				</defs>
				<mask maskUnits="userSpaceOnUse" x="1469.7" y="952.1" width="19.5" height="19.5" id="mask-74_1_">
					<g class="st165">
						<polygon id="path-73_1_" class="st18" points="1319.8,844.5 1255.7,1146.6 1536.2,1206.1 1600.3,904 						"/>
					</g>
				</mask>
				<polygon id="Fill-73_1_" class="st166" points="1473.1,952.1 1469.7,968.2 1485.8,971.7 1489.2,955.5 				"/>
			</g>
			<g id="Fill-74-Clipped_1_" transform="translate(73.000000, 77.000000)">
				<polygon id="Fill-74_1_" class="st92" points="1420.1,879.4 1416.7,895.5 1432.8,898.9 1436.2,882.8 				"/>
			</g>
		</g>
	</g>
</g>
</svg>
