<svg id="Layer_1" data-name="Layer 1" xmlns="http://www.w3.org/2000/svg" xmlns:xlink="http://www.w3.org/1999/xlink" viewBox="0 0 960 860"><defs><style>.cls-1{fill:#fff;}.cls-2{fill:none;}.cls-3{mask:url(#mask);}.cls-4{fill:#f8e71c;}.cls-5{clip-path:url(#clip-path);}.cls-6{fill:#ee509a;stroke:#000;stroke-miterlimit:10;}.cls-7{fill:#d1de6c;}.cls-8{fill:#b3ba4b;}.cls-9{fill:#9d8974;}.cls-10{fill:#e8aa6b;}.cls-11{fill:#7c6653;}.cls-12{fill:#c0824c;}.cls-13{fill:#3d1717;}.cls-14{mask:url(#mask-2);}.cls-15{fill:#a6d8d7;}.cls-16{mask:url(#mask-3);}</style><mask id="mask" x="-332.21" y="207.42" width="420.82" height="417.93" maskUnits="userSpaceOnUse"><g id="mask-68"><polygon id="path-67" class="cls-1" points="-94.53 207.42 -332.2 404.72 -149.06 625.35 88.62 428.04 -94.53 207.42"/></g></mask><clipPath id="clip-path"><rect class="cls-2" x="-969.32" y="24.19" width="960" height="820"/></clipPath><mask id="mask-2" x="80.98" y="667.97" width="22.99" height="22.67" maskUnits="userSpaceOnUse"><g id="mask-2-2" data-name="mask-2"><path id="path-1" class="cls-1" d="M92.57,678.29c1.13,6.23-.47,11.74-3.57,12.3s-6.53-4-7.66-10.27.48-11.74,3.58-12.3,6.52,4,7.65,10.27"/></g></mask><mask id="mask-3" x="92.47" y="663.55" width="21.52" height="22.67" maskUnits="userSpaceOnUse"><g id="mask-4"><path id="path-3" class="cls-1" d="M113.62,673.87c1.13,6.23-.47,11.74-3.57,12.3s-6.53-4-7.65-10.28.47-11.74,3.57-12.3,6.53,4,7.65,10.28"/></g></mask></defs><title>Artboard 2</title><g id="WeHo-Logo"><g id="Logo---City-of-West-Hollywood"><g id="Group-75"><g id="Fill-70-Clipped"><g class="cls-3"><polygon id="Fill-70" class="cls-4" points="2.78 376.81 -9.89 387.33 0.63 400.01 13.3 389.49 2.78 376.81"/></g></g></g></g></g><rect class="cls-6" x="0.48" y="0.09" width="960.14" height="860.93"/><g id="frankenstein"><path id="Fill-5" class="cls-7" d="M142.15,827.32c-4.27,8.65-3.83,15.14-1.09,20h0s-1.16,1.79-5.13,1.14-1.69-8.42-6.55-8.42a6.17,6.17,0,0,0-1.44.18,144.85,144.85,0,0,0-.69-14.64l0,0c15.56-7.78,25.1-25.92,28.58-47.13h0S156.72,797.88,142.15,827.32Zm-52.79,27c-5.25-.05-6.62-1.4-6.49-3.43A11.67,11.67,0,0,0,85.8,841a22.52,22.52,0,0,0-2-6.08A61.21,61.21,0,0,0,78,826.37c-5-7.14-11.42-16.17-15.46-26.55-5.64-14.51-7-31.17-.25-54.42-.23,1.38-11.44,69.19,33.12,82.21l-1.25-.29A156.44,156.44,0,0,0,96,855.2h0A23.06,23.06,0,0,0,89.36,854.32Zm91.15-63c-8.5-50.25-32.29-78-32.29-78A85.19,85.19,0,0,0,125.41,703h0c.53-16.44-.09-37.69-1.7-50-1.94-14.8-28.77-10.75-38-8.91-8.9,1.76-34.56,6.14-29.94,21.44,3.08,10.21,17.78,41.5,17.78,41.5l-7.8,4.46-7.8,6.39s-18.6,33.26-24.68,74.44c-3.07,20.84,7.48,58,14.93,63.74-.07.12-.12.23-.2.35-3.28,5-13.43,6.63-12,12s6.39,14.28,13.86,10.88S48.12,873,47,868.42c-1.29-5,4.39-6.83,8.9-8.82a23.6,23.6,0,0,0,7.3.2c-.29,3-.68,11.94,4.24,15.76,6,4.61,9.22,5.82,12.86,2.42s2.76-5.5-6-8.09c-2.87-.85-3.64-7.2-4.61-11.53.8-.44,6.71-2.89,9.21-4.11,1.73,3,4.14,6.92,8.91,8.8,4.93,2,8.22,2.14,10.28,1.61h0a58.89,58.89,0,0,0,3.68,10.65s-11.29.61-11.9,5.34,18.94,1.58,20,0S97.54,858,100.82,828.87l-.12,0c.7.12,1.41.24,2.13.34A42.88,42.88,0,0,0,121,828l-.12.05c3.27,29.11-3,51-1.9,52.58s20.64,4.74,20,0-13.64-6.07-13.64-6.07,1.5-9.8,2.19-22.45l.39.45c6.48,6.95,16.78-.67,16.78-.67h0a31.36,31.36,0,0,0,8.46,5.33S147.9,866,141.91,862c-7.38-5-9.63-.4-9.63-.4s-4.45,10,9.55,9S159,859.35,159,859.35a56,56,0,0,0,8.05,1.8.43.43,0,0,1,.31.64c-5.38,9.17-14.11,9.71-19.11,13s6.32,13.59,18.21,1.21S189,841.57,180.51,791.32Z"/><path id="Fill-9" class="cls-8" d="M126,850s-5.66,3.74,1.14,9.38l.89-6.78-2-2.6"/><path id="Fill-10" class="cls-8" d="M155.79,740.34,157.28,755l-1.4,19.4-.32,5.29c.07-.42.15-.84.22-1.26h0s.38,8-3.21,21.59h0a146.34,146.34,0,0,1-10.42,27.26c-4.27,8.65-3.83,15.14-1.09,20h0a47.56,47.56,0,0,0,3.29,4.07,108.51,108.51,0,0,1,9.23-21.75c23.55-43,2.23-89.3,2.23-89.3"/><polyline id="Fill-11" class="cls-8" points="129.7 709.68 125.25 707.09 125.25 711.46 125.6 712.47 129.7 709.68"/><path id="Fill-12" class="cls-8" d="M127.24,825.57l0,0c8.15-4.08,14.64-11,19.48-19.7-5.42,5.78-15.4,10.86-33.81,10.42C65.12,815.18,70.3,744,70.3,744c4.86-4.86,2.64-11.63,2.64-11.63a10.15,10.15,0,0,1-6,6.56l-2.8.65-2.36,9.87C60,764.42,57,816.38,95.4,827.61l-1.25-.29c-.05,3,0,5.84.07,8.61a45.66,45.66,0,0,0,6.09,2,84.16,84.16,0,0,1,.51-9.08l-.12,0c.7.12,1.41.24,2.13.34A42.88,42.88,0,0,0,121,828l-.12.05c.38,3.39.63,6.67.77,9.85a43.29,43.29,0,0,0,6.18-2.09c-.09-3.45-.29-6.91-.63-10.26"/><path id="Fill-13" class="cls-8" d="M153.08,790.36h0"/><path id="Fill-14" class="cls-8" d="M101.09,861.22c-14.29,2-21.39-7.42-21.39-7.42l-.67.73c1.72,3,4.12,6.7,8.75,8.52,4.93,2,8.22,2.14,10.28,1.61h0c2.46-.63,3.86-3.56,3-3.44"/><path id="Fill-15" class="cls-8" d="M85.68,644.14c-8.9,1.76-34.56,6.14-29.94,21.44,3.08,10.21,17.78,41.5,17.78,41.5l-7.8,4.46-7.8,6.39s-18.6,33.26-24.68,74.44c-3.07,20.84,7.48,58,14.93,63.74-.07.12-.12.23-.2.35-3.28,5-13.43,6.63-12,12s6.39,14.28,13.86,10.88S48.12,873,47,868.42c-1.29-5,4.39-6.83,8.9-8.82a23.6,23.6,0,0,0,7.3.2c-.29,3-.68,11.94,4.24,15.76,6,4.61,9.22,5.82,12.86,2.42s2.76-5.5-6-8.09c-2.87-.85-3.64-7.2-4.61-11.53.39-.21,2-.9,3.8-1.69-22.58,1.47-27.19-36.95-30.52-66.08s11.34-58.26,16.32-61.12,5.64,7.77,5.64,7.77c7-2.29,8.33-13.89,8.33-13.89l18.36-5.42S77.34,692.28,72,668.7,115.66,644,115.84,644c-9.18-3.47-23.81-1.17-30.16.1"/><path id="Fill-16" class="cls-8" d="M115.48,673.87c1.13,6.23-.47,11.74-3.57,12.3s-6.53-4-7.65-10.28.47-11.74,3.57-12.3,6.53,4,7.65,10.28"/><path id="Fill-17" class="cls-8" d="M94.43,678.29c1.13,6.23-.47,11.74-3.57,12.3s-6.53-4-7.65-10.27.47-11.74,3.57-12.3,6.53,4,7.65,10.27"/><path id="Fill-18" class="cls-9" d="M159.73,813.52s5.41-4.8,8.64-23.09-5.69-51.19-6.29-53-4.23-10.13-4.23-10.13l-9.54-13.27s8.39,16,8.53,35.09a228.71,228.71,0,0,1-1.58,30.94s1.09,18.74-10.49,41.71l-1.36,3,.48.58s12.41-4.93,15.84-11.8"/><path id="Fill-19" class="cls-10" d="M62.29,745.37s-13.17,76.41,40.54,83.82a42,42,0,0,0,20.33-1.86s-9.59-7.46-11.56-16.09-2.18-17.61,4-27.38c0,0-2.58-6.77-5.39-9.3S97.09,765.13,95,764.69s-9.18-9.17-9.18-9.17-7.35-12.64-12.65-13.15-3.45-2.11-9.54-.64l-1.35,3.64"/><path id="Fill-20" class="cls-11" d="M156.84,749.14v1.61l.44,4.28-.86,11.88c-.17,3-.36,5.5-.54,7.52h0l-.32,5.29c.07-.42.15-.84.22-1.26h0a64.3,64.3,0,0,1-1.31,13.1,99.45,99.45,0,0,1-9.7,30.23l-.44,1-.57,1.23-.35.77.48.58s12.41-4.93,15.84-11.8a8.13,8.13,0,0,0,1-1.23c9.71-32.87-1.6-63.78-4.39-70.57a71.39,71.39,0,0,1,.46,7.42"/><path id="Fill-21" class="cls-9" d="M123.16,827.32s-24.46-17.06-6.25-45.71S157.27,759,157.27,759s.37,23.5-7.25,40-16,23.9-26.86,28.32"/><path id="Fill-22" class="cls-9" d="M144.77,851.91s-10.3,7.62-16.78.67S124.52,840,129.37,840s2.59,7.77,6.55,8.42,5.13-1.14,5.13-1.14"/><path id="Fill-23" class="cls-9" d="M159,859.35s-3.14,10.14-17.14,11.19-9.55-9-9.55-9,2.25-4.61,9.63.4c6,4.07,11.31-4.72,11.31-4.72"/><path id="Fill-24" class="cls-12" d="M105.47,829.48c.32,0,.64,0,1,.06l1.58.09h2.46c.45,0,.9,0,1.34-.06l1-.07c.49,0,1-.08,1.46-.13l.8-.1c.53-.08,1.06-.15,1.58-.24l.51-.1c1.31-.25,2.6-.55,3.85-.92l-.12.05c.76-.23,1.51-.47,2.24-.74a41.78,41.78,0,0,1-9.55-11h-.74C65.12,815.18,70.3,744,70.3,744a10.37,10.37,0,0,0,1.45-1.81c-3.56-.62-2.66-1.77-8.11-.45l-.15.42-1.75,7.29v0s0,.11,0,.16c0,.22,0,.45-.08.68l0,.28-.06.65,0,.3c0,.25-.05.51-.08.77a1.49,1.49,0,0,1,0,.21c-.06.7-.12,1.45-.18,2.23V755c0,.32,0,.64-.07,1,0,.1,0,.2,0,.31l-.06,1c0,.09,0,.18,0,.27q-.07,1.31-.12,2.7v.22l0,1.17c0,.13,0,.26,0,.39,0,.36,0,.72,0,1.09v1.66a1.48,1.48,0,0,0,0,.21c0,.51,0,1,0,1.55,0,.08,0,.16,0,.24,0,.43,0,.87,0,1.31,0,.15,0,.31,0,.46,0,.38,0,.75,0,1.13,0,.17,0,.35,0,.52,0,.4,0,.8.05,1.2,0,.14,0,.28,0,.42l.09,1.64a1.49,1.49,0,0,1,0,.21c0,.48.07,1,.1,1.44l0,.56c0,.37.07.74.1,1.11l.06.64.12,1.09c0,.21,0,.42.07.62.05.45.11.9.16,1.35l.06.41c.07.53.14,1.06.22,1.6,0,.22.07.45.11.67s.11.69.16,1,.09.5.13.76l.18,1,.15.78c.06.33.13.67.2,1l.15.73q.16.79.36,1.59c.06.26.13.52.19.79s.15.6.23.91.15.57.23.85.15.56.23.84l.25.88c.08.27.17.54.25.82l.27.87.3.88c.17.51.35,1,.54,1.54.08.25.17.49.26.74l.36.92.28.7.39.93c.09.22.19.44.29.67l.42.94.26.54q.47,1,1,1.92c.08.16.16.32.25.48s.34.63.52.94l.32.57.55.93.34.54c.19.31.39.62.59.93l.3.44c.72,1.08,1.49,2.12,2.31,3.14.11.14.23.28.34.43s.49.58.74.86l.39.44c.25.29.51.57.78.86l.36.37c.93,1,1.92,1.89,3,2.78l.34.28c.31.26.63.51,1,.76l.45.35c.32.24.64.48,1,.71l.46.32c.34.24.69.48,1,.71l.15.09c.82.52,1.66,1,2.54,1.49l.27.15,1.15.58.55.27,1.16.52.59.26,1.21.49.49.18c1,.36,2,.71,3.07,1a51.18,51.18,0,0,0,5.32,1.24h0c.7.12,1.41.24,2.13.34.89.12,1.77.22,2.64.29"/><path id="Fill-25" class="cls-11" d="M113.78,816.32a34.42,34.42,0,0,0,9.38,11c9.08-3.7,16.43-9.52,23.05-21-5.42,5.49-15.11,10.2-32.43,10"/><path id="Fill-26" class="cls-11" d="M144.33,851.39l-3.44-3.9c-.42.44-1.8,1.48-5,1a2.46,2.46,0,0,1-1.35-.69h0s0,6.76,9.76,3.62"/><path id="Fill-27" class="cls-11" d="M153.22,857.24s-4.25,7-9.43,5.6c0,0,3.1,6.46,11.47,0a11.34,11.34,0,0,0,3.37-3.62l-5.41-2"/><path id="Fill-28" class="cls-13" d="M99.8,718.38a83.75,83.75,0,0,1-25.3-4,.52.52,0,0,1-.3-.65.5.5,0,0,1,.64-.3c.33.12,32.8,11.61,55.86-5a.5.5,0,0,1,.69.11.49.49,0,0,1-.11.7c-9.86,7.12-21.39,9.19-31.48,9.19"/><path id="Fill-29" class="cls-13" d="M78.4,715.52a.51.51,0,0,1-.4-.2c-6.43-8.52-18.65-36-22.74-49.6a10.87,10.87,0,0,1,1-9.08c4.95-8.21,20.71-11.3,28.28-12.78l1.09-.21c7.43-1.48,25.62-4.25,34.13,1.85a10.59,10.59,0,0,1,4.5,7.49c1.91,14.55,2.48,42.36,1.22,59.5a.51.51,0,0,1-.53.46.5.5,0,0,1-.47-.53c1.26-17.09.69-44.8-1.21-59.3a9.66,9.66,0,0,0-4.09-6.81c-8.19-5.87-26.06-3.13-33.36-1.68l-1.08.21c-7.44,1.46-22.91,4.48-27.62,12.31a9.89,9.89,0,0,0-.85,8.28c4,13.32,16.37,41.06,22.58,49.29a.51.51,0,0,1-.1.7.49.49,0,0,1-.3.1"/><path id="Fill-30" class="cls-13" d="M70.79,660.17a.5.5,0,0,1-.48-.34c-2.27-6.66-9.86-6.26-10.18-6.23a.5.5,0,0,1-.07-1c.09,0,8.68-.49,11.2,6.91a.49.49,0,0,1-.31.63l-.16,0"/><path id="Fill-31" class="cls-13" d="M79.2,658.07a.49.49,0,0,1-.48-.38c-1.84-7.33-11.4-8.11-11.49-8.12a.5.5,0,0,1-.47-.53.5.5,0,0,1,.54-.46c.1,0,10.38.84,12.39,8.87a.5.5,0,0,1-.37.6l-.12,0"/><path id="Fill-32" class="cls-13" d="M87.13,655.48a.5.5,0,0,1-.5-.48c-.3-7.15-7.48-9-7.55-9a.5.5,0,0,1-.36-.61.48.48,0,0,1,.6-.36c.08,0,8,2.09,8.31,10a.5.5,0,0,1-.48.52h0"/><path id="Fill-33" class="cls-13" d="M94.9,653.82h-.08a.51.51,0,0,1-.41-.58c.9-5.61-5.64-9.23-5.7-9.26a.5.5,0,1,1,.48-.88c.29.16,7.22,4,6.2,10.3a.49.49,0,0,1-.49.42"/><path id="Fill-34" class="cls-13" d="M102.83,652.89l-.14,0a.5.5,0,0,1-.34-.62c1.64-5.53-4.88-9.33-4.95-9.36a.51.51,0,0,1-.19-.69.49.49,0,0,1,.68-.18c.08,0,7.29,4.22,5.42,10.51a.5.5,0,0,1-.48.36"/><path id="Fill-35" class="cls-13" d="M110.09,652.89a.39.39,0,0,1-.18,0,.5.5,0,0,1-.28-.65c1.92-4.77-4.13-9.55-4.19-9.6a.5.5,0,0,1,.61-.79c.27.22,6.71,5.3,4.51,10.77a.51.51,0,0,1-.47.31"/><path id="Fill-36" class="cls-13" d="M88.92,691.09a.49.49,0,0,1-.49-.41l-4.09-22.57a.51.51,0,0,1,.41-.58l1.91-.35c1.41-.25,2.88.38,4.26,1.83a.5.5,0,0,1-.73.69,3.93,3.93,0,0,0-3.35-1.53l-1.42.25L89.32,690l1.42-.25c1.35-.25,2.17-1.58,2.62-2.65a.5.5,0,0,1,.65-.26.49.49,0,0,1,.27.65c-.78,1.86-1.94,3-3.36,3.24l-1.91.34h-.09"/><path id="Fill-37" class="cls-13" d="M92.49,678.29c1.13,6.23-.47,11.74-3.57,12.3s-6.53-4-7.66-10.27.48-11.74,3.58-12.3,6.52,4,7.65,10.27"/><g id="Group-40"><g class="cls-14"><polyline id="Fill-38" class="cls-15" points="82.45 679.83 84.87 676.11 89.1 682.9 91.18 677.88 96.13 684.75 99.52 674.76 103.97 680.16 99.06 670.54 95.71 679.07 90.8 672.71 88.64 678.42 84.53 673.09 82.45 679.83"/></g></g><path id="Fill-41" class="cls-13" d="M85.35,668.47a3,3,0,0,0-.42,0c-2.78.5-4.23,5.87-3.17,11.72S86,690.6,88.83,690.1s4.23-5.87,3.17-11.72C91,672.83,88,668.47,85.35,668.47Zm3,22.67c-3.23,0-6.5-4.52-7.62-10.73-1.19-6.61.55-12.26,4-12.88s7,4.07,8.23,10.67-.55,12.27-4,12.88A3.26,3.26,0,0,1,88.39,691.14Z"/><path id="Fill-42" class="cls-13" d="M92.46,672.6a.49.49,0,0,1-.44-.26,15.45,15.45,0,0,0-.84-1.41.5.5,0,0,1,.82-.56,12.66,12.66,0,0,1,.9,1.5.5.5,0,0,1-.21.68.46.46,0,0,1-.23.05"/><path id="Fill-43" class="cls-13" d="M94.75,681.69a.51.51,0,0,1-.5-.49c0-.26,0-.52,0-.78a.5.5,0,1,1,1-.07c0,.27,0,.55,0,.82a.5.5,0,0,1-.48.52h0"/><path id="Fill-44" class="cls-13" d="M94.4,686h-.11a.5.5,0,0,1-.38-.6,14.21,14.21,0,0,0,.27-1.69.5.5,0,1,1,1,.1,14.55,14.55,0,0,1-.29,1.81.49.49,0,0,1-.48.39"/><path id="Fill-45" class="cls-9" d="M74.27,869.89c-2.87-.85-3.64-7.2-4.61-11.53.8-.44,6.71-2.89,9.21-4.11.22.38,4-3,4-3.36A11.67,11.67,0,0,0,85.8,841a22.52,22.52,0,0,0-2-6.08A61.21,61.21,0,0,0,78,826.37a177.33,177.33,0,0,1-10.53-16.23h-.11c-21.58,9.85-33.71,3.11-33.78,3.07C36,832,42.86,852,48.17,856.11c-.07.12-.12.23-.2.35-3.28,5-13.43,6.63-12,12s6.39,14.28,13.86,10.88S48.12,873,47,868.42c-1.29-5,4.39-6.83,8.9-8.82a23.6,23.6,0,0,0,7.3.2c-.29,3-.68,11.94,4.24,15.76,6,4.61,9.22,5.82,12.86,2.42s2.76-5.5-6-8.09"/><path id="Fill-46" class="cls-13" d="M110,686.67a.49.49,0,0,1-.49-.41l-4.08-22.58a.45.45,0,0,1,.08-.37.47.47,0,0,1,.32-.21l1.91-.34c1.78-.33,3.64.76,5.25,3a.5.5,0,0,1-.82.57c-1.35-1.92-2.91-2.88-4.25-2.63l-1.42.26,3.9,21.59,1.42-.26a3,3,0,0,0,1.8-1.19.5.5,0,1,1,.78.61,3.89,3.89,0,0,1-2.4,1.56l-1.91.35H110"/><path id="Fill-47" class="cls-13" d="M113.54,673.87c1.13,6.23-.47,11.74-3.57,12.3s-6.53-4-7.65-10.28.47-11.74,3.57-12.3,6.53,4,7.65,10.28"/><g id="Group-50"><g class="cls-16"><polyline id="Fill-48" class="cls-15" points="92.47 677.06 94.88 673.35 99.12 680.13 101.19 675.12 106.15 681.99 109.54 672 113.98 677.39 109.07 667.77 105.72 676.3 100.81 669.95 98.65 675.65 94.54 670.32 92.47 677.06"/></g></g><path id="Fill-51" class="cls-13" d="M114.32,670a.48.48,0,0,1-.46-.32c-.21-.52-.43-1-.66-1.49a.51.51,0,0,1,.22-.67.5.5,0,0,1,.67.22c.25.5.48,1,.7,1.57a.5.5,0,0,1-.29.65.39.39,0,0,1-.18,0"/><path id="Fill-52" class="cls-13" d="M115.77,679.2h0a.5.5,0,0,1-.47-.53c0-.43,0-.88,0-1.34a.49.49,0,0,1,.49-.5h0a.51.51,0,0,1,.5.49c0,.49,0,1,0,1.42a.5.5,0,0,1-.5.46"/><path id="Fill-53" class="cls-13" d="M114.78,683.6a.52.52,0,0,1-.21,0,.51.51,0,0,1-.25-.66,10.51,10.51,0,0,0,.73-2.41.49.49,0,0,1,.58-.4.5.5,0,0,1,.4.58,11.37,11.37,0,0,1-.8,2.64.49.49,0,0,1-.45.29"/><path id="Fill-54" class="cls-13" d="M106.41,664.05a2,2,0,0,0-.43,0c-1.3.23-2.36,1.53-3,3.67a20,20,0,0,0,2.8,15.52c1.33,1.78,2.78,2.63,4.08,2.39s2.36-1.53,3-3.67a20,20,0,0,0-2.81-15.52C108.87,664.89,107.6,664.05,106.41,664.05Zm3,22.66c-1.51,0-3.07-1-4.45-2.83a21,21,0,0,1-3-16.4c.73-2.52,2.06-4.07,3.76-4.38s3.49.68,5.06,2.78a21.08,21.08,0,0,1,3,16.4c-.73,2.52-2.07,4.07-3.76,4.38A3.14,3.14,0,0,1,109.45,686.71Z"/><path id="Fill-55" class="cls-13" d="M64.21,681.47l-6,1.1-.23-1.27a2.51,2.51,0,1,0-4.93.9l1.35,7.46a2.5,2.5,0,1,0,4.93-.89l-.22-1.27,6-1.09a2.51,2.51,0,0,0-.9-4.94"/><path id="Fill-56" class="cls-13" d="M136.28,674.69l-1.35-7.46a2.51,2.51,0,0,0-4.94.89l.23,1.27-5.1.92c.08,1.65.15,3.35.21,5.06l5.78-1,.23,1.27a2.51,2.51,0,1,0,4.94-.9"/><path id="Fill-57" class="cls-11" d="M69.66,858.36l.21-.1.1,0,.21-.1.13-.06.27-.12.18-.08.31-.14.24-.1.29-.13.33-.14.31-.14.21-.09,1-.44c-16.43,1.07-23.34-19-27.17-41.18-8.24.21-12.68-2.25-12.72-2.27v0c.14,1,.28,2,.44,3.07,0,.22.06.43.1.64.07.47.15.94.23,1.4,0,.2.06.39.1.59.15.89.32,1.79.49,2.68l.09.47.27,1.38.15.68c.3,1.45.63,2.89,1,4.32.06.25.12.5.19.74l.3,1.23.21.8c.17.65.35,1.3.53,2,.08.29.17.59.25.89s.2.71.31,1.06l.27.92.3,1c.17.55.34,1.09.52,1.63.09.28.18.55.28.83l.34,1c.1.27.19.54.28.8s.29.81.44,1.21l.27.74c.17.45.35.89.52,1.32.08.21.16.42.25.62.15.36.29.72.44,1.06.07.18.15.35.22.52.21.48.42,1,.63,1.41.06.14.12.26.19.4.16.35.33.69.49,1,.07.14.14.28.22.42.2.4.41.8.61,1.17l.06.1c.22.39.43.76.65,1.11l.2.31c.17.28.34.54.52.8l.15.22c.22.31.44.6.65.86a2.09,2.09,0,0,1,.14.17l.52.58.18.18a6.34,6.34,0,0,0,.63.56c-.07.12-.12.23-.2.35-3.28,5-13.43,6.63-12,12,1,3.67,3.65,9,7.64,10.94,0,0-6.83-15.23,3.49-15,.17,0,.33,0,.49,0,1.6-2.23,5.19-3.49,8.24-4.83a23.6,23.6,0,0,0,7.3.2c-.29,3-.68,11.94,4.24,15.76,5.32,4.12,8.5,5.52,11.72,3.34-16.62-4.38-9.45-20.54-9.45-20.54"/><path id="Fill-58" class="cls-13" d="M58,718.75c-2.46,4.6-18.74,36-24.3,73.7-3.09,20.95,7.59,57.75,14.74,63.27a.5.5,0,0,1,.12.65l-.07.12-.14.25c-1.42,2.14-4,3.64-6.42,5.1-3.36,2-6.25,3.69-5.49,6.46,1.11,4.1,3.83,9,7.39,10.64a6.61,6.61,0,0,0,5.77-.08c1.59-.72,2.46-1.45,2.59-2.16.17-1-1.06-2.2-2.37-3.47s-2.94-2.87-3.4-4.68c-1.26-5,3.55-7,7.79-8.81l1.4-.6a.42.42,0,0,1,.29,0,23.44,23.44,0,0,0,7.15.2.49.49,0,0,1,.41.14.49.49,0,0,1,.15.4c-.26,2.66-.71,11.62,4,15.31,6.3,4.88,9,5.43,12.22,2.46,1.44-1.34,2-2.35,1.82-3.16-.31-1.35-2.73-2.64-7.61-4.09-2.7-.8-3.66-5.56-4.5-9.75-.15-.75-.3-1.47-.45-2.15a.51.51,0,0,1,.25-.54c.4-.22,1.83-.85,3.64-1.63,2-.87,4.27-1.85,5.59-2.5a.51.51,0,0,1,.66.2c2,3.39,4.23,6.84,8.65,8.59,8.41,3.32,11.75,1.39,12.34-.09a4.72,4.72,0,0,0-.45-4.21c-1.49-2.22-5.12-3.42-10.5-3.47-3.25,0-5.24-.55-6.23-1.63a2.89,2.89,0,0,1-.74-2.33.49.49,0,0,1,.12-.3,11.23,11.23,0,0,0,2.81-9.49,22.31,22.31,0,0,0-2-5.9A47.33,47.33,0,0,0,78.59,828c-.41-.53-.76-1-1-1.34-4.82-6.81-11.42-16.14-15.51-26.66-7.43-19.09-6.34-39.49,3.51-66.14C67.5,728.67,60,720.73,58,718.75ZM46.61,880.57a7.4,7.4,0,0,1-3.16-.72c-4.12-1.93-6.85-7.29-7.94-11.28-1-3.51,2.4-5.49,6-7.59,2.34-1.39,4.77-2.82,6.06-4.75-3.63-3.22-8-13.38-11.24-26.21-3.6-14.23-4.92-28.33-3.53-37.72,6-40.8,24.55-74.28,24.74-74.61a.45.45,0,0,1,.35-.25.46.46,0,0,1,.42.13c.44.41,10.69,10.09,8.26,16.64-9.77,26.4-10.85,46.58-3.52,65.43,4,10.4,10.61,19.67,15.4,26.44.25.35.58.79,1,1.31a47.51,47.51,0,0,1,4.81,7.3A21.84,21.84,0,0,1,86.3,841a12.13,12.13,0,0,1-2.93,10.08,1.87,1.87,0,0,0,.48,1.42c.77.84,2.63,1.28,5.51,1.31,5.8,0,9.61,1.37,11.32,3.91a5.73,5.73,0,0,1,.55,5.15c-.77,1.93-4.51,4.24-13.63.64-4.87-1.92-7.39-6-8.93-8.62-1.37.65-3.4,1.53-5.21,2.31-1.33.58-2.6,1.13-3.23,1.43.13.57.25,1.17.37,1.78.75,3.73,1.68,8.36,3.81,9,5.4,1.6,7.88,3,8.3,4.82.28,1.22-.37,2.49-2.11,4.12-4,3.73-7.69,2.12-13.52-2.4-4.75-3.68-4.78-11.71-4.48-15.59a23.75,23.75,0,0,1-6.69-.24l-1.27.54c-4.06,1.73-8.26,3.51-7.21,7.64.39,1.54,1.79,2.9,3.13,4.21,1.5,1.46,2.92,2.84,2.65,4.36-.19,1.09-1.19,2-3.15,2.9A8.33,8.33,0,0,1,46.61,880.57Z"/><path id="Fill-59" class="cls-13" d="M45.26,816c-7.54,0-11.65-2.23-11.94-2.39a.5.5,0,0,1-.19-.68.49.49,0,0,1,.68-.19c.12.06,12.24,6.57,33.41-3.12a.49.49,0,0,1,.66.25.49.49,0,0,1-.24.66C58.39,814.8,50.87,816,45.26,816"/><path id="Fill-60" class="cls-13" d="M44.09,824.52a2,2,0,0,1-1.63-.84c-3.44-4.81-2.59-13.41-2.55-13.77a2,2,0,1,1,4,.41c-.21,2.06-.3,8.07,1.82,11a2,2,0,0,1-1.62,3.17"/><path id="Fill-61" class="cls-13" d="M52.22,821.6a2,2,0,0,1-1.54-.72c-3.38-4.08-3-10.61-3-10.89a2,2,0,0,1,4,.24c0,.1-.26,5.26,2.1,8.1a2,2,0,0,1-.27,2.81,2,2,0,0,1-1.27.46"/><path id="Fill-62" class="cls-13" d="M62.29,818.31a2,2,0,0,1-1.8-1.12l-3-6.2a2,2,0,1,1,3.59-1.75l3,6.2a2,2,0,0,1-.92,2.67,2,2,0,0,1-.88.2"/><path id="Fill-63" class="cls-13" d="M64.44,739.42H64.3a.51.51,0,0,1-.48-.53.52.52,0,0,1,.53-.47c.31,0,7.47.3,8.61-8.58a.51.51,0,0,1,.56-.43A.5.5,0,0,1,74,730c-1.16,9.09-8.38,9.45-9.51,9.45"/><path id="Fill-64" class="cls-13" d="M57.92,718.43a.49.49,0,0,1-.37-.16.5.5,0,0,1,0-.71,76,76,0,0,1,15.7-10.92.5.5,0,0,1,.46.89,75,75,0,0,0-15.5,10.78.5.5,0,0,1-.33.12"/><path id="Fill-65" class="cls-13" d="M109.44,830.16a49.51,49.51,0,0,1-6.68-.47c-12.79-1.77-22.89-7.6-30-17.33-18-24.64-11-66.65-11-67.08a.49.49,0,0,1,.58-.4.48.48,0,0,1,.4.57c-.07.42-7,42,10.79,66.32,7,9.5,16.81,15.2,29.33,16.93,15.7,2.16,29.1-3.37,38.77-16,17.36-22.71,20.06-66.17,6.15-99a86.7,86.7,0,0,0-22.55-10.19.51.51,0,0,1-.34-.62.5.5,0,0,1,.62-.34,86.88,86.88,0,0,1,23,10.41.43.43,0,0,1,.17.21c14.1,33.15,11.37,77.13-6.22,100.13-8.5,11.12-19.82,16.87-33,16.87"/><path id="Fill-66" class="cls-13" d="M123.16,827.82a.52.52,0,0,1-.29-.09c-.25-.17-24.64-17.67-6.38-46.39,9.49-14.93,20.08-20.34,27.3-22.24,7.86-2.07,13.38-.61,13.61-.55a.5.5,0,1,1-.26,1c-.22-.06-22-5.61-39.81,22.36-7.44,11.71-8.68,22.83-3.69,33.07a34.3,34.3,0,0,0,9.8,12,.5.5,0,0,1,.13.7.49.49,0,0,1-.41.21"/><path id="Fill-67" class="cls-13" d="M115.56,784.36a.49.49,0,0,1-.47-.34c-3.36-9.56-8.88-12.52-14.72-15.66-5.45-2.92-11.09-6-16-14.17-9.86-16.61-20.4-12.1-20.84-11.9a.5.5,0,0,1-.41-.91c.12,0,11.77-5.12,22.11,12.3,4.73,8,10.24,10.94,15.57,13.8,6,3.23,11.71,6.29,15.19,16.21a.51.51,0,0,1-.31.64.45.45,0,0,1-.16,0"/><path id="Fill-68" class="cls-13" d="M101.11,778a2,2,0,0,1-.92-3.78c3.83-2,4.78-8.1,4.79-8.16a2,2,0,0,1,4,.57c0,.34-1.24,8.25-6.93,11.15a2,2,0,0,1-.9.22"/><path id="Fill-69" class="cls-13" d="M84.84,764.49a2,2,0,0,1-.64-.1,2,2,0,0,1-1.26-2.54c.26-.77,2.68-7.6,7.85-9.32a2,2,0,1,1,1.26,3.79c-2.79.93-4.82,5.34-5.32,6.8a2,2,0,0,1-1.89,1.37"/><path id="Fill-70-2" data-name="Fill-70" class="cls-13" d="M67.43,752.05a2,2,0,0,1-1-3.73l15.5-8.93a2,2,0,1,1,2,3.46l-15.49,8.94a2,2,0,0,1-1,.26"/><path id="Fill-71" class="cls-13" d="M116.67,799.63a2.15,2.15,0,0,1-.61-.09l-7.6-2.43a2,2,0,0,1,1.22-3.81l7.6,2.43a2,2,0,0,1-.61,3.9"/><path id="Fill-72" class="cls-13" d="M129.29,775.6a2,2,0,0,1-1.57-.76l-7.28-9.22a2,2,0,0,1,3.14-2.48l7.28,9.22a2,2,0,0,1-1.57,3.24"/><path id="Fill-73" class="cls-13" d="M154.63,882.5a10.72,10.72,0,0,1-3.36-.51c-2.59-.84-4.5-2.68-4.76-4.58a3,3,0,0,1,1.44-3,30.8,30.8,0,0,1,5.43-2.61c4.59-1.87,9.8-4,13.46-10.17-3.65-.53-20.71-3.58-26.46-14.51-2.94-5.57-2.49-12.31,1.33-20,14.33-29,13.58-48.42,13.57-48.61a.51.51,0,0,1,.47-.53.5.5,0,0,1,.53.48c0,.19.78,19.88-13.68,49.1-3.66,7.41-4.11,13.84-1.34,19.12,5.59,10.6,22.5,13.52,25.83,14a.91.91,0,0,1,.7.51,1,1,0,0,1,0,.88c-3.84,6.55-9.48,8.84-14,10.68a30.68,30.68,0,0,0-5.26,2.51,2,2,0,0,0-1,2c.2,1.5,1.88,3.05,4.07,3.76s7.85,1.57,14.5-5.34c16.36-17,20.79-43.82,14-84.29-8.38-49.54-31.94-77.45-32.17-77.72a.5.5,0,1,1,.75-.66c.24.28,24,28.4,32.4,78.21,6.9,40.82,2.39,67.87-14.21,85.15-4.76,5-9.12,6.11-12.16,6.11"/><path id="Fill-74" class="cls-13" d="M78.87,854.75a.49.49,0,0,1-.46-.31.51.51,0,0,1,.27-.65,11,11,0,0,0,3.94-3.36.5.5,0,1,1,.79.61,11.78,11.78,0,0,1-4.35,3.67.41.41,0,0,1-.19,0"/><path id="Fill-75" class="cls-13" d="M134.73,856a9.33,9.33,0,0,1-7.1-3.06c-3.39-3.65-4.63-7.38-3.38-10.24a5.42,5.42,0,0,1,5.12-3.15c3,0,3.62,2.51,4.19,4.71.49,1.86.91,3.46,2.45,3.72,3.54.57,4.59-.87,4.63-.93a.5.5,0,0,1,.83.55c-.05.08-1.39,2-5.63,1.36-2.18-.35-2.74-2.53-3.24-4.44-.65-2.47-1.19-4-3.23-4a4.4,4.4,0,0,0-4.21,2.55c-1.07,2.48.09,5.81,3.2,9.16,6.09,6.54,16-.66,16.11-.73a.51.51,0,0,1,.7.1.5.5,0,0,1-.11.7c-.07.06-5,3.67-10.33,3.67"/><path id="Fill-76" class="cls-13" d="M139.88,871.12c-3.82,0-6.43-1-7.78-2.87-2-2.87-.35-6.73-.27-6.9a4.26,4.26,0,0,1,2.69-2.05c2.07-.56,4.66.2,7.67,2.25a5.12,5.12,0,0,0,4.08.87c3.68-.81,6.49-5.39,6.52-5.44a.5.5,0,1,1,.86.52c-.13.2-3.07,5-7.17,5.89a6,6,0,0,1-4.85-1c-2.73-1.85-5.1-2.58-6.85-2.11a3.27,3.27,0,0,0-2.05,1.52s-1.51,3.49.19,5.9c1.35,1.91,4.34,2.7,8.87,2.36,13.51-1,16.67-10.74,16.7-10.84a.5.5,0,1,1,1,.3c0,.1-3.41,10.47-17.58,11.54-.7.05-1.36.08-2,.08"/><path id="Fill-77" class="cls-13" d="M132.79,883.63c-5.72,0-13.35-1.5-14.18-2.69-.41-.6-.22-2.11.44-6.77,1.28-8.95,3.67-25.62,1.37-46a.5.5,0,0,1,1-.11c2.32,20.55-.08,37.3-1.37,46.3-.43,3-.8,5.63-.6,6.07.77.92,13.82,3.49,18.11,1.62,1-.44,1-.94,1-1.28-.45-3.56-9.68-5.28-13.19-5.64a.48.48,0,0,1-.35-.19.52.52,0,0,1-.1-.38c0-.1,1.5-9.82,2.18-22.2-3.75-4.34-3.52-7.54-3-9.07a5.09,5.09,0,0,1,3.38-3.4c0-5.16-.25-9.94-.69-14.22a.49.49,0,0,1,.45-.54.51.51,0,0,1,.55.44,146,146,0,0,1,.69,14.69.5.5,0,0,1-.38.49,4.18,4.18,0,0,0-3.05,2.83c-.71,2.3.37,5.32,3,8.27a.49.49,0,0,1,.13.36c-.59,10.91-1.81,19.8-2.12,22,2.5.31,13,1.88,13.56,6.44.1.74-.14,1.77-1.81,2.41a14.82,14.82,0,0,1-4.94.63"/><path id="Fill-78" class="cls-13" d="M96.1,883.63a14.82,14.82,0,0,1-4.94-.63c-1.67-.64-1.91-1.66-1.81-2.41.56-4.4,9-5.49,11.63-5.72a64.59,64.59,0,0,1-3.4-10.08.46.46,0,0,1,0-.38.48.48,0,0,1,.31-.23,3.27,3.27,0,0,0,2.36-1.68,4.7,4.7,0,0,0-.13-3.63,6.58,6.58,0,0,0-4.28-3.19.5.5,0,0,1-.34-.39,157.87,157.87,0,0,1-1.9-28,.52.52,0,0,1,.51-.49.5.5,0,0,1,.49.51,157.68,157.68,0,0,0,1.83,27.49,7.42,7.42,0,0,1,4.6,3.62,5.74,5.74,0,0,1,.15,4.44A4,4,0,0,1,98.67,865a60.09,60.09,0,0,0,3.51,10.09.46.46,0,0,1,0,.47.49.49,0,0,1-.4.25c-3,.17-11,1.37-11.43,4.91,0,.34,0,.84,1,1.28,4.29,1.87,17.34-.7,18.11-1.64a24.72,24.72,0,0,0-1.52-4.31c-3.27-8.24-10.08-25.39-7.62-47.23a.5.5,0,0,1,1,.11c-2.44,21.6,4.31,38.59,7.55,46.75,1.43,3.6,1.82,4.66,1.41,5.26-.82,1.19-8.46,2.69-14.18,2.69"/><path id="Fill-79" class="cls-13" d="M143,826.07a.5.5,0,0,1-.11-1c.25-.06,24.75-6.21,25-41.23.24-35.34-9.25-54-9.34-54.16a.5.5,0,1,1,.88-.46,71.22,71.22,0,0,1,4.83,13.85c2.19,8.34,4.76,22.19,4.63,40.77s-7.1,29.18-12.93,34.67a30.76,30.76,0,0,1-12.82,7.53H143"/><path id="Fill-80" class="cls-13" d="M168.38,805.7a2,2,0,0,1-1.43-.6l-7.11-7.28a2,2,0,0,1,2.86-2.8l7.11,7.28a2,2,0,0,1-1.43,3.4"/><path id="Fill-81" class="cls-13" d="M159,821.6h0a2,2,0,0,1-2-2c0-1.4-2.59-3.84-4.49-5.07a2,2,0,1,1,2.17-3.36c1.07.68,6.4,4.33,6.32,8.51a2,2,0,0,1-2,2"/><path id="Fill-82" class="cls-13" d="M170.63,776.43c-3.41,0-7.15-2-8.11-2.55a2,2,0,1,1,2-3.47c2.68,1.53,6.38,2.6,7.38,1.7a2,2,0,1,1,2.67,3,5.7,5.7,0,0,1-3.93,1.34"/><path id="Fill-83" class="cls-8" d="M153.08,790.36h0"/><path id="Fill-84" class="cls-8" d="M153.08,790.36h0"/></g></svg>