<?xml version="1.0" encoding="utf-8"?>
<!-- Generator: Adobe Illustrator 22.1.0, SVG Export Plug-In . SVG Version: 6.00 Build 0)  -->
<svg version="1.1" id="Layer_1" xmlns="http://www.w3.org/2000/svg" xmlns:xlink="http://www.w3.org/1999/xlink" x="0px" y="0px"
	 viewBox="0 0 960 860" style="enable-background:new 0 0 960 860;" xml:space="preserve">
<style type="text/css">
	.st0{fill:#7E3BEB;}
	.st1{fill:#DB4049;}
	.st2{fill:#B63F43;}
	.st3{fill:#D1DE6C;}
	.st4{fill:#B0B838;}
	.st5{fill:#F9D049;}
	.st6{fill:#3D1717;}
	.st7{fill:#FFFFFE;}
	.st8{fill:#4E18AF;}
	.st9{font-family:'GoboldBoldItalic-Italic';}
	.st10{font-size:18.0327px;}
	.st11{letter-spacing:1;}
	.st12{fill:#FEFCE7;}
	.st13{font-size:29.3172px;}
	.st14{font-family:'GoboldItalic-Italic';}
	.st15{font-size:35.6673px;}
	.st16{fill:none;stroke:#FFFFFF;stroke-width:3;}
	.st17{fill:#FFFFFF;}
	.st18{font-size:14.6829px;}
	.st19{fill:none;stroke:#9013FE;}
	.st20{fill:#2ADFDF;}
	.st21{font-size:50.2581px;}
	.st22{font-size:50.3539px;}
	.st23{font-size:67.1385px;}
</style>
<title>info</title>
<g id="Homepage">
	<g id="_3.-Information">
		<rect id="Background" x="-5.5" class="st0" width="975" height="860"/>
		<g id="Group-27">
			<path id="Fill-7" class="st1" d="M837.8,272.6c3.2-1.8,4.5-8.5,4.4-12.2 M842.2,260.3c0-0.4-0.1-0.9-0.1-1.3
				c-0.7-4.3-4.1-11.5-18.3-11.3l-0.1,0.3c-0.6,2.8-2.1,13.7,6.8,22.1c2.9,2.7,5.3,3.5,7.2,2.5"/>
			<path id="Fill-8" class="st1" d="M880.1,323.5c0,0.3-0.3,0.6-0.6,0.6c-0.4,0-0.8-0.2-1.1-0.5c-0.5-0.7-0.7-1.5-0.6-2.3
				c0.8-5,2-9.8,3.6-14.6l0,0c0.5-1.3,1-2.6,1.8-3.8c0,0,0-0.1,0-0.1c0-0.1,0.1-0.2,0.2-0.3c0.3-0.6,0.9-1,1.5-1.1
				c0.3,0,0.6,0.2,0.6,0.5c0,0,0,0,0,0c0,0,0,0.1,0,0.2c-0.1,0.3-0.3,0.4-0.5,0.5c0,0-0.2,0-0.4,0.2c1,0.7,1.7,1.7,2.2,2.8l0.2,0.4
				l-0.3,0.3c-1.3,0.8-2.8,1.2-4.2,1.1c-0.3,1-0.7,2.1-1.1,3.6c-1,3.4-1.7,6.8-2.3,10.3c-0.1,1.2,0.3,1.5,0.5,1.6
				C879.9,323,880.1,323.2,880.1,323.5z M841.5,324.7c-0.3-0.1-0.4-0.5-0.3-0.8c0-0.1,0.1-0.2,0.2-0.3c0.1,0,6.1-4.4,6.5-14.7
				c0,0,0-0.1,0-0.1c0,0,0-0.1,0-0.1l0.1-0.1l0,0l0,0l0.1-0.1l0,0h0.1h0.1l0,0c0,0,0,0,0.1,0h0.1c0,0,0.1,0,0.1,0.1h0.1
				c6.3,5.9,14.1,9.8,22.5,11.2c0.6-0.8,2.3-3.7,1.8-8.9l0,0c0,0,0-0.1,0-0.1c0,0,0-0.1,0-0.1c0,0,0-0.1,0-0.1c0,0,0-0.1,0.1-0.1
				l0,0c0,0,0,0,0.1,0c0,0,0.1,0,0.1-0.1h0.1h0.1h0.1c0,0,0.1,0,0.1,0c0,0,0.1,0,0.1,0c0,0,0.1,0,0.1,0.1l0,0
				c2.4,2.5,2.3,6.7,2.3,6.9v0.1c0,0.1,0,0.1-0.1,0.2c-1,1.8-2.6,3.1-4.6,3.5c0,0-0.1,0-0.1,0c0,0,0,0-0.1,0
				c-6.5-1.1-12.7-3.7-18.2-7.6c0.5,1.4,0.6,3,0.2,4.4c-0.1,0.7-0.4,1.4-0.6,2C849.6,327.8,841.6,324.8,841.5,324.7z M852.3,301
				c-0.1-0.2-0.1-0.4,0-0.6c0.1-0.1,5.5-10,7.3-18.5v-0.2c0-0.2,0.1-0.3,0.3-0.4c0.1-0.1,0.3-0.1,0.5,0c2,0.7,3.7,2.1,4.7,4
				c0.6,1.3,0.8,2.8,0.5,4.3c-0.1,0.4-0.2,0.8-0.3,1.2c-3.9,11.5-12.4,10.6-12.5,10.5C852.6,301.3,852.4,301.2,852.3,301z
				 M845.3,298.3l-7.8-6.2c-0.2-0.2-0.3-0.5-0.2-0.7L845,275c0.1-0.2,0.2-0.3,0.4-0.3c0.2,0,0.3,0,0.5,0.1l7.7,5.5
				c0.2,0.1,0.3,0.3,0.2,0.6c0,0.2-0.2,1.3-0.5,2.9c-0.8,4.1-2.9,11.5-7.2,14.5C845.8,298.5,845.5,298.4,845.3,298.3L845.3,298.3z
				 M846.9,272.8c0.2-0.3,0.5-0.3,0.8-0.1l6.8,4.9c0.2,0.1,0.3,0.4,0.2,0.6c0,0.1,0,0.1-0.1,0.2c-0.2,0.3-0.5,0.3-0.8,0.2
				c0,0,0,0,0,0l-6.9-4.9C846.7,273.6,846.7,273.2,846.9,272.8C846.8,272.9,846.8,272.9,846.9,272.8L846.9,272.8z M849.6,271.8
				c0.2-0.3,0.5-0.3,0.8-0.2l4.6,3.1c0.2,0.1,0.3,0.4,0.2,0.6c0,0.1,0,0.2-0.1,0.2c-0.2,0.3-0.5,0.3-0.8,0.2c0,0,0,0,0,0l-4.6-3.1
				C849.5,272.4,849.4,272.1,849.6,271.8C849.6,271.8,849.6,271.8,849.6,271.8L849.6,271.8z M866.6,260c0.3-0.1,0.6,0.2,0.7,0.5
				c0,0.3,0.3,1.1,0.7,1.3c0.3,0.1,0.7,0,0.9-0.2c0.2-0.2,2.3-1.5,3.9-0.8c0.8,0.4,1.4,1.2,1.5,2.2c0,0.1,0,0.2,0,0.2
				c0,0.2-0.2,0.4-0.4,0.5c-0.3,0.1-0.6-0.1-0.7-0.5c0,0,0,0,0,0c0-0.5-0.4-1-0.8-1.3c-1-0.2-2,0.1-2.8,0.7c-0.6,0.5-1.3,0.6-2,0.3
				c-0.8-0.5-1.3-1.3-1.4-2.2C866.1,260.3,866.3,260,866.6,260L866.6,260z M873.7,257.7c-1.1-3.1-4.7-2.9-4.8-2.9
				c-0.3,0-0.6-0.2-0.6-0.6c0-0.3,0.2-0.6,0.5-0.6c2-0.1,3.9,0.7,5.2,2.2c0.3,0.4,0.6,0.9,0.8,1.4c0,0.1,0,0.2,0,0.3
				c0,0.2-0.2,0.4-0.4,0.4C874.1,258.2,873.8,258,873.7,257.7L873.7,257.7z M874.5,253.1c-0.2-1.4-1.2-2.7-2.5-3.1
				c-0.3-0.1-0.4-0.4-0.4-0.7v-0.1c0.1-0.3,0.4-0.5,0.7-0.4c1.7,0.6,3,2.2,3.3,4.1c0,0.1,0,0.1,0,0.2c0,0.3-0.3,0.5-0.5,0.5
				c-0.2,0-0.4-0.1-0.5-0.2C874.5,253.3,874.5,253.2,874.5,253.1L874.5,253.1z M897.3,318.9c0.3-1.6,2.6-13.9-7.3-34
				c-0.5,0.9-1.3,1.7-2.2,2.2c-5.1,2.8-13.8-2.9-14.1-3.1c-0.3-0.2-0.4-0.5-0.2-0.8c0.2-0.3,0.5-0.4,0.8-0.2c0,0,4.1,2,7,0.7
				c1.2-0.6,2.2-1.7,2.6-3.1c1.9-5.6-5.7-11.1-7.2-12.2c-0.4,0.8-1.2,1.5-2,1.9c-0.3,0.1-0.6-0.1-0.7-0.4c-0.1-0.3,0.1-0.6,0.4-0.7
				c0,0,2-0.9,2.8-5.6c0.2-1.4,0.3-2.7,0.3-4.1c0-0.5,0-1.1,0.1-1.6c0.2-3,1.5-5.8,3.7-7.9l0.3-0.4c0.5-0.4,0.8-1.1,0.8-1.7
				c-0.1-0.7-0.8-1.4-2.1-2.2c-2.5-1.2-5.3-1.3-7.8-0.5h-0.1c-0.8,0.3-1.6,0.6-2.4,1c-1.3,0.7-2.5,1.7-3.4,2.9c-3.1,4-3.8,6.8-4,7.6
				c1.5,2.1,2.7,4.5,2.9,6.7c0,0.6,0,1.3-0.2,1.9c-0.6,2-2.4,3.3-5.3,4.1c-8.6,2.3-15.1-4.7-17.5-7.7c-0.1,1.2-0.3,2.5-0.5,3.7
				c-0.7,3.4-2.1,6.9-4.5,8.3s-5.2,0.5-8.5-2.6c-1-1-1.9-2-2.8-3.1c-1.6,3-6.4,14.7,5.1,26.6l0,0c0.1,0.1,0.1,0.1,0.1,0.2
				c0,0,0,0,0,0.1c0,0.1,0,0.2,0,0.3l0,0v0.1c0,0.1-0.1,0.1-0.1,0.2l0,0c-0.1,0.1-0.1,0.1-0.2,0.1l0,0c-3.8,1.2-7.8,1.6-11.8,1.2
				c-1.4-0.1-2.7-0.4-4-0.8c0.5,2.4,2.8,11.2,11.7,19.9l4.8-13.3c0.1-0.2,0.2-0.3,0.4-0.4c0.2-0.1,0.4,0,0.5,0.1l7.7,6.2
				c0.1,0.1,0.2,0.3,0.2,0.4c0,1-0.1,1.9-0.3,2.8c-0.9,3.9-2.8,7.4-5.5,10.3c3.1,2,6.4,3.8,9.7,5.2
				C873.9,340.2,891.4,324.4,897.3,318.9z"/>
			<path id="Fill-9" class="st1" d="M993.8,308.4c-3.4-0.6-6.9-1.2-10.3-1.9c0,0-0.1,0-0.1,0c-3.8-0.7-7.6-1.5-11.3-2.3
				s-7.4-1.7-10.8-2.6l0,0c-2.7-0.7-5.3-1.5-7.7-2.3c-3.2,5.8-12.7,22.7-19.9,32.1c32.7,7,66.1,9.5,99.4,7.3l-3.2-2.6
				c-0.1-0.1-0.2-0.3-0.2-0.5c0-0.2,0.1-0.4,0.3-0.5l2.9-1.5c-7.2-0.6-31.3-3-43.5-7.3c-1,0.5-2.1,0.8-3.1,1c0,0.1,0,0.3-0.1,0.4
				c-0.1,0.1-2,3.4-9.4,1.6c-2.2-0.5-3.6-1.5-3.9-2.9c-0.1-0.7-0.1-1.4,0.2-2c-0.5,0.4-1.2,0.6-1.8,0.6c-0.5,0-1-0.3-1.3-0.7
				c-0.3-0.4-0.4-0.8-0.3-1.2c0-0.3,0.3-0.5,0.6-0.5c0,0,0,0,0,0c0.3,0.1,0.5,0.3,0.5,0.7c0,0.1,0,0.2,0.1,0.3
				c0.1,0.1,0.3,0.2,0.5,0.2c0.5,0.1,2-0.9,3.2-1.9c-0.7-0.6-1.5-0.9-2.3-0.9c-0.3,0.1-0.6-0.2-0.7-0.5c0-0.3,0.1-0.6,0.4-0.7
				c0.4-0.1,0.9,0,1.3,0.1c-1.1-1.8-1.4-3.3-0.8-4.5c0.9-1.9,3.5-2.4,5.7-2.2c2.1,0.3,4.2,1.2,5.8,2.7c0.2,0.2,0.3,0.4,0.2,0.7
				c0,0,0,0.1,0,0.1c2.2,0.2,4.3,0.8,6.2,1.9c2.2,0.3,30,3.8,47,0.6l-3-1.5c-0.2-0.1-0.3-0.3-0.3-0.5c0-0.2,0.1-0.4,0.3-0.5l3.4-1.9
				c-5.7-0.7-24.2-3-43.8-6.4L993.8,308.4"/>
			<path id="Fill-10" class="st1" d="M804.7,287.6l-1.4,0.8c2.4,8.1,8.3,14.5,15.9,17.5c-1.8-3.1-3-6.6-3.7-10.2
				C811.2,294.2,807.4,291.4,804.7,287.6"/>
			<path id="Fill-11" class="st1" d="M933.5,332.5c-0.5,0.6-1,1.2-1.5,1.8c2.1,0.1,6.1,0.7,8.2,3.6c2.1,0.8,22.4,8,24.7,9.8
				c1.5,1.2,2.5,3.1,2.5,5.1c0.4,0.3,1.1,0.8,2,1.6l1.3-1.4c-0.9-1-1.6-2.3-2-3.7c-0.1-0.3,0.1-0.7,0.4-0.8c0.3-0.1,0.6,0,0.7,0.3
				c0,0,0,0,0,0c0.4,1.9,1.6,3.5,3.3,4.4c0.6,0.3,1.3,0.3,1.9,0c0.2-0.1,0.3-0.3,0.3-0.6c0.2-1.3-1.3-4.2-3.8-6.8
				c-0.3-0.4-0.7-0.7-1.1-1c-3.5-3-27.8-10.5-28-10.6l0,0C937.5,333.4,934.5,332.7,933.5,332.5"/>
			<path id="Fill-12" class="st1" d="M929,334.9c0-0.1,0.1-0.2,0.2-0.3c7.6-8.1,21.3-33.1,23.6-37.3c-0.8-0.3-2.3-1-4.4-1.9
				c-6.8-2.8-19.3-7.5-28.4-8.7c-1-0.1-3.4-0.5-4.5-0.7c0,0.7-0.1,1.3-0.3,2c-0.8,4.2-3.7,7.7-7.6,9c-4.6,1.8-7.8,0.1-10.1-2.8
				l-3.1-1.2c1.4,3.7,2.5,7.6,3.2,11.5c1.5,0.2,6.6,1.2,8.3,3.3c0.8,1,0.9,3.2,1,6c0.2,4.3,0.4,9.6,3.2,11.9
				c0.1,0.1,2.9,3.1,14.8,7.5c0.4-0.5,0.8-1,1.1-1.4l0.6-0.7c0.1-0.1,0.2-0.3,0.3-0.4c-1.5-0.4-10.1-2.5-14.2-5.9
				c-0.2-0.2-0.3-0.6-0.1-0.8c0.2-0.3,0.5-0.3,0.8-0.1c4.2,3.5,13.9,5.7,14,5.7c0.1,0,0.2,0.1,0.2,0.1c5.1-6.8,12.8-20.2,14.5-26.1
				c0.3-1.1,0.7-2.1,1.2-3.1c-6.1-2.9-12.6-5-19.2-6.2c-0.3-0.1-0.5-0.4-0.4-0.7c0,0,0,0,0,0c0-0.3,0.3-0.5,0.6-0.5c0,0,0,0,0,0
				c6.8,1.3,13.4,3.4,19.7,6.3c1.8-2.7,3.6-2.5,3.8-2.5l0,0c0.3,0.1,0.5,0.3,0.4,0.6v0.1c-0.1,0.3-0.3,0.5-0.6,0.5
				c0,0-2.7-0.1-4.4,5.8c-1.9,6.5-10.7,21.5-15.8,27.9c-0.2,0.2-0.4,0.5-0.6,0.7c-0.4,0.5-0.9,1-1.4,1.7l0,0
				c-1.2,1.8-2.1,3.9-0.7,6.5c2.7,5,4.8,7.2,6.7,7.1c-0.8-0.5-1.5-1.2-2.2-2c-0.2-0.3-0.2-0.6,0.1-0.8c0.2-0.2,0.6-0.2,0.8,0.1
				c0,0,0,0,0,0c0,0,2,2.5,4,2.3c1.1-0.2,2-1,2.5-2c-1.3-0.7-2.4-1.6-3.2-2.8c-0.2-0.3-0.1-0.6,0.1-0.8c0.2-0.2,0.6-0.1,0.8,0.1
				c0,0,2.1,3,4.6,2.8c1.6-0.1,3.1-1.5,4.5-4l-1.5-0.6c0,0.1,0,0.1,0,0.2c-0.2,0.5-0.7,0.9-1.2,1c-0.7,0-1.2-0.5-1.8-1.7
				c-2-4.3-9.1-4.1-9.2-4c-0.2,0-0.4-0.1-0.5-0.4c0-0.1,0-0.2,0-0.4"/>
			<path id="Fill-16" class="st2" d="M952.9,297.3c-12.4-4.4-25.2-7.4-38.2-9l-2.5,4.8c0,0-4.4,4.5-8.5,4.5
				c-2.5-0.1-4.7-1.5-5.9-3.7l-4.3-1.5l3.5,12.5l4.6,1l4,2.3l1.2,2.3c-0.9,5,1.1,10,5,12.9l0,0c2.7,6,14.4,8.2,14.4,8.2l1.5-1.4
				l-6.4-1.9l-3-1.7c3.6,1.1,7.2,2,10.8,2.8l2.6-3.7l8.3-15.5l3.4-8.3l2-2.9c0,0,4.1-5.2,1.3,3.2c-2,6-10.9,20-15.8,27.5h0.2l-3.5,5
				l-0.5,0.6l2-0.4l3.7-4.9c12,2.2,24.4,3.6,24.4,3.6s83,5.2,61.2,1.6c-23.4-3.9-33.5-6.8-33.5-6.8c-13.6-5.6-4.6-10.6-4.6-10.6
				s4.5,0.4,34.5,0s-0.2-4.9-20.5-7.1c-20.3-2.3-42.4-9.4-42.4-9.4L952.9,297.3"/>
			<path id="Fill-17" class="st2" d="M939.6,341.9c0.9,4.5,5.4-0.8,5.4-0.8l-0.9-1.6c0.5-2.5-0.9-5-3.3-5.5c-0.1,0-0.2,0-0.3-0.1
				l-7.4-1.6l-2.4,3.5C930.7,335.8,938.7,337.4,939.6,341.9"/>
			<path id="Fill-18" class="st2" d="M934.5,342.2c-1.4,5.4,3.5,2.9,3.5,2.9L934.5,342.2"/>
			<path id="Fill-22" class="st3" d="M967.4,353.9l-5.9,1.2c0,0-21.6,15.4-22.1,23.7c-0.3,4.9,7,13.9,11.4,15.4
				c2.3,0.5,4.7,0.3,7-0.6c3.9-2,9.2-7.3,16.5-5.5c6.2,1.5,24.8,7.6,24.2,0.8c-0.6-6.8-25.4-14.1-22.2-21.2
				C978.8,361.9,967.4,353.9,967.4,353.9"/>
			<path id="Fill-24" class="st4" d="M957.4,392.4c0,0-14.3-11.1-12.3-16.6c2.5-7,18.5-19.2,18.5-19.2l2.8-3
				C966.4,353.6,978.9,380.9,957.4,392.4"/>
			<path id="Fill-28" class="st5" d="M980.8,234.4c-0.3-0.1-0.6,0-0.7,0.3c0,0,0,0,0,0c-6,17.5-14.7,17.5-16.9,17.2
				c0.1-0.4,0.2-0.8,0.3-1.2c1-5.2,1.1-10.5,0.3-15.7c0-0.3-0.3-0.6-0.6-0.5c-0.3,0-0.5,0.3-0.5,0.7c0.8,5.7,0.6,11.5-0.7,17.1l0,0
				l0,0c-0.9,3.7-2.6,7.2-4.8,10.2c-7.2,9.6-18.5,10.9-18.6,10.9c-0.3,0.1-0.5,0.4-0.5,0.7c0.1,0.3,0.3,0.5,0.6,0.5
				c0.5,0,11.9-1.4,19.4-11.4c2.2-3,3.9-6.5,4.9-10.1c2.4,0.4,12,0.7,18.3-17.9V235C981.3,234.7,981.1,234.4,980.8,234.4z
				 M991.6,180.9c9.8-7.6,26.7,15.3,27.7,16.7c0.5,1.2,0.9,2.2,1.2,2.9c-2.9-1.3-6.2-1.5-9.2-0.6c-5.2,1.7-8.7,6.8-10.1,14.5
				s1.6,11.3,4.4,14.9c2.5,3.3,5.1,6.6,5.1,13c0,4.1-1.2,7.2-3.4,9.4c-2.3,2-5.2,3.2-8.3,3.2c-3.3-0.6-7.1,0.4-10.8,3.1
				c-8.3,6-7.9,12.7-7.5,19.1c0.3,2.6,0.2,5.2,0,7.8c-2.7,18-17.6,16.4-18.7,16.2c-2.6-0.7-5.1-1.4-7.4-2.1c0.3-0.5,0.4-0.8,0.5-0.9
				c0,0,0.1-0.1,0.1-0.2c0-0.1,0-0.2,0-0.3c0-0.2-0.2-0.3-0.3-0.3c-0.2-0.1-20.6-9.2-34-11l-4.6-0.7c0-2.9-0.4-5.8-1.3-8.5
				c-0.1-0.3-0.4-0.5-0.7-0.4c-0.3,0.1-0.5,0.4-0.4,0.7c2.9,9.9,0.8,16.5-6,19.1c-5.5,2.1-9.3-0.7-12.8-9.4
				c-2.2-5.1-5.3-9.7-9.1-13.6c-0.2-0.2-0.6-0.2-0.8,0c-0.1,0.2-0.2,0.4-0.1,0.6l-0.6,1.5c-2-3.7-5.9-6.5-7-7.2
				c1-2.5,1.4-5.2,1.3-7.8c-0.2-3.3,1.1-6.4,3.4-8.6l0.3-0.4c0.5-0.5,0.8-1.1,1-1.8c0.1-0.3,0.1-0.6,0-0.9c-0.2-1-1.1-2.1-2.7-3
				c-2.7-1.3-5.7-1.5-8.5-0.6c-9.1-1.8-14.5-1.3-16,1.5c-1.2,2.2,0.2,5.2,2,7.3l0.4,0.5c0.8,1,2,2.4,3,3.9l0,0
				c1.8,2.5,3.2,5.5,2.6,7.7c-0.5,1.5-2,2.6-4.4,3.3c-9.4,2.5-16.2-7.2-17-8.4c0-0.4,0-0.8-0.1-1.2c-0.8-4.8-4.4-12.7-19.7-12.3
				c-0.2,0-0.5,0.2-0.5,0.4c0,0.1-2.9,10.7,3.4,20.1c-1.4,2.7-2.3,5.6-2.6,8.6c-0.4,4.4,0.3,10.8,5.6,17.4c-2.8-1.6-5.4-3.6-7.7-6
				c-6.3-6.5-8.4-14.5-6-23.5c3.4-13.4-2.2-17.8-7.2-21.7c-3.6-2.8-7-5.5-7-11.2c0-0.9,0.1-1.7,0.3-2.5c0.6-2.5,1.6-4.9,3.1-7
				c2.8-4.3,6.8-4,10.6-3.6c3.1,0.3,6.1,0.6,7.7-2.1c1.3-2.3,2-8.4,0.1-12.5c-0.9-2.1-2.9-3.5-5.1-3.7c-2.5-0.2-4.5,0.4-5.7,1.9
				c-1,1.3-1.5,2.8-1.5,4.4c-0.7-1.7-0.9-3.6-0.4-5.4c0.6-1.8,2-3.1,4.4-3.8c8-2.8,14.8,4,15.8,5c-1.7,4.4-2.6,9.1-2.5,13.8
				c0,0.3,0.3,0.6,0.6,0.6c0,0,0,0,0,0c0.3,0,0.5-0.3,0.5-0.6c-0.1-4,0.6-8,1.8-11.9c2.8-7.9,8.2-12.5,16.1-13.4
				c4-0.6,8-0.3,11.9,0.7c0.1,0,0.2,0.1,0.2,0.1c8.7,2.7,11.1,9.6,11.2,10c0.1,0.3,0.4,0.5,0.7,0.4c0.2-0.1,0.3-0.2,0.4-0.4
				c0-0.1,0-0.2,0-0.3c0-0.1-2.5-7.4-11.4-10.5c0.9-1.3,3.4-4.2,6.5-4.5c2.2-0.2,4.3,0.8,6.4,3.1c3.7,4.1,8.3,5.7,12.8,4.5
				c3.6-0.9,6.5-3.8,7.5-7.6c0-0.2,0.1-0.3,0.1-0.5c0-0.2,0.1-0.7,0.1-1c0.5-0.9,4.1-7.2,10.2-7.9c4.4-0.5,9.1,2.1,13.9,7.8
				c-2.1,0.3-4.2,1.1-5.9,2.5c-5.1,4.2-7.1,13.1-5.7,26.4c0,0.3,0.3,0.6,0.6,0.5c0,0,0,0,0,0c0.3,0,0.5-0.3,0.5-0.6c0,0,0,0,0,0
				c-1.3-12.8,0.5-21.4,5.3-25.3c3.8-3.1,8.6-2.5,10.6-2c-1.7,1.8-6,6.8-9.9,16.4c-0.1,0.3,0,0.6,0.3,0.8c0.3,0.1,0.6,0,0.8-0.3
				c4.8-11.5,10.2-16.5,10.4-16.7c3.7-2.9,7.5-4.1,11.5-3.5c10,1.5,18.8,13.9,24.6,22.2c1.1,1.5,2,2.9,2.9,4
				c9,12,14.5,12.7,17.5,11.2c4.6-2.3,5.7-10.7,4.6-15.7l-0.1-0.5C983.5,197.9,981.6,188.6,991.6,180.9L991.6,180.9z"/>
			<path id="Fill-29" class="st4" d="M1010.3,191.6c-9.8-3-14.5,4.5-14.5,4.5c9.3-7.9,16.7-0.4,16.7-0.4s-13.8-0.7-21,10.5
				c-4.3,6.9-5.6,15.2-3.8,23.2c-4.2,2.9-7.7,6.8-10.3,11.3l-3.8,6.3l-3.9,3.1l-4.4,1.8l-3.5-0.1l0.2,1.5l-3.1,6.3l-5,5.9l-5.6,4.8
				c-3.6,1.9-6.9,4.3-9.8,7.3c-3.8,4.3-10.3,4.4-10.3,4.4c2.5,1.2,7.9,0,7.9,0c-3.5,2.5-8.2,3.4-11.6,3.7
				c13.2,2.7,30.1,10.3,30.3,10.4c0.1,0.1,0.3,0.2,0.3,0.3c0,0.1,0,0.2,0,0.3c0,0.1,0,0.1-0.1,0.2c-0.1,0.1-0.2,0.4-0.5,0.9
				c2.3,0.7,4.8,1.5,7.4,2.1c1,0.1,2.1,0.1,3.1,0c6.5-3,10.9-9.4,11.5-16.8c0,0,0.6,6.6-2,10.4c0,0,5.2-6.1,6.1-18.3
				c-0.4-6.3-0.6-12.8,7.5-18.6c2.1-1.5,4.4-2.6,6.9-3c3-1.5,8.5-5.4,7.9-13.4c0,0,3.4,5.1,0.1,9.2c0,0,7-2.7,4.5-14.8
				c-0.5-2.1-0.8-4.1-1.2-6.1l-0.6-0.7c-2.8-3.6-5.7-7.3-4.4-14.9c1.3-7.6,5-12.8,10.2-14.5c3.1-0.9,6.3-0.7,9.3,0.6
				c-0.3-0.7-0.6-1.7-1.2-2.9c-0.7-0.9-7.9-10.7-15.6-15.5C1006.3,184.3,1008.4,187.9,1010.3,191.6"/>
			<path id="Fill-30" class="st6" d="M980.8,234.1c0.1-0.3,0.5-0.5,0.8-0.3c0.2,0.1,0.4,0.4,0.4,0.6v0.1
				c-6.3,18.5-16,18.2-18.4,17.8c-1,3.7-2.7,7.1-4.9,10.1c-7.6,9.9-19.1,11.2-19.6,11.2c-0.3,0-0.6-0.2-0.6-0.5
				c0-0.3,0.2-0.6,0.5-0.6c0,0,0,0,0,0c0.1,0,11.6-1.3,18.8-10.8c2.3-3,3.9-6.4,4.8-10.1l0,0l0,0c1.3-5.6,1.5-11.4,0.7-17
				c0-0.3,0.2-0.6,0.5-0.6c0,0,0,0,0,0c0.3,0,0.6,0.2,0.6,0.5c0.8,5.2,0.7,10.5-0.3,15.7c-0.1,0.4-0.2,0.8-0.3,1.2
				C966,251.5,974.8,251.5,980.8,234.1"/>
			<path id="Fill-31" class="st4" d="M856.8,246.7c0.7-1.3,3.4-3.1,13.4-1.3c-1.8,0.8-3.4,2.1-4.6,3.7c-1.8,2.1-3.2,4.6-4.1,7.3
				c-0.9-1.1-1.7-2.2-2.4-3l-0.4-0.4C857.3,251.1,855.9,248.4,856.8,246.7"/>
			<path id="Fill-32" class="st2" d="M867,262.3c0,0-0.3-3.6,3-4.1c-0.5,0.6-0.9,1.3-1.1,2.1c0,0,2.9-2.6,4,2.1l-2.2-1l-2.7,1.7
				L867,262.3"/>
			<path id="Fill-33" class="st6" d="M872.5,249.6c0.1-0.3,0.3-0.5,0.6-0.4c0,0,0,0,0,0c1.6,0.7,2.6,2.3,2.7,4.1c0,0.1,0,0.1,0,0.2
				c0,0.2-0.2,0.4-0.4,0.5c-0.2,0-0.3-0.1-0.4-0.2c-0.1-0.1-0.1-0.2-0.1-0.3c-0.1-1.4-0.9-2.5-2.1-3.1
				C872.6,250.2,872.4,249.9,872.5,249.6L872.5,249.6L872.5,249.6"/>
			<path id="Fill-34" class="st6" d="M869,253.9c2.2,0,4.3,0.8,5.9,2.3c0.4,0.4,0.7,0.8,0.9,1.3c0,0.1,0,0.2,0,0.3
				c-0.1,0.2-0.2,0.3-0.4,0.4c-0.3,0.1-0.7,0-0.8-0.3c-1.4-2.9-5.4-2.9-5.5-2.9c-0.3,0-0.6-0.2-0.7-0.5c0-0.3,0.2-0.6,0.5-0.6
				C869,253.9,869,253.9,869,253.9"/>
			<path id="Fill-35" class="st5" d="M804.8,241.2c-0.2-0.3-0.3-0.6-0.5-0.9c0.9,0.9,1.9,1.6,2.9,2.4c4.9,3.9,10,7.9,6.7,20.8
				c-5,19.6,10.5,29.4,15.5,31.9c-4.9,1.2-20.3,3.4-27.4-12.6c-6.5-14.7-5.1-21.1-3.6-23.7c0.9-1.6,2.5-2.7,4.4-2.8h0.9
				c1.7,0,4,0,5-1.7c0.9-1.4,0.8-3.8-0.5-7.1C807.2,245.5,806.1,243.3,804.8,241.2"/>
			<path id="Fill-36" class="st6" d="M869.9,263c0.2-0.1,2.4-1.4,4.1-0.7c0.8,0.4,1.5,1.2,1.6,2.1c0,0.1,0,0.2,0,0.2
				c-0.1,0.2-0.2,0.4-0.5,0.4c-0.3,0.1-0.6-0.1-0.7-0.5c-0.1-0.6-0.4-1-0.9-1.3c-1-0.2-2.1,0-2.9,0.6c-0.6,0.4-1.4,0.5-2.1,0.3
				c-0.8-0.4-1.3-1.2-1.5-2.1c0-0.3,0.2-0.6,0.4-0.6c0,0,0,0,0,0c0.3-0.1,0.6,0.1,0.7,0.5c0.1,0.3,0.3,1,0.8,1.3
				C869.3,263.3,869.6,263.3,869.9,263"/>
			<path id="Fill-37" class="st5" d="M884.9,274.9l0.6-1.5c0,0.1,0.1,0.2,0.2,0.3c1.8,2,3.5,4.1,5,6.4c0,0.1-0.1,0.1,0,0.2
				c-0.2,3.1-1.1,5.2-2.8,6.1c-2.3,1.3-5.7,0.4-8.4-0.8c1,0,2-0.1,2.9-0.5c1.5-0.7,2.7-2.1,3.2-3.8
				C886.3,279.2,886,276.8,884.9,274.9"/>
			<path id="Fill-38" class="st2" d="M823.8,247.9c0,0,5,23.5,14.1,20.6C847,265.6,831.6,248.7,823.8,247.9"/>
			<path id="Fill-39" class="st6" d="M850.5,272.4c0.2-0.3,0.5-0.3,0.7-0.2c0,0,0,0,0,0l4.4,3c0.2,0.1,0.3,0.4,0.2,0.6
				c0,0.1,0,0.1-0.1,0.2c-0.2,0.3-0.5,0.3-0.7,0.2c0,0,0,0,0,0l-4.4-3C850.4,273.1,850.4,272.7,850.5,272.4
				C850.5,272.4,850.5,272.4,850.5,272.4"/>
			<path id="Fill-40" class="st4" d="M890.3,283.1c0.1-0.3,0.1-0.7,0.2-1c1.2,1.7,2.2,3.5,3,5.3c0.8,2,1.8,3.9,3,5.6l-2.6-1
				c-1.1-2.4-2.3-5-3.8-7.8C890.2,283.9,890.3,283.5,890.3,283.1"/>
			<path id="Fill-41" class="st6" d="M847.2,273.8c0.2-0.2,0.5-0.3,0.8-0.1l7,4.7c0.2,0.1,0.3,0.3,0.2,0.6c0,0.1,0,0.1-0.1,0.2
				c-0.2,0.3-0.5,0.3-0.8,0.1l-7-4.7C847.1,274.4,847,274.1,847.2,273.8C847.2,273.8,847.2,273.8,847.2,273.8"/>
			<path id="Fill-42" class="st2" d="M834.6,316.3c0,0,9,10.3,25.7,12.5c16.7,2.2,21.8-4,21.8-4s1-0.5-0.1-1.1
				c-1.1-0.6,3.5-13.9,3.5-13.9s-2.5,11.9-0.2,13.6c0.4-5.6,1.3-11.1,2.6-16.5c2.2-8.8-0.4-6.8-3.1-6c0,0,0-1.5,2.2-2.5
				c0,0-7.9-9-19.3-10S849,278.2,849,278.2l-17.1,35.7L834.6,316.3"/>
			<path id="Fill-43" class="st7" d="M859.4,280.6c0.1-0.1,0.3-0.1,0.4-0.1c1.9,0.7,3.4,2.1,4.3,3.9c0.6,1.3,0.7,2.8,0.4,4.2
				c-0.1,0.4-0.2,0.8-0.3,1.2c-3.8,11.3-11.6,10.5-11.7,10.5c-0.2,0-0.3-0.1-0.4-0.3c-0.1-0.2-0.1-0.4,0-0.6c0.1-0.1,5.3-9.9,7-18.3
				V281C859.2,280.8,859.3,280.7,859.4,280.6"/>
			<path id="Fill-44" class="st7" d="M885.8,305.3c-0.4-0.9-1.1-1.6-1.9-2.2c-0.5,0.9-1,1.9-1.3,2.9
				C883.6,306,884.7,305.7,885.8,305.3"/>
			<path id="Fill-45" class="st6" d="M859.5,293.1c-1.2-0.5-1.9-1.6-2-2.9c-1.5,4-3.2,7.5-4,9c1.7-0.1,5.5-1,8.3-6.3
				C861.1,293.3,860.2,293.4,859.5,293.1z M859.5,280.6c0.1-0.1,0.3-0.1,0.4-0.1c1.9,0.7,3.4,2.1,4.3,3.9c0.6,1.3,0.7,2.8,0.4,4.2
				c-0.1,0.4-0.2,0.8-0.3,1.2c-3.8,11.3-11.6,10.5-11.7,10.5c-0.2,0-0.3-0.1-0.4-0.3c-0.1-0.2-0.1-0.4,0-0.6c0.1-0.1,5.3-9.9,7-18.3
				V281C859.2,280.8,859.3,280.7,859.5,280.6L859.5,280.6z M863.7,287.1c0-0.7-0.1-1.4-0.4-2.1c-0.7-1.4-1.8-2.5-3.2-3.1
				c-0.3,1.4-0.7,2.9-1.2,4.3c0.8-0.9,2-1.2,3.1-0.8C862.8,285.7,863.4,286.3,863.7,287.1L863.7,287.1z"/>
			<path id="Fill-49" class="st7" d="M849.2,314L849.2,314c-0.1,0.4-0.2,0.7-0.3,1l0,0c-0.6,2.3-1.6,4.6-2.9,6.6
				c-0.9,1.3-2,2.4-3.2,3.3c2,0.5,6.7,0.9,9.2-3.3c1.6-1.4,1.4-5.8,1.4-5.8c-0.1-1.4-0.7-2.6-1.6-3.6l0,0c-0.9-0.7-1.6-1.3-2.1-1.8
				C849.7,311.7,849.5,312.9,849.2,314"/>
			<path id="Fill-50" class="st6" d="M886,306.6c-0.4-0.7-0.9-1.4-1.6-1.8c-0.4,0.8-0.8,1.6-1.1,2.5
				C884.2,307.2,885.1,307,886,306.6z M885.4,302.4c0.3,0,0.6,0.2,0.6,0.5c0,0,0,0,0,0c0,0.1,0,0.1,0,0.2c-0.1,0.3-0.3,0.4-0.5,0.5
				c0,0-0.2,0-0.4,0.3c1,0.7,1.7,1.7,2.2,2.8l0.2,0.4l-0.3,0.3c-1.3,0.8-2.8,1.2-4.2,1.1c-0.3,1-0.7,2.1-1.1,3.5
				c-1,3.3-1.7,6.7-2.2,10.1c-0.1,1.2,0.3,1.5,0.5,1.6c0.3,0,0.5,0.3,0.5,0.6c0,0.3-0.3,0.6-0.6,0.5c-0.4,0-0.7-0.2-1-0.5
				c-0.5-0.6-0.7-1.5-0.6-2.3c0.8-4.9,2-9.7,3.5-14.4l0,0c0.4-1.3,1-2.6,1.8-3.7C884.1,303.2,884.7,302.7,885.4,302.4L885.4,302.4z"
				/>
			<path id="Fill-51" class="st5" d="M898.5,306.4c2.2,0.4,6.2,1.4,7.5,2.8c0.6,0.7,0.7,2.9,0.8,5.2c0.2,4.4,0.5,10,3.8,12.5
				c0.9,0.8,2,1.6,3.1,2.2l-0.3,1c-0.3-0.2-0.7-0.3-1-0.5c-2.7-0.9-5.6-0.4-7.8,1.4c-1.8,1.4-2.1,3.5-2.3,5.6
				c-0.4,3.4-0.8,6.6-7,7.7c-9.7,1.8-12.8-8.8-13.1-9.6c0-1.3-0.3-2.6-0.6-3.8c6.3-2.4,12.1-6,17-10.7c0.1-0.1,0.1-0.2,0.2-0.3
				c0-0.1,0.1-0.2,0.1-0.6C899.1,317.9,899.7,313.4,898.5,306.4"/>
			<path id="Fill-52" class="st6" d="M849.3,321.3c-1-0.4-1.6-1.3-1.8-2.4c-0.9,1.9-2.2,3.7-3.7,5.2c1.8,0.4,5.7,0.8,8-3.1
				C851,321.4,850.1,321.6,849.3,321.3z M873.4,319.1l-0.4,0.3L873.4,319.1z M851.6,312.2c-0.8-0.6-1.4-1.2-1.9-1.6
				c-0.1,1.4-0.4,2.9-0.7,4.3c0.7-0.6,1.7-0.8,2.7-0.5c0.6,0.2,1.1,0.7,1.4,1.2C852.9,314.3,852.4,313.2,851.6,312.2L851.6,312.2z
				 M873.6,310.5c0,0,0.1,0,0.1,0h0.1l0.1,0.1l0,0c2.4,2.4,2.2,6.6,2.2,6.8v0.1c0,0.1,0,0.1-0.1,0.2c-0.9,1.8-2.6,3.1-4.5,3.5
				c0,0-0.1,0-0.1,0h-0.1c-6.3-1.1-12.4-3.6-17.7-7.3c0.5,1.4,0.5,2.9,0.2,4.4c-0.1,0.7-0.3,1.4-0.6,2c-3.2,7.7-10.9,4.7-11,4.7
				c-0.2-0.1-0.3-0.3-0.3-0.5c0-0.2,0.1-0.4,0.2-0.6c0.1,0,5.9-4.3,6.4-14.5v-0.1c0,0,0-0.1,0-0.1c0,0,0-0.1,0.1-0.1c0,0,0,0,0-0.1
				l0,0l0.1-0.1l0,0c0,0,0.1,0,0.1,0h0.1l0,0c0,0,0,0,0.1,0c0,0,0.1,0,0.1,0c0,0,0.1,0,0.1,0.1h0.1c6.1,5.8,13.7,9.6,21.9,11
				c0.6-0.8,2.2-3.7,1.7-8.8l0,0c0,0,0-0.1,0-0.1c0,0,0-0.1,0-0.1l0-0.1v-0.1l0,0h0.1c0,0,0.1-0.1,0.1-0.1h0.1h0.1h0.1L873.6,310.5z
				"/>
			<path id="Fill-53" class="st6" d="M1004.7,178c5,2,9.2,8.8,12,14.4c-3.9-4.7-11-12.4-17.8-14.5
				C1000.8,177.2,1002.8,177.2,1004.7,178z M1019.8,199.8c-2.9-1.3-6.2-1.5-9.2-0.6c-5.2,1.7-8.7,6.8-10.1,14.5s1.5,11.3,4.3,14.9
				c2.5,3.3,5.1,6.6,5,13c0,4.1-1.2,7.2-3.4,9.4c-2.3,2.1-5.2,3.2-8.2,3.3c-3.3-0.6-7.1,0.4-10.8,3.1c-8.2,6-7.8,12.7-7.4,19.1
				c0.3,2.6,0.2,5.2-0.1,7.8c-2.7,18-17.5,16.4-18.6,16.2c-2.6-0.7-5.1-1.4-7.4-2.1l0.5-0.9c0,0,0.1-0.1,0.1-0.2c0-0.1,0-0.2,0-0.3
				c-0.1-0.2-0.2-0.3-0.3-0.3c-0.2-0.1-20.5-9.2-33.9-11l-4.6-0.7c0-2.9-0.4-5.8-1.3-8.5c-0.1-0.3-0.4-0.5-0.7-0.4s-0.5,0.4-0.4,0.7
				c2.9,9.9,0.8,16.5-6,19.1c-5.5,2.1-9.3-0.7-12.7-9.4c-2.2-5.1-5.3-9.7-9.1-13.6c-0.2-0.2-0.6-0.2-0.8,0c-0.1,0.2-0.2,0.4-0.1,0.6
				c0,0.1,0.1,0.2,0.2,0.3c1.9,2,3.6,4.1,5.1,6.4c0,0.1-0.1,0.1-0.1,0.2c-0.1,3.1-1.1,5.1-2.8,6c-2.3,1.3-5.8,0.4-8.5-0.8
				c1,0.1,2-0.1,3-0.5c1.5-0.7,2.7-2,3.2-3.7c0.7-2.1,0.4-4.5-0.8-6.4c-2-3.7-5.9-6.5-6.9-7.2c1-2.5,1.4-5.2,1.3-7.8
				c-0.2-3.3,1.1-6.4,3.4-8.6l0.3-0.4c0.5-0.5,0.8-1.1,1-1.8c0.1-0.3,0.1-0.6,0-0.9c-0.2-1-1-2.1-2.7-3c-2.7-1.3-5.7-1.5-8.5-0.6
				c-9-1.8-14.4-1.3-16,1.5c-1.2,2.2,0.2,5.2,2,7.3l0.4,0.4c0.8,1,2,2.4,3,3.9l0,0c1.7,2.5,3.2,5.5,2.5,7.7
				c-0.5,1.5-1.9,2.6-4.4,3.3c-9.4,2.5-16.2-7.2-17-8.4c0-0.4,0-0.8-0.1-1.2c-0.8-4.8-4.4-12.7-19.6-12.3c-0.2,0-0.5,0.2-0.5,0.4
				c0,0.1-2.9,10.7,3.4,20.1c-1.4,2.7-2.3,5.6-2.6,8.6c-0.4,4.4,0.3,10.8,5.6,17.4c-2.8-1.6-5.4-3.6-7.7-5.9
				c-6.3-6.5-8.3-14.5-6-23.5c3.4-13.4-2.2-17.8-7.1-21.7c-3.6-2.8-6.9-5.5-7-11.2c0-0.8,0.1-1.7,0.3-2.5c0.6-2.5,1.6-4.9,3.1-7
				c2.8-4.3,6.8-4,10.6-3.6c3.1,0.3,6,0.6,7.6-2.2c1.3-2.3,2-8.4,0.1-12.5c-0.9-2.1-2.9-3.5-5.1-3.7c-2.5-0.2-4.4,0.4-5.7,1.9
				c-1,1.3-1.5,2.8-1.5,4.4c-0.7-1.7-0.8-3.6-0.4-5.3c0.6-1.8,2-3.1,4.3-3.9c8-2.8,14.7,4,15.8,5.1c-1.7,4.4-2.6,9.1-2.5,13.8
				c0,0.3,0.2,0.6,0.5,0.6s0.6-0.2,0.6-0.5c0,0,0-0.1,0-0.1c-0.1-4,0.6-8,1.8-11.9c2.8-7.9,8.2-12.5,16-13.4c4-0.6,8-0.3,11.8,0.7
				c0.1,0,0.2,0.1,0.2,0.1c8.7,2.7,11.1,9.6,11.2,10c0.1,0.3,0.4,0.5,0.7,0.4s0.5-0.4,0.4-0.7c0,0,0,0,0,0c0-0.1-2.5-7.4-11.3-10.5
				c0.9-1.3,3.4-4.2,6.5-4.5c2.2-0.2,4.3,0.8,6.3,3.1c3.7,4,8.3,5.7,12.7,4.5c3.6-0.9,6.5-3.8,7.5-7.6l0.1-0.5
				c0.1-0.3,0.1-0.7,0.2-1c0.5-0.9,4.1-7.2,10.1-7.9c4.4-0.5,9,2.1,13.8,7.7c-2.1,0.3-4.2,1.2-5.9,2.6c-5.1,4.2-7,13.1-5.7,26.4
				c0.1,0.3,0.4,0.5,0.7,0.5c0.3-0.1,0.5-0.3,0.5-0.6c-1.3-12.8,0.5-21.4,5.3-25.3c3.8-3.1,8.6-2.5,10.6-2c-1.7,1.8-6,6.9-9.9,16.4
				c-0.2,0.3-0.1,0.6,0.1,0.8c0.2,0.2,0.6,0.1,0.8-0.1c0-0.1,0.1-0.2,0.1-0.2c4.8-11.5,10.2-16.5,10.3-16.7
				c3.7-2.9,7.5-4.1,11.4-3.5c10,1.5,18.7,13.9,24.5,22.1c1.1,1.5,2,2.9,2.9,4c9,11.9,14.4,12.7,17.4,11.2
				c4.6-2.3,5.7-10.7,4.6-15.7l-0.1-0.5c-1.3-6.1-3.2-15.4,6.8-23.2c9.7-7.6,26.6,15.2,27.6,16.7
				C1019.2,198.1,1019.6,199.1,1019.8,199.8L1019.8,199.8z M929.6,334.4c-0.1,0.1-0.1,0.2-0.2,0.3c0,0.1,0,0.2,0,0.4
				c0.1,0.2,0.3,0.4,0.5,0.4c0.1,0,7.2-0.2,9.2,4c0.5,1.2,1.1,1.7,1.8,1.7c0.5-0.1,1-0.4,1.2-0.9c0-0.1,0-0.1,0-0.2l1.5,0.6
				c-1.4,2.5-2.9,3.9-4.5,4c-2.5,0.2-4.6-2.7-4.7-2.8c-0.2-0.3-0.5-0.4-0.8-0.2c-0.3,0.2-0.4,0.5-0.2,0.8c0,0,0.1,0.1,0.1,0.1
				c0.9,1.2,2,2.1,3.2,2.8c-0.5,1-1.4,1.8-2.5,2c-2,0.2-4-2.3-4-2.3c-0.2-0.2-0.6-0.3-0.8-0.1c-0.2,0.2-0.3,0.6-0.1,0.8c0,0,0,0,0,0
				c0.6,0.8,1.4,1.4,2.2,2c-1.9,0.1-4-2.2-6.7-7.1c-1.4-2.6-0.5-4.7,0.7-6.4l0,0c0.5-0.6,0.9-1.2,1.4-1.7c0.2-0.3,0.4-0.5,0.6-0.7
				c5.1-6.3,13.9-21.2,15.8-27.6c1.7-5.8,4.3-5.8,4.4-5.8c0.3,0,0.5-0.2,0.6-0.5v-0.1c0-0.3-0.2-0.6-0.5-0.6h0c-0.1,0-2-0.1-3.8,2.5
				c-6.3-3-12.9-5.1-19.7-6.4c-0.3-0.1-0.6,0.2-0.7,0.5c-0.1,0.3,0.1,0.6,0.5,0.7c6.7,1.3,13.1,3.3,19.3,6.2c-0.5,1-0.9,2-1.2,3.1
				c-1.7,5.8-9.5,19.1-14.5,25.9c-0.1-0.1-0.2-0.1-0.2-0.1c-0.1,0-9.8-2.2-14.1-5.7c-0.2-0.2-0.6-0.2-0.8,0.1
				c-0.2,0.2-0.2,0.6,0.1,0.8c0,0,0,0,0,0c4.2,3.4,12.7,5.5,14.3,5.9c-0.1,0.1-0.2,0.3-0.3,0.4c-0.2,0.2-0.4,0.4-0.6,0.7
				c-0.3,0.4-0.8,0.9-1.2,1.4c-12-4.4-14.8-7.3-14.9-7.5c-2.8-2.3-3.1-7.6-3.2-11.8c-0.1-2.8-0.2-5-1-6c-1.7-2-6.8-3-8.4-3.3
				c-0.8-3.9-1.8-7.7-3.2-11.4l3.1,1.2c2.4,2.9,5.6,4.6,10.2,2.8c3.9-1.3,6.8-4.7,7.6-8.9c0.1-0.6,0.2-1.3,0.3-2
				c1.1,0.2,3.5,0.5,4.5,0.7c9.2,1.2,21.7,6,28.5,8.8c2.1,0.9,3.7,1.5,4.5,1.9C951,301.5,937.3,326.4,929.6,334.4z M1037.8,315
				l-3.4,1.9c-0.2,0.1-0.3,0.3-0.3,0.5c0,0.2,0.1,0.4,0.3,0.5l3,1.5c-17,3.1-44.9-0.4-47-0.7c-1.9-1.1-4-1.8-6.2-1.9
				c0,0,0-0.1,0-0.1c0.1-0.2,0-0.5-0.2-0.7c-1.7-1.4-3.7-2.4-5.8-2.7c-2.2-0.2-4.8,0.3-5.7,2.2c-0.6,1.2-0.3,2.7,0.8,4.5
				c-0.4-0.1-0.8-0.2-1.3-0.1c-0.3,0.1-0.5,0.4-0.5,0.7c0.1,0.3,0.3,0.5,0.7,0.5c0.9,0,1.7,0.3,2.3,0.9c-1.2,1-2.7,1.9-3.2,1.9
				c-0.2,0-0.4-0.1-0.5-0.2c-0.1-0.1-0.1-0.2-0.1-0.3c0-0.3-0.2-0.6-0.5-0.7c-0.3-0.1-0.6,0.2-0.6,0.5c-0.1,0.4,0,0.9,0.3,1.2
				c0.3,0.4,0.8,0.6,1.3,0.7c0.6,0,1.3-0.2,1.8-0.6c-0.3,0.6-0.3,1.4-0.2,2c0.3,1.4,1.6,2.3,3.9,2.9c7.4,1.8,9.3-1.4,9.4-1.6
				c0.1-0.1,0.1-0.3,0.1-0.4c1.1-0.2,2.1-0.6,3.2-1c12.3,4.3,36.4,6.7,43.6,7.3l-2.9,1.5c-0.2,0.1-0.3,0.3-0.3,0.5
				c0,0.2,0.1,0.4,0.2,0.5l3.2,2.6c-33.4,2.2-66.8-0.3-99.6-7.3c7.2-9.3,16.7-26.3,19.9-32.1c2.4,0.8,5,1.5,7.8,2.3l0,0
				c3.4,0.9,7,1.8,10.8,2.6s7.5,1.6,11.3,2.3c0,0,0.1,0,0.1,0c3.5,0.7,6.9,1.3,10.4,1.9h0.1C1013.6,312,1032,314.3,1037.8,315z
				 M1041.4,269.4c0.5-0.7,0.9-1.4,1.3-2.2c-16.8,35.1-46.8,39.9-48.8,40.2c-2.5-0.4-5.1-0.9-7.6-1.4
				C1017,298.9,1033.2,282.3,1041.4,269.4z M989.8,319.9L989.8,319.9c1.2,0.7,2.1,1.6,2.8,2.7c-3.6,4.2-9.3,4.2-9.3,4.2
				c-0.3,0-0.5,0.2-0.5,0.4l0,0c0,0.3,0.1,0.5,0.3,0.6c0.3,0.2,0.7,0.3,1.1,0.4c-1.1,0.6-3.3,1.1-7.1,0.2c-1.2-0.3-2.8-0.9-3.1-2
				c-0.3-1.4,1.3-3.2,2-3.8c0.1-0.1,0.1-0.2,0.2-0.3l0,0v-0.1l0,0c0,0,0,0,0-0.1c0,0,0-0.1,0-0.1c0,0,0-0.1,0-0.1c0,0,0-0.1,0-0.1
				c-2.1-2.3-3-4.3-2.4-5.5c0.6-1.2,2.7-1.7,4.6-1.5c1.5,0.2,2.9,0.7,4.1,1.6c-0.6,0.2-1.1,0.4-1.6,0.7c-0.2,0.1-0.3,0.4-0.3,0.7
				c0.1,0.3,0.3,0.4,0.6,0.4C985.2,317.8,988,318.7,989.8,319.9z M941.3,339.7c-0.1,0.1-0.2,0.3-0.2,0.3s-0.2-0.1-0.5-0.6
				L941.3,339.7L941.3,339.7z M941.8,334.4c0.2,0.1,24.8,7.6,28.3,10.6c0.4,0.3,0.8,0.7,1.1,1c2.5,2.5,4,5.3,3.9,6.6
				c0,0.2-0.1,0.4-0.3,0.5c-0.6,0.3-1.3,0.3-1.9,0c-1.7-0.9-2.9-2.5-3.3-4.4c-0.1-0.3-0.4-0.5-0.7-0.4c-0.3,0.1-0.5,0.4-0.4,0.7
				c0.4,1.4,1.1,2.6,2,3.6l-1.3,1.4c-0.9-0.8-1.7-1.3-2-1.6c0-2-1-3.9-2.5-5c-2.4-1.7-22.8-9-25-9.7c-2.1-2.8-6.2-3.4-8.3-3.5
				c0.5-0.5,1-1.1,1.5-1.7C933.8,332.8,936.9,333.6,941.8,334.4L941.8,334.4z M981.5,350.5c0.5,1,0.7,2.3,0.4,3.4
				c-0.1-0.1-0.2-0.2-0.2-0.3c-0.8-1-1.9-1.8-3.2-2.1c-0.2-0.6-0.2-1.4,0.1-2c0-0.1,0.2-0.2,0.6-0.2
				C980,349.3,980.9,349.7,981.5,350.5L981.5,350.5z M980.8,354.4c0.7,0.7,1.2,1.7,1.2,2.7c0,0.5-0.2,0.9-0.4,1.3
				c-0.2-1.5-0.8-2.9-1.7-4c-0.5-0.7-1.2-1.3-1.9-1.8l0,0C979.1,352.8,980.1,353.4,980.8,354.4L980.8,354.4z M980.5,360.5
				c-0.1,0.8-0.5,1.6-1.2,2c-1.7,1-4-1.5-4-1.5c-0.2-0.3-0.4-0.6-0.6-1l0.7-0.7c0.2,0.4,0.5,0.8,0.8,1c0.2,0.2,0.6,0.2,0.8,0
				c0,0,0,0,0,0c0.2-0.3,0.2-0.6-0.1-0.8c-1.3-1.5-1.7-3.6-1.1-5.5c0.3-0.6,0.6-0.6,0.7-0.6c0.7-0.1,1.8,0.9,2.5,1.8
				C980.2,356.6,980.7,358.5,980.5,360.5L980.5,360.5z M975,366.4c-2,4.4,4.9,8.5,11.5,12.4c5.2,3.1,10.6,6.4,10.9,9.2
				c0.1,0.6-0.1,1.2-0.5,1.6c-2.7,2.4-13.8-0.6-19.8-2.2c-1.3-0.3-2.5-0.7-3.3-0.9c-5.9-1.4-10.5,1.5-14.2,3.9c-1,0.7-2,1.3-2.9,1.7
				c-2.1,0.8-4.4,1-6.6,0.6c-4.2-1.4-11.4-10.3-11.1-14.9c0-0.3,0-0.5,0.1-0.8v-0.1c1.7-7.8,20.3-21.3,21.8-22.4l2.3-0.5l3.3-0.7
				c1,0.7,5.8,4.3,7.9,8c0,0.1,0,0.1,0.1,0.2C975.3,363.3,975.7,364.9,975,366.4L975,366.4z M919,339.6c-2.3-0.8-3.2-4-3.2-4
				c-0.3-1.7-0.9-3.2-1.9-4.5c-0.5-0.6-1-1-1.6-1.4c-0.3-0.2-0.6-0.4-0.9-0.5c-2.6-0.9-5.5-0.3-7.7,1.5c-1.8,1.4-2,3.6-2.3,5.7
				c-0.4,3.4-0.8,6.6-6.8,7.8c-9.5,1.9-12.5-8.8-12.7-9.6c0-1.3-0.2-2.6-0.6-3.9c6.2-2.5,11.9-6.2,16.7-10.9
				c0.1-0.1,0.1-0.2,0.2-0.3c0,0,0.1-0.3,0.1-0.6c0.3-1.5,1-6-0.2-13.1c2.2,0.4,6.1,1.4,7.3,2.8c0.6,0.7,0.7,2.9,0.8,5.2
				c0.2,4.5,0.4,10.1,3.6,12.6c0.9,0.9,1.9,1.6,3,2.2c3.8,2.2,7.9,4,12,5.5c-0.9,1.3-1.4,3-1.2,4.6C921.8,339.7,920.3,340,919,339.6
				L919,339.6z M873.7,343.2c1-0.9,1.7-2.1,2.1-3.5c0.2-0.6,0.4-1.2,0.5-1.8c0.4-1.9,0.4-3.9-0.1-5.7c1.4-0.3,2.7-0.7,3.9-1.2
				c0.6,1.9,0.7,3.9,0.3,5.8C879.1,341.9,875.8,343,873.7,343.2L873.7,343.2z M863,342.6c2.8,0.1,5.5-1,7.5-2.9
				c1.7-1.9,2.6-4.3,2.6-6.9c0.7-0.1,1.4-0.3,2.1-0.4c0.6,2.3,0.5,4.7-0.3,6.9c-0.5,1.9-1.9,3.4-3.6,4.1
				C868.6,344.4,865.2,343.5,863,342.6z M890.5,283.8c0.1-0.4,0.3-0.8,0.3-1.2c0.1-0.3,0.1-0.7,0.2-1c1.1,1.7,2,3.5,2.7,5.3
				c0.8,2,1.7,3.8,2.7,5.6l-2.5-0.9C893,289.1,891.8,286.5,890.5,283.8L890.5,283.8z M861.7,256.1c-0.8-1.1-1.7-2.1-2.3-2.9
				l-0.4-0.5c-1.4-1.7-2.8-4.3-1.8-6c0.7-1.2,3.3-3,12.9-1.3c-1.7,0.8-3.2,2.1-4.5,3.6C863.9,251.1,862.6,253.5,861.7,256.1z
				 M823.4,248.4l0.1-0.3c14-0.3,17.3,7,18,11.3c0.1,0.4,0.1,0.9,0.1,1.3v0.1c0.1,3.7-1.2,10.6-4.4,12.4c-1.9,1-4.3,0.3-7.1-2.5
				C821.3,262.3,822.8,251.2,823.4,248.4z M844.7,327.3c-3.3-1.4-6.6-3.2-9.6-5.2c2.7-2.8,4.6-6.3,5.5-10.2c0.2-0.9,0.3-1.9,0.3-2.8
				c0-0.2-0.1-0.3-0.2-0.4l-7.7-6.1c-0.1-0.1-0.3-0.2-0.5-0.1c-0.2,0-0.3,0.2-0.4,0.4l-4.7,13.2c-8.8-8.5-11.1-17.3-11.6-19.7
				c1.3,0.4,2.6,0.6,4,0.8c3.9,0.4,7.9,0,11.7-1.1l0,0c0.1,0,0.2-0.1,0.2-0.1l0,0c0,0,0.1-0.1,0.1-0.2v-0.1l0,0l0,0
				c0-0.1,0-0.2,0-0.3c0,0,0,0,0-0.1c0-0.1-0.1-0.1-0.1-0.2l0,0c-11.4-11.9-6.6-23.4-5-26.4c0.8,1.1,1.7,2.1,2.6,3
				c3.2,3.1,6,4,8.4,2.6s3.8-4.9,4.5-8.2c0.2-1.2,0.4-2.4,0.5-3.7c2.3,3,8.8,9.9,17.3,7.6c2.9-0.8,4.7-2.1,5.2-4.1
				c0.2-0.6,0.2-1.3,0.2-1.9c-0.1-2.2-1.4-4.6-2.8-6.7c0.2-0.8,0.8-3.6,3.9-7.6c0.9-1.2,2.1-2.2,3.4-2.9c0.7-0.4,1.5-0.8,2.3-1
				c0,0,0.1,0,0.1,0c2.5-0.9,5.3-0.7,7.8,0.5c1.3,0.7,2,1.4,2.1,2.1c0,0.7-0.3,1.3-0.8,1.7l-0.3,0.4c-2.1,2-3.4,4.8-3.7,7.8
				c0,0.5-0.1,1-0.1,1.6c0,1.4-0.1,2.7-0.3,4.1c-0.8,4.7-2.7,5.6-2.8,5.6c-0.3,0.1-0.5,0.4-0.4,0.7c0.1,0.3,0.4,0.5,0.7,0.4
				c0,0,0,0,0,0c0.8-0.4,1.6-1.1,2-1.9c1.5,1,9,6.5,7.2,12.1c-0.4,1.4-1.3,2.5-2.6,3c-2.9,1.3-6.9-0.7-7-0.7c-0.3-0.1-0.6,0-0.7,0.2
				c0,0,0,0,0,0c-0.1,0.3-0.1,0.6,0.2,0.8c0.4,0.2,9,5.9,14,3.1c0.9-0.5,1.7-1.3,2.2-2.2c9.8,19.9,7.5,32.2,7.2,33.7
				C891.2,324.3,873.9,340.1,844.7,327.3L844.7,327.3z M852.4,333.3c-0.5,0.8-0.9,1.7-1.2,2.6c-0.9,2.5-1.6,4.1-6.8,2.6
				c-2.7-0.6-5.1-2.4-6.6-4.9c-1.8-3.4-1.3-7.3-1-8.9c2.4,1.4,4.8,2.6,7.3,3.7c3.2,1.4,6.5,2.5,9.8,3.4
				C853.4,332.1,852.8,332.7,852.4,333.3L852.4,333.3z M802.6,288.8l1.4-0.7c2.6,3.7,6.3,6.5,10.5,7.9c0.6,3.5,1.8,6.9,3.6,10
				C810.7,303,805,296.7,802.6,288.8L802.6,288.8z M802.3,282.7c-6.5-14.4-5.1-20.8-3.7-23.3c0.9-1.6,2.5-2.6,4.3-2.7
				c0.3,0,0.6,0,0.9,0c1.7,0,3.9,0,5-1.7c0.9-1.4,0.7-3.7-0.5-7c-0.9-2.2-2-4.3-3.3-6.3l-0.5-0.8c0.9,0.8,1.9,1.6,2.9,2.4
				c4.9,3.8,9.9,7.8,6.7,20.4c-4.9,19.2,10.5,28.9,15.5,31.5C824.7,296.3,809.4,298.5,802.3,282.7L802.3,282.7z M997,177.6
				c-2.3-0.4-4.7,0.2-6.6,1.7c-10.6,8.3-8.6,18-7.2,24.4l0.1,0.5c1,4.7-0.1,12.5-4,14.4c-2.6,1.3-7.5,0.5-16-10.9
				c-0.8-1.1-1.8-2.4-2.8-4c-5.9-8.4-14.7-21-25.2-22.6c-4.3-0.6-8.6,0.7-12,3.5c-1.6-0.5-3.3-0.7-5-0.7c-5.2-6.4-10.4-9.3-15.3-8.8
				c-4.9,0.5-8.3,4.5-10,6.8c-0.2-3-1.5-6.9-5.8-11.2c-0.2-0.2-0.6-0.2-0.8,0c-0.2,0.2-0.2,0.6,0,0.8c0,0,0,0,0,0
				c5,5.1,5.7,9.5,5.4,12.4l0,0c0,0.5-0.1,1-0.2,1.4c-0.9,3.4-3.4,5.9-6.7,6.8c-4,1-8.2-0.5-11.6-4.2c-2.3-2.5-4.8-3.7-7.3-3.5
				c-3.9,0.4-6.8,4.1-7.5,5.3c-3.9-1.1-8-1.3-12-0.7c-8.6,1-13.3,6.1-15.8,11.5c-1.8-1.8-8.6-7.9-16.6-5.1c-2.7,0.9-4.4,2.5-5.1,4.6
				c-1.3,4.1,1.6,8.8,1.8,9c0.2,0.2,0.4,0.3,0.7,0.2c0.3-0.1,0.4-0.4,0.3-0.7c0,0-0.8-4.2,1-6.5c1-1.2,2.6-1.7,4.7-1.5
				c1.8,0.1,3.4,1.3,4.2,3.1c1.7,3.6,1.2,9.2,0,11.3c-1.2,2.1-3.6,2-6.6,1.7c-3.7-0.4-8.4-0.8-11.6,4.1c-6.4,9.7-3,15.4,0.6,21.4
				c1.2,1.9,2.3,4,3.2,6.1c1.1,2.8,1.3,4.8,0.7,5.9c-0.7,1.1-2.6,1.1-4.1,1.1h-0.9c-2.2,0.1-4.2,1.3-5.2,3.3
				c-1.9,3.3-2.8,10.2,3.6,24.4c0.6,1.3,1.3,2.6,2.1,3.8l-1.7,0.9c-0.2,0.1-0.4,0.4-0.3,0.7c2.5,8.9,9.1,16,17.6,18.8l0.1,0.2
				c2.8,4.7,7.9,11,16.8,16.4c-0.3,1.4-1.1,6.1,1,10.1c1.6,2.8,4.2,4.8,7.3,5.5c6.2,1.7,7.1-0.7,8.1-3.3c0.3-0.8,0.7-1.6,1.1-2.4
				c0.8-1.2,2.1-1.8,3.5-1.5c0.1,0,0.1,0,0.2,0c4.9,1,9.9,1.2,14.9,0.5c0,2.2-0.8,4.3-2.3,5.9c-2,2.1-5.2,2.9-9.5,2.5l-2.7-0.3
				l2.3,1.4c0.3,0.2,6.9,4,11.8,2l0.4-0.2c1.1,0.1,7.5,0.6,9.5-7.2V337c1.5,3.5,5.4,9.8,13.2,8.2c6.8-1.4,7.3-5.5,7.8-8.8
				c0.2-2,0.5-3.8,1.9-4.9c1.8-1.6,4.3-2.1,6.6-1.4c1.9,0.8,3.2,2.7,3.7,5.6c0.3,1.2,0.2,2.6-0.5,3.6c-0.5,0.6-1.1,1.1-1.9,1.2
				c-0.3,0.1-0.5,0.4-0.4,0.7c0.1,0.3,0.3,0.5,0.6,0.5c1.7-0.3,3-1.6,3.4-3.4c0,0,0-0.1,0-0.1c1.5,2.6,4.8,3.5,7.3,1.9
				c0.2-0.1,0.3-0.2,0.5-0.3c0.1,0.5,0.3,0.9,0.6,1.3c2.5,4.5,5.7,9.3,9.3,7.2c0.4,0.1,0.8,0.1,1.1,0.1c1.5-0.2,2.9-1.3,3.5-2.7l0,0
				c0.4,0.1,0.9,0.1,1.3,0.1c2-0.1,3.9-1.8,5.5-4.8c7.9,2.9,17.5,6.5,19,7.5c1.2,0.9,1.9,2.3,2,3.9l-5.4,1.1c-0.1,0-0.2,0-0.2,0.1
				c-0.9,0.7-22,15.7-22.5,24.2c-0.3,5.2,7.1,14.4,11.9,16.1c2.5,0.5,5.1,0.3,7.4-0.6c0.9-0.5,1.9-1.1,3-1.8c3.5-2.2,7.9-5,13.3-3.7
				c0.9,0.2,2,0.5,3.3,0.9c8.9,2.4,17.9,4.5,20.8,1.9c0.5-0.4,0.8-0.9,0.9-1.5c0.1-0.3,0.1-0.7,0-1c-0.3-3.4-5.7-6.7-11.4-10.1
				c-6.2-3.7-12.6-7.6-11.1-10.9c0.5-1.1,0.6-2.4,0.2-3.6c1.1,0.8,2.5,0.9,3.6,0.2c0.9-0.6,1.5-1.5,1.7-2.6v-0.2c0-0.1,0-0.3,0-0.4
				c0.7-0.7,1.2-1.5,1.4-2.5c0-0.2,0.1-0.3,0.1-0.5c0-0.7-0.1-1.3-0.3-1.9c0-0.2,0.1-0.4,0.2-0.6c0.3-1.2,0.3-2.5,0-3.7l1-1.1
				c1.4-1.7,1.3-4.3-0.4-5.8c-1.5-1.4-3.8-1.4-5.3,0.1l-3.8,4.2c-1.1-1.6-2.3-3-3.7-4.2c-2.3-2-12.7-5.6-20.3-8.1
				c18.6,3,49.8,6.6,84.2,3.9c0.2,0,0.4-0.2,0.5-0.4l0,0c0-0.2,0-0.5-0.2-0.6l-3.7-2.9l4-2c0.2-0.1,0.4-0.4,0.3-0.6
				c0-0.3-0.3-0.5-0.5-0.5c-0.3,0-29.6-2.3-44.4-7.1c1.1-0.7,2.2-1.6,3-2.7c0.1-0.1,0.1-0.2,0.1-0.3c0-0.1,0-0.3,0-0.4
				c-0.4-0.8-0.9-1.5-1.6-2.1c7.4,0.9,32.2,3.4,47.1,0.1c0.2,0,0.4-0.2,0.4-0.5v-0.1c0-0.3-0.1-0.5-0.3-0.6l-3.6-1.8l4-2.2
				c0.2-0.1,0.3-0.4,0.3-0.6c0-0.3-0.2-0.4-0.5-0.5c-0.3,0-20.2-2.3-42.4-6.1c7.6-1.9,14.8-5.2,21.3-9.7c10.6-7.3,24-21.2,31.3-46.6
				c0.4-1.4,0.8-2.6,1.1-3.8l2.4,2.8c0.1,0.2,0.4,0.3,0.6,0.2c0.2-0.1,0.3-0.2,0.4-0.4c0,0,0-0.1,0-0.1l0.8-20.5
				c0-0.3-0.1-0.5-0.4-0.6c-0.2-0.1-0.5,0-0.6,0.2l-12.7,17.9c-0.1,0.2-0.1,0.5,0,0.7c0.1,0.2,0.3,0.3,0.6,0.3l7.9-1.3
				c-0.3,1.5-0.7,2.9-1.1,4.3c-2,6.2-4.8,12-8.3,17.5c-8.4,13-25,30-57,36.7c-6.2-1.2-12.3-2.5-18-3.9c5.2-0.7,13.7-4,15.6-17.1
				c0.3-2.7,0.3-5.4,0.1-8.1c-0.4-6.4-0.8-12.5,7-18.1c5-3.6,10.1-4.1,13.7-1.2c2.6,1.9,3.7,5.2,2.9,8.4c-0.1,0.3,0.1,0.6,0.3,0.7
				c0,0,0,0,0,0c0.3,0.1,0.6-0.1,0.7-0.4c0.1-0.3,0.1-0.5,0.2-0.8c0.6-3.4-0.8-6.9-3.5-8.9c-0.5-0.4-1-0.8-1.6-1
				c2.4-0.4,4.6-1.6,6.3-3.3c2.4-2.4,3.7-5.9,3.7-10.2c0.1-6.8-2.6-10.3-5.3-13.7s-5.3-6.9-4.1-13.9c1.6-9.2,6-12.4,9.3-13.6
				c4.3-1.3,8.9-0.2,12.1,3c1.9,2,2.6,4.3,2,6.4c-0.1,0.3,0.1,0.6,0.4,0.7c0,0,0,0,0,0c0.3,0.1,0.6-0.1,0.7-0.4
				c0-0.2,0.1-0.3,0.1-0.5c0.4-2.7-0.5-5.4-2.5-7.1c-0.8-0.8-1.6-1.4-2.6-2l0,0c-0.3-0.8-6.6-19.7-16.2-23.6
				C1002.4,175.9,999.5,176.1,997,177.6z"/>
			<path id="Fill-54" class="st6" d="M854.4,283.5c0.3-1.6,0.5-2.7,0.5-2.9c0-0.2-0.1-0.4-0.2-0.6l-7.6-5.5
				c-0.1-0.1-0.3-0.1-0.5-0.1c-0.2,0-0.3,0.2-0.4,0.3l-7.6,16.3c-0.1,0.3,0,0.6,0.2,0.7l7.8,6.2c0.2,0.1,0.5,0.1,0.7,0
				C851.5,294.9,853.6,287.5,854.4,283.5"/>
			<path id="Fill-55" class="st5" d="M912.7,328.8l0.3-1c3.9,2.2,7.9,4,12.1,5.5c-0.9,1.3-1.4,3-1.2,4.6c-1.7,1-3.1,1.4-4.4,0.9
				c-2.3-0.9-3.2-4-3.2-4.1c-0.3-1.7-0.9-3.2-1.9-4.6C913.8,329.7,913.3,329.2,912.7,328.8"/>
			<path id="Fill-56" class="st2" d="M816.9,302c-0.9-1.9-1.5-3.9-1.9-5.9c-4.2-1.4-7.8-4-10.5-7.6l-1.3,0.7
				C803.1,289.2,808.1,299.3,816.9,302"/>
			<path id="Fill-57" class="st5" d="M876.6,331.4c1.3-0.3,2.5-0.8,3.7-1.3c0.5,1.9,0.6,3.9,0.2,5.9c-1.4,5.2-4.5,6.4-6.5,6.6
				c1-1,1.7-2.2,2.1-3.6c0.2-0.6,0.4-1.2,0.5-1.9C877.1,335.3,877.1,333.3,876.6,331.4"/>
			<path id="Fill-58" class="st5" d="M874.8,332c0.8-0.1,1.5-0.3,2.2-0.4c0.7,2.4,0.6,5-0.3,7.3c-0.6,2-2,3.6-3.9,4.3
				c-2.9,1-6.5,0.1-9-0.8c3.5-0.1,6.2-1.1,8.1-3.1C873.9,337.4,874.9,334.7,874.8,332"/>
			<path id="Fill-59" class="st5" d="M837,323.7c2.3,1.4,4.7,2.7,7.2,3.8c3.1,1.4,6.4,2.6,9.7,3.4c-0.7,0.4-1.2,1-1.6,1.6
				c-0.5,0.9-0.9,1.8-1.2,2.8c-1,2.6-1.6,4.3-6.8,2.9c-2.7-0.7-5.1-2.5-6.5-5.1C836.1,329.6,836.7,325.4,837,323.7"/>
			<path id="Fill-60" class="st6" d="M964.5,356.5c0.2,0,0.5,0.1,0.6,0.3c0.1,0.1,0.1,0.3,0.1,0.5c0,0.1-0.1,0.3-0.2,0.4
				c-0.2,0.1-18.8,13.3-19,20.1c-0.1,2.8,6.5,8.8,9.1,10.9c0.2,0.2,0.3,0.6,0.1,0.8c0,0,0,0,0,0c-0.2,0.3-0.6,0.3-0.8,0.1
				c0,0,0,0,0,0c-1-0.8-9.6-8-9.5-11.9c0.2-7.3,18.7-20.4,19.5-21C964.4,356.5,964.5,356.5,964.5,356.5"/>
			<path id="Fill-61" class="st6" d="M943.2,376.4c0.3,0,0.5,0.1,0.6,0.4c0,0,0,0,0,0.1c0,0.1,0,0.1,0,0.2c0,0.2-0.2,0.4-0.4,0.5
				l-2.1,0.5c-0.3,0-0.5-0.1-0.6-0.4c0,0,0,0,0-0.1c0-0.1,0-0.1,0-0.2c0-0.2,0.2-0.4,0.4-0.5L943.2,376.4"/>
			<path id="Fill-62" class="st6" d="M927.9,304c-0.2,0.5,0.7,1.3,2,1.8s2.5,0.4,2.7-0.1s-0.7-1.3-2-1.8
				C929.4,303.5,928.1,303.5,927.9,304"/>
			<path id="Fill-63" class="st6" d="M923.4,321.3c-0.2,0.5,0.5,1.3,1.6,1.7c1,0.4,2,0.3,2.2-0.2c0.2-0.5-0.5-1.3-1.6-1.7
				C924.6,320.6,923.6,320.7,923.4,321.3"/>
			<path id="Fill-64" class="st6" d="M839,263.5c-0.9,3.9-2.4,7.7-4.6,11c-0.2,0.3-0.5,0.3-0.8,0.1c-0.3-0.2-0.3-0.5-0.2-0.8
				c0,0,0,0,0,0c0.1-0.1,8.4-12.6,3-22.2c-0.2-0.3-0.1-0.6,0.2-0.8c0,0,0,0,0,0c0.3-0.2,0.6-0.1,0.8,0.2
				C839.5,254.9,840,259.4,839,263.5"/>
			<path id="Fill-65" class="st6" d="M833.8,258.7c-0.8,3.9-2.5,7.4-5,10.4c-0.2,0.2-0.6,0.2-0.8,0c-0.2-0.2-0.3-0.5-0.1-0.8
				c0,0,0,0,0,0c4.3-5.1,6-12,4.7-18.6c-0.1-0.3,0.1-0.6,0.4-0.7c0,0,0,0,0,0c0.3-0.1,0.6,0.1,0.7,0.5
				C834.4,252.5,834.5,255.6,833.8,258.7"/>
			<path id="Fill-66" class="st6" d="M829,252.6c-1.3,6.3-3.9,9.1-4,9.2c-0.2,0.2-0.5,0.2-0.7,0.1c0,0,0,0-0.1-0.1
				c-0.2-0.3-0.2-0.6,0.1-0.8c0,0,3.5-3.8,4.2-12.4c0-0.3,0.3-0.6,0.6-0.6c0.3,0,0.5,0.3,0.5,0.6c0,0,0,0,0,0
				C829.4,250,829.3,251.3,829,252.6"/>
			<path id="Fill-67" class="st6" d="M815.6,303.4c-0.1,0.3-0.2,0.6-0.3,0.9c-0.1,0.2-0.3,0.4-0.6,0.5c-0.3,0-0.5-0.2-0.5-0.4
				c0,0,0,0,0,0c0-0.3,0.1-0.5,0.3-0.6c0.1-0.1,0.8-1.4-0.4-7.8c-0.1-0.3,0.1-0.6,0.4-0.7c0.2-0.1,0.5,0.1,0.6,0.3c0,0,0,0.1,0,0.1
				C815.7,299.3,815.9,301.9,815.6,303.4"/>
			<path id="Fill-68" class="st6" d="M811.6,297.9c-0.6,2.8-2,3.5-2,3.6c-0.2,0.1-0.4,0-0.5-0.2c0,0,0-0.1,0-0.1
				c-0.1-0.3,0.1-0.6,0.3-0.8c0.1-0.1,2-1.2,1.5-6.2c0-0.3,0.1-0.6,0.4-0.7c0.2-0.1,0.5,0.1,0.5,0.5
				C811.9,295.2,811.8,296.5,811.6,297.9"/>
			<path id="Fill-69" class="st6" d="M808.3,293.9c-0.7,3.1-2.8,3.4-2.9,3.5c-0.3,0-0.6-0.2-0.7-0.5c0-0.3,0.2-0.6,0.5-0.6
				c0,0,0,0,0,0c0.1,0,1.7-0.3,2-3.1c0.1-0.3,0.4-0.5,0.7-0.5c0.3,0,0.6,0.3,0.5,0.7C808.4,293.5,808.4,293.7,808.3,293.9"/>
			<path id="Fill-70" class="st6" d="M806,290c-0.5,2.5-1.5,2.8-1.9,2.8c-0.3,0-0.6-0.2-0.6-0.6c0-0.3,0.2-0.5,0.5-0.6
				c0.1,0,0.6-0.4,0.9-2.4l0,0c0.1-0.3,0.5-0.5,0.8-0.4c0.2,0.1,0.4,0.3,0.4,0.6L806,290"/>
			<path id="Fill-71" class="st4" d="M804.4,241.1c1.3,2,2.4,4.1,3.3,6.3c0.3,0.9,0.6,1.7,0.8,2.6l0,0c0,0,1.4,1.4,0,20.1
				s12.3,23.3,12.3,23.3c-3.3-2.7-4.2-7.8-4.2-7.8c2.5,5.1,7.7,7.2,11.1,8c-5.7-3.2-19-12.7-14.4-30.7c3.2-12.6-1.8-16.5-6.7-20.3
				c-1-0.8-1.9-1.5-2.8-2.4C804,240.5,804.2,240.8,804.4,241.1"/>
			<path id="Fill-72" class="st4" d="M881.2,236c0,0,2.7-10.1-8.5-27.6C872.7,208.3,891.1,218.1,881.2,236"/>
			<path id="Fill-73" class="st4" d="M888.1,230.1c0,0,1.3-7.7-4.9-18.2C883.2,211.8,893.9,218.1,888.1,230.1"/>
			<path id="Fill-74" class="st4" d="M911.3,186.9c1.8-1.4,3.9-2.3,6.1-2.5c-1.4-1.7-3-3.2-4.8-4.5c-17.6,14.8-7.2,33.8-7.2,33.8
				C904,200.1,905.9,191.1,911.3,186.9"/>
			<path id="Fill-75" class="st4" d="M912.8,267.7c0,0,15.7,4.1,26.2-12.3C939,255.3,946.4,276.4,912.8,267.7"/>
			<path id="Fill-76" class="st4" d="M928.6,260.5c7.7-1.9,14-7.8,16.7-15.6C945.2,244.9,950.4,264.6,928.6,260.5"/>
			<path id="Fill-77" class="st4" d="M938.1,248.7c3.3-2.1,5.8-5.3,7-9.2C945.1,239.5,947.4,248.9,938.1,248.7"/>
			<path id="Fill-78" class="st4" d="M930.5,205.4c0,0,10.5-10.7,20.4,5.5C950.9,210.8,942.2,201.5,930.5,205.4"/>
			<path id="Fill-79" class="st4" d="M949.2,214.2c0,0,5.7,1.8,7.7,7.6C956.9,221.8,958.2,213.5,949.2,214.2"/>
			<path id="Fill-80" class="st4" d="M945.9,210.2c0,0,6.5,0.3,7.9,6.6C953.8,216.8,955.6,206.9,945.9,210.2"/>
			<path id="Fill-81" class="st2" d="M889.5,317.2c0,0-4.1-2.6,1-5.1C890.5,312.1,888.8,315.5,889.5,317.2"/>
			<path id="Fill-82" class="st2" d="M888.8,288.4c-1.9,0.7-4,0.8-6,0.3c-0.6-0.1-1.2-0.3-1.8-0.5c0,0,6.6,6.6,12.6,3.2
				c-0.8-1.6-1.7-3.3-2.6-5C890.5,287.3,889.7,288,888.8,288.4"/>
			<path id="Fill-83" class="st4" d="M898,320c-0.1,0.3-0.1,0.5-0.1,0.6c0,0.1-0.1,0.2-0.2,0.3c-3.5,3.3-7.4,6-11.6,8.2l0,0
				c0,0,3.2,11.4,10.7,5c0,0-3.5,1.2-5.7-1c3.9,0.8,7.6-1.8,8.5-5.8c1.4-5.2,4.8-6.6,6.6-7c-0.2-1.7-0.3-3.4-0.4-5
				c-0.1-2.3-0.2-4.5-0.8-5.1c-1.2-1.4-5.2-2.4-7.4-2.8C898.9,314.1,898.3,318.5,898,320"/>
		</g>
		<g id="Group-22">
			<g id="Group-23">
				<path id="Icon" class="st8" d="M380,132c-2.7,0.6-5.3,1.4-7.9,2.2c-75.8,23.6-100.6,128.4-49.5,196.6L451,511.6
					c3.3,4.7,9.7,5.7,14.2,2.2c2-1.6,3.4-3.8,3.9-6.4l43.2-220.6c18.8-84.4-46-168.3-124.2-156.3C385.4,130.9,382.7,131.4,380,132z
					 M418.5,302.5c-25.9,6-51.7-11.4-57.5-39c-5.8-27.6,10.5-54.8,36.4-60.8s51.7,11.4,57.5,39C460.7,269.3,444.5,296.5,418.5,302.5
					z"/>
				<g id="Group-28">
					<g id="between">
						<text transform="matrix(-0.1905 -1.0276 0.9798 -0.1998 539.9348 590.0723)" class="st8 st9 st10 st11">betwee</text>
						<text transform="matrix(-0.1905 -1.0276 0.9798 -0.1998 527.8546 524.8912)" class="st8 st9 st10 st11">n</text>
					</g>
					<g id="North-Doheny-Drive-a">
						<text transform="matrix(0.9375 -0.1911 0.1822 0.9833 542.0692 539.8385)" class="st12 st9 st13">No</text>
						<text transform="matrix(0.9375 -0.1911 0.1822 0.9833 571.6751 533.803)" class="st12 st9 st13">r</text>
						<text transform="matrix(0.9375 -0.1911 0.1822 0.9833 585.8303 530.9173)" class="st12 st9 st13">th Doheny Drive</text>
						<text transform="matrix(0.9375 -0.1911 0.1822 0.9833 577.5894 571.0608)" class="st12 st9 st13">and La Cienega</text>
					</g>
					<text transform="matrix(0.9342 -0.2099 0.2002 0.9798 145.756 653.0914)" class="st12 st14 st15">Santa Monica Boulevard</text>
				</g>
			</g>
		</g>
		<g id="location-info">
			<g id="Untitled-1">
				
					<image style="overflow:visible;enable-background:new    ;" width="1096" height="1476" xlink:href="1C9011C279CC9E5A.png"  transform="matrix(4.993225e-02 0 0 5.236797e-02 718.7437 724.9051)">
				</image>
				<rect id="rect-1" x="716.5" y="722.6" class="st16" width="59" height="81.8"/>
			</g>
			<g id="download-the-map">
				<text transform="matrix(0.9535 0 0 1 790.5 753.0244)" class="st17 st9 st18">download</text>
				<text transform="matrix(0.9535 0 0 1 790.5 753.0244)" class="st19 st9 st18">download</text>
				<text transform="matrix(0.9535 0 0 1 790.5 772.9512)" class="st17 st9 st18">the map</text>
				<text transform="matrix(0.9535 0 0 1 790.5 772.9512)" class="st19 st9 st18">the map</text>
			</g>
		</g>
		<g id="_6---10:30-pm">
			<text transform="matrix(0.9375 -0.1911 0.1822 0.9833 493.5092 693.2546)" class="st20 st9 st21">6 - 10:30 pm</text>
		</g>
		<g id="Text">
			<g id="Group">
				<g id="LIVE-MUSIC-_-DJs-KIL">
					<text transform="matrix(0.9342 -0.2099 0.2002 0.9798 211.3299 233.1334)" class="st17 st9 st22">LIVE MUSIC &amp; DJs</text>
					<text transform="matrix(0.9342 -0.2099 0.2002 0.9798 162.3697 324.4712)" class="st17 st9 st23">KILLER COSTUMES</text>
					<text transform="matrix(0.9342 -0.2099 0.2002 0.9798 131.1792 411.8355)" class="st17 st9 st23">DANCE / FOOD / DRINK</text>
					<text transform="matrix(0.9342 -0.2099 0.2002 0.9798 258.7898 463.8023)" class="st17 st9 st23">FUN FUN FUN</text>
				</g>
			</g>
		</g>
	</g>
</g>
</svg>
